<?xml version="1.0" encoding="utf-8"?>
<!-- Generator: Adobe Illustrator 16.0.0, SVG Export Plug-In . SVG Version: 6.00 Build 0)  -->
<!DOCTYPE svg PUBLIC "-//W3C//DTD SVG 1.1//EN" "http://www.w3.org/Graphics/SVG/1.1/DTD/svg11.dtd">
<svg version="1.1" id="Layer_1" xmlns="http://www.w3.org/2000/svg" xmlns:xlink="http://www.w3.org/1999/xlink" x="0px" y="0px"
	 width="1053px" height="3717px" viewBox="0 0 1053 3717" enable-background="new 0 0 1053 3717" xml:space="preserve">
<g>
	<path fill="#F2F2F2" d="M1036.66,106.149c-0.146-51.004-41.962-92.084-92.958-91.203c-98.014,1.694-198.235,9.202-293.243,5.447
		c-83.676-3.308-194.641-4.463-289.18-4.105C192.913,16.926,12.739-10.566,13.747,278.878
		c3.933,1128.599,22.444,2251.283,0,3373.487c-1.008,50.426,59.759,36.853,72.116,37.537
		c297.187,16.441,611.417,17.747,908.769,3.912c10.354-0.482,21.567-1.283,29.332-7.431c9.862-7.81,10.518-21.137,10.442-32.919
		c-2.074-327.201,4.924-651.15,2.849-978.352c-0.739-116.609,0.74-221.243,0-337.853c-0.817-128.86-0.19-274.546-1.009-403.407
		C1032.367,1322.177,1038.41,717.333,1036.66,106.149z"/>
	<g>
		<g>
			<path opacity="0.1091" fill="#FFFFFF" d="M1046.923,96.738c-0.47-7.744-0.258-5.402-1.279-13.26
				c-0.597-4.592-2.321-9.426-3.692-13.814c-2.122-6.789-5.795-12.994-9.366-19.082c-3.627-6.181-8.54-11.496-13.363-16.729
				c-4.892-5.308-10.827-9.513-16.676-13.66c-5.95-4.218-12.696-7.119-19.354-9.977c-6.829-2.932-14.179-4.346-21.426-5.736
				c-5.015-0.774-10.06-1.175-15.134-1.206c-8.932,0.248-17.86,0.592-26.785,1.032c-37.74,1.574-75.467,3.445-113.204,5.061
				c-36.817,1.575-73.638,2.487-110.488,2.605c-33.473,0.108-66.921-1.771-100.368-2.819c-40.152-1.258-80.332-1.758-120.503-2.17
				C418.606,6.4,361.927,7.038,305.252,6.439c-18.975-0.201-37.938-0.215-56.909,0.201c-21.449,0.471-42.796,2.214-64.038,5.194
				c-17.408,2.442-34.384,6.862-51.024,12.44c-8.125,2.724-15.863,6.399-23.567,10.105c-7.718,3.713-14.842,8.48-21.919,13.255
				c-7.229,4.876-13.619,10.846-19.961,16.784c-6.63,6.208-12.174,13.459-17.683,20.633c-5.895,7.678-10.507,16.261-15.11,24.732
				c-6.815,12.54-11.389,26.201-15.757,39.726c-3.707,11.471-5.983,23.375-8.325,35.174c-2.625,13.221-3.881,26.691-5.208,40.084
				c-1.496,15.078-1.688,30.273-1.96,45.408c0.032,5.463,0.063,10.926,0.094,16.388c0.179,13.442,0.349,26.886,0.511,40.329
				c1.07,86.561,1.37,173.134,1.879,259.7c0.973,165.735,2.049,331.469,3.187,497.204c2.271,330.845,4.64,661.69,5.766,992.542
				c1.124,330.295,0.844,660.597-2.005,990.883c-1.424,165.035-3.616,330.063-6.565,495.079c-0.354,19.8-0.732,39.6-1.111,59.399
				c-0.129,6.601-0.258,13.199-0.388,19.799c-0.605,8.499-0.649,16.99-0.134,25.475c0.171,3.717,1.37,6.654,2.498,10.118
				c1.097,3.366,3.088,5.814,5.069,8.656c2.833,4.063,7.229,6.771,11.304,9.371c4.215,2.691,9.349,3.976,14.104,5.265
				c4.816,1.305,9.881,1.596,14.829,1.957c6.131,0.446,12.353-0.052,18.465-0.517c6.804-0.518,13.555-1.608,20.334-2.358
				c6.692-0.74,19.305,0.803,22.37,0.975c18.623,1.041,37.244,2.076,55.874,3.017c81.971,4.14,164.039,6.447,246.095,8.007
				c158.779,3.02,317.64,1.455,476.352-3.834c37.463-1.248,74.911-2.857,112.353-4.598c4.633-0.215,9.137-0.725,13.711-1.463
				c1.618-0.262,3.265-0.619,4.79-1.204c1.485-0.569,2.972-1.138,4.457-1.708c2.978-1.356,5.668-3.145,8.073-5.363
				c1.154-1.35,2.309-2.699,3.463-4.049c2.104-2.915,3.698-6.086,4.781-9.513c2.021-4.988,2.247-10.695,2.659-15.976
				c0.098-3.5,0.055-6.998-0.128-10.495c-0.458-8.467-0.706-16.941-0.745-25.424c-0.987-39.862-0.979-79.767-1.136-119.639
				c-0.156-39.323-0.047-78.647,0.081-117.97c0.277-84.729,0.993-169.459,1.634-254.186c0.938-123.875,1.748-247.751,1.598-371.629
				c-0.079-64.345-0.672-128.685-0.604-193.029c0.066-61.83,0.465-123.66,0.43-185.489c-0.03-55.321-0.542-110.643-0.648-165.964
				c-0.119-62.128-0.081-124.256-0.185-186.386c-0.104-62.756-0.551-125.511-0.879-188.266c-0.346-66.351-0.54-132.704-0.68-199.057
				c-1.088-516.292,3.034-1032.581,1.571-1548.874c-0.001-0.867-1.382,0.75-1.349,0.714c-0.629,0.668-1.238,1.355-1.829,2.058
				c-0.352,0.346-0.623,0.743-0.814,1.19c0.918,331.004-0.369,662.009-1.194,993.012c-0.412,165.406-0.664,330.813-0.471,496.221
				c0.188,161.356,1.481,322.707,1.688,484.063c0.096,74.068,0.051,148.136,0.342,222.203c0.146,37.273,0.424,74.545,0.437,111.818
				c0.015,43.195-0.208,86.391-0.345,129.586c-0.244,76.717,0.368,153.427,0.519,230.143c0.166,84.793-0.255,169.586-0.787,254.377
				c-1.024,163.029-2.857,326.058-2.589,489.094c0.066,39.734,0.449,79.466,0.849,119.197c0.118,11.765,0.859,23.003,0.198,34.604
				c-0.278,4.904-1.667,9.489-3.266,14.083c-2.01,5.78-6.697,10.827-11.852,13.905c-5.217,3.117-11.244,4.177-17.163,5.052
				c-1.519,0.136-3.038,0.271-4.558,0.407c-7.707,0.481-15.419,0.856-23.139,1.128c-24.952,1.15-49.913,2.103-74.876,3.034
				c-158.54,5.908-317.253,7.035-475.877,4.632c-75.893-1.148-151.767-3.477-227.602-6.632
				c-37.576-1.564-75.112-3.926-112.689-5.433c-1.97-0.079-3.827,0.131-5.798,0.35c-4.378,0.486-8.752,0.969-13.138,1.382
				c-10.23,0.963-20.271,0.8-30.4-0.812c-4.58-0.728-8.846-2.409-13.083-4.205c-4.207-1.782-7.564-4.729-10.882-7.765
				c-0.933-1.128-1.866-2.256-2.8-3.384c-3.682-5.446-5.795-11.355-6.34-17.724c-0.087-1.901-0.174-3.806-0.263-5.709
				c0.266-13.2,0.526-26.402,0.781-39.603c0.9-46.203,1.703-92.406,2.469-138.612c2.738-165.035,4.559-330.084,5.817-495.137
				c5.042-661.245-0.497-1322.512-4.99-1983.743c-0.765-112.691-1.493-225.38-2.166-338.07C9.04,543.094,8.6,423.407,7.365,303.729
				c-0.149-12.074-0.212-24.147-0.187-36.222c0.1-10.201,0.461-20.394,1.084-30.576c0.879-18.107,3.445-36.046,6.487-53.895
				c2.623-15.391,7.04-30.345,11.957-45.128c2.349-6.608,4.998-13.092,7.946-19.457c3.906-8.958,9.056-17.273,14.24-25.523
				c6.396-10.179,14.572-19.056,22.965-27.581c9.96-10.115,21.977-17.95,34.15-25.081c9.708-5.686,20.308-9.74,30.831-13.602
				c13.541-4.972,27.798-7.888,41.937-10.521c23.873-4.446,48.364-5.567,72.58-6.315c28.499-0.882,57.052-0.114,85.556,0.105
				c17.729,0.137,35.465-0.068,53.194-0.097c29.394-0.048,58.788,0.137,88.181,0.385c50.657,0.428,101.309,1.445,151.936,3.249
				c10.978,0.421,21.957,0.808,32.938,1.161c12.013,0.313,24.027,0.475,36.044,0.486c24.422,0.177,48.854-0.54,73.263-1.233
				c24.804-0.705,49.595-1.839,74.384-2.899c12.5-0.547,25.001-1.083,37.502-1.611c6.274-0.253,12.55-0.508,18.825-0.763
				c17.699-0.855,35.41-1.139,53.132-0.851c9.601,0.702,18.822,3.859,27.721,7.283c10.928,4.206,20.39,11.423,29.079,19.08
				c6.942,6.118,12.248,13.812,17.171,21.552c2.329,3.967,4.358,8.08,6.09,12.34c0.78,2.155,1.563,4.309,2.345,6.464
				c2.746,8.483,4.076,17.123,3.987,25.917c0.022,0.803,1.304-0.483,1.379-0.547C1044.773,99.25,1046.988,97.806,1046.923,96.738z"
				/>
			<path opacity="0.1091" fill="#FFFFFF" d="M1048.287,98.413c-0.537-2.03-1.074-4.06-1.61-6.09
				c-0.015-4.807-0.788-9.488-2.32-14.042c-1.759-7.01-4.836-13.388-8.044-19.813c-3.227-6.458-7.843-12.119-12.356-17.686
				c-4.578-5.647-10.282-10.247-15.901-14.782c-5.703-4.604-12.287-7.94-18.783-11.23c-6.637-3.361-13.884-5.249-21.034-7.107
				c-7.392-1.923-15.083-2.188-22.661-2.454c-8.961,0.338-17.919,0.706-26.875,1.106C906,6.871,893.3,7.449,880.601,8.05
				c-37.468,1.739-74.929,3.522-112.416,4.831c-36.444,1.273-72.886,1.466-109.34,0.681c-16.106-0.346-32.218-1.244-48.317-1.823
				c-16.387-0.59-32.781-0.955-49.174-1.341c-40.959-0.966-81.935-1.318-122.904-1.56c-32.073-0.189-64.144-0.048-96.215,0.015
				c-19.103,0.038-38.208-0.346-57.312-0.465c-18.849-0.116-37.678,0.237-56.507,1.125c-21.173,0.999-42.163,3.644-62.952,7.727
				c-17.09,3.355-33.522,9.018-49.467,15.923c-7.871,3.409-15.214,7.851-22.515,12.309c-2.491,1.522-4.919,3.173-7.242,4.944
				c-2.295,1.748-4.588,3.498-6.883,5.246c-4.563,3.673-8.916,7.581-13.058,11.725c-6.617,6.271-12.144,13.583-17.635,20.817
				c-5.874,7.738-10.459,16.374-15.04,24.901c-6.777,12.617-11.326,26.335-15.669,39.923c-3.682,11.517-5.94,23.46-8.263,35.302
				c-2.605,13.272-3.833,26.795-5.139,40.237c-1.469,15.127-1.636,30.364-1.885,45.544c0.04,5.476,0.081,10.952,0.121,16.428
				c0.212,13.475,0.397,26.947,0.555,40.421c1.104,86.588,1.402,173.189,1.914,259.781c0.979,165.737,2.053,331.474,3.19,497.21
				c2.27,330.844,4.638,661.688,5.762,992.539c1.123,330.291,0.839,660.59-2.017,990.873
				c-1.427,165.033-3.621,330.058-6.573,495.069c-0.354,19.802-0.733,39.601-1.113,59.4c-0.128,6.6-0.259,13.198-0.387,19.798
				c-0.62,8.493-0.66,16.978-0.124,25.454c0.256,5.313,2.56,10.053,4.903,14.681c0.773,1.53,1.844,2.974,3.023,4.209
				c1.146,1.199,2.292,2.399,3.438,3.6c2.53,2.254,5.29,4.183,8.277,5.785c4.345,2.672,9.565,3.923,14.432,5.191
				c4.894,1.276,10.042,1.531,15.061,1.859c6.214,0.404,12.508-0.127,18.698-0.634c6.871-0.563,13.681-1.727,20.53-2.476
				c6.731-0.734,18.615,0.85,22.251,1.076c18.609,1.158,37.234,2.07,55.855,3.013c81.972,4.146,164.04,6.444,246.098,7.998
				c158.802,3.005,317.686,1.428,476.421-3.874c37.468-1.252,74.921-2.864,112.368-4.608c4.653-0.216,9.17-0.74,13.761-1.501
				c1.621-0.27,3.273-0.627,4.797-1.232c1.506-0.597,3.014-1.194,4.521-1.791c3.106-1.436,5.876-3.357,8.312-5.765
				c1.144-1.397,2.287-2.796,3.432-4.194c2.1-3.042,3.665-6.339,4.697-9.889c1.972-5.187,2.095-11.044,2.408-16.498
				c0.064-3.567-0.019-7.131-0.25-10.69c-0.57-15.188-0.941-30.381-1.114-45.577c-1.357-79.108-1.032-158.252-0.72-237.367
				c0.336-84.713,1.067-169.424,1.702-254.135c0.931-123.902,1.67-247.805,1.399-371.71c-0.124-57.806-0.624-115.607-0.557-173.413
				c0.072-61.83,0.473-123.658,0.433-185.489c-0.036-55.321-0.543-110.642-0.651-165.962c-0.121-62.129-0.08-124.257-0.184-186.385
				c-0.104-62.764-0.564-125.525-0.892-188.286c-0.345-66.351-0.537-132.703-0.677-199.054
				c-1.079-516.293,3.041-1032.582,1.572-1548.875c-0.001-0.711-1.262-0.008-1.261,0.454c0.938,331.01-0.345,662.02-1.177,993.028
				c-0.415,165.402-0.674,330.802-0.489,496.204c0.088,79.591,0.322,159.182,0.678,238.772
				c0.367,81.779,0.936,163.556,1.037,245.336c0.091,74.076,0.044,148.15,0.347,222.226c0.152,37.27,0.418,74.536,0.442,111.807
				c0.026,43.194-0.201,86.392-0.348,129.587c-0.259,76.705,0.341,153.402,0.502,230.107c0.182,84.8-0.23,169.601-0.761,254.399
				c-1.019,163.114-2.925,326.227-2.543,489.345c0.095,39.934,0.497,79.865,1.13,119.795c0.253,15.982,0.137,15.146,0.634,25.408
				c0.255,5.273-0.009,10.436-0.453,15.688c-0.458,5.412-2.333,10.225-4.455,15.146c-0.944,1.457-1.888,2.914-2.833,4.371
				c-2.02,2.803-4.499,5.111-7.436,6.925c-1.437,0.746-2.875,1.492-4.312,2.239c-4.403,1.791-8.952,2.947-13.647,3.469
				c-3.031,0.326-6.07,0.559-9.117,0.699c-12.431,0.588-24.864,1.149-37.297,1.683c-158.234,6.958-316.67,9.064-475.039,7.687
				c-76.166-0.665-152.316-2.504-228.438-5.129c-37.58-1.294-75.143-2.977-112.699-4.836c-18.526-0.916-37.043-2.001-55.557-3.135
				c-3.05-0.188-6.184,0.382-9.203,0.73c-9.455,1.097-18.766,2.032-28.289,2.075c-4.768,0.021-9.474-0.565-14.186-1.213
				c-4.84-0.664-9.398-2.274-13.938-3.984c-4.536-1.711-8.293-4.634-12.008-7.641c-2.651-3.814-5.301-7.629-7.951-11.443
				c-1.38-3.197-2.226-6.529-2.54-9.998c-0.098-1.886-0.197-3.772-0.296-5.659c0.267-13.2,0.527-26.4,0.784-39.601
				c0.516-26.4,0.992-52.802,1.464-79.204c2.949-165.022,4.958-330.061,6.38-495.104c5.704-661.165,0.469-1322.362-4.069-1983.518
				C9.582,946.506,8.792,827.205,8.063,707.901C7.332,588.293,6.84,468.68,5.705,349.074c-0.243-25.55-0.684-51.098-0.85-76.65
				c-0.158-24.228,1.882-48.362,4.965-72.365c2.075-16.153,5.918-31.97,10.235-47.641c4.64-16.843,11.881-32.749,20.117-48.088
				c5.861-10.918,13.571-20.671,21.549-30.079c3.913-4.369,8.051-8.511,12.416-12.428c10.303-9.762,22.6-17.229,34.999-24.006
				c9.998-5.466,20.83-9.297,31.58-12.95c13.85-4.706,28.354-7.393,42.738-9.812c11.944-2.009,24.053-2.998,36.114-3.953
				c15.532-1.229,31.145-1.464,46.716-1.665c28.614-0.37,57.237,0.469,85.853,0.414c52.542-0.103,105.073-0.002,157.612,0.65
				c22.901,0.285,45.8,0.769,68.697,1.308c26.927,0.634,53.832,1.797,80.747,2.766c24.147,0.868,48.334,0.559,72.487,0.244
				c30.889-0.403,61.77-1.797,92.628-3.142c25.109-1.093,50.211-2.368,75.316-3.559c15.332-0.725,30.666-1.402,46.002-2.026
				c7.549-0.304,15.045,1.056,22.423,2.409c9.64,1.766,18.641,5.939,27.299,10.339c10.754,5.467,19.698,13.832,27.808,22.587
				c6.498,7.016,11.108,15.489,15.286,23.998c1.964,4.314,3.539,8.766,4.724,13.355c0.567,2.254,1.135,4.511,1.704,6.765
				c-0.395,4.609,0.452,8.961,2.54,13.054C1047.603,99.132,1048.412,98.887,1048.287,98.413z"/>
			<path opacity="0.1091" fill="#FFFFFF" d="M1044.866,97.154c-0.096-2.267-0.192-4.534-0.288-6.801
				c-0.362-4.619-1.146-9.164-2.351-13.636c-1.509-6.858-4.658-13.267-7.696-19.531c-3.081-6.353-7.518-11.942-11.866-17.442
				c-4.398-5.564-9.912-10.122-15.34-14.615c-5.506-4.557-11.886-7.889-18.181-11.172c-6.428-3.354-13.469-5.278-20.414-7.172
				c-7.18-1.958-14.667-2.303-22.047-2.646c-8.907,0.211-17.812,0.534-26.712,0.963c-12.616,0.498-25.232,1.025-37.848,1.586
				c-37.386,1.613-74.762,3.332-112.162,4.6c-36.45,1.234-72.896,1.435-109.356,0.672c-16.128-0.337-32.264-1.206-48.386-1.777
				c-16.385-0.582-32.775-0.959-49.166-1.35c-40.949-0.973-81.913-1.336-122.873-1.586c-32.067-0.195-64.135-0.055-96.202,0.003
				c-19.113,0.033-38.226-0.324-57.336-0.444c-18.83-0.119-37.638,0.213-56.447,1.073c-21.089,0.965-42.005,3.534-62.726,7.521
				c-16.958,3.263-33.285,8.782-49.137,15.534c-7.798,3.32-15.083,7.654-22.327,12.007c-7.332,4.407-13.923,9.89-20.463,15.355
				c-6.775,5.661-12.562,12.379-18.308,19.037c-6.1,7.069-10.994,15.087-15.873,23.004c-5.297,8.6-9.243,17.97-13.206,27.221
				c-5.949,13.888-9.633,28.673-13.156,43.309c-3.015,12.523-4.645,25.361-6.35,38.107c-1.92,14.358-2.511,28.879-3.181,43.333
				c-0.804,17.333-0.25,34.774-0.064,52.113c0.213,20.074,0.39,40.149,0.559,60.223C6.691,451.059,7.067,537.481,7.57,623.9
				c0.963,165.709,2.076,331.417,3.216,497.125c2.278,330.819,4.6,661.639,5.624,992.465c1.021,330.286,0.591,660.58-2.475,990.855
				c-1.531,165.037-3.845,330.067-6.92,495.083c-0.37,19.801-0.766,39.601-1.16,59.401c0.079,1.88,0.159,3.758,0.238,5.636
				c0.345,3.441,1.152,6.769,2.421,9.982c1.464,4.581,4.746,8.222,7.885,11.696c3.125,3.457,7.648,5.619,11.73,7.648
				c4.275,2.124,9.064,3.069,13.685,4.084c4.579,1.006,9.394,1.151,14.055,1.363c9.347,0.424,18.748-0.687,28.023-1.697
				c2.566-0.279,5.107-0.558,7.685-0.695c0.518,0.021,1.037,0.045,1.554,0.067c12.429,0.702,24.858,1.403,37.288,2.103
				c37.489,2.112,75.006,3.702,112.524,5.181c82.397,3.244,164.854,4.941,247.308,5.831c158.34,1.708,316.726-1.089,474.933-7.705
				c13.932-0.583,27.878-1.127,41.796-1.951c4.698-0.278,9.147-1.149,13.703-2.27c4.768-1.172,8.601-3.886,12.408-6.811
				c1.107-1.263,2.213-2.524,3.319-3.785c2.048-2.742,3.595-5.743,4.638-9.001c1.973-4.765,2.274-10.169,2.75-15.226
				c0.459-4.862,0.072-9.908-0.061-14.779c-0.555-20.247-0.587-40.519-0.783-60.771c-0.259-26.497-0.326-52.997-0.393-79.496
				c-0.414-163.134,1.584-326.271,2.654-489.397c0.771-117.498,1.089-234.997,0.369-352.496
				c-0.727-118.515,0.677-237.027-0.111-355.541c-0.778-116.729-0.23-233.468-0.721-350.2
				c-0.521-124.662-1.252-249.32-1.424-373.984c-0.678-496.413,3.071-992.821,1.666-1489.232c-0.503,0.212-0.904,0.561-1.205,1.045
				c-1.271,1.507-2.514,3.037-3.728,4.591c-1.23,1.54-2.432,3.103-3.603,4.689c-0.402,0.404-0.647,0.876-0.739,1.415
				c0.886,330.996-0.412,661.99-1.225,992.984c-0.406,165.417-0.646,330.834-0.438,496.252
				c0.205,161.348,1.431,322.693,1.647,484.041c0.1,74.069,0.068,148.137,0.329,222.204c0.131,37.268,0.426,74.53,0.428,111.799
				c0,43.199-0.214,86.398-0.335,129.598c-0.218,76.714,0.405,153.425,0.534,230.139c0.143,84.779-0.291,169.561-0.831,254.338
				c-1.036,162.936-2.534,325.863-2.959,488.804c-0.103,39.257-0.172,78.515-0.302,117.771c0.082,6.757,0.165,13.513,0.247,20.271
				c-0.597,2.292-0.953,4.623-1.066,6.992c-0.392,3.754-1.4,7.333-2.616,10.884c-1.251,3.652-3.28,6.337-5.699,9.28
				c-2.438,2.966-6.524,4.027-9.906,5.413c-1.354,0.355-2.709,0.713-4.063,1.068c-2.907,0.675-5.847,1.144-8.818,1.405
				c-2.989,0.271-5.984,0.461-8.984,0.571c-12.417,0.574-24.835,1.122-37.254,1.64c-145.328,6.238-290.823,8.34-436.275,7.521
				c-69.891-0.395-139.771-1.795-209.633-3.787c-37.8-1.078-75.588-2.515-113.372-4.073c-37.655-1.553-75.283-3.963-112.957-4.911
				c0.129,0.019,0.257,0.036,0.386,0.056c-3.86-0.646-7.92,0.08-11.817,0.152c-7.11,0.13-14.142-0.172-21.2-1.035
				c-3.75-0.457-7.377-1.466-10.98-2.55c-3.431-1.032-6.487-2.712-9.586-4.461c-2.969-1.677-5.311-4.362-7.436-6.944
				c-3.406-4.141-4.759-9.438-5.855-14.547c-0.223-1.686-0.444-3.371-0.667-5.058c-0.36-8.469-0.288-16.941,0.216-25.415
				c0.391-19.803,0.756-39.607,1.121-59.411c0.731-39.61,1.388-79.22,2.022-118.831c1.375-85.825,2.48-171.653,3.437-257.484
				c3.679-330.27,4.327-660.565,3.617-990.852c-0.711-330.771-2.962-661.538-5.239-992.303
				c-1.139-165.651-2.291-331.304-3.287-496.956c-0.478-79.594-0.908-159.188-1.267-238.783
				c-0.179-39.824-0.318-79.648-0.426-119.472c-0.053-19.895-0.079-39.79-0.043-59.685c0.03-11.884,0.164-23.768,0.4-35.65
				c0.275-9.989,0.822-19.963,1.639-29.921c0.925-13.462,2.998-26.79,5.155-40.094c1.913-11.798,4.98-23.353,8.133-34.863
				c2.811-10.264,6.854-20.109,10.963-29.901c4.876-11.618,11.589-22.303,18.657-32.677c9.504-13.949,22.129-25.373,35.495-35.481
				c6.433-4.866,13.582-8.714,20.651-12.545c9.541-5.172,19.866-8.799,30.112-12.262c16.099-5.441,33.042-8.273,49.807-10.684
				c20.924-3.01,42.175-3.763,63.277-4.313c18.919-0.493,37.863-0.239,56.786-0.072c27.307,0.239,54.608,0.136,81.918,0.104
				c74.832-0.087,149.676,0.906,224.471,3.239c16.212,0.505,32.424,0.998,48.638,1.495c18.092,0.555,36.204,0.424,54.301,0.349
				c42.979-0.174,85.96-2.004,128.91-3.452c18.478-0.623,36.958-1.136,55.44-1.597c6.105-0.099,12.209-0.198,18.313-0.298
				c8.488-0.628,16.97-0.649,25.442-0.062c6.613,0.332,13.049,2.131,19.377,3.909c8.258,2.32,15.767,6.688,22.957,11.219
				c5.369,3.386,9.952,7.854,14.467,12.255c6.07,5.918,10.581,13.199,14.755,20.496c3.195,5.587,5.157,11.765,7.089,17.859
				c1.191,4.194,2.033,8.458,2.526,12.791c0.252,4.172,0.237,8.342-0.042,12.511c0.515-0.172,0.939-0.487,1.273-0.946
				c1.372-1.399,2.717-2.823,4.035-4.272c1.332-1.436,2.639-2.896,3.918-4.379C1044.459,98.132,1044.737,97.682,1044.866,97.154z"/>
			<path opacity="0.1091" fill="#FFFFFF" d="M1044.532,98.379c-0.093-2.229-0.186-4.456-0.279-6.683
				c-0.348-4.605-1.123-9.138-2.325-13.597c-1.506-6.857-4.648-13.264-7.682-19.53c-3.078-6.361-7.512-11.958-11.856-17.469
				c-4.4-5.581-9.913-10.155-15.343-14.666c-5.513-4.579-11.9-7.935-18.204-11.243c-6.442-3.381-13.505-5.334-20.471-7.257
				c-7.208-1.988-14.732-2.361-22.146-2.731c-8.945,0.174-17.886,0.489-26.821,0.943c-12.64,0.49-25.278,1.017-37.915,1.581
				c-37.415,1.612-74.82,3.347-112.249,4.622c-36.45,1.24-72.896,1.448-109.358,0.689c-16.126-0.335-32.258-1.197-48.376-1.771
				c-16.384-0.583-32.774-0.959-49.162-1.35C521.395,8.943,480.43,8.579,439.47,8.33c-32.072-0.197-64.144-0.061-96.215,0.004
				c-19.111,0.038-38.223-0.322-57.333-0.444c-18.832-0.119-37.646,0.212-56.459,1.069c-21.11,0.96-42.046,3.527-62.79,7.507
				c-16.998,3.261-33.365,8.784-49.259,15.535c-7.827,3.326-15.144,7.669-22.417,12.029c-7.369,4.418-13.993,9.918-20.569,15.402
				c-6.815,5.683-12.637,12.432-18.417,19.12c-6.139,7.103-11.063,15.163-15.97,23.123c-5.327,8.643-9.294,18.063-13.276,27.365
				c-5.973,13.952-9.664,28.806-13.193,43.512c-3.018,12.57-4.644,25.457-6.342,38.251c-1.913,14.403-2.491,28.967-3.15,43.464
				c-0.789,17.37-0.217,34.847-0.02,52.222c0.231,20.094,0.418,40.189,0.597,60.285c0.764,86.435,1.136,172.875,1.642,259.312
				c0.969,165.709,2.08,331.418,3.221,497.127c2.277,330.819,4.598,661.638,5.621,992.464c1.02,330.282,0.587,660.572-2.481,990.843
				c-1.534,165.035-3.849,330.063-6.928,495.075c-0.369,19.801-0.765,39.601-1.161,59.401c0.082,1.881,0.164,3.764,0.244,5.646
				c0.353,3.464,1.172,6.81,2.458,10.042c1.497,4.65,4.861,8.341,8.068,11.848c3.231,3.534,7.871,5.717,12.078,7.773
				c4.393,2.148,9.319,3.066,14.06,4.054c4.674,0.975,9.581,1.066,14.331,1.227c9.423,0.321,18.889-0.899,28.228-2
				c2.573-0.303,5.123-0.597,7.708-0.751c0.509,0.024,1.019,0.049,1.528,0.074c12.437,0.687,24.871,1.391,37.305,2.112
				c37.483,2.149,75,3.716,112.515,5.194c82.398,3.247,164.855,4.932,247.309,5.817c158.347,1.698,316.738-1.121,474.948-7.755
				c13.933-0.584,27.882-1.12,41.8-1.959c4.705-0.285,9.153-1.168,13.711-2.307c4.765-1.192,8.586-3.952,12.366-6.91
				c1.111-1.297,2.223-2.594,3.334-3.891c2.034-2.801,3.569-5.855,4.602-9.162c1.942-4.813,2.207-10.271,2.646-15.367
				c0.421-4.86,0.006-9.891-0.143-14.757c-0.618-20.29-0.7-40.602-0.924-60.897c-0.292-26.486-0.374-52.976-0.456-79.465
				c-0.505-163.122,1.544-326.25,2.613-489.366c0.77-117.497,1.09-234.996,0.368-352.494
				c-0.728-118.517,0.699-237.032-0.117-355.549c-0.805-116.729-0.228-233.468-0.717-350.199
				c-0.525-124.659-1.252-249.314-1.422-373.977c-0.677-496.412,3.067-992.819,1.666-1489.233c-0.369,0.06-0.661,0.258-0.879,0.595
				c-0.864,0.947-1.702,1.917-2.51,2.912c-0.655,0.792-2.812,2.739-2.809,3.986c0.899,330.999-0.397,661.998-1.214,992.995
				c-0.408,165.413-0.653,330.826-0.45,496.24c0.198,161.348,1.443,322.693,1.658,484.041c0.099,74.065,0.061,148.132,0.331,222.198
				c0.136,37.271,0.431,74.539,0.435,111.813c0.006,43.196-0.213,86.395-0.341,129.591c-0.227,76.718,0.397,153.431,0.534,230.148
				c0.151,84.785-0.276,169.571-0.813,254.353c-1.032,162.985-2.656,325.965-2.821,488.953c-0.04,39.443,0.065,78.887,0.115,118.33
				c0.16,6.941,0.32,13.883,0.48,20.824c-0.484,2.516-0.756,5.056-0.814,7.619c-0.293,4.25-1.304,8.277-2.524,12.334
				c-1.234,4.102-3.599,7.266-6.213,10.564s-6.605,4.502-10.294,6.098c-4.001,1.729-8.816,2.12-13.079,2.681
				c-3.003,0.285-6.01,0.485-9.022,0.604c-12.421,0.578-24.843,1.131-37.267,1.654c-145.371,6.286-290.912,8.425-436.408,7.646
				c-69.907-0.375-139.807-1.757-209.685-3.737c-37.799-1.069-75.586-2.504-113.367-4.068c-18.749-0.777-37.494-1.678-56.236-2.583
				c-6.222-0.315-12.442-0.632-18.662-0.947c-12.683-0.851-25.379-1.347-38.089-1.487c0.112,0.014,0.223,0.025,0.333,0.04
				c-1.6-0.275-1.622-0.229-3.557-0.128c-2.79,0.146-5.565,0.437-8.358,0.57c-7.452,0.354-14.845,0.301-22.281-0.316
				c-4.084-0.341-8.056-1.266-12.017-2.261c-3.863-0.972-7.358-2.729-10.856-4.573c-3.378-1.781-6.023-4.6-8.518-7.4
				c-3.738-4.198-5.27-9.787-6.502-15.104c-0.238-1.701-0.475-3.402-0.713-5.104c-0.415-8.478-0.353-16.959,0.186-25.445
				c0.392-19.802,0.758-39.605,1.125-59.408c0.734-39.606,1.393-79.215,2.029-118.824c1.38-85.821,2.49-171.646,3.449-257.474
				c3.695-330.257,4.356-660.543,3.653-990.817c-0.705-330.77-2.95-661.532-5.227-992.294
				c-1.141-165.652-2.291-331.306-3.294-496.961c-0.483-79.605-0.917-159.211-1.314-238.817c-0.2-39.858-0.381-79.716-0.56-119.574
				c-0.088-19.952-0.176-39.904-0.223-59.855c-0.011-11.952,0.066-23.902,0.234-35.853c0.222-10.065,0.711-20.117,1.47-30.156
				c0.847-13.596,2.836-27.066,4.908-40.515c1.841-11.951,4.839-23.67,7.92-35.345c2.754-10.44,6.745-20.472,10.803-30.452
				c4.831-11.877,11.519-22.832,18.575-33.479c9.495-14.33,22.186-26.136,35.666-36.604c6.472-5.026,13.688-9.018,20.821-12.99
				c9.597-5.345,20.016-9.116,30.355-12.713c16.17-5.626,33.227-8.583,50.104-11.099c20.972-3.125,42.291-3.931,63.457-4.515
				c18.926-0.522,37.88-0.266,56.811-0.096c27.303,0.247,54.597,0.151,81.9,0.113c74.849-0.105,149.709,0.843,224.521,3.196
				c16.188,0.509,32.377,1.052,48.565,1.564c18.083,0.573,36.19,0.438,54.279,0.362c43.052-0.18,86.107-2.106,129.123-3.725
				c18.593-0.7,37.187-1.337,55.783-1.926c6.172-0.15,12.345-0.299,18.517-0.449c8.646-0.632,17.292-0.756,25.937-0.37
				c6.883,0.198,13.613,1.921,20.23,3.626c8.64,2.224,16.545,6.595,24.122,11.146c5.654,3.397,10.512,7.938,15.299,12.413
				c6.416,5.999,11.238,13.448,15.705,20.925c3.396,5.682,5.517,11.999,7.602,18.233c1.267,4.261,2.189,8.598,2.767,13.008
				c0.361,4.143,0.42,8.291,0.175,12.443c0.368-0.018,0.675-0.183,0.922-0.493c0.939-0.84,1.853-1.707,2.741-2.601
				C1041.965,101.448,1044.578,99.471,1044.532,98.379z"/>
			<path opacity="0.1091" fill="#FFFFFF" d="M1047.254,95.574c-0.513-9.227-1.521-18.638-5.004-27.306
				c-3.196-7.952-1.941-5.149-5.795-12.958c-3.173-6.429-7.72-12.072-12.174-17.625c-4.516-5.632-10.157-10.233-15.712-14.767
				c-5.644-4.606-12.166-7.963-18.602-11.271c-6.579-3.383-13.775-5.31-20.876-7.206c-9.874-2.638-20.202-2.675-30.323-2.358
				c-19.049,0.6-38.099,1.624-57.139,2.487c-18.84,0.855-37.678,1.747-56.517,2.598c-36.993,1.672-73.989,2.869-111.017,3.356
				c-34.221,0.45-68.375-1.027-102.561-2.265c-39.561-1.431-79.154-1.993-118.735-2.49c-35.317-0.444-70.638-0.537-105.956-0.539
				c-24.097-0.001-48.186,0.159-72.282-0.084c-19.024-0.194-38.039-0.343-57.063-0.106c-21.595,0.269-43.112,1.643-64.558,4.161
				c-17.593,2.065-34.838,5.964-51.804,10.97c-16.522,4.876-31.954,12.487-46.646,21.361c-7.424,4.484-14.091,10.06-20.71,15.617
				c-6.874,5.773-12.734,12.62-18.553,19.408c-6.181,7.211-11.132,15.387-16.064,23.462c-7.244,11.86-12.284,24.956-17.094,37.929
				c-4.057,10.941-6.675,22.382-9.352,33.712c-2.993,12.669-4.582,25.649-6.245,38.538c-4.109,31.846-3.35,64.146-2.886,96.162
				c1.258,86.657,1.53,173.333,2.043,259.997c0.983,165.75,2.036,331.499,3.171,497.247c2.264,330.859,4.66,661.717,5.833,992.583
				c1.171,330.299,0.979,660.606-1.774,990.898c-1.376,165.035-3.505,330.063-6.388,495.079c-0.692,39.6-1.458,79.198-2.249,118.798
				c0.088,1.888,0.178,3.775,0.267,5.663c0.346,3.528,1.208,6.924,2.587,10.188c1.171,3.47,3.185,5.851,5.274,8.769
				c2.961,4.139,7.465,6.838,11.682,9.459c4.244,2.637,9.401,3.871,14.169,5.107c7.918,2.051,16.354,2.025,24.46,1.857
				c8.008-0.166,16.007-1.346,23.933-2.417c2.573-0.347,5.133-0.649,7.723-0.836c0.541,0.017,1.083,0.033,1.625,0.049
				c12.375,0.745,24.752,1.466,37.13,2.163c81.682,4.682,163.486,7.286,245.274,9.19c158.898,3.698,317.899,2.729,476.766-1.885
				c37.607-1.093,75.204-2.55,112.795-4.132c13.938-0.586,27.898-1.105,41.822-1.978c4.727-0.296,9.194-1.199,13.771-2.354
				c2.356-0.595,7.034-2.747,8.92-4.229c5.019-3.943,2.929-1.97,7.321-7.158c3.515-4.15,4.845-9.839,6.195-14.927
				c0.683-3.604,1.083-7.24,1.201-10.907c0.083-3.529,0.021-7.059-0.189-10.582c-1.364-35.156-1.486-70.367-1.781-105.545
				c-0.331-39.46-0.303-78.922-0.25-118.381c0.113-84.782,0.803-169.564,1.441-254.344c0.932-123.834,1.863-247.67,1.922-371.51
				c0.028-64.912-0.534-129.82-0.652-194.732c-0.11-61.826,0.332-123.653,0.444-185.479c0.112-61.682-0.454-123.358-0.61-185.038
				c-0.157-62.095-0.112-124.191-0.189-186.286c-0.161-128.654-1.246-257.307-1.549-385.961
				c-1.231-522.923,3.018-1045.84,1.53-1568.762c-0.002-0.864-1.32,0.792-1.254,0.716c-0.559,0.657-1.096,1.33-1.613,2.021
				c-0.314,0.342-0.547,0.729-0.696,1.163c0.925,331.004-0.362,662.009-1.189,993.012c-0.413,165.407-0.667,330.813-0.478,496.221
				c0.093,79.594,0.33,159.187,0.688,238.781c0.368,81.761,0.899,163.519,1.003,245.28c0.095,74.067,0.049,148.134,0.342,222.201
				c0.147,37.275,0.426,74.547,0.44,111.822c0.017,43.194-0.208,86.389-0.348,129.584c-0.247,76.717,0.367,153.428,0.521,230.143
				c0.169,84.793-0.249,169.588-0.781,254.379c-1.023,163.028-2.917,326.055-2.52,489.089c0.097,39.684,0.52,79.364,1.125,119.043
				c0.205,13.359,1.509,26.749,0.158,40.076c-0.513,5.052-2.33,9.519-4.408,14.078c-3.764,8.252-10.58,11.28-18.039,13.99
				c-4.245,1.544-9.162,1.763-13.61,2.176c-7.712,0.51-15.432,0.892-23.157,1.147c-12.454,0.563-24.91,1.098-37.365,1.604
				c-158.314,6.624-316.82,8.424-475.254,6.717c-76.07-0.819-152.125-2.815-228.145-5.618c-37.516-1.383-75.014-3.175-112.502-5.16
				c-6.195-0.346-12.392-0.691-18.587-1.037c-6.76-0.773-13.529-1.105-20.309-0.997c-3.55,0.039-7.195,0.78-10.706,1.231
				c-7.973,1.027-15.926,1.668-23.963,1.8c-7.839,0.13-15.607-1.132-23.174-3.203c-4.68-1.278-8.77-3.788-12.774-6.414
				c-3.849-4.96-7.7-9.924-11.55-14.886c-1.323-3.232-2.13-6.588-2.421-10.069c-0.09-1.892-0.18-3.785-0.269-5.678
				c0.266-13.2,0.526-26.4,0.781-39.601c0.902-46.201,1.707-92.404,2.475-138.607c2.743-165.027,4.569-330.071,5.833-495.117
				c5.059-661.235-0.472-1322.494-4.967-1983.715C9.774,889.448,9.046,776.757,8.371,664.064
				C7.694,551.028,7.227,437.99,6.116,324.957c-0.236-24.118-0.706-48.207-0.219-72.323c0.385-19.009,2.435-37.905,4.955-56.729
				c2.167-16.179,6.147-32,10.615-47.667c4.807-16.856,12.288-32.713,20.785-47.973c6.046-10.858,13.956-20.498,22.132-29.78
				c7.663-8.704,16.906-15.846,26.219-22.652c9.124-6.67,19.372-11.668,29.571-16.422c12.953-6.036,26.881-9.841,40.695-13.279
				c11.452-2.85,23.194-4.483,34.871-6.054c12.067-1.624,24.251-2.347,36.398-3.049c28.297-1.635,56.732-1.046,85.058-0.754
				c35.762,0.367,71.526,0.036,107.29,0.118c52.436,0.12,104.867,0.836,157.287,2.085c20.998,0.501,41.987,1.28,62.976,2.06
				c24.022,0.892,48.018,1.113,72.054,1.021c24.544-0.094,49.087-0.964,73.613-1.799c31.173-1.06,62.333-2.571,93.495-3.904
				c12.599-0.533,25.199-1.024,37.8-1.477c16.669-2.363,32.946-1.518,48.831,2.529c9.307,2.086,17.908,6.472,26.168,11.064
				c8.182,4.548,15.096,11.011,21.647,17.584c10.931,11.743,18.556,25.693,22.875,41.853c1.831,6.386,2.09,12.966,2.219,19.549
				c0.016,0.801,1.258-0.524,1.286-0.551c0.6-0.574,1.179-1.168,1.742-1.779C1046.814,96.328,1047.073,95.978,1047.254,95.574z"/>
			<path opacity="0.1091" fill="#FFFFFF" d="M1044.884,96.086c-0.09-2.28-0.18-4.558-0.269-6.837
				c-0.372-4.634-1.164-9.195-2.373-13.684c-1.521-6.884-4.678-13.312-7.729-19.603c-3.098-6.382-7.558-11.996-11.928-17.52
				c-4.424-5.59-9.969-10.167-15.429-14.677c-5.539-4.575-11.956-7.915-18.288-11.205c-6.463-3.357-13.542-5.276-20.526-7.163
				c-7.214-1.949-14.738-2.274-22.15-2.597c-8.925,0.247-17.845,0.583-26.763,1.011c-12.63,0.513-25.257,1.055-37.885,1.625
				c-37.396,1.647-74.785,3.377-112.198,4.652c-36.45,1.243-72.896,1.441-109.356,0.671c-16.128-0.339-32.259-1.214-48.379-1.789
				c-16.386-0.585-32.778-0.96-49.169-1.35c-40.95-0.973-81.915-1.333-122.875-1.581c-32.068-0.194-64.135-0.054-96.205,0.007
				c-19.11,0.036-38.222-0.329-57.333-0.448c-18.831-0.119-37.642,0.219-56.452,1.085c-21.096,0.973-42.017,3.562-62.743,7.573
				c-16.968,3.284-33.297,8.837-49.149,15.624c-7.8,3.338-15.083,7.696-22.324,12.069c-7.333,4.429-13.917,9.935-20.453,15.425
				c-6.771,5.687-12.55,12.429-18.285,19.111C50.531,83.581,45.646,91.621,40.78,99.56c-5.286,8.622-9.219,18.011-13.171,27.283
				c-5.93,13.912-9.598,28.716-13.106,43.373c-3,12.534-4.619,25.382-6.313,38.138c-1.906,14.367-2.487,28.893-3.149,43.354
				c-0.792,17.336-0.23,34.78-0.039,52.12c0.222,20.076,0.403,40.153,0.576,60.229c0.742,86.419,1.114,172.842,1.618,259.262
				c0.966,165.709,2.079,331.417,3.22,497.125c2.277,330.82,4.599,661.64,5.622,992.465c1.021,330.288,0.59,660.581-2.478,990.854
				c-1.532,165.038-3.846,330.067-6.923,495.082c-0.37,19.801-0.764,39.602-1.16,59.402c0.08,1.882,0.162,3.763,0.242,5.644
				c0.347,3.443,1.158,6.773,2.432,9.99c1.47,4.584,4.763,8.231,7.908,11.704c3.147,3.472,7.667,5.642,11.769,7.69
				c4.286,2.143,9.106,3.092,13.741,4.106c4.602,1.006,9.431,1.149,14.115,1.357c9.365,0.415,18.789-0.726,28.078-1.759
				c2.954-0.328,5.915-0.801,8.897-0.649c18.762,0.954,37.515,2.076,56.274,3.074c37.571,2,75.169,3.497,112.767,4.886
				c82.479,3.047,165.01,4.581,247.539,5.299c158.202,1.374,316.438-1.74,474.486-8.701c9.28-0.409,18.478-0.691,27.704-1.561
				c4.747-0.447,9.102-1.824,13.542-3.464c1.405-0.754,2.81-1.509,4.215-2.263c2.828-1.756,5.215-3.987,7.162-6.693
				c3.419-3.87,4.771-9.26,6.157-14.063c1.421-4.925,1.38-10.427,1.516-15.496c-0.02-1.689-0.039-3.377-0.059-5.063
				c-0.238-8.424-0.405-16.848-0.504-25.272c-0.855-46.523-0.827-93.074-0.889-139.604c-0.213-163.078,1.772-326.156,2.792-489.229
				c0.733-117.433,0.803-234.86,0.136-352.293c-0.319-56.001-0.004-112.006,0.191-168.008c0.217-62.025,0.036-124.04-0.285-186.064
				c-0.575-110.775-0.164-221.554-0.626-332.33c-0.245-58.35-0.676-116.699-0.918-175.049
				c-0.276-66.312-0.418-132.625-0.509-198.937c-0.68-496.413,3.065-992.821,1.666-1489.233c-0.462,0.197-0.82,0.525-1.077,0.986
				c-1.099,1.423-2.17,2.866-3.211,4.331c-1.057,1.455-2.084,2.929-3.082,4.424c-0.355,0.39-0.554,0.834-0.593,1.335
				c0.896,330.996-0.401,661.992-1.218,992.988c-0.408,165.416-0.65,330.832-0.445,496.247c0.2,161.354,1.442,322.701,1.656,484.053
				c0.099,74.069,0.066,148.14,0.332,222.209c0.133,37.266,0.427,74.528,0.43,111.795c0.004,43.199-0.212,86.398-0.338,129.597
				c-0.223,76.714,0.398,153.421,0.531,230.134c0.148,84.782-0.282,169.564-0.819,254.345
				c-1.034,162.949-2.621,325.894-2.859,488.848c-0.059,39.332-0.007,78.663,0.014,117.995c0.143,6.805,0.286,13.611,0.429,20.416
				c-0.51,2.449-0.795,4.924-0.854,7.426c-0.291,4.018-1.246,7.846-2.41,11.678c-1.188,3.914-3.33,6.882-5.812,10.056
				c-2.501,3.2-6.587,4.396-10.143,5.921c-1.372,0.385-2.745,0.771-4.116,1.157c-2.918,0.698-5.87,1.185-8.855,1.465
				c-2.995,0.279-5.996,0.476-9.002,0.593c-12.419,0.575-24.838,1.126-37.259,1.648c-158.076,6.827-316.352,8.793-474.557,7.287
				c-76.108-0.726-152.202-2.629-228.265-5.279c-37.619-1.313-75.222-2.984-112.82-4.796c-6.223-0.315-12.447-0.631-18.671-0.946
				c-12.53-0.793-25.073-1.295-37.627-1.504c-0.508-0.123-1.02-0.181-1.538-0.176c-1.525,0.053-3.049,0.141-4.57,0.265
				c-6.638,0.457-13.264,0.577-19.916,0.413c-7.913-0.197-15.563-1.67-23.045-4.184c-3.567-1.198-6.718-3.274-9.755-5.423
				c-3.058-2.162-5.131-5.085-7.243-8.104c-2.393-3.417-3.298-7.925-4.202-11.886c-0.656-3.547-0.95-7.125-0.88-10.733
				c0.264-13.202,0.522-26.403,0.775-39.606c3.19-165.033,5.411-330.085,7.027-495.141c6.479-661.108,1.596-1322.263-2.959-1983.365
				c-1.691-245.323-3.398-490.647-4.371-735.974c-0.105-26.585-0.187-53.171-0.265-79.757c-0.035-13.213-0.007-26.427,0.086-39.64
				c0.069-15.411,0.756-30.712,1.762-46.086c1.42-21.721,5.236-43.14,10.075-64.326c3.996-17.5,10.557-34.209,18.177-50.402
				c5.267-11.188,12.357-21.347,19.771-31.178c8.468-11.23,19.209-20.48,30.309-28.978c10.781-8.253,23.165-14.21,35.54-19.61
				c12.736-5.556,26.346-8.997,39.84-12.114c11.307-2.612,22.867-4.081,34.367-5.496c15.023-1.851,30.191-2.505,45.303-3.084
				c31.57-1.21,63.223-0.309,94.803-0.093c17.733,0.122,35.475-0.106,53.208-0.13c29.376-0.036,58.751,0.168,88.126,0.437
				c55.717,0.509,111.395,2.032,167.084,3.747c24.067,0.742,48.097,1.016,72.175,0.917c30.656-0.125,61.314-1.233,91.951-2.256
				c30.884-1.033,61.759-2.183,92.647-3.041c12.393-0.216,24.783-0.491,37.171-0.831c6.856-0.169,13.563,1.026,20.259,2.3
				c8.63,1.645,16.67,5.456,24.396,9.467c9.573,4.972,17.515,12.521,24.72,20.394c7.303,7.978,12.183,17.786,16.244,27.686
				c1.513,4.108,2.724,8.305,3.632,12.588c1.587,6.346,1.366,12.748,1.175,19.213c0.471-0.161,0.849-0.461,1.134-0.899
				c1.185-1.33,2.342-2.684,3.472-4.061c1.145-1.365,2.262-2.752,3.35-4.162C1044.588,97.005,1044.812,96.579,1044.884,96.086z"/>
			<path opacity="0.1091" fill="#FFFFFF" d="M1044.937,99.553c-0.118-2.194-0.235-4.388-0.353-6.582
				c-0.344-4.592-1.116-9.113-2.316-13.559c-1.503-6.85-4.639-13.25-7.666-19.512c-3.074-6.359-7.484-11.953-11.822-17.465
				c-4.389-5.578-9.888-10.154-15.305-14.666c-5.499-4.58-11.875-7.94-18.165-11.252c-6.431-3.386-13.479-5.344-20.436-7.272
				c-7.197-1.996-14.713-2.376-22.117-2.754c-8.944,0.162-17.885,0.477-26.82,0.943c-12.633,0.493-25.266,1.021-37.896,1.585
				c-37.313,1.611-74.615,3.341-111.943,4.612c-36.449,1.24-72.894,1.452-109.355,0.7c-16.126-0.332-32.261-1.188-48.38-1.759
				c-16.382-0.583-32.771-0.96-49.159-1.352c-40.95-0.978-81.914-1.343-122.873-1.595c-32.072-0.196-64.145-0.063-96.217,0.003
				c-19.112,0.039-38.225-0.317-57.335-0.439c-31.149-0.199-62.227,0.648-93.18,4.229c-17.531,2.028-34.722,5.866-51.639,10.803
				c-16.43,4.796-31.789,12.292-46.423,21.048c-7.379,4.414-14.014,9.91-20.601,15.391c-6.829,5.683-12.667,12.432-18.461,19.122
				c-6.156,7.106-11.101,15.172-16.025,23.139c-7.24,11.715-12.291,24.676-17.116,37.508c-4.08,10.85-6.729,22.202-9.435,33.445
				c-3.029,12.585-4.662,25.488-6.369,38.298c-4.227,31.709-3.56,63.896-3.196,95.792C5.32,394.603,5.715,481.248,6.217,567.89
				c0.962,165.75,2.025,331.497,3.159,497.244c2.264,330.86,4.663,661.72,5.838,992.585c1.172,330.305,0.988,660.615-1.758,990.911
				c-1.372,165.039-3.496,330.069-6.374,495.089c-0.691,39.602-1.455,79.202-2.245,118.801c0.08,1.883,0.162,3.766,0.242,5.646
				c0.35,3.473,1.168,6.83,2.454,10.073c1.502,4.688,4.882,8.408,8.108,11.949c3.253,3.571,7.934,5.769,12.176,7.837
				c4.432,2.159,9.398,3.064,14.177,4.044c4.699,0.964,9.635,1.032,14.407,1.175c5.854,0.174,11.731-0.347,17.555-0.879
				c6.159-0.564,12.272-1.625,18.449-1.99c0.516,0.026,1.032,0.052,1.55,0.078c12.425,0.711,24.852,1.426,37.278,2.143
				c18.681,1.075,37.375,1.947,56.066,2.834c82.095,3.896,164.274,6.061,246.448,7.451c158.679,2.686,317.435,0.811,476.03-4.812
				c18.748-0.664,37.49-1.452,56.233-2.237c13.932-0.586,27.881-1.12,41.799-1.965c4.706-0.285,9.152-1.182,13.705-2.336
				c4.785-1.214,8.589-4.026,12.35-7.04c1.104-1.313,2.21-2.627,3.314-3.94c2.017-2.84,3.529-5.927,4.541-9.26
				c1.898-4.823,2.094-10.322,2.495-15.413c0.383-4.847-0.042-9.854-0.208-14.705c-0.918-26.929-0.866-53.916-1.101-80.857
				c-0.685-78.713-0.295-157.438,0.123-236.151c0.45-84.686,1.187-169.369,1.803-254.053c0.902-123.949,1.486-247.9,0.988-371.853
				c-0.229-57.099-0.493-114.188-0.334-171.287c0.173-62.164,0.462-124.327,0.229-186.493
				c-0.206-54.995-0.524-109.988-0.584-164.986c-0.066-62.006-0.057-124.013-0.228-186.02
				c-0.157-57.143-0.601-114.283-0.877-171.425c-0.322-66.337-0.5-132.677-0.622-199.016
				c-0.945-509.665,3.043-1019.325,1.607-1528.991c-0.343,0.005-0.628,0.155-0.855,0.448c-0.85,0.781-1.675,1.587-2.474,2.422
				c-0.599,0.613-2.793,2.304-2.789,3.396c0.897,331-0.398,661.999-1.215,992.997c-0.407,165.413-0.652,330.825-0.45,496.237
				c0.198,161.346,1.446,322.689,1.661,484.035c0.099,74.064,0.061,148.127,0.331,222.192c0.137,37.273,0.429,74.545,0.433,111.82
				c0.006,43.196-0.211,86.393-0.339,129.588c-0.227,76.723,0.395,153.438,0.532,230.157c0.15,84.786-0.277,169.574-0.814,254.358
				c-1.034,162.996-2.634,325.987-2.85,488.989c-0.053,39.47,0.023,78.94,0.017,118.411c0.13,6.978,0.26,13.954,0.392,20.931
				c-0.478,2.505-0.763,5.032-0.855,7.582c-0.336,4.259-1.389,8.288-2.652,12.342c-1.275,4.09-3.669,7.243-6.307,10.524
				c-2.625,3.269-6.599,4.473-10.278,6.053c-4.006,1.721-8.819,2.111-13.086,2.67c-3,0.284-6.008,0.486-9.02,0.605
				c-12.421,0.577-24.844,1.128-37.268,1.649c-158.098,6.831-316.394,8.818-474.622,7.313c-76.112-0.725-152.21-2.623-228.278-5.27
				c-37.607-1.308-75.201-2.98-112.786-4.792c-6.22-0.313-12.44-0.628-18.661-0.943c-12.686-0.854-25.384-1.345-38.099-1.468
				c-1.053-0.305-2.127-0.342-3.219-0.11c-1.781,0.127-3.561,0.267-5.34,0.422c-7.024,0.58-14.172,0.484-21.203,0.153
				c-8.131-0.383-15.939-2.137-23.432-5.273c-3.561-1.488-6.483-3.843-9.409-6.289c-2.964-2.48-4.813-6.074-6.521-9.434
				c-2.122-4.18-2.619-8.967-3.261-13.523c-0.415-8.472-0.353-16.947,0.187-25.428c0.257-13.202,0.511-26.403,0.758-39.606
				c3.125-165.034,5.292-330.085,6.854-495.143c6.265-661.128,1.295-1322.297-3.259-1983.417
				c-1.646-238.704-3.172-477.408-4.324-716.115c-0.128-26.596-0.254-53.191-0.386-79.786c-0.079-13.247-0.083-26.495-0.015-39.742
				c0.039-15.454,0.648-30.798,1.592-46.218c1.086-17.775,3.884-35.356,7.149-52.837c1.556-7.747,3.403-15.423,5.545-23.029
				c2.73-10.442,6.69-20.479,10.718-30.465c4.796-11.888,11.445-22.864,18.461-33.534c7.921-12.046,18.241-22.238,29.038-31.662
				c10.329-9.013,22.456-15.737,34.64-21.841c12.406-6.215,25.853-10.212,39.188-13.83c11.131-3.02,22.584-4.8,33.972-6.512
				c23.952-3.604,48.37-4.287,72.558-4.724c28.586-0.516,57.183,0.357,85.77,0.292c49.819-0.116,99.629-0.047,149.446,0.507
				c55.762,0.62,111.479,2.375,167.211,4.161c24.171,0.775,48.377,0.45,72.552,0.13c30.873-0.408,61.737-1.682,92.587-2.844
				c24.808-0.936,49.61-1.891,74.422-2.713c12.492-0.295,24.983-0.657,37.471-1.089c7.075-0.226,13.95,0.844,20.882,2.065
				c8.921,1.571,17.257,5.404,25.267,9.448c9.925,5.012,18.178,12.723,25.666,20.775c7.553,8.123,12.617,18.152,16.838,28.28
				c1.563,4.169,2.813,8.428,3.755,12.778c1.58,6.208,1.469,12.518,1.417,18.857c0.337,0.036,0.633-0.076,0.889-0.339
				c0.919-0.667,1.816-1.363,2.69-2.088C1042.319,102.17,1044.987,100.499,1044.937,99.553z"/>
			<path opacity="0.1091" fill="#FFFFFF" d="M1045.726,94.363c-0.119-2.223-0.238-4.447-0.357-6.67
				c-0.397-4.661-1.215-9.246-2.452-13.757c-1.062-4.699-3.034-9.104-4.819-13.546c-2.662-6.62-6.785-12.549-10.811-18.376
				c-4.08-5.907-9.364-10.864-14.562-15.75c-5.27-4.952-11.5-8.728-17.643-12.45c-6.257-3.792-13.221-6.198-20.093-8.568
				c-7.069-2.438-14.555-3.297-21.933-4.143c-5.111-0.395-10.225-0.413-15.338-0.054c-12.75,0.528-25.498,1.073-38.245,1.633
				c-37.581,1.629-75.148,3.503-112.736,4.98c-36.639,1.439-73.278,2.017-109.943,1.712c-16.938-0.141-33.87-0.938-50.793-1.622
				c-15.967-0.646-31.94-1.073-47.913-1.51c-40.618-1.108-81.255-1.536-121.886-1.864c-34.809-0.281-69.619-0.249-104.428-0.113
				c-19.12,0.075-38.236-0.197-57.354-0.374c-18.911-0.176-37.81-0.025-56.711,0.606c-21.294,0.711-42.452,2.875-63.461,6.37
				c-17.217,2.865-33.903,7.864-50.184,14.063c-7.983,3.041-15.516,7.07-23.011,11.125c-7.55,4.086-14.428,9.243-21.258,14.396
				c-7.031,5.304-13.144,11.688-19.208,18.028c-6.396,6.683-11.639,14.366-16.855,21.96c-5.626,8.191-9.926,17.222-14.23,26.139
				c-6.417,13.293-10.563,27.595-14.528,41.753c-3.375,12.057-5.33,24.486-7.359,36.816c-2.266,13.777-3.183,27.759-4.176,41.667
				c-0.722,10.118-0.786,20.796-0.981,30.923c0.026,5.47,0.051,10.94,0.078,16.41c0.169,13.452,0.331,26.904,0.487,40.356
				c1.021,86.583,1.333,173.176,1.839,259.764c0.97,165.737,2.047,331.474,3.185,497.209c2.27,330.844,4.64,661.689,5.766,992.54
				c1.125,330.292,0.847,660.591-2.001,990.874c-1.423,165.031-3.612,330.057-6.561,495.07c-0.354,19.801-0.732,39.6-1.111,59.4
				c-0.129,6.6-0.258,13.198-0.386,19.798c-0.598,8.508-0.645,17.009-0.14,25.503c0.169,3.746,1.354,6.697,2.482,10.193
				c0.527,1.635,1.273,3.258,2.237,4.658c0.945,1.373,1.891,2.746,2.836,4.118c2.088,2.661,4.514,4.968,7.277,6.919
				c4.006,3.296,9.015,5.048,13.793,6.825c2.246,0.836,7.612,1.98,9.995,2.271c6.481,0.789,12.813,1.056,19.34,0.925
				c8-0.161,15.995-1.349,23.911-2.428c2.571-0.352,5.133-0.653,7.722-0.845c0.542,0.016,1.083,0.03,1.624,0.046
				c12.374,0.764,24.75,1.49,37.127,2.183c81.682,4.68,163.486,7.287,245.274,9.19c158.896,3.697,317.896,2.724,476.762-1.895
				c37.607-1.094,75.204-2.551,112.793-4.135c13.938-0.586,27.898-1.102,41.821-1.98c4.727-0.298,9.188-1.205,13.764-2.365
				c4.801-1.219,8.725-4.133,12.53-7.12c2.487-1.952,4.696-6.205,6.257-8.833c0.943-1.584,1.585-3.377,2.04-5.156
				c0.998-3.895,1.858-6.609,2.114-10.664c0.433-6.877,0.226-13.563-0.111-20.446c-0.993-20.31-0.902-40.716-1.184-61.045
				c-0.273-19.917-0.379-39.837-0.498-59.756c-0.512-85.058,0.063-170.123,0.622-255.177c0.853-130.299,2.076-260.594,2.503-390.896
				c0.215-65.328,0.147-130.656-0.189-195.983c-0.322-62.85-0.325-125.691-0.1-188.543c0.444-123.552-0.452-247.1-0.524-370.65
				c-0.079-133.654-1.028-267.301-1.457-400.953c-1.745-542.816,2.91-1085.63,1.371-1628.447c-0.003-1.004-1.519,1.344-1.367,1.124
				c-0.612,0.895-1.201,1.804-1.771,2.727c-0.342,0.463-0.597,0.969-0.767,1.514c0.923,331.001-0.364,662.003-1.19,993.005
				c-0.412,165.409-0.666,330.819-0.476,496.229c0.091,79.596,0.329,159.191,0.688,238.786
				c0.368,81.762,0.896,163.521,1.001,245.283c0.094,74.07,0.048,148.142,0.339,222.212c0.146,37.269,0.428,74.534,0.441,111.804
				c0.016,43.196-0.209,86.395-0.348,129.591c-0.246,76.713,0.37,153.419,0.523,230.13c0.169,84.789-0.251,169.579-0.782,254.366
				c-1.023,162.988-2.926,325.976-2.519,488.968c0.098,39.547,0.555,79.087,1.161,118.627c0.293,19.104,4.707,45.216-9.16,61.409
				c-1.113,0.785-2.225,1.569-3.336,2.356c-2.641,1.633-5.447,2.903-8.418,3.808c-4.217,1.586-9.174,1.804-13.605,2.22
				c-1.513,0.096-3.024,0.191-4.536,0.287c-12.426,0.589-24.854,1.151-37.283,1.686c-43.872,1.936-87.764,3.388-131.659,4.656
				c-158.861,4.584-317.853,4.527-476.729,0.808c-75.45-1.766-150.873-4.704-226.236-8.714c-6.196-0.346-12.395-0.695-18.592-1.041
				c-6.749-0.79-13.509-1.142-20.28-1.057c-2.5,0.02-5.081,0.52-7.554,0.831c-9.095,1.147-18.108,2.106-27.284,2.246
				c-8.021,0.122-15.873-1.241-23.603-3.474c-4.798-1.387-8.955-4.182-12.938-7.062c-4.348-8.446-8.696-16.892-13.044-25.338
				c-0.478-8.521-0.428-17.046,0.151-25.579c0.393-19.8,0.763-39.6,1.131-59.4c1.597-85.804,2.911-171.612,4.068-257.423
				c2.224-165.05,3.593-330.111,4.451-495.175c3.439-661.433-2.76-1322.867-7.043-1984.282
				C8.489,734.671,7.867,628.541,7.27,522.409C6.969,469.175,6.667,415.94,6.302,362.705c-0.183-26.76-0.43-53.521-0.619-80.282
				c-0.113-10.666,0.035-21.329,0.447-31.987c0.628-23.732,3.564-46.266,7.698-69.366c2.764-15.452,7.381-30.435,12.507-45.235
				c4.479-12.932,10.897-25.031,17.728-36.836c6.149-10.63,14.126-20.025,22.353-29.065c7.722-8.484,16.958-15.426,26.262-22.039
				c9.127-6.486,19.332-11.329,29.486-15.937c10.303-4.675,21.26-7.827,32.132-10.84c11.228-3.111,22.791-4.959,34.286-6.735
				c14.94-2.309,30.087-3.254,45.165-4.093c25.108-1.396,50.322-1.023,75.453-0.796c33.093,0.302,66.181,0.141,99.275,0.156
				c47.005,0.022,94.01,0.551,141.007,1.405c50.25,0.915,100.458,3.482,150.715,3.823c49.198,0.335,98.425-2.004,147.567-4.009
				c24.982-1.019,49.962-2.001,74.954-2.796c8.822-0.553,17.649-0.751,26.481-0.589c4.809,0.21,9.575,0.768,14.302,1.675
				c9.238,1.428,17.941,5.141,26.324,9.081c8.28,3.891,15.46,9.722,22.297,15.683c6.849,5.971,12.118,13.476,17.018,21.037
				c2.327,3.885,4.358,7.92,6.097,12.101c5.029,10.957,6.143,20.843,6.278,32.236c0.012,0.954,1.521-1.104,1.426-0.987
				c0.663-0.826,1.307-1.668,1.929-2.526C1045.236,95.356,1045.521,94.883,1045.726,94.363z"/>
			<path opacity="0.1091" fill="#FFFFFF" d="M1044.69,98.717c-0.092-2.255-0.185-4.51-0.275-6.764
				c-0.348-4.595-1.121-9.117-2.321-13.567c-1.499-6.828-4.637-13.209-7.66-19.446c-3.063-6.32-7.47-11.883-11.789-17.358
				c-4.369-5.539-9.84-10.083-15.229-14.562c-5.466-4.544-11.8-7.878-18.05-11.166c-6.386-3.358-13.384-5.304-20.289-7.218
				c-7.142-1.982-14.598-2.365-21.946-2.746c-8.898,0.155-17.792,0.454-26.683,0.896c-12.61,0.474-25.219,0.984-37.826,1.531
				c-37.382,1.569-74.754,3.281-112.148,4.54c-36.45,1.228-72.896,1.434-109.356,0.68c-16.129-0.335-32.265-1.193-48.389-1.761
				c-16.384-0.579-32.774-0.959-49.165-1.349c-40.947-0.975-81.911-1.34-122.868-1.593c-32.07-0.198-64.137-0.06-96.207-0.004
				c-19.112,0.033-38.226-0.317-57.338-0.438c-18.828-0.119-37.637,0.209-56.445,1.057c-21.089,0.953-42.006,3.499-62.733,7.454
				c-16.963,3.237-33.303,8.721-49.174,15.431c-7.808,3.301-15.109,7.614-22.369,11.945c-7.351,4.386-13.964,9.85-20.528,15.297
				C69.1,65.216,63.284,71.922,57.511,78.567c-6.131,7.058-11.059,15.071-15.967,22.986c-5.332,8.597-9.307,17.974-13.298,27.231
				c-5.992,13.897-9.706,28.703-13.257,43.358c-3.04,12.541-4.684,25.398-6.403,38.164c-1.936,14.381-2.534,28.925-3.214,43.401
				c-0.814,17.355-0.26,34.821-0.075,52.182c0.213,20.088,0.388,40.174,0.557,60.261c0.722,86.431,1.099,172.864,1.603,259.295
				c0.963,165.71,2.076,331.418,3.217,497.127c2.278,330.819,4.599,661.638,5.624,992.463
				c1.021,330.285,0.591,660.575-2.475,990.849c-1.532,165.035-3.845,330.062-6.922,495.076c-0.37,19.801-0.764,39.603-1.16,59.401
				c0.079,1.88,0.158,3.76,0.237,5.638c0.343,3.453,1.151,6.792,2.422,10.019c1.475,4.628,4.786,8.303,7.953,11.812
				c3.161,3.505,7.755,5.688,11.892,7.727c4.34,2.138,9.186,3.069,13.872,4.074c4.619,0.991,9.482,1.104,14.181,1.286
				c9.383,0.364,18.808-0.797,28.113-1.851c2.564-0.291,5.106-0.57,7.683-0.712c0.526,0.022,1.05,0.046,1.577,0.068
				c12.419,0.729,24.84,1.442,37.261,2.14c37.49,2.129,75.009,3.715,112.528,5.193c82.398,3.248,164.854,4.935,247.309,5.823
				c158.34,1.705,316.726-1.113,474.932-7.737c13.93-0.583,27.876-1.124,41.795-1.956c4.698-0.282,9.143-1.165,13.695-2.301
				c4.779-1.191,8.59-3.964,12.364-6.947c1.088-1.282,2.177-2.563,3.267-3.846c2.011-2.772,3.51-5.799,4.495-9.081
				c1.883-4.782,2.112-10.152,2.523-15.2c0.392-4.816-0.026-9.803-0.19-14.623c-0.689-20.201-0.615-40.46-0.82-60.671
				c-0.268-26.472-0.337-52.946-0.408-79.42c-0.43-163.115,1.581-326.236,2.649-489.345c0.77-117.496,1.089-234.993,0.37-352.489
				c-0.726-118.516,0.686-237.029-0.115-355.545c-0.789-116.731-0.228-233.468-0.719-350.2
				c-0.524-124.661-1.251-249.317-1.421-373.979c-0.676-496.412,3.063-992.821,1.666-1489.233c-0.485,0.147-0.882,0.438-1.19,0.872
				c-1.264,1.304-2.5,2.634-3.709,3.989c-1.225,1.34-2.424,2.706-3.594,4.094c-0.399,0.352-0.648,0.775-0.747,1.272
				c0.885,330.995-0.414,661.99-1.225,992.983c-0.405,165.417-0.646,330.835-0.438,496.254
				c0.205,161.345,1.429,322.687,1.646,484.033c0.1,74.065,0.069,148.132,0.328,222.197c0.132,37.269,0.428,74.534,0.429,111.804
				c0,43.199-0.213,86.396-0.335,129.596c-0.216,76.719,0.406,153.432,0.534,230.148c0.142,84.779-0.29,169.56-0.83,254.337
				c-1.036,162.935-2.508,325.865-2.997,488.804c-0.117,39.243-0.224,78.485-0.396,117.728c0.063,6.762,0.123,13.522,0.185,20.284
				c-0.584,2.249-0.929,4.535-1.034,6.859c-0.381,3.718-1.363,7.287-2.548,10.809c-1.232,3.661-3.24,6.346-5.65,9.3
				c-2.415,2.961-6.458,4.037-9.821,5.422c-1.351,0.356-2.702,0.714-4.054,1.072c-2.908,0.677-5.85,1.147-8.824,1.413
				c-2.988,0.27-5.982,0.461-8.981,0.572c-12.417,0.574-24.835,1.122-37.255,1.641c-158.049,6.789-316.295,8.726-474.474,7.188
				c-76.097-0.739-152.179-2.657-228.231-5.313c-37.62-1.314-75.228-2.978-112.828-4.771c-6.226-0.312-12.452-0.623-18.677-0.936
				c-12.668-0.787-25.35-1.257-38.042-1.405c-1.073-0.296-2.164-0.35-3.273-0.161c-1.734,0.088-3.469,0.188-5.202,0.299
				c-6.738,0.409-13.604,0.084-20.32-0.469c-7.459-0.612-14.623-2.472-21.376-5.669c-3.164-1.497-5.685-3.686-8.27-5.989
				c-2.649-2.361-4.266-5.854-5.712-8.989c-1.931-4.188-2.379-8.798-2.976-13.304c-0.354-8.466-0.283-16.934,0.218-25.402
				c0.258-13.203,0.51-26.406,0.756-39.609c3.116-165.041,5.272-330.1,6.828-495.162c6.23-661.138,1.246-1322.319-3.307-1983.452
				C17.768,866.028,16,620.711,15.2,375.391c-0.087-26.539-0.156-53.078-0.119-79.616c0.029-11.896,0.161-23.793,0.395-35.687
				c0.232-14.696,1.578-29.328,3.006-43.942c2.02-20.677,6.449-41.003,11.927-61.002c4.533-16.551,11.639-32.177,19.758-47.227
				c5.657-10.488,13.089-19.848,20.793-28.87c8.93-10.455,19.995-18.833,31.311-26.49c11.178-7.563,23.776-12.844,36.32-17.629
				c13.041-4.974,26.812-7.937,40.464-10.619c11.473-2.256,23.145-3.458,34.766-4.62c15.167-1.517,30.442-1.964,45.671-2.358
				c28.486-0.739,57.013-0.014,85.502,0.166c17.728,0.111,35.465-0.111,53.192-0.132c29.372-0.033,58.744,0.176,88.115,0.45
				c55.721,0.518,111.404,2.07,167.1,3.74c24.074,0.721,48.11,0.992,72.196,0.893c30.646-0.126,61.294-1.212,91.921-2.203
				c30.823-0.997,61.639-2.069,92.468-2.822c12.326-0.162,24.648-0.389,36.972-0.678c6.713-0.141,13.334,1.193,19.863,2.534
				c8.452,1.734,16.293,5.596,23.82,9.648c9.33,5.021,17.02,12.555,23.984,20.389c7.073,7.956,11.749,17.677,15.634,27.468
				c1.452,4.078,2.609,8.238,3.469,12.48c1.489,6.204,1.167,12.482,0.958,18.787c0.492-0.104,0.909-0.357,1.251-0.76
				c1.36-1.183,2.696-2.393,4.009-3.63c1.324-1.222,2.624-2.471,3.898-3.747C1044.271,99.6,1044.553,99.202,1044.69,98.717z"/>
			<path opacity="0.1091" fill="#FFFFFF" d="M1044.974,96.071c-0.112-2.223-0.226-4.447-0.338-6.671
				c-0.38-4.634-1.182-9.196-2.401-13.685c-1.536-6.893-4.711-13.322-7.784-19.616c-3.121-6.393-7.606-12.011-12.003-17.54
				c-4.452-5.601-10.024-10.184-15.512-14.7c-5.569-4.586-12.017-7.934-18.378-11.232c-6.5-3.372-13.614-5.299-20.633-7.197
				c-7.257-1.961-14.822-2.296-22.278-2.63c-8.961,0.233-17.919,0.57-26.872,1.012c-12.651,0.515-25.302,1.062-37.95,1.637
				c-37.423,1.661-74.835,3.408-112.274,4.693c-36.448,1.251-72.895,1.454-109.354,0.687c-16.124-0.337-32.253-1.209-48.369-1.787
				c-16.383-0.587-32.774-0.959-49.162-1.35C520.712,6.72,479.746,6.36,438.785,6.112c-32.073-0.194-64.145-0.058-96.217,0.011
				c-19.109,0.041-38.221-0.329-57.33-0.451c-18.835-0.119-37.65,0.219-56.465,1.085c-21.12,0.973-42.063,3.563-62.809,7.574
				c-17.009,3.29-33.379,8.851-49.271,15.647c-7.829,3.348-15.142,7.716-22.411,12.103c-7.368,4.446-13.985,9.972-20.554,15.484
				c-6.809,5.712-12.62,12.489-18.389,19.205c-6.126,7.129-11.034,15.214-15.925,23.199c-5.31,8.667-9.26,18.111-13.234,27.43
				c-5.956,13.973-9.618,28.858-13.126,43.582c-3.001,12.584-4.612,25.48-6.296,38.284c-1.897,14.413-2.465,28.983-3.111,43.487
				c-0.775,17.372-0.195,34.849,0.012,52.225c0.24,20.097,0.433,40.194,0.616,60.293c0.786,86.436,1.154,172.876,1.661,259.314
				c0.973,165.71,2.082,331.42,3.224,497.129c2.277,330.819,4.598,661.636,5.62,992.462c1.02,330.282,0.585,660.571-2.485,990.842
				c-1.535,165.034-3.849,330.06-6.93,495.072c-0.369,19.801-0.765,39.601-1.161,59.4c0.083,1.889,0.165,3.776,0.247,5.666
				c0.354,3.47,1.175,6.825,2.462,10.065c1.5,4.659,4.872,8.379,8.075,11.904c3.255,3.585,7.905,5.816,12.146,7.926
				c4.436,2.206,9.421,3.151,14.219,4.165c4.724,0.999,9.69,1.079,14.493,1.235c9.408,0.307,18.853-0.96,28.17-2.083
				c2.583-0.312,5.145-0.617,7.742-0.79c0.481,0.023,0.964,0.049,1.446,0.072c12.454,0.642,24.905,1.335,37.353,2.08
				c37.478,2.163,74.992,3.713,112.501,5.19c82.401,3.244,164.861,4.933,247.317,5.815c158.355,1.694,316.755-1.118,474.975-7.755
				c13.935-0.584,27.886-1.121,41.808-1.96c2.751-0.166,6.765-0.552,9.429-1.217c1.517-0.376,3.032-0.754,4.55-1.132
				c3.072-0.922,5.961-2.249,8.663-3.98c4.598-2.511,7.33-7.06,9.979-11.336c0.661-1.611,1.324-3.224,1.987-4.835
				c1.138-3.374,1.891-6.833,2.262-10.377c0.826-5.148,0.519-10.504,0.382-15.687c-1.098-41.795-1.443-83.595-1.664-125.403
				c-0.413-78.442,0.065-156.891,0.552-235.33c0.522-84.673,1.258-169.346,1.838-254.019c0.806-117.468,1.212-234.938,0.614-352.408
				c-0.289-56.705-0.359-113.403-0.17-170.11c0.209-62.458,0.411-124.914,0.055-187.372c-0.665-116.617-0.36-233.237-0.762-349.856
				c-0.199-57.723-0.649-115.445-0.91-173.168c-0.297-66.325-0.456-132.65-0.563-198.975
				c-0.811-503.039,3.062-1006.072,1.64-1509.111c-0.004-1.093-1.809,1.639-1.662,1.439c-0.81,1.104-1.596,2.226-2.361,3.361
				c-0.443,0.57-0.803,1.186-1.078,1.849c0.909,331.001-0.381,662-1.203,993c-0.409,165.411-0.66,330.823-0.462,496.236
				c0.192,161.353,1.463,322.704,1.673,484.057c0.097,74.069,0.056,148.138,0.335,222.207c0.142,37.269,0.43,74.535,0.438,111.805
				c0.012,43.198-0.21,86.395-0.343,129.593c-0.237,76.714,0.383,153.423,0.528,230.136c0.159,84.788-0.263,169.575-0.799,254.36
				c-1.029,162.986-2.8,325.972-2.666,488.964c0.033,39.587,0.32,79.17,0.615,118.755c0.084,11.45,0.816,22.294,0.054,33.545
				c-0.309,4.561-1.606,8.78-3.101,13.06c-1.895,5.432-6.455,10.094-11.369,12.832c-6.544,3.646-14.146,4.524-21.5,5.155
				c-1.504,0.086-3.008,0.172-4.511,0.258c-12.423,0.584-24.848,1.139-37.274,1.667c-25,1.092-50.008,1.989-75.016,2.86
				c-158.621,5.529-317.397,6.318-476.082,3.552c-75.793-1.32-151.563-3.823-227.293-7.153c-18.702-0.823-37.397-1.788-56.094-2.755
				c-6.187-0.35-12.375-0.7-18.562-1.051c-6.864,0.243-13.689-0.021-20.479-0.788c-0.717,0.051-1.434,0.104-2.151,0.155
				c-1.81,0.17-3.618,0.357-5.424,0.563c-4.71,0.51-9.458,0.753-14.188,0.977c-8.615,0.404-17.061-0.298-25.494-2.053
				c-4.291-0.895-8.235-2.742-12.125-4.679c-3.808-1.894-6.766-4.869-9.643-7.901c-2.972-3.134-4.522-7.249-6.056-11.18
				c-1.884-4.825-1.909-10.4-2.104-15.473c0.132-6.602,0.262-13.202,0.394-19.803c0.259-13.201,0.512-26.402,0.76-39.604
				c0.501-26.403,0.963-52.805,1.42-79.208c2.858-165.035,4.782-330.084,6.137-495.139c5.424-661.203,0.045-1322.437-4.469-1983.629
				c-1.632-238.895-2.908-477.792-4.252-716.689c-0.134-23.86-0.255-47.699,0.516-71.55c0.742-22.935,3.809-45.666,7.968-68.197
				c2.803-15.181,7.384-29.889,12.489-44.423c5.48-15.603,13.6-30.035,22.639-43.802c6.462-9.842,14.653-18.374,23.04-26.555
				c9.961-9.716,21.884-17.181,33.934-23.967c9.651-5.437,20.14-9.282,30.55-12.951c13.463-4.745,27.594-7.501,41.609-9.993
				c11.712-2.082,23.6-3.146,35.44-4.174c15.356-1.333,30.803-1.657,46.207-1.938c28.587-0.523,57.187,0.348,85.774,0.295
				c49.829-0.093,99.647-0.054,149.474,0.499c49.792,0.551,99.552,1.953,149.317,3.579c24.052,0.786,48.066,1.052,72.129,0.952
				c30.691-0.125,61.384-1.287,92.053-2.385c24.818-0.889,49.631-1.925,74.448-2.846c12.422-0.466,24.849-0.85,37.276-1.153
				c6.33-0.205,12.66-0.411,18.991-0.616c4.76-0.093,9.499,0.166,14.221,0.776c9.168,0.846,17.937,4.01,26.395,7.423
				c10.41,4.201,19.382,11.24,27.617,18.687c6.612,5.978,11.638,13.443,16.299,20.952c2.215,3.867,4.139,7.873,5.772,12.019
				c4.356,9.985,5.711,21.417,5.587,32.144c0.341-0.03,0.612-0.201,0.815-0.509c0.786-0.84,1.545-1.705,2.274-2.594
				C1043.039,98.97,1045.03,97.185,1044.974,96.071z"/>
			<path opacity="0.1091" fill="#FFFFFF" d="M1046.522,93.806c-0.113-2.213-0.227-4.428-0.339-6.642
				c-0.4-4.66-1.218-9.246-2.454-13.758c-1.061-4.7-3.038-9.116-4.826-13.557c-2.669-6.627-6.8-12.562-10.835-18.395
				c-4.09-5.915-9.387-10.875-14.596-15.764c-5.28-4.957-11.522-8.734-17.678-12.458c-6.271-3.794-13.248-6.199-20.133-8.569
				c-7.087-2.439-14.586-3.298-21.979-4.146c-5.124-0.396-10.249-0.414-15.376-0.055c-12.768,0.529-25.533,1.075-38.297,1.642
				c-37.597,1.64-75.179,3.517-112.782,4.999c-48.484,1.91-96.975,2.434-145.479,0.713c-32.337-1.146-64.659-2.208-97.012-2.872
				c-41.162-0.847-82.335-1.129-123.503-1.292c-29.371-0.116-58.74,0.155-88.111,0.054c-19.087-0.065-38.172-0.407-57.26-0.44
				c-18.757-0.03-37.489,0.531-56.208,1.679c-20.982,1.286-41.732,4.379-62.227,8.991c-16.875,3.798-32.977,10.032-48.517,17.52
				c-7.723,3.722-14.853,8.496-21.937,13.276c-7.242,4.887-13.646,10.865-20.002,16.813c-6.65,6.221-12.217,13.485-17.75,20.674
				c-5.925,7.698-10.565,16.305-15.199,24.8c-8.705,15.961-14.093,33.497-18.972,50.913c-5.874,20.971-8.384,42.802-10.53,64.402
				c-1.504,15.153-1.693,30.424-1.961,45.634c0.033,5.485,0.066,10.97,0.101,16.456c0.202,13.485,0.379,26.972,0.532,40.458
				c1.059,86.584,1.39,173.178,1.9,259.766c0.976,165.737,2.051,331.472,3.189,497.209c2.271,330.844,4.639,661.688,5.763,992.539
				c1.121,330.292,0.839,660.592-2.015,990.873c-1.427,165.033-3.621,330.06-6.573,495.071c-0.354,19.8-0.733,39.601-1.111,59.399
				c-0.13,6.6-0.259,13.199-0.388,19.799c-0.63,8.497-0.668,16.985-0.115,25.466c0.195,3.92,1.373,6.561,2.62,10.188
				c1.222,3.554,3.138,5.778,5.294,8.76c2.99,4.134,7.502,6.825,11.739,9.444c4.281,2.646,9.479,3.883,14.283,5.122
				c8.003,2.063,16.526,2.033,24.716,1.858c8.087-0.174,16.165-1.371,24.168-2.459c2.54-0.345,5.071-0.63,7.626-0.81
				c0.548,0.018,1.095,0.036,1.642,0.052c12.358,0.815,24.721,1.561,37.088,2.237c81.682,4.694,163.489,7.288,245.278,9.185
				c158.887,3.686,317.877,2.707,476.731-1.917c37.605-1.095,75.197-2.555,112.784-4.138c13.931-0.588,27.886-1.104,41.802-1.982
				c4.718-0.298,9.159-1.22,13.725-2.394c4.896-1.258,8.816-4.274,12.645-7.377c2.511-2.036,4.471-5.94,6.048-8.643
				c0.93-1.593,1.573-3.387,2.033-5.175c1.01-3.94,1.854-6.616,2.114-10.722c0.439-6.896,0.225-13.606-0.111-20.511
				c-0.991-20.342-0.93-40.775-1.215-61.137c-0.279-19.924-0.387-39.849-0.509-59.773c-0.523-85.062,0.056-170.131,0.611-255.191
				c0.852-130.298,2.076-260.595,2.504-390.896c0.215-65.329,0.146-130.657-0.189-195.983
				c-0.323-62.852-0.326-125.693-0.101-188.546c0.444-123.551-0.451-247.099-0.525-370.651
				c-0.08-133.651-1.027-267.298-1.457-400.95c-1.746-542.816,2.909-1085.63,1.372-1628.447c-0.003-0.997-1.515,1.31-1.369,1.102
				c-0.614,0.881-1.207,1.778-1.778,2.689c-0.344,0.457-0.601,0.956-0.772,1.496c0.925,331.003-0.364,662.004-1.19,993.006
				c-0.412,165.409-0.667,330.817-0.477,496.228c0.092,79.596,0.328,159.19,0.688,238.786c0.368,81.759,0.894,163.517,0.999,245.277
				c0.096,74.068,0.047,148.138,0.338,222.207c0.146,37.271,0.431,74.539,0.444,111.811c0.015,43.196-0.211,86.393-0.349,129.59
				c-0.247,76.714,0.371,153.422,0.524,230.136c0.17,84.789-0.248,169.581-0.78,254.368c-1.024,162.994-2.943,325.988-2.497,488.987
				c0.109,39.577,0.571,79.149,1.237,118.721c0.313,18.65,4.658,45.545-8.535,61.253c-1.229,0.954-2.456,1.909-3.686,2.864
				c-2.606,1.666-5.384,2.966-8.335,3.897c-4.172,1.625-9.11,1.863-13.51,2.279c-1.499,0.094-2.998,0.189-4.497,0.284
				c-12.424,0.591-24.85,1.154-37.275,1.688c-43.862,1.939-87.745,3.396-131.633,4.667c-158.838,4.599-317.804,4.557-476.659,0.861
				c-75.455-1.755-150.881-4.695-226.25-8.704c-6.199-0.352-12.4-0.699-18.601-1.05c-6.721-0.766-13.457-1.16-20.206-1.183
				c-2.415-0.02-4.934,0.475-7.322,0.769c-9.316,1.146-18.522,2.232-27.92,2.435c-8.105,0.173-16.103-1.082-23.947-3.195
				c-4.771-1.287-8.959-3.832-13.048-6.492c-4.165-2.709-6.934-6.661-9.698-10.662c-1.5-4.774-3.001-9.551-4.5-14.326
				c-0.566-8.487-0.531-16.983,0.105-25.487c1.712-85.8,3.132-171.606,4.39-257.415c2.419-165.041,3.963-330.094,4.972-495.15
				c4.046-661.355-1.913-1322.72-6.296-1984.059C8.424,795.727,7.774,689.628,7.159,583.53
				C6.85,530.378,6.547,477.224,6.201,424.073c-0.174-26.678-0.385-53.357-0.614-80.036c-0.267-30.895-0.991-61.789-0.302-92.681
				c0.426-19.132,2.559-38.142,5.176-57.076c3.722-26.918,11.783-53.411,22.878-78.159c5.325-11.875,12.586-22.708,20.191-33.202
				c8.678-11.975,19.78-21.915,31.285-31.061c8.846-7.033,18.897-12.409,28.917-17.521c10.079-5.142,20.914-8.703,31.668-12.104
				c11.053-3.495,22.512-5.646,33.898-7.712c14.782-2.682,29.826-3.885,44.792-4.955c24.979-1.787,50.113-1.567,75.139-1.402
				c12.744,0.083,25.487,0.25,38.232,0.346c23.532,0.176,47.073-0.11,70.607-0.1c47.011,0.021,94.018,0.547,141.021,1.401
				c22.063,0.4,44.121,1.019,66.177,1.705c22.14,0.689,44.277,1.854,66.43,2.004c24.314,0.165,48.599-0.068,72.907-0.587
				c24.728-0.529,49.446-1.578,74.159-2.559c25.003-0.994,50.001-2.054,75.005-2.986c12.684-0.41,25.368-0.821,38.052-1.236
				c7.438-0.242,14.601,0.644,21.923,1.79c9.332,1.462,18.118,5.228,26.584,9.224c8.346,3.939,15.581,9.833,22.472,15.855
				c6.887,6.022,12.188,13.583,17.114,21.202c2.336,3.907,4.377,7.963,6.122,12.168c1.847,6.461,3.694,12.923,5.54,19.384
				c0.646,4.259,0.878,8.539,0.696,12.839c0.003,0.944,1.519-1.053,1.43-0.95c0.672-0.804,1.322-1.626,1.952-2.463
				C1046.024,94.784,1046.313,94.318,1046.522,93.806z"/>
			<path opacity="0.1091" fill="#FFFFFF" d="M1044.113,99.402c-0.08-2.25-0.161-4.499-0.241-6.749
				c-0.336-4.591-1.103-9.11-2.299-13.556c-1.492-6.832-4.617-13.22-7.629-19.465c-3.054-6.331-7.452-11.908-11.764-17.397
				c-4.363-5.556-9.831-10.116-15.219-14.613c-5.468-4.565-11.808-7.918-18.063-11.224c-6.396-3.378-13.408-5.341-20.328-7.272
				c-7.162-1.999-14.642-2.393-22.014-2.785c-8.917,0.141-17.829,0.438-26.737,0.89c-12.625,0.472-25.248,0.984-37.869,1.535
				c-37.4,1.575-74.79,3.297-112.203,4.561c-36.45,1.232-72.896,1.441-109.356,0.687c-16.126-0.333-32.259-1.193-48.379-1.764
				c-16.383-0.578-32.773-0.958-49.164-1.347c-40.949-0.976-81.914-1.341-122.874-1.593c-32.07-0.198-64.14-0.061-96.209-0.003
				c-19.112,0.035-38.224-0.32-57.334-0.44c-18.831-0.119-37.644,0.208-56.455,1.057c-21.104,0.952-42.034,3.502-62.775,7.46
				c-16.988,3.243-33.353,8.736-49.247,15.458c-7.826,3.31-15.142,7.633-22.418,11.977c-7.371,4.398-13.999,9.878-20.581,15.341
				c-6.821,5.664-12.652,12.392-18.442,19.061c-6.148,7.083-11.086,15.124-16.007,23.066c-5.344,8.626-9.325,18.034-13.324,27.322
				c-5.999,13.935-9.71,28.78-13.261,43.475c-3.037,12.568-4.676,25.452-6.389,38.246c-1.928,14.404-2.516,28.971-3.186,43.471
				c-0.803,17.376-0.237,34.861-0.042,52.242c0.226,20.097,0.404,40.193,0.577,60.29C5.625,453.771,6,540.213,6.504,626.653
				c0.966,165.71,2.079,331.419,3.219,497.129c2.278,330.819,4.6,661.638,5.621,992.464c1.021,330.281,0.588,660.572-2.479,990.843
				c-1.534,165.033-3.848,330.061-6.926,495.071c-0.369,19.802-0.764,39.602-1.16,59.402c0.08,1.879,0.159,3.759,0.239,5.639
				c0.348,3.463,1.166,6.811,2.454,10.043c1.5,4.659,4.865,8.342,8.079,11.856c3.218,3.52,7.881,5.686,12.078,7.709
				c4.393,2.118,9.286,3.011,14.017,3.982c4.646,0.954,9.534,1.028,14.255,1.174c9.391,0.289,18.809-0.921,28.114-2.016
				c2.563-0.302,5.102-0.588,7.679-0.734c0.523,0.024,1.047,0.05,1.571,0.074c12.422,0.724,24.845,1.439,37.269,2.144
				c37.487,2.142,75.007,3.723,112.526,5.201c82.396,3.246,164.853,4.933,247.305,5.814c158.338,1.693,316.723-1.123,474.926-7.76
				c13.93-0.584,27.877-1.122,41.794-1.96c4.699-0.282,9.14-1.172,13.689-2.319c4.767-1.2,8.561-3.99,12.314-6.984
				c1.088-1.293,2.176-2.586,3.265-3.878c1.996-2.794,3.488-5.836,4.477-9.124c1.872-4.782,2.101-10.166,2.507-15.213
				c0.386-4.81-0.022-9.776-0.176-14.592c-0.644-20.225-0.643-40.486-0.852-60.718c-0.274-26.468-0.348-52.938-0.421-79.407
				c-0.45-163.112,1.568-326.229,2.639-489.335c0.771-117.495,1.089-234.993,0.37-352.489
				c-0.725-118.516,0.695-237.031-0.116-355.548c-0.8-116.729-0.227-233.468-0.72-350.199
				c-0.524-124.661-1.248-249.316-1.419-373.977c-0.679-496.413,3.066-992.821,1.666-1489.234c-0.406,0.072-0.735,0.288-0.99,0.646
				c-1.013,1.023-2,2.069-2.959,3.142c-0.975,1.058-1.923,2.14-2.842,3.247c-0.333,0.287-0.516,0.637-0.549,1.048
				c0.894,330.996-0.406,661.992-1.22,992.988c-0.407,165.415-0.649,330.83-0.443,496.246
				c0.201,161.348,1.439,322.691,1.654,484.039c0.099,74.066,0.065,148.133,0.331,222.199c0.134,37.27,0.426,74.535,0.429,111.807
				c0.004,43.197-0.212,86.396-0.336,129.594c-0.222,76.718,0.398,153.431,0.531,230.147c0.146,84.781-0.284,169.565-0.822,254.346
				c-1.035,162.962-2.562,325.919-2.936,488.885c-0.092,39.341-0.126,78.68-0.215,118.02c0.089,6.832,0.176,13.664,0.265,20.495
				c-0.518,2.372-0.822,4.771-0.915,7.199c-0.342,3.941-1.321,7.716-2.505,11.468c-1.223,3.874-3.362,6.78-5.857,9.909
				c-2.486,3.113-6.503,4.306-10.002,5.788c-1.366,0.379-2.732,0.757-4.1,1.136c-2.924,0.693-5.881,1.18-8.874,1.458
				c-2.993,0.276-5.991,0.472-8.995,0.587c-12.419,0.576-24.839,1.125-37.26,1.646c-158.071,6.809-316.34,8.771-474.54,7.251
				c-76.104-0.73-152.193-2.639-228.253-5.289c-37.616-1.313-75.218-2.98-112.812-4.781c-6.223-0.313-12.446-0.627-18.668-0.941
				c-12.67-0.803-25.352-1.291-38.045-1.466c-1.07-0.294-2.158-0.342-3.265-0.14c-1.754,0.103-3.506,0.219-5.258,0.348
				c-6.867,0.479-13.845,0.281-20.704-0.159c-7.761-0.498-15.224-2.282-22.321-5.422c-3.362-1.487-6.078-3.737-8.836-6.101
				c-2.813-2.41-4.55-5.947-6.127-9.19c-2.035-4.182-2.507-8.881-3.125-13.411c-0.38-8.468-0.313-16.938,0.205-25.412
				c0.257-13.201,0.511-26.404,0.757-39.607c3.12-165.038,5.28-330.094,6.84-495.152c6.247-661.134,1.269-1322.31-3.285-1983.436
				c-1.69-245.331-3.365-490.662-4.328-735.996c-0.104-26.563-0.205-53.128-0.223-79.694c0.003-11.927,0.103-23.854,0.3-35.779
				c0.189-14.748,1.484-29.435,2.861-44.106c1.952-20.784,6.303-41.224,11.706-61.351c4.478-16.684,11.528-32.458,19.595-47.667
				c5.63-10.615,13.048-20.108,20.745-29.264c8.922-10.612,20.008-19.145,31.362-26.949c11.196-7.695,23.844-13.091,36.443-17.979
				c13.069-5.068,26.888-8.1,40.59-10.846c11.494-2.303,23.193-3.537,34.842-4.728c15.185-1.554,30.481-2.02,45.729-2.429
				c28.488-0.766,57.019-0.033,85.51,0.158c17.723,0.119,35.455-0.104,53.179-0.126c29.375-0.037,58.75,0.167,88.123,0.436
				c55.717,0.508,111.398,2.01,167.087,3.756c24.067,0.756,48.097,1.015,72.175,0.915c30.66-0.127,61.322-1.243,91.964-2.275
				c30.896-1.042,61.786-2.206,92.688-3.078c12.39-0.216,24.778-0.499,37.165-0.85c6.863-0.176,13.588,1.04,20.288,2.325
				c8.646,1.66,16.696,5.499,24.427,9.54c9.58,5.005,17.513,12.597,24.706,20.508c7.286,8.011,12.145,17.848,16.186,27.769
				c1.506,4.115,2.71,8.316,3.612,12.604c1.554,6.248,1.33,12.572,1.171,18.937c0.407-0.032,0.752-0.212,1.036-0.542
				c1.088-0.911,2.152-1.849,3.192-2.815c1.055-0.949,2.083-1.928,3.087-2.931C1043.835,100.132,1044.045,99.804,1044.113,99.402z"
				/>
		</g>
	</g>
</g>
</svg>
