<?xml version="1.0" encoding="utf-8"?>
<!-- Generator: Adobe Illustrator 16.0.0, SVG Export Plug-In . SVG Version: 6.00 Build 0)  -->
<!DOCTYPE svg PUBLIC "-//W3C//DTD SVG 1.1//EN" "http://www.w3.org/Graphics/SVG/1.1/DTD/svg11.dtd">
<svg version="1.1" id="Layer_1" xmlns="http://www.w3.org/2000/svg" xmlns:xlink="http://www.w3.org/1999/xlink" x="0px" y="0px"
	 width="1052px" height="3716px" viewBox="0 0 1052 3716" enable-background="new 0 0 1052 3716" xml:space="preserve">
<g>
	
		<image overflow="visible" opacity="0.75" width="510" height="3714" xlink:href="9DEB3EF4.png"  transform="matrix(1 0 0 1 279.5002 0.4998)">
	</image>
	<g>
		<path fill="#F2F2F2" d="M754.725,62.158c-0.065-21.621-18.967-39.036-42.017-38.662c-44.304,0.718-90.057,3.901-133.002,2.31
			c-37.822-1.401-80.294-1.892-123.026-1.74c-76.105,0.271-157.544-11.383-157.088,111.313
			c1.777,478.422,10.145,3045.841,0,3521.552c-0.456,21.376,27.011,15.621,32.597,15.91c134.332,6.972,269.135,7.523,403.541,1.659
			c4.68-0.204,9.749-0.545,13.255-3.149c4.463-3.313,4.757-8.96,4.725-13.954c-0.938-138.703,2.225-2902.785,1.287-3041.487
			c-0.336-49.431,0.332-93.787,0-143.218c-0.372-54.627-0.089-116.383-0.456-171.009C752.787,42.389,755.519,321.244,754.725,62.158
			z"/>
		<g>
			<g>
				<path opacity="0.1091" fill="#FFFFFF" d="M764.986,52.745c-0.152-1.51-0.304-3.021-0.456-4.53
					c-0.634-3.177-1.656-6.223-3.068-9.141c-1.979-4.878-5.774-8.829-9.277-12.609c-3.791-4.09-8.872-6.813-13.695-9.426
					c-5.17-2.799-10.987-3.881-16.682-4.956c-2.002-0.149-4.004-0.299-6.006-0.447c-8.782,0.201-17.56,0.54-26.334,1.018
					c-13.277,0.653-26.554,1.308-39.832,1.961c-13.064,0.641-26.136,1.11-39.213,1.409c-18.198,0.533-36.395-0.125-54.58-0.679
					c-23.493-0.715-46.999-0.883-70.499-1.021c-20.959-0.122-41.917,0.091-62.877-0.065c-12.911-0.097-25.775,0.157-38.652,1.142
					c-12.384,0.947-24.402,3.621-36.163,7.529c-7.651,2.544-14.563,6.689-21.208,11.155c-7.062,4.746-12.598,11.404-17.707,18.082
					c-4.152,5.428-6.948,11.87-9.754,18.042c-1.077,2.368-1.934,4.855-2.656,7.361c-2.691,9.322-1.808,5.916-3.968,15.595
					c-2.015,9.024-2.49,18.376-3.085,27.567c-0.92,14.185,0.555,28.381,1.052,42.549c0.656,18.738,0.634,37.507,0.739,56.253
					c0.134,24.172,0.212,48.344,0.299,72.515c1.065,295.684,1.835,591.37,2.544,887.053c0.927,387.098,1.612,774.196,1.792,1161.294
					c0.155,333.084,0.184,666.178-1.645,999.257c-0.554,100.862-1.058,201.738-2.954,302.587c-0.147,7.876-0.317,15.751-0.497,23.63
					c-0.043,1.86,0.348,5.168,1.379,6.807c0.625,0.994,1.25,1.987,1.875,2.981c1.561,1.951,3.417,3.568,5.565,4.847
					c3.165,2.301,7.68,3.048,11.388,3.867c3.808,0.839,8.018,0.57,11.882,0.504c6.118-0.104,12.063-1.898,18.146-2.176
					c6.476,0.288,12.952,0.576,19.429,0.864c12.843,0.639,25.69,1.209,38.54,1.705c19.268,0.797,38.546,1.298,57.823,1.808
					c38.539,1.013,77.096,1.192,115.646,1.11c38.542-0.081,77.078-0.961,115.603-2.102c19.257-0.57,38.504-1.406,57.751-2.239
					c3.181-0.139,6.036-0.679,9.083-1.495c0.962-0.445,1.924-0.892,2.886-1.334c2.182-1.301,3.897-3.064,5.148-5.29
					c0.582-1.273,1.163-2.55,1.746-3.826c0.956-2.782,1.441-5.645,1.456-8.587c0.479-5.525-0.673-11.056-1.103-16.545
					c-0.728-9.305-0.86-18.6-0.936-27.929c-0.232-29.199-0.109-58.406-0.128-87.608c-0.065-101.579,0.042-203.156,0.083-304.735
					c0.257-646.97,0.907-1293.941,1.347-1940.91c0.128-188.526,0.203-377.055,0.192-565.581c-0.002-24.12,0.109-48.242-0.049-72.358
					c-0.089-13.448-0.191-26.91-0.096-40.355c-0.146-12.169-0.19-24.335-0.14-36.501c0.006-17.637,0.112-35.272,0.18-52.909
					c0.112-29.182-0.121-58.362-0.23-87.544c-0.214-56.857-0.197-113.712-0.557-170.571c-0.142-22.452-0.352-44.909-0.348-67.362
					c0.002-4.847,0.006-9.694,0.028-14.541c0.009-1.99-0.164-4.222,0.276-6.182c-1.272,1.387-2.543,2.772-3.814,4.159
					c0.063-0.02,0.126-0.039,0.188-0.058c-0.076-0.088-0.151-0.177-0.228-0.267c-0.488,1.365-1.085,2.097-2.072,3.204
					c-1.675,1.884-3.098,4.108-4.456,6.226c-0.596,0.929-1.466,2.24-0.938,3.329c0.027,0.155,0.12,0.227,0.276,0.214
					c2.848-1.216,1.885-0.563,4.073-3.073c1.567-1.798,2.388-4.163,3.26-6.345c2.589-6.472,3.087-13.247,3.575-20.142
					c0.315-4.458,0.327-8.956,0.411-13.423c0.155-8.225,0.149-16.451,0.255-24.677c0.283-22.488-0.035-45-0.102-67.49
					c-0.002-0.843-1.356,0.645-1.354,0.644c-0.643,0.632-1.266,1.282-1.87,1.95c-0.357,0.327-0.637,0.706-0.839,1.139
					c0.075,17.214,0.148,34.428,0.223,51.643c0.059,13.407-0.083,26.809-0.06,40.216c0.013,6.659-0.12,13.297-0.465,19.946
					c-0.314,6.076-0.16,13.376-5.864,17.245c0.175,0.034,0.348,0.069,0.521,0.104c-0.345-0.793,0.54-2.057,0.879-2.697
					c0.771-1.322,1.675-2.544,2.713-3.667c2.249-2.218,4.245-4.639,5.988-7.265c0.222-0.166,0.312-0.373,0.271-0.622
					c-0.159-0.2-0.316-0.399-0.476-0.598c-0.332-0.418-3.947,3.376-4.115,4.021c-0.378,1.452-0.199,3.185-0.232,4.665
					c-0.12,5.405-0.033,10.818-0.079,16.225c-0.097,11.113,0.191,22.222,0.203,33.334c0.026,22.367,0.089,44.739,0.391,67.104
					c0.465,34.317,0.232,68.656,0.256,102.976c0.023,34.788,0.312,69.579,0.323,104.367c0.012,35.873-0.511,71.747,0.111,107.614
					c0.017,0.931-0.153,1.875-0.149,2.813c0.009,1.935,0.014,3.87,0.019,5.805c0.16,60.887,0.05,121.776,0.015,182.666
					c-0.012,23.668,0.194,47.331,0.175,71.002c-0.023,28.784-0.047,57.565-0.07,86.349c-0.052,63.852-0.098,127.703-0.146,191.552
					c-0.116,153.129-0.234,306.258-0.354,459.387c-0.269,343.61-0.55,687.219-0.775,1030.826
					c-0.101,153.749-0.193,307.498-0.25,461.244c-0.023,64.336-0.038,128.669-0.038,193.005c0,26.969,0.005,53.938,0.015,80.907
					c0.01,25.813-0.202,51.613-0.191,77.427c0.019,39.211,0.044,78.426,0.14,117.638c0.033,13.227-0.067,26.45,0.022,39.677
					c0.069,10.256-0.133,20.57,0.67,30.805c0.289,3.685,0.548,7.347,0.687,11.039c0.087,2.345,0.051,4.648-0.006,6.998
					c-0.09,3.704-1.015,6.987-2.299,10.42c-2.303,6.156-8.677,7.941-14.781,8.687c-0.964,0.066-1.929,0.133-2.894,0.199
					c-12.817,0.573-25.637,1.088-38.459,1.545c-44.885,1.705-89.802,2.386-134.715,2.657c-38.503,0.232-77.004-0.329-115.495-1.16
					c-38.648-0.833-77.247-2.945-115.884-3.994c-1.675-0.044-3.456,0.362-5.103,0.587c-3.842,0.531-7.689,0.866-11.564,1.019
					c-3.496,0.136-6.937-0.368-10.371-0.93c-4.453-0.731-8.263-3.098-11.593-5.985c-0.653-0.812-1.308-1.622-1.961-2.434
					c-1.741-2.76-2.533-5.728-2.374-8.902c0.029-1.24,0.058-2.483,0.087-3.723c0.06-2.566,0.116-5.133,0.171-7.699
					c0.182-8.362,0.338-16.723,0.489-25.085c0.383-21.398,0.675-42.797,0.944-64.197c0.296-23.627,0.364-47.254,0.59-70.881
					c0.278-29.21,0.504-58.417,0.708-87.624c1.008-143.034,1.417-286.069,1.713-429.106c0.771-372.806,0.454-745.613-0.08-1118.419
					c-0.526-367.239-1.384-734.475-2.466-1101.714c-0.305-102.858-0.631-205.717-0.987-308.575
					c-0.146-41.988-0.299-83.974-0.462-125.961c-0.133-34.437-0.081-68.873-0.269-103.311c-0.079-14.313-0.187-28.625-0.397-42.937
					c-0.219-14.814-1.086-29.601-1.214-44.416c-0.106-12.441,1.455-24.743,3.631-36.958c1.063-5.184,2.451-10.28,4.161-15.288
					c6.094-19.822,21.784-36.802,39.898-46.599c6.898-3.73,14.653-5.792,22.188-7.74c10.144-2.625,20.52-3.584,30.937-4.302
					c8.545-0.589,17.141-0.558,25.7-0.583c10.882-0.033,21.778,0.033,32.658,0.18c12.184-0.062,24.37-0.069,36.554-0.019
					c11.94,0.045,23.881,0.156,35.82,0.332c11.495,0.167,22.988,0.41,34.479,0.731c5.549,0.16,11.098,0.319,16.646,0.48
					c12.592,0.392,25.183,0.451,37.775,0.178c12.973-0.28,25.942-0.711,38.904-1.298c13.25-0.604,26.5-1.172,39.753-1.707
					c8.523-0.58,17.049-0.741,25.578-0.483c5.588,0.106,10.883,1.961,16.072,3.797c6.604,2.336,12.04,7.064,16.955,11.854
					c2.231,2.451,4.17,5.116,5.816,7.993c3.234,5.004,4.338,11.412,4.728,17.185c0.025,0.364,2.456-1.753,2.361-1.667
					C763.584,54.552,765.065,53.531,764.986,52.745z"/>
				<path opacity="0.1091" fill="#FFFFFF" d="M766.35,54.42c-0.333-1.453-0.666-2.907-0.998-4.36
					c-1.212-3.027-2.439-6.047-3.68-9.063c-0.676-1.653-1.552-3.285-2.642-4.71c-3.321-4.35-6.731-8.694-11.338-11.796
					c-4.723-3.183-9.661-6.431-15.223-7.992c-1.84-0.517-3.681-1.034-5.52-1.55c-3.952-0.927-7.957-1.403-12.016-1.43
					c-8.826,0.327-17.65,0.708-26.471,1.141c-13.333,0.681-26.667,1.355-40,2.021c-19.479,0.979-38.931,1.432-58.43,1.611
					c-6.26-0.118-12.519-0.237-18.779-0.354c-11.243-0.396-22.49-0.703-33.739-0.924c-32.212-0.757-64.445-0.644-96.664-0.499
					c-13.087,0.058-26.165-0.224-39.253,0.01c-6.403,0.114-12.781,0.567-19.162,1.074c-8.289,0.661-16.418,2.208-24.511,4.055
					c-5.933,1.351-11.576,3.593-17.181,5.898c-1.903,0.784-3.78,1.674-5.559,2.71c-1.743,1.016-3.486,2.032-5.229,3.048
					c-3.471,2.174-6.742,4.616-9.813,7.326c-5.015,4.072-8.904,9.27-12.75,14.387c-4.23,5.625-7.022,12.256-9.819,18.648
					c-3.205,7.325-4.797,15.355-6.483,23.118c-1.97,9.077-2.419,18.468-2.988,27.702c-0.615,9.979-0.045,19.951,0.637,29.901
					c1.236,18.026,1.055,36.197,1.189,54.255c0.174,23.214,0.229,46.431,0.314,69.647c1.045,290.7,1.826,581.401,2.533,872.102
					c0.94,386.467,1.632,772.937,1.849,1159.403c0.189,336.842,0.227,673.69-1.476,1010.529
					c-0.529,104.358-1.099,208.729-2.865,313.076c-0.141,8.379-0.302,16.759-0.473,25.135c-0.078,3.817-0.162,7.635-0.248,11.452
					c-0.042,1.85,0.498,5.326,1.561,6.913c0.674,1.004,1.347,2.009,2.02,3.014c1.685,1.991,3.662,3.627,5.932,4.914
					c1.252,0.562,2.505,1.127,3.756,1.688c2.676,0.969,5.42,1.649,8.237,2.043c3.93,0.764,8.16,0.465,12.128,0.327
					c4.344-0.152,8.71-0.967,12.988-1.687c1.834-0.31,3.607-0.625,5.463-0.717c6.41,0.343,12.818,0.684,19.228,1.027
					c12.843,0.631,25.689,1.192,38.538,1.691c38.529,1.592,77.092,2.303,115.649,2.757c38.554,0.454,77.114,0.094,115.664-0.526
					c19.272-0.31,38.541-0.886,57.808-1.461c12.842-0.413,25.681-0.884,38.519-1.412c7.414-0.077,14.813-0.438,22.191-1.079
					c2.581-0.214,3.717-0.637,6.211-1.326c1.006-0.498,2.01-1,3.017-1.498c2.314-1.406,4.077-3.33,5.291-5.771
					c1.18-1.686,2.687-6.802,2.789-8.77c0.284-5.379,0.269-3.679,0.095-9c-0.161-4.952-1.18-9.924-1.667-14.859
					c-0.458-4.623-0.438-9.329-0.528-13.971c-0.508-25.961-0.197-51.954-0.209-77.917c-0.042-96.337,0.004-192.67,0.044-289.007
					c0.269-644.314,0.946-1288.629,1.354-1932.94c0.125-199.054,0.282-398.104,0.223-597.158
					c-0.012-41.412,0.116-82.833-0.194-124.248c-0.363-48.458,0.256-96.915,0.016-145.373c-0.3-60.934-0.108-121.869-0.561-182.801
					c-0.207-28.145-0.4-56.29-0.499-84.436c-0.02-5.556-0.025-11.112-0.006-16.667c0.007-1.775,0.04-3.549,0.086-5.323
					c0.023-0.893-0.053-1.982,0.271-2.839c-0.415,0.146-0.831,0.291-1.246,0.436c0.63,0.953-4.968,6.972-5.934,8.161
					c-1.164,1.43-2.198,2.935-3.188,4.484c-0.893,1.396-2.118,3.085-1.816,4.788c0.029,0.159,0.313,0.266,0.446,0.198
					c3.029-1.535,2.041-0.818,4.236-3.335c0.975-1.12,2.033-2.929,2.478-4.374c0.372-1.334,0.852-2.63,1.439-3.888
					c0.67-1.913,1.246-3.853,1.729-5.82c0.871-3.199,1.15-6.411,1.332-9.711c0.638-11.643,0.824-23.269,0.923-34.928
					c0.206-24.804,0.06-49.612-0.001-74.415c-0.003-0.71-1.253-0.021-1.252,0.44c0.082,30.673,0.269,61.353-0.095,92.026
					c-0.009,3.131-0.091,6.26-0.248,9.388c-0.213,5.563-0.186,11.506-1.469,16.911c-1.456,6.13-2.979,12.854-8.837,16.427
					c0.147,0.066,0.296,0.133,0.443,0.198c-0.024-0.904,0.215-1.723,0.72-2.456c0.728-1.295,1.532-2.54,2.417-3.731
					c1.416-1.844,2.896-3.633,4.438-5.37c1.257-1.636,2.544-3.249,3.862-4.836c0.136-0.168,0.031-0.345-0.073-0.483
					c-0.112-0.146-0.225-0.295-0.337-0.443c-0.159-0.209-0.286-0.178-0.516-0.095c-0.023,0.008-0.049,0.018-0.074,0.026
					c-0.156,0.057-0.654,0.34-0.688,0.532c-0.267,1.511-0.216,3.084-0.257,4.609c-0.144,5.437-0.062,10.885-0.054,16.323
					c0.06,33.477,0.352,66.955,0.596,100.431c0.252,34.317,0.223,68.636,0.247,102.956c0.025,34.785,0.302,69.573,0.327,104.361
					c0.027,38.716-0.265,77.43-0.073,116.146c0.302,60.973,0.154,121.948,0.156,182.92c0.004,269.413-0.229,538.824-0.422,808.237
					c-0.443,614.487-1.16,1228.971-1.217,1843.458c-0.004,39.137-0.002,78.271,0.018,117.408
					c0.007,13.249,0.016,26.497,0.049,39.746c0.026,10.176-0.01,20.362,0.371,30.536c0.149,3.986,0.513,7.931,0.942,11.897
					c0.293,2.724,0.479,5.423,0.641,8.161c-0.009,1.408-0.017,2.82-0.024,4.229c-0.141,4.324-1.319,8.285-3.538,11.884
					c-2.66,5.271-8.819,6.873-14.186,7.615c-0.998,0.086-1.997,0.169-2.997,0.255c-12.832,0.578-25.665,1.102-38.503,1.563
					c-44.932,1.725-89.896,2.426-134.857,2.713c-76.967,0.496-153.978-1.48-230.835-5.508c-1.785-0.092-3.776,0.459-5.524,0.728
					c-2.904,0.448-5.806,0.816-8.728,1.132c-3.604,0.391-7.188,0.311-10.802,0.169c-5.203-0.202-10.003-1.815-14.675-3.967
					c-4.043-1.862-6.947-6.414-8.235-10.414c-0.135-1.168-0.269-2.333-0.404-3.501c0.057-2.517,0.112-5.036,0.166-7.552
					c0.177-8.219,0.328-16.438,0.476-24.654c0.376-21.091,0.663-42.182,0.925-63.275c0.649-52.175,1.067-104.356,1.427-156.537
					c0.981-142.202,1.386-284.408,1.679-426.614c0.765-372.155,0.454-744.31-0.071-1116.463
					c-0.519-367.98-1.365-735.961-2.408-1103.939c-0.514-180.75-0.904-361.5-1.734-542.25c-0.126-27.379,0.288-54.91-1.912-82.222
					c-0.266-6.958-0.27-13.916-0.011-20.874c0.229-6.235,0.743-12.449,1.539-18.637c0.718-5.575,1.74-11.093,3.064-16.555
					c1.572-7.336,4.397-14.241,7.381-21.082c3.532-8.103,8.94-15.039,14.731-21.606c2.84-2.932,5.891-5.624,9.153-8.078
					c7.688-6.262,17.216-9.991,26.514-13.155c7.737-2.634,15.931-3.858,23.986-5.013c10.514-1.506,21.234-1.679,31.833-1.869
					c8.72-0.156,17.451,0.012,26.172,0.079c22.612,0.175,45.228-0.097,67.84,0.023c23.011,0.124,46.013,0.679,69.012,1.389
					c32.33,0.996,64.602-0.68,96.877-2.36c13.425-0.757,26.856-1.42,40.29-1.989c4.046-0.38,8.089-0.35,12.128,0.091
					c16.321,1.937,29.578,10.888,39.771,26.851c0.619,1.578,1.236,3.154,1.854,4.732c1.423,2.646,2.46,5.437,3.11,8.369
					C765.636,55.166,766.456,54.887,766.35,54.42z"/>
				<path opacity="0.1091" fill="#FFFFFF" d="M762.929,53.161c-0.125-1.531-0.251-3.062-0.375-4.592
					c-0.536-3.178-1.505-6.221-2.905-9.123c-1.899-4.78-5.58-8.645-8.983-12.357c-3.642-3.972-8.583-6.628-13.243-9.15
					c-5.003-2.708-10.593-3.761-16.102-4.82c-1.926-0.14-3.853-0.281-5.779-0.422c-8.639,0.176-17.271,0.481-25.901,0.919
					c-19.808,0.771-39.604,1.827-59.412,2.612c-19.123,0.757-38.197,0.657-57.324,0.27c-11.244-0.397-22.49-0.716-33.739-0.955
					c-11.771-0.252-23.541-0.431-35.313-0.537c-24.792-0.302-49.584,0.003-74.376-0.181c-12.969-0.097-25.904-0.078-38.859,0.591
					c-12.438,0.641-24.543,2.75-36.539,6.027c-5.747,1.571-11.129,4.059-16.487,6.605c-7.253,3.447-13.386,8.648-19.215,14.056
					c-4.683,4.343-8.182,9.827-11.606,15.144c-3.811,5.916-6.256,12.609-8.689,19.157c-2.847,7.661-4.101,15.906-5.464,23.916
					c-1.612,9.466-1.758,19.168-2.026,28.735c-0.18,6.4,0.263,12.691,0.554,19.061c0.195,4.25,0.295,8.504,0.413,12.756
					c0.294,10.523,0.357,21.054,0.445,31.58c0.393,47.001,0.333,94.003,0.507,141.003c1.136,306.86,1.957,613.722,2.668,920.583
					c0.9,388.05,1.546,776.101,1.645,1164.153c0.08,323.855,0.093,647.723-2.007,971.569c-0.35,53.937-0.682,107.875-1.306,161.808
					c-0.237,20.54-0.514,41.083-0.837,61.62c-0.14,8.861-0.299,17.723-0.467,26.583c-0.076,4.064-0.161,8.128-0.246,12.188
					c-0.103,4.961-0.376,9.894,0.015,14.841c0.274,3.438,2.883,6.046,5.088,8.359c2.502,2.63,6.295,3.654,9.602,4.742
					c3.506,1.154,7.255,1.263,10.9,1.473c3.362,0.197,6.717-0.091,10.066-0.338c2.615-0.193,5.211-0.548,7.813-0.854
					c7.141-0.851,17.909,0.556,22.691,0.797c44.952,2.239,89.929,3.543,134.929,4.313c77.057,1.32,154.145-0.077,231.148-3.036
					c8.357-0.321,16.775-0.302,25.078-1.432c3.347-0.454,5.822-2.063,8.456-4.022c0.741-0.987,1.479-1.976,2.219-2.964
					c1.313-2.343,2.204-4.834,2.676-7.478c0.313-2.66,0.424-5.329,0.332-8.003c0.049-1.981-0.076-3.95-0.374-5.904
					c-0.461-3.812-0.418-7.671-0.462-11.505c-0.05-4.186-0.084-8.371-0.132-12.56c-0.134-11.809-0.138-23.629-0.097-35.441
					c0.122-34.898-0.051-69.797-0.063-104.696c-0.043-110.567,0.083-221.138,0.132-331.706
					c0.283-649.873,0.934-1299.746,1.367-1949.619c0.113-169.284,0.151-338.571,0.142-507.855
					c-0.005-48.651-0.354-97.308-0.235-145.959c0.245-100.945-0.116-201.896-0.709-302.841c-0.12-20.52-0.324-41.044-0.289-61.565
					c0.007-4.191,0.001-8.382,0.053-12.573c0.018-1.449-0.075-3.017,0.236-4.444c-0.505,0.205-0.912,0.546-1.221,1.027
					c-1.293,1.486-2.557,2.998-3.793,4.533c2.043-2.517-4.202,4.236-4.635,5.993c-0.278,1.125-1.199,2.176-1.83,3.131
					c-0.624,0.946-1.2,1.892-1.705,2.905c-0.381,0.763-0.303,1.037,0.003,1.781c0.073-0.007,0.146-0.013,0.217-0.018
					c3.556-2.238,2.221-1.117,4.917-4.109c1.749-1.94,2.912-4.641,3.689-7.102c2.089-6.604,2.872-13.633,3.805-20.478
					c0.608-4.454,0.534-9.138,0.652-13.621c0.215-8.274,0.235-16.551,0.358-24.827c0.336-22.492,0.026-45.01-0.034-67.504
					c-0.507,0.197-0.917,0.53-1.229,1.004c-1.307,1.461-2.584,2.946-3.835,4.455c-1.267,1.496-2.504,3.015-3.714,4.558
					c-0.411,0.39-0.669,0.853-0.772,1.385c0.1,17.236,0.201,34.471,0.329,51.708c0.058,7.511,0.042,14.96-0.326,22.464
					c0.007,2.152,0.014,4.306,0.02,6.458c0.015,3.762,0.018,7.522,0.007,11.284c-0.006,4.361-0.232,8.656-0.501,13.008
					c-0.208,1.123-0.415,2.245-0.623,3.368c-0.346,1.858-0.713,3.713-1.099,5.563c-0.065,0.802-0.129,1.604-0.192,2.406
					c-0.138,1.334-0.338,2.658-0.603,3.971c-0.274,1.535-0.542,1.486,0.288,2.573c1.276-0.919,2.553-1.84,3.828-2.76
					c-0.972,0.522-1.944,1.043-2.916,1.565c0.148,0.131,0.298,0.264,0.445,0.396c0.593-1.668,1.061-2.309,2.45-3.894
					c2.938-3.355,5.825-6.588,8.387-10.242c0.045-0.135,0.09-0.269,0.135-0.401c-0.146-0.199-0.292-0.399-0.437-0.598
					c-0.233-0.316-5.184,5.583-5.076,5.455c-1.269,1.494-2.509,3.012-3.722,4.553c-0.412,0.39-0.67,0.853-0.775,1.387
					c0.121,0.407,0.04,0.873,0.028,1.293c-0.036,1.164-0.045,2.329-0.06,3.493c-0.072,5.401-0.054,10.797-0.171,16.199
					c-0.104,4.765-0.027,9.509,0.152,14.271c0.242,6.381,0.183,12.729,0.152,19.116c-0.103,22.357-0.093,44.719,0.324,67.074
					c0.315,16.903,0.173,33.829,0.216,50.733c0.043,17.415,0.037,34.829,0.049,52.243c0.021,34.785,0.319,69.568,0.316,104.353
					c-0.001,35.843-0.517,71.686,0.314,107.52c0.023,0.972-0.259,1.971-0.253,2.965c0.012,1.94,0.021,3.878,0.031,5.819
					c0.042,8.567-0.073,17.13-0.07,25.694c0.001,5.883,0.249,11.754,0.209,17.639c-0.056,7.956-0.086,15.912-0.116,23.868
					c-0.146,38.447-0.195,76.893-0.248,115.34c-0.015,11.386-0.032,22.774-0.02,34.16c0.007,6.154,0.5,12.296,0.487,18.458
					c-0.011,6.162-0.021,12.324-0.033,18.486c-0.05,28.775-0.093,57.551-0.133,86.326c-0.09,63.841-0.159,127.681-0.227,191.519
					c-0.164,153.118-0.299,306.236-0.433,459.354c-0.297,343.61-0.578,687.219-0.774,1030.829
					c-0.088,153.76-0.161,307.518-0.171,461.277c-0.004,64.347,0.007,128.691,0.046,193.038c0.017,26.977,0.04,53.955,0.073,80.932
					c0.016,12.246,0.265,24.493-0.487,36.726c0.002,1.996,0.003,3.992,0.006,5.99c0.003,3.932,0.007,7.862,0.011,11.793
					c0.007,7.607,0.017,15.211,0.025,22.815c0.05,39.239,0.115,78.479,0.322,117.718c0.07,13.222-0.179,26.437-0.033,39.655
					c0.057,5.207,0.115,10.414,0.104,15.621c-0.011,4.899,0.54,9.896,0.154,14.776c-0.13,1.647-0.277,3.289-0.427,4.93
					c-0.098,1.086-0.63,2.298-0.949,3.336c-0.462,1.506-0.697,2.289-0.815,3.962c-0.147,2.095-1.235,4.083-1.913,6.037
					c-0.76,2.189-3.401,3.139-5.281,3.964c-0.786,0.152-1.574,0.305-2.36,0.457c-1.822,0.382-3.666,0.609-5.527,0.681
					c-0.938,0.03-1.877,0.063-2.815,0.097c-12.801,0.549-25.602,1.038-38.405,1.473c-25.611,0.922-51.236,1.439-76.859,1.896
					c-76.91,1.37-153.85,0.122-230.712-2.76c-19.416-0.728-38.805-1.711-58.228-2.259c-1.438-0.042-2.915-0.258-4.354-0.346
					c-5.051-0.315-10.172-1.005-14.825-3.057c-0.615-0.213-1.229-0.426-1.842-0.64c-1.221-0.559-2.25-1.361-3.088-2.411
					c-1.827-1.81-2.521-3.244-3.254-5.702c-0.901-3.022-0.42-6.502-0.342-9.589c0.097-3.887,0.186-7.773,0.275-11.66
					c0.45-19.673,0.771-39.35,1.066-59.026c0.159-10.566,0.3-21.135,0.435-31.701c0.148-11.571,0.468-23.153,0.118-34.722
					c-0.375-12.404,0.014-24.839,0.141-37.246c0.158-15.414,0.296-30.824,0.429-46.237c1.19-138.497,1.651-277.004,2.008-415.506
					c0.95-369.254,0.666-738.511,0.169-1107.765c-0.499-370.993-1.355-741.985-2.511-1112.978
					c-0.353-113.79-0.743-227.578-1.204-341.365c-0.183-44.953-0.382-89.907-0.605-134.86c-0.053-10.446-0.226-20.895,0.032-31.339
					c0.339-3.878,0.439-7.763,0.296-11.655c-0.026-5.875-0.054-11.751-0.082-17.626c-0.084-17.996-0.176-35.991-0.264-53.987
					c-0.069-14.036-0.138-28.074-0.163-42.111c-0.013-6.855,0.032-13.7,0.203-20.553c0.122-2.401,0.255-4.803,0.397-7.204
					c0.091-3.393,0.183-6.785,0.274-10.178c0.282-6.173,0.858-12.32,1.726-18.439c0.765-5.398,1.836-10.736,3.212-16.011
					c1.579-6.816,4.32-13.12,7.391-19.358c2.029-3.24,4.09-6.458,6.183-9.655c3.046-4.707,7.227-8.587,11.322-12.338
					c6.641-6.082,15.012-9.881,23.271-13.157c3.506-1.233,7.059-2.303,10.663-3.208c5.809-1.603,11.867-2.625,17.789-3.706
					c4.008-0.466,8.026-0.827,12.053-1.077c6.255-0.477,12.544-0.55,18.811-0.67c10.842-0.21,21.696,0.041,32.539,0.087
					c4.29-0.094,8.576-0.004,12.858,0.269c6.093,0.001,12.186,0.003,18.278,0.006c12.049,0.03,24.098,0.124,36.145,0.283
					c29.116,0.308,58.217,1.415,87.324,2.1c12.648,0.109,25.296,0.026,37.941-0.25c19.08-0.27,38.155-0.897,57.234-1.213
					c7.765-0.531,15.508-0.441,23.228,0.271c4.423,0.336,8.705,2.221,12.679,4.008c6.563,2.951,11.385,8.25,15.47,13.977
					c1.444,2.335,2.585,4.81,3.421,7.423c1.496,3.864,1.497,8.207,1.492,12.263c0.515-0.173,0.939-0.487,1.274-0.945
					c1.37-1.399,2.716-2.825,4.033-4.274c1.333-1.435,2.64-2.896,3.917-4.381C762.523,54.14,762.801,53.69,762.929,53.161z"/>
				<path opacity="0.1091" fill="#FFFFFF" d="M762.595,54.386c-0.123-1.513-0.248-3.026-0.372-4.539
					c-0.544-3.15-1.508-6.167-2.889-9.052c-1.887-4.775-5.562-8.653-8.951-12.365c-3.649-3.999-8.574-6.683-13.239-9.249
					c-5.006-2.753-10.64-3.848-16.165-4.939c-1.938-0.158-3.877-0.317-5.815-0.477c-8.68,0.115-17.354,0.401-26.024,0.861
					c-19.851,0.747-39.691,1.82-59.541,2.611c-19.141,0.765-38.23,0.681-57.375,0.306c-11.248-0.387-22.498-0.701-33.75-0.941
					c-11.772-0.248-23.545-0.425-35.32-0.53c-24.795-0.298-49.591,0.007-74.387-0.175c-12.972-0.095-25.911-0.077-38.87,0.586
					c-12.474,0.64-24.6,2.758-36.634,6.026c-5.774,1.566-11.187,4.054-16.572,6.6c-7.313,3.456-13.51,8.667-19.397,14.098
					c-4.743,4.376-8.291,9.889-11.773,15.249c-3.875,5.966-6.368,12.742-8.832,19.358c-2.882,7.733-4.143,16.061-5.517,24.149
					c-1.62,9.535-1.751,19.312-2.008,28.949c-0.173,6.453,0.279,12.794,0.591,19.217c0.208,4.281,0.336,8.566,0.468,12.85
					c0.322,10.542,0.395,21.091,0.49,31.637c0.426,47.008,0.358,94.02,0.53,141.029c1.116,306.853,1.942,613.709,2.652,920.562
					c0.897,388.05,1.545,776.103,1.642,1164.154c0.083,323.855,0.091,647.725-1.999,971.577c-0.349,53.928-0.7,107.863-1.32,161.788
					c-0.235,20.543-0.512,41.083-0.836,61.623c-0.14,8.861-0.298,17.723-0.465,26.583c-0.076,4.064-0.161,8.128-0.245,12.191
					c-0.104,4.964-0.377,9.902,0.021,14.854c0.282,3.502,2.969,6.181,5.221,8.534c2.585,2.702,6.572,3.778,9.981,4.892
					c3.643,1.188,7.564,1.245,11.346,1.423c3.474,0.163,6.922-0.188,10.375-0.501c2.659-0.244,5.297-0.648,7.94-1.011
					c7.144-0.978,17.946,0.471,22.748,0.695c44.957,2.117,89.911,3.534,134.911,4.296c77.062,1.304,154.152-0.11,231.158-3.084
					c8.376-0.323,16.78-0.293,25.085-1.456c3.355-0.468,5.816-2.109,8.427-4.107c0.75-1.024,1.499-2.049,2.249-3.073
					c1.297-2.389,2.159-4.928,2.586-7.612c0.329-2.713,0.452-5.438,0.368-8.169c0.061-1.999-0.072-3.981-0.396-5.949
					c-0.498-3.82-0.472-7.712-0.638-11.558c-0.182-4.188-0.252-8.388-0.339-12.578c-0.247-11.793-0.191-23.621-0.126-35.417
					c0.196-34.904-0.059-69.813-0.075-104.718c-0.053-110.563,0.096-221.125,0.14-331.69
					c0.267-649.873,0.931-1299.749,1.366-1949.624c0.112-167.936,0.121-335.872,0.142-503.809
					c0.006-44.095-0.277-88.189-0.277-132.284c0-23.541,0.161-47.084,0.217-70.628c0.066-29.003-0.248-58.008-0.309-87.011
					c-0.107-51.134-0.222-102.263-0.527-153.396c-0.134-22.452-0.348-44.907-0.345-67.359c0-4.843,0.017-9.686,0.041-14.529
					c0.01-1.898-0.163-4.021,0.232-5.895c0.171-0.81-0.777,0.194-0.858,0.274c-1.767,1.769-3.601,3.778-5.006,5.851
					c-1.6,2.358-3.203,4.714-4.825,7.057c-0.724,1.046-1.384,2.097-1.96,3.227c-0.415,0.815-0.461,1.14-0.134,1.967
					c0.083-0.021,0.165-0.041,0.247-0.061c0.965-0.583,1.929-1.164,2.894-1.747c1.343-1.455,2.507-3.041,3.489-4.757
					c1.745-2.726,2.625-5.968,3.467-9.059c1.353-4.962,1.783-10.24,2.354-15.333c0.312-2.779,0.31-6.086,0.429-8.868
					c0.326-7.581,0.254-15.195,0.313-22.78c0.193-24.806,0.106-49.61,0.031-74.417c-0.368,0.041-0.665,0.227-0.894,0.554
					c-0.892,0.903-1.755,1.832-2.593,2.786c-0.637,0.713-2.93,2.645-2.925,3.842c0.079,14.265,0.158,28.528,0.245,42.792
					c0.063,10.476,0.265,20.935-0.212,31.403c0.012,4.119,0.02,8.238,0.023,12.357c0,3.439-0.004,6.877-0.014,10.316
					c-0.012,5.736-0.786,11.393-1.754,17.03c-0.398,2.32-0.567,4.648-1.123,6.951c-0.115,0.39-0.045,0.775,0.21,1.154
					c0.158,0.5,0.13,0.988-0.08,1.466c-0.213,0.375-0.202,0.303,0.033-0.215c0.285-0.696,0.713-1.298,1.283-1.811
					c1.032-1.347,2.163-2.607,3.393-3.781c1.99-2.083,2.793-3.327,4.461-5.712c0.019-0.1,0.038-0.199,0.058-0.3
					c-0.148-0.183-0.298-0.366-0.445-0.549c-0.317-0.392-3.551,3.407-3.505,3.357c-0.48,0.539-3.104,2.819-2.942,3.86
					c0.232,1.491-0.063,3.253-0.09,4.754c-0.093,5.394-0.047,10.789-0.148,16.183c-0.089,4.763-0.04,9.499,0.125,14.259
					c0.221,6.384,0.174,12.741,0.153,19.128c-0.073,22.356-0.059,44.718,0.341,67.071c0.302,16.905,0.173,33.832,0.216,50.74
					c0.043,17.413,0.037,34.827,0.047,52.239c0.022,34.788,0.321,69.576,0.321,104.364c0,17.642-0.1,35.286-0.152,52.928
					c-0.009,5.913-0.017,11.823-0.023,17.736c-0.096,12.479,0.02,24.958,0.343,37.434c-0.365,2.686-0.117,5.49-0.107,8.194
					c0.245,60.84-0.09,121.69-0.161,182.536c-0.014,11.383-0.026,22.763-0.031,34.143c-0.003,6.17,0.442,12.33,0.433,18.505
					c-0.011,6.162-0.021,12.324-0.028,18.486c-0.045,28.773-0.082,57.546-0.118,86.318c-0.082,63.838-0.146,127.676-0.208,191.513
					c-0.151,153.115-0.285,306.23-0.413,459.345c-0.288,343.609-0.57,687.219-0.775,1030.829
					c-0.092,153.76-0.169,307.522-0.189,461.285c-0.009,64.348-0.004,128.697,0.024,193.044c0.013,26.979,0.032,53.958,0.06,80.938
					c0.012,12.229,0.295,24.479-0.421,36.695c0.002,1.995,0.003,3.994,0.006,5.99c0.003,3.931,0.006,7.864,0.009,11.795
					c0.007,7.604,0.014,15.212,0.021,22.815c0.043,39.245,0.099,78.49,0.277,117.732c0.061,13.224-0.155,26.439-0.017,39.66
					c0.055,5.221,0.136,10.444,0.127,15.665c-0.007,5.058,0.415,10.09,0.447,15.146c0.022,3.698-0.198,7.247-0.861,10.881
					c-0.393,2.154-0.563,4.303-0.967,6.462c-0.493,2.627-1.85,4.999-3.372,7.119c-1.507,2.099-4.479,2.779-6.79,3.303
					c-2.796,0.634-5.599,0.761-8.452,0.889c-44.835,1.981-89.695,3.087-134.567,3.709c-76.952,1.069-153.925-0.481-230.81-3.692
					c-15.373-0.64-30.723-1.384-46.111-1.313c-2.555,0.012-5.076-0.216-7.612-0.492c-3.559-0.385-6.764-1.451-10.099-2.691
					c-2.263-0.844-3.968-2.837-5.608-4.498c-1.874-1.896-2.263-4.905-2.713-7.369c-0.005-1.068-0.011-2.137-0.017-3.205
					c0.063-2.508,0.126-5.017,0.186-7.524c0.098-3.97,0.184-7.941,0.27-11.914c0.436-20.022,0.757-40.048,1.05-60.073
					c0.33-22.508,0.966-45.047,0.345-67.55c-0.169-6.101,0.134-12.266,0.199-18.367c0.068-6.331,0.13-12.664,0.192-18.995
					c0.154-15.571,0.288-31.143,0.418-46.714c1.159-139.423,1.611-278.853,1.957-418.278
					c0.919-369.994,0.631-739.992,0.126-1109.985c-0.506-370.271-1.354-740.541-2.506-1110.808
					c-0.353-113.106-0.732-226.213-1.184-339.319c-0.178-44.538-0.37-89.077-0.585-133.615c-0.05-10.21-0.256-20.405,0.331-30.604
					c-0.017-3.988-0.035-7.977-0.053-11.964c-0.026-5.802-0.054-11.606-0.082-17.41c-0.083-17.747-0.172-35.495-0.277-53.243
					c-0.082-13.844-0.18-27.688-0.317-41.532c-0.066-6.779-0.217-13.554-0.021-20.331c0.166-4.681,0.253-9.365,0.262-14.05
					c0.131-9.217,1.402-18.32,2.804-27.408c0.936-5.205,2.183-10.333,3.743-15.387c0.803-2.288,1.604-4.574,2.407-6.861
					c1.502-3.915,3.436-7.6,5.799-11.056c2-3.56,4.283-6.928,6.85-10.102c3.405-4.587,7.844-8.238,12.226-11.824
					c7.166-5.864,16.082-9.362,24.72-12.344c3.661-1.151,7.369-2.119,11.125-2.902c2.013-0.455,4.026-0.912,6.039-1.369
					c4.018-0.919,8.082-1.527,12.192-1.827c8.29-0.915,16.673-1.061,25.002-1.243c10.846-0.238,21.707,0.013,32.553,0.065
					c4.313-0.108,8.623-0.042,12.93,0.201c6.1-0.006,12.198-0.011,18.298-0.017c12.063,0.015,24.126,0.093,36.189,0.234
					c29.155,0.264,58.294,1.337,87.443,1.934c12.713,0.062,25.424-0.09,38.131-0.453c19.328-0.391,38.651-1.214,57.978-1.729
					c8.067-0.547,16.126-0.555,24.175-0.026c4.862,0.252,9.526,2.12,13.961,3.925c7.189,2.927,12.666,8.582,17.233,14.632
					c1.624,2.425,2.921,5.014,3.892,7.764c1.653,3.907,1.786,8.234,1.858,12.387c0.368-0.019,0.676-0.183,0.922-0.493
					c0.939-0.84,1.854-1.707,2.742-2.601C759.986,57.499,762.682,55.44,762.595,54.386z"/>
				<path opacity="0.1091" fill="#FFFFFF" d="M765.317,51.581c-0.563-5.845-0.15-3.519-1.663-9.272
					c-1.316-5.006-4.552-9.277-7.572-13.336c-3.304-4.437-7.99-7.604-12.47-10.693c-4.767-3.287-10.476-4.954-15.948-6.554
					c-5.883-1.722-12.046-1.535-18.084-1.369c-20.04,0.551-40.082,1.855-60.104,2.841c-19.473,0.958-38.918,1.416-58.412,1.597
					c-11.815-0.141-23.629-0.425-35.438-0.851c-11.529-0.314-23.062-0.553-34.596-0.71c-28.551-0.49-57.106-0.257-85.659-0.266
					c-13.04-0.003-26.053-0.2-39.09,0.226c-12.637,0.414-25.047,2.047-37.365,4.851c-5.926,1.349-11.556,3.51-17.174,5.773
					c-2.841,1.145-8.291,3.975-10.836,5.683c-5.07,3.405-10.28,6.914-14.404,11.49c-5.222,5.79-3.359,3.544-8.161,9.809
					c-2.762,3.602-4.893,7.961-7.027,11.936c-3.625,6.75-5.686,14.217-7.784,21.531c-1.529,5.329-2.352,11.463-3.242,16.906
					c-2.162,13.231-1.909,26.836-1.68,40.185c0.073,4.299,0.615,8.652,0.833,12.951c0.222,4.325,0.342,8.654,0.474,12.982
					c0.274,9.088,0.338,18.185,0.429,27.275c0.228,22.576,0.266,45.156,0.35,67.734c1.077,287.303,1.817,574.607,2.523,861.911
					c0.947,385.977,1.654,771.957,1.89,1157.934c0.206,339.261,0.26,678.526-1.381,1017.782
					c-0.517,106.661-1.087,213.329-2.791,319.979c-0.14,8.703-0.296,17.409-0.461,26.112c-0.076,3.983-0.159,7.97-0.244,11.953
					c-0.077,3.746-0.188,7.328,0.188,11.06c0.27,2.657,1.791,4.373,3.204,6.485c2.237,3.342,6.13,5.104,9.626,6.669
					c3.788,1.694,8.166,2.032,12.231,2.389c3.743,0.33,7.556-0.055,11.286-0.382c4.928-0.432,9.757-1.782,14.691-2.067
					c6.439,0.31,12.879,0.62,19.318,0.93c12.848,0.629,25.697,1.193,38.55,1.691c19.267,0.795,38.544,1.293,57.821,1.8
					c83.495,2.181,167.056,1.179,250.519-1.691c13.74-0.471,27.713-0.718,41.417-1.822c3.248-0.263,5.947-1.231,8.872-2.588
					c5.21-2.417,7.006-8.905,8.265-13.886c0.114-1.48,0.231-2.962,0.347-4.445c0.043-2.871-0.064-5.738-0.326-8.598
					c-0.133-2.049-0.571-4.147-0.803-6.193c-0.52-4.611-0.75-9.259-0.919-13.894c-0.358-9.862-0.289-19.745-0.327-29.611
					c-0.055-14.856-0.021-29.714-0.035-44.57c-0.098-94.178,0.014-188.354,0.041-282.529
					c0.186-643.068,0.883-1286.138,1.323-1929.206c0.14-205.144,0.234-410.285,0.234-615.426c0-26.649-0.006-53.299-0.015-79.948
					c-0.004-15.093-0.211-30.188-0.144-45.28c0.023-6.502-0.018-13.002-0.127-19.505c-0.124-17.75,0.042-35.508,0.111-53.26
					c0.116-29.407,0.099-58.805-0.1-88.212c-0.193-28.781-0.123-57.564-0.144-86.347c-0.022-30.302-0.211-60.602-0.41-90.903
					c-0.17-25.87-0.409-51.744-0.415-77.615c0-4.846,0.006-9.691,0.029-14.537c0.01-1.983-0.167-4.222,0.282-6.173
					c-1.195,1.362-2.392,2.724-3.588,4.086c0.147,0,0.294,0,0.442,0.001c-0.081-0.085-0.161-0.17-0.241-0.256
					c-0.842,1.232-1.684,2.463-2.523,3.693c-0.912,1.131-1.802,2.281-2.668,3.447c-0.594,0.785-1.09,1.621-1.604,2.457
					c-0.572,0.935-1.3,2.103-0.73,3.145c0.066,0.122,0.259,0.306,0.422,0.235c2.397-1.034,1.74-0.653,3.479-2.716
					c1.196-1.417,1.75-2.896,2.46-4.568c2.563-6.036,3.616-12.063,4.179-18.571c1.002-11.578,0.749-23.311,0.817-34.918
					c0.15-24.796,0.055-49.594-0.019-74.391c-0.002-0.84-1.295,0.682-1.259,0.644c-0.57,0.619-1.118,1.255-1.648,1.909
					c-0.319,0.322-0.559,0.693-0.717,1.111c0.086,19.967,0.173,39.936,0.261,59.903c0.054,12.262-0.074,24.525-0.06,36.788
					c0.007,6.627-0.085,13.34-0.829,19.93c-0.224,1.968-0.627,3.898-1.07,5.826c-0.793,3.458-2.215,5.765-5.572,8.03
					c0.199,0.039,0.399,0.081,0.601,0.119c-0.545-1.354,1.874-4.31,2.414-5.115c0.703-0.871,1.384-1.76,2.039-2.667
					c0.389-0.541,0.777-1.083,1.166-1.626c1.814-1.611,3.349-3.459,4.599-5.542c0.199-0.171,0.269-0.374,0.206-0.606
					c-0.159-0.209-0.32-0.418-0.479-0.628c-0.31-0.405-3.501,3.366-3.661,3.968c-0.382,1.435-0.206,3.163-0.242,4.625
					c-0.133,5.402-0.039,10.814-0.082,16.216c-0.091,11.115,0.185,22.226,0.199,33.34c0.033,22.366,0.096,44.735,0.397,67.1
					c0.462,34.319,0.232,68.657,0.255,102.977c0.023,34.791,0.313,69.579,0.325,104.37c0.012,35.854-0.453,71.705,0.067,107.559
					c0.042,2.876-0.101,5.788-0.094,8.676c0.16,60.881,0.06,121.768,0.029,182.654c-0.013,23.674,0.18,47.342,0.16,71.016
					c-0.022,28.781-0.044,57.565-0.066,86.346c-0.05,63.849-0.094,127.7-0.142,191.549c-0.113,153.126-0.23,306.255-0.35,459.381
					c-0.266,343.609-0.551,687.219-0.776,1030.829c-0.1,153.749-0.197,307.498-0.254,461.247
					c-0.023,64.336-0.04,128.672-0.041,193.008c-0.002,26.971,0.003,53.938,0.01,80.909c0.008,25.808-0.188,51.607-0.179,77.415
					c0.017,39.215,0.04,78.43,0.131,117.644c0.031,13.227-0.061,26.45,0.028,39.674c0.067,10.229-0.011,20.477,0.706,30.684
					c0.254,3.612,0.601,7.208,0.97,10.81c0.249,2.436,0.39,4.792,0.481,7.25c-0.035,1.273-0.073,2.544-0.109,3.817
					c-0.108,2.597-0.672,5.094-1.692,7.485c-0.595,1.135-1.19,2.272-1.785,3.407c-2.729,3.563-6.158,5.636-10.282,6.215
					c-0.978,0.133-1.956,0.266-2.935,0.398c-7.365,0.629-14.748,0.982-22.147,1.061c-44.885,1.93-89.808,2.837-134.729,3.336
					c-77.021,0.85-154.051-0.941-230.99-4.419c-9.397-0.423-14.689-1.577-22.345-0.432c-2.417,0.363-4.826,0.786-7.242,1.166
					c-4.468,0.703-8.969,0.833-13.479,0.725c-5.092-0.119-9.785-1.744-14.337-3.867c-0.944-0.744-1.888-1.492-2.831-2.236
					c-2.612-2.309-4.364-5.193-5.255-8.656c-0.118-1.177-0.235-2.353-0.354-3.529c0.057-2.52,0.112-5.035,0.165-7.555
					c0.176-8.216,0.327-16.432,0.472-24.651c0.374-21.088,0.659-42.179,0.92-63.27c0.645-52.178,1.062-104.356,1.42-156.537
					c0.979-142.2,1.381-284.408,1.673-426.611c0.764-372.152,0.451-744.311-0.075-1116.463
					c-0.519-367.978-1.368-735.958-2.41-1103.937c-0.502-177.254-0.962-354.508-1.688-531.761
					c-0.109-26.684,0.021-53.405-1.032-80.074c-0.097-2.809-0.242-5.614-0.433-8.418c-0.392-4.975-0.521-9.958-0.389-14.951
					c0.039-6.606,0.364-13.197,0.977-19.775c2.253-31.386,17.26-64.82,47.449-81.123c6.957-3.756,14.779-5.836,22.375-7.809
					c10.174-2.641,20.631-3.575,31.08-4.297c17.297-1.194,34.713-0.416,52.034-0.482c20.316-0.079,40.639,0.029,60.955,0.162
					c29.232,0.19,58.445,1.229,87.671,1.75c12.823,0.01,25.645-0.226,38.46-0.703c13.131-0.487,26.259-1.04,39.385-1.657
					c13.326-0.645,26.656-1.124,39.993-1.441c1.949,0.039,3.898,0.076,5.847,0.115c3.783,0.242,7.491,0.906,11.121,1.993
					c7.033,1.683,13.131,5.774,18.745,10.119c2.6,2.211,4.915,4.687,6.948,7.427c4.829,5.802,7.098,13.837,7.592,21.171
					c0.053,0.782,1.221-0.489,1.286-0.551c0.599-0.574,1.181-1.167,1.742-1.778C764.879,52.335,765.136,51.985,765.317,51.581z"/>
				<path opacity="0.1091" fill="#FFFFFF" d="M762.947,52.093c-0.123-1.539-0.245-3.077-0.368-4.616
					c-0.525-3.202-1.496-6.264-2.908-9.188c-1.912-4.82-5.619-8.723-9.049-12.468c-3.677-4.014-8.656-6.693-13.362-9.241
					c-5.049-2.734-10.7-3.786-16.262-4.839c-1.944-0.139-3.891-0.276-5.836-0.414c-8.674,0.212-17.345,0.537-26.013,0.976
					c-19.835,0.804-39.658,1.874-59.494,2.677c-19.131,0.774-38.212,0.677-57.348,0.294c-11.246-0.397-22.493-0.716-33.743-0.954
					c-11.771-0.248-23.545-0.425-35.318-0.53c-24.796-0.296-49.594,0.022-74.39-0.163c-12.972-0.098-25.906-0.075-38.864,0.604
					c-12.44,0.65-24.556,2.775-36.547,6.08c-5.754,1.586-11.137,4.099-16.495,6.667c-7.262,3.484-13.391,8.729-19.211,14.18
					c-4.68,4.382-8.167,9.902-11.583,15.254c-3.798,5.952-6.223,12.676-8.635,19.255c-2.822,7.694-4.064,15.957-5.413,23.993
					c-1.593,9.486-1.723,19.204-1.977,28.788c-0.169,6.408,0.282,12.696,0.587,19.071c0.203,4.255,0.314,8.514,0.438,12.772
					c0.31,10.525,0.375,21.058,0.468,31.587c0.409,46.997,0.336,93.996,0.511,140.995c1.137,306.864,1.958,613.729,2.669,920.595
					c0.898,388.05,1.546,776.101,1.643,1164.153c0.082,323.851,0.096,647.714-2.008,971.559
					c-0.35,53.938-0.682,107.883-1.307,161.815c-0.236,20.54-0.515,41.08-0.838,61.618c-0.14,8.86-0.299,17.719-0.467,26.58
					c-0.077,4.061-0.162,8.125-0.246,12.188c-0.104,4.958-0.378,9.891,0.014,14.835c0.272,3.44,2.898,6.07,5.104,8.385
					c2.5,2.624,6.327,3.692,9.626,4.797c3.51,1.171,7.315,1.293,10.968,1.518c3.385,0.21,6.776-0.092,10.149-0.347
					c2.628-0.196,5.242-0.567,7.858-0.894c0.62-0.062,1.239-0.122,1.859-0.183c13.38,0.548,26.759,1.151,40.135,1.811
					c44.938,2.128,89.928,3.072,134.91,3.626c77.06,0.946,154.135-0.8,231.121-4.111c3.045-0.13,5.842-0.605,8.787-1.358
					c0.945-0.421,1.893-0.842,2.839-1.263c2.109-1.174,3.761-2.815,4.954-4.925c0.555-1.185,1.108-2.369,1.663-3.554
					c0.945-2.592,1.435-5.263,1.465-8.02c0.381-4.012-0.109-8.084-0.46-12.075c-0.342-3.887-0.313-7.837-0.362-11.737
					c-0.053-4.291-0.165-8.581-0.191-12.872c-0.073-12.145-0.118-24.291-0.077-36.433c0.123-35.521-0.067-71.046-0.074-106.567
					c-0.02-111.534,0.081-223.068,0.134-334.6c0.303-650.05,0.952-1300.097,1.37-1950.145
					c0.106-166.438,0.155-332.874,0.135-499.313c-0.006-42.75-0.271-85.499-0.278-128.246c-0.005-23.541,0.163-47.084,0.217-70.625
					c0.066-29.003-0.245-58.005-0.307-87.008c-0.109-51.129-0.201-102.252-0.518-153.378c-0.139-22.457-0.33-44.916-0.352-67.373
					c-0.005-4.847,0.007-9.697,0.033-14.545c0.011-1.942,0.004-3.902,0.178-5.84c-0.021,0.131-0.045,0.262-0.068,0.393
					c0.026-0.122,0.052-0.244,0.078-0.366c0.234-1.099-0.995,0.55-1.019,0.577c-1.813,2.181-3.506,4.508-5.138,6.825
					c-1.104,1.57-2.177,3.125-3.234,4.722c-0.831,1.252-1.883,2.356-2.702,3.639c-0.673,1.05-1.428,2.063-0.913,3.28
					c0.21,0.063,0.392,0.004,0.547-0.179c3.173-1.94,2.028-0.959,4.328-3.628c1.769-2.053,2.848-4.54,3.815-7.028
					c2.089-5.367,2.695-11.396,3.469-17.054c0.571-4.169,0.719-8.342,0.923-12.54c0.37-7.589,0.297-15.222,0.368-22.818
					c0.235-24.824,0.125-49.647,0.059-74.473c-0.465,0.183-0.831,0.498-1.097,0.951c-1.131,1.381-2.23,2.786-3.302,4.214
					c-1.088,1.415-2.147,2.852-3.176,4.311c-0.363,0.378-0.571,0.813-0.621,1.311c0.109,19.976,0.215,39.952,0.375,59.928
					c0.057,6.906-0.336,13.778-0.314,20.683c0.019,5.372,0.021,10.743,0.02,16.113c0,3.924-0.258,7.822-0.804,11.702
					c-0.378,2.679-0.839,5.328-1.097,8.024c0.129-1.356-1.035,5.125-0.989,5.274c0.213,0.678,0.645,1.273,0.008,1.833
					c0.199,0.01,0.398,0.02,0.6,0.029c-0.097-0.538,0.336-1.333,0.507-1.814c0.295-0.773,0.687-1.501,1.174-2.181
					c2.684-3.46,5.603-6.62,8.107-10.214c0.38-0.349,0.605-0.765,0.68-1.249c-0.143-0.213-0.285-0.426-0.428-0.639
					c-0.189-0.283-4.511,5.265-4.409,5.135c-1.093,1.407-2.154,2.836-3.187,4.288c-0.365,0.375-0.573,0.81-0.626,1.305
					c0.176,1.04-0.034,2.281-0.055,3.329c-0.069,3.585-0.045,7.171-0.038,10.756c0.014,7.067-0.247,14.101-0.001,21.171
					c0.505,14.501,0.132,29.055,0.146,43.565c0.02,19.749,0.322,39.49,0.444,59.237c0.213,34.573,0.145,69.148,0.176,103.722
					c0.026,29.003,0.303,58.003,0.303,87.005c0,35.824-0.532,71.65,0.278,107.468c0.019-0.133,0.038-0.263,0.056-0.396
					c-0.357,2.544-0.286,5.043-0.274,7.615c0.019,3.629,0.109,7.255,0.069,10.885c-0.053,4.604-0.11,9.204-0.113,13.808
					c-0.004,6.744,0.229,13.479,0.189,20.225c-0.197,34.157-0.214,68.317-0.262,102.477c-0.03,21.697-0.077,43.397-0.076,65.097
					c0.002,6.076,0.226,12.127,0.444,18.201c0.221,6.077-0.019,12.222-0.028,18.304c-0.025,14.951-0.046,29.902-0.066,44.85
					c-0.083,60.848-0.151,121.693-0.215,182.539c-0.335,319.266-0.579,638.532-0.833,957.797
					c-0.262,330.383-0.518,660.764-0.591,991.144c-0.016,67.123-0.022,134.247-0.003,201.368c0.008,28.534,0.021,57.069,0.04,85.604
					c0.008,13.26,0.02,26.517,0.031,39.776c0.014,14.403,0.397,28.848-0.418,43.231c0.002,1.996,0.003,3.994,0.005,5.99
					c0.002,3.931,0.007,7.861,0.009,11.793c0.005,5.732,0.012,11.469,0.018,17.204c0.009,10.879,0.024,21.758,0.04,32.637
					c0.027,20.737,0.07,41.474,0.136,62.21c0.048,15.472,0.256,30.949,0.183,46.421c-0.029,6.262-0.169,12.509-0.122,18.771
					c0.047,6.168,0.149,12.336,0.143,18.506c-0.009,7.475,1.105,15.167-0.226,22.572c-0.211,1.165-0.464,2.319-0.724,3.474
					c-0.042,0.78-0.085,1.559-0.126,2.337c-0.142,1.642-0.534,3.219-1.18,4.733c-0.259,0.75-0.518,1.497-0.778,2.248
					c-0.76,1.541-1.893,2.729-3.397,3.567c-1.403,0.861-2.923,1.385-4.56,1.57c-1.836,0.412-3.694,0.661-5.575,0.744
					c-0.943,0.042-1.888,0.08-2.831,0.119c-12.804,0.557-25.61,1.052-38.419,1.492c-19.214,0.703-38.437,1.141-57.659,1.581
					c-38.455,0.877-76.922,0.969-115.383,0.794c-38.477-0.177-76.945-1.146-115.399-2.395c-27.368-0.886-54.721-2.763-82.105-3.031
					c-4.803-0.047-9.541-0.528-14.204-1.696c-2.236-0.56-4.462-1.606-6.451-2.741c-1.943-1.107-3.416-3.305-4.554-5.132
					c-1.47-2.356-1.334-5.764-1.35-8.38c-0.022-3.795,0.187-7.609,0.274-11.404c0.228-9.842,0.418-19.683,0.599-29.523
					c0.367-19.895,0.645-39.793,0.905-59.693c0.146-11.319,0.278-22.642,0.386-33.961c0.058-6.189-0.325-12.371-0.256-18.566
					c0.093-8.302,0.176-16.604,0.259-24.905c1.327-131.88,1.816-263.774,2.22-395.66c0.525-171.264,0.692-342.527,0.746-513.79
					c0.122-387.821-0.465-775.639-1.304-1163.457c-0.706-327.072-1.562-654.142-2.896-981.211
					c-0.133-32.687-0.274-65.373-0.431-98.058c-0.068-14.49-0.504-29.018,0.26-43.491c-0.008-2.007-0.017-4.013-0.026-6.02
					c-0.017-3.94-0.035-7.883-0.052-11.823c-0.035-7.593-0.069-15.187-0.105-22.779c-0.111-23.451-0.237-46.9-0.347-70.352
					c-0.047-9.875-0.115-19.748,0.012-29.624c0.118-9.096,0.557-18.205,1.144-27.28c0.72-11.13,3.19-21.96,6.281-32.632
					c1.82-6.285,4.803-11.891,8.169-17.441c2-3.476,4.284-6.754,6.849-9.837c2.392-2.917,5.018-5.603,7.88-8.058
					c9.448-8.846,22.071-13.475,34.28-16.907c5.83-1.64,11.915-2.668,17.863-3.761c4.022-0.484,8.053-0.859,12.095-1.124
					c4.158-0.272,8.32-0.465,12.484-0.575c15.164-0.554,30.37-0.042,45.54-0.071c2.083,0.082,4.166,0.165,6.249,0.248
					c12.154-0.033,24.309-0.008,36.463,0.078c23.369,0.108,46.732,0.663,70.094,1.294c5.539,0.166,11.078,0.331,16.619,0.497
					c12.515,0.425,25.032,0.561,37.554,0.404c25.555-0.02,51.127-1.221,76.674-1.776c6.295-0.066,12.59-0.133,18.886-0.198
					c3.203,0,6.358,0.389,9.466,1.166c6.006,1.121,11.303,4.286,16.201,7.753c4.79,3.393,8.082,8.247,10.911,13.265
					c2.786,4.94,3.225,10.799,3.267,16.312c0.472-0.16,0.85-0.461,1.133-0.899c1.186-1.33,2.342-2.684,3.472-4.061
					c1.145-1.365,2.262-2.753,3.35-4.164C762.651,53.012,762.876,52.586,762.947,52.093z"/>
				<path opacity="0.1091" fill="#FFFFFF" d="M762.999,55.56c-0.136-1.498-0.272-2.994-0.41-4.492
					c-0.591-3.119-1.563-6.112-2.922-8.983c-1.882-4.756-5.543-8.641-8.909-12.351c-3.631-4-8.55-6.688-13.197-9.258
					c-4.987-2.759-10.606-3.862-16.115-4.961c-1.937-0.162-3.871-0.325-5.807-0.487c-8.668,0.099-17.333,0.385-25.992,0.862
					c-19.842,0.757-39.675,1.819-59.518,2.617c-24.572,0.988-49.148,0.572-73.719-0.184c-23.485-0.721-46.985-0.918-70.48-1.073
					c-20.951-0.137-41.904,0.044-62.855-0.116c-12.897-0.1-25.75,0.135-38.614,1.083c-8.405,0.62-16.61,2.133-24.818,4.002
					c-5.87,1.335-11.446,3.413-17.028,5.621c-7.462,2.952-14.014,7.537-20.284,12.442c-10.462,8.186-17.13,19.99-22.647,31.784
					c-3.331,7.121-4.97,15.021-6.72,22.625c-2.058,8.952-2.583,18.239-3.228,27.366c-0.896,12.691,0.179,25.406,0.623,38.089
					c0.365,10.421,0.466,20.852,0.574,31.277c0.478,46.418,0.386,92.841,0.554,139.262c1.1,305.301,1.931,610.602,2.641,915.905
					c0.902,387.956,1.55,775.915,1.665,1163.874c0.096,325.223,0.105,650.457-1.943,975.675
					c-0.589,93.648-1.028,187.318-3.167,280.948c0.091,1.141,0.184,2.283,0.277,3.424c0.429,2.254,1.363,4.274,2.803,6.063
					c1.961,3.155,5.651,4.842,8.843,6.325c3.524,1.639,7.575,2.052,11.376,2.441c3.649,0.377,7.35,0.161,10.994-0.094
					c4.837-0.335,9.636-1.548,14.479-1.617c6.497,0.316,12.994,0.635,19.491,0.95c12.849,0.65,25.699,1.229,38.553,1.729
					c25.689,1.08,51.396,1.691,77.1,2.251c77.062,1.672,154.164,0.595,231.189-2.034c13.749-0.471,27.661-0.781,41.382-1.791
					c3.21-0.238,5.853-1.202,8.726-2.563c3.556-1.687,5.042-5.625,6.446-8.947c0.836-2.669,1.229-5.4,1.181-8.196
					c0.027-2.636-0.033-5.269-0.186-7.9c-0.08-1.96-0.51-3.97-0.652-5.938c-0.139-1.891-0.083-3.786-0.198-5.678
					c-0.247-4.071-0.286-8.171-0.39-12.249c-0.292-11.499-0.162-23.023-0.195-34.522c-0.096-34.271-0.04-68.543-0.056-102.813
					c-0.051-109.591,0.098-219.182,0.138-328.772c0.239-649.671,0.936-1299.342,1.361-1949.015
					c0.112-170.796,0.116-341.591,0.147-512.39c0.008-44.095-0.277-88.187-0.276-132.281c0-23.544,0.161-47.087,0.217-70.631
					c0.066-29.003-0.25-58.008-0.31-87.011c-0.106-51.138-0.228-102.27-0.529-153.405c-0.132-22.45-0.352-44.905-0.345-67.354
					c0.003-4.84,0.021-9.681,0.046-14.52c0.009-1.897-0.172-4.039,0.225-5.913c0.147-0.699-0.657,0.009-0.826,0.151
					c-1.706,1.423-3.612,3.115-4.946,4.898c-1.767,2.361-3.319,4.822-4.826,7.359c-0.741,1.248-1.412,2.509-2.075,3.795
					c-0.426,0.826-0.407,1.295-0.106,2.125c0.084-0.039,0.169-0.076,0.253-0.114c0.98-0.608,1.96-1.216,2.941-1.825
					c1.396-1.521,2.593-3.182,3.591-4.987c1.3-2.076,1.934-4.528,2.708-6.826c0.821-2.436,1.199-5.058,1.661-7.575
					c0.85-4.638,1.356-9.31,1.581-14.014c0.541-11.355,0.383-22.745,0.574-34.11c0.139-8.266,0.027-16.544,0.021-24.812
					c-0.015-14.239-0.063-28.479-0.104-42.719c-0.341-0.011-0.629,0.123-0.867,0.404c-0.875,0.735-1.726,1.497-2.551,2.288
					c-0.574,0.538-2.906,2.196-2.901,3.241c0.091,17.259,0.182,34.516,0.285,51.774c0.046,7.495,0.066,14.941-0.27,22.429
					c-0.266,5.907,0.006,11.907-0.001,17.823c-0.006,5.384,0.076,10.919-0.898,16.24c-0.474,2.589-1.066,5.12-1.346,7.737
					c-0.169,1.571-0.548,3.11-0.945,4.634c0.096,0.34,0.191,0.682,0.286,1.023c0.325,0.954,0.124,1.679-0.604,2.177
					c0.104,0.052,0.209,0.104,0.313,0.157c-0.027-0.131-0.057-0.263-0.084-0.395c-0.05,0.285-0.1,0.572-0.148,0.858
					c0.09-0.223,0.182-0.447,0.271-0.67c-0.717,1.26-1.434,2.518-2.15,3.777c1.118-1.787,2.425-3.381,3.758-5.005
					c1.102-1.448,2.32-2.79,3.655-4.029c1.64-1.616,3.059-3.407,4.259-5.373c0.023-0.093,0.046-0.187,0.069-0.281
					c-0.152-0.173-0.306-0.346-0.46-0.519c-0.376-0.426-3.437,2.723-3.449,2.735c-0.404,0.379-3.099,2.387-2.933,3.283
					c0.274,1.464-0.052,3.273-0.075,4.751c-0.09,5.385-0.045,10.769-0.141,16.153c-0.086,4.764-0.039,9.506,0.12,14.267
					c0.215,6.388,0.17,12.749,0.152,19.138c-0.066,22.353-0.046,44.709,0.343,67.058c0.294,16.909,0.172,33.836,0.215,50.746
					c0.043,17.413,0.036,34.826,0.047,52.238c0.022,34.791,0.32,69.579,0.321,104.367c0.002,17.642-0.1,35.286-0.152,52.928
					c-0.008,5.913-0.017,11.823-0.024,17.736c-0.096,12.501,0.018,25.002,0.342,37.501c-0.354,2.671-0.12,5.453-0.109,8.144
					c0.239,60.823-0.082,121.66-0.151,182.489c-0.012,11.38-0.023,22.757-0.03,34.138c-0.004,6.192,0.428,12.379,0.418,18.58
					c-0.01,6.162-0.02,12.321-0.029,18.48c-0.042,28.77-0.078,57.537-0.114,86.305c-0.079,63.832-0.142,127.661-0.202,191.491
					c-0.149,153.109-0.279,306.219-0.41,459.329c-0.289,343.606-0.568,687.216-0.774,1030.826
					c-0.092,153.768-0.171,307.536-0.194,461.305c-0.01,64.355-0.007,128.711,0.021,193.066c0.012,26.984,0.03,53.966,0.057,80.95
					c0.011,12.208,0.29,24.433-0.406,36.624c0.002,1.998,0.003,3.994,0.005,5.993c0.002,3.931,0.005,7.864,0.009,11.795
					c0.006,7.607,0.013,15.217,0.021,22.824c0.04,39.256,0.094,78.515,0.267,117.773c0.059,13.218-0.149,26.434-0.018,39.651
					c0.053,5.229,0.132,10.461,0.116,15.693c-0.017,5.094,0.398,10.17,0.385,15.261c-0.004,1.83-0.018,3.66-0.036,5.489
					c-0.013,1.34-0.49,2.86-0.743,4.178c-0.338,1.752-0.633,3.283-0.813,5.094c-0.269,2.682-1.444,5.151-2.454,7.609
					c-1.027,2.503-3.664,3.771-5.923,4.828c-0.807,0.18-1.614,0.362-2.421,0.542c-1.847,0.415-3.716,0.667-5.607,0.756
					c-0.946,0.042-1.892,0.08-2.838,0.122c-12.808,0.557-25.617,1.055-38.429,1.494c-25.627,0.941-51.266,1.471-76.905,1.943
					c-76.938,1.415-153.907,0.211-230.796-2.621c-21.011-0.772-42.049-2.417-63.083-2.12c-5.992,0.083-11.851-0.315-17.568-2.198
					c-2.509-0.825-4.229-1.88-6.229-3.582c-2.106-1.794-2.987-3.682-3.907-6.229c-1.07-2.962-0.519-6.663-0.443-9.711
					c0.097-3.892,0.186-7.781,0.274-11.674c0.446-19.685,0.766-39.372,1.061-59.06c0.159-10.571,0.297-21.144,0.432-31.715
					c0.147-11.541,0.475-23.099,0.169-34.636c-0.33-12.391,0.036-24.804,0.161-37.197c0.155-15.419,0.291-30.835,0.422-46.251
					c1.174-138.523,1.632-277.051,1.985-415.577c0.938-369.263,0.658-738.53,0.162-1107.796
					c-0.497-370.979-1.351-741.957-2.489-1112.936c-0.349-113.771-0.731-227.541-1.176-341.309
					c-0.176-44.939-0.367-89.875-0.58-134.812c-0.05-10.472-0.188-20.944-0.032-31.414c0.332-3.9,0.429-7.808,0.291-11.72
					c-0.025-5.873-0.053-11.747-0.079-17.62c-0.083-17.991-0.175-35.98-0.276-53.971c-0.08-14.054-0.166-28.108-0.328-42.161
					c-0.081-6.952-0.191-13.904-0.245-20.857c0.058-2.492,0.119-4.981,0.184-7.473c0.039-3.449,0.078-6.897,0.116-10.346
					c0.184-6.303,0.655-12.586,1.411-18.846c0.671-5.558,1.646-11.061,2.923-16.511c1.477-7.145,4.151-13.819,7.119-20.439
					c2.061-3.472,4.149-6.928,6.266-10.367c3.052-5.006,7.265-9.171,11.425-13.228c6.657-6.49,15.239-10.655,23.69-14.212
					c3.542-1.349,7.146-2.503,10.812-3.465c7.581-2.209,15.774-3.622,23.562-4.507c10.421-1.185,20.983-1.248,31.455-1.352
					c10.92-0.108,21.844,0.136,32.765,0.093c8.201,0.325,16.404,0.383,24.612,0.174c17.984-0.023,35.965,0.216,53.945,0.474
					c11.476,0.203,22.951,0.471,34.425,0.801c11.197,0.291,24.472,0.898,35.586,0.85c32.113-0.138,64.176-1.409,96.271-2.327
					c8.126-0.567,16.243-0.597,24.351-0.088c4.955,0.242,9.685,2.124,14.21,3.952c7.298,2.948,12.874,8.733,17.48,14.882
					c1.632,2.453,2.941,5.067,3.93,7.841c1.645,3.873,1.848,8.19,1.969,12.312c0.007,0.247,3.67-2.502,3.579-2.428
					C760.346,58.208,763.083,56.475,762.999,55.56z"/>
				<path opacity="0.1091" fill="#FFFFFF" d="M763.788,50.37c-0.55-5.824-0.163-3.618-1.648-9.358
					c-1.287-4.981-4.536-9.251-7.537-13.28c-3.284-4.41-7.95-7.555-12.405-10.616c-4.729-3.251-10.387-4.887-15.813-6.461
					c-5.82-1.688-11.921-1.479-17.89-1.29c-20.061,0.634-40.115,1.856-60.161,2.842c-19.452,0.956-38.88,1.399-58.354,1.569
					c-11.811-0.149-23.618-0.44-35.422-0.873c-11.53-0.317-23.063-0.557-34.598-0.717c-28.553-0.497-57.111-0.255-85.667-0.278
					c-13.038-0.011-26.049-0.201-39.084,0.229c-12.591,0.415-24.965,2.05-37.235,4.859c-5.897,1.351-11.497,3.51-17.087,5.771
					c-7.507,3.038-14.075,7.737-20.354,12.746c-10.479,8.36-17.175,20.347-22.609,32.317c-3.293,7.254-4.952,15.229-6.703,22.946
					c-2.053,9.039-2.559,18.411-3.187,27.622c-0.963,14.167,0.45,28.351,0.914,42.506c0.345,10.565,0.432,21.138,0.536,31.708
					c0.461,47.007,0.4,94.021,0.565,141.029c1.077,306.861,1.914,613.72,2.623,920.582c0.896,388.05,1.541,776.101,1.64,1164.15
					c0.083,323.848,0.091,647.706-1.981,971.551c-0.345,53.933-0.729,107.865-1.344,161.796
					c-0.234,20.537-0.509,41.074-0.831,61.612c-0.139,8.858-0.296,17.716-0.461,26.574c-0.076,4.062-0.159,8.122-0.244,12.186
					c-0.103,4.978-0.375,9.927,0.032,14.891c0.417,5.085,5.097,8.916,8.767,11.712c1.254,0.587,2.508,1.177,3.762,1.764
					c2.664,1.024,5.403,1.769,8.217,2.236c3.792,0.831,8.042,0.474,11.885,0.341c5.024-0.172,10.042-1.174,14.988-2.004
					c7.362-1.234,15.696,0.252,22.553,0.587c25.692,1.26,51.391,2.187,77.099,2.984c77.066,2.395,154.203,1.99,231.271,0.041
					c19.261-0.487,38.516-1.237,57.769-1.987c8.551-0.335,16.785-0.282,25.141-1.528c3.423-0.51,5.909-2.192,8.576-4.238
					c2.029-1.562,3.323-5.229,4.27-7.389c1.757-4,1.375-8.869,1.292-13.096c-0.048-2.387-0.28-3.989-0.593-6.198
					c-0.563-3.997-0.904-8.02-1.188-12.042c-0.703-9.954-0.551-19.975-0.594-29.946c-0.136-31.117-0.072-62.234-0.087-93.353
					c-0.049-104.644,0.057-209.287,0.097-313.932c0.246-648.197,0.943-1296.398,1.356-1944.6
					c0.117-182.536,0.192-365.071,0.174-547.61c-0.004-40.886,0.006-81.776-0.289-122.662c-0.212-29.52,0.158-59.049,0.226-88.569
					c0.068-29.002-0.246-58.008-0.309-87.01c-0.11-51.127-0.19-102.25-0.518-153.378c-0.143-22.456-0.345-44.914-0.35-67.368
					c0-4.85,0.004-9.7,0.027-14.55c0.01-1.99-0.166-4.23,0.279-6.189c-0.557,0.949-1.114,1.898-1.672,2.848
					c0.328-0.48,0.656-0.96,0.982-1.439c-1.059,1.298-2.119,2.598-3.178,3.896c0.133,0.064-3.328,4.394-3.556,4.673
					c-1.011,1.242-1.903,2.544-2.732,3.912c-0.618,1.017-1.388,2.27-0.647,3.337c0.105,0.097,0.226,0.117,0.359,0.062
					c1.399-0.724,1.774-0.708,2.552-1.678c0.863-1.077,2.16-2.509,2.634-3.827c1.042-2.898,2.29-5.598,3.105-8.587
					c0.779-2.853,1.117-5.811,1.455-8.738c0.598-5.191,0.707-10.436,0.875-15.653c0.243-7.563,0.216-15.141,0.264-22.706
					c0.158-24.803,0.062-49.606-0.011-74.41c-0.003-0.981-1.515,1.243-1.382,1.061c-0.625,0.86-1.23,1.735-1.813,2.625
					c-0.351,0.447-0.615,0.936-0.793,1.467c0.077,17.194,0.154,34.39,0.236,51.584c0.056,11.602-0.082,23.193-0.056,34.794
					c0.017,7.284,0.068,14.563-0.232,21.844c-0.273,6.662,0.275,16.336-6.143,20.679c0.149,0.074,0.299,0.149,0.447,0.223
					c-0.521-1.406,1.517-3.805,2.196-4.861c0.921-1.431,1.992-2.744,3.057-4.067c1.9-2.361,2.608-3.347,4.371-5.953
					c0.211-0.213,0.283-0.453,0.213-0.719c-0.192-0.205-0.385-0.409-0.577-0.616c-0.258-0.275-3.834,4.739-3.926,5.524
					c-0.236,2.066-0.187,4.183-0.229,6.26c-0.127,6.222-0.044,12.461-0.08,18.686c-0.032,5.325,0.109,10.637,0.229,15.958
					c0.156,6.888,0.004,13.803,0.017,20.691c0.05,25.403,0.322,50.803,0.479,76.206c0.211,34.573,0.136,69.148,0.172,103.722
					c0.037,34.91,0.349,69.814,0.266,104.727c-0.041,17.642-0.127,35.286-0.16,52.931c-0.007,5.979-0.013,11.958-0.02,17.938
					c0.866,6.61,0.955,13.188,0.266,19.732c-0.315,3.15-0.077,6.436-0.041,9.6c0.101,8.911,0.014,17.827-0.019,26.738
					c-0.021,6.026,0.142,12.056,0.13,18.084c-0.015,8.155-0.025,16.313-0.037,24.471c-0.054,39.082-0.066,78.163-0.09,117.245
					c-0.014,23.901,0.205,47.793,0.185,71.694c-0.026,29.039-0.05,58.08-0.073,87.121c-0.052,64.272-0.103,128.542-0.15,192.814
					c-0.113,153.688-0.236,307.374-0.358,461.062c-0.272,343.609-0.546,687.219-0.774,1030.828
					c-0.102,153.189-0.191,306.383-0.242,459.572c-0.022,63.915-0.035,127.831-0.031,191.746c0.002,26.732,0.008,53.468,0.017,80.2
					c0.003,6.242,0.006,12.484,0.017,18.725c0.013,5.945-0.234,11.869-0.233,17.815c0.003,13.376,0.008,26.755,0.015,40.131
					c0.019,38.603,0.046,77.205,0.157,115.811c0.036,12.911-0.065,25.819,0.034,38.733c0.076,9.888-0.046,19.795,0.988,29.642
					c0.358,3.402,0.795,6.796,1.221,10.19c0.55,4.362,0.588,8.313,0.166,12.658c-0.342,1.216-0.685,2.434-1.026,3.651
					c-1.637,4.67-4.566,7.638-8.788,8.902c-2.626,1.1-5.934,1.122-8.722,1.362c-6.411,0.277-12.82,0.554-19.231,0.828
					c-12.824,0.525-25.65,0.99-38.479,1.397c-44.907,1.528-89.841,2.032-134.771,2.12c-38.518,0.078-77.032-0.647-115.535-1.649
					c-19.254-0.501-38.499-1.281-57.742-2.067c-6.418-0.291-12.835-0.582-19.253-0.872c-6.89-1.138-13.764-1.385-20.618-0.745
					c-2.075,0.178-4.172,0.656-6.224,0.985c-4.318,0.692-8.439,1.088-12.857,1.185c-3.939,0.086-7.513-0.584-11.289-1.6
					c-2.487-0.777-4.846-1.847-7.075-3.197c-1.894-1.525-3.51-3.303-4.85-5.334c-3.102-3.992-2.688-8.629-2.584-13.224
					c0.088-3.89,0.169-7.776,0.249-11.666c0.176-8.521,0.325-17.044,0.471-25.564c0.372-21.728,0.656-43.458,0.916-65.186
					c0.64-53.409,0.95-106.828,1.311-160.243c0.972-143.899,1.369-287.805,1.654-431.708
					c0.741-373.464,0.411-746.932-0.131-1120.396c-0.533-366.453-1.394-732.903-2.464-1099.353
					c-0.306-104.716-0.634-209.432-0.991-314.147c-0.261-76.411-0.327-152.823-0.78-229.234
					c-0.082-13.754-0.197-27.508-0.496-41.259c-0.123-5.653-0.346-11.303-0.471-16.956c-0.146-5-0.162-10.001-0.05-15.003
					c0.039-9.667,1.275-19.226,2.649-28.771c1.529-10.621,5.03-20.724,9.172-30.558c1.993-3.867,4.166-7.631,6.521-11.289
					c3.28-5.386,7.736-9.866,12.177-14.266c6.932-6.868,15.912-11.359,24.749-15.174c9.205-3.974,19.436-5.787,29.232-7.584
					c4.078-0.55,8.167-0.979,12.271-1.286c4.194-0.315,8.393-0.541,12.598-0.678c10.788-0.466,21.614-0.259,32.407-0.171
					c18.697,0.149,37.393,0.11,56.092,0.156c28.971,0.07,57.929,0.766,86.888,1.585c25.529,0.721,51.001-0.049,76.515-0.971
					c13.095-0.552,26.191-1.062,39.29-1.529c6.553-0.177,13.104-0.353,19.657-0.53c3.672-0.12,7.316,0.149,10.931,0.807
					c3.47,0.625,6.836,1.607,10.098,2.945c4.814,1.687,8.938,4.779,12.948,7.816c2.494,2.106,4.731,4.46,6.709,7.058
					c4.796,5.639,6.911,13.538,7.349,20.712c0.055,0.927,1.478-1.055,1.424-0.988c0.664-0.825,1.307-1.668,1.929-2.524
					C763.301,51.365,763.586,50.89,763.788,50.37z"/>
				<path opacity="0.1091" fill="#FFFFFF" d="M762.754,54.725c-0.123-1.524-0.246-3.046-0.369-4.57
					c-0.533-3.151-1.494-6.166-2.885-9.045c-1.883-4.729-5.531-8.558-8.899-12.231c-3.606-3.931-8.489-6.57-13.096-9.081
					c-4.938-2.693-10.471-3.765-15.914-4.838c-1.907-0.153-3.814-0.307-5.722-0.459c-8.604,0.109-17.203,0.383-25.797,0.823
					c-19.789,0.719-39.567,1.758-59.356,2.522c-19.12,0.738-38.188,0.638-57.312,0.249c-11.244-0.393-22.49-0.71-33.737-0.952
					c-11.77-0.253-23.538-0.433-35.309-0.542c-24.788-0.306-49.579-0.021-74.367-0.199c-12.968-0.094-25.902-0.082-38.857,0.573
					c-12.444,0.63-24.545,2.725-36.56,5.964c-5.75,1.55-11.145,4.01-16.514,6.528c-7.27,3.411-13.438,8.563-19.304,13.933
					c-4.716,4.315-8.255,9.772-11.724,15.069c-3.864,5.903-6.364,12.605-8.843,19.155c-2.901,7.665-4.18,15.939-5.575,23.964
					c-1.65,9.488-1.812,19.22-2.098,28.813c-0.192,6.425,0.238,12.754,0.52,19.151c0.187,4.268,0.288,8.539,0.406,12.808
					c0.288,10.536,0.352,21.078,0.439,31.615c0.389,47.011,0.344,94.024,0.516,141.035c1.117,306.85,1.945,613.701,2.653,920.554
					c0.896,388.05,1.544,776.101,1.643,1164.15c0.083,323.861,0.093,647.733-1.996,971.589
					c-0.347,53.928-0.695,107.858-1.316,161.782c-0.236,20.543-0.512,41.086-0.834,61.629c-0.138,8.861-0.296,17.723-0.463,26.583
					c-0.076,4.064-0.161,8.128-0.244,12.194c-0.104,4.963-0.376,9.901,0.019,14.854c0.28,3.477,2.904,6.114,5.127,8.465
					c2.547,2.69,6.406,3.721,9.78,4.825c3.589,1.177,7.39,1.254,11.119,1.439c3.415,0.171,6.803-0.149,10.2-0.435
					c2.632-0.219,5.244-0.596,7.861-0.928c7.107-0.905,18.092,0.573,22.69,0.809c44.952,2.306,89.939,3.555,134.94,4.324
					c77.059,1.314,154.146-0.095,231.149-3.064c8.37-0.324,16.775-0.291,25.076-1.448c3.366-0.471,5.814-2.129,8.426-4.139
					c0.723-1.021,1.444-2.043,2.167-3.064c1.254-2.383,2.09-4.905,2.503-7.565c0.237-2.674,0.283-5.351,0.136-8.03
					c0.023-1.957-0.143-3.893-0.495-5.811c-0.553-3.712-0.508-7.493-0.551-11.236c-0.047-4.166-0.077-8.332-0.126-12.498
					c-0.139-11.804-0.155-23.621-0.104-35.425c0.153-34.901-0.055-69.807-0.069-104.708c-0.05-110.564,0.091-221.13,0.137-331.694
					c0.271-649.876,0.919-1299.749,1.366-1949.625c0.116-169.284,0.127-338.568,0.141-507.853
					c0.005-48.651-0.352-97.306-0.233-145.957c0.242-100.948-0.139-201.899-0.714-302.846c-0.116-20.519-0.335-41.04-0.285-61.559
					c0.011-4.189,0.005-8.379,0.057-12.57c0.018-1.453-0.072-3.021,0.24-4.452c-0.488,0.141-0.89,0.426-1.205,0.855
					c-2.072,1.995-4.04,4.15-5.949,6.299c-1.486,0.986-2.451,2.285-2.896,3.895c-0.319,0.698-0.832,1.456-1.181,2.136
					c-0.775,1.509-2.566,3.862-1.888,5.641c0.033,0.245,0.143,0.285,0.328,0.122c2.601-1.608,3.308-1.763,5.039-4.371
					c1.521-2.287,2.618-4.352,3.492-6.92c0.796-2.336,1.204-4.738,1.618-7.161c0.736-4.314,1.432-8.64,2.082-12.97
					c0.09-1.36,0.18-2.721,0.27-4.08c0.235-3.153,0.364-6.31,0.389-9.472c0.207-8.259,0.225-16.521,0.357-24.781
					c0.365-22.489,0.017-45.008-0.047-67.499c-0.487,0.13-0.892,0.404-1.213,0.826c-1.298,1.256-2.571,2.536-3.818,3.843
					c-1.261,1.292-2.496,2.61-3.704,3.953c-0.409,0.335-0.67,0.749-0.783,1.24c0.1,17.251,0.199,34.501,0.325,51.753
					c0.054,7.499,0.027,14.932-0.352,22.422c0.004,2.156,0.009,4.314,0.011,6.471c0.015,3.771,0.007,7.542-0.018,11.313
					c-0.018,4.36-0.289,8.629-0.61,12.974c-0.249,1.078-0.498,2.155-0.747,3.233c-0.416,1.785-0.852,3.566-1.306,5.343
					c-0.076,0.797-0.152,1.593-0.229,2.39c-0.156,1.323-0.377,2.637-0.66,3.939c-0.311,1.588-0.551,1.543,0.433,2.631
					c1.976-0.691,3.95-1.381,5.926-2.074c-1.315-0.022-2.63-0.044-3.945-0.066c-0.234,0.95-0.469,1.899-0.704,2.849
					c1.014-1.448,1.989-2.803,3.168-4.122c2.858-3.197,5.739-6.203,8.186-9.738c0.049-0.125,0.098-0.249,0.146-0.372
					c-0.152-0.18-0.303-0.36-0.455-0.54c-0.332-0.393-5.125,4.769-5.051,4.689c-1.267,1.298-2.508,2.621-3.721,3.97
					c-0.411,0.336-0.674,0.751-0.787,1.244c0.153,0.411,0.064,0.875,0.053,1.308c-0.036,1.163-0.045,2.326-0.06,3.487
					c-0.072,5.391-0.059,10.778-0.176,16.169c-0.105,4.77-0.023,9.52,0.157,14.286c0.242,6.384,0.183,12.734,0.151,19.123
					c-0.108,22.354-0.096,44.709,0.322,67.06c0.315,16.903,0.173,33.832,0.216,50.737c0.045,17.414,0.037,34.827,0.049,52.24
					c0.021,34.788,0.319,69.571,0.318,104.359c-0.003,35.865-0.506,71.727,0.315,107.583c0.021,0.958-0.258,1.94-0.252,2.918
					c0.013,1.94,0.022,3.884,0.032,5.824c0.043,8.559-0.078,17.113-0.072,25.675c0.004,5.891,0.252,11.771,0.21,17.667
					c-0.057,7.947-0.088,15.895-0.119,23.845c-0.15,38.431-0.2,76.862-0.253,115.296c-0.017,11.386-0.033,22.774-0.016,34.16
					c0.01,6.182,0.507,12.347,0.494,18.533c-0.011,6.162-0.021,12.321-0.034,18.483c-0.051,28.77-0.094,57.54-0.136,86.31
					c-0.091,63.832-0.162,127.664-0.229,191.497c-0.163,153.109-0.302,306.222-0.435,459.332
					c-0.299,343.609-0.58,687.218-0.775,1030.829c-0.087,153.766-0.16,307.534-0.167,461.3
					c-0.003,64.353,0.007,128.705,0.048,193.061c0.019,26.981,0.043,53.963,0.076,80.944c0.016,12.225,0.262,24.443-0.498,36.648
					c0.001,1.999,0.004,3.995,0.006,5.993c0.002,3.931,0.007,7.865,0.011,11.796c0.007,7.606,0.017,15.214,0.026,22.821
					c0.051,39.253,0.117,78.509,0.329,117.765c0.072,13.218-0.181,26.428-0.038,39.644c0.057,5.215,0.114,10.428,0.097,15.641
					c-0.017,4.899,0.532,9.93,0.069,14.804c-0.157,1.628-0.33,3.256-0.507,4.881c-0.113,1.058-0.623,2.212-0.947,3.22
					c-0.488,1.527-0.696,2.147-0.78,3.884c-0.101,2.081-1.16,4.08-1.816,6.023c-0.741,2.195-3.354,3.155-5.229,3.986
					c-0.779,0.152-1.559,0.304-2.338,0.456c-1.82,0.385-3.661,0.609-5.52,0.682c-0.938,0.03-1.874,0.063-2.812,0.097
					c-12.799,0.548-25.601,1.041-38.403,1.473c-25.61,0.925-51.234,1.439-76.855,1.896c-76.902,1.373-153.833,0.124-230.686-2.752
					c-19.42-0.726-38.812-1.716-58.24-2.256c-1.429-0.039-2.886-0.232-4.316-0.311c-5.074-0.279-10.186-0.883-14.884-2.887
					c-0.616-0.219-1.23-0.44-1.847-0.659c-1.226-0.57-2.262-1.384-3.103-2.444c-1.821-1.813-2.504-3.261-3.225-5.719
					c-0.893-3.042-0.417-6.514-0.337-9.614c0.097-3.89,0.185-7.778,0.274-11.671c0.448-19.679,0.77-39.364,1.065-59.049
					c0.158-10.571,0.298-21.141,0.434-31.712c0.146-11.558,0.472-23.126,0.125-34.681c-0.373-12.396,0.015-24.816,0.143-37.216
					c0.156-15.416,0.295-30.832,0.426-46.245c1.188-138.514,1.648-277.034,2.004-415.553c0.947-369.26,0.665-738.522,0.167-1107.784
					c-0.498-370.987-1.356-741.972-2.508-1112.959c-0.354-113.779-0.742-227.558-1.201-341.334
					c-0.182-44.944-0.379-89.889-0.601-134.834c-0.052-10.454-0.223-20.909,0.021-31.362c0.339-3.896,0.438-7.799,0.297-11.708
					c-0.026-5.874-0.054-11.748-0.082-17.622c-0.084-17.991-0.174-35.981-0.266-53.972c-0.071-14.031-0.14-28.061-0.181-42.091
					c-0.02-6.86,0.008-13.708,0.162-20.565c0.122-2.418,0.253-4.834,0.396-7.25c0.09-3.394,0.179-6.786,0.269-10.18
					c0.278-6.176,0.851-12.324,1.716-18.446c0.763-5.4,1.831-10.739,3.207-16.018c1.581-6.837,4.325-13.146,7.425-19.393
					c2.078-3.238,4.168-6.466,6.271-9.686c3.058-4.7,7.245-8.572,11.349-12.314c6.654-6.068,15.035-9.854,23.3-13.121
					c3.507-1.229,7.064-2.296,10.668-3.201c5.792-1.596,11.83-2.611,17.732-3.687c4.011-0.463,8.032-0.822,12.063-1.071
					c6.256-0.473,12.548-0.545,18.818-0.666c10.843-0.208,21.697,0.043,32.54,0.088c4.298-0.088,8.593,0,12.882,0.268
					c6.094,0.001,12.188,0.004,18.283,0.005c12.051,0.031,24.102,0.126,36.153,0.287c29.122,0.31,58.23,1.421,87.346,2.108
					c12.653,0.111,25.307,0.031,37.959-0.24c19.084-0.263,38.164-0.865,57.248-1.15c7.749-0.525,15.474-0.414,23.172,0.332
					c4.396,0.353,8.656,2.245,12.6,4.038c6.526,2.965,11.314,8.229,15.391,13.933c1.432,2.322,2.567,4.78,3.407,7.376
					c1.488,3.821,1.502,8.131,1.507,12.146c0.493-0.104,0.91-0.357,1.252-0.76c1.36-1.184,2.696-2.393,4.007-3.631
					c1.324-1.222,2.624-2.472,3.897-3.747C762.335,55.608,762.615,55.21,762.754,54.725z"/>
				<path opacity="0.1091" fill="#FFFFFF" d="M763.036,52.079c-0.137-1.514-0.273-3.028-0.411-4.542
					c-0.58-3.172-1.572-6.212-2.975-9.117c-1.938-4.836-5.677-8.751-9.136-12.5c-3.728-4.041-8.732-6.732-13.484-9.313
					c-5.087-2.763-10.816-3.833-16.422-4.896c-1.967-0.148-3.933-0.296-5.899-0.444c-8.724,0.198-17.444,0.521-26.158,0.973
					c-19.879,0.806-39.746,1.898-59.626,2.717c-19.142,0.789-38.235,0.71-57.384,0.339c-11.247-0.388-22.495-0.699-33.745-0.938
					c-11.773-0.243-23.548-0.416-35.324-0.519c-24.799-0.29-49.598,0.039-74.397-0.151c-12.975-0.098-25.916-0.072-38.876,0.605
					c-12.477,0.651-24.618,2.787-36.647,6.09c-5.782,1.587-11.193,4.104-16.579,6.68c-7.322,3.5-13.512,8.767-19.387,14.248
					c-4.739,4.421-8.271,9.977-11.737,15.379c-3.854,6.008-6.321,12.81-8.762,19.46c-2.851,7.77-4.097,16.117-5.452,24.231
					c-1.595,9.559-1.711,19.353-1.95,29.01c-0.266,10.673,0.785,21.425,1.133,32.095c0.345,10.542,0.421,21.095,0.522,31.642
					c0.448,47.002,0.368,94.007,0.538,141.009c1.114,306.864,1.942,613.726,2.651,920.59c0.898,388.05,1.544,776.101,1.642,1164.153
					c0.083,323.851,0.094,647.711-2,971.556c-0.349,53.936-0.703,107.874-1.322,161.808c-0.235,20.54-0.514,41.077-0.837,61.614
					c-0.139,8.858-0.298,17.72-0.465,26.578c-0.076,4.061-0.161,8.124-0.245,12.186c-0.104,4.963-0.375,9.904,0.016,14.854
					c0.277,3.507,2.981,6.25,5.215,8.625c2.58,2.746,6.602,3.92,10.02,5.104c3.695,1.282,7.715,1.382,11.571,1.601
					c3.549,0.202,7.081-0.186,10.605-0.526c3.246-0.313,6.457-0.905,9.693-1.295c0.457-0.017,0.915-0.031,1.372-0.048
					c12.922,0.499,25.84,1.071,38.755,1.725c44.936,2.135,89.929,3.048,134.908,3.591c77.07,0.933,154.156-0.831,231.149-4.155
					c1.81-0.077,4.361-0.21,6.109-0.667c0.986-0.258,1.972-0.515,2.957-0.772c2.083-0.689,3.925-1.788,5.523-3.294
					c0.795-1.03,1.588-2.057,2.383-3.084c1.395-2.431,2.329-5.027,2.804-7.79c0.382-2.793,0.521-5.6,0.418-8.418
					c0.019-2.079-0.129-4.144-0.438-6.195c-0.892-7.255-1.014-14.666-1.22-21.963c-0.325-11.482-0.177-22.995-0.206-34.48
					c-0.087-34.268-0.042-68.535-0.054-102.803c-0.043-109.6,0.084-219.198,0.13-328.794
					c0.266-649.671,0.938-1299.34,1.364-1949.008c0.112-172.146,0.142-344.293,0.147-516.439
					c0.001-48.651-0.352-97.308-0.238-145.959c0.238-100.948-0.126-201.899-0.71-302.845c-0.119-20.518-0.331-41.039-0.284-61.557
					c0.01-4.191-0.007-8.383,0.053-12.575c0.02-1.446-0.067-3.006,0.241-4.431c0.253-1.169-2.006,1.831-1.684,1.408
					c-0.824,1.089-1.629,2.194-2.411,3.314c-0.451,0.562-0.819,1.171-1.104,1.828c-0.411,0.588-0.822,1.177-1.233,1.766
					c-0.905,1.09-1.793,2.197-2.665,3.316c-0.853,1.079-1.608,2.212-2.331,3.38c-0.612,0.991-1.326,1.985-0.79,3.107
					c0.073,0.006,0.146,0.01,0.22,0.016c3.291-1.856,2.255-0.966,4.681-3.867c0.753-1.451,1.563-2.868,2.431-4.252
					c0.361-0.786,0.69-1.585,0.99-2.397c2.605-6.37,3.075-13.46,3.688-20.235c0.402-4.457,0.35-9.012,0.439-13.481
					c0.165-8.239,0.164-16.481,0.28-24.723c0.319-22.489-0.022-45.007-0.089-67.497c-0.004-1.069-1.812,1.517-1.691,1.363
					c-0.833,1.064-1.645,2.146-2.436,3.241c-0.456,0.55-0.828,1.147-1.119,1.794c0.1,19.971,0.191,39.942,0.325,59.914
					c0.046,6.905-0.23,13.784-0.211,20.688c0.015,5.368,0.023,10.734,0.026,16.101c0.002,3.917-0.139,7.814-0.489,11.714
					c-0.233,2.609-0.554,5.199-0.688,7.816c-0.085,1.625-0.384,3.226-0.708,4.817c0.002,0.39,0.005,0.78,0.006,1.169
					c-0.329,1.499-1.006,2.81-2.031,3.932c0.201-0.219,0.403-0.438,0.605-0.656c-0.462,0.301-0.923,0.601-1.385,0.901
					c0.193-0.069,0.387-0.137,0.581-0.205c-0.215-0.656,0.832-2.243,1.048-2.644c0.563-1.016,1.208-1.978,1.937-2.889
					c0.527-0.624,1.056-1.248,1.585-1.873c1.65-1.763,3.113-3.67,4.39-5.72c0.269-0.244,0.391-0.53,0.364-0.864
					c-0.146-0.205-0.293-0.411-0.441-0.617c-0.244-0.34-1.974,1.995-1.693,1.641c-0.836,1.059-1.65,2.134-2.445,3.225
					c-0.458,0.545-0.833,1.141-1.125,1.784c-0.164,1.576-0.151,3.171-0.185,4.753c-0.109,5.409-0.04,10.822-0.117,16.233
					c-0.126,8.831,0.278,17.638,0.252,26.467c-0.065,20.69,0.027,41.38,0.164,62.07c0.178,26.667,0.392,53.33,0.427,79.999
					c0.046,34.327-0.009,68.655,0.275,102.981c0.293,35.638-0.061,71.278-0.117,106.916c-0.003,5.982-0.006,11.962-0.009,17.944
					c1.035,6.63,1.134,13.212,0.296,19.749c-0.195,1.592-0.096,3.217-0.088,4.819c0.25,58.285-0.002,116.578-0.056,174.868
					c-0.011,11.12-0.02,22.237-0.029,33.36c-0.01,10.01,0.335,20.006,0.321,30.013c-0.036,28.017-0.066,56.031-0.096,84.048
					c-0.066,62.584-0.124,125.17-0.179,187.754c-0.131,151.429-0.256,302.859-0.383,454.285
					c-0.288,343.518-0.554,687.039-0.781,1030.557c-0.103,155.354-0.188,310.712-0.229,466.069
					c-0.018,65.552-0.027,131.103-0.017,196.653c0.006,27.649,0.016,55.301,0.03,82.952c0.007,12.784,0.014,25.57,0.028,38.354
					c0.007,5.99-0.042,11.937-0.335,17.919c0.001,3.973,0.004,7.944,0.005,11.917c0.003,3.887,0.006,7.776,0.007,11.662
					c0.025,40.979,0.06,81.953,0.186,122.932c0.023,7.59,0.05,15.184,0.09,22.773c0.035,6.572-0.152,13.141-0.111,19.71
					c0.035,5.708,0.086,11.413,0.146,17.118c0.051,4.822-0.075,9.658,0.198,14.473c0.403,7.119,0.985,14.192,0.715,21.326
					c-0.018,1.024-0.036,2.051-0.054,3.075c-0.083,2.129-0.422,4.219-1.018,6.265c-0.75,3.324-2.61,5.445-4.979,7.724
					c-3.419,0.94-6.838,1.882-10.257,2.823c-7.359,0.457-14.724,0.783-22.096,0.979c-25.634,1.08-51.282,1.75-76.93,2.361
					c-76.97,1.836-153.987,1.047-230.932-1.381c-19.232-0.606-38.453-1.489-57.673-2.403c-7.368-0.349-15.279-0.853-22.845-0.263
					c-3.406,0.263-6.797,0.515-10.216,0.567c-4.256,0.066-8.333-0.684-12.429-1.758c-2.945-0.772-5.294-2.399-7.66-4.222
					c-2.379-1.835-3.488-4.326-4.579-7.015c-1.188-2.932-0.629-6.781-0.555-9.827c0.094-3.886,0.178-7.772,0.264-11.659
					c0.435-19.671,0.746-39.348,1.035-59.021c0.155-10.568,0.291-21.135,0.422-31.704c0.144-11.549,0.439-23.106,0.226-34.655
					c-0.229-12.404,0.08-24.822,0.201-37.229c0.151-15.41,0.284-30.824,0.41-46.237c1.142-138.505,1.592-277.015,1.935-415.521
					c0.916-369.258,0.632-738.515,0.138-1107.769c-0.495-370.984-1.348-741.968-2.457-1112.95
					c-0.34-113.779-0.713-227.555-1.138-341.334c-0.167-44.944-0.348-89.888-0.544-134.831c-0.054-12.343-0.385-24.72,0.181-37.054
					c-0.017-3.987-0.033-7.977-0.05-11.964c-0.025-5.804-0.05-11.606-0.076-17.409c-0.078-17.754-0.161-35.508-0.264-53.261
					c-0.082-13.891-0.188-27.779-0.358-41.668c-0.086-6.912-0.309-13.823-0.225-20.735c0.065-4.778,0.118-9.556,0.158-14.334
					c0.097-9.402,1.355-18.694,2.747-27.969c0.937-5.34,2.192-10.605,3.769-15.791c0.813-2.361,1.624-4.724,2.436-7.085
					c1.507-4.064,3.442-7.913,5.804-11.544c2.048-3.679,4.383-7.167,7.003-10.464c3.466-4.738,8.008-8.535,12.485-12.251
					c7.266-6.032,16.297-9.675,25.088-12.781c3.688-1.179,7.426-2.171,11.213-2.98c6.103-1.462,12.118-2.523,18.349-3.237
					c8.307-0.954,16.714-1.114,25.064-1.313c10.849-0.256,21.714-0.007,32.563,0.056c22.482,0.127,44.972,0.158,67.46,0.346
					c29.167,0.244,58.321,1.301,87.482,1.874c12.738,0.047,25.472-0.128,38.204-0.525c19.436-0.435,38.87-1.35,58.3-1.97
					c8.212-0.539,16.422-0.615,24.626-0.231c5.071,0.176,9.95,1.99,14.625,3.757c2.984,1.287,5.791,2.886,8.421,4.797
					c3.983,2.576,6.981,6.262,9.896,9.915c1.762,2.458,3.184,5.098,4.267,7.92c1.823,3.989,2.039,8.363,2.178,12.646
					c0.34-0.031,0.611-0.201,0.815-0.509c0.786-0.84,1.543-1.705,2.273-2.594C761.066,55.023,763.135,53.155,763.036,52.079z"/>
				<path opacity="0.1091" fill="#FFFFFF" d="M764.585,49.815c-0.54-5.823-0.152-3.604-1.635-9.343
					c-1.288-4.991-4.552-9.268-7.56-13.304c-3.296-4.419-7.98-7.569-12.451-10.634c-4.752-3.258-10.43-4.897-15.879-6.474
					c-5.844-1.691-11.973-1.483-17.964-1.297c-20.082,0.624-40.159,1.861-60.224,2.853c-19.464,0.961-38.9,1.41-58.385,1.586
					c-11.816-0.145-23.628-0.432-35.436-0.862c-11.531-0.315-23.063-0.555-34.597-0.714c-28.551-0.494-57.105-0.256-85.658-0.272
					c-13.038-0.009-26.05-0.199-39.086,0.229c-12.617,0.415-25.012,2.052-37.308,4.866c-5.91,1.354-11.523,3.512-17.127,5.774
					c-7.54,3.042-14.14,7.747-20.455,12.764c-10.545,8.376-17.322,20.395-22.793,32.418c-3.335,7.329-5.013,15.386-6.778,23.186
					c-2.063,9.112-2.554,18.563-3.168,27.848c-0.659,9.972-0.105,19.954,0.52,29.902c0.639,10.204,0.764,20.45,0.924,30.669
					c0.713,45.242,0.544,90.507,0.698,135.753c1.024,302.136,1.863,604.27,2.567,906.406
					c0.905,387.727,1.567,775.453,1.704,1163.182c0.117,327.922,0.129,655.853-1.81,983.769
					c-0.567,96.076-1.104,192.169-3.119,288.226c-0.027,1.273-0.055,2.544-0.083,3.817c-0.216,2.428-0.118,4.842,0.295,7.242
					c0.126,1.165,0.486,2.469,1.135,3.419c0.698,1.016,1.394,2.034,2.091,3.05c1.689,1.985,3.658,3.635,5.91,4.95
					c1.257,0.559,2.512,1.118,3.768,1.678c2.674,0.966,5.417,1.649,8.23,2.051c3.86,0.756,8.051,0.427,11.949,0.279
					c3.416-0.13,6.829-0.703,10.202-1.212c2.347-0.354,4.682-0.772,7.033-1.113c6.883-0.471,13.769-0.144,20.656,0.982
					c12.85,0.623,25.703,1.186,38.559,1.687c77.028,3.184,154.165,3.452,231.238,2.2c38.527-0.625,77.036-2.043,115.531-3.723
					c3.056-0.136,5.896-0.717,8.833-1.522c3.91-1.069,5.986-4.039,8.152-7.093c0.555-1.323,1.111-2.644,1.666-3.964
					c0.884-2.849,1.319-5.764,1.309-8.745c0.144-2.037-0.132-6.452-0.42-8.515c-0.565-4.044-1.009-8.089-1.345-12.158
					c-0.805-9.716-0.688-19.496-0.752-29.237c-0.198-30.48-0.084-60.965-0.099-91.445c-0.051-103.628,0.052-207.256,0.093-310.884
					c0.261-647.821,0.92-1295.641,1.354-1943.462c0.123-184.055,0.183-368.108,0.18-552.164
					c-0.002-42.309,0.017-84.618-0.287-126.928c-0.211-29.521,0.154-59.049,0.224-88.569c0.067-29.005-0.247-58.008-0.311-87.013
					c-0.11-51.129-0.193-102.255-0.519-153.385c-0.143-22.453-0.345-44.91-0.349-67.364c-0.002-4.849,0.005-9.696,0.028-14.543
					c0.01-1.985-0.171-4.229,0.282-6.182c-0.559,0.94-1.119,1.878-1.68,2.818c0.33-0.475,0.66-0.948,0.989-1.423
					c-1.064,1.283-2.129,2.566-3.193,3.849c0.231,0.123-3.409,4.599-3.659,4.909c-0.972,1.203-1.82,2.475-2.604,3.801
					c-0.525,0.886-1.203,2.024-0.542,2.948c0.132,0.186,0.29,0.345,0.52,0.231c1.077-0.53,1.497-0.541,2.1-1.295
					c0.853-1.07,2.242-2.62,2.696-3.934c0.407-1.392,0.965-2.721,1.673-3.989c0.616-1.517,1.116-3.07,1.499-4.662
					c0.802-2.859,1.157-5.823,1.495-8.763c0.598-5.2,0.707-10.457,0.879-15.683c0.248-7.568,0.216-15.155,0.263-22.726
					c0.155-24.803,0.063-49.608-0.009-74.413c-0.005-0.971-1.509,1.197-1.383,1.03c-0.63,0.844-1.239,1.702-1.824,2.577
					c-0.352,0.438-0.618,0.917-0.801,1.442c0.082,17.204,0.162,34.406,0.249,51.609c0.068,13.377-0.081,26.745-0.019,40.121
					c0.034,7.487-0.114,14.955-0.504,22.431c-0.301,5.761-1.267,11.961-6.56,15.481c0.173,0.078,0.346,0.155,0.519,0.231
					c-0.271-0.735,0.304-1.535,0.608-2.143c0.532-1.065,1.225-2.054,1.885-3.042c0.994-1.487,2.145-2.87,3.267-4.258
					c1.97-2.433,2.629-3.348,4.468-6.054c0.213-0.211,0.285-0.449,0.218-0.715c-0.197-0.21-0.395-0.419-0.592-0.629
					c-0.267-0.284-3.846,4.68-3.938,5.458c-0.247,2.057-0.194,4.169-0.237,6.237c-0.131,6.214-0.048,12.446-0.086,18.663
					c-0.03,5.335,0.114,10.661,0.238,15.996c0.161,6.877,0,13.787,0.013,20.667c0.043,25.402,0.322,50.802,0.478,76.203
					c0.213,34.574,0.137,69.15,0.173,103.724c0.037,34.91,0.351,69.817,0.266,104.729c-0.041,17.645-0.127,35.286-0.161,52.931
					c-0.005,5.982-0.008,11.962-0.01,17.944c0.923,6.632,1.01,13.227,0.264,19.782c-0.34,3.128-0.083,6.417-0.045,9.559
					c0.104,8.905,0.011,17.816-0.021,26.722c-0.021,6.034,0.148,12.072,0.136,18.106c-0.018,8.152-0.029,16.305-0.041,24.457
					c-0.059,39.073-0.071,78.144-0.098,117.217c-0.015,23.915,0.219,47.824,0.195,71.741c-0.026,29.036-0.051,58.074-0.074,87.11
					c-0.052,64.267-0.105,128.533-0.154,192.8c-0.114,153.683-0.239,307.365-0.361,461.045
					c-0.273,343.612-0.542,687.221-0.774,1030.832c-0.104,153.195-0.189,306.391-0.239,459.586
					c-0.02,63.921-0.033,127.842-0.026,191.76c0.002,26.737,0.008,53.476,0.02,80.211c0.002,6.242,0.005,12.484,0.014,18.728
					c0.007,5.929-0.247,11.834-0.245,17.763c0.004,13.379,0.011,26.758,0.018,40.134c0.02,38.616,0.046,77.23,0.163,115.844
					c0.041,12.911-0.067,25.816,0.036,38.728c0.081,9.927-0.023,19.867,1.057,29.747c0.375,3.428,0.824,6.846,1.273,10.262
					c0.563,4.294,0.667,8.145,0.285,12.421c-0.43,4.812-2.96,8.934-6.788,11.854c-2.341,1.783-5.688,2.06-8.471,2.475
					c-0.963,0.092-1.925,0.181-2.889,0.269c-12.815,0.587-25.635,1.113-38.456,1.581c-44.88,1.741-89.795,2.461-134.705,2.766
					c-76.973,0.525-154.059-1.229-230.909-5.595c-1.716-0.097-3.688,0.474-5.358,0.753c-2.886,0.481-5.771,0.922-8.671,1.307
					c-5.055,0.67-9.824,0.512-14.84,0.036c-2.607-0.415-5.145-1.094-7.61-2.037c-2.376-0.806-4.469-2.079-6.277-3.813
					c-0.814-0.872-1.629-1.741-2.443-2.613c-2.659-4.163-3.722-8.578-3.188-13.243c0.085-3.9,0.165-7.801,0.242-11.703
					c0.173-8.543,0.32-17.089,0.462-25.631c0.364-21.762,0.644-43.525,0.901-65.286c0.63-53.329,1.037-106.661,1.387-159.994
					c0.948-143.963,1.338-287.93,1.618-431.896c0.724-373.495,0.396-746.99-0.147-1120.485
					c-0.533-366.411-1.388-732.825-2.43-1099.236c-0.505-177.83-0.842-355.662-1.726-533.492
					c-0.071-14.105-0.162-28.21-0.404-42.314c-0.1-5.747-0.269-11.491-0.462-17.235c-0.089-2.857-0.212-5.712-0.371-8.568
					c0.31-11.811,0.619-23.621,0.927-35.433c0.635-5.999,1.602-11.942,2.901-17.833c1.177-5.327,2.702-10.555,4.576-15.679
					c1.554-4.421,3.52-8.648,5.897-12.681c2.169-3.921,4.625-7.653,7.368-11.196c3.608-5.041,8.422-9.114,13.124-13.067
					c6.021-5.063,13.293-8.436,20.443-11.528c9.287-4.015,19.592-5.846,29.483-7.642c4.09-0.554,8.191-0.986,12.306-1.295
					c4.202-0.317,8.409-0.544,12.621-0.683c10.793-0.469,21.626-0.26,32.425-0.176c18.699,0.146,37.398,0.1,56.098,0.143
					c28.989,0.068,57.965,0.759,86.941,1.575c25.581,0.72,51.105-0.068,76.668-0.998c13.156-0.554,26.314-1.067,39.474-1.539
					c6.585-0.169,13.17-0.336,19.755-0.505c3.75-0.092,7.469,0.206,11.157,0.893c3.531,0.664,6.957,1.686,10.275,3.062
					c4.88,1.735,9.066,4.906,13.12,8.008c2.521,2.143,4.778,4.535,6.771,7.174c4.793,5.679,6.942,13.563,7.344,20.79
					c0.052,0.917,1.476-1.002,1.432-0.95c0.671-0.806,1.32-1.626,1.95-2.465C764.087,50.79,764.378,50.327,764.585,49.815z"/>
				<path opacity="0.1091" fill="#FFFFFF" d="M762.176,55.409c-0.116-1.521-0.234-3.042-0.351-4.562
					c-0.517-3.149-1.463-6.164-2.843-9.041c-1.863-4.735-5.496-8.582-8.85-12.266c-3.602-3.958-8.463-6.62-13.067-9.167
					c-4.938-2.729-10.499-3.83-15.951-4.924c-1.914-0.165-3.829-0.328-5.744-0.493c-8.632,0.079-17.258,0.345-25.881,0.799
					c-19.817,0.708-39.626,1.759-59.44,2.53c-19.13,0.743-38.21,0.65-57.344,0.269c-11.244-0.389-22.491-0.705-33.741-0.945
					c-11.771-0.251-23.542-0.431-35.314-0.539c-24.793-0.303-49.589-0.012-74.383-0.189c-12.972-0.093-25.909-0.08-38.867,0.574
					c-12.458,0.629-24.573,2.729-36.6,5.967c-5.768,1.554-11.178,4.019-16.564,6.545c-7.305,3.424-13.506,8.597-19.402,13.99
					c-4.746,4.344-8.307,9.826-11.801,15.156c-3.896,5.946-6.41,12.705-8.898,19.307c-2.905,7.71-4.187,16.027-5.581,24.096
					c-1.646,9.524-1.798,19.293-2.076,28.923c-0.186,6.457,0.256,12.81,0.554,19.237c0.198,4.282,0.31,8.567,0.432,12.852
					c0.3,10.544,0.365,21.095,0.456,31.641c0.4,47.017,0.362,94.036,0.531,141.054c1.104,306.845,1.931,613.69,2.64,920.535
					c0.896,388.05,1.542,776.101,1.642,1164.153c0.083,323.864,0.094,647.738-1.988,971.597
					c-0.347,53.922-0.711,107.847-1.329,161.769c-0.235,20.543-0.511,41.086-0.833,61.629c-0.138,8.864-0.294,17.725-0.462,26.586
					c-0.076,4.066-0.159,8.13-0.242,12.194c-0.104,4.969-0.379,9.913,0.029,14.868c0.29,3.513,2.972,6.164,5.236,8.521
					c2.606,2.71,6.563,3.718,9.999,4.8c3.648,1.151,7.509,1.182,11.289,1.326c3.442,0.133,6.851-0.23,10.271-0.557
					c2.633-0.249,5.245-0.653,7.863-1.011c7.085-0.969,18.215,0.546,22.691,0.772c44.949,2.272,89.927,3.552,134.924,4.315
					c77.055,1.31,154.141-0.11,231.142-3.086c8.374-0.324,16.772-0.285,25.071-1.459c3.36-0.477,5.794-2.151,8.384-4.181
					c0.726-1.032,1.45-2.067,2.175-3.1c1.244-2.395,2.062-4.925,2.455-7.594c0.249-2.682,0.303-5.367,0.157-8.056
					c0.009-1.948-0.154-3.881-0.492-5.794c-0.534-3.712-0.49-7.496-0.554-11.235c-0.072-4.178-0.122-8.354-0.188-12.532
					c-0.189-11.798-0.177-23.618-0.112-35.416c0.188-34.901-0.06-69.812-0.076-104.713c-0.051-110.563,0.099-221.128,0.142-331.689
					c0.256-649.876,0.911-1299.752,1.365-1949.625c0.117-167.936,0.12-335.872,0.143-503.809
					c0.005-44.095-0.261-88.189-0.276-132.284c-0.008-23.541,0.161-47.087,0.215-70.628c0.068-29.005-0.248-58.008-0.308-87.011
					c-0.106-51.133-0.227-102.262-0.527-153.393c-0.133-22.453-0.339-44.91-0.347-67.362c-0.002-4.843,0.02-9.686,0.046-14.529
					c0.011-1.943,0.007-3.905,0.18-5.842c-0.022,0.109-0.045,0.22-0.065,0.329c0.049-0.233,0.097-0.468,0.146-0.703
					c-0.408,0.067-0.742,0.277-1.002,0.633c-1.671,1.549-3.23,3.268-4.746,4.965c-1.816,2.033-1.79,1.82-2.672,3.524
					c-0.406,0.786-1.098,1.661-1.541,2.421c-1.01,1.733-1.979,3.478-2.888,5.265c-0.424,0.832-0.367,1.252-0.053,2.075
					c0.08-0.035,0.161-0.069,0.242-0.104c3.69-2.332,2.355-1.11,5.042-4.431c0.842-1.041,2.308-3.486,2.748-4.81
					c1.998-6,2.887-12.132,3.878-18.364c0.652-4.1,0.806-8.175,1.023-12.315c0.396-7.567,0.267-15.196,0.332-22.771
					c0.21-24.804,0.119-49.607,0.046-74.413c-0.407,0.055-0.742,0.257-1.008,0.604c-1.043,0.979-2.059,1.983-3.048,3.014
					c-1.007,1.016-1.985,2.057-2.936,3.122c-0.343,0.274-0.534,0.615-0.58,1.021c0.093,17.248,0.184,34.495,0.295,51.742
					c0.047,7.506,0.037,14.958-0.313,22.457c-0.275,5.897,0.003,11.893-0.023,17.798c0.066,3.083-0.029,6.164-0.286,9.236
					c-0.258,4.377-1.25,8.431-2.266,12.633c-0.093,0.761-0.186,1.524-0.277,2.285c-0.184,1.273-0.426,2.534-0.728,3.786
					c-0.132,0.491-0.265,0.984-0.397,1.475c1.427,2.228,0.866,4.625-1.681,7.193c1.021-1.709,2.04-3.419,3.061-5.126
					c0.077-0.235,0.156-0.469,0.234-0.703c-0.62,1.11-1.242,2.22-1.862,3.332c1.185-1.921,2.586-3.668,3.945-5.462
					c1.266-1.314,2.513-2.646,3.739-3.996c1.594-1.599,2.971-3.363,4.132-5.298c0.032-0.106,0.063-0.213,0.096-0.32
					c-0.148-0.174-0.297-0.349-0.444-0.523c-0.347-0.407-4.129,3.677-4.089,3.636c-0.289,0.298-3.85,3.312-3.549,4.165
					c0.144,0.405,0.053,0.869,0.039,1.294c-0.04,1.157-0.049,2.318-0.065,3.477c-0.076,5.393-0.05,10.784-0.155,16.178
					c-0.093,4.764-0.026,9.512,0.14,14.272c0.224,6.382,0.172,12.738,0.148,19.123c-0.082,22.356-0.057,44.715,0.336,67.068
					c0.297,16.905,0.172,33.83,0.215,50.738c0.043,17.414,0.037,34.827,0.047,52.239c0.022,34.788,0.318,69.573,0.32,104.361
					c0,35.865-0.503,71.727,0.27,107.583c0.021,0.955-0.232,1.932-0.227,2.904c0.012,1.94,0.021,3.881,0.03,5.819
					c0.106,22.4,0.109,44.801,0.034,67.201c-0.129,38.439-0.173,76.879-0.22,115.315c-0.014,11.386-0.027,22.771-0.02,34.154
					c0.004,6.17,0.451,12.33,0.441,18.508c-0.011,6.159-0.021,12.321-0.03,18.483c-0.047,28.772-0.086,57.545-0.123,86.318
					c-0.083,63.835-0.148,127.67-0.213,191.508c-0.156,153.112-0.29,306.228-0.42,459.34
					c-0.289,343.609-0.575,687.219-0.775,1030.828c-0.088,153.763-0.166,307.526-0.184,461.289
					c-0.007,64.35,0,128.699,0.032,193.049c0.014,26.982,0.034,53.961,0.063,80.94c0.014,12.232,0.26,24.468-0.439,36.684
					c0.002,1.996,0.003,3.995,0.005,5.991c0.003,3.931,0.007,7.864,0.01,11.795c0.007,7.607,0.014,15.211,0.023,22.818
					c0.046,39.248,0.103,78.495,0.29,117.74c0.064,13.221-0.16,26.437-0.027,39.654c0.053,5.219,0.112,10.434,0.097,15.651
					c-0.015,4.98,0.487,10.019,0.185,14.984c-0.104,1.711-0.222,3.425-0.341,5.136c-0.083,1.179-0.544,2.463-0.829,3.609
					c-0.405,1.633-0.627,2.638-0.718,4.41c-0.122,2.355-1.188,4.584-1.96,6.771c-0.836,2.364-3.438,3.493-5.487,4.454
					c-0.791,0.175-1.585,0.349-2.376,0.523c-1.833,0.401-3.685,0.642-5.559,0.723c-0.939,0.035-1.881,0.071-2.822,0.11
					c-12.803,0.554-25.607,1.047-38.414,1.483c-25.617,0.934-51.248,1.456-76.878,1.919c-76.919,1.395-153.867,0.169-230.737-2.691
					c-20.928-0.777-41.833-1.959-62.772-2.408c-5.481-0.119-10.932-0.572-16.103-2.478c-0.689-0.237-1.377-0.479-2.066-0.717
					c-1.359-0.604-2.536-1.459-3.53-2.566c-1.975-1.788-2.753-3.46-3.578-5.954c-0.991-3.001-0.479-6.591-0.401-9.666
					c0.097-3.893,0.184-7.782,0.271-11.671c0.446-19.688,0.764-39.375,1.059-59.063c0.158-10.569,0.296-21.142,0.43-31.713
					c0.146-11.549,0.471-23.109,0.155-34.652c-0.339-12.391,0.03-24.806,0.156-37.202c0.155-15.416,0.291-30.835,0.422-46.251
					c1.175-138.519,1.633-277.045,1.984-415.569c0.94-369.265,0.658-738.53,0.161-1107.796
					c-0.498-370.981-1.354-741.962-2.494-1112.944c-0.349-113.773-0.733-227.544-1.183-341.317
					c-0.177-44.938-0.37-89.878-0.585-134.817c-0.05-10.463-0.21-20.927-0.011-31.39c0.327-3.902,0.422-7.811,0.285-11.725
					c-0.026-5.874-0.053-11.747-0.079-17.621c-0.083-17.989-0.173-35.979-0.266-53.966c-0.073-14.039-0.148-28.078-0.238-42.117
					c-0.044-6.9-0.079-13.796-0.019-20.695c0.091-2.456,0.188-4.908,0.292-7.362c0.068-3.419,0.134-6.836,0.201-10.255
					c0.237-6.232,0.764-12.44,1.581-18.623c0.723-5.47,1.75-10.882,3.08-16.237c1.537-6.979,4.245-13.459,7.283-19.88
					c2.068-3.361,4.164-6.703,6.288-10.029c3.059-4.836,7.262-8.837,11.396-12.718c6.663-6.255,15.138-10.205,23.489-13.598
					c3.524-1.28,7.102-2.385,10.735-3.313c5.781-1.631,11.816-2.656,17.716-3.737c4.024-0.487,8.059-0.863,12.104-1.128
					c6.268-0.497,12.573-0.579,18.857-0.708c10.845-0.226,21.702,0.026,32.547,0.073c4.314-0.09,8.626-0.017,12.935,0.221
					c6.097-0.002,12.194-0.004,18.291-0.007c12.058,0.023,24.118,0.109,36.176,0.259c29.138,0.284,58.262,1.379,87.394,2.021
					c12.685,0.084,25.367-0.031,38.049-0.349c19.214-0.326,38.423-1.042,57.636-1.439c7.91-0.531,15.802-0.478,23.679,0.164
					c4.622,0.306,9.077,2.187,13.259,3.986c6.847,2.948,11.968,8.397,16.289,14.265c1.528,2.373,2.749,4.893,3.661,7.561
					c1.583,3.872,1.664,8.209,1.712,12.304c0.407-0.03,0.752-0.212,1.034-0.541c1.089-0.912,2.153-1.851,3.193-2.817
					c1.055-0.951,2.083-1.928,3.086-2.932C761.899,56.138,762.11,55.812,762.176,55.409z"/>
			</g>
		</g>
	</g>
</g>
</svg>
