<?xml version="1.0" encoding="utf-8"?>
<!-- Generator: Adobe Illustrator 16.0.0, SVG Export Plug-In . SVG Version: 6.00 Build 0)  -->
<!DOCTYPE svg PUBLIC "-//W3C//DTD SVG 1.1//EN" "http://www.w3.org/Graphics/SVG/1.1/DTD/svg11.dtd">
<svg version="1.1" id="Layer_1" xmlns="http://www.w3.org/2000/svg" xmlns:xlink="http://www.w3.org/1999/xlink" x="0px" y="0px"
	 width="300px" height="7000px" viewBox="0 0 300 7000" enable-background="new 0 0 300 7000" xml:space="preserve">
<g>
	<image overflow="visible" opacity="0.75" width="312" height="6995" xlink:href="5A69413E.png"  transform="matrix(1 0 0 1 -5 0)">
	</image>
	<g>
		<path fill="#F2F2F2" d="M271.566,46.485c-0.037-12.938-10.646-23.36-23.583-23.136c-24.863,0.429-50.542,2.334-74.644,1.382
			c-21.228-0.839-45.064-1.133-69.048-1.042c-42.712,0.163-88.419-6.813-88.163,66.615c0.998,286.307,5.694,6571.162,0,6855.846
			c-0.256,12.795,15.16,9.35,18.295,9.523c75.391,4.17,151.047,4.502,226.48,0.992c2.627-0.121,5.472-0.324,7.44-1.885
			c2.502-1.98,2.669-5.361,2.65-8.352c-0.527-83.004,1.249-5968.292,0.722-6051.297c-0.188-29.582,0.188-56.125,0-85.708
			c-0.208-32.689-0.048-266.589-0.256-299.28C270.477,354.971,272.01,201.533,271.566,46.485z"/>
		<g>
			<g>
				<path opacity="0.1091" fill="#FFFFFF" d="M281.828,37.073c-0.146-1.142-0.293-2.284-0.439-3.426
					c-0.652-2.468-1.639-4.794-2.962-6.98c-1.957-3.854-5.601-6.61-8.887-9.215c-3.702-2.933-8.451-4.195-12.9-5.37
					c-1.625-0.212-3.25-0.425-4.875-0.637c-7.287-0.014-14.566,0.297-21.834,0.936c-5.411,0.31-10.821,0.62-16.231,0.93
					c-15.495,1.125-31.003,1.509-46.522,1.149c-4.473-0.114-8.946-0.227-13.418-0.341c-9.341-0.195-18.683-0.312-28.025-0.347
					c-11.286-0.091-22.575,0.014-33.861,0.126c-6.438,0.063-12.877-0.029-19.318,0.061c-9.398,0.132-18.569,1.215-27.661,3.589
					c-4.293,1.12-9.131,3.067-12.82,5.563c-1.302,0.88-2.606,1.762-3.909,2.644c-2.635,1.96-5.027,4.183-7.174,6.67
					c-3.801,3.937-6.216,8.964-8.623,13.79C9.53,51.905,8.342,58.42,7.074,64.578C4.968,74.819,5.249,85.47,5.496,95.848
					c0.033,1.414,0.539,3.037,0.75,4.485c0.201,1.385,0.322,2.783,0.45,4.177c0.257,2.805,0.408,5.624,0.494,8.44
					c0.219,7.218,0.188,14.445,0.216,21.666c0.076,19.728,0.079,39.457,0.116,59.186c0.116,61.603,0.164,123.206,0.241,184.81
					c0.051,40.997,0.098,81.994,0.144,122.991c0.025,21.906,0.049,43.813,0.072,65.719c0.026,25.234,0.264,50.477,0.014,75.709
					c-0.245,24.719,0.054,49.457,0.078,74.177c0.029,28.219,0.057,56.439,0.083,84.66c0.057,58.242,0.109,116.485,0.161,174.727
					c0.116,130.6,0.221,261.198,0.324,391.797c0.238,305.138,0.439,610.276,0.62,915.415c0.41,685.896,0.69,1371.792,0.806,2057.688
					c0.098,595.938,0.098,1191.875-0.456,1787.813c-0.179,192.723-0.335,385.445-0.915,578.167
					c-0.171,57.503-0.335,115.009-0.712,172.511c-0.117,17.463-0.223,34.928-0.452,52.39c-0.072,5.519-0.13,11.038-0.25,16.558
					c-0.045,2.022-0.1,4.045-0.16,6.068c-0.069,2.339,0.66,3.385,1.587,5.434c1.147,1.787,2.678,3.148,4.594,4.086
					c2.122,1.13,4.361,1.927,6.72,2.395c3.402,0.941,7.019,0.653,10.487,0.482c2.687-0.131,5.376-0.609,8.028-1.039
					c7.661-1.24,14.46-0.033,22.854,0.23c6.36,0.273,12.72,0.545,19.08,0.819c12.71,0.468,25.422,0.825,38.137,1.071
					c38.021,0.902,76.061,0.297,114.068-0.789c6.324-0.234,12.646-0.469,18.971-0.703c7.07,0.127,14.099-0.246,21.085-1.117
					c0.817-0.156,1.627-0.345,2.43-0.561c1.705-0.539,3.16-1.479,4.364-2.813c0.587-0.966,1.173-1.932,1.759-2.898
					c0.978-2.328,1.549-4.753,1.714-7.271c0.425-2.824,0.253-6.019-0.278-8.816c-0.421-2.219-0.769-4.426-0.984-6.672
					c-0.431-4.469-0.452-9.027-0.472-13.512c-0.158-36.336-0.032-72.672-0.066-109.004c-0.155-162.328-0.006-324.654,0.001-486.98
					c0.026-565.549,0.139-1131.099,0.248-1696.648c0.129-661.934,0.278-1323.864,0.414-1985.797
					c0.1-488.661,0.141-977.32,0.197-1465.981c0.007-58.474,0.012-116.95,0.028-175.426c0.01-33.016-0.133-66.033-0.066-99.049
					c0.012-5.928,0.024-11.859-0.045-17.787c-0.266-22.871-0.007-45.75,0.039-68.621c0.026-13.045-0.116-26.089-0.152-39.134
					c-0.094-34.145-0.027-68.293-0.036-102.438c-0.017-64.844,0.337-129.699-0.249-194.539
					c-0.638-70.805-0.189-141.631,0.007-212.438c0.215-77.262,0.45-154.524,0.249-231.788c-0.001-0.865-1.381,0.74-1.35,0.708
					c-0.632,0.666-1.244,1.348-1.838,2.048c-0.352,0.345-0.624,0.741-0.817,1.186c0.189,77.262-0.039,154.521-0.257,231.784
					c-0.109,38.583-0.184,77.167-0.2,115.751c-0.009,19.329,0.03,38.658,0.073,57.985c0.049,12.897,0.089,25.793,0.12,38.69
					c0.806,7.459,0.854,14.892,0.145,22.299c-0.364,4.277-0.059,8.775,0.026,13.055c0.123,6.277,0.087,12.545,0.07,18.824
					c-0.044,16.658-0.044,33.315-0.052,49.973c-0.021,43.193-0.015,86.386,0.033,129.578c0.02,16.778,0.053,33.554,0.135,50.33
					c-0.056,2.161-0.112,4.32-0.169,6.479c0.021,4.012,0.044,8.025,0.067,12.039c0.025,4.429,0.234,8.839,0.158,13.27
					c-0.213,12.389-0.007,24.818-0.032,37.209c-0.034,17.188-0.09,34.362,0.089,51.548c0.01,0.994-0.003,1.987-0.003,2.981
					c-0.003,9.409,0.063,18.818,0.016,28.228c-0.226,44.193,0.066,88.39,0.027,132.583c-0.064,74.429-0.086,148.857-0.109,223.285
					c-0.008,21.91-0.014,43.82-0.021,65.731c-0.003,11.5-0.007,23.002-0.008,34.503c-0.003,14.007,0.214,28.009,0.209,42.016
					c-0.024,53.263-0.042,106.526-0.06,159.789c-0.042,122.42-0.076,244.841-0.109,367.261
					c-0.081,293.632-0.154,587.266-0.216,880.899c-0.143,664.366-0.301,1328.732-0.417,1993.098
					c-0.053,303.308-0.106,606.616-0.123,909.924c-0.007,129.693-0.013,259.387-0.012,389.08c0,57.518,0.012,115.032,0.016,172.55
					c0.001,25.655,0.009,51.312,0.013,76.968c0.003,12.326,0.007,24.653,0.008,36.98c0.002,13.805-0.216,27.602-0.214,41.409
					c0.007,84.968,0.027,169.934,0.08,254.899c0.034,56.253-0.072,112.506,0.087,168.756c0.044,16.059-0.124,32.121,0.077,48.178
					c0.06,4.772,0.059,9.535,0.258,14.307c0.218,5.182,1.578,10.686,0.67,15.825c-0.115,0.948-0.229,1.896-0.346,2.843
					c-0.313,1.887-0.971,3.644-1.973,5.271c-1.403,2.856-4.679,3.816-7.499,4.348c-0.697,0.067-1.396,0.135-2.094,0.203
					c-12.608,0.614-25.222,1.121-37.838,1.522c-18.93,0.681-37.874,0.88-56.814,1.078c-37.917,0.397-75.845-0.594-113.722-2.235
					c-6.022-0.262-15.497-0.311-22.969,0.209c-3.204,0.223-6.328,0.49-9.546,0.422c-2.931-0.06-5.621-0.93-8.339-1.921
					c-4.411-1.608-6.359-5.24-6.935-9.972c-0.231-1.898,0.139-4.067,0.188-5.981c0.159-6.053,0.184-12.105,0.278-18.159
					c0.674-43.229,0.591-86.474,0.793-129.705c0.337-71.978,0.527-143.955,0.702-215.934c0.234-97.359,0.211-194.715,0.345-292.074
					c0.162-118.883,0.278-237.767,0.371-356.65c0.483-620.548,0.422-1241.098,0.283-1861.646
					c-0.152-680.784-0.474-1361.567-0.92-2042.351c-0.191-291.441-0.406-582.882-0.665-874.322
					c-0.106-120.972-0.222-241.944-0.352-362.917c-0.106-99.575-0.05-199.142-0.174-298.719
					c-0.133-107.181-0.146-214.366-0.467-321.545c-0.044-14.677,0.011-29.357-0.113-44.032c-0.046-5.497-0.022-10.989-0.206-16.482
					c-0.166-4.961-0.605-9.92-1.079-14.86c-0.411-3.618-0.538-7.255-0.38-10.911c-0.101-7.375,1.034-14.524,2.186-21.774
					c0.767-4.118,1.877-8.142,3.332-12.068c4.417-13.629,16.324-24.435,29.704-29.71c6.958-2.743,14.762-3.437,22.138-4.061
					c7.874-0.668,15.849-0.454,23.743-0.435c17.509,0.044,35.012-0.086,52.52,0.08c9.019,0.133,18.035,0.324,27.051,0.576
					c15.46,0.379,30.857-0.303,46.297-0.984c12.42-0.714,24.849-1.068,37.291-1.066c4.416,0.582,8.15,2.312,12.007,4.403
					c3.562,1.934,6.122,5.116,8.576,8.219c2.71,3.428,3.736,8.423,4.044,12.599c0.026,0.366,2.454-1.753,2.361-1.667
					C280.408,38.899,281.928,37.844,281.828,37.073z"/>
				<path opacity="0.1091" fill="#FFFFFF" d="M283.193,38.748c-2.218-6.562-0.103-0.456-4.695-10.21
					c-0.629-1.337-1.392-2.724-2.458-3.731c-1.089-1.031-2.179-2.061-3.268-3.092c-2.405-2-5.021-3.671-7.848-5.013
					c-4.357-2.417-9.299-2.917-14.138-3.412c-0.058-0.005-0.117-0.009-0.176-0.015c-7.174,0.199-14.342,0.559-21.502,1.08
					c-10.75,0.602-21.501,1.204-32.251,1.808c-10.262,0.501-20.527,0.616-30.798,0.346c-4.472-0.116-8.942-0.234-13.415-0.35
					c-9.359-0.187-18.718-0.295-28.079-0.325c-12.934-0.096-25.867,0.14-38.802,0.159c-9.578,0.012-19.061,0.063-28.601,1.021
					c-7.78,0.782-15.135,3.055-22.223,6.237c-3.202,1.437-5.307,3.082-8.161,5.077c-4.202,2.936-7.307,7.034-10.373,11.051
					c-3.504,4.59-5.494,10.255-7.481,15.589c-3.271,8.781-3.896,18.495-4.6,27.733c-0.05,2.744-0.1,5.487-0.151,8.23
					c-0.421,3.538-0.229,7.006,0.576,10.403c0.31,1.505,0.542,3.023,0.771,4.54c0.421,2.792,0.533,5.592,0.63,8.408
					c0.234,6.917,0.202,13.843,0.226,20.76c0.066,19.101,0.076,38.201,0.105,57.301c0.222,147.64,0.361,295.278,0.504,442.917
					c0.523,544.34,0.896,1088.681,1.214,1633.023c0.403,685.637,0.701,1371.273,0.811,2056.912
					c0.096,597.991,0.126,1195.985-0.408,1793.978c-0.174,194.585-0.367,389.167-0.923,583.751
					c-0.167,58.662-0.352,117.324-0.7,175.986c-0.106,18.104-0.229,36.207-0.433,54.309c-0.065,5.842-0.14,11.685-0.242,17.525
					c-0.039,2.203-0.083,4.407-0.136,6.611c-0.043,1.738,0.103,2.734,0.435,4.611c0.343,1.943,2.137,3.652,3.332,5.015
					c0.977,0.621,1.953,1.243,2.93,1.864c2.282,1.125,4.68,1.898,7.19,2.321c3.592,0.88,7.409,0.511,11.044,0.261
					c2.881-0.195,5.756-0.788,8.584-1.342c0.656-0.127,1.312-0.252,1.968-0.377c13.139,0.584,26.279,1.135,39.421,1.652
					c38.063,1.548,76.165,1.61,114.25,1.17c18.998-0.22,37.988-0.936,56.974-1.648c8.522-0.318,15.82,0.195,23.627-1.802
					c6.348-1.624,7.331-9.054,7.989-14.453c0.575-4.731-0.596-9.459-1.314-14.101c-0.685-4.424-0.933-8.74-0.903-13.207
					c0.09-13.331-0.06-26.67-0.066-40c-0.013-21.68-0.016-43.359-0.02-65.04c-0.029-160.151-0.015-320.302,0.004-480.453
					c0.069-563.194,0.169-1126.388,0.292-1689.582c0.145-662.306,0.283-1324.612,0.407-1986.919
					c0.094-491.727,0.208-983.455,0.203-1475.181c0-94.222,0.055-188.443-0.068-282.665c-0.102-76.403-0.148-152.807-0.158-229.21
					c-0.01-64.862,0.119-129.725-0.271-194.584c-0.892-148.077,0.64-296.16,0.249-444.237c-0.002-0.714-1.265-0.011-1.265,0.452
					c0.405,155.514-1.175,311.03-0.106,466.542c0.187,27.322,0.101,54.647,0.112,81.97c0.018,43.187,0.015,86.375,0.024,129.562
					c0.017,67.301,0.105,134.6,0.163,201.899c0.105,118.71,0.06,237.419,0.056,356.128
					c-0.014,516.714-0.143,1033.428-0.232,1550.144c-0.118,664.368-0.274,1328.738-0.411,1993.106
					c-0.112,542.334-0.209,1084.668-0.268,1627.002c-0.014,141.123-0.031,282.248,0.019,423.371
					c0.006,16.03,0.021,32.064,0.024,48.095c0.002,4.655,0.033,9.31,0.012,13.966c-0.022,4.634,1.069,9.248,1.663,13.828
					c-0.701,5.125-1.403,10.25-2.104,15.373c-0.716,2.035-2.032,3.496-3.95,4.389c-0.762,0.313-1.524,0.627-2.285,0.94
					c-7.641,1.86-15.441,2.458-23.401,1.794c-37.918,1.713-75.885,1.984-113.834,1.771c-18.987-0.105-37.967-0.689-56.945-1.273
					c1.089,0.033-39.403-1.527-38.172-1.702c-1.733,0.246-3.45,0.581-5.174,0.888c-3.984,0.712-7.934,0.887-11.971,0.775
					c-3.476-0.096-6.763-1.36-9.916-2.668c-3.756-1.559-6.149-5.547-6.046-9.689c0.054-2.125,0.097-4.252,0.136-6.379
					c0.116-6.245,0.191-12.491,0.26-18.736c0.484-43.846,0.62-87.694,0.801-131.541c0.301-72.586,0.464-145.172,0.611-217.758
					c0.44-217.055,0.629-434.109,0.782-651.165c0.433-621.469,0.348-1242.938,0.209-1864.408
					c-0.151-680.496-0.483-1360.992-0.905-2041.487c-0.317-510.583-0.68-1021.163-1.208-1531.746
					C8.831,385,8.718,277.11,8.545,169.221c-0.022-14.474-0.035-28.947-0.1-43.419c-0.022-5.012-0.082-10.022-0.226-15.031
					c-0.066-2.293-0.25-4.493-0.624-6.757c-0.229-1.378-0.512-2.746-0.803-4.112c-1.203-5.635-0.548-12.226-0.47-17.967
					c0.234-4.827,0.704-9.629,1.412-14.409c0.771-6.238,2.77-12.14,4.909-18.004c1.408-3.375,3.12-6.587,5.138-9.636
					c2.546-4.262,6.34-7.607,10.053-10.794c8.226-7.061,19.3-9.498,29.696-11.066c9.363-1.415,19.064-1.056,28.503-1.036
					c17.623,0.039,35.242-0.21,52.866-0.095c9.064,0.088,18.126,0.266,27.187,0.533c15.565,0.382,31.037-0.433,46.57-1.287
					c5.461-0.33,10.921-0.671,16.38-1.026c5.492-0.315,10.984-0.629,16.477-0.945c5.045-0.478,9.953,0.031,14.724,1.523
					c4.424,1.077,8.356,4.17,11.889,6.848c1.356,1.029,8.638,12.915,10.19,16.396C282.539,39.435,283.353,39.221,283.193,38.748z"/>
				<path opacity="0.1091" fill="#FFFFFF" d="M279.771,37.49c-0.121-1.167-0.243-2.333-0.366-3.501
					c-0.541-2.478-1.478-4.797-2.808-6.958c-1.878-3.73-5.374-6.371-8.547-8.89c-3.499-2.779-8.081-3.952-12.296-5.006
					c-1.542-0.191-3.084-0.383-4.627-0.576c-7.041,0.084-14.074,0.385-21.101,0.899c-15.82,0.781-31.594,1.604-47.433,1.995
					c-5.028-0.06-10.057-0.121-15.085-0.18c-9.068-0.31-18.139-0.53-27.211-0.664c-20.828-0.408-41.67-0.144-62.5-0.155
					c-9.401-0.005-18.64,0.644-27.873,2.421c-4.465,0.859-8.638,2.554-12.791,4.336c-4.273,1.834-7.852,4.748-11.396,7.675
					c-3.867,3.196-6.58,7.611-9.189,11.801c-3.078,4.944-4.651,10.673-6.298,16.19c-1.967,6.588-2.398,13.728-3.028,20.526
					c-0.322,5.489-0.368,10.981-0.136,16.477c0.21,0.954,0.389,1.914,0.536,2.879c0.919,5.442,0.625,11.136,0.723,16.634
					c0.134,7.529,0.104,15.064,0.136,22.595c0.088,20.348,0.079,40.697,0.123,61.044C8.94,348.893,8.968,500.755,9.053,652.615
					c0.309,549.452,0.971,1098.903,1.3,1648.355c0.413,686.131,0.711,1372.261,0.8,2058.392
					c0.075,593.879,0.127,1187.758-0.496,1781.636c-0.199,190.841-0.305,381.678-0.91,572.515
					c-0.178,56.346-0.321,112.694-0.724,169.039c-0.121,16.828-0.212,33.66-0.461,50.486c-0.078,5.204-0.123,10.405-0.257,15.608
					c-0.026,0.992-0.056,1.985-0.084,2.978c-0.01,0.305-0.018,0.608-0.028,0.913c-0.018,1.817,0.454,3.496,1.417,5.038
					c1.232,2.763,4.68,3.836,7.19,4.863c3.921,1.609,8.32,1.449,12.45,1.296c2.486-0.094,4.978-0.411,7.449-0.67
					c7.34-0.765,16.188,0.517,22.538,0.849c38.071,1.992,76.211,2.426,114.327,2.373c18.99-0.027,37.975-0.553,56.956-1.079
					c6.319-0.228,12.641-0.458,18.961-0.687c7.041,0.059,14.048-0.296,21.027-1.068c2.658-0.277,4.398-1.473,6.421-3.095
					c1.228-1.761,2.045-3.696,2.453-5.808c0.45-2.298,0.688-4.62,0.712-6.963c0.166-2.97-0.779-5.951-1.123-8.885
					c-0.213-1.819-0.098-3.656,0.063-5.473c0.435-4.928,0.318-9.934,0.292-14.877c-0.213-38.982-0.031-77.967-0.058-116.949
					c-0.111-166.635,0.007-333.267,0.011-499.898c0.013-570.115,0.163-1140.232,0.248-1710.348
					c0.097-661.111,0.279-1322.22,0.414-1983.329c0.098-482.443,0.123-964.886,0.192-1447.328
					c0.012-86.166-0.056-172.332-0.032-258.497c0.003-11.04-0.09-22.077-0.143-33.115c-0.115-23.71,0.102-47.425,0.073-71.136
					c-0.013-10.606-0.134-21.213-0.074-31.82c0.189-33.198-0.055-66.402-0.062-99.6c-0.015-61.455,0.171-122.913-0.233-184.366
					c-0.974-148.076,0.627-296.16,0.246-444.236c-0.504,0.21-0.906,0.558-1.208,1.041c-1.276,1.502-2.523,3.028-3.743,4.577
					c-1.234,1.535-2.441,3.094-3.618,4.676c-0.402,0.403-0.65,0.874-0.743,1.412c0.171,77.258-0.061,154.516-0.267,231.774
					c-0.103,38.592-0.168,77.183-0.175,115.775c-0.004,19.332,0.037,38.664,0.083,57.997c0.039,12.903,0.085,25.807,0.135,38.709
					c1.169,7.473,1.179,14.875,0.03,22.208c-0.016,1.197-0.03,2.393-0.047,3.59c-0.116,3.172-0.073,6.343,0.126,9.513
					c0.226,6.283,0.14,12.532,0.091,18.817c-0.127,16.644-0.136,33.289-0.164,49.933c-0.074,43.196-0.053,86.394,0.055,129.592
					c0.043,16.763,0.305,33.531,0.169,50.293c-0.096,2.162-0.19,4.325-0.286,6.487c0.069,4.043,0.141,8.084,0.213,12.127
					c0.079,4.433,0.361,8.808,0.196,13.24c-0.033,0.93-0.064,1.859-0.098,2.789c0.041,11.467,0.041,22.936,0.001,34.405
					c-0.03,17.233-0.047,34.438,0.275,51.668c0.019,0.96-0.039,1.952-0.041,2.92c-0.019,9.394,0.055,18.789-0.062,28.182
					c-0.093,7.639,0.126,15.273,0.068,22.914c-0.082,10.371-0.119,20.742-0.165,31.113c-0.051,11.657,0.279,23.298,0.236,34.956
					c-0.052,14.534-0.088,29.069-0.12,43.603c-0.169,74.407-0.222,148.813-0.275,223.22c-0.017,21.906-0.03,43.814-0.044,65.72
					c-0.007,11.499-0.012,22.998-0.022,34.496c-0.006,5.891,0.006,11.781,0.016,17.672c0.17,4.148,0.34,8.295,0.511,12.442
					c-0.005,4.008-0.008,8.017-0.012,12.024c-0.048,53.256-0.086,106.512-0.12,159.767c-0.083,122.41-0.139,244.819-0.192,367.228
					c-0.13,293.623-0.222,587.245-0.298,880.867c-0.174,664.365-0.333,1328.73-0.423,1993.096
					c-0.042,303.317-0.078,606.634-0.056,909.951c0.01,129.703,0.026,259.406,0.06,389.109
					c0.015,57.522,0.041,115.046,0.064,172.569c0.012,25.659,0.029,51.318,0.045,76.979c0.007,12.329,0.012,24.662,0.03,36.991
					c0.01,5.875-0.168,11.69-0.534,17.553c0.001,3.975,0.003,7.949,0.006,11.925c0.001,3.935,0.002,7.872,0.004,11.806
					c0.043,110.006,0.067,220.01,0.362,330.014c0.05,18.572,0.523,37.189-0.156,55.752c-0.142,3.859,0.029,7.76,0.047,11.621
					c0.02,4.555,0.042,9.11,0.063,13.667c0.038,7.388,0.096,14.774,0.149,22.162c0.042,5.589-0.153,11.175-0.091,16.765
					c0.058,5.308,0.091,10.615,0.069,15.922c-0.029,7.5,0.423,14.971,0.288,22.473c0.028-0.139,0.059-0.273,0.09-0.411
					c-0.5,1.479-1.083,2.929-1.671,4.376c0.051-0.123,0.101-0.246,0.15-0.369c-0.123,0.287-0.246,0.573-0.369,0.861
					c0.056-0.122,0.109-0.24,0.165-0.363c-0.312,0.674-0.604,1.326-1.014,1.943c0.388-0.279,0.773-0.559,1.161-0.838
					c-0.459,0.238-0.917,0.476-1.377,0.713c-0.101,0.078-0.203,0.156-0.306,0.234c0.238,0.91,0.207,1.81-0.09,2.701
					c-0.261,1.404-2.556,2.039-3.588,2.552c-1.197,0.357-2.421,0.528-3.669,0.515c-0.646-0.008-1.29-0.018-1.934-0.025
					c-12.575,0.563-25.153,1.02-37.735,1.368c-31.475,1.005-62.971,0.928-94.454,0.566c-31.936-0.366-63.842-2.052-95.761-2.997
					c0.123,0.027,0.246,0.053,0.368,0.08c-0.819-0.469-1.668-0.88-2.512-1.303c-0.739-0.371-1.857-0.377-2.668-0.551
					c-0.438-0.158-0.876-0.316-1.313-0.475c-0.778-0.655-1.671-0.943-2.678-0.867c-1.58-0.164-2.335-1.516-2.966-2.739
					c-1.086-2.106-1.218-3.665-1.229-6.034c-0.004-0.926,0.09-1.869,0.133-2.793c0.126-2.664,0.181-5.33,0.246-7.995
					c0.367-14.927,0.229-29.863,0.428-44.792c0.132-9.914,0.23-19.829,0.327-29.744c0.056-5.727,0.029-11.444-0.118-17.169
					c-0.184-7.137,0.017-14.288,0.074-21.427c0.238-30.025,0.396-60.053,0.536-90.081c0.375-80.421,0.596-160.843,0.773-241.265
					c0.05-23.031,0.154-46.063,0.13-69.094c-0.006-6.193-0.256-12.35-0.5-18.535c-0.238-6.02,0.026-12.121,0.041-18.145
					c0.032-14.432,0.061-28.863,0.088-43.295c0.109-55.045,0.201-110.09,0.282-165.135c0.872-587.486,0.825-1174.976,0.776-1762.463
					c-0.058-686.701-0.346-1373.401-0.79-2060.102c-0.36-556.997-0.693-1113.995-1.614-1670.992
					c-0.021-12.319-0.041-24.636-0.068-36.953c-0.014-5.842,0.167-11.626,0.527-17.455c-0.003-1.993-0.006-3.986-0.008-5.978
					c-0.006-3.959-0.011-7.916-0.017-11.873c-0.036-24.807-0.075-49.613-0.114-74.42c-0.069-43.058-0.145-86.118-0.235-129.177
					c-0.076-36.576-0.165-73.153-0.274-109.729c-0.045-15.127-0.098-30.254-0.156-45.38c-0.056-14.51-0.332-29.036-0.13-43.544
					c0.083-5.926,0.234-11.833,0.205-17.761c-0.026-5.607-0.06-11.215-0.093-16.822c-0.061-10.646-0.248-21.296-0.219-31.942
					c0.021-7.884,0.046-15.758-0.018-23.642c-0.052-6.563-0.418-13.17-0.039-19.72c0.125-2.141,0.368-4.236,0.707-6.353
					c0.554-3.452,0.465-5.041,0.656-9.633c0.257-6.229,2.028-12.35,3.377-18.399c1.128-5.055,3.396-9.715,5.792-14.252
					c2.005-3.795,4.976-6.799,7.996-9.769c2.772-2.727,6.453-4.522,9.884-6.223c4.833-2.397,10.293-3.417,15.55-4.357
					c8.853-1.582,18.051-1.452,27.008-1.442c4.761,0.006,9.521,0.086,14.281,0.195c11.079,0.257,22.17,0.181,33.252,0.321
					c13.541,0.17,27.078,0.699,40.609,1.198c14.839,0.547,29.64,0.356,44.481,0.115c5.028-0.124,10.057-0.248,15.084-0.371
					c6.403-1.978,12.511-1.889,18.322,0.266c2.006,0.383,3.87,1.121,5.593,2.215c1.758,0.926,3.299,2.13,4.621,3.615
					c4.418,4.146,5.507,10.204,5.377,15.965c0.515-0.171,0.939-0.486,1.273-0.945c1.371-1.398,2.717-2.822,4.034-4.272
					c1.335-1.436,2.64-2.894,3.919-4.379C279.366,38.468,279.645,38.019,279.771,37.49z"/>
				<path opacity="0.1091" fill="#FFFFFF" d="M279.438,38.715c-0.119-1.146-0.238-2.293-0.357-3.439
					c-0.551-2.438-1.473-4.728-2.764-6.871c-1.846-3.715-5.33-6.392-8.464-8.918c-3.506-2.825-8.055-4.061-12.29-5.202
					c-1.553-0.213-3.105-0.428-4.658-0.641c-7.129-0.115-14.247,0.156-21.357,0.814c-15.864,0.789-31.688,1.586-47.568,1.989
					c-5.037-0.054-10.073-0.109-15.112-0.163c-9.076-0.293-18.158-0.507-27.239-0.637c-20.843-0.396-41.699-0.134-62.545-0.125
					c-9.415,0.002-18.669,0.644-27.921,2.41c-4.49,0.856-8.692,2.544-12.875,4.315c-4.32,1.83-7.955,4.75-11.545,7.683
					c-3.946,3.222-6.72,7.658-9.406,11.891c-3.167,4.991-4.788,10.826-6.472,16.418c-2.013,6.68-2.458,13.909-3.106,20.806
					c-0.317,5.559-0.353,11.12-0.109,16.683c0.204,0.989,0.379,1.983,0.527,2.982c0.896,5.535,0.764,11.276,0.885,16.865
					c0.162,7.53,0.119,15.065,0.149,22.596c0.083,20.345,0.077,40.693,0.119,61.039c0.314,151.864,0.301,303.73,0.46,455.596
					c0.573,549.445,0.956,1098.891,1.284,1648.335c0.408,686.131,0.706,1372.261,0.797,2058.392
					c0.079,593.882,0.125,1187.764-0.484,1781.646c-0.197,190.836-0.318,381.672-0.918,572.509
					c-0.176,56.344-0.327,112.693-0.724,169.038c-0.118,16.828-0.216,33.66-0.459,50.486c-0.076,5.203-0.125,10.406-0.258,15.607
					c-0.026,0.992-0.054,1.984-0.083,2.979c-0.009,0.303-0.018,0.607-0.027,0.91c-0.021,1.847,0.462,3.552,1.446,5.113
					c1.272,2.834,4.883,4.02,7.459,5.092c4.063,1.693,8.751,1.424,13.027,1.236c2.588-0.113,5.176-0.457,7.744-0.775
					c7.391-0.914,16.581,0.342,22.828,0.605c19.079,0.801,38.142,1.464,57.231,1.936c19.018,0.469,38.046,0.427,57.068,0.391
					c18.991-0.036,37.979-0.572,56.96-1.104c6.321-0.232,12.643-0.465,18.963-0.696c7.048,0.079,14.064-0.283,21.044-1.086
					c2.687-0.293,4.402-1.523,6.406-3.206c1.276-1.821,2.116-3.825,2.519-6.019c0.433-2.311,0.634-4.645,0.605-6.998
					c0.11-2.967-0.894-5.878-1.153-8.824c-0.167-1.881,0.009-3.785,0.172-5.658c0.157-1.803,0.008-3.591-0.052-5.4
					c-0.091-2.756-0.124-5.51-0.153-8.267c-0.398-38.321-0.034-76.657-0.073-114.98c-0.165-165.562,0.011-331.124,0.008-496.683
					c-0.007-568.998,0.109-1137.994,0.23-1706.99c0.141-661.323,0.27-1322.647,0.416-1983.971
					c0.106-484.008,0.104-968.015,0.194-1452.021c0.017-87.676-0.152-175.352-0.017-263.027c0.017-11.048-0.093-22.097-0.159-33.146
					c-0.14-23.7,0.057-47.414,0.086-71.114c0.014-10.606-0.166-21.21-0.072-31.816c0.12-13.642-0.036-27.291-0.05-40.931
					c-0.02-19.568-0.023-39.137-0.029-58.706c-0.015-61.447,0.263-122.901-0.227-184.347c-0.563-70.808-0.192-141.631,0.001-212.442
					c0.213-77.262,0.45-154.524,0.252-231.787c-0.369,0.057-0.663,0.253-0.882,0.591c-0.867,0.942-1.708,1.909-2.521,2.899
					c-0.653,0.784-2.826,2.731-2.823,3.974c0.177,77.26-0.053,154.518-0.265,231.777c-0.105,38.587-0.173,77.176-0.185,115.764
					c-0.005,19.332,0.035,38.662,0.08,57.994c0.049,12.897,0.088,25.794,0.119,38.691c0.796,7.451,0.821,14.864,0.078,22.241
					c-0.062,4.376-0.086,8.709,0.058,13.085c0.205,6.285,0.133,12.544,0.092,18.832c-0.109,16.64-0.115,33.279-0.139,49.918
					c-0.063,43.198-0.044,86.394,0.049,129.591c0.036,16.778,0.226,33.558,0.17,50.334c-0.09,2.144-0.18,4.288-0.271,6.43
					c0.056,4.041,0.112,8.081,0.171,12.12c0.063,4.445,0.35,8.837,0.201,13.283c-0.41,12.345-0.062,24.822-0.085,37.177
					c-0.016,5.62-0.031,11.239-0.046,16.858c-0.136,11.567-0.046,23.133,0.27,34.697c-0.09,1.003-0.023,2.04-0.026,3.048
					c-0.017,9.396,0.063,18.792-0.037,28.188c-0.082,7.64,0.108,15.275,0.057,22.914c-0.067,10.368-0.101,20.735-0.139,31.104
					c-0.041,11.66,0.24,23.309,0.204,34.968c-0.045,14.532-0.075,29.063-0.104,43.595c-0.142,74.401-0.188,148.801-0.234,223.2
					c-0.015,21.906-0.026,43.813-0.039,65.719c-0.006,11.498-0.011,22.997-0.019,34.496c-0.002,5.885-0.002,11.771-0.001,17.657
					c0.151,4.163,0.302,8.325,0.451,12.489c-0.003,4.008-0.006,8.017-0.008,12.024c-0.043,53.253-0.075,106.507-0.107,159.76
					c-0.071,122.408-0.121,244.813-0.171,367.22c-0.119,293.62-0.205,587.238-0.278,880.858
					c-0.168,664.365-0.328,1328.729-0.423,1993.094c-0.042,303.318-0.084,606.639-0.07,909.958
					c0.006,129.706,0.016,259.41,0.042,389.116c0.013,57.524,0.034,115.051,0.054,172.574c0.008,25.661,0.023,51.322,0.036,76.98
					c0.006,12.333,0.011,24.662,0.022,36.994c0.005,5.861-0.107,11.669-0.456,17.521c0.002,3.975,0.003,7.948,0.005,11.924
					c0.001,3.935,0.002,7.871,0.004,11.807c0.026,84.988,0.07,169.979,0.179,254.967c0.04,32.032,0.098,64.063,0.185,96.094
					c0.019,6.568,0.043,13.137,0.064,19.703c0.018,5.996-0.262,11.983-0.241,17.974c0.039,11.679,0.085,23.358,0.153,35.038
					c0.096,16.068-0.183,32.144,0.122,48.211c0.095,4.979,0.331,9.93,0.713,14.895c0.158,2.052-0.227,3.959-0.604,5.961
					c-0.139,0.736-0.285,1.47-0.432,2.203c-0.142,0.756-0.321,1.498-0.54,2.232c-0.231,0.351-0.494,0.672-0.789,0.965
					c-0.131,2.106-0.441,3.266-1.622,5.021c-0.518,0.361-1.035,0.723-1.553,1.086c-1.061,0.732-2.229,1.184-3.508,1.355
					c-0.654,0.066-1.311,0.131-1.965,0.197c-6.962,0.102-13.92,0.376-20.872,0.823c-18.892,0.79-37.802,1.095-56.706,1.401
					c-37.854,0.613-75.717-0.243-113.543-1.629c-6.34-0.264-12.681-0.527-19.023-0.791c-7.715,1.831-15.16,1.702-22.335-0.387
					c-2.254-0.624-4.554-0.753-6.84-1.313c-0.628-0.237-1.255-0.476-1.882-0.713c-1.191-0.147-2.299-0.532-3.323-1.159
					c-1.658-0.788-2.48-2.907-3.276-4.403c-1.245-2.343-0.54-5.852-0.424-8.443c0.256-5.701,0.184-11.407,0.313-17.109
					c0.165-7.275,0.035-14.545,0.148-21.816c0.152-9.851,0.265-19.701,0.366-29.553c0.116-11.084,0.239-22.157-0.033-33.238
					c-0.151-6.111,0.1-12.261,0.145-18.373c0.058-7.682,0.109-15.366,0.158-23.049c0.451-70.859,0.671-141.722,0.874-212.582
					c0.13-45.189,0.227-90.381,0.321-135.572c0.025-11.742,0.048-23.486,0.062-35.23c0.008-6.182-0.458-12.354-0.444-18.545
					c0.014-6.076,0.026-12.152,0.039-18.229c0.054-27.268,0.106-54.536,0.155-81.806c0.208-118.069,0.348-236.14,0.464-354.209
					c0.606-618.767,0.541-1237.533,0.422-1856.298c-0.13-681.322-0.453-1362.645-0.945-2043.966
					c-0.213-292.582-0.446-585.163-0.751-877.745c-0.127-121.764-0.267-243.527-0.436-365.291
					c-0.073-53.188-0.213-106.378-0.237-159.566c-0.002-5.834,0.467-11.62,0.458-17.455c-0.008-5.921-0.017-11.844-0.025-17.765
					c-0.017-11.592-0.033-23.182-0.05-34.773c-0.035-23.933-0.072-47.865-0.111-71.797c-0.109-66.941-0.234-133.88-0.419-200.821
					c-0.075-26.472-0.161-52.946-0.282-79.418c-0.051-11.011,0.22-22.01,0.167-33.022c-0.047-9.678-0.1-19.355-0.172-29.033
					c-0.105-14.228-0.106-28.451-0.148-42.678c-0.017-5.396-0.364-10.779-0.381-16.179c-0.005-1.845,0.159-3.679,0.308-5.519
					c0.275-3.431,0.261-6.383,0.333-10.1c0.13-6.626,1.798-13.076,3.088-19.534c0.875-3.68,2.043-7.264,3.506-10.751
					c1.697-4.54,4.574-8.436,7.513-12.213c5.167-6.641,13.135-10.334,20.878-12.936c6.861-2.306,14.331-2.803,21.493-3.291
					c9.394-0.641,18.915-0.318,28.321-0.167c6.382,0.072,12.764,0.09,19.146,0.054c13.948,0.011,27.891,0.352,41.833,0.7
					c4.408,0.134,8.817,0.268,13.227,0.4c9.965,0.327,19.931,0.35,29.896,0.07c15.878-0.202,31.765-1.007,47.624-1.75
					c2.033,0.576,4.07,1.129,6.116,1.658c3.315,0.88,6.155,3.242,8.695,5.396c2.481,2.102,3.932,4.942,5.294,7.81
					c1.288,2.712,1.348,5.971,1.351,8.886c0.368-0.018,0.676-0.183,0.922-0.493c0.94-0.84,1.854-1.707,2.742-2.6
					C276.806,41.849,279.546,39.746,279.438,38.715z"/>
				<path opacity="0.1091" fill="#FFFFFF" d="M282.159,35.909c-0.538-4.441-0.15-2.738-1.611-7.078
					c-1.349-4.01-4.425-7.113-7.287-10.049c-3.25-3.335-7.662-5.154-11.849-6.923c-4.599-1.943-9.844-1.864-14.707-1.798
					c-5.606,0.289-11.214,0.579-16.822,0.868c-15.898,1.023-31.812,1.766-47.739,2.229c-5.05-0.036-10.1-0.073-15.15-0.109
					c-9.091-0.267-18.183-0.457-27.277-0.567c-20.867-0.346-41.743-0.029-62.611,0.014c-9.46,0.021-18.749,0.699-28.04,2.51
					c-6.137,1.196-11.697,3.717-17.15,6.65c-5.977,3.214-10.53,8.444-14.652,13.679c-3.582,4.551-5.639,10.24-7.667,15.571
					c-3.308,8.7-4.016,18.313-4.727,27.491c-0.408,5.257-0.088,11.767,0.04,16.997c0.036,1.43,0.609,3.194,0.853,4.682
					c0.457,2.788,0.671,5.577,0.804,8.396c0.319,6.756,0.27,13.534,0.296,20.294c0.073,18.789,0.081,37.579,0.108,56.368
					c0.222,146.568,0.36,293.138,0.502,439.707C8,1167.897,8.368,1710.958,8.688,2254.017c0.403,685.5,0.691,1371,0.814,2056.501
					c0.106,599,0.126,1198.002-0.4,1797.001C8.93,6303.037,8.72,6498.553,8.186,6694.07c-0.162,59.235-0.349,118.473-0.695,177.709
					c-0.108,18.417-0.235,36.836-0.429,55.254c-0.063,5.998-0.14,11.997-0.238,17.994c-0.038,2.285-0.083,4.568-0.133,6.855
					c-0.022,0.958-0.047,1.918-0.072,2.877c-0.082,3.125,1.827,5.588,3.718,7.814c0.987,0.619,1.973,1.241,2.959,1.862
					c2.281,1.126,4.674,1.913,7.179,2.361c3.552,0.899,7.239,0.532,10.831,0.255c2.749-0.211,5.498-0.809,8.204-1.318
					c7.83-1.478,11.792-0.105,22.363,0.4c38.091,1.826,76.213,2.277,114.34,2.162c19.001-0.057,37.996-0.607,56.987-1.158
					c12.649-0.42,25.295-0.947,37.935-1.584c1.479-0.113,2.927-0.387,4.346-0.822c6.03-1.48,7.376-8.432,8.14-13.609
					c0.642-4.355-0.261-8.604-0.97-12.859c-0.716-4.291-0.918-8.599-0.988-12.939c-0.212-13.009-0.17-26.035-0.12-39.045
					c0.083-21.338-0.142-42.675,0.002-64.012c0.198-29.266-0.03-58.54-0.041-87.805c-0.014-36.624-0.017-73.248-0.021-109.871
					c-0.012-93.172,0.058-186.345,0.06-279.518c0.002-562.054,0.141-1124.107,0.243-1686.162
					c0.122-662.479,0.277-1324.956,0.414-1987.436c0.101-493.252,0.144-986.505,0.202-1479.759
					c0.011-95.787,0.252-191.578-0.042-287.365c-0.02-6.36,0.032-12.72-0.043-19.08c-0.27-22.872-0.005-45.754,0.042-68.626
					c0.026-13.046-0.115-26.092-0.151-39.137c-0.095-34.146-0.028-68.293-0.037-102.439c-0.017-64.838,0.319-129.691-0.245-194.526
					c-0.617-70.808-0.195-141.634,0.002-212.443c0.216-77.264,0.451-154.525,0.25-231.789c-0.003-0.861-1.318,0.783-1.257,0.711
					c-0.561,0.653-1.101,1.323-1.619,2.011c-0.315,0.34-0.55,0.727-0.699,1.158c0.191,77.262-0.037,154.521-0.256,231.784
					c-0.109,38.583-0.187,77.167-0.205,115.75c-0.008,19.329,0.03,38.658,0.073,57.987c0.041,12.903,0.086,25.805,0.136,38.707
					c0.798,7.454,0.842,14.879,0.132,22.278c-0.009,1.192-0.018,2.385-0.027,3.577c-0.066,3.162-0.048,6.323,0.057,9.482
					c0.114,6.277,0.083,12.547,0.067,18.824c-0.04,16.655-0.039,33.312-0.046,49.968c-0.018,43.194-0.012,86.386,0.032,129.58
					c0.018,16.779,0.04,33.559,0.13,50.338c-0.054,2.155-0.106,4.312-0.159,6.466c0.02,4.016,0.042,8.031,0.065,12.046
					c0.024,4.428,0.21,8.839,0.146,13.267c-0.183,12.392,0,24.816-0.025,37.21c-0.036,17.177-0.083,34.344,0.076,51.521
					c0.009,1.005,0.003,2.01,0.003,3.015c-0.003,9.409,0.063,18.818,0.02,28.227c-0.198,44.192,0.063,88.388,0.029,132.582
					c-0.06,74.425-0.081,148.851-0.103,223.277c-0.029,100.684,0.144,201.364,0.11,302.049
					c-0.04,122.418-0.072,244.837-0.104,367.257c-0.079,293.631-0.151,587.263-0.214,880.895
					c-0.14,664.366-0.297,1328.732-0.415,1993.098c-0.054,303.309-0.109,606.617-0.126,909.926
					c-0.008,129.694-0.015,259.389-0.015,389.084c0,57.518,0.008,115.033,0.012,172.551c0.002,25.656,0.008,51.314,0.012,76.97
					c0.001,12.327,0.005,24.653,0.007,36.981c0.001,13.8-0.201,27.592-0.199,41.395c0.007,84.969,0.026,169.938,0.074,254.908
					c0.032,56.252-0.069,112.506,0.082,168.757c0.043,16.058-0.113,32.12,0.073,48.179c0.056,4.731,0.097,9.462,0.227,14.191
					c0.117,4.26,1.209,8.506,1.815,12.719c-0.032,0.947-0.064,1.895-0.095,2.843c-0.055,2.271-0.373,4.501-0.958,6.695
					c-0.392,1.012-0.781,2.024-1.172,3.038c-1.861,3.075-4.401,4.81-7.619,5.201c-0.709,0.098-1.418,0.193-2.126,0.291
					c-12.615,0.625-25.234,1.143-37.857,1.556c-18.941,0.697-37.897,0.915-56.849,1.13c-37.973,0.434-75.947-0.586-113.886-2.096
					c-11.376-0.453-14.041-1.881-21.667-0.33c-4.512,0.92-8.765,1.504-13.363,1.489c-3.404-0.009-6.829-1.509-9.873-2.831
					c-3.924-1.706-5.015-5.026-5.808-9.049c-0.167-0.852,0.048-2.018,0.068-2.886c0.023-1.082,0.044-2.165,0.063-3.247
					c0.115-6.073,0.188-12.146,0.258-18.221c0.494-43.232,0.628-86.471,0.797-129.704c0.283-72.046,0.456-144.092,0.613-216.139
					c0.471-216.188,0.637-432.38,0.785-648.569c0.427-620.6,0.361-1241.198,0.216-1861.797
					c-0.159-680.772-0.476-1361.541-0.903-2042.312C10.391,1518.1,10.031,1006.099,9.5,494.098
					C9.388,386.122,9.276,278.147,9.106,170.171c-0.022-14.41-0.037-28.818-0.088-43.227c-0.018-5.344-0.054-10.688-0.151-16.03
					c-0.042-2.229-0.129-4.454-0.23-6.68c-0.126-2.785-0.646-5.568-1.095-8.317c-0.66-8.502-0.468-16.997,0.576-25.48
					c0.646-6.708,2.436-13.078,4.489-19.456c1.283-3.638,2.94-7.097,4.97-10.375c4.594-8.373,13.157-14.741,21.45-18.792
					c6.756-3.301,14.5-4.408,21.865-5.348c9.36-1.194,18.973-0.855,28.385-0.831c17.533,0.048,35.06-0.105,52.592,0.054
					c9.034,0.128,18.067,0.317,27.1,0.564c15.509,0.375,30.955-0.322,46.443-1.012c10.996-0.563,21.996-1.038,33-1.424
					c4.572-0.18,8.969,1.329,13.201,2.806c3.909,1.365,7.128,4.383,10.062,7.152c4.134,3.902,6.286,10.022,6.684,15.516
					c0.057,0.779,1.215-0.484,1.285-0.551c0.6-0.574,1.181-1.167,1.743-1.779C281.721,36.664,281.979,36.313,282.159,35.909z"/>
				<path opacity="0.1091" fill="#FFFFFF" d="M279.79,36.421c-0.119-1.175-0.238-2.35-0.356-3.525
					c-0.532-2.505-1.47-4.849-2.813-7.033c-1.893-3.78-5.43-6.465-8.639-9.019c-3.549-2.825-8.184-4.013-12.462-5.085
					c-1.565-0.191-3.131-0.383-4.694-0.574c-7.091,0.101-14.175,0.417-21.25,0.949c-15.853,0.814-31.659,1.645-47.527,2.053
					c-5.034-0.057-10.068-0.113-15.101-0.17c-9.074-0.306-18.15-0.523-27.227-0.652c-20.839-0.398-41.69-0.123-62.532-0.125
					c-9.409,0-18.652,0.662-27.89,2.467c-4.475,0.875-8.65,2.594-12.806,4.401c-4.281,1.861-7.857,4.814-11.394,7.776
					c-3.871,3.242-6.57,7.701-9.169,11.932c-3.064,4.99-4.619,10.762-6.248,16.316c-1.943,6.622-2.357,13.78-2.966,20.608
					c-0.305,5.507-0.335,11.016-0.091,16.528c0.217,0.956,0.401,1.918,0.552,2.886c0.942,5.442,0.677,11.15,0.789,16.651
					c0.152,7.532,0.111,15.07,0.144,22.604c0.09,20.348,0.079,40.698,0.123,61.047C8.569,348.313,8.532,500.172,8.68,652.028
					c0.536,549.457,0.972,1098.913,1.301,1648.369c0.411,686.131,0.708,1372.262,0.798,2058.393
					c0.078,593.875,0.126,1187.75-0.494,1781.625c-0.201,190.84-0.303,381.68-0.911,572.52
					c-0.179,56.346-0.32,112.693-0.725,169.035c-0.122,16.828-0.21,33.658-0.464,50.484c-0.078,5.201-0.121,10.402-0.257,15.602
					c-0.026,0.992-0.056,1.984-0.086,2.976c-0.01,0.302-0.02,0.606-0.029,0.909c-0.02,1.824,0.454,3.509,1.423,5.055
					c1.231,2.754,4.702,3.891,7.201,4.939c3.882,1.629,8.402,1.471,12.505,1.363c2.507-0.064,5.021-0.404,7.516-0.651
					c0.587-0.052,1.174-0.104,1.761-0.157c13.346,0.541,26.691,1.096,40.037,1.664c38.04,1.604,76.116,1.738,114.182,1.344
					c18.98-0.197,37.953-0.891,56.921-1.58c7.382-0.268,15.663,0.099,23.183-1.533c7.774-1.689,7.715-12.474,7.516-18.527
					c-0.076-2.298-0.75-4.626-0.908-6.939c-0.134-1.944,0.009-3.905,0.151-5.845c0.155-2.12,0.023-4.308,0.059-6.435
					c0.047-2.922-0.009-5.846-0.021-8.768c-0.162-39.639-0.023-79.277-0.05-118.916c-0.107-167.701,0.009-335.402,0.014-503.103
					c0.019-571.237,0.129-1142.478,0.255-1713.715c0.146-660.888,0.282-1321.775,0.414-1982.662
					c0.096-480.872,0.142-961.743,0.191-1442.616c0.009-85.049-0.068-170.098-0.036-255.146c0.005-16.309-0.14-32.615-0.104-48.925
					c0.145-65.263-0.085-130.531-0.1-195.795c-0.012-64.504-0.047-129.005-0.316-193.51c-0.593-141.622,0.693-283.244,0.329-424.867
					c-0.462,0.195-0.822,0.522-1.079,0.982c-1.104,1.417-2.179,2.857-3.224,4.319c-1.062,1.449-2.095,2.92-3.097,4.411
					c-0.355,0.389-0.555,0.833-0.597,1.333c0.248,109.412-0.342,218.824-0.441,328.236c-0.022,25.768,0.017,51.536,0.078,77.305
					c0.042,12.902,0.085,25.804,0.128,38.707c1.109,7.471,1.128,14.883,0.06,22.237c-0.033,2.63-0.067,5.26-0.106,7.89
					c0.122,3.683,0.242,7.366,0.361,11.049c-0.044,4.32-0.077,8.64-0.101,12.961c-0.052,7.74-0.068,15.48-0.091,23.22
					c-0.166,55.201-0.126,110.406,0.025,165.608c0.03,11.234,0.089,22.469,0.177,33.706c0.065,4.612-0.037,9.219-0.304,13.824
					c0.06,4.029,0.118,8.058,0.181,12.087c0.102,3.23,0.205,6.462,0.311,9.694c-0.072,2.112-0.14,4.224-0.206,6.336
					c0.045,11.469,0.045,22.939,0.004,34.408c-0.032,17.214-0.06,34.403,0.236,51.616c0.02-0.131,0.04-0.264,0.062-0.396
					c-0.317,1.945-0.098,4.067-0.102,6.032c-0.011,4.522,0.017,9.041-0.036,13.562c-0.18,15.337,0.072,30.68-0.003,46.019
					c-0.116,23.643,0.142,47.272,0.082,70.913c-0.079,31.306-0.125,62.61-0.163,93.914c-0.105,83.784-0.148,167.567-0.189,251.351
					c-0.003,5.855-0.01,11.711-0.007,17.566c0.004,6.104,0.233,12.18,0.458,18.28c0.221,6.004-0.01,12.074-0.015,18.082
					c-0.005,6.114-0.009,12.227-0.014,18.339c-0.021,27.465-0.038,54.93-0.057,82.395c-0.036,57.042-0.066,114.083-0.096,171.125
					c-0.303,596.145-0.413,1192.291-0.555,1788.436c-0.155,653.552-0.296,1307.104-0.321,1960.658
					c-0.011,264.04-0.021,528.079,0.072,792.119c0.02,53.776,0.034,107.552,0.074,161.329c0.01,11.9-0.456,23.769-0.452,35.666
					c0.006,11.688,0.01,23.377,0.014,35.064c0.01,24.09,0.02,48.18,0.035,72.27c0.047,75.709,0.081,151.418,0.254,227.125
					c0.023,10.56,0.05,21.12,0.082,31.682c0.027,9.5,0.22,19.013-0.103,28.51c-0.289,8.485-0.048,17.008-0.013,25.498
					c0.032,7.498,0.078,14.996,0.129,22.494c0.045,6.361-0.13,12.72-0.066,19.081c0.053,5.304,0.086,10.604,0.061,15.909
					c-0.035,7.526,0.336,15.053,0.625,22.572c0.015-0.129,0.028-0.258,0.044-0.387c-0.322,1.748-0.714,3.48-1.124,5.209
					c0.029-0.117,0.059-0.236,0.088-0.355c-0.255,1.011-0.504,2.019-0.849,3.004c0.057-0.103,0.113-0.202,0.171-0.303
					c-1.017,0.943-0.765,0.562-0.691,2.382c0.077,1.903-1.17,2.936-2.557,3.886c-1.672,1.146-3.399,1.321-5.356,1.506
					c-0.656,0.009-1.313,0.016-1.967,0.023c-12.584,0.575-25.172,1.043-37.763,1.406c-37.807,1.244-75.644,1.023-113.457,0.299
					c-18.977-0.363-37.948-1.249-56.913-1.996c-7.608,1.808-14.854,1.52-21.733-0.863c-0.515-0.191-1.037-0.36-1.564-0.508
					c-1.605-0.127-3.044-0.39-4.6-0.816c-0.552-0.234-1.103-0.471-1.654-0.705c-1.114-0.059-2.156-0.364-3.125-0.916
					c-1.571-0.67-2.327-2.771-3.04-4.143c-0.829-1.594-0.595-3.756-0.516-5.473c0.239-5.155,0.333-10.309,0.36-15.471
					c0.082-16.17,0.32-32.338,0.504-48.508c0.119-10.524,0.221-21.047,0.253-31.571c0.018-6.034-0.183-12.066-0.136-18.104
					c0.058-7.432,0.112-14.866,0.162-22.299c0.46-69.205,0.684-138.412,0.887-207.617c0.131-44.449,0.236-88.896,0.325-133.344
					c0.023-11.568,0.045-23.141,0.072-34.71c0.014-5.92,0.014-11.839,0.017-17.759c0.001-6.203-0.438-12.396-0.425-18.604
					c0.058-26.917,0.109-53.832,0.158-80.749c1.023-563.775,0.977-1127.555,0.975-1691.33
					c-0.006-687.045-0.266-1374.088-0.673-2061.133c-0.345-581.36-0.714-1162.721-1.489-1744.081
					c-0.072-53.852-0.152-107.703-0.238-161.554c-0.01-6.089-0.026-12.177-0.026-18.266c0-5.808,0.457-11.574,0.449-17.383
					c-0.017-11.761-0.032-23.521-0.05-35.282C16.49,561.311,16.454,537,16.417,512.69c-0.122-77.549-0.256-155.099-0.487-232.647
					c-0.043-14.584-0.093-29.17-0.148-43.754c-0.026-6.677-0.056-13.352-0.087-20.028c-0.035-7.119,0.249-14.23,0.217-21.344
					c-0.09-21.002-0.595-42.038-0.235-63.039c0.126-7.311-0.101-14.635-0.122-21.949c-0.015-5.954-0.457-11.856,0.161-17.801
					c0.102-0.995,0.229-1.989,0.36-2.983c0.045-0.312,0.09-0.623,0.134-0.934c-0.025-5.061,0.311-10.096,1.01-15.106
					c0.388-1.953,0.775-3.906,1.163-5.859c0.67-3.929,1.652-7.778,2.95-11.547c1.446-4.804,3.985-9.034,6.65-13.225
					c4.491-7.064,11.999-11.376,19.485-14.505c3.806-1.59,8.022-2.296,12.047-3.053c5.829-1.099,11.841-1.27,17.75-1.477
					c9.457-0.335,18.946,0.013,28.403,0.139c14.172,0.188,28.337,0.183,42.509,0.459c8.922,0.218,17.841,0.494,26.759,0.826
					c9.896,0.368,19.796,0.444,29.697,0.227c15.591-0.109,31.195-0.807,46.773-1.384c1.872,0.53,3.751,1.041,5.635,1.531
					c1.987,0.797,3.864,1.802,5.629,3.016c2.635,1.61,4.487,4.428,6.105,6.947c2.177,3.391,2.429,7.751,2.385,11.626
					c0.472-0.161,0.85-0.461,1.133-0.899c1.186-1.331,2.343-2.684,3.472-4.061c1.146-1.363,2.262-2.752,3.35-4.162
					C279.493,37.342,279.719,36.914,279.79,36.421z"/>
				<path opacity="0.1091" fill="#FFFFFF" d="M279.843,39.889c-0.132-1.129-0.264-2.259-0.395-3.389
					c-0.601-2.4-1.53-4.664-2.786-6.796c-1.826-3.694-5.292-6.378-8.394-8.899c-3.486-2.833-8.01-4.089-12.229-5.251
					c-1.546-0.22-3.092-0.44-4.64-0.662c-7.134-0.121-14.261,0.151-21.378,0.813c-15.852,0.785-31.665,1.596-47.534,2.005
					c-5.033-0.051-10.067-0.101-15.102-0.152c-9.073-0.279-18.146-0.485-27.221-0.617c-20.738-0.386-41.49-0.133-62.231-0.119
					c-7.96,0.006-15.817,0.465-23.706,1.548c-4.537,0.623-8.866,1.958-13.197,3.381c-4.386,1.44-8.257,3.91-12.074,6.425
					c-4.126,2.718-7.233,6.6-10.291,10.391c-3.51,4.349-5.563,9.791-7.59,14.91c-2.461,6.209-3.321,12.974-4.296,19.524
					c-0.648,5.124-0.976,10.27-0.985,15.436c-0.4,3.46-0.26,6.869,0.42,10.225c0.99,5.571,0.948,11.312,1.084,16.95
					c0.177,7.377,0.14,14.758,0.17,22.137c0.079,20.036,0.077,40.074,0.118,60.11c0.125,62.168,0.163,124.337,0.243,186.505
					c0.115,88.642,0.452,177.289,0.222,265.929c-0.137,53.161,0.111,106.324,0.163,159.486
					c0.057,58.444,0.111,116.888,0.164,175.331c0.118,130.949,0.224,261.897,0.327,392.847
					c0.239,305.625,0.441,611.252,0.623,916.877c0.408,686.015,0.699,1372.031,0.803,2058.046
					c0.088,594.918,0.118,1189.835-0.471,1784.752c-0.19,191.779-0.336,383.557-0.915,575.334
					c-0.171,56.926-0.321,113.855-0.717,170.781c-0.119,17.148-0.215,34.299-0.453,51.444c-0.075,5.364-0.139,10.728-0.252,16.089
					c-0.055,2.613-0.127,5.024,0.209,7.632c0.395,3.046,3.282,4.908,5.556,6.38c2.025,1.02,4.151,1.736,6.379,2.149
					c2.234,0.498,4.492,0.679,6.774,0.542c4.757,0.043,9.409-1.146,14.139-1.301c6.557,0.288,13.113,0.577,19.671,0.865
					c12.724,0.607,25.454,1.1,38.188,1.473c19.034,0.646,38.081,0.768,57.124,0.898c37.98,0.26,75.958-0.987,113.894-2.711
					c2.384-0.109,4.281-0.75,6.422-1.742c4.064-1.885,4.467-7.854,4.853-11.586c0.267-2.572,0.115-5.393-0.506-7.9
					c-0.278-1.121-0.477-2.248-0.642-3.391c-0.313-2.176-0.091-4.419,0.147-6.589c0.195-1.792,0.041-3.563-0.017-5.368
					c-0.089-2.76-0.119-5.518-0.146-8.279c-0.368-38.323-0.032-76.657-0.073-114.981c-0.175-165.563,0.011-331.124,0.008-496.685
					c-0.01-569.004,0.105-1138.008,0.226-1707.014c0.139-661.322,0.269-1322.644,0.415-1983.967
					c0.108-484.007,0.101-968.015,0.195-1452.021c0.019-87.669-0.171-175.34-0.014-263.009c0.021-11.052-0.093-22.107-0.16-33.159
					c0.02-11.275,0.053-22.55,0.101-33.825c0.046-12.428-0.037-24.853-0.014-37.28c0.021-10.606-0.176-21.21-0.073-31.817
					c0.133-13.645-0.037-27.297-0.052-40.942c-0.019-19.571-0.024-39.141-0.028-58.711c-0.017-61.443,0.279-122.895-0.226-184.335
					c-0.582-70.808-0.192-141.631,0.002-212.439c0.214-77.262,0.45-154.524,0.251-231.786c-0.342,0.004-0.628,0.152-0.855,0.444
					c-0.854,0.776-1.683,1.581-2.485,2.41c-0.599,0.606-2.808,2.296-2.805,3.384c0.178,77.259-0.054,154.517-0.265,231.776
					c-0.104,38.587-0.173,77.175-0.184,115.762c-0.006,19.332,0.034,38.662,0.08,57.993c0.05,21.485,0.446,43,0.152,64.481
					c-0.07,5.164,0.127,10.303,0.288,15.464c0.209,6.696-0.097,13.469-0.129,20.168c-0.083,17.376-0.09,34.752-0.108,52.129
					c-0.045,43.126-0.028,86.252,0.082,129.378c0.042,15.808,0.528,31.659-0.119,47.455c0.028,2.124,0.057,4.248,0.085,6.371
					c0.015,3.683,0.097,7.364,0.243,11.042c0.113,3.629,0.06,7.178-0.053,10.802c0.013,5.803,0.023,11.607,0.036,17.409
					c-0.018,11.283-0.043,22.565-0.077,33.847c0.001-0.569,0.113,36.396,0.239,35.042c-0.103,1.093-0.002,2.248-0.004,3.347
					c-0.02,9.74,0.05,19.48-0.053,29.22c-0.082,7.807,0.105,15.611,0.063,23.419c-0.059,10.531-0.096,21.063-0.132,31.595
					c-0.04,11.823,0.229,23.636,0.198,35.461c-0.04,14.687-0.071,29.373-0.099,44.06c-0.14,74.952-0.177,149.904-0.223,224.854
					c-0.014,22.027-0.025,44.053-0.036,66.08c-0.007,11.557-0.013,23.115-0.018,34.672c-0.005,6.035,0.008,12.042,0.217,18.072
					c0.282,8.126,0.212,16.245,0.205,24.375c-0.04,53.478-0.072,106.955-0.103,160.433c-0.069,122.795-0.12,245.59-0.166,368.384
					c-0.112,294.15-0.194,588.298-0.274,882.447c-0.183,664.425-0.326,1328.851-0.419,1993.277
					c-0.043,302.85-0.073,605.7-0.075,908.551c0,129.348,0.01,258.694,0.042,388.041c0.013,57.316,0.027,114.633,0.051,171.947
					c0.012,25.555,0.022,51.107,0.035,76.66c0.007,12.275,0.021,24.549,0.018,36.822c-0.001,5.799-0.438,11.557-0.436,17.357
					c0.001,7.873,0.005,15.746,0.008,23.617c0.027,72.775,0.061,145.549,0.133,218.322c0.029,29.127,0.07,58.255,0.125,87.383
					c0.021,12.048,0.05,24.096,0.083,36.145c0.031,11.746,0.323,23.523-0.076,35.265c-0.32,9.362-0.043,18.769-0.004,28.138
					c0.037,8.886,0.128,17.771,0.123,26.659c-0.009,12.362-0.112,24.729,0.107,37.095c0.073,4.049,0.287,8.081,0.539,12.121
					c0.213,3.41-0.817,7.314-1.843,10.555c-0.885,0.688-1.193,1.604-0.926,2.752c-0.151,2.068-1.563,3.189-3.11,4.241
					c-1.064,0.723-2.233,1.167-3.51,1.335c-0.653,0.063-1.308,0.124-1.961,0.188c-6.961,0.074-13.915,0.346-20.864,0.814
					c-31.49,1.314-63.013,1.554-94.525,1.52c-18.926-0.022-37.847-0.535-56.765-1.051c-6.306-0.23-12.613-0.459-18.919-0.689
					c-13.28-0.865-26.571-1.076-39.874-0.635c0.117,0.027,0.233,0.055,0.349,0.082c-1.12-0.375-2.256-0.699-3.386-1.049
					c-0.526-0.03-1.053-0.059-1.579-0.09c-1.229-0.104-2.438-0.325-3.625-0.66c-0.625-0.229-1.251-0.457-1.875-0.687
					c-1.19-0.13-2.299-0.504-3.327-1.118c-1.66-0.768-2.497-2.861-3.304-4.341c-1.265-2.319-0.551-5.857-0.438-8.435
					c0.122-2.773,0.202-5.555,0.217-8.33c0.087-15.246,0.261-30.492,0.45-45.738c0.123-10.076,0.214-20.152,0.306-30.229
					c0.054-5.814-0.036-11.611-0.174-17.424c-0.171-7.174,0.115-14.391,0.166-21.566c0.217-30.334,0.371-60.668,0.505-91
					c0.36-80.961,0.565-161.921,0.741-242.883c0.051-23.145,0.102-46.289,0.135-69.435c0.008-6.155-0.444-12.305-0.43-18.467
					c0.012-6.076,0.025-12.152,0.037-18.229c0.029-14.499,0.057-28.996,0.084-43.493c0.105-55.268,0.191-110.534,0.266-165.802
					c0.805-588.582,0.79-1177.164,0.727-1765.746c-0.072-686.62-0.36-1373.239-0.791-2059.857
					c-0.349-555.736-0.692-1111.472-1.559-1667.207c-0.019-12.259-0.047-24.518-0.055-36.777
					c-0.004-5.859,0.451-11.672,0.443-17.534c-0.008-5.921-0.017-11.842-0.025-17.764c-0.033-24.68-0.071-49.358-0.108-74.038
					c-0.065-42.798-0.139-85.596-0.222-128.394c-0.07-36.294-0.152-72.588-0.254-108.88c-0.083-29.329-0.478-58.674-0.241-88.001
					c0.023-2.954,0.202-5.894,0.189-8.849c-0.013-2.926-0.026-5.852-0.039-8.778c-0.026-5.53-0.053-11.059-0.084-16.587
					c-0.06-10.469-0.183-20.938-0.188-31.408c-0.004-7.739,0.029-15.469-0.047-23.209c-0.065-6.487-0.376-12.959-0.464-19.446
					c-0.029-2.179,0.147-4.357,0.287-6.532c0.022-0.327,0.044-0.653,0.065-0.981c-0.119-5.156,0.122-10.295,0.721-15.416
					c0.392-2.035,0.782-4.068,1.172-6.103c0.605-4.038,1.518-8.003,2.742-11.896c1.366-4.995,3.867-9.441,6.505-13.837
					c2.266-3.776,5.636-6.706,8.941-9.513c3.142-2.667,7.027-4.324,10.75-5.963c5.171-2.278,10.981-3.12,16.515-3.955
					c7.476-1.126,15.109-1.043,22.653-1.078c4.787-0.022,9.573,0.033,14.359,0.1c11.232,0.155,22.47,0.056,33.703,0.141
					c13.622,0.105,27.242,0.547,40.857,0.944c15.107,0.441,30.163,0.015,45.262-0.444c5.147-0.184,10.294-0.367,15.441-0.55
					c6.85-1.997,13.493-2.017,19.933-0.058c1.169,0.316,2.339,0.631,3.51,0.947c2.229,0.829,4.314,1.928,6.258,3.295
					c3.779,2.321,6.184,6.342,8.033,10.207c1.278,2.673,1.414,5.918,1.466,8.8c0.004,0.238,3.668-2.5,3.579-2.426
					C277.164,42.556,279.947,40.783,279.843,39.889z"/>
				<path opacity="0.1091" fill="#FFFFFF" d="M280.631,34.698c-0.531-4.443-0.168-2.831-1.604-7.182
					c-1.315-3.986-4.423-7.092-7.266-9.992c-3.234-3.301-7.619-5.08-11.784-6.806c-4.471-1.853-9.549-1.753-14.265-1.657
					c-5.633,0.309-11.268,0.618-16.902,0.926c-10.722,0.655-21.447,1.236-32.178,1.743c-14.723,0.746-29.419,0.357-44.144-0.031
					c-23.869-0.627-47.74-0.189-71.612-0.267c-9.5-0.03-18.881,0.291-28.291,1.64c-4.566,0.655-8.913,2.049-13.258,3.528
					c-4.431,1.509-8.319,4.072-12.151,6.675c-4.152,2.819-7.262,6.818-10.321,10.708c-3.525,4.482-5.578,10.043-7.608,15.283
					C6.792,55.6,5.939,62.473,4.962,69.136c-0.599,5.194-0.894,10.407-0.884,15.637c-0.426,3.512-0.269,6.962,0.473,10.352
					c1.061,5.535,1.145,11.334,1.279,16.952c0.176,7.376,0.145,14.76,0.171,22.138c0.068,20.039,0.075,40.078,0.112,60.117
					C6.386,345.133,6.29,495.936,6.591,646.737c0.483,242.563,0.453,485.128,0.638,727.693
					c0.235,305.629,0.438,611.259,0.619,916.887c0.406,686.016,0.706,1372.034,0.8,2058.048
					C8.729,4944.273,8.774,5539.182,8.19,6134.09c-0.188,191.782-0.352,383.563-0.922,575.346
					c-0.17,56.924-0.331,113.848-0.717,170.769c-0.116,17.142-0.221,34.283-0.451,51.424c-0.072,5.356-0.133,10.713-0.252,16.069
					c-0.023,1.029-0.051,2.059-0.079,3.086c-0.046,1.709,0.086,2.841,0.343,4.668c0.292,2.063,1.816,3.541,3.038,5.049
					c1.942,1.537,4.08,2.716,6.418,3.538c2.451,0.869,4.968,1.46,7.55,1.774c1.197,0.002,2.396,0.004,3.593,0.006
					c2.224-0.098,4.435-0.318,6.634-0.66c2.343-0.301,4.67-0.811,6.993-1.242c0.453-0.053,0.905-0.107,1.359-0.162
					c12.717,0.688,25.438,1.264,38.165,1.732c19.052,0.783,38.121,1.055,57.186,1.326c38.01,0.543,76.025-0.402,114.006-1.828
					c8.313-0.313,15.616,0.219,23.301-1.745c1.214-0.31,3.899-1.888,4.53-2.97c0.572-0.979,1.144-1.959,1.715-2.938
					c0.96-2.398,1.501-4.887,1.624-7.47c0.205-1.542,0.166-5.877-0.116-7.528c-0.411-2.412-0.842-4.824-1.176-7.248
					c-0.605-4.398-0.685-8.861-0.829-13.292c-0.178-5.493-0.062-11.017-0.058-16.511c0.007-8.162-0.03-16.324-0.006-24.485
					c0.071-22.005-0.011-44.012-0.014-66.017c-0.023-161.242,0.003-322.483-0.001-483.725
					c-0.014-564.383,0.146-1128.765,0.252-1693.146c0.124-662.123,0.276-1324.244,0.412-1986.366
					c0.101-490.197,0.142-980.396,0.201-1470.593c0.011-93.062-0.184-186.127-0.042-279.189c0.009-5.931,0.022-11.864-0.049-17.795
					c-0.273-22.864-0.001-45.736,0.045-68.602c0.026-13.041-0.115-26.081-0.149-39.122c-0.092-34.147-0.029-68.294-0.038-102.442
					c-0.015-64.847,0.304-129.704-0.25-194.55c-0.604-70.808-0.191-141.632,0.006-212.44c0.214-77.264,0.451-154.525,0.249-231.791
					c-0.003-1-1.519,1.334-1.369,1.12c-0.614,0.892-1.207,1.797-1.777,2.716c-0.343,0.464-0.6,0.966-0.771,1.511
					c0.192,77.261-0.038,154.52-0.257,231.781c-0.109,38.586-0.186,77.172-0.203,115.758c-0.008,19.329,0.03,38.66,0.073,57.988
					c0.049,12.9,0.089,25.8,0.12,38.7c0.827,7.458,0.874,14.888,0.142,22.291c-0.011,1.199-0.022,2.396-0.033,3.593
					c-0.077,3.157-0.057,6.313,0.063,9.467c0.129,6.271,0.091,12.534,0.073,18.807c-0.049,16.669-0.049,33.336-0.057,50.005
					c-0.023,43.192-0.017,86.386,0.033,129.579c0.02,16.763,0.061,33.524,0.137,50.287c-0.06,2.183-0.119,4.366-0.177,6.55
					c0.023,4.007,0.047,8.014,0.073,12.021c0.027,4.415,0.239,8.808,0.16,13.225c-0.219,12.396-0.01,24.835-0.034,37.235
					c-0.036,17.174-0.092,34.337,0.096,51.511c0.011,0.994-0.003,1.989-0.003,2.981c-0.002,9.412,0.064,18.823,0.014,28.234
					c-0.097,18.021-0.004,36.048-0.03,54.07c-0.04,26.172,0.081,52.345,0.058,78.52c-0.069,74.443-0.093,148.885-0.117,223.328
					c-0.007,21.913-0.014,43.825-0.021,65.737c-0.003,11.502-0.007,23.003-0.01,34.507c-0.003,13.981,0.229,27.955,0.223,41.934
					c-0.023,53.269-0.043,106.538-0.063,159.806c-0.043,122.428-0.077,244.855-0.112,367.283
					c-0.083,293.641-0.157,587.279-0.22,880.92c-0.142,664.367-0.301,1328.733-0.417,1993.101
					c-0.053,303.302-0.104,606.603-0.119,909.905c-0.007,129.688-0.012,259.375-0.008,389.062c0,57.513,0.011,115.024,0.017,172.537
					c0.001,25.654,0.008,51.308,0.014,76.96c0.003,12.324,0.006,24.651,0.009,36.977c0.001,5.932,0,11.834-0.231,17.762
					c-0.306,7.881,0.003,15.84,0.003,23.727c0.01,84.957,0.031,169.912,0.087,254.867c0.021,32,0.054,64,0.099,96
					c0.033,24.244-0.081,48.486-0.009,72.732c0.049,16.051-0.101,32.104,0.073,48.154c0.028,2.596,0.059,5.192,0.089,7.787
					c0.027,2.269,0.332,4.536,0.557,6.793c0.371,3.729,1.059,7.457,1.726,11.145c0.576,3.178,0.082,6.698-0.381,9.846
					c-0.32,0.958-0.644,1.916-0.965,2.873c-1.805,2.99-4.275,4.708-7.413,5.152c-0.71,0.113-1.42,0.225-2.131,0.338
					c-12.616,0.628-25.236,1.148-37.862,1.563c-18.947,0.7-37.908,0.919-56.865,1.138c-37.999,0.436-76-0.592-113.964-2.123
					c-11.469-0.461-14.02-1.916-21.707-0.402c-3.561,0.701-7.066,1.174-10.689,1.396c-3.61,0.22-6.588-0.973-9.894-2.236
					c-1.019-0.557-2.036-1.112-3.053-1.667c-3.507-1.888-5.224-5.052-5.146-9.489c-0.233-1.891,0.12-4.047,0.167-5.955
					c0.146-6.043,0.18-12.09,0.264-18.137c0.602-43.223,0.598-86.459,0.789-129.686c0.318-71.969,0.501-143.938,0.668-215.908
					c0.502-216.245,0.576-432.49,0.738-648.736c0.463-620.542,0.4-1241.084,0.259-1861.629
					c-0.156-680.785-0.476-1361.569-0.915-2042.354c-0.329-511.983-0.595-1023.97-1.197-1535.952
					c-0.13-110.53-0.152-221.065-0.469-331.595c-0.042-14.225-0.1-28.45-0.119-42.675c-0.007-5.474-0.176-10.938-0.477-16.403
					c-0.123-2.24-0.221-4.479-0.35-6.719c-0.224-3.884-0.122-7.369-0.087-11.446c0.063-7.371,1.412-14.462,2.821-21.657
					c0.906-4.105,2.178-8.096,3.814-11.968c1.9-5.119,5.033-9.489,8.271-13.808c4.583-6.108,11.467-10.043,18.252-13.153
					c6.703-3.071,14.341-4.044,21.58-4.886c9.34-1.085,18.892-0.754,28.273-0.725c17.464,0.054,34.925,0.001,52.39,0.202
					c13.971,0.161,27.932,0.617,41.905,0.763c5.102-0.115,10.204-0.231,15.307-0.346c10.421-0.417,20.841-0.844,31.262-1.283
					c7.078-1.658,14.078-1.805,20.997-0.437c4.217,0.684,7.651,2.044,11.433,3.965c3.423,1.737,5.974,4.746,8.368,7.626
					c2.755,3.313,3.724,8.023,3.986,12.152c0.06,0.925,1.477-1.052,1.426-0.988c0.663-0.826,1.307-1.668,1.928-2.526
					C280.143,35.693,280.43,35.219,280.631,34.698z"/>
				<path opacity="0.1091" fill="#FFFFFF" d="M279.596,39.054c-0.119-1.158-0.239-2.317-0.359-3.475
					c-0.537-2.446-1.463-4.735-2.778-6.868c-1.849-3.665-5.3-6.271-8.418-8.749c-3.446-2.736-7.939-3.914-12.087-4.982
					c-1.518-0.2-3.034-0.399-4.55-0.598c-7.002-0.008-13.998,0.257-20.984,0.8c-15.797,0.736-31.548,1.538-47.358,1.908
					c-5.026-0.064-10.052-0.127-15.077-0.191c-9.064-0.31-18.132-0.533-27.201-0.671c-20.821-0.416-41.656-0.167-62.48-0.183
					c-9.395-0.008-18.635,0.622-27.87,2.363c-4.465,0.843-8.646,2.504-12.81,4.253c-4.281,1.799-7.888,4.674-11.458,7.562
					c-3.9,3.158-6.659,7.529-9.319,11.69c-3.142,4.918-4.767,10.652-6.462,16.164C8.354,64.675,7.882,71.846,7.21,78.671
					C6.86,84.183,6.796,89.7,7.019,95.219c0.195,0.973,0.363,1.952,0.502,2.936c0.86,5.509,0.622,11.225,0.717,16.784
					c0.128,7.529,0.1,15.063,0.13,22.593c0.081,20.346,0.076,40.692,0.119,61.038c0.315,151.867,0.345,303.736,0.458,455.603
					c0.41,549.442,0.958,1098.885,1.286,1648.327c0.411,686.131,0.71,1372.261,0.798,2058.39
					c0.076,593.885,0.129,1187.77-0.484,1781.654c-0.198,190.835-0.32,381.67-0.916,572.503
					c-0.176,56.349-0.328,112.696-0.721,169.044c-0.118,16.83-0.215,33.664-0.457,50.492c-0.075,5.203-0.125,10.408-0.254,15.611
					c-0.025,0.993-0.053,1.987-0.082,2.982c-0.008,0.305-0.018,0.609-0.028,0.914c-0.015,1.828,0.459,3.52,1.423,5.073
					c1.249,2.821,4.741,3.907,7.298,4.958c4.05,1.665,8.494,1.48,12.754,1.275c2.54-0.123,5.083-0.446,7.606-0.755
					c7.329-0.899,16.266,0.479,22.565,0.812c38.077,2.01,76.221,2.438,114.342,2.377c18.991-0.029,37.977-0.562,56.959-1.088
					c6.32-0.23,12.642-0.462,18.963-0.691c7.044,0.092,14.055-0.269,21.029-1.086c2.674-0.293,4.39-1.525,6.388-3.195
					c1.186-1.852,1.954-3.865,2.307-6.039c0.38-2.309,0.553-4.631,0.521-6.967c0.089-2.947-0.996-5.819-1.426-8.709
					c-0.259-1.75-0.145-3.523,0.025-5.272c0.474-4.898,0.376-9.881,0.349-14.799c-0.218-38.983-0.03-77.971-0.063-116.954
					c-0.134-166.634,0.012-333.266,0.012-499.898c-0.002-570.123,0.15-1140.246,0.235-1710.369
					c0.098-661.108,0.276-1322.217,0.415-1983.326c0.103-482.442,0.106-964.886,0.193-1447.328
					c0.016-86.159-0.086-172.32-0.022-258.479c0.009-11.042-0.092-22.083-0.15-33.125c-0.125-23.706,0.075-47.422,0.077-71.129
					c0.002-10.607-0.152-21.214-0.076-31.823c0.234-33.2-0.06-66.413-0.068-99.614c-0.016-61.45,0.194-122.903-0.225-184.35
					c-0.484-70.815-0.199-141.637-0.004-212.451c0.212-77.263,0.448-154.524,0.25-231.788c-0.484,0.146-0.883,0.435-1.191,0.868
					c-1.27,1.298-2.511,2.625-3.727,3.974c-1.23,1.335-2.432,2.696-3.606,4.08c-0.401,0.35-0.652,0.772-0.752,1.27
					c0.169,77.258-0.062,154.516-0.267,231.773c-0.103,38.592-0.168,77.184-0.176,115.775c-0.003,19.332,0.038,38.664,0.084,57.997
					c0.038,12.903,0.083,25.807,0.138,38.709c1.183,7.47,1.189,14.865,0.023,22.19c-0.016,1.194-0.031,2.388-0.046,3.582
					c-0.115,3.179-0.072,6.356,0.129,9.531c0.226,6.285,0.14,12.537,0.09,18.825c-0.132,16.633-0.14,33.267-0.169,49.901
					c-0.075,43.199-0.054,86.398,0.057,129.597c0.043,16.77,0.314,33.543,0.168,50.312c-0.096,2.148-0.193,4.296-0.288,6.444
					c0.071,4.053,0.146,8.107,0.22,12.159c0.08,4.44,0.362,8.822,0.195,13.263c-0.033,0.923-0.068,1.848-0.102,2.771
					c0.043,11.467,0.043,22.935,0.003,34.402c-0.03,17.25-0.043,34.471,0.28,51.719c0.018,0.958-0.038,1.944-0.041,2.909
					c-0.019,9.388,0.055,18.779-0.063,28.167c-0.094,7.643,0.129,15.28,0.068,22.922c-0.083,10.361-0.123,20.724-0.168,31.085
					c-0.051,11.669,0.287,23.323,0.242,34.992c-0.054,14.527-0.091,29.056-0.124,43.584c-0.173,74.391-0.228,148.783-0.281,223.173
					c-0.017,21.905-0.032,43.81-0.046,65.714c-0.007,11.498-0.011,22.996-0.021,34.494c-0.006,5.893,0.008,11.787,0.021,17.68
					c0.173,4.173,0.346,8.345,0.518,12.518c-0.003,4.008-0.007,8.015-0.011,12.022c-0.05,53.25-0.088,106.501-0.124,159.75
					c-0.084,122.402-0.141,244.804-0.196,367.206c-0.132,293.614-0.224,587.229-0.3,880.844
					c-0.175,664.365-0.335,1328.729-0.426,1993.092c-0.04,303.324-0.076,606.648-0.051,909.972
					c0.011,129.708,0.026,259.419,0.063,389.128c0.015,57.527,0.043,115.056,0.067,172.584c0.012,25.662,0.029,51.323,0.046,76.984
					c0.007,12.332,0.014,24.665,0.03,36.998c0.009,5.846-0.177,11.634-0.547,17.467c0.002,3.975,0.003,7.95,0.006,11.926
					c0.001,3.936,0.003,7.871,0.004,11.806c0.045,110.025,0.069,220.051,0.373,330.075c0.051,18.562,0.524,37.171-0.162,55.723
					c-0.143,3.861,0.03,7.766,0.048,11.629c0.021,4.559,0.043,9.118,0.066,13.678c0.039,7.394,0.098,14.789,0.152,22.184
					c0.042,5.584-0.156,11.164-0.094,16.748c0.06,5.313,0.093,10.623,0.073,15.936c-0.016,4.268,0.156,8.538,0.289,12.803
					c0.102,3.224-0.047,6.443-0.166,9.668c0.033-0.127,0.068-0.255,0.102-0.382c-0.427,1.263-0.921,2.494-1.436,3.722
					c0.051-0.116,0.101-0.232,0.15-0.349c-0.433,0.976-0.836,1.985-1.471,2.851c0.408-0.238,0.816-0.476,1.224-0.714
					c-0.435,0.185-0.869,0.37-1.305,0.556c-0.11,0.066-0.221,0.135-0.332,0.201c0.251,0.922,0.232,1.836-0.054,2.744
					c-0.239,1.414-2.51,2.051-3.54,2.562c-1.192,0.353-2.409,0.524-3.651,0.514c-0.642-0.01-1.283-0.02-1.924-0.028
					c-12.572,0.565-25.148,1.021-37.729,1.371c-31.466,1.008-62.954,0.93-94.43,0.572c-31.951-0.362-63.864-2.123-95.805-2.893
					c0.131,0.041,0.262,0.084,0.392,0.127c-0.919-0.509-1.871-0.959-2.807-1.439c-0.374-0.035-0.746-0.071-1.119-0.107
					c-0.896-0.123-1.76-0.359-2.594-0.711c-0.441-0.236-0.883-0.474-1.325-0.711c-0.937,0.016-1.809-0.215-2.616-0.693
					c-1.305-0.553-1.917-2.723-2.474-3.842c-0.78-1.572-0.472-3.671-0.392-5.346c0.046-0.975,0.091-1.949,0.134-2.924
					c0.126-2.775,0.192-5.559,0.209-8.337c0.094-15.246,0.249-30.492,0.447-45.737c0.13-10.07,0.224-20.141,0.321-30.211
					c0.057-5.826-0.066-11.641-0.217-17.465c-0.184-7.17,0.122-14.387,0.176-21.559c0.227-30.326,0.386-60.652,0.527-90.977
					c0.374-80.951,0.582-161.902,0.763-242.855c0.051-23.15,0.129-46.299,0.118-69.449c-0.004-6.176-0.49-12.337-0.478-18.52
					c0.014-6.076,0.028-12.152,0.04-18.229c0.031-14.497,0.06-28.994,0.089-43.488c0.109-55.266,0.198-110.529,0.277-165.793
					c0.837-588.569,0.819-1177.139,0.76-1765.709c-0.069-686.62-0.358-1373.24-0.794-2059.861
					C18.957,1785.088,18.62,1229.334,17.7,673.581c-0.019-12.257-0.066-24.515-0.048-36.771c0.056-1.962,0.111-3.925,0.166-5.889
					c0.353-3.854,0.464-7.713,0.335-11.582c-0.008-5.921-0.018-11.844-0.026-17.765c-0.035-24.681-0.074-49.363-0.112-74.042
					c-0.069-42.804-0.147-85.605-0.235-128.409c-0.075-36.299-0.162-72.6-0.272-108.901c-0.046-14.985-0.097-29.973-0.155-44.959
					c-0.057-14.344-0.269-28.693-0.079-43.035c0.079-5.88,0.178-11.743,0.148-17.626c-0.028-5.533-0.058-11.065-0.093-16.597
					c-0.066-10.472-0.22-20.944-0.195-31.417c0.018-7.738,0.025-15.467-0.037-23.206c-0.053-6.404-0.352-12.796-0.018-19.192
					c0.108-2.053,0.422-4.086,0.758-6.112c0.054-0.295,0.108-0.59,0.162-0.884c-0.014-4.957,0.37-9.883,1.153-14.777
					c0.435-1.912,0.869-3.823,1.304-5.734c0.684-3.802,1.681-7.52,2.988-11.155c1.454-4.606,3.953-8.627,6.58-12.622
					c2.241-3.408,5.555-6.011,8.739-8.454c3.114-2.389,6.824-3.81,10.424-5.257c5.098-2.045,10.786-2.715,16.183-3.438
					c9.074-1.212,18.41-0.89,27.538-0.826c18.904,0.133,37.813,0.386,56.713,0.811c13.804,0.312,27.601,0.932,41.403,1.307
					c14.941,0.405,29.966-0.226,44.901-0.572c5.33-0.131,10.66-0.263,15.99-0.396c1.668,0.594,3.358,1.121,5.067,1.583
					c1.794,0.822,3.493,1.808,5.1,2.955c1.473,1.251,2.803,2.64,3.985,4.165c1.062,1.546,1.906,3.203,2.533,4.969
					c1.114,2.615,1.045,5.875,0.992,8.634c0.493-0.104,0.911-0.357,1.253-0.76c1.359-1.182,2.695-2.393,4.007-3.63
					c1.325-1.222,2.624-2.471,3.899-3.745C279.178,39.937,279.459,39.538,279.596,39.054z"/>
				<path opacity="0.1091" fill="#FFFFFF" d="M279.88,36.408c-0.132-1.149-0.263-2.296-0.395-3.445
					c-0.588-2.468-1.543-4.786-2.864-6.955c-1.912-3.796-5.489-6.512-8.72-9.077c-3.612-2.868-8.269-4.088-12.614-5.221
					c-1.591-0.201-3.18-0.403-4.769-0.604c-7.185-0.012-14.358,0.298-21.524,0.929c-15.895,0.843-31.751,1.664-47.664,2.097
					c-5.041-0.048-10.08-0.099-15.121-0.147c-9.08-0.288-18.161-0.493-27.245-0.614c-20.849-0.378-41.71-0.096-62.562-0.075
					c-9.426,0.009-18.684,0.67-27.939,2.472c-4.502,0.876-8.707,2.595-12.893,4.4c-4.328,1.867-7.958,4.834-11.541,7.809
					c-3.944,3.276-6.707,7.771-9.385,12.048c-3.159,5.044-4.75,10.918-6.417,16.555c-1.982,6.708-2.4,13.958-3.006,20.876
					c-0.297,5.583-0.317,11.166-0.06,16.75c0.212,0.988,0.392,1.981,0.542,2.98c0.912,5.53,0.843,11.301,0.982,16.889
					c0.187,7.528,0.132,15.067,0.162,22.597c0.084,20.348,0.078,40.697,0.119,61.044c0.312,151.858,0.216,303.718,0.459,455.577
					c0.39,243.336,0.471,486.675,0.657,730.013c0.237,306.117,0.443,612.232,0.626,918.349
					c0.408,686.131,0.704,1372.262,0.797,2058.393c0.082,593.875,0.124,1187.752-0.484,1781.627
					c-0.195,190.84-0.318,381.678-0.917,572.518c-0.177,56.344-0.327,112.688-0.724,169.032c-0.119,16.823-0.216,33.65-0.462,50.474
					c-0.076,5.201-0.124,10.399-0.259,15.598c-0.026,0.992-0.054,1.98-0.084,2.971c-0.008,0.302-0.018,0.606-0.028,0.908
					c-0.026,1.863,0.453,3.586,1.438,5.168c1.257,2.832,4.897,4.158,7.448,5.307c4.086,1.838,8.922,1.678,13.278,1.588
					c3.197-0.066,6.381-0.597,9.545-0.984c0.425-0.02,0.85-0.039,1.274-0.059c12.997,0.247,25.987,0.703,38.968,1.371
					c38.037,1.655,76.139,1.674,114.2,1.262c18.985-0.207,37.961-0.908,56.934-1.605c6.318-0.287,12.637-0.574,18.955-0.861
					c0.79-0.049,1.575-0.141,2.354-0.271c0.725-0.163,1.45-0.328,2.177-0.493c1.675-0.51,3.11-1.412,4.307-2.7
					c1.391-1.781,2.316-3.78,2.777-5.997c0.507-2.396,0.746-4.816,0.72-7.267c0.149-3.419-0.818-6.757-1.081-10.151
					c-0.162-2.09-0.122-4.193-0.093-6.286c0.029-2.052-0.202-4.144-0.282-6.195c-0.112-2.894-0.089-5.796-0.103-8.69
					c-0.202-39.637-0.024-79.277-0.054-118.913c-0.123-167.702,0.013-335.403,0.014-503.104
					c0.004-571.244,0.12-1142.488,0.245-1713.732c0.144-660.887,0.276-1321.772,0.414-1982.659
					c0.1-482.37,0.097-964.741,0.192-1447.111c0.018-83.543-0.165-167.088-0.025-250.631c0.026-16.314-0.153-32.626-0.114-48.94
					c0.154-65.268-0.091-130.535-0.103-195.804c-0.014-64.501-0.06-128.997-0.311-193.497
					c-0.551-141.622,0.695-283.245,0.33-424.867c-0.003-1.092-1.811,1.626-1.667,1.431c-0.811,1.102-1.602,2.217-2.371,3.35
					c-0.444,0.569-0.806,1.183-1.084,1.845c0.185,77.259-0.045,154.519-0.26,231.778c-0.106,38.587-0.18,77.175-0.193,115.763
					c-0.008,19.33,0.033,38.661,0.076,57.99c0.051,12.898,0.09,25.797,0.117,38.694c0.994,7.469,1.032,14.893,0.113,22.273
					c-0.246,2.237-0.157,6.013-0.098,8.157c0.223,7.935,0.26,15.799,0.223,23.732c-0.079,16.656-0.082,33.314-0.099,49.97
					c-0.043,43.194-0.03,86.389,0.042,129.583c0.027,16.769,0.143,33.537,0.157,50.305c0.005,5.759-0.224,7.17-0.169,12.831
					c0.04,4.05,0.092,6.947,0.207,10.939c0.104,3.634,0.059,7.215-0.029,10.847c0.014,5.806,0.026,11.612,0.04,17.417
					c-0.019,11.282-0.046,22.563-0.085,33.844c-0.035,12.202,0.198,24.392,0.197,36.593c0,8.701,0.086,17.404,0.014,26.104
					c-0.145,17.337-0.022,34.681-0.068,52.02c-0.015,5.387-0.028,10.772-0.035,16.159c-0.006,4.938,0.21,9.872,0.199,14.81
					c-0.035,14.057-0.06,28.114-0.083,42.172c-0.116,72.722-0.147,145.446-0.186,218.168c-0.012,21.54-0.021,43.079-0.03,64.618
					c-0.005,11.321-0.009,22.641-0.015,33.963c-0.001,5.794-0.004,11.589-0.007,17.384c-0.003,5.965-0.19,11.971-0.014,17.934
					c0.727,24.431,0.331,48.901,0.318,73.342c-0.016,27.944-0.03,55.886-0.043,83.829c-0.057,120.824-0.105,241.646-0.144,362.471
					c-0.096,291.452-0.175,582.904-0.251,874.358c-0.176,664.053-0.318,1328.107-0.424,1992.16
					c-0.047,305.176-0.09,610.351-0.1,915.526c-0.005,131.132,0.002,262.265,0.013,393.397c0.004,58.363,0.017,116.725,0.03,175.088
					c0.007,26.092,0.015,52.184,0.023,78.274c0.006,12.554,0.009,25.104,0.015,37.657c0.007,14.059,0.368,28.166-0.333,42.21
					c-0.294,5.905,0.002,11.927,0.005,17.84c0.001,5.86,0.003,11.718,0.004,17.578c0.001,11.449,0.006,22.901,0.01,34.351
					c0.007,23.561,0.017,47.121,0.026,70.681c0.018,40.264,0.043,80.527,0.077,120.791c0.028,33.19,0.065,66.382,0.13,99.571
					c0.05,25.508-0.124,51.008-0.028,76.516c0.064,17.402,0.17,34.808,0.078,52.21c-0.015,2.94,0.053,5.88,0.095,8.819
					c0.03,2.14-0.075,4.377,0.156,6.506c0.269,2.477,0.54,4.955,0.809,7.436c0.23,2.119,0.034,4.379,0.021,6.516
					c-0.004,0.772-0.015,1.546-0.028,2.32c-0.208,0.969-0.416,1.938-0.623,2.906c0.015,1.555-0.232,3.066-0.743,4.534
					c-0.577,2.261-2.601,3.524-4.427,4.636c-1.245,0.297-2.49,0.594-3.735,0.893c-6.975,0.501-13.96,0.822-20.956,0.963
					c-37.84,1.647-75.728,1.84-113.597,1.542c-18.968-0.149-37.929-0.79-56.884-1.431c-13.301-0.963-26.614-1.154-39.938-0.58
					c-0.732-0.104-1.468-0.172-2.208-0.202c-2.081-0.146-4.155-0.179-6.235-0.335c-2.434-0.184-4.772-0.943-7.094-1.638
					c-5.008-1.497-7.212-6.79-7.01-11.573c0.22-5.244,0.335-10.479,0.361-15.725c0.079-16.168,0.325-32.338,0.491-48.506
					c0.248-23.987,0.165-47.965,0.309-71.952c0.419-69.219,0.632-138.438,0.824-207.657c0.123-44.451,0.224-88.902,0.309-133.354
					c0.021-11.572,0.044-23.143,0.066-34.714c0.011-5.909,0.026-11.819,0.043-17.729c0.017-6.184-0.343-12.365-0.331-18.554
					c0.053-26.919,0.101-53.837,0.146-80.755c0.195-116.863,0.332-233.727,0.438-350.588
					c0.561-616.084,0.527-1232.169,0.396-1848.255c-0.144-682.074-0.453-1364.146-0.917-2046.221
					c-0.201-294.244-0.429-588.488-0.711-882.732c-0.118-122.917-0.249-245.832-0.399-368.749
					c-0.065-53.846-0.137-107.691-0.213-161.539c-0.01-6.091-0.02-12.184-0.036-18.276c0.116-3.826,0.231-7.65,0.348-11.474
					c-0.006-3.977-0.011-7.952-0.016-11.927c-0.015-11.704-0.03-23.408-0.045-35.111c-0.032-24.183-0.065-48.366-0.1-72.549
					c-0.1-69.182-0.209-138.362-0.371-207.542c-0.062-26.722-0.13-53.441-0.229-80.163c-0.041-11.142,0.151-22.276,0.108-33.418
					c-0.038-9.809-0.082-19.618-0.132-29.427c-0.077-15.047-0.141-30.092-0.146-45.137c-0.003-5.481-0.335-10.96-0.516-16.439
					c-0.064-1.968,0.052-3.931,0.133-5.896c0.144-3.52,0.166-6.957,0.219-10.525c0.102-6.907,1.627-13.608,2.955-20.346
					c0.887-3.855,2.093-7.607,3.619-11.256c1.773-4.779,4.75-8.871,7.809-12.872c5.289-6.92,13.436-10.872,21.426-13.667
					c6.901-2.416,14.464-2.965,21.694-3.489c9.412-0.684,18.955-0.357,28.382-0.242c6.393,0.042,12.786,0.045,19.18,0.011
					c13.971-0.014,27.937,0.287,41.903,0.604c4.418,0.123,8.835,0.247,13.253,0.37c10.012,0.3,20.021,0.282,30.031-0.054
					c16.079-0.282,32.166-1.183,48.221-2.054c2.227,0.486,4.45,0.99,6.669,1.513c3.587,0.828,6.688,3.171,9.527,5.354
					c2.745,2.108,4.446,5.088,6.024,8.072c1.486,2.809,1.637,6.104,1.702,9.181c0.341-0.03,0.611-0.199,0.815-0.509
					c0.786-0.84,1.545-1.704,2.275-2.592C277.885,39.378,280,37.459,279.88,36.408z"/>
				<path opacity="0.1091" fill="#FFFFFF" d="M281.4,33.896c-0.491-4.2-0.158-2.665-1.558-6.911
					c-1.318-3.996-4.438-7.107-7.285-10.014c-3.243-3.313-7.651-5.098-11.827-6.83c-4.469-1.852-9.542-1.773-14.26-1.687
					c-5.69,0.307-11.381,0.613-17.072,0.92c-10.739,0.659-21.482,1.243-32.23,1.756c-14.734,0.751-29.445,0.373-44.182-0.007
					c-23.875-0.615-47.749-0.176-71.626-0.248c-9.504-0.028-18.89,0.294-28.306,1.642c-4.575,0.654-8.932,2.047-13.286,3.525
					c-4.451,1.51-8.364,4.072-12.223,6.673c-4.194,2.828-7.348,6.839-10.451,10.741c-3.586,4.509-5.683,10.118-7.752,15.407
					C6.836,55.269,5.975,62.223,4.985,68.97c-0.584,5.296-0.865,10.608-0.843,15.937c-0.444,3.558-0.269,7.048,0.529,10.468
					c1.149,5.648,1.316,11.404,1.417,17.146c0.128,7.354,0.119,14.71,0.138,22.065c0.054,20.028,0.073,40.058,0.103,60.087
					C6.551,345.504,6.693,496.337,6.837,647.17c0.523,548.151,0.894,1096.303,1.215,1644.454
					c0.401,686.014,0.703,1372.028,0.797,2058.042c0.082,594.936,0.126,1189.871-0.432,1784.807
					c-0.18,191.768-0.392,383.533-0.939,575.3c-0.164,56.931-0.349,113.863-0.711,170.794c-0.109,17.156-0.231,34.314-0.443,51.469
					c-0.066,5.367-0.144,10.732-0.249,16.1c-0.021,1.041-0.045,2.082-0.07,3.123c-0.043,1.782,0.112,2.713,0.486,4.656
					c0.403,2.095,1.925,3.484,3.229,5.007c1.972,1.455,4.129,2.546,6.472,3.271c2.478,0.772,5.01,1.258,7.597,1.457
					c3.286,0.438,6.925-0.242,10.18-0.666c1.783-0.232,3.572-0.598,5.34-0.931c7.963-1.491,11.337-0.1,22.475,0.505
					c19.081,1.037,38.215,1.386,57.316,1.834c38.013,0.895,76.047,0.26,114.046-0.851c6.322-0.239,12.644-0.478,18.965-0.716
					c7.106,0.371,14.131-0.033,21.077-1.217c2.796-0.443,4.521-1.745,6.57-3.503c1.648-1.415,2.334-4.875,2.885-6.746
					c1.067-3.624,0.518-7.964,0.302-11.663c-0.142-2.404-0.856-4.874-1.196-7.269c-0.615-4.351-0.69-8.756-0.815-13.142
					c-0.154-5.5-0.077-11.022-0.071-16.525c0.008-8.16-0.033-16.321-0.004-24.483c0.074-22.003-0.012-44.011-0.016-66.015
					c-0.032-161.242,0.006-322.482,0-483.726c-0.02-564.386,0.141-1128.774,0.248-1693.162
					c0.124-662.121,0.28-1324.243,0.412-1986.364c0.099-490.199,0.143-980.396,0.2-1470.593
					c0.012-93.059-0.197-186.121-0.04-279.178c0.01-5.93,0.025-11.862-0.047-17.792c-0.272-22.868-0.004-45.744,0.043-68.614
					c0.026-13.044-0.113-26.085-0.15-39.129c-0.099-34.146-0.029-68.294-0.038-102.44c-0.017-64.842,0.308-129.697-0.246-194.537
					c-0.604-70.808-0.193-141.634,0.003-212.443c0.216-77.264,0.451-154.525,0.25-231.789c-0.002-0.994-1.516,1.3-1.371,1.096
					c-0.617,0.877-1.213,1.771-1.785,2.678c-0.345,0.457-0.604,0.954-0.775,1.492c0.19,77.261-0.039,154.521-0.258,231.782
					c-0.109,38.584-0.187,77.17-0.203,115.755c-0.01,19.33,0.029,38.659,0.072,57.988c0.044,12.903,0.087,25.804,0.128,38.705
					c0.894,7.46,0.938,14.886,0.132,22.28c-0.011,1.195-0.022,2.389-0.034,3.585c-0.081,3.159-0.059,6.318,0.064,9.477
					c0.135,6.274,0.095,12.539,0.075,18.814c-0.053,16.662-0.053,33.322-0.063,49.984c-0.026,43.194-0.018,86.386,0.034,129.58
					c0.021,16.771,0.062,33.542,0.142,50.314c-0.063,2.167-0.125,4.336-0.187,6.505c0.026,4.013,0.052,8.027,0.08,12.039
					c0.03,4.422,0.242,8.821,0.162,13.245c-0.224,12.391-0.012,24.827-0.038,37.221c-0.035,17.175-0.086,34.34,0.1,51.515
					c0.012,1,0,2.003,0,3.003c-0.005,9.409,0.065,18.818,0.013,28.228c-0.101,18.017-0.005,36.038-0.034,54.056
					c-0.019,11.632,0.131,23.26,0.113,34.891c-0.022,14.547-0.037,29.092-0.053,43.639c-0.073,74.433-0.098,148.865-0.124,223.297
					c-0.008,21.912-0.016,43.822-0.022,65.733c-0.004,11.502-0.007,23.002-0.01,34.504c-0.004,13.999,0.242,27.992,0.235,41.991
					c-0.025,53.265-0.044,106.529-0.063,159.795c-0.046,122.422-0.082,244.845-0.116,367.267
					c-0.085,293.636-0.161,587.271-0.224,880.906c-0.144,664.366-0.304,1328.733-0.418,1993.098
					c-0.051,303.307-0.102,606.612-0.116,909.918c-0.005,129.691-0.01,259.385-0.005,389.074
					c0.001,57.516,0.012,115.031,0.02,172.547c0.001,25.654,0.009,51.309,0.015,76.963c0.003,12.327,0.006,24.654,0.01,36.98
					c0.001,5.914,0,11.799-0.245,17.706c0,3.976,0,7.95,0.002,11.924c0.001,3.935,0.001,7.868,0.001,11.804
					c0.011,84.963,0.034,169.928,0.093,254.893c0.022,32.006,0.057,64.014,0.103,96.021c0.036,24.243-0.085,48.482-0.009,72.726
					c0.052,16.056-0.123,32.114,0.081,48.167c0.062,4.861,0.173,9.671,0.579,14.516c0.308,3.658,1.083,7.32,1.823,10.916
					c0.669,3.247,0.279,6.939-0.066,10.193c-0.284,1.001-0.567,2-0.853,3c-1.672,3.133-4.086,4.972-7.244,5.518
					c-0.702,0.133-1.405,0.264-2.108,0.395c-12.604,0.635-25.216,1.16-37.829,1.58c-18.928,0.71-37.867,0.936-56.805,1.161
					c-38.035,0.452-76.062-0.64-114.064-2.091c-12.261-0.47-14.092-2.147-21.991-0.518c-4.81,0.994-9.479,1.584-14.374,1.57
					c-3.469-0.012-6.932-1.509-10.035-2.854c-3.913-1.695-5.114-5.017-5.971-9.021c-0.179-0.834,0.047-2.029,0.066-2.884
					c0.025-1.081,0.046-2.163,0.066-3.245c0.114-6.074,0.188-12.147,0.258-18.221c0.497-43.231,0.631-86.468,0.8-129.701
					c0.282-72.046,0.457-144.092,0.613-216.137c0.469-216.189,0.637-432.381,0.785-648.569
					c0.426-620.599,0.361-1241.198,0.217-1861.798c-0.159-680.77-0.476-1361.54-0.902-2042.311
					C9.642,1517.181,9.282,1005.181,8.753,493.18C8.638,382.724,8.527,272.27,8.346,161.814
					c-0.023-14.212-0.004-28.426-0.104-42.638c-0.035-4.898-0.069-9.796-0.234-14.693c-0.08-2.385-0.333-4.731-0.617-7.101
					c-0.181-1.516-0.382-3.03-0.573-4.545c-0.008-2.907-0.017-5.813-0.025-8.72c0.063-5.227,0.483-10.424,1.263-15.591
					c0.688-4.589,1.684-9.11,2.992-13.563c1.471-5.7,4.446-10.896,7.46-15.873c4.224-6.975,10.828-11.854,17.759-15.823
					c6.416-3.673,14.063-5.089,21.251-6.262c9.213-1.5,18.748-1.271,28.049-1.282c14.409-0.018,28.819-0.018,43.227,0.032
					c13.707,0.048,27.411,0.414,41.113,0.755c15.366,0.384,30.674-0.217,46.023-0.834c11.283-0.414,22.561-0.926,33.834-1.538
					c1.108,0.198,2.216,0.397,3.325,0.595c2.813,0.414,5.52,1.197,8.119,2.349c3.745,1.368,6.761,4.115,9.618,6.764
					c4.066,3.769,6.057,9.75,6.349,15.101c0.05,0.917,1.476-1.002,1.431-0.948c0.67-0.806,1.32-1.627,1.95-2.465
					C280.876,35.11,281.472,34.499,281.4,33.896z"/>
				<path opacity="0.1091" fill="#FFFFFF" d="M279.019,39.738c-0.112-1.156-0.224-2.31-0.336-3.466
					c-0.521-2.439-1.427-4.724-2.722-6.858c-1.819-3.668-5.252-6.307-8.345-8.8c-3.443-2.776-7.914-3.997-12.072-5.121
					c-1.523-0.212-3.047-0.423-4.571-0.637c-7.044-0.12-14.08,0.13-21.109,0.753c-15.825,0.744-31.608,1.53-47.448,1.905
					c-5.031-0.06-10.063-0.121-15.092-0.18c-9.071-0.303-18.145-0.523-27.219-0.659c-20.832-0.408-41.68-0.156-62.516-0.162
					c-9.407-0.001-18.658,0.627-27.906,2.37c-4.48,0.843-8.68,2.509-12.86,4.262c-4.31,1.806-7.946,4.695-11.541,7.599
					c-3.941,3.184-6.727,7.583-9.419,11.777c-3.179,4.957-4.822,10.753-6.53,16.313c-2.046,6.662-2.516,13.887-3.185,20.773
					c-0.337,5.547-0.392,11.098-0.162,16.652c0.196,0.994,0.365,1.993,0.508,2.997c0.861,5.552,0.691,11.294,0.792,16.896
					c0.134,7.527,0.102,15.059,0.13,22.588c0.075,20.344,0.075,40.688,0.115,61.032c0.296,151.872,0.302,303.745,0.468,455.615
					C8.6,1204.823,8.944,1754.26,9.271,2303.696c0.41,686.13,0.709,1372.261,0.797,2058.39
					c0.078,593.889,0.13,1187.777-0.476,1781.662c-0.194,190.834-0.332,381.668-0.92,572.5
					c-0.173,56.346-0.335,112.695-0.721,169.043c-0.115,16.83-0.216,33.666-0.454,50.496c-0.075,5.204-0.127,10.408-0.254,15.611
					c-0.025,0.996-0.053,1.99-0.081,2.986c-0.008,0.305-0.018,0.609-0.026,0.914c-0.013,1.841,0.472,3.541,1.453,5.1
					c1.286,2.863,4.889,3.949,7.498,4.988c4.132,1.646,8.684,1.378,13.005,1.115c2.561-0.155,5.12-0.517,7.66-0.861
					c7.323-0.988,16.406,0.407,22.622,0.713c38.082,1.867,76.188,2.424,114.31,2.357c18.99-0.035,37.975-0.57,56.953-1.102
					c6.321-0.232,12.642-0.465,18.961-0.696c7.048,0.106,14.059-0.259,21.031-1.095c2.68-0.303,4.371-1.547,6.351-3.248
					c1.201-1.872,1.976-3.91,2.32-6.113c0.365-2.301,0.513-4.615,0.445-6.943c0.05-2.945-0.972-5.738-1.367-8.632
					c-0.242-1.776-0.123-3.587,0.028-5.366c0.421-4.905,0.271-9.902,0.245-14.824c-0.207-38.982-0.027-77.967-0.063-116.951
					c-0.144-166.633,0.013-333.266,0.012-499.898c-0.006-570.129,0.141-1140.255,0.229-1710.383
					c0.101-661.107,0.276-1322.217,0.416-1983.325c0.102-482.442,0.095-964.884,0.194-1447.326
					c0.017-86.156-0.126-172.313-0.017-258.467c0.014-11.045-0.092-22.092-0.155-33.136c-0.136-23.703,0.05-47.419,0.082-71.122
					c0.014-10.608-0.168-21.214-0.076-31.822c0.116-13.639-0.032-27.283-0.046-40.922c-0.021-19.568-0.025-39.137-0.03-58.705
					c-0.017-61.446,0.246-122.899-0.222-184.343c-0.538-70.813-0.196-141.636-0.003-212.448
					c0.212-77.264,0.448-154.524,0.252-231.788c-0.407,0.07-0.737,0.285-0.992,0.642c-1.018,1.018-2.009,2.061-2.972,3.128
					c-0.98,1.055-1.933,2.133-2.855,3.236c-0.334,0.285-0.52,0.634-0.553,1.045c0.245,109.412-0.343,218.823-0.439,328.233
					c-0.023,25.769,0.017,51.537,0.077,77.305c0.04,12.902,0.085,25.804,0.132,38.705c1.104,7.464,1.119,14.869,0.048,22.212
					c-0.03,2.619-0.063,5.239-0.1,7.857c0.122,3.715,0.244,7.43,0.363,11.144c-0.046,4.309-0.081,8.618-0.104,12.926
					c-0.054,7.729-0.07,15.459-0.094,23.188c-0.172,55.199-0.129,110.401,0.026,165.601c0.031,11.251,0.093,22.5,0.181,33.75
					c0.056,4.582-0.048,9.159-0.311,13.733c0.062,4.046,0.124,8.092,0.189,12.137c0.101,3.257,0.203,6.514,0.307,9.771
					c-0.071,2.09-0.141,4.181-0.207,6.271c0.044,11.467,0.046,22.936,0.004,34.403c-0.031,17.242-0.054,34.458,0.239,51.698
					c0.02-0.111,0.038-0.222,0.057-0.333c-0.363,2.152-0.09,4.552-0.095,6.729c-0.012,4.706-0.057,9.416-0.026,14.121
					c0.104,15.666,0.053,31.336-0.028,47.003c-0.054,10.456-0.098,20.911-0.071,31.368c0.014,6.035,0.243,12.063,0.224,18.101
					c-0.023,7.477-0.044,14.953-0.063,22.428c-0.083,31.588-0.127,63.175-0.166,94.763c-0.104,84.299-0.13,168.599-0.195,252.898
					c-0.004,5.891,0.003,11.78,0.011,17.669c0.008,6.165,0.463,12.318,0.457,18.489c-0.01,12.195-0.02,24.391-0.029,36.586
					c-0.021,27.581-0.04,55.16-0.058,82.74c-0.037,57.249-0.069,114.497-0.099,171.747
					c-0.302,597.081-0.416,1194.162-0.561,1791.243c-0.157,653.17-0.292,1306.34-0.318,1959.51
					c-0.01,263.359-0.02,526.72,0.085,790.078c0.021,53.56,0.01,107.121,0.084,160.68c0.009,5.856-0.141,11.658-0.481,17.504
					c0.001,1.991,0.001,3.982,0.001,5.975c0.002,3.956,0.005,7.912,0.006,11.869c0.004,11.631,0.009,23.262,0.013,34.892
					c0.01,23.964,0.021,47.926,0.037,71.888c0.044,75.175,0.097,150.35,0.269,225.523c0.032,13.726,0.072,27.452,0.125,41.177
					c0.023,6.069-0.05,12.125-0.257,18.19c-0.226,6.627,0.048,13.313,0.078,19.943c0.081,18.445,0.047,36.887,0.159,55.329
					c0.036,5.88,0.066,11.751,0.204,17.631c0.055,2.321,0.048,4.64,0.038,6.962c-0.01,2.148-0.285,4.006-0.855,6.064
					c-0.351,1.268-0.698,3.447-1.838,4.316c0.024,0.54,0.05,1.08,0.076,1.621c-0.042,1.089-0.426,2.039-1.149,2.85
					c-0.93,0.673-1.918,1.246-2.963,1.722c-1.211,0.385-2.451,0.585-3.724,0.595c-0.647,0.002-1.297,0.004-1.944,0.006
					c-12.58,0.57-25.163,1.034-37.75,1.391c-18.887,0.617-37.785,0.744-56.678,0.871c-18.907,0.127-37.813-0.238-56.715-0.605
					c-12.606-0.299-25.208-0.718-37.807-1.258c-13.138-0.711-26.286-1.051-39.443-1.014c0.12,0.037,0.241,0.076,0.361,0.114
					c-1.011-0.432-2.038-0.819-3.056-1.229c-0.443-0.024-0.887-0.052-1.332-0.076c-1.046-0.096-2.069-0.311-3.067-0.643
					c-0.524-0.227-1.05-0.451-1.576-0.676c-1.067-0.045-2.064-0.334-2.988-0.869c-1.495-0.645-2.217-2.763-2.898-4.061
					c-1.2-2.287-0.468-5.814-0.356-8.347c0.122-2.776,0.192-5.56,0.209-8.338c0.094-15.247,0.256-30.493,0.447-45.739
					c0.125-10.073,0.216-20.148,0.312-30.223c0.055-5.816-0.048-11.621-0.19-17.438c-0.173-7.172,0.118-14.389,0.169-21.564
					c0.22-30.331,0.375-60.662,0.511-90.994c0.363-80.957,0.566-161.914,0.743-242.873c0.051-23.148,0.114-46.293,0.13-69.441
					c0.004-6.162-0.454-12.313-0.441-18.48c0.014-6.078,0.026-12.155,0.039-18.231c0.029-14.497,0.058-28.994,0.086-43.491
					c0.105-55.268,0.192-110.533,0.269-165.799c0.813-588.578,0.796-1177.158,0.733-1765.735
					c-0.072-686.621-0.36-1373.239-0.792-2059.86c-0.351-555.74-0.689-1111.481-1.573-1667.221
					c-0.019-12.261-0.054-24.52-0.058-36.779c-0.002-5.851,0.469-11.658,0.461-17.512c-0.007-5.921-0.015-11.844-0.023-17.765
					c-0.035-24.68-0.072-49.358-0.109-74.039c-0.066-42.799-0.14-85.599-0.226-128.399c-0.07-36.295-0.153-72.59-0.257-108.886
					c-0.044-14.984-0.091-29.967-0.147-44.952c-0.052-14.346-0.242-28.697-0.088-43.043c0.063-5.88,0.173-11.748,0.146-17.632
					c-0.026-5.529-0.054-11.06-0.087-16.59c-0.061-10.469-0.201-20.94-0.188-31.409c0.008-7.736,0.026-15.465-0.036-23.202
					c-0.053-6.438-0.354-12.865-0.206-19.302c0.048-2.109,0.294-4.209,0.534-6.304c0.039-0.31,0.077-0.622,0.116-0.932
					c-0.064-5.049,0.252-10.075,0.948-15.076c0.412-1.978,0.825-3.956,1.237-5.934c0.65-3.909,1.611-7.739,2.884-11.488
					c1.417-4.781,3.921-8.99,6.555-13.163c2.255-3.571,5.596-6.32,8.836-8.923c3.13-2.514,6.919-4.038,10.576-5.57
					c5.134-2.149,10.88-2.894,16.339-3.667c9.095-1.286,18.469-0.98,27.625-0.938c18.95,0.086,37.903,0.284,56.848,0.658
					c13.848,0.272,27.688,0.847,41.534,1.158c15.084,0.341,30.255-0.417,45.329-0.85c5.448-0.191,10.896-0.382,16.343-0.573
					c1.871,0.575,3.751,1.113,5.642,1.618c1.975,0.818,3.838,1.839,5.592,3.063c1.628,1.289,3.092,2.742,4.392,4.361
					c3.348,3.729,4.072,9.23,4.051,13.988c0.406-0.03,0.751-0.212,1.034-0.541c1.09-0.911,2.154-1.849,3.193-2.815
					c1.055-0.951,2.084-1.928,3.088-2.933C278.742,40.467,278.952,40.139,279.019,39.738z"/>
			</g>
		</g>
	</g>
</g>
</svg>
