<?xml version="1.0" encoding="utf-8"?>
<!-- Generator: Adobe Illustrator 16.0.0, SVG Export Plug-In . SVG Version: 6.00 Build 0)  -->
<!DOCTYPE svg PUBLIC "-//W3C//DTD SVG 1.1//EN" "http://www.w3.org/Graphics/SVG/1.1/DTD/svg11.dtd">
<svg version="1.1" id="Layer_1" xmlns="http://www.w3.org/2000/svg" xmlns:xlink="http://www.w3.org/1999/xlink" x="0px" y="0px"
	 width="954px" height="4053px" viewBox="0 0 954 4053" enable-background="new 0 0 954 4053" xml:space="preserve">
<g>
	<image overflow="visible" opacity="0.75" width="954" height="3678" xlink:href="AD16D5C8.png" >
	</image>
	<g>
		<path fill="#F2F2F2" d="M920.223,105.319c-0.131-45.613-37.527-82.352-83.134-81.563c-87.655,1.514-178.178,8.229-263.146,4.871
			c-74.831-2.958-158.865-3.992-243.412-3.67C179.959,25.526,18.828,0.939,19.73,259.793c3.517,1009.316,20.072,2332.625,0,3336.225
			c-0.902,45.098,53.442,32.957,64.494,33.569c265.777,14.702,532.487,15.87,798.412,3.499c9.261-0.432,19.287-1.148,26.23-6.646
			c8.82-6.984,9.407-18.902,9.34-29.439c-1.855-292.619,4.403-207.331,2.548-499.949c-0.661-104.285,0.662-197.86,0-302.146
			c-0.731-115.24-0.17-939.809-0.902-1055.051C916.383,1192.824,921.786,651.908,920.223,105.319z"/>
		<g>
			<g>
				<path opacity="0.1091" fill="#FFFFFF" d="M930.485,95.907c-0.51-7.729-0.254-5.188-1.379-13.026
					c-0.652-4.542-2.505-9.243-3.989-13.544c-2.298-6.665-6.253-12.64-10.083-18.481c-3.909-5.962-9.16-10.907-14.301-15.765
					c-5.24-4.95-11.526-8.608-17.708-12.202c-6.335-3.683-13.405-5.82-20.364-7.917c-7.218-2.174-14.814-2.571-22.278-2.963
					c-9.163,0.227-18.321,0.579-27.475,1.055c-12.954,0.56-25.906,1.146-38.859,1.764c-38.431,1.785-76.851,3.576-115.31,4.666
					c-18.733,0.53-37.468,0.542-56.207,0.48c-18.034-0.058-36.063-0.917-54.079-1.637c-78.338-3.132-156.788-3.227-235.173-2.947
					c-18.113,0.063-36.229-0.321-54.341-0.406c-17.821-0.082-35.616,0.358-53.406,1.384c-17.141,0.988-34.108,3.363-50.937,6.7
					c-8.14,1.615-16.077,4.01-23.994,6.451c-10.408,3.208-20.242,7.87-29.899,12.839c-7.275,3.744-13.897,8.566-20.472,13.39
					c-6.77,4.968-12.62,11.037-18.421,17.058c-6.133,6.366-11.092,13.752-16.021,21.041c-5.341,7.899-9.323,16.644-13.314,25.262
					c-4.41,9.524-7.376,19.673-10.388,29.693c-3.375,11.229-5.309,22.864-7.316,34.39c-2.264,13.006-3.16,26.233-4.137,39.379
					c-1.491,20.067-0.904,40.272-0.545,60.367c1.114,62.528,1.295,125.077,1.658,187.614c0.403,69.572,0.765,139.144,1.16,208.715
					c0.791,138.979,1.655,277.957,2.509,416.935c1.78,289.786,3.489,579.571,4.477,869.36
					c0.982,288.809,1.188,577.623-0.175,866.432c-0.65,137.757-1.734,275.513-3.315,413.263
					c-0.728,63.514-1.608,127.025-2.599,190.536c-0.484,30.995-1.019,61.991-1.575,92.987c-0.274,15.294-0.567,30.586-0.859,45.879
					c-0.197,10.116-0.397,20.232-0.602,30.349c-0.074,3.422,0.307,6.79,1.142,10.106c0.298,1.614,0.874,3.248,1.64,4.706
					c0.72,1.368,1.438,2.735,2.158,4.103c1.679,2.616,3.687,4.949,6.025,6.998c3.329,3.355,8.003,5.299,12.237,7.145
					c4.419,1.928,9.323,2.613,14.035,3.369c8.622,1.385,17.666,0.588,26.298-0.24c5.939-0.57,11.825-1.797,17.782-2.118
					c0.491,0.026,0.981,0.053,1.471,0.077c12.997,0.666,25.991,1.382,38.982,2.146c19.422,1.107,38.859,1.977,58.292,2.87
					c38.93,1.788,77.884,3.052,116.838,4.173c84.484,2.433,169.013,3.116,253.528,2.768c78.027-0.322,156.043-2.098,234.023-4.75
					c19.492-0.663,38.98-1.469,58.469-2.275c14.33-0.593,28.687-1.132,43.004-2.007c2.528-0.154,6.03-0.51,8.475-1.139
					c1.373-0.336,2.74-0.688,4.104-1.063c2.799-0.871,5.419-2.119,7.862-3.739c4.238-2.395,6.729-6.708,9.132-10.715
					c0.606-1.523,1.211-3.048,1.817-4.571c1.034-3.184,1.707-6.44,2.017-9.773c0.719-4.815,0.38-9.801,0.199-14.639
					c-0.645-17.34-1.031-34.657-1.337-52.004c-0.801-45.427-0.834-90.87-0.329-136.301c0.279-25.185,0.813-50.37,1.366-75.551
					c0.645-29.349,1.099-58.691,1.277-88.049c0.285-46.816,0.063-93.639-0.193-140.456c-0.443-80.472,0.024-160.938,0.138-241.409
					c0.05-35.805-0.233-71.604-0.376-107.407c-0.109-27.284-0.072-54.569-0.111-81.854c-0.113-78.678-0.136-157.355-0.161-236.034
					c-0.059-178.703-0.042-357.406-0.147-536.109c-0.03-53.548-0.107-107.097-0.283-160.644
					c-0.206-62.445-0.69-124.892-0.892-187.338c-0.275-85.378-0.338-170.758-0.318-256.138
					c0.092-400.208,2.677-800.414,1.549-1200.624c-0.003-0.865-1.383,0.749-1.35,0.714c-0.63,0.667-1.24,1.354-1.831,2.055
					c-0.352,0.346-0.623,0.742-0.815,1.189c0.905,328.077-0.598,656.151-1.285,984.227c-0.345,164.091-0.409,328.182,0.13,492.272
					c0.13,39.496,0.318,78.99,0.537,118.485c0.026,6.573,0.053,13.147,0.079,19.721c0.755,7.621,0.827,15.225,0.213,22.81
					c-0.242,3.373-0.019,6.877-0.021,10.26c-0.016,23.515,0.233,47.022,0.231,70.537c-0.005,166.751,0.043,333.504,0.082,500.257
					c0.021,88.105,0.048,176.21,0.137,264.315c0.033,33.843,0.082,67.686,0.161,101.528c0.061,26.338-0.091,52.665,0.085,79.003
					c0.052,7.778,0.383,15.579,0.233,23.354c-0.264,13.788,0.067,27.661,0.111,41.453c0.059,18.875,0.021,37.752-0.008,56.628
					c-0.121,79.235-0.44,158.461-0.072,237.695c0.206,44.592,0.292,89.188,0.047,133.779c-0.08,14.55-0.236,29.098-0.439,43.647
					c-0.192,13.867-0.706,27.729-1.005,41.596c-0.258,11.978-0.307,23.953-0.553,35.931c-0.283,13.887-0.49,27.775-0.659,41.665
					c-0.577,47.677-0.234,95.354,0.436,143.027c0.064,5.16,0.131,10.321,0.197,15.482c0.523,8.506,0.722,17.014,0.593,25.525
					c-0.038,4.532-0.855,8.83-1.854,13.225c-0.997,4.385-3.451,8.012-6.008,11.593c-3.857,5.401-11.522,7.598-17.502,8.964
					c-3.95,0.903-8.141,0.963-12.167,1.188c-19.46,1.078-38.952,1.741-58.425,2.537c-45.451,1.859-90.923,3.16-136.399,4.229
					c-162.396,3.815-324.92,2.09-487.226-4.344c-39.074-1.549-78.107-4.049-117.185-5.438c-4.916-0.175-9.774,0.823-14.662,1.341
					c-6.533,0.693-13.101,0.916-19.664,0.756c-4.367-0.105-8.619-0.86-12.886-1.707c-4.32-0.856-8.212-2.699-12.111-4.654
					c-7.741-3.882-12.28-11.638-14.756-19.673c-0.253-1.576-0.506-3.154-0.76-4.73c-0.392-6.786-0.364-13.575,0.083-20.37
					c0.303-15.247,0.588-30.497,0.872-45.746c0.576-30.909,1.095-61.819,1.599-92.73c1.117-68.721,2.025-137.446,2.831-206.171
					c1.615-137.763,2.613-275.533,3.289-413.303c2.834-578.608-0.791-1157.233-4.334-1735.829
					c-0.851-138.973-1.71-277.943-2.498-416.916c-0.749-131.938-0.933-263.892-2.588-395.823
					c-0.192-15.231-0.253-30.398,0.109-45.626c0.325-13.589,1.75-27.101,3.261-40.596c1.341-11.968,3.839-23.739,6.435-35.481
					c2.314-10.468,5.871-20.575,9.506-30.633c3.285-9.087,7.833-17.611,12.434-26.072c4.237-7.795,9.69-14.815,15.147-21.764
					c5.157-6.565,11.393-12.173,17.581-17.72c7.999-7.168,17.334-12.687,26.652-17.913c14.093-7.904,29.837-12.637,45.389-16.642
					c16.351-4.212,33.303-6.028,50.076-7.532c17.599-1.581,35.331-1.757,52.986-1.885c21.122-0.154,42.246,0.354,63.368,0.385
					c28.947,0.04,57.892-0.129,86.84,0.014c37.537,0.184,75.069,0.867,112.596,1.82c17.708,0.451,35.411,1.136,53.112,1.813
					c18.435,0.705,36.849,0.894,55.296,0.94c37.962,0.097,75.941-1.675,113.86-3.276c32.368-1.369,64.729-2.785,97.106-3.929
					c2.483,0.007,4.966,0.015,7.449,0.022c4.858,0.216,9.667,0.824,14.425,1.826c7.003,1.181,13.594,4.025,20.056,6.818
					c6.388,2.76,12.02,6.971,17.547,11.104c5.513,4.123,9.977,9.444,14.359,14.68c4.39,5.242,7.474,11.401,10.495,17.473
					c0.84,2.097,1.68,4.195,2.521,6.292c2.946,8.277,4.38,16.735,4.3,25.377c0.026,0.802,1.301-0.479,1.379-0.546
					C928.331,98.424,930.556,96.972,930.485,95.907z"/>
				<path opacity="0.1091" fill="#FFFFFF" d="M931.85,97.582c-0.55-1.99-1.099-3.982-1.648-5.972
					c-0.033-4.753-0.876-9.357-2.527-13.811c-1.913-6.914-5.227-13.085-8.683-19.31c-3.486-6.278-8.437-11.617-13.261-16.851
					c-4.918-5.336-10.981-9.444-16.94-13.481c-6.086-4.125-13.014-6.761-19.83-9.351c-7.032-2.67-14.56-3.614-21.959-4.54
					c-2.554-0.112-5.105-0.225-7.659-0.336c-9.121,0.324-18.241,0.7-27.358,1.129c-25.99,1.116-51.972,2.461-77.957,3.693
					c-38.052,1.803-76.1,3.07-114.192,3.41c-36.131,0.323-72.248-1.812-108.352-2.89c-37.546-1.123-75.113-1.503-112.673-1.776
					c-34.979-0.255-69.958,0.181-104.936-0.109c-18.061-0.149-36.115-0.371-54.178-0.208c-17.648,0.159-35.245,1.14-52.808,2.836
					c-16.876,1.629-33.455,4.973-49.796,9.416c-7.939,2.159-15.572,5.212-23.178,8.307c-7.467,3.037-15.078,6.956-21.804,11.404
					c-8.451,5.59-5.207,3.315-13.438,9.437c-6.767,5.034-12.602,11.169-18.389,17.257C54.166,82.27,49.23,89.718,44.323,97.067
					c-5.315,7.961-9.268,16.759-13.232,25.429c-4.382,9.582-7.329,19.774-10.32,29.843c-3.35,11.276-5.264,22.951-7.251,34.518
					c-2.244,13.058-3.111,26.334-4.065,39.529c-1.453,20.125-0.833,40.382-0.452,60.531c1.18,62.566,1.338,125.156,1.705,187.731
					c0.408,69.576,0.771,139.154,1.167,208.73c0.792,138.982,1.658,277.963,2.514,416.945
					c1.783,289.786,3.492,579.573,4.478,869.364c0.981,288.804,1.182,577.613-0.186,866.417
					c-0.653,137.753-1.74,275.504-3.324,413.249c-0.729,63.51-1.613,127.018-2.606,190.524c-0.484,30.996-1.021,61.99-1.578,92.982
					c-0.275,15.293-0.567,30.585-0.862,45.877c-0.195,10.116-0.396,20.231-0.602,30.346c-0.057,3.441,0.348,6.827,1.215,10.154
					c0.414,2.162,2.692,7.184,4.036,8.918c0.963,1.244,1.928,2.488,2.893,3.732c2.142,2.387,4.572,4.431,7.292,6.132
					c3.958,2.882,8.875,4.309,13.467,5.751c4.62,1.451,9.623,1.778,14.412,2.183c8.601,0.729,17.377-0.282,25.908-1.331
					c3.15-0.388,6.292-0.868,9.437-1.299c8.404-1.148,17.087,0.297,25.41,0.803c77.738,4.736,155.619,7.279,233.473,9.107
					c84.517,1.986,169.064,2.242,253.598,1.468c78.035-0.715,156.053-2.896,234.032-5.936c19.491-0.76,38.978-1.668,58.463-2.574
					c4.179-0.194,8.229-0.683,12.35-1.383c1.466-0.249,2.963-0.583,4.339-1.139c2.85-0.935,5.516-2.245,7.996-3.935
					c2.697-1.879,4.942-4.199,6.736-6.957c3.198-4,4.308-9.386,5.473-14.208c1.18-4.884,0.899-10.29,0.846-15.264
					c-0.083-1.614-0.168-3.228-0.25-4.842c-0.535-12.298-0.896-24.601-1.083-36.91c-0.3-14.151-0.472-28.305-0.647-42.457
					c-0.511-41.202-0.411-82.415,0.167-123.617c0.342-24.231,0.965-48.459,1.472-72.688c0.66-31.5,0.953-63.002,1.075-94.507
					c0.205-52.578-0.2-105.157-0.49-157.735c-0.449-81.341,0.438-162.687,0.301-244.028c-0.044-26.555-0.293-53.108-0.354-79.664
					c-0.066-29.097-0.093-58.193-0.12-87.291c-0.079-80.703-0.097-161.404-0.118-242.109
					c-0.044-177.227-0.015-354.452-0.173-531.679c-0.046-50.025-0.007-100.054-0.329-150.078
					c-1.023-158.721-1.25-317.447-1.148-476.171c0.246-387.089,2.624-774.175,1.524-1161.266c-0.001-0.711-1.262-0.008-1.261,0.454
					c0.924,328.081-0.572,656.16-1.271,984.241c-0.349,164.083-0.424,328.167,0.104,492.25c0.262,80.597,0.898,161.19,1.034,241.788
					c0.279,166.848,0.205,333.698,0.235,500.545c0.028,148.234-0.126,296.469,0.301,444.702
					c0.116,40.459,0.372,80.915,0.316,121.375c-0.05,37.184-0.246,74.366-0.346,111.551c-0.113,42.097,0.099,84.192,0.342,126.29
					c0.422,73.063,0.315,146.115-1.283,219.166c-0.564,25.794-1.082,51.588-1.354,77.389c-0.503,47.898-0.11,95.801,0.687,143.693
					c0.127,7.646,0.305,25.146,0.692,32.564c0.242,4.654,0.366,9.25,0.287,13.911c-0.085,5.014-1.154,9.68-2.539,14.457
					c-1.395,4.81-4.447,8.456-7.651,12.136c-1.19,0.91-2.38,1.819-3.57,2.729c-3.686,2.245-7.675,3.764-11.964,4.555
					c-4.021,0.967-8.288,1.064-12.395,1.319c-19.455,1.214-38.984,1.752-58.46,2.554c-25.988,1.068-51.984,1.913-77.98,2.726
					c-162.468,5.073-325.099,4.548-487.554-0.566c-38.908-1.225-77.802-2.911-116.684-4.788c-19.365-0.934-38.72-2.057-58.074-3.199
					c-1.983-0.118-3.946,0.154-5.91,0.383c-8.551,0.991-16.966,2.05-25.577,2.313c-4.493,0.139-8.944-0.268-13.405-0.73
					c-6.188-0.645-11.953-2.664-17.602-5.148c-4.179-1.838-7.486-4.922-10.658-8.09c-1.574-2.467-3.147-4.934-4.722-7.398
					c-1.364-2.949-2.204-6.043-2.518-9.277c-0.101-1.756-0.201-3.512-0.302-5.267c0.205-10.116,0.406-20.233,0.601-30.35
					c0.3-15.293,0.58-30.586,0.861-45.879c1.243-67.809,2.267-135.621,3.179-203.436c1.838-136.393,3.021-272.796,3.859-409.199
					c3.552-578.2,0.192-1156.428-3.325-1734.619c-0.851-140.137-1.734-280.274-2.559-420.411
					c-0.786-133.45-1.292-266.902-2.37-400.351c-0.249-31.024-0.63-62.048-1.192-93.07c-0.269-14.9,0.115-29.717,0.774-44.6
					c0.58-13.124,2.27-26.147,4.044-39.148c1.575-11.538,4.332-22.845,7.171-34.117c2.545-10.1,6.325-19.801,10.176-29.451
					c3.503-8.783,8.248-16.965,13.04-25.081c5.895-9.981,13.602-18.699,21.546-27.058c9.229-9.709,21.186-17.636,32.503-24.301
					c6.983-4.111,14.557-7.153,22.038-10.201c15.368-6.262,31.875-9.578,48.158-12.364c17.12-2.929,34.577-3.873,51.9-4.625
					c20.951-0.91,41.966-0.532,62.927-0.317c25.085,0.259,50.166,0.119,75.251,0.09c38.212-0.044,76.422,0.372,114.626,1.034
					c36.059,0.623,72.081,2.1,108.12,3.34c18.57,0.64,37.174,0.393,55.75,0.224c25.364-0.229,50.725-1.342,76.065-2.392
					c38.905-1.612,77.789-3.788,116.69-5.51c2.563-0.101,5.124-0.201,7.687-0.3c5.032,0.008,10.03,0.422,14.995,1.242
					c9.731,1.208,18.889,5.102,27.653,9.255c6.515,3.087,12.196,7.639,17.774,12.114c5.574,4.471,10.007,10.151,14.357,15.747
					c4.345,5.59,7.265,12.099,10.13,18.507c1.598,4.352,2.957,8.776,4.078,13.275c-0.356,4.548,0.524,8.827,2.639,12.832
					C931.17,98.296,931.979,98.057,931.85,97.582z"/>
				<path opacity="0.1091" fill="#FFFFFF" d="M928.428,96.324c-0.104-2.23-0.209-4.458-0.313-6.688
					c-0.399-4.546-1.247-9.009-2.546-13.384c-1.635-6.746-5.034-12.958-8.296-19.006c-3.326-6.164-8.075-11.43-12.716-16.597
					c-4.719-5.253-10.567-9.325-16.317-13.326c-5.864-4.083-12.564-6.731-19.16-9.33c-6.799-2.678-14.099-3.685-21.276-4.671
					c-2.478-0.139-4.955-0.277-7.434-0.416c-9.057,0.194-18.11,0.519-27.158,0.977c-25.848,1.036-51.688,2.256-77.53,3.412
					c-38.012,1.7-76.018,2.937-114.067,3.265c-36.152,0.313-72.29-1.773-108.416-2.857c-37.537-1.125-75.095-1.518-112.646-1.802
					c-34.983-0.264-69.968,0.18-104.95-0.104c-18.058-0.146-36.108-0.368-54.167-0.219c-17.607,0.146-35.165,1.092-52.692,2.736
					c-16.776,1.575-33.27,4.824-49.533,9.157c-7.872,2.097-15.448,5.07-22.998,8.084c-10.004,3.996-19.231,9.562-28.229,15.408
					c-6.876,4.468-12.938,10.027-18.947,15.556c-6.291,5.787-11.507,12.618-16.685,19.369c-5.568,7.258-9.854,15.419-14.133,23.462
					c-4.708,8.849-8.013,18.392-11.351,27.807c-3.734,10.532-6.033,21.541-8.397,32.433c-2.67,12.297-3.946,24.88-5.307,37.368
					c-1.544,14.164-1.77,28.456-2.079,42.682c-0.022,10.333,0.073,20.664,0.287,30.993c0.144,10.336,0.269,20.673,0.375,31.009
					c0.703,62.701,0.923,125.41,1.262,188.112c0.378,69.886,0.756,139.771,1.156,209.656c0.799,139.453,1.673,278.904,2.526,418.355
					c1.776,290.133,3.459,580.268,4.383,870.405c0.919,288.358,1.04,576.719-0.444,865.076
					c-0.706,137.23-1.856,274.461-3.515,411.685c-0.762,63.191-1.682,126.378-2.711,189.565
					c-0.502,30.818-1.057,61.635-1.634,92.451c-0.284,15.199-0.587,30.399-0.89,45.598c-0.093,3.393,0.271,6.734,1.092,10.025
					c0.771,2.982,1.958,5.789,3.558,8.418c2.026,3.941,5.777,6.797,9.188,9.412c3.574,2.74,8.014,4.169,12.195,5.634
					c4.239,1.485,8.91,1.932,13.338,2.442c4.334,0.498,8.714,0.394,13.066,0.335c7.069-0.094,14.133-1.073,21.143-1.903
					c2.012-0.237,3.942-0.366,5.961-0.25c25.942,1.486,51.891,2.836,77.846,4.105c162.271,7.936,324.874,9.424,487.299,6.77
					c77.999-1.273,155.968-4.003,233.892-7.604c4.138-0.19,8.151-0.627,12.238-1.283c4.328-0.694,8.056-2.521,11.847-4.597
					c4.083-2.233,6.53-6.303,8.881-10.103c1.351-2.859,2.366-5.833,3.049-8.921c0.61-3.113,1.003-6.254,1.182-9.422
					c0.403-4.449,0.035-9.066-0.103-13.521c-0.488-15.799-0.592-31.615-0.794-47.418c-0.318-24.765-0.432-49.532-0.447-74.299
					c-0.021-34.178,0.364-68.354,1.051-102.523c0.476-23.779,1.069-47.559,1.454-71.338c0.605-37.274,0.662-74.557,0.63-111.835
					c-0.054-63.893-0.622-127.782-0.519-191.676c0.06-37.185,0.253-74.368,0.343-111.554c0.082-33.791-0.19-67.582-0.179-101.372
					c0.008-19.374-0.217-38.752-0.261-58.126c-0.075-32.449-0.042-64.901-0.075-97.35c-0.087-84.363-0.106-168.726-0.129-253.088
					c-0.043-173.342-0.027-346.684-0.159-520.025c-0.046-59.905-0.322-119.807-0.646-179.712
					c-0.889-164.214-0.922-328.433-0.705-492.648c0.473-360.855,2.458-721.709,1.444-1082.566c-0.504,0.213-0.905,0.561-1.207,1.045
					c-1.271,1.506-2.515,3.036-3.729,4.588c-1.23,1.539-2.434,3.102-3.606,4.687c-0.402,0.404-0.648,0.876-0.738,1.415
					c0.869,328.069-0.644,656.136-1.313,984.204c-0.334,164.105-0.379,328.21,0.176,492.313
					c0.135,39.495,0.331,78.989,0.536,118.483c0.03,6.582,0.061,13.162,0.091,19.743c1.128,7.639,1.197,15.229,0.209,22.772
					c-0.013,1.048-0.024,2.094-0.039,3.141c-0.035,2.364-0.061,4.725-0.071,7.089c-0.071,9.152-0.118,18.305-0.108,27.457
					c0.006,5.842,0.256,11.652,0.493,17.489c-0.016,4.129-0.029,8.256-0.042,12.385c-0.013,4.411-0.023,8.823-0.033,13.234
					c-0.396,166.722-0.182,333.449-0.133,500.17c0.026,88.118,0.069,176.235,0.218,264.352c0.057,33.861,0.138,67.722,0.28,101.582
					c0.057,13.563,0.439,27.143-0.286,40.691c0.011,2.048,0.022,4.095,0.034,6.142c0.02,3.877,0.045,7.753,0.075,11.628
					c0.05,6.845,0.112,13.688,0.203,20.531c0.104,7.773,0.663,15.604,0.341,23.37c-0.039,0.931-0.076,1.862-0.115,2.794
					c0.071,12.875,0.116,25.75,0.138,38.625c0.048,18.872,0.007,37.746-0.025,56.617c-0.133,79.222-0.404,158.439-0.176,237.661
					c0.129,44.575,0.229,89.153,0.056,133.729c-0.057,14.554-0.189,29.107-0.352,43.663c-0.068,6.067-0.335,12.066-0.818,18.114
					c-0.073,3.932-0.149,7.865-0.229,11.798c-0.081,3.852-0.164,7.702-0.247,11.553c-0.128,5.903-0.221,11.776-0.106,17.678
					c0.118,6.146-0.016,12.251-0.152,18.396c-0.311,13.875-0.56,27.751-0.777,41.628c-0.736,47.2-0.722,94.403-0.843,141.607
					c0.006,5.084,0.012,10.168,0.019,15.252c1.627,6.737,1.557,13.301-0.212,19.688c-0.135,1.129-0.271,2.26-0.404,3.39
					c-0.36,2.215-0.82,4.408-1.383,6.58c-0.742,3.16-2.417,6.031-4.177,8.694c-0.715,0.833-1.429,1.667-2.143,2.499
					c-1.524,1.594-3.343,2.68-5.459,3.254c-1.124,0.451-2.249,0.902-3.375,1.354c-2.475,0.706-4.982,1.268-7.521,1.686
					c-3.908,0.762-8.015,0.764-11.976,0.924c-45.415,1.83-90.816,3.738-136.251,5.1c-162.278,4.864-324.702,4.092-486.959-1.108
					c-38.946-1.247-77.876-2.926-116.8-4.745c-6.486-0.32-12.972-0.642-19.459-0.961c-13.171-0.85-26.356-1.344-39.554-1.481
					c-1.851-0.046-3.531-0.247-5.409-0.151c-6.194,0.317-12.271,0.312-18.464-0.143c-3.499-0.257-6.917-0.917-10.349-1.62
					c-4.41-0.903-8.439-2.795-12.375-4.898c-2.756-1.476-4.965-3.897-6.951-6.231c-2.286-2.687-3.37-5.897-4.556-9.153
					c-0.278-1.321-0.558-2.642-0.836-3.962c-0.557-3.195-0.767-6.412-0.633-9.653c0.1-5.052,0.198-10.104,0.296-15.155
					c0.196-10.153,0.389-20.306,0.577-30.459c1.264-67.456,2.305-134.917,3.235-202.379c1.873-135.859,3.089-271.727,3.959-407.596
					c3.701-577.969,0.404-1155.967-3.063-1733.929c-1.647-274.518-3.604-549.037-4.537-823.559
					c-0.105-30.888-0.165-61.777-0.18-92.665c-0.008-15.192,0.043-30.373,0.31-45.563c0.241-13.823,1.596-27.576,3.038-41.312
					c1.267-12.063,3.673-23.953,6.158-35.807c2.192-10.461,5.61-20.582,9.107-30.656c3.113-8.966,7.455-17.408,11.854-25.788
					c5.262-10.025,12.305-18.933,19.628-27.495c10.119-11.829,23.091-20.81,36.437-28.561c13.399-7.78,28.446-12.496,43.312-16.507
					c15.851-4.278,32.324-6.183,48.62-7.781c20.309-1.995,40.809-2.144,61.197-2.242c18.087-0.086,36.179,0.25,54.268,0.364
					c12.588,0.081,25.211-0.144,37.796-0.17c25.768-0.052,51.534,0.132,77.301,0.363c43.033,0.388,86.055,1.448,129.067,2.855
					c18.091,0.592,36.162,1.154,54.262,1.426c24.996,0.375,50.012-0.281,74.999-0.872c44.192-1.045,88.352-3.001,132.553-3.729
					c6.363-0.134,12.728-0.267,19.092-0.401c4.408,0.071,8.782,0.501,13.119,1.296c8.436,1.188,16.326,4.732,23.861,8.491
					c5.589,2.789,10.432,6.835,15.188,10.806c6.381,5.329,11.187,12.24,15.619,19.173c3.395,5.305,5.494,11.298,7.558,17.194
					c1.272,4.071,2.17,8.222,2.696,12.453c0.281,4.079,0.285,8.159,0.01,12.238c0.515-0.172,0.939-0.487,1.273-0.945
					c1.371-1.398,2.717-2.822,4.034-4.273c1.333-1.435,2.64-2.896,3.919-4.379C928.021,97.301,928.3,96.853,928.428,96.324z"/>
				<path opacity="0.1091" fill="#FFFFFF" d="M928.095,97.549c-0.102-2.189-0.204-4.379-0.305-6.567
					c-0.384-4.535-1.222-8.981-2.518-13.344c-1.631-6.746-5.021-12.958-8.277-19.008c-3.321-6.175-8.067-11.454-12.704-16.633
					c-4.72-5.273-10.572-9.368-16.323-13.393c-5.874-4.112-12.59-6.789-19.198-9.417c-6.822-2.714-14.153-3.751-21.36-4.77
					c-2.491-0.148-4.982-0.298-7.474-0.446c-9.098,0.148-18.19,0.465-27.276,0.951c-25.889,1.036-51.77,2.252-77.651,3.415
					c-38.029,1.708-76.051,2.957-114.118,3.293c-36.148,0.318-72.28-1.762-108.401-2.844c-37.537-1.125-75.095-1.52-112.646-1.804
					c-34.987-0.264-69.976,0.186-104.962-0.1c-18.057-0.146-36.109-0.368-54.167-0.22c-17.617,0.146-35.183,1.087-52.719,2.727
					c-16.803,1.571-33.324,4.816-49.615,9.145c-7.894,2.099-15.494,5.071-23.066,8.087c-10.049,4.001-19.315,9.577-28.356,15.437
					c-6.916,4.481-13.015,10.061-19.062,15.611c-6.334,5.814-11.586,12.681-16.8,19.467c-5.608,7.298-9.921,15.507-14.229,23.598
					c-4.738,8.897-8.059,18.496-11.411,27.964c-3.75,10.584-6.051,21.647-8.419,32.593c-2.67,12.348-3.939,24.98-5.294,37.518
					c-1.536,14.209-1.747,28.546-2.043,42.816c-0.012,10.356,0.094,20.712,0.318,31.066c0.152,10.35,0.285,20.702,0.4,31.054
					c0.748,62.725,0.965,125.458,1.31,188.186c0.382,69.888,0.76,139.774,1.161,209.662c0.8,139.453,1.673,278.905,2.527,418.358
					c1.777,290.132,3.459,580.266,4.382,870.402c0.917,288.355,1.037,576.713-0.45,865.066c-0.709,137.23-1.86,274.457-3.52,411.679
					c-0.764,63.188-1.683,126.376-2.716,189.561c-0.502,30.816-1.059,61.632-1.636,92.448c-0.284,15.199-0.588,30.397-0.892,45.597
					c-0.09,3.406,0.281,6.759,1.113,10.061c0.787,3.017,1.996,5.853,3.629,8.506c2.094,4.028,5.942,6.922,9.448,9.587
					c3.679,2.799,8.277,4.231,12.579,5.695c4.36,1.481,9.152,1.885,13.694,2.355c4.41,0.455,8.864,0.29,13.282,0.176
					c7.123-0.185,14.229-1.246,21.285-2.145c2.007-0.254,3.918-0.396,5.932-0.278c25.946,1.521,51.908,2.841,77.868,4.116
					c77.866,3.827,155.817,5.88,233.763,7.127c84.508,1.354,169.038,1,253.543-0.391c78.001-1.282,155.972-4.023,233.898-7.631
					c4.14-0.191,8.155-0.64,12.243-1.309c4.344-0.71,8.063-2.573,11.849-4.689c4.096-2.288,6.509-6.445,8.829-10.302
					c1.338-2.897,2.338-5.907,2.996-9.03c0.594-3.146,0.971-6.318,1.126-9.517c0.37-4.447-0.025-9.052-0.178-13.503
					c-0.538-15.862-0.718-31.732-0.952-47.6c-0.364-24.752-0.501-49.507-0.528-74.26c-0.039-34.156,0.353-68.309,1.045-102.456
					c0.481-23.777,1.078-47.561,1.454-71.341c0.592-37.289,0.643-74.587,0.606-111.88c-0.061-63.882-0.611-127.763-0.508-191.646
					c0.06-37.186,0.253-74.369,0.343-111.555c0.084-33.776-0.268-67.556-0.158-101.332c0.062-19.396-0.25-38.803-0.297-58.201
					c-0.079-32.439-0.027-64.883-0.063-97.324c-0.092-84.369-0.116-168.738-0.137-253.107
					c-0.042-173.333-0.036-346.665-0.148-519.998c-0.039-59.904-0.315-119.802-0.644-179.705
					c-0.896-164.214-0.921-328.433-0.704-492.648c0.473-360.855,2.456-721.709,1.444-1082.564c-0.369,0.058-0.663,0.256-0.88,0.594
					c-0.865,0.945-1.702,1.914-2.513,2.908c-0.654,0.791-2.814,2.738-2.811,3.985c0.882,328.072-0.626,656.142-1.303,984.212
					c-0.339,164.099-0.392,328.199,0.158,492.297c0.133,39.495,0.323,78.991,0.538,118.486c0.096,17.585,0.315,35.162,0.21,52.744
					c-0.055,9.146-0.083,18.292-0.085,27.438c-0.003,5.852,0.224,11.679,0.435,17.527c-0.012,4.127-0.022,8.254-0.032,12.382
					c-0.01,4.41-0.018,8.819-0.024,13.229c-0.303,166.715-0.128,333.434-0.082,500.148c0.024,88.119,0.064,176.24,0.198,264.358
					c0.05,33.864,0.123,67.728,0.25,101.589c0.05,13.551,0.45,27.132-0.241,40.668c0.012,2.047,0.021,4.096,0.032,6.143
					c0.017,3.877,0.04,7.754,0.067,11.63c0.045,6.846,0.101,13.691,0.179,20.537c0.091,7.786,0.613,15.625,0.323,23.402
					c-0.035,0.928-0.068,1.854-0.103,2.78c0.074,12.877,0.123,25.753,0.146,38.629c0.051,18.874,0.011,37.746-0.02,56.62
					c-0.131,79.215-0.421,158.427-0.154,237.644c0.151,44.591,0.252,89.187,0.069,133.778c-0.06,14.563-0.196,29.126-0.369,43.688
					c-0.073,6.058-0.278,12.052-0.743,18.091c-0.075,3.934-0.152,7.866-0.231,11.8c-0.082,3.851-0.163,7.702-0.246,11.553
					c-0.259,12.033-0.072,24.055-0.337,36.088c-0.306,13.87-0.544,27.741-0.747,41.614c-0.696,47.382-0.566,94.763-0.377,142.146
					c0.026,5.125,0.053,10.251,0.081,15.374c1.494,6.931,1.549,13.764,0.157,20.502c-0.101,1.274-0.202,2.549-0.303,3.822
					c-0.266,2.539-0.696,5.049-1.294,7.527c-0.759,3.672-2.539,6.918-4.471,10.063c-0.795,0.969-1.589,1.938-2.384,2.906
					c-1.559,1.817-3.467,3.08-5.729,3.787c-7.396,3.324-15.196,3.974-23.202,4.328c-45.424,2.011-90.85,3.771-136.298,5.147
					c-162.324,4.921-324.798,4.213-487.104-0.965c-38.935-1.241-77.854-2.925-116.766-4.763c-6.48-0.324-12.962-0.646-19.443-0.971
					c-13.197-0.913-26.41-1.417-39.639-1.511c-0.444-0.05-0.889-0.102-1.333-0.151c-1.358-0.145-2.714-0.111-4.069,0.1
					c-6.462,0.507-12.833,0.734-19.319,0.526c-3.801-0.122-7.531-0.663-11.277-1.263c-4.976-0.795-9.571-2.664-14.053-4.879
					c-3.185-1.573-5.707-4.127-8.079-6.686c-2.547-2.744-3.819-6.223-5.135-9.641c-1.652-4.285-1.568-9.328-1.661-13.818
					c0.098-5.052,0.198-10.104,0.297-15.154c0.197-10.152,0.39-20.303,0.579-30.456c1.269-67.451,2.315-134.905,3.251-202.362
					c1.882-135.852,3.105-271.711,3.983-407.572c3.73-577.959,0.441-1155.945-3.029-1733.896
					c-1.647-274.544-3.413-549.088-4.631-823.635c-0.137-30.95-0.266-61.901-0.397-92.851c-0.065-15.285-0.109-30.559,0.066-45.843
					c0.161-13.949,1.423-27.837,2.772-41.708c1.188-12.212,3.514-24.263,5.916-36.279c2.126-10.635,5.477-20.944,8.91-31.207
					c3.066-9.166,7.372-17.816,11.736-26.406c5.236-10.303,12.288-19.497,19.636-28.342c10.139-12.207,23.223-21.55,36.727-29.625
					c13.47-8.054,28.665-12.985,43.685-17.177c15.917-4.44,32.495-6.444,48.887-8.123c20.345-2.086,40.894-2.263,61.323-2.375
					c18.087-0.1,36.178,0.242,54.264,0.371c12.583,0.089,25.199-0.134,37.778-0.165c25.778-0.063,51.554,0.111,77.329,0.332
					c43.037,0.371,86.061,1.415,129.074,2.857c18.078,0.607,36.133,1.186,54.219,1.461c25.012,0.382,50.046-0.314,75.048-0.952
					c44.451-1.136,88.869-3.34,133.322-4.44c6.449-0.194,12.899-0.388,19.348-0.582c4.608-0.03,9.186,0.317,13.735,1.042
					c8.843,1.042,17.172,4.555,25.138,8.304c5.901,2.778,11.054,6.89,16.109,10.926c6.765,5.399,11.919,12.485,16.68,19.604
					c3.614,5.406,5.893,11.549,8.125,17.6c1.356,4.143,2.344,8.373,2.961,12.688c0.395,4.053,0.472,8.111,0.23,12.174
					c0.368-0.018,0.676-0.183,0.922-0.493c0.94-0.84,1.854-1.707,2.742-2.599C925.521,100.623,928.146,98.637,928.095,97.549z"/>
				<path opacity="0.1091" fill="#FFFFFF" d="M930.815,94.743c-0.549-9.081-1.651-18.383-5.4-26.803
					c-0.951-2.137-1.903-4.274-2.855-6.411c-2.103-4.227-4.531-8.26-7.284-12.097c-3.932-5.974-9.207-10.922-14.373-15.783
					c-5.265-4.957-11.578-8.615-17.785-12.21c-6.361-3.685-13.459-5.819-20.443-7.915c-7.247-2.173-14.871-2.566-22.362-2.954
					c-9.182,0.234-18.359,0.588-27.532,1.063c-12.971,0.567-25.94,1.161-38.91,1.78c-38.449,1.796-76.886,3.593-115.363,4.685
					c-18.735,0.531-37.471,0.542-56.212,0.483c-18.033-0.058-36.061-0.917-54.076-1.64c-78.339-3.136-156.797-3.251-235.185-2.942
					c-18.111,0.072-36.226-0.326-54.337-0.409c-17.824-0.083-35.623,0.36-53.417,1.387c-17.152,0.991-34.132,3.372-50.971,6.715
					c-8.149,1.618-16.096,4.018-24.024,6.464c-10.429,3.218-20.283,7.892-29.958,12.872c-7.297,3.757-13.938,8.594-20.53,13.43
					c-6.803,4.993-12.677,11.091-18.503,17.144c-6.163,6.403-11.145,13.832-16.097,21.163c-5.364,7.94-9.361,16.731-13.365,25.394
					c-4.422,9.567-7.394,19.759-10.413,29.823c-3.377,11.267-5.311,22.939-7.316,34.501c-2.263,13.051-3.145,26.322-4.109,39.511
					C8.521,242.11,9.131,262.36,9.503,282.5c1.156,62.55,1.329,125.122,1.695,187.68c0.407,69.575,0.77,139.149,1.167,208.725
					c0.79,138.982,1.657,277.962,2.512,416.945c1.783,289.786,3.492,579.573,4.478,869.364
					c0.982,288.804,1.185,577.614-0.183,866.417c-0.652,137.755-1.739,275.505-3.322,413.251
					c-0.729,63.51-1.611,127.018-2.604,190.524c-0.485,30.996-1.021,61.99-1.577,92.984c-0.275,15.293-0.569,30.585-0.862,45.876
					c-0.195,10.115-0.396,20.231-0.602,30.349c-0.057,3.439,0.339,6.824,1.186,10.156c0.562,3,2.474,6.139,3.878,8.78
					c1.46,2.746,4.229,5.15,6.393,7.288c3.427,3.381,8.275,5.305,12.613,7.118c2.367,0.991,6.876,2.13,9.423,2.508
					c5.195,0.771,4.143,0.646,9.326,1.094c4.519,0.389,9.098,0.12,13.617-0.093c8.06-0.383,16.035-1.846,24.031-2.834
					c6.808-0.84,20.558,0.881,22.984,1.021c19.408,1.121,38.821,2.12,58.239,3.078c38.913,1.919,77.852,3.28,116.792,4.507
					c84.476,2.66,169.003,3.541,253.518,3.393c78.03-0.139,156.054-1.727,234.044-4.188c38.991-1.23,77.967-2.896,116.934-4.709
					c4.159-0.192,8.196-0.667,12.299-1.354c4.029-0.673,8.961-2.375,12.18-4.958c4.547-3.646,2.698-1.865,6.662-6.617
					c3.208-3.847,4.398-9.115,5.618-13.809c1.247-4.799,1.056-10.1,1.041-15.003c-0.071-1.604-0.142-3.207-0.212-4.81
					c-0.464-7.057-0.729-14.121-0.799-21.195c-0.89-27.603-1.006-55.252-1.217-82.866c-0.176-22.892-0.104-45.787,0.064-68.679
					c0.396-54.295,2.216-108.564,2.69-162.856c0.372-42.455,0.235-84.914,0.064-127.37c-0.137-34.348-0.383-68.693-0.428-103.041
					c-0.057-43.502,0.204-87.004,0.343-130.506c0.223-70.592-0.28-141.187-0.395-211.779c-0.125-76.486-0.147-152.975-0.175-229.462
					c-0.066-179.896-0.054-359.791-0.144-539.687c-0.029-56.938-0.115-113.876-0.274-170.814
					c-0.146-51.855-0.578-103.712-0.782-155.569c-0.333-85.409-0.438-170.819-0.455-256.229
					c-0.086-413.333,2.719-826.661,1.553-1239.994c-0.003-0.864-1.319,0.79-1.254,0.715c-0.56,0.656-1.098,1.329-1.615,2.018
					c-0.314,0.342-0.547,0.729-0.696,1.161c0.911,328.077-0.594,656.151-1.283,984.227c-0.345,164.091-0.413,328.182,0.125,492.272
					c0.129,39.494,0.318,78.988,0.532,118.482c0.033,6.58,0.066,13.162,0.099,19.743c0.742,7.615,0.807,15.212,0.195,22.792
					c-0.241,3.372-0.013,6.876-0.014,10.255c-0.007,23.516,0.227,47.026,0.229,70.541c0.015,166.75,0.057,333.498,0.094,500.248
					c0.02,88.106,0.047,176.213,0.132,264.318c0.033,33.846,0.078,67.689,0.154,101.534c0.059,26.337-0.081,52.663,0.088,79
					c0.05,7.78,0.349,15.577,0.224,23.354c-0.222,13.797,0.078,27.656,0.122,41.456c0.061,18.875,0.022,37.752-0.006,56.627
					c-0.057,37.188-0.246,74.375-0.338,111.563c-0.104,42.042,0.068,84.086,0.271,126.128c0.212,44.595,0.3,89.191,0.057,133.786
					c-0.079,14.552-0.236,29.104-0.438,43.653c-0.194,13.863-0.692,27.72-0.992,41.584c-0.261,11.981-0.326,23.961-0.57,35.941
					c-0.285,13.884-0.489,27.77-0.652,41.656c-0.561,47.605-0.175,95.214,0.676,142.813c0.101,5.183,0.203,10.364,0.305,15.545
					c0.452,7.05,0.721,14.105,0.807,21.168c0.077,4.688-0.009,9.154-0.486,13.821c-0.475,4.634-2.153,8.739-4.058,12.923
					c-3.379,7.421-9.554,10.191-16.268,12.645c-3.808,1.391-8.198,1.603-12.189,1.969c-1.347,0.082-2.692,0.165-4.039,0.246
					c-12.981,0.617-25.966,1.199-38.95,1.752c-45.451,1.987-90.925,3.406-136.402,4.604c-162.409,4.273-324.964,2.981-487.311-3.014
					c-38.892-1.437-77.762-3.37-116.621-5.51c-7.665-0.422-15.347-1.438-23.014-0.872c-2.742,0.203-5.504,0.726-8.227,1.099
					c-7.617,1.041-15.227,1.635-22.914,1.674c-1.455-0.055-2.91-0.109-4.364-0.164c-6.146-0.244-12.058-1.44-17.739-3.591
					c-8.788-2.924-15.285-9.564-19.415-17.826c-2.277-4.552-2.413-9.692-2.669-14.64c0.101-5.051,0.202-10.102,0.303-15.15
					c0.201-10.148,0.397-20.297,0.588-30.446c0.591-30.814,1.123-61.63,1.637-92.445c1.146-68.536,2.082-137.073,2.911-205.614
					c1.664-137.486,2.704-274.98,3.415-412.475c2.988-578.553-0.577-1157.122-4.126-1735.663
					c-0.855-139.22-1.722-278.439-2.523-417.659c-0.761-132.287-1-264.586-2.58-396.868c-0.186-15.509-0.457-31.01-0.524-46.52
					c-0.063-14.292,0.957-28.542,2.061-42.778c0.977-12.598,3.12-25.044,5.351-37.463c1.986-11.059,5.211-21.815,8.518-32.529
					c2.98-9.65,7.242-18.805,11.565-27.899c3.961-8.335,9.187-15.956,14.434-23.505C58.35,78.74,64.422,72.58,70.463,66.49
					c7.69-7.752,16.858-13.869,26.039-19.664c13.686-8.641,29.253-14.039,44.668-18.611c16.093-4.775,32.919-6.99,49.551-8.837
					c17.467-1.94,35.112-2.313,52.668-2.598c21.069-0.342,42.156,0.14,63.226,0.303c25.549,0.198,51.106-0.115,76.657-0.062
					c37.891,0.079,75.778,0.637,113.66,1.448c29.883,0.641,59.743,1.903,89.615,2.869c37.516,1.215,75.127-0.09,112.621-1.378
					c32.114-1.104,64.212-2.728,96.316-4.078c15.619-0.656,31.27-1.469,46.905-1.413c7.322,0.025,14.5,1.821,21.538,3.593
					c6.881,1.733,13.23,5.063,19.462,8.331c6.176,3.24,11.499,7.848,16.727,12.379c5.219,4.522,9.308,10.155,13.321,15.707
					C924,69.086,926.643,82.198,927.014,98.125c0.018,0.8,1.255-0.521,1.286-0.551c0.599-0.574,1.179-1.167,1.742-1.778
					C930.377,95.498,930.636,95.147,930.815,94.743z"/>
				<path opacity="0.1091" fill="#FFFFFF" d="M928.446,95.255c-0.099-2.241-0.196-4.483-0.296-6.724
					c-0.407-4.563-1.264-9.042-2.568-13.435c-1.646-6.774-5.057-13.009-8.333-19.083c-3.345-6.196-8.121-11.488-12.788-16.678
					c-4.747-5.28-10.634-9.369-16.42-13.387c-5.9-4.1-12.644-6.748-19.28-9.348c-6.837-2.681-14.179-3.671-21.396-4.642
					c-2.491-0.132-4.981-0.263-7.472-0.395c-9.076,0.228-18.148,0.57-27.217,1.025c-25.869,1.066-51.729,2.309-77.594,3.481
					c-38.018,1.723-76.029,2.965-114.085,3.294c-36.153,0.314-72.289-1.786-108.414-2.87c-37.537-1.126-75.096-1.517-112.648-1.798
					c-34.983-0.263-69.966,0.186-104.948-0.102c-18.059-0.148-36.108-0.37-54.167-0.216c-17.611,0.149-35.171,1.104-52.701,2.761
					c-16.785,1.588-33.284,4.86-49.549,9.22c-7.876,2.111-15.454,5.103-23.004,8.136c-10.01,4.02-19.233,9.615-28.228,15.494
					c-6.875,4.493-12.929,10.076-18.933,15.631c-6.284,5.813-11.491,12.67-16.661,19.445c-5.557,7.284-9.831,15.469-14.098,23.532
					c-4.695,8.872-7.988,18.435-11.313,27.868c-3.719,10.55-6.007,21.573-8.358,32.479c-2.655,12.31-3.92,24.903-5.27,37.401
					c-1.531,14.17-1.747,28.468-2.046,42.702c-0.015,10.335,0.086,20.669,0.305,31.001c0.148,10.338,0.277,20.676,0.388,31.015
					c0.724,62.702,0.941,125.411,1.282,188.117c0.38,69.885,0.758,139.77,1.158,209.654c0.799,139.453,1.672,278.904,2.526,418.355
					c1.776,290.132,3.459,580.267,4.382,870.402c0.919,288.359,1.04,576.721-0.446,865.076
					c-0.707,137.232-1.857,274.463-3.516,411.688c-0.764,63.189-1.682,126.378-2.713,189.564
					c-0.502,30.817-1.059,61.635-1.634,92.452c-0.285,15.198-0.587,30.398-0.892,45.597c-0.091,3.394,0.274,6.736,1.099,10.027
					c0.772,2.982,1.962,5.79,3.569,8.418c2.041,3.952,5.794,6.812,9.213,9.443c3.578,2.755,8.047,4.2,12.238,5.67
					c4.264,1.496,8.951,1.949,13.406,2.462c4.35,0.503,8.754,0.382,13.12,0.314c7.085-0.11,14.164-1.11,21.188-1.961
					c8.225-0.997,18.104,0.378,25.542,0.763c25.902,1.34,51.796,2.758,77.708,3.944c162.31,7.437,324.92,8.57,487.354,5.506
					c38.999-0.736,77.989-1.907,116.973-3.224c33.814-1.142,67.674-2.276,101.449-4.252c4.224-0.246,8.211-1.046,12.3-2.072
					c4.309-1.079,7.771-3.56,11.208-6.214c3.694-2.853,5.618-7.691,7.328-11.817c2.418-5.842,2.513-12.675,2.654-18.88
					c-0.022-1.547-0.044-3.095-0.066-4.642c-0.225-7.061-0.4-14.124-0.527-21.187c-0.351-14.908-0.435-29.829-0.601-44.741
					c-0.262-23.502-0.324-47.008-0.302-70.511c0.031-32.78,0.468-65.557,1.154-98.329c0.501-23.957,1.075-47.917,1.424-71.875
					c0.566-39.021,0.587-78.051,0.518-117.075c-0.116-66.169-0.628-132.331-0.453-198.501c0.173-65.925,0.743-131.862,0.077-197.786
					c-0.205-20.286-0.302-40.586-0.182-60.873c0.196-33.267-0.091-66.543-0.123-99.812c-0.083-85.178-0.099-170.357-0.12-255.536
					c-0.045-172.189-0.019-344.379-0.168-516.568c-0.055-63.925-0.418-127.844-0.74-191.768
					c-0.829-164.186-0.816-328.374-0.577-492.559c0.515-354.3,2.411-708.598,1.416-1062.899c-0.462,0.196-0.821,0.526-1.077,0.987
					c-1.101,1.42-2.172,2.864-3.214,4.328c-1.059,1.453-2.087,2.926-3.085,4.421c-0.355,0.389-0.554,0.834-0.593,1.334
					c0.878,328.07-0.635,656.139-1.307,984.208c-0.336,164.104-0.386,328.206,0.165,492.308
					c0.133,39.496,0.327,78.989,0.537,118.485c0.027,6.579,0.056,13.157,0.083,19.737c1.061,7.632,1.132,15.222,0.218,22.774
					c-0.012,1.049-0.021,2.1-0.032,3.149c-0.032,2.368-0.052,4.736-0.06,7.106c-0.057,9.162-0.09,18.324-0.09,27.486
					c0.001,5.816,0.227,11.604,0.44,17.415c-0.013,4.133-0.024,8.265-0.033,12.396c-0.01,4.415-0.02,8.829-0.026,13.243
					c-0.309,166.744-0.132,333.49-0.086,500.233c0.024,88.109,0.064,176.22,0.199,264.329c0.051,33.849,0.126,67.698,0.255,101.546
					c0.051,13.581,0.426,27.185-0.244,40.753c0.012,2.046,0.022,4.091,0.032,6.137c0.018,3.873,0.04,7.745,0.067,11.618
					c0.046,6.835,0.103,13.67,0.182,20.504c0.09,7.764,0.609,15.578,0.321,23.336c-0.033,0.938-0.068,1.876-0.103,2.813
					c0.073,12.877,0.122,25.754,0.143,38.631c0.051,18.873,0.01,37.747-0.021,56.621c-0.131,79.232-0.411,158.462-0.152,237.695
					c0.145,44.568,0.242,89.143,0.053,133.712c-0.062,14.544-0.202,29.089-0.37,43.632c-0.069,6.096-0.298,12.126-0.753,18.202
					c-0.074,3.933-0.15,7.864-0.231,11.796c-0.081,3.852-0.163,7.703-0.247,11.554c-0.258,12-0.06,23.986-0.322,35.987
					c-0.305,13.887-0.543,27.773-0.748,41.661c-0.699,47.276-0.606,94.557-0.508,141.837c0.025,5.096,0.05,10.191,0.076,15.286
					c1.49,6.775,1.517,13.444,0.079,20.008c-0.099,1.204-0.198,2.408-0.297,3.613c-0.273,2.388-0.682,4.752-1.222,7.094
					c-0.695,3.448-2.365,6.56-4.162,9.521c-0.742,0.913-1.482,1.828-2.223,2.742c-1.545,1.75-3.423,2.971-5.638,3.66
					c-7.319,3.305-15.121,3.888-23.043,4.235c-45.418,1.986-90.834,3.762-136.275,5.135c-162.305,4.903-324.757,4.186-487.042-1.002
					c-38.943-1.244-77.871-2.927-116.789-4.761c-6.484-0.324-12.969-0.648-19.454-0.973c-13.045-0.857-26.104-1.373-39.178-1.547
					c-1.147-0.03-2.292-0.289-3.449-0.207c-5.948,0.413-11.815,0.721-17.782,0.647c-8.57-0.105-16.946-1.575-24.861-4.861
					c-3.197-1.327-5.817-3.388-8.478-5.542c-2.665-2.158-4.359-5.409-5.874-8.381c-1.933-3.788-2.345-8.076-2.875-12.212
					c-0.033-1.705-0.065-3.407-0.097-5.112c0.201-10.119,0.397-20.24,0.588-30.359c1.292-67.264,2.359-134.529,3.313-201.798
					c1.924-135.563,3.181-271.138,4.087-406.712c3.86-577.803,0.625-1155.636-2.831-1733.432
					c-1.646-275.055-3.517-550.109-4.63-825.167c-0.125-31.012-0.226-62.024-0.304-93.038c-0.039-15.31-0.058-30.619-0.06-45.929
					c-0.003-14.55,0.768-29.004,1.786-43.511c0.891-12.708,2.934-25.284,5.037-37.831c1.86-11.091,4.914-21.899,8.063-32.672
					c2.796-9.559,6.833-18.66,10.938-27.706c4.871-10.736,11.58-20.459,18.62-29.848c9.556-12.738,22.156-22.767,35.321-31.488
					c12.942-8.573,27.783-14.013,42.489-18.641c15.55-4.893,31.875-7.233,48.002-9.207c20.118-2.462,40.499-2.843,60.74-3.109
					c21.064-0.275,42.142,0.176,63.205,0.323c12.588,0.088,25.213-0.136,37.797-0.164c25.772-0.058,51.544,0.122,77.315,0.348
					c43.033,0.379,86.055,1.427,129.065,2.849c18.085,0.598,36.147,1.171,54.24,1.446c25.001,0.38,50.024-0.29,75.017-0.898
					c44.307-1.08,88.58-3.138,132.893-4.033c6.404-0.158,12.807-0.314,19.211-0.471c4.5,0.018,8.968,0.406,13.402,1.16
					c8.617,1.107,16.713,4.614,24.452,8.346c5.734,2.766,10.727,6.822,15.628,10.805c6.568,5.334,11.554,12.3,16.159,19.297
					c3.513,5.336,5.714,11.389,7.871,17.347c1.325,4.106,2.28,8.296,2.866,12.572c0.371,4.139,0.42,8.281,0.145,12.428
					c0.472-0.16,0.85-0.461,1.134-0.899c1.185-1.33,2.342-2.684,3.471-4.061c1.146-1.365,2.262-2.751,3.35-4.162
					C928.15,96.174,928.374,95.748,928.446,95.255z"/>
				<path opacity="0.1091" fill="#FFFFFF" d="M928.499,98.723c-0.126-2.155-0.254-4.312-0.38-6.467
					c-0.378-4.52-1.212-8.955-2.505-13.302c-1.628-6.738-5.012-12.944-8.259-18.989c-3.318-6.174-8.035-11.448-12.665-16.633
					c-4.706-5.271-10.544-9.369-16.281-13.396c-5.86-4.115-12.562-6.799-19.157-9.434c-6.81-2.72-14.129-3.766-21.326-4.792
					c-2.487-0.152-4.976-0.303-7.465-0.455c-9.098,0.134-18.188,0.45-27.274,0.951c-25.878,1.046-51.749,2.256-77.621,3.421
					c-37.929,1.708-75.851,2.948-113.816,3.288c-36.146,0.324-72.28-1.746-108.401-2.829c-37.536-1.125-75.092-1.523-112.643-1.809
					c-34.989-0.267-69.979,0.186-104.966-0.097c-32.795-0.264-65.532-0.725-98.266,1.679c-11.476,0.843-22.867,2.483-34.211,4.368
					c-8.216,1.365-16.271,3.449-24.311,5.579c-10.515,2.788-20.557,6.936-30.449,11.393c-7.391,3.33-14.223,7.706-21.01,12.093
					c-6.929,4.479-13.04,10.055-19.099,15.603c-6.35,5.815-11.62,12.684-16.852,19.473c-5.627,7.304-9.958,15.52-14.281,23.62
					c-4.752,8.907-8.083,18.518-11.448,27.998c-3.762,10.595-6.075,21.673-8.453,32.633c-2.681,12.364-3.958,25.014-5.322,37.567
					c-2.104,19.376-2.079,38.957-1.995,58.416c0.068,15.541,0.457,31.088,0.641,46.629c0.184,15.557,0.305,31.114,0.432,46.673
					c0.259,31.351,0.43,62.703,0.61,94.054c0.4,69.413,0.756,138.826,1.146,208.239c0.781,138.737,1.642,277.471,2.494,416.207
					c1.781,289.6,3.507,579.202,4.522,868.805c1.013,289.027,1.267,578.058-0.026,867.083
					c-0.617,138.018-1.664,276.033-3.202,414.043c-0.71,63.672-1.569,127.344-2.537,191.014
					c-0.472,31.086-0.997,62.172-1.541,93.256c-0.269,15.339-0.555,30.679-0.843,46.018c-0.192,10.149-0.387,20.298-0.588,30.446
					c-0.457,6.796-0.482,13.589-0.076,20.376c0.211,4.854,2.35,9.216,4.523,13.42c2.104,4.07,5.978,6.99,9.513,9.683
					c3.716,2.829,8.357,4.262,12.706,5.729c4.39,1.479,9.221,1.863,13.794,2.315c8.343,0.825,16.862,0,25.162-0.897
					c3.174-0.344,6.335-0.799,9.5-1.207c8.278-1.069,17.872,0.368,25.545,0.787c38.867,2.125,77.733,4.035,116.627,5.591
					c38.954,1.559,77.928,2.619,116.903,3.537c84.491,1.996,169.019,2.265,253.528,1.5c78.012-0.707,156.005-2.875,233.959-5.904
					c19.486-0.758,38.967-1.662,58.446-2.565c4.143-0.192,8.155-0.647,12.242-1.326c4.354-0.721,8.059-2.617,11.833-4.77
					c2.538-1.712,4.664-3.84,6.377-6.384c1.832-2.623,3.199-5.469,4.104-8.537c1.713-4.448,1.873-9.496,2.225-14.182
					c0.334-4.432-0.072-9.012-0.238-13.445c-1.091-29.208-1.132-58.479-1.37-87.705c-0.319-39.156-0.083-78.319,0.564-117.472
					c0.397-23.999,0.914-47.995,1.39-71.994c0.651-32.729,0.96-65.45,1.031-98.187c0.122-55.719-0.347-111.438-0.515-167.154
					c-0.245-81.348,0.564-162.696,0.288-244.044c-0.075-21.995-0.277-43.988-0.348-65.983c-0.096-29.941-0.036-59.886-0.076-89.829
					c-0.112-81.7-0.137-163.397-0.162-245.098c-0.051-176.347-0.034-352.694-0.138-529.042c-0.019-28.825-0.038-57.649-0.064-86.473
					c-0.018-19.286-0.375-38.575-0.187-57.861c-0.065-6.673-0.132-13.344-0.198-20.017c-0.064-13.168-0.135-26.337-0.209-39.506
					c-0.107-19.749-0.19-39.499-0.276-59.248c-0.169-39.454-0.274-78.911-0.365-118.366c-0.198-85.338-0.201-170.678-0.132-256.016
					c0.311-380.529,2.584-761.054,1.513-1141.583c-0.342,0.004-0.627,0.154-0.854,0.447c-0.852,0.781-1.678,1.586-2.477,2.419
					c-0.6,0.612-2.796,2.303-2.793,3.394c0.882,328.073-0.624,656.143-1.303,984.214c-0.339,164.097-0.39,328.196,0.159,492.293
					c0.132,39.495,0.322,78.991,0.539,118.486c0.102,18.889,0.306,37.772,0.189,56.661c-0.06,9.634-0.055,19.267-0.062,28.9
					c-0.002,6.084,0.427,12.161,0.41,18.251c-0.023,8.811-0.036,17.624-0.049,26.436c-0.253,168.159-0.104,336.321-0.055,504.481
					c0.024,87.459,0.063,174.919,0.203,262.379c0.054,33.226,0.126,66.451,0.261,99.676c0.027,6.98,0.064,13.963,0.101,20.942
					c0.032,6.163-0.358,12.29-0.329,18.454c0.061,12.247,0.152,24.493,0.292,36.741c0.081,7.23,0.423,14.428,0.164,21.655
					c0.03,6.476,0.062,12.949,0.093,19.424c0.046,12.74,0.069,25.482,0.072,38.224c0.02,18.747-0.039,37.495-0.086,56.243
					c-0.193,77.779-0.265,155.555-0.063,233.335c0.111,42.501,0.214,85.005-0.021,127.506c-0.076,14.022-0.222,28.044-0.424,42.064
					c-0.085,5.87-0.637,11.694-0.75,17.564c-0.147,7.725-0.319,15.446-0.487,23.17c-0.13,6.076-0.038,12.13,0.045,18.208
					c0.086,6.153-0.274,12.361-0.404,18.515c-0.305,14.41-0.527,28.82-0.716,43.231c-0.651,49.882-0.455,99.765-0.308,149.648
					c0.19,5.881,0.38,11.762,0.569,17.643c-0.487,2.238-0.779,4.503-0.878,6.792c-0.35,3.844-1.357,7.459-2.563,11.101
					c-1.208,3.648-3.385,6.44-5.798,9.347c-2.356,2.842-5.937,3.845-9.188,5.22c-3.592,1.518-7.916,1.869-11.734,2.372
					c-1.336,0.096-2.671,0.192-4.007,0.288c-7.814,0.342-15.628,0.693-23.441,1.055c-45.421,2.054-90.863,3.542-136.312,4.805
					c-162.334,4.509-324.8,3.392-487.089-2.186c-38.925-1.339-77.834-3.119-116.734-5.055c-6.467-0.35-12.933-0.697-19.401-1.046
					c-7.243,0.497-14.436,0.294-21.58-0.611c-2.239-0.269-4.544,0.127-6.773,0.315c-6.746,0.57-13.494,0.48-20.246,0.059
					c-3.812-0.238-7.536-0.997-11.254-1.822c-4.843-1.074-9.177-3.232-13.314-5.888c-2.995-1.921-5.071-4.663-7.159-7.464
					c-2.31-3.101-3.193-7.252-4.051-10.907c-0.203-1.538-0.407-3.074-0.61-4.612c-0.213-6.758-0.149-13.518,0.19-20.278
					c0.3-15.25,0.58-30.501,0.861-45.753c1.246-67.639,2.271-135.281,3.186-202.925c1.842-136.138,3.03-272.282,3.875-408.43
					c3.593-578.102,0.25-1156.231-3.23-1734.324c-1.65-274.018-3.355-548.035-4.615-822.056
					c-0.142-30.866-0.288-61.731-0.441-92.597c-0.075-15.041,0.079-30.012,0.634-45.042c0.493-13.343,2.104-26.59,3.799-39.818
					c1.496-11.681,4.109-23.141,6.837-34.578c2.418-10.13,6.063-19.88,9.786-29.58c3.342-8.712,7.917-16.85,12.537-24.922
					c5.599-9.783,12.97-18.363,20.59-26.59c10.702-11.553,24.193-20.122,37.958-27.49c13.942-7.46,29.414-11.851,44.686-15.577
					c15.949-3.892,33.327-5.646,49.327-6.987c8.684-0.728,17.407-1.005,26.113-1.319c20.918-0.754,41.884-0.375,62.809-0.17
					c25.122,0.245,50.246,0,75.37,0c38.172,0,76.341,0.467,114.506,1.163c36.082,0.658,72.138,2.099,108.206,3.207
					c18.582,0.572,37.19,0.325,55.775,0.157c25.356-0.23,50.712-1.228,76.051-2.132c19.103-0.681,38.2-1.452,57.301-2.159
					c19.168-0.708,38.343-1.168,57.514-1.776c6.982-0.221,13.73,0.968,20.537,2.316c8.746,1.733,16.791,5.891,24.454,10.248
					c5.707,3.246,10.557,7.768,15.319,12.209c4.776,4.456,8.44,9.934,12.039,15.323c3.631,5.439,5.92,11.635,8.162,17.721
					c1.36,4.161,2.354,8.406,2.979,12.737c0.377,3.996,0.49,7.997,0.341,12.007c0.336,0.038,0.633-0.076,0.889-0.338
					c0.919-0.667,1.815-1.363,2.69-2.088C925.876,101.344,928.554,99.664,928.499,98.723z"/>
				<path opacity="0.1091" fill="#FFFFFF" d="M929.288,93.532c-0.261-4.451-0.338-9.229-1.423-13.586
					c-2.024-8.126-1.17-5.251-3.963-13.315c-2.308-6.665-6.275-12.634-10.116-18.471c-3.92-5.955-9.179-10.888-14.329-15.732
					c-5.242-4.935-11.53-8.573-17.715-12.151c-6.329-3.661-13.391-5.775-20.339-7.85c-7.203-2.151-14.777-2.526-22.22-2.897
					c-9.139,0.256-18.274,0.618-27.405,1.081c-13.013,0.565-26.025,1.159-39.036,1.781c-38.422,1.798-76.835,3.577-115.287,4.661
					c-18.733,0.527-37.469,0.536-56.21,0.47c-18.036-0.061-36.066-0.924-54.085-1.648c-78.336-3.147-156.78-3.186-235.165-2.948
					c-18.114,0.055-36.23-0.321-54.344-0.404c-17.819-0.081-35.61,0.364-53.398,1.396c-17.131,0.994-34.088,3.38-50.903,6.731
					c-8.13,1.619-16.057,4.022-23.964,6.469c-10.394,3.218-20.209,7.888-29.846,12.864c-7.259,3.75-13.867,8.573-20.425,13.397
					c-6.757,4.97-12.597,11.034-18.388,17.051C54.6,76.795,49.641,84.174,44.709,91.458c-5.347,7.897-9.344,16.637-13.347,25.251
					c-4.429,9.53-7.416,19.684-10.449,29.71c-3.4,11.242-5.356,22.89-7.384,34.431c-2.29,13.023-3.199,26.271-4.19,39.436
					c-1.118,14.843-0.954,29.796-0.875,44.661c0.084,15.567,0.487,31.141,0.684,46.707c0.197,15.568,0.322,31.137,0.459,46.707
					c0.273,31.358,0.449,62.716,0.634,94.076c0.41,69.414,0.764,138.829,1.156,208.244c0.782,138.734,1.643,277.47,2.497,416.204
					c1.781,289.599,3.507,579.198,4.522,868.8c1.012,289.025,1.264,578.053-0.033,867.076
					c-0.619,138.017-1.667,276.031-3.207,414.039c-0.71,63.673-1.571,127.343-2.54,191.012c-0.472,31.086-0.998,62.17-1.542,93.254
					c-0.269,15.34-0.557,30.679-0.845,46.018c-0.192,10.148-0.389,20.297-0.589,30.444c-0.471,6.81-0.49,13.616-0.06,20.416
					c0.161,3.471,1.337,6.224,2.44,9.439c0.525,1.528,1.265,3.042,2.212,4.329c0.94,1.276,1.88,2.554,2.819,3.83
					c2.079,2.477,4.478,4.593,7.193,6.349c3.958,3.007,8.831,4.487,13.472,6.007c2.223,0.729,7.271,1.604,9.604,1.81
					c4.627,0.408,9.15,0.577,13.794,0.532c8.687-0.081,17.354-1.534,25.936-2.746c2.026-0.286,3.978-0.47,6.021-0.413
					c6.481,0.378,12.963,0.757,19.445,1.136c12.934,0.754,25.872,1.461,38.81,2.121c38.894,2.057,77.817,3.522,116.741,4.853
					c84.462,2.889,168.983,3.974,253.491,4.036c78.031,0.057,156.058-1.346,234.054-3.613c38.992-1.133,77.973-2.704,116.945-4.42
					c9.27-0.408,18.43-0.656,27.632-1.572c2.802-0.352,5.552-0.939,8.253-1.766c2.803-0.9,5.43-2.168,7.881-3.803
					c5.761-3.285,8.674-9.646,10.925-15.505c1.798-4.677,1.954-9.964,2.242-14.892c0.098-1.697,0.048-3.403-0.035-5.102
					c-0.418-8.637-0.75-17.235-1.056-25.891c-0.526-14.902-0.58-29.842-0.807-44.753c-0.252-16.476-0.359-32.954-0.437-49.431
					c-0.157-33.598,0.116-67.195,0.705-100.788c0.452-25.835,1.133-51.665,1.6-77.5c1.752-97.044,0.125-194.118,0.16-291.167
					c0.028-75.198,0.626-150.393,0.2-225.591c-0.109-19.356-0.201-38.715-0.242-58.073c-0.15-68.975-0.131-137.952-0.164-206.928
					c-0.09-181.688-0.07-363.377-0.143-545.065c-0.026-66.206,0.271-132.424-0.236-198.627c-0.169-22.056-0.075-44.113-0.282-66.168
					c-0.802-85.51-0.782-171.037-0.926-256.551c-0.763-452.727,2.734-905.449,1.457-1358.176c-0.003-1.003-1.517,1.341-1.367,1.124
					c-0.612,0.893-1.203,1.8-1.772,2.722c-0.342,0.465-0.598,0.969-0.768,1.514c0.908,328.074-0.593,656.147-1.283,984.22
					c-0.346,164.095-0.412,328.19,0.125,492.285c0.13,39.495,0.316,78.991,0.535,118.484c0.026,6.578,0.053,13.155,0.079,19.732
					c0.775,7.614,0.847,15.208,0.216,22.784c-0.248,3.38-0.02,6.897-0.023,10.285c-0.022,23.508,0.239,47.006,0.236,70.512
					c-0.018,166.771,0.035,333.542,0.073,500.314c0.021,88.098,0.05,176.197,0.14,264.296c0.035,33.834,0.085,67.667,0.165,101.502
					c0.063,26.347-0.103,52.682,0.08,79.029c0.055,7.761,0.392,15.545,0.241,23.303c-0.269,13.796,0.067,27.677,0.11,41.476
					c0.06,18.877,0.022,37.754-0.007,56.63c-0.121,79.245-0.447,158.483-0.078,237.729c0.206,44.574,0.299,89.151,0.066,133.725
					c-0.076,14.535-0.23,29.069-0.43,43.604c-0.084,6.119-0.188,12.21-0.534,18.32c-0.438,7.751-0.315,15.584-0.483,23.348
					c-0.259,11.955-0.299,23.91-0.546,35.866c-0.287,13.897-0.494,27.796-0.662,41.693c-0.571,47.485-0.216,94.97,0.703,142.449
					c0.102,5.134,0.202,10.269,0.304,15.403c0.727,6.934,1.052,13.879,0.977,20.834c-0.031,25.035-1.651,30.082-15.686,37.634
					c-3.634,1.954-8.015,2.469-12.012,3.116c-1.357,0.128-2.716,0.254-4.074,0.38c-7.83,0.509-15.669,0.894-23.513,1.153
					c-84.402,3.905-168.877,6.131-253.358,7.312c-162.38,2.271-324.892-0.822-487.066-9.281c-6.471-0.358-12.941-0.716-19.412-1.074
					c-7.019-0.724-14.046-1.08-21.085-1.064c-2.355-0.005-4.778,0.505-7.101,0.826c-7.283,1.009-14.537,1.792-21.887,2.104
					c-7.567,0.32-15.002-0.694-22.382-2.521c-4.635-1.146-8.698-3.643-12.606-6.253c-15.783-10.542-13.018-28.834-12.718-43.809
					c0.404-20.361,0.779-40.723,1.15-61.085c4.951-271.873,6.997-543.799,7.909-815.713c1.937-578.48-1.997-1156.965-5.544-1735.432
					c-0.842-137.187-1.657-274.374-2.397-411.562c-0.34-63.248-0.653-126.498-1.048-189.746c-0.194-31.076-0.446-62.15-0.761-93.224
					c-0.155-15.304-0.151-30.542,0.28-45.84c0.622-22.043,3.611-43.708,7.751-65.306c2.108-10.998,5.481-21.668,8.937-32.294
					c3.102-9.536,7.495-18.551,11.945-27.503c4.063-8.17,9.371-15.61,14.696-22.976c4.973-6.879,11.065-12.843,17.122-18.738
					c11.555-11.248,25.783-19.368,40.186-26.319c7.224-3.487,14.903-5.973,22.499-8.479c10.4-3.431,21.228-5.495,31.973-7.474
					c16.859-3.106,34.086-4.198,51.176-5.087c17.827-0.926,35.715-0.796,53.561-0.705c18.172,0.094,36.334,0.361,54.507,0.256
					c44.942-0.257,89.887,0.08,134.824,0.731c24.481,0.354,48.955,1.006,73.427,1.733c11.712,0.38,23.423,0.797,35.132,1.248
					c18.439,0.684,36.856,0.871,55.307,0.914c31.547,0.073,63.105-1.206,94.624-2.388c32.038-1.201,64.063-2.663,96.106-3.712
					c8.961-0.598,17.926-0.791,26.896-0.58c4.753,0.245,9.455,0.867,14.106,1.866c11.35,1.968,21.75,7.424,31.375,13.472
					c9.545,5.996,16.994,14.701,23.539,23.706c2.487,3.712,4.665,7.597,6.532,11.656c5.426,10.656,6.594,20.281,6.767,31.499
					c0.016,0.951,1.517-1.102,1.426-0.988c0.663-0.826,1.307-1.667,1.928-2.526C928.799,94.527,929.086,94.053,929.288,93.532z"/>
				<path opacity="0.1091" fill="#FFFFFF" d="M928.252,97.888c-0.1-2.217-0.2-4.435-0.302-6.652
					c-0.383-4.521-1.222-8.959-2.513-13.311c-1.624-6.712-5.01-12.897-8.254-18.914c-3.304-6.13-8.018-11.37-12.626-16.514
					c-4.683-5.227-10.485-9.289-16.188-13.282c-5.82-4.075-12.472-6.732-19.019-9.343c-6.755-2.693-14.012-3.731-21.149-4.75
					c-2.467-0.151-4.933-0.302-7.399-0.453c-9.046,0.13-18.086,0.431-27.121,0.901c-25.837,0.995-51.666,2.186-77.496,3.322
					c-38.011,1.672-76.014,2.908-114.061,3.237c-36.152,0.313-72.29-1.755-108.416-2.837c-37.536-1.124-75.092-1.521-112.643-1.808
					c-34.984-0.267-69.971,0.174-104.954-0.104c-18.059-0.144-36.109-0.368-54.167-0.221c-17.606,0.143-35.162,1.075-52.69,2.703
					c-16.776,1.557-33.276,4.778-49.548,9.077c-7.875,2.082-15.462,5.034-23.021,8.028c-10.02,3.969-19.267,9.503-28.289,15.32
					c-6.898,4.449-12.984,9.986-19.02,15.497c-6.32,5.771-11.568,12.59-16.778,19.331c-5.603,7.25-9.921,15.411-14.231,23.452
					c-4.745,8.85-8.079,18.404-11.445,27.829c-3.765,10.543-6.086,21.568-8.472,32.477c-2.693,12.316-3.983,24.919-5.359,37.428
					c-1.561,14.186-1.792,28.503-2.109,42.752c-0.026,10.346,0.066,20.691,0.277,31.034c0.141,10.346,0.264,20.691,0.371,31.037
					c0.696,62.718,0.919,125.443,1.258,188.164c0.379,69.886,0.757,139.773,1.157,209.66c0.799,139.452,1.673,278.905,2.527,418.358
					c1.777,290.133,3.46,580.268,4.384,870.405c0.919,288.354,1.039,576.715-0.446,865.068
					c-0.706,137.229-1.856,274.458-3.514,411.68c-0.764,63.188-1.683,126.375-2.713,189.562
					c-0.502,30.816-1.059,61.633-1.635,92.448c-0.285,15.2-0.587,30.397-0.892,45.597c-0.091,3.4,0.274,6.75,1.095,10.05
					c0.775,3.005,1.967,5.834,3.576,8.486c2.047,3.992,5.844,6.883,9.301,9.526c3.632,2.779,8.137,4.208,12.388,5.681
					c4.288,1.484,9.03,1.901,13.505,2.385c4.37,0.472,8.779,0.338,13.162,0.252c7.086-0.137,14.164-1.166,21.189-2.017
					c2.018-0.245,3.953-0.38,5.978-0.264c25.937,1.495,51.88,2.876,77.828,4.149c162.27,7.965,324.881,9.421,487.303,6.752
					c77.999-1.281,155.968-4.017,233.891-7.621c4.139-0.191,8.149-0.638,12.235-1.305c4.335-0.707,8.043-2.569,11.818-4.682
					c4.064-2.271,6.454-6.435,8.737-10.267c1.291-2.884,2.256-5.872,2.893-8.966c0.551-3.107,0.894-6.236,1.034-9.388
					c0.339-4.403-0.062-8.959-0.229-13.363c-0.599-15.764-0.622-31.569-0.835-47.342c-0.333-24.733-0.452-49.468-0.469-74.203
					c-0.021-34.161,0.37-68.318,1.062-102.473c0.48-23.777,1.068-47.56,1.454-71.339c0.606-37.28,0.648-74.567,0.613-111.853
					c-0.058-63.885-0.611-127.769-0.509-191.654c0.059-37.186,0.253-74.371,0.343-111.556c0.082-33.783-0.232-67.568-0.169-101.35
					c0.037-19.387-0.235-38.78-0.282-58.166c-0.077-32.445-0.03-64.891-0.066-97.336c-0.094-84.367-0.113-168.733-0.134-253.1
					c-0.045-173.338-0.035-346.673-0.152-520.01c-0.041-59.903-0.32-119.803-0.644-179.705
					c-0.888-164.216-0.921-328.434-0.706-492.651c0.472-360.855,2.455-721.708,1.446-1082.565c-0.486,0.148-0.882,0.438-1.19,0.871
					c-1.266,1.304-2.503,2.633-3.714,3.986c-1.226,1.34-2.425,2.705-3.596,4.093c-0.4,0.35-0.649,0.774-0.747,1.271
					c0.869,328.069-0.644,656.135-1.313,984.202c-0.335,164.105-0.378,328.211,0.176,492.316
					c0.135,39.494,0.331,78.988,0.536,118.483c0.031,6.58,0.063,13.16,0.095,19.741c1.144,7.644,1.211,15.236,0.205,22.78
					c-0.014,1.043-0.027,2.089-0.04,3.132c-0.039,2.357-0.063,4.714-0.075,7.071c-0.071,9.144-0.121,18.287-0.107,27.43
					c0.008,5.865,0.262,11.699,0.5,17.559c-0.016,4.125-0.031,8.25-0.043,12.376c-0.013,4.407-0.025,8.815-0.035,13.224
					c-0.414,166.703-0.19,333.41-0.14,500.113c0.026,88.125,0.069,176.249,0.219,264.374c0.059,33.87,0.142,67.742,0.286,101.612
					c0.059,13.545,0.44,27.104-0.295,40.636c0.013,2.047,0.024,4.096,0.036,6.145c0.02,3.879,0.045,7.758,0.076,11.636
					c0.052,6.853,0.115,13.706,0.208,20.557c0.106,7.786,0.673,15.628,0.342,23.405c-0.039,0.926-0.077,1.851-0.116,2.775
					c0.07,12.873,0.116,25.748,0.137,38.622c0.049,18.872,0.007,37.743-0.024,56.614c-0.133,79.211-0.406,158.417-0.182,237.628
					c0.126,44.585,0.227,89.173,0.059,133.757c-0.056,14.566-0.186,29.132-0.348,43.697c-0.068,6.043-0.342,12.015-0.828,18.035
					c-0.074,3.935-0.15,7.866-0.229,11.8c-0.082,3.851-0.163,7.703-0.246,11.554c-0.128,5.917-0.216,11.805-0.099,17.723
					c0.122,6.155-0.013,12.27-0.15,18.423c-0.313,13.866-0.565,27.731-0.786,41.598c-0.751,47.182-0.763,94.367-0.94,141.553
					c0,5.087-0.001,10.172-0.001,15.259c1.586,6.727,1.496,13.274-0.272,19.645c-0.132,1.118-0.265,2.236-0.397,3.354
					c-0.365,2.192-0.815,4.366-1.349,6.523c-0.714,3.145-2.373,6.02-4.11,8.674c-0.709,0.834-1.417,1.67-2.126,2.505
					c-1.499,1.587-3.291,2.672-5.379,3.255c-7.344,3.043-14.979,3.66-22.848,3.976c-45.415,1.826-90.814,3.739-136.248,5.101
					c-162.273,4.865-324.694,4.09-486.947-1.105c-38.944-1.246-77.875-2.924-116.796-4.74c-6.486-0.322-12.972-0.642-19.456-0.963
					c-13.184-0.856-26.381-1.35-39.592-1.478c-1.841-0.045-3.497-0.263-5.369-0.165c-6.167,0.324-12.229,0.335-18.396-0.093
					c-3.498-0.242-6.915-0.873-10.348-1.55c-4.432-0.872-8.486-2.738-12.44-4.838c-2.781-1.477-4.99-3.906-6.988-6.256
					c-2.287-2.691-3.365-5.937-4.542-9.195c-0.277-1.325-0.554-2.648-0.829-3.973c-0.557-3.196-0.766-6.416-0.628-9.657
					c0.098-5.052,0.198-10.104,0.296-15.157c0.197-10.152,0.389-20.304,0.577-30.456c1.263-67.456,2.305-134.914,3.235-202.374
					c1.873-135.858,3.091-271.725,3.961-407.592c3.702-577.967,0.405-1155.963-3.062-1733.924
					C24.339,929.218,22.4,654.695,21.44,380.169c-0.108-30.89-0.175-61.781-0.201-92.671c-0.013-15.2,0.035-30.387,0.299-45.584
					c0.239-13.835,1.594-27.599,3.038-41.344c1.268-12.069,3.676-23.966,6.161-35.825c2.192-10.464,5.611-20.587,9.11-30.664
					c3.114-8.969,7.46-17.411,11.862-25.792c5.266-10.028,12.318-18.935,19.648-27.494c10.13-11.829,23.117-20.803,36.476-28.547
					c13.41-7.774,28.467-12.482,43.34-16.487c15.857-4.271,32.337-6.172,48.636-7.768c20.313-1.989,40.815-2.137,61.206-2.233
					c18.089-0.085,36.18,0.25,54.269,0.363c12.583,0.078,25.199-0.141,37.779-0.167c25.768-0.053,51.536,0.133,77.304,0.364
					c43.037,0.387,86.061,1.45,129.076,2.858c18.091,0.591,36.16,1.152,54.26,1.423c24.998,0.374,50.018-0.284,75.008-0.873
					c44.206-1.045,88.382-2.991,132.599-3.69c6.358-0.128,12.715-0.259,19.074-0.387c4.406,0.083,8.776,0.528,13.11,1.334
					c8.423,1.214,16.298,4.778,23.815,8.555c5.574,2.8,10.402,6.853,15.141,10.829c6.359,5.336,11.146,12.243,15.564,19.17
					c3.383,5.303,5.478,11.289,7.537,17.178c1.268,4.061,2.162,8.201,2.684,12.422c0.266,4.026,0.271,8.054,0.015,12.081
					c0.493-0.104,0.91-0.357,1.253-0.76c1.359-1.184,2.695-2.393,4.007-3.631c1.325-1.222,2.624-2.471,3.899-3.745
					C927.834,98.77,928.115,98.371,928.252,97.888z"/>
				<path opacity="0.1091" fill="#FFFFFF" d="M928.536,95.242c-0.122-2.187-0.242-4.373-0.364-6.558
					c-0.416-4.566-1.281-9.045-2.598-13.437c-1.665-6.785-5.092-13.022-8.392-19.101c-3.37-6.208-8.175-11.504-12.868-16.703
					c-4.779-5.292-10.696-9.39-16.511-13.417c-5.937-4.112-12.716-6.772-19.386-9.386c-6.882-2.695-14.267-3.698-21.526-4.682
					c-2.508-0.134-5.015-0.27-7.521-0.406c-9.117,0.212-18.229,0.552-27.336,1.024c-25.908,1.075-51.808,2.329-77.71,3.516
					c-38.03,1.741-76.055,2.995-114.125,3.333c-36.146,0.32-72.276-1.777-108.395-2.861c-37.538-1.126-75.097-1.517-112.649-1.798
					c-34.987-0.262-69.975,0.191-104.959-0.098c-18.058-0.149-36.11-0.371-54.169-0.217c-17.621,0.148-35.191,1.102-52.73,2.76
					c-16.813,1.587-33.339,4.862-49.632,9.225c-7.898,2.115-15.5,5.111-23.072,8.148c-10.051,4.032-19.315,9.645-28.349,15.541
					C79.33,54.635,73.24,60.243,67.201,65.822c-6.326,5.845-11.566,12.739-16.767,19.555c-5.593,7.325-9.887,15.56-14.177,23.672
					c-4.719,8.925-8.029,18.542-11.367,28.031c-3.727,10.604-6.015,21.682-8.368,32.645c-2.652,12.361-3.907,25.003-5.249,37.553
					c-1.52,14.216-1.719,28.56-2.004,42.837c-0.003,10.36,0.11,20.718,0.34,31.077c0.159,10.353,0.297,20.706,0.415,31.059
					c0.777,62.727,0.993,125.459,1.337,188.188c0.386,69.888,0.764,139.774,1.164,209.662c0.8,139.451,1.674,278.904,2.528,418.355
					c1.776,290.132,3.458,580.265,4.381,870.401c0.917,288.355,1.037,576.713-0.453,865.067
					c-0.707,137.229-1.86,274.458-3.521,411.68c-0.764,63.188-1.685,126.375-2.716,189.56c-0.504,30.817-1.06,61.635-1.637,92.45
					c-0.285,15.199-0.588,30.397-0.892,45.597c-0.091,3.407,0.281,6.764,1.116,10.069c0.785,3.021,1.995,5.863,3.629,8.523
					c2.105,4.061,5.95,6.989,9.466,9.705c3.701,2.859,8.338,4.342,12.683,5.852c4.411,1.531,9.273,1.948,13.878,2.428
					c4.459,0.466,8.969,0.281,13.438,0.148c6.124-0.183,12.245-1.02,18.311-1.841c2.433-0.328,4.843-0.638,7.294-0.764
					c7.04,0.365,14.079,0.724,21.12,1.077c12.93,0.768,25.863,1.475,38.801,2.123c77.836,4.076,155.769,6.319,233.693,7.765
					c84.509,1.566,169.043,1.424,253.555,0.242c78.012-1.091,155.996-3.635,233.938-7.051c12.103-0.53,24.299-0.296,36.085-3.297
					c4.312-1.099,7.783-3.626,11.206-6.311c2.306-2.279,4.193-4.864,5.663-7.755c1.396-2.945,2.428-6.014,3.094-9.204
					c1.265-4.652,1.15-9.803,1.193-14.57c-0.049-1.571-0.096-3.141-0.145-4.712c-0.352-7.094-0.592-14.191-0.722-21.293
					c-0.849-27.568-0.878-55.188-1.058-82.768c-0.259-39.407,0.079-78.816,0.83-118.217c0.453-23.714,1.001-47.426,1.479-71.139
					c0.72-35.652,0.723-71.324,0.727-106.981c0.006-61.397-0.58-122.791-0.561-184.188c0.013-37.215,0.215-74.429,0.331-111.645
					c0.123-38.949-0.148-77.895-0.129-116.844c0.01-18.396-0.216-36.795-0.26-55.191c-0.076-31.635-0.038-63.271-0.075-94.906
					c-0.096-83.509-0.112-167.018-0.137-250.527c-0.051-174.419-0.03-348.838-0.152-523.258
					c-0.044-62.535-0.31-125.063-0.653-187.596c-0.899-164.213-0.92-328.43-0.703-492.645
					c0.479-360.856,2.458-721.71,1.445-1082.567c-0.003-1.093-1.811,1.636-1.664,1.437c-0.81,1.104-1.597,2.224-2.364,3.359
					c-0.442,0.569-0.803,1.187-1.078,1.848c0.896,328.074-0.613,656.144-1.293,984.217c-0.34,164.097-0.402,328.193,0.142,492.29
					c0.132,39.497,0.319,78.991,0.538,118.486c0.023,6.575,0.048,13.149,0.071,19.724c0.938,7.627,1.015,15.227,0.228,22.796
					c-0.307,3.349-0.045,6.896-0.058,10.259c-0.032,9.161-0.04,18.324-0.051,27.487c-0.006,4.889,0.023,6.62,0.176,11.59
					c0.251,8.243,0.154,16.486,0.145,24.733c-0.196,165.216-0.055,330.433-0.014,495.649c0.022,88.737,0.053,177.476,0.159,266.212
					c0.042,34.477,0.1,68.953,0.196,103.429c0.039,14.108,0.174,28.218,0.108,42.325c-0.084,1.994-0.169,3.986-0.253,5.981
					c0.017,4.017,0.033,8.034,0.051,12.051c0.03,7.141,0.08,14.28,0.132,21.419c0.06,8.351,0.179,16.697,0.418,25.045
					c-0.03,1.023-0.06,2.048-0.09,3.073c-0.238,7.409-0.232,14.823,0.019,22.239c0.096,19.031,0.079,38.063,0.072,57.094
					c-0.027,80.447-0.588,160.889-0.206,241.335c0.223,46.808,0.328,93.618,0.168,140.425c-0.053,15.152-0.182,30.305-0.356,45.458
					c-0.162,14.148-0.779,28.267-1.079,42.411c-0.209,9.852-0.374,19.662-0.299,29.514c0.047,6.172-0.269,12.378-0.395,18.549
					c-0.139,6.784-0.252,13.569-0.364,20.354c-0.71,43.011-0.724,86.028-0.367,129.042c0.122,14.631,0.314,29.261,0.48,43.891
					c0.115,10.083,0.947,19.146,0.258,28.931c-0.652,9.277-4.695,18.699-13.206,23.3c-5.896,3.187-12.634,4.053-19.228,4.584
					c-1.336,0.068-2.67,0.137-4.006,0.205c-12.979,0.609-25.959,1.186-38.94,1.731c-45.438,1.964-90.898,3.36-136.363,4.533
					c-162.376,4.19-324.885,2.787-487.195-3.212c-38.891-1.436-77.767-3.297-116.623-5.479c-6.471-0.364-15.611-0.703-23.17-0.73
					c-2.71-0.011-5.614,0.623-8.302,0.928c-7.458,0.846-15.023,0.814-22.498,0.33c-4.179-0.271-8.219-1.225-12.253-2.271
					c-5.287-1.37-9.823-4.177-14.097-7.463c-3.123-2.4-5.118-5.86-6.998-9.214c-2.156-3.85-2.659-8.397-3.254-12.668
					c-0.045-1.725-0.093-3.449-0.14-5.174c0.202-10.119,0.4-20.236,0.592-30.355c0.296-15.296,0.573-30.594,0.849-45.891
					c1.226-67.822,2.234-135.647,3.132-203.476c1.808-136.415,2.968-272.837,3.786-409.262
					c3.466-578.218,0.086-1156.46-3.413-1734.67c-1.654-273.523-3.237-547.045-4.646-820.569
					c-0.159-30.899-0.353-61.797-0.534-92.695c-0.086-14.709,0.588-29.326,1.509-44c0.811-12.894,2.775-25.664,4.804-38.407
					c1.799-11.3,4.803-22.327,7.903-33.321c2.761-9.793,6.78-19.134,10.874-28.418c3.704-8.403,8.637-16.153,13.607-23.833
					c6.083-9.399,13.906-17.484,21.926-25.209c11.401-10.981,25.424-18.865,39.599-25.613c14.465-6.886,30.271-10.779,45.865-14.076
					c16.548-3.5,33.542-4.854,50.386-5.97c20.692-1.372,41.496-1.214,62.221-1.103c18.179,0.097,36.349,0.317,54.529,0.219
					c38.633-0.209,77.266,0.042,115.896,0.486c36.683,0.421,73.356,1.384,110.02,2.624c18.069,0.61,36.114,1.204,54.191,1.485
					c25.018,0.389,50.058-0.318,75.065-0.972c38.209-1,76.398-2.831,114.596-4.179c6.358-0.18,12.718-0.361,19.077-0.541
					c8.849-0.646,17.7-0.803,26.553-0.471c9.17,0.209,18.053,2.988,26.587,6.057c6.276,2.258,11.918,5.946,17.455,9.567
					c5.527,3.614,10.131,8.432,14.654,13.172c4.546,4.766,7.911,10.487,11.212,16.126c6.544,11.174,8.998,24.507,8.885,37.296
					c0.341-0.031,0.612-0.201,0.815-0.509c0.786-0.84,1.545-1.704,2.273-2.594C926.597,98.146,928.599,96.35,928.536,95.242z"/>
				<path opacity="0.1091" fill="#FFFFFF" d="M930.085,92.976c-0.252-4.481-0.313-9.167-1.405-13.556
					c-2.027-8.144-1.165-5.242-3.965-13.323c-2.313-6.673-6.291-12.649-10.141-18.49c-3.928-5.963-9.199-10.9-14.359-15.75
					c-5.257-4.938-11.559-8.58-17.756-12.159c-6.345-3.665-13.42-5.78-20.384-7.855c-7.221-2.152-14.813-2.529-22.272-2.901
					c-9.159,0.253-18.312,0.613-27.464,1.083c-13.022,0.569-26.046,1.167-39.067,1.792c-38.437,1.805-76.86,3.592-115.325,4.68
					c-30.886,0.874-61.772,0.584-92.657-0.465c-11.051-0.375-24.304-0.938-35.342-1.325c-37.13-1.302-74.289-1.798-111.438-2.189
					c-38.373-0.404-76.742-0.05-115.114-0.165c-18.089-0.054-36.175-0.386-54.266-0.367c-17.731,0.018-35.427,0.708-53.106,2.04
					c-16.996,1.282-33.765,4.108-50.353,7.96c-8.033,1.867-15.82,4.567-23.582,7.312c-10.261,3.626-19.843,8.778-29.22,14.225
					c-7.129,4.141-13.519,9.375-19.857,14.597c-6.593,5.428-12.177,11.942-17.718,18.391c-5.913,6.883-10.583,14.738-15.235,22.483
					c-5.08,8.459-8.758,17.698-12.457,26.807c-5.564,13.706-8.799,28.259-11.898,42.667c-2.684,12.479-3.935,25.248-5.273,37.917
					c-2.063,19.515-1.982,39.229-1.845,58.82c0.108,15.585,0.517,31.177,0.723,46.762c0.208,15.57,0.345,31.14,0.487,46.711
					c0.289,31.36,0.466,62.719,0.656,94.081c0.418,69.417,0.772,138.834,1.165,208.251c0.785,138.74,1.646,277.478,2.501,416.215
					c1.783,289.602,3.51,579.203,4.521,868.808c1.011,289.021,1.258,578.047-0.044,867.068
					c-0.623,138.012-1.673,276.021-3.218,414.027c-0.713,63.67-1.575,127.339-2.545,191.005
					c-0.475,31.084-1.002,62.168-1.547,93.249c-0.269,15.339-0.556,30.678-0.846,46.017c-0.192,10.146-0.389,20.295-0.591,30.442
					c-0.512,6.816-0.518,13.625-0.017,20.424c0.202,3.706,1.413,6.239,2.668,9.649c1.677,4.557,5.219,7.983,8.585,11.28
					c3.454,3.385,8.336,5.307,12.696,7.121c2.384,0.991,6.94,2.136,9.5,2.514c5.322,0.788,4.12,0.644,9.433,1.101
					c4.573,0.392,9.207,0.116,13.779-0.103c8.113-0.389,16.141-1.864,24.19-2.854c6.739-0.828,20.828,0.975,22.932,1.104
					c19.405,1.192,38.827,2.126,58.245,3.083c38.911,1.922,77.85,3.281,116.789,4.506c84.471,2.656,168.992,3.527,253.5,3.373
					c78.025-0.143,156.043-1.738,234.026-4.208c38.987-1.234,77.958-2.901,116.922-4.717c4.152-0.194,8.176-0.681,12.268-1.388
					c2.816-0.556,5.517-1.458,8.101-2.708c2.759-1.319,5.233-3.046,7.422-5.185c2.278-1.883,4.068-5.521,5.485-8.004
					c0.844-1.479,1.429-3.137,1.841-4.789c1.234-4.941,2.209-9.83,2.174-14.96c-0.03-4.607-0.244-9.178-0.503-13.777
					c-0.892-15.899-0.925-31.869-1.222-47.788c-0.522-28.207-0.685-56.421-0.698-84.632c-0.017-30.755,0.365-61.509,0.981-92.256
					c0.521-25.972,1.174-51.942,1.554-77.917c0.514-35.089,0.558-70.183,0.526-105.273c-0.061-70.109-0.674-140.213-0.486-210.322
					c0.1-37.217,0.273-74.433,0.326-111.649c0.037-27.544-0.219-55.086-0.211-82.629c0.006-21.452-0.378-42.904-0.206-64.357
					c0.112-14.089-0.053-28.187-0.072-42.275c-0.023-16.284-0.04-32.566-0.057-48.851c-0.04-41.277-0.061-82.556-0.08-123.834
					c-0.079-181.39-0.06-362.779-0.142-544.167c-0.027-63.269-0.131-126.538-0.245-189.805c-0.058-31.675-0.303-63.346-0.475-95.02
					c-0.466-85.479-0.665-170.96-0.765-256.44c-0.512-439.592,2.751-879.179,1.508-1318.769c-0.002-0.995-1.514,1.307-1.368,1.1
					c-0.615,0.88-1.209,1.776-1.78,2.687c-0.344,0.457-0.601,0.957-0.772,1.496c0.911,328.075-0.595,656.147-1.284,984.222
					c-0.345,164.094-0.414,328.188,0.124,492.282c0.129,39.494,0.318,78.989,0.534,118.483c0.029,6.579,0.06,13.159,0.089,19.739
					c0.832,7.618,0.901,15.212,0.209,22.785c-0.271,3.365-0.023,6.894-0.027,10.267c-0.029,23.513,0.246,47.017,0.241,70.528
					c-0.036,166.758,0.023,333.517,0.063,500.275c0.021,88.104,0.05,176.206,0.143,264.311c0.036,33.84,0.087,67.681,0.17,101.521
					c0.063,26.343-0.115,52.673,0.076,79.015c0.057,7.77,0.398,15.563,0.245,23.328c-0.272,13.791,0.067,27.671,0.11,41.465
					c0.06,18.876,0.021,37.751-0.008,56.628c-0.122,79.238-0.448,158.469-0.083,237.707c0.204,44.583,0.3,89.168,0.073,133.75
					c-0.073,14.544-0.226,29.087-0.423,43.629c-0.083,6.104-0.185,12.176-0.546,18.27c-0.457,7.747-0.315,15.587-0.484,23.348
					c-0.259,11.972-0.285,23.94-0.534,35.913c-0.29,13.89-0.499,27.779-0.666,41.67c-0.573,47.505-0.191,95.008,0.767,142.503
					c0.112,5.15,0.223,10.3,0.333,15.45c0.718,6.967,1.054,13.947,1.01,20.938c0.076,1.456,0.152,2.91,0.229,4.366
					c1.737,14.379-2.242,24.88-11.936,31.501c-3.238,2.558-7.572,3.595-11.461,4.577c-3.933,0.992-8.129,1.082-12.153,1.343
					c-19.437,1.257-38.961,1.759-58.42,2.564c-19.477,0.808-38.96,1.469-58.442,2.13c-45.464,1.545-90.944,2.523-136.427,3.277
					c-162.378,2.688-324.884-0.022-487.086-7.948c-19.424-0.948-38.836-2.096-58.247-3.278c-1.978-0.121-3.931,0.161-5.885,0.405
					c-6.95,0.866-13.844,1.868-20.831,2.417c-4.395,0.344-8.778,0.254-13.176,0.107c-8.608-0.285-15.115-2.232-22.581-5.48
					c-4.267-1.858-7.628-5.131-10.782-8.419c-9.434-9.824-7.423-25.311-7.181-37.436c5.391-269.517,7.719-539.094,8.867-808.66
					c2.461-578.646-1.292-1157.302-4.854-1735.934c-0.852-138.24-1.698-276.479-2.472-414.719
					c-0.357-63.847-0.689-127.695-1.058-191.541c-0.181-31.274-0.39-62.548-0.647-93.82c-0.127-15.525-0.299-31.051-0.472-46.577
					c-0.119-10.379-0.256-20.757-0.411-31.135c-0.159-10.191-0.054-20.379,0.314-30.564c0.325-13.806,1.791-27.531,3.347-41.238
					c1.378-12.146,3.98-24.079,6.687-35.98c4.644-13.456,9.289-26.913,13.933-40.369c2.674-5.819,5.65-11.48,8.93-16.98
					c4.388-7.82,10.008-14.836,15.63-21.775c10.431-12.878,23.96-22.818,37.962-31.42c6.84-4.201,14.288-7.346,21.646-10.492
					c9.966-4.262,20.542-7.013,31.023-9.64c16.385-4.107,33.345-5.866,50.131-7.323c17.604-1.53,35.332-1.69,52.989-1.808
					c18.084-0.121,36.175,0.229,54.258,0.372c12.595,0.098,25.207-0.083,37.801-0.119c25.792-0.075,51.585,0.086,77.378,0.295
					c31.134,0.253,62.262,0.892,93.386,1.685c29.865,0.761,59.699,2.179,89.569,2.655c25.119,0.4,50.259-0.324,75.365-1.005
					c31.968-0.867,63.922-2.414,95.874-3.721c12.883-0.529,25.768-0.99,38.655-1.387c6.568-0.214,13.136-0.429,19.705-0.644
					c4.896-0.13,9.771,0.131,14.626,0.786c4.709,0.638,9.337,1.642,13.887,3.013c6.737,1.745,12.955,5.033,19.058,8.26
					c10.073,5.33,18.245,13.555,25.534,22.132c4.376,5.153,7.479,11.211,10.515,17.189c1.986,6.304,3.971,12.609,5.957,18.912
					c0.689,4.167,0.945,8.361,0.769,12.58c0.007,0.943,1.516-1.05,1.431-0.949c0.67-0.804,1.321-1.626,1.95-2.464
					C929.587,93.953,929.877,93.489,930.085,92.976z"/>
				<path opacity="0.1091" fill="#FFFFFF" d="M927.675,98.572c-0.088-2.212-0.177-4.422-0.267-6.634
					c-0.371-4.52-1.201-8.953-2.488-13.301c-1.617-6.716-4.987-12.908-8.22-18.936c-3.294-6.142-8-11.398-12.598-16.558
					c-4.679-5.247-10.48-9.329-16.185-13.343c-5.824-4.098-12.485-6.777-19.042-9.408c-6.77-2.716-14.049-3.769-21.206-4.804
					c-2.477-0.155-4.951-0.312-7.428-0.466c-9.065,0.113-18.126,0.411-27.182,0.894c-25.862,0.998-51.716,2.191-77.572,3.334
					c-38.021,1.681-76.033,2.923-114.091,3.257c-36.149,0.316-72.283-1.755-108.407-2.836c-37.537-1.124-75.094-1.52-112.645-1.806
					c-34.986-0.267-69.972,0.177-104.957-0.105c-18.057-0.145-36.108-0.367-54.167-0.221c-17.613,0.144-35.176,1.077-52.711,2.706
					c-16.793,1.56-33.31,4.785-49.598,9.089c-7.89,2.084-15.488,5.043-23.061,8.043c-10.043,3.979-19.314,9.529-28.358,15.362
					c-6.917,4.462-13.021,10.021-19.076,15.55c-6.34,5.791-11.604,12.637-16.829,19.404c-5.62,7.277-9.949,15.469-14.27,23.541
					c-4.754,8.882-8.092,18.468-11.462,27.924c-3.769,10.573-6.087,21.629-8.472,32.567c-2.689,12.343-3.974,24.975-5.343,37.511
					c-1.551,14.209-1.773,28.55-2.08,42.823c-0.018,10.358,0.082,20.716,0.299,31.072c0.147,10.352,0.274,20.705,0.383,31.058
					c0.721,62.73,0.943,125.466,1.285,188.2c0.38,69.887,0.758,139.775,1.16,209.664c0.799,139.453,1.673,278.907,2.527,418.359
					c1.777,290.133,3.46,580.268,4.384,870.404c0.919,288.354,1.038,576.712-0.449,865.063
					c-0.708,137.229-1.86,274.456-3.52,411.676c-0.764,63.188-1.683,126.374-2.714,189.559c-0.504,30.817-1.06,61.633-1.637,92.447
					c-0.284,15.198-0.587,30.397-0.892,45.597c-0.088,3.406,0.281,6.763,1.111,10.066c0.791,3.02,2.001,5.86,3.635,8.521
					c2.087,4.026,5.956,6.918,9.467,9.56c3.691,2.778,8.263,4.178,12.569,5.623c4.333,1.454,9.112,1.831,13.624,2.275
					c4.386,0.432,8.809,0.264,13.204,0.145c7.087-0.193,14.157-1.258,21.181-2.14c2.015-0.253,3.94-0.392,5.963-0.271
					c25.937,1.543,51.887,2.88,77.838,4.156c77.865,3.83,155.818,5.884,233.764,7.129c84.505,1.352,169.03,0.997,253.532-0.395
					c77.996-1.285,155.963-4.023,233.886-7.636c4.137-0.19,8.146-0.641,12.231-1.315c4.333-0.715,8.029-2.592,11.794-4.723
					c4.052-2.294,6.422-6.475,8.684-10.32c1.291-2.889,2.252-5.885,2.88-8.986c0.556-3.107,0.9-6.239,1.034-9.394
					c0.337-4.396-0.054-8.936-0.209-13.335c-0.555-15.793-0.657-31.609-0.876-47.41c-0.341-24.729-0.467-49.459-0.484-74.188
					c-0.025-34.153,0.368-68.303,1.061-102.447c0.482-23.777,1.075-47.56,1.454-71.338c0.596-37.286,0.641-74.581,0.606-111.872
					c-0.061-63.882-0.606-127.761-0.504-191.645c0.06-37.186,0.252-74.37,0.342-111.556c0.083-33.778-0.27-67.558-0.158-101.335
					c0.065-19.394-0.25-38.799-0.299-58.193c-0.08-32.44-0.024-64.885-0.061-97.325c-0.094-84.37-0.117-168.739-0.139-253.107
					c-0.044-173.334-0.04-346.667-0.146-520c-0.037-59.903-0.317-119.801-0.643-179.704c-0.89-164.215-0.92-328.435-0.707-492.651
					c0.471-360.855,2.457-721.708,1.446-1082.563c-0.405,0.07-0.736,0.287-0.991,0.645c-1.013,1.02-2,2.066-2.96,3.138
					c-0.976,1.058-1.926,2.14-2.846,3.244c-0.332,0.288-0.515,0.637-0.548,1.048c0.874,328.07-0.637,656.139-1.309,984.208
					c-0.335,164.103-0.385,328.205,0.169,492.307c0.133,39.494,0.327,78.988,0.536,118.483c0.028,6.579,0.059,13.156,0.088,19.735
					c1.059,7.639,1.13,15.235,0.211,22.789c-0.013,1.045-0.023,2.09-0.035,3.136c-0.031,2.359-0.053,4.719-0.063,7.079
					c-0.059,9.146-0.097,18.292-0.088,27.438c0.004,5.853,0.233,11.682,0.449,17.531c-0.014,4.127-0.025,8.255-0.035,12.381
					c-0.012,4.41-0.021,8.82-0.028,13.229c-0.333,166.711-0.146,333.427-0.097,500.14c0.026,88.12,0.066,176.24,0.203,264.362
					c0.053,33.864,0.129,67.731,0.261,101.596c0.054,13.552,0.422,27.122-0.252,40.659c0.011,2.049,0.022,4.096,0.031,6.145
					c0.019,3.877,0.042,7.754,0.071,11.631c0.045,6.848,0.104,13.695,0.187,20.544c0.093,7.784,0.62,15.62,0.322,23.398
					c-0.034,0.927-0.07,1.853-0.104,2.78c0.073,12.875,0.12,25.75,0.143,38.627c0.05,18.871,0.01,37.744-0.022,56.616
					c-0.13,79.215-0.411,158.425-0.159,237.64c0.143,44.588,0.24,89.178,0.054,133.766c-0.06,14.563-0.198,29.125-0.365,43.688
					c-0.069,6.052-0.31,12.041-0.767,18.074c-0.075,3.934-0.151,7.865-0.23,11.799c-0.081,3.851-0.164,7.701-0.247,11.552
					c-0.128,5.907-0.229,11.788-0.138,17.697c0.096,6.149-0.037,12.265-0.173,18.411c-0.307,13.87-0.551,27.74-0.763,41.61
					c-0.718,47.281-0.677,94.565-0.731,141.849c0.008,5.107,0.017,10.215,0.023,15.32c1.452,6.798,1.406,13.464-0.135,20
					c-0.119,1.185-0.236,2.367-0.355,3.553c-0.328,2.338-0.764,4.654-1.308,6.952c-0.719,3.382-2.42,6.44-4.226,9.323
					c-0.741,0.896-1.481,1.795-2.222,2.693c-1.521,1.682-3.354,2.862-5.498,3.545c-7.289,3.284-15.124,3.835-23.005,4.17
					c-45.42,1.924-90.831,3.751-136.271,5.123c-162.295,4.895-324.74,4.148-487.016-1.039c-38.94-1.245-77.865-2.924-116.782-4.748
					c-6.483-0.322-12.968-0.644-19.451-0.966c-13.187-0.87-26.387-1.38-39.601-1.528c-1.855-0.047-3.495-0.235-5.383-0.117
					c-6.283,0.396-12.471,0.512-18.764,0.196c-3.624-0.182-7.174-0.755-10.742-1.375c-4.673-0.811-8.983-2.647-13.188-4.757
					c-2.981-1.496-5.356-3.966-7.547-6.395c-2.435-2.702-3.618-6.061-4.874-9.395c-0.3-1.342-0.599-2.682-0.898-4.024
					c-0.579-3.206-0.804-6.437-0.677-9.694c0.1-5.052,0.198-10.104,0.298-15.156c0.196-10.15,0.39-20.303,0.579-30.455
					c1.266-67.452,2.312-134.909,3.244-202.366c1.878-135.854,3.101-271.715,3.974-407.579
					c3.721-577.963,0.428-1155.955-3.042-1733.91c-1.648-274.535-3.498-549.067-4.594-823.603
					c-0.124-30.916-0.223-61.831-0.305-92.746c-0.04-15.238-0.043-30.464,0.17-45.702c0.195-13.89,1.498-27.715,2.887-41.523
					c1.222-12.133,3.583-24.101,6.021-36.034c2.152-10.54,5.528-20.748,8.984-30.911c3.081-9.059,7.396-17.6,11.768-26.079
					c5.238-10.161,12.274-19.21,19.599-27.912c10.119-12.022,23.139-21.189,36.558-29.105c13.436-7.927,28.56-12.756,43.505-16.861
					c15.888-4.364,32.418-6.321,48.768-7.962c20.33-2.042,40.857-2.207,61.27-2.312c18.087-0.094,36.179,0.244,54.265,0.367
					c12.576,0.086,25.184-0.127,37.756-0.156c25.773-0.058,51.547,0.12,77.319,0.346c43.042,0.378,86.07,1.427,129.088,2.853
					c18.082,0.599,36.143,1.172,54.232,1.446c25.005,0.379,50.031-0.298,75.025-0.912c44.336-1.092,88.637-3.175,132.978-4.081
					c6.394-0.161,12.786-0.322,19.18-0.483c4.507,0.023,8.981,0.418,13.423,1.182c8.635,1.124,16.738,4.663,24.48,8.426
					c5.739,2.789,10.728,6.872,15.624,10.879c6.56,5.368,11.528,12.363,16.117,19.386c3.497,5.354,5.686,11.417,7.834,17.386
					c1.317,4.104,2.263,8.291,2.839,12.563c0.34,4.051,0.393,8.106,0.159,12.165c0.405-0.03,0.75-0.211,1.033-0.541
					c1.088-0.911,2.154-1.849,3.193-2.815c1.055-0.951,2.085-1.928,3.088-2.933C927.398,99.301,927.608,98.973,927.675,98.572z"/>
			</g>
		</g>
	</g>
</g>
</svg>
