<?xml version="1.0" encoding="utf-8"?>
<!-- Generator: Adobe Illustrator 16.0.0, SVG Export Plug-In . SVG Version: 6.00 Build 0)  -->
<!DOCTYPE svg PUBLIC "-//W3C//DTD SVG 1.1//EN" "http://www.w3.org/Graphics/SVG/1.1/DTD/svg11.dtd">
<svg version="1.1" id="Layer_1" xmlns="http://www.w3.org/2000/svg" xmlns:xlink="http://www.w3.org/1999/xlink" x="0px" y="0px"
	 width="720px" height="4000px" viewBox="0 0 720 4000" enable-background="new 0 0 720 4000" xml:space="preserve">
<g>
	<image overflow="visible" opacity="0.75" width="719" height="3823" xlink:href="E611D318.png"  transform="matrix(1 0 0 1 12 1)">
	</image>
	<g>
		<path fill="#F2F2F2" d="M697.045,84.37c-0.097-33.677-27.707-60.8-61.38-60.219c-64.714,1.118-131.549,6.076-194.279,3.597
			c-55.248-2.184-117.291-2.948-179.712-2.711C150.506,25.458,31.542,7.306,32.208,198.418
			c2.597,745.181,14.819,2814.995,0,3555.955c-0.666,33.295,39.457,24.333,47.616,24.783
			c196.223,10.856,393.137,11.72,589.469,2.583c6.838-0.317,14.241-0.846,19.367-4.905c6.511-5.157,6.945-13.956,6.896-21.736
			c-1.371-216.041,3.25-1245.885,1.881-1461.926c-0.488-76.993,0.487-146.08,0-223.076c-0.542-85.081-0.127-693.862-0.667-778.945
			C694.209,887.277,698.198,487.917,697.045,84.37z"/>
		<g>
			<g>
				<path opacity="0.1091" fill="#FFFFFF" d="M707.308,74.959c-0.485-6.714-0.155-4.194-1.424-10.966
					c-1.083-5.774-3.793-11.062-6.444-16.222c-2.746-5.347-6.865-9.833-10.867-14.231c-4.109-4.521-9.324-7.895-14.401-11.181
					c-5.246-3.394-11.203-5.369-17.075-7.318c-6.098-2.021-12.618-2.361-18.963-2.688c-2.199,0.076-4.398,0.151-6.598,0.227
					c-12.304,0.491-24.604,1.052-36.9,1.68c-24.37,1.179-48.732,2.428-73.111,3.427c-17.804,0.731-35.607,0.967-53.424,1.098
					c-17.147,0.126-34.295-0.684-51.425-1.344c-35.691-1.375-71.421-1.758-107.135-2.022c-26.456-0.197-52.912,0.161-79.366-0.083
					c-18.019-0.166-36.009-0.303-54.018,0.367c-14.886,0.555-29.625,2.328-44.255,5.076c-14.096,2.647-27.467,7.624-40.286,13.946
					c-6.41,3.163-12.165,7.413-17.867,11.667c-5.934,4.426-10.896,9.972-15.804,15.455c-5.279,5.896-9.296,12.805-13.289,19.583
					c-6.013,10.207-9.703,21.66-13.192,32.897c-3.035,9.771-4.594,19.973-6.237,30.039c-1.886,11.562-2.379,23.334-2.972,35.01
					c-0.958,18.889,0.305,37.893,0.713,56.786c0.757,35.001,0.768,70.024,0.944,105.031c1.891,376.202,3.332,752.409,4.608,1128.614
					c1.503,443.65,2.559,887.304,1.934,1330.957c-0.27,191.984-0.883,383.97-2.328,575.949
					c-0.594,78.873-1.363,157.746-2.408,236.615c-0.434,32.668-0.936,65.332-1.505,97.998c-0.259,14.933-0.545,29.865-0.843,44.797
					c-0.05,2.395-0.098,4.789-0.146,7.184c-0.063,3.023,0.368,5.975,1.291,8.854c0.651,2.774,2.586,5.232,4.136,7.514
					c2.453,3.608,6.734,5.776,10.438,7.747c4.034,2.146,8.77,2.823,13.198,3.592c4.299,0.746,8.831,0.528,13.166,0.411
					c3.873-0.105,7.723-0.662,11.557-1.17c2.8-0.371,5.592-0.822,8.392-1.199c7.132-0.965,19.412,0.614,23.26,0.809
					c19.636,0.991,39.264,2.032,58.905,2.917c26.21,1.181,52.438,1.993,78.664,2.771c78.724,2.331,157.501,2.539,236.249,1.57
					c39.378-0.484,78.747-1.572,118.107-2.861c19.678-0.645,39.349-1.488,59.018-2.332c9.962-0.427,20.413-0.221,30.291-2.285
					c2.872-0.6,4.679-1.756,7.22-3.119c3.887-2.087,5.943-6.181,7.896-9.871c2.103-3.973,2.343-8.818,2.759-13.175
					c0.398-4.194-0.028-8.491-0.304-12.677c-1.634-24.919-1.636-49.854-1.778-74.814c-0.405-70.452-0.097-140.914,0.016-211.367
					c0.568-360.642,2.356-721.283,2.254-1081.926c-0.018-63.867-0.528-127.73-0.33-191.6c0.149-47.934,0.528-95.877-0.023-143.809
					c-0.278-24.128-0.086-48.267-0.122-72.396c-0.242-159.538-0.143-319.076-0.188-478.615
					c-0.017-60.203,0.301-120.421-0.195-180.623c-0.256-30.96-0.271-61.925-0.43-92.883c-0.407-79.222-0.509-158.444-0.519-237.666
					c-0.034-303.177,2.005-606.35,1.155-909.527c-0.003-0.865-1.383,0.749-1.35,0.714c-0.63,0.668-1.24,1.354-1.832,2.057
					c-0.352,0.345-0.622,0.742-0.814,1.189c0.896,329.557-1.488,659.111-1.101,988.667c0.047,39.623,0.162,79.244,0.306,118.865
					c0.072,19.838,0.173,39.678,0.275,59.518c0.072,14.227,0.354,28.487,0.275,42.715c-0.129,22.852,0.165,45.695,0.155,68.546
					c-0.033,79.657-0.001,159.314,0.007,238.971c0.01,91.524,0.022,183.048,0.094,274.573c0.028,35.812,0.069,71.625,0.155,107.438
					c0.033,13.724,0.367,27.477-0.067,41.194c-0.179,5.646,0.048,11.346,0.081,16.994c0.036,6.122,0.059,12.244,0.208,18.363
					c0.08,3.295,0.047,6.563-0.006,9.857c0.031,6.363,0.062,12.727,0.092,19.089c0.04,12.47,0.053,24.939,0.037,37.408
					c-0.003,36.678-0.232,73.356-0.292,110.035c-0.037,23.272,0.07,46.544,0.14,69.815c0.037,12.808,0.029,25.607,0.291,38.412
					c0.27,13.147,0.001,26.331-0.003,39.481c-0.004,15.107-0.016,30.214-0.027,45.319c-0.033,38.491-0.093,76.981-0.159,115.471
					c-0.323,189.672-0.888,379.343-1.373,569.015c-0.446,173.396-1.028,346.796-0.836,520.194
					c0.017,14.564,0.055,29.129,0.114,43.695c0.053,12.512-0.063,25.017,0.075,37.526c0.103,9.217,0.321,18.432,0.62,27.644
					c0.169,5.228,0.501,10.436,0.817,15.654c0.297,4.889-0.376,9.895-1.214,14.689c-0.679,3.883-2.587,7.1-4.694,10.335
					c-3.31,5.077-10.209,6.847-15.61,7.837c-1.148,0.102-2.296,0.204-3.443,0.307c-7.688,0.365-15.379,0.72-23.069,1.061
					c-19.654,0.898-39.316,1.594-58.978,2.292c-85.215,3.021-170.498,3.733-255.759,2.988
					c-78.629-0.686-157.266-3.243-235.782-7.503c-9.852-0.535-18.839-1.307-28.359,0.024c-6.002,0.839-11.568,1.349-17.777,1.302
					c-5.498-0.043-10.705-1.275-15.894-2.961c-3.729-1.211-6.778-3.689-9.668-6.212c-7.65-6.679-6.667-16.768-6.49-25.394
					c0.306-14.926,0.58-29.854,0.847-44.779c0.634-35.538,1.152-71.079,1.625-106.62c2.274-171.028,3.222-342.076,3.891-513.116
					c0.817-208.923,0.962-417.847,0.879-626.77c-0.176-443.076-1.596-886.151-3.316-1329.224
					c-0.645-165.996-1.363-331.991-2.094-497.987c-0.306-69.238-0.612-138.475-0.919-207.714
					c-0.274-61.951-0.322-123.912-1.147-185.86c-0.167-12.53-0.588-25.054-0.703-37.584c-0.159-8.646-0.067-17.29,0.278-25.931
					c0.296-11.559,1.679-23.02,3.172-34.47c1.012-6.773,2.318-13.489,3.921-20.148c1.968-9.021,5.186-17.663,8.496-26.251
					c2.959-7.682,7.19-14.742,11.471-21.729c3.93-6.414,9.048-11.965,14.147-17.437c8.017-8.6,18.172-14.892,28.406-20.446
					c12.332-6.692,26.258-10.227,39.872-13.135c11.969-2.556,24.279-3.503,36.46-4.346c15.269-1.058,30.634-0.905,45.93-0.822
					c43.848,0.235,87.698,0.095,131.545,0.622c29.063,0.347,58.11,1.223,87.154,2.302c35.324,1.311,70.616,0.274,105.919-1.102
					c30.431-1.186,60.834-2.841,91.277-3.755c2.092,0.004,4.183,0.008,6.274,0.012c4.087,0.169,8.123,0.72,12.106,1.653
					c5.874,1.089,11.303,3.68,16.639,6.23c8.736,4.176,15.741,11.243,21.821,18.577c3.647,4.397,6.065,9.6,8.434,14.738
					c3.016,6.538,3.899,14.121,4.263,21.179c0.019,0.356,2.456-1.753,2.361-1.667C705.925,76.749,707.366,75.759,707.308,74.959z"/>
				<path opacity="0.1091" fill="#FFFFFF" d="M708.671,76.634c-0.286-1.78-0.574-3.562-0.862-5.341
					c-1.002-3.651-2.063-7.285-3.181-10.903c-1.725-5.741-5.044-10.853-8.232-15.846c-3.289-5.152-7.957-9.341-12.44-13.398
					c-4.633-4.194-10.188-7.113-15.667-9.995c-5.627-2.959-11.934-4.378-18.073-5.751c-6.458-1.443-13.1-1.146-19.644-0.862
					c-42.765,1.857-85.487,4.442-128.271,5.851c-17.635,0.582-35.263,0.512-52.902,0.33c-17.034-0.176-34.094-1.193-51.121-1.741
					c-36.187-1.164-72.403-1.393-108.604-1.513c-22.86-0.076-45.714,0.143-68.573-0.094c-17.964-0.187-35.889-0.104-53.829,0.905
					c-14.796,0.832-29.387,3.086-43.815,6.408c-6.995,1.611-13.725,4.074-20.429,6.587c-3.383,1.268-9.892,4.303-13.002,6.1
					c-7.611,4.397-4.702,2.596-12.121,7.52c-6.109,4.056-11.337,9.238-16.508,14.377c-5.5,5.467-9.817,11.99-14.097,18.4
					c-6.377,9.549-10.497,20.453-14.395,31.166c-3.366,9.25-5.257,19.004-7.219,28.614c-2.248,11.001-3.077,22.271-4.001,33.435
					c-1.698,20.514-0.467,41.131,0.08,61.663c0.923,34.745,0.896,69.525,1.077,104.28c0.87,167.643,1.465,335.287,2.175,502.93
					c0.877,206.986,1.701,413.972,2.41,620.959c1.52,443.845,2.581,887.692,1.99,1331.54c-0.257,192.75-0.853,385.501-2.267,578.246
					c-0.583,79.428-1.337,158.854-2.363,238.278c-0.426,32.976-0.92,65.948-1.478,98.921c-0.255,15.098-0.536,30.194-0.829,45.291
					c-0.125,6.379-0.416,12.701,0.039,19.067c0.33,4.627,2.95,8.313,5.5,11.921c2.585,3.655,7.139,5.8,10.979,7.736
					c4.177,2.104,9.052,2.727,13.601,3.434c8.216,1.277,16.889,0.136,25.052-0.978c2.841-0.386,5.67-0.877,8.509-1.291
					c7.147-1.044,18.73,0.669,23.116,0.929c45.81,2.717,91.687,4.316,137.554,5.669c78.737,2.323,157.53,2.523,236.29,1.544
					c39.389-0.49,78.767-1.584,118.135-2.879c19.684-0.648,39.359-1.494,59.034-2.341c10.089-0.435,20.479-0.226,30.423-2.39
					c3.058-0.665,4.627-1.778,7.307-3.298c4.019-2.279,6.02-6.577,7.972-10.489c2.103-4.215,2.226-9.234,2.539-13.813
					c0.298-4.347-0.229-8.801-0.599-13.124c-0.914-10.663-1.113-21.396-1.375-32.089c-0.349-14.287-0.375-28.585-0.444-42.876
					c-0.34-70.431-0.061-140.867,0.057-211.298c0.321-191.798,0.894-383.594,1.385-575.391
					c0.432-168.864,0.943-337.729,0.84-506.592c-0.04-63.864-0.528-127.725-0.324-191.588c0.154-47.938,0.185-95.87-0.023-143.809
					c-0.104-24.135-0.102-48.27-0.127-72.404c-0.16-159.519-0.096-319.037-0.156-478.555c-0.023-60.202-0.036-120.403-0.185-180.604
					c-0.074-30.992-0.323-61.983-0.481-92.975c-0.405-79.219-0.505-158.441-0.514-237.662c-0.029-303.177,2.01-606.35,1.153-909.527
					c-0.002-0.713-1.264-0.01-1.263,0.453c0.925,329.555-1.466,659.109-1.103,988.664c0.104,96.553,0.873,193.101,1.019,289.653
					c0.12,79.738,0.119,159.478,0.137,239.217c0.021,91.504,0.029,183.009,0.063,274.514c0.023,61.234-0.047,122.471,0.215,183.706
					c0.25,58.842,0.028,117.678-0.09,176.52c-0.074,36.024,0.257,72.047,0.349,108.07c0.167,66.86,0.07,133.721-0.02,200.581
					c-0.489,363.024-2.382,726.049-2.291,1089.074c0.007,27.22,0.028,54.441,0.335,81.659c0.125,10.993,0.422,21.979,0.861,32.961
					c0.193,4.851,0.508,9.7,0.8,14.545c0.354,5.875-0.202,11.521-1.402,17.263c-0.882,4.224-3.832,7.868-6.447,11.114
					c-1.083,0.813-2.167,1.627-3.25,2.441c-3.24,2.035-6.79,3.26-10.653,3.674c-1.19,0.131-2.381,0.263-3.57,0.395
					c-7.724,0.551-15.458,0.933-23.201,1.145c-19.671,0.904-39.35,1.609-59.029,2.313c-85.281,3.049-170.631,3.787-255.958,3.065
					c-78.645-0.664-157.268-3.33-235.804-7.414c-8.868-0.461-15.092-1.715-22.898-0.869c-2.84,0.307-5.676,0.763-8.504,1.161
					c-9.414,1.324-18.676,1.434-28.049-0.202c-4.355-0.762-8.216-2.646-12.083-4.67c-1.107-0.808-2.214-1.614-3.322-2.421
					c-4.519-3.847-7.154-8.533-7.907-14.06c-0.121-1.542-0.241-3.085-0.361-4.628c0.1-4.816,0.196-9.636,0.291-14.452
					c0.146-7.43,0.284-14.86,0.421-22.29c0.645-34.901,1.169-69.803,1.651-104.707c2.327-169.096,3.301-338.212,3.993-507.321
					c0.852-207.82,1.055-415.643,1.004-623.464c-0.111-443.551-1.506-887.101-3.231-1330.648
					c-0.65-167.268-1.362-334.534-2.082-501.802c-0.302-70.081-0.604-140.163-0.902-210.244
					c-0.269-62.956-0.356-125.918-1.041-188.871c-0.14-12.809-0.379-25.614-0.71-38.418c-0.14-5.037-0.313-10.072-0.518-15.106
					c-0.48-12.769,0.05-25.524,0.674-38.273c0.87-17.706,4.006-35.125,8.323-52.276c2.186-8.68,5.607-16.941,9.104-25.149
					c3.161-7.42,7.586-14.179,12.038-20.858c6.813-10.223,16.108-18.432,25.798-25.8c9.553-7.261,20.197-11.683,31.202-15.817
					c6.7-2.517,13.744-4.083,20.699-5.686c12-2.767,24.388-3.829,36.636-4.77c15.292-1.174,30.695-1.044,46.02-0.972
					c12.974,0.06,25.942,0.27,38.916,0.235c36.914-0.097,73.816,0.027,110.727,0.61c28.809,0.454,57.59,1.665,86.386,2.556
					c17.604,0.544,35.247,0.042,52.846-0.343c18.078-0.396,36.15-1.369,54.208-2.241c26.812-1.295,53.61-2.8,80.425-4.044
					c6.421-0.299,12.732,1.096,18.943,2.479c6.072,1.351,11.688,4.312,17.128,7.19c9.031,4.778,16.055,12.382,22.188,20.356
					c3.612,4.695,5.857,10.317,8.01,15.764c0.547,1.866,1.094,3.73,1.641,5.595c1.258,3.355,2.16,6.804,2.706,10.345
					C707.914,77.402,708.747,77.1,708.671,76.634z"/>
				<path opacity="0.1091" fill="#FFFFFF" d="M705.251,75.375c-0.106-1.853-0.213-3.707-0.319-5.56
					c-0.438-3.762-1.264-7.438-2.478-11.025c-1.574-5.61-4.755-10.623-7.794-15.509c-3.121-5.019-7.552-9.125-11.837-13.106
					c-4.417-4.103-9.73-6.985-14.978-9.839c-5.37-2.92-11.436-4.363-17.322-5.75c-6.205-1.461-12.577-1.258-18.883-1.07
					c-18.394,0.547-36.781,1.556-55.161,2.432c-24.154,1.15-48.304,2.184-72.473,2.933c-17.628,0.547-35.249,0.472-52.88,0.285
					c-17.046-0.181-34.115-1.183-51.152-1.735c-36.173-1.171-72.375-1.421-108.564-1.557c-22.855-0.086-45.706,0.127-68.56-0.108
					c-17.938-0.184-35.841-0.121-53.759,0.844c-14.705,0.793-29.214,2.96-43.57,6.176c-6.922,1.552-13.592,3.932-20.237,6.364
					c-6.588,2.411-12.716,5.816-18.8,9.254c-6.179,3.492-11.615,8.079-16.997,12.649C63.84,55.85,59.244,61.727,54.694,67.518
					c-4.943,6.292-8.582,13.513-12.212,20.591c-5.531,10.782-8.744,22.658-11.792,34.311c-2.677,10.227-3.916,20.807-5.245,31.266
					c-1.534,12.068-1.715,24.296-1.999,36.438c-0.222,9.438,0.208,18.932,0.423,28.37c0.176,7.653,0.296,15.307,0.41,22.961
					c0.522,35.26,0.582,70.53,0.749,105.793c1.79,377.75,3.35,755.501,4.619,1133.252c1.491,443.437,2.53,886.877,1.882,1330.317
					c-0.279,191.217-0.914,382.434-2.386,573.646c-0.604,78.325-1.383,156.649-2.448,234.969c-0.44,32.364-0.95,64.727-1.525,97.088
					c-0.263,14.773-0.554,29.545-0.855,44.316c0.091,1.526,0.183,3.053,0.274,4.578c0.385,2.805,1.254,5.448,2.609,7.932
					c2.199,5.042,7.358,8.162,11.949,10.613c3.726,1.99,8.057,2.693,12.143,3.489c4.025,0.783,8.289,0.708,12.368,0.714
					c6.55,0.01,13.081-1.07,19.58-1.781c7.172-0.785,19.242,0.747,23.258,0.968c19.646,1.081,39.298,2.014,58.952,2.899
					c45.877,2.07,91.792,3.243,137.706,4.117c78.735,1.5,157.499,0.939,236.223-0.814c39.361-0.877,78.705-2.354,118.039-4.029
					c8.879-0.378,17.811-0.53,26.656-1.499c2.44-0.343,4.806-0.971,7.095-1.881c2.435-1.002,4.605-2.413,6.511-4.231
					c0.827-1.053,1.653-2.107,2.479-3.162c1.509-2.374,2.653-4.914,3.436-7.617c0.266-1.379,0.531-2.759,0.798-4.139
					c0.381-2.801,0.593-5.617,0.636-8.444c0.193-4.284-0.239-8.716-0.431-12.988c-0.235-5.261-0.331-10.534-0.454-15.8
					c-0.632-27.2-0.429-54.423-0.473-81.629c-0.122-74.773,0.041-149.549,0.176-224.322c0.349-193.99,0.926-387.98,1.414-581.97
					c0.41-162.278,0.905-324.558,0.759-486.835c-0.019-20.632-0.143-41.262-0.241-61.892c-0.276-58.422,0.046-116.839,0.145-175.263
					c0.05-29.992-0.209-59.979-0.318-89.972c-0.095-25.688-0.042-51.377-0.074-77.064c-0.193-158.261-0.117-316.524-0.168-474.785
					c-0.019-56.888-0.081-113.776-0.204-170.664c-0.089-40.744-0.411-81.486-0.577-122.23
					c-0.296-72.591-0.356-145.183-0.346-217.773c0.047-296.586,1.974-593.168,1.15-889.752c-0.503,0.212-0.905,0.561-1.207,1.045
					c-1.272,1.506-2.516,3.035-3.73,4.587c-1.23,1.54-2.434,3.103-3.605,4.687c-0.402,0.405-0.649,0.876-0.739,1.415
					c0.852,329.561-1.522,659.117-1.091,988.678c0.053,39.625,0.172,79.251,0.318,118.876c0.075,19.84,0.176,39.679,0.277,59.519
					c0.012,6.595,0.024,13.19,0.037,19.786c0.325,7.633,0.396,15.264,0.213,22.896c-0.162,8.258-0.213,16.518-0.217,24.777
					c-0.005,5.792,0.238,11.555,0.462,17.343c-0.022,4.219-0.041,8.439-0.057,12.658c-0.018,4.59-0.033,9.18-0.046,13.769
					c-0.239,79.632-0.17,159.266-0.174,238.898c-0.005,91.532,0.014,183.063,0.141,274.595c0.05,35.833,0.125,71.666,0.291,107.5
					c0.063,13.707,0.482,27.435-0.242,41.127c0.017,1.991,0.033,3.983,0.05,5.974c0.023,3.686,0.061,7.372,0.11,11.058
					c0.073,6.147,0.209,12.292,0.397,18.437c0.1,3.293,0.011,6.514-0.113,9.803c0.026,6.359,0.051,12.718,0.076,19.078
					c0.033,12.467,0.04,24.932,0.021,37.398c-0.015,36.688-0.22,73.378-0.253,110.068c-0.021,23.256,0.036,46.51,0.022,69.764
					c-0.003,5.044-0.01,10.086-0.017,15.13c-0.01,7.802,0.207,15.562,0.521,23.358c0.255,6.286-0.032,12.663-0.046,18.955
					c-0.015,6.829-0.03,13.66-0.044,20.49c-0.033,15.098-0.063,30.194-0.093,45.292c-0.077,38.477-0.159,76.955-0.245,115.432
					c-0.688,309.389-1.847,618.778-2.146,928.168c-0.059,58.755-0.063,117.511,0.076,176.266
					c0.029,11.743,0.066,23.483,0.119,35.224c0.066,4.265,0.02,8.528-0.138,12.79c-0.12,1.928-0.239,3.857-0.358,5.785
					c0,3.962,0.002,7.923,0.003,11.884c0.001,8.893-0.065,17.787-0.1,26.68c-0.018,4.622-0.167,9.229-0.343,13.846
					c-0.152,0.797-0.305,1.595-0.457,2.392c-0.515,1.626-0.849,3.289-0.997,4.988c-0.336,1.717-0.938,3.335-1.805,4.854
					c-0.379,0.781-0.757,1.563-1.136,2.346c-0.987,1.586-2.281,2.862-3.884,3.828c-1.704,1.153-3.563,1.945-5.577,2.375
					c-3.247,1.031-6.65,1.212-10.021,1.406c-7.671,0.133-15.335,0.446-22.993,0.94c-19.634,0.87-39.276,1.54-58.918,2.209
					c-32.74,1.115-65.493,1.79-98.247,2.352c-65.517,1.124-131.051,0.799-196.565-0.302c-32.763-0.551-65.515-1.547-98.263-2.656
					c-39.599-1.341-79.157-3.785-118.763-4.818c0.127,0.02,0.256,0.039,0.383,0.06c-1.251-0.355-1.567-0.342-3.027-0.393
					c-2.387-0.085-4.772-0.069-7.16-0.017c-6.152,0.134-11.986-0.727-17.826-2.652c-2.645-0.87-4.879-2.275-7.204-3.764
					c-2.188-1.4-3.718-3.883-4.959-6.061c-1.74-3.052-2.103-6.504-2.655-9.903c-0.209-3.89-0.208-7.781,0.002-11.673
					c0.101-4.867,0.2-9.733,0.296-14.6c1.391-69.494,2.317-138.996,3.102-208.499c2.017-178.563,2.854-357.141,3.396-535.714
					c1.329-438.115,0.312-876.243-0.962-1314.357c-1.16-398.863-2.829-797.723-4.717-1196.582
					c-0.345-72.971-0.755-145.943-0.974-218.916c-0.046-15.23-0.061-30.461-0.024-45.692c0.044-2.407,0.087-4.814,0.13-7.221
					c0.408-6.538,0.619-13.083,0.632-19.638c0.255-11.71,1.546-23.332,2.966-34.943c1.221-9.977,3.622-19.722,6.129-29.432
					c2.169-8.404,5.557-16.385,9.031-24.306c3.068-6.997,7.329-13.344,11.628-19.616c5.193-7.574,12.021-13.813,18.99-19.686
					c10.051-8.472,22.407-13.841,34.629-18.278c12.957-4.706,26.849-6.749,40.456-8.456c14.721-1.844,29.653-2.101,44.468-2.323
					c18.129-0.271,36.26,0.291,54.39,0.133c2.546,0.039,5.093,0.079,7.642,0.117c12.447-0.04,24.895-0.036,37.34,0.011
					c18.386,0.038,36.77,0.277,55.154,0.524c34.811,0.472,69.593,1.841,104.391,2.814c17.539,0.49,35.11,0.107,52.648-0.162
					c17.81-0.271,35.618-0.923,53.421-1.469c17.738-0.542,35.469-1,53.212-1.29c7.54-0.357,15.068-0.27,22.586,0.26
					c3.471,0.41,6.889,1.095,10.249,2.056c4.948,1.203,9.528,3.783,13.91,6.26c5.877,3.323,10.613,8.199,14.987,13.239
					c4.471,5.149,7.316,11.373,9.781,17.646c2.527,6.431,2.848,13.484,2.855,20.287c0.515-0.171,0.939-0.487,1.274-0.945
					c1.372-1.399,2.716-2.823,4.035-4.272c1.333-1.436,2.64-2.896,3.917-4.379C704.844,76.353,705.122,75.903,705.251,75.375z"/>
				<path opacity="0.1091" fill="#FFFFFF" d="M704.917,76.601c-0.106-1.838-0.213-3.675-0.319-5.512
					c-0.447-3.74-1.271-7.395-2.477-10.966c-1.57-5.604-4.748-10.617-7.784-15.499c-3.126-5.03-7.55-9.146-11.832-13.145
					c-4.414-4.122-9.743-7.03-14.993-9.9c-5.391-2.948-11.46-4.422-17.371-5.846c-6.228-1.502-12.654-1.325-18.992-1.162
					c-18.436,0.475-36.869,1.527-55.288,2.403c-24.182,1.152-48.357,2.2-72.555,2.958c-17.632,0.552-35.257,0.484-52.895,0.303
					c-17.043-0.176-34.11-1.175-51.145-1.726c-36.175-1.171-72.377-1.42-108.567-1.556c-22.855-0.086-45.708,0.128-68.564-0.105
					c-17.942-0.184-35.85-0.123-53.771,0.837c-14.727,0.789-29.26,2.951-43.639,6.158c-6.946,1.55-13.638,3.928-20.306,6.358
					c-6.622,2.414-12.781,5.824-18.9,9.267c-6.223,3.502-11.701,8.106-17.124,12.695c-5.698,4.821-10.338,10.735-14.93,16.563
					c-4.993,6.333-8.665,13.61-12.33,20.741c-5.578,10.857-8.809,22.82-11.875,34.557c-2.685,10.286-3.921,20.926-5.247,31.444
					c-1.528,12.122-1.695,24.402-1.968,36.594c-0.21,9.485,0.233,19.022,0.479,28.506c0.199,7.67,0.321,15.344,0.444,23.016
					c0.563,35.277,0.615,70.563,0.784,105.842c1.805,377.747,3.345,755.497,4.614,1133.247
					c1.491,443.436,2.53,886.875,1.878,1330.313c-0.282,191.217-0.915,382.434-2.388,573.645
					c-0.602,78.324-1.383,156.648-2.447,234.967c-0.44,32.365-0.949,64.729-1.525,97.09c-0.263,14.772-0.554,29.544-0.855,44.316
					c0.093,1.529,0.187,3.061,0.279,4.59c0.397,2.832,1.282,5.5,2.655,8.007c2.27,5.173,7.611,8.342,12.327,10.842
					c3.854,2.043,8.354,2.727,12.58,3.505c4.14,0.762,8.521,0.624,12.706,0.57c6.635-0.086,13.236-1.264,19.809-2.064
					c7.114-0.867,19.679,0.71,23.285,0.9c19.641,1.037,39.28,2.03,58.929,2.917c45.876,2.071,91.791,3.239,137.703,4.106
					c78.737,1.488,157.505,0.918,236.231-0.848c39.363-0.883,78.709-2.365,118.044-4.047c8.879-0.38,17.807-0.527,26.649-1.514
					c2.445-0.353,4.813-0.995,7.104-1.927c2.443-1.024,4.61-2.465,6.503-4.322c0.831-1.088,1.662-2.177,2.494-3.265
					c1.494-2.421,2.614-5.006,3.36-7.753c0.26-1.406,0.521-2.813,0.78-4.222c0.363-2.827,0.553-5.666,0.564-8.518
					c0.152-4.315-0.29-8.753-0.525-13.055c-0.291-5.285-0.421-10.583-0.576-15.873c-0.793-27.164-0.522-54.37-0.575-81.545
					c-0.148-74.783,0.023-149.566,0.156-224.35c0.343-193.992,0.923-387.984,1.41-581.979
					c0.408-162.261,0.897-324.525,0.779-486.787c-0.015-20.642-0.163-41.281-0.255-61.922c-0.263-58.417,0.052-116.83,0.151-175.246
					c0.051-30-0.208-59.997-0.33-89.996c-0.104-25.681-0.03-51.364-0.064-77.046c-0.213-158.267-0.13-316.534-0.176-474.802
					c-0.016-56.888-0.113-113.778-0.204-170.665c-0.064-40.734-0.399-81.468-0.565-122.203
					c-0.296-72.59-0.355-145.183-0.345-217.773c0.047-296.584,1.977-593.166,1.15-889.752c-0.37,0.06-0.663,0.257-0.881,0.595
					c-0.865,0.945-1.702,1.916-2.512,2.908c-0.655,0.791-2.814,2.739-2.812,3.985c0.869,329.56-1.509,659.115-1.095,988.673
					c0.05,39.624,0.168,79.248,0.313,118.873c0.074,19.84,0.175,39.679,0.278,59.521c0.017,6.595,0.033,13.192,0.052,19.789
					c0.293,7.636,0.364,15.272,0.21,22.907c-0.137,8.248-0.169,16.499-0.184,24.747c-0.012,5.803,0.207,11.581,0.409,17.38
					c-0.018,4.216-0.033,8.435-0.046,12.65c-0.014,4.588-0.024,9.177-0.035,13.765c-0.19,79.626-0.131,159.253-0.132,238.879
					c0,91.532,0.017,183.066,0.13,274.598c0.045,35.836,0.111,71.672,0.256,107.508c0.058,13.694,0.492,27.424-0.202,41.105
					c0.016,1.993,0.029,3.985,0.045,5.977c0.021,3.688,0.054,7.373,0.097,11.059c0.063,6.155,0.162,12.308,0.353,18.46
					c0.103,3.29,0.028,6.516-0.083,9.803c0.026,6.359,0.055,12.72,0.081,19.081c0.034,12.465,0.043,24.932,0.026,37.398
					c-0.013,36.686-0.226,73.37-0.269,110.056c-0.028,23.252,0.044,46.505,0.051,69.756c0.003,5.043,0,10.086,0,15.13
					c-0.003,7.81,0.175,15.582,0.457,23.388c0.227,6.292-0.023,12.654-0.033,18.952c-0.013,6.829-0.023,13.658-0.035,20.487
					c-0.026,15.096-0.051,30.191-0.076,45.288c-0.066,38.476-0.143,76.949-0.224,115.425
					c-0.649,309.389-1.813,618.776-2.147,928.165c-0.063,58.764-0.088,117.526,0.053,176.29c0.028,11.753,0.072,23.506,0.129,35.259
					c0.061,4.288,0.042,8.576-0.058,12.864c-0.106,1.911-0.212,3.824-0.318,5.737c0.017,3.981,0.036,7.966,0.055,11.947
					c0.043,9.038,0.085,18.076,0.202,27.113c0.065,4.944,0.113,9.888,0.146,14.833c0.02,2.846-0.887,5.924-1.274,8.738
					c-0.368,2.05-1.005,4.013-1.913,5.888c-0.452,0.911-0.905,1.823-1.357,2.735c-1.119,1.828-2.557,3.356-4.316,4.584
					c-1.778,1.26-3.726,2.156-5.841,2.688c-3.252,1.148-6.763,1.343-10.165,1.561c-7.672,0.176-15.338,0.498-22.999,0.966
					c-19.644,0.88-39.295,1.559-58.945,2.237c-32.755,1.131-65.523,1.819-98.292,2.396c-65.544,1.151-131.105,0.856-196.648-0.219
					c-32.769-0.538-65.528-1.526-98.283-2.628c-19.648-0.66-39.292-1.528-58.934-2.396c-6.544-0.313-13.089-0.627-19.633-0.941
					c-13.442-0.89-26.9-1.367-40.372-1.431c0.111,0.014,0.221,0.027,0.332,0.041c-1.246-0.323-1.415-0.269-2.94-0.263
					c-2.518,0.012-5.027,0.137-7.538,0.302c-6.818,0.446-13.318-0.186-19.926-1.9c-3.149-0.817-5.891-2.395-8.641-4.063
					c-2.59-1.569-4.37-4.188-5.931-6.673c-1.931-3.072-2.357-6.742-2.959-10.226c-0.245-3.9-0.253-7.802-0.028-11.708
					c0.101-4.866,0.199-9.733,0.296-14.6c1.391-69.496,2.317-139,3.102-208.504c2.018-178.566,2.854-357.144,3.399-535.719
					c1.337-438.108,0.333-876.228-0.94-1314.333c-1.158-398.859-2.836-797.715-4.705-1196.569
					c-0.342-72.987-0.666-145.975-1.056-218.961c-0.082-15.302-0.173-30.605-0.288-45.906c-0.068-9.083,0.335-18.175,0.461-27.256
					c0.163-11.857,1.356-23.639,2.671-35.41c1.136-10.161,3.45-20.105,5.868-30.017c2.104-8.623,5.438-16.837,8.861-24.996
					c3.034-7.234,7.29-13.831,11.59-20.349c5.196-7.879,12.09-14.422,19.145-20.587c10.109-8.837,22.637-14.523,35.061-19.217
					c13.032-4.925,27.063-7.107,40.801-8.918c14.763-1.946,29.753-2.238,44.62-2.483c18.122-0.298,36.248,0.282,54.372,0.138
					c15.005-0.121,30.029,0.06,45.036,0.082c18.395,0.028,36.788,0.258,55.18,0.499c34.812,0.454,69.592,1.835,104.39,2.806
					c17.559,0.49,35.151,0.06,52.709-0.255c17.889-0.321,35.775-1.075,53.653-1.725c17.937-0.652,35.868-1.276,53.811-1.747
					c7.778-0.373,15.553-0.388,23.324-0.046c3.7,0.316,7.347,0.945,10.938,1.888c5.296,1.153,10.2,3.727,14.944,6.224
					c6.313,3.323,11.456,8.391,16.227,13.578c4.823,5.244,7.941,11.715,10.672,18.201c2.723,6.465,3.21,13.593,3.315,20.497
					c0.368-0.018,0.676-0.183,0.922-0.493c0.939-0.84,1.854-1.707,2.742-2.601C702.332,79.687,704.979,77.677,704.917,76.601z"/>
				<path opacity="0.1091" fill="#FFFFFF" d="M707.639,73.795c-0.475-6.864-0.153-4.296-1.386-10.966
					c-0.73-3.952-2.354-7.519-3.828-11.217c-2.212-5.547-5.974-10.378-9.577-15.053c-3.729-4.842-8.611-8.614-13.393-12.324
					c-4.907-3.808-10.708-6.277-16.368-8.681c-5.887-2.499-12.248-3.413-18.515-4.316c-2.171-0.109-4.341-0.218-6.513-0.329
					c-8.41,0.278-16.818,0.623-25.223,1.035c-24.477,1.058-48.938,2.45-73.411,3.597c-17.966,0.842-35.935,1.332-53.915,1.719
					c-17.444,0.376-34.866-0.036-52.3-0.567c-17.131-0.522-34.253-1.21-51.387-1.661c-18.022-0.473-36.053-0.663-54.08-0.871
					c-30.007-0.346-60.013-0.055-90.022-0.148c-18.071-0.055-36.12-0.396-54.19,0.015c-15.008,0.343-29.911,1.734-44.74,4.023
					c-14.259,2.202-27.944,6.543-41.176,12.197c-6.567,2.807-12.573,6.67-18.529,10.555c-6.148,4.011-11.425,9.153-16.643,14.255
					c-5.555,5.43-9.925,11.928-14.258,18.316c-6.454,9.516-10.642,20.414-14.592,31.123c-3.408,9.238-5.322,18.993-7.31,28.6
					c-2.275,10.99-3.119,22.259-4.06,33.417c-1.728,20.493-0.514,41.097,0.027,61.611c0.917,34.729,0.896,69.492,1.076,104.23
					c0.871,167.641,1.464,335.284,2.174,502.927c0.877,206.986,1.701,413.972,2.411,620.958
					c1.52,443.845,2.582,887.694,1.99,1331.542c-0.256,192.75-0.851,385.501-2.264,578.245
					c-0.582,79.429-1.336,158.856-2.361,238.281c-0.425,32.975-0.919,65.947-1.476,98.92c-0.254,15.098-0.537,30.195-0.829,45.292
					c-0.125,6.384-0.411,12.71,0.031,19.08c0.321,4.618,2.89,8.319,5.409,11.95c2.56,3.688,7.119,5.885,10.965,7.828
					c4.158,2.102,8.974,2.712,13.504,3.405c6.858,1.052,14.082,0.282,20.913-0.479c5.224-0.581,10.429-1.962,15.697-2.04
					c6.554,0.359,13.107,0.719,19.663,1.079c13.086,0.728,26.177,1.399,39.271,2.017c26.201,1.289,52.419,2.199,78.636,3.071
					c78.716,2.617,157.493,3.08,236.243,2.371c39.382-0.354,78.757-1.313,118.124-2.472c19.682-0.58,39.356-1.359,59.032-2.141
					c13.114-0.542,26.227-1.128,39.337-1.76c2.352-0.098,4.692-0.311,7.023-0.639c3.914-0.454,7.225-2.004,10.636-3.842
					c1.264-0.682,2.52-1.634,3.391-2.762c0.889-1.152,1.777-2.305,2.667-3.456c1.603-2.583,2.793-5.344,3.571-8.284
					c0.279-1.5,0.559-3,0.84-4.501c0.379-3.032,0.54-6.077,0.484-9.134c0.075-4.426-0.523-8.996-0.847-13.402
					c-0.394-5.342-0.594-10.691-0.806-16.043c-0.536-13.564-0.683-27.164-0.643-40.736c0.086-29.103-0.203-58.212-0.207-87.315
					c-0.005-39.09,0.048-78.183,0.104-117.272c0.527-362.305,2.297-724.607,2.288-1086.912
					c-0.001-62.704-0.518-125.405-0.392-188.107c0.104-52.68,0.696-105.372,0.077-158.05c-0.27-22.967-0.117-45.938-0.154-68.906
					c-0.262-158.613-0.152-317.229-0.194-475.843c-0.018-63.651,0.297-127.315-0.196-190.965
					c-0.241-30.957-0.278-61.919-0.436-92.878c-0.406-79.22-0.509-158.443-0.517-237.664c-0.033-303.177,2.004-606.35,1.153-909.527
					c-0.002-0.864-1.319,0.792-1.254,0.715c-0.56,0.656-1.098,1.329-1.615,2.02c-0.314,0.34-0.547,0.728-0.696,1.161
					c0.903,329.557-1.484,659.11-1.103,988.667c0.046,39.622,0.159,79.243,0.304,118.864c0.071,19.84,0.173,39.678,0.273,59.517
					c0.072,14.233,0.347,28.488,0.278,42.719c-0.109,22.851,0.165,45.695,0.159,68.544c-0.021,79.655,0.007,159.311,0.016,238.964
					c0.011,91.525,0.023,183.049,0.091,274.575c0.026,35.815,0.068,71.63,0.15,107.444c0.03,13.722,0.354,27.472-0.062,41.187
					c-0.17,5.647,0.047,11.346,0.079,16.997c0.033,6.122,0.057,12.244,0.193,18.366c0.073,3.292,0.047,6.567,0.005,9.859
					c0.031,6.363,0.062,12.728,0.093,19.09c0.041,12.47,0.054,24.938,0.038,37.407c-0.003,36.679-0.235,73.356-0.298,110.034
					c-0.038,23.27,0.072,46.54,0.146,69.81c0.042,12.812,0.042,25.615,0.282,38.424c0.248,13.149,0.006,26.327,0.003,39.479
					c-0.003,15.106-0.014,30.211-0.024,45.317c-0.029,38.489-0.089,76.977-0.152,115.466c-0.32,189.671-0.883,379.342-1.37,569.011
					c-0.444,173.399-1.042,346.802-0.843,520.202c0.017,14.566,0.057,29.131,0.123,43.696c0.058,12.508-0.026,25.011,0.14,37.515
					c0.144,10.846,0.514,21.681,1.012,32.514c0.276,6.048,0.975,11.925,0.932,18.002c-0.028,2.724-0.272,5.427-0.735,8.112
					c-0.428,2.676-1.247,5.225-2.458,7.648c-0.683,1.15-1.364,2.301-2.046,3.449c-3.268,4.152-7.336,6.754-12.205,7.807
					c-3.323,1.019-7.012,1.038-10.447,1.237c-19.638,1.14-39.323,1.743-58.978,2.517c-19.664,0.771-39.335,1.342-59.006,1.914
					c-85.247,2.473-170.547,2.637-255.813,1.327c-39.339-0.604-78.664-1.829-117.98-3.274c-19.642-0.722-39.275-1.67-58.906-2.619
					c-6.542-0.341-13.083-0.682-19.623-1.021c-7.073-1.008-14.144-1.304-21.214-0.889c-2.274,0.117-4.584,0.596-6.832,0.92
					c-3.297,0.479-6.575,0.94-9.887,1.303c-5.355,0.587-10.663,0.436-16.036-0.011c-5.845-0.486-11.063-2.638-16.167-5.359
					c-1.107-0.859-2.216-1.719-3.323-2.577c-4.436-4.01-6.998-8.81-7.686-14.4c-0.108-1.55-0.214-3.101-0.322-4.65
					c0.098-4.818,0.193-9.637,0.288-14.453c0.298-15.1,0.565-30.198,0.825-45.296c0.616-35.885,1.12-71.769,1.581-107.654
					c2.213-172.042,3.129-344.1,3.777-516.153c0.789-209.439,0.938-418.884,0.848-628.325
					c-0.189-442.822-1.624-885.644-3.366-1328.462c-0.637-161.83-1.33-323.659-2.026-485.489
					c-0.299-69.216-0.595-138.433-0.89-207.649c-0.265-61.94-0.281-123.888-1.135-185.823c-0.174-12.678-0.497-25.351-0.887-38.023
					c-0.627-20.397,0.738-40.684,3.332-60.899c1.006-6.844,2.312-13.632,3.916-20.362c1.972-9.142,5.212-17.9,8.544-26.606
					c2.99-7.812,7.273-14.994,11.608-22.102c3.989-6.538,9.189-12.202,14.373-17.781C73.795,47.361,84.1,40.938,94.5,35.299
					c10.306-5.587,21.794-8.842,33.084-11.712c11.784-2.995,24.006-4.238,36.081-5.341c15.164-1.387,30.468-1.377,45.681-1.387
					c12.979-0.008,25.956,0.252,38.935,0.264c27.377,0.026,54.752-0.037,82.13,0.177c29.548,0.232,59.086,0.948,88.619,1.894
					c17.15,0.549,34.257,1.125,51.417,1.282c17.769,0.162,35.552-0.511,53.308-1.071c30.441-0.959,60.862-2.685,91.294-3.942
					c6.084-0.183,12.17-0.366,18.255-0.548c4.206-0.171,8.396,0.018,12.568,0.566c6.052,0.537,11.861,2.702,17.49,4.807
					c9.233,3.455,16.93,9.887,23.813,16.731c4.079,4.055,7.032,9.08,9.896,14.003c0.81,1.716,1.62,3.434,2.43,5.151
					c2.882,6.781,4.327,13.782,4.334,21.004c0.04,0.789,1.233-0.501,1.286-0.551c0.6-0.575,1.181-1.168,1.742-1.779
					C707.2,74.549,707.459,74.199,707.639,73.795z"/>
				<path opacity="0.1091" fill="#FFFFFF" d="M705.268,74.307c-0.104-1.86-0.208-3.721-0.312-5.581
					c-0.431-3.782-1.257-7.475-2.48-11.08c-1.58-5.64-4.776-10.683-7.832-15.596c-3.144-5.053-7.599-9.186-11.913-13.194
					c-4.446-4.133-9.806-7.031-15.093-9.898c-5.413-2.936-11.521-4.375-17.455-5.761c-6.247-1.458-12.667-1.23-19.013-1.019
					c-18.427,0.617-36.844,1.614-55.258,2.509c-24.167,1.177-48.329,2.222-72.511,2.98c-17.631,0.554-35.253,0.479-52.887,0.292
					c-17.044-0.181-34.114-1.189-51.149-1.741c-36.175-1.173-72.379-1.418-108.57-1.55c-22.854-0.084-45.706,0.131-68.561-0.105
					c-17.94-0.186-35.845-0.118-53.764,0.859c-14.713,0.802-29.229,2.988-43.588,6.231c-6.928,1.564-13.598,3.964-20.246,6.414
					c-6.591,2.43-12.717,5.862-18.8,9.323c-6.18,3.517-11.611,8.132-16.987,12.729c-5.642,4.828-10.229,10.734-14.767,16.553
					c-4.933,6.322-8.558,13.57-12.176,20.673c-5.51,10.818-8.702,22.72-11.735,34.4c-2.659,10.244-3.885,20.839-5.201,31.313
					c-1.517,12.081-1.688,24.317-1.96,36.47c-0.212,9.439,0.223,18.933,0.454,28.373c0.187,7.655,0.309,15.313,0.426,22.969
					c0.541,35.263,0.597,70.534,0.765,105.799c1.801,377.751,3.351,755.504,4.62,1133.256c1.49,443.438,2.529,886.878,1.88,1330.32
					c-0.28,191.215-0.914,382.432-2.386,573.644c-0.604,78.322-1.384,156.645-2.451,234.963c-0.44,32.362-0.95,64.725-1.527,97.085
					c-0.263,14.772-0.554,29.544-0.855,44.314c0.093,1.526,0.184,3.055,0.277,4.583c0.389,2.806,1.261,5.45,2.616,7.937
					c2.206,5.049,7.384,8.175,11.971,10.651c3.73,2.018,8.101,2.735,12.199,3.54c4.054,0.796,8.343,0.721,12.453,0.724
					c6.577,0.006,13.136-1.111,19.657-1.851c7.083-0.803,20.391,0.763,23.271,0.912c19.646,1.016,39.288,2.015,58.939,2.901
					c45.876,2.066,91.791,3.238,137.703,4.11c78.734,1.496,157.5,0.936,236.225-0.819c39.363-0.877,78.707-2.355,118.042-4.033
					c8.874-0.378,17.812-0.533,26.657-1.493c2.441-0.345,4.808-0.971,7.102-1.878c2.441-0.997,4.619-2.403,6.531-4.221
					c0.842-1.053,1.682-2.105,2.522-3.157c1.536-2.385,2.698-4.938,3.489-7.665c0.283-1.387,0.567-2.773,0.851-4.162
					c0.41-2.838,0.637-5.689,0.679-8.558c0.205-4.347-0.218-8.825-0.421-13.16c-0.249-5.293-0.361-10.597-0.495-15.893
					c-0.687-27.223-0.469-54.476-0.514-81.704c-0.122-74.771,0.044-149.545,0.179-224.317
					c0.352-193.989,0.929-387.977,1.417-581.966c0.408-162.282,0.903-324.566,0.752-486.849c-0.02-20.629-0.138-41.257-0.237-61.885
					c-0.281-58.422,0.043-116.843,0.142-175.264c0.051-29.991-0.212-59.979-0.315-89.97c-0.089-25.688-0.046-51.379-0.075-77.068
					c-0.186-158.26-0.113-316.52-0.166-474.78c-0.02-56.888-0.087-113.776-0.203-170.664c-0.085-40.747-0.417-81.493-0.583-122.24
					c-0.296-72.591-0.357-145.182-0.346-217.772c0.045-296.584,1.976-593.166,1.149-889.752c-0.462,0.196-0.82,0.524-1.076,0.985
					c-1.101,1.421-2.172,2.864-3.214,4.33c-1.06,1.452-2.088,2.926-3.086,4.421c-0.355,0.389-0.554,0.833-0.594,1.334
					c0.862,329.56-1.513,659.116-1.092,988.675c0.05,39.626,0.169,79.251,0.315,118.875c0.073,19.84,0.175,39.679,0.278,59.519
					c0.016,6.6,0.03,13.199,0.046,19.798c0.298,7.629,0.368,15.258,0.212,22.888c-0.139,8.274-0.176,16.55-0.188,24.824
					c-0.008,5.769,0.211,11.51,0.414,17.275c-0.02,4.223-0.034,8.445-0.047,12.67c-0.016,4.592-0.026,9.186-0.037,13.779
					c-0.194,79.651-0.133,159.302-0.135,238.952c-0.001,91.526,0.016,183.055,0.13,274.582c0.045,35.82,0.112,71.64,0.261,107.46
					c0.057,13.722,0.467,27.469-0.203,41.18c0.014,1.989,0.028,3.978,0.043,5.968c0.021,3.68,0.055,7.359,0.098,11.039
					c0.063,6.13,0.175,12.258,0.358,18.385c0.1,3.297,0.021,6.533-0.09,9.828c0.026,6.361,0.053,12.722,0.08,19.083
					c0.033,12.467,0.042,24.935,0.025,37.401c-0.013,36.688-0.225,73.374-0.263,110.061c-0.025,23.268,0.044,46.534,0.05,69.801
					c0,5.048-0.003,10.096-0.006,15.144c-0.004,7.773,0.179,15.509,0.462,23.278c0.231,6.297-0.023,12.667-0.034,18.969
					c-0.013,6.834-0.025,13.668-0.036,20.502c-0.026,15.103-0.051,30.206-0.077,45.31c-0.068,38.486-0.146,76.972-0.228,115.456
					c-0.399,189.667-0.958,379.334-1.437,569c-0.436,173.406-0.986,346.813-0.69,520.22c0.024,14.554,0.067,29.108,0.124,43.661
					c0.025,6.525,0.066,13.039-0.045,19.563c-0.108,1.945-0.215,3.893-0.323,5.839c0.013,3.966,0.025,7.931,0.038,11.898
					c0.034,10.56,0.068,21.118,0.164,31.679c0.036,4.021,0.176,8.016-0.365,12.002c-0.421,1.83-0.711,3.68-0.875,5.551
					c-0.319,1.901-0.906,3.716-1.762,5.443c-0.4,0.86-0.8,1.722-1.2,2.582c-1.016,1.732-2.354,3.163-4.015,4.295
					c-2.431,2.089-6.013,2.689-9,3.428c-3.276,0.809-6.852,0.715-10.198,0.805c-6.545,0.293-13.091,0.586-19.636,0.878
					c-13.094,0.562-26.188,1.08-39.285,1.555c-85.141,3.224-170.357,4.133-255.55,3.593c-78.655-0.498-157.29-2.976-235.85-6.757
					c-6.557-0.324-13.115-0.647-19.671-0.974c-7.213,1.145-14.252,0.901-21.117-0.727c-1.127-0.257-3.107-0.005-4.222,0.01
					c-2.794,0.04-5.581,0.192-8.374,0.273c-4.37,0.124-8.588-0.521-12.861-1.359c-3.127-0.612-6.001-1.909-8.818-3.33
					c-2.641-1.332-4.534-3.297-6.53-5.418c-2.119-2.253-2.989-5.754-3.755-8.613c-1.345-5.021-0.796-10.598-0.689-15.688
					c0.701-33.524,1.267-67.054,1.784-100.581c2.548-164.979,3.59-329.98,4.368-494.977c0.968-205.554,1.166-411.109,1.145-616.665
					c-0.044-444.273-1.405-888.545-3.061-1332.814c-1.171-314.548-2.894-629.094-4.111-943.641
					c-0.126-32.363-0.607-64.73,1.986-97.017c0.703-7.254,1.697-14.467,2.979-21.641c1.516-9.55,4.237-18.813,7.058-28.035
					c2.461-8.046,6.154-15.598,9.921-23.083c3.365-6.688,7.912-12.654,12.475-18.539c6.965-8.979,16.15-15.907,25.57-22.066
					c11.179-7.308,24.222-11.492,36.994-14.951c13.707-3.714,28.046-5.064,42.151-6.186c15.088-1.2,30.287-1.144,45.411-1.127
					c13.006,0.014,26.007,0.284,39.014,0.175c2.55,0.036,5.101,0.07,7.65,0.105c12.45-0.043,24.9-0.042,37.35,0.001
					c18.39,0.032,36.777,0.267,55.165,0.511c29.058,0.385,58.103,1.297,87.145,2.324c35.189,1.246,70.362,0.375,105.543-0.693
					c29.61-0.899,59.191-1.989,88.816-2.239c5.534-0.047,10.729,0.98,16.088,2.208c5.111,1.172,9.851,3.74,14.407,6.217
					c4.564,2.482,8.374,6.014,12.152,9.513c3.787,3.506,6.604,7.971,9.324,12.295c2.789,4.435,4.364,9.393,5.865,14.357
					c1.526,5.053,1.576,10.375,1.617,15.59c0.471-0.161,0.849-0.461,1.134-0.9c1.185-1.33,2.342-2.684,3.472-4.061
					c1.145-1.365,2.262-2.752,3.35-4.162C704.972,75.226,705.197,74.8,705.268,74.307z"/>
				<path opacity="0.1091" fill="#FFFFFF" d="M705.321,77.774c-0.119-1.822-0.239-3.645-0.358-5.466
					c-0.488-3.715-1.326-7.35-2.512-10.906c-1.568-5.592-4.739-10.605-7.763-15.482c-3.116-5.026-7.533-9.141-11.805-13.139
					c-4.401-4.118-9.715-7.027-14.951-9.898c-5.379-2.949-11.434-4.429-17.333-5.859c-6.213-1.507-12.63-1.337-18.955-1.179
					c-18.42,0.461-36.842,1.528-55.245,2.411c-30.016,1.441-60.007,2.71-90.056,3.326c-34.576,0.71-69.147-1.319-103.701-2.237
					c-36.575-0.97-73.172-1.095-109.757-1.102c-19.224-0.004-38.437-0.001-57.66-0.173c-17.858-0.159-35.67,0.14-53.485,1.434
					c-7.47,0.542-14.876,1.61-22.274,2.731c-14.172,2.149-27.786,6.398-40.957,11.954c-6.505,2.744-12.464,6.529-18.375,10.334
					c-6.079,3.913-11.31,8.94-16.483,13.93c-5.505,5.309-9.854,11.678-14.165,17.937c-6.436,9.344-10.637,20.068-14.601,30.611
					c-3.43,9.125-5.38,18.772-7.402,28.273c-2.321,10.903-3.212,22.092-4.198,33.169c-1.813,20.345-0.776,40.864-0.314,61.247
					c0.789,34.731,0.788,69.486,0.963,104.223c1.901,374.638,3.325,749.282,4.605,1123.923
					c1.517,443.848,2.581,887.701,2.001,1331.551c-0.251,192.749-0.846,385.497-2.264,578.24
					c-0.585,79.423-1.341,158.844-2.371,238.262c-0.426,32.971-0.923,65.938-1.482,98.907c-0.256,15.094-0.538,30.188-0.833,45.282
					c-0.125,6.364-0.399,12.685-0.014,19.04c0.396,2.847,1.281,5.531,2.656,8.053c1.345,2.46,3.085,4.599,5.22,6.414
					c3.025,3.092,7.399,4.631,11.31,6.159c4.051,1.585,8.707,1.907,12.984,2.305c7.667,0.713,15.43-0.346,23.015-1.359
					c2.435-0.325,4.851-0.657,7.297-0.869c0.476,0.007,0.951,0.014,1.426,0.021c13.157,0.718,26.314,1.435,39.472,2.147
					c45.849,2.489,91.752,3.962,137.649,5.156c78.724,2.051,157.494,1.999,236.229,0.766c39.369-0.615,78.726-1.838,118.073-3.257
					c19.673-0.708,39.336-1.62,58.999-2.531c2.342-0.086,4.671-0.292,6.991-0.618c2.447-0.359,4.813-1.014,7.098-1.963
					c1.121-0.61,2.242-1.22,3.362-1.832c2.336-1.524,4.204-3.496,5.604-5.912c2.576-3.448,3.318-8.031,3.999-12.125
					c0.683-4.1,0.477-8.397,0.359-12.526c-0.133-4.761-0.495-9.52-0.691-14.278c-1.075-25.923-0.819-51.886-0.902-77.824
					c-0.232-72.666-0.036-145.338,0.084-218.004c0.594-358.613,2.367-717.229,2.238-1075.843
					c-0.007-21.976-0.15-43.946-0.229-65.922c-0.173-49.345-0.146-98.686,0.03-148.03c0.139-38.793,0.059-77.584-0.203-116.377
					c-0.177-26.381-0.056-52.766-0.096-79.148c-0.242-157.669-0.147-315.338-0.186-473.007c-0.015-58.578-0.133-117.157-0.2-175.734
					c-0.04-35.786-0.324-71.571-0.489-107.357c-0.362-79.201-0.437-158.403-0.425-237.606c0.046-296.584,1.977-593.166,1.15-889.75
					c-0.343,0.004-0.628,0.154-0.855,0.447c-0.851,0.78-1.676,1.587-2.476,2.419c-0.6,0.613-2.796,2.304-2.794,3.395
					c0.869,329.558-1.508,659.113-1.093,988.671c0.048,39.624,0.166,79.248,0.313,118.871c0.073,19.841,0.175,39.681,0.278,59.521
					c0.017,6.594,0.034,13.187,0.051,19.78c0.288,7.64,0.359,15.28,0.209,22.921c-0.13,8.232-0.159,16.466-0.174,24.699
					c-0.012,5.823,0.202,11.624,0.397,17.444c-0.017,4.213-0.032,8.426-0.043,12.641c-0.015,4.584-0.025,9.169-0.035,13.754
					c-0.181,79.612-0.12,159.225-0.122,238.835c0,91.536,0.019,183.073,0.128,274.607c0.043,35.847,0.107,71.693,0.249,107.538
					c0.054,13.681,0.481,27.394-0.191,41.061c0.015,1.993,0.028,3.987,0.042,5.98c0.021,3.691,0.053,7.382,0.094,11.071
					c0.063,6.172,0.157,12.341,0.344,18.51c0.1,3.283,0.027,6.501-0.08,9.78c0.027,6.36,0.055,12.722,0.081,19.08
					c0.035,12.466,0.045,24.932,0.028,37.396c-0.013,36.687-0.226,73.37-0.269,110.055c-0.028,23.243,0.045,46.486,0.058,69.729
					c0.006,12.87-0.004,25.712,0.444,38.576c0.219,6.291-0.022,12.646-0.033,18.941c-0.01,6.826-0.021,13.651-0.031,20.478
					c-0.025,15.092-0.049,30.184-0.074,45.274c-0.063,38.469-0.14,76.937-0.219,115.405c-0.641,309.388-1.808,618.775-2.146,928.162
					c-0.064,58.776-0.09,117.554,0.042,176.328c0.026,11.762,0.066,23.524,0.119,35.285c0.058,4.288,0.038,8.576-0.062,12.863
					c-0.101,1.895-0.203,3.789-0.306,5.683c0.013,3.989,0.027,7.978,0.043,11.968c0.034,9.072,0.057,18.143,0.117,27.213
					c0.033,4.988,0.028,9.975,0.005,14.963c-0.014,2.846-0.934,5.902-1.353,8.711c-0.395,2.053-1.059,4.012-1.994,5.88
					c-0.464,0.906-0.927,1.813-1.39,2.721c-1.141,1.817-2.597,3.335-4.369,4.549c-1.781,1.251-3.727,2.14-5.839,2.667
					c-3.256,1.138-6.758,1.337-10.161,1.55c-7.669,0.166-15.333,0.486-22.991,0.961c-19.642,0.879-39.293,1.558-58.943,2.235
					c-32.755,1.129-65.523,1.816-98.292,2.392c-65.542,1.149-131.103,0.853-196.643-0.226c-32.768-0.538-65.525-1.526-98.277-2.626
					c-19.649-0.66-39.29-1.524-58.93-2.392c-6.544-0.313-13.088-0.625-19.631-0.938c-13.444-0.893-26.903-1.364-40.375-1.414
					c0.119,0.027,0.239,0.056,0.358,0.083c-1.288-0.368-1.35-0.331-2.951-0.327c-2.506,0.009-4.999,0.13-7.499,0.3
					c-6.774,0.452-13.261-0.146-19.837-1.806c-3.149-0.794-5.891-2.331-8.651-3.971c-2.602-1.548-4.392-4.151-5.967-6.626
					c-1.944-3.058-2.375-6.73-2.981-10.206c-0.245-3.897-0.254-7.796-0.029-11.697c0.101-4.868,0.199-9.735,0.296-14.604
					c1.39-69.505,2.314-139.02,3.1-208.532c2.015-178.574,2.852-357.162,3.396-535.746c1.337-438.105,0.336-876.22-0.937-1314.325
					c-1.158-398.854-2.837-797.706-4.702-1196.557c-0.342-72.976-0.648-145.951-1.068-218.925
					c-0.089-15.289-0.194-30.579-0.339-45.868c-0.087-9.098,0.293-18.204,0.406-27.3c0.146-11.848,1.311-23.624,2.598-35.387
					c1.11-10.155,3.39-20.097,5.771-30.009c2.073-8.626,5.369-16.849,8.751-25.018c3.004-7.25,7.224-13.869,11.488-20.412
					c5.161-7.918,12.026-14.505,19.056-20.717c10.085-8.911,22.612-14.663,35.044-19.414c6.411-2.45,13.157-3.99,19.819-5.567
					c16.504-3.909,33.367-4.866,50.188-5.622c15.342-0.689,30.734-0.425,46.084-0.288c29.019,0.259,58.041,0.087,87.062,0.23
					c35.677,0.176,71.342,0.975,107,2.118c17.162,0.551,34.285,1.089,51.458,1.25c17.8,0.166,35.617-0.446,53.407-0.938
					c35.841-0.993,71.64-2.839,107.495-3.416c5.789-0.094,11.195,0.819,16.826,2.026c7.15,1.534,13.612,5.282,19.698,9.147
					c7.592,4.821,13.253,12.112,18.045,19.55c2.902,4.508,4.561,9.617,6.144,14.681c1.559,4.989,1.733,10.259,1.856,15.425
					c0.007,0.242,3.671-2.501,3.581-2.428C702.691,80.401,705.383,78.71,705.321,77.774z"/>
				<path opacity="0.1091" fill="#FFFFFF" d="M706.11,72.584c-0.459-6.793-0.166-4.419-1.369-11.015
					c-0.722-3.959-2.337-7.517-3.812-11.221c-2.199-5.529-5.946-10.343-9.532-15.005c-3.708-4.822-8.57-8.579-13.329-12.271
					c-4.877-3.783-10.638-6.234-16.265-8.62c-5.842-2.478-12.159-3.375-18.379-4.258c-2.151-0.105-4.302-0.21-6.453-0.315
					c-8.382,0.302-16.76,0.653-25.138,1.055c-24.502,1.066-48.99,2.444-73.489,3.586c-17.957,0.837-35.916,1.319-53.888,1.701
					c-17.443,0.37-34.867-0.048-52.301-0.584c-17.134-0.527-34.258-1.215-51.396-1.667c-18.022-0.476-36.053-0.665-54.081-0.874
					c-30.005-0.346-60.009-0.07-90.014-0.146c-18.069-0.047-36.117-0.398-54.186,0.018c-14.993,0.345-29.877,1.743-44.688,4.042
					c-14.216,2.208-27.854,6.554-41.035,12.215c-6.523,2.801-12.486,6.653-18.4,10.522c-6.088,3.983-11.316,9.083-16.489,14.144
					c-5.504,5.386-9.848,11.827-14.154,18.157c-6.428,9.452-10.623,20.274-14.583,30.911c-3.424,9.2-5.365,18.919-7.377,28.493
					c-2.307,10.97-3.179,22.223-4.148,33.367c-1.547,17.808-0.898,35.762-0.36,53.604c1.041,34.498,0.98,69.042,1.167,103.552
					c0.905,166.656,1.477,333.314,2.187,499.97c0.879,206.413,1.701,412.826,2.411,619.239
					c1.528,444.028,2.612,888.059,2.06,1332.091c-0.241,193.495-0.822,386.991-2.205,580.483
					c-0.572,79.958-1.318,159.917-2.331,239.871c-0.421,33.266-0.909,66.529-1.461,99.792c-0.253,15.252-0.53,30.503-0.821,45.755
					c-0.139,7.264-0.287,14.526-0.435,21.79c-0.065,3.039,0.36,6.008,1.274,8.905c0.434,1.427,1.024,2.797,1.772,4.107
					c1.795,4.104,5.704,6.911,9.113,9.521c1.376,0.727,2.751,1.453,4.127,2.18c2.865,1.332,5.852,2.285,8.959,2.861
					c7.016,1.759,14.703,1.281,21.82,0.751c6.039-0.45,11.983-1.768,17.995-2.452c0.5-0.009,1-0.019,1.499-0.028
					c13.096,0.748,26.195,1.464,39.295,2.147c26.19,1.396,52.399,2.414,78.607,3.384c78.699,2.915,157.472,3.64,236.218,3.197
					c39.383-0.222,78.76-1.049,118.13-2.075c19.684-0.512,39.361-1.228,59.039-1.94c20.818-0.754,41.705-1.384,62.49-2.776
					c3.774-0.252,7.158-1.188,10.713-2.408c1.841-0.631,5.651-3.166,6.791-4.674c3.295-4.36,2.063-2.395,4.632-7.433
					c2.063-4.049,2.25-8.921,2.595-13.335c0.324-4.148-0.144-8.426-0.451-12.561c-0.395-5.3-0.76-10.586-1.003-15.894
					c-0.612-13.307-0.718-26.639-0.853-39.956c-0.29-28.447-0.174-56.906-0.182-85.355c-0.013-38.539,0.037-77.078,0.092-115.615
					c0.503-363.011,2.266-726.02,2.3-1089.029c0.006-59.109-0.438-118.216-0.428-177.324c0.006-30.527,0.191-61.057,0.281-91.585
					c0.079-27.065-0.12-54.129-0.126-81.194c-0.004-21.764-0.148-43.529-0.186-65.295c-0.27-157.555-0.158-315.112-0.201-472.667
					c-0.01-35.699-0.023-71.399-0.043-107.099c-0.016-29.545,0.102-59.096-0.114-88.64c-0.191-26.247-0.235-52.498-0.378-78.746
					c-0.428-79.243-0.581-158.488-0.616-237.732c-0.133-309.77,2.022-619.536,1.151-929.306c-0.002-1.002-1.517,1.343-1.365,1.124
					c-0.613,0.894-1.205,1.802-1.773,2.724c-0.342,0.464-0.598,0.969-0.767,1.515c0.902,329.558-1.485,659.113-1.104,988.671
					c0.047,39.623,0.161,79.246,0.305,118.867c0.072,19.839,0.173,39.679,0.275,59.519c0.073,14.223,0.362,28.481,0.276,42.704
					c-0.138,22.853,0.169,45.696,0.158,68.549c-0.041,79.673-0.01,159.347-0.001,239.019c0.01,91.521,0.021,183.042,0.095,274.563
					c0.028,35.803,0.072,71.605,0.161,107.41c0.034,13.74,0.369,27.509-0.077,41.242c-0.185,5.639,0.049,11.336,0.084,16.978
					c0.037,6.104,0.063,12.207,0.216,18.31c0.083,3.302,0.047,6.576-0.007,9.877c0.03,6.363,0.061,12.726,0.093,19.089
					c0.04,12.469,0.053,24.938,0.037,37.408c-0.003,36.682-0.235,73.361-0.296,110.043c-0.039,23.28,0.067,46.563,0.136,69.844
					c0.036,12.786,0.026,25.563,0.302,38.346c0.285,13.153,0,26.347-0.004,39.503c-0.006,15.111-0.019,30.222-0.031,45.333
					c-0.034,38.496-0.094,76.994-0.16,115.49c-0.328,189.678-0.892,379.355-1.377,569.033
					c-0.444,173.378-1.044,346.762-0.826,520.144c0.019,14.55,0.062,29.101,0.131,43.651c0.059,12.5-0.054,24.994,0.116,37.491
					c0.146,10.712,0.532,21.411,1.078,32.107c0.232,4.557,0.895,9.098,1.184,13.655c0.331,5.225-0.029,10.284-1.034,15.408
					c-2.721,13.887-14.797,15.911-25.735,16.586c-19.63,1.211-39.328,1.748-58.979,2.521c-19.664,0.773-39.336,1.348-59.007,1.921
					c-85.248,2.484-170.553,2.656-255.821,1.351c-39.342-0.602-78.673-1.824-117.991-3.274c-19.646-0.724-39.284-1.673-58.918-2.63
					c-6.546-0.342-13.09-0.684-19.634-1.025c-7.068-1.031-14.139-1.346-21.208-0.944c-2.273,0.114-4.583,0.594-6.829,0.919
					c-3.332,0.48-6.643,0.955-9.988,1.326c-5.467,0.605-10.871,0.391-16.351-0.116c-6.071-0.563-11.353-3.081-16.499-6.136
					c-1.081-0.969-2.162-1.938-3.244-2.906c-4.954-5.756-7.326-12.162-7.117-19.223c0.048-2.393,0.097-4.785,0.146-7.178
					c0.098-4.867,0.194-9.734,0.288-14.602c0.296-15.242,0.561-30.486,0.818-45.73c0.611-36.184,1.111-72.366,1.569-108.551
					c2.187-172.957,3.095-345.931,3.726-518.898c0.765-209.976,0.887-419.952,0.781-629.93
					c-0.226-442.532-1.672-885.065-3.409-1327.594c-0.633-161.204-1.332-322.408-2.036-483.61
					c-0.302-68.804-0.602-137.606-0.902-206.409c-0.257-58.947-0.364-117.898-1.018-176.841c-0.14-12.616-0.468-25.229-0.546-37.844
					c-0.202-12.844,0.22-25.663,1.268-38.456c0.735-11.088,2.662-22.018,4.695-32.923c1.343-6.456,3-12.83,4.968-19.122
					c2.457-8.566,6.215-16.64,10.049-24.647c3.443-7.191,8.146-13.648,12.871-20.021c4.368-5.892,9.841-10.84,15.265-15.713
					c8.634-7.755,19.14-13.153,29.614-17.908c10.63-4.825,22.198-7.464,33.573-9.801c11.96-2.458,24.24-3.356,36.398-4.158
					c15.264-1.006,30.615-0.848,45.901-0.761c43.841,0.247,87.684,0.115,131.524,0.656c29.058,0.358,58.102,1.244,87.141,2.299
					c35.297,1.282,70.565,0.281,105.845-1.019c30.215-1.113,60.402-2.606,90.63-3.375c6.133-0.156,11.856,0.592,17.863,1.714
					c5.69,1.062,10.995,3.579,16.171,6.043c8.531,4.061,15.396,10.81,21.433,17.892c3.625,4.252,6.057,9.33,8.431,14.326
					c3.072,6.468,3.891,13.745,4.212,20.796c0.041,0.936,1.49-1.07,1.424-0.987c0.664-0.826,1.307-1.668,1.93-2.526
					C705.622,73.578,705.907,73.104,706.11,72.584z"/>
				<path opacity="0.1091" fill="#FFFFFF" d="M705.075,76.938c-0.104-1.846-0.209-3.691-0.313-5.538
					c-0.435-3.743-1.257-7.398-2.466-10.966c-1.563-5.572-4.727-10.551-7.746-15.404c-3.102-4.981-7.495-9.062-11.744-13.019
					c-4.374-4.074-9.641-6.948-14.837-9.792c-5.323-2.913-11.328-4.373-17.167-5.78c-6.152-1.484-12.488-1.322-18.752-1.172
					c-18.366,0.436-36.733,1.467-55.084,2.317c-24.148,1.117-48.293,2.143-72.457,2.882c-17.626,0.54-35.246,0.468-52.877,0.282
					c-17.043-0.178-34.113-1.175-51.149-1.725c-36.172-1.168-72.373-1.425-108.561-1.565c-22.854-0.088-45.705,0.122-68.559-0.112
					c-17.938-0.183-35.841-0.125-53.757,0.826c-14.705,0.781-29.217,2.922-43.58,6.104c-6.926,1.534-13.603,3.892-20.258,6.302
					c-6.597,2.39-12.739,5.771-18.84,9.182c-6.199,3.467-11.663,8.029-17.069,12.577c-5.679,4.775-10.31,10.636-14.895,16.412
					c-4.982,6.28-8.659,13.499-12.325,20.576c-5.588,10.785-8.84,22.678-11.928,34.349c-2.708,10.242-3.968,20.846-5.316,31.324
					c-1.556,12.09-1.748,24.344-2.044,36.507c-0.229,9.468,0.197,18.991,0.411,28.46c0.174,7.665,0.293,15.33,0.406,22.995
					c0.515,35.271,0.577,70.551,0.743,105.825c1.777,377.746,3.343,755.493,4.613,1133.241
					c1.491,443.436,2.529,886.875,1.879,1330.314c-0.279,191.217-0.912,382.435-2.383,573.647
					c-0.602,78.326-1.38,156.651-2.444,234.972c-0.44,32.366-0.948,64.73-1.522,97.094c-0.263,14.773-0.552,29.545-0.854,44.318
					c0.091,1.526,0.183,3.055,0.274,4.582c0.386,2.821,1.258,5.482,2.618,7.982c2.229,5.124,7.458,8.292,12.129,10.769
					c3.8,2.017,8.198,2.702,12.363,3.489c4.069,0.77,8.396,0.65,12.514,0.62c6.58-0.052,13.129-1.16,19.653-1.91
					c7.156-0.825,19.304,0.76,23.257,0.984c19.645,1.114,39.299,2.024,58.955,2.913c45.879,2.076,91.795,3.246,137.71,4.116
					c78.735,1.495,157.499,0.927,236.224-0.834c39.36-0.881,78.705-2.363,118.038-4.042c8.889-0.381,17.811-0.524,26.658-1.517
					c2.439-0.354,4.801-0.993,7.085-1.92c2.429-1.032,4.586-2.475,6.469-4.327c0.811-1.08,1.62-2.162,2.43-3.241
					c1.459-2.408,2.557-4.972,3.29-7.69c0.236-1.393,0.472-2.784,0.709-4.176c0.319-2.789,0.479-5.588,0.482-8.396
					c0.123-4.237-0.349-8.612-0.559-12.837c-0.262-5.225-0.358-10.468-0.487-15.698c-0.67-27.153-0.438-54.333-0.484-81.493
					c-0.133-74.777,0.03-149.557,0.163-224.336c0.346-193.991,0.923-387.982,1.413-581.974
					c0.41-162.269,0.899-324.538,0.772-486.808c-0.016-20.636-0.156-41.271-0.251-61.907c-0.266-58.419,0.052-116.836,0.149-175.255
					c0.05-29.995-0.204-59.988-0.325-89.982c-0.104-25.685-0.033-51.371-0.067-77.056c-0.211-158.266-0.128-316.531-0.175-474.795
					c-0.017-56.89-0.083-113.777-0.205-170.666c-0.087-40.737-0.4-81.474-0.567-122.211c-0.296-72.592-0.356-145.184-0.345-217.776
					c0.048-296.584,1.975-593.166,1.149-889.75c-0.484,0.146-0.881,0.437-1.189,0.871c-1.265,1.304-2.502,2.632-3.713,3.986
					c-1.227,1.34-2.425,2.703-3.597,4.093c-0.399,0.351-0.648,0.774-0.747,1.271c0.85,329.559-1.522,659.117-1.091,988.677
					c0.053,39.627,0.172,79.252,0.32,118.878c0.073,19.839,0.174,39.679,0.275,59.519c0.012,6.591,0.024,13.184,0.036,19.775
					c0.329,7.636,0.399,15.271,0.213,22.905c-0.168,8.243-0.22,16.488-0.222,24.733c-0.001,5.814,0.244,11.599,0.471,17.408
					c-0.023,4.216-0.043,8.431-0.06,12.645c-0.018,4.587-0.033,9.173-0.046,13.758c-0.25,79.616-0.177,159.234-0.181,238.849
					c-0.007,91.536,0.014,183.073,0.143,274.608c0.05,35.844,0.127,71.689,0.296,107.534c0.063,13.691,0.482,27.401-0.249,41.079
					c0.017,1.993,0.033,3.986,0.05,5.98c0.024,3.689,0.063,7.38,0.114,11.071c0.075,6.163,0.216,12.325,0.403,18.487
					c0.098,3.286,0.01,6.496-0.118,9.777c0.025,6.359,0.052,12.719,0.076,19.077c0.032,12.466,0.039,24.931,0.022,37.396
					c-0.016,36.69-0.22,73.38-0.252,110.071c-0.022,23.243,0.032,46.488,0.016,69.732c-0.005,5.04-0.012,10.079-0.017,15.117
					c-0.012,7.827,0.214,15.613,0.532,23.433c0.255,6.283-0.033,12.655-0.048,18.943c-0.017,6.826-0.032,13.652-0.048,20.48
					c-0.033,15.092-0.063,30.184-0.094,45.275c-0.079,38.47-0.162,76.939-0.248,115.411c-0.694,309.388-1.854,618.774-2.147,928.163
					c-0.056,58.77-0.059,117.539,0.08,176.308c0.027,11.748,0.063,23.495,0.112,35.243c0.063,4.257,0.012,8.513-0.155,12.765
					c-0.12,1.911-0.241,3.821-0.361,5.733c-0.003,3.962-0.007,7.925-0.01,11.888c-0.008,8.896-0.096,17.79-0.176,26.685
					c-0.041,4.607-0.222,9.195-0.428,13.799c-0.14,0.776-0.28,1.553-0.421,2.33c-0.502,1.604-0.811,3.244-0.929,4.922
					c-0.312,1.707-0.891,3.318-1.738,4.834c-0.376,0.786-0.753,1.572-1.131,2.358c-0.979,1.592-2.269,2.875-3.867,3.85
					c-1.695,1.154-3.546,1.948-5.552,2.385c-3.238,1.039-6.642,1.221-10.007,1.41c-7.665,0.125-15.326,0.438-22.98,0.938
					c-19.632,0.87-39.273,1.539-58.915,2.209c-32.738,1.116-65.492,1.79-98.244,2.352c-65.514,1.124-131.047,0.798-196.558-0.301
					c-32.76-0.548-65.511-1.546-98.256-2.653c-39.604-1.34-79.168-3.799-118.781-4.806c0.137,0.035,0.272,0.071,0.41,0.106
					c-3.162-0.965-6.867-0.535-10.133-0.445c-6.14,0.169-11.992-0.641-17.842-2.5c-2.673-0.848-4.927-2.252-7.267-3.75
					c-2.208-1.415-3.725-3.912-4.968-6.114c-1.724-3.06-2.083-6.521-2.634-9.92c-0.205-3.888-0.202-7.777,0.006-11.668
					c0.101-4.868,0.199-9.735,0.296-14.604c1.39-69.503,2.314-139.014,3.099-208.525c2.015-178.573,2.853-357.158,3.394-535.741
					c1.328-438.111,0.313-876.234-0.962-1314.345c-1.16-398.859-2.83-797.714-4.714-1196.571
					c-0.345-72.961-0.745-145.924-0.984-218.888c-0.048-15.229-0.072-30.458-0.055-45.688c0.04-2.412,0.08-4.825,0.12-7.237
					c0.416-6.561,0.628-13.128,0.638-19.703c0.255-11.714,1.543-23.34,2.962-34.954c1.218-9.979,3.62-19.728,6.125-29.44
					c2.168-8.407,5.559-16.389,9.035-24.312c3.07-6.999,7.336-13.348,11.641-19.618c5.2-7.575,12.04-13.812,19.018-19.682
					c10.068-8.466,22.439-13.829,34.674-18.26c12.966-4.696,26.867-6.735,40.482-8.436c14.727-1.84,29.661-2.094,44.481-2.314
					c18.124-0.269,36.251,0.288,54.377,0.136c2.551,0.039,5.103,0.078,7.655,0.115c12.447-0.039,24.895-0.035,37.342,0.013
					c18.388,0.037,36.773,0.278,55.158,0.527c34.816,0.472,69.601,1.842,104.403,2.814c17.542,0.488,35.116,0.105,52.658-0.162
					c17.816-0.27,35.632-0.917,53.442-1.456c17.741-0.539,35.476-0.98,53.224-1.246c7.534-0.349,15.054-0.245,22.56,0.312
					c3.461,0.422,6.865,1.115,10.214,2.082c4.929,1.212,9.492,3.796,13.854,6.278c5.851,3.327,10.566,8.188,14.923,13.218
					c4.456,5.143,7.296,11.345,9.756,17.605c2.511,6.389,2.844,13.404,2.863,20.164c0.493-0.104,0.909-0.357,1.251-0.76
					c1.36-1.183,2.696-2.393,4.007-3.63c1.326-1.222,2.626-2.471,3.9-3.747C704.656,77.821,704.938,77.423,705.075,76.938z"/>
				<path opacity="0.1091" fill="#FFFFFF" d="M705.359,74.292c-0.119-1.837-0.238-3.672-0.357-5.509
					c-0.479-3.757-1.327-7.426-2.546-11.011c-1.605-5.65-4.827-10.696-7.908-15.61c-3.18-5.07-7.662-9.204-12.006-13.228
					c-4.475-4.145-9.881-7.058-15.199-9.925c-5.464-2.948-11.599-4.401-17.58-5.808c-6.288-1.479-12.778-1.257-19.168-1.048
					c-18.472,0.604-36.936,1.621-55.395,2.527c-24.188,1.188-48.374,2.25-72.579,3.021c-17.632,0.563-35.258,0.494-52.896,0.312
					c-17.039-0.174-34.106-1.181-51.14-1.731c-36.175-1.172-72.38-1.415-108.572-1.546c-22.857-0.083-45.71,0.133-68.567-0.101
					c-17.945-0.186-35.854-0.119-53.778,0.855c-14.736,0.802-29.275,2.99-43.659,6.233c-6.95,1.565-13.643,3.968-20.313,6.422
					c-6.625,2.437-12.782,5.876-18.897,9.348c-6.223,3.532-11.693,8.17-17.107,12.791c-5.691,4.856-10.317,10.803-14.897,16.662
					c-4.976,6.364-8.627,13.671-12.273,20.83c-5.552,10.9-8.763,22.878-11.808,34.651c-2.665,10.305-3.885,20.962-5.195,31.497
					c-1.51,12.135-1.664,24.425-1.921,36.63c-0.201,9.485,0.25,19.021,0.516,28.503c0.216,7.673,0.338,15.35,0.466,23.026
					c0.59,35.278,0.635,70.569,0.806,105.851c1.82,377.75,3.347,755.503,4.616,1133.256c1.49,443.436,2.53,886.876,1.875,1330.314
					c-0.281,191.214-0.915,382.429-2.387,573.639c-0.604,78.321-1.384,156.641-2.449,234.957
					c-0.44,32.363-0.949,64.724-1.525,97.084c-0.263,14.771-0.553,29.541-0.856,44.311c0.094,1.535,0.187,3.07,0.281,4.605
					c0.4,2.836,1.285,5.512,2.651,8.026c1.345,2.437,3.07,4.566,5.172,6.391c2.156,1.895,4.542,3.437,7.156,4.624
					c3.891,2.132,8.462,2.865,12.749,3.691c4.202,0.81,8.673,0.657,12.926,0.598c6.631-0.093,13.216-1.321,19.778-2.157
					c7.113-0.904,19.759,0.625,23.292,0.794c19.636,0.947,39.264,2.033,58.905,2.918c45.875,2.065,91.788,3.232,137.7,4.099
					c78.743,1.487,157.517,0.915,236.25-0.849c39.365-0.883,78.716-2.367,118.053-4.05c8.88-0.381,17.813-0.534,26.66-1.502
					c3.905-0.428,7.348-1.958,10.784-3.767c3.83-2.014,5.862-5.984,7.804-9.59c2.082-3.866,2.351-8.583,2.779-12.838
					c0.418-4.122,0.042-8.359-0.186-12.48c-0.292-5.283-0.62-10.558-0.84-15.845c-1.101-26.473-0.775-53.017-0.842-79.505
					c-0.187-73.725,0.004-147.451,0.13-221.174c0.33-193.511,0.914-387.021,1.402-580.531c0.415-163.98,0.911-327.962,0.8-491.943
					c-0.015-22.861-0.145-45.722-0.252-68.581c-0.27-58.421,0.049-116.837,0.148-175.257c0.05-29.995-0.213-59.987-0.325-89.98
					c-0.096-25.686-0.036-51.374-0.069-77.059c-0.193-154.905-0.124-309.81-0.167-464.714
					c-0.017-60.246-0.122-120.492-0.206-180.738c-0.058-40.742-0.41-81.485-0.576-122.228
					c-0.296-72.589-0.355-145.181-0.344-217.771c0.049-296.586,1.977-593.168,1.15-889.752c-0.003-1.093-1.809,1.636-1.663,1.437
					c-0.811,1.104-1.598,2.224-2.363,3.359c-0.444,0.569-0.803,1.187-1.078,1.848c0.885,329.559-1.497,659.115-1.099,988.672
					c0.047,39.624,0.163,79.247,0.309,118.87c0.072,19.84,0.173,39.68,0.276,59.52c0.023,6.604,0.046,13.207,0.069,19.811
					c0.244,7.629,0.311,15.26,0.201,22.89c-0.095,8.274-0.108,16.55-0.126,24.824c-0.012,4.799,0.017,6.526,0.16,11.419
					c0.249,8.425,0.142,16.85,0.126,25.278c-0.139,78.301-0.08,156.603-0.079,234.905c0.003,91.858,0.014,183.716,0.103,275.575
					c0.036,36.57,0.087,73.142,0.194,109.711c0.042,14.376,0.192,28.755,0.134,43.13c-0.083,1.96-0.166,3.921-0.249,5.881
					c0.022,3.877,0.046,7.754,0.069,11.631c0.039,6.531,0.12,13.062,0.212,19.592c0.051,3.727,0.245,7.415,0.146,11.141
					c-0.359,13.539,0.023,27.205,0.049,40.75c0.071,36.735-0.164,73.469-0.261,110.203c-0.072,27.862,0.033,55.725,0.062,83.586
					c0.005,4.857,0.013,9.714,0.019,14.57c0.007,5.515-0.161,11.065,0.008,16.575c0.385,12.527,0.349,25.038,0.337,37.57
					c-0.014,14.478-0.029,28.955-0.047,43.435c-0.045,37.348-0.107,74.695-0.176,112.043
					c-0.347,188.049-0.887,376.096-1.381,564.143c-0.463,176.145-1.023,352.291-0.844,528.436
					c0.016,15.172,0.049,30.343,0.097,45.515c0.042,13.128,0.428,26.284-0.134,39.402c-0.161,3.776,0.07,8.429,0.104,12.225
					c0.053,5.571,0.147,11.142,0.254,16.712c0.098,5.131,0.269,10.259,0.438,15.388c0.196,3.366,0.387,6.735,0.57,10.103
					c-0.022,2.122-0.146,4.237-0.371,6.347c-0.298,3.626-0.861,6.793-1.929,10.272c-1.079,3.519-3.32,6.031-5.829,8.579
					c-0.961,0.614-1.922,1.23-2.881,1.847c-4.257,1.878-8.669,2.89-13.236,3.035c-1.131,0.045-2.262,0.09-3.393,0.134
					c-13.099,0.619-26.198,1.19-39.301,1.718c-85.174,3.571-170.432,4.836-255.675,4.646c-78.674-0.174-157.335-2.352-235.928-5.838
					c-6.545-0.316-13.091-0.629-19.635-0.944c-13.406-0.911-26.828-1.439-40.264-1.587c-1.661-0.043-3.251,0.035-4.923,0.166
					c-3.091,0.239-6.169,0.574-9.257,0.841c-4.938,0.428-9.777,0.071-14.677-0.568c-3.842-0.504-7.325-1.85-10.861-3.34
					c-3.242-1.366-5.752-3.836-8.159-6.295c-2.458-2.513-3.537-6.134-4.515-9.375c-1.501-4.979-0.889-10.773-0.783-15.835
					c0.696-33.524,1.259-67.053,1.774-100.582c2.534-164.977,3.574-329.979,4.347-494.974
					c0.966-205.546,1.178-411.097,1.164-616.646c-0.029-444.27-1.39-888.539-3.053-1332.805
					c-0.649-173.369-1.385-346.739-2.163-520.107c-0.633-141.197-1.114-282.395-1.991-423.59
					c-0.079-12.861-0.183-25.724-0.304-38.585c-0.069-7.34-0.154-14.655,0.019-21.993c0.042-4.385,0.083-8.769,0.125-13.153
					c0.188-8.179,0.638-16.342,1.348-24.493c0.651-7.398,1.59-14.76,2.821-22.084c1.452-9.797,4.122-19.318,6.895-28.798
					c2.432-8.32,6.123-16.15,9.896-23.916c3.381-6.959,7.972-13.196,12.592-19.354c7.031-9.372,16.371-16.674,25.984-23.178
					c11.285-7.635,24.526-12.08,37.516-15.746c13.787-3.891,28.251-5.344,42.471-6.541c15.116-1.273,30.355-1.233,45.511-1.225
					c12.998,0.006,25.991,0.287,38.987,0.195c33.408-0.237,66.837,0.113,100.244,0.539c29.058,0.371,58.104,1.273,87.143,2.315
					c35.255,1.265,70.487,0.303,105.727-0.922c29.972-1.042,59.917-2.407,89.902-2.987c5.896-0.114,11.396,0.723,17.148,1.882
					c5.466,1.102,10.546,3.64,15.479,6.114c4.906,2.459,9.073,6.09,13.17,9.665c4.1,3.577,7.2,8.144,10.22,12.606
					c3.046,4.502,4.829,9.647,6.529,14.749c1.695,5.088,1.875,10.422,2.011,15.716c0.341-0.03,0.613-0.201,0.816-0.509
					c0.785-0.84,1.544-1.705,2.274-2.594C703.41,77.207,705.43,75.392,705.359,74.292z"/>
				<path opacity="0.1091" fill="#FFFFFF" d="M706.906,72.027c-0.451-6.797-0.153-4.403-1.356-11.002
					c-0.723-3.967-2.342-7.523-3.82-11.231c-2.209-5.539-5.967-10.358-9.563-15.027c-3.721-4.829-8.599-8.588-13.372-12.282
					c-4.895-3.79-10.673-6.24-16.315-8.627c-5.862-2.478-12.198-3.373-18.436-4.256c-2.159-0.105-4.319-0.21-6.479-0.314
					c-8.391,0.301-16.781,0.652-25.169,1.054c-24.52,1.067-49.027,2.458-73.544,3.607c-17.962,0.841-35.928,1.327-53.903,1.712
					c-17.445,0.373-34.869-0.043-52.304-0.577c-17.134-0.526-34.257-1.214-51.393-1.665c-18.022-0.476-36.052-0.665-54.079-0.874
					c-30.006-0.346-60.011-0.066-90.018-0.146c-18.069-0.047-36.117-0.397-54.187,0.018c-14.998,0.345-29.888,1.743-44.707,4.039
					c-14.234,2.207-27.893,6.552-41.097,12.209c-6.542,2.803-12.529,6.657-18.465,10.529c-6.119,3.99-11.377,9.102-16.579,14.173
					c-5.543,5.403-9.917,11.869-14.254,18.223c-6.476,9.491-10.698,20.364-14.681,31.052c-4.68,12.558-6.955,25.918-9.124,39.08
					c-3.352,20.333-3.359,41.171-3.16,61.708c0.073,7.673,0.509,15.366,0.705,23.04c0.195,7.727,0.307,15.456,0.425,23.187
					c0.287,18.68,0.386,37.364,0.504,56.045c1.03,164.596,1.464,329.198,2.166,493.797c0.874,205.245,1.701,410.491,2.419,615.737
					c1.552,444.335,2.66,888.674,2.173,1333.013c-0.214,194.979-0.764,389.959-2.09,584.934
					c-0.551,81.041-1.273,162.081-2.252,243.116c-0.41,33.867-0.884,67.732-1.42,101.597c-0.245,15.572-0.517,31.144-0.797,46.715
					c-0.134,7.429-0.278,14.856-0.424,22.285c-0.094,4.818-0.191,9.635-0.289,14.452c-0.029,3.037,0.426,6.001,1.365,8.89
					c0.668,2.775,2.836,5.416,4.421,7.676c1.071,1.034,2.143,2.068,3.214,3.103c2.363,1.977,4.972,3.544,7.826,4.704
					c6.839,3.423,15.001,3.687,22.489,3.811c7.42,0.123,14.843-1.233,22.151-2.337c2.04-0.307,4.023-0.588,6.084-0.611
					c13.059,0.842,26.124,1.589,39.194,2.242c13.092,0.673,26.187,1.29,39.284,1.852c78.653,3.543,157.404,4.779,236.13,4.867
					c85.322,0.096,170.635-2.139,255.872-5.814c8.998-0.39,17.831-0.522,26.72-1.596c3.907-0.474,7.181-2.068,10.547-3.967
					c3.491-1.969,6.66-6.5,7.88-10.246c0.472-1.447,0.942-2.894,1.415-4.34c0.675-2.977,1.057-5.988,1.145-9.037
					c0.322-4.165-0.146-8.463-0.455-12.613c-0.948-12.682-1.425-25.346-1.673-38.059c-0.521-26.604-0.372-53.232-0.405-79.841
					c-0.044-36.829-0.001-73.661,0.04-110.49c0.411-364.586,2.152-729.169,2.332-1093.754c0.025-48.226-0.014-96.448-0.304-144.672
					c-0.447-74.339,0.436-148.678,0.047-223.017c-0.102-19.229-0.129-38.455-0.166-57.683
					c-0.307-158.652-0.192-317.304-0.229-475.955c-0.016-66.771-0.036-133.541-0.112-200.312
					c-0.032-28.246-0.267-56.492-0.424-84.736c-0.438-79.243-0.581-158.488-0.614-237.732c-0.133-309.77,2.021-619.535,1.15-929.306
					c-0.003-0.995-1.513,1.308-1.367,1.102c-0.616,0.88-1.21,1.776-1.782,2.687c-0.343,0.457-0.601,0.957-0.771,1.497
					c0.903,329.558-1.484,659.112-1.104,988.669c0.046,39.623,0.159,79.244,0.303,118.867c0.072,19.84,0.173,39.678,0.275,59.518
					c0.073,14.225,0.376,28.486,0.278,42.709c-0.154,22.852,0.172,45.695,0.158,68.546c-0.05,79.661-0.017,159.323-0.01,238.985
					c0.01,91.523,0.022,183.046,0.097,274.57c0.03,35.811,0.075,71.62,0.166,107.43c0.036,13.729,0.394,27.491-0.086,41.212
					c-0.196,5.639,0.053,11.346,0.089,16.988c0.039,6.115,0.069,12.229,0.223,18.341c0.082,3.298,0.047,6.57-0.008,9.867
					c0.03,6.362,0.061,12.726,0.091,19.089c0.042,12.469,0.055,24.937,0.038,37.406c-0.005,36.68-0.237,73.36-0.297,110.042
					c-0.038,23.273,0.065,46.549,0.131,69.822c0.034,12.802,0.027,25.593,0.313,38.392c0.293,13.146-0.003,26.336-0.009,39.486
					c-0.005,15.107-0.018,30.215-0.033,45.324c-0.034,38.492-0.097,76.984-0.163,115.476c-0.331,189.673-0.895,379.345-1.38,569.018
					c-0.444,173.392-1.052,346.786-0.816,520.177c0.02,14.557,0.064,29.113,0.138,43.67c0.063,12.49-0.055,24.977,0.125,37.465
					c0.155,10.746,0.567,21.479,1.15,32.209c0.249,4.608,0.936,9.197,1.234,13.808c0.341,5.257,0.003,10.341-0.985,15.501
					c-1.85,9.65-7.446,12.986-14.806,15.449c-3.318,1.109-7.037,1.164-10.489,1.41c-6.549,0.303-13.101,0.607-19.649,0.91
					c-13.104,0.584-26.207,1.124-39.313,1.621c-19.659,0.778-39.326,1.354-58.991,1.93c-85.229,2.497-170.513,2.687-255.762,1.396
					c-39.333-0.597-78.653-1.813-117.963-3.26c-19.642-0.723-39.274-1.672-58.906-2.625c-6.539-0.346-13.078-0.689-19.618-1.034
					c-6.99-1.034-13.989-1.421-20.998-1.156c-2.353,0.072-4.792,0.627-7.113,0.966c-3.428,0.504-6.836,1.012-10.28,1.411
					c-5.583,0.646-11.133,0.498-16.739,0.057c-5.993-0.472-11.377-2.666-16.62-5.43c-3.78-1.992-6.345-5.603-8.584-9.062
					c-3.725-5.752-2.966-13.364-2.836-19.754c0.302-14.938,0.572-29.877,0.834-44.814c0.626-35.557,1.137-71.115,1.604-106.676
					c2.245-171.067,3.186-342.151,3.846-513.23c0.809-208.908,0.978-417.819,0.9-626.729
					c-0.164-443.082-1.585-886.162-3.323-1329.24c-0.623-158.93-1.3-317.858-1.983-476.787
					c-0.302-70.082-0.604-140.163-0.902-210.244c-0.258-60.351-0.403-120.705-0.923-181.053
					c-0.111-12.915-0.291-25.829-0.524-38.743c-0.094-5.09-0.208-10.181-0.339-15.272c-0.271-11.353-0.208-22.646,0.098-33.999
					c0.333-8.006,0.954-15.989,1.862-23.951c3.783-16.694,7.567-33.389,11.35-50.084c2.029-5.509,4.376-10.879,7.042-16.108
					c3.456-7.297,8.199-13.848,12.965-20.313c4.406-5.978,9.939-10.997,15.421-15.939c8.705-7.845,19.311-13.308,29.883-18.117
					c10.686-4.861,22.316-7.522,33.751-9.878c11.991-2.471,24.299-3.376,36.488-4.183c15.272-1.012,30.632-0.853,45.927-0.767
					c43.847,0.247,87.696,0.112,131.542,0.651c29.057,0.357,58.099,1.241,87.136,2.297c35.327,1.285,70.624,0.27,105.933-1.042
					c30.32-1.127,60.613-2.641,90.947-3.391c4.107-0.13,8.197,0.098,12.266,0.687c5.906,0.594,11.535,2.714,17.031,4.791
					c8.985,3.392,16.52,9.686,23.229,16.353c4.002,3.975,6.904,8.862,9.731,13.679c4.507,7.68,6.229,17.179,6.59,25.863
					c0.039,0.924,1.486-1.016,1.432-0.95c0.671-0.804,1.321-1.626,1.951-2.463C706.408,73.004,706.699,72.54,706.906,72.027z"/>
				<path opacity="0.1091" fill="#FFFFFF" d="M704.497,77.624c-0.099-1.845-0.198-3.69-0.297-5.535
					c-0.421-3.74-1.231-7.396-2.435-10.962c-1.552-5.575-4.703-10.562-7.712-15.421c-3.094-4.995-7.473-9.088-11.714-13.066
					c-4.365-4.096-9.639-6.994-14.833-9.854c-5.335-2.937-11.343-4.418-17.198-5.852c-6.167-1.51-12.541-1.359-18.825-1.221
					c-18.396,0.403-36.796,1.461-55.176,2.314c-24.166,1.121-48.326,2.155-72.506,2.901c-17.631,0.544-35.252,0.475-52.886,0.292
					c-17.044-0.177-34.112-1.172-51.146-1.722c-36.174-1.168-72.377-1.424-108.566-1.563c-22.856-0.087-45.708,0.125-68.563-0.109
					c-17.941-0.184-35.847-0.125-53.769,0.827c-14.718,0.78-29.246,2.924-43.624,6.111c-6.94,1.538-13.629,3.9-20.298,6.315
					c-6.616,2.397-12.777,5.787-18.896,9.21C79.833,43.77,74.35,48.35,68.923,52.916c-5.704,4.797-10.353,10.687-14.955,16.49
					c-5.004,6.31-8.692,13.564-12.371,20.676c-5.604,10.83-8.86,22.774-11.949,34.493c-2.708,10.274-3.962,20.91-5.307,31.421
					c-1.549,12.116-1.731,24.396-2.018,36.587c-0.223,9.495,0.22,19.04,0.453,28.535c0.187,7.673,0.305,15.347,0.421,23.022
					c0.536,35.278,0.591,70.564,0.758,105.845c1.78,377.745,3.337,755.49,4.608,1133.237c1.492,443.434,2.53,886.873,1.877,1330.31
					c-0.281,191.219-0.914,382.437-2.382,573.648c-0.602,78.327-1.38,156.653-2.443,234.976c-0.44,32.366-0.948,64.73-1.522,97.095
					c-0.262,14.773-0.551,29.547-0.853,44.318c0.093,1.529,0.186,3.059,0.278,4.587c0.392,2.837,1.279,5.509,2.662,8.014
					c2.281,5.181,7.621,8.338,12.37,10.798c3.864,2.001,8.324,2.646,12.544,3.397c4.105,0.729,8.462,0.564,12.608,0.494
					c6.588-0.115,13.135-1.273,19.663-2.063c7.101-0.858,19.653,0.764,23.256,0.966c19.643,1.098,39.292,2.029,58.946,2.919
					c45.877,2.076,91.792,3.243,137.706,4.112c78.732,1.492,157.496,0.915,236.218-0.851c39.359-0.884,78.703-2.367,118.035-4.052
					c8.886-0.38,17.807-0.521,26.649-1.522c2.438-0.357,4.797-1.004,7.077-1.943c2.425-1.041,4.571-2.496,6.44-4.363
					c0.811-1.092,1.622-2.184,2.433-3.277c1.451-2.418,2.533-4.99,3.249-7.719c0.238-1.398,0.476-2.797,0.715-4.195
					c0.323-2.787,0.479-5.586,0.471-8.394c0.111-4.243-0.333-8.604-0.551-12.836c-0.269-5.234-0.376-10.485-0.515-15.726
					c-0.712-27.141-0.458-54.314-0.508-81.462c-0.142-74.782,0.023-149.563,0.156-224.346c0.343-193.991,0.918-387.985,1.41-581.977
					c0.411-162.265,0.895-324.528,0.782-486.791c-0.014-20.64-0.165-41.278-0.256-61.918c-0.259-58.417,0.053-116.832,0.15-175.25
					c0.052-29.999-0.204-59.994-0.329-89.99c-0.106-25.682-0.027-51.367-0.063-77.049c-0.219-158.267-0.135-316.535-0.178-474.802
					c-0.015-56.888-0.098-113.777-0.204-170.664c-0.076-40.734-0.396-81.469-0.563-122.203
					c-0.296-72.591-0.356-145.183-0.346-217.775c0.046-296.585,1.975-593.167,1.15-889.752c-0.406,0.072-0.736,0.288-0.99,0.646
					c-1.015,1.02-2.001,2.066-2.962,3.138c-0.976,1.058-1.925,2.14-2.846,3.246c-0.332,0.287-0.516,0.636-0.548,1.046
					c0.859,329.56-1.517,659.116-1.092,988.676c0.051,39.624,0.169,79.25,0.315,118.874c0.073,19.841,0.174,39.681,0.276,59.521
					c0.016,6.594,0.029,13.187,0.045,19.78c0.302,7.636,0.372,15.272,0.21,22.907c-0.144,8.248-0.184,16.499-0.189,24.748
					c-0.004,5.804,0.217,11.583,0.422,17.383c-0.02,4.217-0.036,8.433-0.048,12.65c-0.016,4.587-0.029,9.175-0.039,13.762
					c-0.206,79.624-0.143,159.248-0.144,238.872c-0.003,91.534,0.015,183.068,0.133,274.602
					c0.045,35.839,0.114,71.677,0.267,107.516c0.059,13.695,0.461,27.415-0.212,41.098c0.016,1.993,0.03,3.985,0.045,5.979
					c0.023,3.688,0.057,7.376,0.102,11.063c0.066,6.158,0.186,12.313,0.366,18.47c0.097,3.286,0.018,6.507-0.096,9.79
					c0.026,6.359,0.053,12.719,0.079,19.078c0.033,12.467,0.041,24.932,0.024,37.398c-0.013,36.688-0.222,73.376-0.26,110.063
					c-0.023,23.251,0.041,46.5,0.041,69.75c0,5.041-0.004,10.083-0.007,15.124c-0.004,7.814,0.189,15.592,0.478,23.399
					c0.229,6.291-0.026,12.654-0.039,18.949c-0.014,6.83-0.024,13.657-0.038,20.486c-0.026,15.094-0.053,30.189-0.08,45.284
					c-0.069,38.474-0.148,76.946-0.23,115.421c-0.66,309.389-1.822,618.775-2.147,928.164c-0.062,58.766-0.075,117.53,0.054,176.295
					c0.026,11.75,0.061,23.501,0.11,35.252c0.063,4.271,0.026,8.541-0.11,12.812c-0.108,1.915-0.218,3.833-0.327,5.748
					c0.005,3.974,0.007,7.946,0.012,11.919c0.008,8.963-0.04,17.927-0.06,26.891c-0.012,4.748-0.115,9.488-0.241,14.234
					c-0.123,0.845-0.246,1.689-0.369,2.535c-0.444,1.765-0.742,3.556-0.893,5.37c-0.323,1.86-0.915,3.632-1.777,5.311
					c-0.407,0.849-0.814,1.697-1.221,2.546c-1.033,1.705-2.381,3.108-4.048,4.206c-1.727,1.215-3.619,2.067-5.675,2.56
					c-3.234,1.106-6.703,1.289-10.077,1.496c-7.667,0.156-15.328,0.473-22.984,0.952c-19.638,0.874-39.284,1.549-58.929,2.222
					c-32.746,1.123-65.505,1.805-98.265,2.372c-65.527,1.138-131.071,0.825-196.596-0.261c-32.765-0.542-65.518-1.536-98.268-2.641
					c-39.619-1.337-79.193-3.831-118.82-4.825c0.125,0.035,0.249,0.069,0.374,0.103c-1.708-0.506-3.288-0.396-5.069-0.391
					c-2.753,0.009-5.499,0.142-8.252,0.203c-6.378,0.141-12.526-1.1-18.517-3.197c-2.749-0.964-5.081-2.788-7.23-4.67
					c-2.281-1.999-3.412-4.583-4.659-7.27c-0.285-1.097-0.57-2.193-0.855-3.289c-0.645-2.782-0.922-5.602-0.828-8.459
					c0.101-4.813,0.201-9.627,0.297-14.441c0.1-4.923,0.196-9.845,0.291-14.767c1.366-70.123,2.277-140.255,3.052-210.387
					c1.982-179.479,2.826-358.973,3.319-538.461c1.204-438.589,0.273-877.186-1.019-1315.773
					c-1.171-397.575-2.849-795.146-4.711-1192.716c-0.339-72.376-0.698-144.751-1.001-217.127
					c-0.063-15.082-0.209-30.167-0.088-45.248c0.101-2.291,0.201-4.582,0.302-6.872c0.018-8.438,0.285-16.868,0.803-25.29
					c0.526-11.195,2.131-22.255,3.867-33.309c1.496-9.523,4.187-18.762,6.979-27.96c2.435-8.023,6.096-15.559,9.83-23.03
					c3.338-6.677,7.856-12.634,12.392-18.512c5.574-7.219,12.727-13.012,19.963-18.449c10.634-7.99,23.393-12.827,35.938-16.821
					c13.372-4.258,27.536-5.974,41.435-7.399c14.932-1.532,30.022-1.625,45.018-1.718c7.741-0.047,15.485,0.057,23.227,0.126
					c10.384,0.091,20.766,0.027,31.146,0.161c6.237-0.011,12.472-0.022,18.708-0.032c12.397-0.001,24.793,0.042,37.189,0.132
					c18.215,0.097,36.427,0.405,54.639,0.727c34.613,0.607,69.194,2.321,103.812,2.663c17.684,0.174,35.382-0.383,53.058-0.828
					c17.892-0.452,35.78-1.149,53.668-1.743c17.7-0.588,35.382-0.904,53.089-1.024c7.336-0.05,14.195,1.611,21.088,3.937
					c4.964,1.673,9.346,4.549,13.687,7.388c5.771,3.774,10.229,9.247,14.352,14.656c3.15,4.134,5.156,9.047,7.097,13.808
					c2.623,6.438,3.042,13.519,3.114,20.363c0.406-0.032,0.751-0.212,1.033-0.542c1.09-0.911,2.154-1.849,3.195-2.815
					c1.055-0.949,2.083-1.928,3.086-2.932C704.22,78.353,704.431,78.025,704.497,77.624z"/>
			</g>
		</g>
	</g>
</g>
</svg>
