<?xml version="1.0" encoding="utf-8"?>
<!-- Generator: Adobe Illustrator 16.0.0, SVG Export Plug-In . SVG Version: 6.00 Build 0)  -->
<!DOCTYPE svg PUBLIC "-//W3C//DTD SVG 1.1//EN" "http://www.w3.org/Graphics/SVG/1.1/DTD/svg11.dtd">
<svg version="1.1" id="Layer_1" xmlns="http://www.w3.org/2000/svg" xmlns:xlink="http://www.w3.org/1999/xlink" x="0px" y="0px"
	 width="540px" height="4000px" viewBox="0 0 540 4000" enable-background="new 0 0 540 4000" xml:space="preserve">
<g>
	<image overflow="visible" opacity="0.75" width="494" height="4014" xlink:href="D4EEDFEA.png"  transform="matrix(1 0 0 1 23 0)">
	</image>
	<g>
		<path fill="#F2F2F2" d="M482.601,63.479c-0.063-22.271-18.323-40.208-40.592-39.824c-42.796,0.739-86.996,4.018-128.48,2.378
			c-36.536-1.445-77.567-1.95-118.848-1.793C121.164,24.52,42.49,12.515,42.931,138.901c1.718,492.804,9.8,3326.988,0,3817
			c-0.44,22.02,26.093,16.092,31.49,16.391c129.766,7.179,259.989,7.75,389.828,1.708c4.521-0.21,9.418-0.56,12.807-3.244
			c4.307-3.41,4.595-9.229,4.563-14.375c-0.907-142.872,2.149-2289.304,1.243-2432.176c-0.323-50.917,0.321-96.605,0-147.525
			c-0.358-56.266-0.084-458.865-0.441-515.133C480.725,594.458,483.363,330.353,482.601,63.479z"/>
		<g>
			<g>
				<path opacity="0.1091" fill="#FFFFFF" d="M492.863,54.067c-0.147-1.555-0.292-3.109-0.439-4.662
					c-0.602-3.242-1.583-6.364-2.942-9.369c-1.875-4.936-5.513-9.006-8.911-12.912c-3.62-4.164-8.541-7.002-13.238-9.718
					c-4.995-2.889-10.683-4.039-16.25-5.171c-1.96-0.161-3.921-0.32-5.881-0.48c-8.55,0.178-17.094,0.523-25.632,1.032
					c-19.239,0.862-38.466,2.014-57.705,2.882c-18.523,0.836-36.991,0.774-55.523,0.406c-10.868-0.393-21.738-0.71-32.61-0.953
					c-11.379-0.246-22.759-0.419-34.141-0.519c-23.959-0.289-47.919,0.069-71.879-0.133c-12.548-0.105-25.059-0.069-37.592,0.633
					c-12.109,0.679-24.004,2.915-35.619,6.337c-3.121,0.921-8.246,2.915-11.128,4.388c-3.506,1.791-7.069,3.462-10.284,5.771
					c-5.881,4.224-3.839,2.625-9.479,7.431c-4.876,4.157-8.609,9.422-12.305,14.584c-4.025,5.622-6.683,12.212-9.368,18.526
					c-1.035,2.433-1.849,4.98-2.539,7.539c-0.687,2.541-1.372,5.084-2.057,7.626c-1.337,5.679-2.37,11.413-3.098,17.203
					c-1.513,9.864-1.593,19.939-1.798,29.888c-0.131,6.422,0.3,12.66,0.665,19.033c0.306,5.38,0.513,10.76,0.681,16.147
					c0.551,17.697,0.504,35.421,0.594,53.125c0.116,22.796,0.18,45.594,0.256,68.39c0.926,279.869,1.574,559.74,2.206,839.612
					c0.858,379.12,1.514,758.241,1.854,1137.364c0.32,357.123,0.417,714.249-0.431,1071.373
					c-0.314,132.418-0.764,264.837-1.69,397.252c-0.336,48.083-0.688,96.166-1.275,144.245c-0.219,17.97-0.476,35.938-0.778,53.907
					c-0.128,7.649-0.275,15.3-0.43,22.949c-0.072,3.57-0.151,7.017,0.133,10.576c0.292,3.65,2.96,6.62,5.244,9.16
					c2.579,2.869,6.631,4.12,10.115,5.359c3.747,1.331,7.863,1.385,11.779,1.556c6.173,0.266,12.392-0.95,18.454-1.959
					c7.33-1.219,17.07,0.325,22.932,0.601c19.546,0.92,39.086,1.829,58.641,2.568c45.604,1.725,91.246,2.187,136.877,2.193
					c39.104,0.004,78.203-0.9,117.287-2.105c19.538-0.601,39.066-1.504,58.594-2.405c1.731-0.08,4.267-0.245,5.93-0.723
					c0.963-0.276,1.927-0.554,2.89-0.83c2.089-0.772,3.91-1.96,5.463-3.563c0.789-1.106,1.578-2.213,2.367-3.318
					c1.367-2.59,2.271-5.334,2.713-8.231c0.114-1.479,0.229-2.959,0.345-4.438c0.057-2.852-0.019-5.699-0.228-8.543
					c-0.16-3.2-0.685-6.408-0.887-9.615c-0.676-10.673-0.872-21.319-0.948-32.015c-0.118-16.308-0.069-32.619-0.089-48.927
					c-0.053-45.846,0.03-91.689,0.033-137.535c0.046-629.783,1.116-1259.565,1.508-1889.349
					c0.053-85.726,0.031-171.45,0.005-257.176c-0.007-20.263,0.023-40.529-0.138-60.792c-0.411-51.139,0.104-102.287-0.006-153.428
					c-0.054-24.486-0.135-48.973-0.165-73.459c-0.095-77.215-0.077-154.429-0.09-231.642c-0.005-37.668-0.014-75.337-0.027-113.005
					c-0.012-26.245,0.106-52.494-0.136-78.736c-0.468-50.614-0.474-101.237-0.563-151.854
					c-0.127-71.309,0.016-142.618,0.185-213.927c0.355-149.182,0.957-298.363,0.548-447.546c-0.002-0.865-1.382,0.743-1.35,0.71
					c-0.631,0.667-1.243,1.351-1.834,2.053c-0.353,0.345-0.624,0.741-0.818,1.188c0.43,162.134-0.302,324.268-0.644,486.402
					c-0.164,77.851-0.177,155.701,0.066,233.551c0.06,19.512,0.164,39.023,0.251,58.535c0.039,8.738,0.202,17.388,0.122,26.099
					c-0.043,4.625-0.033,9.239,0.067,13.864c0.179,8.308,0.096,16.616,0.083,24.927c-0.126,83.795-0.049,167.59-0.022,251.384
					c0.013,41.428,0.035,82.854,0.1,124.28c0.025,16.301,0.068,32.601,0.132,48.902c0.052,12.938-0.134,25.856,0.173,38.794
					c-0.015,1.161-0.03,2.321-0.046,3.482c-0.098,7.272-0.085,14.545,0.041,21.819c0.07,18.29-0.035,36.581-0.098,54.87
					c-0.061,18.287-0.09,36.574-0.107,54.86c-0.01,8.736,0.724,14.429,0.157,21.854c-0.131,1.716,0.036,3.53,0.053,5.25
					c0.02,2.055,0.009,4.111-0.001,6.166c-0.027,6.143,0,12.276,0.101,18.418c0.232,14.327-0.053,28.683-0.067,43.012
					c-0.022,20.784-0.033,41.566-0.046,62.35c-0.015,23.704,0.188,47.402,0.165,71.108c-0.029,29.764-0.057,59.529-0.085,89.294
					c-0.062,67.755-0.123,135.511-0.186,203.266c-0.313,340.159-0.658,680.317-0.953,1020.478
					c-0.137,159.029-0.265,318.059-0.329,477.09c-0.026,63.641-0.042,127.282-0.025,190.924
					c0.011,47.924-0.192,95.838-0.116,143.766c0.026,16.468,0.061,32.936,0.156,49.404c0.037,6.393-0.046,12.78,0.022,19.174
					c0.066,6.164,0.05,12.385,0.516,18.533c0.347,4.562,0.666,9.09,0.786,13.665c0.084,3.112-0.083,6.155-0.349,9.255
					c-0.326,3.79-1.801,6.868-3.655,10.096c-2.972,5.174-9.963,5.73-15.396,6.121c-6.502,0.293-13.003,0.588-19.505,0.881
					c-13.006,0.559-26.014,1.047-39.025,1.469c-45.542,1.594-91.114,2.028-136.68,1.992c-39.056-0.032-78.104-0.965-117.139-2.212
					c-19.505-0.623-38.999-1.559-58.49-2.519c-8.622-0.426-15.258-1.266-23.001-0.262c-3.449,0.447-6.804,0.914-10.292,1.195
					c-3.308,0.268-6.561,0.01-9.852-0.305c-3.419-0.326-6.442-1.537-9.534-2.924c-4.926-2.209-7.766-6.963-8.983-12.021
					c-0.068-1.154-0.137-2.309-0.205-3.461c0.054-2.341,0.105-4.684,0.155-7.023c0.079-3.705,0.151-7.41,0.223-11.116
					c0.158-8.091,0.293-16.185,0.425-24.276c0.333-20.539,0.591-41.079,0.828-61.619c0.581-50.305,0.8-100.609,1.139-150.915
					c0.423-62.625,0.721-125.251,0.97-187.877c0.614-155.017,0.891-310.036,1.06-465.055
					c0.807-738.822-0.69-1477.652-2.612-2216.471c-0.291-111.792-0.602-223.583-0.945-335.373
					C38.124,456.822,37.98,411.911,37.826,367c-0.134-39.158-0.098-78.309-0.25-117.468c-0.113-29.048,0.048-58.129-0.824-87.168
					c-0.191-6.4-0.515-12.796-0.746-19.195c-0.193-7.095-0.125-14.188,0.204-21.278c0.265-9.279,1.651-18.429,3.167-27.564
					c1.015-5.304,2.34-10.529,3.98-15.673C49.601,56.89,66.44,38.07,87.028,28.14c8.718-4.205,18.428-6.158,27.88-7.844
					c18.4-3.283,37.291-2.803,55.903-2.65c18.063,0.148,36.125,0.068,54.189,0.101c28.014,0.05,56.016,0.725,84.016,1.596
					c31.18,0.969,62.31-0.594,93.446-2.055c12.819-0.64,25.645-1.127,38.477-1.463c1.87,0.044,3.741,0.09,5.611,0.134
					c3.635,0.263,7.185,0.958,10.649,2.086c3.361,1.055,6.556,2.484,9.583,4.287c4.577,2.379,8.196,6.118,11.72,9.776
					c2.156,2.525,4.019,5.249,5.589,8.175c3.161,5.204,4.186,11.766,4.562,17.675c0.022,0.363,2.454-1.753,2.361-1.668
					C491.467,55.872,492.938,54.857,492.863,54.067z"/>
				<path opacity="0.1091" fill="#FFFFFF" d="M494.228,55.742c-0.322-1.498-0.645-2.995-0.968-4.493
					c-1.162-3.102-2.344-6.196-3.544-9.284c-1.369-3.555-3.388-5.985-5.567-9.039c-3.245-4.546-7.824-7.835-12.288-11.046
					c-4.678-3.366-10.328-5.103-15.759-6.733c-4.013-1.206-7.628-1.23-11.766-1.515c-8.587,0.31-17.17,0.696-25.751,1.156
					c-12.922,0.702-25.844,1.396-38.768,2.081c-18.852,1.005-37.672,1.474-56.548,1.657c-6.051-0.123-12.103-0.247-18.152-0.37
					c-10.867-0.411-21.737-0.729-32.609-0.958c-31.131-0.786-62.285-0.668-93.421-0.515c-12.648,0.063-25.286-0.234-37.934,0.011
					c-6.197,0.12-12.363,0.589-18.535,1.115c-8.043,0.687-15.918,2.302-23.746,4.208c-5.776,1.406-11.239,3.735-16.658,6.119
					c-1.853,0.816-3.676,1.74-5.393,2.81c-1.69,1.052-3.378,2.104-5.067,3.156c-3.375,2.263-6.54,4.788-9.497,7.577
					c-4.884,4.237-8.607,9.579-12.293,14.822c-4.094,5.82-6.748,12.594-9.42,19.125c-3.082,7.535-4.589,15.722-6.196,23.654
					c-1.888,9.308-2.312,18.901-2.853,28.352c-0.571,9.964-0.082,19.924,0.616,29.859c1.182,16.804,1.005,33.749,1.128,50.585
					c0.159,21.61,0.204,43.223,0.275,64.834c0.907,273.383,1.567,546.769,2.19,820.153c0.858,377.473,1.528,754.945,1.895,1132.42
					c0.35,360.343,0.483,720.688-0.289,1081.03c-0.291,135.861-0.709,271.725-1.568,407.584
					c-0.318,50.221-0.71,100.439-1.258,150.656c-0.209,19.129-0.453,38.257-0.736,57.386c-0.122,8.257-0.259,16.517-0.404,24.775
					c-0.066,3.791-0.139,7.582-0.212,11.374c-0.091,4.781-0.333,9.502,0.13,14.265c0.256,2.626,1.736,4.425,3.074,6.552
					c2.098,3.336,5.97,5.145,9.346,6.765c3.72,1.786,8.101,2.155,12.13,2.561c3.815,0.384,7.722-0.013,11.519-0.36
					c3.079-0.283,6.139-0.863,9.18-1.4c8.733-1.544,14.414-0.224,24.853,0.37c45.567,2.588,91.222,3.698,136.852,4.418
					c78.225,1.234,156.476-0.62,234.615-4.242c1.65-0.076,4.395-0.302,5.966-0.767c0.98-0.289,1.959-0.58,2.938-0.869
					c2.188-0.896,4.094-2.207,5.718-3.932c0.79-1.205,1.58-2.41,2.37-3.617c1.355-2.784,2.234-5.71,2.639-8.779
					c0.476-2.215,0.134-6.994,0.05-9.268c-0.209-5.555-1.239-11.096-1.598-16.651c-0.321-4.987-0.431-9.982-0.527-14.977
					c-0.275-14.22-0.192-28.453-0.21-42.676c-0.054-42.21-0.033-84.419-0.023-126.629c0.159-627.491,1.159-1254.979,1.513-1882.469
					c0.053-93.111,0.107-186.223,0.044-279.334c-0.017-24.006-0.018-48.015-0.136-72.021c-0.194-39.405-0.005-78.808,0.079-118.213
					c0.063-29.977-0.209-59.958-0.24-89.935c-0.158-147.384,0.151-294.767-0.23-442.149c-0.12-45.849-0.479-91.695-0.587-137.542
					c-0.186-77.802-0.031-155.604,0.155-233.404c0.357-149.185,0.959-298.366,0.544-447.55c-0.001-0.713-1.264-0.008-1.263,0.453
					c0.446,162.138-0.28,324.273-0.635,486.41c-0.17,77.845-0.192,155.69,0.044,233.533c0.126,41.141,0.463,82.281,0.529,123.422
					c0.138,83.878,0.097,167.758,0.111,251.636c0.013,70.519-0.126,141.039,0.162,211.558c0.214,52.344-0.343,104.689,0.039,157.034
					c0.072,9.91,0.086,19.823,0.106,29.734c0.075,35.241,0.075,70.483,0.079,105.724c0.018,121.187-0.07,242.373-0.159,363.56
					c-0.246,340.187-0.598,680.375-0.909,1020.562c-0.248,270.57-0.587,541.141-0.51,811.711c0.004,16.408,0.013,32.816,0.05,49.226
					c0.029,12.614-0.064,25.253,0.46,37.859c0.2,4.815,0.608,9.606,1.006,14.409c0.301,3.616,0.457,7.18,0.465,10.808
					c-0.528,2.793-1.059,5.586-1.589,8.38c-0.96,2.629-2.365,4.995-4.213,7.096c-0.921,0.67-1.84,1.339-2.76,2.009
					c-3.697,1.708-7.544,2.649-11.535,2.82c-6.511,0.298-13.021,0.595-19.53,0.893c-13.021,0.563-26.046,1.06-39.073,1.487
					c-45.591,1.617-91.215,2.071-136.831,2.055c-39.079-0.014-78.149-0.932-117.206-2.162c-19.506-0.614-39.001-1.541-58.495-2.465
					c-10.525-0.5-14.681-1.857-22.611-0.686c-5.922,0.877-11.698,1.717-17.7,1.819c-3.802,0.065-7.423-0.628-11.105-1.463
					c-2.426-0.662-4.731-1.614-6.916-2.855c-1.963-1.279-3.671-2.836-5.122-4.676c-3.366-3.622-3.175-8.579-3.081-13.031
					c0.076-3.64,0.146-7.282,0.215-10.922c0.151-7.962,0.282-15.923,0.41-23.884c0.324-20.26,0.574-40.52,0.807-60.78
					c1.279-111.882,1.769-223.772,2.208-335.659c0.604-154.359,0.869-308.721,1.038-463.081
					c0.807-739.061-0.714-1478.124-2.551-2217.181c-0.49-197.285-0.989-394.569-1.655-591.853c-0.1-29.43-0.03-58.873-0.69-88.296
					c-0.148-6.607-0.436-13.215-0.93-19.805c-1.11-14.833-0.33-29.639,1.138-44.414c0.685-5.7,1.661-11.35,2.929-16.947
					c1.496-7.473,4.199-14.562,7.063-21.586c1.849-4.17,3.996-8.183,6.44-12.035c3.193-5.464,7.617-10.06,12.007-14.54
					c8.223-8.389,19.342-13.618,30.208-17.577c9.362-3.411,19.434-4.741,29.27-5.908c10.271-1.218,20.713-1.211,31.04-1.273
					c10.573-0.065,21.145,0.167,31.718,0.111c28.996-0.149,57.979,0.014,86.969,0.527c10.858,0.224,21.714,0.539,32.565,0.941
					c18.501,0.613,36.921,0.155,55.412-0.451c12.781-0.559,25.557-1.217,38.328-1.974c15.028-0.832,30.053-1.654,45.091-2.296
					c18.105,0.14,32.911,9.495,44.417,28.063c0.597,1.61,1.192,3.218,1.787,4.828c1.382,2.746,2.388,5.622,3.017,8.631
					C493.507,56.494,494.327,56.211,494.228,55.742z"/>
				<path opacity="0.1091" fill="#FFFFFF" d="M490.807,54.485c-0.119-1.577-0.24-3.152-0.359-4.727
					c-0.506-3.243-1.434-6.362-2.783-9.355c-1.799-4.844-5.328-8.833-8.631-12.676c-3.479-4.048-8.266-6.819-12.809-9.445
					c-4.835-2.794-10.295-3.907-15.681-5.015c-1.883-0.149-3.765-0.298-5.648-0.447c-8.396,0.165-16.788,0.479-25.174,0.944
					c-19.182,0.8-38.352,1.884-57.532,2.692c-18.495,0.779-36.936,0.674-55.436,0.271c-10.867-0.413-21.737-0.744-32.608-0.991
					c-11.375-0.26-22.75-0.446-34.128-0.555c-23.952-0.31-47.905-0.005-71.857-0.195c-12.537-0.1-25.036-0.079-37.558,0.613
					c-12.023,0.665-23.837,2.876-35.376,6.25c-5.596,1.634-10.795,4.21-15.967,6.839c-7.091,3.601-12.991,8.981-18.58,14.521
					c-4.555,4.514-7.898,10.14-11.178,15.578c-3.687,6.116-6.021,12.959-8.35,19.66c-2.741,7.884-3.931,16.306-5.237,24.507
					c-1.548,9.719-1.683,19.654-1.939,29.464c-0.266,10.198,0.616,20.472,0.908,30.67c0.282,9.811,0.34,19.628,0.423,29.441
					c0.162,19.271,0.213,38.544,0.287,57.817c0.093,24.495,0.383,49,0.184,73.495c-0.209,25.835,0.131,51.688,0.214,77.525
					c0.1,31.227,0.197,62.454,0.29,93.681c0.206,68.503,0.4,137.005,0.587,205.509c0.445,163.708,0.844,327.417,1.206,491.126
					c0.843,381.221,1.483,762.443,1.777,1143.665c0.27,351.948,0.341,703.898-0.639,1055.846
					c-0.354,127.1-0.831,254.197-1.857,381.292c-0.363,44.749-0.684,89.497-1.325,134.244c-0.232,16.2-0.509,32.4-0.839,48.6
					c-0.072,3.552-0.155,6.995,0.111,10.542c0.26,3.465,2.713,6.134,4.877,8.558c2.385,2.669,6.082,3.761,9.316,4.896
					c4.475,1.572,9.466,1.523,14.14,1.598c5.308,0.084,10.616-0.947,15.882-1.459c0.439,0,0.878,0,1.316,0
					c13.112,0.708,26.225,1.384,39.339,2.023c19.544,0.979,39.104,1.616,58.66,2.256c84.672,2.769,169.44,1.877,254.091-1.127
					c13.897-0.492,27.975-0.853,41.843-1.896c3.128-0.234,5.69-1.192,8.482-2.538c3.482-1.682,4.916-5.506,6.315-8.774
					c1.603-3.746,1.301-8.182,1.307-12.139c0.005-2.889-0.313-5.723-0.52-8.596c-0.166-2.309-0.133-4.636-0.222-6.948
					c-0.227-5.919-0.15-11.857-0.213-17.78c-0.346-32.961-0.143-65.936-0.159-98.899c-0.026-51.391,0.06-102.781,0.073-154.17
					c0.178-630.925,1.154-1261.849,1.529-1892.771c0.045-73.535-0.012-147.068-0.035-220.603
					c-0.012-32.569-0.277-65.137-0.204-97.708c0.152-68.221-0.079-136.438-0.131-204.659c-0.103-131.92,0.118-263.842-0.234-395.761
					c-0.144-54.217-0.501-108.432-0.568-162.649c-0.088-71.296,0.073-142.592,0.253-213.887
					c0.361-142.706,0.89-285.41,0.501-428.116c-0.504,0.212-0.906,0.559-1.208,1.043c-1.273,1.503-2.521,3.031-3.737,4.582
					c-1.233,1.538-2.438,3.098-3.614,4.68c-0.401,0.404-0.648,0.875-0.74,1.413c0.397,162.131-0.335,324.261-0.656,486.393
					c-0.153,77.861-0.147,155.723,0.103,233.584c0.063,19.499,0.165,38.996,0.196,58.495c0.015,8.854,0.28,17.332,0.05,26.065
					c-0.121,4.645-0.023,9.279,0.159,13.921c0.328,8.303,0.139,16.606,0.093,24.915c-0.463,83.769-0.245,167.544-0.202,251.315
					c0.022,41.441,0.065,82.881,0.197,124.323c0.051,16.326,0.13,32.651,0.286,48.975c0.061,6.338,0,12.615-0.319,18.944
					c0.067,3.612,0.138,7.224,0.21,10.836c0.103,3.002,0.206,6.003,0.312,9.005c-0.036,1.153-0.073,2.306-0.109,3.459
					c-0.256,7.261-0.266,14.523-0.032,21.79c0.058,18.292-0.04,36.586-0.094,54.877c-0.054,18.306-0.066,36.611-0.047,54.917
					c0.01,10.031,1.026,14.288,0.187,21.853c-0.187,1.676,0.026,3.535,0.037,5.221c0.016,2.049-0.018,4.093-0.048,6.14
					c-0.092,6.157,0.022,12.298,0.186,18.453c0.173,6.53-0.096,13.106-0.133,19.639c-0.045,7.772-0.068,15.542-0.096,23.314
					c-0.075,20.77-0.109,41.54-0.144,62.31c-0.02,11.375-0.231,22.762,0.226,34.128c0.498,12.343,0.207,24.723,0.181,37.074
					c-0.063,29.754-0.113,59.51-0.159,89.265c-0.106,67.744-0.19,135.486-0.272,203.229
					c-0.414,340.151-0.749,680.302-1.018,1020.452c-0.124,159.044-0.233,318.085-0.239,477.129
					c-0.003,63.657,0.016,127.313,0.092,190.97c0.015,13.106,0.034,26.213,0.061,39.318c0.013,6.156,0.018,12.297-0.149,18.45
					c-0.115,1.88-0.229,3.759-0.345,5.639c0.004,3.94,0.01,7.882,0.016,11.823c0.03,22.828,0.077,45.656,0.157,68.482
					c0.059,16.47,0.317,32.945,0.236,49.414c-0.031,6.38-0.171,12.741-0.106,19.121c0.062,6.018,0.228,12.049-0.012,18.063
					c-0.082,2.067-0.185,4.133-0.292,6.199c-0.069,1.338-0.705,2.883-1.063,4.173c-0.502,1.816-0.586,3.661-0.949,5.522
					c-0.265,0.698-0.528,1.396-0.794,2.095c-0.261,1.471-0.897,2.756-1.909,3.854c-1.254,1.814-4.222,2.388-6.163,2.786
					c-2.679,0.549-5.311,0.68-8.035,0.77c-19.482,0.645-38.955,1.583-58.439,2.226c-25.983,0.856-51.979,1.249-77.975,1.575
					c-78.05,0.981-156.09-1.104-234.042-4.876c-9.583-0.464-18.791-0.288-28.218-1.323c-4.702-0.518-9.575-1.86-13.564-4.421
					c-0.445-0.474-0.89-0.947-1.335-1.421c-1.104-0.974-1.937-2.144-2.494-3.51c-0.227-0.801-0.456-1.603-0.683-2.402
					c-0.48-2.021-0.641-4.066-0.479-6.141c-0.039-7.313,0.343-14.654,0.494-21.968c0.393-18.956,0.681-37.913,0.945-56.87
					c0.293-21.051,0.524-42.104,0.747-63.155c0.063-5.781,0.1-11.563,0.137-17.346c0.04-6.169-0.403-12.327-0.342-18.504
					c0.144-14.652,0.27-29.305,0.392-43.956c0.504-60.265,0.844-120.528,1.135-180.792c0.729-151.457,1.052-302.917,1.267-454.374
					c0.532-373.441,0.252-746.882-0.241-1120.322c-0.483-366.407-1.236-732.814-2.242-1099.218
					c-0.336-122.658-0.708-245.314-1.147-367.971c-0.179-50.06-0.374-100.119-0.597-150.179
					c-0.047-10.637-0.096-21.274-0.152-31.909c-0.03-5.938,0.126-11.818,0.471-17.743c-0.008-1.999-0.017-3.999-0.025-5.997
					c-0.015-3.934-0.032-7.867-0.048-11.801c-0.086-20.055-0.177-40.11-0.274-60.166c-0.076-15.827-0.161-31.653-0.234-47.48
					c-0.068-14.503-0.573-29.104,0.369-43.583c0.367-4.577,0.53-9.164,0.489-13.759c0.231-9.273,1.569-18.428,3.04-27.564
					c0.96-5.184,2.221-10.292,3.783-15.328c1.761-6.307,4.662-11.928,7.982-17.512c1.903-3.466,4.09-6.74,6.561-9.827
					c3.25-4.429,7.435-7.967,11.612-11.463c4.031-3.373,8.871-5.749,13.534-8.074c4.806-2.396,10.028-3.849,15.158-5.338
					c3.607-0.916,7.243-1.693,10.909-2.33c5.917-1.146,11.985-1.845,17.96-2.607c4.007-0.266,8.017-0.451,12.03-0.558
					c6.188-0.226,12.392-0.172,18.583-0.165c10.434,0.014,20.9-0.053,31.321,0.468c5.886,0.001,11.771,0.003,17.658,0.004
					c11.639,0.03,23.279,0.128,34.917,0.292c16.775,0.188,33.545,0.696,50.313,1.19c11.347,0.412,22.696,0.738,34.049,0.979
					c18.361,0.463,36.791-0.256,55.146-0.696c18.281-0.438,36.542-0.819,54.827-0.945c4.46-0.032,8.557,1.261,12.738,2.617
					c2.597,1.103,5.069,2.435,7.423,3.992c3.576,2.143,6.382,5.562,8.97,8.732c2.698,3.305,4.2,7.185,5.637,11.134
					c1.461,4.021,1.45,8.482,1.443,12.681c0.515-0.173,0.939-0.487,1.273-0.945c1.372-1.399,2.717-2.824,4.034-4.273
					c1.335-1.437,2.64-2.896,3.919-4.38C490.399,55.462,490.679,55.013,490.807,54.485z"/>
				<path opacity="0.1091" fill="#FFFFFF" d="M490.473,55.709c-0.119-1.557-0.238-3.116-0.357-4.673
					c-0.515-3.217-1.438-6.312-2.768-9.286c-1.79-4.837-5.313-8.836-8.603-12.678c-3.485-4.069-8.254-6.867-12.799-9.534
					c-4.832-2.837-10.332-3.996-15.73-5.138c-1.895-0.169-3.788-0.338-5.683-0.507c-8.442,0.098-16.877,0.393-25.308,0.883
					c-19.225,0.773-38.44,1.873-57.666,2.689c-18.512,0.786-36.969,0.698-55.487,0.308c-10.87-0.401-21.742-0.727-32.617-0.976
					c-11.378-0.257-22.756-0.44-34.135-0.548c-23.956-0.308-47.912-0.004-71.868-0.188c-12.542-0.097-25.042-0.079-37.569,0.606
					c-12.051,0.66-23.906,2.884-35.477,6.245c-5.625,1.633-10.857,4.209-16.06,6.837c-7.154,3.614-13.12,9.005-18.77,14.572
					c-4.616,4.55-8.009,10.209-11.344,15.694c-3.751,6.169-6.126,13.098-8.483,19.868c-2.771,7.957-3.967,16.461-5.279,24.738
					c-1.553,9.787-1.673,19.792-1.918,29.668c-0.254,10.284,0.676,20.631,1.001,30.913c0.31,9.826,0.376,19.663,0.465,29.492
					c0.176,19.275,0.222,38.55,0.293,57.825c0.093,24.496,0.373,49.001,0.186,73.496c-0.198,25.84,0.146,51.696,0.226,77.538
					c0.1,31.225,0.194,62.451,0.287,93.676c0.203,68.5,0.396,137.002,0.581,205.503c0.443,163.706,0.842,327.414,1.202,491.12
					c0.84,381.22,1.481,762.441,1.773,1143.662c0.271,351.95,0.342,703.901-0.635,1055.85
					c-0.352,127.102-0.826,254.202-1.849,381.301c-0.36,44.742-0.701,89.483-1.34,134.225c-0.231,16.202-0.507,32.402-0.836,48.602
					c-0.072,3.559-0.152,7.005,0.118,10.557c0.269,3.527,2.79,6.266,5,8.724c2.464,2.741,6.348,3.89,9.679,5.05
					c4.646,1.619,9.867,1.496,14.713,1.521c5.427,0.028,10.854-1.159,16.229-1.775c0.444-0.006,0.889-0.011,1.333-0.017
					c13.119,0.65,26.236,1.308,39.353,1.971c19.541,0.984,39.1,1.608,58.654,2.245c84.675,2.755,169.448,1.841,254.099-1.183
					c13.894-0.495,27.989-0.836,41.849-1.914c3.139-0.243,5.694-1.225,8.481-2.599c3.505-1.728,4.926-5.706,6.288-9.018
					c1.56-3.79,1.263-8.361,1.282-12.354c0.014-2.92-0.337-5.766-0.566-8.667c-0.183-2.321-0.176-4.653-0.322-6.978
					c-0.374-5.914-0.375-11.854-0.459-17.774c-0.462-32.96-0.188-65.944-0.209-98.906c-0.033-51.38,0.076-102.761,0.088-154.142
					c0.131-630.923,1.114-1261.845,1.53-1892.768c0.049-73.533-0.043-147.065-0.036-220.598c0.002-32.577-0.282-65.148-0.211-97.724
					c0.147-68.227-0.076-136.448-0.136-204.674c-0.116-131.917-0.032-263.836-0.23-395.753
					c-0.081-54.212-0.498-108.424-0.564-162.636c-0.087-71.295,0.073-142.592,0.255-213.887
					c0.361-142.705,0.889-285.409,0.501-428.114c-0.369,0.058-0.663,0.254-0.882,0.592c-0.866,0.944-1.705,1.911-2.518,2.904
					c-0.653,0.786-2.82,2.733-2.818,3.978c0.409,162.131-0.322,324.262-0.653,486.395c-0.157,77.857-0.159,155.714,0.089,233.572
					c0.063,19.499,0.166,38.999,0.211,58.498c0.021,8.821,0.27,17.343,0.074,26.07c-0.104,4.644-0.039,9.269,0.129,13.912
					c0.299,8.309,0.134,16.616,0.096,24.93c-0.384,83.762-0.198,167.529-0.159,251.292c0.02,41.443,0.058,82.887,0.171,124.33
					c0.046,16.327,0.118,32.654,0.247,48.981c0.05,6.329,0.04,12.604-0.269,18.925c0.055,3.609,0.11,7.218,0.169,10.828
					c0.1,3.019,0.2,6.038,0.303,9.056c-0.032,1.15-0.063,2.299-0.096,3.449c-0.223,7.258-0.229,14.52-0.017,21.782
					c0.062,18.291-0.038,36.582-0.097,54.872c-0.057,18.296-0.072,36.594-0.077,54.891c0.114,6.778,0.229,13.557,0.345,20.335
					c-0.06,0.512-0.111,1.024-0.152,1.538c0.093,9.95-0.073,19.888,0.174,29.837c0.164,6.53-0.078,13.098-0.109,19.631
					c-0.037,7.768-0.057,15.537-0.08,23.304c-0.063,20.767-0.09,41.533-0.12,62.3c-0.017,11.376-0.218,22.766,0.188,34.135
					c0.439,12.353,0.184,24.735,0.161,37.095c-0.055,29.753-0.1,59.506-0.141,89.258c-0.097,67.74-0.176,135.48-0.252,203.22
					c-0.387,340.148-0.729,680.297-1.002,1020.444c-0.129,159.046-0.242,318.092-0.262,477.139
					c-0.007,63.66,0.001,127.32,0.063,190.979c0.012,13.107,0.03,26.214,0.05,39.321c0.02,11.973-0.425,23.913-0.411,35.881
					c0.024,22.831,0.066,45.662,0.136,68.493c0.051,16.483,0.237,32.966,0.226,49.448c-0.005,6.385-0.136,12.755-0.063,19.141
					c0.072,6.148,0.14,12.299,0.291,18.446c0.054,2.247,0.1,4.497,0.14,6.745c0.028,1.641-0.458,3.484-0.706,5.107
					c-0.357,2.342-0.56,4.665-0.972,7.003c-0.479,2.716-1.79,5.174-3.306,7.409c-1.45,2.139-4.296,2.869-6.598,3.424
					c-2.69,0.649-5.396,0.766-8.145,0.888c-45.489,2-90.977,3.291-136.507,3.895c-78.057,1.034-156.138-0.896-234.096-4.764
					c-9.881-0.49-19.541-0.243-29.354-0.497c-5.853-0.15-11.715-1.393-16.731-4.467c-2.011-1.232-3.471-3.551-4.635-5.506
					c-1.502-2.524-1.393-6.031-1.433-8.816c-0.104-7.309,0.342-14.669,0.491-21.976c0.391-18.96,0.677-37.92,0.94-56.883
					c0.292-21.054,0.526-42.108,0.745-63.163c0.06-5.773,0.111-11.547,0.162-17.319c0.054-6.151-0.367-12.297-0.307-18.454
					c0.142-14.654,0.267-29.309,0.387-43.964c0.496-60.27,0.833-120.54,1.121-180.811c0.723-151.463,1.042-302.929,1.255-454.392
					c0.525-373.443,0.248-746.887-0.244-1120.329c-0.483-366.399-1.233-732.799-2.226-1099.198
					c-0.333-122.648-0.697-245.296-1.126-367.945c-0.174-50.052-0.364-100.104-0.577-150.156
					c-0.044-10.633-0.091-21.265-0.143-31.899c-0.029-5.963,0.06-11.865,0.408-17.819c-0.008-1.999-0.017-3.998-0.025-5.996
					c-0.015-3.932-0.032-7.866-0.048-11.798c-0.083-20.053-0.172-40.104-0.269-60.158c-0.076-15.831-0.165-31.663-0.269-47.494
					c-0.047-7.056-0.106-14.112-0.184-21.168c-0.083-7.643-0.318-15.294-0.005-22.935c0.235-4.678,0.331-9.361,0.285-14.046
					c0.123-9.473,1.342-18.843,2.692-28.198c0.898-5.35,2.098-10.628,3.602-15.84c0.772-2.357,1.544-4.715,2.317-7.073
					c1.438-4.039,3.313-7.863,5.625-11.47c1.922-3.647,4.129-7.114,6.62-10.398c3.268-4.687,7.56-8.478,11.827-12.202
					c8.248-7.198,18.91-11.202,29.205-14.347c3.64-0.991,7.316-1.818,11.03-2.486c5.923-1.2,12.004-1.916,17.992-2.695
					c4.025-0.291,8.053-0.495,12.086-0.614c6.202-0.25,12.418-0.204,18.623-0.204c10.46,0.001,20.954-0.063,31.403,0.383
					c5.892-0.005,11.784-0.011,17.678-0.017c11.654,0.015,23.308,0.096,34.962,0.24c16.797,0.162,33.591,0.637,50.382,1.108
					c11.366,0.399,22.733,0.696,34.104,0.892c18.488,0.407,37.046-0.468,55.52-1.055c18.656-0.592,37.296-1.192,55.961-1.528
					c4.909-0.088,9.402,1.092,14.054,2.474c2.889,1.085,5.637,2.454,8.242,4.104c3.958,2.234,7.073,5.769,10.019,9.129
					c2.969,3.388,4.703,7.511,6.341,11.632c1.613,4.06,1.729,8.511,1.796,12.795c0.368-0.018,0.676-0.182,0.922-0.493
					c0.94-0.839,1.854-1.707,2.742-2.6C487.868,58.815,490.555,56.768,490.473,55.709z"/>
				<path opacity="0.1091" fill="#FFFFFF" d="M493.193,52.905c-0.538-5.989-0.147-3.629-1.597-9.525
					c-1.246-5.069-4.339-9.457-7.264-13.649c-3.141-4.501-7.671-7.788-12.021-10.988c-4.588-3.376-10.155-5.132-15.503-6.809
					c-5.736-1.799-11.786-1.625-17.697-1.468c-19.436,0.515-38.883,1.906-58.296,2.923c-18.845,0.987-37.66,1.457-56.526,1.643
					c-11.424-0.148-22.841-0.443-34.256-0.884c-11.144-0.327-22.288-0.572-33.436-0.736c-27.585-0.507-55.176-0.265-82.763-0.278
					c-12.604-0.007-25.177-0.205-37.777,0.235c-12.247,0.428-24.28,2.187-36.186,5.027c-9.707,2.317-18.548,6.613-27,11.768
					c-5.258,3.206-9.648,7.529-13.974,11.845c-4.752,4.74-8.233,10.598-11.643,16.307c-2.348,3.93-4.209,8.788-5.961,12.984
					c-1.026,2.458-1.852,5.011-2.542,7.585c-2.597,9.682-1.718,6.028-3.797,16.072c-2.637,12.742-2.879,25.953-3.132,38.904
					c-0.205,10.435,0.935,20.881,1.307,31.307c0.299,8.364,0.391,16.736,0.486,25.106c0.235,20.724,0.265,41.454,0.338,62.179
					c0.954,268.39,1.554,536.782,2.171,805.172c0.867,376.114,1.545,752.229,1.933,1128.343
					c0.374,362.621,0.521,725.243-0.194,1087.864c-0.274,138.365-0.678,276.731-1.499,415.095
					c-0.53,89.508-1.038,179.033-2.806,268.528c-0.072,3.606-0.146,7.051,0.192,10.644c0.253,2.703,1.682,4.407,3.063,6.604
					c2.115,3.365,5.869,5.197,9.283,6.83c3.69,1.762,8.001,2.145,11.998,2.533c5.769,0.563,11.787-0.369,17.463-1.269
					c2.265-0.358,4.512-0.799,6.778-1.145c6.97-0.468,13.943-0.158,20.92,0.927c13.03,0.682,26.063,1.285,39.1,1.813
					c78.156,3.399,156.44,3.512,234.64,1.894c19.548-0.404,39.088-1.11,58.625-1.814c6.512-0.27,13.023-0.539,19.534-0.807
					c7.47-0.084,14.921-0.467,22.352-1.15c3.202-0.278,5.8-1.292,8.643-2.705c2.503-1.244,3.73-3.59,5.246-5.761
					c0.57-1.356,1.139-2.711,1.709-4.067c0.938-2.911,1.393-5.895,1.363-8.953c0.259-3.705-0.206-7.564-0.668-11.238
					c-0.598-4.756-0.876-9.564-1.157-14.348c-0.743-12.637-0.47-25.354-0.521-38.006c-0.155-39.222-0.101-78.445-0.104-117.667
					c-0.023-293.189,0.375-586.382,0.647-879.572c0.308-331.59,0.657-663.179,0.879-994.768c0.066-99.35,0.073-198.699,0.06-298.049
					c-0.003-26.355-0.057-52.708-0.089-79.062c-0.034-29.36-0.174-58.716-0.067-88.078c0.137-37.39,0.011-74.779-0.095-112.168
					c-0.426-150.218-0.104-300.44-0.224-450.66c-0.033-41.223-0.451-82.445-0.577-123.668
					c-0.238-77.823-0.112-155.646,0.058-233.468c0.341-155.659,1.023-311.317,0.594-466.976c-0.001-0.862-1.318,0.786-1.255,0.711
					c-0.56,0.655-1.1,1.328-1.618,2.015c-0.314,0.341-0.547,0.727-0.697,1.16c0.433,162.134-0.298,324.268-0.644,486.402
					c-0.167,77.851-0.181,155.701,0.061,233.551c0.061,19.516,0.163,39.032,0.265,58.547c0.044,8.728,0.188,17.377,0.113,26.081
					c-0.039,4.627-0.023,9.245,0.069,13.872c0.167,8.308,0.091,16.616,0.08,24.926c-0.106,83.791-0.037,167.583-0.013,251.375
					c0.013,41.428,0.035,82.855,0.096,124.283c0.023,16.302,0.063,32.605,0.125,48.909c0.048,12.933-0.119,25.848,0.159,38.781
					c-0.013,1.163-0.024,2.325-0.036,3.486c-0.076,7.275-0.062,14.548,0.048,21.823c0.072,18.29-0.034,36.581-0.097,54.87
					c-0.063,18.292-0.097,36.586-0.099,54.878c0,8.778,0.719,14.418,0.142,21.835c-0.134,1.716,0.036,3.534,0.053,5.254
					c0.02,2.054,0.01,4.109,0.003,6.165c-0.023,6.143,0.001,12.278,0.095,18.421c0.221,14.326-0.044,28.677-0.058,43.004
					c-0.02,20.783-0.029,41.563-0.04,62.346c-0.014,23.708,0.176,47.411,0.153,71.12c-0.027,29.764-0.054,59.528-0.08,89.292
					c-0.061,67.753-0.119,135.508-0.182,203.261c-0.309,340.159-0.654,680.316-0.95,1020.476
					c-0.138,159.031-0.266,318.062-0.334,477.094c-0.027,63.643-0.044,127.285-0.032,190.928
					c0.012,47.923-0.181,95.835-0.107,143.759c0.024,16.471,0.046,32.941,0.153,49.411c0.083,12.518-0.353,25.138,0.637,37.631
					c0.41,5.164,0.915,10.318,1.311,15.484c0.725,9.434-0.396,20.216-10.525,24.521c-2.549,1.082-5.723,1.121-8.434,1.354
					c-6.504,0.296-13.007,0.594-19.511,0.892c-13.009,0.564-26.021,1.06-39.034,1.489c-45.554,1.619-91.139,2.076-136.717,2.061
					c-39.067-0.014-78.128-0.935-117.174-2.173c-19.522-0.619-39.032-1.559-58.541-2.496c-9.604-0.459-14.813-1.712-22.533-0.495
					c-2.367,0.374-4.725,0.813-7.088,1.203c-4.393,0.727-8.825,0.837-13.264,0.708c-3.768-0.107-7.241-1.235-10.761-2.453
					c-5.605-1.942-9.476-7.159-10.998-12.725c-0.893-3.266-0.26-7.333-0.194-10.667c0.076-3.717,0.143-7.433,0.212-11.147
					c0.148-8.112,0.277-16.224,0.403-24.336c0.317-20.567,0.564-41.135,0.793-61.706c1.251-112.878,1.744-225.766,2.173-338.648
					c0.588-155.056,0.854-310.11,1.015-465.166c0.764-738.808-0.743-1477.619-2.59-2216.423
					c-0.48-192.344-0.981-384.687-1.614-577.03c-0.098-29.846-0.029-59.702-0.595-89.543c-0.101-5.334-0.264-10.667-0.483-15.998
					c-0.096-2.623-0.234-5.243-0.415-7.861c-0.515-8.472-0.323-16.893-0.101-25.372c0.278-6.402,0.844-12.778,1.697-19.13
					c3.416-30.477,19.782-62.097,49.92-76.602c8.785-4.229,18.563-6.202,28.081-7.909c18.424-3.304,37.389-2.79,56.024-2.641
					c18.063,0.144,36.125,0.057,54.189,0.087c28.028,0.047,56.045,0.718,84.058,1.585c24.785,0.768,49.507-0.133,74.268-1.175
					c12.876-0.627,25.755-1.216,38.634-1.771c6.45-0.205,12.901-0.411,19.352-0.616c3.78-0.112,7.529,0.18,11.247,0.876
					c3.558,0.717,6.998,1.799,10.324,3.247c4.908,1.837,9.084,5.261,13.061,8.542c2.514,2.281,4.74,4.815,6.681,7.6
					c4.731,6.045,6.841,14.318,7.31,21.752c0.05,0.783,1.224-0.491,1.286-0.551c0.599-0.575,1.181-1.167,1.742-1.779
					C492.755,53.658,493.014,53.308,493.193,52.905z"/>
				<path opacity="0.1091" fill="#FFFFFF" d="M490.824,53.416c-0.118-1.582-0.234-3.166-0.352-4.748
					c-0.498-3.267-1.427-6.406-2.786-9.419c-1.812-4.883-5.366-8.908-8.692-12.782c-3.512-4.09-8.335-6.884-12.922-9.539
					c-4.879-2.822-10.401-3.935-15.84-5.041c-1.901-0.146-3.804-0.292-5.705-0.439c-8.435,0.201-16.865,0.535-25.29,1.001
					c-19.21,0.831-38.408,1.932-57.618,2.758c-18.504,0.794-36.952,0.695-55.461,0.295c-10.868-0.413-21.738-0.742-32.612-0.988
					c-11.376-0.259-22.754-0.441-34.133-0.548c-23.958-0.306-47.915,0.014-71.874-0.177c-12.539-0.1-25.039-0.076-37.562,0.627
					c-12.033,0.675-23.845,2.898-35.385,6.305c-5.603,1.654-10.803,4.253-15.975,6.907c-7.099,3.64-12.993,9.067-18.573,14.649
					c-4.55,4.553-7.881,10.215-11.15,15.689c-3.673,6.149-5.986,13.023-8.295,19.752c-2.717,7.917-3.895,16.356-5.188,24.582
					c-1.528,9.738-1.65,19.688-1.891,29.513c-0.25,10.206,0.656,20.485,0.965,30.691c0.296,9.812,0.357,19.632,0.443,29.448
					c0.169,19.274,0.219,38.549,0.292,57.822c0.093,24.489,0.404,48.991,0.179,73.478c-0.238,25.837,0.137,51.692,0.22,77.531
					c0.1,31.227,0.195,62.455,0.289,93.683c0.207,68.505,0.4,137.008,0.587,205.513c0.446,163.709,0.844,327.419,1.207,491.13
					c0.841,381.223,1.482,762.445,1.776,1143.667c0.27,351.946,0.34,703.895-0.641,1055.839
					c-0.354,127.094-0.83,254.191-1.859,381.281c-0.362,44.754-0.684,89.504-1.326,134.255c-0.232,16.198-0.509,32.396-0.84,48.592
					c-0.072,3.552-0.153,6.995,0.111,10.54c0.26,3.47,2.727,6.159,4.896,8.584c2.381,2.663,6.112,3.799,9.336,4.945
					c4.487,1.599,9.535,1.574,14.229,1.648c5.35,0.085,10.695-0.959,15.998-1.511c7.04,0.322,14.081,0.646,21.121,0.969
					c13.03,0.692,26.064,1.305,39.103,1.841c19.542,0.859,39.1,1.385,58.653,1.916c84.681,2.299,169.439,0.982,254.066-2.467
					c8.364-0.341,16.858-0.311,25.177-1.52c3.306-0.48,5.707-2.161,8.251-4.16c0.733-1.016,1.467-2.033,2.201-3.05
					c1.299-2.423,2.177-4.991,2.632-7.704c0.121-1.373,0.241-2.746,0.361-4.118c0.082-2.694,0.059-5.387-0.07-8.079
					c-0.067-2.377-0.367-4.77-0.471-7.15c-0.104-2.372-0.155-4.752-0.229-7.125c-0.194-6.093-0.194-12.195-0.246-18.289
					c-0.291-33.748-0.135-67.508-0.146-101.258c-0.02-52.057,0.058-104.116,0.073-156.175c0.176-630.85,1.205-1261.7,1.53-1892.55
					c0.038-72.298-0.001-144.597-0.043-216.896c-0.021-37.53-0.27-75.056-0.135-112.585c0.221-62.176-0.147-124.354-0.192-186.529
					c-0.098-131.921,0.1-263.843-0.234-395.762c-0.137-54.218-0.505-108.437-0.573-162.654
					c-0.087-71.295,0.073-142.591,0.255-213.886c0.361-142.706,0.889-285.409,0.5-428.116c-0.463,0.197-0.821,0.523-1.078,0.984
					c-1.103,1.418-2.176,2.859-3.22,4.322c-1.061,1.452-2.092,2.923-3.091,4.417c-0.357,0.387-0.555,0.832-0.595,1.333
					c0.403,162.131-0.328,324.263-0.655,486.394c-0.156,77.86-0.153,155.72,0.095,233.579c0.062,19.503,0.166,39.004,0.206,58.507
					c0.018,8.831,0.271,17.354,0.07,26.086c-0.108,4.638-0.033,9.261,0.136,13.895c0.302,8.303,0.132,16.605,0.093,24.913
					c-0.391,83.787-0.202,167.579-0.163,251.367c0.021,41.432,0.06,82.863,0.174,124.295c0.046,16.311,0.115,32.622,0.254,48.933
					c0.054,6.354,0.023,12.655-0.275,19.003c0.058,3.599,0.117,7.199,0.178,10.797c0.098,2.991,0.197,5.983,0.297,8.973
					c-0.032,1.16-0.064,2.32-0.098,3.479c-0.224,7.267-0.23,14.536-0.018,21.808c0.06,18.292-0.039,36.586-0.096,54.878
					c-0.055,18.301-0.07,36.602-0.063,54.902c0.003,9.737,0.969,14.309,0.186,21.844c-0.176,1.685,0.029,3.532,0.041,5.224
					c0.018,2.053-0.012,4.101-0.038,6.152c-0.08,6.148,0.015,12.281,0.166,18.428c0.162,6.542-0.08,13.123-0.112,19.667
					c-0.037,7.777-0.057,15.555-0.08,23.333c-0.063,20.778-0.093,41.558-0.123,62.337c-0.017,11.359-0.219,22.732,0.19,34.085
					c0.447,12.336,0.186,24.702,0.164,37.045c-0.058,29.763-0.102,59.525-0.145,89.287c-0.097,67.752-0.176,135.504-0.253,203.256
					c-0.391,340.157-0.729,680.313-1.002,1020.47c-0.129,159.035-0.242,318.068-0.261,477.103
					c-0.007,63.646,0.003,127.292,0.065,190.937c0.013,13.103,0.029,26.204,0.051,39.305c0.01,6.169,0.025,12.324-0.109,18.492
					c-0.106,1.893-0.213,3.789-0.321,5.683c0.005,3.94,0.01,7.88,0.015,11.82c0.024,22.818,0.067,45.638,0.138,68.456
					c0.05,16.46,0.262,32.924,0.224,49.384c-0.016,6.385-0.145,12.755-0.075,19.141c0.065,6.053,0.18,12.105,0.199,18.159
					c0.007,2.136,0.003,4.271-0.004,6.406c-0.006,1.514-0.494,3.204-0.757,4.694c-0.371,2.111-0.459,4.225-0.791,6.351
					c-0.383,2.45-1.532,4.785-2.85,6.828c-1.317,2.045-4.248,2.746-6.391,3.264c-2.674,0.646-5.37,0.75-8.103,0.863
					c-45.484,1.895-90.946,3.275-136.467,3.871c-78.066,1.021-156.14-0.982-234.107-4.799c-9.598-0.47-19.264-0.287-28.87-0.813
					c-5.411-0.294-10.9-1.564-15.552-4.383c-1.899-1.15-3.304-3.436-4.384-5.275c-1.455-2.479-1.327-5.997-1.365-8.721
					c-0.102-7.306,0.336-14.66,0.486-21.965c0.386-18.953,0.67-37.908,0.93-56.864c0.291-21.05,0.519-42.101,0.739-63.152
					c0.06-5.776,0.105-11.554,0.151-17.33c0.048-6.171-0.346-12.335-0.287-18.513c0.14-14.65,0.265-29.303,0.385-43.955
					c0.493-60.261,0.829-120.525,1.114-180.787c0.718-151.457,1.037-302.914,1.247-454.373
					c0.522-373.438,0.244-746.878-0.248-1120.317c-0.483-366.406-1.233-732.81-2.225-1099.214
					c-0.332-122.656-0.696-245.313-1.123-367.968c-0.174-50.06-0.362-100.119-0.576-150.178c-0.044-10.637-0.09-21.274-0.145-31.911
					c-0.032-5.935,0.083-11.819,0.401-17.746c-0.008-2-0.017-3.999-0.025-5.998c-0.016-3.934-0.032-7.867-0.047-11.801
					c-0.082-20.056-0.17-40.111-0.263-60.167c-0.075-15.834-0.157-31.668-0.238-47.502c-0.076-14.615-0.589-29.309,0.133-43.911
					c0.281-4.637,0.411-9.28,0.389-13.928c0.188-9.394,1.486-18.674,2.916-27.938c0.943-5.278,2.188-10.483,3.736-15.617
					c1.752-6.465,4.638-12.292,7.927-18.071c1.925-3.564,4.133-6.941,6.627-10.133c3.273-4.566,7.528-8.234,11.765-11.85
					c4.076-3.477,8.969-5.94,13.7-8.358c4.836-2.472,10.119-3.981,15.297-5.521c3.625-0.954,7.283-1.753,10.976-2.404
					c5.931-1.171,12.017-1.87,18.012-2.633c4.014-0.279,8.033-0.476,12.057-0.589c6.194-0.24,12.403-0.191,18.601-0.187
					c10.442,0.005,20.918-0.058,31.347,0.425c5.89-0.001,11.779-0.004,17.667-0.005c11.646,0.023,23.292,0.112,34.938,0.266
					c16.782,0.176,33.56,0.667,50.337,1.152c11.354,0.408,22.71,0.725,34.068,0.949c18.414,0.443,36.898-0.345,55.302-0.85
					c18.458-0.505,36.899-1.001,55.364-1.245c4.675-0.061,8.959,1.157,13.374,2.511c2.736,1.086,5.344,2.424,7.823,4.013
					c3.764,2.167,6.73,5.626,9.5,8.874c2.849,3.34,4.478,7.333,6.028,11.366c1.571,4.087,1.611,8.591,1.639,12.883
					c0.471-0.161,0.849-0.461,1.134-0.9c1.185-1.329,2.342-2.682,3.471-4.061c1.146-1.363,2.262-2.751,3.35-4.162
					C490.528,54.336,490.752,53.908,490.824,53.416z"/>
				<path opacity="0.1091" fill="#FFFFFF" d="M490.877,56.882c-0.132-1.542-0.263-3.083-0.395-4.625
					c-0.56-3.185-1.493-6.257-2.802-9.217c-1.785-4.819-5.297-8.825-8.564-12.663c-3.468-4.069-8.229-6.869-12.756-9.542
					c-4.812-2.842-10.3-4.008-15.68-5.16c-1.891-0.173-3.781-0.344-5.672-0.518c-8.432,0.081-16.858,0.375-25.279,0.883
					c-19.217,0.785-38.423,1.873-57.64,2.695c-23.757,1.016-47.519,0.585-71.274-0.199c-22.696-0.749-45.407-0.95-68.113-1.109
					c-20.24-0.143-40.478,0.033-60.719-0.133c-12.471-0.103-24.892,0.143-37.328,1.124c-10.069,0.794-20.006,2.974-29.682,5.773
					c-5.628,1.627-10.862,4.194-16.071,6.814c-7.164,3.604-13.147,8.984-18.815,14.542c-4.636,4.545-8.049,10.204-11.408,15.688
					c-3.783,6.18-6.188,13.123-8.566,19.913c-2.791,7.971-3.996,16.498-5.322,24.792c-1.565,9.806-1.696,19.833-1.949,29.73
					c-0.264,10.321,0.659,20.706,0.98,31.024c0.306,9.835,0.373,19.679,0.461,29.519c0.175,19.275,0.219,38.553,0.291,57.828
					c0.09,24.501,0.346,49.01,0.189,73.511c-0.165,25.841,0.148,51.695,0.229,77.538c0.097,31.224,0.191,62.448,0.284,93.672
					c0.202,68.5,0.395,136.999,0.579,205.498c0.441,163.705,0.838,327.409,1.198,491.114c0.839,381.22,1.48,762.439,1.773,1143.659
					c0.271,351.951,0.34,703.905-0.633,1055.855c-0.35,127.104-0.825,254.21-1.842,381.313c-0.358,44.737-0.71,89.473-1.347,134.208
					c-0.231,16.203-0.505,32.405-0.832,48.607c-0.072,3.561-0.152,7.01,0.119,10.564c0.271,3.558,2.792,6.318,5.012,8.811
					c2.487,2.791,6.413,3.949,9.791,5.125c4.71,1.637,9.996,1.489,14.905,1.479c5.462-0.013,10.907-1.249,16.311-1.895
					c0.444-0.006,0.888-0.012,1.333-0.017c13.112,0.685,26.224,1.354,39.335,2.011c19.543,0.988,39.105,1.612,58.663,2.251
					c84.678,2.757,169.454,1.832,254.106-1.202c13.89-0.498,27.995-0.825,41.849-1.924c3.157-0.25,5.695-1.257,8.479-2.674
					c3.517-1.788,4.909-5.873,6.235-9.231c1.506-3.818,1.109-8.455,1.078-12.452c-0.022-2.906-0.388-5.728-0.63-8.614
					c-0.192-2.301-0.163-4.617-0.317-6.924c-0.393-5.905-0.385-11.844-0.471-17.759c-0.19-13.318-0.106-26.64-0.14-39.958
					c-0.047-19.652-0.06-39.305-0.071-58.957c-0.035-51.374,0.081-102.748,0.091-154.123
					c0.128-630.922,1.098-1261.845,1.531-1892.769c0.05-73.532-0.052-147.063-0.036-220.597c0.007-32.578-0.282-65.153-0.213-97.73
					c0.146-68.231-0.076-136.455-0.139-204.684c-0.12-131.917-0.062-263.834-0.229-395.75
					c-0.069-54.208-0.495-108.417-0.562-162.625c-0.089-71.296,0.073-142.593,0.253-213.888
					c0.362-142.706,0.89-285.409,0.501-428.115c-0.342,0.005-0.628,0.154-0.855,0.447c-0.853,0.778-1.681,1.582-2.481,2.412
					c-0.598,0.609-2.803,2.299-2.8,3.39c0.409,162.131-0.323,324.263-0.652,486.396c-0.158,77.855-0.158,155.711,0.089,233.567
					c0.063,19.498,0.166,38.994,0.212,58.491c0.021,8.81,0.267,17.337,0.078,26.057c-0.101,4.649-0.037,9.279,0.125,13.926
					c0.289,8.313,0.13,16.625,0.094,24.941c-0.368,83.747-0.188,167.499-0.149,251.247c0.02,41.449,0.056,82.9,0.166,124.351
					c0.045,16.338,0.114,32.676,0.24,49.014c0.048,6.31,0.042,12.569-0.258,18.874c0.053,3.617,0.106,7.233,0.162,10.85
					c0.097,3.035,0.196,6.071,0.297,9.106c-0.031,1.144-0.062,2.287-0.094,3.43c-0.217,7.252-0.222,14.507-0.013,21.764
					c0.062,18.289-0.038,36.58-0.095,54.87c-0.058,18.295-0.074,36.589-0.081,54.884c0.115,6.801,0.23,13.603,0.345,20.404
					c-0.163,1.035-0.209,2.075-0.138,3.121c0.035,3.996,0.019,7.986-0.031,11.981c-0.08,6.419,0.209,12.831,0.168,19.247
					c-0.231,35.862-0.234,71.726-0.285,107.588c-0.017,11.682,0.003,23.331,0.402,35.007c0.208,6.069-0.023,12.201-0.036,18.274
					c-0.011,6.332-0.021,12.665-0.033,18.997c-0.054,30.067-0.095,60.133-0.137,90.199c-0.096,68.232-0.172,136.466-0.246,204.698
					c-0.38,340.638-0.724,681.275-0.997,1021.913c-0.127,158.4-0.237,316.801-0.26,475.201c-0.009,63.119,0,126.238,0.065,189.357
					c0.014,12.958,0.028,25.914,0.052,38.871c0.012,5.922-0.084,11.79-0.42,17.701c0.002,1.985,0.004,3.971,0.007,5.956
					c0.002,3.887,0.008,7.773,0.012,11.659c0.028,22.456,0.071,44.913,0.139,67.37c0.085,28.308,0,56.614,0.388,84.919
					c0.029,2.113,0.089,4.125-0.215,6.218c-0.236,1.635-0.541,3.257-0.856,4.879c-0.086,0.898-0.173,1.797-0.261,2.696
					c-0.23,1.879-0.711,3.694-1.441,5.442c-0.323,0.827-0.646,1.655-0.968,2.483c-0.865,1.67-2.1,2.999-3.702,3.987
					c-1.839,1.51-4.878,1.677-7.091,2.095c-0.914,0.085-1.826,0.171-2.739,0.257c-7.409,0.315-14.817,0.64-22.224,0.97
					c-45.481,1.99-91.006,2.826-136.526,3.192c-39.026,0.313-78.054-0.269-117.068-1.156c-19.512-0.442-39.014-1.19-58.513-1.938
					c-6.5-0.285-13-0.569-19.498-0.854c-13.26-0.847-26.533-1.307-39.819-1.378c-3.806-0.078-7.602,0.016-11.405-0.215
					c-2.57-0.156-5.089-0.65-7.588-1.239c-1.561-0.531-3.107-1.103-4.64-1.714c-1.438-0.684-2.69-1.617-3.755-2.803
					c-4.675-4.27-4.425-10.28-4.284-16.117c0.181-7.482,0.335-14.968,0.483-22.453c0.379-19.285,0.663-38.57,0.925-57.857
					c0.289-21.333,0.518-42.666,0.735-64c0.122-12.035-0.244-24.049-0.13-36.084c0.139-14.805,0.262-29.609,0.379-44.413
					c0.486-60.753,0.817-121.507,1.102-182.262c0.714-152.192,1.02-304.387,1.228-456.58
					c0.509-373.977,0.223-747.955-0.274-1121.932c-0.487-365.711-1.238-731.421-2.234-1097.131
					c-0.332-121.992-0.693-243.984-1.121-365.975c-0.173-49.641-0.361-99.282-0.571-148.923
					c-0.046-10.526-0.099-21.052-0.139-31.579c-0.019-3.909,0.119-7.812,0.417-11.708c-0.008-1.999-0.017-3.997-0.023-5.996
					c-0.017-3.932-0.032-7.864-0.048-11.796c-0.082-20.047-0.17-40.095-0.267-60.142c-0.076-15.823-0.165-31.647-0.274-47.471
					c-0.05-7.048-0.114-14.094-0.202-21.141c-0.097-7.638-0.368-15.284-0.094-22.918c0.206-4.681,0.285-9.365,0.237-14.051
					c0.098-9.46,1.276-18.822,2.583-28.172c0.871-5.347,2.042-10.627,3.512-15.843c0.757-2.361,1.514-4.722,2.271-7.085
					c1.42-4.083,3.288-7.95,5.599-11.599c1.9-3.666,4.085-7.154,6.556-10.462c3.242-4.722,7.517-8.555,11.771-12.318
					c8.22-7.276,18.888-11.353,29.199-14.547c3.642-1.008,7.32-1.851,11.04-2.524c7.723-1.585,15.855-2.542,23.684-3.041
					c10.313-0.658,20.691-0.497,31.018-0.436c14.274,0.084,28.535,0.303,42.811,0.282c33.827-0.047,67.638,0.764,101.446,1.812
					c24.653,0.764,49.263,0.079,73.908-0.741c18.725-0.624,37.431-1.268,56.162-1.651c5-0.101,9.572,1.074,14.313,2.478
					c2.944,1.092,5.74,2.482,8.387,4.169c4.021,2.277,7.174,5.859,10.166,9.278c2.991,3.416,4.742,7.611,6.397,11.761
					c1.605,4.025,1.788,8.465,1.904,12.72c0.006,0.244,3.671-2.502,3.579-2.428C488.229,59.525,490.956,57.803,490.877,56.882z"/>
				<path opacity="0.1091" fill="#FFFFFF" d="M491.666,51.692c-0.526-5.96-0.162-3.732-1.582-9.609
					c-1.22-5.045-4.324-9.43-7.23-13.596c-3.124-4.478-7.634-7.744-11.963-10.919c-4.554-3.34-10.071-5.066-15.375-6.714
					c-5.676-1.765-11.662-1.564-17.506-1.38c-19.451,0.609-38.902,1.912-58.336,2.926c-18.824,0.984-37.62,1.439-56.466,1.612
					c-11.418-0.155-22.831-0.457-34.24-0.905c-11.144-0.33-22.29-0.577-33.437-0.743c-27.591-0.515-55.185-0.25-82.775-0.292
					c-12.602-0.02-25.174-0.205-37.772,0.239c-12.201,0.432-24.188,2.188-36.046,5.034c-5.741,1.378-11.171,3.655-16.567,5.989
					c-7.344,3.177-13.679,8.044-19.715,13.189c-10.259,8.743-16.616,21.07-21.785,33.235c-3.173,7.47-4.745,15.611-6.418,23.502
					c-1.965,9.275-2.443,18.852-3.04,28.282c-0.792,12.526,0.194,25.033,0.736,37.54c0.422,9.73,0.493,19.48,0.601,29.217
					c0.48,43.261,0.427,86.531,0.566,129.794c0.914,287.707,1.597,575.417,2.231,863.124
					c0.839,380.901,1.477,761.801,1.783,1142.703c0.284,352.838,0.36,705.678-0.591,1058.516
					c-0.346,127.994-0.814,255.99-1.806,383.98c-0.352,45.311-0.723,90.621-1.351,135.928c-0.229,16.494-0.497,32.987-0.818,49.48
					c-0.069,3.556-0.146,7.111-0.222,10.667c-0.068,3.151,0.379,3.93,1.232,6.833c0.683,2.327,2.907,4.477,4.431,6.217
					c3.589,4.096,9.682,5.423,14.696,6.614c3.769,0.897,8.074,0.52,11.9,0.394c3.233-0.107,6.483-0.696,9.671-1.2
					c2.257-0.355,4.501-0.795,6.761-1.144c0.443-0.027,0.887-0.057,1.332-0.086c13.04,0.707,26.082,1.371,39.127,1.99
					c84.649,4.162,169.467,4.492,254.184,2.735c19.548-0.407,39.087-1.112,58.625-1.818c6.511-0.271,13.021-0.54,19.532-0.809
					c7.473-0.063,14.924-0.45,22.352-1.16c3.192-0.288,5.775-1.29,8.603-2.713c2.454-1.234,3.534-3.421,5.011-5.569
					c1.636-2.378,2.16-5.94,2.775-8.65c0.092-1.481,0.187-2.962,0.28-4.441c0.009-2.824-0.124-5.641-0.401-8.45
					c-0.359-4.884-1.045-9.747-1.388-14.639c-0.784-11.167-0.665-22.443-0.65-33.631c0.019-17.157-0.067-34.315-0.082-51.474
					c-0.043-47.272,0.03-94.544,0.039-141.815c0.106-630.353,1.143-1260.707,1.516-1891.06c0.05-83.273,0.028-166.545-0.006-249.818
					c-0.009-18.644-0.239-37.293-0.118-55.936c-0.14-12.51-0.184-25.021-0.135-37.532c0.002-18.166,0.107-36.333,0.173-54.499
					c0.078-22.118,0.117-44.243-0.109-66.361c-0.254-24.791-0.099-49.591-0.125-74.383c-0.144-139.773-0.11-279.549-0.245-419.324
					c-0.053-55.583-0.521-111.167-0.588-166.753c-0.086-71.294,0.077-142.587,0.259-213.881
					c0.364-142.707,0.892-285.412,0.498-428.118c-0.003-1.002-1.519,1.337-1.367,1.12c-0.614,0.893-1.206,1.799-1.776,2.72
					c-0.342,0.463-0.599,0.967-0.77,1.513c0.433,162.134-0.299,324.267-0.644,486.399c-0.166,77.854-0.18,155.708,0.063,233.561
					c0.06,19.513,0.163,39.025,0.248,58.538c0.037,8.745,0.209,17.394,0.122,26.109c-0.046,4.623-0.033,9.233,0.071,13.855
					c0.188,8.303,0.099,16.608,0.085,24.913c-0.138,83.81-0.057,167.622-0.029,251.432c0.013,41.419,0.036,82.839,0.103,124.259
					c0.026,16.29,0.07,32.581,0.137,48.87c0.054,12.93-0.143,25.837,0.175,38.765c-0.016,1.168-0.032,2.336-0.047,3.504
					c-0.103,7.279-0.089,14.558,0.038,21.837c0.071,18.292-0.036,36.585-0.098,54.877c-0.064,18.29-0.093,36.581-0.111,54.872
					c-0.008,8.767,0.739,14.406,0.161,21.833c-0.133,1.71,0.037,3.524,0.054,5.239c0.02,2.058,0.008,4.115-0.003,6.172
					c-0.029,6.136,0.002,12.262,0.105,18.396c0.242,14.341-0.057,28.713-0.073,43.055c-0.023,20.792-0.036,41.584-0.05,62.376
					c-0.016,23.684,0.2,47.359,0.176,71.042c-0.031,29.772-0.059,59.543-0.088,89.315c-0.063,67.762-0.124,135.525-0.188,203.288
					c-0.318,340.164-0.665,680.329-0.957,1020.493c-0.137,159.022-0.263,318.045-0.326,477.067
					c-0.025,63.632-0.039,127.264-0.02,190.895c0.014,47.938-0.205,95.866-0.123,143.807c0.027,16.452,0.069,32.903,0.166,49.354
					c0.039,6.391-0.042,12.775,0.039,19.166c0.075,6.075,0.052,12.238,0.655,18.285c0.43,4.302,0.924,8.596,1.406,12.892
					c0.514,4.563,0.646,8.679,0.259,13.221c-0.328,1.256-0.655,2.51-0.982,3.764c-1.488,4.758-4.332,7.824-8.536,9.203
					c-2.509,1.124-5.749,1.158-8.436,1.403c-6.503,0.299-13.007,0.599-19.511,0.897c-13.009,0.565-26.021,1.064-39.035,1.494
					c-45.556,1.627-91.146,2.09-136.725,2.078c-39.077-0.01-78.146-0.931-117.198-2.174c-19.532-0.621-39.052-1.567-58.571-2.508
					c-9.711-0.466-14.788-1.766-22.528-0.557c-2.388,0.374-4.767,0.814-7.153,1.203c-4.5,0.733-9.028,0.788-13.569,0.584
					c-3.961-0.177-7.389-1.546-11.001-3.033c-5.563-2.294-8.963-7.806-10.283-13.478c-0.068-1.175-0.134-2.352-0.201-3.526
					c0.051-2.34,0.101-4.679,0.149-7.018c0.078-3.703,0.147-7.405,0.217-11.107c0.154-8.089,0.285-16.178,0.414-24.267
					c0.325-20.531,0.579-41.064,0.811-61.599c1.279-112.922,1.68-225.86,2.121-338.788c0.604-155.011,0.876-310.024,1.042-465.035
					c0.788-738.822-0.713-1477.648-2.609-2216.467c-0.293-114.329-0.608-228.658-0.951-342.987
					c-0.26-86.66-0.4-173.317-0.747-259.976c-0.063-15.624-0.127-31.248-0.262-46.872c-0.119-13.646-0.559-27.275-0.815-40.916
					c-0.125-4.987-0.138-9.975-0.04-14.963c0.031-9.905,1.21-19.711,2.522-29.506c0.893-5.669,2.108-11.267,3.647-16.795
					c1.78-7.168,4.756-13.822,8.09-20.363c2.055-3.945,4.397-7.711,7.027-11.297c3.429-5.064,8.014-9.214,12.533-13.256
					c8.565-7.661,19.585-12.091,30.36-15.537c9.463-3.027,19.636-4.155,29.452-5.372c4.054-0.324,8.112-0.557,12.178-0.698
					c6.219-0.285,12.458-0.249,18.683-0.26c10.48-0.021,20.991-0.033,31.467,0.271c11.767-0.057,23.533-0.055,35.3,0.004
					c17.145,0.042,34.286,0.365,51.427,0.707c10.843,0.27,21.685,0.579,32.524,0.929c18.397,0.559,36.727,0.219,55.121-0.271
					c12.617-0.457,25.233-0.971,37.846-1.544c14.472-0.624,29.051-1.547,43.537-1.188c3.487,0.291,6.902,0.955,10.243,1.992
					c4.909,1.24,9.266,4.046,13.449,6.753c4.132,2.676,7.259,6.543,10.283,10.333c4.7,5.891,6.667,14.04,7.079,21.319
					c0.053,0.929,1.482-1.059,1.426-0.988c0.663-0.826,1.307-1.668,1.928-2.524C491.177,52.688,491.464,52.212,491.666,51.692z"/>
				<path opacity="0.1091" fill="#FFFFFF" d="M490.631,56.048c-0.118-1.568-0.235-3.135-0.354-4.703
					c-0.502-3.218-1.423-6.312-2.763-9.282c-1.782-4.796-5.286-8.748-8.557-12.551c-3.444-4.007-8.174-6.758-12.664-9.372
					c-4.771-2.776-10.172-3.906-15.491-5.027c-1.863-0.162-3.725-0.322-5.588-0.484c-8.361,0.1-16.717,0.384-25.068,0.85
					c-19.16,0.746-38.311,1.812-57.471,2.598c-18.492,0.76-36.928,0.655-55.424,0.251c-10.865-0.409-21.734-0.738-32.606-0.987
					c-11.372-0.263-22.747-0.45-34.122-0.562c-23.949-0.314-47.898-0.031-71.847-0.216c-12.536-0.095-25.033-0.083-37.555,0.595
					c-12.022,0.651-23.849,2.854-35.4,6.182c-5.6,1.612-10.811,4.159-15.997,6.758c-7.109,3.564-13.048,8.895-18.677,14.396
					c-4.59,4.487-7.975,10.087-11.298,15.509c-3.743,6.105-6.127,12.96-8.501,19.665c-2.793,7.891-4.007,16.344-5.342,24.561
					c-1.583,9.74-1.734,19.704-2.007,29.54c-0.285,10.244,0.584,20.569,0.872,30.814c0.277,9.82,0.336,19.649,0.418,29.473
					c0.159,19.272,0.209,38.546,0.281,57.819c0.091,24.501,0.347,49.011,0.192,73.513c-0.165,25.838,0.137,51.688,0.219,77.528
					c0.098,31.226,0.192,62.451,0.285,93.675c0.205,68.5,0.397,137,0.583,205.5c0.443,163.705,0.84,327.412,1.201,491.118
					c0.84,381.22,1.481,762.439,1.774,1143.66c0.271,351.951,0.342,703.906-0.634,1055.855
					c-0.352,127.104-0.826,254.208-1.846,381.309c-0.36,44.741-0.698,89.48-1.336,134.221c-0.231,16.202-0.505,32.404-0.833,48.607
					c-0.072,3.557-0.152,7.003,0.115,10.554c0.264,3.501,2.731,6.2,4.911,8.657c2.425,2.73,6.19,3.83,9.488,4.984
					c4.572,1.6,9.654,1.5,14.426,1.549c5.351,0.053,10.71-1.077,16.016-1.629c0.44-0.002,0.882-0.003,1.322-0.004
					c13.106,0.736,26.215,1.424,39.327,2.062c19.545,0.985,39.106,1.62,58.665,2.259c84.674,2.769,169.445,1.863,254.097-1.151
					c13.891-0.495,27.982-0.836,41.842-1.91c3.147-0.245,5.685-1.221,8.469-2.616c3.491-1.749,4.828-5.669,6.152-8.993
					c1.514-3.794,1.104-8.208,1.023-12.178c-0.059-2.847-0.422-5.619-0.674-8.447c-0.201-2.255-0.168-4.536-0.265-6.796
					c-0.251-5.878-0.146-11.784-0.215-17.668c-0.376-32.955-0.15-65.928-0.17-98.886c-0.032-51.386,0.072-102.771,0.083-154.155
					c0.143-630.923,1.125-1261.846,1.53-1892.77c0.048-73.533-0.033-147.066-0.037-220.6c-0.001-32.572-0.279-65.143-0.207-97.715
					c0.15-68.224-0.078-136.445-0.136-204.669c-0.112-131.919,0.091-263.839-0.232-395.759
					c-0.133-54.212-0.496-108.425-0.563-162.638c-0.088-71.296,0.071-142.594,0.253-213.891
					c0.362-142.704,0.889-285.408,0.501-428.113c-0.484,0.147-0.882,0.436-1.191,0.87c-1.267,1.301-2.507,2.627-3.719,3.979
					c-1.229,1.337-2.431,2.699-3.604,4.086c-0.4,0.349-0.65,0.772-0.749,1.269c0.397,162.131-0.336,324.261-0.656,486.391
					c-0.154,77.863-0.147,155.724,0.103,233.585c0.063,19.495,0.165,38.989,0.194,58.484c0.014,8.854,0.28,17.321,0.048,26.05
					c-0.124,4.652-0.021,9.294,0.165,13.942c0.329,8.306,0.137,16.609,0.09,24.921c-0.479,83.752-0.252,167.512-0.208,251.265
					c0.022,41.45,0.065,82.899,0.199,124.349c0.053,16.338,0.136,32.676,0.294,49.013c0.063,6.32-0.007,12.579-0.328,18.889
					c0.072,3.623,0.144,7.245,0.216,10.867c0.103,3.015,0.208,6.029,0.313,9.044c-0.037,1.147-0.074,2.295-0.11,3.442
					c-0.262,7.253-0.272,14.51-0.034,21.771c0.057,18.292-0.039,36.584-0.093,54.875c-0.055,18.307-0.065,36.615-0.043,54.922
					c0.012,10.117,1.039,14.295,0.186,21.863c-0.19,1.676,0.024,3.539,0.035,5.224c0.015,2.044-0.019,4.086-0.05,6.13
					c-0.093,6.164,0.025,12.313,0.188,18.474c0.175,6.523-0.098,13.091-0.136,19.616c-0.045,7.765-0.07,15.529-0.098,23.294
					c-0.076,20.762-0.112,41.522-0.148,62.284c-0.02,11.387-0.227,22.789,0.235,34.168c0.501,12.352,0.209,24.741,0.183,37.102
					c-0.065,29.749-0.115,59.496-0.163,89.245c-0.109,67.735-0.194,135.472-0.277,203.208
					c-0.413,340.144-0.75,680.288-1.019,1020.434c-0.124,159.051-0.232,318.103-0.235,477.153
					c-0.001,63.667,0.017,127.335,0.096,191.001c0.017,13.109,0.036,26.221,0.063,39.33c0.013,6.147,0.014,12.277-0.16,18.423
					c-0.115,1.861-0.231,3.724-0.347,5.585c0.006,3.941,0.01,7.884,0.016,11.826c0.032,22.836,0.08,45.672,0.162,68.508
					c0.06,16.479,0.326,32.967,0.235,49.446c-0.036,6.375-0.179,12.732-0.118,19.11c0.059,6.018,0.218,12.06-0.098,18.072
					c-0.109,2.059-0.239,4.113-0.377,6.169c-0.086,1.307-0.694,2.785-1.056,4.04c-0.514,1.791-0.54,3.615-0.866,5.463
					c-0.252,0.691-0.504,1.383-0.756,2.074c-0.249,1.479-0.876,2.774-1.883,3.888c-1.234,1.818-4.17,2.396-6.103,2.797
					c-2.67,0.556-5.303,0.677-8.02,0.769c-19.481,0.65-38.954,1.583-58.437,2.226c-25.982,0.855-51.978,1.248-77.971,1.575
					c-78.032,0.982-156.063-1.07-233.998-4.877c-9.555-0.466-18.771-0.347-28.196-1.226c-4.739-0.443-9.647-1.737-13.648-4.342
					c-0.447-0.479-0.895-0.96-1.341-1.438c-1.101-0.977-1.925-2.149-2.476-3.517c-0.225-0.804-0.449-1.606-0.673-2.409
					c-0.48-2.024-0.64-4.076-0.475-6.153c-0.031-7.319,0.342-14.665,0.493-21.983c0.392-18.964,0.678-37.93,0.942-56.896
					c0.293-21.057,0.523-42.113,0.748-63.171c0.061-5.78,0.103-11.559,0.141-17.339c0.043-6.144-0.397-12.278-0.338-18.429
					c0.144-14.656,0.27-29.313,0.392-43.968c0.501-60.273,0.84-120.547,1.129-180.82c0.728-151.467,1.05-302.936,1.265-454.403
					c0.528-373.445,0.25-746.891-0.243-1120.335c-0.483-366.4-1.236-732.799-2.241-1099.198
					c-0.335-122.648-0.706-245.295-1.143-367.943c-0.179-50.05-0.373-100.103-0.592-150.153
					c-0.047-10.634-0.094-21.268-0.152-31.902c-0.032-5.964,0.118-11.872,0.461-17.826c-0.008-1.999-0.017-3.997-0.025-5.996
					c-0.016-3.933-0.032-7.865-0.049-11.798c-0.085-20.05-0.177-40.1-0.274-60.152c-0.076-15.82-0.159-31.641-0.238-47.461
					c-0.071-14.508-0.628-29.127,0.314-43.613c0.367-4.586,0.529-9.182,0.484-13.787c0.226-9.276,1.56-18.432,3.026-27.573
					c0.958-5.185,2.217-10.296,3.776-15.332c1.773-6.36,4.702-11.983,8.088-17.585c1.913-3.461,4.107-6.732,6.584-9.814
					c3.257-4.422,7.452-7.95,11.636-11.438c4.037-3.366,8.883-5.733,13.552-8.05c4.811-2.389,10.035-3.838,15.168-5.323
					c3.61-0.911,7.249-1.686,10.917-2.324c5.898-1.14,11.948-1.833,17.904-2.589c4.008-0.265,8.021-0.449,12.036-0.554
					c6.191-0.224,12.396-0.17,18.588-0.162c10.446,0.016,20.919-0.044,31.351,0.464c5.888,0.001,11.775,0.004,17.661,0.005
					c11.642,0.032,23.284,0.13,34.925,0.295c16.781,0.189,33.556,0.702,50.331,1.197c11.348,0.413,22.7,0.741,34.054,0.981
					c18.372,0.463,36.811-0.244,55.175-0.67c18.271-0.424,36.519-0.768,54.793-0.85c4.431-0.021,8.509,1.296,12.657,2.653
					c2.577,1.112,5.037,2.442,7.376,3.992c3.555,2.136,6.351,5.548,8.922,8.705c2.683,3.291,4.183,7.143,5.618,11.073
					c1.455,3.979,1.456,8.41,1.458,12.567c0.492-0.104,0.909-0.357,1.251-0.76c1.36-1.182,2.696-2.393,4.008-3.63
					c1.325-1.222,2.625-2.471,3.899-3.746C490.213,56.931,490.493,56.532,490.631,56.048z"/>
				<path opacity="0.1091" fill="#FFFFFF" d="M490.914,53.401c-0.132-1.559-0.263-3.117-0.395-4.675
					c-0.551-3.237-1.502-6.353-2.853-9.347c-1.835-4.896-5.422-8.933-8.776-12.81c-3.561-4.115-8.407-6.92-13.034-9.606
					c-4.915-2.851-10.517-3.985-15.996-5.1c-1.924-0.158-3.847-0.316-5.771-0.474c-8.487,0.182-16.969,0.514-25.445,0.994
					c-19.256,0.832-38.497,1.954-57.753,2.797c-18.517,0.813-36.978,0.728-55.499,0.342c-10.869-0.401-21.741-0.726-32.614-0.971
					c-11.379-0.253-22.758-0.432-34.138-0.537c-23.96-0.299-47.92,0.029-71.88-0.162c-12.544-0.1-25.048-0.075-37.576,0.627
					c-12.064,0.674-23.916,2.907-35.487,6.312c-5.633,1.657-10.865,4.263-16.069,6.923c-7.161,3.66-13.119,9.109-18.756,14.727
					c-4.61,4.594-7.986,10.295-11.303,15.823c-3.726,6.212-6.08,13.163-8.413,19.966c-2.74,7.992-3.921,16.512-5.215,24.817
					c-1.529,9.808-1.635,19.829-1.863,29.724c-0.237,10.295,0.725,20.643,1.073,30.932c0.332,9.829,0.401,19.668,0.497,29.501
					c0.184,19.276,0.227,38.554,0.3,57.832c0.093,24.482,0.393,48.976,0.179,73.458c-0.229,25.844,0.152,51.707,0.234,77.553
					c0.098,31.228,0.192,62.455,0.285,93.683c0.204,68.503,0.396,137.007,0.582,205.51c0.443,163.709,0.84,327.42,1.201,491.129
					c0.84,381.221,1.478,762.443,1.773,1143.665c0.271,351.945,0.339,703.893-0.637,1055.839
					c-0.352,127.093-0.826,254.188-1.849,381.277c-0.361,44.751-0.703,89.499-1.342,134.247
					c-0.231,16.197-0.507,32.394-0.836,48.588c-0.073,3.56-0.153,7.008,0.112,10.558c0.264,3.535,2.801,6.331,4.998,8.814
					c2.454,2.776,6.373,4.02,9.706,5.251c4.718,1.741,10.075,1.681,15.024,1.727c5.932,0.054,11.712-1.732,17.603-1.932
					c6.597,0.291,13.192,0.58,19.789,0.869c13.024,0.698,26.053,1.311,39.085,1.838c19.542,0.855,39.097,1.377,58.65,1.902
					c84.69,2.282,169.46,0.947,254.097-2.521c8.41-0.345,16.87-0.309,25.205-1.542c2.337-0.346,3.81-1.186,5.897-2.193
					c3.565-1.721,5.125-5.747,6.58-9.08c1.694-3.883,1.399-8.616,1.409-12.729c0.007-3.019-0.388-6.001-0.651-8.999
					c-0.209-2.386-0.287-4.783-0.453-7.173c-0.407-5.835-0.479-11.688-0.569-17.535c-0.206-13.319-0.133-26.641-0.162-39.96
					c-0.043-19.642-0.053-39.284-0.063-58.925c-0.027-51.389,0.066-102.775,0.08-154.164
					c0.158-630.923,1.135-1261.846,1.529-1892.77c0.048-74.614-0.015-149.23-0.037-223.846c-0.011-37.533-0.276-75.06-0.143-112.595
					c0.223-62.177-0.146-124.358-0.196-186.536c-0.106-131.919-0.06-263.84-0.229-395.757
					c-0.069-54.215-0.505-108.432-0.571-162.649c-0.088-71.295,0.074-142.59,0.254-213.886
					c0.363-142.705,0.892-285.409,0.502-428.116c-0.003-1.092-1.811,1.63-1.666,1.434c-0.811,1.103-1.6,2.22-2.368,3.354
					c-0.444,0.569-0.804,1.185-1.08,1.847c0.419,162.132-0.312,324.265-0.649,486.397c-0.162,77.854-0.169,155.71,0.076,233.566
					c0.061,19.506,0.166,39.012,0.227,58.519c0.029,8.782,0.245,17.373,0.102,26.096c-0.049,2.88-0.146,6.026-0.057,8.893
					c0.307,9.981,0.277,19.921,0.246,29.905c-0.262,83.791-0.129,167.585-0.096,251.377c0.017,41.429,0.047,82.858,0.137,124.287
					c0.036,16.305,0.095,32.609,0.191,48.914c0.07,11.525-0.272,23.026,0.066,34.549c0.106,3.572,0.066,7.102-0.004,10.673
					c0.021,6.287,0.045,12.572,0.067,18.858c0.016,12.247,0.003,24.495-0.039,36.742c-0.04,18.178-0.114,36.355-0.14,54.532
					c-0.005,6.16-0.012,12.317-0.018,18.477c0.879,6.893,0.978,13.76,0.299,20.596c-0.321,3.47-0.034,7.021-0.066,10.505
					c-0.051,5.856-0.075,11.704,0.051,17.559c0.301,13.948-0.031,27.931-0.059,41.882c-0.042,20.381-0.065,40.76-0.089,61.14
					c-0.013,11.111-0.023,22.224-0.043,33.337c-0.007,3.974,0.233,8.254,0.348,12.234c0.173,6.082-0.02,12.207-0.029,18.291
					c-0.043,29.116-0.079,58.23-0.115,87.347c-0.081,66.737-0.15,133.476-0.22,200.214c-0.348,339.099-0.697,678.197-0.98,1017.296
					c-0.133,160.303-0.256,320.604-0.306,480.906c-0.021,64.727-0.026,129.453,0.009,194.18c0.007,13.403,0.018,26.809,0.028,40.213
					c0.012,12.324,0.295,24.674-0.309,36.986c-0.285,5.827,0.01,11.768,0.016,17.604c0.004,5.615,0.011,11.23,0.018,16.847
					c0.015,12.089,0.033,24.177,0.059,36.264c0.037,17.231,0.072,34.46,0.186,51.689c0.046,6.784-0.129,13.565-0.052,20.347
					c0.076,6.521,0.201,13.039,0.363,19.557c0.13,5.296,0.77,10.55,0.71,15.853c-0.025,2.242-0.1,4.483-0.129,6.726
					c-0.043,3.327-0.921,6.352-1.984,9.462c-1.97,5.759-8.307,7.284-13.763,7.917c-0.925,0.057-1.849,0.113-2.772,0.17
					c-12.999,0.615-26,1.163-39.004,1.647c-45.518,1.809-91.075,2.448-136.625,2.624c-39.051,0.15-78.101-0.601-117.135-1.666
					c-19.521-0.533-39.032-1.376-58.541-2.219c-13.545-0.586-27.365-1.748-40.932-1.396c-2.932,0.076-5.913,0.519-8.835,0.657
					c-2.958,0.139-5.854-0.08-8.789-0.408c-3.049-0.342-5.888-1.36-8.713-2.487c-3.552-1.415-6.057-4.468-8.014-7.582
					c-1.682-2.677-1.666-6.173-1.75-9.18c-0.097-3.523,0.164-7.11,0.241-10.636c0.169-7.781,0.315-15.565,0.454-23.347
					c0.356-19.903,0.628-39.808,0.878-59.713c0.274-21.866,0.486-43.733,0.71-65.6c0.063-6.153-0.252-12.308-0.195-18.464
					c0.057-6.154,0.109-12.309,0.164-18.463c0.131-15.09,0.246-30.18,0.358-45.271c0.458-61.681,0.772-123.365,1.041-185.047
					c0.666-153.604,0.962-307.209,1.149-460.814c0.9-739.306-0.583-1478.618-2.57-2217.921
					c-0.317-118.155-0.66-236.31-1.056-354.463c-0.165-49.242-0.342-98.485-0.538-147.727c-0.048-12.252-0.37-24.539,0.201-36.781
					c-0.014-3.977-0.029-7.952-0.044-11.928c-0.022-5.801-0.044-11.602-0.068-17.403c-0.076-19.559-0.159-39.119-0.25-58.678
					c-0.072-15.386-0.159-30.771-0.284-46.157c-0.106-13.137-0.582-26.28-0.292-39.414c-0.076-7.009,0.122-14.012,0.594-21.004
					c0.44-9.097,2.036-18.034,3.765-26.95c1.132-5.132,2.577-10.173,4.333-15.125c2.02-6.287,5.591-11.906,8.854-17.583
					c4.929-8.57,12.307-15.311,20.115-21.165c8.932-6.695,19.989-10.176,30.644-12.899c3.758-0.857,7.544-1.557,11.362-2.1
					c6.136-1.003,12.165-1.766,18.369-2.167c10.32-0.668,20.706-0.512,31.04-0.454c14.274,0.083,28.53,0.3,42.805,0.278
					c33.832-0.055,67.647,0.739,101.458,1.772c30.877,0.942,61.707-0.345,92.556-1.547c12.538-0.492,25.081-0.86,37.627-1.102
					c5.144-0.126,9.822,0.933,14.736,2.278c3.039,1.048,5.938,2.4,8.693,4.056c4.172,2.221,7.495,5.771,10.663,9.174
					c3.17,3.405,5.084,7.637,6.889,11.842c1.776,4.137,1.972,8.638,2.103,13.048c0.341-0.032,0.612-0.201,0.815-0.511
					c0.786-0.84,1.545-1.704,2.275-2.592C488.947,56.338,491.006,54.482,490.914,53.401z"/>
				<path opacity="0.1091" fill="#FFFFFF" d="M492.463,51.137c-0.515-5.958-0.15-3.718-1.569-9.593
					c-1.22-5.055-4.338-9.448-7.252-13.618c-3.135-4.487-7.662-7.758-12.007-10.938c-4.573-3.348-10.11-5.075-15.436-6.728
					c-5.699-1.769-11.712-1.568-17.579-1.388c-19.476,0.598-38.952,1.916-58.408,2.937c-18.835,0.99-37.641,1.452-56.498,1.632
					c-11.421-0.152-22.839-0.451-34.252-0.897c-11.145-0.327-22.29-0.574-33.437-0.739c-29.623-0.55-59.246-0.094-88.868-0.339
					c-10.562-0.087-21.11-0.082-31.667,0.291c-12.227,0.431-24.24,2.193-36.122,5.041c-5.756,1.38-11.2,3.657-16.612,5.992
					c-7.377,3.182-13.75,8.059-19.823,13.21c-10.33,8.764-16.765,21.128-21.969,33.353c-3.212,7.546-4.797,15.772-6.48,23.746
					c-1.974,9.344-2.435,18.996-3.017,28.495c-0.612,9.953-0.134,19.916,0.504,29.848c0.612,9.519,0.732,19.08,0.884,28.615
					c0.668,42.123,0.489,84.269,0.62,126.395c0.884,284.615,1.599,569.229,2.227,853.845c0.839,380.219,1.486,760.439,1.805,1140.66
					c0.295,354.603,0.383,709.209-0.513,1063.811c-0.33,129.812-0.788,259.622-1.734,389.43
					c-0.339,46.395-0.757,92.791-1.358,139.186c-0.222,17.102-0.483,34.203-0.792,51.306c-0.13,7.233-0.721,14.59,0,21.791
					c0.119,1.18,0.452,2.497,1.086,3.482c1.166,2.229,2.692,4.175,4.58,5.839c1.982,1.802,4.234,3.154,6.758,4.055
					c3.731,1.773,8.063,2.162,12.1,2.55c2.102,0.202,5.795,0.122,7.917-0.069c5.653-0.51,11.185-1.532,16.789-2.382
					c0.456-0.029,0.911-0.057,1.365-0.086c13.027,0.833,26.06,1.536,39.101,2.108c19.535,0.955,39.083,1.586,58.63,2.21
					c45.602,1.458,91.234,1.669,136.854,1.425c39.099-0.211,78.188-1.332,117.258-2.748c6.509-0.27,13.02-0.54,19.529-0.81
					c7.47-0.036,14.917-0.427,22.337-1.174c0.959-0.157,1.917-0.315,2.876-0.474c2.069-0.398,3.98-1.185,5.734-2.358
					c2.53-1.344,3.579-3.571,5.092-5.844c0.533-1.354,1.064-2.71,1.598-4.065c0.838-2.902,1.244-5.864,1.221-8.884
					c0.381-6.035-0.933-12.324-1.459-18.325c-0.934-10.661-0.952-21.364-1.032-32.057c-0.122-16.311-0.073-32.625-0.092-48.935
					c-0.052-45.848,0.028-91.693,0.032-137.54c0.057-629.781,1.118-1259.564,1.507-1889.346
					c0.053-85.726,0.033-171.45,0.006-257.176c-0.007-20.265,0.02-40.531-0.14-60.794c-0.402-51.142,0.146-102.29-0.007-153.433
					c-0.073-24.483-0.132-48.967-0.162-73.451c-0.094-77.212-0.076-154.426-0.089-231.639c-0.005-37.669-0.014-75.338-0.028-113.008
					c-0.01-26.243,0.097-52.489-0.134-78.73c-1.069-121.922-0.672-243.865-0.38-365.79c0.355-149.183,0.958-298.364,0.547-447.547
					c-0.003-0.994-1.515,1.303-1.369,1.099c-0.617,0.879-1.211,1.773-1.784,2.681c-0.345,0.457-0.603,0.955-0.775,1.495
					c0.434,162.134-0.297,324.267-0.644,486.399c-0.166,77.853-0.181,155.706,0.062,233.559c0.061,19.513,0.163,39.028,0.254,58.541
					c0.042,8.745,0.207,17.381,0.112,26.092c-0.051,4.627-0.033,9.24,0.075,13.866c0.195,8.306,0.101,16.612,0.086,24.919
					c-0.152,83.799-0.065,167.6-0.038,251.399c0.014,41.425,0.038,82.85,0.106,124.273c0.028,16.299,0.074,32.597,0.145,48.895
					c0.057,12.933-0.146,25.84,0.17,38.771c-0.015,1.164-0.03,2.33-0.047,3.495c-0.1,7.276-0.087,14.553,0.039,21.829
					c0.07,18.291-0.036,36.583-0.1,54.873c-0.063,18.293-0.093,36.586-0.103,54.879c-0.005,9.095,0.806,14.382,0.154,21.834
					c-0.147,1.705,0.038,3.535,0.056,5.245c0.021,2.057,0.007,4.11-0.003,6.167c-0.033,6.14,0,12.271,0.108,18.41
					c0.25,14.33-0.063,28.694-0.08,43.026c-0.026,20.785-0.04,41.572-0.056,62.356c-0.017,23.699,0.213,47.389,0.188,71.088
					c-0.033,29.767-0.062,59.534-0.092,89.301c-0.066,67.758-0.127,135.515-0.192,203.272
					c-0.322,340.16-0.668,680.322-0.959,1020.482c-0.136,159.028-0.263,318.056-0.322,477.084
					c-0.023,63.637-0.036,127.275-0.016,190.913c0.004,13.1,0.011,26.197,0.021,39.297c0.009,12.021-0.23,24.027-0.224,36.046
					c0.011,22.813,0.034,45.624,0.074,68.438c0.029,16.461,0.069,32.921,0.175,49.382c0.04,6.387-0.043,12.767,0.043,19.156
					c0.08,6.094,0.072,12.285,0.704,18.35c0.456,4.357,0.979,8.707,1.492,13.057c0.53,4.48,0.705,8.479,0.342,12.941
					c-0.396,4.863-2.743,9.091-6.537,12.182c-2.235,1.82-5.496,2.136-8.209,2.571c-0.932,0.095-1.863,0.188-2.796,0.28
					c-13.001,0.634-26.005,1.201-39.011,1.703c-45.527,1.873-91.094,2.576-136.655,2.814c-39.054,0.202-78.108-0.504-117.147-1.529
					c-19.517-0.514-39.023-1.342-58.528-2.182c-6.52-0.309-13.04-0.619-19.561-0.929c-6.945-1.393-13.874-1.745-20.788-1.058
					c-2.136,0.192-4.3,0.727-6.411,1.09c-4.428,0.761-8.663,1.225-13.198,1.388c-3.87,0.142-7.507-0.503-11.251-1.369
					c-2.446-0.681-4.767-1.657-6.964-2.93c-1.949-1.366-3.639-3.001-5.065-4.907c-4.046-4.595-3.101-11.307-2.991-16.776
					c0.076-3.715,0.144-7.433,0.212-11.147c0.149-8.111,0.278-16.222,0.403-24.332c0.318-20.568,0.566-41.136,0.794-61.705
					c1.252-112.878,1.747-225.764,2.174-338.647c0.588-155.053,0.855-310.108,1.016-465.163
					c0.765-738.807-0.742-1477.617-2.588-2216.422c-0.489-195.873-0.987-391.746-1.65-587.619
					c-0.098-29.041,0.06-58.11-0.718-87.143c-0.069-2.653-0.154-5.307-0.255-7.958c-0.646-18.329-0.987-31.955,1.688-53.317
					c0.859-5.79,2.05-11.51,3.571-17.161c1.751-7.324,4.745-14.167,8.071-20.874c2.082-4.021,4.451-7.863,7.107-11.527
					c3.461-5.161,8.138-9.399,12.727-13.509c7.227-6.475,16.284-10.547,25.218-14.006c9.192-3.558,19.163-4.912,28.842-6.387
					c10.205-1.556,20.625-1.589,30.922-1.722c18.464-0.238,36.972,0.248,55.438,0.202c28.51-0.072,57.015,0.419,85.513,1.181
					c11.394,0.401,22.789,0.683,34.188,0.842c18.665,0.367,37.404-0.656,56.048-1.379c12.734-0.57,25.472-1.098,38.21-1.579
					c6.408-0.18,12.816-0.36,19.225-0.539c3.656-0.084,7.275,0.235,10.858,0.955c3.435,0.696,6.753,1.756,9.956,3.179
					c4.753,1.811,8.771,5.07,12.653,8.237c2.439,2.215,4.61,4.665,6.516,7.353c4.697,5.927,6.696,14.061,7.075,21.389
					c0.047,0.919,1.479-1.005,1.432-0.948c0.67-0.806,1.32-1.626,1.95-2.465C491.965,52.113,492.255,51.649,492.463,51.137z"/>
				<path opacity="0.1091" fill="#FFFFFF" d="M490.053,56.731c-0.111-1.565-0.223-3.131-0.334-4.696
					c-0.487-3.215-1.396-6.308-2.725-9.276c-1.766-4.8-5.253-8.769-8.508-12.583c-3.439-4.029-8.148-6.804-12.634-9.452
					c-4.765-2.811-10.193-3.971-15.519-5.117c-1.87-0.173-3.74-0.346-5.61-0.519c-8.391,0.065-16.775,0.338-25.154,0.821
					c-19.19,0.735-38.37,1.812-57.56,2.605c-18.501,0.766-36.947,0.668-55.454,0.271c-10.868-0.406-21.737-0.732-32.611-0.981
					c-11.374-0.26-22.75-0.446-34.127-0.556c-23.955-0.312-47.911-0.024-71.866-0.205c-12.54-0.096-25.04-0.083-37.566,0.595
					c-12.036,0.652-23.878,2.855-35.441,6.184c-5.619,1.617-10.849,4.17-16.051,6.777c-7.147,3.581-13.119,8.933-18.777,14.461
					c-4.622,4.515-8.028,10.146-11.376,15.6c-3.773,6.151-6.169,13.063-8.551,19.822c-2.796,7.935-4.01,16.428-5.344,24.688
					c-1.578,9.776-1.719,19.773-1.983,29.643c-0.275,10.291,0.631,20.652,0.933,30.942c0.288,9.829,0.349,19.664,0.433,29.495
					c0.163,19.274,0.21,38.549,0.281,57.822c0.09,24.504,0.323,49.016,0.197,73.521c-0.133,25.841,0.144,51.691,0.224,77.532
					c0.098,31.224,0.192,62.448,0.284,93.671c0.202,68.5,0.393,136.997,0.577,205.497c0.442,163.704,0.837,327.407,1.199,491.112
					c0.837,381.219,1.478,762.438,1.771,1143.658c0.27,351.953,0.343,703.908-0.629,1055.861
					c-0.351,127.106-0.824,254.215-1.84,381.317c-0.357,44.737-0.711,89.472-1.348,134.206c-0.231,16.205-0.503,32.408-0.83,48.611
					c-0.071,3.563-0.151,7.008,0.123,10.562c0.274,3.538,2.794,6.251,5.015,8.713c2.481,2.753,6.343,3.833,9.701,4.966
					c4.644,1.568,9.801,1.402,14.63,1.393c5.375-0.012,10.739-1.208,16.061-1.809c0.44-0.004,0.88-0.007,1.322-0.011
					c13.106,0.721,26.215,1.403,39.327,2.047c19.543,0.989,39.103,1.618,58.66,2.256c84.67,2.765,169.437,1.848,254.083-1.178
					c13.889-0.497,27.987-0.827,41.841-1.919c3.146-0.246,5.675-1.235,8.449-2.646c3.48-1.767,4.814-5.747,6.119-9.074
					c1.485-3.788,1.087-8.248,1.013-12.205c-0.053-2.837-0.423-5.617-0.662-8.435c-0.191-2.255-0.166-4.533-0.271-6.794
					c-0.275-5.886-0.203-11.801-0.276-17.692c-0.414-32.954-0.168-65.931-0.188-98.888c-0.034-51.382,0.079-102.762,0.089-154.144
					c0.127-630.923,1.111-1261.848,1.529-1892.77c0.05-73.533-0.047-147.066-0.035-220.6c0.006-32.573-0.28-65.146-0.21-97.719
					c0.148-68.227-0.077-136.448-0.139-204.674c-0.119-131.919,0.021-263.838-0.23-395.755
					c-0.104-54.211-0.494-108.422-0.561-162.634c-0.089-71.296,0.071-142.595,0.252-213.89c0.36-142.706,0.89-285.409,0.501-428.113
					c-0.406,0.07-0.736,0.285-0.991,0.644c-1.017,1.019-2.004,2.063-2.968,3.132c-0.978,1.055-1.928,2.134-2.852,3.239
					c-0.333,0.287-0.516,0.635-0.551,1.046c0.404,162.131-0.329,324.261-0.653,486.392c-0.156,77.86-0.153,155.72,0.096,233.579
					c0.063,19.497,0.165,38.993,0.203,58.49c0.017,8.828,0.271,17.337,0.065,26.063c-0.109,4.648-0.023,9.283,0.144,13.927
					c0.302,8.308,0.131,16.614,0.091,24.925c-0.409,83.759-0.211,167.525-0.171,251.286c0.02,41.445,0.06,82.89,0.179,124.335
					c0.047,16.331,0.12,32.662,0.262,48.993c0.056,6.324,0.013,12.596-0.285,18.914c0.061,3.614,0.125,7.229,0.188,10.845
					c0.096,3.014,0.195,6.029,0.295,9.043c-0.033,1.149-0.066,2.297-0.1,3.446c-0.233,7.257-0.24,14.517-0.021,21.779
					c0.06,18.291-0.038,36.583-0.093,54.875c-0.055,18.303-0.07,36.605-0.058,54.909c0.007,9.751,0.962,14.333,0.183,21.865
					c-0.175,1.686,0.027,3.535,0.04,5.229c0.014,2.046-0.016,4.089-0.041,6.134c-0.084,6.161,0.019,12.308,0.171,18.465
					c0.161,6.529-0.086,13.095-0.117,19.627c-0.039,7.768-0.062,15.535-0.085,23.303c-0.066,20.764-0.095,41.528-0.127,62.294
					c-0.017,11.38-0.211,22.774,0.203,34.147c0.449,12.352,0.188,24.734,0.164,37.093c-0.059,29.751-0.104,59.502-0.148,89.255
					c-0.1,67.738-0.179,135.478-0.258,203.217c-0.395,340.146-0.733,680.294-1.006,1020.441
					c-0.128,159.048-0.239,318.095-0.255,477.143c-0.006,63.662,0.006,127.323,0.072,190.985c0.014,13.107,0.03,26.217,0.054,39.324
					c0.021,11.969-0.445,23.903-0.432,35.869c0.026,22.832,0.069,45.664,0.143,68.496c0.053,16.48,0.279,32.964,0.219,49.443
					c-0.023,6.382-0.155,12.749-0.096,19.131c0.059,6.086,0.188,12.179,0.02,18.265c-0.062,2.144-0.137,4.289-0.218,6.432
					c-0.055,1.454-0.601,3.066-0.919,4.481c-0.454,2.028-0.515,4.078-0.85,6.141c-0.258,0.78-0.515,1.564-0.772,2.346
					c-0.316,1.619-1.016,3.055-2.093,4.307c-1.31,1.979-4.205,2.657-6.301,3.146c-2.665,0.623-5.348,0.723-8.069,0.83
					c-19.486,0.754-38.965,1.596-58.456,2.243c-25.99,0.865-51.992,1.265-77.994,1.601c-78.036,1.006-156.089-0.971-234.026-4.831
					c-9.551-0.474-19.117-0.427-28.666-0.911c-5.237-0.266-10.595-1.465-15.085-4.213c-0.516-0.5-1.031-0.999-1.546-1.5
					c-1.176-1.02-2.078-2.242-2.705-3.671c-1.427-2.456-1.282-5.987-1.312-8.676c-0.081-7.316,0.339-14.674,0.488-21.99
					c0.388-18.968,0.673-37.938,0.935-56.906c0.291-21.058,0.521-42.118,0.742-63.178c0.061-5.775,0.108-11.552,0.155-17.327
					c0.051-6.131-0.361-12.255-0.303-18.393c0.141-14.657,0.266-29.314,0.386-43.973c0.496-60.276,0.832-120.556,1.118-180.833
					c0.72-151.472,1.038-302.944,1.251-454.417c0.524-373.446,0.245-746.895-0.247-1120.343
					c-0.483-366.395-1.233-732.789-2.227-1099.184c-0.333-122.643-0.697-245.284-1.126-367.927
					c-0.174-50.046-0.364-100.093-0.577-150.139c-0.046-10.633-0.09-21.266-0.148-31.896c-0.032-5.981,0.082-11.903,0.413-17.873
					c-0.008-1.999-0.017-3.998-0.023-5.996c-0.017-3.932-0.032-7.864-0.048-11.797c-0.083-20.048-0.172-40.096-0.267-60.145
					c-0.075-15.82-0.159-31.641-0.248-47.461c-0.04-7.036-0.082-14.071-0.134-21.106c-0.057-7.571-0.202-15.144,0.176-22.709
					c0.284-4.632,0.407-9.269,0.368-13.913c0.17-9.358,1.434-18.606,2.829-27.838c0.92-5.257,2.14-10.444,3.657-15.56
					c0.778-2.307,1.555-4.613,2.333-6.92c1.473-3.949,3.36-7.686,5.667-11.211c1.91-3.553,4.104-6.92,6.582-10.104
					c3.254-4.556,7.489-8.217,11.708-11.827c4.063-3.476,8.945-5.939,13.665-8.356c4.831-2.475,10.11-3.985,15.285-5.528
					c3.624-0.952,7.282-1.756,10.972-2.408c5.884-1.167,11.924-1.858,17.87-2.611c4.018-0.279,8.04-0.476,12.066-0.589
					c6.197-0.24,12.41-0.19,18.611-0.186c10.464,0.005,20.958-0.04,31.412,0.406c5.89-0.003,11.78-0.004,17.671-0.007
					c11.65,0.022,23.3,0.111,34.949,0.265c16.793,0.174,33.582,0.666,50.366,1.149c11.355,0.41,22.712,0.724,34.071,0.941
					c18.431,0.435,36.934-0.358,55.354-0.865c18.471-0.509,36.92-0.977,55.397-1.178c4.663-0.051,8.941,1.197,13.335,2.567
					c2.728,1.101,5.325,2.449,7.795,4.046c3.749,2.182,6.704,5.651,9.458,8.904c2.827,3.34,4.446,7.322,5.991,11.344
					c1.546,4.026,1.611,8.486,1.657,12.717c0.405-0.031,0.75-0.212,1.033-0.541c1.088-0.911,2.154-1.85,3.193-2.815
					c1.055-0.951,2.085-1.928,3.088-2.932C489.776,57.461,489.986,57.134,490.053,56.731z"/>
			</g>
		</g>
	</g>
</g>
</svg>
