<?xml version="1.0" encoding="utf-8"?>
<!-- Generator: Adobe Illustrator 16.0.0, SVG Export Plug-In . SVG Version: 6.00 Build 0)  -->
<!DOCTYPE svg PUBLIC "-//W3C//DTD SVG 1.1//EN" "http://www.w3.org/Graphics/SVG/1.1/DTD/svg11.dtd">
<svg version="1.1" id="Layer_1" xmlns="http://www.w3.org/2000/svg" xmlns:xlink="http://www.w3.org/1999/xlink" x="0px" y="0px"
	 width="540px" height="4000px" viewBox="0 0 540 4000" enable-background="new 0 0 540 4000" xml:space="preserve">
<g>
	<image overflow="visible" opacity="0.75" width="537" height="4002" xlink:href="5C5CB235.png"  transform="matrix(1 0 0 1 12 0)">
	</image>
	<g>
		<path fill="#F2F2F2" d="M515.067,66.965c-0.069-24.458-20.122-44.155-44.576-43.733c-46.997,0.812-95.535,4.413-141.092,2.612
			c-40.123-1.586-85.181-2.141-130.514-1.969C118.152,24.181,31.756,10.998,32.24,149.791c1.886,541.177,10.762,3253.223,0,3791.334
			c-0.483,24.181,28.655,17.672,34.581,17.999c142.504,7.884,285.51,8.511,428.093,1.876c4.966-0.23,10.343-0.614,14.064-3.563
			c4.729-3.745,5.045-10.136,5.01-15.786c-0.996-156.896,2.36-2113.68,1.365-2270.577c-0.354-55.916,0.354-106.088,0-162.006
			c-0.394-61.789-0.092-503.907-0.484-565.698C513.008,650.064,515.905,360.035,515.067,66.965z"/>
		<g>
			<g>
				<path opacity="0.1091" fill="#FFFFFF" d="M525.33,57.554c-0.14-1.593-0.281-3.186-0.421-4.779
					c-0.571-3.309-1.507-6.514-2.807-9.611c-1.779-5.035-5.256-9.297-8.525-13.405c-3.453-4.339-8.193-7.491-12.74-10.522
					c-4.788-3.193-10.341-4.824-15.784-6.429c-5.62-1.655-11.675-1.484-17.447-1.351c-6.379,0.308-12.757,0.615-19.137,0.92
					c-12.336,0.633-24.673,1.276-37.009,1.93c-18.168,0.955-36.326,1.594-54.512,2.033c-23.552,0.569-47.142-0.813-70.678-1.445
					c-33.963-0.912-67.934-0.652-101.902-0.713c-13.139-0.023-26.276-0.224-39.415-0.06c-12.753,0.159-25.397,1.233-37.987,3.242
					C94.766,19.31,83.175,23.583,72.21,29.14c-5.525,2.8-10.367,6.71-15.116,10.62c-6.756,5.563-11.88,12.849-16.668,20.069
					c-4.105,6.193-6.706,13.375-9.343,20.259c-3.036,7.928-4.56,16.403-6.167,24.697c-2.564,13.233-2.826,26.886-3.088,40.311
					c-0.223,11.322,0.846,22.681,1.194,33.998c0.291,9.409,0.385,18.824,0.483,28.237c0.241,23.052,0.287,46.108,0.374,69.162
					c1.094,286.262,1.789,572.527,2.512,858.789c0.983,388.546,1.738,777.093,2.103,1165.64
					c0.34,361.913,0.423,723.827-0.721,1085.739c-0.413,130.672-0.981,261.345-2.198,392.013
					c-0.426,45.753-0.885,91.503-1.654,137.252c-0.146,8.696-0.312,17.392-0.486,26.087c-0.08,4.025-0.18,7.929,0.134,11.945
					c0.213,2.74,1.694,4.749,3.012,7.018c2.021,3.477,5.917,5.446,9.304,7.205c3.738,1.941,8.177,2.43,12.275,2.925
					c7.927,0.957,16.056-0.555,23.859-1.808c7.438-1.193,16.759,0.317,23.098,0.627c19.512,0.957,39.016,1.861,58.536,2.635
					c39.013,1.544,78.057,2.197,117.097,2.585c39.031,0.386,78.065-0.057,117.088-0.773c19.511-0.36,39.014-0.985,58.518-1.615
					c12.999-0.45,25.996-0.961,38.991-1.532c7.517-0.205,15.024-0.574,22.522-1.107c2.867-0.195,3.772-0.62,6.548-1.446
					c1.048-0.522,2.096-1.042,3.144-1.563c2.202-1.365,3.931-3.18,5.188-5.444c2.378-3.244,2.838-7.784,3.346-11.603
					c0.507-3.811,0.143-7.811-0.096-11.626c-0.223-3.583-0.756-7.16-1.013-10.747c-0.189-2.638-0.298-5.283-0.413-7.927
					c-0.304-6.979-0.365-13.979-0.378-20.965c-0.177-95.715-0.12-191.43-0.067-287.146c0.346-616.33,1.698-1232.662,1.635-1848.994
					c-0.003-24.128-0.017-48.256-0.04-72.382c-0.007-7.541-0.069-15.081-0.089-22.622c-0.104-43.611,0.011-87.219,0.077-130.831
					c0.035-22.532-0.193-45.06-0.259-67.59c-0.073-25.688-0.033-51.376-0.055-77.064c-0.059-67.658-0.059-135.316-0.069-202.974
					c-0.012-60.423-0.019-120.847-0.053-181.271c-0.036-64.398-0.521-128.793-0.692-193.192
					c-0.665-252.185,1.438-504.369,0.745-756.556c-0.003-0.865-1.383,0.75-1.35,0.714c-0.63,0.668-1.24,1.355-1.831,2.058
					c-0.352,0.346-0.623,0.742-0.815,1.189c0.44,165.925-0.226,331.849-0.627,497.772c-0.192,79.618-0.275,159.234-0.148,238.852
					c0.064,39.909,0.265,79.818,0.41,119.729c0.117,6.86,0.235,13.721,0.353,20.582c-0.21,1.963-0.278,3.933-0.203,5.906
					c-0.027,6.231-0.07,12.454,0.057,18.684c0.276,13.412,0.089,26.836,0.079,40.25c-0.013,17.288-0.014,34.575-0.017,51.864
					c-0.007,45.732-0.003,91.466,0.001,137.2c0.01,84.476-0.036,168.952,0.225,253.428c0.04,12.6-0.108,25.189-0.021,37.791
					c0.031,4.561,0.131,9.114,0.239,13.673c-0.017,1.132-0.033,2.266-0.05,3.398c-0.112,7.119-0.1,14.238,0.037,21.358
					c0.149,35.662-0.16,71.327-0.202,106.989c-0.003,6.026-0.006,12.051-0.008,18.078c0.572,6.854,0.677,13.7,0.311,20.54
					c-0.121,2.518-0.095,5.04-0.11,7.56c-0.069,11.669,0.097,23.34,0.079,35.012c-0.027,18.557-0.035,37.115-0.046,55.673
					c-0.006,10.503-0.013,21.005-0.018,31.508c-0.006,11.78,0.21,23.556,0.196,35.333c-0.032,28.799-0.061,57.597-0.089,86.396
					c-0.066,67.258-0.137,134.515-0.206,201.771c-0.352,343.545-0.79,687.089-1.129,1030.635
					c-0.152,154.484-0.303,308.968-0.34,463.453c-0.007,29.678-0.008,59.359-0.003,89.037c0.003,13.422,0.009,26.843,0.016,40.265
					c0.009,14.216-0.199,28.423-0.191,42.638c0.013,21.063,0.035,42.128,0.076,63.192c0.035,17.312,0.384,34.643,0.188,51.952
					c-0.129,11.332,0.368,22.688,1.278,33.981c0.4,4.964,0.099,9.639-0.599,14.507c-0.476,3.318-1.899,6.064-3.644,8.847
					c-2.72,4.34-9.555,6.096-13.904,6.516c-7.466,0.278-14.931,0.61-22.393,0.995c-12.981,0.559-25.966,1.059-38.952,1.497
					c-77.929,2.814-155.935,2.917-233.891,1.376c-38.966-0.771-77.914-2.357-116.839-4.295c-8.828-0.438-15.261-1.336-23.068-0.35
					c-4.805,0.607-9.534,1.205-14.374,1.384c-3.654,0.134-7.236-0.428-10.814-1.061c-3.541-0.626-6.609-2.431-9.592-4.305
					c-3.805-2.392-5.822-7.068-6.813-11.188c-0.076-1.264-0.151-2.527-0.227-3.791c0.059-2.688,0.117-5.374,0.172-8.063
					c0.419-19.97,0.735-39.942,1.025-59.915c0.726-49.861,1.034-99.725,1.451-149.588c1.145-137.052,1.642-274.107,2.028-411.162
					c0.49-173.714,0.662-347.43,0.72-521.146c0.249-738.982-1.503-1477.969-3.881-2216.949c-0.25-77.657-0.514-155.313-0.803-232.97
					c-0.112-30.258-0.057-60.509-0.185-90.767c-0.115-26.735-0.087-53.485-0.749-80.213c-0.111-4.452-0.285-8.898-0.462-13.349
					c-0.405-10.183-0.37-20.324-0.094-30.513c0.341-12.585,2.31-24.983,4.854-37.279c2.1-10.143,6.065-19.671,10.567-28.936
					C49.628,49.575,62.993,37.196,81.1,28.784c3.625-1.612,7.333-2.999,11.127-4.161c7.824-2.656,16.076-4.126,24.225-5.325
					c16.876-2.481,34.201-2.155,51.208-2.052c28.042,0.169,56.084,0.077,84.127,0.291c24.305,0.186,48.6,0.88,72.889,1.715
					c23.623,0.813,47.2,0.13,70.809-0.733c18.374-0.822,36.749-1.647,55.123-2.474c9.988-1.413,19.899-1.362,29.737,0.151
					c7.156,0.901,13.657,4.333,19.703,8.016c5.903,3.596,10.299,9.078,14.212,14.631c4.636,6.576,6.391,14.732,6.859,22.601
					c0.021,0.36,2.454-1.754,2.361-1.668C523.938,59.353,525.4,58.346,525.33,57.554z"/>
				<path opacity="0.1091" fill="#FFFFFF" d="M526.694,59.229c-0.313-1.538-0.624-3.074-0.937-4.612
					c-1.117-3.178-2.249-6.35-3.398-9.517c-1.287-3.578-3.261-6.194-5.316-9.332c-3.075-4.693-7.489-8.253-11.785-11.74
					c-4.471-3.629-9.959-5.796-15.249-7.863c-5.603-2.188-11.618-2.575-17.536-2.959c-8.328,0.303-16.652,0.689-24.973,1.159
					c-12.398,0.663-24.797,1.33-37.196,2c-18.189,0.981-36.368,1.626-54.578,2.071c-17.54,0.428-35.087-0.359-52.611-0.975
					c-37.813-1.327-75.68-1.289-113.51-1.15c-13.162,0.049-26.319-0.165-39.479-0.133c-14.965,0.036-29.805,1.03-44.574,3.459
					c-6.109,1.006-12.038,2.77-17.939,4.594c-3.117,0.962-8.585,3.147-11.47,4.637c-6.709,3.466-4.139,2.02-10.677,6.02
					c-5.408,3.308-9.96,7.719-14.468,12.11c-4.827,4.699-8.471,10.506-12.074,16.133c-4.035,6.299-6.605,13.499-9.2,20.457
					c-2.983,7.992-4.479,16.505-6.057,24.846c-2.515,13.298-2.749,27-2.983,40.478c-0.121,6.962,0.363,13.728,0.783,20.637
					c0.275,4.524,0.379,9.066,0.519,13.596c0.292,9.418,0.382,18.843,0.478,28.266c0.237,23.049,0.278,46.102,0.363,69.152
					c1.05,286.265,1.796,572.531,2.515,858.797c0.976,388.54,1.73,777.082,2.094,1165.624
					c0.341,361.925,0.428,723.854-0.706,1085.777c-0.409,130.695-0.972,261.394-2.169,392.085
					c-0.419,45.724-0.935,91.447-1.696,137.166c-0.144,8.702-0.307,17.403-0.479,26.104c-0.028,1.358-0.056,2.719-0.082,4.078
					c-0.209,2.65-0.113,5.291,0.284,7.919c0.266,2.84,1.812,4.764,3.233,7.084c2.186,3.565,6.273,5.521,9.837,7.271
					c3.918,1.922,8.552,2.341,12.809,2.795c8.144,0.869,16.522-0.795,24.515-2.166c7.253-1.245,17.027,0.452,22.748,0.778
					c19.497,1.113,39.015,1.85,58.526,2.62c39.016,1.541,78.063,2.186,117.106,2.568c39.041,0.382,78.085-0.07,117.12-0.794
					c19.516-0.362,39.026-0.992,58.535-1.628c13.003-0.452,26.004-0.964,39.004-1.539c7.546-0.127,15.077-0.512,22.591-1.154
					c2.934-0.236,3.789-0.662,6.615-1.544c1.062-0.546,2.123-1.093,3.185-1.638c2.321-1.453,4.085-3.413,5.289-5.878
					c1.123-1.664,2.641-6.335,2.834-8.268c0.434-4.315,0.483-8.395,0.262-12.726c-0.155-3.034-0.657-6.082-0.977-9.104
					c-0.28-2.651-0.461-5.313-0.606-7.974c-0.36-6.598-0.444-13.211-0.524-19.818c-0.442-36.649-0.19-73.316-0.191-109.969
					c-0.004-56.016,0.027-112.031,0.063-168.046c0.203-330.312,0.633-660.619,0.999-990.931
					c0.319-287.818,0.78-575.638,0.673-863.458c-0.01-26.504-0.026-53.01-0.089-79.514c-0.018-7.895-0.043-15.789-0.084-23.682
					c-0.204-38.313-0.05-76.625,0.071-114.939c0.162-51.137-0.242-102.281-0.273-153.418c-0.04-66.924-0.042-133.85-0.053-200.775
					c-0.013-64.19-0.018-128.382-0.083-192.573c-0.065-64.408-0.54-128.814-0.709-193.222
					c-0.66-252.184,1.446-504.368,0.745-756.553c-0.002-0.713-1.264-0.01-1.263,0.453c0.458,165.928-0.205,331.855-0.614,497.783
					c-0.196,79.611-0.288,159.222-0.168,238.834c0.082,54.996,0.518,109.99,0.668,164.986
					c0.438,160.888,0.091,321.778,0.247,482.667c0.023,25.429,0.118,50.856,0.241,76.283c0.248,51.028-0.321,102.057-0.059,153.085
					c0.155,30.302,0.139,60.604,0.154,90.905c0.061,118.314-0.055,236.627-0.147,354.943
					c-0.271,343.57-0.722,687.143-1.088,1030.713c-0.164,154.432-0.326,308.861-0.423,463.293
					c-0.036,57.383-0.068,114.766-0.072,172.148c-0.001,38.322-0.109,76.648,0.136,114.971c0.072,11.305,0.17,22.615,1.124,33.885
					c0.253,2.988,0.502,5.97,0.707,8.961c0.279,4.076-0.126,7.989-0.735,12.009c-0.585,3.874-3.132,7.276-5.406,10.286
					c-1.842,1.578-3.903,2.777-6.184,3.598c-3.074,0.992-6.215,1.537-9.421,1.641c-6.498,0.297-12.995,0.595-19.492,0.893
					c-12.996,0.564-25.996,1.069-38.998,1.514c-19.502,0.713-39.013,1.153-58.521,1.592c-39.018,0.879-78.05,0.951-117.075,0.74
					c-39.004-0.21-77.998-1.237-116.978-2.551c-19.47-0.657-38.928-1.596-58.386-2.534c-6.917-1.251-13.826-1.576-20.724-0.978
					c-1.481,0.201-2.959,0.422-4.433,0.662c-6.858,1.071-13.567,1.622-20.51,1.287c-4.097-0.197-7.894-1.423-11.723-2.766
					c-3.794-1.328-6.326-3.925-8.944-6.809c-3.635-4.001-3.352-9.54-3.251-14.418c0.087-4.158,0.166-8.316,0.245-12.475
					c0.202-10.6,0.375-21.199,0.542-31.799c0.745-47.482,1.218-94.97,1.634-142.456c1.168-133.485,1.678-266.976,2.075-400.464
					c0.509-171.402,0.704-342.805,0.782-514.207c0.335-742.477-1.464-1484.955-3.69-2227.429
					c-0.248-82.266-0.505-164.53-0.771-246.795c-0.108-33.266-0.216-66.531-0.338-99.796c-0.106-28.96-0.106-57.926-0.675-86.882
					c-0.118-5.967-0.358-11.93-0.612-17.89c-0.18-2.952-0.379-5.903-0.597-8.853c-0.248-7.396-0.248-14.792-0.001-22.188
					c0.216-12.68,2.001-25.202,4.329-37.637c1.928-10.29,5.641-20.039,9.905-29.544c3.685-8.213,9.251-15.302,15.113-22.032
					c7.95-9.128,19.318-15.454,30.142-20.237c7.451-3.292,15.577-5.013,23.505-6.667c8.221-1.715,16.695-2.285,25.052-2.872
					c17.362-1.218,34.874-0.496,52.261-0.422c21.518,0.091,43.033-0.094,64.551,0.046c24.358,0.158,48.705,0.822,73.046,1.668
					c48.521,1.688,97.027-2.382,145.454-4.806c3.96-0.381,7.916-0.345,11.867,0.11c3.867,0.411,7.641,1.25,11.318,2.514
					c15.559,5.651,26.102,15.224,31.629,28.72c0.57,1.646,1.143,3.293,1.713,4.938c1.337,2.839,2.309,5.797,2.919,8.874
					C525.965,59.984,526.789,59.696,526.694,59.229z"/>
				<path opacity="0.1091" fill="#FFFFFF" d="M523.273,57.97c-0.114-1.614-0.228-3.229-0.341-4.844
					c-0.48-3.312-1.363-6.512-2.652-9.602c-1.706-4.951-5.083-9.138-8.263-13.185c-3.324-4.232-7.94-7.32-12.348-10.27
					c-4.641-3.104-9.992-4.693-15.272-6.271c-5.447-1.626-11.377-1.442-16.976-1.311c-6.245,0.275-12.49,0.55-18.735,0.824
					c-12.324,0.597-24.648,1.204-36.971,1.82c-18.115,0.9-36.221,1.487-54.353,1.882c-23.551,0.512-47.135-0.884-70.67-1.535
					c-33.956-0.938-67.919-0.673-101.882-0.772c-13.134-0.039-26.265-0.238-39.398-0.079c-12.711,0.155-25.315,1.209-37.868,3.196
					c-6.075,0.96-12,2.743-17.875,4.504c-7.711,2.31-14.795,6.058-21.671,10.156c-10.963,6.539-19.093,16.508-26.049,26.975
					c-4.012,6.04-6.581,12.952-9.183,19.663c-3.011,7.765-4.553,16.066-6.173,24.194c-1.9,9.521-2.392,19.31-2.994,28.971
					c-0.55,8.82-0.393,17.76,0.07,26.579c0.555,10.534,0.658,21.102,0.806,31.647c0.641,45.998,0.417,92.006,0.587,138.006
					c1.114,300.788,1.924,601.578,2.66,902.367c0.957,391.429,1.672,782.859,1.953,1174.29
					c0.252,353.191,0.274,706.388-1.106,1059.576c-0.476,122.007-1.043,244.023-2.389,366.023
					c-0.234,21.257-0.523,42.515-0.847,63.771c-0.142,9.307-0.301,18.613-0.467,27.918c-0.077,4.311-0.161,8.621-0.245,12.93
					c-0.105,5.368-0.364,10.705,0.025,16.063c0.271,3.749,2.858,6.646,5.181,9.294c2.515,2.868,6.457,4.063,9.895,5.295
					c3.636,1.302,7.579,1.438,11.384,1.687c3.53,0.229,7.058-0.083,10.573-0.349c2.753-0.206,5.488-0.594,8.227-0.93
					c7.267-0.893,18.075,0.611,23.078,0.884c45.506,2.48,91.053,3.896,136.616,4.805c78.029,1.556,156.097,0.321,234.08-2.532
					c13.982-0.512,28.033-0.992,41.996-1.892c3.445-0.222,6.232-1.31,9.304-2.779c3.465-1.658,5.02-5.245,6.55-8.467
					c2.145-4.509,1.787-10.169,1.791-15.012c0.002-2.836-0.329-5.654-0.514-8.48c-0.168-2.573-0.156-5.163-0.244-7.739
					c-0.194-5.624-0.215-11.259-0.281-16.885c-0.187-15.969-0.108-31.947-0.133-47.917c-0.169-110.238,0.034-220.477,0.107-330.715
					c0.229-340.181,0.675-680.362,1.045-1020.543c0.288-263.669,0.649-527.34,0.523-791.009
					c-0.008-16.832-0.074-33.664-0.112-50.498c-0.141-64.213,0.157-128.426-0.163-192.638c-0.236-47.364-0.089-94.735-0.11-142.101
					c-0.03-66.358-0.033-132.716-0.046-199.076c-0.01-51.865-0.023-103.73-0.057-155.596c-0.01-14.525-0.146-29.048-0.133-43.573
					c0.027-26.672-0.312-53.351-0.417-80.023c-0.13-33.232-0.176-66.465-0.21-99.697c-0.235-232.255,1.466-464.508,0.833-696.764
					c-0.504,0.213-0.906,0.561-1.207,1.045c-1.271,1.506-2.515,3.036-3.73,4.588c-1.231,1.541-2.433,3.103-3.605,4.687
					c-0.402,0.406-0.648,0.876-0.739,1.416c0.411,165.918-0.26,331.838-0.645,497.756c-0.185,79.627-0.252,159.256-0.113,238.884
					c0.07,39.917,0.262,79.833,0.421,119.749c0.137,6.805,0.273,13.609,0.409,20.414c-0.341,1.984-0.466,3.981-0.378,5.995
					c-0.105,6.25-0.133,12.477,0.109,18.723c0.52,13.387,0.105,26.832,0.06,40.229c-0.057,17.276-0.076,34.554-0.097,51.831
					c-0.059,45.725-0.06,91.449-0.06,137.174c0.001,84.508-0.175,169.024,0.441,253.531c0.05,6.804,0,13.55-0.332,20.348
					c0.021,2.067,0.041,4.136,0.061,6.202c0.02,3.742,0.075,7.483,0.169,11.224c0.092,4.566,0.234,9.127,0.382,13.691
					c-0.038,1.125-0.077,2.252-0.116,3.377c-0.273,7.106-0.285,14.216-0.034,21.331c0.119,35.671-0.152,71.344-0.175,107.015
					c0.007,6.036,0.013,12.072,0.019,18.106c0.932,6.854,1.076,13.685,0.436,20.495c-0.216,2.515-0.2,5.04-0.247,7.564
					c-0.099,5.2,0.073,10.399,0.21,15.598c0.172,6.454-0.103,12.957-0.14,19.414c-0.111,18.54-0.145,37.079-0.183,55.619
					c-0.022,10.496-0.04,20.993-0.062,31.488c-0.012,5.688-0.007,11.373-0.001,17.061c0.006,6.13,0.494,12.245,0.478,18.384
					c-0.073,28.787-0.127,57.573-0.179,86.361c-0.12,67.242-0.216,134.486-0.306,201.73c-0.461,343.536-0.886,687.072-1.19,1030.608
					c-0.137,154.502-0.266,309.004-0.215,463.506c0.012,29.688,0.03,59.377,0.063,89.065c0.017,13.428,0.038,26.854,0.062,40.283
					c0.011,6.331,0.031,12.662,0.029,18.992c-0.033,3.9-0.202,7.795-0.503,11.684c0.006,3.951,0.011,7.904,0.018,11.855
					c0.033,21.078,0.086,42.155,0.167,63.232c0.033,8.75,0.083,17.5,0.135,26.251c0.052,8.542,0.245,17.091-0.005,25.632
					c-0.199,6.842,0.054,13.7,0.163,20.545c0.039,2.43-0.042,4.869-0.076,7.298c-0.034,2.514-0.647,5.159-1.054,7.636
					c0.067-0.115,0.132-0.232,0.198-0.347c-0.331,0.521-0.66,1.045-0.991,1.567c-0.076,1.315-0.339,2.592-0.789,3.829
					c-0.299,0.604-0.599,1.207-0.897,1.809c-0.309,1.279-0.934,2.378-1.873,3.3c-0.578,0.394-1.157,0.788-1.734,1.182
					c-1.568,1.122-3.293,1.895-5.175,2.314c-2.717,0.904-5.872,0.669-8.683,0.663c-6.48,0.281-12.961,0.563-19.442,0.846
					c-12.964,0.534-25.93,1.008-38.897,1.422c-19.454,0.665-38.916,1.059-58.376,1.453c-45.418,0.921-90.851,0.79-136.271,0.233
					c-38.954-0.476-77.892-1.773-116.814-3.354c-19.625-0.798-39.23-1.867-58.859-2.58c-1.524-0.056-3.07-0.251-4.597-0.332
					c-4.564-0.248-9.104-0.856-13.504-2.106c-0.724-0.313-1.446-0.625-2.169-0.936c-1.402-0.338-2.678-0.94-3.827-1.81
					c-1.089-1.038-2.134-2.119-3.138-3.24c-1.04-1.443-1.718-3.042-2.036-4.797c-1.025-3.383-0.534-7.264-0.454-10.724
					c0.096-4.145,0.183-8.291,0.27-12.437c0.19-8.987,0.35-17.974,0.509-26.961c0.397-22.533,0.698-45.068,0.987-67.603
					c0.074-5.783,0.124-11.565,0.173-17.349c0.053-6.182-0.378-12.353-0.305-18.541c0.147-12.552,0.277-25.104,0.404-37.655
					c0.303-29.851,0.551-59.703,0.776-89.556c2.44-322.042,2.471-644.104,2.504-966.153c0.042-393.893-0.557-787.785-1.402-1181.676
					c-0.724-336.832-1.623-673.663-2.917-1010.492c-0.146-37.652-0.299-75.304-0.464-112.954
					c-0.079-18.225-0.162-36.451-0.249-54.675c-0.079-16.619-0.66-33.31,0.3-49.908c-0.018-3.986-0.036-7.973-0.054-11.958
					c-0.017-3.895-0.035-7.79-0.051-11.685c-0.035-7.513-0.069-15.026-0.104-22.539c-0.063-13.894-0.128-27.786-0.187-41.678
					c-0.05-12.353-0.083-24.705-0.057-37.057c0.011-5.396,0.256-10.783,0.518-16.173c0.022-7.067,0.313-14.124,0.875-21.169
					c0.496-6.248,1.275-12.459,2.339-18.635c1.202-8.044,3.568-15.8,6.053-23.515c1.57-4.433,3.433-8.739,5.588-12.919
					c1.863-3.704,4.082-7.178,6.659-10.423c2.436-2.739,4.883-5.466,7.344-8.183c2.625-2.649,5.428-5.096,8.408-7.34
					c5.682-4.605,12.539-7.639,19.208-10.469c7.093-3.01,14.829-4.523,22.281-6.333c7.97-1.937,16.184-2.399,24.338-2.95
					c17.183-1.16,34.485-0.511,51.689-0.453c4.324-0.121,8.645-0.05,12.962,0.213c12.887-0.035,25.774-0.003,38.662,0.097
					c24.766,0.127,49.523,0.749,74.278,1.503c11.588,0.486,23.18,0.85,34.775,1.091c11.713,0.14,23.424,0.093,35.135-0.141
					c23.665-0.282,47.328-1.21,70.989-1.713c7.4-1.376,14.678-1.267,21.835,0.327c2.971,0.364,5.851,1.09,8.639,2.18
					c5.573,1.787,10.256,5.376,14.558,9.202c4.375,3.892,7.223,9.009,9.663,14.229c2.486,5.318,2.774,11.412,2.761,17.155
					c0.515-0.172,0.94-0.487,1.273-0.945c1.372-1.399,2.717-2.824,4.035-4.273c1.334-1.435,2.639-2.896,3.918-4.379
					C522.867,58.948,523.146,58.498,523.273,57.97z"/>
				<path opacity="0.1091" fill="#FFFFFF" d="M522.939,59.195c-0.113-1.597-0.227-3.194-0.339-4.792
					c-0.487-3.286-1.367-6.464-2.641-9.534c-1.698-4.946-5.07-9.14-8.238-13.184c-3.33-4.251-7.932-7.359-12.338-10.342
					c-4.639-3.141-10.02-4.77-15.308-6.376c-5.456-1.657-11.383-1.532-17.002-1.476c-6.302,0.281-12.604,0.561-18.905,0.84
					c-12.354,0.583-24.705,1.186-37.057,1.809c-18.141,0.899-36.271,1.501-54.427,1.907c-23.557,0.526-47.147-0.858-70.688-1.504
					c-33.958-0.933-67.923-0.64-101.889-0.772c-13.136-0.051-26.27-0.226-39.407-0.069c-12.726,0.152-25.346,1.202-37.914,3.177
					c-6.095,0.958-12.05,2.758-17.947,4.513c-7.754,2.308-14.879,6.061-21.801,10.16C55.965,40.111,47.76,50.145,40.693,60.66
					c-4.087,6.081-6.683,13.102-9.315,19.877c-3.043,7.831-4.594,16.21-6.226,24.41c-1.906,9.588-2.389,19.444-2.982,29.171
					c-0.543,8.874-0.373,17.868,0.109,26.738c0.575,10.587,0.728,21.202,0.892,31.803c0.711,46.01,0.459,92.037,0.625,138.05
					c1.084,300.783,1.91,601.565,2.644,902.349c0.955,391.427,1.671,782.856,1.95,1174.286c0.252,353.193,0.276,706.39-1.1,1059.579
					c-0.476,122.004-1.001,244.014-2.401,366.009c-0.244,21.259-0.522,42.516-0.844,63.772c-0.143,9.307-0.3,18.613-0.467,27.919
					c-0.077,4.31-0.16,8.618-0.245,12.929c-0.105,5.375-0.364,10.716,0.032,16.08c0.281,3.813,2.938,6.777,5.31,9.461
					c2.596,2.942,6.725,4.193,10.264,5.449c3.772,1.338,7.892,1.43,11.834,1.646c3.645,0.2,7.267-0.18,10.889-0.511
					c2.8-0.256,5.578-0.699,8.361-1.088c7.268-1.019,18.111,0.523,23.129,0.783c45.512,2.361,91.036,3.887,136.599,4.786
					c78.033,1.538,156.103,0.285,234.09-2.581c13.979-0.514,28.032-0.986,41.99-1.903c3.47-0.227,6.262-1.353,9.34-2.863
					c3.485-1.712,5.02-5.408,6.511-8.686c2.076-4.567,1.694-10.315,1.659-15.192c-0.02-2.856-0.331-5.674-0.527-8.522
					c-0.182-2.626-0.189-5.263-0.342-7.892c-0.324-5.603-0.391-11.225-0.474-16.834c-0.237-15.963-0.143-31.938-0.173-47.901
					c-0.202-110.237,0.037-220.477,0.108-330.716c0.385-603.847,1.705-1207.697,1.569-1811.544
					c-0.004-16.825-0.085-33.65-0.103-50.475c-0.008-7.966-0.084-15.891-0.16-23.877c-0.287-29.692,0.107-59.403,0.2-89.095
					c0.083-26.571-0.077-53.139-0.223-79.708c-0.259-47.364-0.086-94.736-0.11-142.102c-0.033-66.36-0.036-132.719-0.048-199.079
					c-0.008-51.853-0.021-103.706-0.04-155.558c-0.004-14.501-0.246-29.004-0.111-43.505c-0.141-13.384-0.23-26.769-0.268-40.154
					c-0.066-13.313-0.125-26.626-0.172-39.939c-0.131-33.234-0.177-66.466-0.21-99.698c-0.235-232.256,1.467-464.508,0.833-696.764
					c-0.369,0.06-0.663,0.258-0.88,0.595c-0.865,0.945-1.703,1.916-2.513,2.91c-0.654,0.792-2.813,2.739-2.811,3.986
					c0.422,165.921-0.248,331.84-0.639,497.761c-0.188,79.623-0.262,159.247-0.127,238.87c0.067,39.911,0.276,79.82,0.406,119.73
					c0.041,12.658,0.209,17.016,0.078,26.432c-0.087,6.245-0.129,12.469,0.09,18.712c0.471,13.395,0.105,26.836,0.069,40.24
					c-0.047,17.274-0.062,34.547-0.079,51.821c-0.046,45.722-0.046,91.445-0.044,137.169c0.003,84.512-0.121,169.028,0.385,253.54
					c0.04,6.794,0.036,13.538-0.28,20.327c0.019,2.067,0.036,4.135,0.055,6.205c0.02,3.741,0.064,7.481,0.138,11.221
					c0.075,4.583,0.215,9.16,0.363,13.74c-0.035,1.123-0.069,2.244-0.104,3.366c-0.242,7.103-0.247,14.21-0.019,21.319
					c0.128,35.668-0.161,71.338-0.183,107.006c-0.002,6.029-0.003,12.057-0.003,18.086c0.82,7.298,0.929,14.577,0.323,21.837
					c-0.157,2.066-0.083,4.183-0.116,6.255c-0.083,5.207,0.057,10.404,0.188,15.608c0.162,6.453-0.084,12.946-0.116,19.402
					c-0.09,18.535-0.116,37.069-0.149,55.604c-0.018,10.496-0.035,20.99-0.05,31.486c-0.01,5.68-0.013,11.362-0.017,17.042
					c-0.003,6.145,0.438,12.281,0.426,18.432c-0.063,28.784-0.111,57.567-0.157,86.352c-0.108,67.24-0.195,134.48-0.281,201.721
					c-0.438,343.533-0.862,687.068-1.177,1030.603c-0.141,154.505-0.273,309.011-0.243,463.518c0.006,29.69,0.02,59.38,0.047,89.071
					c0.011,13.428,0.029,26.856,0.049,40.285c0.01,6.334,0.023,12.666,0.03,19c0.006,3.888-0.14,7.771-0.438,11.646
					c0.005,3.953,0.011,7.905,0.017,11.857c0.027,21.08,0.071,42.161,0.144,63.241c0.03,8.755,0.075,17.51,0.123,26.264
					c0.049,8.56,0.256,17.125,0.045,25.684c-0.274,11.074,0.83,22.151,0.363,33.216c-0.119,2.85-0.913,5.526-1.274,8.353
					c-0.313,2.455-1.519,4.729-2.477,6.974c-1.013,2.376-3.881,3.712-5.921,4.936c-1.913,0.843-3.906,1.407-5.979,1.694
					c-1.896,0.154-3.797,0.211-5.699,0.169c-6.486,0.284-12.971,0.571-19.455,0.857c-12.972,0.542-25.946,1.024-38.923,1.445
					c-19.466,0.679-38.938,1.085-58.412,1.492c-38.951,0.813-77.914,0.816-116.871,0.542c-38.965-0.273-77.918-1.361-116.857-2.736
					c-19.47-0.688-38.928-1.653-58.386-2.637c-8.155-0.412-16.755-0.728-25.073-0.565c-5.356,0.104-10.604-0.249-15.837-1.427
					c-2.61-0.588-5.086-1.806-7.372-3.141c-2.266-1.323-3.885-3.827-5.205-5.981c-1.692-2.767-1.581-6.588-1.632-9.659
					c-0.068-4.055,0.186-8.151,0.273-12.205c0.223-10.396,0.414-20.793,0.597-31.191c0.364-20.658,0.647-41.317,0.912-61.977
					c0.073-5.703,0.143-11.406,0.206-17.11c0.068-6.108-0.109-12.188-0.275-18.294c-0.167-6.088,0.14-12.24,0.206-18.328
					c0.094-8.459,0.18-16.917,0.265-25.375c1.33-132.469,1.875-264.945,2.319-397.418c0.572-170.766,0.788-341.531,0.889-512.299
					c0.435-743.363-1.266-1486.732-3.845-2230.092c-0.303-87.46-0.628-174.92-1.021-262.379c-0.076-17.195-0.172-34.391-0.24-51.585
					c-0.019-3.898,0.124-7.79,0.425-11.675c-0.017-3.986-0.035-7.972-0.051-11.957c-0.042-9.564-0.086-19.128-0.132-28.692
					c-0.138-29.599-0.435-59.197-0.563-88.794c-0.033-7.768,0.224-15.545,0.317-23.313c0.155-12.836,1.903-25.523,4.223-38.118
					c1.865-10.129,5.505-19.725,9.7-29.075c4.165-9.28,11.218-16.896,18.383-23.933c5.405-5.31,12.114-9.081,18.766-12.55
					c8.616-4.494,18.299-6.628,27.646-8.963c8.007-2.001,16.27-2.527,24.471-3.125c10.648-0.778,21.369-0.688,32.037-0.666
					c8.804,0.018,17.602,0.155,26.406,0.084c8.576,0.354,17.158,0.418,25.745,0.188c12.793,0.017,25.586,0.105,38.378,0.263
					c24.27,0.234,48.53,0.995,72.785,1.854c29.467,1.042,58.928,0.007,88.38-1.013c11.979-0.454,23.956-0.846,35.938-1.174
					c7.682-1.433,15.282-1.439,22.798-0.025c3.236,0.33,6.392,1.024,9.467,2.083c4.576,1.289,8.566,3.92,12.483,6.494
					c5.188,3.412,8.928,8.601,12.254,13.703c1.532,2.635,2.744,5.409,3.64,8.323c1.561,4.222,1.667,8.782,1.729,13.206
					c0.368-0.017,0.675-0.181,0.922-0.491c0.939-0.84,1.853-1.707,2.741-2.601C520.34,62.296,523.016,60.258,522.939,59.195z"/>
				<path opacity="0.1091" fill="#FFFFFF" d="M525.661,56.39c-0.506-6.017-0.148-3.729-1.475-9.539
					c-0.811-3.553-2.507-6.558-4.093-9.787c-2.396-4.879-6.391-8.846-10.158-12.64c-3.983-4.011-9.036-6.683-13.961-9.302
					c-5.153-2.741-11.021-3.792-16.685-4.795c-1.988-0.151-3.979-0.3-5.968-0.451c-8.322,0.166-16.64,0.519-24.948,1.062
					c-18.496,0.885-36.983,1.946-55.478,2.847c-12.046,0.565-24.1,0.948-36.156,1.152c-11.682,0.201-23.36,0.087-35.037-0.341
					c-5.856-0.205-11.712-0.41-17.568-0.614c-12.201-0.373-24.404-0.653-36.611-0.844c-19.127-0.371-38.261-0.375-57.391-0.404
					c-17.456-0.028-34.906,0-52.361-0.094c-12.92-0.07-25.784,0.375-38.649,1.581c-6.273,0.588-12.429,1.766-18.589,3.044
					c-8.06,1.673-15.728,4.536-23.26,7.783c-5.665,2.443-10.745,5.931-15.771,9.448c-5.265,3.683-9.599,8.505-13.835,13.27
					c-4.631,5.208-8.004,11.347-11.325,17.416c-5.103,9.329-7.845,19.92-10.386,30.141c-2.269,9.121-3.066,18.59-3.97,27.91
					c-1.057,10.905-0.776,21.931-0.61,32.863c0.068,4.509,0.574,9.064,0.778,13.574c0.205,4.544,0.317,9.093,0.439,13.64
					c0.579,21.593,0.519,43.212,0.613,64.811c1.226,277.773,1.778,555.552,2.49,833.328c0.991,386.487,1.769,772.977,2.172,1159.465
					c0.383,366.317,0.503,732.638-0.507,1098.954c-0.372,135.311-0.907,270.622-2.021,405.929
					c-0.4,48.638-0.892,97.273-1.603,145.907c-0.263,18.01-0.572,36.017-0.936,54.024c-0.029,1.333-0.057,2.667-0.084,4
					c-0.025,2.607,0.453,5.118,1.434,7.531c0.707,2.361,3.277,4.776,4.853,6.504c2.899,3.18,7.312,4.451,11.221,5.762
					c5.328,1.787,11.285,1.539,16.809,1.359c5.915-0.192,11.761-1.544,17.598-2.401c0.48-0.026,0.96-0.053,1.439-0.079
					c13.021,0.688,26.043,1.352,39.068,1.991c19.505,0.976,39.023,1.642,58.541,2.311c84.533,2.896,169.161,2.465,253.7,0.114
					c19.506-0.542,39.002-1.355,58.497-2.171c8.539-0.356,17.148-0.356,25.624-1.568c1.67-0.238,5.303-1.632,6.586-2.671
					c0.988-0.803,1.977-1.605,2.965-2.407c1.768-2.033,3.098-4.323,3.99-6.866c1.757-3.803,1.671-8.396,1.802-12.469
					c0.112-3.443-0.299-6.941-0.714-10.354c-0.753-6.188-1.048-12.435-1.272-18.658c-0.479-13.325-0.362-26.679-0.402-40.011
					c-0.061-20-0.067-40.002-0.076-60.004c-0.023-53.173,0.053-106.346,0.073-159.521c0.242-621.104,1.627-1242.206,1.658-1863.308
					c0.002-29.115-0.003-58.228-0.027-87.341c-0.028-33.014-0.294-66.025-0.235-99.039c0.067-39.353,0.468-78.709,0.051-118.061
					c-0.223-20.956-0.091-41.915-0.12-62.87c-0.094-67.964-0.086-135.929-0.099-203.894c-0.011-66.098-0.017-132.196-0.05-198.293
					c-0.031-63.342-0.442-126.678-0.65-190.019c-0.843-258.834,1.408-517.667,0.692-776.502c-0.002-0.863-1.319,0.793-1.254,0.717
					c-0.56,0.656-1.098,1.329-1.615,2.019c-0.314,0.342-0.547,0.729-0.696,1.163c0.444,165.923-0.22,331.847-0.626,497.772
					c-0.193,79.617-0.276,159.233-0.152,238.85c0.063,39.917,0.242,79.833,0.427,119.749c0.11,6.875,0.223,13.75,0.335,20.625
					c-0.209,1.942-0.275,3.889-0.198,5.841c-0.024,6.233-0.058,12.458,0.062,18.689c0.254,13.411,0.083,26.834,0.076,40.247
					c-0.01,17.286-0.01,34.572-0.013,51.86c-0.005,45.732,0,91.464,0.005,137.196c0.01,84.479-0.038,168.959,0.214,253.438
					c0.037,12.598-0.1,25.187-0.016,37.786c0.086,12.813,0.172,25.614,0.226,38.431c0.152,35.661-0.16,71.324-0.209,106.985
					c0.003,6.033,0.006,12.065,0.009,18.099c0.549,6.857,0.645,13.707,0.287,20.55c-0.118,2.509-0.088,5.021-0.101,7.534
					c-0.059,11.669,0.096,23.34,0.08,35.011c-0.024,18.555-0.029,37.112-0.039,55.667c-0.005,10.501-0.011,21.004-0.017,31.506
					c-0.005,11.784,0.195,23.564,0.185,35.347c-0.03,28.796-0.057,57.594-0.084,86.391c-0.064,67.256-0.134,134.512-0.2,201.766
					c-0.345,343.545-0.784,687.088-1.128,1030.633c-0.153,154.485-0.303,308.972-0.345,463.459
					c-0.008,29.679-0.011,59.359-0.007,89.041c0.002,13.421,0.007,26.843,0.014,40.265c0.006,14.212-0.185,28.415-0.178,42.626
					c0.012,21.064,0.031,42.131,0.071,63.195c0.033,17.314,0.36,34.643,0.204,51.955c-0.103,11.143,0.426,22.304,1.478,33.395
					c0.367,3.87,0.53,7.719,0.525,11.605c-0.006,3.731-0.867,7.091-2.068,10.578c-0.548,1.018-1.096,2.037-1.643,3.057
					c-2.98,3.753-6.686,6.069-11.117,6.953c-1.963,0.29-3.937,0.463-5.92,0.52c-12.981,0.625-25.966,1.19-38.953,1.696
					c-77.931,3.215-155.957,3.72-233.937,2.569c-38.992-0.575-77.964-1.982-116.919-3.692c-6.493-0.315-12.984-0.632-19.477-0.949
					c-6.994-1.149-13.973-1.406-20.933-0.77c-3.146,0.263-6.327,1.019-9.444,1.509c-3.449,0.542-6.905,0.694-10.389,0.801
					c-3.95,0.122-7.661-0.582-11.479-1.477c-1.252-0.443-2.504-0.886-3.756-1.327c-2.446-0.901-4.561-2.302-6.343-4.201
					c-0.822-0.966-1.645-1.931-2.468-2.896c-2.219-3.254-3.296-6.799-3.23-10.632c0.027-1.334,0.055-2.668,0.083-4.002
					c0.055-2.746,0.109-5.492,0.162-8.238c0.084-4.314,0.161-8.627,0.238-12.94c0.196-10.951,0.364-21.903,0.527-32.854
					c0.72-48.638,1.185-97.279,1.592-145.921c1.129-135.31,1.624-270.625,2.011-405.939c0.494-172.583,0.667-345.165,0.734-517.748
					c0.287-740.757-1.519-1481.516-3.755-2222.268c-0.238-78.812-0.484-157.623-0.74-236.434
					c-0.101-31.022-0.202-62.043-0.315-93.065c-0.1-27.429-0.108-54.862-0.563-82.287c-0.174-10.456-0.53-20.895-1.121-31.334
					c-0.794-14.038,0.349-28.201,1.812-42.149c1.205-11.467,4.185-22.563,7.754-33.481c7.254-21.322,21.091-37.77,41.514-49.342
					c3.549-1.834,7.193-3.451,10.934-4.852c7.625-3.116,15.912-4.735,23.947-6.364c8.159-1.655,16.663-2.026,24.95-2.528
					c8.61-0.523,17.261-0.472,25.881-0.475c8.803-0.001,17.603,0.165,26.406,0.129c21.427-0.086,42.86,0.03,64.289,0.192
					c24.311,0.183,48.608,0.874,72.903,1.705c23.651,0.81,47.256,0.118,70.893-0.756c12.282-0.538,24.563-1.107,36.844-1.707
					c14.269-0.755,28.548-1.198,42.838-1.33c3.735,0.277,7.406,0.923,11.012,1.939c3.481,1.021,6.828,2.375,10.04,4.06
					c6.393,2.96,11.476,8.105,16.089,13.255c2.123,2.659,3.96,5.502,5.509,8.53c2.828,5.604,4.321,11.615,4.48,18.035
					c0.046,0.785,1.227-0.495,1.286-0.551c0.6-0.574,1.181-1.168,1.742-1.778C525.224,57.144,525.48,56.794,525.661,56.39z"/>
				<path opacity="0.1091" fill="#FFFFFF" d="M523.291,56.902c-0.112-1.622-0.223-3.244-0.334-4.865
					c-0.47-3.334-1.354-6.555-2.654-9.664c-1.718-4.987-5.117-9.208-8.317-13.286c-3.354-4.272-8.003-7.386-12.449-10.363
					c-4.682-3.135-10.091-4.729-15.419-6.31c-5.508-1.633-11.487-1.426-17.143-1.271c-18.605,0.508-37.227,1.778-55.815,2.721
					c-18.128,0.92-36.244,1.518-54.39,1.922c-23.554,0.524-47.143-0.877-70.681-1.527c-33.96-0.934-67.931-0.684-101.899-0.753
					c-13.133-0.026-26.263-0.238-39.398-0.075c-12.717,0.158-25.326,1.229-37.881,3.236c-6.078,0.972-12,2.76-17.876,4.534
					c-7.723,2.333-14.807,6.116-21.679,10.25c-10.97,6.598-19.081,16.64-26.008,27.167c-3.999,6.075-6.553,13.027-9.14,19.765
					c-2.992,7.793-4.518,16.115-6.125,24.264c-1.881,9.541-2.358,19.344-2.947,29.021c-0.536,8.828-0.375,17.777,0.108,26.603
					c0.577,10.54,0.693,21.113,0.847,31.664c0.673,45.994,0.429,92,0.599,137.997c1.109,300.793,1.925,601.587,2.661,902.382
					c0.956,391.429,1.673,782.858,1.951,1174.29c0.253,353.189,0.276,706.383-1.105,1059.569
					c-0.477,122.009-1.016,244.026-2.391,366.028c-0.239,21.257-0.524,42.513-0.849,63.769c-0.141,9.306-0.3,18.609-0.466,27.914
					c-0.078,4.31-0.162,8.619-0.246,12.928c-0.105,5.368-0.364,10.705,0.025,16.063c0.272,3.754,2.876,6.669,5.204,9.319
					c2.516,2.863,6.489,4.1,9.923,5.344c3.637,1.318,7.637,1.467,11.448,1.729c3.552,0.244,7.116-0.082,10.652-0.353
					c2.769-0.212,5.52-0.618,8.273-0.969c0.652-0.066,1.305-0.133,1.958-0.199c13.555,0.621,27.106,1.287,40.657,1.999
					c45.498,2.313,91.053,3.401,136.602,4.091c78.033,1.183,156.091-0.427,234.058-3.642c8.431-0.348,17.142-0.373,25.589-1.493
					c3.604-0.479,6.377-2.474,9.144-4.624c0.705-0.948,1.41-1.896,2.115-2.845c1.28-2.206,2.2-4.556,2.76-7.045
					c0.474-2.536,0.732-5.094,0.773-7.674c0.05-2.417,0.026-4.833-0.069-7.249c-0.064-2.598-0.401-5.222-0.522-7.824
					c-0.124-2.644-0.182-5.294-0.26-7.938c-0.17-5.776-0.228-11.558-0.284-17.335c-0.158-16.417-0.098-32.839-0.121-49.256
					c-0.157-111.617,0.042-223.235,0.121-334.853c0.242-340.816,0.678-681.633,1.053-1022.448
					c0.288-261.475,0.679-522.951,0.507-784.425c-0.012-16.179-0.066-32.358-0.118-48.537
					c-0.203-63.575,0.136-127.149-0.154-190.724c-0.216-47.364-0.088-94.733-0.109-142.099
					c-0.03-66.358-0.032-132.716-0.045-199.074c-0.011-51.868-0.023-103.737-0.062-155.605c-0.012-14.526-0.155-29.051-0.128-43.576
					c0.05-26.67-0.316-53.35-0.422-80.022c-0.132-33.231-0.176-66.463-0.211-99.695c-0.235-232.256,1.468-464.508,0.834-696.763
					c-0.463,0.197-0.822,0.525-1.078,0.986c-1.101,1.421-2.172,2.864-3.213,4.328c-1.059,1.453-2.087,2.927-3.085,4.422
					c-0.355,0.389-0.554,0.833-0.594,1.334c0.418,165.919-0.252,331.839-0.641,497.758c-0.188,79.626-0.257,159.252-0.121,238.879
					c0.068,39.916,0.266,79.831,0.414,119.746c0.139,6.799,0.275,13.597,0.412,20.396c-0.316,2.001-0.433,4.017-0.347,6.044
					c-0.092,6.244-0.128,12.467,0.093,18.708c0.475,13.393,0.104,26.833,0.066,40.234c-0.048,17.285-0.063,34.569-0.081,51.854
					c-0.045,45.73-0.047,91.461-0.045,137.192c0.002,84.488-0.146,168.981,0.393,253.468c0.043,6.822,0.022,13.594-0.285,20.411
					c0.019,2.064,0.036,4.129,0.054,6.193c0.017,3.732,0.065,7.464,0.145,11.196c0.079,4.551,0.216,9.096,0.358,13.646
					c-0.034,1.132-0.069,2.266-0.104,3.398c-0.242,7.113-0.251,14.23-0.021,21.348c0.126,35.67-0.156,71.342-0.18,107.012
					c0.001,6.033,0.004,12.065,0.006,18.099c0.865,6.837,1.005,13.655,0.419,20.457c-0.196,2.529-0.181,5.066-0.223,7.602
					c-0.086,5.193,0.063,10.38,0.191,15.571c0.161,6.467-0.086,12.974-0.118,19.444c-0.091,18.552-0.119,37.105-0.152,55.657
					c-0.02,10.5-0.034,21.001-0.053,31.501c-0.01,5.685-0.011,11.368-0.012,17.051c-0.002,6.105,0.441,12.199,0.428,18.311
					c-0.064,28.796-0.114,57.591-0.159,86.387c-0.108,67.252-0.198,134.505-0.284,201.759
					c-0.438,343.542-0.865,687.084-1.177,1030.627c-0.141,154.489-0.275,308.979-0.242,463.47
					c0.007,29.683,0.021,59.364,0.049,89.046c0.013,13.424,0.03,26.847,0.05,40.27c0.01,6.332,0.027,12.663,0.036,18.994
					c-0.013,3.927-0.162,7.848-0.448,11.765c0.005,3.95,0.011,7.9,0.017,11.853c0.027,21.067,0.073,42.136,0.146,63.205
					c0.029,8.742,0.073,17.486,0.121,26.229c0.048,8.549,0.245,17.101,0.029,25.647c-0.174,6.846,0.09,13.704,0.261,20.552
					c0.131,5.278,0.07,10.447-0.36,15.713c0.045-0.111,0.089-0.223,0.132-0.335c-0.285,0.619-0.57,1.239-0.856,1.858
					c-0.069,1.524-0.326,3.018-0.768,4.481c-0.295,0.716-0.589,1.433-0.886,2.147c-0.358,1.428-1.038,2.682-2.038,3.764
					c-0.606,0.469-1.213,0.939-1.817,1.41c-1.592,1.192-3.354,2.026-5.285,2.504c-2.737,0.978-5.922,0.775-8.772,0.798
					c-6.482,0.283-12.965,0.568-19.448,0.854c-12.969,0.54-25.939,1.021-38.912,1.439c-19.459,0.676-38.928,1.078-58.396,1.482
					c-45.434,0.94-90.882,0.832-136.319,0.294c-38.965-0.463-77.916-1.744-116.851-3.314c-22.014-0.889-44.002-2.375-66.038-2.641
					c-5.162-0.063-10.32-0.767-15.163-2.552c-0.761-0.271-1.521-0.54-2.282-0.809c-1.504-0.673-2.81-1.621-3.916-2.843
					c-3.074-2.764-3.921-6.093-4.623-10.019c-0.02-1.218-0.04-2.436-0.06-3.653c0.063-2.686,0.122-5.371,0.181-8.055
					c0.094-4.225,0.177-8.447,0.262-12.672c0.184-9.138,0.345-18.278,0.499-27.416c0.385-22.845,0.684-45.69,0.966-68.537
					c0.149-12.102-0.201-24.187-0.063-36.291c0.143-12.684,0.27-25.367,0.393-38.052c0.295-30.122,0.536-60.245,0.755-90.368
					c2.366-323.396,2.397-646.815,2.417-970.218c0.022-393.958-0.575-787.917-1.427-1181.873
					c-0.725-335.609-1.618-671.219-2.883-1006.827c-0.14-37.357-0.29-74.714-0.449-112.071c-0.076-18.057-0.156-36.113-0.239-54.17
					c-0.04-8.515-0.081-17.03-0.127-25.546c-0.044-7.956,0.403-15.88,0.368-23.832c-0.116-27.289-0.245-54.579-0.37-81.87
					c-0.058-12.396-0.112-24.792-0.145-37.188c-0.016-5.473,0.146-10.938,0.337-16.406c-0.007-7.135,0.253-14.26,0.782-21.375
					c0.469-6.327,1.224-12.619,2.262-18.876c1.173-8.177,3.52-16.074,5.986-23.928c1.565-4.532,3.427-8.938,5.584-13.218
					c1.88-3.814,4.107-7.413,6.683-10.794c2.425-2.86,4.89-5.682,7.395-8.47c2.649-2.733,5.485-5.258,8.508-7.574
					c5.734-4.731,12.659-7.881,19.415-10.809c7.128-3.089,14.911-4.655,22.419-6.487c7.998-1.951,16.241-2.455,24.423-3.032
					c17.189-1.211,34.511-0.562,51.724-0.493c41.994,0.167,83.982,0.468,125.966,1.72c11.591,0.483,23.186,0.839,34.784,1.071
					c11.73,0.127,23.459,0.061,35.187-0.202c23.78-0.333,47.558-1.375,71.331-1.98c7.527-1.336,14.964-1.292,22.31,0.13
					c3.096,0.341,6.109,1.044,9.035,2.111c5.821,1.738,10.759,5.396,15.303,9.27c4.59,3.911,7.619,9.154,10.235,14.476
					c2.646,5.387,3.022,11.568,3.055,17.436c0.471-0.16,0.849-0.461,1.134-0.899c1.185-1.33,2.342-2.684,3.471-4.061
					c1.146-1.365,2.262-2.751,3.35-4.162C522.995,57.821,523.219,57.395,523.291,56.902z"/>
				<path opacity="0.1091" fill="#FFFFFF" d="M523.344,60.369c-0.126-1.582-0.252-3.163-0.377-4.745
					c-0.532-3.257-1.424-6.413-2.675-9.467c-1.694-4.929-5.055-9.125-8.205-13.165c-3.315-4.25-7.907-7.362-12.298-10.347
					c-4.62-3.142-9.987-4.779-15.259-6.391c-5.427-1.66-11.316-1.552-16.909-1.499c-6.315,0.281-12.632,0.562-18.947,0.843
					c-12.348,0.582-24.692,1.185-37.037,1.811c-18.132,0.902-36.251,1.519-54.4,1.928c-23.455,0.53-46.948-0.849-70.389-1.494
					c-33.954-0.933-67.909-0.599-101.868-0.792c-13.137-0.073-26.274-0.219-39.411-0.066c-10.638,0.122-21.215,0.901-31.771,2.177
					c-12.328,1.491-24.226,5.045-35.622,9.877c-5.601,2.375-10.623,5.784-15.604,9.215c-5.193,3.577-9.467,8.289-13.667,12.926
					c-4.541,5.014-7.921,10.967-11.232,16.81c-3.783,6.678-6.047,14.188-8.367,21.45c-2.692,8.423-3.898,17.3-5.197,26.01
					c-1.524,10.211-1.658,20.618-1.907,30.912c-0.165,6.831,0.25,13.575,0.54,20.381c0.256,6.039,0.403,12.082,0.539,18.126
					c0.441,19.812,0.437,39.638,0.53,59.453c0.119,25.104,0.118,50.207,0.21,75.309c1.089,297.649,1.896,595.297,2.626,892.948
					c0.959,390.877,1.687,781.755,1.986,1172.633c0.271,355.224,0.309,710.45-1.012,1065.671
					c-0.253,68.125-0.58,136.251-1.013,204.375c-0.355,55.855-1.098,111.713-1.327,167.568c-0.17,41.489-0.995,82.997-1.849,124.478
					c-0.029,1.333-0.057,2.666-0.086,3.999c-0.079,2.559,0.358,5.025,1.315,7.399c1.049,3.61,4.563,6.223,7.33,8.396
					c1.174,0.596,2.349,1.19,3.522,1.785c2.515,1.041,5.11,1.811,7.786,2.311c3.772,0.91,8.036,0.674,11.883,0.677
					c5.848,0.004,11.683-1.288,17.473-1.961c0.479-0.006,0.959-0.013,1.438-0.019c13.072,0.713,26.145,1.396,39.219,2.053
					c26.007,1.334,52.04,2.155,78.069,2.929c78.023,2.32,156.116,1.761,234.134-0.388c19.501-0.537,38.992-1.348,58.481-2.157
					c8.458-0.352,17.14-0.348,25.585-1.541c3.651-0.516,6.378-2.595,9.109-4.854c1.606-1.95,2.807-4.125,3.6-6.524
					c0.852-2.49,1.323-5.051,1.416-7.683c0.681-6.212-0.384-12.494-0.664-18.696c-0.245-5.381-0.478-10.763-0.606-16.149
					c-0.363-15.085-0.218-30.193-0.256-45.282c-0.115-44.846,0.024-89.691,0.018-134.537c-0.01-62.596,0.022-125.191,0.06-187.788
					c0.364-606.8,1.668-1213.601,1.582-1820.4c-0.002-18.123-0.056-36.245-0.099-54.369c-0.063-27.245-0.173-54.488-0.086-81.734
					c0.112-34.943,0.352-69.893-0.042-104.834c-0.221-19.454-0.048-38.914-0.084-58.369c-0.051-27.886-0.064-55.77-0.083-83.655
					c-0.04-66.181-0.041-132.361-0.051-198.542c-0.007-53.182-0.018-106.364-0.034-159.547
					c-0.022-70.088-0.639-140.178-0.745-210.269c-0.362-238.896,1.466-477.792,0.813-716.688c-0.343,0.005-0.628,0.155-0.855,0.448
					c-0.851,0.781-1.676,1.587-2.476,2.421c-0.6,0.612-2.796,2.305-2.793,3.396c0.422,165.921-0.247,331.842-0.639,497.763
					c-0.188,79.622-0.26,159.244-0.126,238.868c0.066,39.906,0.277,79.814,0.406,119.721c0.031,10.161,0.17,20.19,0.027,30.308
					c-0.097,6.969,0.112,13.905,0.346,20.868c0.216,6.447-0.067,12.969-0.093,19.419c-0.027,7.562-0.041,15.124-0.058,22.686
					c-0.037,17.819-0.05,35.639-0.065,53.458c-0.036,46.282-0.037,92.565-0.031,138.848c0.008,83.219-0.157,166.445,0.423,249.663
					c0.045,6.399-0.319,12.76-0.267,19.16c0.046,5.412,0.127,10.821,0.214,16.233c0.064,4.063,0.295,8.083,0.174,12.148
					c-0.394,13.085-0.014,26.305-0.007,39.398c0.019,35.663-0.188,71.324-0.197,106.986c-0.001,8.637,0.388,15.942,0.271,24.041
					c-0.042,2.894-0.068,5.785-0.08,8.68c-0.022,5.675,0.199,11.341,0.158,17.018c-0.05,6.916-0.07,13.833-0.097,20.748
					c-0.077,19.436-0.101,38.87-0.13,58.305c-0.018,10.879-0.036,21.758-0.044,32.639c-0.005,6.09,0.213,12.157,0.419,18.244
					c0.208,6.104-0.024,12.269-0.037,18.376c-0.06,29.5-0.105,58.998-0.151,88.497c-0.104,68.347-0.189,136.696-0.276,205.042
					c-0.434,344.441-0.861,688.883-1.168,1033.324c-0.136,152.848-0.265,305.697-0.229,458.547
					c0.007,29.085,0.021,58.172,0.054,87.26c0.014,13.098,0.03,26.195,0.057,39.294c0.012,5.96-0.08,11.866-0.416,17.816
					c0.005,3.953,0.009,7.906,0.015,11.859c0.006,3.831,0.012,7.663,0.017,11.495c0.028,20.313,0.08,40.626,0.156,60.939
					c0.032,8.349,0.082,16.699,0.136,25.048c0.053,8.022-0.159,16.053-0.045,24.07c0.081,5.747,0.21,11.492,0.352,17.238
					c0.062,2.521,0.111,4.998-0.019,7.519c-0.134,2.621-0.033,5.795-1.155,8.223c-0.122,0.824-0.242,1.651-0.363,2.477
					c-0.319,1.697-0.877,3.312-1.676,4.843c-0.308,0.7-0.614,1.4-0.924,2.101c-0.816,1.41-1.932,2.521-3.348,3.336
					c-2.569,1.965-5.528,2.592-8.609,3.233c-1.891,0.152-3.782,0.204-5.679,0.156c-12.968,0.601-25.939,1.142-38.913,1.625
					c-77.854,3.071-155.797,3.434-233.693,2.157c-38.959-0.638-77.9-2.092-116.824-3.838c-6.479-0.328-12.958-0.654-19.437-0.98
					c-7.123-0.129-14.244-0.336-21.361-0.621c-2.813-0.11-5.658,0.086-8.474,0.066c-2.751-0.02-5.485-0.405-8.209-0.741
					c-2.732-0.338-5.334-1.445-7.896-2.385c-2.451-0.898-4.281-3.069-6.029-4.881c-2.082-2.157-2.525-5.523-3.034-8.296
					c-0.022-1.225-0.043-2.451-0.065-3.675c0.062-2.688,0.123-5.376,0.183-8.063c0.094-4.228,0.179-8.456,0.264-12.683
					c0.217-10.758,0.403-21.515,0.582-32.271c0.352-21.244,0.63-42.486,0.89-63.731c0.149-12.056-0.192-24.092-0.057-36.147
					c0.167-14.881,0.316-29.762,0.458-44.643c1.283-134.326,1.817-268.66,2.245-402.992c0.547-171.967,0.753-343.935,0.837-515.9
					c0.363-741.692-1.319-1483.388-3.91-2225.076c-0.3-86.143-0.623-172.285-1.013-258.426c-0.039-8.597-0.079-17.194-0.121-25.791
					c-0.039-8.102-0.101-16.163,0.353-24.252c-0.018-3.985-0.035-7.97-0.053-11.955c-0.017-3.895-0.035-7.788-0.051-11.682
					c-0.042-9.331-0.086-18.662-0.131-27.992c-0.134-27.333-0.395-54.664-0.61-81.996c0.052-2.667,0.108-5.335,0.166-8.002
					c-0.066-7.167,0.129-14.327,0.585-21.479c0.558-12.103,2.739-23.984,5.495-35.745c2.231-9.525,6.246-18.412,10.803-27.005
					c1.989-3.452,4.352-6.625,7.088-9.514c1.298-1.519,2.597-3.038,3.894-4.558c2.64-2.839,5.479-5.46,8.519-7.866
					c5.743-4.905,12.708-8.217,19.531-11.283c7.129-3.204,14.937-4.861,22.482-6.745c11.866-2.963,24.63-3.263,36.828-3.675
					c10.832-0.367,21.692-0.146,32.527-0.047c13.016,0.119,26.031,0.158,39.048,0.14c25.222-0.033,50.441,0.389,75.657,0.942
					c11.849,0.306,23.695,0.685,35.539,1.139c11.611,0.411,23.226,0.545,34.842,0.401c23.976-0.008,47.975-1.287,71.928-2.176
					c12.254-0.365,24.508-0.784,36.758-1.255c3.047,0.395,6.083,0.849,9.113,1.358c6.389,1.009,12.129,4.415,17.419,7.902
					c5.258,3.464,9.044,8.715,12.404,13.899c1.538,2.66,2.762,5.458,3.671,8.392c1.553,4.186,1.725,8.736,1.835,13.129
					c0.006,0.242,3.669-2.501,3.579-2.428C520.701,63.007,523.417,61.293,523.344,60.369z"/>
				<path opacity="0.1091" fill="#FFFFFF" d="M524.133,55.179c-0.5-6.073-0.163-3.844-1.512-9.844
					c-1.155-5.134-4.112-9.679-6.904-14.024c-2.971-4.624-7.309-8.161-11.487-11.608c-4.36-3.597-9.717-5.751-14.891-7.823
					c-5.467-2.19-11.38-2.608-17.171-3.023c-1.94,0.057-3.881,0.115-5.821,0.171c-12.553,0.59-25.104,1.22-37.652,1.887
					c-18.36,0.95-36.71,1.862-55.082,2.574c-23.539,0.914-47.019,0.276-70.548-0.555c-37.797-1.333-75.645-1.322-113.461-1.195
					c-13.149,0.046-26.297-0.177-39.446-0.152c-12.833,0.023-25.588,0.77-38.32,2.367c-6.204,0.778-12.248,2.257-18.295,3.792
					c-7.903,2.007-15.272,5.313-22.503,9.002c-5.509,2.81-10.32,6.729-15.061,10.634c-5.037,4.149-9.006,9.383-12.938,14.526
					c-4.318,5.648-7.285,12.151-10.253,18.555c-3.415,7.363-5.334,15.369-7.316,23.193c-2.303,9.092-3.136,18.539-4.073,27.837
					c-1.099,10.897-0.849,21.922-0.713,32.851c0.054,4.413,0.464,8.868,0.655,13.28c0.266,6.104,0.385,12.213,0.506,18.321
					c0.901,45.457,0.58,90.95,0.736,136.414c1.026,299.232,1.878,598.464,2.608,897.698c0.954,391.159,1.673,782.319,1.964,1173.478
					c0.264,354.209,0.298,708.421-1.046,1062.627c-0.466,122.996-1.003,246-2.385,368.99c-0.459,40.868-1,81.734-1.862,122.596
					c-0.073,3.445,0.399,4.273,1.316,7.454c0.718,2.493,3.041,4.769,4.659,6.644c2.836,3.285,7.277,4.635,11.184,6.039
					c4.104,1.479,8.524,1.512,12.816,1.648c6.594,0.211,13.239-1.11,19.71-2.207c7.506-1.273,15.881,0.28,22.959,0.654
					c26.009,1.374,52.03,2.393,78.059,3.285c78.03,2.675,156.144,2.451,234.188,0.646c19.51-0.451,39.01-1.176,58.509-1.9
					c13.97-0.519,28.073-0.913,42.014-1.944c3.546-0.263,6.361-1.476,9.488-3.058c3.672-1.858,5.388-5.82,6.96-9.313
					c1.698-3.776,1.585-8.334,1.685-12.36c0.045-1.802-0.256-5.525-0.382-7.421c-0.18-2.719-0.652-5.462-0.926-8.177
					c-0.266-2.646-0.407-5.297-0.553-7.951c-0.758-13.82-0.541-27.707-0.595-41.541c-0.165-42.449-0.013-84.899-0.035-127.349
					c-0.031-60.691,0.029-121.382,0.068-182.072c0.212-336.568,0.647-673.137,1.021-1009.705
					c0.305-274.229,0.694-548.46,0.584-822.688c-0.009-20.879-0.076-41.757-0.106-62.635c-0.025-16.929-0.173-33.856-0.179-50.786
					c-0.009-23.664,0.137-47.33,0.212-70.992c0.064-20.309-0.085-40.617-0.09-60.924c-0.014-43.435-0.188-86.872-0.215-130.308
					c-0.04-65.54-0.041-131.082-0.053-196.623c-0.01-58.147-0.021-116.297-0.063-174.445c-0.047-65.87-0.589-131.736-0.724-197.606
					c-0.504-245.539,1.462-491.076,0.785-736.616c-0.003-1.003-1.518,1.342-1.368,1.124c-0.611,0.894-1.202,1.802-1.771,2.724
					c-0.342,0.464-0.597,0.969-0.767,1.514c0.443,165.924-0.223,331.846-0.626,497.769c-0.193,79.62-0.277,159.24-0.151,238.86
					c0.062,39.913,0.264,79.827,0.408,119.74c0.121,6.826,0.243,13.653,0.365,20.479c-0.221,1.998-0.294,4.001-0.219,6.011
					c-0.03,6.231-0.075,12.454,0.061,18.684c0.291,13.408,0.09,26.832,0.079,40.243c-0.014,17.296-0.016,34.59-0.02,51.885
					c-0.01,45.739-0.006,91.478-0.001,137.216c0.01,84.461-0.039,168.923,0.232,253.384c0.04,12.61-0.122,25.211-0.026,37.823
					c0.034,4.537,0.137,9.067,0.246,13.602c-0.017,1.141-0.034,2.283-0.053,3.423c-0.114,7.126-0.102,14.251,0.038,21.378
					c0.15,35.664-0.164,71.333-0.205,106.997c-0.004,6.029-0.007,12.058-0.011,18.087c0.586,6.825,0.694,13.644,0.32,20.455
					c-0.124,2.537-0.1,5.078-0.116,7.618c-0.074,11.671,0.1,23.343,0.081,35.016c-0.031,18.569-0.039,37.138-0.052,55.707
					c-0.006,10.507-0.014,21.012-0.02,31.519c-0.007,11.755,0.223,23.505,0.209,35.258c-0.033,28.806-0.063,57.612-0.091,86.42
					c-0.069,67.265-0.14,134.53-0.211,201.795c-0.355,343.55-0.793,687.101-1.132,1030.65
					c-0.152,154.474-0.301,308.948-0.334,463.423c-0.007,29.672-0.008,59.348-0.001,89.021c0.004,13.417,0.01,26.835,0.018,40.252
					c0.003,6.33,0.007,12.659,0.021,18.989c0.018,7.908-0.23,15.808-0.225,23.719c0.014,21.057,0.036,42.113,0.08,63.169
					c0.037,17.292,0.389,34.602,0.209,51.891c-0.116,11.084,0.279,22.259,1.787,33.243c0.336,2.457,0.659,4.761,0.661,7.243
					c-0.488,4.669-0.979,9.337-1.468,14.006c-1.863,4.507-4.915,7.51-9.156,9.012c-2.828,1.359-6.093,1.365-9.144,1.558
					c-12.982,0.628-25.967,1.195-38.954,1.702c-12.988,0.508-25.979,0.955-38.971,1.341c-77.967,2.501-156.001,2.294-233.976,0.401
					c-39.029-0.946-78.018-2.87-117.009-4.746c-1.734-0.083-3.686,0.47-5.376,0.75c-4.078,0.678-8.129,1.217-12.249,1.547
					c-3.873,0.309-7.734-0.128-11.566-0.61c-4.028-0.507-7.945-2.833-11.384-4.798c-0.881-0.869-1.763-1.738-2.645-2.609
					c-2.471-2.793-4.06-6.062-4.767-9.807c-0.075-1.286-0.151-2.572-0.226-3.858c0.058-2.687,0.113-5.373,0.167-8.058
					c0.411-19.963,0.721-39.928,1.006-59.892c0.714-49.864,1.068-99.731,1.478-149.599c1.126-137.04,1.617-274.086,1.997-411.129
					c0.482-173.711,0.651-347.422,0.706-521.133c0.237-738.986-1.528-1477.973-3.863-2216.955
					c-0.259-82.003-0.53-164.007-0.826-246.009c-0.213-58.656-0.002-117.312-1.259-175.957c-0.266-12.384,0.184-24.618,1.165-36.958
					c0.957-12.028,3.706-23.736,7.059-35.282c2.772-9.542,7.474-18.29,12.706-26.661c2.472-3.295,5.074-6.486,7.807-9.57
					c2.779-3.042,5.778-5.851,8.998-8.422c5.992-5.178,13.218-8.738,20.348-12.017c7.286-3.351,15.257-5.127,23.004-7.027
					c8.108-1.99,16.466-2.631,24.761-3.295c10.684-0.856,21.454-0.789,32.164-0.782c8.806,0.005,17.607,0.173,26.416,0.094
					c8.595,0.235,17.193,0.267,25.794,0.097c12.808,0.001,25.615,0.073,38.424,0.213c24.29,0.201,48.57,0.912,72.845,1.75
					c23.581,0.813,47.125,0.172,70.696-0.627c24.606-0.834,49.215-1.997,73.812-3.083c3.336,0.225,6.657,0.579,9.966,1.062
					c3.441,0.623,6.787,1.583,10.036,2.883c6.426,2.209,11.828,6.6,16.786,11.07c2.341,2.336,4.419,4.887,6.235,7.651
					c4.562,6.229,6.412,14.557,6.807,22.032c0.05,0.931,1.485-1.062,1.426-0.987c0.663-0.826,1.307-1.667,1.928-2.526
					C523.645,56.172,523.931,55.699,524.133,55.179z"/>
				<path opacity="0.1091" fill="#FFFFFF" d="M523.098,59.533c-0.111-1.607-0.223-3.214-0.335-4.821
					c-0.475-3.288-1.354-6.465-2.633-9.531c-1.692-4.906-5.045-9.056-8.196-13.066c-3.295-4.192-7.859-7.258-12.22-10.189
					c-4.584-3.083-9.877-4.681-15.095-6.263c-5.38-1.632-11.236-1.5-16.775-1.426c-6.239,0.26-12.479,0.521-18.719,0.781
					c-12.312,0.57-24.621,1.156-36.932,1.755c-18.109,0.871-36.208,1.452-54.332,1.838c-23.549,0.501-47.129-0.885-70.662-1.537
					c-33.953-0.94-67.91-0.646-101.869-0.796c-13.134-0.058-26.266-0.232-39.4-0.079c-12.71,0.149-25.315,1.185-37.871,3.141
					c-6.076,0.946-12.014,2.73-17.896,4.469c-7.717,2.282-14.818,5.992-21.716,10.05c-11.012,6.479-19.202,16.4-26.248,26.82
					c-4.074,6.022-6.68,12.948-9.321,19.661c-3.056,7.772-4.627,16.094-6.28,24.238c-1.934,9.541-2.444,19.355-3.064,29.04
					c-0.567,8.847-0.414,17.813,0.032,26.661c0.531,10.567,0.645,21.165,0.79,31.743c0.634,46.013,0.429,92.037,0.597,138.052
					c1.093,300.778,1.91,601.558,2.645,902.338c0.955,391.428,1.67,782.856,1.952,1174.285
					c0.252,353.195,0.274,706.395-1.099,1059.587c-0.475,122.002-1.037,244.011-2.396,366.006
					c-0.236,21.26-0.521,42.519-0.843,63.775c-0.141,9.309-0.299,18.615-0.465,27.923c-0.078,4.311-0.161,8.62-0.244,12.931
					c-0.105,5.373-0.363,10.714,0.029,16.076c0.275,3.786,2.875,6.71,5.213,9.394c2.555,2.932,6.562,4.133,10.065,5.386
					c3.718,1.329,7.715,1.436,11.604,1.663c3.586,0.209,7.149-0.141,10.714-0.443c2.772-0.235,5.524-0.646,8.28-1.008
					c7.234-0.947,18.25,0.624,23.08,0.895c45.505,2.537,91.063,3.908,136.628,4.813c78.03,1.549,156.098,0.302,234.083-2.56
					c13.977-0.512,28.043-0.965,41.999-1.905c3.453-0.234,6.223-1.345,9.287-2.851c3.481-1.71,4.941-5.396,6.4-8.674
					c2.025-4.551,1.535-10.178,1.445-15.012c-0.053-2.786-0.42-5.548-0.633-8.324c-0.195-2.528-0.177-5.08-0.27-7.615
					c-0.205-5.598-0.219-11.211-0.29-16.812c-0.203-15.96-0.11-31.93-0.138-47.892c-0.188-110.236,0.038-220.478,0.107-330.716
					c0.381-603.849,1.774-1207.699,1.57-1811.548c-0.006-16.828-0.082-33.656-0.107-50.485
					c-0.054-37.654-0.071-75.306,0.045-112.961c0.083-26.568-0.069-53.133-0.219-79.698c-0.269-47.364-0.088-94.737-0.111-142.103
					c-0.034-66.358-0.035-132.717-0.047-199.077c-0.01-51.858-0.023-103.716-0.046-155.575c-0.005-14.519-0.188-29.037-0.127-43.555
					c-0.117-13.368-0.202-26.734-0.252-40.101c-0.065-13.313-0.122-26.626-0.17-39.939c-0.132-33.232-0.178-66.466-0.211-99.7
					c-0.236-232.255,1.465-464.508,0.832-696.764c-0.484,0.148-0.882,0.439-1.19,0.872c-1.264,1.304-2.502,2.633-3.712,3.986
					c-1.227,1.34-2.425,2.705-3.596,4.093c-0.4,0.35-0.649,0.775-0.748,1.272c0.41,165.918-0.26,331.836-0.645,497.756
					c-0.185,79.627-0.251,159.256-0.112,238.884c0.069,39.917,0.258,79.831,0.422,119.748c0.135,6.818,0.269,13.637,0.404,20.456
					c-0.345,1.961-0.471,3.938-0.379,5.931c-0.108,6.253-0.13,12.483,0.113,18.734c0.521,13.387,0.104,26.831,0.057,40.228
					c-0.058,17.27-0.077,34.539-0.1,51.809c-0.06,45.72-0.063,91.438-0.063,137.158c0.002,84.526-0.174,169.06,0.451,253.584
					c0.051,6.786-0.005,13.513-0.34,20.29c0.021,2.071,0.041,4.141,0.063,6.212c0.02,3.75,0.076,7.499,0.172,11.248
					c0.094,4.581,0.236,9.16,0.385,13.74c-0.039,1.12-0.079,2.238-0.119,3.359c-0.279,7.098-0.292,14.202-0.036,21.31
					c0.119,35.671-0.15,71.345-0.173,107.016c0.008,6.038,0.015,12.074,0.022,18.111c0.946,6.87,1.09,13.718,0.435,20.542
					c-0.219,2.501-0.202,5.012-0.251,7.521c-0.099,5.208,0.076,10.417,0.215,15.622c0.172,6.446-0.105,12.939-0.145,19.387
					c-0.113,18.528-0.147,37.055-0.188,55.582c-0.022,10.493-0.041,20.984-0.063,31.478c-0.013,5.688-0.004,11.376,0.004,17.064
					c0.009,6.155,0.501,12.294,0.484,18.457c-0.076,28.778-0.13,57.558-0.183,86.336c-0.123,67.234-0.22,134.468-0.31,201.703
					c-0.464,343.532-0.891,687.063-1.193,1030.593c-0.136,154.514-0.266,309.026-0.209,463.54
					c0.011,29.694,0.031,59.389,0.066,89.083c0.017,13.432,0.039,26.863,0.063,40.294c0.012,6.331,0.033,12.664,0.027,18.994
					c-0.04,3.875-0.212,7.743-0.512,11.605c0.005,3.953,0.012,7.906,0.018,11.859c0.034,21.087,0.087,42.172,0.17,63.258
					c0.033,8.758,0.083,17.515,0.138,26.271c0.051,8.543,0.239,17.09-0.019,25.631c-0.318,10.589,0.904,21.332-0.595,31.852
					c-0.097,0.61-0.194,1.221-0.291,1.831c0.033,1.095-0.312,2.038-1.035,2.833c-0.066,0.637-0.133,1.271-0.199,1.907
					c-0.215,1.315-0.663,2.543-1.349,3.685c-0.224,0.594-0.448,1.188-0.671,1.78c-0.664,1.215-1.622,2.124-2.872,2.729
					c-3.329,2.314-7.055,2.818-10.997,3c-0.947-0.002-1.896-0.008-2.844-0.011c-12.961,0.593-25.923,1.127-38.888,1.601
					c-19.448,0.756-38.906,1.241-58.362,1.726c-38.921,0.97-77.857,1.13-116.788,1.018c-38.942-0.112-77.878-1.044-116.8-2.251
					c-19.472-0.604-38.932-1.486-58.393-2.372c-13.124-0.75-26.258-1.315-39.398-1.69c-0.897-0.111-1.797-0.183-2.699-0.209
					c-2.05-0.116-4.098-0.213-6.148-0.359c-2.352-0.169-4.679-0.699-7.004-1.07c-2.239-0.357-4.347-1.503-6.465-2.264
					c-2.046-0.736-3.553-2.865-4.962-4.39c-1.861-2.018-2.112-5.396-2.531-7.923c-0.008-1.212-0.017-2.425-0.025-3.637
					c0.063-2.688,0.125-5.373,0.184-8.062c0.229-10.22,0.419-20.44,0.604-30.663c0.367-20.369,0.657-40.74,0.923-61.111
					c0.152-11.566,0.483-23.147,0.139-34.713c-0.431-14.486,0.072-29.02,0.223-43.511c1.361-131.543,1.915-263.097,2.367-394.645
					c0.585-170.161,0.811-340.323,0.916-510.483c0.244-391.603-0.252-783.204-1.013-1174.805
					c-0.684-352.559-1.586-705.117-2.819-1057.674c-0.315-90.352-0.656-180.703-1.074-271.055
					c-0.079-17.192-0.199-34.385-0.239-51.578c0.026-3.901,0.181-7.799,0.468-11.69c-0.017-3.986-0.035-7.971-0.053-11.958
					c-0.042-9.563-0.086-19.125-0.13-28.688c-0.072-15.732-0.147-31.462-0.215-47.194c-0.059-13.761-0.236-27.533-0.023-41.292
					c0.119-7.632,0.507-15.258,0.678-22.892c0.281-12.587,2.17-25.002,4.64-37.317c1.965-9.802,5.685-19.045,9.949-28.031
					c4.164-8.775,11.256-15.958,18.258-22.501c5.369-5.016,11.931-8.54,18.456-11.768c8.57-4.243,18.113-6.225,27.335-8.462
					c7.962-1.933,16.173-2.385,24.319-2.932c10.628-0.714,21.322-0.615,31.967-0.583c8.8,0.028,17.596,0.143,26.396,0.104
					c8.563,0.408,17.131,0.489,25.707,0.241c12.784,0.031,25.566,0.133,38.348,0.306c24.254,0.261,48.498,1.056,72.736,1.943
					c29.329,1.073,58.661,0.233,87.986-0.536c11.817-0.328,23.635-0.596,35.455-0.807c7.391-1.386,14.649-1.252,21.776,0.397
					c2.956,0.374,5.818,1.109,8.588,2.205c4.171,1.356,7.708,3.845,11.259,6.324c4.721,3.295,8.036,8.3,10.995,13.1
					c3.84,6.229,4.62,13.851,4.616,20.965c0.492-0.104,0.909-0.357,1.251-0.76c1.36-1.184,2.696-2.394,4.008-3.631
					c1.325-1.222,2.625-2.471,3.899-3.745C522.68,60.416,522.96,60.018,523.098,59.533z"/>
				<path opacity="0.1091" fill="#FFFFFF" d="M523.381,56.887c-0.126-1.597-0.252-3.194-0.376-4.792
					c-0.522-3.307-1.429-6.504-2.722-9.592c-1.741-4.999-5.169-9.229-8.397-13.31c-3.397-4.293-8.071-7.415-12.557-10.418
					c-4.714-3.157-10.189-4.772-15.556-6.36c-5.555-1.643-11.55-1.469-17.257-1.353c-6.314,0.296-12.63,0.593-18.945,0.89
					c-12.371,0.61-24.742,1.236-37.113,1.879c-18.148,0.933-36.287,1.549-54.454,1.967c-23.555,0.543-47.146-0.848-70.686-1.49
					c-33.964-0.926-67.934-0.658-101.902-0.742c-13.138-0.033-26.271-0.229-39.408-0.068c-12.734,0.158-25.358,1.228-37.93,3.232
					c-6.101,0.972-12.05,2.774-17.95,4.548c-7.765,2.338-14.89,6.134-21.808,10.275c-11.073,6.63-19.264,16.742-26.28,27.331
					c-4.06,6.126-6.646,13.185-9.264,19.991c-3.02,7.859-4.549,16.263-6.161,24.485c-1.885,9.608-2.35,19.481-2.927,29.227
					c-0.526,8.882-0.35,17.885,0.152,26.763c0.598,10.592,0.775,21.214,0.949,31.82c0.757,46.001,0.479,92.024,0.645,138.029
					c1.079,300.792,1.909,601.584,2.643,902.376c0.954,391.429,1.669,782.857,1.949,1174.288
					c0.252,353.188,0.275,706.38-1.102,1059.567c-0.475,122.004-0.963,244.021-2.403,366.019c-0.25,21.254-0.522,42.51-0.846,63.766
					c-0.142,9.304-0.299,18.609-0.467,27.913c-0.076,4.309-0.16,8.617-0.245,12.926c-0.104,5.376-0.363,10.718,0.029,16.082
					c0.278,3.822,2.957,6.842,5.315,9.551c2.592,2.979,6.757,4.321,10.303,5.646c3.817,1.426,8.034,1.562,12.043,1.823
					c3.716,0.242,7.425-0.169,11.118-0.525c3.423-0.327,6.807-0.974,10.22-1.389c0.482-0.018,0.963-0.031,1.445-0.048
					c13.068,0.579,26.134,1.216,39.199,1.91c45.495,2.32,91.052,3.379,136.597,4.059c78.044,1.167,156.111-0.456,234.088-3.687
					c8.418-0.349,17.14-0.375,25.58-1.497c2.479-0.329,4.379-1.44,6.575-2.513c3.527-1.716,5.187-5.414,6.761-8.707
					c2.242-4.696,1.897-10.697,1.855-15.738c-0.023-2.931-0.434-5.853-0.687-8.768c-0.232-2.677-0.339-5.364-0.504-8.047
					c-0.466-7.593-0.511-15.211-0.599-22.815c-0.2-16.853-0.104-33.714-0.129-50.567c-0.162-112.981,0.055-225.964,0.133-338.945
					c0.238-341.429,0.677-682.855,1.055-1024.282c0.288-260.464,0.645-520.927,0.497-781.391
					c-0.009-14.814-0.181-29.631-0.081-44.445c-0.177-12.238-0.237-24.479-0.184-36.719c0.008-11.865,0.037-23.729,0.086-35.594
					c0.077-23.795,0.154-47.59,0.129-71.385c-0.021-18.545-0.209-37.09-0.264-55.635c-0.328-113.347-0.101-226.7-0.119-340.047
					c-0.008-50.441-0.025-100.882-0.051-151.321c-0.007-12.331-0.239-24.664-0.1-36.995c-0.152-13.377-0.245-26.757-0.278-40.136
					c-0.066-13.313-0.124-26.627-0.172-39.941c-0.131-33.232-0.176-66.465-0.209-99.697c-0.233-232.254,1.469-464.507,0.833-696.761
					c-0.004-1.093-1.81,1.636-1.663,1.437c-0.81,1.104-1.598,2.225-2.362,3.359c-0.443,0.57-0.804,1.186-1.079,1.849
					c0.433,165.922-0.235,331.843-0.632,497.766c-0.191,79.622-0.271,159.244-0.14,238.866c0.064,39.911,0.275,79.821,0.403,119.732
					c0.133,6.833,0.268,13.666,0.4,20.498c-0.271,1.982-0.365,3.974-0.282,5.974c-0.043,4.478-0.219,8.994-0.086,13.469
					c0.378,12.631,0.274,25.25,0.248,37.887c-0.036,16.705-0.046,33.409-0.059,50.116c-0.031,45.102-0.031,90.206-0.03,135.31
					c0.004,85.672-0.056,171.346,0.274,257.016c0.028,7.287,0.081,14.573,0.071,21.859c-0.08,2.069-0.16,4.139-0.24,6.209
					c0.026,3.992,0.054,7.984,0.083,11.976c0.053,7.476,0.469,14.98,0.293,22.451c-0.307,13.122,0.012,26.329,0.021,39.456
					c0.012,17.761-0.084,35.521-0.144,53.281c-0.061,17.9-0.063,35.801-0.074,53.7c0.74,6.847,0.867,13.681,0.382,20.503
					c-0.104,1.156-0.146,2.314-0.125,3.474c-0.113,10.728,0.097,21.451,0.053,32.18c-0.072,17.631-0.087,35.263-0.11,52.895
					c-0.015,10.108-0.025,20.218-0.036,30.327c-0.01,9.39-0.311,18.831-0.036,28.215c0.357,12.231,0.324,24.445,0.305,36.68
					c-0.023,15.516-0.046,31.032-0.066,46.549c-0.09,65.531-0.165,131.061-0.244,196.591
					c-0.406,341.966-0.823,683.932-1.155,1025.897c-0.152,156.884-0.292,313.766-0.317,470.648c-0.004,30.571,0,61.142,0.012,91.713
					c0.011,28.858,0.313,57.732,0.009,86.588c-0.091,1.895-0.184,3.789-0.275,5.685c0.003,3.95,0.008,7.9,0.012,11.851
					c0.005,5.697,0.013,11.393,0.021,17.09c0.016,10.54,0.032,21.08,0.056,31.621c0.041,18.706,0.093,37.414,0.25,56.12
					c0.047,5.533-0.123,11.063-0.018,16.594c0.093,4.879,0.249,9.751,0.435,14.627c0.192,5.042,0.645,10.082,0.906,15.123
					c-0.122,1.39-0.243,2.779-0.365,4.17c-0.033,2.016-0.249,4.012-0.647,5.987c-0.435,1.88-1.04,3.701-1.813,5.467
					c-0.833,1.689-2.001,3.104-3.502,4.246c-3.685,3.539-9.503,3.86-14.357,3.989c-6.488,0.292-12.976,0.583-19.464,0.874
					c-12.979,0.554-25.959,1.047-38.942,1.48c-38.953,1.389-77.929,1.965-116.901,2.27c-38.98,0.303-77.962-0.212-116.933-1.002
					c-19.488-0.396-38.97-1.07-58.45-1.746c-12.988-0.482-25.973-1.027-38.956-1.636c-13.143-0.811-26.298-1.331-39.465-1.562
					c-2.617-0.076-5.509,0.4-8.042,0.611c-2.997,0.247-5.992,0.19-8.993,0.104c-3.354-0.094-6.584-0.905-9.799-1.774
					c-3.114-0.842-5.549-2.561-8.026-4.525c-2.563-2.035-3.746-4.842-4.908-7.776c-1.305-3.294-0.74-7.536-0.665-10.964
					c0.225-10.034,0.414-20.069,0.595-30.105c0.364-20.068,0.649-40.139,0.914-60.208c0.149-11.329,0.283-22.658,0.422-33.985
					c0.076-6.165-0.227-12.332-0.158-18.5c0.093-8.279,0.177-16.56,0.261-24.839c1.332-130.597,1.878-261.202,2.323-391.803
					c0.579-169.542,0.806-339.085,0.912-508.627c0.465-744.921-1.264-1489.847-3.723-2234.764
					c-0.302-91.013-0.623-182.028-0.995-273.042c-0.072-17.369-0.144-34.738-0.226-52.109c-0.046-9.955,0.264-19.899,0.224-29.856
					c-0.04-9.566-0.082-19.13-0.123-28.695c-0.133-29.702-0.255-59.403-0.681-89.102c-0.115-7.917,0.04-15.839,0.105-23.756
					c0.109-13.065,1.838-25.981,4.147-38.809c1.867-10.386,5.554-20.236,9.806-29.837c4.256-9.61,11.294-17.536,18.646-24.871
					c5.481-5.469,12.316-9.376,19.084-12.976c8.68-4.617,18.465-6.84,27.92-9.199c8.049-2.007,16.352-2.584,24.593-3.212
					c10.661-0.811,21.4-0.732,32.083-0.716c8.807,0.013,17.608,0.165,26.417,0.083c8.58,0.318,17.163,0.371,25.751,0.158
					c12.798,0.011,25.596,0.092,38.394,0.241c24.276,0.22,48.541,0.959,72.801,1.81c29.531,1.034,59.046-0.062,88.555-1.178
					c12.049-0.505,24.099-0.945,36.15-1.322c7.805-1.343,15.559-1.426,23.261-0.25c3.37,0.287,6.667,0.94,9.893,1.96
					c4.772,1.226,8.995,3.86,13.118,6.432c5.449,3.398,9.462,8.621,13.037,13.811c1.654,2.67,2.979,5.492,3.974,8.471
					c1.715,4.296,1.896,8.909,2.021,13.451c0.341-0.031,0.612-0.201,0.815-0.51c0.786-0.84,1.545-1.705,2.274-2.594
					C521.42,59.818,523.467,57.975,523.381,56.887z"/>
				<path opacity="0.1091" fill="#FFFFFF" d="M524.93,54.622c-0.49-6.072-0.152-3.828-1.499-9.827
					c-1.154-5.143-4.126-9.695-6.925-14.044c-2.981-4.634-7.335-8.177-11.527-11.628c-4.38-3.604-9.754-5.759-14.947-7.835
					c-5.488-2.193-11.425-2.612-17.235-3.029c-1.928,0.056-3.855,0.111-5.782,0.165c-12.593,0.589-25.182,1.222-37.769,1.897
					c-18.374,0.955-36.738,1.873-55.123,2.591c-23.544,0.922-47.027,0.291-70.561-0.537c-37.798-1.329-75.646-1.318-113.462-1.189
					c-13.146,0.044-26.292-0.176-39.438-0.152c-12.837,0.023-25.595,0.768-38.332,2.361c-6.227,0.779-12.292,2.264-18.363,3.803
					c-7.921,2.008-15.313,5.319-22.565,9.008c-5.537,2.817-10.374,6.742-15.145,10.655c-5.074,4.164-9.077,9.415-13.044,14.579
					C38.866,57.1,35.88,63.634,32.889,70.055c-3.458,7.42-5.388,15.498-7.383,23.387c-2.3,9.101-3.125,18.554-4.05,27.86
					c-0.35,3.53-0.547,7.077-0.619,10.622c-0.271,13.196-0.25,8.89-0.066,22.396c0.061,4.542,0.552,9.131,0.747,13.673
					c0.822,19.104,0.814,38.25,0.929,57.367c0.146,24.241,0.212,48.481,0.295,72.722c1.009,292.828,1.817,585.658,2.541,878.487
					c0.962,389.951,1.703,779.903,2.028,1169.854c0.299,358.179,0.363,716.362-0.868,1074.542
					c-0.435,126.887-1.016,253.777-2.288,380.661c-0.435,43.335-0.966,86.67-1.769,129.999c-0.078,4.158-0.162,8.314-0.247,12.473
					c-0.046,2.262-0.33,5.901,0.345,8.117c1.406,4.621,0.512,2.652,3.201,6.943c2.244,3.576,6.213,5.535,9.832,7.291
					c3.924,1.904,8.508,2.338,12.766,2.775c2.212,0.229,6.154,0.169,8.388-0.017c3.544-0.295,7.034-0.712,10.551-1.243
					c2.962-0.448,5.891-1.095,8.885-1.268c6.498,0.385,12.998,0.768,19.498,1.151c13.009,0.68,26.023,1.296,39.039,1.847
					c19.502,0.873,39.016,1.434,58.528,2.003c39.016,1.136,78.053,1.413,117.083,1.416c39.026,0.003,78.048-0.814,117.058-1.905
					c19.502-0.545,38.996-1.361,58.488-2.178c7.536-0.117,15.057-0.504,22.559-1.163c2.18-0.161,4.28-0.657,6.302-1.492
					c1.703-0.548,5.146-2.714,6.141-4.159c0.734-1.064,1.468-2.13,2.201-3.194c1.31-2.464,2.213-5.07,2.71-7.817
					c1.011-3.84,0.57-8.256,0.405-12.166c-0.093-2.214-0.34-4.273-0.611-6.457c-1.521-12.242-1.627-24.661-1.66-36.982
					c-0.252-95.718-0.124-191.434-0.07-287.152c0.349-616.33,1.711-1232.66,1.635-1848.99c-0.003-24.132-0.017-48.262-0.043-72.393
					c-0.008-7.541-0.069-15.082-0.089-22.622c-0.114-43.609,0.013-87.215,0.079-130.826c0.035-22.528-0.193-45.056-0.257-67.583
					c-0.074-25.688-0.035-51.379-0.058-77.068c-0.057-67.657-0.057-135.313-0.067-202.971
					c-0.011-60.424-0.018-120.849-0.054-181.275c-0.038-64.399-0.523-128.795-0.693-193.194
					c-0.665-252.186,1.44-504.369,0.744-756.556c-0.003-0.995-1.513,1.309-1.367,1.102c-0.616,0.882-1.21,1.777-1.78,2.687
					c-0.343,0.458-0.601,0.957-0.773,1.496c0.444,165.924-0.22,331.848-0.626,497.77c-0.193,79.62-0.278,159.239-0.152,238.858
					c0.063,39.916,0.254,79.831,0.417,119.746c0.123,6.853,0.246,13.704,0.369,20.557c-0.237,1.966-0.316,3.938-0.233,5.917
					c-0.035,6.232-0.076,12.457,0.063,18.688c0.302,13.408,0.091,26.832,0.078,40.244c-0.017,17.289-0.019,34.579-0.023,51.869
					c-0.011,45.735-0.008,91.469-0.004,137.204c0.009,84.473-0.046,168.947,0.241,253.418c0.043,12.605-0.132,25.198-0.03,37.804
					c0.037,4.547,0.14,9.088,0.25,13.633c-0.018,1.138-0.034,2.275-0.053,3.413c-0.116,7.122-0.104,14.244,0.036,21.368
					c0.149,35.663-0.163,71.33-0.208,106.992c0,6.032,0,12.064,0,18.096c0.622,6.843,0.731,13.678,0.324,20.504
					c-0.137,2.521-0.107,5.046-0.125,7.571c-0.08,11.669,0.102,23.341,0.079,35.012c-0.034,18.561-0.044,37.123-0.057,55.684
					c-0.007,10.503-0.015,21.007-0.022,31.511c-0.007,11.772,0.235,23.54,0.222,35.31c-0.034,28.802-0.064,57.602-0.095,86.403
					c-0.071,67.26-0.143,134.52-0.214,201.778c-0.362,343.546-0.799,687.092-1.136,1030.639
					c-0.151,154.481-0.298,308.963-0.328,463.445c-0.006,29.677-0.006,59.354,0.001,89.033c0.004,13.418,0.011,26.839,0.02,40.259
					c0.004,6.331,0.01,12.661,0.02,18.99c0.013,7.892-0.239,15.774-0.234,23.671c0.014,21.061,0.039,42.122,0.085,63.185
					c0.038,17.298,0.408,34.616,0.221,51.913c-0.12,11.026,0.347,22.147,1.79,33.083c0.337,2.556,0.646,5.022,0.78,7.602
					c0.028,2.36,0.055,4.719,0.082,7.078c-0.176,2.327-0.635,4.594-1.38,6.806c-0.472,1.054-0.945,2.107-1.417,3.16
					c-1.78,2.978-4.234,5.058-7.362,6.244c-1.963,0.844-4.01,1.325-6.142,1.444c-7.486,0.656-14.991,1.04-22.514,1.151
					c-77.891,3.602-155.885,4.499-233.846,3.742c-38.982-0.38-77.95-1.594-116.901-3.107c-19.491-0.758-38.962-1.804-58.432-2.981
					c-1.118,0.06-2.228,0.194-3.33,0.405c-1.665,0.282-3.333,0.559-4.999,0.83c-4.734,0.779-9.27,1.239-14.107,1.383
					c-4.107,0.123-7.97-0.59-11.937-1.525c-1.278-0.453-2.554-0.908-3.831-1.361c-2.462-0.92-4.605-2.324-6.428-4.212
					c-0.826-0.955-1.651-1.909-2.478-2.864c-2.692-4.639-3.773-9.509-3.241-14.607c0.407-19.674,0.715-39.348,1-59.022
					c0.714-49.209,1.172-98.423,1.575-147.636c1.117-136.212,1.61-272.43,1.983-408.646c0.476-173.164,0.653-346.328,0.713-519.492
					c0.252-739.857-1.547-1479.717-3.783-2219.57c-0.244-80.411-0.497-160.822-0.76-241.233
					c-0.105-32.194-0.209-64.389-0.334-96.582c-0.102-26.407-0.106-52.823-0.775-79.222c-0.152-6.001-0.414-11.995-0.699-17.991
					c-0.558-20.399,1.318-40.664,5.629-60.794c1.332-5.381,2.997-10.658,4.993-15.83c1.816-4.677,3.951-9.203,6.408-13.577
					c2.087-3.837,4.537-7.423,7.35-10.76c5.178-6.753,11.436-12.13,18.216-17.184c6.379-4.754,13.897-7.844,21.243-10.714
					c7.65-2.99,15.946-4.579,23.961-6.208c4.083-0.637,8.182-1.144,12.296-1.522c4.195-0.386,8.397-0.676,12.605-0.865
					c8.604-0.49,17.245-0.432,25.858-0.428c10.917,0.007,21.866,0.028,32.778,0.224c12.918-0.061,25.836-0.057,38.754,0.011
					c12.652,0.065,25.304,0.205,37.956,0.419c23.787,0.332,47.558,1.33,71.341,1.866c23.877,0.537,47.843-0.806,71.691-1.798
					c12.215-0.561,24.434-1.059,36.653-1.495c8.05-1.201,16.074-1.332,24.071-0.387c3.616,0.286,7.165,0.939,10.646,1.962
					c3.37,0.99,6.605,2.31,9.706,3.96c6.195,2.905,11.138,7.827,15.637,12.828c6.353,7.064,9.271,16.793,9.719,26.103
					c0.045,0.92,1.481-1.009,1.432-0.949c0.67-0.804,1.32-1.626,1.95-2.464C524.432,55.6,524.723,55.134,524.93,54.622z"/>
				<path opacity="0.1091" fill="#FFFFFF" d="M522.521,60.218c-0.106-1.605-0.212-3.21-0.317-4.815
					c-0.461-3.286-1.326-6.461-2.598-9.527c-1.677-4.909-5.014-9.073-8.149-13.092c-3.289-4.211-7.836-7.297-12.188-10.26
					c-4.577-3.114-9.892-4.74-15.112-6.345c-5.397-1.658-11.265-1.554-16.83-1.517c-6.264,0.263-12.526,0.526-18.791,0.791
					c-12.331,0.565-24.66,1.15-36.988,1.755c-18.125,0.874-36.239,1.463-54.379,1.856c-23.552,0.509-47.138-0.871-70.676-1.52
					c-33.958-0.937-67.922-0.644-101.888-0.788c-13.134-0.057-26.268-0.229-39.401-0.076c-12.721,0.148-25.337,1.187-37.902,3.144
					c-6.084,0.948-12.029,2.733-17.92,4.472c-7.743,2.286-14.868,6.01-21.79,10.078c-11.078,6.511-19.311,16.49-26.402,26.968
					c-4.1,6.058-6.714,13.045-9.365,19.799c-3.064,7.812-4.635,16.175-6.287,24.36c-1.932,9.575-2.435,19.425-3.048,29.144
					c-0.559,8.875-0.4,17.87,0.064,26.744c0.552,10.592,0.682,21.214,0.834,31.819c0.662,46.02,0.456,92.056,0.619,138.08
					c1.07,300.773,1.896,601.547,2.63,902.32c0.954,391.428,1.669,782.855,1.949,1174.284
					c0.253,353.197,0.275,706.396-1.093,1059.593c-0.474,121.997-1.019,244.004-2.404,365.996
					c-0.242,21.26-0.521,42.518-0.843,63.778c-0.14,9.308-0.298,18.614-0.462,27.921c-0.078,4.312-0.161,8.622-0.244,12.933
					c-0.105,5.378-0.364,10.722,0.038,16.087c0.285,3.822,2.938,6.763,5.316,9.45c2.613,2.954,6.717,4.137,10.28,5.369
					c3.78,1.307,7.841,1.363,11.783,1.549c3.614,0.169,7.2-0.222,10.791-0.567c2.773-0.266,5.525-0.703,8.284-1.093
					c7.203-1.014,18.424,0.603,23.079,0.858c45.502,2.506,91.05,3.905,136.611,4.808c78.028,1.543,156.092,0.287,234.073-2.583
					c13.976-0.515,28.041-0.962,41.994-1.91c3.457-0.235,6.223-1.363,9.28-2.89c3.47-1.732,4.926-5.465,6.361-8.751
					c1.987-4.551,1.517-10.189,1.416-15.015c-0.059-2.785-0.388-5.53-0.601-8.305c-0.195-2.542-0.192-5.107-0.297-7.654
					c-0.228-5.603-0.261-11.222-0.339-16.827c-0.219-15.958-0.12-31.928-0.15-47.885c-0.205-110.238,0.038-220.478,0.107-330.715
					c0.375-603.849,1.678-1207.699,1.569-1811.546c-0.002-16.827-0.087-33.652-0.101-50.479c-0.006-7.962-0.082-15.887-0.157-23.87
					c-0.281-29.695,0.104-59.406,0.196-89.1c0.083-26.569-0.066-53.136-0.223-79.704c-0.278-47.364-0.086-94.738-0.111-142.103
					c-0.036-66.359-0.037-132.719-0.047-199.079c-0.009-51.854-0.023-103.707-0.037-155.561
					c-0.005-14.511-0.245-29.022-0.115-43.532c-0.134-13.375-0.223-26.75-0.265-40.125c-0.066-13.314-0.123-26.627-0.171-39.94
					c-0.132-33.234-0.178-66.466-0.211-99.7c-0.236-232.255,1.465-464.508,0.832-696.764c-0.407,0.072-0.736,0.287-0.991,0.646
					c-1.013,1.02-2.001,2.066-2.962,3.139c-0.976,1.057-1.924,2.138-2.845,3.244c-0.332,0.288-0.516,0.637-0.549,1.048
					c0.416,165.921-0.254,331.839-0.641,497.758c-0.186,79.626-0.257,159.252-0.119,238.878c0.067,39.914,0.262,79.827,0.418,119.74
					c0.131,6.828,0.263,13.654,0.395,20.482c-0.314,1.962-0.43,3.938-0.342,5.927c-0.093,6.249-0.121,12.478,0.101,18.724
					c0.475,13.393,0.102,26.833,0.063,40.232c-0.05,17.274-0.065,34.546-0.085,51.82c-0.048,45.721-0.05,91.443-0.048,137.165
					c0.003,84.518-0.149,169.041,0.404,253.555c0.044,6.792,0.012,13.533-0.295,20.316c0.02,2.069,0.037,4.138,0.057,6.208
					c0.017,3.744,0.067,7.488,0.15,11.232c0.082,4.579,0.218,9.154,0.358,13.731c-0.035,1.123-0.07,2.244-0.106,3.365
					c-0.249,7.102-0.257,14.208-0.023,21.318c0.126,35.669-0.153,71.341-0.177,107.01c0.004,6.034,0.008,12.067,0.014,18.1
					c0.871,6.868,1.008,13.716,0.412,20.547c-0.199,2.503-0.181,5.015-0.224,7.525c-0.088,5.207,0.066,10.41,0.196,15.614
					c0.159,6.453-0.09,12.944-0.123,19.398c-0.097,18.533-0.126,37.066-0.159,55.598c-0.02,10.494-0.036,20.988-0.054,31.482
					c-0.012,5.686-0.008,11.371-0.005,17.057c0.003,6.146,0.449,12.28,0.434,18.431c-0.066,28.782-0.116,57.566-0.163,86.349
					c-0.112,67.238-0.202,134.477-0.289,201.715c-0.446,343.533-0.87,687.065-1.18,1030.601
					c-0.142,154.507-0.272,309.015-0.236,463.524c0.008,29.689,0.023,59.382,0.052,89.073c0.015,13.431,0.033,26.858,0.055,40.289
					c0.01,6.333,0.027,12.667,0.03,19.001c-0.023,3.882-0.176,7.761-0.458,11.633c0.005,3.952,0.011,7.905,0.017,11.857
					c0.029,21.082,0.076,42.164,0.149,63.246c0.03,8.756,0.076,17.51,0.124,26.265c0.048,8.551,0.234,17.107,0.005,25.658
					c-0.291,10.813,0.808,21.704-0.295,32.481c-0.076,0.662-0.152,1.325-0.229,1.988c0.063,1.178-0.248,2.238-0.931,3.181
					c-0.073,0.722-0.146,1.442-0.22,2.163c-0.224,1.481-0.687,2.884-1.39,4.207c-0.253,0.653-0.507,1.309-0.759,1.964
					c-0.71,1.323-1.725,2.349-3.042,3.077c-3.255,2.469-7.253,3.003-11.193,3.211c-0.946,0.001-1.894,0.002-2.842,0.004
					c-12.963,0.597-25.93,1.135-38.898,1.612c-19.453,0.762-38.917,1.253-58.379,1.743c-38.932,0.98-77.878,1.152-116.819,1.05
					c-38.952-0.103-77.896-1.024-116.827-2.222c-19.473-0.599-38.935-1.478-58.396-2.359c-14.083-0.637-28.148-1.449-42.243-1.797
					c-2.146-0.053-4.292-0.081-6.438-0.154c-2.531-0.089-5.047-0.541-7.553-0.874c-2.469-0.328-4.827-1.444-7.153-2.27
					c-2.253-0.799-3.924-2.936-5.503-4.599c-1.977-2.081-2.324-5.453-2.792-8.101c-0.015-1.218-0.032-2.438-0.048-3.657
					c0.063-2.687,0.123-5.374,0.183-8.061c0.227-10.223,0.417-20.446,0.6-30.669c0.365-20.371,0.653-40.745,0.919-61.119
					c0.151-11.558,0.48-23.129,0.169-34.684c-0.392-14.484,0.087-29.008,0.235-43.497c1.348-131.551,1.897-263.111,2.347-394.667
					c0.58-170.163,0.804-340.328,0.91-510.492c0.455-744.153-1.246-1488.311-3.813-2232.458
					c-0.312-90.345-0.646-180.689-1.05-271.033c-0.078-17.193-0.176-34.387-0.244-51.58c0.004-3.916,0.146-7.826,0.429-11.73
					c-0.017-3.985-0.034-7.971-0.051-11.956c-0.042-9.562-0.086-19.124-0.129-28.686c-0.136-29.524-0.541-59.061-0.401-88.585
					c0.036-7.697,0.343-15.399,0.472-23.095c0.21-12.691,2.015-25.224,4.392-37.662c1.9-9.946,5.557-19.353,9.756-28.511
					c4.154-9.06,11.215-16.49,18.311-23.305c5.38-5.168,12.011-8.821,18.594-12.173c8.576-4.37,18.173-6.435,27.447-8.706
					c7.974-1.953,16.204-2.447,24.363-3.021c10.64-0.751,21.35-0.659,32.009-0.633c8.797,0.022,17.59,0.148,26.388,0.099
					c8.582,0.358,17.167,0.425,25.758,0.201c12.791,0.023,25.58,0.118,38.369,0.282c24.268,0.245,48.524,1.02,72.776,1.891
					c29.402,1.058,58.801,0.119,88.192-0.778c11.902-0.389,23.806-0.72,35.71-0.992c7.532-1.379,14.962-1.311,22.288,0.201
					c3.092,0.352,6.097,1.067,9.017,2.146c4.366,1.325,8.123,3.882,11.852,6.406c4.948,3.351,8.474,8.446,11.617,13.39
					c4.01,6.308,4.962,14.003,5.028,21.278c0.405-0.032,0.75-0.211,1.034-0.542c1.088-0.911,2.151-1.849,3.192-2.815
					c1.055-0.949,2.083-1.928,3.088-2.931C522.242,60.948,522.454,60.62,522.521,60.218z"/>
			</g>
		</g>
	</g>
</g>
</svg>
