<?xml version="1.0" encoding="utf-8"?>
<!-- Generator: Adobe Illustrator 16.0.0, SVG Export Plug-In . SVG Version: 6.00 Build 0)  -->
<!DOCTYPE svg PUBLIC "-//W3C//DTD SVG 1.1//EN" "http://www.w3.org/Graphics/SVG/1.1/DTD/svg11.dtd">
<svg version="1.1" id="Layer_1" xmlns="http://www.w3.org/2000/svg" xmlns:xlink="http://www.w3.org/1999/xlink" x="0px" y="0px"
	 width="1080px" height="3700px" viewBox="0 0 1080 3700" enable-background="new 0 0 1080 3700" xml:space="preserve">
<g>
	
		<image overflow="visible" opacity="0.75" width="1052" height="3205" xlink:href="CE98E9FF.png"  transform="matrix(1 0 0 1 14 -7)">
	</image>
	<g>
		<path fill="#F2F2F2" d="M1031.91,106.229c-0.145-50.573-41.607-91.306-92.173-90.432c-97.187,1.679-197.553,9.124-291.759,5.4
			c-82.969-3.28-176.141-4.425-269.881-4.07C211.152,17.76,32.5-9.5,33.5,277.5c3.899,1119.068,22.255,1720.733,0,2833.462
			c-1,50,59.254,36.541,71.507,37.22c294.677,16.302,590.39,17.597,885.23,3.879c10.267-0.478,21.385-1.272,29.083-7.368
			c9.779-7.743,10.43-20.958,10.355-32.641c-2.058-324.438,4.882-134.114,2.824-458.552c-0.733-115.625,0.733-219.375,0-335
			c-0.811-127.772-0.189-272.228-1-400C1027.653,1311.988,1033.646,712.253,1031.91,106.229z"/>
		<g>
			<g>
				<path opacity="0.1091" fill="#FFFFFF" d="M1042.173,96.817c-0.51-8.225-0.245-5.459-1.388-13.794
					c-0.655-4.796-2.491-9.721-3.98-14.288c-2.289-7.024-6.248-13.39-10.09-19.625c-3.909-6.342-9.188-11.708-14.364-16.988
					c-5.26-5.364-11.612-9.488-17.867-13.549c-6.383-4.144-13.573-6.804-20.658-9.423c-7.305-2.698-15.089-3.687-22.755-4.66
					c-5.324-0.467-10.651-0.522-15.986-0.165c-12.625,0.521-25.253,1.058-37.877,1.614c-37.46,1.624-74.905,3.491-112.37,4.962
					c-36.487,1.434-72.977,2.015-109.489,1.72c-17.409-0.141-34.811-0.972-52.203-1.677c-17.184-0.698-34.376-1.163-51.566-1.635
					c-42.286-1.163-84.592-1.553-126.892-1.791c-31.256-0.177-62.512,0.126-93.768,0.028c-18.929-0.06-37.854-0.399-56.783-0.431
					c-18.601-0.03-37.176,0.524-55.741,1.657c-20.808,1.271-41.386,4.328-61.713,8.892c-16.735,3.756-32.702,9.927-48.114,17.347
					c-7.654,3.684-14.72,8.415-21.739,13.153c-7.171,4.84-13.509,10.763-19.798,16.656c-6.576,6.161-12.075,13.355-17.538,20.475
					c-5.845,7.618-10.418,16.133-14.984,24.54c-4.984,9.177-8.579,19.058-12.201,28.817c-5.454,14.692-8.633,30.165-11.671,45.487
					c-2.6,13.114-3.842,26.477-5.159,39.761c-1.481,14.956-1.669,30.024-1.937,45.035c0.032,5.417,0.064,10.836,0.096,16.254
					c0.177,13.415,0.348,26.829,0.511,40.244c0.247,19.765,0.411,39.531,0.587,59.296c0.727,81.688,1.131,163.381,1.665,245.071
					c0.942,143.922,2.076,287.844,3.282,431.764c2.184,260.796,4.57,521.592,5.484,782.395
					c0.947,269.956-0.015,539.911-3.147,809.851c-1.804,155.371-4.396,310.732-7.507,466.083c-0.061,3.022,0.285,8.128,1.239,11.054
					c1.931,5.92,0.982,3.598,3.753,9.211c2.167,4.389,6.183,7.635,9.866,10.648c3.856,3.152,8.754,4.856,13.341,6.564
					c4.652,1.732,9.79,2.279,14.673,2.893c4.756,0.596,9.597,0.463,14.375,0.391c7.852-0.119,15.723-1.244,23.498-2.24
					c2.565-0.329,5.112-0.637,7.69-0.816c0.49,0.025,0.979,0.052,1.467,0.078c13.113,0.724,26.225,1.47,39.335,2.233
					c39.252,2.261,78.542,3.876,117.829,5.399c85.286,3.309,170.635,4.928,255.98,5.602c78.813,0.623,157.63-0.088,236.429-1.6
					c39.398-0.758,78.787-1.919,118.17-3.209c19.69-0.646,39.377-1.427,59.062-2.206c21.171-0.839,42.377-1.577,63.526-2.882
					c2.728-0.168,6.711-0.571,9.354-1.237c5.413-1.366,3.578-0.782,8.944-2.84c1.407-0.782,2.816-1.565,4.225-2.349
					c2.867-1.857,5.275-4.193,7.226-7.006c3.469-4.059,4.795-9.639,6.146-14.628c1.38-5.101,1.237-10.755,1.276-15.982
					c-0.056-1.716-0.112-3.434-0.167-5.15c-0.377-6.96-0.626-13.925-0.746-20.896c-1.031-32.565-1.146-65.178-1.278-97.757
					c-0.109-26.923-0.026-53.865,0.589-80.782c0.352-15.371,1.06-30.729,1.633-46.092c1.376-36.98,1.272-74.027,1.246-111.025
					c-0.032-43.252-0.37-86.504-0.558-129.756c-0.268-61.63,0.057-123.262,0.257-184.892c0.198-61.36-0.169-122.712-0.419-184.07
					c-0.249-61.319-0.205-122.639-0.251-183.957c-0.094-127.529-1.111-255.053-1.48-382.582
					c-1.542-530.861,2.929-1061.719,1.424-1592.581c-0.003-0.866-1.383,0.752-1.348,0.716c-0.63,0.668-1.24,1.355-1.83,2.058
					c-0.352,0.346-0.623,0.743-0.814,1.19c0.921,331.811-0.392,663.621-1.211,995.431c-0.409,165.823-0.644,331.646-0.418,497.471
					c0.221,160.743,1.508,321.481,1.665,482.224c0.072,73.18,0.049,146.359,0.407,219.537c0.183,37.23,0.362,74.459,0.329,111.689
					c-0.037,42.774-0.261,85.548-0.375,128.32c-0.169,63.988,0.178,127.978,0.448,191.965c0.082,19.053,0.112,38.105,0.108,57.158
					c-0.004,14.926-0.278,29.848-0.438,44.773c-0.338,31.948-2.001,63.845-2.717,95.781c-0.13,5.742-0.082,11.475-0.049,17.216
					c0.039,6.737-0.154,13.487-0.209,20.225c-0.146,17.913-0.104,35.829-0.033,53.742c0.103,25.688,0.543,51.37,0.901,77.055
					c0.144,10.335,0.84,19.993,0.26,30.149c-0.29,3.23-0.857,6.413-1.699,9.545c-0.84,3.034-2.056,5.907-3.648,8.622
					c-0.944,1.337-1.888,2.675-2.833,4.013c-3.062,3.394-6.683,5.915-10.861,7.569c-5.223,2.545-11.807,2.942-17.528,3.464
					c-1.498,0.092-2.995,0.182-4.491,0.273c-13.113,0.617-26.227,1.205-39.342,1.763c-19.673,0.86-39.351,1.587-59.028,2.313
					c-85.281,3.15-170.614,4.748-255.95,5.39c-164.019,1.234-328.1-2.553-491.9-11.034c-6.521-0.373-13.04-0.743-19.561-1.115
					c-7.161,0.082-14.295-0.234-21.401-0.951c-0.713,0.06-1.424,0.117-2.137,0.176c-1.803,0.19-3.604,0.401-5.402,0.634
					c-8.935,1.095-17.913,1.694-26.916,1.616c-4.523-0.04-8.972-0.684-13.426-1.393c-4.549-0.722-8.785-2.393-12.993-4.177
					c-4.178-1.771-7.511-4.693-10.804-7.71c-4.152-4.396-6.905-9.658-8.259-15.784c-0.753-3.563-1.11-7.167-1.071-10.81
					c0.133-6.605,0.266-13.207,0.397-19.813c0.26-13.099,0.517-26.199,0.767-39.3c0.376-19.389,0.732-38.78,1.088-58.169
					c0.696-37.883,1.337-75.767,1.956-113.65c1.283-78.375,2.358-156.755,3.294-235.135c3.218-269.942,4.017-539.902,3.124-809.859
					c-0.863-260.816-3.308-521.625-5.507-782.431c-1.792-212.627-3.176-425.256-4.598-637.885
					c-0.175-26.036-0.378-52.071-0.6-78.106c-0.26-30.465-0.922-60.928-0.228-91.39c0.426-18.702,2.49-37.288,5.017-55.8
					c2.67-19.546,7.769-38.59,13.981-57.271c4.267-12.833,10.425-24.882,16.996-36.651c7.352-13.172,17.257-24.641,27.78-35.331
					c7.918-8.046,17.278-14.512,26.674-20.667c11.664-7.639,24.748-12.928,37.771-17.708c10.7-3.929,21.898-6.437,33.015-8.839
					c14.44-3.121,29.217-4.631,43.905-5.98c27.737-2.551,55.742-2.307,83.564-2.127c12.638,0.082,25.275,0.25,37.912,0.346
					c25.069,0.191,50.146-0.125,75.215-0.094c54.296,0.066,108.586,0.886,162.861,2.371c22.859,0.625,45.71,1.614,68.565,2.386
					c30.118,1.017,60.295,0.422,90.414-0.227c24.643-0.53,49.275-1.6,73.903-2.61c37.565-1.542,75.117-3.224,112.694-4.525
					c5.164-0.199,10.314,0.005,15.447,0.613c4.996,0.594,9.917,1.569,14.761,2.925c4.754,1.33,9.378,3.012,13.876,5.045
					c6.76,2.754,12.796,6.98,18.732,11.134c3.843,2.906,7.451,6.078,10.827,9.514c5.228,4.948,9.281,10.962,13.266,16.895
					c2.516,4.058,4.709,8.285,6.582,12.677c0.847,2.223,1.692,4.447,2.54,6.67c2.995,8.8,4.452,17.779,4.369,26.936
					c0.025,0.802,1.302-0.48,1.379-0.548C1040.023,99.332,1042.239,97.885,1042.173,96.817z"/>
				<path opacity="0.1091" fill="#FFFFFF" d="M1043.537,98.493c-0.54-2.125-1.078-4.248-1.616-6.372
					c-0.093-4.979-0.938-9.825-2.536-14.539c-1.863-7.256-5.229-13.841-8.674-20.43c-3.476-6.648-8.437-12.4-13.282-18.05
					c-4.923-5.739-11.035-10.304-17.049-14.798c-6.119-4.571-13.143-7.722-20.064-10.819c-7.102-3.179-14.792-4.703-22.367-6.199
					c-7.883-1.557-15.983-1.26-23.949-0.976c-25.253,0.902-50.496,2.247-75.735,3.442c-37.196,1.761-74.39,3.381-111.612,4.456
					c-36.041,1.041-72.069,0.811-108.098-0.486c-16.94-0.61-33.872-1.311-50.814-1.845c-17.634-0.556-35.272-0.897-52.91-1.251
					c-42.9-0.86-85.814-1.04-128.722-1.067c-25.138-0.017-50.268,0.17-75.405-0.086c-18.867-0.191-37.727-0.335-56.593-0.09
					c-18.418,0.239-36.783,1.341-55.111,3.142c-20.496,2.011-40.612,6.205-60.323,12.096C142.286,29.519,127,37.152,112.457,46.038
					c-9.884,6.04-18.594,13.816-26.959,21.75c-6.565,6.224-12.044,13.481-17.49,20.659c-5.824,7.68-10.373,16.248-14.914,24.709
					c-4.955,9.236-8.532,19.16-12.134,28.968c-5.42,14.756-8.573,30.284-11.588,45.662c-2.58,13.166-3.796,26.579-5.088,39.912
					c-1.455,15.002-1.62,30.115-1.863,45.17c0.041,5.43,0.081,10.861,0.121,16.292c0.212,13.447,0.397,26.893,0.557,40.34
					c0.253,19.777,0.423,39.555,0.603,59.333c0.744,81.698,1.142,163.399,1.676,245.099c0.941,143.918,2.072,287.834,3.275,431.75
					c2.181,260.791,4.563,521.579,5.476,782.378c0.944,269.96-0.02,539.92-3.152,809.861
					c-1.802,155.378-4.393,310.745-7.501,466.102c0.09,1.869,0.181,3.738,0.271,5.606c0.357,3.499,1.227,6.864,2.608,10.098
					c1.143,3.34,3.138,5.696,5.158,8.493c2.071,2.863,4.738,4.684,7.46,6.834c3.985,3.15,9.013,4.829,13.716,6.508
					c4.756,1.699,9.961,2.215,14.938,2.802c4.819,0.569,9.726,0.403,14.563,0.299c8.968-0.193,17.89-1.669,26.77-2.802
					c2.127-0.271,4.192-0.442,6.332-0.356c6.504,0.402,13.008,0.806,19.512,1.208c13.052,0.77,26.107,1.491,39.163,2.165
					c39.272,2.1,78.573,3.647,117.873,5.071c85.311,3.092,170.679,4.505,256.041,4.982c78.826,0.44,157.655-0.457,236.463-2.159
					c39.401-0.851,78.795-2.101,118.181-3.486c19.692-0.692,39.378-1.519,59.064-2.345c13.122-0.566,26.245-1.161,39.365-1.785
					c3.021-0.133,6.033-0.377,9.036-0.727c3.462-0.342,5.842-1.081,9.183-1.939c3.45-0.885,5.923-2.544,8.965-4.278
					c4.717-2.689,7.477-7.647,10.077-12.146c0.651-1.715,1.303-3.43,1.953-5.144c1.101-3.553,1.79-7.183,2.071-10.89
					c0.703-5.31,0.299-10.813,0.06-16.135c-0.746-16.59-1.031-33.187-1.35-49.789c-0.5-26.122-0.703-52.251-0.778-78.379
					c-0.071-25.316,0.103-50.638,0.727-75.947c0.372-15.019,1.094-30.026,1.622-45.041c1.262-35.869,1.144-71.79,1.134-107.676
					c-0.013-43.269-0.346-86.537-0.59-129.804c-0.345-61.624,0.069-123.253,0.271-184.878c0.197-61.358-0.171-122.712-0.422-184.07
					c-0.254-61.32-0.208-122.642-0.254-183.963c-0.094-127.534-1.124-255.065-1.492-382.6
					c-1.529-530.861,2.938-1061.719,1.426-1592.58c-0.001-0.711-1.262-0.008-1.261,0.454c0.939,331.815-0.367,663.632-1.193,995.446
					c-0.412,165.819-0.654,331.637-0.438,497.456c0.211,160.76,1.545,321.517,1.696,482.276
					c0.068,73.188,0.045,146.377,0.418,219.564c0.408,79.998,0.18,159.988-0.052,239.988c-0.184,64.058,0.338,128.108,0.56,192.165
					c0.116,33.979,0.133,67.965-0.281,101.943c-0.389,31.958-2.123,63.868-2.729,95.82c-0.575,30.464-0.475,60.939-0.272,91.406
					c0.172,25.873,0.619,51.743,1.15,77.61c0.246,11.955,0.199,12.344,0.612,20.812c0.343,7.048-0.154,13.859-1.318,20.806
					c-0.495,1.685-0.992,3.368-1.488,5.054c-1.111,3.315-2.736,6.355-4.873,9.124c-2.842,4.385-7.193,6.785-11.659,9.107
					c-5.397,2.807-12.121,3.314-18.084,3.867c-1.5,0.092-2.999,0.183-4.498,0.273c-13.12,0.621-26.24,1.212-39.362,1.773
					c-85.303,3.747-170.669,5.945-256.043,7.183c-164.108,2.379-328.297-0.33-492.259-7.489
					c-19.612-0.857-39.215-1.876-58.816-2.897c-6.519-0.361-13.037-0.723-19.556-1.085c-7.009-0.757-14.032-1.157-21.066-1.2
					c-2.479-0.024-5.06,0.458-7.513,0.745c-4.947,0.575-9.887,1.164-14.848,1.599c-9.156,0.803-18.23,0.521-27.325-0.726
					c-4.809-0.659-9.334-2.254-13.847-3.953c-8.981-3.383-15.581-10.358-19.835-18.938c-2.395-4.826-2.545-10.289-2.821-15.529
					c0.133-6.604,0.264-13.209,0.397-19.813c0.259-13.104,0.515-26.205,0.766-39.307c0.745-38.482,1.433-76.963,2.1-115.447
					c1.38-79.51,2.552-159.022,3.581-238.537c3.525-272.229,4.628-544.48,3.927-816.73c-0.67-259.822-3.01-519.637-5.207-779.451
					c-1.827-216.198-3.33-432.398-4.761-648.6c-0.389-58.857-0.847-117.715-1.678-176.569c-0.198-10.585-0.145-21.17,0.157-31.754
					c0.278-9.774,0.818-19.535,1.618-29.281c1.47-21.336,5.268-42.373,10.139-63.162c3.313-14.143,8.465-27.724,14.065-41.086
					c6.161-14.703,14.923-28.046,24.512-40.688C87.32,65.429,103.656,52.862,120.6,42.488c12.036-7.368,25.411-12.373,38.708-16.893
					c10.947-3.723,22.346-6.045,33.667-8.271c14.673-2.886,29.644-4.211,44.529-5.391c27.931-2.213,56.079-1.799,84.069-1.542
					c40.72,0.374,81.435,0.13,122.157,0.253c59.508,0.18,119.013,1.257,178.485,3.404c11.453,0.502,22.908,0.942,34.365,1.323
					c11.933,0.332,23.866,0.509,35.805,0.533c30.491,0.256,61-0.804,91.468-1.873c31.123-1.092,62.229-2.711,93.335-4.21
					c12.59-0.609,25.181-1.202,37.771-1.779c6.387-0.282,12.773-0.563,19.159-0.846c5.31-0.405,10.619-0.4,15.929,0.018
					c10.318,0.417,20.291,3.581,29.904,7.056c4.68,1.895,9.192,4.126,13.538,6.695c6.605,3.581,12.313,8.568,17.927,13.479
					c3.621,3.411,6.969,7.07,10.046,10.979c4.813,5.667,8.259,12.31,11.637,18.871c2.104,4.446,3.805,9.042,5.101,13.787
					c0.601,2.343,1.201,4.687,1.8,7.03c-0.269,4.763,0.618,9.285,2.661,13.568C1042.845,99.22,1043.657,98.966,1043.537,98.493z"/>
				<path opacity="0.1091" fill="#FFFFFF" d="M1040.115,97.235c-0.104-2.357-0.207-4.713-0.313-7.07
					c-0.401-4.796-1.251-9.51-2.552-14.143c-1.632-7.106-5.028-13.703-8.302-20.143c-3.324-6.539-8.098-12.217-12.771-17.798
					c-4.734-5.656-10.645-10.18-16.46-14.633c-5.91-4.527-12.72-7.678-19.431-10.777c-6.881-3.176-14.354-4.746-21.717-6.288
					c-7.658-1.604-15.549-1.402-23.31-1.211c-12.611,0.494-25.22,1.002-37.829,1.525c-12.527,0.536-25.054,1.083-37.58,1.644
					c-37.133,1.646-74.261,3.218-111.416,4.262c-36.056,1.012-72.098,0.799-108.142-0.469c-34.585-1.218-69.152-2.382-103.754-3.082
					c-42.888-0.867-85.788-1.061-128.684-1.099c-25.146-0.022-50.288,0.186-75.434-0.065c-18.863-0.188-37.716-0.335-56.577-0.104
					c-18.377,0.224-36.701,1.289-54.992,3.04c-20.381,1.95-40.396,6.032-60.021,11.79c-16.234,4.763-31.404,12.204-45.851,20.891
					c-7.272,4.372-13.808,9.812-20.294,15.235c-6.72,5.618-12.458,12.284-18.155,18.89c-6.048,7.013-10.903,14.968-15.74,22.824
					c-5.252,8.53-9.166,17.827-13.093,27.005c-4.344,10.146-7.283,20.852-10.271,31.444c-4.54,16.097-6.852,32.779-9.061,49.315
					c-4.191,31.393-3.543,63.256-3.208,94.834c0.418,39.361,0.723,78.723,0.997,118.083c0.565,80.808,1.012,161.618,1.552,242.426
					c0.951,142.768,2.111,285.536,3.315,428.302c2.197,260.123,4.519,520.246,5.316,780.377
					c0.833,271.459-0.327,542.917-3.658,814.357c-0.896,72.863-1.981,145.723-3.174,218.582
					c-0.623,38.082-1.304,76.164-2.004,114.244c-0.358,19.495-0.736,38.99-1.113,58.484c-0.257,13.172-0.519,26.345-0.785,39.516
					c-0.084,3.638,0.292,7.225,1.129,10.763c0.831,4.822,3.545,8.966,6.24,12.898c2.644,3.857,6.746,6.443,10.567,8.942
					c3.91,2.561,8.72,3.843,13.146,5.119c4.544,1.311,9.311,1.701,13.992,2.159c8.487,0.83,17.181,0.027,25.638-0.756
					c3.245-0.302,6.483-0.693,9.721-1.062c8.58-0.973,17.568,0.349,25.978,0.824c163.799,9.268,327.867,12.771,491.915,12.248
					c78.802-0.25,157.596-1.839,236.358-4.232c39.377-1.195,78.741-2.791,118.099-4.521c9.606-0.422,19.132-0.7,28.683-1.605
					c3.072-0.354,6.094-0.965,9.063-1.833c3.027-0.888,5.875-2.178,8.542-3.867c4.471-2.408,7.153-6.803,9.738-10.936
					c0.643-1.556,1.286-3.112,1.93-4.668c1.131-3.249,1.88-6.583,2.248-10.003c0.821-4.981,0.602-10.139,0.545-15.16
					c-0.137-11.844-0.528-23.693-0.723-35.537c-0.714-43.598-0.902-87.214-0.504-130.815c0.172-18.811,0.49-37.604,1.192-56.4
					c0.551-14.793,1.176-29.576,1.501-44.377c1.058-48.015,0.692-96.064,0.489-144.085c-0.212-49.972-0.516-99.94-0.464-149.914
					c0.063-61.309,0.457-122.616,0.425-183.925c-0.029-54.854-0.533-109.706-0.64-164.558
					c-0.119-61.605-0.081-123.209-0.184-184.814c-0.103-62.514-0.544-125.027-0.869-187.54
					c-0.345-66.515-0.54-133.028-0.677-199.541c-1.061-510.923,3.003-1021.841,1.563-1532.764c-0.504,0.212-0.905,0.561-1.207,1.045
					c-1.271,1.507-2.513,3.038-3.727,4.593c-1.23,1.541-2.43,3.103-3.603,4.689c-0.401,0.405-0.647,0.876-0.737,1.416
					c0.889,331.802-0.434,663.602-1.242,995.402c-0.404,165.835-0.625,331.67-0.382,497.504
					c0.235,160.734,1.452,321.467,1.618,482.201c0.076,73.182-0.006,146.366,0.407,219.548
					c0.451,80.001,0.128,159.995-0.049,239.995c-0.143,63.959-0.06,127.924,0.279,191.882c0.102,19.056,0.158,38.112,0.209,57.169
					c0.02,7.119-0.064,14.175-0.464,21.282c-0.023,4.124-0.054,8.249-0.09,12.375c-0.021,3.658-0.05,7.317-0.084,10.978
					c-0.135,15.565-0.414,31.123-0.978,46.679c-0.595,16.391-1.368,32.771-1.708,49.17c-0.119,5.776,0.041,11.525,0.176,17.3
					c0.159,6.697-0.235,13.474-0.332,20.171c-0.257,17.81-0.362,35.621-0.48,53.434c-0.167,25.227-0.17,50.456-0.145,75.683
					c0.128,5.314,0.257,10.63,0.385,15.946c-0.597,2.271-0.953,4.581-1.067,6.929c-0.522,4.959-2.073,9.508-3.976,14.072
					c-1.45,3.482-4.509,6.082-7.318,8.389c-1.015,0.441-2.029,0.885-3.044,1.328c-2.478,1.207-5.068,2.07-7.776,2.591
					c-4.318,1.134-8.811,1.42-13.24,1.769c-8.032,0.425-16.066,0.796-24.104,1.114c-13.106,0.576-26.213,1.121-39.32,1.638
					c-91.761,3.721-183.588,5.669-275.417,6.48c-91.84,0.813-183.689-0.139-275.505-2.234c-45.908-1.048-91.802-2.609-137.687-4.379
					c-19.667-0.759-39.328-1.647-58.988-2.537c-13.106-0.605-26.211-1.243-39.314-1.914c-13.332-0.816-26.676-1.334-40.031-1.553
					c0.129,0.018,0.257,0.035,0.386,0.054c-3.829-0.639-7.856,0.08-11.722,0.147c-7.05,0.126-14.023-0.176-21.021-1.037
					c-3.719-0.46-7.313-1.461-10.886-2.542c-3.4-1.026-6.425-2.693-9.495-4.432c-2.938-1.664-5.255-4.331-7.355-6.89
					c-3.369-4.108-4.706-9.355-5.79-14.42c-0.22-1.67-0.438-3.34-0.659-5.011c-0.35-8.454-0.274-16.911,0.229-25.369
					c0.393-19.598,0.765-39.196,1.139-58.794c0.728-38.276,1.401-76.554,2.053-114.832c1.348-79.121,2.486-158.246,3.481-237.374
					c3.417-271.45,4.389-542.923,3.589-814.394c-0.769-260.159-3.175-520.308-5.399-780.458
					c-1.22-142.777-2.385-285.556-3.341-428.336c-0.499-74.339-0.923-148.678-1.257-223.018
					c-0.174-38.924-0.291-77.849-0.37-116.772c-0.037-18.428,0.141-36.851,0.436-55.276c0.305-19.021,2.262-37.938,4.691-56.784
					c1.575-12.229,4.314-24.256,7.102-36.247c2.483-10.681,6.184-21,9.956-31.271c3.387-9.219,7.986-17.902,12.635-26.522
					c4.252-7.887,9.66-15.051,15.076-22.147c10.01-13.112,22.993-23.563,36.549-32.747c6.62-4.483,13.877-7.958,21.052-11.426
					c9.751-4.714,20.183-7.934,30.532-11.014c16.314-4.855,33.333-7.257,50.185-9.292c17.921-2.167,36.035-2.756,54.064-3.224
					c18.759-0.489,37.542-0.235,56.304-0.071c28.349,0.25,56.69,0.058,85.039,0.057c71.884-0.002,143.755,1.245,215.597,3.631
					c17.477,0.581,34.938,1.128,52.423,1.434c18.096,0.316,36.202,0.032,54.297-0.195c42.897-0.539,85.784-2.401,128.661-3.765
					c18.303-0.581,36.604-0.974,54.914-1.262c6.152-0.12,12.306-0.241,18.46-0.36c4.666,0.056,9.3,0.475,13.899,1.258
					c6.729,0.879,13.143,3.302,19.439,5.687c6.21,2.352,11.793,6.067,17.28,9.715c5.484,3.647,10.082,8.443,14.605,13.163
					c4.564,4.762,8.015,10.442,11.413,16.039c3.463,5.707,5.603,12.083,7.708,18.366c1.297,4.338,2.225,8.754,2.783,13.248
					c0.331,4.347,0.352,8.696,0.065,13.046c0.515-0.172,0.939-0.487,1.273-0.945c1.371-1.399,2.717-2.824,4.034-4.273
					c1.335-1.435,2.64-2.896,3.919-4.379C1039.71,98.212,1039.988,97.762,1040.115,97.235z"/>
				<path opacity="0.1091" fill="#FFFFFF" d="M1039.782,98.458c-0.102-2.317-0.202-4.633-0.304-6.95
					c-0.387-4.785-1.231-9.487-2.529-14.108c-1.63-7.104-5.02-13.701-8.287-20.143c-3.322-6.545-8.093-12.236-12.762-17.828
					c-4.737-5.672-10.647-10.216-16.465-14.688c-5.919-4.552-12.739-7.729-19.461-10.853c-6.899-3.208-14.397-4.807-21.784-6.378
					c-7.692-1.636-15.624-1.462-23.426-1.296c-12.644,0.496-25.288,1.001-37.93,1.519c-12.547,0.536-25.093,1.085-37.637,1.648
					c-37.156,1.65-74.309,3.235-111.488,4.285c-36.054,1.02-72.093,0.813-108.134-0.451c-34.581-1.212-69.146-2.379-103.742-3.081
					c-42.889-0.868-85.792-1.062-128.69-1.1c-25.15-0.024-50.293,0.188-75.443-0.061c-18.861-0.188-37.715-0.336-56.578-0.108
					c-18.385,0.224-36.72,1.286-55.021,3.031c-20.411,1.949-40.458,6.026-60.117,11.78c-16.287,4.767-31.51,12.218-46.012,20.917
					c-7.31,4.384-13.878,9.841-20.4,15.284c-6.76,5.64-12.533,12.335-18.265,18.972c-6.087,7.048-10.972,15.044-15.837,22.941
					c-5.283,8.575-9.215,17.921-13.164,27.151c-4.361,10.192-7.308,20.953-10.305,31.596c-4.548,16.161-6.854,32.91-9.056,49.511
					c-4.176,31.475-3.494,63.418-3.132,95.074c0.45,39.39,0.767,78.78,1.051,118.172c0.584,80.816,1.03,161.635,1.569,242.451
					c0.954,142.768,2.111,285.535,3.315,428.301c2.195,260.122,4.516,520.242,5.312,780.372
					c0.831,271.455-0.331,542.911-3.665,814.348c-0.896,72.862-1.982,145.722-3.174,218.581
					c-0.624,38.08-1.305,76.161-2.005,114.242c-0.358,19.495-0.735,38.988-1.113,58.482c-0.257,13.173-0.519,26.346-0.785,39.517
					c-0.083,3.648,0.299,7.245,1.147,10.793c0.851,4.885,3.624,9.067,6.365,13.041c2.714,3.934,6.945,6.561,10.865,9.088
					c4.039,2.603,8.975,3.876,13.537,5.145c4.649,1.294,9.524,1.636,14.306,2.046c8.588,0.735,17.361-0.168,25.901-1.047
					c3.254-0.333,6.502-0.754,9.75-1.148c8.573-1.039,17.606,0.321,25.995,0.792c163.809,9.192,327.843,12.793,491.899,12.253
					c78.805-0.258,157.6-1.857,236.365-4.257c39.379-1.202,78.744-2.8,118.102-4.534c9.617-0.424,19.135-0.698,28.689-1.619
					c3.077-0.36,6.1-0.982,9.07-1.863c3.034-0.911,5.881-2.226,8.543-3.945c4.485-2.468,7.135-6.952,9.689-11.147
					c0.639-1.581,1.275-3.161,1.912-4.741c1.104-3.289,1.831-6.658,2.18-10.108c0.793-5.019,0.535-10.21,0.44-15.263
					c-0.224-11.873-0.643-23.74-0.857-35.614c-0.787-43.563-1.019-87.145-0.615-130.714c0.173-18.811,0.475-37.604,1.185-56.402
					c0.559-14.796,1.184-29.581,1.502-44.384c1.036-48.025,0.674-96.083,0.468-144.116c-0.216-49.96-0.501-99.918-0.451-149.88
					c0.063-61.31,0.458-122.616,0.428-183.926c-0.028-54.853-0.537-109.706-0.643-164.559
					c-0.118-61.604-0.082-123.209-0.183-184.813c-0.104-62.513-0.541-125.023-0.866-187.534
					c-0.347-66.513-0.54-133.028-0.679-199.541c-1.059-510.923,3.004-1021.842,1.564-1532.764c-0.37,0.058-0.663,0.257-0.881,0.595
					c-0.863,0.947-1.701,1.917-2.509,2.913c-0.655,0.792-2.812,2.739-2.808,3.987c0.901,331.806-0.419,663.609-1.23,995.413
					c-0.405,165.83-0.632,331.661-0.396,497.49c0.229,160.736,1.467,321.467,1.631,482.201c0.074,73.181,0.011,146.361,0.405,219.54
					c0.431,80.004,0.143,159.999-0.047,240.005c-0.151,63.958-0.005,127.92,0.325,191.877c0.1,19.068,0.156,38.139,0.193,57.208
					c0.016,7.115-0.026,14.177-0.399,21.283c-0.023,4.129-0.053,8.258-0.089,12.386c-0.021,3.666-0.05,7.331-0.085,10.994
					c-0.135,15.581-0.429,31.155-1.002,46.727c-0.602,16.361-1.342,32.71-1.708,49.08c-0.128,5.787,0.01,11.549,0.125,17.334
					c0.136,6.702-0.213,13.468-0.298,20.171c-0.226,17.844-0.281,35.69-0.334,53.536c-0.074,25.41,0.105,50.824,0.247,76.234
					c0.2,5.51,0.401,11.02,0.601,16.528c-0.484,2.494-0.756,5.013-0.815,7.554c-0.392,5.611-1.93,10.785-4.021,15.961
					c-1.598,3.951-4.852,6.909-7.94,9.646c-1.026,0.489-2.052,0.978-3.077,1.467c-2.537,1.294-5.199,2.242-7.983,2.842
					c-4.323,1.23-8.915,1.504-13.366,1.872c-8.039,0.456-16.084,0.836-24.131,1.136c-13.108,0.58-26.219,1.131-39.33,1.651
					c-91.79,3.745-183.645,5.725-275.504,6.565c-91.865,0.84-183.741-0.086-275.584-2.159c-45.911-1.036-91.809-2.593-137.698-4.363
					c-19.659-0.759-39.312-1.653-58.964-2.551c-13.095-0.613-26.188-1.258-39.281-1.935c-13.355-0.886-26.724-1.429-40.107-1.628
					c0.111,0.014,0.222,0.027,0.333,0.042c-1.583-0.273-1.618-0.227-3.529-0.125c-2.768,0.146-5.521,0.434-8.292,0.563
					c-7.394,0.347-14.727,0.295-22.104-0.323c-4.052-0.339-7.992-1.256-11.921-2.247c-3.833-0.968-7.297-2.714-10.766-4.546
					c-3.348-1.768-5.968-4.566-8.438-7.347c-3.7-4.167-5.215-9.704-6.435-14.978c-0.235-1.684-0.471-3.37-0.706-5.056
					c-0.407-8.463-0.342-16.931,0.198-25.401c0.393-19.596,0.767-39.195,1.139-58.793c0.731-38.274,1.403-76.552,2.057-114.829
					c1.35-79.121,2.49-158.245,3.488-237.371c3.424-271.442,4.41-542.908,3.618-814.371c-0.758-260.152-3.16-520.296-5.381-780.438
					c-1.219-142.777-2.379-285.556-3.344-428.335c-0.502-74.355-0.935-148.709-1.325-223.065
					c-0.204-38.979-0.385-77.957-0.569-116.936c-0.087-18.523-0.01-37.043,0.187-55.565c0.203-19.181,2.045-38.269,4.354-57.29
					c1.501-12.375,4.165-24.56,6.877-36.709c2.421-10.849,6.061-21.347,9.773-31.8c3.341-9.408,7.909-18.288,12.526-27.109
					c4.232-8.085,9.642-15.452,15.062-22.752c10.016-13.485,23.082-24.305,36.768-33.826c6.662-4.634,13.988-8.241,21.229-11.841
					c9.809-4.875,20.331-8.224,30.77-11.426c16.384-5.023,33.508-7.535,50.461-9.662c17.963-2.253,36.129-2.883,54.208-3.383
					c18.767-0.518,37.561-0.263,56.332-0.094c28.34,0.255,56.672,0.08,85.015,0.069c71.891-0.031,143.773,1.151,215.623,3.614
					c17.459,0.598,34.902,1.166,52.37,1.482c18.095,0.327,36.2,0.033,54.293-0.204c43.003-0.564,85.994-2.555,128.968-4.133
					c18.466-0.678,36.93-1.222,55.401-1.665c6.234-0.177,12.469-0.354,18.702-0.533c4.853-0.043,9.68,0.292,14.479,1.005
					c7.02,0.768,13.744,3.146,20.348,5.486c6.511,2.309,12.4,6.05,18.188,9.726c5.776,3.668,10.654,8.554,15.453,13.362
					c4.826,4.836,8.514,10.65,12.142,16.382c3.672,5.805,5.981,12.325,8.249,18.754c1.377,4.407,2.386,8.896,3.029,13.469
					c0.439,4.321,0.535,8.651,0.285,12.987c0.368-0.018,0.676-0.182,0.922-0.492c0.94-0.84,1.854-1.707,2.742-2.601
					C1037.213,101.531,1039.83,99.55,1039.782,98.458z"/>
				<path opacity="0.1091" fill="#FFFFFF" d="M1042.503,95.654c-0.546-9.574-1.639-19.374-5.399-28.316
					c-3.484-8.287-2.054-5.237-6.246-13.35c-3.42-6.617-8.311-12.353-13.094-17.988c-4.859-5.726-10.906-10.292-16.854-14.788
					c-6.057-4.579-13.019-7.751-19.88-10.872c-7.045-3.205-14.684-4.771-22.209-6.311c-5.218-0.859-10.471-1.316-15.758-1.369
					c-9.084,0.223-18.164,0.567-27.238,1.035c-37.555,1.577-75.096,3.467-112.647,5.077c-36.688,1.572-73.38,2.481-110.101,2.601
					c-34.783,0.114-69.547-1.884-104.305-2.983c-41.917-1.326-83.86-1.82-125.794-2.165c-34.272-0.282-68.546-0.177-102.818-0.042
					c-18.946,0.075-37.896-0.33-56.84-0.448c-18.687-0.118-37.353,0.22-56.019,1.085c-20.984,0.972-41.791,3.557-62.401,7.556
					c-16.94,3.286-33.241,8.84-49.065,15.62c-7.814,3.348-15.111,7.715-22.367,12.1c-7.363,4.45-13.977,9.982-20.54,15.498
					c-6.819,5.729-12.631,12.526-18.401,19.261c-6.132,7.157-11.041,15.271-15.933,23.284c-5.304,8.688-9.239,18.151-13.192,27.495
					c-5.916,13.982-9.55,28.856-13.024,43.58c-2.966,12.569-4.54,25.443-6.187,38.228c-1.852,14.371-2.382,28.896-2.991,43.355
					c-0.73,17.365-0.109,34.833,0.143,52.197c0.29,19.919,0.477,39.839,0.676,59.759c0.821,82.144,1.2,164.293,1.731,246.44
					c0.936,144.511,2.053,289.021,3.255,433.53c2.176,261.16,4.588,522.319,5.562,783.488c1.002,269.245,0.141,538.49-2.89,807.719
					c-1.74,154.613-4.265,309.217-7.307,463.811c-0.132,6.604-0.265,13.208-0.396,19.813c-0.063,3.659,0.331,7.271,1.184,10.829
					c0.393,2.239,2.656,7.686,3.986,9.539c0.972,1.354,1.942,2.709,2.914,4.063c2.119,2.597,4.563,4.84,7.329,6.733
					c3.977,3.159,8.965,4.828,13.665,6.508c6.155,2.201,13.079,2.642,19.518,3.061c9.967,0.649,20.087-0.688,29.949-1.976
					c2.939-0.385,5.871-0.79,8.816-1.123c7.098-0.805,19.577,0.829,23.349,1.052c39.227,2.321,78.48,4.134,117.742,5.763
					c85.271,3.54,170.61,5.331,255.947,6.198c164.189,1.67,328.411-1.884,492.422-9.501c4.605-0.215,9.084-0.738,13.631-1.482
					c4.85-0.794,8.98-2.868,13.213-5.227c1.467-0.818,2.899-1.871,3.987-3.159c1.15-1.358,2.301-2.72,3.451-4.08
					c2.095-2.941,3.682-6.136,4.755-9.583c2.013-5.026,2.207-10.777,2.583-16.092c0.351-4.943-0.166-10.029-0.419-14.968
					c-0.772-15.085-0.865-30.224-1.161-45.324c-0.318-16.232-0.491-32.468-0.636-48.705c-0.27-30.477-0.289-60.979,0.258-91.455
					c0.295-16.432,0.938-32.849,1.6-49.267c1.336-33.18,1.452-66.408,1.489-99.608c0.043-37.813-0.172-75.626-0.389-113.44
					c-0.349-60.83-0.265-121.657-0.044-182.488c0.442-122.507-0.449-245.012-0.521-367.52
					c-0.081-133.245-1.026-266.485-1.452-399.729c-1.715-537.51,2.893-1075.017,1.367-1612.527
					c-0.001-0.864-1.318,0.793-1.254,0.717c-0.558,0.657-1.096,1.33-1.612,2.021c-0.315,0.342-0.547,0.729-0.696,1.163
					c0.928,331.811-0.385,663.621-1.207,995.431c-0.41,165.824-0.646,331.646-0.422,497.471
					c0.216,160.743,1.512,321.48,1.668,482.222c0.071,73.179,0.051,146.356,0.406,219.534c0.181,37.232,0.367,74.461,0.334,111.694
					c-0.037,42.773-0.263,85.546-0.378,128.319c-0.173,63.987,0.187,127.973,0.461,191.959c0.08,19.056,0.112,38.111,0.109,57.166
					c-0.001,14.926-0.261,29.848-0.417,44.772c-0.333,31.948-2.033,63.841-2.728,95.779c-0.271,12.472-0.166,24.964-0.261,37.439
					c-0.134,17.912-0.068,35.823,0.031,53.735c0.144,25.637,0.651,51.27,1.179,76.9c0.148,7.189,0.627,13.819,0.764,20.824
					c0.141,3.257,0.126,6.512-0.042,9.768c-0.2,3.343-0.675,6.646-1.424,9.907c-1.432,7.685-6.648,14.929-12.985,19.286
					c-3.808,2.619-8.401,3.684-12.807,4.715c-4.407,1.032-9.103,1.132-13.598,1.418c-6.557,0.304-13.114,0.606-19.671,0.91
					c-13.114,0.591-26.231,1.151-39.349,1.684c-85.273,3.557-170.606,5.567-255.946,6.609
					c-164.055,2.004-328.194-0.996-492.079-8.656c-19.619-0.916-39.23-2.007-58.84-3.095c-8.34-0.464-15.537-1.536-23.429-0.886
					c-6.521,0.537-13.002,1.639-19.519,2.259c-4.249,0.404-8.499,0.515-12.764,0.587c-7.79,0.13-15.494-1.114-23.017-3.167
					c-4.649-1.269-8.714-3.759-12.693-6.364c-6.77-5.262-11.121-11.807-13.055-19.631c-0.771-3.547-1.137-7.135-1.098-10.767
					c0.131-6.604,0.263-13.21,0.396-19.813c0.259-13.102,0.515-26.203,0.766-39.306c0.374-19.393,0.729-38.785,1.085-58.178
					c0.695-37.888,1.333-75.776,1.952-113.664c1.279-78.385,2.353-156.772,3.285-235.161c3.211-269.953,4.008-539.927,3.117-809.896
					c-0.861-260.801-3.295-521.594-5.484-782.387c-1.784-212.614-3.126-425.23-4.589-637.847
					c-0.179-26.053-0.393-52.104-0.627-78.157c-0.277-30.615-1.038-61.229-0.422-91.842c0.379-18.853,2.408-37.594,4.905-56.264
					c2.638-19.722,7.762-38.939,13.996-57.789c4.295-12.984,10.505-25.174,17.134-37.084c7.431-13.351,17.455-24.977,28.108-35.81
					c7.979-8.114,17.427-14.631,26.899-20.834c11.733-7.682,24.89-13,37.988-17.809c10.739-3.945,21.976-6.461,33.131-8.874
					c14.468-3.128,29.274-4.644,43.99-5.999c27.751-2.555,55.77-2.313,83.607-2.134c12.637,0.082,25.273,0.252,37.912,0.346
					c25.074,0.186,50.158-0.119,75.234-0.09c54.297,0.065,108.59,0.883,162.866,2.368c22.854,0.626,45.696,1.617,68.546,2.389
					c30.118,1.019,60.296,0.422,90.414-0.229c24.66-0.533,49.312-1.608,73.955-2.624c37.653-1.552,75.293-3.268,112.957-4.55
					c5.211-0.196,10.404,0.011,15.582,0.623c5.036,0.597,9.996,1.574,14.881,2.933c4.789,1.333,9.449,3.018,13.985,5.052
					c6.808,2.756,12.899,6.98,18.89,11.136c7.962,5.523,14.347,12.954,20.321,20.467c7.062,9.57,12.165,20.218,15.306,31.947
					c1.99,6.627,2.289,13.491,2.447,20.341c0.018,0.801,1.256-0.522,1.286-0.55c0.599-0.574,1.181-1.168,1.742-1.78
					C1042.064,96.408,1042.323,96.058,1042.503,95.654z"/>
				<path opacity="0.1091" fill="#FFFFFF" d="M1040.134,96.166c-0.099-2.368-0.196-4.738-0.294-7.106
					c-0.41-4.811-1.269-9.542-2.574-14.191c-1.643-7.132-5.049-13.75-8.336-20.216c-3.342-6.569-8.141-12.273-12.837-17.877
					c-4.761-5.684-10.706-10.226-16.554-14.695c-5.946-4.545-12.795-7.7-19.545-10.803c-6.919-3.181-14.432-4.741-21.833-6.271
					c-7.696-1.592-15.622-1.365-23.415-1.149c-25.165,0.699-50.332,2.115-75.481,3.249c-37.143,1.673-74.279,3.252-111.445,4.303
					c-36.055,1.017-72.097,0.8-108.139-0.478c-34.585-1.225-69.151-2.389-103.753-3.088c-42.889-0.867-85.791-1.056-128.687-1.092
					c-25.146-0.021-50.286,0.184-75.431-0.067c-18.863-0.19-37.717-0.335-56.578-0.101c-18.381,0.228-36.709,1.302-55.001,3.065
					c-20.391,1.966-40.413,6.074-60.04,11.865c-16.244,4.793-31.414,12.274-45.855,21.002c-7.271,4.395-13.801,9.859-20.283,15.305
					c-6.716,5.643-12.446,12.334-18.135,18.964c-6.039,7.038-10.883,15.015-15.709,22.893c-5.239,8.554-9.141,17.869-13.058,27.066
					c-4.328,10.164-7.257,20.886-10.232,31.494c-4.521,16.115-6.818,32.812-9.012,49.361c-4.162,31.405-3.496,63.276-3.15,94.862
					c0.432,39.364,0.741,78.729,1.021,118.093c0.571,80.81,1.019,161.62,1.558,242.43c0.953,142.769,2.112,285.537,3.316,428.303
					c2.197,260.123,4.519,520.248,5.316,780.379c0.831,271.458-0.33,542.914-3.664,814.352
					c-0.894,72.862-1.981,145.723-3.174,218.581c-0.624,38.082-1.305,76.163-2.005,114.243c-0.359,19.494-0.735,38.988-1.113,58.483
					c-0.257,13.173-0.519,26.343-0.785,39.516c-0.083,3.641,0.296,7.231,1.138,10.771c0.837,4.829,3.562,8.976,6.26,12.912
					c2.649,3.863,6.77,6.464,10.596,8.966c3.936,2.575,8.749,3.869,13.203,5.159c4.56,1.321,9.354,1.706,14.053,2.159
					c8.514,0.818,17.227,0,25.706-0.807c3.247-0.311,6.49-0.709,9.73-1.084c1.955-0.265,3.918-0.365,5.891-0.305
					c13.229,0.703,26.458,1.436,39.685,2.196c78.577,4.438,157.262,7.043,235.938,8.946c85.341,2.063,170.714,2.558,256.077,2.09
					c78.802-0.431,157.591-2.202,236.349-4.771c39.375-1.284,78.734-2.972,118.088-4.789c4.583-0.212,9.041-0.701,13.568-1.418
					c3.063-0.575,6.022-1.482,8.879-2.725c2.922-1.289,5.575-2.996,7.959-5.122c1.109-1.259,2.221-2.519,3.332-3.776
					c2.049-2.743,3.607-5.738,4.676-8.991c2-4.76,2.317-10.203,2.803-15.264c0.468-4.88,0.082-9.94-0.05-14.831
					c-0.402-15.01-0.616-30.022-0.829-45.037c-0.582-41.066-0.728-82.144-0.272-123.211c0.198-17.81,0.564-35.603,1.253-53.4
					c0.582-15.073,1.157-30.138,1.456-45.219c1.005-50.907,0.574-101.846,0.349-152.758c-0.229-51.824-0.481-103.644-0.374-155.469
					c0.129-61.434,0.475-122.865,0.349-184.301c-0.111-54.707-0.548-109.414-0.628-164.122
					c-0.09-61.575-0.063-123.149-0.195-184.725c-0.12-56.423-0.538-112.845-0.832-169.268
					c-0.346-66.513-0.538-133.026-0.678-199.539c-1.067-510.923,3.005-1021.84,1.563-1532.763c-0.461,0.196-0.821,0.526-1.075,0.987
					c-1.101,1.421-2.171,2.865-3.211,4.331c-1.058,1.454-2.085,2.929-3.083,4.424c-0.355,0.39-0.552,0.834-0.591,1.335
					c0.896,331.803-0.427,663.606-1.234,995.408c-0.404,165.833-0.63,331.666-0.392,497.499
					c0.232,160.739,1.464,321.473,1.629,482.212c0.074,73.185,0.007,146.369,0.407,219.551
					c0.438,80.001,0.137,159.994-0.049,239.995c-0.148,63.974-0.007,127.952,0.318,191.927c0.096,19.043,0.148,38.087,0.187,57.131
					c0.016,7.136-0.043,14.219-0.412,21.346c-0.025,4.123-0.056,8.246-0.092,12.369c-0.023,3.655-0.053,7.313-0.089,10.968
					c-0.141,15.549-0.438,31.093-1.004,46.634c-0.597,16.405-1.339,32.799-1.69,49.213c-0.124,5.752,0.014,11.48,0.132,17.233
					c0.137,6.712-0.218,13.486-0.305,20.199c-0.229,17.839-0.299,35.68-0.371,53.52c-0.1,25.292,0.014,50.586,0.146,75.88
					c0.186,5.354,0.371,10.707,0.557,16.063c-0.511,2.426-0.796,4.88-0.854,7.361c-0.388,5.309-1.865,10.211-3.787,15.131
					c-1.466,3.753-4.565,6.57-7.489,9.143c-1.049,0.498-2.097,0.996-3.145,1.494c-2.508,1.273-5.137,2.198-7.888,2.777
					c-4.305,1.207-8.855,1.475-13.283,1.835c-1.487,0.079-2.972,0.157-4.457,0.238c-13.106,0.607-26.212,1.187-39.321,1.735
					c-85.211,3.664-170.482,5.783-255.762,6.943c-164.008,2.23-328.071-0.718-491.933-7.799c-19.657-0.85-39.307-1.838-58.958-2.829
					c-6.549-0.342-13.099-0.684-19.65-1.025c-7.134,0.501-14.204,0.241-21.208-0.782c-1.38-0.193-3.503,0.165-4.857,0.256
					c-2.993,0.205-5.967,0.341-8.965,0.432c-7.535,0.229-14.965-0.113-22.424-1.203c-3.865-0.565-7.54-1.746-11.224-2.988
					c-4.705-1.585-8.646-4.513-12.362-7.69c-2.819-2.411-4.579-5.946-6.177-9.188c-2.053-4.162-2.527-8.861-3.138-13.38
					c-0.061-1.862-0.123-3.725-0.184-5.587c0.267-13.171,0.529-26.343,0.785-39.513c0.385-19.493,0.749-38.985,1.114-58.478
					c1.516-81.078,2.822-162.157,3.982-243.241c3.942-275.552,5.438-551.13,4.974-826.707
					c-0.435-258.848-2.663-517.686-4.879-776.522c-1.874-218.899-3.711-437.797-4.927-656.702
					c-0.32-57.659-0.579-115.319-0.776-172.979c-0.104-30.146-0.339-60.294,0.818-90.424c0.864-22.461,4.043-44.704,8.282-66.746
					c1.588-7.642,3.469-15.211,5.643-22.708c2.771-10.281,6.77-20.148,10.835-29.963c5.961-14.395,14.48-27.479,23.819-39.86
					c8.399-11.135,19.049-20.307,30.057-28.73c10.692-8.183,22.971-14.087,35.242-19.44c10.061-4.388,20.724-7.312,31.306-10.114
					c13.832-3.662,28.104-5.596,42.276-7.341c14.896-1.833,29.935-2.481,44.921-3.056c15.528-0.594,31.085-0.526,46.622-0.479
					c15.794,0.048,31.587,0.281,47.379,0.39c6.376-0.051,12.753-0.093,19.13-0.123c18.696-0.105,37.396-0.05,56.092-0.011
					c60.002,0.126,120,1.152,179.974,3.003c23.128,0.716,46.238,1.618,69.375,2.031c30.294,0.541,60.617-0.25,90.9-1.03
					c30.735-0.792,61.461-2.038,92.189-3.078c12.283-0.409,24.569-0.77,36.855-1.084c6.092-0.118,12.184-0.237,18.274-0.354
					c8.584-0.591,17.164-0.637,25.739-0.137c11.556,0.468,22.631,4.476,33.03,9.192c10.217,4.631,18.789,12.17,26.56,20.078
					c7.867,8.006,13.17,18.082,17.578,28.263c1.646,4.233,2.965,8.566,3.955,13c1.737,6.588,1.567,13.254,1.398,19.988
					c0.471-0.162,0.85-0.461,1.134-0.9c1.185-1.33,2.342-2.684,3.471-4.061c1.146-1.365,2.262-2.751,3.35-4.162
					C1039.838,97.085,1040.063,96.659,1040.134,96.166z"/>
				<path opacity="0.1091" fill="#FFFFFF" d="M1040.187,99.633c-0.126-2.284-0.252-4.567-0.378-6.851
					c-0.384-4.771-1.224-9.462-2.52-14.071c-1.627-7.097-5.01-13.686-8.271-20.122c-3.317-6.545-8.064-12.231-12.727-17.826
					c-4.724-5.669-10.621-10.215-16.425-14.689c-5.905-4.554-12.712-7.734-19.422-10.864c-6.886-3.212-14.373-4.818-21.747-6.396
					c-7.684-1.643-15.607-1.477-23.399-1.319c-12.642,0.501-25.282,1.01-37.922,1.526c-12.543,0.537-25.083,1.088-37.624,1.653
					c-43.155,1.919-86.305,3.747-129.496,4.667c-35.532,0.757-71.01-0.078-106.514-1.495c-78.1-3.119-156.307-3.597-234.458-3.494
					c-22.073,0.029-44.131,0.05-66.203-0.179c-18.81-0.193-37.61-0.214-56.419,0.186c-12.323,0.263-24.713,0.811-36.992,1.979
					c-7.611,0.724-10.27,1.003-17.906,1.888c-11.665,1.35-23.17,3.639-34.622,6.182c-16.675,3.703-32.601,9.794-47.979,17.127
					c-7.627,3.637-14.675,8.313-21.678,12.997c-7.15,4.781-13.479,10.641-19.759,16.47c-6.566,6.095-12.068,13.222-17.535,20.274
					c-5.852,7.55-10.442,15.998-15.019,24.341c-5.001,9.113-8.619,18.933-12.265,28.633c-5.495,14.622-8.717,30.034-11.797,45.296
					c-2.639,13.079-3.919,26.41-5.271,39.663c-1.522,14.932-1.744,29.982-2.046,44.972c0.021,5.412,0.042,10.825,0.063,16.237
					c0.156,13.41,0.306,26.821,0.45,40.231c0.216,19.762,0.375,39.526,0.539,59.29c0.673,81.688,1.083,163.378,1.614,245.068
					c0.936,143.922,2.073,287.841,3.279,431.76c2.184,260.795,4.573,521.59,5.49,782.394c0.949,269.958-0.008,539.918-3.138,809.86
					c-1.8,155.374-4.392,310.738-7.501,466.091c0.08,1.866,0.16,3.732,0.241,5.598c0.349,3.446,1.163,6.777,2.439,9.995
					c1.493,4.654,4.853,8.347,8.058,11.86c3.233,3.546,7.884,5.725,12.101,7.778c4.404,2.143,9.337,3.041,14.087,4.011
					c9.002,1.842,18.573,1.266,27.668,0.656c7.488-0.502,14.889-1.911,22.378-2.354c0.514,0.024,1.026,0.051,1.538,0.076
					c13.11,0.752,26.219,1.504,39.329,2.256c19.62,1.125,39.252,2.031,58.88,2.957c39.318,1.855,78.659,3.212,118,4.443
					c85.317,2.67,170.682,3.719,256.04,3.818c78.805,0.094,157.607-1.154,236.384-3.199c39.387-1.024,78.759-2.45,118.127-4.008
					c19.682-0.779,39.358-1.692,59.033-2.604c3.013-0.127,6.017-0.365,9.012-0.713c3.077-0.365,6.099-0.993,9.064-1.888
					c4.75-1.207,8.52-4,12.252-6.994c1.097-1.305,2.192-2.611,3.289-3.917c2.001-2.822,3.505-5.89,4.507-9.201
					c1.882-4.794,2.076-10.255,2.473-15.313c0.38-4.813-0.044-9.788-0.209-14.605c-0.946-27.528-1.129-55.093-1.375-82.634
					c-0.192-21.708-0.188-43.416-0.079-65.123c0.106-21.104,0.321-42.2,1.036-63.291c0.493-14.551,1.193-29.091,1.587-43.645
					c1.152-42.707,0.882-85.465,0.739-128.181c-0.174-51.706-0.552-103.409-0.565-155.115
					c-0.015-61.267,0.407-122.532,0.456-183.798c0.042-54.981-0.479-109.961-0.618-164.941
					c-0.153-61.57-0.109-123.143-0.187-184.713c-0.162-128.503-1.23-257.003-1.532-385.506
					c-1.218-517.566,2.979-1035.13,1.521-1552.699c-0.342,0.005-0.627,0.156-0.854,0.45c-0.85,0.781-1.675,1.588-2.473,2.422
					c-0.6,0.614-2.792,2.306-2.789,3.398c0.897,331.806-0.417,663.611-1.23,995.416c-0.406,165.83-0.632,331.658-0.396,497.487
					c0.229,160.733,1.469,321.461,1.634,482.192c0.074,73.178,0.014,146.357,0.405,219.535
					c0.428,80.005,0.144,160.003-0.047,240.009c-0.151,63.946,0.011,127.899,0.332,191.845c0.097,19.084,0.15,38.168,0.184,57.254
					c0.013,7.101-0.025,14.149-0.39,21.242c-0.023,4.131-0.055,8.263-0.09,12.396c-0.024,3.669-0.053,7.339-0.089,11.008
					c-0.142,15.599-0.44,31.19-1.012,46.778c-0.6,16.338-1.33,32.664-1.694,49.009c-0.13,5.806,0.001,11.591,0.11,17.396
					c0.125,6.697-0.213,13.452-0.297,20.149c-0.225,17.841-0.284,35.684-0.344,53.524c-0.083,25.445,0.065,50.893,0.148,76.338
					c0.166,5.553,0.332,11.106,0.497,16.659c-0.478,2.484-0.763,4.991-0.857,7.52c-0.448,5.618-2.041,10.788-4.186,15.955
					c-1.634,3.938-4.909,6.88-8.015,9.603c-1.015,0.483-2.028,0.965-3.043,1.448c-2.538,1.286-5.2,2.227-7.983,2.823
					c-4.326,1.227-8.918,1.5-13.373,1.869c-1.49,0.082-2.979,0.163-4.47,0.246c-13.107,0.607-26.216,1.188-39.326,1.736
					c-85.222,3.668-170.505,5.791-255.796,6.957c-164.017,2.242-328.09-0.699-491.959-7.775c-19.647-0.85-39.289-1.836-58.93-2.824
					c-6.537-0.35-13.073-0.701-19.61-1.051c-7.336,0.961-14.533,0.703-21.593-0.775c-0.702,0.037-1.402,0.072-2.104,0.109
					c-1.768,0.124-3.532,0.264-5.297,0.418c-3.206,0.268-6.461,0.262-9.675,0.356c-7.843,0.229-15.577-0.382-23.292-1.763
					c-3.939-0.704-7.645-2.153-11.311-3.692c-4.72-1.98-8.458-5.281-11.824-9.032c-2.698-3.004-4.046-6.814-5.441-10.512
					c-0.343-1.475-0.687-2.95-1.031-4.424c-0.67-3.507-0.973-7.043-0.908-10.614c0.131-6.604,0.264-13.207,0.397-19.811
					c0.26-13.101,0.517-26.202,0.768-39.303c0.376-19.39,0.732-38.781,1.089-58.171c1.485-80.679,2.759-161.36,3.888-242.044
					c3.842-274.695,5.243-549.416,4.715-824.136c-0.497-259.061-2.76-518.113-4.979-777.164
					c-1.83-213.51-3.578-427.022-4.816-640.537c-0.333-57.665-0.627-115.329-0.922-172.994c-0.154-30.211-0.478-60.422,0.566-90.62
					c0.781-22.545,3.855-44.886,7.977-67.034c2.767-14.866,7.264-29.268,12.277-43.501c5.37-15.25,13.312-29.353,22.158-42.805
					c7.855-11.945,18.09-22.053,28.798-31.397c10.242-8.937,22.269-15.606,34.351-21.657c9.807-4.911,20.331-8.289,30.776-11.519
					c13.592-4.202,27.734-6.538,41.77-8.649c23.75-3.573,47.96-4.25,71.943-4.683c15.679-0.284,31.371-0.079,47.051,0.063
					c40.748,0.368,81.499,0.023,122.25,0.193c59.478,0.247,118.944,1.438,178.385,3.492c11.496,0.443,22.993,0.835,34.492,1.177
					c11.953,0.292,23.907,0.438,35.864,0.443c30.449,0.192,60.909-0.809,91.339-1.779c30.936-0.987,61.861-2.32,92.793-3.433
					c12.317-0.45,24.636-0.813,36.957-1.092c6.246-0.188,12.493-0.376,18.739-0.565c4.89-0.065,9.757,0.252,14.597,0.954
					c9.418,0.991,18.354,4.508,26.932,8.28c10.585,4.655,19.49,12.351,27.561,20.437c8.135,8.149,13.635,18.453,18.214,28.871
					c1.698,4.295,3.062,8.693,4.087,13.197c1.731,6.454,1.671,13.041,1.645,19.651c0.336,0.036,0.633-0.076,0.889-0.339
					c0.919-0.667,1.815-1.363,2.69-2.089C1037.567,102.252,1040.239,100.577,1040.187,99.633z"/>
				<path opacity="0.1091" fill="#FFFFFF" d="M1040.976,94.443c-0.261-4.736-0.334-9.703-1.428-14.35
					c-2.021-8.587-1.162-5.528-3.955-14.06c-2.298-7.023-6.268-13.384-10.121-19.615c-3.918-6.335-9.204-11.692-14.391-16.962
					c-5.264-5.35-11.618-9.458-17.875-13.503c-6.378-4.125-13.562-6.765-20.641-9.363c-7.291-2.675-15.059-3.645-22.706-4.598
					c-5.31-0.453-10.621-0.496-15.937-0.128c-12.679,0.527-25.355,1.072-38.032,1.636c-37.447,1.636-74.882,3.496-112.337,4.965
					c-36.487,1.431-72.978,2.007-109.492,1.707c-17.41-0.144-34.814-0.977-52.207-1.687c-17.187-0.702-34.381-1.164-51.573-1.636
					c-42.286-1.163-84.593-1.551-126.893-1.788c-31.252-0.176-62.502,0.119-93.755,0.029c-18.927-0.054-37.854-0.401-56.783-0.432
					c-18.598-0.029-37.168,0.53-55.731,1.669c-20.796,1.278-41.362,4.348-61.674,8.925c-16.714,3.768-32.659,9.952-48.046,17.383
					c-7.64,3.688-14.691,8.422-21.696,13.161c-7.157,4.842-13.484,10.763-19.764,16.652c-6.567,6.159-12.064,13.348-17.525,20.461
					c-5.849,7.617-10.431,16.128-15.005,24.529c-4.999,9.181-8.612,19.062-12.252,28.824c-5.484,14.705-8.691,30.194-11.755,45.533
					c-4.539,22.719-5.868,45.972-6.893,69.061c-0.77,17.333-0.186,34.771,0.028,52.107c0.245,19.926,0.447,39.851,0.635,59.777
					c0.776,82.156,1.166,164.317,1.695,246.476c0.933,144.52,2.054,289.039,3.26,433.556c2.177,261.166,4.592,522.331,5.568,783.504
					c1.006,269.235,0.146,538.469-2.885,807.689c-1.74,154.603-4.266,309.196-7.308,463.78c-0.131,6.602-0.264,13.207-0.396,19.809
					c-0.071,3.685,0.315,7.319,1.158,10.904c0.299,1.731,0.861,3.475,1.628,5.052c2.715,5.584,1.377,3.306,4.979,8.529
					c2.884,4.185,7.361,6.954,11.522,9.647c4.248,2.75,9.538,4.029,14.351,5.299c3.138,0.83,6.572,1.141,9.779,1.53
					c10.345,1.257,21.012,0.079,31.296-1.171c5.337-0.648,10.757-1.867,16.151-1.717c6.532,0.393,13.062,0.786,19.592,1.178
					c13.061,0.766,26.122,1.486,39.188,2.166c19.626,1.053,39.264,1.916,58.9,2.785c85.25,3.774,170.577,5.744,255.9,6.81
					c164.183,2.049,328.415-1.141,492.439-8.398c9.645-0.428,19.157-0.706,28.729-1.648c4.77-0.47,9.104-1.909,13.528-3.642
					c1.412-0.792,2.824-1.585,4.235-2.377c2.898-1.854,5.303-4.219,7.214-7.09c1.187-1.424,2.188-3.104,2.864-4.832
					c1.98-5.066,3.683-10.058,4.027-15.551c0.371-5.926,0.339-4.616,0.329-10.482c-0.023-1.721-0.097-3.441-0.217-5.161
					c-0.364-6.952-0.634-13.907-0.812-20.866c-0.926-25.875-0.995-51.811-1.218-77.698c-0.154-18.048-0.156-36.097-0.086-54.144
					c0.086-22.304,0.375-44.602,1.168-66.893c0.39-10.958,0.895-21.913,1.253-32.872c0.548-16.761,0.708-33.531,0.845-50.299
					c0.707-86.233-0.567-172.478-0.474-258.712c0.066-61.308,0.464-122.614,0.429-183.923c-0.017-30.738-0.275-61.477-0.432-92.213
					c-0.184-36.386-0.219-72.772-0.259-109.157c-0.067-61.482-0.057-122.965-0.224-184.446
					c-0.192-70.337-0.766-140.673-1.057-211.011c-2.312-557.465,2.739-1114.929,1.157-1672.394
					c-0.003-1.003-1.517,1.344-1.366,1.125c-0.611,0.894-1.203,1.802-1.771,2.725c-0.342,0.465-0.598,0.97-0.767,1.516
					c0.924,331.809-0.388,663.616-1.207,995.423c-0.409,165.827-0.647,331.654-0.423,497.48
					c0.217,160.746,1.509,321.486,1.665,482.232c0.071,73.182,0.043,146.363,0.406,219.545c0.186,37.227,0.367,74.448,0.334,111.675
					c-0.039,42.776-0.265,85.552-0.378,128.326c-0.172,63.998,0.16,127.996,0.445,191.995c0.086,19.032,0.124,38.065,0.126,57.098
					c0.002,14.928-0.278,29.85-0.429,44.777c-0.321,31.962-2.011,63.867-2.733,95.816c-0.129,5.719-0.076,11.427-0.037,17.146
					c0.047,6.74-0.154,13.497-0.207,20.238c-0.141,17.895-0.081,35.791,0.016,53.687c0.137,25.493,0.683,50.981,1.221,76.469
					c0.395,18.659,5.025,40.321-9.018,56.734c-2.265,1.802-4.716,3.301-7.354,4.495c-2.799,1.26-5.71,2.152-8.732,2.679
					c-4.405,1.052-9.094,1.153-13.591,1.44c-6.557,0.304-13.114,0.606-19.671,0.911c-13.115,0.593-26.231,1.154-39.35,1.686
					c-39.354,1.645-78.726,2.888-118.099,3.996c-85.319,2.401-170.677,3.263-256.027,3.154
					c-78.777-0.101-157.547-1.533-236.289-3.811c-39.342-1.136-78.668-2.7-117.987-4.431c-19.632-0.863-39.257-1.896-58.881-2.934
					c-13.099-0.72-26.199-1.461-39.295-2.223c-1.246-0.029-2.487,0.034-3.725,0.19c-6.539,0.547-13.037,1.661-19.571,2.295
					c-4.285,0.415-8.572,0.528-12.874,0.595c-7.971,0.124-15.757-1.222-23.445-3.439c-4.768-1.377-8.9-4.152-12.858-7.012
					c-4.318-8.383-8.638-16.768-12.957-25.15c-0.476-8.508-0.425-17.021,0.155-25.539c0.904-45.244,1.734-90.489,2.535-135.734
					c2.641-149.527,4.613-299.067,5.983-448.611c2.425-264.824,2.468-529.663,1.141-794.494
					c-1.325-264.386-3.949-528.762-6.075-793.142c-0.798-99.428-1.524-198.857-2.173-298.285
					c-0.706-108.105-1.202-216.214-2.155-324.319c-0.143-12.069-0.18-24.14-0.11-36.211c0.238-19.616,1.541-39.173,3.907-58.672
					c1.859-16.646,5.519-32.991,9.66-49.189c3.59-14.046,9.093-27.459,15.055-40.629C60.613,101.96,69.784,89.006,79.731,76.8
					c7.282-8.936,16.161-16.399,25.149-23.523c8.723-6.915,18.627-12.201,28.501-17.228c9.951-5.065,20.644-8.573,31.259-11.922
					c13.716-4.327,28.004-6.756,42.185-8.947c23.944-3.7,48.35-4.431,72.53-4.893c28.347-0.542,56.709,0.317,85.059,0.293
					c46.504-0.038,92.995-0.079,139.498,0.461c52.564,0.61,105.076,2.446,157.611,4.172c24.027,0.79,48.093,0.465,72.125,0.145
					c24.539-0.327,49.073-1.282,73.596-2.184c24.802-0.912,49.598-2.003,74.398-2.983c12.439-0.494,24.882-0.924,37.326-1.289
					c6.316-0.206,12.633-0.412,18.95-0.619c5.068-0.149,10.12,0.089,15.153,0.714c9.751,0.839,19.071,4.227,28.043,7.888
					c8.822,3.6,16.543,9.381,23.887,15.312c7.348,5.933,13.036,13.591,18.319,21.311c2.511,3.977,4.706,8.119,6.587,12.43
					c2.001,6.663,4.004,13.326,6.006,19.989c0.698,4.457,0.982,8.941,0.851,13.45c0.016,0.951,1.517-1.101,1.426-0.988
					c0.663-0.825,1.307-1.667,1.928-2.525C1040.486,95.437,1040.773,94.963,1040.976,94.443z"/>
				<path opacity="0.1091" fill="#FFFFFF" d="M1039.939,98.797c-0.1-2.343-0.199-4.688-0.3-7.033
					c-0.386-4.772-1.228-9.464-2.523-14.073c-1.622-7.074-5.006-13.645-8.263-20.056c-3.306-6.504-8.048-12.156-12.688-17.712
					c-4.703-5.631-10.569-10.142-16.342-14.583c-5.869-4.517-12.63-7.672-19.296-10.778c-6.838-3.185-14.268-4.781-21.588-6.347
					c-7.622-1.633-15.484-1.474-23.216-1.325c-12.603,0.473-25.204,0.96-37.806,1.461c-12.521,0.519-25.044,1.053-37.564,1.604
					c-37.131,1.609-74.256,3.176-111.408,4.216c-36.056,1.008-72.096,0.803-108.14-0.456c-34.585-1.208-69.152-2.371-103.752-3.073
					c-42.888-0.869-85.788-1.065-128.683-1.108c-25.147-0.023-50.291,0.188-75.439-0.063c-18.861-0.187-37.714-0.333-56.575-0.108
					c-18.377,0.22-36.701,1.272-54.992,3.006c-20.381,1.932-40.403,5.981-60.041,11.698c-16.247,4.731-31.44,12.129-45.919,20.771
					c-7.29,4.352-13.848,9.772-20.359,15.177c-6.745,5.6-12.512,12.253-18.238,18.847c-6.08,7.002-10.966,14.953-15.833,22.805
					c-5.288,8.53-9.229,17.833-13.187,27.016c-4.375,10.152-7.338,20.874-10.349,31.479c-4.577,16.116-6.909,32.827-9.136,49.389
					c-4.229,31.435-3.588,63.348-3.253,94.972c0.417,39.378,0.719,78.758,0.993,118.138c0.562,80.813,1.01,161.629,1.549,242.442
					c0.951,142.766,2.108,285.533,3.312,428.297c2.195,260.122,4.518,520.242,5.315,780.373
					c0.833,271.458-0.325,542.915-3.655,814.354c-0.894,72.863-1.981,145.724-3.172,218.583
					c-0.623,38.083-1.304,76.164-2.003,114.244c-0.358,19.495-0.736,38.989-1.113,58.484c-0.257,13.172-0.519,26.345-0.785,39.518
					c-0.084,3.639,0.291,7.23,1.125,10.772c0.835,4.858,3.565,9.035,6.277,12.997c2.677,3.912,6.832,6.522,10.705,9.055
					c3.957,2.586,8.851,3.864,13.334,5.129c4.601,1.297,9.41,1.665,14.144,2.1c8.529,0.785,17.26-0.076,25.75-0.906
					c3.249-0.317,6.49-0.726,9.73-1.102c8.578-0.995,17.568,0.357,25.973,0.847c163.77,9.522,327.895,12.785,491.922,12.252
					c78.801-0.256,157.594-1.852,236.356-4.249c39.377-1.198,78.741-2.799,118.099-4.53c9.608-0.422,19.13-0.696,28.68-1.612
					c3.071-0.359,6.09-0.98,9.057-1.857c3.025-0.91,5.864-2.223,8.519-3.938c4.449-2.446,7.08-6.936,9.598-11.1
					c0.617-1.57,1.234-3.142,1.852-4.713c1.081-3.257,1.777-6.592,2.09-10.01c0.739-4.953,0.479-10.059,0.377-15.041
					c-0.239-11.807-0.577-23.609-0.783-35.416c-0.759-43.54-0.933-87.1-0.526-130.644c0.176-18.813,0.48-37.605,1.189-56.407
					c0.558-14.795,1.181-29.581,1.501-44.383c1.043-48.016,0.683-96.064,0.477-144.086c-0.215-49.964-0.504-99.926-0.452-149.893
					c0.062-61.309,0.456-122.617,0.425-183.928c-0.028-54.851-0.534-109.703-0.64-164.555
					c-0.118-61.605-0.082-123.209-0.185-184.814c-0.102-62.513-0.541-125.023-0.866-187.535
					c-0.346-66.513-0.54-133.028-0.678-199.542c-1.066-510.923,3.003-1021.841,1.563-1532.764c-0.484,0.148-0.882,0.439-1.189,0.872
					c-1.264,1.305-2.499,2.635-3.709,3.991c-1.225,1.341-2.422,2.706-3.592,4.095c-0.4,0.35-0.649,0.775-0.747,1.272
					c0.889,331.802-0.434,663.602-1.242,995.402c-0.404,165.834-0.624,331.669-0.382,497.504
					c0.235,160.732,1.448,321.46,1.617,482.191c0.075,73.181-0.009,146.363,0.406,219.545c0.454,80.002,0.129,159.996-0.048,239.998
					c-0.143,63.945-0.068,127.897,0.272,191.842c0.103,19.071,0.162,38.142,0.214,57.213c0.021,7.101-0.068,14.139-0.47,21.229
					c-0.023,4.128-0.055,8.255-0.091,12.382c-0.021,3.664-0.048,7.328-0.082,10.992c-0.132,15.582-0.407,31.157-0.973,46.729
					c-0.594,16.371-1.381,32.729-1.713,49.109c-0.118,5.797,0.043,11.567,0.18,17.364c0.159,6.686-0.24,13.455-0.34,20.144
					c-0.265,17.794-0.381,35.591-0.512,53.387c-0.185,25.221-0.219,50.443-0.225,75.665c0.104,5.33,0.209,10.66,0.313,15.99
					c-0.584,2.227-0.929,4.492-1.035,6.796c-0.51,4.923-2.026,9.456-3.889,14.001c-1.428,3.488-4.481,6.096-7.277,8.413
					c-0.994,0.44-1.986,0.88-2.979,1.321c-2.472,1.207-5.058,2.074-7.758,2.599c-4.318,1.141-8.819,1.429-13.249,1.778
					c-1.483,0.076-2.966,0.154-4.449,0.231c-13.104,0.604-26.208,1.179-39.313,1.725c-85.195,3.643-170.451,5.745-255.714,6.886
					c-163.989,2.193-328.023-0.826-491.867-7.864c-19.661-0.845-39.317-1.82-58.971-2.802c-6.56-0.331-13.119-0.662-19.678-0.992
					c-7.316,0.896-14.508,0.635-21.573-0.782c-0.687,0.022-1.372,0.044-2.057,0.066c-1.721,0.086-3.441,0.185-5.159,0.296
					c-3.098,0.188-6.247,0.079-9.348,0.079c-7.383-0.001-14.63-0.841-21.836-2.408c-3.556-0.772-6.89-2.236-10.154-3.788
					c-4.191-1.992-7.451-5.049-10.35-8.592c-2.432-2.969-3.586-6.563-4.846-10.113c-0.306-1.446-0.613-2.893-0.919-4.339
					c-0.63-3.487-0.904-7.003-0.825-10.547c0.133-6.604,0.265-13.207,0.397-19.813c0.26-13.099,0.516-26.201,0.768-39.302
					c0.375-19.39,0.731-38.781,1.088-58.172c1.482-80.68,2.754-161.361,3.879-242.047c3.834-274.702,5.221-549.429,4.683-824.155
					c-0.506-259.065-2.776-518.124-5-777.179c-1.885-219.778-3.729-439.556-4.886-659.337c-0.305-57.928-0.53-115.856-0.666-173.786
					c-0.022-13.163,0.034-26.327,0.174-39.49c0.113-15.227,0.833-30.338,1.875-45.523c1.47-21.416,5.32-42.532,10.173-63.406
					c1.816-7.218,3.925-14.35,6.33-21.396c3.091-9.694,7.404-18.911,11.774-28.069c6.46-13.535,15.429-25.614,25.122-36.958
					c8.857-10.366,19.829-18.67,31.053-26.261c11.083-7.496,23.575-12.729,36.014-17.473c10.293-3.925,21.091-6.458,31.81-8.892
					c14.056-3.189,28.464-4.778,42.783-6.209c15.04-1.503,30.186-1.946,45.285-2.336c15.605-0.404,31.229-0.256,46.838-0.151
					c12.648,0.084,25.294,0.238,37.941,0.317c6.373-0.066,12.745-0.111,19.117-0.133c18.694-0.097,37.391-0.043,56.084,0
					c60.002,0.137,119.998,1.178,179.971,3.025c23.137,0.713,46.259,1.593,69.405,1.996c30.294,0.527,60.615-0.255,90.896-1.016
					c30.702-0.773,61.395-1.967,92.092-2.934c12.246-0.378,24.495-0.699,36.745-0.962c6.063-0.091,12.127-0.183,18.191-0.274
					c8.501-0.606,16.992-0.597,25.473,0.032c11.334,0.612,22.149,4.707,32.287,9.482c9.963,4.692,18.271,12.219,25.787,20.089
					c7.629,7.986,12.717,17.97,16.94,28.038c1.582,4.202,2.844,8.497,3.785,12.888c1.639,6.451,1.37,12.994,1.183,19.568
					c0.492-0.104,0.909-0.357,1.251-0.76c1.36-1.184,2.696-2.393,4.008-3.63c1.325-1.222,2.624-2.471,3.899-3.747
					C1039.521,99.681,1039.803,99.282,1039.939,98.797z"/>
				<path opacity="0.1091" fill="#FFFFFF" d="M1040.224,96.151c-0.12-2.313-0.242-4.627-0.362-6.94
					c-0.421-4.814-1.29-9.544-2.605-14.194c-1.659-7.144-5.085-13.762-8.395-20.231c-3.366-6.579-8.192-12.288-12.915-17.899
					c-4.792-5.693-10.764-10.242-16.641-14.72c-5.979-4.557-12.86-7.721-19.643-10.835c-6.957-3.193-14.509-4.764-21.947-6.306
					c-7.743-1.606-15.717-1.389-23.558-1.181c-12.659,0.513-25.318,1.041-37.976,1.583c-12.554,0.554-25.106,1.119-37.66,1.694
					c-37.16,1.69-74.318,3.285-111.502,4.343c-36.052,1.026-72.091,0.811-108.13-0.463C604.31,9.78,569.747,8.613,535.151,7.915
					c-42.892-0.867-85.796-1.056-128.695-1.092c-25.148-0.021-50.29,0.187-75.438-0.065c-18.862-0.188-37.718-0.336-56.581-0.103
					c-18.391,0.229-36.729,1.302-55.032,3.064c-20.424,1.967-40.478,6.079-60.138,11.874c-16.296,4.803-31.519,12.303-46.01,21.052
					c-7.308,4.411-13.87,9.896-20.385,15.365c-6.753,5.669-12.515,12.393-18.237,19.055c-6.075,7.076-10.943,15.098-15.793,23.019
					c-5.265,8.601-9.182,17.97-13.12,27.216c-4.349,10.209-7.275,20.993-10.255,31.65c-4.523,16.182-6.813,32.944-8.997,49.561
					c-4.139,31.487-3.438,63.434-3.062,95.099c0.468,39.393,0.792,78.789,1.081,118.185c0.595,80.818,1.04,161.637,1.581,242.455
					c0.955,142.771,2.112,285.538,3.316,428.307c2.197,260.122,4.517,520.243,5.311,780.373
					c0.829,271.452-0.333,542.904-3.668,814.338c-0.896,72.861-1.983,145.72-3.177,218.576
					c-0.623,38.081-1.304,76.162-2.004,114.241c-0.358,19.494-0.736,38.987-1.114,58.481c-0.256,13.173-0.518,26.346-0.785,39.516
					c-0.082,3.658,0.302,7.266,1.151,10.821c0.854,4.897,3.636,9.098,6.374,13.09c2.72,3.966,6.966,6.64,10.896,9.208
					c4.073,2.662,9.058,3.979,13.671,5.286c4.703,1.333,9.645,1.675,14.484,2.086c8.656,0.733,17.506-0.21,26.108-1.14
					c3.187-0.343,6.366-0.76,9.545-1.154c8.62-1.072,17.411,0.26,25.996,0.722c39.242,2.116,78.476,4.124,117.74,5.752
					c39.342,1.631,78.702,2.804,118.063,3.85c85.34,2.267,170.717,2.936,256.083,2.653c78.808-0.26,157.607-1.857,236.379-4.258
					c39.38-1.201,78.748-2.8,118.107-4.534c9.621-0.424,19.148-0.703,28.708-1.619c4.789-0.458,9.246-1.874,13.724-3.563
					c1.399-0.765,2.8-1.53,4.199-2.297c2.832-1.797,5.216-4.068,7.151-6.814c3.451-3.968,4.778-9.438,6.135-14.343
					c1.384-5.011,1.277-10.569,1.349-15.714c-0.046-1.698-0.091-3.398-0.136-5.097c-0.304-6.938-0.536-13.878-0.696-20.822
					c-0.805-25.867-0.889-51.78-1.084-77.659c-0.153-20.351-0.127-40.703,0.008-61.053c0.133-19.902,0.407-39.792,1.117-59.683
					c0.521-14.619,1.191-29.229,1.548-43.853c1.101-45.285,0.784-90.609,0.608-135.901c-0.187-47.865-0.521-95.729-0.531-143.595
					c-0.016-61.266,0.408-122.529,0.455-183.795c0.043-54.98-0.477-109.96-0.615-164.94c-0.155-61.571-0.111-123.144-0.188-184.714
					c-0.162-128.506-1.234-257.011-1.535-385.518c-1.211-517.566,2.985-1035.13,1.521-1552.698c-0.003-1.095-1.81,1.639-1.662,1.438
					c-0.809,1.106-1.595,2.226-2.36,3.362c-0.443,0.57-0.803,1.188-1.077,1.851c0.911,331.806-0.403,663.611-1.219,995.417
					c-0.407,165.828-0.64,331.657-0.41,497.486c0.223,160.742,1.486,321.477,1.648,482.219
					c0.073,73.181,0.026,146.363,0.405,219.544c0.414,80.004,0.157,159.998-0.045,240.001
					c-0.162,63.981,0.077,127.966,0.385,191.947c0.093,19.047,0.14,38.093,0.159,57.14c0.007,7.141-0.005,14.244-0.32,21.378
					c-0.343,7.733-0.109,15.595-0.181,23.35c-0.146,15.555-0.467,31.103-1.044,46.647c-0.609,16.391-1.304,32.77-1.681,49.169
					c-0.104,4.647-0.1,6.354-0.038,11.05c0.083,6.412-0.012,12.807-0.092,19.219c-0.173,13.668-0.231,27.338-0.241,41.007
					c-0.016,22.683,0.112,45.36,0.36,68.041c0.057,4.6,0.113,9.2,0.17,13.802c0.075,11.568,0.312,23.133,0.713,34.696
					c0.033,2.995-0.091,5.983-0.373,8.965c-0.271,2.991-0.817,5.931-1.637,8.819c-1.052,4.486-3.493,8.089-6.144,11.744
					c-2.196,1.707-4.392,3.413-6.589,5.121c-5.198,2.773-10.807,4.354-16.823,4.736c-1.506,0.132-3.014,0.264-4.52,0.395
					c-8.046,0.486-16.096,0.873-24.149,1.16c-19.668,0.899-39.341,1.666-59.015,2.434c-85.261,3.322-170.576,5.1-255.896,5.914
					c-164.029,1.563-328.117-1.93-491.952-9.932c-19.881-0.97-39.732-2.133-59.625-2.856c-1.938-0.07-3.773,0.096-5.716,0.286
					c-6.979,0.688-13.935,1.209-20.949,1.378c-8.684,0.21-17.166-0.935-25.489-3.354c-4.164-1.209-7.793-3.398-11.408-5.707
					c-4.736-3.023-7.813-7.75-10.405-12.569c-2.262-4.205-2.8-9.157-3.462-13.784c-0.072-1.883-0.143-3.766-0.214-5.647
					c0.266-13.171,0.527-26.341,0.785-39.512c0.761-38.678,1.467-77.354,2.152-116.034c1.415-79.882,2.619-159.769,3.682-239.656
					c3.628-273.008,4.817-546.04,4.161-819.07c-0.624-259.558-2.954-519.109-5.169-778.658
					c-1.838-215.307-3.519-430.616-4.745-645.927c-0.333-58.395-0.682-116.791-0.972-175.186
					c-0.054-11.967-0.017-23.934,0.114-35.901c0.109-14.786,1.312-29.52,2.594-44.239c1.827-20.955,6.047-41.576,11.336-61.897
					c3.583-13.768,9.038-26.907,14.95-39.803c6.458-14.084,15.482-26.723,25.279-38.629c8.933-10.857,20.072-19.634,31.502-27.669
					c11.202-7.876,23.894-13.437,36.547-18.474c10.392-4.136,21.326-6.833,32.179-9.417c14.147-3.371,28.676-5.077,43.112-6.609
					c15.091-1.604,30.3-2.096,45.459-2.527c15.62-0.446,31.259-0.302,46.881-0.198c12.641,0.084,25.282,0.244,37.921,0.336
					c6.371-0.018,12.741-0.053,19.11-0.103c18.704-0.125,37.41-0.064,56.113-0.032c60.013,0.104,120.023,1.103,180.005,2.973
					c23.104,0.72,46.19,1.669,69.304,2.097c30.302,0.561,60.635-0.257,90.923-1.078c30.834-0.836,61.655-2.197,92.477-3.386
					c12.375-0.475,24.752-0.915,37.13-1.319c6.165-0.17,12.329-0.341,18.494-0.512c8.753-0.587,17.511-0.732,26.269-0.436
					c9.65,0.188,19.032,2.955,28.078,6.023c11.071,3.755,20.73,10.702,29.588,18.115c8.892,7.439,15.367,17.257,20.926,27.278
					c2.094,4.133,3.859,8.402,5.297,12.806c3.197,8.662,3.815,17.662,3.749,26.833c0.341-0.031,0.612-0.201,0.815-0.509
					c0.786-0.84,1.545-1.706,2.275-2.594C1038.287,99.052,1040.281,97.264,1040.224,96.151z"/>
				<path opacity="0.1091" fill="#FFFFFF" d="M1041.772,93.887c-0.252-4.767-0.309-9.641-1.41-14.323
					c-2.023-8.605-1.159-5.519-3.959-14.068c-2.303-7.03-6.282-13.398-10.144-19.635c-3.927-6.342-9.226-11.704-14.421-16.978
					c-5.276-5.355-11.645-9.466-17.915-13.513c-6.393-4.127-13.591-6.769-20.683-9.368c-7.308-2.677-15.091-3.646-22.755-4.6
					c-5.321-0.454-10.646-0.497-15.975-0.13c-12.695,0.527-25.391,1.075-38.084,1.644c-37.462,1.647-74.913,3.512-112.383,4.986
					C735.797,9.801,687.54,10.33,639.271,8.62c-28.713-1.017-57.414-2.062-86.138-2.743c-42.611-1.009-85.239-1.295-127.86-1.428
					c-28.215-0.089-56.429,0.236-84.644,0.014c-18.901-0.149-37.797-0.4-56.701-0.313c-18.507,0.086-36.975,0.893-55.424,2.335
					c-20.637,1.613-40.98,5.199-61.004,10.384c-16.551,4.285-32.187,11.136-47.183,19.24c-7.51,4.06-14.354,9.185-21.15,14.305
					c-7.001,5.275-13.088,11.625-19.13,17.928c-6.371,6.649-11.595,14.297-16.791,21.855c-5.605,8.152-9.885,17.145-14.17,26.021
					c-2.306,4.776-6.257,14.777-7.877,19.768c-2.413,7.436-4.742,14.157-6.561,21.783c-0.914,3.827-1.827,7.653-2.741,11.479
					c-1.803,8.274-3.315,16.603-4.531,24.985c-2.256,13.794-3.156,27.792-4.132,41.715c-1.099,15.667-0.92,31.408-0.822,47.098
					c0.126,20.096,0.53,40.197,0.752,60.294c0.911,82.622,1.279,165.25,1.809,247.874c0.931,145.118,2.033,290.232,3.237,435.348
					c2.169,261.553,4.609,523.103,5.639,784.663c1.059,268.549,0.293,537.102-2.638,805.637c-1.68,153.86-4.14,307.71-7.117,461.549
					c-0.13,6.569-0.259,13.138-0.388,19.706c-0.633,8.485-0.671,16.963-0.115,25.433c0.193,3.89,1.364,6.51,2.604,10.108
					c1.217,3.532,3.119,5.735,5.265,8.697c2.975,4.105,7.46,6.775,11.672,9.375c4.256,2.627,9.421,3.854,14.197,5.081
					c1.705,0.438,3.446,0.753,5.194,0.96c4.897,0.583,9.682,0.892,14.611,0.978c5.962,0.104,11.946-0.536,17.867-1.151
					c6.161-0.641,12.262-1.776,18.443-2.212c0.542,0.018,1.085,0.036,1.627,0.054c13.045,0.852,26.095,1.633,39.149,2.344
					c19.613,1.121,39.238,2.04,58.861,2.966c85.222,4.024,170.533,6.171,255.836,7.425c164.169,2.413,328.396-0.414,492.428-7.309
					c14.606-0.613,29.238-1.147,43.829-2.069c4.682-0.295,9.087-1.214,13.613-2.38c4.86-1.253,8.749-4.251,12.548-7.335
					c2.493-2.023,4.439-5.907,6.003-8.591c2.687-4.611,3.358-10.436,4.093-15.594c0.962-6.743,0.234-13.83-0.099-20.582
					c-0.74-15.092-0.909-30.211-1.209-45.315c-0.249-12.532-0.396-25.068-0.537-37.604c-0.218-19.186-0.254-38.371-0.218-57.558
					c0.043-23.659,0.277-47.318,1.069-70.965c0.369-11.03,0.891-22.054,1.274-33.084c0.552-15.9,0.753-31.812,0.901-47.719
					c0.764-82.055-0.431-164.118-0.446-246.175c-0.011-61.265,0.414-122.528,0.461-183.791c0.052-67.194-0.584-134.39-0.683-201.584
					c-0.09-61.574-0.062-123.149-0.194-184.725c-0.149-69.736-0.71-139.473-1.021-209.209
					c-2.529-564.118,2.678-1128.238,1.073-1692.357c-0.002-0.995-1.513,1.311-1.367,1.103c-0.614,0.882-1.208,1.777-1.778,2.689
					c-0.344,0.457-0.601,0.957-0.772,1.496c0.926,331.809-0.385,663.617-1.207,995.426c-0.41,165.825-0.646,331.652-0.424,497.478
					c0.218,160.743,1.508,321.482,1.664,482.224c0.072,73.181,0.044,146.361,0.405,219.542c0.183,37.228,0.37,74.452,0.335,111.682
					c-0.038,42.774-0.264,85.549-0.379,128.324c-0.172,63.99,0.152,127.98,0.443,191.97c0.087,19.044,0.127,38.088,0.134,57.133
					c0.006,14.923-0.284,29.841-0.431,44.764c-0.312,31.958-2.021,63.855-2.737,95.801c-0.129,5.733-0.071,11.457-0.028,17.19
					c0.052,6.735-0.154,13.485-0.207,20.221c-0.142,17.891-0.076,35.783,0.027,53.675c0.148,25.527,0.71,51.049,1.299,76.569
					c0.319,5.552,0.638,11.104,0.957,16.656c0.266,13.749-2.85,27.063-9.343,39.944c-2.289,2.087-4.841,3.77-7.661,5.053
					c-2.768,1.292-5.655,2.209-8.66,2.754c-4.358,1.08-9.003,1.176-13.459,1.458c-19.638,1.239-39.353,1.78-59.011,2.604
					c-39.349,1.648-78.713,2.895-118.079,4.007c-85.307,2.411-170.65,3.282-255.989,3.184
					c-78.765-0.091-157.526-1.514-236.258-3.782c-39.339-1.134-78.664-2.694-117.982-4.424c-19.636-0.865-39.266-1.899-58.895-2.938
					c-13.071-0.693-26.137-1.468-39.199-2.326c-1.24-0.057-2.478-0.009-3.712,0.143c-6.594,0.502-13.154,1.681-19.734,2.353
					c-4.388,0.447-8.776,0.59-13.182,0.686c-8.056,0.177-15.992-1.063-23.789-3.16c-4.742-1.274-8.905-3.802-12.969-6.44
					c-4.138-2.688-6.891-6.614-9.64-10.585c-1.491-4.738-2.981-9.478-4.472-14.215c-0.567-8.475-0.531-16.96,0.108-25.453
					c0.521-26.063,1.012-52.129,1.498-78.193c2.828-151.649,4.99-303.31,6.537-454.977c2.719-266.597,3.04-533.209,1.87-799.815
					c-1.151-262.866-3.713-525.724-5.866-788.583c-1.673-204.448-2.683-408.899-4.338-613.347
					c-0.216-26.643-0.493-53.285-0.793-79.928c-0.157-10.651-0.051-21.3,0.312-31.945c0.336-9.844,0.944-19.671,1.825-29.481
					c1.334-17.516,4.434-34.799,8.044-51.96C39.018,150.658,45,133.09,52.848,116.095c4.009-8.946,9.283-17.221,14.586-25.428
					c6.527-10.106,14.837-18.883,23.351-27.301c10.065-9.952,22.143-17.625,34.359-24.604c9.714-5.549,20.283-9.492,30.777-13.251
					c13.481-4.829,27.645-7.654,41.695-10.204c23.697-4.3,47.98-5.37,72.002-6.083c28.259-0.84,56.569-0.091,84.834,0.119
					c18.857,0.141,37.725-0.119,56.583-0.136c30.83-0.025,61.659,0.234,92.487,0.591c23.872,0.277,47.739,0.791,71.605,1.359
					c28.588,0.681,57.159,1.869,85.738,2.814c42.473,1.405,85.043,0.042,127.494-1.363c24.79-0.821,49.572-1.934,74.355-2.951
					c12.472-0.512,24.945-0.992,37.42-1.442c15.16-0.565,30.356-1.293,45.527-1.124c10.006,0.111,19.761,2.864,29.18,5.932
					c11.474,3.739,21.55,10.748,30.817,18.252c7.39,5.985,13.113,13.703,18.428,21.484c2.521,3.999,4.725,8.165,6.612,12.499
					c2.004,6.684,4.007,13.368,6.01,20.051c0.721,4.436,0.991,8.897,0.81,13.384c0.007,0.941,1.516-1.05,1.431-0.949
					c0.67-0.806,1.321-1.626,1.951-2.464C1041.274,94.864,1041.564,94.399,1041.772,93.887z"/>
				<path opacity="0.1091" fill="#FFFFFF" d="M1039.362,99.482c-0.088-2.339-0.177-4.678-0.266-7.016
					c-0.376-4.77-1.209-9.459-2.502-14.066c-1.615-7.079-4.984-13.654-8.231-20.074c-3.294-6.517-8.027-12.184-12.662-17.754
					c-4.696-5.648-10.561-10.177-16.332-14.638c-5.871-4.537-12.641-7.712-19.313-10.838c-6.849-3.207-14.297-4.818-21.636-6.401
					c-7.646-1.651-15.532-1.501-23.291-1.36c-12.621,0.475-25.239,0.963-37.858,1.464c-12.534,0.521-25.069,1.058-37.601,1.611
					c-37.146,1.617-74.285,3.192-111.451,4.235c-36.054,1.012-72.094,0.809-108.136-0.45c-34.583-1.207-69.148-2.372-103.747-3.073
					c-42.889-0.869-85.791-1.067-128.688-1.108c-25.148-0.024-50.29,0.187-75.438-0.063c-18.861-0.187-37.715-0.335-56.578-0.109
					c-18.382,0.222-36.713,1.275-55.011,3.009c-20.402,1.934-40.443,5.989-60.101,11.713c-16.278,4.741-31.502,12.157-46.007,20.818
					c-7.31,4.366-13.886,9.802-20.412,15.224c-6.766,5.62-12.548,12.295-18.29,18.913c-6.098,7.027-10.997,15.006-15.875,22.886
					c-5.298,8.558-9.246,17.891-13.21,27.106c-4.379,10.181-7.344,20.932-10.356,31.567c-4.575,16.153-6.9,32.899-9.12,49.497
					c-4.209,31.48-3.546,63.435-3.192,95.102c0.441,39.392,0.743,78.785,1.021,118.179c0.571,80.816,1.019,161.636,1.557,242.452
					c0.951,142.768,2.108,285.533,3.312,428.297c2.194,260.12,4.515,520.239,5.311,780.369
					c0.832,271.456-0.328,542.913-3.658,814.352c-0.895,72.863-1.981,145.724-3.172,218.583
					c-0.623,38.082-1.304,76.164-2.004,114.246c-0.358,19.493-0.735,38.988-1.111,58.482c-0.257,13.172-0.519,26.345-0.785,39.518
					c-0.084,3.645,0.294,7.238,1.138,10.783c0.847,4.888,3.624,9.078,6.372,13.048c2.727,3.937,6.948,6.54,10.879,9.063
					c4.015,2.577,8.969,3.821,13.504,5.058c4.636,1.262,9.476,1.59,14.238,1.987c8.547,0.715,17.281-0.202,25.779-1.077
					c3.244-0.333,6.481-0.754,9.719-1.143c8.548-1.027,17.666,0.356,25.973,0.839c163.775,9.484,327.882,12.794,491.914,12.252
					c78.8-0.261,157.591-1.859,236.354-4.262c39.376-1.2,78.74-2.801,118.096-4.536c9.61-0.423,19.13-0.693,28.679-1.619
					c3.071-0.361,6.089-0.985,9.052-1.874c3.022-0.919,5.855-2.242,8.499-3.97c4.44-2.468,7.051-6.979,9.549-11.16
					c0.617-1.576,1.233-3.153,1.851-4.729c1.067-3.264,1.761-6.604,2.079-10.023c0.74-4.952,0.478-10.065,0.373-15.048
					c-0.243-11.813-0.595-23.624-0.803-35.44c-0.768-43.525-0.956-87.072-0.545-130.603c0.177-18.814,0.474-37.606,1.182-56.407
					c0.559-14.797,1.183-29.583,1.501-44.386c1.032-48.021,0.68-96.072,0.473-144.098c-0.214-49.961-0.496-99.92-0.445-149.882
					c0.063-61.31,0.455-122.617,0.425-183.927c-0.027-54.853-0.535-109.704-0.641-164.558c-0.117-61.604-0.08-123.209-0.183-184.813
					c-0.104-62.512-0.54-125.022-0.865-187.533c-0.346-66.514-0.54-133.028-0.679-199.542
					c-1.063-510.923,3.003-1021.841,1.563-1532.764c-0.406,0.072-0.736,0.288-0.99,0.646c-1.013,1.021-2,2.069-2.959,3.142
					c-0.975,1.058-1.923,2.142-2.842,3.247c-0.332,0.288-0.515,0.637-0.548,1.048c0.893,331.803-0.426,663.606-1.236,995.408
					c-0.404,165.833-0.628,331.666-0.389,497.499c0.234,160.733,1.462,321.464,1.627,482.197
					c0.075,73.18,0.001,146.363,0.408,219.544c0.442,80.001,0.134,159.997-0.051,239.999c-0.146,63.954-0.018,127.912,0.31,191.866
					c0.098,19.067,0.15,38.135,0.192,57.204c0.015,7.108-0.053,14.163-0.424,21.262c-0.025,4.129-0.056,8.257-0.092,12.384
					c-0.021,3.664-0.053,7.327-0.088,10.991c-0.139,15.578-0.431,31.152-0.998,46.721c-0.597,16.369-1.353,32.727-1.694,49.105
					c-0.122,5.788,0.017,11.553,0.134,17.34c0.136,6.699-0.226,13.462-0.316,20.162c-0.244,17.823-0.334,35.647-0.432,53.471
					c-0.139,25.314-0.104,50.629-0.065,75.943c0.126,5.396,0.252,10.794,0.377,16.191c-0.519,2.35-0.824,4.729-0.917,7.135
					c-0.456,5.222-1.965,10.044-3.9,14.875c-1.482,3.703-4.607,6.478-7.526,8.992c-1.004,0.479-2.006,0.957-3.008,1.436
					c-2.5,1.254-5.118,2.163-7.856,2.73c-4.318,1.193-8.869,1.471-13.308,1.827c-1.485,0.08-2.972,0.158-4.457,0.238
					c-13.104,0.606-26.211,1.184-39.318,1.729c-85.208,3.657-170.476,5.771-255.751,6.924
					c-164.002,2.217-328.055-0.763-491.909-7.818c-19.656-0.846-39.305-1.827-58.953-2.813c-6.551-0.34-13.102-0.679-19.653-1.018
					c-7.313,0.865-14.505,0.594-21.572-0.81c-0.691,0.026-1.383,0.054-2.075,0.081c-1.74,0.102-3.478,0.217-5.216,0.345
					c-3.146,0.22-6.336,0.169-9.488,0.215c-7.585,0.11-15.048-0.613-22.483-2.069c-3.73-0.73-7.242-2.174-10.695-3.707
					c-4.451-1.975-7.948-5.126-11.085-8.76c-2.573-2.979-3.827-6.683-5.157-10.303c-0.327-1.462-0.653-2.922-0.98-4.384
					c-0.647-3.493-0.936-7.018-0.862-10.571c0.133-6.604,0.265-13.209,0.397-19.813c0.26-13.101,0.516-26.203,0.768-39.303
					c0.375-19.391,0.732-38.781,1.088-58.172c1.484-80.68,2.756-161.363,3.881-242.048c3.836-274.699,5.228-549.425,4.695-824.148
					c-0.502-259.063-2.769-518.118-4.988-777.172c-1.884-219.777-3.703-439.555-4.898-659.338
					c-0.314-57.951-0.563-115.904-0.774-173.855c-0.048-13.192-0.021-26.384,0.083-39.576c0.076-15.272,0.742-30.435,1.734-45.67
					c1.401-21.519,5.17-42.745,9.943-63.736c1.79-7.27,3.874-14.453,6.25-21.552c3.056-9.777,7.337-19.084,11.677-28.334
					c6.419-13.689,15.365-25.934,25.046-37.449c8.849-10.522,19.843-18.981,31.103-26.719c11.102-7.629,23.643-12.977,36.137-17.822
					c10.319-4.002,21.155-6.595,31.912-9.083c14.082-3.255,28.529-4.887,42.884-6.355c15.055-1.541,30.222-2.001,45.342-2.407
					c15.611-0.418,31.241-0.271,46.854-0.167c12.644,0.086,25.289,0.241,37.935,0.325c6.362-0.048,12.724-0.087,19.088-0.115
					c18.697-0.098,37.396-0.051,56.094-0.012c60.011,0.123,120.015,1.148,179.996,3.005c23.125,0.717,46.232,1.624,69.367,2.035
					c30.296,0.54,60.621-0.256,90.903-1.042c30.747-0.797,61.483-2.055,92.222-3.107c12.291-0.415,24.584-0.78,36.879-1.099
					c6.101-0.119,12.201-0.24,18.301-0.36c8.579-0.605,17.152-0.652,25.721-0.141c11.577,0.48,22.664,4.521,33.069,9.271
					c10.224,4.665,18.786,12.247,26.543,20.191c7.851,8.04,13.131,18.143,17.521,28.345c1.639,4.239,2.95,8.579,3.936,13.015
					c1.703,6.496,1.531,13.085,1.397,19.722c0.405-0.032,0.75-0.212,1.033-0.543c1.088-0.911,2.154-1.849,3.193-2.815
					c1.055-0.951,2.085-1.928,3.088-2.932C1039.086,100.21,1039.296,99.884,1039.362,99.482z"/>
			</g>
		</g>
	</g>
</g>
</svg>
