<?xml version="1.0" encoding="utf-8"?>
<!-- Generator: Adobe Illustrator 16.0.0, SVG Export Plug-In . SVG Version: 6.00 Build 0)  -->
<!DOCTYPE svg PUBLIC "-//W3C//DTD SVG 1.1//EN" "http://www.w3.org/Graphics/SVG/1.1/DTD/svg11.dtd">
<svg version="1.1" id="Layer_1" xmlns="http://www.w3.org/2000/svg" xmlns:xlink="http://www.w3.org/1999/xlink" x="0px" y="0px"
	 width="300px" height="5300px" viewBox="0 0 300 5300" enable-background="new 0 0 300 5300" xml:space="preserve">
<g>
	<image overflow="visible" opacity="0.75" width="311" height="3588" xlink:href="1A4DFB18.png"  transform="matrix(1 0 0 1 -6 0)">
	</image>
	<g>
		<path fill="#F2F2F2" d="M270.566,46.485c-0.037-12.938-10.646-23.36-23.583-23.136c-24.863,0.429-50.542,2.334-74.644,1.382
			c-21.228-0.839-45.064-1.133-69.048-1.042c-42.712,0.163-88.419-6.813-88.163,66.615c0.998,286.307,5.694,3163.715,0,3448.398
			c-0.256,12.795,15.16,9.35,18.295,9.523c75.391,4.17,151.047,4.502,226.48,0.992c2.627-0.121,5.472-0.324,7.44-1.885
			c2.502-1.98,2.669-5.361,2.65-8.352c-0.527-83.004,1.249-2560.845,0.722-2643.85c-0.188-29.582,0.188-56.125,0-85.708
			c-0.208-32.689-0.048-266.589-0.256-299.28C269.477,354.971,271.01,201.533,270.566,46.485z"/>
		<g>
			<g>
				<path opacity="0.1091" fill="#FFFFFF" d="M280.829,37.073c-0.146-1.142-0.293-2.284-0.441-3.426
					c-0.65-2.468-1.639-4.794-2.961-6.98c-1.957-3.852-5.602-6.61-8.887-9.215c-3.701-2.933-8.451-4.195-12.9-5.37
					c-1.625-0.212-3.25-0.425-4.875-0.637c-7.288-0.014-14.565,0.297-21.834,0.936c-5.41,0.31-10.822,0.62-16.232,0.93
					c-15.495,1.125-31.003,1.509-46.522,1.149c-4.473-0.114-8.944-0.227-13.416-0.341c-9.342-0.195-18.685-0.312-28.027-0.347
					c-11.286-0.091-22.575,0.014-33.859,0.126c-6.44,0.063-12.879-0.029-19.319,0.061c-9.397,0.132-18.569,1.215-27.662,3.589
					c-4.293,1.12-9.129,3.067-12.818,5.563c-1.304,0.88-2.606,1.762-3.91,2.644c-2.634,1.96-5.026,4.183-7.172,6.67
					c-3.802,3.937-6.216,8.964-8.623,13.79C8.53,51.905,7.341,58.42,6.075,64.578C3.967,74.819,4.249,85.47,4.496,95.848
					c0.039,1.608,0.411,3.732,0.569,5.332c0.262,2.658,0.433,5.328,0.615,7.992c0.38,5.593,0.472,11.207,0.576,16.811
					c0.274,14.75,0.217,29.515,0.27,44.268c0.14,39.708,0.213,79.417,0.299,119.125c0.594,272.794,0.945,545.59,1.298,818.385
					c0.466,358.876,0.805,717.752,0.937,1076.629c0.115,316.321,0.148,632.645-0.533,948.967
					c-0.22,102.043-0.415,204.087-1.121,306.128c-0.208,29.928-0.38,59.862-0.888,89.787c-0.081,4.751-0.17,9.504-0.276,14.254
					c-0.051,2.35-0.057,4.317,0.262,6.666c0.275,2.029,1.857,3.563,3.061,5.03c0.909,0.618,1.818,1.237,2.729,1.854
					c2.125,1.124,4.366,1.921,6.726,2.389c3.405,0.941,7.018,0.653,10.489,0.484c2.688-0.13,5.376-0.609,8.029-1.036
					c1.05-0.209,2.109-0.339,3.178-0.392c12.923,0.332,25.843,0.811,38.756,1.438c38.046,1.633,76.159,1.635,114.229,1.206
					c18.99-0.214,37.972-0.919,56.948-1.625c6.319-0.289,12.638-0.579,18.958-0.868c0.796-0.037,1.582-0.137,2.358-0.295
					c0.732-0.172,1.466-0.343,2.197-0.515c1.704-0.542,3.159-1.481,4.364-2.813c0.586-0.966,1.173-1.933,1.76-2.898
					c0.977-2.328,1.547-4.753,1.712-7.274c0.454-3.02,0.162-6.287-0.279-9.289c-0.443-3.005-0.691-6.025-0.877-9.055
					c-0.498-8.169-0.584-16.351-0.604-24.533c-0.032-13.223-0.043-26.445-0.06-39.667c-0.113-92.513,0.013-185.022,0.026-277.536
					c0.089-625.912,0.548-1251.823,0.818-1877.734c0.058-135.112-0.075-270.223,0.021-405.335c0.003-4.584-0.084-9.17-0.039-13.754
					c0.005-0.479,0.009-0.958,0.01-1.437c-0.047-5.901-0.094-11.8-0.141-17.7c0.024-11.272,0.062-22.544,0.109-33.816
					c0.057-15.11,0.093-30.226-0.059-45.338c-0.243-24.648-0.069-49.306-0.083-73.955c-0.021-33.464-0.021-66.926-0.023-100.389
					c-0.004-28.687-0.01-57.374-0.013-86.061c-0.003-35.137-0.333-70.274-0.408-105.412c-0.276-128.723,0.771-257.446,0.438-386.169
					c-0.003-0.865-1.381,0.74-1.351,0.708c-0.633,0.666-1.245,1.348-1.837,2.048c-0.354,0.345-0.626,0.741-0.818,1.186
					c0.188,77.262-0.04,154.521-0.257,231.784c-0.108,38.583-0.185,77.167-0.199,115.751c-0.009,19.329,0.03,38.658,0.073,57.985
					c0.048,12.897,0.088,25.793,0.12,38.69c0.804,7.459,0.853,14.892,0.144,22.299c-0.363,4.277-0.06,8.775,0.025,13.055
					c0.123,6.277,0.089,12.545,0.072,18.824c-0.045,16.658-0.045,33.315-0.053,49.973c-0.021,43.193-0.014,86.386,0.034,129.578
					c0.019,16.778,0.052,33.554,0.135,50.33c-0.058,2.161-0.112,4.32-0.169,6.479c0.021,4.012,0.043,8.025,0.066,12.039
					c0.026,4.429,0.233,8.839,0.157,13.27c-0.212,12.389-0.007,24.818-0.031,37.21c-0.019,5.617-0.036,11.233-0.055,16.85
					c-0.177,11.733-0.071,23.463,0.317,35.191c0.013,0.631-0.106,1.304-0.159,1.932c-0.127,1.535-0.004,3.14-0.007,4.68
					c-0.047,21.416,0.056,42.83,0.014,64.247c-0.073,39.28-0.089,78.558-0.109,117.837c-0.007,11.918,0.208,23.833,0.196,35.75
					c-0.011,12.595-0.021,25.19-0.033,37.786c-0.023,29.933-0.044,59.865-0.064,89.798c-0.099,142.043-0.172,284.087-0.249,426.131
					c-0.183,336.294-0.357,672.588-0.486,1008.881c-0.057,147.726-0.107,295.449-0.112,443.174
					c-0.001,58.599,0.012,117.195,0.036,175.795c0.004,11.943-0.207,23.875-0.203,35.82c0.004,11.229,0.01,22.459,0.017,33.687
					c0.013,21.229,0.03,42.459,0.061,63.687c0.04,27.566,0.139,55.129,0.149,82.693c0.003,7.535,0.67,15.084,1.138,22.6
					c0.147,2.348,0.229,4.434-0.19,6.812c-0.115,0.948-0.231,1.896-0.347,2.845c-0.313,1.885-0.97,3.641-1.972,5.268
					c-1.406,2.857-4.677,3.82-7.501,4.349c-6.976,0.722-13.978,1.071-21.008,1.046c-12.614,0.508-25.232,0.908-37.854,1.2
					c-37.897,1.04-75.817,0.634-113.711-0.255c-20.836-0.488-41.753-2.448-62.593-1.1c-2.642,0.17-5.161,0.365-7.817,0.309
					c-2.94-0.061-5.629-0.936-8.353-1.932c-0.824-0.462-1.646-0.924-2.468-1.385c-2.22-1.386-3.602-3.418-4.142-6.092
					c-0.372-1.434-0.435-2.867-0.191-4.306c0.036-1.41,0.071-2.822,0.104-4.232c0.642-26.708,0.724-53.44,0.958-80.155
					c0.366-41.823,0.537-83.648,0.774-125.472c0.033-6.075-0.133-12.149-0.105-18.225c0.026-6.124,0.051-12.248,0.076-18.372
					c0.053-12.792,0.099-25.586,0.144-38.377c0.108-30.086,0.194-60.17,0.273-90.255c0.374-141.216,0.519-282.434,0.614-423.649
					c0.461-687.473-0.349-1374.945-1.536-2062.416c-0.159-92.506-0.333-185.013-0.539-277.52C9.86,335.78,9.88,268.03,9.669,200.277
					c-0.072-22.895-0.118-45.791-0.357-68.684c-0.09-8.534-0.044-17.054-0.624-25.576c-0.227-3.333-0.464-6.664-0.68-9.999
					c-0.295-3.604-0.387-7.215-0.278-10.836c-0.1-7.375,1.036-14.524,2.186-21.774c0.767-4.118,1.878-8.142,3.333-12.068
					c1.258-3.497,2.862-6.825,4.813-9.986c9.347-17.008,26.017-21.303,42.438-23.396c6.182-0.788,12.495-0.757,18.713-0.827
					c11.237-0.125,22.487-0.027,33.724-0.079c18.493-0.087,36.982,0.282,55.468,0.738c10.13,0.254,20.256,0.16,30.381-0.283
					c5.306-0.234,10.61-0.468,15.916-0.702c12.418-0.714,24.849-1.068,37.29-1.066c2.896,0.439,5.685,1.247,8.366,2.428
					c2.516,1.16,4.841,2.626,6.973,4.397c2.004,1.7,3.752,3.632,5.243,5.797c2.71,3.428,3.738,8.423,4.044,12.599
					c0.028,0.366,2.456-1.753,2.361-1.667C279.408,38.899,280.928,37.844,280.829,37.073z"/>
				<path opacity="0.1091" fill="#FFFFFF" d="M282.192,38.748c-2.216-6.561-0.103-0.457-4.694-10.21
					c-0.63-1.337-1.393-2.724-2.457-3.731c-1.091-1.031-2.18-2.061-3.27-3.092c-2.405-2-5.021-3.671-7.847-5.013
					c-4.358-2.417-9.298-2.917-14.137-3.412c-0.06-0.005-0.118-0.009-0.176-0.015c-7.176,0.199-14.344,0.559-21.504,1.08
					c-10.75,0.602-21.499,1.204-32.249,1.808c-10.262,0.501-20.529,0.616-30.8,0.346c-4.471-0.116-8.942-0.234-13.414-0.35
					c-9.358-0.187-18.717-0.295-28.078-0.325c-12.935-0.096-25.868,0.14-38.802,0.159c-9.579,0.012-19.062,0.063-28.603,1.021
					c-7.778,0.782-15.134,3.055-22.222,6.237c-3.201,1.437-5.308,3.082-8.161,5.077c-4.202,2.936-7.307,7.034-10.374,11.051
					c-3.504,4.59-5.493,10.255-7.479,15.589C4.656,63.746,4.029,73.46,3.326,82.699c-0.05,2.744-0.1,5.487-0.149,8.23
					c-0.2,3.878,0,7.725,0.599,11.541c0.355,2.706,0.597,5.416,0.788,8.137c0.385,5.506,0.513,11.033,0.623,16.55
					c0.287,14.46,0.259,28.928,0.305,43.39c0.123,39.109,0.188,78.219,0.269,117.328c0.556,271.289,0.954,542.579,1.304,813.869
					c0.462,358.647,0.803,717.295,0.938,1075.943c0.121,317.406,0.162,634.813-0.486,952.216
					c-0.209,103.043-0.457,206.087-1.126,309.128c-0.198,30.563-0.425,61.125-0.876,91.685c-0.072,4.93-0.158,9.857-0.254,14.786
					c-0.042,2.095-0.089,4.189-0.137,6.282c-0.05,2.192,0.81,3.419,1.721,5.286c1.071,2.196,3.092,3.099,5.024,4.328
					c3.166,2.017,7.448,2.352,11.047,2.807c3.385,0.43,7.073-0.212,10.428-0.621c1.792-0.256,3.574-0.571,5.344-0.945
					c7.301-1.553,14.729-1.387,22.282,0.498c38.066,2.014,76.234,2.281,114.343,2.166c19.008-0.057,38.009-0.606,57.006-1.154
					c6.326-0.236,12.653-0.475,18.981-0.711c7.117,0.28,14.17-0.115,21.16-1.19c1.99-0.285,2.972-0.857,4.767-1.718
					c3.373-1.618,4.226-5.891,5.148-9.051c0.698-2.385,0.561-5.913,0.593-8.364c0.042-3.129-0.714-6.34-1.12-9.438
					c-1-7.627-1.05-15.232-1.152-22.913c-0.162-12.069-0.073-24.146-0.083-36.217c-0.063-88.841-0.009-177.683,0.018-266.524
					c0.176-625.179,0.61-1250.359,0.825-1875.54c0.05-142.375,0.274-284.753,0-427.128c-0.179-92.713-0.155-185.425-0.172-278.138
					c-0.01-60.755-0.217-121.506-0.415-182.262c-0.438-135.169,0.757-270.338,0.4-405.507c-0.002-0.714-1.266-0.011-1.264,0.452
					c0.405,155.514-1.18,311.03-0.108,466.542c0.188,27.322,0.101,54.647,0.113,81.97c0.019,43.187,0.016,86.375,0.025,129.562
					c0.02,80.703,0.17,161.403,0.206,242.106c0.104,235.814-0.08,471.629-0.185,707.443
					c-0.261,586.995-0.805,1173.989-0.721,1760.984c0.004,27.553-0.058,55.11,0.097,82.664c0.022,3.957,0.13,7.917,0.197,11.874
					c0.059,3.624,0.518,7.184,0.963,10.778c0.842,6.79,1.286,11.871-1.639,19.615c-1.194,3.162-3.375,4.148-6.235,5.33
					c-1.482,0.312-2.967,0.624-4.448,0.936c-12.633,0.626-25.271,1.144-37.912,1.556c-25.286,0.929-50.594,1.107-75.894,1.181
					c-37.982,0.109-75.98-1.098-113.905-3.102c-0.868-0.047-2.417,0.377-3.195,0.52c-2.589,0.477-5.168,0.82-7.787,1.099
					c-3.353,0.354-6.532,0.038-9.842-0.45c-3.401-0.501-6.27-2.054-9.13-3.83c-4.084-2.534-3.358-7.45-3.277-11.202
					c0.066-3.071,0.119-6.142,0.173-9.212c0.504-28.67,0.696-57.349,0.901-86.021c0.717-99.985,0.948-199.975,1.167-299.961
					c0.315-143.416,0.447-286.833,0.521-430.25c0.354-686.415-0.462-1372.832-1.562-2059.246
					C8.275,504.671,8.031,348.558,7.65,192.446c-0.053-21.506-0.012-43.017-0.32-64.52c-0.115-8.076-0.189-16.23-1.156-24.256
					c-0.214-1.72-0.45-3.438-0.707-5.153c-0.287-5.525-0.335-11.054-0.144-16.583c0.232-4.827,0.703-9.629,1.412-14.409
					c0.771-6.238,2.77-12.14,4.908-18.004c2.429-6.66,6.822-12.207,11.571-17.323c2.299-2.175,4.783-4.11,7.455-5.804
					c6.291-4.422,13.917-6.191,21.27-7.678c6.119-1.236,12.458-1.424,18.676-1.646c8.05-0.287,16.125-0.054,24.18-0.157
					c18.978-0.242,37.954-0.095,56.928,0.183c9.481,0.315,18.965,0.455,28.45,0.42c7.697,0.047,24.041-0.912,31.62-1.387
					c10.902-0.711,21.81-1.366,32.72-1.963c3.346,0.127,6.691,0.255,10.038,0.381c3.161,0.506,6.163,1.494,9.005,2.963
					c2.73,1.363,5.254,3.04,7.569,5.027c1.355,1.029,8.637,12.915,10.19,16.396C281.539,39.435,282.354,39.221,282.192,38.748z"/>
				<path opacity="0.1091" fill="#FFFFFF" d="M278.772,37.49c-0.123-1.167-0.245-2.333-0.367-3.501
					c-0.541-2.478-1.477-4.797-2.808-6.958c-1.877-3.73-5.375-6.371-8.547-8.89c-3.499-2.779-8.081-3.952-12.295-5.006
					c-1.544-0.191-3.086-0.383-4.627-0.576c-7.041,0.084-14.075,0.385-21.102,0.899c-15.821,0.781-31.595,1.604-47.432,1.995
					c-5.028-0.06-10.057-0.121-15.085-0.18c-9.069-0.31-18.139-0.53-27.212-0.664c-20.828-0.408-41.671-0.144-62.502-0.155
					c-9.399-0.005-18.638,0.644-27.872,2.421c-4.465,0.859-8.64,2.554-12.792,4.336c-4.272,1.834-7.851,4.748-11.394,7.675
					c-3.868,3.196-6.58,7.611-9.189,11.801c-3.08,4.944-4.652,10.673-6.297,16.19c-1.967,6.588-2.4,13.728-3.029,20.526
					c-0.666,7.203-0.248,14.435,0.373,21.613c0.456,5.273,0.502,10.595,0.638,15.884c0.152,5.893,0.191,11.786,0.195,17.681
					c0.008,15.715,0.148,31.432,0.201,47.147c0.136,41.423,0.227,82.848,0.32,124.271c0.623,277.246,0.937,554.495,1.295,831.74
					c0.465,359.471,0.797,718.943,0.912,1078.414c0.1,313.057,0.125,626.114-0.613,939.168c-0.234,98.967-0.381,197.937-1.149,296.9
					c-0.219,28.023-0.382,56.057-0.922,84.076c-0.086,4.455-0.453,8.948,0.073,13.376c0.353,2.966,3.091,4.721,5.323,6.1
					c2.694,1.662,6.251,2.063,9.291,2.567c2.798,0.464,6.052-0.054,8.861-0.259c2.146-0.156,4.285-0.427,6.426-0.626
					c0.416-0.004,0.832-0.008,1.247-0.012c12.886,0.738,25.779,1.348,38.678,1.831c25.381,1.073,50.781,1.404,76.183,1.592
					c37.976,0.279,75.945-0.94,113.877-2.644c2.352-0.105,4.259-0.701,6.397-1.629c2.96-1.288,3.719-4.784,4.555-7.491
					c0.974-3.156,0.719-6.831,0.533-10.068c-0.102-1.751-0.443-3.523-0.598-5.276c-0.356-4.05-0.013-8.224,0.054-12.285
					c0.15-9.347-0.089-18.724-0.115-28.073c-0.041-14.739-0.004-29.48-0.018-44.218c-0.092-97.272,0.026-194.543,0.044-291.814
					c0.122-626.354,0.551-1252.708,0.826-1879.064c0.036-81.157-0.007-162.314,0.013-243.471
					c0.011-44.882,0.119-89.766-0.017-134.648c-0.113-37.848,0.139-75.698-0.142-113.546c-0.193-26.128-0.041-52.262-0.055-78.392
					c-0.02-33.596-0.02-67.192-0.022-100.789c-0.006-60.52-0.281-121.034-0.412-181.554c-0.277-128.725,0.764-257.449,0.435-386.173
					c-0.504,0.21-0.907,0.558-1.21,1.041c-1.276,1.502-2.523,3.028-3.741,4.577c-1.236,1.535-2.441,3.094-3.619,4.676
					c-0.403,0.403-0.65,0.874-0.742,1.412c0.17,77.258-0.061,154.516-0.268,231.774c-0.102,38.592-0.167,77.183-0.176,115.775
					c-0.004,19.332,0.039,38.664,0.085,57.995c0.039,12.904,0.083,25.808,0.134,38.711c1.169,7.473,1.18,14.875,0.031,22.208
					c-0.017,1.196-0.032,2.393-0.048,3.59c-0.116,3.172-0.074,6.343,0.126,9.513c0.225,6.283,0.14,12.532,0.092,18.817
					c-0.129,16.644-0.137,33.289-0.165,49.933c-0.073,43.196-0.053,86.394,0.056,129.592c0.041,16.763,0.305,33.531,0.169,50.293
					c-0.097,2.162-0.192,4.325-0.288,6.487c0.07,4.043,0.142,8.086,0.215,12.127c0.079,4.433,0.359,8.808,0.196,13.24
					c-0.033,0.93-0.066,1.859-0.1,2.789c0.041,11.469,0.043,22.936,0.003,34.405c-0.016,5.619-0.03,11.239-0.046,16.857
					c-0.163,11.711,0.026,23.416,0.567,35.116c0.021,0.653-0.18,1.409-0.265,2.056c-0.193,1.504-0.007,3.175-0.011,4.692
					c-0.024,7.812-0.148,15.623-0.159,23.435c-0.007,5.703,0.251,11.401,0.205,17.103c-0.062,7.883-0.103,15.767-0.143,23.649
					c-0.196,39.256-0.213,78.512-0.284,117.768c-0.01,5.788-0.004,11.578,0.003,17.366c0.007,6.169,0.497,12.321,0.484,18.497
					c-0.024,12.591-0.047,25.183-0.069,37.774c-0.05,29.924-0.09,59.85-0.127,89.774c-0.176,142.027-0.271,284.055-0.368,426.084
					c-0.229,336.292-0.401,672.584-0.494,1008.877c-0.042,147.738-0.069,295.478-0.007,443.217
					c0.024,58.615,0.024,117.232,0.165,175.848c0.014,5.988-0.15,11.916-0.516,17.893c0.002,2.003,0.004,4.004,0.007,6.007
					c0.003,3.934,0.007,7.868,0.013,11.804c0.013,11.232,0.027,22.465,0.046,33.697c0.033,21.243,0.08,42.485,0.152,63.727
					c0.066,19.729,0.625,39.502,0.023,59.221c-0.216,7.068,0.146,14.192,0.137,21.267c-0.003,2.914,0.179,5.813,0.322,8.722
					c0.145,2.947-0.052,5.891-0.188,8.836c0.036-0.133,0.071-0.266,0.107-0.398c-0.147,0.495-0.296,0.99-0.444,1.486
					c0.04-0.129,0.079-0.258,0.119-0.388c-0.638,1.956-1.304,3.896-2.196,5.753c0.386-0.28,0.773-0.56,1.16-0.838
					c-0.459,0.236-0.918,0.472-1.376,0.71c-0.103,0.077-0.205,0.156-0.308,0.233c0.238,0.911,0.209,1.813-0.089,2.704
					c-0.26,1.401-2.558,2.038-3.589,2.551c-1.195,0.358-2.419,0.53-3.669,0.515c-0.644-0.008-1.289-0.017-1.934-0.026
					c-12.574,0.564-25.152,1.021-37.735,1.37c-31.473,1.008-62.971,0.928-94.454,0.564c-31.934-0.365-63.842-2.051-95.761-2.996
					c0.124,0.027,0.247,0.054,0.368,0.082c-0.822-0.469-1.67-0.878-2.516-1.303c-0.741-0.372-1.873-0.377-2.685-0.553
					c-0.442-0.156-0.883-0.313-1.325-0.472c-0.794-0.647-1.703-0.949-2.723-0.906c-1.618-0.208-2.4-1.574-3.067-2.839
					c-1.098-2.083-1.123-3.817-1.081-6.139c0.091-0.507,0.184-1.012,0.277-1.518c0.044-1.406,0.088-2.811,0.131-4.215
					c0.179-5.81,0.284-11.619,0.36-17.43c0.04-3.002-0.086-6.02-0.131-9.021c-0.047-3.111,0.115-6.248,0.167-9.359
					c0.118-6.937,0.214-13.874,0.306-20.811c0.24-18.105,0.404-36.211,0.557-54.315c0.171-20.231,0.299-40.463,0.419-60.696
					c0.067-11.318,0.128-22.638,0.151-33.959c0.012-6.144-0.46-12.275-0.425-18.426c0.044-8.202,0.086-16.403,0.126-24.604
					c0.29-58.234,0.475-116.468,0.631-174.699c0.857-318.363,0.793-636.729,0.687-955.095
					c-0.121-358.433-0.48-716.866-1.006-1075.298c-0.227-154.062-0.491-308.123-0.826-462.183
					c-0.139-63.726-0.293-127.45-0.479-191.174c-0.076-26.615-0.158-53.231-0.256-79.846c-0.024-6.158-0.033-12.299,0.128-18.456
					c0.112-1.877,0.223-3.755,0.333-5.632c-0.011-3.996-0.023-7.992-0.036-11.987c-0.041-13.325-0.084-26.651-0.13-39.976
					c-0.126-36.093-0.27-72.185-0.506-108.278c-0.09-13.673-0.425-27.354,0.025-41.022c0.184-5.57-0.111-11.197-0.146-16.771
					c-0.026-4.372,0.401-8.763,0.884-13.103c0.109-2.616,0.217-5.23,0.326-7.847c0.288-4.252,0.98-8.436,2.073-12.551
					c0.435-1.95,0.871-3.899,1.305-5.848c0.924-3.437,2.112-6.778,3.56-10.026c1.682-4.183,4.511-7.763,7.362-11.177
					c2.562-3.065,5.938-5.199,9.261-7.311c3.301-2.099,7.257-3.24,10.951-4.379c4.001-1.235,8.209-1.723,12.342-2.28
					c9.067-1.221,18.399-0.899,27.52-0.839c18.891,0.127,37.786,0.375,56.672,0.791c13.795,0.305,27.582,0.917,41.376,1.279
					c14.939,0.393,29.962-0.275,44.894-0.642c5.363-0.152,10.729-0.303,16.092-0.456c1.691,0.573,3.399,1.092,5.124,1.559
					c2.802,0.81,5.265,3.064,7.32,4.993c4.417,4.146,5.506,10.204,5.376,15.965c0.515-0.171,0.939-0.486,1.274-0.945
					c1.372-1.398,2.716-2.822,4.035-4.272c1.333-1.436,2.64-2.894,3.918-4.379C278.365,38.468,278.644,38.019,278.772,37.49z"/>
				<path opacity="0.1091" fill="#FFFFFF" d="M278.438,38.715c-0.118-1.146-0.237-2.293-0.358-3.439
					c-0.551-2.438-1.471-4.728-2.763-6.871c-1.845-3.715-5.33-6.392-8.464-8.918c-3.507-2.825-8.054-4.061-12.289-5.202
					c-1.553-0.213-3.105-0.428-4.66-0.641c-7.127-0.115-14.245,0.156-21.355,0.814c-15.864,0.789-31.689,1.586-47.57,1.989
					c-5.037-0.054-10.073-0.109-15.11-0.163c-9.078-0.293-18.158-0.507-27.24-0.637c-20.842-0.396-41.699-0.134-62.545-0.125
					c-9.415,0.002-18.667,0.644-27.92,2.41c-4.49,0.856-8.692,2.544-12.876,4.315c-4.318,1.83-7.953,4.75-11.544,7.683
					c-3.945,3.222-6.72,7.658-9.405,11.891C11.17,46.813,9.549,52.648,7.864,58.24c-2.012,6.68-2.458,13.909-3.105,20.806
					c-0.687,7.3-0.23,14.653,0.405,21.93c0.977,11.202,0.958,22.539,0.98,33.773c0.03,15.719,0.162,31.438,0.212,47.158
					c0.131,41.421,0.22,82.841,0.311,124.262c0.611,277.246,0.941,554.494,1.297,831.742
					c0.462,359.471,0.794,718.942,0.911,1078.412C8.976,2529.382,9,2842.442,8.269,3155.5c-0.231,98.964-0.396,197.93-1.156,296.891
					c-0.216,28.023-0.39,56.054-0.924,84.072c-0.084,4.467-0.453,8.969,0.084,13.406c0.365,3.033,3.247,4.872,5.506,6.321
					c2.764,1.774,6.516,2.136,9.664,2.62c2.953,0.455,6.356-0.104,9.313-0.339c2.216-0.178,4.421-0.496,6.63-0.739
					c0.428-0.01,0.854-0.02,1.282-0.029c12.954,0.537,25.908,1.087,38.86,1.648c25.379,1.091,50.786,1.372,76.184,1.545
					c37.979,0.259,75.952-0.976,113.885-2.696c2.373-0.108,4.279-0.727,6.423-1.691c2.978-1.343,3.771-5.018,4.596-7.759
					c0.936-3.117,0.62-6.771,0.415-9.961c-0.116-1.809-0.462-3.62-0.595-5.437c-0.129-1.755-0.065-3.523-0.022-5.28
					c0.061-2.44-0.073-4.853-0.163-7.294c-0.345-9.339-0.272-18.687-0.308-28.031c-0.054-14.736-0.004-29.475-0.021-44.212
					c-0.116-97.27,0.033-194.539,0.047-291.809c0.089-626.355,0.524-1252.711,0.823-1879.065
					c0.041-81.167-0.024-162.332,0.003-243.497c0.014-44.867,0.169-89.738,0.002-134.605c-0.142-37.861,0.212-75.726-0.161-113.584
					c-0.256-26.125-0.036-52.265-0.053-78.392c-0.021-33.596-0.021-67.194-0.021-100.792c-0.002-25.372-0.005-50.746,0.007-76.119
					c0.015-35.135-0.334-70.273-0.41-105.411c-0.278-128.726,0.766-257.449,0.435-386.173c-0.368,0.057-0.663,0.253-0.88,0.591
					c-0.869,0.942-1.709,1.909-2.521,2.899c-0.655,0.784-2.827,2.731-2.824,3.974c0.178,77.26-0.054,154.518-0.264,231.777
					c-0.105,38.587-0.175,77.176-0.186,115.764c-0.006,19.332,0.035,38.662,0.08,57.994c0.048,12.897,0.088,25.794,0.119,38.691
					c0.796,7.451,0.822,14.864,0.078,22.241c-0.062,4.376-0.085,8.709,0.058,13.087c0.204,6.285,0.133,12.544,0.091,18.832
					c-0.107,16.638-0.115,33.278-0.139,49.917c-0.061,43.196-0.044,86.394,0.049,129.591c0.037,16.778,0.226,33.556,0.172,50.334
					c-0.09,2.144-0.182,4.288-0.271,6.43c0.056,4.041,0.112,8.081,0.17,12.12c0.063,4.445,0.349,8.837,0.201,13.283
					c-0.411,12.345-0.063,24.822-0.086,37.177c-0.016,5.62-0.03,11.239-0.046,16.858c-0.173,11.835-0.022,23.67,0.453,35.498
					c-0.244,2.124-0.19,4.237-0.198,6.374c-0.072,21.398,0.026,42.79-0.065,64.189c-0.167,39.249-0.189,78.499-0.24,117.75
					c-0.009,5.783-0.012,11.566-0.014,17.35c-0.003,6.181,0.439,12.355,0.43,18.544c-0.021,12.59-0.041,25.18-0.061,37.77
					c-0.044,29.923-0.079,59.845-0.112,89.768c-0.157,142.024-0.248,284.047-0.339,426.07
					c-0.218,336.293-0.392,672.584-0.493,1008.878c-0.045,147.741-0.077,295.485-0.031,443.228
					c0.018,58.618,0.031,117.237,0.13,175.855c0.01,5.977-0.092,11.898-0.438,17.863c0.001,2.003,0.002,4.006,0.005,6.009
					c0.003,3.934,0.006,7.868,0.01,11.802c0.012,11.235,0.023,22.469,0.039,33.703c0.029,21.245,0.067,42.489,0.13,63.735
					c0.036,12.066,0.082,24.134,0.155,36.198c0.058,9.642-0.168,19.282-0.072,28.92c0.075,7.37-0.073,14.759,0.324,22.119
					c0.144,2.663,0.281,5.329,0.408,7.993c0.152,3.174-0.242,6.133-0.8,9.236c-0.152,0.803-0.321,1.603-0.507,2.398
					c-0.167,0.571-0.458,1.054-0.869,1.448c0.057,1.225-0.151,2.404-0.623,3.535c-0.532,1.813-2.729,2.665-4.205,3.453
					c-1.238,0.418-2.514,0.641-3.821,0.67c-6.962,0.109-13.918,0.385-20.871,0.826c-31.495,1.317-63.022,1.556-94.54,1.52
					c-25.246-0.029-50.484-0.825-75.709-1.745c-13.42-0.799-26.853-1.094-40.295-0.886c-1.429-0.479-2.767-0.785-4.269-0.892
					c-1.238-0.122-2.453-0.36-3.646-0.714c-0.628-0.238-1.258-0.477-1.887-0.715c-1.212-0.163-2.339-0.567-3.38-1.209
					c-1.073-0.682-1.881-1.595-2.429-2.744c-1.356-2.051-1.38-4.174-1.42-6.541c-0.017,0.116-0.033,0.232-0.05,0.351
					c0.622-3.481,0.487-7.074,0.579-10.605c0.136-5.258,0.287-10.518,0.217-15.777c-0.192-14.603,0.295-29.224,0.468-43.826
					c0.469-39.512,0.708-79.025,0.927-118.539c0.032-5.688,0.063-11.377,0.086-17.065c0.026-6.078-0.189-12.125-0.397-18.198
					c-0.207-6.036,0.063-12.142,0.094-18.181c0.032-6.245,0.061-12.487,0.09-18.732c0.135-29.091,0.246-58.185,0.344-87.275
					c0.219-64.402,0.366-128.807,0.486-193.209c0.622-331.729,0.527-663.461,0.352-995.19
					c-0.187-353.774-0.576-707.549-1.143-1061.322c-0.231-144.983-0.496-289.965-0.847-434.948
					c-0.14-57.502-0.349-115.005-0.49-172.509c-0.016-5.916,0.441-11.784,0.425-17.703c-0.018-5.899-0.035-11.799-0.053-17.699
					c-0.033-11.228-0.07-22.456-0.108-33.684c-0.072-21.603-0.154-43.206-0.255-64.809c-0.065-13.946-0.137-27.894-0.232-41.839
					c-0.079-11.431-0.443-22.893-0.112-34.321c0.263-9.08-0.287-18.188-0.346-27.271c0.063-1.429,0.133-2.855,0.209-4.283
					c0.039-0.682,0.078-1.366,0.116-2.048c-0.09-5.157,0.183-10.293,0.818-15.411c0.799-4.082,1.607-8.162,2.428-12.241
					c1.083-5.415,3.343-10.418,5.744-15.338c3.261-6.685,8.843-11.623,14.879-15.696c5.716-3.857,12.88-5.454,19.521-6.766
					c7.366-1.455,15.03-1.516,22.507-1.661c7.935-0.155,15.88,0.072,23.813,0.145c9.544-0.03,19.091,0.014,28.634,0.13
					c13.61,0.115,27.216,0.569,40.818,0.98c25.837,0.78,51.716-0.471,77.521-1.679c2.031,0.576,4.07,1.129,6.114,1.658
					c3.316,0.88,6.155,3.242,8.696,5.396c2.48,2.102,3.932,4.942,5.295,7.81c1.288,2.712,1.348,5.971,1.351,8.886
					c0.368-0.018,0.676-0.183,0.922-0.493c0.939-0.84,1.854-1.707,2.742-2.6C275.805,41.849,278.546,39.746,278.438,38.715z"/>
				<path opacity="0.1091" fill="#FFFFFF" d="M281.16,35.909c-0.538-4.441-0.152-2.738-1.611-7.078
					c-1.35-4.01-4.426-7.113-7.287-10.049c-3.251-3.335-7.664-5.154-11.85-6.923c-4.598-1.943-9.845-1.864-14.706-1.798
					c-5.608,0.289-11.215,0.579-16.822,0.868c-15.899,1.023-31.813,1.766-47.74,2.229c-5.05-0.036-10.1-0.073-15.149-0.109
					c-9.092-0.267-18.184-0.457-27.278-0.567c-20.867-0.346-41.745-0.029-62.613,0.014c-9.46,0.021-18.749,0.699-28.038,2.51
					c-6.137,1.196-11.697,3.717-17.15,6.65c-5.977,3.214-10.53,8.444-14.652,13.679c-3.583,4.551-5.639,10.24-7.667,15.571
					c-3.308,8.7-4.015,18.313-4.728,27.491c-0.584,7.534-0.14,15.036,0.699,22.511c0.602,5.359,0.781,10.763,0.961,16.15
					c0.462,13.839,0.377,27.707,0.429,41.552c0.14,37.945,0.192,75.892,0.271,113.838c0.555,268.229,0.949,536.461,1.3,804.692
					c0.466,358.161,0.811,716.322,0.958,1074.483c0.129,319.49,0.17,638.981-0.446,958.472
					c-0.203,105.051-0.452,210.103-1.097,315.152c-0.195,31.808-0.422,63.617-0.853,95.424c-0.072,5.253-0.155,10.506-0.248,15.758
					c-0.039,2.261-0.084,4.521-0.131,6.781c-0.015,0.697-0.031,1.396-0.046,2.094c-0.169,1.624-0.019,3.224,0.45,4.799
					c0.363,2.049,1.967,3.548,3.223,5.025c0.987,0.621,1.972,1.243,2.959,1.863c2.281,1.124,4.675,1.91,7.179,2.358
					c6.766,1.716,14.25-0.163,20.94-1.419c0.45-0.052,0.899-0.104,1.348-0.157c12.733,0.651,25.472,1.22,38.212,1.701
					c19.052,0.784,38.122,1.052,57.186,1.326c38.012,0.549,76.03-0.394,114.012-1.817c8.037-0.302,15.659,0.174,23.307-1.694
					c1.982-0.485,3.075-1.686,4.578-2.952c0.6-1.012,1.2-2.023,1.8-3.034c1.006-2.444,1.593-4.985,1.761-7.625
					c0.561-3.801-0.057-7.687-0.604-11.442c-1.083-7.419-1.206-14.906-1.362-22.388c-0.245-11.688-0.089-23.388-0.113-35.076
					c-0.18-87.609-0.01-175.22,0-262.829c0.076-624.875,0.551-1249.749,0.811-1874.623c0.06-144.35-0.097-288.699,0.029-433.047
					c0.005-5.263-0.023-10.526-0.04-15.789c-0.1-30.715-0.001-61.429-0.04-92.146c-0.073-57.439-0.132-114.88-0.139-172.321
					c-0.004-29.775-0.008-59.55-0.014-89.326c-0.007-30.957-0.269-61.911-0.369-92.869c-0.444-135.169,0.75-270.339,0.396-405.509
					c-0.001-0.861-1.318,0.783-1.255,0.711c-0.561,0.653-1.101,1.323-1.621,2.011c-0.315,0.34-0.548,0.727-0.698,1.158
					c0.192,77.262-0.038,154.521-0.257,231.784c-0.109,38.583-0.186,77.167-0.203,115.75c-0.009,19.329,0.029,38.658,0.072,57.987
					c0.041,12.903,0.086,25.805,0.137,38.707c0.797,7.454,0.84,14.879,0.132,22.278c-0.01,1.192-0.02,2.384-0.028,3.577
					c-0.067,3.162-0.048,6.323,0.057,9.484c0.115,6.275,0.082,12.545,0.066,18.822c-0.038,16.657-0.038,33.312-0.045,49.968
					c-0.019,43.194-0.012,86.386,0.033,129.58c0.018,16.779,0.038,33.559,0.129,50.338c-0.053,2.155-0.105,4.312-0.16,6.466
					c0.021,4.016,0.043,8.031,0.065,12.046c0.025,4.428,0.212,8.839,0.146,13.267c-0.183,12.392,0,24.816-0.024,37.21
					c-0.036,17.354-0.085,34.679,0.226,52.03c0.039,2.195-0.133,4.426-0.137,6.628c-0.049,21.415,0.058,42.829,0.021,64.245
					c-0.162,93.726,0.05,187.446-0.013,281.173c-0.094,142.042-0.166,284.083-0.242,426.125
					c-0.18,336.295-0.355,672.588-0.485,1008.881c-0.059,147.727-0.109,295.452-0.117,443.179
					c-0.002,58.601,0.003,117.199,0.029,175.8c0.006,11.939-0.193,23.869-0.189,35.808c0.004,11.229,0.009,22.459,0.016,33.688
					c0.011,21.229,0.027,42.46,0.057,63.69c0.037,27.564,0.112,55.126,0.166,82.689c0.014,7.275,0.528,14.56,1.482,21.761
					c0.196,1.479,0.383,2.956,0.551,4.438c-0.03,0.946-0.063,1.894-0.094,2.842c-0.055,2.27-0.374,4.501-0.958,6.694
					c-0.391,1.014-0.781,2.026-1.173,3.039c-1.86,3.079-4.399,4.813-7.618,5.199c-6.959,1.021-13.975,1.404-21.051,1.152
					c-12.621,0.519-25.246,0.93-37.874,1.234c-37.926,1.074-75.877,0.7-113.8-0.158c-19.005-0.429-38.001-1.347-56.994-2.162
					c-0.37,0.059-0.739,0.113-1.108,0.171c-2.057,0.425-4.118,0.826-6.184,1.202c-2.903,0.54-5.797,0.612-8.737,0.604
					c-3.4-0.008-6.832-1.512-9.873-2.832c-3.924-1.702-5.016-5.028-5.808-9.048c0.03-1.37,0.059-2.739,0.088-4.109
					c0.029-1.48,0.058-2.962,0.086-4.441c0.521-27.39,0.706-54.788,0.912-82.183c0.742-97.911,0.965-195.827,1.191-293.741
					c0.328-141.988,0.461-283.977,0.54-425.964c0.383-687.132-0.436-1374.265-1.527-2061.395
					C8.853,514.807,8.595,355.917,8.223,197.029c-0.053-22.375-0.056-44.752-0.265-67.128c-0.078-8.342-0.237-16.678-0.696-25.009
					c-0.075-1.726-0.211-3.446-0.411-5.161c-0.526-4.566-0.757-9.152-0.692-13.76c-0.015-7.594,0.67-15.114,2.054-22.557
					c0.977-6.26,3.244-12.073,5.658-17.88c1.61-3.295,3.51-6.415,5.701-9.356c4.844-6.241,10.995-11.03,18.453-14.364
					c6.756-3.301,14.501-4.408,21.866-5.348c6.197-0.791,12.525-0.764,18.76-0.834c11.25-0.129,22.514-0.039,33.765-0.094
					c18.521-0.091,37.036,0.27,55.55,0.717c26.484,0.641,52.993-1.398,79.444-2.436c3.031,0.063,6.009,0.501,8.931,1.316
					c2.846,0.75,5.516,1.909,8.006,3.474c2.35,1.427,4.458,3.15,6.325,5.167c4.134,3.902,6.286,10.022,6.684,15.516
					c0.057,0.779,1.217-0.484,1.286-0.551c0.599-0.574,1.181-1.167,1.742-1.779C280.722,36.664,280.98,36.313,281.16,35.909z"/>
				<path opacity="0.1091" fill="#FFFFFF" d="M278.789,36.421c-0.117-1.175-0.236-2.35-0.355-3.525
					c-0.531-2.505-1.469-4.849-2.812-7.033c-1.895-3.78-5.431-6.465-8.64-9.019c-3.549-2.825-8.183-4.013-12.462-5.085
					c-1.564-0.191-3.13-0.383-4.695-0.574c-7.091,0.101-14.173,0.417-21.249,0.949c-15.854,0.814-31.658,1.645-47.528,2.053
					c-5.032-0.057-10.066-0.113-15.101-0.17c-9.073-0.306-18.148-0.523-27.227-0.652c-20.838-0.398-41.691-0.123-62.531-0.125
					c-9.409,0-18.652,0.662-27.89,2.467c-4.475,0.875-8.652,2.594-12.806,4.401c-4.283,1.861-7.858,4.814-11.396,7.776
					c-3.87,3.242-6.569,7.701-9.168,11.932c-3.065,4.99-4.62,10.762-6.249,16.316c-1.942,6.622-2.357,13.78-2.965,20.608
					c-0.644,7.222-0.209,14.474,0.435,21.668c0.997,11.123,0.894,22.427,0.898,33.583c0.005,15.719,0.156,31.438,0.209,47.158
					c0.137,41.426,0.227,82.853,0.32,124.28c0.623,277.243,0.937,554.492,1.295,831.736c0.465,359.473,0.797,718.944,0.912,1078.415
					c0.1,313.053,0.125,626.107-0.615,939.16c-0.234,98.968-0.38,197.938-1.15,296.903c-0.217,28.022-0.379,56.054-0.925,84.07
					c-0.086,4.451-0.461,8.945,0.066,13.369c0.353,2.958,3.132,4.745,5.34,6.152c2.674,1.705,6.252,2.099,9.293,2.584
					c2.868,0.46,6.072,0.033,8.948-0.16c2.159-0.147,4.318-0.423,6.475-0.618c6.973,0.285,13.945,0.572,20.917,0.858
					c12.727,0.589,25.457,1.074,38.19,1.459c25.361,0.866,50.743,0.928,76.116,0.886c18.988-0.03,37.975-0.559,56.954-1.085
					c6.321-0.229,12.643-0.46,18.963-0.689c7.041,0.056,14.051-0.302,21.031-1.069c2.659-0.277,4.405-1.469,6.434-3.084
					c0.518-0.863,1.033-1.728,1.55-2.59c0.882-2.125,1.409-4.334,1.582-6.627c0.721-4.568-0.292-9.26-0.508-13.833
					c-0.203-4.276-0.017-8.624,0.008-12.906c0.056-9.646-0.154-19.308-0.18-28.956c-0.039-15.115-0.003-30.231-0.015-45.348
					c-0.081-98.438,0.028-196.875,0.05-295.313c0.131-626.372,0.567-1252.744,0.827-1879.116
					c0.033-80.317-0.004-160.634,0.014-240.952c0.01-43.747,0.121-87.497-0.028-131.246c-0.133-39.196-0.015-78.393-0.154-117.591
					c-0.206-57.828-0.047-115.661-0.054-173.49c-0.007-60.523-0.285-121.042-0.417-181.563
					c-0.276-128.724,0.766-257.447,0.435-386.172c-0.462,0.195-0.821,0.522-1.078,0.982c-1.104,1.417-2.179,2.857-3.225,4.319
					c-1.062,1.449-2.093,2.92-3.095,4.411c-0.357,0.389-0.557,0.833-0.597,1.333c0.175,77.259-0.057,154.518-0.266,231.777
					c-0.104,38.589-0.172,77.179-0.18,115.769c-0.006,19.332,0.035,38.664,0.081,57.996c0.042,12.902,0.085,25.804,0.129,38.707
					c1.107,7.471,1.127,14.883,0.06,22.235c-0.017,1.199-0.032,2.397-0.047,3.596c-0.111,3.167-0.073,6.331,0.11,9.495
					c0.206,6.277,0.132,12.529,0.09,18.81c-0.11,16.655-0.117,33.31-0.141,49.965c-0.063,43.195-0.045,86.392,0.05,129.587
					c0.037,16.76,0.25,33.521,0.166,50.28c-0.089,2.176-0.179,4.35-0.268,6.526c0.059,4.029,0.119,8.058,0.181,12.087
					c0.066,4.426,0.34,8.799,0.193,13.225c-0.41,12.359-0.063,24.846-0.086,37.213c-0.016,5.619-0.03,11.237-0.047,16.855
					c-0.175,11.686-0.002,23.368,0.521,35.044c0.02,0.666-0.169,1.424-0.249,2.083c-0.182,1.513-0.006,3.171-0.01,4.695
					c-0.06,21.408,0.021,42.807-0.072,64.217c-0.169,39.272-0.186,78.545-0.245,117.819c-0.01,5.786-0.01,11.571-0.01,17.357
					c0,6.141,0.443,12.274,0.432,18.421c-0.021,12.595-0.041,25.189-0.061,37.783c-0.044,29.931-0.08,59.862-0.113,89.792
					c-0.161,142.04-0.249,284.079-0.342,426.119c-0.219,336.294-0.394,672.588-0.493,1008.881
					c-0.044,147.729-0.077,295.458-0.03,443.186c0.02,58.604,0.007,117.209,0.137,175.812c0.015,6.016-0.109,11.976-0.448,17.981
					c0.003,2.003,0.004,4.004,0.006,6.006c0.003,3.934,0.007,7.867,0.011,11.801c0.011,11.23,0.023,22.46,0.039,33.69
					c0.029,21.233,0.07,42.466,0.133,63.699c0.058,19.727,0.584,39.498,0.023,59.217c-0.2,7.063,0.146,14.171,0.132,21.24
					c-0.013,5.918,0.492,11.846,0.589,17.771c0.02-0.126,0.039-0.252,0.058-0.377c-0.099,0.56-0.197,1.119-0.294,1.678
					c0.021-0.121,0.043-0.245,0.065-0.367c-0.105,0.537-0.209,1.076-0.314,1.613c0.024-0.119,0.051-0.24,0.076-0.36
					c-0.397,1.874-0.809,3.737-1.339,5.577c0.057-0.102,0.114-0.201,0.171-0.303c-1.018,0.941-0.765,0.562-0.691,2.381
					c0.076,1.903-1.169,2.936-2.556,3.886c-1.677,1.147-3.396,1.323-5.358,1.507c-0.654,0.009-1.311,0.016-1.967,0.023
					c-12.583,0.578-25.17,1.045-37.761,1.406c-37.807,1.244-75.646,1.023-113.458,0.298c-18.978-0.364-37.947-1.247-56.912-1.996
					c-7.605,1.798-14.852,1.512-21.734-0.862c-0.515-0.19-1.036-0.359-1.564-0.506c-1.614-0.128-3.057-0.388-4.62-0.815
					c-0.553-0.235-1.108-0.471-1.662-0.704c-1.139-0.088-2.204-0.417-3.193-0.99c-1.624-0.713-2.364-2.805-3.065-4.249
					c-0.889-1.834-0.54-4.245-0.209-6.155c0.35-2.026,0.131-4.389,0.189-6.444c0.069-2.397,0.122-4.795,0.18-7.193
					c0.162-6.688-0.056-13.372,0.065-20.057c0.598-33.523,0.839-67.054,1.082-100.579c0.155-21.303,0.27-42.606,0.386-63.91
					c0.066-12.034-0.362-24.047-0.3-36.082c0.076-14.704,0.141-29.41,0.205-44.115c1.261-293.585,1.191-587.177,1.191-880.762
					c0.001-360.691-0.299-721.38-0.747-1082.069c-0.373-299.189-0.766-598.38-1.633-897.569
					c-0.044-15.326-0.093-30.652-0.143-45.979c-0.02-6.272-0.047-12.544-0.06-18.816c0.015-3.876,0.159-7.744,0.432-11.61
					c-0.011-3.996-0.023-7.992-0.035-11.986c-0.077-27.253-0.166-54.506-0.272-81.757c-0.08-20.854-0.171-41.708-0.297-62.56
					c-0.053-8.669-0.114-17.337-0.186-26.007c-0.071-8.296,0.177-16.586,0.085-24.881c-0.066-6.116-0.131-12.212,0.014-18.327
					c0.048-2.051,0.295-4.12,0.468-6.163c-0.026-5.061,0.31-10.096,1.009-15.106c0.761-3.982,1.581-7.952,2.458-11.909
					c1.125-5.252,3.412-10.098,5.835-14.839c2.657-5.203,6.877-9.235,11.365-12.824c4.194-3.355,9.433-5.192,14.465-6.814
					c5.417-1.747,11.217-2.291,16.849-2.832c10.828-1.038,21.888-0.588,32.745-0.375c11.098,0.22,22.208,0.133,33.309,0.25
					c18.478,0.195,36.944,1.015,55.418,1.431c15.06,0.339,30.21-0.443,45.26-0.879c6.552-1.913,12.874-1.885,18.97,0.081
					c2.163,0.38,4.196,1.12,6.099,2.22c3.867,1.808,6.542,5.092,8.784,8.583c2.178,3.391,2.428,7.751,2.385,11.626
					c0.471-0.161,0.849-0.461,1.134-0.899c1.185-1.331,2.342-2.684,3.472-4.061c1.145-1.363,2.262-2.752,3.35-4.162
					C278.494,37.342,278.719,36.914,278.789,36.421z"/>
				<path opacity="0.1091" fill="#FFFFFF" d="M278.843,39.889c-0.131-1.129-0.264-2.259-0.396-3.389
					c-0.6-2.4-1.528-4.664-2.785-6.796c-1.827-3.694-5.291-6.378-8.395-8.899c-3.486-2.833-8.008-4.089-12.229-5.251
					c-1.546-0.22-3.092-0.44-4.638-0.662c-7.136-0.121-14.261,0.151-21.378,0.813c-15.854,0.785-31.665,1.596-47.534,2.005
					c-5.034-0.051-10.069-0.101-15.104-0.152c-9.071-0.279-18.144-0.485-27.22-0.617c-20.738-0.386-41.49-0.133-62.232-0.119
					c-7.96,0.006-15.816,0.465-23.706,1.548c-4.536,0.623-8.867,1.958-13.197,3.381c-4.385,1.44-8.256,3.91-12.074,6.425
					c-4.126,2.718-7.232,6.6-10.291,10.391c-3.508,4.349-5.561,9.791-7.589,14.91c-2.461,6.209-3.32,12.974-4.298,19.524
					c-0.646,5.124-0.976,10.27-0.985,15.436C4.61,92.232,4.75,96.011,5.214,99.769c1.139,11.061,1.146,22.314,1.192,33.422
					c0.063,15.394,0.153,30.788,0.203,46.182c0.133,40.849,0.216,81.698,0.306,122.547c0.604,275.776,0.942,551.554,1.298,827.332
					c0.465,359.284,0.8,718.569,0.919,1077.854c0.105,314.164,0.138,628.328-0.579,942.49c-0.229,99.995-0.41,199.991-1.143,299.982
					c-0.21,28.662-0.392,57.333-0.91,85.99c-0.079,4.388-0.174,8.775-0.281,13.162c-0.076,3.136,1.355,5.112,3.243,7.406
					c0.87,0.564,1.74,1.128,2.609,1.692c2.028,1.021,4.158,1.738,6.39,2.156c3.26,0.853,6.645,0.557,9.959,0.391
					c2.624-0.133,5.25-0.518,7.852-0.875c7.412-1.013,16.194,0.309,22.778,0.599c25.428,1.115,50.84,1.844,76.287,2.243
					c37.996,0.597,76-0.318,113.967-1.721c7.486-0.276,15.678,0.145,23.205-1.597c0.724-0.337,1.446-0.673,2.169-1.01
					c1.765-1.107,2.959-2.664,3.584-4.674c1.57-2.961,1.272-7.185,1.306-10.398c0.024-2.249-0.447-4.434-0.724-6.65
					c-0.215-1.709-0.198-3.436-0.189-5.152c0.028-1.202,0.088-2.404,0.176-3.604c-0.074-1.186-0.134-2.371-0.179-3.558
					c-0.401-9.042-0.334-18.1-0.365-27.147c-0.052-14.36-0.006-28.721-0.028-43.079c-0.139-96.095,0.033-192.187,0.042-288.281
					c0.063-626.302,0.527-1252.604,0.822-1878.904c0.04-83.709-0.028-167.418,0.002-251.127c0.016-44.859,0.181-89.721,0.008-134.58
					c-0.015-3.647-0.041-7.294-0.021-10.94c0.02-6.136-0.029-12.27-0.146-18.404c-0.143-16.933,0.103-33.88,0.136-50.813
					c0.022-11.147-0.017-22.301-0.133-33.448c-0.118-11.264,0.022-22.53-0.004-33.795c-0.036-14.865-0.039-29.73-0.05-44.596
					c-0.022-33.598-0.021-67.195-0.022-100.793c-0.002-25.367-0.003-50.733,0.011-76.1c0.021-35.138-0.335-70.278-0.411-105.416
					c-0.276-128.725,0.767-257.449,0.437-386.173c-0.344,0.004-0.629,0.152-0.857,0.444c-0.854,0.776-1.682,1.581-2.485,2.41
					c-0.597,0.606-2.806,2.296-2.805,3.384c0.178,77.259-0.052,154.517-0.263,231.776c-0.105,38.587-0.174,77.175-0.186,115.762
					c-0.005,19.332,0.036,38.662,0.08,57.993c0.05,21.485,0.446,43,0.152,64.483c-0.07,5.163,0.129,10.302,0.29,15.463
					c0.207,6.696-0.099,13.469-0.131,20.168c-0.081,17.376-0.09,34.753-0.107,52.129c-0.045,43.126-0.029,86.252,0.083,129.378
					c0.04,15.808,0.528,31.659-0.119,47.455c0.027,2.125,0.056,4.248,0.084,6.373c0.016,3.682,0.096,7.362,0.242,11.042
					c0.114,3.627,0.06,7.177-0.052,10.8c0.012,5.803,0.024,11.607,0.035,17.411c-0.017,11.282-0.041,22.563-0.077,33.845
					c-0.01,5.664-0.02,11.328-0.029,16.993c1.019,6.45,1.153,12.863,0.401,19.236c-0.266,2.339-0.121,4.741-0.13,7.094
					c-0.076,22.162,0.01,44.317-0.069,66.48c-0.141,39.895-0.176,79.791-0.226,119.686c-0.015,12.136,0.418,24.25,0.398,36.384
					c-0.021,12.72-0.04,25.441-0.058,38.162c-0.042,30.185-0.076,60.369-0.108,90.554c-0.149,142.746-0.24,285.492-0.332,428.238
					c-0.215,336.358-0.386,672.716-0.488,1009.076c-0.046,147.087-0.078,294.175-0.032,441.261
					c0.019,58.124,0.089,116.246,0.126,174.369c0.004,5.873-0.426,11.706-0.422,17.581c0.006,5.869,0.01,11.736,0.015,17.604
					c0.01,11.092,0.025,22.183,0.039,33.273c0.028,20.917,0.066,41.833,0.132,62.75c0.03,9.393,0.069,18.784,0.114,28.177
					c0.039,7.926,0.205,15.858-0.021,23.782c-0.187,6.503,0.009,13.022,0.063,19.526c0.024,3.09-0.063,6.167,0.092,9.256
					c0.137,2.797,0.283,5.592,0.385,8.39c0.08,2.209,0.322,4.541-0.058,6.732c-0.332,1.924-0.733,3.832-1.173,5.732
					c-0.099,0.387-0.198,0.772-0.297,1.157c-0.87,0.904-1.211,1.98-1.021,3.229c-0.2,2.78-2.623,3.983-4.766,5.105
					c-1.625,0.853-4.036,0.656-5.795,0.682c-12.588,0.579-25.18,1.052-37.776,1.417c-12.6,0.364-25.202,0.62-37.807,0.77
					c-25.222,0.407-50.448,0.051-75.667-0.415c-12.617-0.285-25.232-0.687-37.843-1.203c-13.28-0.868-26.57-1.079-39.873-0.637
					c0.116,0.028,0.232,0.056,0.349,0.083c-1.121-0.373-2.256-0.699-3.385-1.048c-1.123-0.024-2.238-0.13-3.346-0.321
					c-1.294-0.219-2.542-0.589-3.747-1.112c-0.584-0.133-1.167-0.267-1.751-0.401c-1.169-0.379-2.179-1.015-3.024-1.906
					c-0.78-1.02-1.428-2.119-1.944-3.294c-0.525-1.54-0.711-3.124-0.561-4.751c-0.013,0.123-0.025,0.246-0.038,0.369
					c0.608-3.512,0.472-7.134,0.562-10.689c0.134-5.257,0.287-10.518,0.22-15.776c-0.183-14.604,0.296-29.228,0.468-43.833
					c0.465-39.524,0.702-79.053,0.92-118.579c0.032-5.69,0.062-11.379,0.087-17.067c0.028-6.051-0.181-12.072-0.382-18.121
					c-0.202-6.037,0.063-12.143,0.093-18.184c0.03-6.245,0.061-12.49,0.088-18.735c0.136-29.099,0.244-58.196,0.342-87.294
					c0.216-64.41,0.362-128.818,0.481-193.229c0.617-331.739,0.523-663.479,0.348-995.221
					c-0.187-353.77-0.578-707.539-1.141-1061.309c-0.231-144.972-0.494-289.946-0.843-434.918
					c-0.138-57.493-0.331-114.987-0.484-172.48c-0.015-5.942,0.428-11.838,0.411-17.78c-0.017-5.899-0.035-11.796-0.052-17.696
					c-0.034-11.226-0.069-22.451-0.107-33.678c-0.07-21.596-0.151-43.192-0.25-64.789c-0.111-24.381-0.455-48.765-0.433-73.145
					c0.004-4.871,0.093-9.721,0.004-14.594c-0.08-4.393-0.27-8.784-0.343-13.178c-0.094-5.604,0.243-11.258,0.318-16.858
					c0.119-4.537,0.713-9.009,1.784-13.416c0.396-2.075,0.793-4.151,1.19-6.226c0.846-3.691,1.982-7.292,3.408-10.799
					c1.267-3.055,2.816-5.958,4.648-8.709c2.267-3.776,5.637-6.706,8.942-9.513c5.272-4.477,12.205-6.649,18.742-8.413
					c2.815-0.645,5.657-1.146,8.522-1.505c7.476-1.126,15.11-1.043,22.655-1.078c11.268-0.051,22.54,0.131,33.807,0.131
					c23.322,0.001,46.628,0.915,69.943,1.296c10.146-0.068,20.29-0.296,30.429-0.687c5.147-0.184,10.295-0.367,15.442-0.55
					c6.851-1.997,13.494-2.017,19.932-0.058c2.401,0.45,4.673,1.26,6.816,2.429c3.18,1.427,5.546,4.004,7.836,6.517
					c3.48,3.818,4.527,9.355,4.614,14.303c0.004,0.238,3.669-2.5,3.581-2.426C276.165,42.556,278.947,40.783,278.843,39.889z"/>
				<path opacity="0.1091" fill="#FFFFFF" d="M279.632,34.698c-0.532-4.443-0.169-2.831-1.604-7.182
					c-1.314-3.986-4.423-7.092-7.265-9.992c-3.234-3.301-7.621-5.08-11.784-6.806c-4.471-1.853-9.549-1.753-14.265-1.657
					c-5.635,0.309-11.27,0.618-16.902,0.926c-10.723,0.655-21.448,1.236-32.178,1.743c-14.723,0.746-29.42,0.357-44.144-0.031
					c-23.87-0.627-47.742-0.189-71.614-0.267c-9.499-0.03-18.879,0.291-28.291,1.64c-4.564,0.655-8.912,2.049-13.258,3.528
					c-4.429,1.509-8.317,4.072-12.149,6.675c-4.152,2.819-7.264,6.818-10.323,10.708c-3.525,4.482-5.578,10.043-7.608,15.283
					C5.792,55.6,4.938,62.473,3.963,69.136c-0.6,5.194-0.895,10.407-0.885,15.637c-0.195,3.844-0.039,7.666,0.471,11.462
					c1.237,11.052,1.307,22.301,1.362,33.407c0.076,15.401,0.177,30.802,0.226,46.204c0.126,40.856,0.207,81.713,0.293,122.569
					c0.587,275.773,0.947,551.549,1.301,827.324c0.462,359.286,0.798,718.571,0.916,1077.856
					c0.104,314.154,0.14,628.31-0.567,942.463c-0.224,99.996-0.425,199.994-1.151,299.989c-0.209,28.656-0.41,57.317-0.911,85.968
					c-0.076,4.377-0.15,8.752-0.291,13.125c-0.077,2.385,0.665,3.524,1.581,5.625c1.386,3.177,5.415,4.557,8.265,5.834
					c6.417,2.877,13.809,1.764,20.471,0.668c1.892-0.311,3.748-0.731,5.654-0.959c12.717,0.685,25.44,1.262,38.167,1.732
					c12.71,0.462,25.423,0.813,38.141,1.051c38.024,0.88,76.067,0.263,114.078-0.84c6.323-0.237,12.647-0.476,18.972-0.713
					c7.097,0.281,14.129-0.111,21.097-1.184c1.316-0.189,3.57-0.865,4.592-1.721c2.854-2.387,1.743-1.125,3.859-4.75
					c0.367-1.189,0.735-2.378,1.104-3.567c0.494-2.604,0.694-5.23,0.601-7.878c0.086-4.238-0.915-8.536-1.354-12.736
					c-0.828-7.942-0.851-15.977-0.879-23.952c-0.049-12.839-0.043-25.675-0.064-38.515c-0.138-91.298,0.006-182.596,0.021-273.895
					c0.111-625.707,0.564-1251.412,0.817-1877.118c0.057-137.728-0.03-275.456,0.02-413.184c0.002-4.588-0.07-9.177-0.041-13.765
					c0.002-0.487,0.004-0.973,0.005-1.459c0.035-17.153-0.084-34.306-0.02-51.461c0.058-15.114,0.076-30.233-0.06-45.347
					c-0.223-24.644-0.067-49.298-0.081-73.943c-0.019-33.461-0.019-66.923-0.022-100.384c-0.003-28.695-0.008-57.389-0.017-86.083
					c-0.01-35.135-0.333-70.271-0.408-105.406c-0.275-128.723,0.773-257.446,0.438-386.171c-0.002-1-1.518,1.334-1.368,1.12
					c-0.615,0.892-1.207,1.797-1.777,2.716c-0.344,0.464-0.601,0.966-0.771,1.511c0.191,77.261-0.037,154.52-0.257,231.781
					c-0.109,38.586-0.186,77.172-0.202,115.758c-0.01,19.329,0.029,38.66,0.071,57.988c0.049,12.9,0.089,25.8,0.121,38.7
					c0.827,7.458,0.875,14.888,0.143,22.291c-0.012,1.199-0.022,2.396-0.035,3.593c-0.077,3.157-0.057,6.313,0.063,9.467
					c0.13,6.271,0.092,12.534,0.073,18.807c-0.047,16.669-0.047,33.336-0.057,50.005c-0.023,43.192-0.015,86.385,0.035,129.579
					c0.019,16.763,0.061,33.524,0.135,50.287c-0.058,2.183-0.117,4.366-0.177,6.55c0.023,4.007,0.049,8.014,0.075,12.021
					c0.027,4.415,0.239,8.808,0.16,13.225c-0.22,12.396-0.01,24.835-0.034,37.235c-0.019,5.617-0.038,11.235-0.056,16.852
					c-0.183,11.691-0.072,23.38,0.333,35.065c0.015,0.658-0.113,1.361-0.168,2.014c-0.132,1.537-0.005,3.147-0.008,4.689
					c-0.044,21.422,0.056,42.841,0.013,64.263c-0.079,39.293-0.096,78.588-0.119,117.883c-0.007,11.894,0.222,23.782,0.211,35.672
					c-0.013,12.6-0.023,25.198-0.035,37.796c-0.024,29.938-0.047,59.876-0.067,89.814c-0.102,142.055-0.176,284.109-0.254,426.163
					c-0.184,336.294-0.358,672.589-0.486,1008.883c-0.058,147.717-0.105,295.432-0.107,443.147
					c0,58.588,0.012,117.176,0.041,175.764c0.005,11.968-0.222,23.926-0.217,35.896c0.005,11.226,0.01,22.452,0.019,33.679
					c0.013,21.221,0.031,42.441,0.064,63.664c0.042,27.547,0.129,55.092,0.171,82.635c0.011,7.303,0.905,14.559,1.935,21.771
					c0.328,2.293,0.58,4.366,0.579,6.743c-0.022,1.069-0.045,2.14-0.065,3.21c-0.119,2.088-0.594,4.09-1.426,6.007
					c-1.46,4.353-5.987,4.927-9.545,5.492c-12.616,0.628-25.237,1.149-37.863,1.563c-12.63,0.412-25.264,0.72-37.9,0.919
					c-37.971,0.759-75.953,0.054-113.905-1.138c-6.341-0.256-12.681-0.512-19.022-0.767c-6.757-1.539-13.449-1.78-20.078-0.723
					c-2.143,0.317-4.281,0.818-6.418,1.183c-2.994,0.511-5.983,0.529-9.008,0.477c-1.154-0.301-2.309-0.602-3.463-0.903
					c-2.252-0.688-4.374-1.661-6.364-2.917c-4.105-2.231-5.293-6.798-5.062-11.311c0.149-2.919,0.133-5.858,0.189-8.781
					c0.54-27.995,0.689-56.004,0.909-84.003c0.778-98.984,0.9-197.974,1.138-296.961c0.343-142.653,0.48-285.308,0.566-427.961
					c0.418-686.81-0.406-1373.62-1.568-2060.429c-0.272-160.34-0.41-320.679-0.907-481.018c-0.065-21.093,0.003-42.196-0.319-63.284
					c-0.125-8.101-0.6-16.182-0.842-24.276c-0.125-3.746-0.122-7.492,0.008-11.239c0.063-7.371,1.412-14.462,2.821-21.657
					c0.907-4.105,2.177-8.096,3.813-11.968c1.901-5.119,5.032-9.489,8.272-13.808c3.697-4.929,9.046-8.34,14.299-11.341
					c6.35-3.627,13.907-5.019,21.021-6.173c7.619-1.237,15.479-1.196,23.172-1.26c11.214-0.091,22.437,0.031,33.65-0.004
					c18.447-0.057,36.889,0.355,55.329,0.823c26.382,0.667,52.835-0.995,79.166-2.451c2.483,0.358,4.948,0.813,7.396,1.362
					c3.931,0.794,7.356,3.138,10.569,5.372c1.972,1.56,3.692,3.359,5.164,5.398c2.753,3.313,3.723,8.023,3.986,12.152
					c0.058,0.925,1.476-1.052,1.424-0.988c0.664-0.826,1.307-1.668,1.93-2.526C279.144,35.693,279.429,35.219,279.632,34.698z"/>
				<path opacity="0.1091" fill="#FFFFFF" d="M278.597,39.054c-0.12-1.158-0.241-2.317-0.36-3.475
					c-0.536-2.446-1.463-4.735-2.777-6.868c-1.85-3.665-5.301-6.271-8.42-8.749c-3.444-2.736-7.938-3.914-12.087-4.982
					c-1.516-0.2-3.032-0.399-4.55-0.598c-7.002-0.008-13.996,0.257-20.984,0.8c-15.797,0.736-31.547,1.538-47.358,1.908
					c-5.025-0.064-10.05-0.127-15.075-0.191c-9.065-0.31-18.132-0.533-27.201-0.671c-20.821-0.416-41.656-0.167-62.481-0.183
					c-9.394-0.008-18.634,0.622-27.87,2.363c-4.464,0.843-8.646,2.504-12.809,4.253c-4.283,1.799-7.89,4.674-11.458,7.562
					c-3.902,3.158-6.661,7.529-9.319,11.69c-3.142,4.918-4.768,10.652-6.462,16.164C7.354,64.675,6.883,71.846,6.21,78.671
					c-0.714,7.239-0.296,14.528,0.287,21.75c0.904,11.174,0.804,22.497,0.821,33.7c0.023,15.715,0.146,31.43,0.196,47.146
					c0.13,41.419,0.22,82.837,0.312,124.256c0.61,277.247,0.941,554.496,1.298,831.745c0.462,359.47,0.794,718.941,0.911,1078.411
					c0.101,313.061,0.125,626.123-0.605,939.184c-0.231,98.964-0.394,197.93-1.153,296.891c-0.216,28.024-0.389,56.058-0.919,84.077
					c-0.084,4.467-0.444,8.967,0.086,13.406c0.36,3.012,3.114,4.795,5.384,6.199c2.75,1.701,6.394,2.117,9.498,2.643
					c1.064,0.004,2.129,0.01,3.193,0.014c1.964-0.061,3.924-0.186,5.88-0.375c2.189-0.176,4.365-0.479,6.548-0.715
					c0.423-0.009,0.847-0.018,1.272-0.027c12.876,0.745,25.759,1.361,38.649,1.852c25.385,1.088,50.791,1.403,76.196,1.589
					c37.978,0.273,75.95-0.952,113.883-2.666c2.358-0.106,4.265-0.732,6.394-1.691c2.996-1.35,3.629-5.015,4.382-7.774
					c0.866-3.182,0.533-6.821,0.255-10.05c-0.148-1.717-0.561-3.451-0.757-5.17c-0.453-3.935-0.072-8.05,0.011-12.002
					c0.198-9.334-0.089-18.71-0.119-28.049c-0.049-14.737-0.001-29.478-0.019-44.215c-0.107-97.27,0.031-194.54,0.046-291.811
					c0.102-626.356,0.534-1252.71,0.825-1879.066c0.037-81.161-0.021-162.324,0.004-243.486
					c0.014-44.873,0.136-89.749-0.001-134.623c-0.116-37.854,0.166-75.71-0.151-113.563c-0.22-26.127-0.041-52.267-0.058-78.396
					c-0.022-33.598-0.021-67.194-0.023-100.792c-0.002-25.377-0.005-50.755,0.003-76.134c0.01-35.134-0.331-70.27-0.407-105.405
					c-0.278-128.725,0.764-257.449,0.435-386.175c-0.486,0.146-0.883,0.435-1.193,0.868c-1.268,1.298-2.509,2.625-3.725,3.974
					c-1.23,1.335-2.434,2.696-3.608,4.08c-0.401,0.35-0.651,0.772-0.751,1.27c0.17,77.258-0.062,154.516-0.268,231.773
					c-0.103,38.592-0.167,77.184-0.175,115.775c-0.004,19.332,0.039,38.664,0.085,57.997c0.037,12.903,0.083,25.807,0.136,38.709
					c1.184,7.469,1.191,14.865,0.023,22.19c-0.016,1.194-0.03,2.388-0.046,3.582c-0.115,3.179-0.07,6.356,0.13,9.531
					c0.226,6.285,0.141,12.537,0.091,18.825c-0.132,16.633-0.141,33.267-0.169,49.901c-0.076,43.199-0.055,86.398,0.057,129.597
					c0.043,16.77,0.313,33.543,0.166,50.312c-0.096,2.148-0.191,4.296-0.287,6.444c0.072,4.053,0.146,8.107,0.219,12.159
					c0.082,4.44,0.364,8.822,0.195,13.263c-0.033,0.923-0.066,1.848-0.1,2.771c0.042,11.467,0.043,22.935,0.002,34.402
					c-0.015,5.62-0.029,11.239-0.045,16.858c-0.155,11.739,0.036,23.473,0.573,35.201c0.02,0.638-0.18,1.38-0.263,2.011
					c-0.198,1.501-0.009,3.175-0.013,4.688c-0.025,7.802-0.155,15.604-0.162,23.405c-0.006,5.714,0.253,11.422,0.208,17.133
					c-0.063,7.875-0.106,15.75-0.147,23.625c-0.201,39.239-0.22,78.48-0.29,117.721c-0.01,5.791,0,11.581,0.008,17.372
					c0.01,6.194,0.504,12.371,0.491,18.572c-0.025,12.587-0.05,25.176-0.07,37.763c-0.053,29.919-0.093,59.839-0.131,89.758
					c-0.181,142.017-0.275,284.034-0.373,426.051c-0.23,336.292-0.404,672.583-0.494,1008.875
					c-0.04,147.75-0.067,295.498-0.003,443.248c0.025,58.626,0.035,117.252,0.169,175.879c0.015,5.961-0.157,11.861-0.525,17.811
					c0.003,2.003,0.004,4.006,0.007,6.009c0.003,3.935,0.007,7.87,0.013,11.805c0.012,11.236,0.027,22.472,0.047,33.707
					c0.034,21.251,0.083,42.501,0.156,63.752c0.046,13.275,0.113,26.55,0.212,39.825c0.076,10.275-0.145,20.541-0.08,30.816
					c0.024,4.033,0.026,8.064,0.019,12.098c-0.005,3.471,0.469,6.909,0.274,10.382c-0.065,1.142-0.133,2.285-0.205,3.426
					c-0.084,1.384-0.332,2.331-0.77,3.621c-0.481,1.426-1.049,2.825-1.734,4.165c0.407-0.238,0.815-0.479,1.224-0.716
					c-0.435,0.186-0.869,0.369-1.304,0.554c-0.11,0.068-0.222,0.135-0.332,0.203c0.251,0.922,0.232,1.837-0.054,2.744
					c-0.241,1.414-2.513,2.051-3.542,2.562c-1.19,0.354-2.407,0.525-3.651,0.512c-0.641-0.009-1.281-0.017-1.923-0.024
					c-12.573,0.564-25.148,1.021-37.729,1.37c-31.466,1.007-62.954,0.929-94.43,0.571c-31.951-0.362-63.864-2.125-95.803-2.892
					c0.13,0.042,0.26,0.085,0.392,0.128c-0.922-0.508-1.874-0.958-2.81-1.438c-0.375-0.036-0.75-0.07-1.126-0.106
					c-0.901-0.125-1.77-0.363-2.61-0.713c-0.444-0.236-0.889-0.474-1.332-0.71c-0.965-0.006-1.859-0.258-2.685-0.755
					c-1.366-0.594-1.95-2.74-2.501-3.932c-0.84-1.824-0.397-4.213-0.061-6.09c0.362-2.022,0.137-4.408,0.198-6.461
					c0.18-6.038,0.34-12.084,0.255-18.123c-0.187-13.33,0.259-26.678,0.428-40.01c0.234-18.428,0.397-36.857,0.544-55.287
					c0.165-20.506,0.296-41.015,0.412-61.523c0.065-11.532,0.321-23.078-0.101-34.605c-0.527-14.353-0.108-28.758-0.04-43.121
					c0.281-58.704,0.464-117.408,0.617-176.112c0.833-319.414,0.769-638.832,0.658-958.247
					c-0.123-358.182-0.484-716.363-1.016-1074.544c-0.228-153.446-0.49-306.894-0.826-460.339
					c-0.14-63.293-0.293-126.587-0.478-189.881c-0.078-26.379-0.149-52.759-0.26-79.139c-0.025-5.988,0.129-11.917,0.479-17.894
					c-0.005-2.008-0.013-4.017-0.018-6.024c-0.012-3.954-0.023-7.907-0.036-11.862c-0.042-13.174-0.084-26.346-0.13-39.52
					c-0.123-35.547-0.26-71.095-0.511-106.641c-0.051-7.202-0.116-14.403-0.176-21.603c-0.05-6.186,0.253-12.366,0.183-18.547
					c-0.061-5.406-0.242-10.826-0.073-16.23c0.072-2.264,0.154-4.513,0.35-6.771c0.348-3.987,0.549-7.694,0.713-11.791
					c0.28-4.295,0.994-8.514,2.143-12.656c0.439-1.949,0.877-3.897,1.316-5.847c0.929-3.437,2.123-6.776,3.583-10.021
					c1.692-4.179,4.531-7.746,7.396-11.15c2.572-3.058,5.96-5.18,9.29-7.283c3.31-2.09,7.273-3.225,10.973-4.357
					c4.008-1.226,8.219-1.713,12.356-2.267c9.073-1.212,18.41-0.89,27.537-0.826c18.904,0.133,37.815,0.386,56.714,0.811
					c13.803,0.312,27.602,0.932,41.404,1.307c14.941,0.405,29.966-0.226,44.902-0.572c5.33-0.131,10.658-0.263,15.989-0.396
					c1.669,0.594,3.357,1.121,5.066,1.583c2.768,0.814,5.217,3.064,7.243,4.978c4.352,4.108,5.476,10.039,5.369,15.746
					c0.493-0.104,0.909-0.357,1.251-0.76c1.36-1.182,2.696-2.393,4.007-3.63c1.326-1.222,2.626-2.471,3.9-3.745
					C278.178,39.937,278.46,39.538,278.597,39.054z"/>
				<path opacity="0.1091" fill="#FFFFFF" d="M278.881,36.408c-0.132-1.149-0.264-2.296-0.396-3.445
					c-0.588-2.468-1.543-4.786-2.863-6.955c-1.912-3.798-5.489-6.512-8.719-9.077c-3.614-2.868-8.269-4.088-12.616-5.221
					c-1.589-0.201-3.179-0.403-4.769-0.604c-7.183-0.012-14.358,0.298-21.522,0.929c-15.895,0.843-31.753,1.664-47.666,2.097
					c-5.039-0.048-10.08-0.099-15.12-0.147c-9.079-0.288-18.162-0.493-27.244-0.614c-20.849-0.378-41.711-0.096-62.563-0.075
					c-9.424,0.009-18.683,0.67-27.939,2.472c-4.501,0.876-8.708,2.595-12.893,4.4c-4.328,1.867-7.957,4.834-11.541,7.809
					c-3.945,3.276-6.708,7.771-9.386,12.048c-3.157,5.044-4.749,10.918-6.415,16.555C5.244,63.288,4.826,70.538,4.22,77.457
					c-0.642,7.331-0.18,14.695,0.469,21.998c0.998,11.21,1.056,22.534,1.08,33.779c0.033,15.726,0.173,31.453,0.224,47.179
					c0.131,41.425,0.219,82.851,0.31,124.276c0.609,277.244,0.941,554.492,1.298,831.737
					c0.462,359.471,0.793,718.942,0.909,1078.414c0.101,313.053,0.125,626.106-0.606,939.159
					c-0.23,98.966-0.397,197.934-1.157,296.898c-0.216,28.019-0.39,56.047-0.926,84.061c-0.044,2.252-0.093,4.504-0.144,6.755
					c-0.025,1.109-0.235,2.77-0.103,3.908c0.106,0.912,0.212,1.824,0.318,2.736c0.518,1.837,1.478,3.401,2.883,4.696
					c0.87,0.593,1.739,1.185,2.608,1.777c1.995,1.068,4.1,1.837,6.313,2.308c3.232,0.932,6.703,0.723,10.015,0.652
					c3.196-0.068,6.378-0.596,9.542-0.983c0.425-0.02,0.852-0.038,1.276-0.06c12.997,0.245,25.986,0.703,38.968,1.373
					c25.378,1.105,50.792,1.343,76.187,1.508c37.983,0.247,75.962-0.99,113.9-2.713c1.757-0.08,2.816-0.377,4.531-0.763
					c0.732-0.325,1.464-0.652,2.195-0.978c1.751-1.049,3.014-2.527,3.789-4.434c0.368-1.096,0.734-2.191,1.102-3.288
					c0.505-2.397,0.746-4.819,0.718-7.269c0.105-2.375-0.296-4.697-0.558-7.045c-0.465-4.172-0.414-8.391-0.637-12.578
					c-0.48-9.007-0.378-18.039-0.414-27.057c-0.057-14.36-0.011-28.721-0.027-43.08c-0.115-96.096,0.026-192.188,0.04-288.284
					c0.09-626.301,0.55-1252.6,0.823-1878.899c0.038-83.698-0.011-167.396,0.013-251.095c0.013-44.878,0.175-89.761-0.01-134.638
					c-0.156-37.854,0.207-75.71-0.156-113.563c-0.249-26.123-0.033-52.26-0.047-78.385c-0.021-33.597-0.02-67.193-0.022-100.789
					c-0.001-25.382-0.005-50.762,0-76.144c0.006-35.135-0.335-70.271-0.409-105.408c-0.277-128.723,0.767-257.446,0.436-386.17
					c-0.003-1.092-1.811,1.626-1.666,1.431c-0.813,1.102-1.603,2.217-2.372,3.35c-0.444,0.569-0.806,1.183-1.083,1.845
					c0.185,77.259-0.046,154.519-0.26,231.778c-0.108,38.587-0.181,77.175-0.195,115.763c-0.007,19.33,0.033,38.659,0.077,57.99
					c0.05,12.898,0.089,25.797,0.116,38.694c0.995,7.469,1.033,14.893,0.115,22.273c-0.246,2.237-0.159,6.013-0.099,8.157
					c0.223,7.935,0.261,15.799,0.223,23.732c-0.078,16.656-0.083,33.314-0.098,49.97c-0.043,43.194-0.032,86.389,0.04,129.583
					c0.027,16.769,0.144,33.537,0.158,50.305c0.005,5.761-0.225,7.168-0.168,12.832c0.04,4.049,0.092,6.944,0.206,10.938
					c0.104,3.634,0.059,7.215-0.029,10.847c0.013,5.806,0.026,11.612,0.039,17.417c-0.017,11.282-0.044,22.563-0.083,33.844
					c-0.06,20.076-0.109,14.625,0.424,35.122c0.024,0.995-0.208,2.017-0.209,3.021c-0.009,6.674,0.014,13.344-0.042,20.017
					c-0.103,12.403,0.086,24.799,0.042,37.202c-0.133,37.271-0.161,74.541-0.199,111.812c-0.013,11.347-0.022,22.694-0.04,34.041
					c-0.008,4.015,0.232,8.338,0.346,12.358c0.172,6.114-0.017,12.269-0.025,18.385c-0.037,28.84-0.066,57.681-0.094,86.521
					c-0.133,139.022-0.217,278.044-0.302,417.067c-0.203,335.842-0.374,671.685-0.498,1007.527
					c-0.057,150.291-0.099,300.582-0.086,450.871c0.004,60.577,0.021,121.153,0.065,181.73c0.009,12.61,0.106,25.224-0.031,37.833
					c-0.093,1.898-0.186,3.798-0.277,5.695c0.002,3.98,0.005,7.96,0.007,11.94c0.004,5.794,0.008,11.588,0.014,17.384
					c0.018,22.555,0.043,45.111,0.08,67.667c0.027,16.889,0.072,33.776,0.137,50.663c0.053,13.593-0.081,27.176,0.05,40.767
					c0.071,7.382,0.143,14.686,0.803,22.043c0.292,3.243,0.324,6.453,0.308,9.71c-0.01,1.883,0.047,3.646-0.661,5.453
					c0.015,1.556-0.233,3.067-0.745,4.536c-0.526,1.463-1.419,2.653-2.676,3.569c-1.912,1.874-5.042,1.927-7.536,2.102
					c-6.301,0.273-12.603,0.548-18.904,0.821c-12.609,0.496-25.221,0.884-37.837,1.161c-37.888,1-75.795,0.543-113.677-0.41
					c-6.322-0.214-12.645-0.427-18.969-0.64c-13.3-0.964-26.612-1.157-39.937-0.58c-1.23,0.015-2.58-0.229-3.805-0.321
					c-2.403-0.179-4.692-0.223-7.088-0.584c-3.239-0.487-5.985-1.734-8.535-3.724c-1.863-1.454-2.508-3.952-3.053-6.086
					c-0.091-0.359,0.118-5.104,0.151-6.245c0.133-4.714,0.244-9.431,0.333-14.148c0.111-5.815-0.023-11.627,0.074-17.441
					c0.13-7.826,0.232-15.653,0.329-23.479c0.472-37.753,0.699-75.51,0.912-113.265c0.064-11.179,0.114-22.356,0.179-33.536
					c0.036-6.073-0.123-12.127-0.275-18.199c-0.151-6.046,0.06-12.132,0.087-18.179c0.133-28.338,0.24-56.675,0.336-85.012
					c0.466-135.938,0.646-271.879,0.775-407.816c0.653-688.984-0.175-1377.971-1.404-2066.951
					c-0.186-103.693-0.392-207.386-0.65-311.079c-0.057-22.369-0.116-44.737-0.18-67.105c-0.036-12.29-0.342-24.613,0.241-36.893
					c-0.011-3.995-0.021-7.989-0.032-11.985c-0.016-5.836-0.032-11.673-0.047-17.51c-0.094-33.884-0.196-67.769-0.339-101.653
					c-0.051-12.229-0.112-24.457-0.183-36.686c-0.065-11.157-0.297-22.319-0.055-33.475c0.195-9.03-0.757-18.066-0.541-27.095
					c0.037-1.468,0.079-2.936,0.126-4.404c0.04-2.78,0.082-5.561,0.123-8.342c0.126-4.678,0.685-9.303,1.679-13.872
					c0.659-4.201,1.629-8.328,2.911-12.382c1.441-5.208,4.112-9.869,6.898-14.433c3.896-6.384,10.105-10.813,16.502-14.354
					c6.227-3.448,13.589-4.708,20.522-5.776c7.57-1.168,15.371-1.096,23.007-1.138c11.181-0.061,22.366,0.105,33.546,0.094
					c23.343-0.023,46.672,0.852,70.009,1.185c10.191-0.093,20.377-0.358,30.559-0.796c5.167-0.195,10.335-0.389,15.502-0.584
					c6.92-1.937,13.688-2.031,20.305-0.281c2.514,0.382,4.912,1.131,7.196,2.247c3.375,1.345,5.975,3.903,8.487,6.41
					c1.475,1.694,2.665,3.57,3.57,5.624c1.485,2.809,1.638,6.104,1.701,9.181c0.341-0.03,0.613-0.199,0.816-0.509
					c0.785-0.84,1.544-1.704,2.274-2.592C276.885,39.378,279.001,37.459,278.881,36.408z"/>
				<path opacity="0.1091" fill="#FFFFFF" d="M280.4,33.896c-0.491-4.2-0.158-2.665-1.559-6.911
					c-1.317-3.996-4.437-7.107-7.285-10.014c-3.242-3.313-7.649-5.098-11.825-6.83c-4.471-1.852-9.544-1.773-14.261-1.687
					c-5.689,0.307-11.381,0.613-17.071,0.92c-10.739,0.659-21.482,1.243-32.231,1.756c-14.735,0.751-29.444,0.373-44.183-0.007
					c-23.873-0.615-47.749-0.176-71.624-0.248c-9.505-0.028-18.891,0.294-28.308,1.642c-4.573,0.654-8.93,2.047-13.286,3.525
					c-4.452,1.51-8.363,4.072-12.222,6.673c-4.194,2.828-7.348,6.839-10.452,10.741c-3.586,4.509-5.685,10.118-7.752,15.407
					C5.837,55.269,4.976,62.223,3.986,68.97c-0.584,5.296-0.865,10.608-0.844,15.937c-0.212,3.907-0.031,7.787,0.544,11.637
					c1.377,11.076,1.337,22.347,1.458,33.49c0.167,15.389,0.173,30.778,0.214,46.167c0.112,40.833,0.187,81.664,0.27,122.495
					c0.555,275.781,0.958,551.563,1.307,827.344c0.455,359.282,0.793,718.563,0.912,1077.845
					c0.105,314.181,0.14,628.362-0.544,942.543c-0.219,99.983-0.465,199.969-1.171,299.949c-0.202,28.668-0.426,57.336-0.908,86.002
					c-0.073,4.437-0.165,8.874-0.266,13.312c-0.049,2.142,0.926,3.684,1.817,5.513c1.524,3.134,5.495,4.356,8.415,5.539
					c3.513,1.425,7.521,1.461,11.231,1.454c1.95-0.003,4.782-0.367,6.727-0.688c2.379-0.391,4.748-0.824,7.117-1.27
					c6.8-0.912,13.639-0.621,20.519,0.871c12.744,0.563,25.49,1.024,38.24,1.387c38.037,1.232,76.104,0.935,114.146,0.151
					c18.975-0.392,37.938-1.27,56.896-2.149c2.37-0.109,4.444-0.994,6.537-2.01c4.426-2.148,5.019-8.394,5.519-12.542
					c0.667-5.523-0.758-11.311-1.342-16.802c-0.84-7.924-0.858-15.957-0.89-23.917c-0.052-12.837-0.046-25.675-0.065-38.513
					c-0.136-91.3,0.006-182.598,0.021-273.897c0.107-625.708,0.557-1251.415,0.817-1877.123
					c0.058-137.724-0.056-275.449,0.021-413.173c0.003-4.584-0.075-9.168-0.04-13.751c0.004-0.478,0.005-0.955,0.007-1.432
					c0.051-17.171-0.09-34.344-0.025-51.515c0.058-15.113,0.079-30.23-0.058-45.343c-0.226-24.647-0.068-49.302-0.083-73.95
					c-0.02-33.462-0.02-66.924-0.022-100.387c-0.004-28.689-0.01-57.379-0.014-86.069c-0.007-35.137-0.335-70.272-0.41-105.409
					c-0.275-128.725,0.774-257.446,0.439-386.171c-0.003-0.994-1.515,1.3-1.37,1.096c-0.618,0.877-1.213,1.771-1.786,2.678
					c-0.345,0.457-0.604,0.954-0.776,1.492c0.191,77.261-0.037,154.521-0.257,231.782c-0.109,38.584-0.186,77.17-0.204,115.755
					c-0.008,19.33,0.03,38.659,0.073,57.988c0.045,12.903,0.088,25.804,0.128,38.705c0.893,7.46,0.937,14.886,0.133,22.28
					c-0.012,1.195-0.023,2.389-0.035,3.585c-0.08,3.159-0.058,6.318,0.063,9.477c0.135,6.274,0.095,12.539,0.075,18.814
					c-0.051,16.662-0.051,33.322-0.063,49.984c-0.024,43.192-0.018,86.386,0.035,129.58c0.021,16.771,0.062,33.542,0.143,50.314
					c-0.063,2.167-0.125,4.336-0.188,6.505c0.025,4.013,0.052,8.027,0.081,12.039c0.028,4.422,0.242,8.821,0.161,13.245
					c-0.224,12.391-0.011,24.827-0.037,37.221c-0.018,5.617-0.037,11.235-0.057,16.852c-0.176,11.729-0.059,23.457,0.353,35.18
					c0.015,0.627-0.12,1.307-0.178,1.931c-0.145,1.528-0.006,3.146-0.01,4.681c-0.057,21.418,0.057,42.833,0.01,64.25
					c-0.085,39.284-0.1,78.567-0.126,117.851c-0.007,11.912,0.235,23.818,0.223,35.727c-0.013,12.597-0.023,25.192-0.035,37.789
					c-0.027,29.934-0.05,59.869-0.071,89.803c-0.104,142.046-0.181,284.094-0.259,426.141
					c-0.188,336.293-0.36,672.588-0.487,1008.882c-0.056,147.722-0.103,295.444-0.103,443.166
					c0.001,58.595,0.011,117.19,0.046,175.785c0.007,11.951-0.234,23.891-0.229,35.844c0.004,11.229,0.011,22.456,0.02,33.684
					c0.014,21.227,0.034,42.453,0.068,63.68c0.045,27.555,0.122,55.104,0.186,82.656c0.017,7.177,0.867,14.354,1.924,21.436
					c1.07,7.166,2.643,17.478-5.579,21.401c-5.467,2.608-24.745,1.944-23.131,1.87c-25.224,1.161-50.477,1.569-75.725,1.869
					c-38.034,0.451-76.061-0.635-114.063-2.091c-12.278-0.471-14.09-2.148-21.992-0.515c-3.69,0.764-7.381,1.301-11.138,1.578
					c-3.553,0.26-6.774-0.576-10.157-1.515c-1.038-0.45-2.076-0.898-3.113-1.349c-1.919-0.765-3.352-2.053-4.297-3.861
					c-2.129-2.882-1.653-6.079-1.585-9.268c0.063-3.07,0.116-6.139,0.17-9.209c0.497-28.669,0.689-57.344,0.894-86.015
					c0.711-99.983,0.942-199.972,1.161-299.956c0.314-143.416,0.446-286.832,0.519-430.248
					C10.247,2028.65,9.43,1342.234,8.33,655.82c-0.252-157.515-0.5-315.03-0.886-472.544c-0.051-21.08-0.033-42.163-0.325-63.241
					c-0.115-8.183-0.447-16.345-1.087-24.503c-0.369-3.794-0.45-7.599-0.238-11.415c-0.021-7.69,1.179-15.145,2.58-22.669
					c0.868-4.241,2.141-8.356,3.82-12.345c1.934-5.279,5.124-9.758,8.443-14.216c3.76-5.052,9.269-8.55,14.63-11.62
					c6.417-3.673,14.063-5.089,21.253-6.262c6.088-0.992,12.343-1.08,18.496-1.236c7.989-0.202,15.996,0.003,23.988-0.014
					c18.861-0.041,37.708,0.055,56.566,0.423c9.436,0.302,18.873,0.462,28.314,0.48c5.125-0.118,10.251-0.235,15.376-0.353
					c10.491-0.419,20.981-0.844,31.474-1.275c7.222-1.712,14.342-1.812,21.356-0.297c1.39,0.302,2.779,0.604,4.169,0.905
					c2.651,0.772,5.157,1.875,7.516,3.308c2.232,1.368,4.251,3.001,6.054,4.9c4.065,3.769,6.056,9.75,6.348,15.101
					c0.052,0.917,1.477-1.002,1.432-0.948c0.671-0.806,1.321-1.627,1.951-2.465C279.876,35.11,280.472,34.499,280.4,33.896z"/>
				<path opacity="0.1091" fill="#FFFFFF" d="M278.019,39.738c-0.112-1.156-0.225-2.31-0.337-3.466
					c-0.519-2.439-1.427-4.724-2.721-6.858c-1.819-3.668-5.253-6.307-8.345-8.8c-3.444-2.776-7.913-3.997-12.072-5.121
					c-1.524-0.212-3.048-0.423-4.572-0.637c-7.043-0.12-14.079,0.13-21.107,0.753c-15.825,0.744-31.608,1.53-47.449,1.905
					c-5.03-0.06-10.062-0.121-15.093-0.18c-9.07-0.303-18.143-0.523-27.218-0.659c-20.833-0.408-41.68-0.156-62.515-0.162
					c-9.408-0.001-18.658,0.627-27.906,2.37c-4.482,0.843-8.68,2.509-12.861,4.262c-4.31,1.806-7.946,4.695-11.539,7.599
					c-3.942,3.184-6.727,7.583-9.419,11.777c-3.181,4.957-4.822,10.753-6.53,16.313c-2.047,6.662-2.516,13.887-3.185,20.773
					c-0.708,7.293-0.273,14.643,0.33,21.917c0.929,11.211,0.855,22.561,0.884,33.801c0.039,15.717,0.148,31.432,0.196,47.147
					c0.126,41.415,0.213,82.83,0.303,124.246c0.601,277.249,0.945,554.499,1.3,831.747c0.461,359.47,0.793,718.939,0.909,1078.41
					c0.103,313.065,0.126,626.13-0.596,939.193c-0.229,98.963-0.407,197.926-1.16,296.884c-0.213,28.025-0.393,56.058-0.917,84.079
					c-0.084,4.475-0.45,8.985,0.1,13.431c0.378,3.057,3.224,4.843,5.532,6.249c2.808,1.713,6.534,2.076,9.697,2.56
					c1.089-0.01,2.179-0.02,3.268-0.027c1.995-0.086,3.983-0.238,5.968-0.457c2.195-0.206,4.378-0.54,6.566-0.803
					c0.423-0.011,0.847-0.023,1.271-0.036c12.894,0.673,25.792,1.268,38.694,1.785c25.379,1.093,50.783,1.389,76.182,1.566
					c37.974,0.266,75.942-0.969,113.87-2.689c2.362-0.107,4.26-0.745,6.385-1.723c2.984-1.373,3.629-5.113,4.369-7.875
					c0.841-3.137,0.458-6.767,0.219-9.953c-0.13-1.718-0.548-3.462-0.733-5.184c-0.172-1.609-0.143-3.234-0.12-4.85
					c0.033-2.412,0.057-4.825,0.083-7.239c0.103-9.349-0.143-18.719-0.178-28.069c-0.052-14.736,0-29.475-0.019-44.211
					c-0.119-97.272,0.033-194.542,0.047-291.811c0.09-626.356,0.522-1252.712,0.824-1879.066c0.039-81.166-0.028-162.331,0-243.495
					c0.016-44.868,0.161-89.74,0.006-134.608c-0.13-37.858,0.202-75.72-0.159-113.577c-0.248-26.126-0.039-52.267-0.057-78.396
					c-0.023-33.597-0.022-67.194-0.023-100.792c-0.002-25.374-0.003-50.748,0.01-76.122c0.017-35.136-0.334-70.272-0.408-105.409
					c-0.28-128.725,0.763-257.449,0.433-386.175c-0.405,0.07-0.736,0.285-0.992,0.642c-1.018,1.018-2.007,2.061-2.972,3.128
					c-0.979,1.055-1.931,2.133-2.855,3.236c-0.333,0.285-0.518,0.634-0.552,1.045c0.173,77.258-0.057,154.516-0.265,231.774
					c-0.104,38.59-0.172,77.18-0.18,115.771c-0.006,19.332,0.036,38.664,0.081,57.994c0.04,12.902,0.085,25.804,0.133,38.705
					c1.104,7.464,1.119,14.868,0.049,22.212c-0.016,1.193-0.029,2.386-0.044,3.581c-0.108,3.175-0.069,6.349,0.116,9.521
					c0.204,6.282,0.13,12.54,0.086,18.827c-0.114,16.637-0.121,33.275-0.146,49.912c-0.065,43.198-0.046,86.396,0.053,129.594
					c0.037,16.771,0.267,33.546,0.16,50.317c-0.089,2.148-0.176,4.298-0.265,6.447c0.062,4.046,0.125,8.092,0.188,12.137
					c0.07,4.439,0.341,8.828,0.189,13.267c-0.419,12.344-0.063,24.826-0.086,37.179c-0.015,5.619-0.03,11.237-0.045,16.857
					c-0.161,11.737,0.012,23.469,0.516,35.195c0.019,0.64-0.162,1.366-0.239,2c-0.182,1.51-0.006,3.167-0.01,4.688
					c-0.058,21.394,0.019,42.781-0.077,64.178c-0.178,39.247-0.195,78.494-0.255,117.742c-0.009,5.787-0.004,11.575,0,17.362
					c0.004,6.184,0.45,12.355,0.438,18.545c-0.023,12.588-0.044,25.178-0.063,37.767c-0.047,29.922-0.083,59.845-0.117,89.766
					c-0.164,142.021-0.255,284.043-0.348,426.065c-0.221,336.293-0.395,672.584-0.493,1008.876
					c-0.044,147.744-0.076,295.488-0.024,443.232c0.02,58.621,0.017,117.244,0.143,175.866c0.014,5.97-0.123,11.887-0.463,17.847
					c0.002,2.002,0.005,4.006,0.006,6.008c0.003,3.934,0.007,7.869,0.011,11.805c0.012,11.234,0.025,22.468,0.04,33.702
					c0.031,21.246,0.072,42.493,0.138,63.739c0.054,17.756,0.309,35.517,0.192,53.271c-0.083,12.681-0.235,25.356,0.342,38.029
					c0.199,4.356-0.412,8.665-1.691,12.818c-0.103,0.308-0.205,0.613-0.308,0.919c-0.83,0.716-1.055,1.608-0.671,2.679
					c0.12,2.58-2.223,3.592-4.112,4.568c-1.586,0.821-3.959,0.597-5.668,0.603c-12.579,0.571-25.163,1.035-37.75,1.391
					c-12.591,0.357-25.184,0.605-37.779,0.745c-25.204,0.388-50.413,0.011-75.612-0.481c-12.606-0.297-25.208-0.716-37.807-1.254
					c-13.138-0.713-26.286-1.053-39.443-1.017c0.121,0.039,0.241,0.077,0.361,0.115c-1.01-0.431-2.038-0.818-3.056-1.229
					c-0.446-0.024-0.891-0.05-1.337-0.074c-1.049-0.098-2.076-0.312-3.078-0.643c-0.527-0.226-1.055-0.449-1.582-0.674
					c-1.094-0.066-2.112-0.377-3.058-0.928c-1.549-0.68-2.26-2.785-2.933-4.152c-0.906-1.839-0.516-4.266-0.176-6.18
					c0.36-2.025,0.133-4.411,0.192-6.467c0.174-6.034,0.345-12.076,0.269-18.112c-0.17-13.333,0.257-26.682,0.422-40.016
					c0.229-18.433,0.389-36.864,0.533-55.298c0.161-20.51,0.291-41.021,0.404-61.531c0.063-11.521,0.32-23.06-0.071-34.577
					c-0.487-14.352-0.094-28.749-0.026-43.108c0.273-58.709,0.453-117.418,0.603-176.127c0.815-319.42,0.75-638.846,0.638-958.268
					c-0.125-358.179-0.486-716.358-1.01-1074.538c-0.226-153.442-0.481-306.884-0.811-460.324
					c-0.136-63.29-0.285-126.579-0.464-189.867c-0.073-26.377-0.138-52.754-0.25-79.129c-0.025-6.003,0.094-11.949,0.432-17.942
					c-0.007-2.007-0.013-4.015-0.018-6.023c-0.011-3.953-0.023-7.906-0.035-11.859c-0.04-13.173-0.082-26.344-0.126-39.516
					c-0.118-35.539-0.247-71.077-0.484-106.615c-0.048-7.199-0.108-14.397-0.173-21.596c-0.057-6.194,0.219-12.385,0.136-18.576
					c-0.073-5.434-0.266-10.872-0.211-16.306c0.062-6.314,0.524-12.606,0.696-18.922c0.209-4.415,0.865-8.761,1.968-13.037
					c0.421-2.006,0.843-4.013,1.264-6.018c0.894-3.55,2.064-7.006,3.512-10.369c1.68-4.353,4.523-8.087,7.409-11.677
					c2.574-3.206,6.036-5.473,9.423-7.697c3.345-2.198,7.355-3.418,11.121-4.634c4.029-1.301,8.292-1.826,12.464-2.416
					c9.095-1.286,18.468-0.98,27.625-0.938c18.948,0.086,37.902,0.284,56.848,0.658c13.847,0.272,27.686,0.847,41.532,1.158
					c15.084,0.341,30.256-0.417,45.331-0.85c5.446-0.191,10.895-0.382,16.342-0.573c1.87,0.575,3.751,1.113,5.641,1.618
					c3.032,0.842,5.681,3.142,7.96,5.168c2.306,2.05,3.605,4.702,4.862,7.443c1.224,2.669,1.227,5.952,1.213,8.8
					c0.406-0.03,0.751-0.212,1.033-0.541c1.09-0.911,2.154-1.849,3.195-2.815c1.055-0.951,2.083-1.928,3.086-2.933
					C277.741,40.467,277.952,40.139,278.019,39.738z"/>
			</g>
		</g>
	</g>
</g>
</svg>
