<?xml version="1.0" encoding="utf-8"?>
<!-- Generator: Adobe Illustrator 16.0.0, SVG Export Plug-In . SVG Version: 6.00 Build 0)  -->
<!DOCTYPE svg PUBLIC "-//W3C//DTD SVG 1.1//EN" "http://www.w3.org/Graphics/SVG/1.1/DTD/svg11.dtd">
<svg version="1.1" id="Layer_1" xmlns="http://www.w3.org/2000/svg" xmlns:xlink="http://www.w3.org/1999/xlink" x="0px" y="0px"
	 width="540px" height="4000px" viewBox="0 0 540 4000" enable-background="new 0 0 540 4000" xml:space="preserve">
<g>
	
		<image overflow="visible" opacity="0.75" width="417" height="4008" xlink:href="963217FC.png"  transform="matrix(1 0 0 1 62 -4)">
	</image>
	<g>
		<path fill="#F2F2F2" d="M443.729,52.171c-0.053-18.304-15.06-33.046-33.361-32.729c-35.172,0.607-71.498,3.302-105.593,1.955
			c-30.028-1.188-63.75-1.602-97.677-1.474c-60.421,0.229-125.08-9.637-124.717,94.235c1.412,405.017,8.054,3432.912,0,3835.633
			c-0.362,18.098,21.445,13.226,25.88,13.472c106.649,5.899,213.675,6.369,320.385,1.403c3.716-0.173,7.74-0.46,10.525-2.666
			c3.539-2.803,3.775-7.586,3.749-11.814c-0.745-117.421,1.767-2580.078,1.021-2697.499c-0.266-41.847,0.265-79.396,0-121.245
			c-0.294-46.243-0.068-377.124-0.362-423.368C442.187,488.563,444.355,271.505,443.729,52.171z"/>
		<g>
			<g>
				<path opacity="0.1091" fill="#FFFFFF" d="M453.99,42.759c-0.143-1.372-0.285-2.744-0.429-4.117
					c-0.605-2.894-1.564-5.667-2.881-8.317c-1.857-4.45-5.414-7.989-8.701-11.368c-3.562-3.66-8.32-5.931-12.841-8.09
					c-4.879-2.331-10.286-2.85-15.572-3.366c-1.738,0.032-3.477,0.063-5.216,0.097c-12.727,0.597-25.452,1.254-38.172,1.97
					c-18.232,0.985-36.423,1.676-54.678,2c-5.847-0.088-11.691-0.177-17.538-0.266c-10.519-0.356-21.042-0.63-31.566-0.824
					c-22.363-0.498-44.738-0.407-67.103-0.309c-11.451,0.05-22.901-0.091-34.351,0.054c-11.091,0.142-22.025,1.236-32.9,3.392
					c-5.283,1.048-10.306,2.928-15.304,4.876c-1.721,0.671-3.417,1.458-5.022,2.38c-5.438,3.129-3.791,2.089-8.982,5.661
					c-4.777,3.287-8.544,7.733-12.233,12.127c-4.066,4.844-6.748,10.678-9.43,16.335c-3.03,6.392-4.563,13.519-6.205,20.346
					c-1.988,8.271-2.353,16.983-2.902,25.429c-0.492,7.564-0.406,15.376,0.286,22.921c1.346,14.658,1.27,29.454,1.402,44.158
					c0.345,38.052,0.321,76.111,0.428,114.164c0.745,265.749,1.226,531.5,1.712,797.25c1.308,715.577,2.383,1431.157,1.401,2146.733
					c-0.187,135.973-0.469,271.943-1.035,407.915c-0.378,90.968-0.71,181.939-1.896,272.901
					c-0.177,13.567-0.444,27.134-0.635,40.702c-0.04,2.838-0.083,5.674-0.17,8.511c-0.06,1.929-0.304,4.347,0.371,6.185
					c1.387,3.78,0.638,2.337,2.96,5.802c1.635,1.771,3.538,3.187,5.708,4.24c2.324,1.158,4.769,1.945,7.333,2.362
					c6.709,1.621,14.079,0.593,20.78-0.508c1.938-0.318,3.834-0.684,5.792-0.823c6.41,0.273,12.818,0.545,19.228,0.819
					c12.638,0.645,25.282,1.201,37.929,1.665c81.978,3.305,164.097,2.426,246.057-0.862c7.755-0.312,15.822-0.212,23.588-1.441
					c1.967-0.312,3.277-1.108,5.013-2.001c3.151-1.622,4.513-5.363,5.771-8.367c1.505-3.595,1.188-7.938,1.165-11.725
					c-0.027-4.58-0.924-9.16-1.212-13.736c-0.305-4.82-0.567-9.615-0.665-14.447c-0.22-10.969-0.15-21.939-0.177-32.909
					c-0.039-16.604-0.051-33.206-0.063-49.809c-0.186-252.014,0.157-504.028,0.31-756.042
					c0.206-340.905,0.461-681.811,0.686-1022.715c0.162-244.595,0.275-489.189,0.29-733.783c0.002-24.389,0.062-48.781-0.074-73.17
					c-0.146-26.679-0.137-53.354-0.034-80.033c0.138-36.485-0.096-72.971-0.151-109.457c-0.133-87.648-0.073-175.296-0.096-262.945
					c-0.024-100.688-0.673-201.372-0.591-302.062c0.125-152.294,1.031-304.586,0.62-456.882c-0.001-0.865-1.382,0.749-1.35,0.714
					c-0.63,0.667-1.24,1.354-1.831,2.057c-0.352,0.345-0.624,0.742-0.816,1.189c0.428,165.536-0.606,331.071-0.637,496.608
					c-0.009,39.796,0.09,79.593,0.257,119.389c0.022,6.633,0.046,13.264,0.068,19.896c0.777,7.701,0.822,15.38,0.134,23.036
					c-0.342,4.323-0.045,8.844,0.046,13.17c0.286,13.676,0.065,27.371,0.052,41.051c-0.022,22.012-0.022,44.023-0.025,66.036
					c-0.016,86.118-0.183,172.241,0.21,258.358c0.029,6.554-0.135,13.092-0.098,19.645c0.029,5.104,0.129,10.201,0.238,15.303
					c-0.016,1.222-0.029,2.444-0.045,3.667c-0.084,6.905-0.074,13.811,0.032,20.717c0.063,17.138-0.053,34.277-0.112,51.416
					c-0.079,22.298-0.007,44.59,0.194,66.885c0.09,10.09-0.107,20.176,0.047,30.268c0.24,15.747-0.06,31.522-0.076,47.271
					c-0.02,18.748-0.033,37.494-0.046,56.242c-0.009,10.779-0.016,21.559-0.021,32.338c-0.009,13.829,0.206,27.652,0.192,41.48
					c-0.123,126.982-0.201,253.962-0.292,380.944c-0.242,335.129-0.483,670.26-0.701,1005.389
					c-0.104,161.815-0.196,323.633-0.264,485.449c-0.055,127.146,0.203,254.298-0.035,381.445c-0.07,1.893-0.14,3.784-0.209,5.678
					c0.002,3.989,0.002,7.979,0.003,11.969c0.003,5.806,0.004,11.613,0.007,17.42c0.006,10.955,0.012,21.909,0.02,32.864
					c0.014,20.561,0.039,41.123,0.073,61.685c0.026,14.856,0.08,29.715,0.143,44.572c0.047,11.304-0.003,22.591,0.32,33.895
					c0.114,3.99,0.647,7.952,0.837,11.938c0.216,4.545,0.286,8.907-0.209,13.449c-0.357,3.28-1.675,5.887-3.357,8.64
					c-2.145,3.509-6.613,4.286-10.378,4.723c-0.749,0.043-1.498,0.084-2.248,0.127c-12.576,0.602-25.156,1.133-37.739,1.588
					c-25.167,0.982-50.353,1.438-75.534,1.815c-37.789,0.565-75.583,0.114-113.363-0.684c-18.901-0.398-37.792-1.144-56.68-1.888
					c-6.288-0.295-12.576-0.591-18.864-0.887c-7.005-0.832-13.985-0.924-20.94-0.273c-0.577,0.082-1.153,0.164-1.73,0.244
					c-3.528,0.564-7.082,0.904-10.663,1.021c-3.319,0.134-6.457-0.456-9.679-1.149c-3.085-0.664-5.54-2.256-7.999-4.114
					c-2.977-2.784-4.484-6.385-4.522-10.805c0.083-1.712,0.167-3.424,0.247-5.137c0.292-6.093,0.129-12.249,0.239-18.352
					c0.125-6.912,0.233-13.826,0.336-20.738c0.267-17.903,0.467-35.807,0.651-53.711c0.203-19.899,0.368-39.801,0.519-59.699
					c0.192-25.104,0.176-50.205,0.325-75.307c0.743-124.719,1.064-249.44,1.323-374.162c0.703-340.587,0.631-681.174,0.423-1021.76
					c-0.226-369.167-0.708-738.334-1.35-1107.5c-0.496-286.352-1.104-572.704-1.892-859.056c-0.033-11.992,0.097-23.977,0.063-35.97
					c-0.033-11.391-0.066-22.783-0.101-34.174c-0.066-22.091-0.137-44.183-0.215-66.273c-0.061-17.092-0.128-34.185-0.236-51.276
					c-0.094-14.933-0.137-29.888-0.872-44.805c-0.149-3.037-0.342-6.072-0.53-9.107c-0.58-9.326,0.14-18.741,0.846-28.034
					c0.35-2.743,0.699-5.488,1.048-8.231c1.038-7.218,2.857-14.247,5.455-21.085C88.414,43.25,103.285,28.449,120.169,21
					c9.694-4.275,20.605-5.664,31.037-6.729c13.034-1.333,26.28-0.881,39.36-0.79c9.527,0.066,19.081-0.094,28.604-0.127
					c16.625-0.056,33.247,0.176,49.868,0.43c16.302,0.25,32.593,0.832,48.895,1.077c5.942-0.097,11.886-0.192,17.829-0.29
					c12.235-0.387,24.465-0.894,36.691-1.521c6.146-0.271,12.292-0.542,18.438-0.813c9.767-1.652,19.411-1.557,28.935,0.285
					c4.818,0.778,9.097,3.199,13.26,5.567c3.995,2.271,7.061,5.891,9.958,9.348c4.478,5.341,6.289,12.427,6.736,19.211
					c0.023,0.363,2.455-1.753,2.361-1.668C452.587,44.569,454.072,43.544,453.99,42.759z"/>
				<path opacity="0.1091" fill="#FFFFFF" d="M455.355,44.434c-0.337-1.311-0.672-2.62-1.008-3.931
					c-1.239-2.723-2.404-5.477-3.496-8.263c-0.622-1.524-1.411-3.052-2.447-4.337c-3.146-3.902-6.392-7.845-10.734-10.513
					c-4.423-2.717-9.128-5.551-14.319-6.559c-6.653-1.292-3.871-0.904-10.696-1.459c-1.857,0.057-3.715,0.125-5.572,0.202
					c-12.599,0.602-25.195,1.275-37.786,2.02c-18.331,1.031-36.622,1.72-54.979,2.05c-5.849-0.09-11.698-0.181-17.548-0.271
					c-10.521-0.373-21.046-0.648-31.572-0.827c-26.226-0.567-52.452-0.196-78.68-0.249c-11.356-0.022-22.668-0.108-34.016,0.5
					c-5.522,0.295-10.98,1.092-16.434,1.958c-7.166,1.139-13.978,3.426-20.683,6.118c-6.882,2.763-12.85,7.217-18.454,11.971
					c-4.542,3.854-7.916,8.815-11.253,13.671c-3.758,5.467-6.035,11.875-8.321,18.032c-2.672,7.196-3.838,14.919-5.064,22.449
					c-1.458,8.943-1.499,18.1-1.661,27.127c-0.104,5.815,0.339,11.104,0.846,16.784c0.389,4.356,0.533,8.728,0.697,13.097
					c0.544,14.468,0.482,28.969,0.554,43.445c0.096,19.214,0.139,38.428,0.192,57.643c0.713,253.06,1.207,506.12,1.682,759.18
					c1.344,716.936,2.413,1433.875,1.64,2150.812c-0.152,141.901-0.393,283.803-0.886,425.704
					c-0.345,99.099-0.736,198.204-1.753,297.3c-0.162,15.863-0.353,31.727-0.579,47.59c-0.094,6.644-0.204,13.289-0.318,19.933
					c-0.119,6.813-0.8,13.838,0.106,20.597c0.308,2.285,1.974,4.25,3.218,6.033c0.942,0.797,1.885,1.595,2.828,2.391
					c2.22,1.499,4.615,2.628,7.185,3.39c3.713,1.419,8.213,1.314,12.111,1.424c3.522,0.1,7.136-0.538,10.61-1.034
					c2.858-0.406,5.647-1.168,8.535-1.395c6.306,0.353,12.613,0.706,18.92,1.059c12.643,0.627,25.288,1.176,37.936,1.642
					c44.174,1.771,88.395,2.122,132.599,1.944c37.855-0.152,75.698-1.335,113.519-2.865c8.05-0.324,15.867-0.171,23.716-1.53
					c2.163-0.374,3.28-1.163,5.168-2.22c3.374-1.89,4.62-5.902,5.87-9.235c1.038-2.767,0.902-5.492,0.986-8.368
					c0.159-5.414-1.064-10.887-1.625-16.264c-0.893-8.568-0.756-17.277-0.811-25.881c-0.088-13.572-0.073-27.146-0.083-40.719
					c-0.163-236.896,0.113-473.79,0.263-710.686c0.215-340.608,0.461-681.219,0.684-1021.827
					c0.168-259.124,0.392-518.248,0.335-777.371c-0.007-30.348-0.014-60.697-0.067-91.045c-0.016-7.802-0.029-15.603-0.075-23.405
					c-0.256-44.247,0.202-88.494-0.05-132.743c-0.432-75.788-0.119-151.584-0.131-227.374
					c-0.013-76.339-0.042-152.677-0.428-229.017c-1.041-205.325,0.96-410.654,0.398-615.98c-0.003-0.713-1.266-0.01-1.264,0.451
					c0.448,165.536-0.591,331.071-0.641,496.607c-0.028,94.269,0.617,188.534,0.653,282.804c0.033,86.04-0.002,172.08,0.081,258.119
					c0.035,36.954,0.218,73.904,0.076,110.858c-0.084,22.227,0.013,44.455,0.085,66.682c0.224,69.196,0.109,138.394,0.098,207.589
					c-0.021,127.066-0.087,254.133-0.159,381.199c-0.349,624.008-0.988,1248.016-1.131,1872.025
					c-0.01,43.273-0.013,86.549-0.001,129.823c0.007,26.102-0.281,52.23,0.273,78.329c0.083,3.911,0.251,7.825,0.606,11.722
					c0.249,2.723,0.553,5.439,0.806,8.162c0.487,5.243,0.429,9.744-1.082,14.963c-0.527,1.132-1.055,2.264-1.582,3.397
					c-0.987,2.069-2.475,3.649-4.463,4.742c-2.715,2.013-6.425,2.146-9.652,2.468c-6.299,0.288-12.597,0.574-18.896,0.861
					c-12.599,0.538-25.201,0.999-37.806,1.385c-25.209,0.848-50.432,1.164-75.651,1.405c-37.826,0.362-75.655-0.296-113.466-1.302
					c-18.907-0.503-37.804-1.348-56.699-2.182c-10.594-0.467-14.288-1.883-22.104-0.566c-6.166,1.038-12.119,1.73-18.388,1.447
					c-3.795-0.172-7.182-1.273-10.655-2.688c-2.125-1.018-4.025-2.354-5.7-4.01c-2.016-2.617-3.109-5.535-3.283-8.756
					c0.02-0.896,0.039-1.793,0.058-2.688c0.039-1.869,0.078-3.737,0.113-5.606c0.06-2.991,0.114-5.981,0.167-8.973
					c0.119-6.646,0.218-13.292,0.315-19.938c0.253-17.338,0.444-34.678,0.622-52.016c0.448-43.862,0.733-87.727,0.984-131.59
					c0.703-123.1,1.023-246.2,1.272-369.301c0.689-338.919,0.625-677.839,0.425-1016.758
					c-0.218-369.675-0.692-739.351-1.309-1109.027c-0.483-289.002-1.052-578.005-1.764-867.006
					C75.25,331.175,75.132,284.587,75.002,238c-0.05-17.598-0.101-35.195-0.179-52.792c-0.066-15.481-0.078-30.974-0.659-46.445
					c-0.119-3.185-0.292-6.349-0.572-9.524c-0.101-1.059-0.202-2.116-0.305-3.173c-0.548-4.352-0.732-8.727-0.551-13.125
					c-0.195-8.9,0.622-17.736,1.57-26.568c0.804-7.487,2.779-14.682,4.861-21.886c1.809-6.255,4.875-11.955,8.032-17.596
					c2.838-5.071,6.909-9.29,10.951-13.383c6.154-6.231,14.962-10.492,22.793-13.653c6.644-2.682,13.909-3.826,20.938-4.947
					c11.021-1.758,22.386-1.643,33.512-1.67c18.959-0.047,37.922-0.051,56.881-0.042c16.374,0.008,32.744,0.322,49.112,0.667
					c5.17,0.155,10.338,0.31,15.508,0.465c11.808,0.371,23.615,0.341,35.424-0.088c18.571-0.357,37.171-1.816,55.711-2.897
					c23.086-4.433,43.637,2.705,61.656,21.409c0.474,1.562,1.062,3.071,1.763,4.533c1.01,2.446,2.019,4.891,3.029,7.337
					C454.659,45.166,455.476,44.904,455.355,44.434z"/>
				<path opacity="0.1091" fill="#FFFFFF" d="M451.934,43.176c-0.116-1.394-0.234-2.789-0.352-4.184
					c-0.505-2.898-1.412-5.667-2.721-8.302c-1.78-4.351-5.22-7.798-8.406-11.107c-3.402-3.534-8.021-5.733-12.367-7.792
					c-4.697-2.227-9.845-2.713-14.929-3.211c-1.719,0.039-3.437,0.078-5.155,0.116c-12.51,0.533-25.016,1.136-37.518,1.813
					c-18.214,0.933-36.387,1.55-54.621,1.816c-5.84-0.105-11.678-0.209-17.518-0.313c-10.514-0.382-21.031-0.677-31.55-0.882
					c-22.348-0.531-44.708-0.468-67.06-0.39c-11.441,0.039-22.882-0.116-34.323,0.02c-11.037,0.13-21.925,1.194-32.753,3.323
					c-5.218,1.025-10.18,2.868-15.118,4.782c-4.972,1.928-9.375,4.882-13.744,7.868c-4.588,3.135-8.228,7.442-11.771,11.644
					c-5.396,6.399-8.649,14.329-11.608,22.038c-2.644,6.883-3.899,14.245-5.193,21.46c-1.563,8.713-1.647,17.706-1.888,26.521
					c-0.235,8.623,0.715,17.253,1.002,25.869c0.516,15.5,0.407,31.044,0.486,46.552c0.208,40.246,0.289,80.491,0.403,120.737
					c0.77,271.826,1.226,543.655,1.72,815.482c1.3,714.362,2.374,1428.731,1.273,2143.094
					c-0.205,132.879-0.505,265.758-1.118,398.635c-0.4,86.767-0.671,173.535-1.964,260.293c-0.184,12.385-0.309,24.778-0.663,37.159
					c0.111,1.087,0.222,2.173,0.333,3.26c0.48,2.097,1.416,3.963,2.808,5.602c0.814,0.703,1.629,1.405,2.443,2.108
					c1.899,1.321,3.949,2.343,6.148,3.064c1.143,0.257,2.287,0.515,3.43,0.771c2.299,0.386,4.613,0.62,6.941,0.704
					c3.98,0.273,8.155-0.287,12.103-0.757c1.854-0.222,3.661-0.474,5.528-0.498c6.428,0.332,12.855,0.667,19.285,0.999
					c12.646,0.646,25.297,1.213,37.952,1.698c37.855,1.573,75.75,2.02,113.635,2.136c37.831,0.116,75.659-0.813,113.467-2.08
					c13.286-0.445,26.824-0.775,40.078-1.784c1.625-0.14,3.204-0.485,4.738-1.038c1.737-0.66,3.251-1.658,4.544-2.998
					c0.607-0.901,1.215-1.803,1.821-2.705c1.082-2.146,1.816-4.408,2.201-6.783c0.077-1.204,0.154-2.409,0.23-3.613
					c0.029-2.332-0.011-4.664-0.12-6.993c-0.063-1.918-0.422-3.875-0.543-5.799c-0.119-1.906-0.055-3.826-0.109-5.733
					c-0.283-10.082-0.186-20.197-0.224-30.283c-0.126-32.534-0.062-65.072-0.073-97.606c-0.104-264.259,0.195-528.519,0.368-792.777
					c0.224-340.191,0.471-680.38,0.687-1020.571c0.146-230.911,0.239-461.823,0.25-692.734c0-18.959,0.02-37.92-0.121-56.878
					c-0.344-46.188,0.263-92.378-0.096-138.567c-0.278-35.74-0.08-71.493-0.099-107.235c-0.044-86.03-0.029-172.061-0.063-258.09
					c-0.017-40.489-0.354-80.977-0.483-121.465c-0.275-86.057-0.023-172.115,0.216-258.171
					c0.294-105.993,0.605-211.986,0.321-317.98c-0.504,0.212-0.905,0.561-1.207,1.043c-1.273,1.506-2.516,3.036-3.732,4.587
					c-1.232,1.539-2.435,3.1-3.608,4.685c-0.401,0.404-0.648,0.875-0.739,1.415c0.345,145.675-0.397,291.351-0.597,437.027
					c-0.046,33.119-0.034,66.236,0.004,99.355c0.049,39.954-0.036,79.919,0.665,119.868c-0.114,0.876-0.228,1.752-0.341,2.628
					c-0.026,2.68-0.054,5.358-0.084,8.036c0.064,1.729,0.13,3.458,0.194,5.186c0.238,3.939,0.29,7.881,0.154,11.826
					c-0.156,15.461-0.168,30.926-0.205,46.388c-0.194,78.503-0.143,157.01,0.01,235.514c0.03,15.842,0.084,31.683,0.159,47.526
					c0.037,8.072,0.106,16.144,0.179,24.216c0.058,6.549-0.358,13.048-0.248,19.596c0.086,5.117,0.243,10.229,0.411,15.343
					c-0.036,1.215-0.07,2.431-0.106,3.644c-0.226,6.895-0.237,13.79-0.036,20.69c0.096,34.723-0.405,69.439,0.296,104.159
					c0.032-0.141,0.063-0.282,0.095-0.425c-0.577,2.381-0.245,5.085-0.247,7.528c-0.003,3.702,0.055,7.399-0.003,11.103
					c-0.184,11.945,0.126,23.875,0.055,35.816c-0.218,36.56-0.254,73.121-0.314,109.682c-0.018,11.229-0.036,22.457-0.023,33.687
					c0.007,6.113,0.5,12.212,0.487,18.332c-0.014,6.143-0.025,12.285-0.037,18.428c-0.056,28.932-0.102,57.862-0.143,86.794
					c-0.093,64.988-0.164,129.977-0.23,194.965c-0.335,329.55-0.565,659.101-0.779,988.65
					c-0.194,301.934-0.488,603.869-0.181,905.803c0.014,13.201,0.028,26.401,0.048,39.604c0.009,6.3,0.025,12.601,0.02,18.899
					c-0.053,2.009-0.106,4.015-0.16,6.023c-0.356,3.899-0.47,7.806-0.341,11.718c0.023,23.895,0.059,47.786,0.109,71.679
					c0.039,18.198,0.099,36.396,0.182,54.592c0.034,7.615,0.086,15.23,0.144,22.845c0.057,7.451-0.229,14.902-0.146,22.348
					c0.06,5.344,0.136,10.686,0.248,16.028c0.092,4.257,0.293,8.541,0.073,12.796c-0.087,1.709-0.19,3.417-0.3,5.125
					c-0.071,1.125-0.63,2.428-0.945,3.509c-0.997,3.419-1.479,6.951-3.757,9.813c-1.049,1.316-3.521,1.652-5.019,1.865
					c-2.166,0.307-4.229,0.406-6.417,0.404c-6.277,0.266-12.554,0.533-18.831,0.801c-12.558,0.495-25.117,0.916-37.68,1.262
					c-18.846,0.574-37.698,0.807-56.551,1.039c-37.725,0.467-75.452-0.091-113.165-1.004c-18.874-0.459-37.736-1.269-56.597-2.089
					c-12.837-0.723-25.684-1.188-38.541-1.394c-0.767-0.158-1.538-0.278-2.315-0.364c-1.747-0.238-3.484-0.501-5.222-0.79
					c-1.841-0.305-3.55-1.06-5.375-1.447c-1.615-0.343-3.02-1.693-4.451-2.458c-1.604-0.856-2.291-3.491-2.936-4.977
					c-1.081-2.487-0.628-5.685-0.472-8.292c0.171-2.87,0.127-5.707,0.1-8.58c-0.072-7.488,0.232-14.986,0.378-22.473
					c0.699-36.067,1.039-72.141,1.362-108.212c0.097-10.719,0.183-21.438,0.266-32.157c0.09-11.576,0.363-23.166-0.043-34.736
					c-0.428-12.27-0.088-24.57-0.007-36.847c0.098-15.09,0.187-30.179,0.271-45.271c0.345-61.07,0.58-122.141,0.782-183.213
					c1.077-325.636,1.069-651.275,0.968-976.912c-0.116-372.089-0.554-744.177-1.175-1116.265
					c-0.512-307.131-1.088-614.264-2.106-921.396c-0.111-33.599-0.227-67.197-0.368-100.795c-0.035-8.051-0.021-16.048,0.45-24.087
					c-0.014-4.001-0.028-8.001-0.042-12.003c-0.015-3.92-0.029-7.841-0.043-11.762c-0.054-14.869-0.112-29.737-0.173-44.607
					c-0.105-25.65-0.229-51.299-0.374-76.948c-0.061-10.681-0.131-21.361-0.203-32.041c-0.063-9.076-0.147-18.13,0.22-27.201
					c0.122-3.023,0.101-6.061,0.161-9.085c0.115-5.832,0.514-11.686,0.685-17.512c0.277-5.663,0.835-11.296,1.674-16.901
					c0.669-4.792,1.729-9.497,3.175-14.111c1.409-3.733,2.852-7.454,4.325-11.16c1.531-3.427,3.31-6.719,5.336-9.877
					c3.388-5.731,8.444-10.22,13.56-14.335c4.902-3.944,10.981-6.314,16.792-8.511c6.191-2.338,12.91-3.309,19.412-4.289
					c7.041-1.062,14.231-1.238,21.334-1.477c7.494-0.252,15.009-0.083,22.505-0.058c11.398,0.039,22.796-0.008,34.196,0.01
					c21.813,0.033,43.617,0.577,65.418,1.211c10.906,0.413,21.813,0.728,32.724,0.945c11.738,0.076,23.475-0.035,35.207-0.332
					c11.794-0.281,23.588-0.557,35.382-0.828c7.282-1.703,14.374-1.607,21.278,0.288c2.502,0.374,4.894,1.109,7.174,2.207
					c2.278,0.958,4.371,2.22,6.281,3.788c4.055,2.867,6.737,7.008,9.009,11.313c2.285,4.331,2.508,9.535,2.46,14.295
					c0.515-0.173,0.939-0.487,1.274-0.945c1.37-1.399,2.716-2.824,4.033-4.274c1.334-1.436,2.64-2.895,3.918-4.379
					C451.528,44.154,451.807,43.705,451.934,43.176z"/>
				<path opacity="0.1091" fill="#FFFFFF" d="M451.6,44.401c-0.114-1.376-0.23-2.752-0.346-4.127
					c-0.515-2.868-1.413-5.61-2.699-8.226c-1.762-4.342-5.192-7.805-8.359-11.114c-3.408-3.563-8.003-5.796-12.354-7.91
					c-4.697-2.282-9.901-2.822-15.004-3.365c-1.702,0.008-3.404,0.018-5.107,0.028c-12.598,0.549-25.191,1.154-37.784,1.814
					c-18.251,0.917-36.46,1.562-54.731,1.841c-5.844-0.1-11.688-0.198-17.533-0.296c-10.519-0.371-21.042-0.659-31.565-0.862
					c-22.356-0.523-44.725-0.457-67.083-0.376c-11.448,0.042-22.895-0.104-34.341,0.033c-11.055,0.131-21.96,1.19-32.806,3.308
					c-5.243,1.024-10.23,2.861-15.195,4.77c-5.009,1.926-9.458,4.884-13.866,7.875c-4.648,3.151-8.339,7.476-11.945,11.703
					c-5.495,6.444-8.806,14.474-11.827,22.262c-2.698,6.957-3.971,14.424-5.275,21.725c-1.568,8.79-1.643,17.86-1.874,26.752
					c-0.226,8.71,0.749,17.427,1.083,26.126c0.598,15.526,0.48,31.101,0.562,46.635c0.21,40.243,0.285,80.487,0.397,120.73
					c0.757,271.826,1.229,543.655,1.722,815.484c1.293,714.361,2.365,1428.73,1.273,2143.095
					c-0.204,132.881-0.504,265.762-1.111,398.643c-0.397,86.761-0.688,173.526-1.973,260.281
					c-0.183,12.382-0.306,24.772-0.668,37.15c0.114,1.097,0.226,2.192,0.339,3.288c0.494,2.132,1.456,4.028,2.886,5.687
					c0.836,0.733,1.672,1.467,2.508,2.199c1.963,1.373,4.086,2.418,6.37,3.137c3.28,1.317,7.382,1.297,10.847,1.514
					c4.115,0.259,8.475-0.408,12.543-0.979c1.892-0.266,3.734-0.563,5.645-0.617c6.447,0.306,12.894,0.611,19.341,0.917
					c12.641,0.652,25.285,1.216,37.934,1.691c37.855,1.558,75.751,1.995,113.634,2.101c37.834,0.104,75.665-0.837,113.473-2.115
					c13.276-0.45,26.84-0.758,40.081-1.801c1.624-0.145,3.2-0.5,4.729-1.068c1.736-0.67,3.24-1.689,4.508-3.06
					c0.616-0.934,1.231-1.868,1.847-2.804c1.066-2.185,1.772-4.479,2.114-6.888c0.09-1.234,0.179-2.469,0.268-3.704
					c0.054-2.365,0.027-4.73-0.076-7.095c-0.056-1.937-0.46-3.937-0.593-5.88c-0.13-1.925-0.093-3.855-0.21-5.782
					c-0.612-10.063-0.475-20.202-0.524-30.278c-0.161-32.538-0.071-65.08-0.088-97.618c-0.14-264.259,0.198-528.521,0.368-792.78
					c0.219-340.188,0.468-680.378,0.687-1020.565c0.148-230.903,0.186-461.807,0.264-692.708
					c0.005-18.957,0.011-37.916-0.119-56.872c-0.317-46.2,0.348-92.403-0.112-138.602c-0.136-13.676-0.004-27.355-0.033-41.033
					c-0.044-22.068-0.054-44.138-0.066-66.207c-0.05-86.022-0.043-172.043-0.052-258.065c-0.005-40.486-0.352-80.973-0.481-121.459
					c-0.276-86.057-0.023-172.116,0.216-258.173c0.294-105.992,0.605-211.985,0.321-317.979c-0.368,0.059-0.661,0.256-0.88,0.594
					c-0.865,0.945-1.703,1.916-2.514,2.908c-0.654,0.791-2.815,2.738-2.813,3.985c0.404,165.538-0.621,331.075-0.633,496.613
					c-0.003,39.8,0.102,79.598,0.268,119.396c0.057,13.518,0.272,29.475,0.121,42.87c-0.05,4.417-0.064,8.791,0.088,13.207
					c0.469,13.653,0.055,27.36,0.014,41.021c-0.068,21.996-0.077,43.994-0.094,65.99c-0.064,86.152-0.331,172.315,0.362,258.466
					c0.053,6.537-0.305,13.033-0.216,19.57c0.069,5.132,0.22,10.258,0.381,15.389c-0.031,1.211-0.063,2.422-0.093,3.633
					c-0.197,6.892-0.204,13.786-0.022,20.682c0.051,17.141-0.056,34.283-0.106,51.422c-0.068,22.315,0.079,44.625,0.282,66.937
					c0.091,10.096-0.194,20.173,0.053,30.273c0.163,6.633-0.072,13.3-0.102,19.936c-0.038,9.088-0.063,18.176-0.087,27.264
					c-0.049,18.734-0.08,37.467-0.108,56.2c-0.017,10.774-0.03,21.548-0.044,32.32c-0.008,5.725-0.011,11.448-0.013,17.171
					c0.147,4.126,0.295,8.252,0.441,12.378c-0.007,4.025-0.014,8.05-0.021,12.075c-0.229,126.95-0.322,253.9-0.436,380.852
					c-0.301,335.12-0.539,670.237-0.745,1005.356c-0.098,161.828-0.177,323.655-0.217,485.482
					c-0.019,69.362-0.022,138.725-0.005,208.086c0.008,29.371,0.02,58.742,0.041,88.113c0.008,13.589,0.021,27.178,0.033,40.768
					c0.015,14.82,0.209,29.652-0.072,44.471c-0.108,1.876-0.218,3.752-0.327,5.627c0.005,3.992,0.007,7.983,0.01,11.974
					c0.006,5.81,0.012,11.618,0.019,17.428c0.011,10.96,0.026,21.921,0.043,32.882c0.033,20.579,0.08,41.158,0.15,61.736
					c0.05,14.861,0.234,29.726,0.186,44.586c-0.02,5.78-0.13,11.544-0.033,17.326c0.093,5.563,0.223,11.123,0.386,16.685
					c0.23,7.853,0.378,16-2.591,23.419c-0.276,0.65-0.554,1.301-0.83,1.951c-0.762,1.329-1.82,2.351-3.177,3.066
					c-1.545,1.122-3.904,1.155-5.701,1.446c-0.727,0.047-1.454,0.094-2.182,0.142c-7.015,0.054-14.021,0.333-21.022,0.838
					c-25.136,1.088-50.289,1.651-75.44,2.138c-37.743,0.727-75.499,0.431-113.242-0.215c-18.882-0.322-37.757-0.992-56.629-1.665
					c-6.292-0.265-12.584-0.529-18.876-0.793c-12.941-0.843-25.895-1.223-38.864-1.138c-3.731-0.044-7.486-0.237-11.185-0.742
					c-2.297-0.313-4.538-0.995-6.693-1.818c-1.228-0.726-2.457-1.449-3.686-2.172c-1.132-0.86-1.968-1.95-2.508-3.27
					c-2.871-4.989-1.498-10.836-1.541-16.281c-0.05-6.247,0.091-12.483,0.219-18.73c0.336-16.36,0.566-32.724,0.779-49.086
					c0.548-42.196,0.901-84.396,1.157-126.595c0.037-6.131-0.4-12.256-0.356-18.393c0.043-6.121,0.083-12.242,0.123-18.362
					c0.084-12.765,0.161-25.528,0.234-38.292c0.175-29.951,0.316-59.902,0.446-89.854c0.285-65.64,0.487-131.281,0.653-196.922
					c0.853-336.213,0.81-672.428,0.642-1008.642c-0.183-370.391-0.662-740.781-1.319-1111.17
					C82.942,972.13,82.4,678.95,81.34,385.772c-0.046-12.709-0.103-25.417-0.142-38.125c-0.017-5.92,0.436-11.792,0.416-17.715
					c-0.02-5.91-0.04-11.82-0.061-17.73c-0.082-23.479-0.171-46.956-0.274-70.434c-0.151-34.758-0.558-69.517-0.638-104.273
					c-0.007-3.139,0.156-6.267,0.123-9.409c-0.032-3.005-0.062-6.005-0.017-9.012c0.076-5.055,0.172-10.108,0.247-15.163
					c0.126-8.465,1.333-16.811,2.685-25.144c1.061-6.537,3.725-12.667,6.001-18.835c2.008-5.442,5.212-10.296,8.467-15.04
					c2.911-4.241,6.843-7.596,10.733-10.878c4.988-4.209,11.189-6.819,17.176-9.206c9.524-3.798,20.14-4.865,30.256-5.756
					c11.099-0.979,22.327-0.67,33.454-0.634c22.551,0.073,45.097-0.032,67.648,0.249c15.876,0.198,31.751,0.736,47.622,1.217
					c23.632,0.715,47.219-0.076,70.835-0.867c5.992-0.191,11.984-0.382,17.976-0.574c7.61-1.768,15.083-1.786,22.417-0.053
					c2.802,0.367,5.505,1.099,8.108,2.198c2.55,1.011,4.926,2.334,7.128,3.968c4.537,2.932,7.631,7.427,10.28,11.996
					c2.532,4.371,2.977,9.66,3.023,14.569c0.367-0.018,0.675-0.182,0.922-0.493c0.938-0.84,1.854-1.707,2.742-2.6
					C448.988,47.515,451.688,45.451,451.6,44.401z"/>
				<path opacity="0.1091" fill="#FFFFFF" d="M454.321,41.595c-0.523-5.29-0.148-3.242-1.564-8.443
					c-1.248-4.584-4.267-8.436-7.107-12.105c-3.102-4.007-7.496-6.742-11.698-9.404c-4.492-2.843-9.837-3.986-14.938-5.066
					c-1.817-0.174-3.635-0.35-5.452-0.524c-8.234,0.14-16.46,0.491-24.679,1.058c-18.533,0.898-37.044,1.983-55.585,2.725
					c-17.039,0.681-34.066,0.105-51.098-0.404c-22.02-0.657-44.056-0.707-66.084-0.733c-15.251-0.018-30.508,0.039-45.76,0.06
					c-11.172,0.015-22.235,0.728-33.278,2.422c-8.959,1.375-17.374,4.396-25.52,8.245c-4.803,2.27-9.898,5.746-13.682,9.476
					c-5.04,4.968-3.171,2.943-7.866,8.54c-4.118,4.907-6.827,10.804-9.545,16.533c-3.081,6.496-4.62,13.741-6.241,20.691
					c-0.63,2.699-1.055,5.455-1.366,8.212c-0.314,2.77-0.627,5.538-0.941,8.308c-0.527,6.194-0.782,12.398-0.767,18.615
					c-0.115,5.795,0.32,11.093,0.81,16.761c0.665,7.672,0.794,15.398,0.95,23.095c0.714,35.272,0.448,70.58,0.544,105.856
					c0.706,257.903,1.219,515.807,1.695,773.71c1.326,716.594,2.385,1433.191,1.556,2149.786
					c-0.162,139.729-0.42,279.455-0.933,419.182c-0.352,96.089-0.749,192.182-1.809,288.267c-0.166,15.015-0.361,30.03-0.598,45.046
					c-0.097,6.2-0.208,12.402-0.328,18.604c-0.054,2.764-0.112,5.526-0.172,8.289c-0.036,1.681,0.72,5.214,1.704,6.659
					c0.627,0.923,1.255,1.845,1.883,2.769c1.819,1.828,3.898,3.289,6.234,4.386c3.528,2.053,7.82,2.343,11.762,2.766
					c6.405,0.685,13.06-0.685,19.332-1.849c7.527-1.396,13.887,0.071,22.348,0.492c18.959,0.946,37.925,1.643,56.896,2.278
					c44.168,1.477,88.374,1.557,132.559,1.111c37.839-0.381,75.659-1.797,113.455-3.545c2.487-0.116,4.739-0.61,7.111-1.325
					c1.984-0.596,3.283-1.955,4.799-3.249c1.901-1.624,2.83-4.719,3.711-6.898c1.503-3.721,1.143-8.112,1.048-12.01
					c-0.064-2.639-0.501-5.193-0.841-7.798c-0.343-2.635-0.539-5.286-0.736-7.934c-0.674-9.105-0.605-18.275-0.67-27.398
					c-0.098-14.329-0.044-28.66-0.061-42.988c-0.285-240.798,0.112-481.601,0.255-722.398c0.2-340.795,0.449-681.591,0.682-1022.388
					c0.174-255.6,0.312-511.201,0.327-766.801c0.001-28.875-0.04-57.749-0.053-86.623c-0.003-7.011-0.027-14.021-0.066-21.033
					c-0.256-46.567,0.279-93.134-0.105-139.701c-0.267-32.295-0.063-64.603-0.081-96.899c-0.028-47.827-0.028-95.651-0.035-143.478
					c-0.007-39.115-0.015-78.229-0.033-117.344c-0.021-43.017-0.356-86.03-0.494-129.048
					c-0.613-192.049,1.063-384.097,0.541-576.147c-0.001-0.862-1.318,0.792-1.255,0.716c-0.558,0.656-1.097,1.329-1.615,2.018
					c-0.314,0.342-0.547,0.729-0.696,1.163c0.432,165.536-0.604,331.071-0.64,496.608c-0.008,39.795,0.09,79.591,0.255,119.386
					c0.027,6.64,0.057,13.279,0.084,19.917c0.771,7.694,0.812,15.366,0.124,23.013c-0.344,4.323-0.036,8.852,0.047,13.175
					c0.267,13.677,0.063,27.368,0.053,41.046c-0.019,22.01-0.019,44.021-0.021,66.031c-0.011,86.122-0.134,172.245,0.198,258.365
					c0.044,11.651-0.093,23.286,0.132,34.94c0.156,8.08-0.023,16.399,0.005,24.389c0.063,17.138-0.055,34.277-0.116,51.414
					c-0.08,22.299-0.011,44.597,0.188,66.894c0.09,10.09-0.096,20.176,0.049,30.266c0.224,15.747-0.055,31.518-0.068,47.265
					c-0.018,18.746-0.03,37.493-0.043,56.239c-0.007,10.779-0.012,21.557-0.02,32.335c-0.007,13.834,0.193,27.662,0.181,41.494
					c-0.115,126.979-0.192,253.958-0.282,380.936c-0.446,624.099-0.986,1248.199-1.004,1872.298c-0.066,1.887-0.133,3.772-0.2,5.657
					c0.001,3.99,0.002,7.979,0.004,11.97c0.001,5.808,0.003,11.614,0.005,17.42c0.005,10.956,0.01,21.911,0.019,32.866
					c0.013,20.563,0.034,41.126,0.067,61.688c0.025,14.86,0.064,29.722,0.14,44.582c0.059,11.302-0.004,22.585,0.384,33.887
					c0.325,9.499,2.352,18.92,1.223,28.416c-0.596,4.996-4.204,9.531-8.779,11.554c-2.031,0.897-4.63,0.898-6.799,1.067
					c-6.291,0.287-12.582,0.573-18.873,0.861c-12.584,0.538-25.172,1-37.762,1.387c-25.185,0.848-50.382,1.166-75.576,1.41
					c-37.81,0.365-75.621-0.296-113.417-1.309c-18.915-0.506-37.818-1.361-56.72-2.217c-10.475-0.474-14.287-1.756-21.948-0.358
					c-3.534,0.644-6.98,1.239-10.572,1.638c-3.513,0.39-6.975,0.027-10.46-0.381c-3.768-0.441-6.728-2.201-9.862-4.166
					c-4.803-3.014-5.756-8.787-5.648-13.96c1.57-74.713,1.801-149.463,2.22-224.188c0.695-123.944,1.008-247.893,1.251-371.84
					c0.666-339.777,0.595-679.557,0.397-1019.334c-0.216-369.42-0.699-738.842-1.322-1108.261
					c-0.481-285.528-1.043-571.055-1.747-856.582c-0.114-46.587-0.233-93.175-0.363-139.763c-0.05-17.598-0.101-35.193-0.177-52.79
					c-0.065-15.462-0.076-30.935-0.627-46.388c-0.112-3.178-0.262-6.344-0.494-9.515c-0.083-1.067-0.166-2.133-0.249-3.2
					c-0.438-4.373-0.569-8.76-0.395-13.162c-0.118-8.929,0.834-17.775,1.932-26.616c1.827-7.307,3.653-14.613,5.479-21.92
					c5.801-16.736,16.982-29.639,33.545-38.704c4.616-2.481,9.791-3.927,14.787-5.388c5.146-1.504,10.515-2.195,15.805-2.943
					c12.886-1.821,26.133-1.465,39.109-1.392c22.639,0.13,45.275-0.103,67.915,0.084c15.948,0.131,31.89,0.601,47.832,1.055
					c17.864,0.509,35.653-0.053,53.506-0.713c6.204-0.288,12.411-0.577,18.617-0.867c14.229-0.805,28.473-1.248,42.726-1.326
					c5.074,0.324,9.703,2.088,14.323,4.029c4.415,1.855,7.987,5.102,11.459,8.28c2.103,2.188,3.931,4.585,5.487,7.19
					c2.732,4.655,4.194,9.757,4.386,15.306c0.051,0.783,1.222-0.49,1.285-0.551c0.6-0.575,1.181-1.167,1.743-1.779
					C453.884,42.35,454.142,41.999,454.321,41.595z"/>
				<path opacity="0.1091" fill="#FFFFFF" d="M451.951,42.107c-0.114-1.402-0.228-2.804-0.343-4.207
					c-0.495-2.923-1.405-5.713-2.726-8.37c-1.792-4.392-5.261-7.878-8.475-11.221c-3.441-3.577-8.1-5.798-12.494-7.884
					c-4.749-2.253-9.967-2.732-15.104-3.219c-1.741,0.044-3.481,0.088-5.222,0.134c-12.542,0.561-25.081,1.185-37.617,1.873
					c-18.233,0.954-36.427,1.589-54.685,1.867c-5.841-0.103-11.682-0.205-17.523-0.306c-10.517-0.382-21.036-0.674-31.557-0.876
					c-22.353-0.526-44.719-0.455-67.076-0.372c-11.441,0.042-22.882-0.116-34.323,0.023c-11.046,0.134-21.941,1.215-32.771,3.37
					c-5.226,1.04-10.191,2.903-15.132,4.84c-4.979,1.952-9.381,4.936-13.749,7.952c-4.591,3.172-8.221,7.519-11.758,11.757
					c-5.384,6.454-8.616,14.435-11.557,22.19c-2.623,6.914-3.856,14.3-5.129,21.541c-1.535,8.739-1.61,17.746-1.835,26.583
					c-0.219,8.634,0.753,17.272,1.062,25.899c0.554,15.5,0.435,31.047,0.516,46.555c0.212,40.248,0.291,80.497,0.406,120.745
					c0.768,271.824,1.225,543.654,1.719,815.479c1.299,714.361,2.374,1428.729,1.272,2143.091
					c-0.205,132.876-0.507,265.753-1.12,398.628c-0.4,86.766-0.668,173.535-1.965,260.294c-0.186,12.382-0.297,24.772-0.667,37.148
					c0.112,1.093,0.224,2.185,0.338,3.275c0.481,2.098,1.423,3.967,2.822,5.604c0.814,0.712,1.629,1.424,2.443,2.137
					c1.892,1.329,3.939,2.348,6.141,3.058c3.157,1.289,7.074,1.324,10.418,1.56c4.035,0.282,8.235-0.256,12.236-0.74
					c8.94-1.087,12.742-0.198,24.892,0.376c18.962,0.897,37.92,1.69,56.894,2.346c37.85,1.308,75.73,1.526,113.597,1.402
					c37.828-0.121,75.645-1.277,113.44-2.775c7.652-0.305,15.805-0.231,23.545-1.389c1.679-0.324,3.248-0.934,4.707-1.827
					c1.783-1.114,3.151-2.613,4.106-4.497c2.059-2.935,2.3-7.072,2.579-10.48c0.249-3.024,0.039-6.18-0.289-9.19
					c-0.424-3.892-0.406-7.828-0.503-11.737c-0.256-10.408-0.246-20.828-0.281-31.239c-0.11-33.235-0.054-66.472-0.063-99.706
					c-0.083-265.934,0.216-531.869,0.377-797.803c0.206-340.015,0.465-680.029,0.685-1020.044
					c0.148-228.885,0.231-457.769,0.241-686.654c0-11.211-0.05-22.421-0.054-33.631c-0.003-6.943,0.153-13.92-0.107-20.86
					c-0.021-5.913-0.044-11.824-0.066-17.737c-0.012-11.469,0.008-22.936,0.056-34.405c0.05-17.139,0.111-34.277,0.113-51.417
					c0.002-13.196-0.127-26.392-0.18-39.587c-0.149-37.397-0.063-74.797-0.077-112.192c-0.037-84.892-0.022-169.781-0.066-254.671
					c-0.023-44.75-0.421-89.499-0.527-134.249c-0.205-86.034,0.074-172.07,0.319-258.105c0.282-99.381,0.53-198.761,0.265-298.143
					c-0.463,0.195-0.821,0.525-1.077,0.984c-1.102,1.421-2.173,2.864-3.215,4.328c-1.061,1.452-2.089,2.924-3.088,4.418
					c-0.356,0.389-0.554,0.834-0.593,1.334c0.352,145.677-0.392,291.353-0.598,437.028c-0.047,33.118-0.037,66.234,0.001,99.351
					c0.046,39.95-0.051,79.914,0.667,119.856c-0.106,0.89-0.213,1.78-0.319,2.67c-0.025,2.681-0.054,5.362-0.085,8.043
					c0.06,1.72,0.119,3.44,0.179,5.161c0.218,3.934,0.265,7.87,0.145,11.808c-0.133,15.477-0.142,30.956-0.173,46.433
					c-0.161,78.506-0.119,157.016,0.015,235.522c0.028,15.834,0.075,31.668,0.14,47.501c0.033,8.065,0.093,16.129,0.162,24.193
					c0.057,6.561-0.314,13.079-0.22,19.638c0.071,5.101,0.22,10.194,0.379,15.292c-0.031,1.221-0.063,2.442-0.096,3.663
					c-0.196,6.901-0.204,13.802-0.021,20.708c0.101,34.707-0.417,69.407,0.256,104.109c0.018-0.133,0.037-0.266,0.056-0.398
					c-0.427,1.94-0.195,4.038-0.195,6.015c0,3.517,0.081,7.034,0.036,10.55c-0.06,4.62-0.122,9.242-0.132,13.862
					c-0.013,6.914,0.215,13.82,0.173,20.735c-0.219,35.89-0.229,71.782-0.279,107.673c-0.016,11.077-0.04,22.155-0.04,33.232
					c0.001,6.029,0.227,12.029,0.445,18.053c0.22,6.052-0.022,12.169-0.033,18.225c-0.05,28.655-0.092,57.311-0.127,85.965
					c-0.085,64.542-0.151,129.084-0.214,193.626c-0.318,328.899-0.554,657.8-0.763,986.699
					c-0.192,303.106-0.478,606.214-0.237,909.32c0.01,13.328,0.023,26.655,0.037,39.984c0.014,12.381,0.278,24.771-0.417,37.137
					c0.002,2.007,0.003,4.014,0.005,6.021c0.004,3.942,0.007,7.886,0.011,11.829c0.006,5.735,0.013,11.47,0.018,17.204
					c0.016,12.521,0.033,25.041,0.057,37.562c0.033,18.509,0.076,37.017,0.151,55.526c0.063,15.436,0.429,30.891-0.006,46.322
					c-0.155,5.485,0.128,11.019,0.216,16.505c0.073,4.455,0.209,8.908,0.323,13.362c0.084,3.35,0.097,6.689-0.439,9.996
					c-0.192,1.194-0.433,2.379-0.682,3.563c-0.068,1.356-0.283,2.69-0.644,4.002c-0.503,1.249-0.978,2.511-1.425,3.781
					c-1.436,3.946-7.344,4.183-10.712,4.399c-13.2,0.855-26.65,1.048-39.873,1.538c-18.85,0.7-37.71,1.061-56.566,1.42
					c-37.735,0.718-75.482,0.411-113.214-0.245c-18.884-0.328-37.757-1.008-56.629-1.687c-12.598-0.511-25.195-1.075-37.789-1.694
					c-6.945,0.133-13.877-0.033-20.796-0.498c-3.982-0.247-7.82-0.516-11.7-1.514c-2.162-0.556-3.691-1.037-5.614-2.22
					c-0.554-0.303-1.107-0.604-1.661-0.908c-1.094-0.793-1.891-1.819-2.391-3.078c-2.803-4.894-1.426-10.849-1.46-16.192
					c-0.049-7.363,0.146-14.717,0.289-22.079c0.684-35.49,1.028-70.987,1.351-106.48c0.199-21.941,0.38-43.882,0.491-65.823
					c0.032-6.152-0.379-12.296-0.336-18.452c0.043-6.119,0.083-12.238,0.123-18.357c0.099-14.955,0.186-29.911,0.27-44.867
					c0.339-60.638,0.576-121.278,0.774-181.917c1.064-324.607,1.068-649.217,0.97-973.825
					c-0.207-680.505-1.067-1361.015-3.212-2041.517c-0.108-33.874-0.225-67.745-0.351-101.618
					c-0.03-8.271-0.116-16.538,0.054-24.806c0.315-3.877,0.41-7.759,0.282-11.646c-0.014-3.961-0.027-7.922-0.042-11.882
					c-0.051-15.033-0.106-30.065-0.165-45.1c-0.1-25.998-0.21-51.997-0.35-77.995c-0.058-10.866-0.122-21.731-0.195-32.598
					c-0.063-9.333-0.296-18.68-0.005-28.01c0.127-4.097,0.125-8.194,0.156-12.293c0.046-5.93,0.37-11.9,0.511-17.823
					c0.247-5.748,0.775-11.471,1.587-17.168c0.659-4.909,1.688-9.738,3.087-14.489c1.355-3.867,2.782-7.707,4.284-11.52
					c1.534-3.544,3.329-6.949,5.385-10.217c3.429-5.927,8.548-10.606,13.765-14.897c4.958-4.078,11.107-6.569,17.018-8.861
					c6.231-2.418,13.003-3.449,19.566-4.472c7.063-1.102,14.28-1.301,21.409-1.555c7.499-0.267,15.02-0.105,22.522-0.078
					c11.405,0.043,22.81-0.019,34.216-0.012c21.831,0.012,43.653,0.523,65.476,1.134c10.918,0.404,21.838,0.703,32.762,0.896
					c11.781,0.047,23.56-0.104,35.337-0.453c11.877-0.339,23.753-0.67,35.63-0.991c7.419-1.643,14.695-1.612,21.829,0.093
					c2.645,0.355,5.186,1.078,7.625,2.163c2.409,0.968,4.642,2.245,6.699,3.833c4.302,2.873,7.204,7.161,9.682,11.578
					c2.469,4.4,2.789,9.706,2.784,14.604c0.473-0.161,0.851-0.461,1.136-0.9c1.185-1.329,2.342-2.682,3.47-4.061
					c1.146-1.363,2.263-2.751,3.35-4.162C451.655,43.028,451.881,42.6,451.951,42.107z"/>
				<path opacity="0.1091" fill="#FFFFFF" d="M452.004,45.574c-0.127-1.359-0.256-2.718-0.385-4.079
					c-0.559-2.833-1.469-5.552-2.729-8.152c-1.753-4.32-5.169-7.794-8.31-11.101c-3.386-3.564-7.974-5.805-12.304-7.927
					c-4.677-2.291-9.868-2.846-14.954-3.401c-1.679,0.008-3.356,0.017-5.035,0.023c-12.614,0.55-25.226,1.156-37.834,1.819
					c-18.241,0.917-36.441,1.571-54.701,1.863c-10.932-0.253-21.863-0.506-32.795-0.76c-10.802-0.293-21.604-0.505-32.408-0.634
					c-18.812-0.298-37.634-0.227-56.447-0.079c-9.614,0.076-19.235-0.269-28.847,0.003c-9.242,0.259-18.363,0.897-27.518,2.262
					c-5.31,0.792-10.426,2.3-15.54,3.882c-5.093,1.577-9.756,4.127-14.373,6.729c-4.804,2.708-8.781,6.534-12.707,10.331
					c-5.862,5.665-9.679,13.119-13.203,20.333c-3.101,6.352-4.691,13.467-6.4,20.271c-2.051,8.174-2.465,16.791-3.062,25.152
					c-0.773,10.86,0.172,21.647,0.677,32.478c0.713,15.297,0.58,30.659,0.666,45.969c0.221,39.695,0.285,79.391,0.396,119.087
					c0.757,270.324,1.23,540.652,1.72,810.978c1.298,714.7,2.396,1429.406,1.307,2144.106
					c-0.204,133.667-0.497,267.333-1.089,400.997c-0.388,87.82-0.69,175.645-1.95,263.457c-0.183,12.689-0.292,25.391-0.644,38.075
					c-0.026,0.885-0.051,1.768-0.076,2.652c-0.036,2.22,0.438,4.324,1.419,6.313c1.169,3.271,4.625,5.131,7.37,6.775
					c3.189,1.912,7.188,2.216,10.771,2.672c4.496,0.572,9.112-0.01,13.589-0.47c2.343-0.239,4.677-0.714,7.013-1.017
					c0.461-0.016,0.92-0.031,1.381-0.045c12.759,0.637,25.519,1.261,38.279,1.87c37.865,1.829,75.781,2.493,113.685,2.83
					c37.84,0.338,75.683-0.38,113.505-1.435c18.902-0.527,37.793-1.4,56.682-2.27c1.568-0.066,3.121-0.254,4.66-0.563
					c1.69-0.352,3.254-1.007,4.692-1.966c3.022-1.614,4.179-5.258,5.283-8.189c1.275-3.384,0.907-7.476,0.876-11.004
					c-0.042-4.389-0.806-8.7-0.81-13.106c-0.005-4.038-0.37-8.116-0.46-12.16c-0.127-5.741-0.155-11.486-0.195-17.229
					c-0.222-31.835-0.081-63.679-0.103-95.515c-0.173-262.565,0.197-525.135,0.358-787.701
					c0.211-340.346,0.456-680.691,0.688-1021.038c0.159-232.91,0.17-465.818,0.271-698.728c0.008-19.744,0.003-39.49-0.109-59.234
					c-0.254-44.884,0.438-89.776-0.071-134.658c-0.144-12.683-0.03-25.362-0.066-38.045c-0.061-21.313-0.064-42.625-0.081-63.937
					c-0.063-86.935-0.047-173.87-0.055-260.804c-0.002-36.375-0.267-72.746-0.416-109.12c-0.355-86.082-0.133-172.166,0.097-258.248
					c0.299-112.606,0.679-225.21,0.377-337.817c-0.344,0.005-0.629,0.155-0.855,0.448c-0.852,0.779-1.678,1.586-2.478,2.419
					c-0.6,0.612-2.798,2.303-2.795,3.394c0.404,165.539-0.62,331.075-0.631,496.612c-0.003,39.799,0.101,79.597,0.267,119.397
					c0.086,20.633-0.275,41.285,0.401,61.907c0.215,6.523-0.093,13.125-0.124,19.652c-0.037,7.974-0.053,15.947-0.07,23.921
					c-0.055,22.699-0.063,45.398-0.075,68.097c-0.025,44.541-0.016,89.081,0.021,133.621c0.017,20.833,0.049,41.667,0.096,62.5
					c0.046,19.657,0.289,39.316,0.216,58.972c-0.087,2.065-0.174,4.13-0.262,6.196c0.05,3.96,0.103,7.92,0.155,11.88
					c0.06,4.48,0.317,8.92,0.205,13.401c-0.317,12.63-0.021,25.337-0.028,37.972c-0.009,17.073-0.097,34.146-0.128,51.219
					c-0.032,17.271,0.495,34.551,0.283,51.822c-0.057,4.596-0.112,9.193-0.124,13.791c-0.017,5.875,0.217,11.746,0.184,17.62
					c-0.091,16.1-0.134,32.201-0.174,48.301c-0.048,19.048-0.074,38.096-0.102,57.144c-0.016,10.92-0.027,21.841-0.041,32.762
					c-0.009,5.914,0.002,11.801,0.206,17.712c0.28,8.159,0.196,16.313,0.184,24.477c-0.214,127.859-0.313,255.719-0.425,383.578
					c-0.295,335.569-0.535,671.14-0.739,1006.71c-0.097,161.364-0.179,322.731-0.217,484.096
					c-0.017,68.962-0.022,137.924-0.004,206.885c0.008,29.14,0.021,58.279,0.041,87.419c0.009,13.463,0.021,26.928,0.033,40.391
					c0.016,14.476,0.428,29.006-0.391,43.461c0.002,2.009,0.003,4.018,0.006,6.025c0.003,3.944,0.006,7.89,0.01,11.832
					c0.006,5.739,0.011,11.477,0.017,17.215c0.011,10.815,0.027,21.629,0.044,32.443c0.03,20.244,0.075,40.486,0.152,60.73
					c0.056,14.458,0.489,28.961,0.078,43.415c-0.313,11.028,0.171,22.112,0.445,33.141c0.103,4.135,0.113,8.147-0.629,12.231
					c-0.292,1.608-0.641,3.177-0.897,4.795c-0.361,2.263-1.473,4.328-2.385,6.4c-1.777,4.033-7.368,4.339-11.048,4.565
					c-13.21,0.818-26.638,1.044-39.867,1.538c-25.141,0.938-50.298,1.347-75.453,1.676c-37.745,0.498-75.499-0.024-113.234-0.899
					c-18.879-0.438-37.749-1.224-56.616-2.014c-6.292-0.301-12.584-0.601-18.876-0.901c-7.049,0.293-14.082,0.191-21.099-0.31
					c-1.816-0.125-3.661-0.081-5.481-0.152c-2.358-0.092-4.606-0.457-6.915-0.931c-2.361-0.484-4.149-1.176-6.237-2.378
					c-1.258-0.54-2.317-1.343-3.178-2.406c-0.831-1.303-1.545-2.665-2.141-4.091c-1.197-2.524-0.813-5.774-0.643-8.449
					c0.183-2.861,0.144-5.688,0.122-8.553c-0.05-6.354,0.187-12.712,0.31-19.064c0.322-16.68,0.552-33.359,0.764-50.041
					c0.238-18.841,0.422-37.683,0.594-56.524c0.097-10.595,0.183-21.19,0.266-31.787c0.105-13.382,0.468-26.794,0.05-40.169
					c-0.382-12.256-0.068-24.535,0.011-36.795c0.083-12.883,0.158-25.764,0.23-38.645c0.169-30.191,0.31-60.382,0.438-90.573
					c0.278-66.044,0.475-132.089,0.639-198.135c0.839-337.115,0.785-674.233,0.612-1011.35
					c-0.189-370.167-0.674-740.335-1.332-1110.503c-0.518-291.826-1.06-583.652-2.116-875.477
					c-0.045-12.559-0.221-25.124-0.02-37.682c0.108-1.9,0.216-3.802,0.324-5.703c-0.013-4-0.026-7.999-0.04-11.999
					c-0.02-5.849-0.041-11.699-0.061-17.548c-0.083-23.2-0.173-46.401-0.273-69.601c-0.079-18.172-0.17-36.344-0.279-54.516
					c-0.046-7.867-0.106-15.734-0.172-23.602c-0.066-8.092-0.296-16.189-0.118-24.28c0.133-6.021-0.08-12.044-0.021-18.068
					c0.072-7.13,0.241-14.188,0.625-21.307c0.426-7.882,1.924-15.541,3.719-23.199c0.695-1.961,1.39-3.924,2.084-5.887
					c1.255-3.979,2.818-7.834,4.685-11.564c2.296-5.064,5.698-9.415,9.163-13.7c3.164-3.912,7.333-6.886,11.389-9.769
					c5.348-3.803,11.711-6.022,17.877-8.053c4.853-1.597,9.971-2.367,14.994-3.19c8.724-1.433,18.069-1.599,26.771-1.776
					c11.415-0.232,22.843,0.063,34.261-0.044c32.686-0.306,65.372,0.478,98.04,1.46c13.28,0.399,22.032,0.291,35.319,0.162
					c11.972-0.281,23.939-0.657,35.906-1.126c12.38-0.386,24.76-0.839,37.135-1.355c1.172,0.213,2.345,0.427,3.517,0.64
					c2.861,0.378,5.624,1.121,8.29,2.23c3.962,1.354,7.247,4.035,10.435,6.63c3.152,2.567,5.268,6.194,7.26,9.646
					c2.506,4.348,3.039,9.618,3.149,14.505c0.006,0.241,3.67-2.501,3.58-2.428C449.348,48.224,452.09,46.486,452.004,45.574z"/>
				<path opacity="0.1091" fill="#FFFFFF" d="M452.793,40.384c-0.512-5.272-0.163-3.342-1.553-8.534
					c-1.22-4.561-4.254-8.414-7.075-12.053c-3.087-3.981-7.458-6.691-11.643-9.323c-4.451-2.8-9.739-3.907-14.79-4.954
					c-1.797-0.162-3.595-0.324-5.391-0.486c-8.179,0.181-16.351,0.551-24.515,1.11c-18.551,0.933-37.083,1.967-55.644,2.7
					c-17.023,0.674-34.038,0.081-51.054-0.441c-22.017-0.677-44.052-0.723-66.078-0.753c-15.242-0.022-30.486,0.028-45.728,0.044
					c-11.156,0.012-22.202,0.732-33.229,2.432c-5.334,0.822-10.468,2.382-15.593,4.013c-5.132,1.633-9.812,4.263-14.443,6.94
					c-4.831,2.79-8.814,6.713-12.744,10.595c-5.882,5.812-9.696,13.402-13.22,20.747c-3.093,6.445-4.672,13.636-6.339,20.534
					c-2.004,8.299-2.432,16.997-3.015,25.475c-0.522,7.589-0.458,15.431,0.219,23.006c0.285,3.181,0.415,6.379,0.584,9.568
					c0.808,15.311,0.688,30.695,0.775,46.023c0.226,39.703,0.281,79.409,0.389,119.112c0.738,270.323,1.234,540.648,1.722,810.972
					c1.292,714.696,2.381,1429.397,1.31,2144.096c-0.201,133.657-0.493,267.314-1.08,400.971
					c-0.386,87.817-0.71,175.642-1.96,263.452c-0.182,12.682-0.266,25.377-0.651,38.055c-0.058,1.924-0.3,4.398,0.356,6.227
					c0.373,1.038,0.745,2.076,1.117,3.114c1.081,2.175,2.629,3.948,4.642,5.325c3.035,2.731,7.189,3.752,11.023,4.608
					c4.927,1.099,10.151,0.601,15.109,0.092c2.819-0.288,5.617-0.853,8.401-1.369c7.555-1.402,13.598,0.063,22.312,0.505
					c37.887,1.933,75.803,2.905,113.733,3.453c37.854,0.547,75.716,0.043,113.56-0.798c18.914-0.421,37.818-1.187,56.72-1.95
					c8.053-0.326,17.797,0.262,25.999-2.219c4.714-1.426,6.661-5.927,8.286-10.039c1.432-3.619,1.09-7.887,0.983-11.672
					c-0.038-1.328-0.126-2.658-0.312-3.973c-1.253-8.901-1.764-17.786-1.911-26.768c-0.464-28.269-0.188-56.563-0.205-84.833
					c-0.143-253.817,0.164-507.636,0.321-761.451c0.21-340.859,0.466-681.717,0.685-1022.576
					c0.156-242.697,0.292-485.396,0.282-728.094c-0.001-23.632,0.043-47.267-0.087-70.901c-0.175-31.798-0.065-63.593,0.026-95.391
					c0.096-33.604-0.169-67.213-0.211-100.818c-0.104-88.097-0.058-176.195-0.085-264.292
					c-0.032-104.043-0.699-208.082-0.566-312.127c0.186-145.677,0.988-291.353,0.595-437.029c-0.002-1.002-1.517,1.341-1.367,1.123
					c-0.613,0.894-1.204,1.801-1.771,2.722c-0.344,0.465-0.6,0.969-0.769,1.515c0.431,165.537-0.604,331.073-0.641,496.612
					c-0.008,39.797,0.09,79.594,0.258,119.392c0.021,6.635,0.044,13.271,0.066,19.906c0.798,7.702,0.843,15.381,0.133,23.035
					c-0.352,4.32-0.047,8.848,0.048,13.17c0.301,13.676,0.065,27.374,0.05,41.054c-0.023,22.02-0.024,44.039-0.028,66.059
					c-0.017,86.105-0.195,172.214,0.219,258.318c0.03,6.569-0.148,13.125-0.107,19.693c0.032,5.078,0.135,10.152,0.247,15.23
					c-0.016,1.229-0.03,2.458-0.046,3.687c-0.089,6.911-0.077,13.823,0.03,20.735c0.063,17.14-0.054,34.282-0.115,51.421
					c-0.078,22.286-0.004,44.563,0.2,66.844c0.093,10.09-0.111,20.174,0.05,30.266c0.25,15.759-0.065,31.549-0.082,47.312
					c-0.021,18.754-0.037,37.509-0.05,56.264c-0.009,10.782-0.017,21.563-0.022,32.345c-0.008,13.804,0.219,27.602,0.205,41.406
					c-0.127,126.997-0.206,253.995-0.301,380.994c-0.246,335.134-0.485,670.268-0.701,1005.403
					c-0.105,161.812-0.195,323.622-0.263,485.435c-0.028,69.344-0.048,138.688-0.055,208.031
					c-0.005,57.785,0.175,115.574,0.023,173.359c-0.073,1.922-0.146,3.843-0.219,5.762c0.002,3.989,0.003,7.979,0.005,11.968
					c0.001,5.806,0.004,11.611,0.007,17.416c0.005,10.954,0.013,21.905,0.021,32.857c0.016,20.554,0.04,41.106,0.079,61.66
					c0.026,14.841,0.087,29.683,0.146,44.524c0.046,11.262-0.018,22.504,0.397,33.765c0.141,3.841,0.663,7.681,1.164,11.492
					c0.217,1.648,0.432,3.297,0.65,4.945c2.112,15.972-0.677,20.622-10.202,23.143c-0.764,0.113-1.528,0.229-2.292,0.342
					c-7.03,0.653-14.079,1.008-21.149,1.065c-18.876,0.865-37.767,1.395-56.654,1.92c-44.095,1.229-88.217,1.128-132.319,0.486
					c-37.875-0.551-75.714-2.25-113.548-4.016c-1.603-0.074-3.524,0.564-5.073,0.858c-2.908,0.551-5.813,0.896-8.756,1.19
					c-3.625,0.362-7.132-0.125-10.707-0.658c-3.923-0.584-6.63-2.595-9.7-4.913c-4.371-3.3-5.247-9.08-5.027-14.271
					c0.163-3.857,0.161-7.718,0.197-11.578c0.13-13.809,0.466-27.618,0.647-41.428c0.248-18.796,0.436-37.592,0.61-56.388
					c0.429-46.568,0.595-93.136,0.847-139.703c0.692-127.206,1-254.415,1.236-381.624c0.64-343.061,0.557-686.12,0.333-1029.18
					c-0.242-368.304-0.736-736.605-1.377-1104.907c-0.277-158.801-0.588-317.601-0.936-476.4
					c-0.147-66.977-0.302-133.952-0.466-200.929c-0.069-28.492-0.143-56.985-0.217-85.477c-0.035-13.271-0.071-26.542-0.107-39.813
					c-0.04-14.475-0.291-28.968-0.009-43.44c0.227-11.744-0.065-23.523-0.099-35.269c-0.03-11.023-0.062-22.044-0.094-33.066
					c-0.063-21.254-0.127-42.507-0.204-63.76c-0.058-16.299-0.112-32.598-0.245-48.897c-0.118-14.457-0.451-28.893-0.936-43.342
					c-0.317-9.479,0.438-18.893,1.35-28.313c0.747-7.718,2.635-15.143,4.904-22.52c1.974-6.413,4.876-12.238,8.108-18.079
					c2.814-5.087,6.786-9.315,10.775-13.466c7.267-7.563,17.249-11.964,26.972-15.302c4.951-1.7,10.199-2.536,15.337-3.423
					c7.156-1.236,14.485-1.515,21.725-1.823c11.354-0.481,22.75-0.091,34.113-0.13c29.51-0.101,58.993,0.06,88.497,0.77
					c5.168,0.146,10.336,0.295,15.504,0.443c11.73,0.364,23.461,0.376,35.191,0.036c18.192-0.253,36.407-1.38,54.585-2.108
					c6.533-0.311,13.064-0.623,19.596-0.933c2.918,0.278,5.819,0.671,8.706,1.181c6.079,0.938,11.468,4.3,16.363,7.779
					c2.291,1.841,4.341,3.916,6.15,6.228c4.391,4.996,6.297,12.19,6.668,18.605c0.054,0.929,1.482-1.058,1.426-0.988
					c0.664-0.826,1.306-1.668,1.928-2.526C452.306,41.379,452.591,40.904,452.793,40.384z"/>
				<path opacity="0.1091" fill="#FFFFFF" d="M451.759,44.74c-0.116-1.387-0.23-2.774-0.346-4.161
					c-0.501-2.871-1.4-5.611-2.699-8.223c-1.759-4.296-5.165-7.707-8.314-10.976c-3.363-3.492-7.914-5.676-12.203-7.73
					c-4.627-2.214-9.715-2.732-14.729-3.255c-1.688,0.02-3.374,0.039-5.062,0.06c-12.494,0.499-24.984,1.076-37.471,1.729
					c-18.201,0.896-36.363,1.499-54.583,1.752c-5.837-0.105-11.675-0.21-17.514-0.315c-10.512-0.381-21.027-0.674-31.545-0.882
					c-22.345-0.534-44.702-0.48-67.05-0.408c-11.442,0.038-22.884-0.112-34.325,0.018c-11.034,0.126-21.924,1.168-32.755,3.262
					c-5.219,1.009-10.187,2.824-15.134,4.71c-4.979,1.899-9.405,4.82-13.792,7.772c-4.613,3.102-8.285,7.37-11.867,11.542
					c-5.462,6.36-8.778,14.28-11.798,21.977c-2.703,6.891-4.003,14.284-5.334,21.521c-1.608,8.732-1.707,17.76-1.967,26.6
					c-0.256,8.666,0.67,17.35,0.953,26.009c0.505,15.522,0.41,31.084,0.487,46.614c0.201,40.241,0.281,80.483,0.393,120.724
					c0.758,271.827,1.23,543.657,1.723,815.485c1.294,714.363,2.367,1428.733,1.274,2143.097
					c-0.203,132.884-0.502,265.768-1.11,398.649c-0.397,86.764-0.688,173.528-1.967,260.284c-0.183,12.386-0.32,24.779-0.66,37.163
					c0.111,1.088,0.221,2.176,0.332,3.266c0.482,2.115,1.423,4.002,2.821,5.662c0.824,0.714,1.648,1.43,2.472,2.144
					c1.937,1.356,4.028,2.407,6.271,3.153c1.171,0.256,2.34,0.511,3.511,0.766c2.354,0.379,4.724,0.611,7.107,0.695
					c4.022,0.268,8.299-0.383,12.281-0.908c1.867-0.248,3.685-0.52,5.568-0.553c6.421,0.343,12.843,0.687,19.265,1.029
					c12.648,0.655,25.3,1.224,37.957,1.708c37.859,1.577,75.759,2.019,113.646,2.13c37.833,0.114,75.66-0.821,113.469-2.098
					c13.271-0.447,26.845-0.739,40.079-1.799c1.627-0.146,3.204-0.503,4.735-1.072c1.737-0.691,3.24-1.726,4.512-3.103
					c0.587-0.935,1.174-1.868,1.761-2.805c1.021-2.186,1.693-4.474,2.021-6.862c0.041-1.215,0.083-2.429,0.124-3.645
					c-0.033-2.305-0.126-4.607-0.273-6.909c-0.1-1.877-0.507-3.785-0.652-5.671c-0.143-1.854-0.072-3.731-0.127-5.592
					c-0.304-10.047-0.182-20.139-0.226-30.191c-0.143-32.536-0.064-65.074-0.079-97.611c-0.128-264.258,0.196-528.52,0.366-792.78
					c0.221-340.188,0.473-680.378,0.687-1020.567c0.147-230.906,0.198-461.813,0.259-692.72c0.006-18.957,0.02-37.916-0.118-56.873
					c-0.337-46.192,0.299-92.389-0.103-138.583c-0.119-13.68-0.01-27.362-0.039-41.042c-0.046-22.067-0.053-44.134-0.065-66.201
					c-0.048-86.024-0.037-172.051-0.055-258.076c-0.009-40.486-0.351-80.973-0.48-121.459
					c-0.277-86.058-0.023-172.117,0.215-258.175c0.293-105.992,0.604-211.984,0.322-317.978c-0.486,0.147-0.883,0.438-1.192,0.871
					c-1.265,1.303-2.503,2.631-3.715,3.985c-1.226,1.338-2.426,2.703-3.597,4.09c-0.401,0.35-0.65,0.773-0.749,1.271
					c0.345,145.677-0.397,291.351-0.597,437.028c-0.046,33.117-0.034,66.236,0.006,99.354c0.047,39.966-0.028,79.942,0.657,119.901
					c-0.113,0.858-0.227,1.716-0.341,2.575c-0.023,2.674-0.051,5.348-0.08,8.021c0.065,1.738,0.132,3.476,0.196,5.214
					c0.241,3.945,0.292,7.894,0.155,11.844c-0.162,15.448-0.173,30.899-0.212,46.348c-0.197,78.501-0.146,157.004,0.009,235.505
					c0.031,15.848,0.087,31.697,0.163,47.547c0.039,8.079,0.109,16.159,0.18,24.238c0.059,6.536-0.362,13.019-0.249,19.555
					c0.089,5.135,0.246,10.265,0.414,15.398c-0.036,1.208-0.072,2.417-0.108,3.626c-0.229,6.888-0.242,13.777-0.038,20.672
					c0.096,34.744-0.391,69.479,0.299,104.219c0.033-0.131,0.066-0.263,0.101-0.395c-0.607,2.336-0.247,5.059-0.249,7.466
					c-0.003,3.701,0.052,7.397-0.007,11.097c-0.188,11.946,0.129,23.877,0.056,35.82c-0.223,36.542-0.261,73.084-0.321,109.627
					c-0.02,11.229-0.037,22.458-0.02,33.688c0.01,6.139,0.507,12.261,0.494,18.407c-0.014,6.14-0.026,12.281-0.039,18.422
					c-0.057,28.925-0.102,57.85-0.145,86.775c-0.095,64.981-0.166,129.962-0.234,194.943c-0.342,329.542-0.57,659.084-0.782,988.625
					c-0.193,301.952-0.488,603.905-0.173,905.859c0.014,13.204,0.03,26.409,0.05,39.613c0.01,6.299,0.026,12.599,0.017,18.898
					c-0.056,2-0.112,4-0.167,5.999c-0.358,3.881-0.473,7.77-0.342,11.666c0.024,23.899,0.058,47.797,0.111,71.697
					c0.041,18.206,0.1,36.412,0.186,54.617c0.035,7.624,0.089,15.245,0.147,22.868c0.058,7.442-0.235,14.887-0.152,22.324
					c0.06,5.356,0.138,10.714,0.242,16.069c0.081,4.262,0.276,8.557-0.009,12.812c-0.114,1.701-0.246,3.398-0.383,5.098
					c-0.089,1.103-0.64,2.354-0.965,3.406c-0.4,1.297-0.71,2.169-0.867,3.558c-0.185,1.168-0.581,2.259-1.188,3.273
					c-0.21,1.129-0.733,2.088-1.57,2.876c-1.021,1.316-3.466,1.654-4.944,1.866c-2.152,0.307-4.206,0.398-6.379,0.396
					c-6.277,0.266-12.554,0.531-18.831,0.799c-12.557,0.497-25.114,0.917-37.677,1.262c-18.843,0.575-37.694,0.81-56.546,1.042
					c-37.717,0.467-75.439-0.091-113.146-1c-18.867-0.455-37.722-1.266-56.577-2.083c-12.847-0.742-25.706-1.2-38.573-1.375
					c-0.76-0.144-1.524-0.253-2.295-0.327c-1.738-0.214-3.471-0.453-5.204-0.705c-1.852-0.27-3.598-0.992-5.424-1.386
					c-1.632-0.352-3.048-1.705-4.48-2.498c-1.585-0.878-2.263-3.525-2.911-5.012c-1.083-2.487-0.618-5.692-0.462-8.3
					c0.173-2.866,0.128-5.701,0.103-8.571c-0.072-7.489,0.231-14.991,0.376-22.479c0.695-36.083,1.034-72.172,1.356-108.259
					c0.097-10.722,0.181-21.442,0.264-32.164c0.09-11.562,0.368-23.137-0.033-34.693c-0.426-12.259-0.087-24.55-0.007-36.816
					c0.098-15.093,0.186-30.186,0.271-45.278c0.342-61.08,0.577-122.159,0.778-183.24c1.073-325.647,1.064-651.298,0.963-976.947
					c-0.116-372.088-0.555-744.175-1.173-1116.263c-0.512-307.114-1.089-614.23-2.101-921.344
					c-0.111-33.592-0.226-67.185-0.366-100.775c-0.035-8.078-0.027-16.103,0.44-24.169c-0.014-4-0.028-8-0.042-12
					c-0.016-3.921-0.029-7.841-0.043-11.761c-0.054-14.867-0.112-29.732-0.173-44.597c-0.104-25.642-0.226-51.283-0.371-76.922
					c-0.06-10.673-0.132-21.346-0.205-32.019c-0.063-9.085-0.161-18.149,0.188-27.229c0.116-3.025,0.083-6.068,0.133-9.095
					c0.097-5.839,0.498-11.714,0.664-17.548c0.271-5.662,0.825-11.298,1.66-16.905c0.662-4.809,1.725-9.525,3.19-14.151
					c1.455-3.742,2.923-7.479,4.404-11.21c1.538-3.424,3.323-6.714,5.359-9.867c3.403-5.724,8.471-10.198,13.595-14.302
					c4.915-3.935,11-6.293,16.818-8.482c6.195-2.331,12.918-3.295,19.425-4.271c7.045-1.058,14.238-1.23,21.343-1.467
					c7.496-0.25,15.012-0.083,22.51-0.057c11.396,0.039,22.792-0.004,34.188,0.015c21.822,0.035,43.635,0.585,65.445,1.222
					c10.909,0.415,21.82,0.732,32.734,0.954c11.744,0.079,23.486-0.023,35.227-0.307c11.797-0.267,23.594-0.529,35.392-0.785
					c7.267-1.715,14.329-1.593,21.19,0.366c2.484,0.38,4.857,1.123,7.116,2.226c2.263,0.955,4.339,2.216,6.23,3.783
					c4.028,2.867,6.699,6.97,8.961,11.257s2.507,9.423,2.471,14.137c0.493-0.104,0.911-0.357,1.253-0.76
					c1.36-1.182,2.696-2.393,4.007-3.63c1.324-1.222,2.626-2.471,3.898-3.746C451.34,45.623,451.621,45.224,451.759,44.74z"/>
				<path opacity="0.1091" fill="#FFFFFF" d="M452.042,42.093c-0.128-1.377-0.257-2.754-0.385-4.13
					c-0.55-2.893-1.479-5.658-2.788-8.296c-1.814-4.407-5.316-7.909-8.558-11.256c-3.492-3.607-8.174-5.843-12.616-7.968
					c-4.788-2.291-10.098-2.794-15.283-3.297c-1.74,0.029-3.479,0.058-5.219,0.087c-12.624,0.591-25.247,1.228-37.867,1.91
					c-18.269,0.955-36.493,1.625-54.784,1.922c-5.845-0.096-11.688-0.192-17.534-0.288c-10.519-0.368-21.041-0.652-31.565-0.851
					c-22.357-0.515-44.73-0.436-67.092-0.347c-11.445,0.044-22.892-0.104-34.338,0.037c-11.064,0.139-21.977,1.219-32.827,3.37
					c-5.251,1.042-10.243,2.908-15.21,4.845c-5.018,1.957-9.462,4.954-13.868,7.98c-4.652,3.196-8.332,7.568-11.927,11.84
					c-5.478,6.509-8.776,14.59-11.769,22.432c-2.667,6.991-3.9,14.477-5.179,21.804c-1.539,8.818-1.602,17.905-1.813,26.821
					c-0.208,8.723,0.782,17.451,1.153,26.164c0.662,15.517,0.529,31.097,0.612,46.625c0.219,40.249,0.288,80.497,0.398,120.745
					c0.757,271.826,1.23,543.654,1.722,815.48c1.292,714.361,2.367,1428.728,1.273,2143.089
					c-0.203,132.875-0.503,265.752-1.111,398.628c-0.397,86.761-0.688,173.527-1.975,260.283
					c-0.184,12.374-0.291,24.758-0.674,37.127c0.115,1.109,0.229,2.218,0.343,3.328c0.493,2.141,1.455,4.045,2.884,5.715
					c1.895,2.834,5.87,4.269,8.825,5.502c3.372,1.407,7.485,1.521,11.067,1.805c4.224,0.338,8.731-0.38,12.901-0.998
					c9.445-1.4,11.616-0.443,24.817,0.07c18.96,0.739,37.906,1.684,56.871,2.328c37.854,1.289,75.737,1.498,113.608,1.362
					c37.835-0.135,75.657-1.299,113.458-2.809c7.68-0.306,15.813-0.231,23.559-1.402c2.922-0.44,4.981-1.924,7.184-3.751
					c2.753-2.283,3.572-6.68,4.363-9.897c0.104-1.274,0.207-2.55,0.312-3.824c0.062-2.479,0.014-4.955-0.146-7.43
					c-0.085-2.026-0.481-4.099-0.657-6.124c-0.221-2.528-0.312-5.098-0.463-7.635c-0.615-10.361-0.497-20.783-0.541-31.158
					c-0.143-33.235-0.063-66.473-0.076-99.708c-0.104-265.934,0.218-531.868,0.378-797.804
					c0.203-340.014,0.462-680.027,0.687-1020.041c0.151-229.98,0.209-459.96,0.251-689.939c0.004-22.983-0.107-45.964-0.241-68.946
					c-0.203-34.503,0.243-69.01,0.104-103.514c-0.037-9.343-0.104-18.687-0.14-28.031c-0.141-38.93-0.04-77.864-0.057-116.795
					c-0.034-83.514-0.036-167.027-0.051-250.54c-0.01-49.172-0.482-98.345-0.561-147.517c-0.139-86.018,0.164-172.037,0.409-258.055
					c0.265-92.768,0.457-185.535,0.208-278.303c-0.003-1.093-1.81,1.635-1.664,1.436c-0.81,1.104-1.598,2.223-2.364,3.357
					c-0.442,0.57-0.803,1.187-1.079,1.848c0.418,165.539-0.613,331.075-0.636,496.614c-0.005,39.798,0.095,79.597,0.263,119.394
					c0.02,6.633,0.039,13.266,0.059,19.898c0.959,7.711,0.994,15.381,0.103,23.014c-0.235,2.287-0.146,6.105-0.08,8.31
					c0.454,15.301,0.212,30.608,0.179,45.916c-0.046,22.01-0.052,44.021-0.063,66.032c-0.04,86.123-0.299,172.257,0.293,258.379
					c0.06,8.53-0.335,17.023-0.103,25.558c0.463,17.012,0.188,34.05,0.179,51.069c-0.008,17.07-0.103,34.14-0.139,51.212
					c-0.002,5.771-0.004,11.545-0.007,17.316c1.181,6.37,1.253,12.658,0.215,18.867c-0.18,1.117,0.004,2.471,0.004,3.6
					c0,2.084,0.012,4.166,0.032,6.25c0.091,9.295-0.232,18.594-0.04,27.887c0.312,15.048,0.038,30.118,0.007,45.169
					c-0.037,18.099-0.063,36.197-0.085,54.295c-0.012,10.475-0.023,20.95-0.034,31.426c-0.011,11.538-0.193,23.084,0.146,34.618
					c0.359,12.188,0.143,24.399,0.127,36.593c-0.018,13.035-0.033,26.069-0.048,39.104c-0.035,30.849-0.066,61.698-0.096,92.547
					c-0.065,68.051-0.123,136.102-0.179,204.152c-0.269,333.652-0.52,667.305-0.726,1000.958
					c-0.183,293.046-0.471,586.093-0.226,879.138c0.01,12.116-0.323,24.211-0.316,36.324c0.007,11.396,0.017,22.792,0.026,34.188
					c0.019,21.585,0.05,43.169,0.1,64.754c0.036,15.877,0.073,31.756,0.177,47.634c0.042,6.296-0.149,12.591-0.091,18.886
					c0.055,6.124,0.143,12.247,0.294,18.369c0.201,8.144,1.093,16.246,0.891,24.395c-0.071,2.871-0.473,5.473-1.161,8.254
					c-0.698,2.817-2.284,4.605-4.328,6.527c-2.659,0.71-5.318,1.418-7.977,2.129c-7.029,0.28-14.055,0.591-21.08,0.927
					c-25.152,1.117-50.322,1.71-75.492,2.224c-37.772,0.771-75.557,0.518-113.328-0.084c-18.898-0.3-37.789-0.947-56.678-1.597
					c-6.299-0.257-12.598-0.513-18.897-0.769c-12.9-0.852-25.813-1.238-38.743-1.162c-1.667-0.022-3.347,0.189-5.005,0.322
					c-3.769,0.303-7.295,0.09-11.015-0.342c-2.877-0.335-5.451-1.498-8.01-2.758c-3.316-1.63-4.862-4.234-6.4-7.444
					c-1.629-3.399-0.861-7.664-0.645-11.288c0.178-2.986-0.017-6.063-0.028-9.053c-0.022-6.454,0.264-12.927,0.381-19.381
					c0.304-16.975,0.52-33.95,0.718-50.927c0.224-19.099,0.403-38.198,0.566-57.298c0.209-24.348,0.739-48.723,0.177-73.064
					c-0.14-6.048,0.08-12.134,0.119-18.182c0.04-6.237,0.077-12.475,0.115-18.712c0.079-12.993,0.148-25.985,0.217-38.979
					c0.161-30.417,0.292-60.836,0.414-91.254c0.266-66.435,0.451-132.867,0.606-199.3c0.791-337.987,0.732-675.978,0.548-1013.966
					c-0.202-369.937-0.681-739.872-1.333-1109.807c-0.512-290.499-1.053-580.998-2.032-871.495
					c-0.021-6.327-0.043-12.652-0.066-18.979c-0.029-7.982,0.294-15.949,0.27-23.93c-0.037-11.639-0.075-23.278-0.113-34.917
					c-0.076-22.658-0.159-45.314-0.252-67.972c-0.071-17.645-0.154-35.291-0.257-52.937c-0.044-7.611-0.105-15.223-0.174-22.835
					c-0.071-7.802,0.036-15.617-0.125-23.415c-0.172-8.281-0.109-16.544-0.02-24.828c0.094-8.663,1.298-17.212,2.639-25.749
					c1.069-6.79,3.628-13.163,5.967-19.578c2.065-5.662,5.348-10.702,8.698-15.653c2.98-4.404,7.017-7.917,11.013-11.343
					c3.811-3.268,8.419-5.508,12.876-7.71c6.054-2.991,12.81-4.48,19.361-5.88c10.545-2.255,21.56-2.466,32.295-2.693
					c11.425-0.24,22.861,0.063,34.287-0.056c32.693-0.342,65.392,0.444,98.067,1.405c17.697,0.52,35.325,0.115,53.014-0.403
					c12.059-0.469,24.116-0.915,36.175-1.336c7.736-1.643,15.386-1.738,22.948-0.289c1.464,0.257,2.927,0.514,4.391,0.77
					c2.828,0.708,5.542,1.722,8.142,3.041c3.885,1.709,7.045,4.765,10.027,7.672c2.955,2.882,4.753,6.576,6.436,10.263
					c1.63,3.574,1.799,7.531,1.897,11.368c0.34-0.032,0.613-0.201,0.814-0.511c0.786-0.84,1.545-1.704,2.276-2.592
					C450.066,45.04,452.143,43.166,452.042,42.093z"/>
				<path opacity="0.1091" fill="#FFFFFF" d="M453.591,39.829c-0.502-5.27-0.151-3.329-1.538-8.517
					c-1.221-4.57-4.271-8.429-7.098-12.075c-3.095-3.991-7.486-6.706-11.684-9.341c-4.474-2.809-9.782-3.92-14.856-4.97
					c-1.804-0.165-3.608-0.328-5.412-0.492c-8.205,0.167-16.401,0.536-24.592,1.103c-18.57,0.93-37.123,1.979-55.703,2.72
					c-17.034,0.68-34.057,0.094-51.083-0.422c-22.018-0.668-44.053-0.716-66.08-0.745c-15.249-0.02-30.502,0.036-45.749,0.054
					c-11.164,0.013-22.216,0.732-33.249,2.431c-5.343,0.822-10.486,2.382-15.623,4.013c-5.15,1.634-9.849,4.266-14.502,6.942
					c-4.862,2.796-8.879,6.727-12.844,10.619c-5.948,5.838-9.812,13.473-13.384,20.864c-3.139,6.499-4.731,13.761-6.4,20.726
					c-2.01,8.389-2.432,17.174-3.002,25.74c-0.511,7.653-0.447,15.574,0.296,23.205c0.316,3.23,0.499,6.472,0.663,9.712
					c0.776,15.31,0.71,30.67,0.793,45.995c0.213,39.677,0.262,79.354,0.366,119.033c0.703,270.33,1.243,540.659,1.726,810.988
					c1.277,714.703,2.362,1429.412,1.312,2144.116c-0.197,133.683-0.486,267.363-1.059,401.044
					c-0.378,87.811-0.757,175.628-1.977,263.432c-0.177,12.693-0.386,25.387-0.652,38.08c-0.042,1.977-0.256,4.366,0.478,6.252
					c0.4,1.03,0.8,2.059,1.202,3.088c1.111,2.16,2.705,3.882,4.779,5.166c3.098,2.58,7.362,3.462,11.161,4.269
					c4.969,1.056,10.25,0.503,15.236-0.03c2.875-0.306,5.734-0.886,8.575-1.406c7.635-1.398,13.372,0.106,22.384,0.628
					c37.863,2.19,75.835,2.905,113.751,3.449c37.846,0.542,75.696,0.033,113.532-0.813c18.91-0.425,37.809-1.19,56.707-1.959
					c8.266-0.334,17.777,0.275,26.035-2.299c1.354-0.424,4.105-2.373,4.829-3.513c0.653-1.026,1.306-2.056,1.957-3.082
					c1.142-2.448,1.869-5.017,2.178-7.701c0.722-3.627,0.08-7.764-0.225-11.404c-0.116-1.387-0.391-2.858-0.57-4.237
					c-1.191-9.156-1.323-18.39-1.446-27.607c-0.395-29.695-0.136-59.413-0.151-89.11c-0.131-257.372,0.178-514.744,0.338-772.116
					c0.214-340.709,0.471-681.419,0.686-1022.129c0.15-238.842,0.283-477.685,0.27-716.526c-0.001-22.094-0.024-44.189-0.101-66.282
					c-0.146-42.433,0.146-84.862-0.03-127.295c-0.115-27.937-0.132-55.874-0.157-83.812c-0.078-88.32-0.043-176.64-0.074-264.959
					c-0.007-15.533-0.016-31.063-0.023-46.596c-0.006-9.272-0.171-18.545-0.07-27.818c-0.058-6.714-0.115-13.428-0.172-20.141
					c-0.066-13.286-0.126-26.572-0.176-39.857c-0.082-19.9-0.111-39.801-0.143-59.702c-0.073-46.341,0.004-92.681,0.098-139.021
					c0.267-132.446,0.881-264.89,0.522-397.336c-0.003-0.995-1.515,1.307-1.369,1.099c-0.614,0.882-1.208,1.777-1.78,2.687
					c-0.343,0.457-0.602,0.955-0.773,1.495c0.432,165.537-0.604,331.073-0.641,496.611c-0.009,39.797,0.09,79.594,0.256,119.392
					c0.025,6.637,0.051,13.275,0.076,19.912c0.859,7.703,0.901,15.376,0.122,23.019c-0.01,1.233-0.02,2.468-0.029,3.701
					c-0.073,3.159-0.047,6.317,0.079,9.474c0.31,13.674,0.064,27.369,0.048,41.047c-0.026,22.014-0.027,44.028-0.033,66.044
					c-0.02,86.114-0.176,172.232,0.224,258.348c0.03,6.561-0.154,13.104-0.109,19.664c0.034,5.091,0.137,10.176,0.25,15.265
					c-0.016,1.227-0.03,2.453-0.046,3.679c-0.088,6.908-0.078,13.817,0.03,20.726c0.062,17.139-0.057,34.28-0.117,51.419
					c-0.079,22.292-0.004,44.581,0.208,66.87c0.095,10.09-0.118,20.176,0.048,30.267c0.109,6.654-0.033,13.325-0.047,19.98
					c-0.02,9.101-0.03,18.203-0.041,27.305c-0.022,18.749-0.039,37.498-0.053,56.249c-0.009,10.779-0.017,21.559-0.023,32.339
					c-0.01,13.822,0.232,27.635,0.217,41.457c-0.133,126.986-0.213,253.973-0.308,380.961
					c-0.249,335.13-0.489,670.261-0.705,1005.391c-0.104,161.816-0.194,323.631-0.259,485.445
					c-0.029,69.349-0.048,138.697-0.052,208.045c-0.004,57.794,0.148,115.588,0.026,173.38c-0.076,1.903-0.153,3.807-0.229,5.708
					c0.001,3.989,0.003,7.979,0.004,11.969c0.001,5.807,0.004,11.612,0.009,17.419c0.005,10.954,0.012,21.907,0.021,32.862
					c0.017,20.559,0.044,41.118,0.083,61.678c0.029,14.85,0.087,29.7,0.155,44.551c0.026,5.77-0.088,11.534-0.005,17.305
					c0.078,5.503,0.221,11.001,0.44,16.5c0.153,3.85,0.692,7.688,1.182,11.506c0.208,1.618,0.418,3.234,0.633,4.852
					c0.739,5.543,0.763,9.294-0.292,14.487c-0.395,1.032-0.789,2.065-1.184,3.099c-1.304,2.59-3.237,4.398-5.801,5.43
					c-1.94,1.041-4.776,1.078-6.91,1.313c-6.288,0.291-12.576,0.58-18.864,0.871c-12.579,0.543-25.16,1.012-37.746,1.404
					c-25.171,0.859-50.357,1.188-75.542,1.442c-37.786,0.382-75.574-0.265-113.345-1.276c-18.958-0.508-37.904-1.384-56.848-2.225
					c-11.2-0.495-14.208-2.066-22.049-0.629c-2.629,0.48-5.25,0.957-7.891,1.378c-3.574,0.567-7.059,0.58-10.662,0.45
					c-1.258-0.15-2.517-0.301-3.774-0.451c-2.48-0.325-4.82-1.087-7.016-2.282c-2.133-1.088-4.038-2.486-5.714-4.196
					c-1.917-2.621-2.979-5.598-3.185-8.932c0.02-0.896,0.037-1.793,0.057-2.689c0.039-1.867,0.076-3.736,0.112-5.604
					c0.06-2.989,0.112-5.98,0.165-8.971c0.118-6.645,0.219-13.29,0.314-19.935c0.25-17.338,0.441-34.677,0.617-52.014
					c0.446-43.861,0.731-87.725,0.98-131.586c0.702-123.098,1.02-246.198,1.269-369.298c0.688-338.917,0.622-677.836,0.422-1016.753
					c-0.219-369.677-0.692-739.353-1.311-1109.028C76.45,950.804,75.879,661.803,75.168,372.8
					c-0.115-46.587-0.232-93.175-0.363-139.763c-0.05-17.599-0.101-35.198-0.174-52.797c-0.063-15.504-0.097-31.014-0.577-46.511
					c-0.101-3.222-0.235-6.435-0.431-9.653c-0.537-8.853-0.455-17.603-0.115-26.453c0.331-8.622,1.902-17.064,3.592-25.495
					c1.368-6.819,4.265-13.347,7.041-19.672c2.471-5.632,6.305-10.542,10.122-15.289c3.476-4.321,7.957-7.621,12.388-10.863
					c4.216-3.082,9.167-5.103,13.942-7.103c6.471-2.708,13.517-3.97,20.384-5.16c10.852-1.882,22.05-1.925,33.029-2.025
					c5.697-0.051,11.399,0.036,17.098,0.075c9.538,0.064,19.102-0.104,28.634-0.128c32.931-0.086,65.828,1.053,98.748,1.572
					c18.068,0.285,36.226-0.872,54.27-1.637c12.761-0.482,25.521-1.021,38.278-1.618c2.948,0.314,5.881,0.743,8.796,1.287
					c6.198,1.019,11.667,4.461,16.646,8.049c2.314,1.875,4.384,3.99,6.209,6.345c4.381,5.035,6.322,12.212,6.655,18.674
					c0.047,0.919,1.478-1.005,1.431-0.948c0.671-0.806,1.32-1.628,1.95-2.465C453.092,40.805,453.383,40.341,453.591,39.829z"/>
				<path opacity="0.1091" fill="#FFFFFF" d="M451.181,45.423c-0.108-1.384-0.218-2.768-0.325-4.152
					c-0.484-2.866-1.37-5.605-2.654-8.216c-1.739-4.3-5.129-7.731-8.258-11.012c-3.358-3.519-7.889-5.732-12.176-7.826
					c-4.623-2.259-9.75-2.808-14.774-3.357c-1.69,0.004-3.38,0.008-5.068,0.012c-12.536,0.511-25.067,1.088-37.597,1.734
					c-18.223,0.891-36.407,1.509-54.651,1.77c-5.84-0.102-11.681-0.205-17.521-0.307c-10.517-0.375-21.034-0.667-31.555-0.873
					c-22.351-0.53-44.713-0.471-67.068-0.396c-11.444,0.037-22.886-0.109-34.329,0.022c-11.048,0.126-21.949,1.169-32.792,3.265
					c-5.234,1.012-10.217,2.831-15.181,4.72c-5.002,1.906-9.451,4.837-13.86,7.801c-4.645,3.121-8.344,7.412-11.953,11.607
					c-5.507,6.4-8.846,14.383-11.891,22.136c-2.725,6.943-4.022,14.399-5.351,21.692c-1.599,8.775-1.691,17.839-1.943,26.72
					c-0.248,8.71,0.7,17.437,1.005,26.14c0.542,15.535,0.441,31.112,0.519,46.654c0.199,40.239,0.277,80.478,0.386,120.716
					c0.748,271.828,1.233,543.658,1.725,815.486c1.292,714.364,2.361,1428.734,1.276,2143.1
					c-0.202,132.887-0.5,265.773-1.103,398.658c-0.395,86.76-0.703,173.525-1.973,260.278c-0.181,12.387-0.327,24.78-0.662,37.163
					c0.114,1.092,0.226,2.184,0.339,3.275c0.493,2.131,1.452,4.027,2.877,5.689c0.844,0.723,1.688,1.445,2.533,2.169
					c1.98,1.36,4.118,2.404,6.41,3.13c1.199,0.248,2.398,0.495,3.597,0.742c2.393,0.357,4.8,0.565,7.221,0.621
					c4.064,0.219,8.377-0.491,12.391-1.074c1.866-0.271,3.683-0.563,5.568-0.611c6.426,0.334,12.854,0.67,19.281,1.004
					c12.644,0.656,25.292,1.227,37.943,1.707c37.855,1.569,75.751,2.007,113.634,2.113c37.83,0.105,75.656-0.836,113.462-2.114
					c13.266-0.448,26.848-0.735,40.075-1.808c1.624-0.146,3.196-0.51,4.722-1.087c1.729-0.697,3.219-1.741,4.471-3.128
					c0.589-0.947,1.179-1.893,1.769-2.839c1.011-2.189,1.667-4.481,1.971-6.876c0.049-1.22,0.098-2.44,0.147-3.66
					c-0.022-2.303-0.109-4.604-0.265-6.899c-0.102-1.884-0.486-3.788-0.623-5.679c-0.136-1.857-0.073-3.736-0.14-5.598
					c-0.364-10.06-0.262-20.166-0.311-30.231c-0.154-32.536-0.067-65.078-0.084-97.615c-0.142-264.259,0.199-528.521,0.367-792.78
					c0.216-340.189,0.468-680.378,0.688-1020.567c0.149-230.903,0.169-461.808,0.265-692.711
					c0.007-18.956,0.014-37.914-0.118-56.869c-0.323-46.199,0.339-92.399-0.112-138.596c-0.133-13.678-0.004-27.358-0.034-41.037
					c-0.047-22.068-0.056-44.138-0.068-66.208c-0.051-86.022-0.047-172.044-0.051-258.067c-0.003-40.485-0.349-80.97-0.479-121.457
					c-0.277-86.058-0.025-172.118,0.213-258.176c0.293-105.992,0.606-211.985,0.322-317.979c-0.405,0.072-0.736,0.288-0.991,0.646
					c-1.015,1.02-2.001,2.066-2.963,3.136c-0.976,1.058-1.926,2.139-2.846,3.245c-0.334,0.286-0.518,0.635-0.551,1.046
					c0.352,145.677-0.392,291.351-0.597,437.026c-0.047,33.118-0.036,66.235,0.003,99.351c0.046,39.975-0.028,79.958,0.65,119.926
					c-0.104,0.855-0.208,1.711-0.311,2.566c-0.024,2.671-0.05,5.344-0.078,8.017c0.06,1.734,0.12,3.47,0.18,5.206
					c0.219,3.945,0.266,7.892,0.144,11.841c-0.14,15.455-0.147,30.911-0.181,46.366c-0.168,78.501-0.124,157.004,0.015,235.507
					c0.028,15.845,0.076,31.69,0.146,47.536c0.034,8.078,0.096,16.154,0.163,24.23c0.056,6.537-0.321,13.031-0.223,19.567
					c0.076,5.131,0.225,10.256,0.382,15.384c-0.031,1.211-0.064,2.422-0.097,3.632c-0.203,6.892-0.212,13.784-0.024,20.678
					c0.101,34.743-0.386,69.478,0.249,104.218c0.017-0.112,0.034-0.224,0.051-0.336c-0.409,1.896-0.177,3.958-0.177,5.891
					c0.001,3.518,0.08,7.034,0.033,10.551c-0.063,4.606-0.128,9.213-0.133,13.819c-0.009,6.927,0.219,13.848,0.174,20.777
					c-0.227,35.859-0.238,71.72-0.289,107.58c-0.016,11.076-0.044,22.151-0.036,33.227c0.004,6.072,0.235,12.117,0.457,18.183
					c0.222,6.049-0.023,12.164-0.035,18.216c-0.051,28.644-0.093,57.29-0.131,85.935c-0.088,64.529-0.154,129.059-0.218,193.587
					c-0.323,328.887-0.558,657.774-0.767,986.661c-0.193,303.135-0.479,606.271-0.229,909.406
					c0.012,13.333,0.025,26.666,0.04,39.999c0.014,12.341,0.269,24.687-0.432,37.013c0.003,2.008,0.004,4.015,0.006,6.023
					c0.003,3.943,0.007,7.888,0.011,11.831c0.006,5.737,0.013,11.475,0.02,17.212c0.014,12.527,0.034,25.053,0.057,37.579
					c0.034,18.522,0.079,37.046,0.156,55.569c0.065,15.433,0.428,30.885-0.011,46.314c-0.156,5.511,0.124,11.069,0.209,16.58
					c0.067,4.492,0.166,8.983,0.227,13.477c0.045,3.316-0.134,6.701-0.847,9.936c-0.255,1.152-0.566,2.287-0.89,3.419
					c-0.068,1.302-0.288,2.577-0.659,3.826c-0.531,1.188-1.008,2.396-1.429,3.626c-1.403,3.818-7.28,3.979-10.519,4.164
					c-13.219,0.761-26.605,1.026-39.841,1.517c-18.846,0.694-37.702,1.049-56.557,1.405c-37.724,0.709-75.459,0.396-113.18-0.268
					c-18.873-0.332-37.736-1.014-56.598-1.697c-12.587-0.508-25.17-1.078-37.751-1.709c-6.991,0.487-13.937,0.306-20.835-0.543
					c-3.806-0.449-7.494-0.509-11.237-1.457c-0.63-0.127-1.258-0.252-1.888-0.379c-1.294-0.354-2.475-0.938-3.542-1.752
					c-0.533-0.296-1.067-0.592-1.6-0.888c-1.058-0.788-1.816-1.8-2.276-3.04c-2.714-4.967-1.375-10.736-1.416-16.125
					c-0.057-7.359,0.143-14.709,0.285-22.064c0.687-35.517,1.034-71.04,1.357-106.562c0.201-21.943,0.379-43.89,0.5-65.835
					c0.033-6.11-0.397-12.215-0.354-18.332c0.044-6.121,0.084-12.242,0.125-18.364c0.098-14.96,0.187-29.922,0.27-44.883
					c0.34-60.651,0.579-121.304,0.778-181.956c1.068-324.626,1.073-649.258,0.975-973.886
					c-0.205-680.479-1.062-1360.961-3.22-2041.437c-0.108-33.863-0.224-67.727-0.352-101.59c-0.03-8.28-0.119-16.555,0.048-24.833
					c0.331-3.907,0.431-7.82,0.298-11.739c-0.013-3.96-0.026-7.92-0.04-11.88c-0.053-15.027-0.108-30.056-0.167-45.084
					c-0.102-25.985-0.213-51.97-0.355-77.954c-0.06-10.854-0.125-21.708-0.204-32.561c-0.066-9.323-0.317-18.659-0.04-27.979
					c0.121-4.087,0.096-8.172,0.105-12.26c0.014-5.909,0.326-11.868,0.447-17.767c0.229-5.723,0.733-11.421,1.516-17.095
					c0.624-4.905,1.637-9.729,3.038-14.469c1.42-3.867,2.869-7.723,4.346-11.568c1.517-3.529,3.295-6.923,5.333-10.18
					c3.402-5.913,8.493-10.582,13.682-14.864c4.945-4.079,11.087-6.572,16.986-8.865c6.23-2.421,13.002-3.453,19.564-4.479
					c7.064-1.103,14.285-1.301,21.416-1.556c7.5-0.269,15.022-0.106,22.523-0.08c11.397,0.04,22.792-0.018,34.189-0.011
					c21.847,0.011,43.685,0.523,65.521,1.131c10.922,0.404,21.847,0.699,32.774,0.886c11.795,0.042,23.588-0.111,35.379-0.458
					c11.894-0.333,23.787-0.662,35.681-0.98c7.421-1.697,14.679-1.638,21.773,0.176c2.639,0.374,5.171,1.11,7.598,2.212
					c2.401,0.98,4.624,2.27,6.667,3.868c4.28,2.897,7.164,7.187,9.624,11.609c2.414,4.342,2.771,9.559,2.79,14.388
					c0.407-0.031,0.752-0.212,1.034-0.542c1.089-0.911,2.153-1.849,3.194-2.815c1.054-0.951,2.083-1.928,3.087-2.933
					C450.904,46.153,451.114,45.825,451.181,45.423z"/>
			</g>
		</g>
	</g>
</g>
</svg>
