<?xml version="1.0" encoding="utf-8"?>
<!-- Generator: Adobe Illustrator 16.0.0, SVG Export Plug-In . SVG Version: 6.00 Build 0)  -->
<!DOCTYPE svg PUBLIC "-//W3C//DTD SVG 1.1//EN" "http://www.w3.org/Graphics/SVG/1.1/DTD/svg11.dtd">
<svg version="1.1" id="Layer_1" xmlns="http://www.w3.org/2000/svg" xmlns:xlink="http://www.w3.org/1999/xlink" x="0px" y="0px"
	 width="640.34px" height="805px" viewBox="0 0 640.34 805" enable-background="new 0 0 640.34 805" xml:space="preserve">
<g>
	<path fill="#F2F2F2" d="M634.465,21.588c-0.092-11.038-26.168-19.929-57.967-19.737c-61.119,0.366-124.239,1.991-183.484,1.179
		C340.835,2.313,282.24,2.063,223.287,2.141C118.297,2.279,5.944-3.67,6.573,58.97c2.452,244.246,13.996,487.211,0,730.073
		c-0.629,10.913,37.265,7.975,44.97,8.123c185.32,3.558,371.291,3.84,556.714,0.846c6.456-0.104,13.448-0.277,18.29-1.607
		c6.149-1.69,6.559-4.574,6.512-7.125c-1.293-70.811,3.07-140.918,1.776-211.729c-0.461-25.235,0.462-47.88,0-73.116
		c-0.509-27.888-0.118-59.416-0.628-87.303C631.787,284.754,635.556,153.857,634.465,21.588z"/>
	<g>
		<g>
			<g>
				<g>
					<g>
						<path fill="#FFFFFF" d="M632.021,90.404c-0.062-6.318,0.245-11.831,0.387-9.454c-0.387-12.872,0.041-13.148-0.689-14.814
							c-0.364-8.26,0.124-17.075,0.428-7.677l-0.466-23.818l-0.103,14.243c-0.609-3.876,0.164-22.76-0.547-27.267l0.079,25.781
							l-0.202-1.288c0.222,5.869,0.141,17.272,0.059,21.248c-0.101-0.627-0.263-0.227-0.284-4.774
							c-0.021,31.126,1.068,8.383,1.29,34.215C631.956,95.179,631.963,93.174,632.021,90.404z"/>
						<path fill="#FFFFFF" d="M630.558,116.843l0.712,10.864l-0.327,18.222c0.262,0.208,0.379,13.483,0.675,4.498
							c-0.029-1.758-0.082-5.232-0.038-8.037c0.553,2.037,0.109,24.235,0.722,18.883c-0.047-14.413,0.094-16.624-0.304-25.497
							c0.095-6.605,0.176-12.313,0.245-17.142c0.061-4.827,0.143-8.773,0.243-11.856c-0.089-3.921-0.438-4.474-0.511-9.456
							c0.008,1.103,0.015,2.116,0.024,3.383l-0.853,0.536c0.183,4.155,0.101,8.082,0.122,12.691l-1.014-21.325
							c-0.396,3.437-0.474,10.393-0.491,17.535c-0.006,3.571-0.012,7.189-0.017,10.438c-0.039,3.25-0.092,6.129-0.19,8.222
							C630.337,118.42,629.884,137.072,630.558,116.843z"/>
						<path fill="#FFFFFF" d="M631.975,97.322c-0.001-0.138-0.002-0.365-0.003-0.523C631.973,96.957,631.974,97.184,631.975,97.322z
							"/>
						<path fill="#FFFFFF" d="M10.924,521.324c0.011-4.533-0.177-5.869-0.292-6.524l-0.279,51.046
							c0.234-1.597,0.6-16.299,0.674-6.473c0.274-4.381,0.143-17.729-0.148-19.666l0.319,3.701
							c-0.367-11.763,0.541-19.796,0.753-12.126l0.001-0.992c0,0-0.384-8.146-0.767-16.29c-0.478-8.144-0.955-16.287-0.955-16.287
							c-0.007,5.98,0.153,8.283,0.332,10.891C10.725,511.211,10.981,514.125,10.924,521.324z"/>
						<path fill="#FFFFFF" d="M566.681,0.391c-6.617,0.143-7.43,0.232-6.678,0.308C562.374,0.613,564.627,0.519,566.681,0.391z"/>
						<path fill="#FFFFFF" d="M9.785,490.101l-0.598-10.201C9.357,483.984,9.572,487.572,9.785,490.101z"/>
						<path fill="#FFFFFF" d="M17.709,560.835c0.028,0.021,0.052,0.131,0.091-0.138l-0.242-4.589c0,0.069,0,0.09,0,0.117
							C17.614,557.916,17.664,559.434,17.709,560.835z"/>
						<path fill="#FFFFFF" d="M4.505,258.493c-0.033-1.095-0.062-2.039-0.101-3.348C4.44,256.364,4.474,257.467,4.505,258.493z"/>
						<path fill="#FFFFFF" d="M18.259,699.383c0,0,0.04-1.421,0.029-3.555c0.002-2.133,0.006-4.977,0.009-7.82
							c0.006-5.688,0.013-11.375,0.013-11.375c0.169,3.037,0.354-7.932,0.521-3.135c0.002-1.733,0.097-9.859-0.078-7.647
							l-0.093,4.639c-0.419-12.006-0.857-4.754-0.925-24.639c-0.704,12.327-0.45,17.744-0.285,24.288
							c-0.016,2.216-0.029,4.072-0.042,5.95l0.536,18.932c0,0,0.085,1.091,0.17,2.182C18.209,698.293,18.259,699.383,18.259,699.383
							z"/>
						<path fill="#FFFFFF" d="M250.31,4.698l-0.248,0.053C250.289,4.733,250.331,4.715,250.31,4.698z"/>
						<path fill="#FFFFFF" d="M249.069,4.97l0.993-0.219C248.842,4.856,244.169,4.939,249.069,4.97z"/>
						<path fill="#FFFFFF" d="M10.264,493.847c-0.132-0.31-0.3-1.618-0.479-3.746l0.447,7.612
							C10.241,496.631,10.252,495.204,10.264,493.847z"/>
						<path fill="#FFFFFF" d="M11.911,511.166c0,0,0.08,4.781,0.051,9.563c-0.004,4.78-0.007,9.562-0.007,9.562l0.32,7.05
							C12.155,530.021,12.197,521.462,11.911,511.166z"/>
						<path fill="#FFFFFF" d="M4.678,288.704c-0.873-39.606,1.011,9.714,0.858-8.488c-0.31-10.996-0.775-14.868-1.031-21.722
							c0.941,31.409-1.369-4.233-0.549,27.446c-0.794-4.493-1.212-22.834-1.229-33.588c0.446-12.182,0.705,10.623,1.425,13.366
							c-0.356-12.711-0.437-10.47-0.921-15.857c-0.226-19.967-1.619-41.299-0.901-53.241c-0.423-14.452-0.73-13.495-1.247-21.801
							c-0.76-1.641,0.023,21.507-0.45,26.874c0.041-1.111,0.124-3.278,0.237-2.652l0.083,12.5c0.03-11.868,0.76,1.634,0.937,7.975
							c0.102,4.611,0.307,13.778,0.082,12.521l-0.289-6.979c-0.061,8.994,0.905,19.822,0.696,29.316
							c-0.154,0.499-0.301-3.089-0.413-3.632c0.704,10.623,0.872,20.876,1.529,36.608l-0.899-9.109
							c1.033,12.573,1.39,41.086,1.304,60.846c0.089-2.193,0.114-6.142,0.29-3.774c0.351,11.598-0.011,20.368-0.474,15.001
							c0.774,11.322,0.158,43.184,1.174,58.616c0,0,0.298,4.436,0.745,11.088c0.468,6.653,0.933,15.521,1.47,24.393
							c1.042,17.745,2.083,35.491,2.083,35.491c-0.11-2.659-0.205-5.504-0.257-8.438c0.59-6.459,0.489-9.939,1.166,1.371
							c-0.412-11.105-0.893-6.857-1.034-23.544c0.365,6.542,1.104,8.19,1.069-7.796c-0.385-19.979-1.38-36.585-2.241-52.857
							c-0.896-16.273-1.822-32.213-2.569-50.864c0.498-1.385-0.231-30.69-0.384-44.936c0.63,5.427,0.984,15.995,1.303,26.963
							c-0.116-6.885-0.314-18.737-0.462-27.531L4.678,288.704z"/>
						<path fill="#FFFFFF" d="M7.923,381.475c0.014-1,0.028-2.034,0.043-3.095C7.935,378.945,7.918,379.869,7.923,381.475z"/>
						<path fill="#FFFFFF" d="M6.288,323.141c0.021,0.137,0.035,0.089,0.056,0.137c-0.035-1.15-0.069-2.301-0.104-3.479
							C6.256,320.977,6.276,322.307,6.288,323.141z"/>
						<path fill="#FFFFFF" d="M11.303,484.478c0.133,2.371,0.231,4.126,0.365,6.497c-0.047-1.461-0.106-3.294-0.163-5.058
							C11.427,484.235,11.355,483.437,11.303,484.478z"/>
						<path fill="#FFFFFF" d="M10.498,492.475l-0.21-1.267c-0.009,1.02-0.016,1.736-0.024,2.639
							C10.374,494.122,10.462,493.825,10.498,492.475z"/>
						<path fill="#FFFFFF" d="M6.288,137.241l-0.159-3.796C6.169,135.733,6.226,136.718,6.288,137.241z"/>
						<path fill="#FFFFFF" d="M4.656,244.565c0.313,13.774,0.761,1.633,1.142,21.12l-0.066-5.72
							c0.582,13.976,0.914,38.552,1.261,55.166c-0.327-1.869-0.159,10.081-0.648,8.146c0.346,11.355,0.584,22.596,1.149,28.438
							c-0.045,7.037,0.529,17.717,0.474,26.664c0.215-3.78,1.119,12.72,0.452-9.042c0.064,1.756,0.109,0.653,0.174,2.389
							c0.166-14.028-0.566-19.641-0.761-31.719c0.159-7.226,0.616,11.803,0.62,4.986c-0.449-15.078-0.564-47.341-1.539-46.322
							c-0.284-10.976-0.089-12.496,0.033-15.773c-1.421-17.343-0.776-64.457-2.149-64.274c0.174,6.34,0.338,16.673,0.812,25.971
							L4.656,244.565z"/>
						<path fill="#FFFFFF" d="M11.073,461.345c-0.002-0.848-0.004-1.979-0.005-2.681C11.069,459.456,11.071,460.441,11.073,461.345z
							"/>
						<path fill="#FFFFFF" d="M6.234,635.08l-0.769-5.771c0.158-8.189,0.292-15.071,0.411-21.234
							c0.052-6.167,0.098-11.615,0.144-16.936c0.084-10.641,0.166-20.767,0.279-35.094c0.137-2.188,0.194,1.289,0.224,3.052
							c0.046-10.073,0.104-22.646,0.159-34.532c0.01-2.972,0.021-5.901,0.03-8.737c-0.036-2.838-0.07-5.582-0.103-8.185
							c-0.078-5.204-0.176-9.839-0.305-13.507c-0.037-6.411,0.134-23.245,0.443-16.876c-0.101-3.12-0.204-6.687-0.199-10.275
							c0.318-0.953,0.148,8.03,0.416,8.235c0.002-2.845,0.058-3.954-0.049-4.608c0.313,4.786,1.067-4.974,1.201,17.353
							c-0.699,8.648-0.195-15.484-0.997-10.376c0.046,7.404,0.364,6.542,0.47,7.176c0.046,9.437-0.166,9.189-0.36,8.688
							c0.285,3.615,0.005,15.483,0.434,20.477c0.001,18.346-0.609-0.997-0.662,10.984l0.806,6.907l-0.28,19.922
							c0.125,28.844,1.49-4.119,1.771,28.858c-0.416-4.337-1.239,8.881-1.508,24.222c0.024-9.181-0.426-26.155-0.104-38.004
							c-0.764,16.701,0.059-22.994-0.753-14.328c0.31,8.257,0.276,22.023,0.017,32.757l-0.057-3.52
							c-0.079,5.708,0.09,10.725,0.225,16.284c0.066,2.779,0.128,5.694,0.139,8.899c-0.041,3.203-0.131,6.695-0.307,10.631
							c-0.156,7.826-0.361,6.355-0.527,4.976c-0.013,3.312-0.025,6.448-0.034,8.759C6.369,633.587,6.329,635.071,6.234,635.08z
							 M6.456,618.029l0.329-10.466C6.586,610.046,6.5,613.947,6.456,618.029z"/>
						<path fill="#FFFFFF" d="M629.759,263.474c0.027-1.041,0.059-2.24,0.084-3.185C629.8,260.985,629.776,262.191,629.759,263.474z
							"/>
						<path fill="#FFFFFF" d="M232.625,795.271l6.071,0.063C236.325,795.309,234.382,795.289,232.625,795.271z"/>
						<path fill="#FFFFFF" d="M368.877,792.934l8.866-0.223C374.243,792.733,371.502,792.82,368.877,792.934z"/>
						<path fill="#FFFFFF" d="M629.596,335.912l-0.003,0.296c0.02,0.497,0.035,0.876,0.057,1.4L629.596,335.912z"/>
						<path fill="#FFFFFF" d="M628.035,783.831c0.069-1.33,0.131-2.826,0.178-4.877C628.13,779.192,628.072,781.017,628.035,783.831
							z"/>
						<path fill="#FFFFFF" d="M367.244,792.976c0.228,0.006,0.358,0.01,0.537,0.015c0.345-0.018,0.724-0.037,1.096-0.057
							L367.244,792.976z"/>
						<path fill="#FFFFFF" d="M172.635,792.282c-1.302,0.009-2.487,0.018-3.886,0.027
							C170.582,792.32,171.705,792.305,172.635,792.282z"/>
						<path fill="#FFFFFF" d="M181.166,794.812c-1.399,0.011-2.736,0.021-3.777,0.028L181.166,794.812z"/>
						<path fill="#FFFFFF" d="M13.932,757.264l0.249-8.186C14.012,753.1,13.951,755.502,13.932,757.264z"/>
						<path fill="#FFFFFF" d="M159.544,793.938c-0.476,0.032-0.952,0.063-1.27,0.097
							C159.405,794.024,159.943,793.982,159.544,793.938z"/>
						<path fill="#FFFFFF" d="M632.546,211.529c-0.001,0.187-0.001,0.386-0.001,0.497l0.098,0.208L632.546,211.529z"/>
						<path fill="#FFFFFF" d="M631.453,191.643c-0.006-2.343-0.012-4.783-0.018-7.182
							C631.41,187.128,631.418,189.727,631.453,191.643z"/>
						<path fill="#FFFFFF" d="M630.624,665.54c0.162-2.16,0.402-7.233,0.499-4.862C631.021,656.536,630.588,656.804,630.624,665.54z
							"/>
						<path fill="#FFFFFF" d="M637.646,251.413c-0.109-1.303-0.189-2.922-0.268-4.549
							C637.488,249.89,637.578,252.543,637.646,251.413z"/>
						<path fill="#FFFFFF" d="M637.379,246.864c-0.058-1.496-0.119-3.094-0.171-4.432
							C637.269,243.989,637.326,245.485,637.379,246.864z"/>
						<path fill="#FFFFFF" d="M636.643,720.715c-0.068,0.536-0.132,1.369-0.167,2.498
							C636.597,722.884,636.638,721.982,636.643,720.715z"/>
						<path fill="#FFFFFF" d="M631.612,178.658c-0.192-1.29-0.408-32.521-0.7-6.256c-0.621-1.017-0.17-16.853-0.275-23.856
							c-0.184,5.085-0.386-2.532-0.621-0.989c0.051,3.474,0.202,7.604,0.116,13.344c-0.306,2.638-0.438-6.075-0.283-12.876
							c-0.392,8.378-0.422-10.637-0.762,1.223c0.04,25.356,0.141,43.275,0.932,61.112c-0.048-14.454-0.119-30.623,0.218-42.476
							l0.509,4.986c-0.574,13.395-0.276,21.667-0.421,34.845l0.5-29.599c0.553-13.864,0.59-4.587,0.611,6.345
							C631.461,181.773,631.512,179.34,631.612,178.658z"/>
						<path fill="#FFFFFF" d="M636.242,198.638l0.02-0.496c-0.017-0.435-0.025-0.972-0.046-1.248L636.242,198.638z"/>
						<path fill="#FFFFFF" d="M2.869,758.229l-0.091-2.547C2.775,757.804,2.809,758.46,2.869,758.229z"/>
						<path fill="#FFFFFF" d="M633.481,216.278v-0.021C633.485,216.458,633.485,216.506,633.481,216.278z"/>
						<path fill="#FFFFFF" d="M35.921,802.554c-0.092,0.014-0.183,0.031-0.345,0.047C35.809,802.585,35.809,802.567,35.921,802.554z
							"/>
						<path fill="#FFFFFF" d="M52.962,790.592c-0.117-0.027-0.15-0.052-0.426-0.08C51.186,790.522,51.839,790.558,52.962,790.592z"
							/>
						<path fill="#FFFFFF" d="M35.971,802.503c0,0.017,0.042,0.032-0.049,0.051C35.971,802.535,36.083,802.518,35.971,802.503z"/>
						<path fill="#FFFFFF" d="M343.619,803.093c0,0-0.972-0.091-2.502-0.176C340.523,802.969,341.116,803.026,343.619,803.093z"/>
						<path fill="#FFFFFF" d="M282.879,802.049c-0.386-0.023-0.614-0.037-1.11-0.066L282.879,802.049z"/>
						<path fill="#FFFFFF" d="M627.91,679.841c-0.044,3.005-0.076,5.259-0.104,7.161C627.86,684.807,627.902,682.435,627.91,679.841
							z"/>
						<path fill="#FFFFFF" d="M35.576,802.601c-0.651,0.051-1.572,0.115-3.107,0.16C34.16,802.714,35.045,802.646,35.576,802.601z"
							/>
						<path fill="#FFFFFF" d="M436.222,800.077c-0.648,0.022-1.255,0.044-1.868,0.065c0.372,0.008,0.744,0.016,1.11,0.023
							L436.222,800.077z"/>
						<path fill="#FFFFFF" d="M467.918,800.386c-1.082,0.065-1.577,0.13-2.184,0.188c11.31-0.3,32.093-0.341,34.549-0.935
							c-3.84,0.06-23.741-0.048-20.353-0.427c-7.884,0.273-19.542-0.1-23.787-0.001c12.946,0.279,1.402,0.484-7.337,0.705
							c-7.948-0.146,1.493-0.471-5.352-0.558l-18.39,0.117l16.02,0.03l-4.863,0.57c0.592-0.021,0.999-0.035,1.633-0.058
							C464.956,799.682,440.162,800.827,467.918,800.386z"/>
						<path fill="#FFFFFF" d="M465.734,800.574c-1.695,0.039-3.185,0.086-4.342,0.148
							C463.95,800.707,464.942,800.647,465.734,800.574z"/>
						<path fill="#FFFFFF" d="M576.473,800.224c1.393-0.042,2.901-0.088,4.797-0.145
							C580.367,800.106,578.271,800.169,576.473,800.224z"/>
						<path fill="#FFFFFF" d="M12.101,550.93c-0.167,0.476-0.6,16.261-0.17,15.981c0.073-4.686,0.146-9.406,0.22-14.147
							L12.101,550.93z"/>
						<path fill="#FFFFFF" d="M634.188,548.521c-0.004,1.759-0.008,3.524-0.012,5.29c0.024,0.379,0.049,0.744,0.066,1.027
							C634.306,553.763,634.228,550.28,634.188,548.521z"/>
						<path fill="#FFFFFF" d="M484.809,798.955c-2.894,0.1-4.183,0.182-4.878,0.258
							C481.805,799.157,483.535,799.082,484.809,798.955z"/>
						<path fill="#FFFFFF" d="M635.204,547.533c0.122-2.239,0.309-5.538,0.472-6.004c0.004-4.586-0.221-7.81-0.301-12.478
							C635.438,534.32,635.395,540.419,635.204,547.533z"/>
						<path fill="#FFFFFF" d="M635.367,528.673c0.003,0.131,0.006,0.262,0.008,0.379
							C635.373,528.921,635.37,528.804,635.367,528.673z"/>
						<path fill="#FFFFFF" d="M12.339,541.537c-0.021-1.357-0.042-2.757-0.064-4.197l0.101,2.186
							c0.065-3.632,0.13-7.243,0.195-10.861c-0.012-1.31-0.025-2.729-0.041-4.473c0.01,0.703,0.052,1.247,0.098,1.585
							c0.024-1.179,0.047-2.329,0.07-3.48c-0.142-4.328-0.391-11.869-0.628-19.105c-0.219-7.237-0.413-14.17-0.564-17.273
							c-0.247-8.214-0.423-18.267-0.432-24.572c0.031,5.844,0.174,13.603,0.402,11.271c0.173-11.868,0.868-17.644,0.096-38.12
							l0.092,12.012c0,0-0.284-6.749-0.568-13.499c-0.145-3.374-0.289-6.749-0.397-9.279c-0.128-2.531-0.213-4.218-0.213-4.218
							c0.125-4.733,0.295-1.365,0.484,3.654c0.17,5.02,0.305,11.691,0.494,13.564c-0.273-10.501-0.239-20.121-0.219-28.334
							c0.026-8.212,0.028-15.016-0.458-19.878c0.467-1.378,1.247-3.692,0.986-17.475c-0.404,9.946-0.484-8.258-0.955-0.096
							c-0.353-4.757-0.06-15.378-0.438-16.165l0.222,1.286c0.43-23.548-0.95-31.231-1.544-41.292
							c-0.744-28.175-0.678-41.123-1.204-64.104c0.31-0.909,1.086-7.184,0.879-16.405c-0.523-4.278-1.12-25.074-1.728-27.186
							c0.074,16.49,0.729,13.479,1.048,23.345c-0.439,8.227-0.574,0.756-0.717,11.983c0.06-9.061-1.082-40.913-0.711-50.84
							l0.145,3.5c0.041-15.837,1.381-18.887,0.042-45.248l-0.523-12.581c0.065,0.605,0.132,0.673,0.188,0.997
							c-0.229-20.604,0.495-14.988-0.332-37.727c0.064,1.757,0.111,0.653,0.174,2.438c0.137-12.969-0.686-26.036-0.956-35.837
							c0.389-5.988,0.485,1.415,0.879,5.113c-0.032-2.851-0.064-5.73-0.096-8.614c-0.039-2.876-0.169-5.772,0.021-8.68
							c0.152-2.897,0.6-5.768,1.333-8.524c0.733-2.753,1.692-5.423,2.967-7.867c1.26-2.449,2.731-4.715,4.332-6.766
							c1.638-2.017,3.348-3.862,5.118-5.469c3.521-3.241,7.124-5.635,10.227-7.507c0,0,3.33-1.767,6.805-3.151
							c3.461-1.42,6.999-2.58,6.999-2.58c-4.143,1.529-8.601,3.628-11.596,5.384c-2.996,1.761-4.59,3.018-3.371,2.446
							c3.509-2.061,4.981-2.798,6.827-3.722c1.862-0.883,4.116-1.97,9.57-3.798c-1.76,0.902-6.236,2.747-10.894,5.438
							c5.369-2.433,8.501-3.419,10.219-4.127c1.739-0.653,2.118-0.909,2.29-1.081c0.172-0.173,0.139-0.261,1.069-0.558
							c0.929-0.298,2.818-0.839,6.877-1.662c7.187-1.85,11.367-2.983,12.096-3.525c0,0,3.338-0.518,6.687-0.924
							c3.347-0.423,6.701-0.751,6.701-0.751c0.709-0.327,5.188-1.075,10.864-1.728c5.675-0.665,12.541-1.228,17.981-1.603
							c1.319-0.306-8.801,0.08-12.908,0.666c0.39-0.217,3.475-0.632,7.399-1.014c3.925-0.371,8.687-0.714,12.417-0.895
							c1.392,0.398,13.593-0.203,24.358-0.42c10.764-0.239,20.082-0.267,15.68,0.337c16.74-0.325,36.87-0.292,55.567-0.369
							c18.694-0.125,35.98-0.083,47.026-0.253c7.286,0.308,22.134,0.399,13.234,0.81c26.944,0.145,40.848-0.783,67.594-0.376
							c2.212,0.134-12.092-0.054-11.143,0.276c17.485-0.299,31.802,0.58,58.93,0.461c-4.563-0.006-5.896,0.188-6.532,0.286
							c-0.475-0.166,11.119-0.274,18.133-0.401c3.94,0.102-5.252,0.093-3.041,0.227c13.092,0.179,25.408,0.243,37.328,0.241
							c11.921-0.031,23.449-0.326,34.966-0.523c23.034-0.394,46.033-1.147,72.09-1.364c-7.442,0.063-12.567,0.277-15.851,0.516
							c-3.283,0.234-4.726,0.479-4.804,0.613l14.578-0.16c5.614-0.378,16.561-0.484,25.714-0.816
							c1.125,0.11,5.579,0.198,1.037,0.395c3.601,0.046,7.004,0.056,10.271,0.037c3.265-0.018,6.4-0.089,9.48-0.056
							c6.148,0.04,12.011,0.334,18.061,0.991c6.041,0.699,12.293,1.724,19.059,3.861c3.366,1.112,6.879,2.479,10.379,4.614
							c1.732,1.096,3.488,2.361,5.022,4.12c0.766,0.874,1.468,1.877,2.017,3.033c0.522,1.171,0.87,2.494,0.889,3.88
							c0,0-0.021-0.208-0.059-0.596c-0.023-0.193-0.052-0.432-0.085-0.712c-0.068-0.271-0.146-0.582-0.234-0.931
							c-0.394-1.375-1.359-3.162-2.909-4.748c-3.111-3.191-8.14-5.695-13.276-7.432c-5.15-1.751-10.443-2.822-14.421-3.463
							c-3.98-0.632-6.649-0.893-6.649-0.893c0,0,2.613,0.474,5.199,1.055c2.587,0.584,5.139,1.283,5.139,1.283
							c0,0-4.613-0.917-9.276-1.428c-4.657-0.559-9.338-0.756-9.338-0.756c5.555,0.624,10.732,1.251,14.671,1.922
							c3.938,0.66,6.638,1.304,7.22,1.716c-1.154-0.243-3.105-0.712-4.813-1.028c-1.702-0.34-3.156-0.53-3.265-0.428
							c5.229,1.098,8.004,1.832,10.462,2.48c2.441,0.686,4.606,1.231,8.265,2.833c-9.739-4.039-25.356-6.748-41.139-6.941
							c-3.933-0.073-7.922,0.051-11.854,0.108c-3.925,0.065-7.781,0.129-11.491,0.191c-7.42,0.13-14.254,0.25-19.882,0.349
							c-3.541,0.113,3.029-0.27,3.655-0.377c-9.185,0.117-14.702-0.13-26.267,0.192c-7.177,0.511,5.483,0.241,11.185,0.214
							c-0.781,0.376-3.649,0.39-9.996,0.524c-1.386-0.492-34.849,0.309-43.043-0.279c-33.928,0.417,5.438,1.222-27.69,1.267
							c0,0-2.475-0.12-4.948-0.241c-1.237-0.061-2.475-0.121-3.402-0.167c-0.929-0.057-1.547-0.095-1.547-0.095
							c-19.233,0.341-44.142,0.614-65.876,0.375l4.583,0.006c3.056-0.223-1.986-0.396-4.218-0.531
							c-16.435-0.325-31.209,0.276-41.162-0.335c-18.75,0.496-50.003,0.772-71.433,0.966c-5.78-0.767,27.958-0.479,36.877-0.892
							l-19.509-0.1c12.06,0.054,16.823-0.201,24.055-0.583c-17.098-0.227-22.725,0.389-38.933,0.491
							c1.262-0.194-0.902-0.329-8.379-0.373l-2.124,0.478c-0.138-0.041-0.964-0.082-3.273-0.125c0,0-7.21,0.037-14.42,0.074
							c-7.212,0.051-14.425,0.103-14.425,0.103c6.127,0.202,6.422,0.642,13.871,0.685c-2.66-0.299,3.659-0.322,11.115-0.276
							c-6.533,0.285,7.27,0.307,7.111,0.57c-7.473-0.027-15.8-0.057-23.484-0.085c-7.686,0-14.743,0.071-19.643,0.113l-3.185-0.459
							c-14.252-0.165-29.287,0.038-38.935-0.042l3.042-0.25c-17.076-0.09-33.856,0.45-48.973,0.735
							c-7.573,0.608-16.107,1.396-24.242,2.407c-8.137,1.001-15.864,2.266-21.862,3.545c-3.163,0.853-14.103,2.403-25.637,6.071
							c-5.749,1.833-11.626,4.229-16.542,7.176c-4.953,2.895-8.872,6.35-11.254,9.393c-0.184,0.184,0.142-0.237,0.797-1.038
							c0.354-0.382,0.792-0.855,1.29-1.393c0.496-0.542,1.121-1.089,1.747-1.705c2.553-2.427,6.221-4.94,8.601-6.389
							c-2.365,1.325-4.509,2.728-6.364,4.17c-1.833,1.462-3.444,2.89-4.732,4.283c-2.639,2.744-4.195,5.12-5.34,6.311
							c3.242-4.831,5.568-6.656,6.324-7.513c0.842-0.797,0.37-0.479-0.418,0.111c-0.75,0.63-1.81,1.521-2.175,1.828
							c-0.367,0.3-0.184-0.121,1.72-2.042c-4.116,3.85-7.262,8.718-8.973,13.384c-1.693,4.686-2.132,9.023-2.141,11.767
							c0.272-4.524,0.898-6.275,1.042-6.776c0.177-0.497,0.117,0.295,0.049,1.067c-0.087,0.769-0.099,1.543,0.018,1.007
							c0.189-0.513,0.329-2.399,1.742-6.589c-1.076,3.251-1.761,6.959-1.916,10.952c-0.059,0.994-0.008,2.018-0.024,3.042
							c0.032,1.116,0.064,2.244,0.098,3.382c0.06,2.283,0.12,4.604,0.182,6.949c0.222,9.378,0.359,19.122,0.387,28.207
							c-0.267-0.176-0.359,2.065-0.373,8.84l0.459,5.458c0.049,8.503-0.683-16.434-0.58,0.684c0.45,8.801,0.542,22.06,0.687,34.082
							c0.164,12.021,0.442,22.805,1.112,26.65c-0.225,13.432-0.967-25.536-1.17-5.294c-0.326-5.881-0.454-12.883-0.557-18.897
							c-0.089-6.014-0.185-11.042-0.515-12.977c0.333,11.532-0.453,4.219-0.354,11.661l0.601,12.859l-0.03-2.847
							c0.978,21.58,1.349,55.792,1.966,83.361c1.06,23.344,2.251,39.407,2.726,67.425c-0.517-8.264,0.106,23.274-0.89,5.649
							c-0.032,6.485,0.107,12.925,0.288,17.775c0.172,4.851,0.374,8.113,0.51,8.238c-0.086-11.411,0.029-4.014-0.022-13.625
							c0.469,6.478,0.653,21.434,0.547,27.58c-0.021-2.848-0.065-1.764-0.175-2.39c-0.006,13.626,0.418,6.523,0.703,16.366
							c-0.4,3.13,0.214,21.739,0.12,30.732l0.839,13.028c-0.537-7.157,0.053,12.494-0.332,14.554
							c0.36,9.348,0.935,17.185,0.92,31.428c-0.26-5.882-0.227,12.995-0.651,13.246c-0.12,12.193,0.24,22.287,0.574,32.222
							c0.152,4.968,0.359,9.895,0.386,15.024c0.024,5.13-0.024,10.463-0.211,16.238c-0.096-0.718-0.348-5.382-0.496,1.371
							c0.087,5.318-0.019,14.631-0.007,20.321l-0.011-0.18c0.004,0.11,0.006,0.18,0.01,0.297c0.006,2.787,0.049,4.539,0.151,4.609
							c0.358,9.742,0.755,14.768,0.994,33.945c0.497-1.401,0.404-17.591,0.29-24.603l-0.445-6.061
							c0.771-5.784-0.024-17.29,0.251-21.697c0.793,11.504,0.382,44.63,0.793,64.51c0.752-12.107,1.018-38.472,1.073-61.474
							l-0.354,10.129l0.063-12.035l-0.589,11.646c0.16-11.399,0.086-21.254,0.177-31.556c-0.063,12.063-0.764,16.759-0.616,9.936
							c0.279-6.72,0.222-10.222,0.106-13.327c-0.103-3.106-0.293-5.815-0.327-10.95c0.028,5.717-0.051,13.155-0.3,8.36
							c0.497-20.253,0.041-25.72,0.551-44.141c-0.798,2.289-0.24-23.01-0.926-25.763l-0.009,8.546l-0.617-18.12
							c0.547-16.733,0.778,14.802,1.071-10.655c-0.227-23.48-1.109-22.861-1.444-41.317c0.575,6.074,1.213,20.706,1.428,35.6
							l0.094-9.021c0.161,2.385,0.363,8.726,0.418,15.761c0.042,7.035,0.087,14.759,0.118,19.901
							c-0.67-16.991-0.115,7.955-0.495,15.69c0.477,1.418,0.328-9.494,0.791,3.389c-0.092-12.071-0.143-13.837-0.074-29.194
							c0.018,33.195,1.825,29.838,1.632,58.817c-0.303-13.355-0.641,4.659-0.855,6.267c0.051,3.143,0.127,7.9,0.203,12.529
							c0.037,4.629,0.073,9.129,0.094,11.752l0.702-4.748c0.19,16.891-1.271,22.751-0.694,42.244
							c0.388,2.536,0.24-17.144,0.296-13.637c0.132,13.336-0.088,22.404-0.422,31.097c-0.357,8.691-0.699,17.013-1.186,28.843
							c0.171,1.342,0.604,1.072,0.767,9.361c-0.344-2.609-0.694,3.516-0.772-5.806c-0.356,7.913-0.278,17.296-0.284,24.284
							c0.622-16.477,0.423,6.755,0.594,9.799c-0.269,8.536-0.343-2.612-0.337-7.867c-0.269,6.853-1.055,14.98-0.54,18.889
							c-0.216,0.129-0.384-4.668-0.475-11.084c-0.09-6.417-0.104-14.452-0.01-20.805l-0.269,8.562
							c-0.079-5.904,0.008-7.007,0.273-15.506c-0.524,8.315-0.869,7.487-1.127,5.543c0.088-1.089,0.086,0.609,0.172-0.432
							c0.268-6.842,0.274-12.094,0.011-10.51c-0.428-6.162-0.58,9.485-0.973,14.115c-0.044,3.505-0.087,7.009-0.13,10.444
							l1.004,35.603c-0.151,15.201-0.661,22.021-1.533,33.415l0.35,3.149c-0.648,13.213-1.367,25.675-1.605,17.18
							c0.185-0.469,0.225-2.215,0.378-5.083c-0.049-0.382-0.067-1.045-0.068-1.881c-0.023-0.277-0.036-0.431-0.056-0.659
							c-0.473,14.157-0.769,22.995-0.796,23.81c0.374-24.056-0.836-1.239-1.525-5.3l-0.813,24.271
							c0.94-14.69,0.437-0.248,0.319,4.978c-0.191,0.488-0.355,2.966-0.506,6.35c-0.066,1.692-0.141,3.61-0.219,5.619
							c-0.059,1.796-0.121,3.673-0.182,5.51c0.001,0.413-0.052,0.837,0.098,1.215c0.037,0.201,0.193,0.346,0.266,0.526
							c0.136,0.14,0.243,0.304,0.396,0.414c0.284,0.246,0.594,0.435,0.896,0.584c0.147,0.067,0.311,0.163,0.429,0.201
							c0.166,0.067,0.326,0.133,0.48,0.194c0,0-0.119-0.021-0.237-0.041c-0.07,0-0.141,0-0.141,0
							c0.056,0.024,0.241,0.109,0.435,0.185c0.2,0.067,0.404,0.137,0.612,0.207c0.404,0.15,0.874,0.272,1.353,0.404
							c0.96,0.261,2.048,0.481,3.203,0.683c2.318,0.396,4.952,0.653,7.674,0.809c5.454,0.313,11.265,0.219,16.122,0.045
							c-0.208-0.071,2.737-0.396,6.676-0.765c0.515-0.039,1.044-0.079,1.582-0.12c0.529-0.03,1.066-0.061,1.607-0.091
							c1.027-0.058,2.066-0.117,3.08-0.175c2.027-0.12,3.951-0.235,5.466-0.325c-4.21-0.108-6.743-0.192-8.195-0.263
							c-1.409-0.072-1.92-0.124-1.781-0.179c0.063-0.026,0.28-0.054,0.53-0.081c0.225-0.024,0.495-0.055,0.738-0.081
							c0.485-0.057,0.858-0.12,0.522-0.201c1.743,0.053,4.877,0.105,5.243,0.048c2.414-0.104-3.269-0.233-3.741-0.403l-3.47-0.005
							c-1.284,0.014-2.415,0.055-3.551,0.095c-2.215,0.077-4.416,0.153-6.58,0.228c-4.275,0.125-8.356,0.164-12.051,0.071
							c-3.691-0.089-7.001-0.309-9.657-0.64c-1.327-0.164-2.495-0.351-3.458-0.545c-0.508-0.083-0.89-0.203-1.304-0.28
							c-0.479-0.133-0.445-0.086-0.567-0.083c0.065,0.046,0.071,0.063,0.193,0.124c0.19,0.102,0.442,0.177,0.67,0.259
							c0.446,0.168,0.939,0.299,1.433,0.417c0.983,0.239,2.019,0.393,3.086,0.526c2.151,0.254,4.469,0.404,7.375,0.681
							c-3.083-0.027-6.533-0.232-9.89-0.925c-0.827-0.178-1.636-0.388-2.388-0.63c-0.203-0.072-0.409-0.146-0.617-0.219
							c-0.145-0.074-0.303-0.13-0.442-0.223c-0.61-0.298-1.024-1.002-0.877-1.748c0.148-3.187,0.308-6.592,0.477-10.218l0.63-4.86
							l0.456-14.998c-0.066,6.266,0.532,2.521-0.097,18.253c0.477-1.987,0.618-15.601,1.183-25.224l-0.321-4.95
							c0.217,1.911,1.208-18.697,0.959-4.034l-0.633,23.85l0.671-6.604l-0.807,20.153l-0.066-4.77
							c-0.134,3.524-0.244,6.394-0.333,8.741c-0.056,1.173-0.106,2.215-0.15,3.144c-0.025,0.464-0.049,0.899-0.072,1.308
							c-0.009,0.1-0.012,0.022-0.019,0.044c-0.075,0.206-0.074,0.374-0.066,0.511c0.011,0.138,0.021,0.265,0.128,0.402
							c0.04,0.043,0.021,0.049,0.037,0.073c0.017,0.011-0.029-0.005,0.042,0.028l0.171,0.082c0.14,0.051,0.287,0.104,0.444,0.16
							c0.31,0.115,0.667,0.241,1.128,0.356c0.433,0.131,0.961,0.251,1.568,0.376c2.416,0.504,6.275,0.966,12.34,1.048
							c4.97-0.205,10.114-0.417,16.447-0.678c1.645-0.055,3.332-0.137,5.47-0.112c1.794,0.024,3.68,0.05,5.674,0.076
							c3.988,0.08,8.41,0.169,13.394,0.27c-14.428-0.065-1.49,0.442-6.925,0.744c14.71,0.493,19.687,0.022,27.324-0.122
							c3.742,0.404,6.403,0.729-6.74,0.483c-1.659,0.705,17.294,0.129,18.48,0.897c43.549,0.621,34.927-1.91,85.816-0.22
							l-1.911,0.274c32.328-0.121,50.976,0.305,80.912,0.258l23.566,0.91c-5.271,0.087-19.447,0.579-12.834,0.989
							c-11.461-0.847-23.63-0.647-35.981-1.138c-1.263,0.194,3.766,0.371,5.957,0.509c-7.455-0.052-11.194-0.423-21.041-0.346
							c0.474,0.163,11.214,0.42,3.118,0.467l-13.39-0.559c-17.923,0.109-8.837,1.124-29.884,0.723
							c3.917-0.349,11.917-0.961,20.068-1.003c-9.617-0.149,12.824-0.183,4.049-0.49c-13.861,0.554-20.547,0.049-38.972,0.138
							c2.164-0.057,2.737-0.172,7.271-0.145l-26.726-0.661c6.609,0.468-22.085,0.081-19.606,0.668
							c28.485,0.648,20.118,0.192,52.578,0.984c-9.192-0.011-21.048,0.375-26.608,0.809c-0.282-0.026-0.751-0.051-1.75-0.075
							c-4.968,0.472,0.087,0.693-0.021,1.645c7.415-0.229,13.598-0.168,20.113-0.066c6.515,0.103,13.362,0.268,22.105,0.098
							c3.292-0.511-10.137-0.689-18.827-0.727c0,0,3.851-0.029,7.702-0.06c3.851-0.056,7.702-0.111,7.702-0.111l-3.034,0.223
							l39.09,0.407c-7.408-0.017-9.926,0.271-13.793,0.477c5.044,0.051,10.039,0.218,15.351,0.4
							c-1.113-0.505-0.407-0.853,4.513-0.813c25.151,0.268,39.13,0.798,48.411,1.422c0.965-0.006,2.054-0.013,2.929-0.018
							c-4.215-0.536,17.865-0.813,25.66-1.287c-0.387,0.502,12.96,0.446,20.209,0.652c3.86-0.633-1.287-1.401-10.112-1.943
							c-17.006,0.453-9.53,0.502-17.567,1.24l-27.283,0.362l6.101-0.447c-13.615-0.294-26.697,0.267-25.694-0.356
							c7.196-0.376,19.074-0.052,26.215-0.43l-9.005-0.283c15.892-0.522,8.142,0.644,27.382,0.327
							c-7.075-0.576,1.743-0.028,9.985-0.338c-6.613-0.411-33.873-0.048-28.088-0.922c10.005-0.356,33.655,1.307,46.893,0.396
							l-0.648,0.104c19.527,0.062,26.39-0.477,33.699-0.824c8.31,0.27,19.78-0.178,28.785-0.236l-0.22,0.265l12.704-0.147
							c-6.047,0.499-14.889,0.03-25.802,0.132l1.358,0.487c-12.582-0.546-20.973,0.363-30.729,0.814
							c14.2-0.466,40.102,0.004,43.435-0.965l8.786,0.471l4.202-0.191c6.547,0.353-0.134,0.955-12.826,1.103
							c-2.205-0.117-3.309-0.175-2.64-0.279c-5.891,0.235-11.3,0.632-25.557,0.561l7.607-0.282
							c-17.751,0.017-33.888,0.253-39.967,0.753c25.627,0.131,50.828,0.101,74.891,0.009c7.094-1.129,15.511-1.775,19.123-2.817
							c16.142-0.266,38.057-0.361,52.079-0.229l-1.287,0.218c6.843,0.025,13.146-0.104,18.401-0.282
							c7.229,0.186-4.941,0.603,0.096,0.69l23.118-0.617c-1.421,0.483-20.878,0.714-30.116,0.854
							c1.742-0.06,5.263-0.179,4.132-0.228c-10.749-0.08-30.765,1.004-35.469,0.28c-5.235,0.133,10.635-0.528-7.094-0.513
							c-11.872-0.22-15.734,0.397-16.974,0.603c-0.191,0.266,18.634,0.309,12.104,0.646c9.239-0.083,12.917-0.362,24.735-0.24
							c-9.156,0.157-21.591,0.657-26.472,0.283c-18.105,0.545-15.502,1.777-6.963,1.821c-2.035-0.383,33.032-0.574,9.283-1.013
							c5.332-0.274,12.869-0.393,20.817-0.558c7.948-0.196,16.307-0.373,23.281-0.61l-0.633,0.106l17.32-0.327
							c-2.438,0.167-7.673,0.347-7.843,0.611l23.983-0.989c-13.499,0.634,8.375,0.231,14.523,0.37
							c2.565-0.435,11.932-0.841,2.938-0.967c-10.11-0.175-5.881,0.288-15.071,0.427l13.007-0.79l1.117,0.049l7.827-0.613
							c17.727-0.171-7.729,1.303,14.979,0.526l-2.965-0.676c13.148-0.102,28.169-0.052,42.225-0.044
							c3.528,0.003,6.907-0.014,10.062-0.153c3.134-0.139,6.116-0.427,8.383-0.975c1.269-0.321,1.249-0.341,1.595-0.524
							c0.278-0.168,0.503-0.423,0.572-0.726c0.038-0.148,0.046-0.3,0.042-0.446c-0.006-0.566-0.013-1.121-0.019-1.665
							c-0.019-1.261-0.037-2.469-0.055-3.618c0.413,5.104,1.067,7.426,1.441,0.482c-0.011,0.991-0.021,2.107-0.034,3.324
							c-0.004,0.54-0.008,1.103-0.012,1.685c-0.005,0.251-0.027,0.514-0.103,0.771c-0.138,0.525-0.553,0.965-1.056,1.252
							c-0.253,0.145-0.523,0.267-0.807,0.364c-0.314,0.104-0.915,0.293-1.569,0.428c-2.567,0.603-5.723,0.891-8.817,1.057
							c-3.112,0.162-6.231,0.223-9.11,0.274c-1.127-0.063,2.549-0.256,7.771-0.624c2.597-0.196,5.618-0.454,8.377-0.969
							c0.712-0.111,1.339-0.278,1.966-0.434c0.347-0.072,0.578-0.156,0.813-0.23c0.298-0.085,0.335-0.111,0.467-0.16
							c0.448-0.183,0.892-0.435,1.157-0.829c-0.246,0.115-0.536,0.26-0.868,0.372c-0.166,0.058-0.339,0.115-0.521,0.164
							c-0.155,0.042-0.315,0.086-0.479,0.131c-0.116,0.031-0.203,0.066-0.346,0.1l-0.456,0.101
							c-2.423,0.589-5.917,1.026-9.381,1.254c-3.47,0.239-6.947,0.362-9.635,0.383c-2.678,0.022-4.539-0.061-4.911-0.351
							c-31.815-0.039-23.712,1.415-50.723,1.039c-0.366,0.531-7.673,0.347-9.087,0.828c8.004,0.767,36.098-0.453,53.624-0.357
							c-1.715,0.059-5.166,0.178-5.84,0.285c6.265,0.004,10.69-0.038,14.643-0.119c3.952-0.085,7.458-0.175,11.678-0.445
							l-1.07-0.021c7.393-0.548,9.286-0.987,10.631-1.053c0.328-0.028,0.62-0.04,0.932-0.054c0.277-0.02,0.54-0.049,0.879-0.087
							c0.434-0.063,1.15-0.12,2.018-0.846c0.297-0.303,0.681-0.946,0.707-1.759L628.88,789l-0.002-0.432
							c-0.002-0.423-0.003-0.854-0.005-1.284c-0.004-0.861-0.009-1.727-0.013-2.548c-0.025-3.29-0.089-5.9-0.28-4.921l0.475-16.13
							l-0.588,0.741c-0.049-9.114,0.337-11.097-0.035-19.371l-0.527-0.397l-0.146,22.601c-0.19-11.466-0.509-3.227-0.64-15.808
							c0.599,14.078,0.275-9.927,0.763-11.305c0,0-0.071-2.32-0.142-4.641c-0.031-2.341-0.063-4.683-0.063-4.683l0.097,2.396
							c0.406-7.343-0.035-8.75,0.191-17.324c-0.239,5.055-0.482,9.236-0.648,13.767c-0.077,2.262-0.16,4.625-0.168,7.2
							c0.018,2.561,0.069,5.357,0.168,8.544c-0.066-2.319-0.148-5.208-0.236-8.307c-0.051-3.114-0.032-6.479-0.042-9.674
							c-0.003-6.397,0.017-12.193,0.05-14.478c-0.039-9.856,0.49-16.729,0.719-25.945c-0.115,17.694,1.711-6.162,0.679,29.273
							c-0.088-0.657-0.013-3.526,0.069-4.636c-0.38,2.357-0.467,7.669-0.445,13.353c0.032,5.68,0.115,11.756,0.299,15.54
							c0.192-0.977,0.315,0.525,0.415,0.586c0.05,0.03,0.093-0.3,0.137-1.482c0.035-1.188,0.097-3.231,0.198-6.62
							c-0.33,4.467-0.652-11.489-0.096-24.445l0.787,2.297l0.445-18.866l0.007,1.767c0.665-7.092,0.268-20.121,0.821-33.09
							c-0.063-4.686,0.132-16.012,0.196-24.235c0.007-2.056,0.014-3.918,0.019-5.434c-0.016-1.516-0.074-2.683-0.123-3.353
							c-0.109-1.341-0.247-0.69-0.47,3.168c0.513-11.626-0.175-21.837-0.304-34.52l-0.313,15.813
							c-0.624-18.688-0.231-13.31-1.199-28.25c0.225-1.515,0.405-4.851,0.648-1.816c0.02-12.629,0.043-27.962,0.063-41.988
							c-0.021-13.929-0.132-26.562-0.471-33.91c-0.069-17.768,0.871-20.582,0.313-45.522c-0.154-5.234-0.745,4.081-0.626-12.373
							c0.054-1.108,0.729,15.84,0.531-2.487c-0.731-13.043,0.139-30.646-0.565-47.686c0.154-8.993-0.063-24.59,0.469-21.347
							c0.004,14.24,0.278,34.39,0.546,37.454c-0.319-1.958-0.213,10.128-0.532-0.355c-0.22,21.489,0.415,13.933,0.294,33.198
							c0.213,1.327,0.487-9.906,0.277-14.033c0.688-0.1,0.606,37.98,1.31,20.852c-0.093-20.603-1.56-26.666-0.981-44.552
							c0.484,7.169,0.204,18.348,0.995,27.429l0.172-14.669l-0.582-10.645l0.106,0.633c0.415-25.955-0.91-23.99-1.449-47.207
							c-0.366,13.457-1.221-3.101-1.43,7.023c-0.218-15.531-0.222-26.938,0.468-27.044c0.805,29.047,0.743,1.646,1.654,28.493
							c0.211-4.41,1.063,6.382,1.005-9.617c-0.643-18.023-0.529,5.398-0.907-12.58c0.053-1.063,0.106-2.167,0.213-1.54
							c-0.428-8.268,0.048-9.649-0.432-19.655l0.158,2.372c0.314-12.338-0.617-13.498-0.091-24.115
							c-0.531,4.247-0.387-7.129-0.676-13.715c-0.122,5.381-0.373,9.528-0.601,14.985c-0.109,2.729-0.233,5.784-0.295,9.485
							c-0.035,3.703-0.037,8.051,0.018,13.363c0.427,2.565,0.638,1.013,0.906,9.738l-0.164-13.81
							c0.119,2.979,0.209,5.249,0.318,7.98l-0.099,13.266c-0.43-16.816-0.798-9.103-1.279-16.248
							c0.059-15.392-0.258-12.704-0.071-22.378c0.589,0.972,1.151-29.663,1.615-47.374c-0.021,2.751-0.047,6.302-0.062,8.219
							c0.315,12.867,0.536-8.851,0.702-9.326l-0.254-9.378c0.033,1.765,0.16,4.207,0.263,0.208
							c-0.052-12.693-0.645-11.959-0.696-24.633c0.331-0.949,0.778,9.769,0.985,1.889c0.298-2.715,1.088-11.362,0.93-28.194
							c-0.117-1.193-0.156-5.557-0.174-10.616c0.013,0.703,0.02,1.585,0.04,1.903l0.437-11.177c0.49,9.529-0.4,19.262,0.091,28.839
							l0.524,0.817c-0.063,7.45,0.135,17.572,0.385,22.227c0.144-11.359,0.006-13.752-0.008-26.456
							c0.348-1.776,0.532,7.172,0.56,8.462l-0.288-1.898c-0.535,15.147,0.396,22.654,0.205,41.512
							c-0.035,2.847-0.066,1.109-0.164,0.475c0.442,15.27-0.331,30.247,0.278,45.088l-0.257-4.839
							c0.101,5.052,0.25,12.517,0.423,21.187c0.294,8.667,0.629,18.54,0.964,28.408l0.208,0.157c0.106-2.192,0.161,5.216,0.11,9.192
							l-0.004-0.021c0.322,9.893,0.632,19.4,0.885,27.177c0.106-2.489,0.188-5.673,0.187-9.325
							c-0.269-3.091-0.221-21.228-0.75-18.736c0.262-8.381-0.327-21.877-0.17-28.031c-0.253,11.212-0.601-7.806-0.889-9.771
							c0.365-3.77,0.051-16.617,0.511-15.148c0.132-2.212-0.335,5.506-0.077,10.276c0.381,11.744,0.482-21.502,0.828-6.871
							c-0.241-18.608,0.015-43.129-0.327-62.325l-0.24,10.744c0.107-8.532,0.098-28.727,0.33-30.234
							c0.012,6.341,0.026,13.75,0.041,21.862c0.525,0.396,0.088-19.49,0.417-20.391l-0.718-23.566l-0.104,10.318
							c-0.273-6.502,0.268-28.074,0.456-44.065c0.656,9.179-0.154,24.125,0.015,40.953c0.187,12.224,0.751-7.542,0.842,4.025
							c0.189-2.998,0.223-10.545,0.068-14.269l0.164-4.563c0.572,10.325,0.27,33.457,0.782,48.853
							c-0.063-1.351-0.133-2.53-0.207-2.958c-0.31,11.851-0.354,23.89-0.234,35.447c0.235-6.112,0.105-8.531,0.046-12.025
							c0.164-0.433,0.184,10.476,0.345,14.604c0.24-10.749,0.396-2.004,0.536-8.805c0.123,7.001,0.052,12.672-0.057,21.203
							c-0.269,4.423-0.325-3.66-0.653-2.758c0.154,8.786-0.642,12.803-0.326,25.662c0.108-8.552,0.28-7.425,0.448-3.424
							c0.158,4.001,0.333,10.876,0.495,13.82l-0.001-2.865c0.426,5.42,0.48,10.02,0.163,13.768
							c-0.214-6.997-0.163-13.768-0.533-11.777c0.055,4.622,0.109,9.229,0.271,14.464l-0.319-4.759l0.272,22.971
							c0.372,3.635,0.905,9.706,1.436,12.882c-0.264,5.512,0.059,13.181,0.221,18.406l-0.162-2.429
							c-0.208,10.135,0.227,32.667,0.541,34.569c-0.207,7.24-2.349-51.14-1.644,0.029c0.144,19.491,1.053,12.127,1.466,23.255
							c0,0-0.103-0.628-0.158,0.478c-0.009,8.535,0.364,9.389,0.57,16.405c0.109-5.118,0.063-12.536-0.094-14.925
							c0.422,2.559,0.093,17.797,0.457,24.287c-0.683-8.452-0.119,16.437-0.486,9.875c-0.139,8.458-0.053,17.207,0.133,24.949
							c0.153,7.768,0.375,14.558,0.609,19.021c-0.39,5.774-0.364,10.832-0.286,16.793c0.078,5.952,0.21,12.726,0.028,22.026
							c0.023-2.855-0.094-8.039-0.01-12.034c-0.495-10.599-0.26,19.262-0.712,2.951c0.077,3.489,0.263,0.247,0.185-3.331
							c-0.056-6.242-0.273-12.186-0.499-10.605l-0.438,15.179l-0.12-5.293l-0.606,23.021c0.1,0.624,0.224-1.537,0.285-2.645
							c-0.144,13.325-0.078,27.754-0.022,41.688c0.033,6.978,0.065,13.851,0.097,20.448c-0.117,6.588-0.229,12.9-0.333,18.767
							c0.658,2.213,0.542,16.656,0.324,32.919c-0.217,16.241-0.535,34.288-0.28,43.76c-0.308-5.08-0.963-7.867-1.312-4.73
							c0.019-4.223-0.387-12.876-0.093-22.448c0.253-1.525,0.725-13.346,0.841-5.73c0.329-26.469-0.679,3.572-1.055-4.252
							c-0.202,14.664-0.178,26.299-0.104,36.581c0.021,2.57,0.041,5.056,0.062,7.483c0.012,2.425,0.042,4.796,0.126,7.157
							c0.115,4.713,0.228,9.296,0.342,13.961l-0.164,0.465l0.334,14.104c0.074-11.506,0.867-10.898,0.613,3.944l-0.042-1.811
							c-0.16,4.225-0.135,10.748-0.074,17.874c0.004,0.445,0.008,0.893,0.012,1.342l0.003,0.338l-0.012,0.484
							c-0.007,0.342-0.043,0.68-0.072,1.019c-0.158,1.347-0.536,2.68-1.231,3.859c-1.382,2.386-3.809,3.993-6.405,4.968
							c-1.297,0.497-2.294,0.745-3.304,0.978c-1.027,0.27-1.976,0.389-2.943,0.565c-0.952,0.143-1.874,0.242-2.787,0.35
							c-0.896,0.072-1.779,0.144-2.644,0.213c0,0-2.316,0.267-4.595,0.451c-2.258,0.167-4.516,0.334-4.516,0.334
							c-13.16,0.109-13.73-0.742-18.015-1.201c-20.606,0.182-32.496,1.021-47.128,1.607c-6.623-0.294-37.489-0.021-21.141-0.663
							c-18.583,0.546-14.814,2.494-46.705,1.764l8.271-0.456c-15.238,0.287-33.727,0.443-50.16,0.653
							c-16.434,0.188-30.813,0.314-37.836,0.146c11.241-1.321-38.075-1.201-43.493-2.449c1.51,0.284-9.941,0.414-11.609,0.573
							c-2.51-0.142-6.688-0.273-11.121,0c11.886,0.22-8.357,1.337,14.367,0.761c-11.5,0.953-26.319,1.519-51.514,1.322l0.381-0.524
							l19.932,0.278c-2.012-0.401,8.247-0.311,12.453-0.465c-37.078-0.517,4.856-1.206-33.048-1.361
							c-3.662,0.319-1.29,0.192-11.143,0.27c4.633,0.01,5.469-0.349-1.998-0.399l-7.172,0.378
							c-13.232-0.957,21.912-0.442,10.623-1.127c14.637-0.327,39.984-0.398,35.264-1.099c-23.897-0.386-21.504,1.133-46.492,0.679
							l-2.66-0.302c-8.79,0.143-10.213,0.599-15.027,0.85c-0.433-0.165-2.666-0.301-8.312-0.381
							c-14.847,0.589-24.7,0.663-38.399,1.321c36.448-0.338,31.152,0.7,68.772,0.429c-5.896,0.184-32.379,0.188-34.011,0.905
							l0.355-0.525c-12.233,0.201-24.46,0.4-39.82,0.136l9.379-0.241c-10.181,0.103-18.642-0.081-26.564-0.356
							c-7.922-0.254-15.308-0.436-23.345-0.114c5.673,0.13,10.278,0.182,13.782,0.153c-10.482,0.081-23.628-0.166-35.017-0.424
							l-23.577,0.523c0.211-0.259-14.722-0.495-7.511-0.807c-16.96-0.652-24.97,0.016-34.776,0.002
							c-17.364-0.816,15.055-0.027,16.77-0.73c-11.966-0.299-24.292-0.487-35.316-0.565c-1.378-0.009-2.735-0.017-4.069-0.025
							c-0.629,0.003-1.252,0.005-1.869,0.008c-0.632,0.018-1.258,0.036-1.877,0.054c-2.571,0.1-5.036,0.194-7.366,0.285
							c-4.707,0.169-8.917,0.245-12.407,0.223c5.029,0.283,7.436,0.315,7.186,0.457c-0.371-0.086-3.015-0.105-6.288-0.221
							c-3.273-0.115-7.189-0.374-10.049-0.747c0,0-1.001-0.056-2.001-0.111c-0.509-0.045-1.017-0.089-1.399-0.122
							c-0.38-0.03-0.641-0.064-0.641-0.064c-2.44-0.523-4.277-1.167-5.461-1.664c-0.754-0.322-1.352-0.602-1.66-0.791
							c-0.311-0.198-0.426-0.291-0.359-0.287c0.073-0.001,0.299,0.113,0.745,0.284c0.226,0.082,0.499,0.182,0.817,0.298
							c0.279,0.095,0.598,0.204,0.956,0.326c1.219,0.343,2.947,0.815,5.013,1.137c-1.219-0.257-2.48-0.537-3.81-0.938l-1.004-0.309
							c-0.167-0.048-0.345-0.125-0.518-0.187l-0.659-0.253c-0.934-0.342-1.714-0.813-2.565-1.236
							c-1.609-0.964-3.045-2.238-4.046-3.85c-0.993-1.641-1.299-3.549-1.267-5.496c0.045-1.354,0.09-2.71,0.134-4.061
							c0.048-1.115,0.096-2.227,0.143-3.328c0.112-2.202,0.262-4.365,0.474-6.446c-0.051,2.088-0.104,4.258-0.158,6.465
							c-0.089,2.423-0.179,4.886-0.269,7.342l0.031,1.601c0.053,0.523,0.154,1.034,0.229,1.552c0.127,0.505,0.326,0.996,0.492,1.49
							c0.255,0.456,0.485,0.932,0.786,1.356c1.21,1.702,2.907,3.002,4.788,3.884c2.118,1.033,3.425,1.373,4.879,1.765
							c1.428,0.38,2.777,0.629,4.074,0.85c5.165,0.817,9.404,0.948,12.211,0.973c-6.659-0.182-11.997-0.703-16.844-2.053
							c-0.604-0.163-1.217-0.387-1.805-0.576c-0.52-0.191-1.4-0.542-2.104-0.878c-1.37-0.725-2.687-1.471-3.675-2.516
							c-0.551-0.465-0.943-1.059-1.375-1.605c-0.195-0.287-0.344-0.605-0.511-0.907c-0.18-0.298-0.294-0.622-0.388-0.952
							c-0.487-1.29-0.461-2.657-0.447-4.013c0.19-2.67,0.379-5.313,0.582-8.15c0.173-2.628,0.357-5.437,0.567-8.631
							c0.381-6.393,0.766-14.338,1.145-25.486c0.186-0.468,0.208,6.09,0.549-1.354c0.654-17.253-0.501-4.538-0.639-9.94
							c-0.388,13.283-0.875,19.452-1.656,27.132l-0.118-3.556c0.168-0.528,0.554-8.863,0.804-11.312l-0.469-2.172
							c0.582,1.021,1.663-12.295,1.902-22.787c-0.934,10.573-0.781,7.713-1.625,10.563c-0.01-14.761,1.417-16.6,1.447-33.143
							c0.146,1.244-0.356,15.67,0.362,3.215c0.274-5.155,0.171-7.398,0.08-9.214c-0.096-1.816-0.225-3.209-0.222-6.673
							c0.17,3.907,0.364,5.363,0.568,6.901c0.187,1.538,0.465,3.161,0.56,7.395c-0.763,18.332-0.341,7.393-0.924,25.32l1.128-15.15
							c-0.618,15.536,0.086,11.319,0.229,12.607c0.866-13.256,0.894-18.264,0.818-22.088c-0.043-3.823-0.315-6.47-0.042-15.009
							c-0.166-8.247-0.45,15.999-0.523,3.104c0.45-15.971-0.256-3.653-0.063-21.587l0.169,3.009
							c0.439-5.472,0.183-10.901,0.279-17.242c0.004-6.977-2.001,7.849-1.366-20.814c0.113,1.407,0.194,1.925,0.254,1.927
							l3.735,28.076c0.367-14.534,0.763-30.177,1.173-46.393c0.093-4.055,0.267-8.144,0.303-12.263
							c0.048-4.119,0.097-8.265,0.146-12.431c0.113-8.332,0.227-16.74,0.34-25.159c0.906-7.927,0.563,24.045,0.962,21.989
							l-0.268,15.361c-0.359-0.867,0.081-32.188-0.646-18.321c-0.004,6.782-0.007,12.638-0.011,18.008
							c-0.016,5.371-0.207,10.254-0.287,15.096c-0.205,9.683-0.344,19.19-0.27,32.063c0.523-3.986,0.683-12.46,0.844-22.026
							c0.093-4.783,0.192-9.839,0.288-14.746c0.079-2.453,0.156-4.868,0.23-7.193c0.062-2.326,0.125-4.562,0.223-6.653
							c-0.049,7.031-0.173,12.965-0.166,18.729c0.12-3.93,0.241-7.928,0.365-11.995c0.055-4.067,0.111-8.203,0.168-12.407
							c0.112-8.407,0.227-17.086,0.346-26.029l-0.184-4.021c-0.186,12.056-0.314,20.396-0.331,21.471
							c0.171-15.984-0.224-29.471-0.846-30.535l-0.04,2.84l-0.161-5.776C12.214,549.015,12.276,545.266,12.339,541.537z
							 M533.848,1.542c-0.971,0.069-1.735,0.147-2.3,0.241C532.133,1.686,531.478,1.633,533.848,1.542z M68.689,796.185
							c-5.329-0.105-10.668-0.211-16-0.317c-2.717-0.085-5.401,0.023-8.05,0.063c-2.656,0.052-5.301,0.086-7.936,0.077
							c-5.266-0.024-10.507-0.186-15.598-0.802c-2.534-0.323-5.057-0.732-7.385-1.46c-1.241-0.372-2.112-0.749-3.04-1.256
							c-0.901-0.51-1.733-1.215-2.181-2.154c0.352,0.879,1.068,1.536,1.825,2.051c0.371,0.282,0.789,0.481,1.193,0.706
							c0.419,0.204,0.792,0.365,1.297,0.572c1.943,0.739,3.988,1.228,5.972,1.613c3.987,0.745,7.769,1.088,11.079,1.34
							c6.634,0.455,11.432,0.526,13.137,0.696c1.706,0.142,0.334,0.371-5.336,0.534c-2.835,0.061-6.748,0.119-11.888-0.164
							c-2.568-0.154-5.446-0.399-8.626-0.957c-1.586-0.298-3.255-0.643-4.963-1.236c-1.726-0.616-3.645-1.438-4.985-3.013
							c0,0-0.045-0.05-0.123-0.139c-0.069-0.095-0.211-0.2-0.303-0.382c-0.206-0.348-0.509-0.802-0.632-1.333l-0.125-0.384
							c-0.012-0.132-0.024-0.262-0.037-0.387c-0.023-0.251-0.045-0.486-0.064-0.688c0.005-0.406,0.008-0.677,0.008-0.677
							c-0.05,0.546-0.016,1.112,0.027,1.704c0.053,0.289,0.157,0.575,0.237,0.872c0.074,0.301,0.274,0.555,0.412,0.841
							c0.671,1.088,1.757,1.969,3.011,2.665c0.321,0.164,0.646,0.329,0.975,0.497c0.346,0.141,0.695,0.282,1.048,0.426
							c0.67,0.263,1.368,0.474,2.077,0.681c1.422,0.401,2.913,0.7,4.444,0.957c6.136,0.973,12.936,1.117,19.493,1.04
							c2.654-0.119,6.776-0.41,11.45-0.741c4.67-0.253,9.939-0.347,14.848-0.537c4.912-0.176,9.481-0.34,12.8-0.459
							c1.659-0.07,3.005-0.128,3.925-0.167c0.92-0.045,1.414-0.079,1.368-0.098c-3.743-0.403-9.214-0.104-16.028-0.311
							L68.689,796.185z M83.808,798.491c12.08,0.317,9.334,0.001,11.213-0.219c-4.253-0.031-8.499-0.063-12.697-0.094
							C83.929,798.265,84.72,798.364,83.808,798.491z M94.302,798.014c-1.357-0.026-2.515-0.055-3.121-0.097L94.302,798.014z
							 M12.025,645.206c-0.006,0.538-0.008,0.731-0.014,1.241c0.085-2.853,0.171-5.712,0.261-8.695
							C12.206,638.908,12.123,641.113,12.025,645.206z M10.844,669.708l0.387,2.88c0.079-2.66,0.16-5.374,0.243-8.151
							C11.247,665.348,11.045,666.301,10.844,669.708z M6.407,748.396c0.32,4.988-0.407,21.612,0.176,22.665
							c0.113,1.068,0.333-2.426,0.563-6.348c0.214-4.378,0.443-9.052,0.686-14.008c-0.083-0.177-0.125-1.165-0.132-2.814
							c-0.3,4.892-0.604,8.153-0.9,6.152c1.411-12.544-0.089-11.303,0.741-24.893C7.292,724.804,6.416,744.266,6.407,748.396z
							 M634.569,416.997c0.052-0.387,0.182-1.72,0.341-3.591l0.385,9.591c-0.014,17.124-0.818,30.845,0.069,46.242
							c-0.144,7.209-0.528,11.071-0.842,14.763c0.015-3.529,0.029-6.831,0.041-9.582
							C633.115,431.238,635.603,451.894,634.569,416.997z M634.149,613.777c-0.042-1.764-0.146-2.398-0.146-2.398
							c0.764,19.113,0.627,36.553,0.602,51.782c-0.058,15.232-0.226,28.258-0.438,38.562c0.531-3.988,1.226-22.465,1.577-31.247
							l0.378,7.794l-0.499,4.852l0.225,13.513c0.421-3.769,0.549-14.672,0.952-21.965c-0.087-0.638-0.266-24.008-0.466-30.54
							l-0.705,18.655c0.12-2.519,0.264-9.967,0.383-18.013c0.053-4.022,0.106-8.195,0.156-11.976
							c0.056-3.779-0.047-7.172-0.064-9.627c-0.142-0.098-0.268,4.085-0.369,8.556c-0.146,4.47-0.191,9.231,0.073,10.301
							c-0.426,2.007-0.07-17.492-0.714-5.167c-0.004-1.827-0.009-3.788-0.013-5.844c-0.021-2.056-0.041-4.205-0.063-6.407
							c-0.03-4.403-0.027-9.017-0.005-13.511c0.044-8.987,0.164-17.499,0.252-22.896l0.648-1.836
							c0.233-11.847-0.799-7.986-0.423-22.048c0.127,17.275,0.715-2.928,0.764,10.811c0.246-4.39,0.689-0.101,0.641-13.857
							c-0.862-11.46,0.541-14.483-0.221-25.343c0.271-7.255,0.52,7.813,0.636-6.467c-0.454-16.38-0.779-15.426-1.407-16.434
							c-0.176,15.298,0.816,17.195,0.664,29.707l-1.076-24.889c-0.152,4.587-0.168,7.979-0.125,10.827
							c-0.063-4.999-0.222-9.246-0.441-12.877c-0.115-2.066-0.222-3.975-0.319-5.737c-0.006,14.093-0.021,26.609-0.288,28.818
							l-0.305-1.945c-0.279,4.98-0.061,13.131,0.162,16.88c0.035,12.628,0.453,25.234,0.07,27.994l-0.286-4.784
							C634.071,592.536,634.114,594.265,634.149,613.777z M304.144,798.455c9.397,1.15,19.762,2.344,63.644,1.951l-3.454,0.087
							c22.115,0.637,43.114-1.052,70.02-0.351c-13.054,0.458-12.351,0.418-26.761,1.422l14.006-0.355
							c-3.878,0.619,10.094,0.264,20.372,0.263l-9.068,0.75c-6.171-0.19-22.165-0.219-21.695-0.056
							c3.501-0.09-21.118-0.852-34.491-0.603c1.38,0.485,29.616,0.205,17.01,1.043c11.111-0.368,12.492,0.116,24.108-0.089
							c-11.14,0.367-2.756,0.676-11.048,1.057l19.049-0.222c0.497,0.161-27.742,0.442-12.131,1
							c7.632-0.279,28.014-0.016,28.376-0.544l0.471,0.16c14.279,0.073,6.276-0.765,23.811-0.515c0.205-0.266-3.14-0.439-9.42-0.367
							c-5.309,0.134-6.119,0.499-17.054,0.604c-4.904-0.398,13.189,0.013,5.595-0.663c-3.773-0.336-28.865,0.384-20.871-0.424
							l14.25,0.072c0.363-0.529,10.684-0.528,10.391-0.954c8.713-0.243,16.941,0.404,25.837-0.187
							c3.692-0.385-2.765-0.943,11.961-0.839c11.511,0.646,45.411,0.096,58.106-0.164l11.107-0.468
							c-0.948-0.313-21.229,0.293-14.101-0.211l17.327-0.331l-1.334,0.219c5.742-0.022,11.611-0.309,16.849-0.486
							c-5.392,0.443-17.884,0.438-15.396,0.959c8.136,0.013,9.379,0.201,16.863,0.009c-1.633,0.058-3.038,0.129-2.83,0.203
							c16.472,0.045,15.894-0.802,20.02-1.029c16.546-0.909-16.697-0.468-14.589-1.06c0,0,12.083-0.217,24.166-0.435
							c6.041-0.101,12.086-0.199,16.579-0.661c2.244-0.233,4.101-0.527,5.371-0.834c1.28-0.284,1.977-0.525,1.977-0.524
							c-1.912,0.671-3.95,1.099-5.284,1.354c-1.337,0.257-1.977,0.436-1.188,0.454c2.969-0.246,4.461-0.569,5.305-0.711
							c0.853-0.146,1.041-0.178,1.381-0.235c0.329-0.076,0.857-0.156,2.273-0.8c0.686-0.349,1.632-0.83,2.588-1.86
							c0.461-0.522,0.898-1.202,1.167-2.06c0.27-0.847,0.339-1.892,0.314-2.968c-0.749,1.103-0.502-21.025-0.955-32.807
							c0.299-5.477,0.358-6.608,0.387,5.41c0.485-1.349,0.272-17.506,0.308-23.243c-0.146-3.328-0.051-8.989-0.111-12.583
							c-0.333,4.808-0.6,2.75-0.616-7.668l-0.092-0.607c-0.654,17.098-0.926,43.535-0.454,54.255l-0.247-3.039
							c-0.097,4.923-0.087,10.067-0.03,15.162c0.017,1.273,0.033,2.544,0.05,3.807c-0.005,1.325,0.133,2.385-0.139,3.451
							c-0.25,1.067-0.936,1.978-1.787,2.615c-0.86,0.64-1.827,1.075-2.821,1.429c-2.104,0.682-4.325,1.114-6.431,1.348
							c-2.109,0.255-4.128,0.39-6.001,0.459c-3.746,0.135-6.908,0.068-9.19-0.134c0.835-0.375-3.971-0.038-3.635-0.569
							l-14.542,0.583l3.021-0.274l-24.746,0.409l0.653-0.106c-11.758,0.63-20.968,1.124-28.325,1.518
							c-0.024,0.23,0.741,0.292-3.179,0.508c-3.934,0.16-6.918,0.212-9.579,0.213c-0.021,0.002-0.021,0.002-0.021,0.004v-0.003
							c-6.073,0.004-10.122-0.279-17.602-0.326l23.013-0.326c1.87-0.413-0.092-0.795-11.37-0.937c4.61-0.068,6.537-0.396,0.83-0.374
							c-0.626,0.109-15.076,0.427-9.566,0.673c-10.93,0.199-25.245,0.146-40.975,0.186c-15.73-0.092-32.876-0.119-49.471,0.302
							c23.845-0.516-19.114-0.469,7.357-0.705c-18.479-0.571-15.897,0.661-34.734,0.618c-1.606-0.22,10.256-0.001,14.583-0.456
							c-31.317-0.183-52.841,1.213-83.14,1.01l-1.295-0.495C317.136,798.392,310.768,798.423,304.144,798.455z M244.206,798.707
							c-5.832,0.021-11.746,0.041-17.756,0.063c0.586,0.008,1.13,0.016,1.744,0.024l-17.524,0.289
							c10.765,0.254,17.854,0.832,2.783,0.992c1.27-0.194-3.132-0.468,2.107-0.555c-10.096-0.344-32.245-0.778-26.477-0.01
							c19.41-0.554,4.512,0.972,19.765,0.552c-8.186,0.409-16.292,0.219-24.02,0.285c8.048-0.283-1.865-0.938-13.945-1.308
							c-5.26,0.041-19.491-0.282-28.233-0.217c3.109,0.496-4.503,0.642,9.735,0.965c-5.226,0.041-13.313,0.016-22.366-0.35
							c3.592-0.024,9.872,0.013,9.44-0.156c-5.839-0.501-12.684-0.583-16.458-0.815c-3.012-0.021-6.052-0.041-9.009-0.062
							c0.882,0.053,1.646,0.114,2.189,0.187l-10.014,0.25c13.333-0.015,6.159,0.299,5.982,0.561
							c0.366-0.521-8.581-0.195-13.144-0.245l9.903,0.703c-4.795,0.208-16.909-0.652-14.416-0.063
							c21.027,0.531,29.114,0.556,48.134,0.67l-7.714-0.546c21.461,0.011,13.225,0.938,37.303,1.272
							c5.007-0.138,14.059,0.034,21.923,0.031c7.864-0.01,14.54-0.076,14.792-0.47c-3.022,0.224,14.987,0.793,23.242,0.483
							c9.126-0.67,36.706-0.604,28.353-0.983c-7.451-0.053-17.483,0.285-23.47-0.222l14.456-0.064l-9.482-0.451
							C246.929,799.688,246.456,799.301,244.206,798.707z M15.571,706.737c0.01-0.159,0.023-0.365,0.036-0.559
							c-0.01,0.214-0.021,0.421-0.03,0.62L15.571,706.737z"/>
						<path fill="#FFFFFF" d="M632.676,203.038c-0.15-4.157-0.047-14.434-0.449-12.424
							C632.655,190.369,632.161,208.976,632.676,203.038z"/>
						<path fill="#FFFFFF" d="M633.181,190.751c-0.097-0.724-0.263-0.222-0.245-4.833l0.018,12.697L633.181,190.751z"/>
						<path fill="#FFFFFF" d="M636.186,177.889c-0.271-6.551-0.421-10.701-0.318-20.979c1.066-3.854,0.17,16.828,1.105,21.494
							c0.233-18.839-0.634-24.627-0.61-40.124C635.873,145.957,635.399,177.318,636.186,177.889z"/>
						<polygon fill="#FFFFFF" points="637.438,186.266 637.279,175.786 637.211,176.82 637.37,187.306 						"/>
						<path fill="#FFFFFF" d="M628.509,413.243c-0.315,0.957,0.055,7.473,0.156,10.962
							C628.665,421.362,628.726,417.393,628.509,413.243z"/>
						<path fill="#FFFFFF" d="M298.275,8.538l79.875,0.104C355.168,8.611,333.948,8.584,298.275,8.538z"/>
						<path fill="#FFFFFF" d="M630.499,678.249c0.045-10.724-0.029-18.468-0.082-26.262c-0.017-7.792-0.032-15.633-0.056-26.552
							c-0.031,1.792-0.061,3.508-0.09,5.156c-0.047,1.65-0.093,3.233-0.136,4.757c-0.075,3.048-0.117,5.857-0.139,8.498
							c-0.043,5.279,0,9.879,0.045,14.335c0.089,8.915,0.187,17.244-0.371,29.309L630.499,678.249z"/>
						<path fill="#FFFFFF" d="M628.048,670.637c0.677-3.54,0.411,16.549,0.917,13.45c0.117-14.451-0.458-6.74-0.164-19.848
							L628.048,670.637z"/>
						<polygon fill="#FFFFFF" points="638.813,573.464 639.137,579.959 639.017,574.726 						"/>
						<polygon fill="#FFFFFF" points="627.434,768.129 627.292,765.773 627.115,776.398 						"/>
						<path fill="#FFFFFF" d="M627.147,763.42l0.145,2.354L627.147,763.42z"/>
						<polygon fill="#FFFFFF" points="640.134,581.802 640.257,572.138 639.977,567.377 						"/>
						<path fill="#FFFFFF" d="M636.254,667.271l-0.035-8.656C636.225,660.333,635.755,672.165,636.254,667.271z"/>
						<polygon fill="#FFFFFF" points="592.246,792.348 581.729,792.706 582.805,792.754 593.287,792.396 						"/>
						<path fill="#FFFFFF" d="M636.693,734.982c0.299-2.979,0.21,1.314,0.272,4.88c0.03,3.552,0.053,6.311,0.251,0.117
							c-0.025-2.748-0.042-4.531-0.053-5.635c-0.017-1.098-0.053-1.521-0.102-1.554C636.965,732.725,636.82,734.216,636.693,734.982
							z"/>
						<path fill="#FFFFFF" d="M564.654,799.03c-1.42,0.017-2.915,0.051-4.355,0.119C562.015,799.103,563.455,799.063,564.654,799.03
							z"/>
						<path fill="#FFFFFF" d="M564.654,799.03c4.584-0.054,9.17,0.071,12.311-0.101C571.248,798.783,569.168,798.888,564.654,799.03
							z"/>
						<path fill="#FFFFFF" d="M512.141,799.755l4.156-0.015c-4.243,0.281-2.23,0.224,1.559-0.008
							c4.404-0.067,4.154-0.213,4.677-0.321c0.882-0.069,1.757-0.139,2.707-0.214c-1.357,0.079-2.576,0.151-3.61,0.212
							C514.806,799.485,510.643,799.557,512.141,799.755z"/>
						<path fill="#FFFFFF" d="M317.066,792.66c15.343,0.292,19.312,0.307,18.478,0.685c14.564,0.074,12.306-0.548,21.09-0.72
							c-8.24,0.021-13.202,0.034-18.569,0.048C332.697,792.67,326.926,792.666,317.066,792.66z"/>
						<path fill="#FFFFFF" d="M356.634,792.625c1.846-0.015,3.61-0.028,5.753-0.046
							C359.988,792.576,358.211,792.596,356.634,792.625z"/>
						<polygon fill="#FFFFFF" points="573.575,803.026 564.041,803.697 567.542,803.578 						"/>
						<path fill="#FFFFFF" d="M294.297,792.342c2.845,0.04,7.406,0.051,9.645,0.189
							C304.763,792.169,291.459,792.302,294.297,792.342z"/>
						<path fill="#FFFFFF" d="M353.471,799.643c1.558,0.22,11.38,0.057,15.378,0.131
							C363.114,799.743,358.44,799.084,353.471,799.643z"/>
						<path fill="#FFFFFF" d="M250.271,793.587c2.845,0.04,7.219,0.312,5.323,0.603
							C259.729,794.035,265.327,793.424,250.271,793.587z"/>
						<path fill="#FFFFFF" d="M325.418,799.619l2.191,0.138l10.505-0.246c0,0-3.174,0.037-6.349,0.074
							C328.592,799.602,325.418,799.619,325.418,799.619z"/>
						<path fill="#FFFFFF" d="M362.89,804.941c11.817-0.47-18.747-0.997,1.605-1.425c-26.254-0.38,2.014,0.611-17.354,0.597
							C358.483,804.229,364.041,804.763,362.89,804.941z"/>
						<path fill="#FFFFFF" d="M347.142,804.113c-1.647-0.007-3.434-0.014-5.371-0.021
							C343.915,804.101,345.646,804.107,347.142,804.113z"/>
						<path fill="#FFFFFF" d="M180.855,800.436c1.717-0.021,2.889-0.052,3.972-0.088
							C183.476,800.363,182.187,800.39,180.855,800.436z"/>
						<path fill="#FFFFFF" d="M285.289,804.26l17.714-0.55c-11.832,0.365-41.596,0.162-39.746,0.824
							c9.639,0.189,21.237,0.085,26.002-0.168L285.289,804.26z"/>
						<path fill="#FFFFFF" d="M82.192,790.285l7.651-0.146l-9.546-0.217C83.029,790.061,78.075,790.466,82.192,790.285z"/>
						<path fill="#FFFFFF" d="M78.45,789.882l1.846,0.041C79.89,789.9,79.305,789.886,78.45,789.882z"/>
						<path fill="#FFFFFF" d="M214.352,800.406c5.721,0.079,10.298,0.089,15.518,0.004
							C227.706,800.273,213.452,800.075,214.352,800.406z"/>
						<path fill="#FFFFFF" d="M28.482,790.881c0,0,3.006,0.109,6.072,0.09c3.058-0.004,6.158-0.093,6.158-0.093
							s-3.383,0.078-6.716,0.059c-3.338-0.014-6.604-0.174-6.604-0.174L28.482,790.881z"/>
						<polygon fill="#FFFFFF" points="15.592,755.464 15.813,753.29 16.054,742.799 15.832,745.008 						"/>
						<path fill="#FFFFFF" d="M46.475,802.57c1.054-0.025,2.079-0.05,3.062-0.074c0.464-0.012,0.918-0.022,1.361-0.033
							c0.444-0.006,0.877-0.012,1.296-0.017c1.797-0.021,3.367-0.067,4.6-0.126c2.465-0.117,3.58-0.277,2.46-0.355
							c0,0-4.118-0.053-8.236-0.105c-1.88,0.004-4.017,0.082-5.558,0.119c-1.565,0.04-2.609,0.067-2.609,0.067
							c2.133,0.208,3.292,0.17,5.101,0.074c0.892-0.046,1.996-0.115,3.273-0.132c1.387-0.008,3.266,0.015,5.656,0.081
							c0,0-2.662,0.086-5.324,0.171c-1.127,0.043-2.458,0.143-3.434,0.211C47.134,802.522,46.475,802.57,46.475,802.57z"/>
						<path fill="#FFFFFF" d="M17.578,317.715c0.422,3.701,0.562,21.861,0.23,22.82c-0.174-2.438-0.471-12.281-0.576-6.093
							l1.06,14.354c-0.245,19.123-1.293-14.512-1.801-23.939c0.256,19.467,0.849,25.232,1.178,45.943
							c-0.019-6.11,0.132-9.975,0.262-13.204c0.581-0.713,0.615,18.591,0.873,32.387c0.122-8.788,0.417-3.709,0.747,2.687
							c0.036,1.151,0.082,1.916,0.129,2.46c0.04,0.744,0.078,1.447,0.116,2.171l-0.026-1.655c0.068,0.117,0.142-0.25,0.234-1.444
							c-0.35-11.576,0.008-20.437-0.099-27.892c-0.851,7.38-0.606-25.38-1.058-34.745l-0.304-10.813l-0.08-4.046
							c0.09-0.815,0.244,0.333,0.553,6.499c-0.289-5.146-0.554-22.316-0.832-20.725l-0.771-39.184
							c0.016-1.221,0.041-2.441,0.093-3.346c-0.086-1.357-0.141-1.583-0.186-1.403c0,0-0.824-42.668-1.648-85.336
							c-0.454-21.335-0.718-42.66-0.952-58.655c-0.229-15.995-0.382-26.659-0.382-26.659c-0.021,8.419-0.039,15.703-0.061,24.383
							c-0.82-13.017,0.083,14.233-0.573,10.419c-0.301-5.853-0.352-14.423-0.276-19.53c-0.331-1.897-0.5,5.381-0.875,4.545
							c-0.076,21.529,1.406,24.798,1.509,45.842c-0.381-0.828-0.823-7.327-0.514,6.446l-0.144-3.499
							c0.824,22.049-0.502,17.2,0.761,31.066l-0.534-0.355c0.586,9.998,0.956,29.463,1.235,40.432l-0.114-0.652
							c1.184,30.761,0.458,17.274,1.375,51.833l-0.922-15.896c-0.024,11.929,0.697,14.604,0.793,23.165
							c-0.114-0.611-0.461,1.381-0.713-6.702l1.749,41.922C17.626,331.317,17.384,319.277,17.578,317.715z"/>
						<path fill="#FFFFFF" d="M17.669,370.8c0.006,2.22,0.033,4.744,0.099,7.722C17.731,375.647,17.7,373.171,17.669,370.8z"/>
						<path fill="#FFFFFF" d="M14.167,75.912l0.172,11.985C14.319,84.184,14.275,80.313,14.167,75.912z"/>
						<path fill="#FFFFFF" d="M19.688,430.926c0.223-7.281,0.419,5.445,0.63,6.713c0,0-0.047-6.518-0.095-13.035
							c-0.102-6.515-0.203-13.029-0.203-13.029c-0.202,0.119-0.468-2.456-0.646-1.93c0,0,0.092,5.319,0.184,10.639
							c0.052,2.659,0.09,5.32,0.1,7.316C19.677,429.595,19.688,430.926,19.688,430.926z"/>
						<path fill="#FFFFFF" d="M20.288,404.025c-0.154-0.881-0.323-3.638-0.491-6.725l0.224,14.274
							C20.172,411.482,20.286,409.881,20.288,404.025z"/>
						<polygon fill="#FFFFFF" points="9.491,406.925 9.401,402.315 9.138,395.344 						"/>
						<path fill="#FFFFFF" d="M9.278,334.812c-0.224,5.511,0.17,15.954,0.302,19.447C9.385,342.22,9.583,347.435,9.278,334.812z"/>
						<polygon fill="#FFFFFF" points="6.206,349.746 5.854,338.147 5.81,339.229 						"/>
						<path fill="#FFFFFF" d="M54.031,16.968c1.762-0.506,3.492-0.958,5.302-1.405C56.887,16.158,55.3,16.578,54.031,16.968z"/>
						<path fill="#FFFFFF" d="M12.748,86.876c0.205-27.68,0.745,18.126,1.382,9.422l-0.461-15.055l0.221,1.279l-0.322-18.364
							c-0.296,3.772-0.278,6.604-0.655,5.788c-0.018-3.065-0.032-5.484-0.043-7.407c0-0.961,0-1.798,0-2.53
							c0.002-0.366,0.003-0.705,0.005-1.021c0.012-0.279,0.023-0.538,0.034-0.776c0.065-1.89,0.205-2.534,0.318-3.006
							c0.132-0.466,0.169-0.783,0.442-1.885c0.145-0.547,0.235-1.326,0.537-2.373c0.258-1.061,0.624-2.426,1.274-4.137
							c0,0,0.113-0.33,0.311-0.907c0.208-0.572,0.557-1.367,0.975-2.319c0.87-1.89,2.31-4.28,4.113-6.468
							c1.787-2.198,3.946-4.172,5.688-5.551c0.847-0.711,1.628-1.241,2.156-1.628c0.526-0.39,0.844-0.597,0.843-0.597
							c0,0-0.392,0.294-0.765,0.604c-0.377,0.305-0.755,0.61-0.755,0.61c1.611-1.201,2.384-1.692,2.931-2.134
							c0,0,0.066-0.044,0.196-0.129c0.127-0.087,0.322-0.21,0.586-0.362c0.528-0.3,1.271-0.777,2.273-1.324
							c1.983-1.115,4.942-2.581,8.679-4.087c3.738-1.502,8.256-3.038,13.258-4.367c4.997-1.339,10.449-2.516,15.972-3.49
							c11.049-1.957,22.363-3.091,30.874-3.762c4.255-0.344,7.816-0.563,10.308-0.718c2.495-0.14,3.921-0.22,3.921-0.22
							c16.619-1.069-9.235-0.225,3.012-1.341c-9.655,0.428-21.622,1.152-31.288,2.254c-9.675,1.067-17.031,2.455-17.752,2.97
							c0.61-0.211,1.816-0.631-1.996-0.039c0,0-0.667,0.167-1.666,0.418c-0.999,0.251-2.331,0.585-3.647,0.955
							c-1.324,0.352-2.635,0.729-3.612,1.024c-0.979,0.289-1.632,0.482-1.632,0.482s0.633-0.137,1.583-0.344
							c0.949-0.209,2.216-0.482,3.496-0.722c1.273-0.258,2.554-0.494,3.519-0.657c0.962-0.171,1.604-0.284,1.604-0.284
							c-5.332,1.316-16.727,3.79-26.555,7.833c-4.94,1.962-9.402,4.347-12.774,6.548c-3.362,2.216-5.638,4.233-6.674,5.188
							c3.126-3.176,5.534-4.855,7.274-6.114c0.867-0.638,1.62-1.13,2.316-1.587c0.684-0.472,1.343-0.873,2.06-1.296
							c0.706-0.437,1.487-0.873,2.458-1.363c0.952-0.516,2.126-1.038,3.585-1.698c2.953-1.258,7.183-2.888,13.917-4.657
							c-1.251,0.151-6.246,1.275-0.24-0.566c-7.864,2.242-15.298,5.024-21.836,8.797c-6.513,3.765-12.126,8.566-15.619,14.602
							c-0.908,1.487-1.613,3.08-2.278,4.691c-0.583,1.647-1.125,3.319-1.462,5.067l-0.265,1.308l-0.184,1.335
							c-0.144,0.886-0.204,1.794-0.263,2.705c-0.094,0.903-0.063,1.833-0.084,2.756l-0.009,0.694l0.016,0.778l0.032,1.56
							C12.254,69.591,12.469,78.086,12.748,86.876z"/>
						<path fill="#FFFFFF" d="M292.994,7.938l-0.269,0.064C293.338,7.971,293.538,7.946,292.994,7.938z"/>
						<path fill="#FFFFFF" d="M281.599,7.789l-16.55,0.627l25.8,0.078l1.876-0.491c-2.281,0.116-11.328,0.322-14.833,0.107
							L281.599,7.789z"/>
						<path fill="#FFFFFF" d="M245.834,8.748c13.323-0.144,12.602-0.737,5.333-1.044c12.236-0.209,6.455,0.668,14.881,0.089
							c-0.274-0.427-15.356-0.256-18.822-0.196L245.834,8.748z"/>
						<polygon fill="#FFFFFF" points="147.575,8.41 151.303,8.113 142.111,8.198 						"/>
						<path fill="#FFFFFF" d="M151.303,8.113l9.133-0.021c-0.634-0.179-1.26-0.351-2.751-0.462L151.303,8.113z"/>
						<path fill="#FFFFFF" d="M184.438,8.225c3.879,0.039,8.17,0.081,13.392,0.133L184.438,8.225z"/>
						<path fill="#FFFFFF" d="M173.971,8.064l0.31,0.077l10.157,0.083C180.695,8.167,177.336,8.116,173.971,8.064z"/>
						<path fill="#FFFFFF" d="M160.436,8.091c1.489,0.412,3.22,0.802,16.445,0.686l-2.6-0.636L160.436,8.091z"/>
						<polygon fill="#FFFFFF" points="5.262,265.338 4.826,254.861 4.784,255.972 5.221,266.441 						"/>
						<path fill="#FFFFFF" d="M4.488,204.847c-0.122-2.59-0.235-4.553-0.347-6.337C4.239,201.238,4.348,203.408,4.488,204.847z"/>
						<path fill="#FFFFFF" d="M0.818,159.929c0.184-12.339,0.871,17.002,0.624-5.837c0.349-2.02,1.05,8.676,1.06,19.433
							c-0.38-0.848-0.431-10.473-0.678-3.856c0.556,7.133,0.32,9.854,0.822,7.356c0.569,12.008,0.984,13.338,1.495,21.485
							c-0.258-7.259-0.39-18.515-0.588-30.257c-0.1-5.871-0.216-11.864-0.373-17.541c-0.13-5.678-0.301-11.04-0.542-15.646
							c-0.802-10.153-1.616-3.975-2.57-4.001C-0.144,132.599,0.132,158.951,0.818,159.929z"/>
						<path fill="#FFFFFF" d="M0.233,179.35c0.061,5.708,0.132,7.452,0.277,10.952C0.818,189.352,0.334,183.961,0.233,179.35z"/>
						<path fill="#FFFFFF" d="M6.763,47.92c0.023-0.281,0.231-1.127,0.487-2.216c0.113-0.549,0.322-1.134,0.506-1.745
							c0.198-0.606,0.364-1.244,0.609-1.825c0.443-1.18,0.862-2.259,1.157-2.893c0.271-0.645,0.332-0.883,0.018-0.396
							c0,0-0.113,0.228-0.311,0.627c-0.21,0.394-0.47,0.974-0.751,1.684c-0.293,0.705-0.646,1.523-0.928,2.434
							c-0.152,0.452-0.309,0.918-0.468,1.392c-0.129,0.482-0.261,0.972-0.393,1.462c-0.283,0.976-0.476,1.97-0.649,2.902
							c-0.204,0.928-0.299,1.807-0.396,2.558c-0.098,0.751-0.183,1.376-0.198,1.816c-0.029,0.44-0.046,0.691-0.046,0.691
							c0.042-0.47,0.082-0.903,0.119-1.302c0.065-0.397,0.125-0.761,0.18-1.098c0.118-0.671,0.216-1.232,0.331-1.718
							C6.294,49.329,6.523,48.646,6.763,47.92z"/>
						<path fill="#FFFFFF" d="M5.329,61.397c0,0-0.01-0.429-0.026-1.073c-0.018-0.642-0.043-1.497-0.025-2.386
							c-0.026-1.761,0.123-3.524,0.123-3.524c-0.083,0.88-0.155,1.866-0.143,3.02C5.231,58.6,5.269,59.889,5.329,61.397z"/>
						<path fill="#FFFFFF" d="M7.038,47.203c-0.09,0.239-0.191,0.447-0.275,0.717C6.757,48.15,6.754,48.106,7.038,47.203z"/>
						<path fill="#FFFFFF" d="M222.445,8.548c-0.216,0.251,6.752,0.139,10.253,0.077C229.852,8.59,225.859,8.476,222.445,8.548z"/>
						<path fill="#FFFFFF" d="M485.093,8.248l6.164,0.131C489.077,8.282,487.96,8.234,485.093,8.248z"/>
						<path fill="#FFFFFF" d="M580.021,0.104c0.182-0.047,0.643-0.08,1.264-0.107C580.664,0.016,580.231,0.05,580.021,0.104z"/>
						<path fill="#FFFFFF" d="M581.285-0.004c2.132-0.068,6.488,0.12,10.886,0.55c4.4,0.407,8.834,1.062,11.202,1.322l-0.611-0.002
							c0,0,2.188,0.317,4.368,0.719c2.18,0.401,4.35,0.896,4.35,0.896c-4.045-1.021-10.374-2.239-16.323-2.832
							C589.212,0,583.675-0.108,581.285-0.004z"/>
					</g>
				</g>
			</g>
		</g>
	</g>
</g>
</svg>
