<?xml version="1.0" encoding="utf-8"?>
<!-- Generator: Adobe Illustrator 16.0.0, SVG Export Plug-In . SVG Version: 6.00 Build 0)  -->
<!DOCTYPE svg PUBLIC "-//W3C//DTD SVG 1.1//EN" "http://www.w3.org/Graphics/SVG/1.1/DTD/svg11.dtd">
<svg version="1.1" id="Layer_1" xmlns="http://www.w3.org/2000/svg" xmlns:xlink="http://www.w3.org/1999/xlink" x="0px" y="0px"
	 width="672px" height="837px" viewBox="0 0 672 837" enable-background="new 0 0 672 837" xml:space="preserve">
<g>
	<image overflow="visible" opacity="0.75" width="689" height="853" xlink:href="5F929F9C.png"  transform="matrix(1 0 0 1 1 -1)">
	</image>
	<g>
		<path fill="#F2F2F2" d="M662.029,29.67c-0.095-11.276-26.927-20.358-59.647-20.162c-62.89,0.374-127.84,2.034-188.803,1.204
			C359.888,9.98,299.595,9.725,238.933,9.804C130.899,9.945,15.29,3.868,15.937,67.856c2.523,249.505,14.401,497.701,0,745.793
			c-0.647,11.147,38.345,8.146,46.273,8.298c190.692,3.634,382.054,3.922,572.852,0.863c6.644-0.105,13.839-0.283,18.821-1.642
			c6.326-1.727,6.748-4.673,6.699-7.278c-1.33-72.335,3.16-143.952,1.828-216.288c-0.475-25.779,0.476-48.911,0-74.69
			c-0.523-28.488-0.121-60.695-0.646-89.183C659.274,298.502,663.151,164.787,662.029,29.67z"/>
		<g>
			<g>
				<g>
					<g>
						<g>
							<path fill="#FFFFFF" d="M659.587,100.195c-0.062-6.476,0.245-12.125,0.387-9.688c-0.388-13.192,0.041-13.475-0.69-15.182
								c-0.365-8.465,0.123-17.499,0.428-7.868l-0.467-24.41l-0.102,14.597c-0.609-3.972,0.163-23.325-0.548-27.945l0.08,26.422
								l-0.202-1.32c0.222,6.015,0.141,17.701,0.059,21.775c-0.101-0.642-0.262-0.232-0.284-4.892
								c-0.021,31.899,1.068,8.591,1.291,35.064C659.522,105.088,659.529,103.034,659.587,100.195z"/>
							<path fill="#FFFFFF" d="M658.124,127.291l0.708,11.134l-0.331,18.674c0.262,0.213,0.375,13.819,0.673,4.609
								c-0.027-1.801-0.08-5.362-0.035-8.236c0.552,2.087,0.104,24.836,0.718,19.352c-0.044-14.771,0.097-17.037-0.299-26.13
								c0.097-6.77,0.181-12.62,0.251-17.567c0.062-4.946,0.143-8.991,0.243-12.151c-0.089-4.019-0.438-4.584-0.511-9.69
								c0.008,1.13,0.015,2.168,0.024,3.467l-0.853,0.549c0.183,4.258,0.102,8.283,0.123,13.007l-1.015-21.855
								c-0.821,7.046-0.242,28.51-0.702,37.094C657.902,128.907,657.443,148.022,658.124,127.291z"/>
							<path fill="#FFFFFF" d="M659.541,107.285c-0.001-0.141-0.002-0.374-0.003-0.537
								C659.539,106.911,659.54,107.144,659.541,107.285z"/>
							<path fill="#FFFFFF" d="M20.489,539.303c0.022-4.646-0.19-6.016-0.302-6.687L19.91,584.93
								c0.234-1.637,0.603-16.704,0.676-6.634c0.275-4.489,0.146-18.169-0.145-20.154l0.318,3.793
								c-0.365-12.055,0.545-20.287,0.756-12.428l0.001-1.017c0,0-0.093-2.087-0.232-5.218c-0.154-3.13-0.29-7.303-0.544-11.477
								c-0.479-8.346-0.958-16.692-0.958-16.692c-0.006,6.13,0.155,8.49,0.333,11.162C20.268,528.938,20.551,531.924,20.489,539.303
								z"/>
							<path fill="#FFFFFF" d="M592.512,8.048c-6.782,0.145-7.615,0.234-6.844,0.309C588.098,8.271,590.407,8.176,592.512,8.048z"/>
							<path fill="#FFFFFF" d="M19.333,507.303l-0.6-10.454C18.905,501.034,19.12,504.712,19.333,507.303z"/>
							<path fill="#FFFFFF" d="M27.267,579.792c0.028,0.021,0.052,0.135,0.091-0.141l-0.241-4.702c0,0.07,0,0.092,0,0.12
								C27.171,576.801,27.221,578.356,27.267,579.792z"/>
							<path fill="#FFFFFF" d="M13.931,269.943c-0.034-1.123-0.063-2.09-0.104-3.432C13.865,267.761,13.899,268.891,13.931,269.943z
								"/>
							<path fill="#FFFFFF" d="M27.753,721.777l0.063-23.314c0.167,3.112,0.359-8.129,0.524-3.212
								c0.003-1.776,0.104-10.104-0.072-7.837l-0.097,4.753c-0.41-12.304-0.854-4.871-0.906-25.249
								c-0.713,12.633-0.463,18.185-0.303,24.891c-0.018,2.271-0.032,4.174-0.047,6.098l0.521,19.401c0,0,0.085,1.117,0.169,2.235
								C27.698,720.66,27.753,721.777,27.753,721.777z"/>
							<path fill="#FFFFFF" d="M268.283,12.372l-0.254,0.053C268.262,12.407,268.304,12.39,268.283,12.372z"/>
							<path fill="#FFFFFF" d="M267.011,12.644l1.017-0.218C266.778,12.53,261.99,12.613,267.011,12.644z"/>
							<path fill="#FFFFFF" d="M19.813,511.143c-0.132-0.317-0.3-1.658-0.479-3.84l0.449,7.801
								C19.791,513.995,19.802,512.533,19.813,511.143z"/>
							<path fill="#FFFFFF" d="M21.464,528.892c0,0,0.015,1.226,0.037,3.063c0.034,1.838,0.031,4.287,0.025,6.737
								c-0.004,4.899-0.009,9.799-0.009,9.799l0.319,7.226c-0.038-3.75-0.078-7.818-0.122-12.268
								C21.669,538.998,21.644,534.168,21.464,528.892z"/>
							<path fill="#FFFFFF" d="M14.123,300.903c-0.897-40.59,1.017,9.956,0.853-8.699c-0.316-11.269-0.784-15.238-1.044-22.262
								c0.96,32.189-1.372-4.339-0.533,28.127c-0.797-4.605-1.226-23.402-1.249-34.422c0.438-12.484,0.711,10.887,1.434,13.698
								c-0.364-13.027-0.444-10.729-0.931-16.251c-0.236-20.463-1.644-42.325-0.933-54.563c-0.432-14.811-0.739-13.83-1.26-22.343
								c-0.761-1.682,0.036,22.041-0.434,27.54c0.041-1.138,0.122-3.359,0.236-2.718l0.09,12.811
								c0.023-12.163,0.761,1.675,0.941,8.172c0.105,4.726,0.315,14.121,0.09,12.832l-0.293-7.153
								c-0.055,9.216,0.917,20.315,0.713,30.045c-0.153,0.512-0.303-3.166-0.415-3.722c0.71,10.886,0.885,21.395,1.551,37.517
								l-0.905-9.336c1.043,12.886,1.41,42.107,1.347,62.357c0.089-2.247,0.109-6.294,0.288-3.868
								c0.356,11.886,0,20.874-0.466,15.374c0.779,11.604,0.179,44.256,1.203,60.072c0,0,1.254,18.182,2.237,36.362
								c1.045,18.187,2.09,36.373,2.09,36.373c-0.111-2.726-0.206-5.641-0.258-8.648c0.588-6.62,0.487-10.186,1.166,1.405
								c-0.415-11.381-0.895-7.027-1.04-24.129c0.366,6.705,1.106,8.395,1.068-7.989c-0.136-5.118-0.266-10.021-0.392-14.757
								c-0.161-4.735-0.375-9.304-0.575-13.753c-0.411-8.898-0.854-17.323-1.307-25.661c-0.903-16.677-1.838-33.013-2.594-52.127
								c0.486-1.42-0.253-31.453-0.417-46.052c0.633,5.562,0.994,16.392,1.319,27.633c-0.12-7.055-0.326-19.203-0.479-28.214
								L14.123,300.903z"/>
							<path fill="#FFFFFF" d="M17.426,395.979c0.014-1.024,0.028-2.084,0.042-3.172C17.437,393.386,17.42,394.333,17.426,395.979z"
								/>
							<path fill="#FFFFFF" d="M15.755,336.195c0.021,0.141,0.035,0.091,0.056,0.141c-0.036-1.179-0.071-2.358-0.107-3.566
								C15.722,333.978,15.742,335.341,15.755,336.195z"/>
							<path fill="#FFFFFF" d="M20.851,501.54c0.133,2.431,0.232,4.229,0.366,6.659c-0.047-1.498-0.106-3.376-0.164-5.184
								C20.975,501.293,20.902,500.474,20.851,501.54z"/>
							<path fill="#FFFFFF" d="M20.047,509.736l-0.21-1.299c-0.009,1.045-0.016,1.779-0.024,2.705
								C19.923,511.425,20.012,511.12,20.047,509.736z"/>
							<path fill="#FFFFFF" d="M15.654,145.68l-0.162-3.891C15.534,144.135,15.591,145.144,15.654,145.68z"/>
							<path fill="#FFFFFF" d="M14.073,255.669c0.322,14.116,0.762,1.673,1.155,21.645l-0.069-5.862
								c0.591,14.323,0.938,39.51,1.295,56.536c-0.329-1.916-0.153,10.331-0.643,8.348c0.353,11.637,0.607,23.158,1.17,29.145
								c-0.042,7.212,0.538,18.157,0.487,27.326c0.214-3.874,1.126,13.036,0.447-9.267c0.065,1.8,0.11,0.669,0.176,2.448
								c0.158-14.376-0.576-20.128-0.776-32.507c0.155-7.405,0.622,12.096,0.622,5.11c-0.468-15.453-0.597-48.517-1.572-47.473
								c-0.291-11.249-0.097-12.807,0.023-16.165c-1.433-17.773-0.815-66.057-2.188-65.87c0.178,6.497,0.349,17.086,0.827,26.616
								L14.073,255.669z"/>
							<path fill="#FFFFFF" d="M20.615,477.832c-0.001-0.868-0.004-2.026-0.005-2.747C20.611,475.897,20.613,476.907,20.615,477.832
								z"/>
							<path fill="#FFFFFF" d="M15.771,655.885l-0.765-5.913c0.165-8.393,0.303-15.445,0.427-21.762
								c0.05-6.32,0.094-11.904,0.138-17.356c0.087-10.905,0.169-21.282,0.286-35.966c0.137-2.243,0.194,1.32,0.223,3.127
								c0.048-10.323,0.109-23.208,0.166-35.391c0.008-3.046,0.015-6.048,0.022-8.954c-0.037-2.908-0.072-5.721-0.105-8.388
								c-0.079-5.334-0.178-10.084-0.308-13.842c-0.039-6.571,0.128-23.824,0.439-17.296c-0.102-3.197-0.205-6.854-0.202-10.531
								c0.318-0.977,0.15,8.229,0.417,8.44c0.001-2.916,0.057-4.053-0.05-4.723c0.313,4.904,1.066-5.098,1.205,17.783
								c-0.697,8.863-0.199-15.869-0.999-10.634c0.047,7.589,0.365,6.705,0.472,7.354c0.048,9.672-0.164,9.418-0.358,8.903
								c0.286,3.705,0.009,15.869,0.438,20.986c0.021,18.802-0.603-1.022-0.652,11.257l0.805,7.079l-0.284,20.417
								c0.119,29.56,1.49-4.222,1.765,29.575c-0.415-4.444-1.24,9.102-1.512,24.824c0.025-9.41-0.421-26.806-0.097-38.949
								c-0.767,17.116,0.063-23.565-0.75-14.684c0.308,8.462,0.271,22.571,0.011,33.57l-0.056-3.606
								c-0.08,5.85,0.088,10.991,0.221,16.688c0.067,2.849,0.125,5.836,0.139,9.12c-0.027,3.283-0.131,6.862-0.307,10.896
								c-0.162,8.021-0.366,6.514-0.531,5.101c-0.016,3.394-0.03,6.607-0.041,8.976C15.907,654.354,15.866,655.877,15.771,655.885z
								 M16.005,638.411l0.337-10.726C16.143,630.229,16.053,634.229,16.005,638.411z"/>
							<path fill="#FFFFFF" d="M657.296,277.563c0.027-1.067,0.059-2.296,0.084-3.264
								C657.337,275.013,657.313,276.249,657.296,277.563z"/>
							<path fill="#FFFFFF" d="M247.643,820.096l6.222,0.064C251.435,820.135,249.443,820.114,247.643,820.096z"/>
							<path fill="#FFFFFF" d="M387.28,817.778l9.087-0.224C392.78,817.578,389.97,817.664,387.28,817.778z"/>
							<path fill="#FFFFFF" d="M657.143,351.8l-0.004,0.304c0.021,0.509,0.036,0.898,0.058,1.435L657.143,351.8z"/>
							<path fill="#FFFFFF" d="M655.563,810.89c0.069-1.366,0.131-2.901,0.178-5.007C655.657,806.128,655.6,808,655.563,810.89z"/>
							<path fill="#FFFFFF" d="M385.606,817.82c0.233,0.006,0.367,0.01,0.551,0.014c0.354-0.018,0.741-0.036,1.123-0.056
								L385.606,817.82z"/>
							<path fill="#FFFFFF" d="M186.162,817.093c-1.335,0.009-2.549,0.017-3.983,0.025
								C184.057,817.129,185.208,817.114,186.162,817.093z"/>
							<path fill="#FFFFFF" d="M194.905,819.623c-1.434,0.011-2.804,0.021-3.871,0.028L194.905,819.623z"/>
							<path fill="#FFFFFF" d="M23.342,781.095l0.26-8.388C23.428,776.827,23.363,779.289,23.342,781.095z"/>
							<path fill="#FFFFFF" d="M172.746,818.744c-0.487,0.036-0.975,0.072-1.301,0.096
								C172.604,818.831,173.155,818.789,172.746,818.744z"/>
							<path fill="#FFFFFF" d="M660.089,224.328c0,0.191-0.001,0.396-0.001,0.509l0.098,0.212L660.089,224.328z"/>
							<path fill="#FFFFFF" d="M659.002,203.948c-0.006-2.402-0.012-4.902-0.018-7.36
								C658.96,199.321,658.967,201.984,659.002,203.948z"/>
							<path fill="#FFFFFF" d="M658.144,689.613c0.164-2.214,0.407-7.413,0.502-4.982
								C658.547,680.386,658.113,680.66,658.144,689.613z"/>
							<path fill="#FFFFFF" d="M665.185,265.202c-0.108-1.335-0.188-2.995-0.267-4.662
								C665.027,263.641,665.117,266.36,665.185,265.202z"/>
							<path fill="#FFFFFF" d="M664.918,260.54c-0.057-1.533-0.118-3.171-0.17-4.542
								C664.808,257.594,664.865,259.126,664.918,260.54z"/>
							<path fill="#FFFFFF" d="M664.129,746.156c-0.068,0.55-0.132,1.403-0.168,2.561
								C664.082,748.379,664.124,747.455,664.129,746.156z"/>
							<path fill="#FFFFFF" d="M659.163,190.641c-0.192-1.322-0.4-33.329-0.698-6.411c-0.621-1.042-0.166-17.271-0.271-24.448
								c-0.185,5.211-0.385-2.595-0.621-1.014c0.051,3.56,0.201,7.792,0.114,13.675c-0.308,2.703-0.438-6.226-0.28-13.196
								c-0.395,8.586-0.42-10.901-0.763,1.252c0.035,25.986,0.131,44.351,0.918,62.63c-0.045-14.813-0.112-31.384,0.228-43.531
								l0.508,5.11c-0.577,13.728-0.282,22.206-0.43,35.71l0.508-30.334c0.556-14.208,0.591-4.7,0.608,6.503
								C659.011,193.833,659.063,191.34,659.163,190.641z"/>
							<path fill="#FFFFFF" d="M663.789,211.117l0.019-0.508c-0.016-0.445-0.024-0.997-0.045-1.279L663.789,211.117z"/>
							<path fill="#FFFFFF" d="M12.276,782.094l-0.087-2.61C12.183,781.658,12.216,782.331,12.276,782.094z"/>
							<path fill="#FFFFFF" d="M661.023,229.195v-0.021C661.028,229.379,661.027,229.429,661.023,229.195z"/>
							<path fill="#FFFFFF" d="M46.053,827.34c-0.094,0.015-0.188,0.031-0.354,0.047C45.938,827.371,45.938,827.354,46.053,827.34z"
								/>
							<path fill="#FFFFFF" d="M63.515,815.371c-0.119-0.027-0.154-0.051-0.436-0.08C61.694,815.301,62.364,815.337,63.515,815.371z
								"/>
							<path fill="#FFFFFF" d="M46.104,827.289c0,0.017,0.043,0.033-0.05,0.051C46.104,827.322,46.219,827.305,46.104,827.289z"/>
							<path fill="#FFFFFF" d="M361.395,827.938c0,0-0.997-0.091-2.565-0.176C358.222,827.814,358.829,827.872,361.395,827.938z"/>
							<path fill="#FFFFFF" d="M299.146,826.879c-0.396-0.022-0.629-0.036-1.137-0.066L299.146,826.879z"/>
							<path fill="#FFFFFF" d="M655.421,704.27c-0.045,3.081-0.079,5.393-0.107,7.344
								C655.369,709.366,655.412,706.93,655.421,704.27z"/>
							<path fill="#FFFFFF" d="M45.699,827.387c-0.666,0.051-1.61,0.114-3.181,0.158C44.249,827.499,45.156,827.432,45.699,827.387z
								"/>
							<path fill="#FFFFFF" d="M456.296,824.918c-0.664,0.022-1.285,0.044-1.914,0.065c0.382,0.008,0.763,0.016,1.138,0.024
								L456.296,824.918z"/>
							<path fill="#FFFFFF" d="M488.78,825.225c-1.109,0.065-1.617,0.131-2.238,0.188c11.591-0.268,32.89-0.337,35.406-0.924
								c-3.935,0.06-24.33-0.043-20.857-0.423c-8.079,0.279-20.027-0.128-24.378-0.015c13.269,0.278,1.438,0.484-7.519,0.705
								c-8.146-0.146,1.53-0.47-5.484-0.557l-18.847,0.118l16.417,0.029l-4.984,0.57c0.607-0.021,1.024-0.035,1.674-0.058
								C485.744,824.521,460.334,825.668,488.78,825.225z"/>
							<path fill="#FFFFFF" d="M486.542,825.413c-1.738,0.04-3.264,0.087-4.45,0.149
								C484.713,825.547,485.729,825.487,486.542,825.413z"/>
							<path fill="#FFFFFF" d="M600.03,825.057c1.427-0.042,2.973-0.088,4.915-0.145
								C604.021,824.939,601.874,825.003,600.03,825.057z"/>
							<path fill="#FFFFFF" d="M21.66,569.644c-0.167,0.486-0.603,16.664-0.173,16.378c0.074-4.803,0.148-9.641,0.222-14.499
								L21.66,569.644z"/>
							<path fill="#FFFFFF" d="M661.763,569.69c-0.004,1.803-0.008,3.611-0.012,5.421c0.024,0.389,0.049,0.763,0.066,1.053
								C661.881,575.062,661.803,571.493,661.763,569.69z"/>
							<path fill="#FFFFFF" d="M506.091,823.808c-2.967,0.1-4.287,0.183-5,0.259C503.013,824.011,504.785,823.935,506.091,823.808z"
								/>
							<path fill="#FFFFFF" d="M662.779,568.676c0.122-2.295,0.309-5.676,0.472-6.154c0.004-4.694-0.221-8.001-0.301-12.784
								C663.013,555.138,662.97,561.385,662.779,568.676z"/>
							<path fill="#FFFFFF" d="M662.942,549.349c0.003,0.134,0.006,0.269,0.008,0.389
								C662.948,549.604,662.945,549.482,662.942,549.349z"/>
							<path fill="#FFFFFF" d="M21.9,560.018c-0.021-1.392-0.042-2.825-0.063-4.302l0.1,2.239c0.066-3.722,0.132-7.423,0.198-11.131
								c-0.012-1.342-0.025-2.797-0.041-4.584c0.011,0.721,0.052,1.278,0.098,1.624c0.024-1.207,0.047-2.387,0.071-3.566
								c-0.288-8.871-1.003-30.916-1.21-37.282c-0.249-8.418-0.428-18.721-0.438-25.184c0.032,5.989,0.177,13.941,0.405,11.553
								c0.171-12.163,0.864-18.083,0.087-39.067l0.095,12.311c0,0-0.286-6.917-0.571-13.835c-0.263-6.916-0.626-13.832-0.625-13.832
								c0.122-4.852,0.294-1.399,0.486,3.745s0.313,11.981,0.508,13.901c-0.273-10.762-0.265-20.621-0.24-29.037
								c0.021-8.417,0.021-15.389-0.468-20.373c0.466-1.413,1.244-3.784,0.978-17.909c-0.399,10.193-0.489-8.463-0.955-0.098
								c-0.355-4.875-0.067-15.76-0.446-16.566l0.223,1.317c0.421-24.133-0.978-32.007-1.573-42.318
								c-0.761-28.875-0.704-42.144-1.244-65.695c0.309-0.932,1.082-7.362,0.87-16.812c-0.526-4.384-1.136-25.697-1.744-27.861
								c0.084,16.899,0.738,13.813,1.063,23.925c-0.434,8.431-0.573,0.774-0.71,12.28c0.055-9.286-1.106-41.929-0.742-52.103
								l0.146,3.586c0.036-16.23,1.359-19.355,0.025-46.371l-0.528-12.893c0.065,0.621,0.132,0.69,0.188,1.021
								c-0.238-21.116,0.488-15.36-0.349-38.664c0.065,1.801,0.111,0.67,0.175,2.499c0.131-13.291-0.697-26.683-0.972-36.727
								c0.386-6.137,0.486,1.45,0.881,5.24c-0.033-2.922-0.066-5.873-0.1-8.828c-0.088-2.939-0.042-5.961,0.289-8.911
								c0.65-5.913,2.552-11.639,5.461-16.478c1.458-2.414,3.104-4.637,4.877-6.621c1.8-1.953,3.639-3.756,5.542-5.288
								c3.758-3.134,7.537-5.425,10.774-7.228c0,0,0.873-0.403,2.182-1.006c1.322-0.568,3.082-1.336,4.876-1.996
								c3.573-1.375,7.224-2.469,7.224-2.469c-4.273,1.476-8.888,3.502-12.014,5.189c-1.563,0.844-2.773,1.558-3.419,2.022
								c-0.653,0.449-0.764,0.604-0.124,0.345c3.661-1.995,5.201-2.679,7.111-3.587c1.943-0.82,4.265-1.909,9.897-3.644
								c-1.82,0.898-6.443,2.678-11.308,5.271c5.583-2.312,8.802-3.282,10.581-3.964c1.794-0.639,2.194-0.871,2.374-1.044
								c0.368-0.297-0.15-0.486,8.178-2.147c7.401-1.751,11.689-2.903,12.448-3.417c0,0,0.856-0.121,2.141-0.303
								c1.287-0.16,3.002-0.373,4.718-0.585c3.434-0.401,6.872-0.715,6.872-0.715c0.73-0.329,5.327-1.039,11.147-1.674
								c5.819-0.644,12.857-1.191,18.434-1.55c1.353-0.296-9.017,0.055-13.229,0.626c0.797-0.464,12.666-1.54,20.314-1.854
								c1.424,0.399,13.929-0.174,24.96-0.372c11.031-0.229,20.58-0.246,16.067,0.354c17.156-0.305,37.786-0.268,56.947-0.348
								c19.16-0.116,36.874-0.078,48.194-0.245c7.467,0.308,22.684,0.401,13.562,0.811c27.614,0.148,41.863-0.779,69.273-0.37
								c2.267,0.134-12.392-0.056-11.42,0.275c17.92-0.298,32.592,0.583,60.394,0.466c-4.677-0.007-6.043,0.188-6.694,0.286
								c-0.486-0.166,11.395-0.274,18.583-0.4c4.038,0.103-5.382,0.092-3.117,0.227c13.418,0.181,26.04,0.245,38.256,0.245
								c12.218-0.05,24.031-0.334,35.835-0.536c23.606-0.401,47.176-1.16,73.881-1.38c-7.628,0.065-12.88,0.279-16.244,0.518
								c-3.365,0.235-4.845,0.481-4.924,0.614l14.939-0.162c5.754-0.378,16.973-0.487,26.354-0.82
								c1.152,0.11,5.717,0.197,1.063,0.395c3.69,0.045,7.178,0.055,10.526,0.035c3.346-0.019,6.561-0.091,9.716-0.051
								c6.3,0.049,12.306,0.356,18.504,1.03c6.189,0.719,12.594,1.767,19.524,3.948c3.45,1.134,7.049,2.525,10.638,4.699
								c1.775,1.116,3.577,2.401,5.152,4.191c0.785,0.892,1.511,1.911,2.074,3.09c0.538,1.193,0.897,2.545,0.917,3.961
								c0,0-0.021-0.212-0.06-0.609c-0.023-0.198-0.045-0.444-0.087-0.728c-0.07-0.276-0.151-0.595-0.242-0.951
								c-0.405-1.404-1.397-3.228-2.989-4.841c-3.192-3.25-8.347-5.799-13.609-7.573c-5.279-1.784-10.701-2.882-14.776-3.538
								c-4.079-0.649-6.813-0.917-6.813-0.917c0,0,2.678,0.484,5.329,1.074c2.651,0.596,5.268,1.306,5.268,1.306
								s-1.183-0.227-2.96-0.54c-1.781-0.291-4.157-0.664-6.547-0.924c-4.772-0.578-9.569-0.784-9.569-0.784
								c5.693,0.638,11.001,1.281,15.038,1.969c4.037,0.675,6.803,1.335,7.401,1.75c-1.182-0.249-3.183-0.728-4.933-1.052
								c-1.744-0.35-3.235-0.542-3.346-0.441c5.36,1.118,8.207,1.867,10.728,2.531c2.504,0.702,4.724,1.259,8.478,2.894
								c-9.992-4.126-26-6.894-42.18-7.112c-4.032-0.08-8.117,0.044-12.147,0.104c-4.022,0.065-7.975,0.13-11.777,0.192
								c-7.604,0.132-14.608,0.253-20.376,0.353c-3.629,0.114,3.104-0.271,3.746-0.378c-9.413,0.118-15.066-0.13-26.918,0.196
								c-7.355,0.512,5.619,0.24,11.462,0.212c-0.801,0.376-3.74,0.39-10.245,0.526c-1.42-0.491-35.714,0.315-44.11-0.268
								c-34.771,0.422,5.571,1.221-28.379,1.271l-10.143-0.492c-19.709,0.339-45.237,0.612-67.511,0.371l4.696,0.006
								c3.132-0.223-2.036-0.396-4.323-0.531c-16.842-0.327-31.983,0.273-42.185-0.339c-19.215,0.494-51.245,0.768-73.208,0.959
								c-5.924-0.768,28.652-0.476,37.794-0.888l-19.994-0.102c12.359,0.055,17.241-0.2,24.652-0.581
								c-17.523-0.228-23.289,0.387-39.9,0.487c1.293-0.194-0.925-0.329-8.588-0.374l-2.176,0.478
								c-0.141-0.041-0.989-0.082-3.354-0.125l-29.56,0.165c6.279,0.202,6.578,0.658,14.213,0.694
								c-2.726-0.299,3.75-0.322,11.391-0.275c-6.695,0.285,7.45,0.308,7.288,0.571c-7.659-0.028-16.193-0.059-24.068-0.087
								c-7.871-0.022-15.107,0.071-20.129,0.108l-3.264-0.459c-14.607-0.162-30.017,0.032-39.906-0.055l3.118-0.249
								c-17.502-0.104-34.703,0.418-50.201,0.666c-7.765,0.6-16.519,1.353-24.867,2.341c-8.349,0.979-16.289,2.195-22.457,3.448
								c-3.256,0.84-14.498,2.31-26.422,5.86c-5.955,1.756-12.046,4.085-17.238,6.916c-5.21,2.803-9.439,6.144-12.09,9.134
								c-0.203,0.178,0.166-0.232,0.89-1.018c0.767-0.75,1.902-1.868,3.311-3.022c2.777-2.351,6.631-4.825,9.158-6.197
								c-2.504,1.25-4.739,2.65-6.741,4.021c-1.948,1.433-3.7,2.804-5.104,4.17c-2.884,2.674-4.648,5.014-5.895,6.168
								c1.802-2.389,3.373-4,4.557-5.137c1.185-1.137,1.988-1.805,2.42-2.214c0.92-0.768,0.402-0.477-0.426,0.104
								c-0.808,0.606-1.95,1.465-2.343,1.761c-0.389,0.293-0.186-0.139,1.895-1.996c-4.46,3.723-8.028,8.506-10.098,13.162
								c-1.057,2.322-1.694,4.618-2.185,6.639c-0.175,1.032-0.396,1.975-0.492,2.859c-0.09,0.884-0.204,1.674-0.239,2.376
								c0.499-4.604,1.29-6.346,1.454-6.851c0.214-0.495,0.095,0.307-0.03,1.088c-0.149,0.776-0.175,1.574-0.037,1.031
								c0.06-0.275,0.245-0.857,0.538-1.928c0.129-0.542,0.344-1.185,0.616-1.96c0.239-0.791,0.612-1.681,1.048-2.727
								c-1.326,3.251-2.27,6.988-2.65,11.045c-0.059,1.021-0.143,2.05-0.162,3.1c0.013,1.081-0.027,2.051,0.024,3.268
								c0.061,2.34,0.123,4.719,0.185,7.122c0.226,9.611,0.368,19.597,0.399,28.908c-0.267-0.18-0.357,2.116-0.369,9.059
								l0.461,5.594c0.053,8.715-0.69-16.841-0.58,0.701c0.455,9.02,0.553,22.608,0.703,34.928
								c0.149,12.319,0.45,23.372,1.117,27.312c-0.217,13.765-0.982-26.17-1.173-5.426c-0.696-12.055-0.423-28.7-1.078-32.666
								c0.338,11.818-0.451,4.323-0.349,11.95l0.598,13.179l-0.032-2.917c0.991,22.116,1.383,57.177,2.017,85.431
								c1.073,23.924,2.275,40.386,2.767,69.1c-0.522-8.469,0.12,23.852-0.886,5.789c-0.028,6.646,0.115,13.246,0.298,18.217
								c0.188,4.971,0.381,8.314,0.521,8.442c-0.093-11.694,0.017-4.113-0.035-13.962c0.472,6.639,0.676,21.965,0.568,28.264
								c-0.022-2.918-0.066-1.808-0.176-2.449c0,13.964,0.421,6.685,0.711,16.772c-0.398,3.208,0.225,22.279,0.135,31.495
								l0.846,13.352c-0.536-7.335,0.05,12.805-0.315,14.915c0.362,9.58,0.938,17.611,0.927,32.207
								c-0.261-6.026-0.224,13.318-0.648,13.576c-0.117,12.496,0.245,22.841,0.581,33.021c0.159,5.091,0.351,10.14,0.4,15.396
								c0.023,5.258-0.026,10.723-0.215,16.642c-0.095-0.735-0.346-5.515-0.496,1.405c0.086,5.451-0.021,14.994-0.011,20.826
								l-0.011-0.184c0.004,0.112,0.006,0.184,0.01,0.304c0.005,2.855,0.048,4.651,0.15,4.723
								c0.356,9.985,0.752,15.135,0.987,34.788c0.497-1.437,0.408-18.027,0.294-25.213l-0.444-6.211
								c0.772-5.928-0.021-17.719,0.255-22.235c0.792,11.789,0.374,45.737,0.781,66.11c0.755-12.408,1.025-39.427,1.085-63
								l-0.355,10.381l0.065-12.334l-0.591,11.936c0.162-11.683,0.09-21.781,0.184-32.339c-0.065,12.361-0.768,17.175-0.618,10.183
								c0.537-13.773-0.16-14.355-0.23-24.88c0.029,5.859-0.029,13.481-0.287,8.567c0.47-20.755,0.029-26.358,0.53-45.235
								c-0.797,2.345-0.245-23.581-0.931-26.403l-0.007,8.759l-0.621-18.57c0.544-17.148,0.781,15.169,1.068-10.92
								c-0.257-24.063-1.125-23.429-1.474-42.342c0.578,6.225,1.223,21.22,1.446,36.484l0.089-9.246
								c0.166,2.444,0.358,8.942,0.436,16.151c0.043,7.21,0.09,15.126,0.122,20.396c-0.674-17.413-0.113,8.152-0.491,16.079
								c0.477,1.453,0.326-9.729,0.792,3.473c-0.095-12.371-0.146-14.181-0.081-29.919c0.025,34.02,1.831,30.578,1.646,60.277
								c-0.306-13.688-0.64,4.775-0.854,6.423c0.052,3.22,0.131,8.097,0.208,12.839c0.04,4.745,0.078,9.355,0.1,12.044l0.703-4.866
								c0.187,17.311-1.276,23.316-0.703,43.293c0.388,2.599,0.243-17.568,0.299-13.975c0.129,13.666-0.093,22.96-0.428,31.868
								c-0.357,8.906-0.698,17.435-1.184,29.559c0.17,1.375,0.603,1.099,0.76,9.593c-0.342-2.674-0.696,3.604-0.768-5.949
								c-0.362,8.109-0.292,17.726-0.302,24.887c0.635-16.886,0.418,6.922,0.587,10.041c-0.275,8.749-0.341-2.677-0.331-8.062
								c-0.273,7.022-1.066,15.353-0.554,19.357c-0.216,0.132-0.38-4.783-0.466-11.359c-0.086-6.575-0.093-14.811,0.005-21.32
								l-0.276,8.774c-0.075-6.051,0.013-7.181,0.285-15.891c-0.531,8.521-0.875,7.673-1.131,5.681
								c0.088-1.115,0.086,0.624,0.172-0.442c0.273-7.011,0.283-12.394,0.019-10.771c-0.423-6.314-0.586,9.721-0.983,14.466
								c-0.046,3.592-0.092,7.183-0.137,10.704l0.978,36.484c-0.168,15.578-0.667,22.567-1.56,34.244l0.345,3.228
								c-0.667,13.541-1.404,26.312-1.63,17.606c0.186-0.48,0.228-2.271,0.386-5.209c-0.049-0.392-0.065-1.071-0.065-1.928
								c-0.023-0.284-0.036-0.441-0.055-0.675c-0.494,14.508-0.803,23.564-0.831,24.398c0.409-24.651-0.834-1.269-1.517-5.429
								l-0.849,24.871c0.962-15.054,0.438-0.254,0.312,5.102c-0.192,0.501-0.36,3.048-0.517,6.523
								c-0.12,3.294-0.273,7.466-0.419,11.462c0.003,0.421-0.056,0.854,0.107,1.238c0.04,0.204,0.203,0.352,0.28,0.533
								c0.141,0.141,0.248,0.31,0.409,0.418c0.291,0.249,0.609,0.438,0.918,0.59c0.154,0.071,0.309,0.161,0.447,0.206
								c0.196,0.079,0.386,0.155,0.567,0.228c0,0-0.509-0.094-0.449-0.069c1.342,0.572,3.476,1.146,5.837,1.535
								c2.383,0.404,5.086,0.667,7.879,0.826c5.596,0.321,11.555,0.229,16.534,0.054c-0.214-0.071,2.81-0.396,6.836-0.768
								c0.522-0.04,1.058-0.082,1.602-0.124c0.548-0.03,1.104-0.061,1.664-0.092c1.053-0.058,2.118-0.116,3.156-0.174
								c2.077-0.12,4.049-0.234,5.601-0.324c-4.315-0.109-6.911-0.194-8.398-0.265c-1.44-0.073-2.009-0.122-1.846-0.178
								c0.382-0.112,2.526-0.201,1.855-0.364c1.786,0.054,4.999,0.106,5.374,0.05c2.474-0.104-3.35-0.234-3.834-0.404l-3.58-0.005
								c-1.286,0.018-2.446,0.06-3.609,0.1c-2.27,0.077-4.524,0.154-6.741,0.229c-4.384,0.126-8.569,0.161-12.363,0.065
								c-3.789-0.094-7.189-0.318-9.923-0.661c-1.367-0.169-2.571-0.361-3.566-0.563c-0.525-0.085-0.921-0.211-1.35-0.29
								c-0.202-0.036-0.393-0.111-0.515-0.131c-0.063,0-0.123,0-0.18,0l0.102,0.065l0.052,0.031l0.153,0.071
								c0.199,0.104,0.462,0.182,0.697,0.266c0.463,0.173,0.974,0.306,1.483,0.428c1.015,0.245,2.082,0.403,3.18,0.541
								c2.214,0.262,4.596,0.417,7.579,0.698c-3.161-0.033-6.697-0.242-10.154-0.951c-0.852-0.182-1.689-0.395-2.467-0.645
								c-0.21-0.055-0.373-0.133-0.55-0.196l-0.204-0.071c-0.147-0.072-0.309-0.132-0.453-0.224
								c-0.62-0.302-1.069-1.011-0.916-1.777c0.155-3.289,0.32-6.807,0.496-10.553l0.638-4.981l0.478-15.369
								c-0.076,6.421,0.529,2.583-0.124,18.705c0.479-2.037,0.641-15.988,1.22-25.85l-0.314-5.072
								c0.214,1.958,1.235-19.161,0.965-4.135l-0.667,24.44l0.681-6.769l-0.836,20.652l-0.059-4.887
								c-0.14,3.627-0.254,6.578-0.347,8.989c-0.058,1.206-0.11,2.275-0.156,3.229c-0.026,0.476-0.05,0.923-0.073,1.342
								c-0.008,0.15-0.007,0.103-0.009,0.107l-0.004-0.003l-0.009-0.005c-0.075,0.21-0.068,0.379-0.059,0.518
								c0.014,0.141,0.029,0.268,0.141,0.407c0.035,0.041,0.043,0.056,0.075,0.085c0.148,0.085,0.452,0.213,0.785,0.318
								c0.321,0.119,0.695,0.247,1.172,0.365c0.449,0.135,0.996,0.256,1.621,0.385c2.494,0.516,6.459,0.987,12.677,1.075
								c5.096-0.204,10.372-0.415,16.867-0.674c1.694-0.057,3.385-0.138,5.595-0.119c1.838,0.024,3.771,0.051,5.815,0.078
								c4.087,0.081,8.619,0.171,13.726,0.272c-14.786-0.069-1.526,0.442-7.097,0.742c15.076,0.496,20.176,0.027,28.003-0.115
								c3.835,0.405,6.563,0.729-6.908,0.481c-1.7,0.705,17.724,0.134,18.94,0.902c44.632,0.632,35.794-1.901,87.948-0.198
								l-1.958,0.274c33.131-0.104,52.242,0.313,82.922,0.273l24.151,0.912c-5.402,0.087-19.93,0.577-13.153,0.988
								c-11.746-0.849-24.217-0.649-36.875-1.142c-1.293,0.194,3.86,0.371,6.105,0.51c-7.641-0.053-11.472-0.424-21.563-0.349
								c0.486,0.163,11.493,0.422,3.195,0.468l-13.723-0.561c-18.368,0.105-9.057,1.13-30.626,0.713
								c4.015-0.34,12.212-0.953,20.566-0.994c-9.856-0.15,13.143-0.181,4.149-0.489c-7.103,0.274-12.367,0.276-18.216,0.246
								c-5.849-0.039-12.282-0.191-21.724-0.121c2.218-0.057,2.805-0.172,7.451-0.143l-27.39-0.669
								c6.773,0.47-22.633,0.075-20.093,0.663c29.193,0.656,20.618,0.198,53.884,0.998c-9.42-0.013-21.571,0.369-27.269,0.802
								c-0.289-0.026-0.769-0.051-1.793-0.075c-5.091,0.47,0.09,0.692-0.02,1.644c7.599-0.227,13.935-0.164,20.612-0.061
								c6.677,0.099,13.693,0.278,22.654,0.107c3.374-0.505-10.389-0.697-19.294-0.736c0,0,3.946-0.028,7.893-0.057
								c1.973-0.023,3.946-0.047,5.426-0.064c1.48-0.023,2.467-0.039,2.467-0.039l-3.11,0.222l40.062,0.411
								c-7.592-0.018-10.172,0.271-14.136,0.475c5.169,0.052,10.289,0.219,15.732,0.402c-1.14-0.505-0.417-0.852,4.625-0.813
								c25.776,0.27,40.103,0.802,49.614,1.426c0.989-0.005,2.104-0.012,3.001-0.017c-4.32-0.536,18.31-0.811,26.298-1.285
								c-0.397,0.507,13.283,0.438,20.712,0.666c3.956-0.639-1.319-1.39-10.364-1.955c-17.428,0.451-9.767,0.501-18.003,1.238
								l-27.961,0.359l6.252-0.446c-13.954-0.296-27.361,0.264-26.333-0.359c7.375-0.375,19.548-0.05,26.866-0.427l-9.229-0.284
								c16.287-0.521,8.344,0.644,28.062,0.329c-7.25-0.576,1.787-0.027,10.233-0.336c-6.778-0.412-34.714-0.052-28.786-0.925
								c10.253-0.351,34.491,1.299,48.058,0.412l-0.664,0.104c20.012,0.06,27.045-0.479,34.536-0.827
								c8.516,0.271,20.272-0.178,29.501-0.237l-0.226,0.266l13.021-0.148c-6.198,0.499-15.26,0.031-26.443,0.133l1.392,0.487
								c-12.895-0.546-21.494,0.364-31.493,0.815c14.554-0.466,41.099,0.003,44.514-0.967l9.005,0.47l4.307-0.19
								c6.71,0.353-0.138,0.955-13.146,1.104c-2.26-0.117-3.39-0.176-2.705-0.28c-6.037,0.236-11.58,0.633-26.191,0.563l7.796-0.282
								c-18.191,0.017-34.729,0.254-40.959,0.755c26.264,0.129,52.09,0.098,76.751,0.005c7.271-1.13,15.896-1.777,19.599-2.818
								c8.271-0.119,18.021-0.229,27.501-0.27c4.74,0,9.411,0,13.797,0c4.385-0.014,8.482,0,12.075,0.053l-1.318,0.218
								c7.012,0.024,13.472-0.106,18.858-0.286c7.409,0.184-5.064,0.604,0.098,0.69l23.693-0.622
								c-1.457,0.483-21.397,0.718-30.865,0.861c1.785-0.061,5.393-0.18,4.234-0.229c-11.016-0.064-31.529,0.99-36.351,0.27
								c-5.365,0.133,10.899-0.529-7.27-0.513c-12.167-0.219-16.125,0.398-17.396,0.604c-0.196,0.266,19.097,0.308,12.404,0.646
								c9.469-0.076,13.238-0.378,25.35-0.226c-9.384,0.126-22.127,0.65-27.129,0.27c-18.556,0.546-15.888,1.778-7.137,1.821
								c-2.085-0.383,33.854-0.576,9.514-1.013c5.465-0.268,13.189-0.41,21.335-0.543c8.146-0.197,16.712-0.376,23.86-0.615
								l-0.648,0.107l17.75-0.332c-2.498,0.168-7.863,0.349-8.037,0.613l24.58-0.994c-13.835,0.637,8.582,0.23,14.884,0.367
								c2.629-0.436,12.229-0.843,3.011-0.967c-10.361-0.173-6.027,0.288-15.446,0.43l13.331-0.793l1.145,0.049l8.021-0.615
								c18.168-0.174-7.921,1.305,15.352,0.523l-3.038-0.676c13.476-0.104,28.869-0.057,43.274-0.053
								c3.606,0.002,7.151,0.01,10.438-0.079c3.288-0.089,6.411-0.278,9.056-0.707c0.324-0.056,0.667-0.1,0.974-0.162
								c0.294-0.068,0.587-0.136,0.878-0.202c0.292-0.065,0.594-0.124,0.825-0.205l0.371-0.11c0.163-0.045,0.138-0.043,0.193-0.062
								c0.313-0.112,0.614-0.261,0.826-0.493c0.212-0.233,0.309-0.538,0.301-0.827c-0.019-1.055-0.035-2.066-0.052-3.028
								c0.06,0.655,0.115,1.265,0.166,1.817c0.058,0.509,0.118,1.199,0.181,1.155c0.126,0.233,0.224,0.435,0.345,0.529
								c0.115,0.093,0.266,0.082,0.411-0.136c0.037-0.055,0.069-0.122,0.101-0.204c0.018-0.041,0.029-0.086,0.044-0.134
								c0.007-0.028,0.015-0.041,0.021-0.084c0.006-0.071,0.013-0.146,0.021-0.221c0.054-0.607,0.105-1.351,0.152-2.241
								c-0.006,0.509-0.013,1.049-0.019,1.618c-0.003,0.284-0.006,0.575-0.009,0.873c-0.001,0.116-0.005,0.234-0.013,0.354
								c-0.023,0.479-0.2,1.003-0.593,1.396c-0.385,0.397-0.927,0.647-1.485,0.844c-0.409,0.134-1.084,0.332-1.726,0.461
								c-0.625,0.165-1.338,0.278-2.057,0.395c-2.891,0.458-6.169,0.655-9.398,0.774c-3.231,0.116-6.482,0.157-9.428,0.209
								c-1.158-0.063,2.596-0.271,8.041-0.577c2.707-0.164,5.845-0.361,8.855-0.757c0.757-0.095,1.504-0.2,2.205-0.34
								c0.74-0.111,1.388-0.278,2.035-0.432c1.532-0.407,1.578-0.451,2.084-0.729c-0.292,0.018-0.611,0.07-0.959,0.119
								c-0.359,0.073-0.878,0.222-1.467,0.322c-0.289,0.063-0.585,0.126-0.89,0.192c-0.334,0.053-0.676,0.106-1.024,0.162
								c-2.803,0.459-6.456,0.784-10.074,0.97c-3.611,0.193-7.232,0.3-9.971,0.326c-2.744,0.023-4.652-0.06-5.033-0.35
								c-32.605-0.033-24.302,1.419-51.983,1.049c-0.375,0.531-7.863,0.349-9.313,0.83c8.202,0.765,36.995-0.46,54.956-0.368
								c-1.758,0.06-5.295,0.179-5.985,0.287c6.42,0.002,10.956-0.041,15.007-0.123c4.039-0.09,7.653-0.176,12.041-0.393
								l-1.11-0.033c7.672-0.45,9.751-0.758,11.243-0.749c0.701-0.04,1.311,0.038,2.117-0.062c0.398-0.051,0.945-0.079,1.506-0.216
								c0.145-0.032,0.297-0.066,0.458-0.103c0.108-0.027,0.223-0.057,0.343-0.088c0.223-0.056,0.463-0.146,0.727-0.258
								c0.37-0.215,1.038-0.592,1.437-1.324c0.192-0.364,0.29-0.798,0.312-1.232l0.006-0.327l-0.003-0.511
								c-0.003-0.438-0.006-0.87-0.008-1.292c-0.026-3.375-0.089-6.052-0.28-5.046l0.474-16.552l-0.588,0.763
								c-0.049-9.353,0.336-11.386-0.036-19.876l-0.527-0.408l-0.145,23.193c-0.191-11.767-0.51-3.31-0.642-16.223
								c0.6,14.448,0.275-10.188,0.762-11.602c0,0-0.078-2.377-0.155-4.755c-0.048-1.184-0.068-2.381-0.074-3.283
								c-0.011-0.9-0.019-1.5-0.019-1.5l0.095,2.455c0.411-7.525-0.029-8.967,0.203-17.754c-0.461,10.348-1.087,17.195-0.613,30.233
								c-0.45-9.452-0.313-28.579-0.262-33.253c-0.033-10.102,0.499-17.145,0.733-26.59c-0.126,18.133,1.715-6.316,0.661,29.999
								c-0.088-0.673-0.011-3.613,0.072-4.751c-0.381,2.416-0.472,7.86-0.453,13.685c0.029,2.912,0.06,5.919,0.087,8.69
								c0.097,2.75,0.185,5.267,0.253,7.221c0.393-2.009,0.475,6.181,0.704-7.69c-0.333,4.578-0.646-11.772-0.081-25.051
								l0.785,2.354l0.457-19.335l0.006,1.81c0.669-7.267,0.279-20.625,0.841-33.913c-0.06-4.803,0.142-16.41,0.211-24.838
								c0.093-8.43-0.061-13.671-0.571-5.758c0.594-11.92-0.153-22.382-0.265-35.381l-0.312,16.206
								c-0.626-19.152-0.233-13.642-1.201-28.954c0.224-1.552,0.404-4.971,0.648-1.861c0.018-12.939,0.04-28.65,0.06-43.023
								c-0.021-14.288-0.132-27.227-0.471-34.761c-0.049-18.188,0.872-21.087,0.315-46.643c-0.156-5.375-0.745,4.179-0.629-12.686
								c0.054-1.137,0.732,16.233,0.531-2.549c-0.736-13.371,0.133-31.404-0.576-48.867c0.152-9.216-0.069-25.201,0.463-21.876
								c0.008,14.593,0.287,35.242,0.556,38.384c-0.318-2.004-0.214,10.369-0.532-0.365c-0.218,22.017,0.418,14.277,0.301,34.021
								c0.212,1.36,0.484-10.152,0.274-14.382c0.688-0.102,0.615,38.925,1.313,21.37c-0.097-21.113-1.566-27.332-0.99-45.655
								c0.487,7.348,0.206,18.798,1,28.107l0.168-15.033l-0.582-10.907l0.106,0.648c0.407-26.599-0.917-24.585-1.462-48.378
								c-0.362,13.791-1.223-3.178-1.429,7.198c-0.222-15.917-0.229-27.606,0.461-27.716c0.813,29.768,0.743,1.687,1.662,29.2
								c0.209-4.519,1.064,6.541,1.003-9.856c-0.648-18.47-0.528,5.532-0.911-12.893c0.053-1.089,0.105-2.22,0.212-1.578
								c-0.43-8.473,0.046-9.888-0.437-20.143l0.159,2.431c0.322-12.645-0.639-13.833-0.106-24.714
								c-0.532,4.352-0.386-7.307-0.674-14.055c-0.122,5.515-0.374,9.765-0.603,15.357c-0.104,2.797-0.248,5.927-0.283,9.722
								c-0.034,3.795-0.035,8.251,0.021,13.695c0.427,2.628,0.638,1.038,0.909,9.979l-0.169-14.152
								c0.12,3.053,0.211,5.379,0.32,8.178l-0.095,13.595c-0.435-17.233-0.801-9.328-1.283-16.651
								c0.066-15.774-0.278-13.019-0.088-22.934c0.589,0.997,1.156-30.399,1.623-48.55c-0.021,2.819-0.048,6.458-0.063,8.422
								c0.313,13.187,0.537-9.071,0.703-9.558l-0.253-9.611c0.033,1.809,0.159,4.311,0.263,0.213
								c-0.05-13.009-0.642-12.256-0.692-25.245c0.331-0.973,0.776,10.011,0.985,1.936c0.299-2.782,1.087-11.645,0.934-28.895
								c-0.117-1.223-0.155-5.694-0.171-10.879c0.012,0.721,0.019,1.625,0.039,1.95l0.439-11.454
								c0.487,9.766-0.405,19.74,0.084,29.556l0.523,0.837c-0.064,7.635,0.136,18.009,0.383,22.779
								c0.146-11.642,0.006-14.094-0.005-27.113c0.349-1.82,0.531,7.351,0.558,8.672l-0.288-1.945
								c-0.534,15.523,0.395,23.217,0.2,42.543c-0.035,2.917-0.065,1.137-0.163,0.487c0.44,15.649-0.335,30.997,0.271,46.208
								l-0.257-4.959c0.103,5.178,0.254,12.828,0.43,21.713c0.298,8.883,0.637,19,0.976,29.113l0.208,0.161
								c0.105-2.246,0.162,5.345,0.112,9.421l-0.003-0.021c0.324,10.139,0.637,19.881,0.892,27.852
								c0.105-2.551,0.186-5.814,0.184-9.557c-0.269-3.168-0.227-21.755-0.755-19.202c0.26-8.589-0.333-22.42-0.178-28.728
								c-0.256,11.491-0.591-8-0.903-10.014c0.365-3.863,0.053-17.03,0.513-15.525c0.133-2.267-0.336,5.644-0.079,10.531
								c0.38,12.036,0.486-22.037,0.83-7.042c-0.239-19.07,0.021-44.2-0.318-63.873l-0.242,11.01
								c0.109-8.744,0.102-29.44,0.335-30.985c0.011,6.498,0.023,14.091,0.038,22.405c0.525,0.406,0.09-19.974,0.42-20.897
								l-0.715-24.151l-0.105,10.575c-0.272-6.664,0.273-28.771,0.466-45.16c0.654,9.407-0.16,24.725,0.006,41.97
								c0.183,12.527,0.752-7.73,0.84,4.125c0.19-3.071,0.226-10.807,0.071-14.623l0.165-4.676
								c0.569,10.581,0.265,34.288,0.775,50.065c-0.063-1.385-0.133-2.593-0.207-3.031c-0.311,12.146-0.357,24.484-0.239,36.328
								c0.236-6.263,0.107-8.743,0.048-12.323c0.164-0.444,0.182,10.735,0.342,14.966c0.243-11.016,0.396-2.054,0.538-9.023
								c0.122,7.175,0.05,12.987-0.061,21.729c-0.269,4.533-0.323-3.75-0.652-2.826c0.153,9.004-0.644,13.121-0.33,26.299
								c0.109-8.764,0.281-7.609,0.449-3.509c0.065,2.051,0.155,4.837,0.24,7.488c0.106,2.65,0.208,5.165,0.268,6.674l-0.002-2.936
								c0.428,5.555,0.483,10.269,0.167,14.109c-0.216-7.171-0.167-14.11-0.537-12.069c0.057,4.736,0.113,9.459,0.275,14.823
								l-0.321-4.877l0.279,23.542c0.373,3.725,0.908,9.946,1.439,13.202c-0.262,5.649,0.062,13.509,0.226,18.863l-0.163-2.489
								c-0.206,10.389,0.236,33.474,0.549,35.432c-0.202,7.413-2.36-52.416-1.644,0.028c0.147,19.975,1.055,12.429,1.472,23.833
								c0,0-0.104-0.644-0.158,0.489c-0.007,8.747,0.366,9.622,0.573,16.813c0.108-5.245,0.06-12.847-0.097-15.295
								c0.422,2.628,0.097,18.231,0.463,24.885c-0.686-8.662-0.116,16.845-0.484,10.121c-0.138,8.667-0.05,17.634,0.138,25.568
								c0.132,7.979,0.369,14.924,0.599,19.502c-0.39,5.917-0.364,11.101-0.286,17.208c0.079,6.073,0.21,13.035,0.028,22.562
								c0.023-2.927-0.094-8.239-0.01-12.334c-0.495-10.861-0.26,19.742-0.712,3.025c0.077,3.576,0.263,0.253,0.185-3.414
								c-0.056-6.402-0.273-12.468-0.499-10.856l-0.438,15.545l-0.12-5.424l-0.606,23.594c0.1,0.64,0.224-1.574,0.285-2.71
								c-0.138,13.673-0.075,28.447-0.018,42.731c0.02,7.149,0.099,14.196,0.069,20.953c-0.125,6.751-0.244,13.221-0.355,19.231
								c0.656,2.269,0.531,17.071,0.305,33.735c-0.228,16.64-0.556,35.139-0.307,44.844c-0.305-5.206-0.959-8.062-1.31-4.847
								c0.021-4.327-0.378-13.195-0.078-23.006c0.253-1.563,0.732-13.677,0.844-5.873c0.345-27.121-0.681,3.658-1.052-4.356
								c-0.396,30.07-0.08,47.634,0.444,66.8l-0.164,0.476l0.335,14.44c0.074-11.781,0.866-11.161,0.613,4.034l-0.042-1.854
								c-0.079,2.163-0.113,4.913-0.119,8.035c0.003,1.562,0.006,3.216,0.01,4.935c0.005,0.859,0.011,1.735,0.016,2.625
								c0.004,0.444,0.007,0.892,0.01,1.343l0.002,0.729c-0.007,0.344-0.02,0.688-0.053,1.028c-0.102,1.369-0.469,2.717-1.109,3.947
								c-0.645,1.23-1.6,2.287-2.7,3.154c-1.102,0.877-2.382,1.538-3.71,2.069l-0.996,0.373l-0.815,0.253
								c-0.554,0.185-1.062,0.285-1.588,0.416c-4.173,0.979-7.967,1.208-11.444,1.37c0,0-2.348,0.217-4.659,0.378
								c-2.292,0.151-4.583,0.302-4.583,0.302c-13.476,0.104-14.067-0.741-18.455-1.201c-21.118,0.187-33.304,1.027-48.299,1.617
								c-6.787-0.293-38.42-0.013-21.665-0.659c-19.044,0.55-15.184,2.497-47.864,1.773l8.476-0.457
								c-3.904,0.063-8.017,0.129-12.253,0.197c-4.235,0.046-8.594,0.094-12.991,0.143c-8.794,0.102-17.741,0.204-26.162,0.302
								c-16.841,0.188-31.577,0.315-38.774,0.147c11.521-1.322-39.021-1.2-44.573-2.447c1.547,0.284-10.188,0.414-11.898,0.573
								c-2.571-0.146-6.853-0.263-11.396-0.009c12.18,0.239-8.565,1.342,14.723,0.77c-11.785,0.957-26.972,1.497-52.792,1.309
								l0.391-0.525l20.427,0.28c-2.062-0.401,8.452-0.31,12.762-0.464c-37.999-0.52,4.977-1.205-33.869-1.364
								c-3.753,0.319-1.322,0.192-11.419,0.269c4.748,0.011,5.604-0.348-2.047-0.399l-7.35,0.377
								c-13.561-0.958,22.456-0.439,10.886-1.126c15.001-0.325,40.978-0.394,36.14-1.095c-24.491-0.389-22.038,1.13-47.647,0.674
								l-2.726-0.303c-9.008,0.143-10.466,0.598-15.399,0.849c-0.444-0.165-2.732-0.301-8.519-0.382
								c-15.215,0.588-25.313,0.661-39.352,1.318c37.353-0.335,31.926,0.703,70.479,0.436c-6.042,0.183-33.182,0.184-34.855,0.901
								l0.364-0.525c-12.537,0.2-25.067,0.397-40.809,0.132l9.612-0.24c-20.87,0.302-34.676-1.128-51.148-0.487
								c5.814,0.132,10.534,0.186,14.124,0.158c-10.742,0.077-24.215-0.173-35.886-0.434l-24.162,0.518
								c0.216-0.259-15.088-0.499-7.698-0.809c-17.381-0.656-25.59,0.01-35.64-0.007c-17.795-0.821,15.429-0.023,17.186-0.727
								c-12.263-0.302-24.895-0.493-36.193-0.574c-1.412-0.009-2.804-0.018-4.171-0.026c-0.73-0.002-1.254-0.007-1.912,0.011
								c-0.65,0.019-1.294,0.038-1.932,0.056c-2.636,0.101-5.162,0.196-7.551,0.287c-4.822,0.171-9.135,0.243-12.708,0.218
								c5.149,0.29,7.614,0.318,7.358,0.462c-0.38-0.087-3.087-0.104-6.439-0.225c-3.351-0.118-7.358-0.382-10.284-0.762
								c0,0-1.023-0.059-2.046-0.116c-0.519-0.046-1.039-0.092-1.428-0.126c-0.389-0.03-0.655-0.066-0.654-0.065
								c-2.493-0.529-4.366-1.182-5.572-1.682c-0.367-0.162-0.681-0.302-0.946-0.419c-0.28-0.135-0.513-0.239-0.672-0.341
								c-0.321-0.2-0.44-0.294-0.373-0.29c0.073-0.003,0.309,0.119,0.762,0.284c0.447,0.163,1.16,0.411,1.734,0.598
								c1.241,0.345,3.003,0.824,5.114,1.152c-1.242-0.26-2.526-0.544-3.879-0.946c-0.708-0.213-1.288-0.381-2.15-0.726
								c-0.931-0.33-1.75-0.808-2.617-1.236c-1.659-0.966-3.145-2.254-4.189-3.889c-1.036-1.665-1.37-3.621-1.327-5.611
								c0.046-1.381,0.093-2.762,0.139-4.138c0.049-1.146,0.099-2.288,0.147-3.421c0.115-2.264,0.269-4.487,0.484-6.627
								c-0.055,2.146-0.111,4.377-0.168,6.646c-0.092,2.479-0.186,5-0.279,7.513l0.029,1.639l0.24,1.589
								c0.167,0.509,0.328,1.025,0.532,1.519c0.269,0.463,0.49,0.96,0.822,1.378c1.263,1.724,3.012,3.045,4.951,3.927
								c0.455,0.262,0.98,0.445,1.474,0.65c0.455,0.176,0.806,0.319,1.194,0.434c0.76,0.248,1.511,0.479,2.23,0.65
								c1.455,0.383,2.832,0.636,4.156,0.858c5.272,0.828,9.606,0.963,12.476,0.989c-6.805-0.186-12.26-0.718-17.202-2.079
								c-0.614-0.161-1.24-0.39-1.839-0.58c-0.309-0.098-0.591-0.228-0.936-0.36c-0.385-0.155-0.765-0.314-1.135-0.481
								c-1.409-0.733-2.77-1.48-3.797-2.538c-1.088-0.979-1.919-2.195-2.377-3.518c-0.099-0.336-0.233-0.662-0.3-1.001l-0.13-1.027
								c-0.059-0.338-0.067-0.685-0.055-1.035l0.007-1.042c0.194-2.73,0.386-5.432,0.593-8.331c0.177-2.696,0.366-5.576,0.581-8.853
								c0.391-6.556,0.788-14.704,1.184-26.145c0.186-0.479,0.199,6.24,0.551-1.388c0.679-17.682-0.495-4.649-0.625-10.187
								c-0.407,13.613-0.904,19.935-1.695,27.807l-0.113-3.644c0.169-0.543,0.567-9.084,0.82-11.594l-0.466-2.225
								c0.581,1.045,1.681-12.602,1.936-23.354c-0.949,10.835-0.792,7.904-1.641,10.826c0.011-15.127,1.441-17.013,1.496-33.965
								c0.144,1.274-0.379,16.058,0.357,3.294c0.284-5.284,0.169-7.583,0.084-9.443c-0.095-1.862-0.222-3.288-0.217-6.839
								c0.167,4.004,0.36,5.496,0.563,7.073c0.18,1.575,0.472,3.239,0.558,7.577c-0.79,18.788-0.352,7.577-0.96,25.949l1.149-15.527
								c-0.64,15.922,0.07,11.601,0.21,12.92c0.885-13.585,0.92-18.717,0.851-22.636c-0.036-3.918-0.32-6.631-0.034-15.382
								c-0.16-8.451-0.462,16.396-0.526,3.183c0.462-16.368-0.253-3.744-0.047-22.123l0.167,3.083
								c0.443-5.608,0.191-11.172,0.292-17.671c0.01-7.149-2.007,8.046-1.35-21.33c0.112,1.442,0.192,1.973,0.253,1.974
								l3.714,28.772c0.378-14.896,0.786-30.926,1.208-47.545c0.091-4.155,0.284-8.346,0.3-12.567
								c0.049-4.221,0.099-8.471,0.148-12.74c0.115-8.538,0.23-17.155,0.345-25.783c0.908-8.124,0.559,24.642,0.958,22.534
								l-0.271,15.743c-0.358-0.888,0.087-32.987-0.642-18.776c-0.005,6.951-0.01,12.952-0.014,18.456
								c0.005,2.752-0.051,5.379-0.118,7.938c-0.057,2.56-0.113,5.052-0.168,7.532c-0.212,9.923-0.358,19.667-0.294,32.859
								c0.526-4.085,0.692-12.77,0.861-22.573c0.097-4.902,0.2-10.084,0.299-15.112c0.079-2.514,0.156-4.989,0.23-7.373
								c0.052-2.383,0.123-4.674,0.219-6.817c-0.062,7.205-0.115,13.286-0.166,19.192c0.122-4.027,0.245-8.125,0.37-12.292
								c0.054-4.169,0.109-8.407,0.165-12.716c0.113-8.616,0.23-17.51,0.351-26.676l-0.184-4.12
								c-0.188,12.354-0.317,20.901-0.334,22.004c0.174-16.382-0.218-30.202-0.84-31.293l-0.041,2.91l-0.16-5.92
								C21.773,567.681,21.836,563.838,21.9,560.018z M558.863,9.205c-0.996,0.07-1.779,0.147-2.357,0.241
								C557.105,9.349,556.434,9.295,558.863,9.205z M79.636,820.969c-5.46-0.107-10.933-0.215-16.397-0.322
								c-2.788-0.08-5.53,0.03-8.248,0.07c-2.722,0.052-5.433,0.086-8.134,0.076c-5.397-0.025-10.77-0.191-15.991-0.819
								c-2.599-0.329-5.187-0.746-7.58-1.487c-0.583-0.178-1.223-0.392-1.709-0.601c-0.496-0.178-0.973-0.442-1.444-0.687
								c-0.923-0.521-1.784-1.234-2.25-2.193c0.37,0.896,1.105,1.567,1.888,2.087c0.381,0.287,0.813,0.486,1.227,0.717
								c0.419,0.2,0.845,0.384,1.359,0.591c1.999,0.751,4.097,1.247,6.132,1.64c4.09,0.756,7.966,1.104,11.359,1.359
								c6.799,0.462,11.717,0.53,13.464,0.701c1.749,0.142,0.342,0.371-5.468,0.534c-2.906,0.059-6.916,0.117-12.182-0.174
								c-2.632-0.158-5.581-0.408-8.838-0.976c-1.625-0.305-3.335-0.652-5.086-1.257c-1.748-0.621-3.736-1.453-5.117-3.056
								c0,0-0.046-0.052-0.126-0.142c-0.073-0.096-0.213-0.207-0.316-0.388c-0.208-0.357-0.53-0.817-0.656-1.363l-0.128-0.393
								c-0.023-0.133-0.028-0.268-0.042-0.396c-0.025-0.258-0.048-0.499-0.067-0.705c0.005-0.416,0.009-0.694,0.009-0.694
								c-0.052,0.561-0.011,1.141,0.03,1.746c0.064,0.295,0.165,0.59,0.249,0.894c0.087,0.304,0.286,0.566,0.43,0.858
								c0.698,1.108,1.82,2.001,3.109,2.708c0.33,0.166,0.664,0.335,1.002,0.506c0.35,0.14,0.704,0.282,1.063,0.425
								c0.687,0.265,1.401,0.481,2.128,0.691c1.458,0.407,2.984,0.712,4.553,0.973c6.287,0.99,13.253,1.14,19.973,1.064
								c2.72-0.118,6.945-0.409,11.735-0.743c4.786-0.263,10.186-0.348,15.216-0.539c5.034-0.175,9.716-0.337,13.118-0.455
								c1.7-0.07,3.08-0.128,4.022-0.166c0.943-0.046,1.449-0.079,1.401-0.098c-3.836-0.404-9.443-0.106-16.426-0.315
								L79.636,820.969z M95.131,823.279c12.38,0.319,9.566,0.003,11.492-0.217c-4.359-0.032-8.71-0.065-13.013-0.098
								C95.255,823.052,96.066,823.151,95.131,823.279z M105.885,822.804c-1.391-0.026-2.578-0.056-3.199-0.098L105.885,822.804z
								 M21.554,666.261c-0.006,0.551-0.008,0.749-0.015,1.271c0.088-2.924,0.176-5.854,0.268-8.911
								C21.74,659.807,21.656,662.065,21.554,666.261z M20.354,691.371l0.385,2.95c0.081-2.726,0.164-5.507,0.249-8.353
								C20.761,686.902,20.559,687.879,20.354,691.371z M15.829,772.014c0.313,5.111-0.439,22.148,0.143,23.226
								c0.111,1.096,0.336-2.485,0.571-6.505c0.221-4.486,0.457-9.276,0.707-14.355c-0.083-0.181-0.123-1.193-0.128-2.884
								c-0.307,5.013-0.616,8.355-0.909,6.306c1.429-12.856-0.073-11.583,0.777-25.511C16.749,747.836,15.844,767.78,15.829,772.014
								z M662.137,434.899c0.053-0.397,0.183-1.764,0.342-3.681l0.385,9.83c-0.01,17.549-0.812,31.61,0.08,47.39
								c-0.142,7.388-0.526,11.347-0.839,15.13c0.015-3.617,0.027-7.001,0.039-9.82
								C660.686,449.493,663.178,470.662,662.137,434.899z M661.729,636.565c-0.042-1.809-0.146-2.458-0.146-2.458
								c0.143,4.898,0.282,9.688,0.419,14.361c0.08,2.337,0.108,4.645,0.108,6.923c0.009,2.278,0.019,4.526,0.027,6.743
								c-0.004,8.868-0.008,17.237-0.012,25.041c-0.067,15.611-0.243,28.959-0.461,39.519c0.533-4.089,1.239-23.022,1.596-32.022
								l0.374,7.987l-0.503,4.971l0.218,13.848c0.422-3.864,0.557-15.033,0.965-22.509c-0.087-0.652-0.251-24.604-0.448-31.298
								l-0.716,19.118c0.121-2.58,0.27-10.214,0.394-18.459c0.105-8.247,0.287-17.103,0.141-22.138
								c-0.066-0.051-0.139,0.996-0.201,2.628c-0.056,1.632-0.132,3.848-0.209,6.139c-0.147,4.581-0.197,9.461,0.066,10.557
								c-0.426,2.057-0.06-17.927-0.71-5.295c0.012-7.489-0.09-17.19-0.037-26.401c0.044-9.212,0.163-17.934,0.25-23.464
								l0.649-1.881c0.233-12.141-0.805-8.188-0.427-22.598c0.127,17.704,0.715-3.001,0.764,11.078
								c0.246-4.499,0.689-0.104,0.641-14.202c-0.862-11.741,0.541-14.85-0.221-25.968c0.271-7.435,0.52,8.007,0.636-6.627
								c-0.454-16.786-0.779-15.809-1.407-16.843c-0.176,15.675,0.816,17.628,0.664,30.441l-1.076-25.504
								c-0.152,4.7-0.168,8.177-0.125,11.096c-0.063-5.124-0.222-9.477-0.441-13.197c-0.115-2.118-0.222-4.073-0.319-5.881
								c-0.006,14.443-0.021,27.271-0.288,29.534l-0.305-1.993c-0.279,5.108-0.061,13.457,0.162,17.3
								c0.032,12.942,0.456,25.859,0.073,28.688l-0.287-4.902C661.651,614.796,661.692,616.568,661.729,636.565z M320.938,823.287
								c9.631,1.142,20.253,2.362,65.225,1.963l-3.539,0.088c22.664,0.636,44.185-1.054,71.758-0.354
								c-13.378,0.459-12.657,0.419-27.426,1.424l14.354-0.356c-3.976,0.619,10.344,0.264,20.878,0.262l-9.294,0.75
								c-6.324-0.189-22.716-0.218-22.234-0.055c3.588-0.09-21.643-0.85-35.348-0.601c1.414,0.486,30.352,0.204,17.432,1.042
								c11.388-0.368,12.803,0.116,24.707-0.09c-11.416,0.368-2.823,0.676-11.322,1.057l19.521-0.222
								c0.51,0.161-28.431,0.443-12.432,1c7.821-0.279,28.709-0.017,29.081-0.545l0.481,0.16c14.634,0.072,6.433-0.765,24.402-0.516
								c0.21-0.267-3.218-0.439-9.654-0.366c-5.439,0.133-6.271,0.498-17.478,0.604c-5.025-0.398,13.518,0.013,5.734-0.663
								c-3.867-0.336-29.582,0.385-21.39-0.423l14.604,0.071c0.372-0.529,10.948-0.529,10.649-0.954
								c8.928-0.237,17.361,0.388,26.479-0.173c3.783-0.385-2.833-0.942,12.258-0.842c11.797,0.644,46.538,0.088,59.55-0.176
								l11.383-0.47c-0.972-0.313-21.757,0.298-14.45-0.208l17.757-0.334l-1.367,0.219c5.885-0.023,11.9-0.312,17.268-0.489
								c-5.526,0.444-18.328,0.44-15.778,0.961c8.337,0.012,9.611,0.2,17.282,0.005c-1.674,0.059-3.114,0.13-2.901,0.205
								c16.881,0.041,16.289-0.806,20.518-1.033c16.957-0.913-17.111-0.466-14.951-1.057c0,0,12.384-0.22,24.767-0.439
								c6.19-0.116,12.388-0.173,17.008-0.508c4.63-0.289,7.631-0.969,7.632-0.969c-2.039,0.489-4.137,0.831-5.517,1.033
								c-1.38,0.215-2.041,0.362-1.234,0.414c1.521-0.087,2.667-0.166,3.541-0.256c0.875-0.063,1.476-0.145,1.909-0.192
								c0.868-0.098,1.066-0.069,1.412-0.114c0.345-0.058,0.849-0.099,2.315-0.489c0.712-0.197,1.765-0.531,3.027-1.2
								c0.638-0.329,1.313-0.798,1.964-1.444c0.639-0.651,1.233-1.537,1.494-2.661c-0.139,0.122-0.116-0.132-0.101-0.699
								c0.034-0.557-0.014-1.469-0.065-2.528c-0.09-2.154-0.144-5.26-0.188-8.778c-0.089-7.036-0.141-15.727-0.368-21.761
								c0.299-5.613,0.358-6.772,0.388,5.544c0.485-1.384,0.271-17.939,0.307-23.818c-0.17-3.412-0.116-9.217-0.153-12.897
								c-0.335,4.926-0.602,2.818-0.611-7.858l-0.091-0.623c-0.128,4.374-0.272,9.354-0.423,14.534
								c-0.145,5.181-0.133,10.549-0.189,15.72c-0.07,10.338-0.063,19.857,0.195,25.354l-0.246-3.114
								c-0.098,5.047-0.087,10.321-0.03,15.543l0.023,1.955l0.013,0.959c0.008,0.281,0.007,0.563-0.008,0.844
								c-0.034,1.124-0.435,2.244-1.201,3.058c-1.563,1.638-3.715,2.267-6.031,2.829c-4.592,1.012-9.095,1.209-12.929,1.32
								c-3.849,0.09-7.095,0.011-9.432-0.188c0.855-0.374-4.069-0.036-3.725-0.567l-14.903,0.586l3.097-0.275l-25.361,0.414
								l0.67-0.106c-12.05,0.633-21.489,1.128-29.029,1.523c-0.025,0.23,0.76,0.292-3.258,0.509
								c-4.032,0.16-7.091,0.213-9.817,0.215c-0.021,0.001-0.021,0.001-0.021,0.003v-0.003c-6.224,0.006-10.373-0.276-18.038-0.321
								l23.584-0.332c1.917-0.412-0.094-0.795-11.651-0.934c4.725-0.069,6.699-0.397,0.851-0.374
								c-0.642,0.109-15.451,0.43-9.805,0.675c-11.201,0.196-25.871,0.164-41.992,0.182c-16.121-0.1-33.692-0.12-50.7,0.3
								c24.438-0.517-19.588-0.468,7.541-0.706c-18.938-0.57-16.292,0.662-35.597,0.62c-1.646-0.22,10.51-0.001,14.944-0.456
								c-16.048-0.079-29.585,0.212-42.993,0.51c-6.704,0.135-13.376,0.27-20.312,0.408c-6.936,0.097-14.137,0.206-21.899,0.084
								l-1.327-0.495C334.253,823.226,327.727,823.256,320.938,823.287z M259.512,823.533c-5.976,0.02-12.037,0.04-18.197,0.061
								c0.6,0.009,1.158,0.017,1.787,0.025l-17.959,0.287c11.032,0.255,18.297,0.833,2.852,0.992c1.302-0.194-3.21-0.468,2.16-0.554
								c-10.347-0.339-33.046-0.79-27.134-0.02c19.892-0.538,4.625,0.976,20.255,0.561c-8.389,0.412-16.696,0.211-24.616,0.274
								c8.248-0.28-1.912-0.938-14.292-1.311c-5.391,0.04-19.975-0.287-28.934-0.225c3.187,0.497-4.615,0.641,9.978,0.968
								c-5.356,0.04-13.644,0.012-22.922-0.355c3.681-0.022,10.117,0.016,9.674-0.153c-5.984-0.502-12.999-0.587-16.867-0.82
								c-3.087-0.021-6.202-0.043-9.233-0.063c0.903,0.053,1.687,0.115,2.244,0.188l-10.262,0.247
								c13.664-0.012,6.312,0.301,6.131,0.562c0.375-0.521-8.793-0.197-13.47-0.248l10.149,0.705
								c-4.914,0.208-17.329-0.656-14.773-0.066c21.549,0.537,29.837,0.563,49.33,0.683l-7.906-0.548
								c21.994,0.016,13.553,0.94,38.229,1.281c5.131-0.134,14.408,0.032,22.467,0.043c8.06-0.009,14.901-0.074,15.159-0.469
								c-3.097,0.224,15.359,0.795,23.819,0.485c9.352-0.668,37.617-0.599,29.057-0.979c-7.636-0.054-17.917,0.283-24.053-0.224
								l14.814-0.063l-9.717-0.452C262.303,824.516,261.818,824.127,259.512,823.533z M25.054,729.315
								c0.01-0.162,0.024-0.374,0.036-0.572c-0.011,0.22-0.021,0.431-0.031,0.636L25.054,729.315z"/>
							<path fill="#FFFFFF" d="M660.222,215.626c-0.149-4.261-0.044-14.792-0.446-12.732
								C660.204,202.643,659.705,221.712,660.222,215.626z"/>
							<path fill="#FFFFFF" d="M660.729,203.035c-0.097-0.742-0.264-0.228-0.244-4.953l0.015,13.012L660.729,203.035z"/>
							<path fill="#FFFFFF" d="M663.736,189.852c-0.27-6.713-0.418-10.967-0.313-21.5c1.068-3.95,0.166,17.246,1.102,22.027
								c0.236-19.307-0.629-25.239-0.603-41.12C663.432,157.127,662.951,189.268,663.736,189.852z"/>
							<polygon fill="#FFFFFF" points="664.987,198.437 664.831,187.697 664.763,188.756 664.919,199.503 							"/>
							<path fill="#FFFFFF" d="M656.076,431.051c-0.314,0.981,0.054,7.651,0.158,11.23
								C656.232,439.365,656.294,435.302,656.076,431.051z"/>
							<path fill="#FFFFFF" d="M317.439,16.216l81.861,0.111C375.746,16.295,354,16.266,317.439,16.216z"/>
							<path fill="#FFFFFF" d="M658.012,702.638c0.051-10.989-0.019-18.926-0.066-26.914c-0.013-3.993-0.025-8-0.038-12.407
								c0.008-2.204,0.017-4.508,0.026-6.96c0.018-2.452,0.054-5.055,0.009-7.847c-0.043,3.67-0.209,7.041-0.27,10.162
								c-0.076,3.123-0.12,6.003-0.144,8.709c-0.045,5.411-0.006,10.125,0.036,14.691c0.084,9.139,0.178,17.669-0.388,30.039
								L658.012,702.638z"/>
							<path fill="#FFFFFF" d="M655.564,694.836c0.68-3.63,0.401,16.964,0.909,13.789c0.126-14.818-0.454-6.909-0.152-20.345
								L655.564,694.836z"/>
							<polygon fill="#FFFFFF" points="666.389,595.247 666.715,601.913 666.592,596.539 							"/>
							<polygon fill="#FFFFFF" points="654.961,794.778 654.818,792.361 654.643,803.268 							"/>
							<path fill="#FFFFFF" d="M654.674,789.946l0.145,2.415L654.674,789.946z"/>
							<polygon fill="#FFFFFF" points="667.712,603.804 667.832,593.887 667.552,589.007 							"/>
							<path fill="#FFFFFF" d="M663.773,691.388l-0.031-8.87C663.748,684.277,663.271,696.403,663.773,691.388z"/>
							<polygon fill="#FFFFFF" points="616.199,817.179 605.421,817.539 606.523,817.587 617.267,817.228 							"/>
							<path fill="#FFFFFF" d="M664.191,760.784c0.461-6.158,0.155,17.807,0.551,5.129c-0.022-2.822-0.055-4.653-0.093-5.786
								c-0.029-1.13-0.056-1.56-0.107-1.595C664.445,758.464,664.292,759.989,664.191,760.784z"/>
							<path fill="#FFFFFF" d="M587.919,823.866c-1.455,0.017-2.988,0.052-4.464,0.121
								C585.214,823.939,586.689,823.899,587.919,823.866z"/>
							<path fill="#FFFFFF" d="M587.919,823.866c4.697-0.055,9.396,0.07,12.616-0.104
								C594.676,823.618,592.544,823.724,587.919,823.866z"/>
							<path fill="#FFFFFF" d="M534.101,824.602l4.26-0.016c-4.349,0.283-2.286,0.225,1.597-0.008
								c4.514-0.068,4.258-0.214,4.794-0.322c0.903-0.069,1.8-0.139,2.773-0.215c-1.391,0.08-2.64,0.152-3.699,0.213
								C536.832,824.332,532.565,824.404,534.101,824.602z"/>
							<path fill="#FFFFFF" d="M334.182,817.494c15.724,0.291,19.792,0.328,18.936,0.697c14.928,0.073,12.611-0.549,21.614-0.721
								C357.843,817.556,354.391,817.52,334.182,817.494z"/>
							<path fill="#FFFFFF" d="M374.732,817.471c1.893-0.015,3.7-0.029,5.896-0.047C378.171,817.421,376.35,817.441,374.732,817.471
								z"/>
							<polygon fill="#FFFFFF" points="597.059,827.861 587.287,828.533 590.875,828.414 							"/>
							<path fill="#FFFFFF" d="M310.847,817.173c2.916,0.04,7.59,0.052,9.884,0.19C321.573,817.002,307.938,817.134,310.847,817.173
								z"/>
							<path fill="#FFFFFF" d="M371.491,824.488c1.596,0.219,11.662,0.056,15.759,0.13
								C381.373,824.588,376.584,823.929,371.491,824.488z"/>
							<path fill="#FFFFFF" d="M265.727,818.414c2.916,0.04,7.398,0.313,5.455,0.604
								C275.419,818.863,281.157,818.253,265.727,818.414z"/>
							<path fill="#FFFFFF" d="M342.741,824.454l2.246,0.138l10.766-0.234c0,0-3.253,0.037-6.506,0.073
								C345.994,824.442,342.741,824.454,342.741,824.454z"/>
							<path fill="#FFFFFF" d="M381.143,829.786c12.11-0.47-19.212-0.995,1.646-1.425c-26.905-0.378,2.063,0.611-17.784,0.598
								C376.627,829.073,382.322,829.607,381.143,829.786z"/>
							<path fill="#FFFFFF" d="M365.004,828.959c-1.688-0.007-3.519-0.014-5.504-0.021
								C361.697,828.946,363.471,828.953,365.004,828.959z"/>
							<path fill="#FFFFFF" d="M194.589,825.248c1.759-0.02,2.961-0.052,4.07-0.088
								C197.274,825.177,195.953,825.202,194.589,825.248z"/>
							<path fill="#FFFFFF" d="M301.616,829.09l18.154-0.548c-12.126,0.364-42.629,0.158-40.732,0.82
								c9.877,0.19,21.764,0.088,26.647-0.165L301.616,829.09z"/>
							<path fill="#FFFFFF" d="M93.471,815.072l7.841-0.144l-9.784-0.22C94.329,814.848,89.251,815.252,93.471,815.072z"/>
							<path fill="#FFFFFF" d="M89.636,814.668l1.892,0.041C91.112,814.688,90.512,814.672,89.636,814.668z"/>
							<path fill="#FFFFFF" d="M228.917,825.229c5.863,0.08,10.554,0.09,15.903,0.005
								C242.603,825.099,227.995,824.898,228.917,825.229z"/>
							<path fill="#FFFFFF" d="M38.424,815.662c0-0.001,3.085,0.113,6.23,0.095c3.138-0.003,6.316-0.092,6.316-0.092
								s-3.468,0.078-6.888,0.057c-3.424-0.016-6.776-0.181-6.776-0.181L38.424,815.662z"/>
							<polygon fill="#FFFFFF" points="25.005,779.249 25.229,777.021 25.485,766.27 25.259,768.534 							"/>
							<path fill="#FFFFFF" d="M56.866,827.356c2.208-0.035,4.206-0.126,5.869-0.131c1.841-0.02,3.45-0.066,4.713-0.125
								c2.526-0.116,3.669-0.276,2.522-0.354c0,0-4.213-0.054-8.425-0.106c-1.96,0.011-4.134,0.087-5.719,0.125
								c-1.605,0.041-2.675,0.067-2.675,0.067c2.185,0.208,3.373,0.17,5.229,0.073c0.915-0.046,2.045-0.117,3.377-0.137
								c1.387-0.01,3.337,0.015,5.779,0.082c0,0-2.726,0.085-5.452,0.17c-1.153,0.048-2.529,0.145-3.529,0.216
								C57.542,827.309,56.866,827.356,56.866,827.356z"/>
							<path fill="#FFFFFF" d="M27.041,330.638c0.419,3.794,0.582,22.403,0.25,23.386c-0.168-2.5-0.49-12.585-0.58-6.245
								l1.067,14.711c-0.238,19.598-1.293-14.873-1.819-24.533c0.28,19.949,0.865,25.858,1.208,47.083
								c-0.021-6.262,0.126-10.222,0.255-13.532c0.58-0.73,0.625,19.053,0.889,33.191c0.118-9.006,0.415-3.802,0.748,2.753
								c0.037,1.18,0.083,1.964,0.13,2.521c0.041,0.763,0.079,1.483,0.118,2.225l-0.027-1.696c0.068,0.12,0.142-0.256,0.233-1.48
								c-0.355-11.862-0.002-20.944-0.112-28.583c-0.85,7.563-0.612-26.011-1.081-35.607l-0.311-11.081l-0.083-4.146
								c0.089-0.835,0.245,0.342,0.558,6.66c-0.292-5.273-0.568-22.87-0.845-21.24l-0.796-40.157
								c0.015-1.251,0.04-2.502,0.091-3.429c-0.087-1.39-0.142-1.622-0.187-1.438c0,0-0.85-43.728-1.7-87.455
								c-0.471-21.865-0.722-43.718-0.972-60.111c-0.236-16.392-0.394-27.32-0.394-27.32c-0.017,8.627-0.032,16.092-0.05,24.989
								c-0.826-13.341,0.09,14.587-0.568,10.678c-0.304-5.998-0.358-14.782-0.285-20.015c-0.332-1.944-0.497,5.515-0.874,4.658
								c-0.07,22.063,1.427,25.416,1.52,46.98c-0.375-0.848-0.824-7.508-0.509,6.607l-0.146-3.586
								c0.838,22.597-0.492,17.626,0.78,31.837l-0.534-0.364c0.592,10.246,0.974,30.195,1.26,41.436l-0.114-0.669
								c1.201,31.525,0.468,17.703,1.407,53.12l-0.932-16.291c-0.017,12.225,0.706,14.966,0.808,23.74
								c-0.114-0.626-0.46,1.415-0.717-6.868l1.775,42.963C27.098,344.579,26.848,332.239,27.041,330.638z"/>
							<path fill="#FFFFFF" d="M27.167,385.041c0.007,2.275,0.035,4.862,0.103,7.914C27.231,390.008,27.198,387.471,27.167,385.041z
								"/>
							<path fill="#FFFFFF" d="M23.505,82.832l0.177,12.283C23.661,91.309,23.615,87.342,23.505,82.832z"/>
							<path fill="#FFFFFF" d="M29.224,446.658c0.221-7.461,0.42,5.581,0.632,6.88c0,0-0.053-6.679-0.106-13.358
								c-0.105-6.676-0.211-13.353-0.211-13.353c-0.202,0.123-0.469-2.518-0.647-1.978c0,0,0.095,5.451,0.189,10.903
								C29.195,441.203,29.224,446.658,29.224,446.658z"/>
							<path fill="#FFFFFF" d="M29.802,419.091c-0.155-0.902-0.325-3.728-0.494-6.892l0.231,14.628
								C29.69,426.733,29.803,425.092,29.802,419.091z"/>
							<polygon fill="#FFFFFF" points="19.006,422.062 18.915,417.337 18.647,410.193 							"/>
							<path fill="#FFFFFF" d="M18.757,348.158c-0.221,5.648,0.179,16.35,0.312,19.929C18.868,355.75,19.068,361.094,18.757,348.158
								z"/>
							<polygon fill="#FFFFFF" points="15.693,363.462 15.335,351.575 15.292,352.684 							"/>
							<path fill="#FFFFFF" d="M66.921,24.254c1.82-0.494,3.609-0.917,5.471-1.364C69.869,23.466,68.236,23.883,66.921,24.254z"/>
							<path fill="#FFFFFF" d="M22.09,94.068c0.193-28.367,0.753,18.576,1.386,9.656l-0.468-15.429l0.222,1.311l-0.331-18.82
								c-0.294,3.865-0.275,6.767-0.652,5.931c-0.019-3.141-0.034-5.621-0.046-7.591c0-0.49,0-0.949,0-1.378
								c0.014-0.378,0.027-0.731,0.04-1.06c0.031-0.656,0.031-1.222,0.082-1.699c0.196-1.907,0.321-2.568,0.482-3.036
								c0.155-0.468,0.239-0.777,0.547-1.892c0.353-1.094,0.72-3.087,2.254-6.515c0,0,0.519-1.333,1.538-3.219
								c1.037-1.876,2.683-4.251,4.698-6.406c1.997-2.167,4.353-4.098,6.227-5.448c0.926-0.688,1.739-1.222,2.32-1.586
								c0.572-0.372,0.899-0.585,0.899-0.585l-1.637,1.187c1.744-1.158,2.542-1.66,3.145-2.077c0,0,0.286-0.169,0.823-0.486
								c0.555-0.297,1.37-0.732,2.406-1.286c2.116-1.056,5.202-2.503,9.104-3.954c7.775-2.952,18.835-5.77,30.223-7.601
								c11.373-1.889,22.987-2.982,31.72-3.64c8.741-0.635,14.601-0.897,14.601-0.896c8.519-0.524,6.16-0.566,3.228-0.654
								c-2.926-0.062-6.419-0.126-0.134-0.686c-9.901,0.416-22.176,1.109-32.104,2.167c-9.938,1.013-17.495,2.396-18.251,2.881
								c0.633-0.195,1.87-0.628-2.044-0.043c0,0-2.756,0.628-5.479,1.329c-1.356,0.362-2.712,0.724-3.729,0.996
								c-1.008,0.289-1.68,0.482-1.68,0.482s0.651-0.138,1.627-0.345c0.983-0.189,2.293-0.442,3.604-0.695
								c1.318-0.23,2.636-0.461,3.624-0.633c0.993-0.158,1.655-0.263,1.655-0.263c-5.508,1.255-17.226,3.686-27.481,7.582
								c-5.138,1.912-9.852,4.203-13.439,6.346c-3.571,2.165-6.058,4.121-7.188,5.054c3.437-3.109,6.006-4.739,7.858-5.973
								c0.939-0.608,1.715-1.113,2.465-1.545c0.74-0.443,1.412-0.864,2.178-1.262c0.762-0.403,1.56-0.86,2.586-1.323
								c0.51-0.236,1.063-0.492,1.676-0.776c0.628-0.259,1.316-0.544,2.08-0.86c3.083-1.209,7.47-2.805,14.431-4.502
								c-1.295,0.124-6.437,1.23-0.233-0.571c-8.125,2.175-15.834,4.86-22.732,8.507c-6.875,3.636-12.944,8.301-16.969,14.269
								c-4.108,5.91-5.937,13.127-5.81,20.787C21.589,76.353,21.808,85.059,22.09,94.068z"/>
							<path fill="#FFFFFF" d="M312.027,15.617l-0.275,0.064C312.38,15.649,312.585,15.624,312.027,15.617z"/>
							<path fill="#FFFFFF" d="M300.349,15.466l-16.962,0.626l26.441,0.08l1.923-0.491c-2.338,0.115-11.609,0.321-15.202,0.106
								L300.349,15.466z"/>
							<path fill="#FFFFFF" d="M263.696,16.422c13.654-0.142,12.915-0.736,5.466-1.043c12.541-0.208,6.615,0.668,15.251,0.09
								c-0.281-0.427-15.738-0.258-19.29-0.198L263.696,16.422z"/>
							<polygon fill="#FFFFFF" points="162.984,16.045 166.807,15.754 157.383,15.826 							"/>
							<path fill="#FFFFFF" d="M166.807,15.754l9.363-0.012c-0.649-0.178-1.291-0.351-2.82-0.466L166.807,15.754z"/>
							<path fill="#FFFFFF" d="M200.774,15.89c3.975,0.039,8.375,0.083,13.727,0.136L200.774,15.89z"/>
							<path fill="#FFFFFF" d="M190.045,15.726l0.317,0.077l10.412,0.087C196.937,15.832,193.495,15.778,190.045,15.726z"/>
							<path fill="#FFFFFF" d="M176.17,15.742c1.525,0.41,3.301,0.811,16.857,0.697l-2.665-0.636L176.17,15.742z"/>
							<polygon fill="#FFFFFF" points="14.693,276.957 14.25,266.22 14.208,267.359 14.651,278.088 							"/>
							<path fill="#FFFFFF" d="M13.882,214.964c-0.124-2.654-0.238-4.666-0.351-6.494C13.63,211.266,13.741,213.49,13.882,214.964z"
								/>
							<path fill="#FFFFFF" d="M10.185,168.93c0.176-12.645,0.881,17.424,0.621-5.982c0.348-2.069,1.055,8.893,1.072,19.916
								c-0.38-0.869-0.437-10.733-0.68-3.952c0.561,7.311,0.327,10.099,0.827,7.54c0.576,12.306,0.993,13.669,1.508,22.019
								c-0.498-14.881-0.622-46.134-1.529-65.021c-0.807-10.405-1.619-4.074-2.572-4.102C9.228,140.92,9.495,167.927,10.185,168.93z
								"/>
							<path fill="#FFFFFF" d="M9.611,188.833c0.064,5.85,0.137,7.637,0.284,11.224C10.202,199.083,9.716,193.559,9.611,188.833z"/>
							<path fill="#FFFFFF" d="M16.814,54.174c0.08-0.571,0.967-3.449,2.021-5.811c1.041-2.366,2.17-4.21,1.436-3.273
								c0,0-0.132,0.225-0.362,0.618c-0.244,0.386-0.537,0.968-0.882,1.67c-0.359,0.695-0.76,1.513-1.115,2.424
								c-0.186,0.451-0.378,0.917-0.574,1.391c-0.165,0.485-0.332,0.977-0.5,1.47c-1.355,3.949-1.804,8.08-1.805,8.08
								C15.598,56.899,16.239,55.628,16.814,54.174z"/>
							<path fill="#FFFFFF" d="M14.66,67.953c0,0,0.002-0.45,0.006-1.125c0.018-0.676-0.016-1.579,0.05-2.48
								c0.062-0.902,0.125-1.805,0.171-2.481c0.087-0.674,0.146-1.124,0.146-1.124C14.749,62.533,14.615,64.78,14.66,67.953z"/>
							<path fill="#FFFFFF" d="M17.129,53.455c-0.116,0.236-0.217,0.447-0.315,0.719C16.792,54.41,16.794,54.364,17.129,53.455z"/>
							<path fill="#FFFFFF" d="M239.727,16.215c-0.226,0.26,6.919,0.142,10.505,0.083C247.316,16.26,243.222,16.153,239.727,16.215z
								"/>
							<path fill="#FFFFFF" d="M508.895,15.919l6.317,0.13C512.979,15.953,511.833,15.905,508.895,15.919z"/>
							<path fill="#FFFFFF" d="M606.184,7.765c0.187-0.047,0.658-0.08,1.295-0.107C606.843,7.677,606.399,7.711,606.184,7.765z"/>
							<path fill="#FFFFFF" d="M607.479,7.658c2.185-0.063,6.646,0.131,11.151,0.571c4.507,0.416,9.05,1.084,11.475,1.354
								l-0.626-0.004c0,0,2.241,0.324,4.474,0.736c2.233,0.408,4.456,0.915,4.456,0.915c-4.144-1.041-10.628-2.282-16.721-2.891
								C615.599,7.671,609.926,7.559,607.479,7.658z"/>
						</g>
					</g>
				</g>
			</g>
		</g>
	</g>
</g>
</svg>
