<?xml version="1.0" encoding="utf-8"?>
<!-- Generator: Adobe Illustrator 16.0.0, SVG Export Plug-In . SVG Version: 6.00 Build 0)  -->
<!DOCTYPE svg PUBLIC "-//W3C//DTD SVG 1.1//EN" "http://www.w3.org/Graphics/SVG/1.1/DTD/svg11.dtd">
<svg version="1.1" id="Layer_1" xmlns="http://www.w3.org/2000/svg" xmlns:xlink="http://www.w3.org/1999/xlink" x="0px" y="0px"
	 width="864px" height="800px" viewBox="0 0 864 800" enable-background="new 0 0 864 800" xml:space="preserve">
<g>
	<image overflow="visible" opacity="0.75" width="882" height="817" xlink:href="5FA3349.png"  transform="matrix(1 0 0 1 -2 -1)">
	</image>
	<g>
		<path fill="#F2F2F2" d="M851.827,29.523c-0.092-11.038-26.168-19.929-57.967-19.737c-61.119,0.366-122.239,1.991-181.484,1.179
			c-52.179-0.716-322.214-0.966-381.167-0.889C126.219,10.215,13.866,4.266,14.495,66.905c2.452,244.246,13.996,468.212,0,711.074
			c-0.629,10.913,37.265,7.975,44.97,8.123c185.32,3.558,580.731,3.84,766.154,0.846c6.456-0.104,13.448-0.277,18.29-1.607
			c6.149-1.69,6.559-4.574,6.512-7.125c-1.293-70.811,3.07-121.919,1.776-192.73c-0.461-25.235,0.462-47.88,0-73.116
			c-0.509-27.888-0.118-59.416-0.628-87.303C849.149,292.689,852.918,161.793,851.827,29.523z"/>
		<g>
			<g>
				<g>
					<g>
						<g>
							<path fill="#FFFFFF" d="M849.391,107.721c-0.063-7.18,0.243-13.444,0.386-10.743c-0.389-14.627,0.04-14.941-0.691-16.835
								c-0.365-9.387,0.122-19.403,0.427-8.724l-0.469-27.066l-0.101,16.185c-0.609-4.405,0.161-25.863-0.55-30.986l0.082,29.297
								l-0.202-1.463c0.223,6.669,0.142,19.627,0.061,24.145c-0.101-0.712-0.263-0.258-0.284-5.425
								c-0.018,35.371,1.068,9.527,1.294,38.882C849.326,113.147,849.333,110.868,849.391,107.721z"/>
							<path fill="#FFFFFF" d="M847.856,137.768l0.672,12.347l-0.345,20.706c0.261,0.237,0.365,15.322,0.67,5.111
								c-0.027-1.998-0.077-5.945-0.03-9.133c0.551,2.314,0.086,27.54,0.704,21.458c-0.033-16.378,0.109-18.891-0.279-28.974
								c0.152-15.013,0.387-25.947,0.609-32.955c-0.09-4.456-0.438-5.083-0.513-10.745c0.009,1.253,0.016,2.404,0.025,3.845
								l-0.854,0.607c0.187,4.722,0.112,9.184,0.077,14.424c0,0-0.187-6.063-0.461-12.12c-0.254-6.058-0.508-12.116-0.508-12.116
								c-0.402,3.906-0.459,11.808-0.503,19.926c-0.082,8.12-0.107,16.453-0.308,21.21
								C847.617,139.56,847.104,160.758,847.856,137.768z"/>
							<path fill="#FFFFFF" d="M849.345,115.582c0-0.157-0.001-0.415-0.002-0.595C849.344,115.167,849.345,115.425,849.345,115.582z
								"/>
							<path fill="#FFFFFF" d="M18.609,473.036c-0.052-5.152-0.265-6.67-0.372-7.413c0,0,0.108,14.503,0.216,29.006
								c0.031,7.251,0.16,14.503,0.097,19.94c-0.033,5.438-0.054,9.063-0.054,9.063c0.235-1.815,0.617-18.524,0.681-7.359
								c0.353-4.979-0.062-20.147-0.352-22.347l0.372,4.204c-0.534-13.365,0.261-22.5,0.582-13.785l-0.013-1.128l-1.951-37.011
								C17.815,459.801,18.471,456.671,18.609,473.036z"/>
							<path fill="#FFFFFF" d="M773.865,8.428c-7.521,0.152-8.444,0.243-7.59,0.317C768.97,8.656,771.531,8.558,773.865,8.428z"/>
							<path fill="#FFFFFF" d="M17.359,437.56l-0.61-11.589C16.924,430.612,17.143,434.688,17.359,437.56z"/>
							<path fill="#FFFFFF" d="M25.857,517.887c0.028,0.023,0.052,0.149,0.091-0.156l-0.237-5.213c0,0.078-0.001,0.102-0.001,0.133
								C25.765,514.571,25.813,516.295,25.857,517.887z"/>
							<path fill="#FFFFFF" d="M10.705,174.341c-0.036-1.245-0.067-2.318-0.11-3.806C10.635,171.921,10.671,173.174,10.705,174.341z
								"/>
							<path fill="#FFFFFF" d="M26.537,675.314l0.112-25.851c0.157,3.449,0.384-9.016,0.534-3.565
								c0.008-1.97,0.135-11.204-0.049-8.688l-0.111,5.271c-0.373-13.639-0.839-5.396-0.831-27.988
								c-0.751,14.012-0.518,20.165-0.377,27.599c-0.024,2.518-0.044,4.628-0.065,6.762l0.463,21.507L26.537,675.314z"/>
							<path fill="#FFFFFF" d="M414.338,12.919l-0.283,0.054C414.314,12.954,414.361,12.936,414.338,12.919z"/>
							<path fill="#FFFFFF" d="M412.927,13.194l1.129-0.221C412.669,13.081,407.358,13.176,412.927,13.194z"/>
							<path fill="#FFFFFF" d="M17.842,441.814c-0.132-0.351-0.302-1.837-0.483-4.255l0.457,8.647
								C17.823,444.979,17.833,443.357,17.842,441.814z"/>
							<path fill="#FFFFFF" d="M19.511,461.487l0.255,21.73l0.42,8.01C19.998,482.912,19.777,473.187,19.511,461.487z"/>
							<path fill="#FFFFFF" d="M10.957,208.68c-0.977-45.021,1.037,11.044,0.836-9.646c-0.338-12.499-0.814-16.901-1.088-24.693
								c1.024,35.704-1.38-4.817-0.478,31.195c-0.806-5.109-1.272-25.96-1.317-38.184c0.414-13.845,0.733,12.078,1.461,15.199
								c-0.39-14.45-0.465-11.902-0.963-18.028c-0.232-22.698-1.519-46.957-0.781-60.525C8.246,87.566,7.935,88.652,7.443,79.205
								c-0.755-1.873-0.039,24.447-0.527,30.544c0.044-1.263,0.132-3.725,0.245-3.013l0.047,14.21
								c0.064-13.491,0.755,1.863,0.914,9.071c0.089,5.243,0.268,15.665,0.047,14.234l-0.269-7.936
								c-0.083,10.223,0.829,22.54,0.669,33.33c-0.153,0.567-0.309-3.513-0.422-4.13c0.731,12.078,0.927,23.734,1.625,41.619
								l-0.923-10.358c1.082,14.293,1.464,46.713,1.5,69.166c0.073-2.492,0.069-6.981,0.262-4.29
								c0.437,13.183,0.14,23.152-0.363,17.052c0.839,12.868,0.517,49.092,1.566,66.625l4.936,80.64
								c-0.103-3.021-0.212-6.254-0.325-9.588c0.517-7.345,0.377-11.298,1.181,1.551c-0.537-12.617-0.97-7.787-1.299-26.75
								c0.438,7.433,1.197,9.303,0.982-8.865c-1.301-45.404-3.76-75.47-5.529-117.869c0.452-1.573-0.338-34.879-0.531-51.074
								c0.645,6.17,1.026,18.182,1.374,30.649c-0.134-7.825-0.364-21.298-0.534-31.292L10.957,208.68z"/>
							<path fill="#FFFFFF" d="M14.684,314.12c0.006-1.136,0.013-2.311,0.021-3.518C14.677,311.245,14.667,312.295,14.684,314.12z"
								/>
							<path fill="#FFFFFF" d="M12.659,247.824c0.021,0.156,0.035,0.101,0.056,0.156c-0.038-1.308-0.076-2.616-0.115-3.955
								C12.621,245.365,12.645,246.876,12.659,247.824z"/>
							<path fill="#FFFFFF" d="M18.87,431.161c0.136,2.694,0.236,4.688,0.373,7.382c-0.049-1.66-0.11-3.743-0.169-5.747
								C18.994,430.886,18.921,429.979,18.87,431.161z"/>
							<path fill="#FFFFFF" d="M18.075,440.254l-0.211-1.438c-0.008,1.159-0.014,1.974-0.021,2.999
								C17.953,442.127,18.041,441.789,18.075,440.254z"/>
							<path fill="#FFFFFF" d="M23.644,38.159c0,0,0.713-0.858,1.501-1.646c0.388-0.399,0.765-0.812,1.067-1.099
								c0.305-0.285,0.508-0.474,0.508-0.474C24.753,36.765,24.007,37.661,23.644,38.159z"/>
							<path fill="#FFFFFF" d="M10.819,158.511c0.35,15.657,0.766,1.859,1.197,24.009l-0.081-6.502
								c0.619,15.887,1.015,43.819,1.406,62.703c-0.332-2.125-0.133,11.458-0.626,9.259c0.364,12.902,0.72,25.68,1.319,32.319
								c0.007,7.998,0.66,20.135,0.67,30.303c0.188-4.296,1.213,14.454,0.385-10.277c0.077,1.996,0.114,0.742,0.192,2.714
								c0.062-15.943-0.711-22.32-0.995-36.047c0.105-8.212,0.703,13.413,0.656,5.666c-0.602-17.134-0.733-53.8-1.724-52.645
								c-0.313-12.476-0.123-14.203-0.009-17.927c-0.731-9.859-0.969-28.173-1.196-43.997c-0.148-15.828-0.293-29.165-0.983-29.064
								c0.158,7.207,0.287,18.953,0.741,29.523L10.819,158.511z"/>
							<path fill="#FFFFFF" d="M18.452,404.875c-0.011-0.964-0.026-2.248-0.035-3.047C18.427,402.729,18.44,403.849,18.452,404.875z
								"/>
							<path fill="#FFFFFF" d="M14.731,602.342c0,0-0.187-1.639-0.374-3.275c-0.212-1.639-0.424-3.277-0.424-3.277
								c0.015-37.24,0.353-50.701,0.52-83.262c0.139-2.488,0.193,1.463,0.221,3.466c0.048-5.722-0.065-12.158-0.102-18.851
								c-0.052-6.693-0.105-13.644-0.158-20.399c-0.114-13.512-0.262-26.244-0.529-34.576c-0.032-7.285,0.083-26.416,0.422-19.18
								c-0.137-3.546-0.279-7.6-0.315-11.679c0.308-1.084,0.238,9.127,0.508,9.358c-0.03-3.233,0.013-4.494-0.101-5.237
								c0.183,2.719,0.436,1.305,0.691,2.382c0.257,1.077,0.537,4.647,0.598,17.331c-0.688,9.832-0.214-17.595-1.009-11.784
								c0.055,8.413,0.372,7.432,0.479,8.15c0.058,10.724-0.154,10.443-0.35,9.874c0.29,4.106,0.025,17.595,0.459,23.267
								c0.214,20.851-0.637-1.131-0.529,12.487l0.904,7.846l0.002,22.645c0.175,32.774,1.517-4.69,1.781,32.779
								c-0.412-4.925-1.249,10.1-1.534,27.533c0.034-10.433-0.398-29.717-0.063-43.183c-0.774,18.982,0.079-26.127-0.768-16.275
								c0.36,9.382,0.269,25.022,0.012,37.221l-0.054-3.999c-0.17,12.972,0.655,22.799,0.205,40.699
								c-0.028,8.897-0.257,7.228-0.445,5.66c0.041,3.765,0.08,7.329,0.109,9.956C14.882,600.645,14.819,602.331,14.731,602.342z
								 M14.738,582.96l0.158-11.899C14.739,573.884,14.716,578.319,14.738,582.96z"/>
							<path fill="#FFFFFF" d="M846.968,304.406c0.028-1.183,0.061-2.546,0.086-3.62
								C847.011,301.578,846.986,302.949,846.968,304.406z"/>
							<path fill="#FFFFFF" d="M271.103,784.113l6.899,0.055C275.308,784.146,273.1,784.129,271.103,784.113z"/>
							<path fill="#FFFFFF" d="M425.964,781.919l10.079-0.158C432.065,781.758,428.948,781.824,425.964,781.919z"/>
							<path fill="#FFFFFF" d="M847.316,386.738l-0.003,0.337c0.021,0.564,0.036,0.996,0.059,1.591L847.316,386.738z"/>
							<path fill="#FFFFFF" d="M736.53,782.777c1.536,0.058,3.259,0.106,5.616,0.134C741.864,782.83,739.765,782.79,736.53,782.777z
								"/>
							<path fill="#FFFFFF" d="M424.108,781.948c0.259,0.008,0.407,0.013,0.611,0.019c0.392-0.016,0.822-0.032,1.245-0.048
								L424.108,781.948z"/>
							<path fill="#FFFFFF" d="M202.917,781.146c-1.48,0.01-2.827,0.02-4.417,0.03C200.584,781.186,201.86,781.17,202.917,781.146z"
								/>
							<path fill="#FFFFFF" d="M212.62,783.665c-1.589,0.012-3.108,0.023-4.292,0.033L212.62,783.665z"/>
							<path fill="#FFFFFF" d="M22.1,741.104l0.303-9.3C22.208,736.373,22.13,739.102,22.1,741.104z"/>
							<path fill="#FFFFFF" d="M188.047,782.816c-0.54,0.037-1.081,0.073-1.442,0.098
								C187.89,782.903,188.501,782.86,188.047,782.816z"/>
							<path fill="#FFFFFF" d="M849.768,245.369c0.001,0.211,0.001,0.439,0.001,0.564l0.098,0.236L849.768,245.369z"/>
							<path fill="#FFFFFF" d="M848.649,222.768c-0.003-2.663-0.007-5.436-0.011-8.162
								C848.611,217.638,848.616,220.59,848.649,222.768z"/>
							<path fill="#FFFFFF" d="M846.74,761.062c0.118-2.432,0.255-8.155,0.399-5.47C846.954,750.903,846.526,751.189,846.74,761.062
								z"/>
							<path fill="#FFFFFF" d="M854.863,290.676c-0.107-1.48-0.187-3.32-0.265-5.169
								C854.707,288.945,854.795,291.96,854.863,290.676z"/>
							<path fill="#FFFFFF" d="M854.599,285.507c-0.057-1.699-0.117-3.516-0.167-5.036
								C854.49,282.241,854.547,283.94,854.599,285.507z"/>
							<path fill="#FFFFFF" d="M809.006,790.488c-0.612-0.052-1.561-0.091-2.846-0.094
								C806.538,790.506,807.564,790.521,809.006,790.488z"/>
							<path fill="#FFFFFF" d="M848.821,208.013c-0.191-1.466-0.377-36.956-0.693-7.109c-0.62-1.156-0.154-19.151-0.253-27.109
								c-0.188,5.779-0.383-2.877-0.62-1.124c0.048,3.948,0.194,8.64,0.104,15.164c-0.309,2.998-0.433-6.903-0.271-14.632
								c-0.4,9.521-0.412-12.087-0.763,1.389c0.029,28.816,0.063,49.171,0.914,69.452c-0.095-16.435-0.128-34.805,0.217-48.275
								l0.504,5.666c-0.583,15.223-0.313,24.62-0.421,39.602l0.495-33.641c0.565-15.754,0.595-5.212,0.604,7.21
								C848.667,211.552,848.72,208.788,848.821,208.013z"/>
							<path fill="#FFFFFF" d="M853.44,230.715l0.019-0.564c-0.018-0.494-0.038-1.104-0.049-1.418L853.44,230.715z"/>
							<path fill="#FFFFFF" d="M11.025,742.287l-0.074-2.894C10.935,741.805,10.964,742.551,11.025,742.287z"/>
							<path fill="#FFFFFF" d="M850.713,250.764v-0.023C850.718,250.967,850.718,251.022,850.713,250.764z"/>
							<path fill="#FFFFFF" d="M47.653,791.464c-0.104,0.014-0.208,0.027-0.39,0.052C47.527,791.496,47.526,791.479,47.653,791.464z
								"/>
							<path fill="#FFFFFF" d="M66.925,779.597c-0.133-0.026-0.171-0.051-0.484-0.08C64.906,779.529,65.649,779.563,66.925,779.597z
								"/>
							<path fill="#FFFFFF" d="M47.708,791.412c0,0.017,0.048,0.032-0.055,0.052C47.708,791.444,47.835,791.426,47.708,791.412z"/>
							<path fill="#FFFFFF" d="M397.24,791.893c0,0-1.104-0.099-2.843-0.195C393.723,791.745,394.396,791.808,397.24,791.893z"/>
							<path fill="#FFFFFF" d="M328.223,790.817c-0.438-0.022-0.697-0.036-1.261-0.065L328.223,790.817z"/>
							<path fill="#FFFFFF" d="M844.317,776.99c-0.001,0.245-0.002,0.482-0.002,0.713c-0.003,0.103-0.014,0.202-0.029,0.297
								c-0.033,0.189-0.099,0.363-0.196,0.505c-0.189,0.287-0.448,0.465-0.691,0.599c0.288-0.139,0.589-0.334,0.759-0.646
								c0.094-0.15,0.143-0.328,0.163-0.51c0.012-0.092,0.013-0.185,0.012-0.278C844.327,777.445,844.322,777.219,844.317,776.99z"
								/>
							<path fill="#FFFFFF" d="M47.264,791.516c-0.733,0.064-1.776,0.138-3.507,0.212C45.664,791.648,46.666,791.573,47.264,791.516
								z"/>
							<path fill="#FFFFFF" d="M502.473,789.207c-0.736,0.021-1.426,0.043-2.123,0.063c0.423,0.009,0.846,0.017,1.262,0.025
								L502.473,789.207z"/>
							<path fill="#FFFFFF" d="M538.488,789.538c-1.229,0.064-1.793,0.13-2.482,0.187c12.854-0.25,36.471-0.05,39.266-0.634
								c-4.363,0.023-26.978-0.274-23.124-0.62c-8.961,0.161-22.206-0.219-27.031-0.115c14.71,0.289,1.591,0.485-8.341,0.7
								c-9.031-0.151,1.699-0.469-6.079-0.562l-20.897,0.104l18.203,0.042l-5.529,0.567c0.674-0.021,1.136-0.035,1.856-0.057
								C535.127,788.832,506.946,789.96,538.488,789.538z"/>
							<path fill="#FFFFFF" d="M536.006,789.725c-1.927,0.039-3.618,0.085-4.935,0.146
								C533.978,789.856,535.105,789.798,536.006,789.725z"/>
							<path fill="#FFFFFF" d="M661.841,790.342c1.582-0.041,3.297-0.085,5.451-0.141
								C666.266,790.228,663.885,790.289,661.841,790.342z"/>
							<path fill="#FFFFFF" d="M20.206,506.672c-0.087,0.542-0.571,18.481-0.133,18.161c0.064-5.325,0.179-10.689,0.209-16.078
								L20.206,506.672z"/>
							<path fill="#FFFFFF" d="M851.623,628.311c0,1.997,0,4.001,0,6.005c0.025,0.431,0.049,0.847,0.068,1.168
								C851.752,634.263,851.667,630.308,851.623,628.311z"/>
							<path fill="#FFFFFF" d="M557.692,788.259c-3.29,0.071-4.754,0.142-5.545,0.212
								C554.277,788.433,556.243,788.373,557.692,788.259z"/>
							<path fill="#FFFFFF" d="M852.639,627.191c0.117-2.545,0.298-6.298,0.46-6.83c-0.006-5.212-0.236-8.872-0.325-14.176
								C852.846,612.172,852.814,619.1,852.639,627.191z"/>
							<path fill="#FFFFFF" d="M852.765,605.755c0.003,0.148,0.006,0.298,0.009,0.431
								C852.771,606.037,852.768,605.903,852.765,605.755z"/>
							<path fill="#FFFFFF" d="M20.311,495.997c-0.04-1.543-0.081-3.133-0.124-4.77l0.132,2.482
								c0.014-4.127,0.028-8.231,0.042-12.343c-0.031-1.488-0.064-3.102-0.104-5.083c0.021,0.799,0.07,1.417,0.12,1.801
								c0.007-1.339,0.014-2.647,0.021-3.955c-0.514-9.827-1.013-34.281-1.324-41.334c-0.215-9.332-0.551-20.756-0.622-27.921
								c0.097,6.641,0.327,15.456,0.529,12.807c0.04-13.488,0.67-20.054-0.333-43.318l0.227,13.649l-1.439-30.674
								c0.223-10.758,0.718,15.309,1.129,19.563c-0.855-23.86,0.11-43.735-0.967-54.785c0.457-1.567,1.219-4.199,0.857-19.86
								c-0.331,11.303-0.545-9.382-0.956-0.106c-0.388-5.406-0.173-17.475-0.557-18.368l0.232,1.46
								c0.24-26.759-1.153-35.489-1.769-46.923c-0.818-32.021-0.786-46.735-1.373-72.853c0.307-1.032,1.055-8.158,0.89-18.638
								c-0.511-4.864-1.049-28.501-1.65-30.906c0.027,18.741,0.691,15.323,0.982,26.537c-0.462,9.347-0.576,0.855-0.751,13.614
								c0.086-10.297-0.965-46.503-0.566-57.783l0.134,3.978c0.042-8.999,0.402-14.362,0.592-21.22
								c0.095-3.43,0.148-7.233,0.098-12.052c-0.066-4.792-0.101-10.902,2.432-18.208c0,0,0.073-0.218,0.225-0.59
								c0.149-0.374,0.362-0.908,0.617-1.549c0.543-1.268,1.346-2.93,2.286-4.519c1.847-3.209,4.323-5.974,4.323-5.974
								c-0.433,0.569-0.436,0.672-0.65,0.988c3.987-4.532,7.404-6.865,10.017-8.606c2.655-1.704,4.65-2.722,6.712-3.755
								c1.029-0.522,2.105-0.987,3.288-1.556c1.209-0.508,2.522-1.133,4.118-1.76c3.173-1.299,7.366-2.897,13.603-4.757
								c-1.925,0.584-0.694,0.302-2.647,0.893c14.306-3.87,29.015-6.482,40.119-7.807c6.833-0.212-1.569,0.585-5.706,1.463
								c25.791-2.965,53.794-4.123,69.898-4.907l16.723,0.186c-9.915,0.194-22.027,0.847-18.998,1.098
								c9.189-0.183,7.41-0.407,20.409-0.348c-2.217,0.305-7.669,0.594-13.775,1.021c26.871,0.402,6.006-1.117,24.812-0.194
								c8.443,0.025,13.348-0.396,14.274-0.759l15.295,0.521c1.7-0.469,20.583-0.476,32.959-0.506
								c1.512-0.197-9.964-0.52-14.656-0.35c0.924-0.364,14.091-0.505,22.56-0.478c3.102,0.982,55.443-0.012,45.431,1.114
								c38.038-0.229,91.475-0.203,116.583-0.551c8.278,0.289,25.151,0.342,15.035,0.776c30.619,0.075,46.419-0.889,76.81-0.551
								c2.514,0.128-13.739-0.023-12.661,0.305c19.868-0.345,36.138,0.498,66.963,0.308c-5.186,0.005-6.699,0.204-7.421,0.303
								c-0.539-0.163,12.63-0.306,20.606-0.444c4.479,0.094-5.971,0.103-3.457,0.233c14.882,0.164,28.885,0.168,42.43,0.19
								c6.772-0.011,13.434-0.021,20.038-0.032c3.302-0.014,6.589-0.027,9.869-0.041l4.914-0.024l4.91-0.088
								c13.087-0.232,26.165-0.464,39.67-0.704c13.507-0.275,27.442-0.532,42.245-0.707c-8.455,0.101-14.278,0.333-18.01,0.573
								c-3.731,0.24-5.371,0.489-5.46,0.622l16.565-0.198c6.378-0.415,18.817-0.544,29.218-0.883c1.278,0.109,6.34,0.189,1.18,0.393
								c8.184,0.083,15.469,0.019,22.422-0.125c6.944-0.196,13.64-0.219,20.523,0.304c6.882,0.535,14.02,1.422,21.766,3.568
								c3.863,1.089,7.896,2.477,11.952,4.688c2.018,1.12,4.051,2.46,5.888,4.314c0.919,0.916,1.778,1.993,2.441,3.275
								c0.667,1.267,1.127,2.771,1.133,4.347c0,0-0.022-0.235-0.065-0.677c-0.019-0.447-0.168-1.075-0.386-1.86
								c-0.484-1.558-1.708-3.478-3.539-5.159c-3.669-3.403-9.476-5.951-15.369-7.694c-5.91-1.755-11.954-2.778-16.496-3.33
								c-4.543-0.557-7.584-0.731-7.584-0.731s2.99,0.392,5.954,0.925c1.48,0.273,2.959,0.551,4.061,0.795
								c1.104,0.227,1.835,0.402,1.835,0.402s-1.318-0.212-3.3-0.485c-1.985-0.254-4.635-0.558-7.292-0.758
								c-5.314-0.426-10.638-0.445-10.638-0.446c6.341,0.392,12.25,0.902,16.753,1.491c4.505,0.575,7.593,1.216,8.284,1.61
								c-1.323-0.224-3.561-0.674-5.514-0.964c-1.949-0.313-3.607-0.473-3.725-0.367c5.995,0.988,9.183,1.715,12.007,2.345
								c2.811,0.667,5.284,1.221,9.53,2.853c-5.635-2.04-12.911-3.757-21.032-4.808c-8.128-1.088-17.044-1.475-26.064-1.233
								c-18.11,0.307-36.388,0.617-49.179,0.834c-4.025,0.129,3.443-0.284,4.154-0.394c-10.44,0.165-16.71-0.066-29.851,0.273
								c-8.156,0.524,6.23,0.231,12.709,0.193c-0.889,0.377-4.147,0.396-11.36,0.543c-0.787-0.248-10.685-0.121-21.557-0.102
								c-10.871,0.029-22.709,0.053-27.36-0.209c-4.819,0.058-8.338,0.119-10.878,0.184c-2.541,0.046-4.104,0.084-5.013,0.144
								c-1.818,0.114-1.019,0.265-0.189,0.403c1.657,0.278,3.43,0.511-15.402,0.317l-11.246-0.611
								c-21.872,0.317-50.11,0.68-74.832,0.489l5.209-0.006c3.473-0.231-2.259-0.391-4.795-0.52
								c-18.678-0.283-35.469,0.356-46.78-0.229c-21.31,0.544-56.83,0.901-81.189,1.151c-6.566-0.752,31.778-0.551,41.917-0.987
								l-22.173-0.049c13.706,0.023,19.12-0.245,27.34-0.645c-19.431-0.182-25.827,0.448-44.249,0.592
								c1.435-0.197-1.024-0.326-9.522-0.352l-2.415,0.483c-0.157-0.041-1.096-0.08-3.72-0.117l-32.779,0.222
								c6.954,0.226,7.289,0.652,15.755,0.678c-3.021-0.292,4.161-0.332,12.634-0.305c-7.426,0.302,8.261,0.289,8.08,0.552
								c-16.987-0.053-37.859-0.036-48.996,0.072l-3.616-0.459c-16.188-0.152-33.286,0.06-44.266-0.097l3.462-0.232
								c-19.423-0.182-38.548,0.063-55.794-0.417c-17.321,0.459-39.135,0.871-53.315,1.376c-3.79,0.286-16.502,0.033-30.687-0.113
								c-14.185-0.156-29.846-0.088-39.552,0.621c-1.315-0.053,13.345-0.78,19.998-1.04c-12.969,0.042-23.226,1.098-27.296,0.641
								c29.04-0.643-1.579-0.479,11.5-1.011c-13.612,0.302-27.918,1.198-34.529,1.954c10.951-0.774,9.025-0.369,7.121-0.098
								c-1.898,0.311-3.773,0.519,7.317-0.217c-17.161,1.37-40.611,3.382-60.192,8.105c0.146-0.263-2.355,0.061-9.512,2.205
								c0,0-1.39,0.574-2.78,1.147c-1.366,0.609-2.732,1.218-2.732,1.218c-4.288,1.723-0.23-0.13,2.871-1.353
								c1.558-0.592,2.839-1.09,2.612-1.073c-0.216,0.041-2,0.481-6.381,2.154c-2.219,0.952-4.657,2.113-7.221,3.436
								c-2.543,1.354-5.179,2.923-7.722,4.749c-5.103,3.621-9.699,8.447-12.431,13.935c-2.78,5.462-3.756,11.394-3.688,16.293
								c-0.021,1.179,0.052,2.509,0.093,3.663c0.058,1.171,0.111,2.257,0.16,3.247c0.117,1.977,0.256,3.563,0.422,4.657
								c-0.131,7.628-0.355,0.374-0.578-5.914c-0.061-1.572-0.119-3.083-0.166-4.287c-0.03-1.148-0.044-1.949-0.088-2.273
								c-0.04-0.316-0.093-0.119-0.167,0.825c-0.099,0.893-0.121,2.755-0.156,5.624c-0.066-1.647-0.168-3.474-0.171-5.162
								c-0.025-1.678,0.063-3.387,0.25-5.081c0.381-3.389,1.252-6.694,2.45-9.576c1.188-2.89,2.686-5.35,4.03-7.277
								c1.39-1.898,2.563-3.313,3.18-4.15c-2.074,2.247-3.153,3.681-3.812,4.568c-0.653,0.892-0.972,1.186-1.169,1.399
								c-0.209,0.205-0.354,0.292-0.701,0.753c-0.169,0.232-0.408,0.548-0.696,1.038c-0.27,0.5-0.628,1.152-1.063,2.041
								c0,0-0.313,0.795-0.784,1.989c-0.196,0.61-0.424,1.323-0.669,2.085c-0.229,0.768-0.404,1.608-0.618,2.433
								c-0.762,3.343-0.846,6.8-0.846,6.8s0.064-0.758,0.128-1.516c0.107-0.75,0.215-1.499,0.215-1.499
								c-0.194,1.42-0.257,2.917-0.309,4.457c0,0.774,0,1.561,0,2.358c0.024,0.845,0.049,1.701,0.074,2.569
								c0.084,3.472,0.173,7.125,0.266,10.916c0.134,7.583,0.277,15.72,0.425,24.069c0.242,16.7,0.496,34.249,0.723,49.912
								c1.089,26.527,2.345,44.778,2.886,76.609c-0.539-9.389,0.167,26.442-0.875,6.417c-0.017,7.367,0.144,14.686,0.341,20.197
								c0.197,5.512,0.431,9.217,0.565,9.359c-0.168-12.963-0.006-4.56-0.095-15.48c0.468,7.363,0.793,24.351,0.723,31.333
								c-0.042-3.235-0.078-2.004-0.193-2.715c0.095,15.48,0.467,7.411,0.824,18.592c-0.377,3.557,0.374,24.696,0.346,34.914
								l0.881,14.803c-0.55-8.132,0.073,14.199-0.276,16.54c0.465,10.618,1.127,19.518,1.272,35.699
								c-0.325-6.68-0.081,14.765-0.502,15.052c0.033,6.926,0.074,13.259,0.201,19.27c0.124,6.011,0.303,11.7,0.476,17.344
								c0.347,11.288,0.666,22.396,0.455,35.521c-0.105-0.815-0.424-6.111-0.476,1.562c0.151,6.042,0.213,16.621,0.256,23.088
								l-0.011-0.204c0.003,0.125,0.006,0.204,0.01,0.337c0.003,3.167,0.044,5.158,0.146,5.236
								c0.348,11.069,0.74,16.777,0.958,38.568c0.498-1.596,0.423-19.993,0.315-27.959l-0.439-6.885
								c0.377-3.289,0.414-8.202,0.297-12.917c-0.127-4.715-0.313-9.232-0.207-11.737c0.239,3.266,0.423,8.067,0.572,13.786
								c0.074,5.72,0.104,12.356,0.122,19.291c0.035,13.869,0.021,28.927,0.216,40.222c0.383-6.882,0.647-17.813,0.826-30.292
								c0.066-6.239,0.137-12.865,0.208-19.565c0.02-3.35,0.04-6.719,0.059-10.066c-0.031-3.347-0.062-6.673-0.093-9.938
								c0,0-0.052,2.877-0.105,5.755c-0.026,1.438-0.053,2.877-0.072,3.956c-0.03,1.079-0.049,1.799-0.049,1.799
								s-0.019-3.419-0.037-6.837c-0.027-3.418-0.054-6.836-0.054-6.836l-0.435,13.234c0.02-12.951-0.209-24.146-0.259-35.85
								c0.108,13.703-0.527,19.044-0.476,11.291c0.369-15.272-0.427-15.911-0.481-27.582c0.002,6.498,0.055,14.948-0.264,9.502
								c0.404-23.017,0.032-29.23,0.434-50.164c-0.772,2.604-0.499-26.138-1.215-29.262l0.087,9.708l-0.82-20.583
								c0.359-19.01,0.944,16.812,0.951-12.108c-0.355-26.68-1.153-25.979-1.648-46.943c0.308,3.45,0.654,9.329,0.952,16.461
								c0.276,7.135,0.509,15.523,0.638,23.985l0.069-10.253c0.366,5.417,0.681,28.831,0.838,40.515
								c-0.861-19.299-0.026,9.037-0.318,17.826c0.492,1.608,0.221-10.787,0.829,3.845c-0.228-13.712-0.298-15.717-0.401-33.162
								c0.195,18.854,0.734,27.325,1.242,35.197c0.537,7.87,0.93,15.149,0.851,31.617c-0.319-15.177-0.635,5.299-0.848,7.127
								c0.108,7.142,0.322,21.629,0.482,27.587l0.634-5.398c0.214,9.593-0.023,16.057-0.207,22.89
								c-0.092,3.416-0.171,6.925-0.174,10.963c-0.004,4.038-0.029,8.608,0.122,14.146c0.193,1.439,0.257-3.432,0.28-8.164
								c0.049-4.733-0.081-9.324-0.014-7.333c0.325,30.306-0.893,41.226-1.547,68.124c0.193,1.524,0.621,1.214,0.919,10.631
								c-0.387-2.962-0.636,4-0.867-6.591c-0.249,8.993,0.077,19.653-0.034,27.594c0.685-18.727,0.397,7.672,0.557,11.129
								c-0.301,9.702-0.333-2.965-0.307-8.936c-0.294,7.787-1.112,17.029-0.612,21.466c-0.216,0.147-0.366-5.301-0.433-12.591
								c-0.01-3.645-0.022-7.75-0.034-11.847c0.013-4.096,0.06-8.183,0.026-11.792c0,0-0.037,2.433-0.074,4.865
								c-0.076,2.432-0.151,4.864-0.151,4.864c-0.031-6.707-0.026-7.961,0.115-17.62c-0.389,9.452-0.747,8.514-1.037,6.307
								c0.07-1.237,0.097,0.691,0.165-0.491c0.156-7.776,0.077-13.743-0.161-11.943c-0.528-6.998-0.425,10.783-0.742,16.047
								c0.022,3.982-0.092,7.965-0.129,11.868l0.869,40.445c-0.2,17.272-0.825,25.023-1.413,37.981c0,0,0.114,0.895,0.188,1.788
								c0.082,0.894,0.165,1.787,0.165,1.787c-0.735,15.016-1.537,29.177-1.72,19.529c0.188-0.534,0.24-2.519,0.412-5.777
								c-0.047-0.434-0.06-1.188-0.055-2.137c-0.021-0.314-0.034-0.488-0.052-0.748c-0.567,16.086-0.921,26.128-0.954,27.053
								c0.534-27.329-0.829-1.401-1.49-6.008l-0.974,27.576c1.038-16.694,0.439-0.285,0.286,5.652
								c-0.201,0.573-0.386,3.552-0.565,7.583c-0.144,3.843-0.324,8.688-0.494,13.25c0.004,0.433-0.064,0.878,0.111,1.27
								c0.166,0.38,0.406,0.725,0.727,0.956c0.299,0.253,0.635,0.432,0.953,0.584c0.166,0.088,0.301,0.138,0.433,0.188
								c0.098,0.039,0.194,0.078,0.289,0.116c0.12,0.056,0.273,0.091,0.404,0.138c0,0-0.147-0.02-0.294-0.039
								c-0.136-0.026-0.271-0.052-0.271-0.052c1.604,0.662,3.978,1.199,6.642,1.589c2.676,0.395,5.695,0.627,8.812,0.746
								c6.246,0.251,12.848,0.028,18.44-0.187c-0.123-0.036,0.662-0.142,2.084-0.272c0.363-0.029,0.764-0.063,1.198-0.098
								c0.446-0.024,0.924-0.052,1.431-0.08c0.936-0.05,1.973-0.105,3.067-0.164c4.379-0.229,9.681-0.507,13.123-0.687
								c-19.139-0.413-7.775-0.473-9.304-0.795c1.98,0.052,5.542,0.1,5.958,0.042c2.743-0.106-3.715-0.229-4.252-0.398
								c-2.543-0.004-5.097-0.008-7.633-0.012c-1.17-0.005-2.795-0.011-4.051,0.036c-1.272,0.043-2.536,0.085-3.79,0.128
								c-4.921,0.181-9.573,0.295-13.814,0.255c-4.231-0.037-8.043-0.217-11.119-0.554c-1.548-0.155-2.896-0.361-4.03-0.568
								c-0.564-0.106-1.086-0.205-1.521-0.316c-0.218-0.055-0.464-0.092-0.634-0.149c-0.118-0.037-0.137-0.033-0.159-0.03
								l-0.081,0.004l0.091,0.063c0.065,0.029,0.208,0.107,0.333,0.149c0.271,0.096,0.536,0.189,0.798,0.282
								c0.548,0.171,1.111,0.322,1.688,0.446c1.164,0.243,2.346,0.42,3.596,0.539c2.488,0.254,5.158,0.383,8.495,0.622
								c-3.447,0.02-7.27-0.152-11.095-0.813c-0.94-0.176-1.879-0.379-2.753-0.631l-0.64-0.196
								c-0.104-0.034-0.225-0.062-0.313-0.102l-0.215-0.083c-0.11-0.031-0.265-0.102-0.439-0.188
								c-0.32-0.171-0.651-0.382-0.856-0.711c-0.242-0.316-0.23-0.741-0.2-1.136c0.183-3.901,0.38-8.106,0.591-12.605l0.663-5.527
								l0.555-17.04c-0.108,7.118,0.516,2.859-0.218,20.735c0.49-2.261,0.721-17.728,1.351-28.662l-0.289-5.621
								c0.205,2.17,1.332-21.248,0.986-4.59l-0.791,27.097l0.715-7.508l-0.94,22.899l-0.035-5.417
								c-0.173,4.355-0.311,7.832-0.422,10.629c-0.069,1.397-0.13,2.626-0.183,3.709c-0.031,0.542-0.059,1.047-0.086,1.52
								c-0.019,0.342-0.015,0.18-0.02,0.218h-0.012c-0.122,0.436-0.082,0.667,0.11,0.939c0.041,0.035-0.102-0.009,0.235,0.147
								c0.289,0.104,0.609,0.22,0.971,0.35c0.792,0.232,1.799,0.514,3.238,0.754c2.835,0.508,7.246,0.928,14.032,0.91
								c2.813-0.137,5.675-0.275,8.731-0.423c1.558-0.077,3.165-0.155,4.84-0.237c1.704-0.071,3.466-0.167,5.646-0.153
								c7.389,0.008,16.162,0.136,27.488,0.351c-16.395-0.048-1.691,0.444-7.867,0.753c16.717,0.475,22.371-0.001,31.048-0.154
								c4.253,0.399,7.278,0.72-7.658,0.491c-1.882,0.707,19.652,0.108,21.003,0.875c49.488,0.569,39.681-1.951,97.513-0.321
								l-2.171,0.276c18.371,0.04,32.855,0.071,47,0.102c14.146,0.069,27.952,0.154,44.965,0.102l26.787,0.875
								c-5.991,0.095-22.103,0.607-14.586,1.008c-13.028-0.829-26.859-0.611-40.898-1.084c-1.434,0.196,4.282,0.365,6.771,0.5
								c-8.474-0.04-12.724-0.406-23.916-0.314c0.54,0.162,12.747,0.403,3.545,0.462l-15.221-0.539
								c-10.185,0.075-12.695,0.353-15.649,0.571c-2.954,0.222-6.353,0.401-18.311,0.132c4.45-0.368,13.536-0.874,22.802-0.968
								c-10.932-0.136,14.575-0.202,4.6-0.497c-15.754,0.607-23.35-0.02-44.287,0.128c2.459-0.06,3.11-0.176,8.261-0.153
								l-30.372-0.631c7.511,0.46-25.095,0.107-22.275,0.692c32.37,0.614,22.861,0.168,59.748,0.922
								c-10.445,0-23.916,0.399-30.232,0.84c-0.321-0.025-0.853-0.05-1.988-0.073c-5.643,0.478,0.103,0.693-0.017,1.645
								c16.85-0.486,28.104,0.237,47.974,0.042c3.739-0.475-11.521-0.766-21.396-0.765l17.502-0.137l-3.447,0.199
								c0,0,2.776,0.036,6.941,0.092c4.165,0.032,9.719,0.076,15.272,0.119c11.107,0.088,22.214,0.175,22.214,0.175
								c-8.419-0.005-11.28,0.286-15.675,0.497c5.732,0.043,11.41,0.203,17.447,0.378c-1.266-0.503-0.465-0.852,5.127-0.82
								c28.585,0.23,44.474,0.74,55.021,1.35c1.097-0.007,2.334-0.016,3.329-0.021c-4.791-0.529,20.304-0.839,29.164-1.325
								c-0.44,0.525,14.73,0.374,22.969,0.676c4.387-0.589-1.461-1.447-11.492-1.981c-19.33,0.478-10.833,0.516-19.967,1.266
								l-31.008,0.403l6.933-0.456c-15.475-0.273-30.342,0.306-29.203-0.318c8.178-0.387,21.679-0.08,29.794-0.469l-10.235-0.27
								c18.062-0.547,9.254,0.631,31.122,0.285c-8.041-0.565,1.981-0.03,11.349-0.352c-7.517-0.402-38.5,0.002-31.925-0.881
								c11.372-0.352,38.252,1.214,53.299,0.37l-0.736,0.1c22.193,0.204,29.995-0.283,38.304-0.577
								c4.722,0.165,10.343,0.157,16.063,0.108c5.72-0.075,11.539-0.152,16.656-0.221l-0.251,0.266l14.441-0.139
								c-6.876,0.494-16.924,0.021-29.328,0.112l1.542,0.488c-14.299-0.623-23.838,0.214-34.929,0.598
								c8.071-0.182,19.465-0.106,29.316-0.104c9.851-0.006,18.158-0.161,20.054-0.634l9.984,0.477l4.777-0.188
								c7.439,0.357-0.156,0.955-14.582,1.094c-2.507-0.119-3.76-0.179-3-0.282c-6.696,0.234-12.844,0.645-29.048,0.449l8.646-0.227
								c-20.174-0.114-38.516,0.004-45.424,0.459c14.563,0.124,29.004,0.246,43.224,0.367c14.219,0.118,28.217,0.017,41.891,0.004
								c8.067-1.124,17.637-1.765,21.748-2.804c18.348-0.225,43.258-0.414,59.195-0.067l-1.464,0.206
								c7.776,0.091,14.942,0.021,20.917-0.107c8.216,0.255-5.621,0.556,0.104,0.691l26.281-0.396
								c-1.619,0.47-23.735,0.515-34.237,0.567c1.981-0.043,5.983-0.128,4.698-0.188c-12.217-0.168-34.974,0.669-40.315,0.005
								c-5.952,0.129,12.091-0.521-8.06-0.519c-13.493-0.229-17.886,0.387-19.296,0.591c-0.219,0.266,21.177,0.322,13.753,0.655
								c10.502-0.054,14.684-0.402,28.115-0.173c-10.408,0.052-24.543,0.614-30.089,0.215c-20.58,0.532-17.628,1.766-7.924,1.816
								c-2.311-0.385,37.545-0.551,10.557-1.006c12.122-0.523,34.271-0.569,50.128-0.911l-0.72,0.101l19.688-0.162
								c-2.772,0.144-8.724,0.273-8.919,0.536l27.267-0.76c-15.348,0.506,9.517,0.313,16.504,0.509
								c2.919-0.409,13.568-0.726,3.348-0.938c-11.49-0.271-6.688,0.231-17.134,0.282l14.79-0.666l1.27,0.061l8.901-0.539
								c20.15-0.002-8.796,1.229,17.021,0.67l-3.363-0.705c29.886-0.085,68.27,0.283,89.383-0.225
								c-5.82,0.46-8.383,1.135-0.369,1.443c-9.107-0.035-27.405,0.164-40.465,0.354c-2.515-0.101,16.311-0.995,30.499-0.976
								c-6.885-1.1-35.682,1.041-37.359-0.123c-36.15-0.09-26.955,1.472-57.65,0.823c-0.421,0.528-8.724,0.274-10.335,0.742
								c4.544,0.421,14.802,0.395,26.413,0.295c11.611-0.095,24.571-0.432,34.528-0.355c-1.949,0.057-5.872,0.173-6.639,0.279
								c14.236,0.021,20.116-0.153,30.059-0.443l-1.253-0.05c17.37-0.68,10.754,0.291,20.982,0.426
								c3.962-0.116,18.184-0.099,15.893-0.464l18.524,0.325l-0.899-0.58c10.445-0.134,12.736,0.233,22.198-0.215l0.432-0.53
								l-25.942,0.063c13.144-0.297,3.658-0.539,18.103-0.786c-16.13,0.729,11.419,0.184,13.016,0.657l10.62-0.397l-2.715,0.167
								c8.343,0.191,9.926-0.29,19.659-0.314c-11.483-0.184-19.004-0.483-33.625,0.03c10.645-0.397,31.755-0.926,36.938-0.992
								c5.584-0.167,10.389-0.127,14.81-0.245c2.202-0.073,4.376-0.155,6.438-0.399c1.01-0.132,2.053-0.267,2.953-0.487
								c0.219-0.051,0.503-0.096,0.675-0.15l0.535-0.15c0.171-0.052,0.317-0.105,0.476-0.176c-0.143,0.075-0.28,0.139-0.41,0.193
								c-0.047,0.024-0.27,0.087-0.385,0.13c-0.15,0.046-0.242,0.1-0.437,0.142c-0.703,0.167-1.222,0.362-1.771,0.461
								c-0.521,0.116-0.937,0.219-1.267,0.312c-0.347,0.079-0.611,0.145-0.809,0.208c-0.791,0.25-0.55,0.404-0.874,0.607
								c-0.158,0.106-0.473,0.21-1.146,0.333c-0.666,0.132-1.705,0.267-3.346,0.393c-1.65,0.116-3.889,0.224-7.021,0.271
								c-3.147,0.014-7.123,0.031-12.151,0.053c0.742-0.107,4-0.115,5.262-0.065c-5.374-0.622-24.115,0.271-32.835,0.61
								c2.253,0.367-6.869,0.549,8.6,0.616c-5.077-0.2,13.017-0.987,27.734-0.809l-2.578,0.854c0,0,1.339-0.007,3.348-0.017
								c2.014-0.004,4.68-0.034,7.306-0.103c2.629-0.065,5.2-0.23,7.088-0.42c1.889-0.191,3.066-0.42,3.066-0.42
								s-0.448,0.085-0.896,0.171c-0.442,0.095-0.914,0.152-0.914,0.152c0.48-0.014,0.952-0.079,1.458-0.137s1.037-0.12,1.544-0.237
								c0.509-0.106,1.093-0.204,1.545-0.351l0.368-0.103l0.287-0.099c0.192-0.063,0.385-0.135,0.573-0.223
								c0.754-0.33,1.55-0.821,2.008-1.634c0.232-0.397,0.361-0.862,0.399-1.339c0.021-0.239,0.025-0.48,0.019-0.724
								c-0.004-0.383-0.008-0.769-0.012-1.158c-0.064-6.517-0.157-13.861-0.013-21.181c-0.157-5.302-0.194-18.096-0.297-27.383
								c0.106-9.357,0.073-15.188-0.546-6.395c0.798-13.248,0.381-24.893,0.574-39.361l-0.718,18.025
								c-0.145-21.331,0.109-15.198-0.476-32.232c0.263-1.716,0.528-5.505,0.694-2.043c1.014-28.609,0.768-69.26,0.16-86.064
								c0.034-20.226,1.013-23.531,0.629-51.684c-0.117-5.937-0.775,4.631-0.536-14.028c0.059-1.262,0.619,17.964,0.543-2.831
								c-0.745-14.859,0.101-35.015-0.592-54.29c0.157-10.188-0.058-27.863,0.474-24.189c0.001,16.146,0.271,38.964,0.538,42.481
								c-0.32-2.235-0.212,11.52-0.532-0.414c-0.208,24.485,0.432,15.89,0.32,37.85c0.222,1.516,0.479-11.298,0.267-16.001
								c0.173-0.028,0.299,2.664,0.402,6.412c0.096,3.743,0.203,8.563,0.237,12.732c0.1,8.356,0.218,14.303,0.631,4.579
								c0.062-11.668-0.418-19.309-0.706-26.509c-0.313-7.212-0.54-14.038-0.251-24.205c0.479,8.147,0.215,20.897,1.014,31.239
								l0.157-16.705l-0.586-12.12l0.107,0.721c0.416-29.462-0.9-27.215-1.447-53.559c-0.354,15.288-1.221-3.506-1.425,7.983
								c-0.229-17.632-0.251-30.606,0.439-30.729c0.836,33,0.75,1.873,1.683,32.359c0.207-5.008,1.068,7.246,0.999-10.929
								c-0.664-20.477-0.523,6.139-0.922-14.289c0.051-1.208,0.104-2.463,0.21-1.751c-0.437-9.393,0.038-10.966-0.453-22.333
								l0.161,2.694c0.301-14.024-0.603-15.334-0.248-27.407c-0.471,4.831-0.487-8.102-0.869-15.586
								c-0.091,12.236-0.771,18.864-0.527,43.011c0.429,2.912,0.639,1.146,0.917,11.059l-0.18-15.692
								c0.122,3.385,0.215,5.963,0.327,9.066l-0.084,15.076c-0.448-19.106-0.808-10.338-1.297-18.455
								c0.03-17.493-0.231-14.433-0.191-25.434c0.648,1.102,0.583-33.734,1.227-53.855c-0.021,3.126-0.051,7.161-0.066,9.339
								c0.308,14.62,0.542-10.06,0.708-10.6l-0.248-10.656c0.032,2.006,0.157,4.78,0.263,0.236
								c-0.044-14.424-0.637-13.588-0.681-27.99c0.332-1.079,0.771,11.098,0.984,2.144c0.3-3.085,1.104-12.914,0.904-32.046
								c-0.115-1.356-0.176-6.317-0.183-12.065c0.012,0.799,0.019,1.802,0.038,2.162l0.448-12.701
								c0.47,10.827-0.409,21.89,0.106,32.776l0.526,0.928c-0.037,8.468,0.139,19.969,0.389,25.258
								c0.15-12.909,0.023-15.627-0.02-30.065c0.345-2.019,0.546,8.15,0.575,9.615l-0.292-2.156
								c-0.519,17.215,0.389,25.742,0.191,47.172c-0.037,3.235-0.066,1.261-0.164,0.541c0.217,8.675,0.129,17.268,0.063,25.8
								c-0.058,8.532,0.08,17.003,0.467,25.434l-0.325-5.498c0.351,11.479,1.037,33.921,1.723,56.348l0.208,0.178
								c0.104-2.492,0.166,5.926,0.12,10.446l-0.003-0.023c0.327,11.246,0.642,22.053,0.898,30.895
								c0.106-2.832,0.188-6.455,0.188-10.61c-0.262-3.521-0.242-24.124-0.767-21.292c0.253-9.526-0.352-24.859-0.202-31.854
								c-0.247,12.744-0.593-8.867-0.915-11.097c0.312-4.286-0.185-18.881,0.297-17.215c0.101-2.514-0.258,6.258,0.067,11.676
								c0.547,13.34,0.179-24.433,0.731-7.811c-0.099-5.285-0.205-10.99-0.315-16.915c-0.04-2.963-0.081-5.981-0.123-9.029
								c0-3.048-0.001-6.127-0.001-9.211c-0.002-12.336-0.017-24.755-0.182-35.662l-0.247,12.209
								c0.113-9.696,0.115-32.644,0.35-34.358c0.008,7.206,0.017,15.625,0.027,24.843c0.524,0.448,0.099-22.148,0.43-23.172
								l-0.749-26.774l-0.084,11.725c-0.305-7.388,0.236-31.901,0.453-50.073c0.661,10.43-0.21,27.417,0.012,46.535
								c0.21,13.887,0.736-8.571,0.849,4.571c0.185-3.405,0.203-11.98,0.042-16.211l0.161-5.184
								c0.59,11.729,0.33,38.008,0.812,55.504c-0.064-1.535-0.132-2.874-0.206-3.36c-0.316,13.468-0.369,27.149-0.257,40.281
								c0.239-6.946,0.111-9.694,0.054-13.665c0.164-0.493,0.177,11.903,0.335,16.594c0.248-12.215,0.397-2.278,0.542-10.007
								c0.139,7.955-0.018,14.402,0.039,24.089c-0.206,5.025-0.377-4.155-0.692-3.13c0.278,9.979-0.461,14.546,0.036,29.151
								c-0.024-19.429,0.75,5.116,1.024,11.804l-0.005-3.256c0.433,6.156,0.492,11.383,0.179,15.645
								c-0.222-7.95-0.179-15.645-0.547-13.379c0.061,5.252,0.12,10.488,0.287,16.435l-0.324-5.405l0.299,26.102
								c0.376,4.128,0.916,11.022,1.45,14.629c-0.26,6.272,0.058,15.017,0.22,20.97l-0.162-2.769
								c-0.208,11.559,0.221,37.219,0.538,39.348c-0.21,8.257-2.343-58.182-1.645,0.011c0.161,22.089,1.064,13.748,1.488,26.347
								c0,0-0.104-0.71-0.158,0.542c-0.001,9.665,0.316,10.672,0.487,18.648c0.139-5.821,0.172-14.293-0.01-16.976
								c0.448,2.881-0.021,20.232,0.307,27.671c-0.623-9.665-0.238,18.786-0.558,11.282c-0.396,19.206,0.081,39.651,0.572,49.848
								c-0.379,6.56-0.343,12.304-0.253,19.07c0.039,3.385,0.082,7.023,0.13,11.146c0.004,2.062,0.008,4.244,0.012,6.575
								c-0.021,2.331-0.128,4.804-0.22,7.457c0.026-1.631,0.064-3.927,0.105-6.386c-0.011-2.463-0.029-5.09,0.011-7.376
								c-0.258-6.064-0.313-0.555-0.365,4.137c-0.009,2.348-0.074,4.485-0.142,4.873c-0.068,0.387-0.058-0.972-0.2-5.639
								c0.084,3.992,0.264,0.286,0.179-3.808c-0.067-7.158-0.297-13.897-0.52-12.099l-0.408,17.319l-0.131-6.046
								c0,0-0.034,1.643-0.087,4.105c-0.026,1.231-0.058,2.669-0.09,4.208c-0.067,1.537-0.139,3.177-0.211,4.816
								c-0.289,6.558-0.579,13.115-0.579,13.115c0.085,0.716,0.261-1.743,0.349-3.004c-0.453,15.211-0.778,31.535-1.069,47.334
								c-0.261,15.821-0.685,31.105-0.555,44.567c0.352,1.273,0.571,6.045,0.718,12.829c0.05,3.392,0.108,7.287,0.171,11.498
								c0.019,2.106,0.037,4.291,0.058,6.531c0.008,1.121,0.016,2.255,0.023,3.4c0.004,0.572,0.008,1.148,0.012,1.726l0.002,0.439
								l-0.021,0.649c-0.027,0.432-0.066,0.862-0.137,1.287c-0.261,1.699-0.971,3.347-2.122,4.657
								c-1.141,1.314-2.622,2.323-4.242,3.057c-1.723,0.771-3.151,1.148-4.436,1.438c-0.671,0.173-1.316,0.289-1.955,0.394
								c-0.643,0.11-1.291,0.23-1.912,0.296c-5.03,0.655-9.753,0.721-14.179,0.846c-8.788,0.151-16.612,0.336-21.993,0.602
								c5.768-0.455,8.914-1.192,5.338-1.449c2.4-0.053,6.057-0.243,10.474-0.419c4.421-0.193,9.566-0.266,15.166-0.541
								c0.893,0.075,4.815-0.085,7.53-0.494c1.354-0.192,2.396-0.415,2.485-0.359c0.047,0.021-0.14,0.099-0.635,0.248
								c-0.493,0.146-1.31,0.396-2.461,0.6c1.003-0.15,1.978-0.395,2.878-0.615c0.911-0.23,1.814-0.521,2.787-0.92
								c1.861-0.769,3.265-1.729,4.21-2.733c0.958-0.997,1.48-1.991,1.782-2.787c0.309-0.8,0.4-1.413,0.463-1.817
								c0.08-0.818,0.036-0.822-0.076-0.316c-0.115,0.501-0.34,1.521-0.947,2.62c-0.581,1.114-1.631,2.202-2.806,2.979
								c-1.177,0.778-2.44,1.3-3.403,1.579c-0.495,0.163-0.839,0.229-1.097,0.276c-0.257,0.047-0.41,0.062-0.434,0.036
								s0.085-0.091,0.35-0.206c0.134-0.055,0.306-0.124,0.52-0.211c0.233-0.102,0.514-0.223,0.843-0.365
								c-1.302,0.526-2.353,0.771-3.439,1.027c-1.083,0.273-2.122,0.408-3.16,0.586c-2.057,0.277-4.048,0.479-5.968,0.59
								c-3.847,0.244-7.454,0.34-10.871,0.417c-6.851,0.195-13.078,0.372-18.922,0.538c-11.687,0.373-21.835,0.757-32.358,1.021
								l-0.535-0.159l-15.892,0.463c12.99-0.031,12.357,0.768-4.389,0.649l2.036-0.059c-9.554-0.242-29.418,0.338-44.336,0.428
								l-10.111,0.554c-14.941,0.09-15.59-0.757-20.45-1.221c-11.708,0.064-20.942,0.365-29.327,0.59
								c-8.385,0.261-15.923,0.494-24.236,0.752c-7.522-0.357-42.594-0.379-24.014-0.865c-21.118,0.368-16.852,2.353-53.078,1.317
								l9.399-0.377c-34.633,0.142-84.025,0.949-99.983,0.602c6.389-0.664-4.426-0.945-17.606-1.281
								c-13.18-0.376-28.727-0.759-31.804-1.402c1.715,0.296-11.297,0.341-13.193,0.487c-2.851-0.159-7.598-0.321-12.635-0.08
								c13.504,0.307-9.498,1.274,16.323,0.865c-13.068,0.815-29.906,1.427-58.531,1.271l0.433-0.525l22.647,0.249
								c-2.286-0.398,9.371-0.323,14.15-0.484c-42.129-0.461,5.519-1.212-37.55-1.312c-4.161,0.325-1.466,0.194-12.661,0.286
								c5.265,0.003,6.214-0.356-2.27-0.396l-8.148,0.389c-15.036-0.938,24.897-0.475,12.069-1.143
								c16.632-0.349,45.435-0.458,40.071-1.151c-27.156-0.35-24.436,1.165-52.83,0.748l-3.022-0.298
								c-9.988,0.155-11.604,0.613-17.073,0.872c-0.493-0.165-3.03-0.297-9.445-0.369c-16.869,0.611-28.063,0.701-43.626,1.38
								c41.412-0.394,35.397,0.653,78.14,0.325c-6.699,0.192-36.789,0.235-38.642,0.956l0.403-0.526
								c-13.899,0.221-27.79,0.438-45.243,0.195l10.656-0.255c-5.784,0.069-11.079,0.044-16.054-0.02
								c-4.975-0.128-9.629-0.247-14.131-0.362c-9.004-0.244-17.397-0.417-26.529-0.087c6.447,0.124,11.681,0.17,15.662,0.138
								c-11.911,0.093-26.852-0.139-39.793-0.383l-26.791,0.551c0.238-0.259-16.732-0.478-8.539-0.797
								c-19.275-0.633-28.375,0.045-39.52,0.042c-19.734-0.796,17.108-0.045,19.055-0.75c-13.599-0.285-27.606-0.458-40.135-0.524
								c-3.132-0.01-6.171-0.02-9.089-0.029c-0.729,0-1.451,0-2.165-0.001c-0.323,0.003-0.645,0.005-0.964,0.007
								c-0.334,0.009-0.667,0.017-0.997,0.024c-1.378,0.053-2.722,0.104-4.029,0.154c-5.301,0.23-10.075,0.379-14.013,0.413
								c5.688,0.203,8.41,0.196,8.128,0.342c-0.419-0.081-3.408-0.055-7.11-0.124c-3.698-0.056-8.124-0.27-11.351-0.623
								c0,0.001-1.114-0.026-2.25-0.099c-1.13-0.061-2.289-0.179-2.289-0.178c-2.753-0.528-4.813-1.176-6.144-1.688
								c-0.328-0.13-0.616-0.263-0.976-0.418c-0.323-0.145-0.58-0.269-0.774-0.368c-0.397-0.195-0.508-0.313-0.441-0.302
								c0.066,0.011,0.358,0.122,0.876,0.305c0.251,0.088,0.556,0.194,0.912,0.318c0.281,0.101,0.592,0.191,0.934,0.28
								c1.395,0.421,3.298,0.824,5.639,1.175c-1.296-0.225-2.649-0.517-4.055-0.883c-0.701-0.179-1.432-0.418-2.163-0.652
								c-0.323-0.12-0.895-0.334-1.361-0.529c-0.503-0.191-0.923-0.443-1.379-0.672c-1.802-0.913-3.443-2.191-4.587-3.881
								c-1.163-1.712-1.527-3.774-1.477-5.865c0.053-1.579,0.105-3.161,0.158-4.737c0.056-1.343,0.112-2.681,0.167-4.007
								c0.129-2.653,0.3-5.259,0.538-7.761c-0.069,2.51-0.142,5.123-0.216,7.78c-0.11,2.873-0.223,5.794-0.335,8.697l0.033,1.774
								c0.124,0.564,0.147,1.151,0.313,1.706c0.206,0.543,0.329,1.12,0.647,1.612l0.428,0.757l0.536,0.681
								c0.333,0.475,0.768,0.856,1.191,1.247c0.4,0.415,0.888,0.729,1.358,1.063c0.46,0.348,0.987,0.598,1.494,0.871l0.763,0.405
								l0.828,0.353c0.605,0.238,1,0.408,1.413,0.53c0.416,0.132,0.829,0.263,1.24,0.394c0.803,0.208,1.612,0.445,2.378,0.595
								c1.553,0.351,3.027,0.58,4.442,0.775c5.644,0.734,10.294,0.801,13.39,0.778c-7.26-0.067-13.133-0.517-18.435-1.763
								c-1.356-0.353-2.586-0.691-3.968-1.249c-0.418-0.168-0.83-0.344-1.232-0.526c-0.372-0.202-0.741-0.402-1.107-0.602
								c-0.755-0.364-1.381-0.891-2.029-1.354c-1.19-1.052-2.198-2.258-2.78-3.665l-0.348-1.076
								c-0.091-0.361-0.111-0.736-0.169-1.101l-0.074-0.549l0.001-0.563l0.003-1.121c0.213-3.092,0.422-6.124,0.646-9.367
								c0.195-3.033,0.403-6.263,0.639-9.941c0.434-7.361,0.883-16.527,1.347-29.524c0.188-0.532,0.167,6.917,0.558-1.542
								c0.768-19.604-0.472-5.15-0.573-11.287c-0.476,15.094-1.004,22.104-1.836,30.835l-0.095-4.038
								c0.172-0.603,0.613-10.073,0.879-12.857l-0.455-2.463c0.575,1.154,1.745-13.98,2.054-25.901
								c-1.004,12.019-0.832,8.768-1.695,12.013c0.044-8.385,0.425-13.101,0.813-18.071c0.188-2.485,0.404-5.033,0.532-8.136
								c0.089-3.105,0.126-6.764,0.059-11.466c0.168,1.414-0.074,17.82,0.419,3.653c0.308-11.731-0.218-10.183-0.186-18.055
								c0.31,8.877,0.753,6.611,1.143,16.237c-0.111,5.213-0.177,8.345-0.222,10.429c-0.085,2.083-0.127,3.119-0.169,4.14
								c-0.068,2.043-0.135,4.027-0.477,14.213l1.229-17.22c-0.721,17.654,0.011,12.858,0.145,14.32
								c0.467-7.533,0.754-12.721,0.836-16.57c0.045-3.852-0.007-6.361-0.079-8.536c-0.144-4.348-0.369-7.352-0.068-17.056
								c-0.134-9.368-0.511,18.181-0.536,3.531c0.511-18.148-0.242-4.148,0.019-24.525l0.158,3.417
								c0.46-6.22,0.225-12.386,0.345-19.592c0.031-7.926-2.032,8.933-1.286-23.637c0.107,1.597,0.186,2.186,0.247,2.187
								l3.628,31.871c0.338-16.519,1.009-34.289,1.045-52.725c0.218-18.435,0.443-37.521,0.669-56.655
								c0.915-9.014,0.539,27.318,0.939,24.979l-0.284,17.457c-0.358-0.982,0.115-36.576-0.626-20.814
								c0.035,15.413-0.074,26.616-0.121,37.621c-0.04,11.005-0.079,21.811-0.132,36.437c0.513-4.533,0.789-14.161,0.871-25.033
								c0.005-10.874-0.007-22.989,0.385-32.499c-0.106,7.989-0.053,14.733,0.029,21.283c0.224-17.866,0.463-36.987,0.718-57.313
								l-0.18-4.567c-0.198,13.7-0.335,23.178-0.353,24.399c0.188-18.165-0.193-33.486-0.814-34.691l-0.043,3.228
								c0,0-0.039-1.642-0.078-3.282c-0.029-1.641-0.103-3.281-0.103-3.281C20.292,504.495,20.301,500.234,20.311,495.997z
								 M736.557,9.657c-1.104,0.074-1.973,0.155-2.613,0.251C734.607,9.809,733.863,9.759,736.557,9.657z M84.814,785.171
								c-6.055-0.099-12.123-0.198-18.183-0.298c-3.052-0.038-6.009-0.134-9.129-0.125c-3.023,0.053-6.042,0.105-9.052,0.157
								c-5.994,0.063-11.958-0.012-17.775-0.587c-2.903-0.288-5.772-0.729-8.469-1.47c-0.654-0.202-1.349-0.395-1.939-0.645
								c-0.54-0.194-1.074-0.462-1.599-0.736c-1.022-0.57-1.995-1.384-2.379-2.515c0.32,1.028,1.119,1.809,1.983,2.387
								c0.422,0.316,0.908,0.533,1.367,0.779l0.715,0.311c0.263,0.123,0.55,0.212,0.829,0.313c2.237,0.793,4.585,1.284,6.858,1.66
								c4.563,0.727,8.87,1.026,12.641,1.219c7.551,0.357,13.005,0.342,14.943,0.512c1.938,0.143,0.379,0.347-6.057,0.598
								c-3.219,0.104-7.662,0.234-13.503,0.017c-2.919-0.116-6.19-0.339-9.812-0.88c-1.808-0.29-3.706-0.665-5.657-1.286
								c-1.923-0.641-4.188-1.537-5.647-3.376c-0.276-0.273-0.412-0.646-0.624-0.967c-0.165-0.345-0.254-0.725-0.374-1.089
								c-0.029-0.382-0.08-0.764-0.093-1.147c0.006-0.387,0.011-0.773,0.045-1.163l-0.021-0.287c-0.005,0.083-0.01,0.167-0.017,0.29
								c-0.078,1.22-0.163,2.646,0.604,3.907c0.73,1.254,2.003,2.223,3.45,2.952c1.497,0.752,3.031,1.262,4.641,1.65
								c1.614,0.389,3.297,0.715,5.029,0.937c6.932,0.924,14.585,0.945,21.966,0.767c3.02-0.13,7.673-0.595,12.993-0.668
								c5.328-0.158,11.299-0.335,16.881-0.501c5.581-0.182,10.773-0.352,14.544-0.474c1.885-0.073,3.415-0.132,4.46-0.172
								c1.045-0.047,1.606-0.081,1.554-0.1c-4.255-0.398-10.471-0.093-18.215-0.292L84.814,785.171z M102.001,787.46
								c13.729,0.303,10.608-0.01,12.742-0.232c-4.833-0.026-9.659-0.053-14.429-0.079
								C102.139,787.233,103.038,787.332,102.001,787.46z M113.925,786.97c-1.542-0.024-2.858-0.052-3.547-0.093L113.925,786.97z
								 M20.483,613.803c-0.008,0.611-0.011,0.83-0.019,1.41c0.097-3.242,0.193-6.491,0.294-9.882
								C20.688,606.646,20.597,609.151,20.483,613.803z M19.208,641.65l0.376,3.269c0.089-3.022,0.181-6.107,0.274-9.263
								C19.628,636.693,19.423,637.777,19.208,641.65z M14.63,731.089c0.287,5.663-0.55,24.555,0.025,25.745
								c0.106,1.214,0.349-2.758,0.605-7.215c0.243-4.975,0.503-10.286,0.778-15.918c-0.083-0.2-0.117-1.322-0.113-3.196
								c-0.333,5.559-0.658,9.268-0.941,6.996c1.494-14.261-0.014-12.839,0.906-28.283C15.672,704.281,14.667,726.396,14.63,731.089
								z M852.32,478.857c0.052-0.439,0.182-1.951,0.342-4.074l0.39,10.897c0,9.721-0.194,18.478-0.283,26.993
								c-0.146,8.521-0.178,16.792,0.211,25.551c-0.194,8.199-0.608,12.579-0.948,16.768c0.041-4.01,0.079-7.762,0.11-10.887
								C851.004,495.044,853.347,518.497,852.32,478.857z M850.131,702.439c0.004-2.006-0.084-2.729-0.084-2.729
								c0.087,10.87,0.02,21.258,0.125,31.089c0.178,9.841,0.345,19.127,0.5,27.787c0.056,4.334,0.109,8.511,0.161,12.521
								c0.021,2.006,0.041,3.97,0.061,5.892c-0.007,0.939,0.068,1.941-0.07,2.937c-0.13,0.982-0.492,1.929-1.096,2.691
								c-1.208,1.538-3.028,2.38-4.761,2.955c-1.725,0.558-3.414,0.856-5.07,1.118c-3.313,0.457-6.451,0.603-9.386,0.697
								c1.143,0.068,3.318,0.124,6.113-0.017c0.699-0.028,1.437-0.072,2.207-0.15c0.77-0.059,1.571-0.145,2.399-0.274
								c1.67-0.241,3.371-0.554,5.295-1.288c1.85-0.739,3.718-1.949,4.582-3.865c0.434-0.938,0.601-1.972,0.643-2.992
								c0.018-0.908,0.035-1.806,0.053-2.687c0.06-3.448,0.114-6.637,0.157-9.134l0.535,8.927c0,0-0.103,1.401-0.205,2.802
								c-0.063,0.838-0.22,1.653-0.416,2.238c-0.092,0.295-0.191,0.532-0.269,0.694c-0.072,0.164-0.116,0.257-0.116,0.257
								c0.001,0-0.1,0.27-0.337,0.711c-0.23,0.446-0.65,1.035-1.262,1.643c-0.609,0.613-1.452,1.186-2.418,1.694
								c-0.483,0.257-1.002,0.484-1.543,0.694c-0.541,0.219-1.026,0.361-1.548,0.537c-1.987,0.563-3.974,0.96-5.445,1.154
								c-0.74,0.119-1.354,0.199-1.782,0.242c-0.429,0.05-0.674,0.078-0.674,0.078c1.105-0.004,2.733-0.082,4.722-0.367
								c0.989-0.118,2.082-0.353,3.234-0.613c1.14-0.297,2.605-0.762,3.931-1.482c1.314-0.721,2.571-1.699,3.389-3.029
								c0.846-1.315,1.168-2.896,1.2-4.447c0.051-2.42,0.1-4.772,0.144-6.866c-0.101-0.743-0.753-27.453-1.087-34.894l-0.324,21.248
								c0.162-5.729-0.165-33.963,0.158-45.079c-0.064-0.056-0.163,1.103-0.267,2.909c-0.104,1.808-0.213,4.264-0.298,6.802
								c-0.219,5.073-0.118,10.496,0.161,11.717c-0.182,1.141-0.32-3.841-0.384-7.346c-0.022-3.502-0.101-5.54-0.434,1.462
								c-0.087-16.608,0.83-43.015,1.275-55.266l0.695-2.062c0.536-13.444-0.595-9.102,0.118-25.072
								c-0.286,19.646,0.784-3.31,0.505,12.319c0.352-4.986,0.691-0.089,0.972-15.753c-0.157-3.263-0.143-5.924-0.14-8.277
								c-0.005-2.353,0.062-4.395,0.133-6.415c0.141-4.04,0.294-7.994-0.097-14.162c0.255-8.244,0.534,8.872,0.622-7.351
								c-0.486-18.604-0.81-17.521-1.439-18.664c-0.146,17.385,0.851,19.528,0.723,33.754l-1.125-28.277
								c-0.144,5.213-0.152,9.067-0.104,12.304c-0.072-5.681-0.24-10.505-0.467-14.63c-0.118-2.349-0.229-4.517-0.329-6.52
								c0.019,16.017,0.03,30.239-0.233,32.752l-0.309-2.208c-0.27,5.667-0.034,14.903,0.196,19.166
								c-0.215,14.336-0.13,28.666-0.579,31.79l-0.164-5.447C850.597,678.292,850.594,680.257,850.131,702.439z M352.386,787.191
								c10.679,1.158,22.457,2.191,72.321,2.191l-3.924,0.062c25.128,0.867,48.995-0.927,79.566-0.174
								c-14.835,0.449-14.036,0.409-30.415,1.403l15.917-0.346c-4.41,0.616,11.468,0.271,23.147,0.278l-10.309,0.743
								c-7.011-0.195-25.184-0.235-24.651-0.072c3.979-0.107-23.993-0.822-39.189-0.672c1.566,0.551,33.651,0.267,19.324,1.1
								c12.627-0.36,14.193,0.126,27.394-0.071c-12.659,0.359-3.134,0.674-12.558,1.049l21.645-0.208
								c0.564,0.162-31.522,0.423-13.787,0.991c8.672-0.273,31.829,0.005,32.243-0.523l0.533,0.161
								c16.224,0.083,7.136-0.76,27.057-0.497c0.234-0.267-3.564-0.442-10.701-0.374c-6.031,0.129-6.956,0.494-19.38,0.591
								c-5.57-0.401,14.986,0.023,6.36-0.658c-4.285-0.339-32.799,0.362-23.712-0.438l16.191,0.082
								c0.415-0.529,12.142-0.521,11.812-0.946c9.901-0.214,19.247,0.363,29.359-0.115c4.197-0.35-3.136-0.97,13.597-0.726
								c13.075,0.757,51.599,0.531,66.027,0.392l12.625-0.361c-1.074-0.321-24.125,0.09-16.02-0.346l19.691-0.165l-1.519,0.206
								c6.524,0.029,13.197-0.181,19.149-0.374c-6.131,0.478-20.325,0.301-17.502,0.859c9.243,0.093,10.654,0.307,19.161,0.109
								c-1.856,0.057-3.454,0.126-3.219,0.201c18.716,0.06,18.067-0.787,22.759-1.011c18.809-0.895-18.969-0.484-16.566-1.073
								l54.926-0.824c-4.689,0.223-9.411,0.445-7.64,0.655c13.475,0.126,0.31,0.424,19.226,0.217
								c-1.354-0.738,23.814-0.694,37.171-1.255c6.246,0.248,7.532,0.298-6.12,0.437c1.572,0.473,19.898,0.111,26.416,0.095
								c3.775-0.116,10.21-0.313,14.29-0.438c-5.471-0.191-3.141-0.519,8.69-0.84l0.688-0.108
								c-19.402,0.051-49.562-0.197-61.719,0.419l3.436-0.274c-22.458-0.21-48.855,1.341-59.218,0.516
								c0.953-0.373-4.512-0.04-4.124-0.571l-16.529,0.568l3.437-0.271c0,0-7.031,0.097-14.062,0.193
								c-3.516,0.049-7.031,0.097-9.667,0.133c-2.638,0.018-4.396,0.029-4.396,0.029l0.744-0.101
								c-13.367,0.518-23.838,0.923-32.202,1.247c-0.03,0.23,0.839,0.299-3.617,0.478c-4.472,0.122-7.863,0.146-10.887,0.121
								c-0.023,0.001-0.023,0.001-0.023,0.003v-0.003c-6.901-0.054-11.5-0.375-19.999-0.493l26.153-0.107
								c2.129-0.395-0.098-0.795-12.912-1.044c5.239-0.025,7.432-0.334,0.946-0.366c-0.712,0.103-17.137,0.282-10.877,0.581
								c-24.846,0.19-65.066-0.759-102.786,0.056c27.1-0.498-21.72-0.482,8.364-0.7c-20.998-0.585-18.069,0.649-39.475,0.593
								c-1.825-0.221,11.654,0.008,16.573-0.445c-8.897-0.045-17.1,0.002-24.936,0.097c-7.836,0.091-15.306,0.177-22.741,0.262
								c-14.868,0.202-29.592,0.412-46.807,0.25l-1.471-0.493C367.15,787.109,359.913,787.149,352.386,787.191z M284.272,787.533
								c-6.626,0.029-13.347,0.059-20.178,0.089c0.666,0.007,1.285,0.015,1.982,0.022l-19.914,0.314
								c12.233,0.238,20.29,0.805,3.166,0.987c1.442-0.195-3.561-0.463,2.393-0.557c-5.736-0.174-14.898-0.338-21.805-0.402
								c-6.907-0.098-11.56-0.04-8.281,0.368c11.027-0.205,12.31,0.01,13.002,0.271c0.692,0.26,0.794,0.539,9.459,0.314
								c-4.651,0.219-9.278,0.278-13.841,0.276c-4.563-0.021-9.061-0.076-13.452-0.021c9.144-0.292-2.124-0.935-15.852-1.29
								c-5.977,0.047-22.149-0.26-32.083-0.185c3.536,0.493-5.115,0.647,11.066,0.954c-5.938,0.047-15.128,0.031-25.417-0.323
								c4.082-0.028,11.218,0.001,10.727-0.167c-6.637-0.494-14.415-0.568-18.705-0.797c-3.423-0.017-6.877-0.034-10.238-0.051
								c1.002,0.052,1.871,0.113,2.488,0.185l-11.378,0.262c15.151-0.031,7,0.291,6.8,0.553c0.415-0.522-9.751-0.185-14.937-0.229
								l11.256,0.691c-5.448,0.214-19.217-0.632-16.381-0.047c23.896,0.508,33.086,0.521,54.7,0.614l-8.768-0.537
								c24.388-0.015,15.031,0.922,42.394,1.229c5.689-0.13,15.976-0.014,24.912,0.036c8.937,0.041,16.521-0.08,16.806-0.461
								c-3.433,0.229,17.033,0.771,26.411,0.449c10.368-0.683,41.708-0.658,32.216-1.025c-8.467-0.042-19.866,0.312-26.67-0.187
								l16.426-0.087l-10.775-0.437C287.368,788.511,286.83,788.123,284.272,787.533z M23.982,683.691
								c0.007-0.18,0.017-0.415,0.026-0.635c-0.007,0.243-0.013,0.479-0.02,0.706L23.982,683.691z"/>
							<path fill="#FFFFFF" d="M849.883,235.718c-0.167-4.726-0.059-16.404-0.459-14.119
								C849.838,221.319,849.376,242.467,849.883,235.718z"/>
							<path fill="#FFFFFF" d="M850.378,221.755c-0.096-0.823-0.263-0.252-0.24-5.492l0.014,14.428L850.378,221.755z"/>
							<path fill="#FFFFFF" d="M853.396,207.137c-0.266-7.443-0.411-12.16-0.298-23.839c1.07-4.38,0.153,19.122,1.085,24.424
								c0.251-21.408-0.61-27.985-0.572-45.595C853.114,170.851,852.609,206.489,853.396,207.137z"/>
							<polygon fill="#FFFFFF" points="854.64,216.656 854.491,204.748 854.422,205.922 854.57,217.838 							"/>
							<path fill="#FFFFFF" d="M846.26,474.497c-0.317,1.076,0.056,8.509,0.162,12.495
								C846.42,483.75,846.473,479.213,846.26,474.497z"/>
							<path fill="#FFFFFF" d="M468.844,16.634l90.795-0.103C533.514,16.561,509.395,16.588,468.844,16.634z"/>
							<path fill="#FFFFFF" d="M846.874,775.419c-0.174-12.122-0.405-20.875-0.617-29.674c-0.198-8.805-0.497-17.599-0.211-30.075
								c-0.168,4.086-0.292,7.826-0.383,11.297c-0.065,3.458-0.013,6.606,0.008,9.587c0.065,5.951,0.201,11.139,0.337,16.169
								c0.136,5.029,0.27,9.901,0.332,15.214c0.03,2.655,0.043,5.422,0.028,8.371c-0.006,0.713-0.003,1.628-0.021,1.854
								c-0.021,0.384-0.096,0.775-0.272,1.133c-0.347,0.728-1.082,1.222-1.863,1.511c-0.001,0,0.317-0.078,0.774-0.296
								c0.455-0.21,1.045-0.627,1.366-1.251c0.161-0.307,0.256-0.646,0.312-0.97c0.027-0.163,0.047-0.323,0.063-0.476
								c0.018-0.274,0.033-0.534,0.049-0.773C846.834,776.067,846.874,775.419,846.874,775.419z"/>
							<path fill="#FFFFFF" d="M844.268,766.643c0.303-1.969,0.49,2.695,0.656,7.427c0.043,1.183,0.085,2.369,0.123,3.457
								c0.05,0.486,0.053,0.776-0.01,1.086c-0.143,0.559-0.328,0.825,0,0.632c0.243-0.326,0.329-0.699,0.361-1.024
								c0.011-0.165,0.013-0.322,0.005-0.47c-0.007-0.32-0.015-0.624-0.021-0.912c-0.038-1.352-0.067-2.406-0.091-3.261
								c-0.064-1.71-0.132-2.616-0.194-3.475c-0.123-1.717-0.221-3.241-0.207-10.613L844.268,766.643z"/>
							<polygon fill="#FFFFFF" points="855.816,656.795 855.979,664.202 855.989,658.241 							"/>
							<polygon fill="#FFFFFF" points="754.486,782.032 757.178,781.868 744.953,781.791 							"/>
							<path fill="#FFFFFF" d="M759.869,781.702l-2.691,0.166L759.869,781.702z"/>
							<polygon fill="#FFFFFF" points="856.93,666.332 857.291,655.332 857.125,649.885 							"/>
							<path fill="#FFFFFF" d="M852.403,763.367l-0.212-9.882C852.232,755.446,852.003,768.922,852.403,763.367z"/>
							<polygon fill="#FFFFFF" points="679.844,782.48 667.89,782.829 669.111,782.878 681.026,782.53 							"/>
							<path fill="#FFFFFF" d="M792.785,790.956c6.8,0.406-19.615,0.313-5.633,0.597
								C799.585,791.362,794.535,791.164,792.785,790.956z"/>
							<path fill="#FFFFFF" d="M648.423,789.097c-1.613,0.003-3.313,0.022-4.95,0.078
								C645.423,789.145,647.061,789.118,648.423,789.097z"/>
							<path fill="#FFFFFF" d="M648.423,789.097c5.209,0.007,10.419,0.118,13.99-0.049
								C655.918,788.898,653.554,789.008,648.423,789.097z"/>
							<path fill="#FFFFFF" d="M588.744,789.32l4.724,0.024c-4.824,0.241-2.537,0.202,1.771,0.008
								c5.005-0.026,4.723-0.174,5.317-0.277c1.003-0.061,1.997-0.122,3.078-0.188c-1.543,0.067-2.93,0.127-4.104,0.178
								C591.775,789.075,587.044,789.107,588.744,789.32z"/>
							<path fill="#FFFFFF" d="M367.075,781.378c17.439,0.243,21.95,0.346,21.001,0.707c16.555,0.182,13.988-0.457,23.973-0.564
								C393.317,781.518,389.488,781.334,367.075,781.378z"/>
							<path fill="#FFFFFF" d="M412.049,781.521c2.099-0.001,4.104-0.003,6.539-0.004
								C415.863,781.495,413.842,781.502,412.049,781.521z"/>
							<path fill="#FFFFFF" d="M658.519,793.143c0,0-2.71,0.163-5.42,0.325c-2.71,0.146-5.42,0.29-5.42,0.29l3.979-0.085
								L658.519,793.143z"/>
							<path fill="#FFFFFF" d="M341.194,781.093c3.234,0.036,8.418,0.04,10.963,0.176
								C353.09,780.905,337.968,781.058,341.194,781.093z"/>
							<path fill="#FFFFFF" d="M408.44,788.515c1.77,0.23,12.932,0.14,17.475,0.244C419.398,788.686,414.089,787.992,408.44,788.515
								z"/>
							<path fill="#FFFFFF" d="M291.154,782.403c3.234,0.036,8.206,0.301,6.051,0.596
								C301.904,782.838,308.267,782.219,291.154,782.403z"/>
							<polygon fill="#FFFFFF" points="376.562,788.324 379.052,788.458 390.99,788.271 							"/>
							<path fill="#FFFFFF" d="M419.131,793.882c13.428-0.383-21.298-1.134,1.828-1.412c-29.829-0.573,2.287,0.626-19.718,0.469
								C414.126,793.137,420.439,793.712,419.131,793.882z"/>
							<path fill="#FFFFFF" d="M401.24,792.938c-1.872-0.019-3.901-0.039-6.103-0.062
								C397.574,792.902,399.541,792.922,401.24,792.938z"/>
							<path fill="#FFFFFF" d="M212.29,789.29c1.951-0.022,3.283-0.056,4.513-0.094C215.267,789.215,213.802,789.241,212.29,789.29z
								"/>
							<path fill="#FFFFFF" d="M330.962,793.024l20.127-0.576c-13.444,0.383-47.262,0.225-45.158,0.884
								c10.951,0.175,24.128,0.054,29.543-0.207L330.962,793.024z"/>
							<path fill="#FFFFFF" d="M100.139,779.256l8.693-0.154l-10.849-0.206C101.09,779.03,95.461,779.441,100.139,779.256z"/>
							<path fill="#FFFFFF" d="M95.886,778.857l2.098,0.038C97.522,778.874,96.856,778.859,95.886,778.857z"/>
							<path fill="#FFFFFF" d="M250.353,789.276c6.501,0.071,11.702,0.073,17.632-0.02
								C265.526,789.124,249.329,788.946,250.353,789.276z"/>
							<path fill="#FFFFFF" d="M38.973,779.906c0,0,3.447,0.064,6.953-0.001c3.498-0.057,7.061-0.187,7.06-0.187
								c0,0-3.886,0.124-7.699,0.159c-3.82,0.044-7.566-0.072-7.566-0.072L38.973,779.906z"/>
							<polygon fill="#FFFFFF" points="23.772,739.047 24.008,736.574 24.318,724.655 24.081,727.166 							"/>
							<path fill="#FFFFFF" d="M59.321,791.425c9.716,0.185,17.336-0.309,14.79-0.463c0,0-4.717-0.05-9.434-0.1
								c-2.312-0.021-4.625-0.041-6.358-0.056c-1.718,0.035-2.864,0.06-2.864,0.06c1.185,0.1,2.108,0.139,2.926,0.159
								c0.4,0.006,0.791,0.011,1.199,0.016c0.452-0.003,0.923-0.006,1.442-0.009c2.078-0.027,4.923-0.093,10.391,0.038
								L59.321,791.425z"/>
							<path fill="#FFFFFF" d="M23.934,241.665c0.419,4.203,0.639,24.84,0.334,25.926c-0.196-2.77-0.555-13.951-0.621-6.921
								l1.166,16.305c-0.089,21.721-1.434-16.48-1.944-27.196c0.333,22.12,1.017,28.664,1.484,52.192
								c-0.064-6.94,0.058-11.331,0.165-15c0.575-0.811,0.752,21.117,1.112,36.788c0.057-9.983,0.389-4.215,0.767,3.049
								c0.044,1.308,0.095,2.176,0.147,2.794c0.045,0.845,0.088,1.644,0.133,2.465l-0.039-1.88c0.069,0.132,0.141-0.285,0.223-1.642
								c-0.435-13.147-0.142-23.213-0.304-31.681c-0.794,8.384-0.799-28.827-1.308-39.465l-0.339-12.287l-0.09-4.596
								c0.088-0.926,0.244,0.378,0.571,7.383c-0.304-5.846-0.613-25.349-0.887-23.542l-0.874-44.51
								c0.013-1.387,0.035-2.773,0.084-3.8c-0.09-1.541-0.145-1.799-0.19-1.594c0,0-0.059-3.03-0.164-8.333
								c-0.117-5.303-0.24-12.877-0.361-21.964c-0.262-18.176-0.611-42.41-0.96-66.644c-0.043-3.029-0.087-6.059-0.131-9.076
								c-0.042-1.604,0.007-2.797,0.023-4.089c0.101-1.26,0.173-2.522,0.378-3.737c0.365-2.443,0.964-4.778,1.803-6.973
								c0.855-2.187,1.962-4.225,3.26-6.119c2.577-3.802,6.042-6.948,9.756-9.55c3.73-2.596,7.729-4.627,11.562-6.288
								c3.844-1.655,7.556-2.915,10.899-3.923c3.349-1.001,6.32-1.783,8.799-2.353c2.468-0.596,4.441-0.987,5.781-1.267
								c1.346-0.264,2.064-0.405,2.064-0.405c-4.548,0.832-8.748,1.704-12.909,2.747c-4.156,1.048-8.281,2.264-12.569,3.911
								c3.164-1.393,3.899-1.721,3.211-1.531c-0.681,0.199-2.768,0.934-5.072,1.883c-2.287,0.972-4.81,2.126-6.465,3.001
								c-1.696,0.826-2.564,1.328-1.807,0.681c2.566-1.606,5.973-3.304,9.458-4.686c3.481-1.392,7.013-2.496,9.687-3.217
								c0.941-0.45-0.49-0.159-2.068,0.171c-1.579,0.327-3.269,0.765-2.901,0.438c-5.57,1.786-9.696,3.723-13.067,5.607
								c-3.361,1.905-5.952,3.803-8.284,5.858c-2.32,2.065-4.396,4.288-6.416,7.108c-0.967,1.435-1.985,2.983-2.852,4.825
								c-0.892,1.826-1.75,3.89-2.38,6.338c-0.074-0.428,0.229-2.188,0.155-2.222c-0.055-0.023-0.266,0.367-0.615,1.603
								c-0.089,0.308-0.205,0.663-0.312,1.083c-0.09,0.426-0.192,0.91-0.308,1.457c-0.133,0.543-0.215,1.169-0.309,1.867
								c-0.049,0.348-0.1,0.714-0.154,1.099c-0.03,0.391-0.061,0.801-0.094,1.23c0,0,0.012-0.219,0.029-0.547
								c0.012-0.33,0.04-0.767,0.102-1.196c0.1-0.864,0.2-1.728,0.2-1.728c-0.393,2.705-0.459,5.062-0.47,7.094
								c0.019,2.266,0.034,4.158,0.048,5.775c0.003,3.252-0.051,5.403-0.091,7.264c-0.08,3.722-0.102,6.283,0.51,14.164
								l-0.533-0.409c0.557,11.363,0.872,33.478,1.12,45.94l-0.112-0.742c0.536,17.476,0.657,22.382,0.76,27.827
								c0.094,5.445,0.153,11.428,0.659,31.059l-0.964-18.06c0.007,13.55,0.735,16.592,0.854,26.317
								c-0.115-0.695-0.458,1.568-0.731-7.615l1.858,47.627C24.024,257.12,23.742,243.438,23.934,241.665z"/>
							<path fill="#FFFFFF" d="M24.352,301.97c0.022,2.522,0.067,5.389,0.155,8.772C24.45,307.477,24.399,304.665,24.352,301.97z"/>
							<path fill="#FFFFFF" d="M89.295,21.613c0,0-3.296,0.443-6.561,0.978c-3.271,0.518-6.502,1.143-6.502,1.143
								C80.247,23.005,84.464,22.32,89.295,21.613z"/>
							<path fill="#FFFFFF" d="M26.727,370.277c0.141-8.271,0.48,6.184,0.706,7.623l-0.481-29.612
								c-0.202,0.137-0.475-2.79-0.652-2.191L26.727,370.277z"/>
							<path fill="#FFFFFF" d="M27.196,339.708c-0.16-1-0.326-4.134-0.521-7.64l0.276,16.219
								C27.102,348.183,27.21,346.362,27.196,339.708z"/>
							<polygon fill="#FFFFFF" points="16.408,343.039 16.306,337.801 16.001,329.879 							"/>
							<path fill="#FFFFFF" d="M15.694,261.088c-0.183,6.263,0.289,18.13,0.446,22.099
								C15.856,269.506,16.092,275.432,15.694,261.088z"/>
							<polygon fill="#FFFFFF" points="12.732,278.061 12.295,264.877 12.259,266.108 							"/>
							<path fill="#FFFFFF" d="M188.863,15.266c2.16-0.007,4.257-0.014,6.44-0.021C192.352,15.234,190.427,15.246,188.863,15.266z"
								/>
							<path fill="#FFFFFF" d="M77.066,21.969c7.576-1.209,10.179-1.378,9.891-1.274c-0.281,0.127-3.423,0.639-7.177,1.362
								c-7.548,1.368-17.295,4.077-12.601,3.296c0,0,3.971-1.038,8.031-1.879c4.048-0.87,8.163-1.569,8.163-1.569l-1.367,0.427
								c0,0,5.003-0.85,10.073-1.495c5.063-0.665,10.173-1.159,10.173-1.159c-4.226,0.058-7.366,0.415-6.5-0.058
								c6.808-0.735,10.784-0.991,13.194-1.141c2.415-0.132,3.271-0.139,3.902-0.107c1.264,0.081,1.601,0.171,11.706-0.152
								c0,0,7.691-0.417,15.417-0.657c7.723-0.253,15.469-0.381,15.469-0.381l-2.506,0.149c2.608-0.05,3.761-0.113,4.655-0.186
								c0,0,6.524-0.118,16.337-0.172c9.811-0.066,22.915-0.049,36.047-0.032c26.263-0.004,52.526-0.008,52.526-0.008
								c19.099-0.246-10.564-0.683,3.524-1.188c-11.07-0.056-24.831-0.125-36.058-0.182c-11.251,0.001-19.948,0.043-20.89,0.408
								c0.745-0.099,2.21-0.294-2.279-0.396l-12.803,0.561l12.205,0.229c-6.441,0.281-20.048,0.331-32.95,0.379
								c-12.906,0.035-25.105,0.15-28.842,0.074c11.743-0.378,14.68-0.599,18.767-0.812c4.092-0.189,9.335-0.341,25.782-0.128
								c-1.478-0.188-7.5-0.517-0.093-0.611c-19.273,0.084-37.515,0.142-55.846,0.87c-9.162,0.373-18.348,0.905-27.654,1.797
								C96.061,18.831,86.617,20.04,77.066,21.969z"/>
							<path fill="#FFFFFF" d="M462.842,16.049l-0.306,0.065C463.233,16.081,463.461,16.055,462.842,16.049z"/>
							<path fill="#FFFFFF" d="M449.89,15.929l-18.815,0.67l29.328,0.011l2.134-0.496c-2.594,0.121-12.877,0.351-16.862,0.146
								L449.89,15.929z"/>
							<path fill="#FFFFFF" d="M409.232,16.98c15.146-0.178,14.328-0.77,6.067-1.058c13.91-0.241,7.333,0.651,16.915,0.05
								c-0.311-0.426-17.455-0.216-21.394-0.147L409.232,16.98z"/>
							<polygon fill="#FFFFFF" points="297.487,16.41 301.748,16.175 291.254,16.085 							"/>
							<path fill="#FFFFFF" d="M301.748,16.175l10.415,0.09c-0.72-0.184-1.433-0.362-3.131-0.49L301.748,16.175z"/>
							<path fill="#FFFFFF" d="M339.492,16.499c4.409,0.037,9.287,0.079,15.223,0.128L339.492,16.499z"/>
							<path fill="#FFFFFF" d="M327.582,16.32l0.352,0.078l11.559,0.1C335.232,16.435,331.411,16.378,327.582,16.32z"/>
							<path fill="#FFFFFF" d="M312.163,16.265c1.691,0.417,3.671,0.856,18.729,0.776l-2.958-0.642L312.163,16.265z"/>
							<polygon fill="#FFFFFF" points="11.48,182.123 11.017,170.214 10.977,171.476 11.441,183.377 							"/>
							<path fill="#FFFFFF" d="M10.762,113.365c-0.134-2.944-0.236-5.176-0.329-7.205C10.522,109.262,10.626,111.729,10.762,113.365
								z"/>
							<path fill="#FFFFFF" d="M7.505,61.591c0.087-1.005,0.229-1.8,0.341-2.411c0.109-0.61,0.192-1.037,0.253-1.31
								c0.123-0.545,0.153-0.479,0.128-0.042c-0.025,0.437-0.105,1.244-0.202,2.18c-0.099,0.937-0.115,1.999-0.171,2.955
								c-0.066,1.908,0.014,3.369,0.056,2.532c0.048-0.422,0.02-1.409,0.21-3.231c0.072-0.908,0.172-2.021,0.396-3.37
								c0.169-1.348,0.511-2.928,0.939-4.759c0.284-0.618,0.233-0.223,0.091,0.936c-0.07,0.58-0.18,1.349-0.321,2.274
								c-0.096,0.925-0.209,2.009-0.335,3.222c-0.045,1.205-0.172,2.543-0.167,3.959c-0.001,0.708-0.002,1.439-0.004,2.191
								C8.734,67.4,8.75,68.1,8.766,68.814c0.066,2.824,0.104,5.876,0.099,8.933c-0.378-0.967-0.401-11.908-0.667-4.389
								c0.536,8.113,0.292,11.204,0.801,8.369c0.535,13.653,0.947,15.168,1.434,24.433c-0.237-8.252-0.337-21.046-0.502-34.394
								c-0.02-1.675-0.039-3.359-0.059-5.043l0.05-2.747c0.049-0.918,0.132-1.837,0.199-2.753c0.358-3.667,1.128-7.313,2.319-10.736
								c2.364-6.878,6.425-12.668,10.487-16.796c1.067-1.21,2.01-2.06,2.698-2.819c0.726-0.702,1.252-1.236,1.612-1.646
								c0.717-0.828,0.803-1.094,0.534-1.177c-0.533-0.174-2.348,0.714-2.634,0.323c-0.208,0.142-0.831,0.56-1.694,1.317
								c-0.434,0.374-0.939,0.809-1.505,1.297c-0.542,0.524-1.141,1.105-1.786,1.729c-2.529,2.553-5.546,6.235-7.751,10.438
								c-2.249,4.174-3.67,8.709-4.316,12.188C7.412,58.829,7.379,61.258,7.505,61.591z"/>
							<path fill="#FFFFFF" d="M6.579,84.349c0.044,6.49,0.11,8.472,0.246,12.453C7.135,95.724,6.667,89.592,6.579,84.349z"/>
							<path fill="#FFFFFF" d="M119.846,10.401c1.228-0.236,12.962-0.957,10.429-1.062c0,0-4.451,0.229-8.899,0.521
								c-4.449,0.29-8.893,0.653-8.893,0.652C116.66,10.24,118.144,10.328,119.846,10.401z"/>
							<path fill="#FFFFFF" d="M104.69,11.216c0,0,1.948-0.184,3.895-0.368c1.949-0.167,3.897-0.335,3.897-0.335
								C110.531,10.648,108.119,10.84,104.69,11.216z"/>
							<path fill="#FFFFFF" d="M120.696,10.434c-0.283-0.011-0.536-0.021-0.851-0.033C119.597,10.445,119.646,10.472,120.696,10.434
								z"/>
							<path fill="#FFFFFF" d="M382.647,16.836c-0.252,0.261,7.673,0.124,11.652,0.055
								C391.065,16.862,386.523,16.765,382.647,16.836z"/>
							<path fill="#FFFFFF" d="M681.121,16.364l7.012,0.153C685.654,16.412,684.383,16.36,681.121,16.364z"/>
							<path fill="#FFFFFF" d="M788.983,8.067c0.203-0.053,0.72-0.101,1.417-0.147C789.703,7.959,789.218,8.008,788.983,8.067z"/>
							<path fill="#FFFFFF" d="M790.4,7.92c2.371-0.137,7.329-0.174,12.341,0.086c5.011,0.251,10.069,0.788,12.763,0.995
								l-0.691,0.011c0,0,2.494,0.263,4.98,0.632c2.488,0.357,4.965,0.833,4.965,0.833c-4.624-0.981-11.853-2.077-18.628-2.469
								C799.361,7.557,793.052,7.724,790.4,7.92z"/>
						</g>
					</g>
				</g>
			</g>
		</g>
	</g>
</g>
</svg>
