<?xml version="1.0" encoding="utf-8"?>
<!-- Generator: Adobe Illustrator 16.0.0, SVG Export Plug-In . SVG Version: 6.00 Build 0)  -->
<!DOCTYPE svg PUBLIC "-//W3C//DTD SVG 1.1//EN" "http://www.w3.org/Graphics/SVG/1.1/DTD/svg11.dtd">
<svg version="1.1" id="Layer_1" xmlns="http://www.w3.org/2000/svg" xmlns:xlink="http://www.w3.org/1999/xlink" x="0px" y="0px"
	 width="744px" height="868px" viewBox="0 0 744 868" enable-background="new 0 0 744 868" xml:space="preserve">
<g>
	<image overflow="visible" opacity="0.75" width="761" height="881" xlink:href="8821B04.png"  transform="matrix(1 0 0 1 -1 0)">
	</image>
	<g>
		<path fill="#F2F2F2" d="M731.961,31.355c-0.104-11.654-29.918-21.041-66.273-20.839c-69.878,0.387-142.044,2.102-209.779,1.245
			c-59.656-0.756-126.648-1.02-194.05-0.938C141.822,10.968,13.369,4.688,14.087,70.824c2.803,257.881,16.002,514.408,0,770.829
			c-0.719,11.522,42.605,8.419,51.414,8.575c211.878,3.757,424.5,4.057,636.496,0.895c7.383-0.11,15.376-0.294,20.911-1.697
			c7.031-1.785,7.499-4.83,7.445-7.522c-1.479-74.764,3.511-148.785,2.032-223.551c-0.527-26.642,0.527-50.551,0-77.197
			c-0.583-29.443-0.136-62.731-0.719-92.176C728.9,309.212,733.208,171.009,731.961,31.355z"/>
		<g>
			<g>
				<g>
					<g>
						<g>
							<path fill="#FFFFFF" d="M729.527,106.681c-0.063-6.917,0.243-12.951,0.385-10.348c-0.389-14.09,0.04-14.392-0.691-16.216
								c-0.366-9.042,0.121-18.69,0.426-8.403l-0.469-26.072l-0.1,15.59c-0.61-4.243,0.159-24.913-0.552-29.847l0.083,28.22
								l-0.202-1.409c0.223,6.424,0.143,18.906,0.062,23.257c-0.101-0.686-0.263-0.248-0.284-5.225
								c-0.017,34.071,1.068,9.176,1.295,37.452C729.463,111.908,729.47,109.713,729.527,106.681z"/>
							<path fill="#FFFFFF" d="M728.067,135.621l0.671,11.894l-0.352,19.945c0.262,0.228,0.36,14.759,0.668,4.923
								c-0.025-1.924-0.074-5.727-0.026-8.797c0.55,2.229,0.077,26.527,0.697,20.669c-0.028-15.776,0.115-18.197-0.271-27.91
								c0.108-7.23,0.203-13.479,0.283-18.764c0.09-5.284,0.148-9.603,0.256-12.979c-0.09-4.292-0.438-4.896-0.513-10.35
								c0.009,1.207,0.016,2.315,0.025,3.704l-0.853,0.585c0.184,4.548,0.103,8.847,0.125,13.892l-1.018-23.343
								c-0.797,7.524-0.266,30.452-0.738,39.62C727.829,137.347,727.313,157.767,728.067,135.621z"/>
							<path fill="#FFFFFF" d="M729.481,114.253c0-0.151-0.001-0.399-0.002-0.573C729.48,113.854,729.481,114.103,729.481,114.253z"
								/>
							<path fill="#FFFFFF" d="M19.426,548.835c-0.038-4.964-0.247-6.426-0.352-7.143c0,0,0.017,3.493,0.043,8.731
								c-0.006,5.238-0.014,12.224-0.022,19.208c-0.03,13.969-0.059,27.938-0.059,27.938c0.228-1.748,0.544-17.843,0.652-7.086
								c0.259-4.797,0.083-19.407-0.215-21.527l0.332,4.051c-0.407-12.875,0.475-21.67,0.712-13.275l-0.002-1.086
								c0,0-0.1-2.229-0.25-5.572c-0.173-3.343-0.405-7.801-0.636-12.258c-0.462-8.914-0.924-17.827-0.924-17.827
								C18.669,536.083,19.333,533.07,19.426,548.835z"/>
							<path fill="#FFFFFF" d="M657.185,9.037c-7.243,0.144-8.133,0.233-7.31,0.309C652.47,9.26,654.937,9.165,657.185,9.037z"/>
							<path fill="#FFFFFF" d="M18.273,514.658l-0.586-11.165C17.867,507.964,18.062,511.892,18.273,514.658z"/>
							<path fill="#FFFFFF" d="M26.375,592.07c0.028,0.022,0.053,0.144,0.091-0.15l-0.258-5.022c0,0.075,0,0.098,0,0.128
								C26.269,588.876,26.324,590.537,26.375,592.07z"/>
							<path fill="#FFFFFF" d="M12.068,261.142c-0.037-1.199-0.069-2.232-0.114-3.666C11.996,258.811,12.034,260.018,12.068,261.142
								z"/>
							<path fill="#FFFFFF" d="M26.478,743.723l0.255-24.9c0.138,3.323,0.434-8.683,0.553-3.432c0.02-1.897,0.197-10.792,0-8.37
								l-0.14,5.077c-0.149-6.571-0.351-7.871-0.5-10.249c-0.135-2.378-0.249-5.835-0.308-16.718
								c-0.649,13.495-0.506,19.423-0.399,26.584c-0.039,2.426-0.07,4.458-0.103,6.514l0.344,20.72L26.478,743.723z"/>
							<path fill="#FFFFFF" d="M310.875,13.475l-0.271,0.053C310.852,13.51,310.897,13.493,310.875,13.475z"/>
							<path fill="#FFFFFF" d="M309.516,13.747l1.087-0.218C309.268,13.633,304.153,13.716,309.516,13.747z"/>
							<path fill="#FFFFFF" d="M18.746,518.758c-0.131-0.338-0.297-1.771-0.472-4.1l0.434,8.331
								C18.718,521.806,18.732,520.244,18.746,518.758z"/>
							<path fill="#FFFFFF" d="M20.36,537.714c0,0,0.049,5.233,0.098,10.466c0.029,5.233,0.059,10.467,0.059,10.467l0.345,7.718
								c-0.05-4.006-0.105-8.352-0.165-13.104C20.593,548.508,20.482,543.349,20.36,537.714z"/>
							<path fill="#FFFFFF" d="M12.364,294.211c-1.035-43.354,1.051,10.633,0.823-9.292c-0.354-12.037-0.837-16.274-1.119-23.778
								c1.069,34.382-1.387-4.634-0.438,30.044c-0.812-4.919-1.308-24.994-1.364-36.769c0.4-13.338,0.744,11.631,1.478,14.632
								c-0.408-13.915-0.478-11.461-0.983-17.36c-0.311-21.857-1.792-45.203-1.093-58.277c-0.462-15.82-0.767-14.773-1.305-23.866
								c-0.765-1.798,0.081,23.543-0.378,29.417c0.038-1.216,0.114-3.588,0.23-2.903l0.116,13.684c0-12.992,0.76,1.79,0.962,8.729
								c0.122,5.047,0.366,15.08,0.136,13.704l-0.318-7.639c-0.022,9.842,0.991,21.693,0.816,32.09
								c-0.152,0.547-0.313-3.382-0.426-3.976c0.743,11.631,0.955,22.854,1.676,40.075l-0.937-9.971
								c1.104,13.765,1.529,44.973,1.541,66.602c0.074-2.401,0.071-6.724,0.264-4.132c0.439,12.697,0.122,22.299-0.37,16.424
								c0.808,12.393,0.405,47.273,1.391,64.162c0,0,1.191,19.418,2.382,38.835c1.12,19.424,2.24,38.847,2.24,38.847
								c-0.123-2.91-0.229-6.024-0.294-9.236c0.561-7.072,0.445-10.881,1.172,1.498c-0.462-12.155-0.924-7.504-1.139-25.77
								c0.394,7.161,1.141,8.964,1.035-8.535c-0.609-21.869-1.496-40.044-2.433-57.855c-0.984-17.812-1.946-35.257-2.835-55.676
								c0.453-1.519-0.322-33.59-0.552-49.186c0.654,5.94,1.05,17.508,1.397,29.513c-0.14-7.535-0.381-20.509-0.56-30.134
								L12.364,294.211z"/>
							<path fill="#FFFFFF" d="M16.027,395.757c0.01-1.095,0.019-2.226,0.029-3.388C16.027,392.989,16.014,394,16.027,395.757z"/>
							<path fill="#FFFFFF" d="M14.098,331.905c0.021,0.15,0.035,0.097,0.056,0.149c-0.038-1.259-0.077-2.519-0.116-3.808
								C14.059,329.536,14.083,330.992,14.098,331.905z"/>
							<path fill="#FFFFFF" d="M19.803,508.501c0.128,2.595,0.224,4.516,0.352,7.11c-0.044-1.599-0.1-3.604-0.153-5.535
								C19.927,508.235,19.857,507.361,19.803,508.501z"/>
							<path fill="#FFFFFF" d="M18.982,517.256l-0.207-1.387c-0.012,1.116-0.02,1.9-0.03,2.889
								C18.855,519.06,18.944,518.734,18.982,517.256z"/>
							<path fill="#FFFFFF" d="M13.505,128.417l-0.177-4.155C13.378,126.766,13.44,127.844,13.505,128.417z"/>
							<path fill="#FFFFFF" d="M12.166,245.894c0.367,15.079,0.766,1.788,1.224,23.121l-0.089-6.262
								c0.634,15.298,1.082,42.201,1.476,60.385c-0.333-2.045-0.128,11.034-0.623,8.917c0.358,12.428,0.718,24.735,1.304,31.129
								c-0.012,7.703,0.612,19.393,0.599,29.187c0.198-4.138,1.179,13.921,0.409-9.898c0.072,1.922,0.113,0.714,0.186,2.615
								c0.094-15.356-0.643-21.498-0.931-34.72c0.108-7.91,0.699,12.919,0.655,5.458c-0.589-16.506-0.732-51.817-1.733-50.703
								c-0.329-12.015-0.141-13.679-0.032-17.266c-0.744-9.493-1.006-27.131-1.249-42.373c-0.244-15.241-0.475-28.083-1.164-27.982
								c0.202,6.939,0.411,18.249,0.922,28.426L12.166,245.894z"/>
							<path fill="#FFFFFF" d="M19.49,483.179c-0.005-0.928-0.012-2.164-0.017-2.934C19.478,481.112,19.484,482.191,19.49,483.179z"
								/>
							<path fill="#FFFFFF" d="M14.823,673.361l-0.777-6.315c0.234-17.932,0.393-30.139,0.545-41.783
								c0.14-11.646,0.384-22.726,0.359-38.411c0.129-2.396,0.199,1.41,0.234,3.34c0.011-11.026,0.024-24.789,0.037-37.803
								c-0.077-13.015-0.189-25.279-0.434-33.306c-0.013-3.509,0.034-9.87,0.115-14.482c0.058-4.612,0.167-7.477,0.335-3.991
								c-0.115-3.415-0.234-7.319-0.245-11.247c0.314-1.044,0.184,8.79,0.452,9.014c-0.011-3.114,0.04-4.328-0.07-5.044
								c0.315,5.237,1.088-5.446,1.235,18.992c-0.7,9.467-0.185-16.949-1-11.355c0.078,8.104,0.364,7.159,0.479,7.853
								c0.028,10.329-0.183,10.059-0.377,9.51c0.278,3.957-0.024,16.948,0.396,22.412c0.157,20.085-0.634-1.091-0.564,12.026
								l0.832,7.56l-0.212,21.809c0.111,15.786,0.48,14.659,0.87,14.097c0.368-0.563,0.866-0.56,0.895,17.488
								c-0.392-4.746-1.289,9.723-1.644,26.513c0.066-10.049-0.259-28.625,0.088-41.595c-0.733,18.283-0.003-25.171-0.802-15.684
								c0.169,4.52,0.256,10.547,0.274,16.913c-0.014,6.365-0.136,13.068-0.291,18.942l-0.037-3.853
								c-0.243,12.493,0.61,21.965-0.004,39.202c-0.145,8.567-0.352,6.958-0.52,5.448c-0.008,3.625-0.016,7.058-0.021,9.587
								C14.955,671.727,14.917,673.353,14.823,673.361z M15.019,654.696c0,0,0.077-2.864,0.154-5.729
								c0.051-2.865,0.103-5.73,0.103-5.73C15.112,645.956,15.073,650.229,15.019,654.696z"/>
							<path fill="#FFFFFF" d="M727.089,296.129c0.028-1.14,0.062-2.453,0.087-3.486
								C727.132,293.404,727.108,294.725,727.089,296.129z"/>
							<path fill="#FFFFFF" d="M261.973,848.404l6.646,0.064C266.023,848.443,263.896,848.423,261.973,848.404z"/>
							<path fill="#FFFFFF" d="M411.126,846.198l9.707-0.224C417.002,845.998,414,846.084,411.126,846.198z"/>
							<path fill="#FFFFFF" d="M727.069,375.425l-0.003,0.325c0.021,0.543,0.036,0.959,0.059,1.533L727.069,375.425z"/>
							<path fill="#FFFFFF" d="M710.114,845.898c1.429,0.002,3.029-0.018,5.171-0.15
								C715.015,845.676,713.126,845.804,710.114,845.898z"/>
							<path fill="#FFFFFF" d="M409.339,846.24c0.249,0.006,0.392,0.01,0.588,0.014c0.377-0.018,0.792-0.037,1.199-0.056
								L409.339,846.24z"/>
							<path fill="#FFFFFF" d="M196.3,845.341c-1.425,0.009-2.723,0.017-4.254,0.026C194.052,845.378,195.281,845.363,196.3,845.341
								z"/>
							<path fill="#FFFFFF" d="M205.642,847.871c-1.531,0.011-2.995,0.021-4.134,0.028L205.642,847.871z"/>
							<path fill="#FFFFFF" d="M21.931,807.081l0.375-8.955C22.075,802.525,21.977,805.153,21.931,807.081z"/>
							<path fill="#FFFFFF" d="M181.972,846.994c-0.521,0.036-1.041,0.072-1.389,0.096
								C181.82,847.08,182.409,847.039,181.972,846.994z"/>
							<path fill="#FFFFFF" d="M729.903,239.266c-0.001,0.204-0.001,0.423-0.002,0.543l0.098,0.227L729.903,239.266z"/>
							<path fill="#FFFFFF" d="M728.837,217.499c-0.003-2.565-0.006-5.236-0.009-7.862
								C728.801,212.557,728.805,215.401,728.837,217.499z"/>
							<path fill="#FFFFFF" d="M727.579,736.213c0.176-2.366,0.448-7.924,0.529-5.325
								C728.034,726.353,727.599,726.64,727.579,736.213z"/>
							<path fill="#FFFFFF" d="M734.987,282.921c-0.108-1.426-0.187-3.199-0.264-4.98
								C734.83,281.253,734.918,284.158,734.987,282.921z"/>
							<path fill="#FFFFFF" d="M734.724,277.941c-0.057-1.637-0.116-3.387-0.167-4.851
								C734.615,274.795,734.672,276.432,734.724,277.941z"/>
							<path fill="#FFFFFF" d="M733.569,796.59c-0.062,0.587-0.115,1.498-0.139,2.733
								C733.549,798.963,733.58,797.976,733.569,796.59z"/>
							<path fill="#FFFFFF" d="M729.013,203.286c-0.19-1.413-0.364-35.598-0.691-6.848c-0.619-1.113-0.147-18.447-0.244-26.113
								c-0.19,5.566-0.382-2.771-0.62-1.083c0.048,3.803,0.192,8.322,0.1,14.606c-0.31,2.887-0.431-6.649-0.267-14.095
								c-0.402,9.171-0.408-11.643-0.763,1.338c0.007,27.754,0.083,47.37,0.851,66.893c-0.028-15.821-0.079-33.52,0.274-46.494
								l0.502,5.458c-0.592,14.662-0.306,23.717-0.468,38.141l0.54-32.399c0.57-15.175,0.596-5.021,0.602,6.945
								C728.857,206.695,728.911,204.032,729.013,203.286z"/>
							<path fill="#FFFFFF" d="M733.617,225.156l0.02-0.543c-0.016-0.476-0.034-1.064-0.044-1.366L733.617,225.156z"/>
							<path fill="#FFFFFF" d="M10.845,808.151l-0.051-2.786C10.758,807.687,10.782,808.404,10.845,808.151z"/>
							<path fill="#FFFFFF" d="M730.845,244.465v-0.022C730.85,244.662,730.849,244.714,730.845,244.465z"/>
							<path fill="#FFFFFF" d="M46.642,855.629c-0.1,0.013-0.201,0.024-0.377,0.046C46.519,855.659,46.519,855.643,46.642,855.629z"
								/>
							<path fill="#FFFFFF" d="M65.233,843.63c-0.153-0.026-0.191-0.05-0.529-0.075C63.113,843.597,63.849,843.609,65.233,843.63z"
								/>
							<path fill="#FFFFFF" d="M46.696,855.578c0,0.017,0.046,0.033-0.054,0.051C46.695,855.611,46.818,855.595,46.696,855.578z"/>
							<path fill="#FFFFFF" d="M383.47,856.356c0,0-1.064-0.101-2.739-0.199C380.081,856.204,380.73,856.268,383.47,856.356z"/>
							<path fill="#FFFFFF" d="M316.984,855.187c-0.422-0.023-0.671-0.037-1.214-0.066L316.984,855.187z"/>
							<path fill="#FFFFFF" d="M724.772,751.886c-0.079,3.292-0.133,5.758-0.14,7.845
								C724.682,757.326,724.753,754.733,724.772,751.886z"/>
							<path fill="#FFFFFF" d="M46.265,855.675c-0.708,0.052-1.716,0.108-3.387,0.149C44.718,855.78,45.687,855.722,46.265,855.675z
								"/>
							<path fill="#FFFFFF" d="M484.834,853.339c-0.709,0.023-1.373,0.044-2.044,0.065c0.407,0.009,0.814,0.017,1.215,0.024
								L484.834,853.339z"/>
							<path fill="#FFFFFF" d="M519.529,853.647c-1.185,0.064-1.728,0.13-2.391,0.188c6.189-0.129,14.973-0.147,22.544-0.207
								c7.571-0.068,13.931-0.259,15.275-0.551c-2.101,0.022-8.598,0.035-14.105-0.063c-5.508-0.111-10.026-0.27-8.171-0.443
								c-8.631,0.168-21.392-0.204-26.038-0.097c14.171,0.279,1.534,0.484-8.032,0.705c-8.7-0.146,1.635-0.47-5.857-0.558
								l-20.13,0.118l17.535,0.029l-5.325,0.57c0.649-0.021,1.095-0.035,1.788-0.057
								C516.288,852.943,489.146,854.09,519.529,853.647z"/>
							<path fill="#FFFFFF" d="M517.139,853.835c-1.856,0.04-3.486,0.087-4.753,0.149
								C515.185,853.969,516.271,853.909,517.139,853.835z"/>
							<path fill="#FFFFFF" d="M638.352,853.651c1.524-0.042,3.176-0.088,5.251-0.146
								C642.614,853.533,640.321,853.597,638.352,853.651z"/>
							<path fill="#FFFFFF" d="M20.733,581.24c-0.165,0.521-0.544,17.8-0.116,17.493c0.057-5.13,0.114-10.297,0.172-15.486
								L20.733,581.24z"/>
							<path fill="#FFFFFF" d="M731.737,608.152c-0.003,1.925-0.007,3.857-0.011,5.79c0.024,0.415,0.049,0.814,0.066,1.124
								C731.856,613.888,731.777,610.077,731.737,608.152z"/>
							<path fill="#FFFFFF" d="M538.021,852.354c-3.168,0.074-4.578,0.146-5.34,0.216
								C534.733,852.531,536.627,852.471,538.021,852.354z"/>
							<path fill="#FFFFFF" d="M732.755,607.055c0.122-2.453,0.309-6.067,0.472-6.58c0.004-5.015-0.221-8.535-0.301-13.642
								C732.988,592.595,732.945,599.261,732.755,607.055z"/>
							<path fill="#FFFFFF" d="M732.918,586.418c0.003,0.144,0.006,0.287,0.008,0.415
								C732.923,586.689,732.921,586.562,732.918,586.418z"/>
							<path fill="#FFFFFF" d="M20.939,570.958c-0.025-1.486-0.051-3.018-0.078-4.594l0.108,2.392
								c0.053-3.977,0.106-7.93,0.159-11.89c-0.019-1.434-0.039-2.987-0.064-4.896c0.02,0.77,0.066,1.365,0.111,1.735
								c0.013-1.29,0.025-2.55,0.037-3.811c-0.486-9.467-0.917-33.024-1.209-39.818c-0.224-8.99-0.488-19.995-0.512-26.897
								c0.057,6.397,0.234,14.89,0.453,12.338c0.115-12.991,0.804-19.314-0.087-41.727l0.159,13.148l-1.346-29.549
								c0.24-10.363,0.695,14.747,1.099,18.846c-0.82-22.984,0.172-42.127-0.846-52.772c0.461-1.509,1.229-4.043,0.905-19.129
								c-0.358,10.888-0.523-9.039-0.956-0.104c-0.375-5.207-0.132-16.833-0.514-17.693l0.229,1.407
								c0.278-25.775-1.129-34.185-1.745-45.197c-0.838-30.839-0.844-45.012-1.455-70.167c0.306-0.995,1.061-7.864,0.813-17.956
								c-0.546-4.683-1.225-27.445-1.828-29.758c0.116,18.051,0.777,14.754,1.132,25.554c-0.404,9.004-0.57,0.827-0.666,13.115
								c0.008-9.916-1.246-44.781-0.889-55.649l0.154,3.831c-0.001-17.336,1.313-20.672-0.016-49.53l-0.582-13.771
								c0.068,0.663,0.135,0.738,0.192,1.091c-0.318-22.552,0.465-16.405-0.39-41.296c0.064,1.923,0.111,0.715,0.175,2.669
								c0.078-7.105-0.138-14.207-0.306-20.932c-0.156-6.819,1.28-13.284,3.659-18.302c3.654-5.719-0.688,1.508-1.355,5.631
								c1.916-6.029,5.368-11.676,9.831-16.199c4.413-4.588,9.631-8.173,14.829-11.069c10.471-5.743,20.794-8.938,28.293-11.108
								c0,0.001,3.96-0.898,7.945-1.63c3.982-0.748,7.982-1.352,7.982-1.351c-4.714,0.898-9.907,2.132-13.531,3.165
								c-3.625,1.03-5.688,1.816-4.241,1.576c4.288-1.139,6.024-1.576,8.211-2.107c2.19-0.512,4.835-1.117,11.031-2.113
								c-2.064,0.632-7.202,1.813-12.859,3.454c6.34-1.261,9.885-1.838,11.88-2.253c1.999-0.393,2.454-0.59,2.671-0.735
								c0.436-0.268-0.083-0.438,8.953-1.214c8.061-1.05,12.726-1.877,13.577-2.346c0,0,3.684-0.236,7.368-0.417
								c3.684-0.191,7.369-0.318,7.369-0.318c0.8-0.29,5.742-0.75,11.978-1.144c6.236-0.398,13.764-0.706,19.726-0.911
								c1.452-0.25-9.619-0.208-14.133,0.197c0.873-0.428,13.563-1.09,21.729-1.234c1.507,0.437,14.865,0.151,26.643,0.085
								c11.778-0.082,21.973-0.043,17.151,0.524c18.319-0.073,40.347-0.162,60.816-0.244c20.472-0.016,39.387-0.051,51.479-0.196
								c7.975,0.308,24.228,0.4,14.485,0.811c29.494,0.147,44.712-0.78,73.988-0.372c2.422,0.134-13.234-0.055-12.196,0.275
								c19.139-0.3,34.813,0.584,64.503,0.461c-4.993-0.003-6.452,0.191-7.147,0.289c-0.518-0.162,12.164-0.282,19.844-0.406
								c4.313,0.103-5.749,0.092-3.328,0.227c14.332,0.161,27.813,0.288,40.863,0.2c13.049-0.199,25.667-0.392,38.275-0.585
								c25.217-0.449,50.391-1.181,78.915-1.392c-8.146,0.069-13.758,0.272-17.352,0.507c-3.595,0.234-5.175,0.48-5.26,0.614
								l15.957-0.151c6.146-0.378,18.129-0.486,28.148-0.818c1.23,0.11,6.105,0.197,1.135,0.395
								c7.885,0.127,14.889-0.059,21.624,0.043c6.723,0.128,13.13,0.454,19.741,1.182c6.605,0.74,13.437,1.827,20.853,4.031
								c3.695,1.139,7.553,2.537,11.435,4.719c1.924,1.119,3.877,2.417,5.635,4.222c0.858,0.926,1.703,1.935,2.336,3.187
								c0.626,1.242,1.063,2.687,1.081,4.214c0,0-0.023-0.228-0.067-0.655c-0.027-0.212-0.044-0.479-0.104-0.78
								c-0.08-0.296-0.172-0.636-0.275-1.017c-0.475-1.492-1.608-3.396-3.378-5.015c-3.522-3.298-9.071-5.836-14.715-7.626
								c-5.66-1.792-11.45-2.928-15.805-3.599c-2.177-0.342-3.998-0.567-5.271-0.727c-1.275-0.143-2.004-0.224-2.004-0.224
								s2.861,0.495,5.697,1.105c2.839,0.595,5.64,1.334,5.64,1.334c0,0-0.315-0.061-0.868-0.167
								c-0.555-0.095-1.347-0.229-2.297-0.392c-1.902-0.309-4.445-0.678-6.997-0.96c-5.102-0.595-10.225-0.847-10.225-0.848
								c6.086,0.671,11.758,1.365,16.078,2.063c4.321,0.688,7.278,1.378,7.932,1.786c-2.521-0.554-8.618-1.792-8.863-1.528
								c5.745,1.133,8.798,1.908,11.504,2.577c2.688,0.717,5.069,1.277,9.125,2.933c-10.783-4.182-27.897-6.982-45.198-7.367
								c-4.325-0.119-8.657-0.047-12.967,0.027c-4.297,0.065-8.519,0.13-12.579,0.192c-8.123,0.131-15.604,0.252-21.765,0.352
								c-3.877,0.114,3.316-0.27,4.002-0.378c-10.056,0.127-16.093-0.143-28.751,0.184c-7.857,0.512,6.002,0.238,12.241,0.215
								c-0.855,0.372-3.995,0.389-10.942,0.523c-1.516-0.479-38.147,0.286-47.111-0.244c-37.137,0.42,5.95,1.222-30.309,1.27
								l-10.833-0.48c-2.632,0.066-5.359,0.135-8.164,0.206c-2.807,0.036-5.69,0.074-8.634,0.112
								c-5.887,0.054-12.011,0.111-18.22,0.168c-12.421,0.081-25.192,0.094-37.091-0.026l5.017,0.006
								c3.345-0.223-2.175-0.396-4.618-0.531c-17.989-0.326-34.162,0.274-45.058-0.337c-20.524,0.494-54.736,0.769-78.196,0.962
								c-6.327-0.768,30.605-0.477,40.37-0.89l-21.356-0.101c13.202,0.055,18.416-0.201,26.332-0.582
								c-18.716-0.228-24.875,0.388-42.619,0.489c1.381-0.194-0.987-0.329-9.172-0.374l-2.325,0.478
								c-0.151-0.041-1.056-0.082-3.583-0.125l-31.57,0.146c6.699,0.242,7.023,0.669,15.177,0.714
								c-2.912-0.299,4.006-0.322,12.167-0.275c-7.151,0.285,7.958,0.308,7.784,0.571c-16.361-0.092-36.463-0.124-47.189-0.042
								l-3.487-0.458c-15.609-0.104-32.081,0.063-42.653-0.084l3.334-0.232c-18.707-0.188-37.105,0.136-53.688,0.027
								c-8.321,0.424-17.71,0.935-26.696,1.59c-8.985,0.66-17.564,1.469-24.283,2.314c-3.574,0.615-15.702,1.428-29.043,3.461
								c-6.668,1.011-13.635,2.331-19.94,3.988c-6.315,1.625-11.96,3.582-16.075,5.468c-0.574,0.206,2.244-1.1,6.067-2.505
								c3.809-1.431,8.629-2.914,11.657-3.785c-5.969,1.443-11.16,3.242-15.249,4.859c-4.099,1.608-7.103,3.021-8.923,3.575
								c6.103-2.868,9.319-3.828,10.537-4.354c1.25-0.468,0.61-0.327-0.482-0.043c-2.152,0.622-6.105,1.87-0.357-0.373
								c-3.013,1.102-6.021,2.321-8.868,3.662c-2.83,1.367-5.524,2.809-7.907,4.332c-4.784,3.03-8.31,6.298-10.256,8.563
								c0.43-0.444,0.828-0.854,1.196-1.235c0.375-0.375,0.751-0.692,1.08-0.998c0.66-0.609,1.215-1.098,1.702-1.462
								c0.955-0.746,1.469-1.155,1.74-1.288c0.524-0.286-0.146,0.296-0.745,0.928c-0.613,0.619-1.221,1.221-0.72,0.866
								c0.524-0.327,1.994-1.783,6.25-4.559c-3.276,2.186-6.596,4.86-9.549,8.063c-2.984,3.18-5.452,6.984-7.163,11.187
								c-0.828,2.115-1.461,4.328-1.907,6.603c-0.38,2.29-0.68,4.618-0.671,6.988c-0.043,1.129-0.008,2.483,0.002,3.764
								c0.012,1.291,0.024,2.577,0.037,3.857c0.015,2.559,0.03,5.09,0.044,7.576c-0.267-0.193-0.357,2.26-0.369,9.674l0.461,5.976
								c0.053,9.307-0.69-17.988-0.58,0.747c0.851,19.266,0.576,58.058,1.905,66.475c-0.215,14.701-0.97-27.949-1.17-5.795
								c-0.657-12.874-0.459-30.652-1.136-34.889c0.388,12.623-0.433,4.617-0.299,12.763l0.613,14.076l-0.03-3.115
								c0.472,11.81,0.842,27.076,1.18,43.163c0.336,16.086,0.689,32.992,1.004,48.081c1.146,25.549,2.412,43.13,2.994,73.797
								c-0.542-9.046,0.177,25.477-0.873,6.185c-0.013,7.099,0.146,14.148,0.342,19.458c0.195,5.31,0.428,8.878,0.563,9.016
								c-0.165-12.488-0.005-4.393-0.09-14.912c0.46,7.093,0.797,23.456,0.703,30.184c-0.034-3.117-0.074-1.931-0.186-2.616
								c0.058,14.914,0.449,7.14,0.779,17.912c-0.394,3.427,0.336,23.793,0.244,33.638l0.852,14.261
								c-0.537-7.835,0.051,13.678-0.302,15.933c0.466,10.229,1.068,18.805,1.114,34.395c-0.286-6.437-0.169,14.225-0.592,14.5
								c-0.034,13.346,0.247,24.396,0.578,35.271c0.292,10.875,0.66,21.574,0.287,34.219c-0.098-0.786-0.366-5.89-0.491,1.502
								c0.105,5.821,0.03,16.014,0.062,22.243l-0.011-0.196c0.004,0.121,0.007,0.196,0.011,0.324
								c0.016,3.051,0.064,4.969,0.167,5.045c0.421,10.663,0.734,16.164,0.879,37.156c0.504-1.535,0.502-19.258,0.427-26.932
								l-0.457-6.634c0.751-6.332-0.082-18.925,0.178-23.749c0.407,6.295,0.57,18.508,0.618,31.866
								c-0.021,13.36-0.095,27.865,0.055,38.746c0.799-13.254,1.323-42.117,1.204-67.293l-0.319,11.088l0.022-13.173l-0.55,12.748
								c0.116-12.478,0.026-23.264,0.059-34.539c0.001,13.202-0.701,18.345-0.571,10.875c0.533-14.713-0.344-15.329-0.341-26.572
								c-0.016,6.26,0.013,14.399-0.29,9.152c0.462-22.17,0.124-28.158,0.561-48.32c-0.788,2.506-0.343-25.185-1.04-28.197
								l0.029,9.354l-0.697-19.833c0.402-18.313,0.916,16.196,0.976-11.661c-0.313-25.702-1.121-25.026-1.537-45.227
								c0.625,6.646,1.252,22.665,1.489,38.969l0.085-9.876c0.346,5.219,0.669,27.773,0.718,39.032
								c-0.746-18.597-0.08,8.707-0.425,17.175c0.483,1.551,0.286-10.393,0.806,3.707c-0.146-13.213-0.205-15.145-0.204-31.954
								c0.083,18.167,0.572,26.33,1.032,33.917c0.23,3.794,0.454,7.443,0.615,12.127c0.145,4.684,0.205,10.403,0.145,18.334
								c-0.278-14.621-0.649,5.103-0.867,6.862c0.1,6.88,0.303,20.836,0.386,26.576l0.668-5.197
								c0.281,18.486-1.186,24.904-0.535,46.239c0.396,2.774,0.182-18.765,0.25-14.927c0.088,7.299,0.085,13.43,0.021,18.925
								c-0.102,5.496-0.27,10.357-0.459,15.115c-0.383,9.517-0.877,18.62-1.269,31.575c0.189,1.469,0.627,1.173,0.798,10.245
								c-0.348-2.854-0.688,3.851-0.781-6.354c-0.344,8.662-0.253,18.934-0.248,26.582c0.598-18.036,0.433,7.394,0.608,10.725
								c-0.256,9.345-0.347-2.858-0.348-8.61c-0.273,7.501-0.999,16.4-0.546,20.676c-0.109,0.071-0.191-1.206-0.255-3.379
								c-0.083-2.172-0.152-5.24-0.202-8.752c-0.1-7.023-0.125-15.819-0.041-22.773l-0.256,9.372
								c-0.088-6.462-0.003-7.669,0.25-16.973c-0.512,9.103-0.858,8.196-1.119,6.069c0.086-1.192,0.087,0.666,0.171-0.473
								c0.258-7.489,0.256-13.238-0.004-11.505c-0.437-6.744-0.566,10.384-0.952,15.452c-0.039,3.837-0.077,7.673-0.114,11.434
								c0,0,0.258,9.74,0.516,19.48c0.161,9.743,0.322,19.486,0.322,19.486c-0.148,8.318-0.389,14.344-0.675,19.849
								c-0.158,2.752-0.308,5.375-0.463,8.09c-0.187,2.714-0.379,5.52-0.593,8.638l0.345,3.447
								c-0.664,14.465-1.399,28.107-1.627,18.809c0.186-0.514,0.228-2.425,0.385-5.564c-0.049-0.418-0.065-1.145-0.065-2.06
								c-0.023-0.303-0.036-0.471-0.055-0.721c-0.499,15.497-0.81,25.171-0.838,26.063c0.429-26.332-0.828-1.354-1.506-5.798
								c0,0-0.053,1.66-0.132,4.151c-0.109,2.489-0.255,5.809-0.4,9.128c-0.297,6.639-0.595,13.277-0.595,13.277
								c1.168-16.072,0.441-0.271,0.243,5.446c-0.198,0.532-0.4,3.229-0.603,6.913c-0.165,3.498-0.374,7.934-0.575,12.192
								c-0.011,0.456-0.068,0.925,0.127,1.335c0.167,0.413,0.488,0.729,0.813,0.98c0.332,0.249,0.686,0.434,1.025,0.589
								c0.185,0.081,0.306,0.13,0.536,0.219c0.281,0.113,0.584,0.208,0.861,0.308l-0.563-0.085c3.286,1.278,8.988,2.108,14.963,2.43
								c6.005,0.34,12.384,0.268,17.705,0.105c-0.238-0.074,3.026-0.382,7.261-0.767c2.067-0.209,4.73-0.338,6.862-0.441
								c2.219-0.121,4.324-0.235,5.982-0.325c-4.633-0.109-7.329-0.193-9.024-0.265c-1.771-0.053-2.133-0.082-2.023-0.144
								c0.125-0.058,0.808-0.125,1.386-0.191c0.58-0.065,1.079-0.125,0.64-0.207c2.024,0.055,5.372,0.106,5.798,0.05
								c2.642-0.104-3.579-0.234-4.097-0.404c-1.143-0.005-2.696-0.01-3.915,0.033c-1.245,0.04-2.488,0.08-3.728,0.119
								c-2.418,0.074-4.821,0.146-7.183,0.219c-4.689,0.112-9.179,0.135-13.256,0.025c-4.073-0.108-7.739-0.343-10.718-0.697
								c-1.492-0.172-2.811-0.372-3.92-0.58c-0.558-0.102-1.063-0.206-1.51-0.308c-0.406-0.095-0.781-0.182-1.125-0.262
								c0.11,0.069,0.453,0.209,0.685,0.298c0.252,0.103,0.529,0.189,0.791,0.279c0.547,0.167,1.096,0.316,1.664,0.438
								c1.13,0.247,2.288,0.416,3.488,0.553c2.406,0.271,4.981,0.429,8.188,0.725c-3.419-0.041-7.233-0.266-11.044-0.996
								c-0.944-0.186-1.879-0.407-2.755-0.672c-0.225-0.063-0.431-0.136-0.643-0.206c-0.195-0.059-0.47-0.173-0.505-0.183
								c-0.169-0.061-0.334-0.134-0.498-0.219c-0.322-0.171-0.646-0.39-0.86-0.714c-0.236-0.322-0.227-0.744-0.188-1.141
								c0.198-3.489,0.41-7.214,0.635-11.178l0.706-5.319l0.688-16.41c-0.164,6.856,0.494,2.758-0.379,19.972
								c0.508-2.175,0.859-17.07,1.574-27.6l-0.245-5.416c0.219,2.093,1.232-20.468,0.966-4.417c0,0-0.042,1.632-0.104,4.079
								c-0.093,2.446-0.217,5.708-0.342,8.97c-0.25,6.524-0.501,13.049-0.501,13.049l0.774-7.228l-1.119,22.052l0.008-5.218
								c-0.187,3.822-0.339,6.941-0.464,9.496c-0.074,1.277-0.139,2.414-0.198,3.427c-0.032,0.507-0.063,0.981-0.091,1.429
								c-0.01,0.157-0.009,0.119-0.011,0.127l-0.004,0.01l-0.01,0.021c-0.085,0.229-0.049,0.406-0.025,0.545
								c0.03,0.143,0.057,0.273,0.188,0.414c0.022,0.021,0.024,0.024,0.072,0.058c0.108,0.052,0.221,0.106,0.359,0.159
								c0.26,0.111,0.576,0.225,0.943,0.351c0.748,0.243,1.747,0.514,3.128,0.775c2.755,0.525,7.045,1.023,13.758,1.126
								c5.374-0.146,10.987-0.371,18.051-0.625c1.779-0.061,3.623-0.128,5.719-0.16c0.56,0,1.127,0,1.701-0.001
								c0.504,0.006,1.015,0.013,1.532,0.019c1.035,0.014,2.097,0.028,3.188,0.044c4.366,0.081,9.207,0.17,14.663,0.271
								c-15.794-0.068-1.629,0.442-7.579,0.743c16.104,0.495,21.551,0.025,29.911-0.118c4.097,0.404,7.011,0.729-7.377,0.482
								c-1.814,0.705,18.932,0.132,20.232,0.9c47.674,0.628,38.23-1.904,93.942-0.205l-2.092,0.273
								c17.695,0.067,31.645,0.12,45.269,0.172c13.624,0.088,26.92,0.191,43.306,0.162l25.797,0.912
								c-5.77,0.086-21.288,0.577-14.049,0.988c-12.547-0.848-25.868-0.649-39.389-1.142c-1.381,0.195,4.124,0.372,6.521,0.51
								c-8.161-0.052-12.254-0.423-23.033-0.347c0.519,0.163,12.276,0.421,3.413,0.467l-14.659-0.56
								c-9.81,0.061-12.228,0.334-15.074,0.55c-2.846,0.224-6.119,0.383-17.639,0.101c4.289-0.369,13.043-0.849,21.966-0.932
								c-10.528-0.149,14.039-0.181,4.432-0.489c-15.174,0.586-22.491-0.065-42.662,0.063c2.369-0.056,2.997-0.172,7.959-0.143
								l-29.258-0.667c7.235,0.47-24.176,0.078-21.461,0.666c31.183,0.653,22.023,0.195,57.558,0.993
								c-10.062-0.013-23.041,0.37-29.126,0.804c-0.309-0.026-0.822-0.051-1.915-0.075c-5.438,0.471,0.097,0.692-0.02,1.644
								c16.232-0.462,27.073,0.264,46.213,0.107c3.603-0.47-11.096-0.795-20.609-0.799l16.861-0.115l-3.321,0.194
								c0,0,2.674,0.043,6.686,0.108c4.012,0.038,9.361,0.09,14.709,0.141c10.698,0.103,21.396,0.205,21.396,0.205
								c-8.109-0.017-10.865,0.271-15.099,0.476c5.522,0.051,10.99,0.219,16.805,0.401c-1.218-0.505-0.446-0.852,4.94-0.813
								c27.532,0.269,42.835,0.8,52.994,1.425c1.056-0.006,2.248-0.013,3.207-0.018c-4.614-0.536,19.557-0.811,28.089-1.285
								c-0.424,0.525,14.188,0.395,22.123,0.708c4.226-0.583-1.408-1.45-11.068-1.998c-18.617,0.451-10.433,0.501-19.231,1.239
								l-29.866,0.36l6.678-0.447c-14.904-0.295-29.225,0.265-28.127-0.357c7.877-0.376,20.88-0.051,28.696-0.429l-9.857-0.283
								c17.396-0.522,8.913,0.644,29.975,0.328c-7.745-0.576,1.909-0.027,10.931-0.337c-7.24-0.411-37.081-0.05-30.748-0.924
								c10.953-0.337,36.842,1.266,51.333,0.443l-0.709,0.099c10.688,0.145,17.91-0.006,23.46-0.173
								c5.551-0.171,9.43-0.393,13.431-0.566c9.097,0.271,21.654-0.178,31.512-0.236l-0.241,0.265l13.908-0.147
								c-6.621,0.499-16.299,0.03-28.246,0.133l1.486,0.486c-13.772-0.546-22.959,0.363-33.641,0.815
								c15.546-0.467,43.899,0.003,47.549-0.966l9.617,0.47l4.602-0.191c7.166,0.354-0.148,0.956-14.043,1.104
								c-2.414-0.117-3.621-0.176-2.89-0.279c-6.448,0.236-12.37,0.633-27.977,0.562l8.327-0.282
								c-19.431-0.004-37.096,0.303-43.75,0.692c7.013,0.113,13.997,0.114,20.94,0.13c6.942,0.006,13.844,0.012,20.691,0.019
								c13.696-0.027,27.178-0.055,40.349-0.08c7.767-1.13,16.982-1.777,20.938-2.818c17.671-0.237,41.661-0.443,57.012-0.106
								l-1.409,0.206c7.49,0.109,14.391-0.039,20.145-0.218c7.914,0.185-5.411,0.604,0.104,0.69l25.309-0.62
								c-1.558,0.483-22.856,0.716-32.971,0.858c1.908-0.06,5.762-0.179,4.524-0.228c-5.884-0.009-14.304,0.177-21.897,0.275
								c-7.593,0.11-14.358,0.158-16.932-0.172c-5.732,0.133,11.643-0.529-7.765-0.513c-12.996-0.22-17.225,0.397-18.582,0.604
								c-0.21,0.266,20.397,0.308,13.248,0.646c10.115-0.061,14.141-0.412,27.078-0.191c-10.024,0.059-23.637,0.631-28.979,0.234
								c-19.82,0.546-16.974,1.778-7.626,1.822c-2.227-0.383,36.16-0.576,10.164-1.013c11.674-0.553,33.006-0.544,48.277-0.993
								l-0.693,0.107l18.961-0.33c-2.669,0.168-8.4,0.348-8.587,0.612l26.257-0.992c-14.778,0.636,9.167,0.231,15.897,0.368
								c2.81-0.435,13.063-0.842,3.219-0.967c-11.067-0.173-6.438,0.288-16.5,0.429l14.241-0.792l1.223,0.05l8.569-0.615
								c19.406-0.173-8.464,1.304,16.396,0.525l-3.243-0.677c14.395-0.104,30.836-0.055,46.223-0.05
								c7.692-0.017,15.121-0.033,21.898-0.048c6.778-0.048,12.945-0.08,17.782-0.389c-2.68,0.319-4.666,0.619-5.009,0.889
								c-0.351,0.261,0.968,0.521,4.72,0.567c-2.132,0.054-4.811,0.111-7.881,0.139c-3.082,0.027-6.5,0.059-10.037,0.09
								c-7.076,0.096-14.628,0.197-20.918,0.282c-2.423-0.099,15.707-1.011,29.376-1.005c-6.639-1.093-34.368,1.075-35.991-0.088
								c-34.826-0.034-25.962,1.418-55.528,1.046c-0.401,0.531-8.399,0.349-9.949,0.829c8.759,0.766,39.517-0.457,58.7-0.363
								c-1.877,0.059-5.655,0.178-6.394,0.286c13.715,0.006,19.379-0.173,28.955-0.472l-1.208-0.05
								c16.73-0.695,10.362,0.281,20.217,0.406c1.915-0.057,6.278-0.087,9.812-0.245c3.543-0.15,6.244-0.473,5.185-0.574
								c0-0.001,1.068-0.043,2.619-0.183c0.795-0.046,1.651-0.186,2.604-0.293c0.477-0.054,0.917-0.161,1.395-0.24
								c0.477-0.08,0.952-0.169,1.39-0.288c0.486-0.106,0.803-0.227,1.179-0.327c0.274-0.094,0.519-0.171,0.76-0.285
								c0.479-0.21,0.903-0.481,1.206-0.783c0.304-0.3,0.489-0.615,0.578-0.848c0.095-0.23,0.129-0.371,0.129-0.371
								c0.002,0.019-0.682,0.184-0.687,0.163c0.096-0.263,0.145-0.527,0.16-0.78c0.019-0.278,0.014-0.378,0.012-1.018
								c0.001-1.024,0.002-1.955,0.003-2.822c0.014-1.734,0.026-3.213,0.038-4.662c0.02-2.898-0.001-5.688-0.225-10.183l-0.53-0.433
								c0,0,0.015,6.134,0.029,12.267c0.004,1.533,0.008,3.065,0.011,4.503c0.001,0.657,0.002,1.294,0.003,1.896
								c-0.004,0.243-0.027,0.473-0.078,0.678c-0.229,0.84-0.825,1.117-0.795,1.121c0.446-0.352,0.634-0.787,0.688-1.127
								c0.058-0.356,0.017-0.587-0.012-0.827c-0.068-1.126-0.134-1.603-0.198-2.117c-0.129-1.029-0.251-2.211-0.373-9.03
								c0.727,15.276,0.186-10.759,0.659-12.261c0,0-0.091-2.523-0.182-5.048c-0.058-2.566-0.115-5.133-0.115-5.133l0.124,2.626
								c0.321-8.056-0.136-9.593-0.007-18.995c-0.182,5.543-0.377,10.131-0.491,15.1c-0.054,2.479-0.102,5.075-0.091,7.895
								c0.041,2.775,0.118,5.808,0.245,9.263c-0.087-2.514-0.195-5.646-0.312-9.005c-0.047-3.434-0.098-7.1-0.146-10.602
								c-0.051-7.016-0.097-13.371-0.115-15.876c-0.084-10.803,0.483-18.327,0.705-28.424c-0.062,9.691,0.367,8.001,0.68,8.742
								c0.156,0.37,0.284,1.348,0.308,4.658c0.011,1.655-0.004,3.894-0.054,6.931c-0.053,3.039-0.119,6.878-0.203,11.731
								c-0.097-0.719-0.054-3.865,0.016-5.082c-0.353,2.586-0.379,8.411-0.292,14.642c0.099,6.217,0.249,12.907,0.462,16.992
								c0.184-1.063,0.32,0.569,0.421,0.635c0.05,0.032,0.09-0.327,0.122-1.613c0.024-1.298,0.066-3.529,0.135-7.232
								c-0.267,4.901-0.811-12.586-0.348-26.787l0.786,2.511l0.454-20.659l0.006,1.934c0.638-7.764,0.353-22.034,0.983-36.244
								c-0.031-5.132,0.234-17.532,0.353-26.536c0.093-9.002,0.014-14.604-0.561-6.154c0.729-12.731,0.327-23.93,0.248-37.816
								c0,0-0.112,4.328-0.225,8.656c-0.095,4.327-0.263,8.658-0.262,8.658c-0.389-20.478-0.097-14.579-0.919-30.955
								c0.223-1.654,0.363-5.3,0.638-1.979c-0.052-6.865-0.109-14.466-0.168-22.257c-0.063-7.789,0.006-15.876-0.021-23.547
								c-0.011-7.677-0.043-15.029-0.116-21.416c-0.073-6.368-0.186-11.837-0.355-15.86c0.014-9.675,0.283-15.26,0.462-21.854
								c0.148-6.615,0.238-14.207-0.061-27.86c-0.161-5.752-0.74,4.489-0.643-13.598c0.052-1.217,0.75,17.407,0.528-2.73
								c-0.753-14.291,0.098-33.544-0.614-52.154c0.141-9.845-0.101-26.918,0.436-23.368c0.03,15.597,0.328,37.637,0.588,40.968
								c-0.32-2.141-0.208,11.061-0.532-0.391c-0.198,23.503,0.432,15.24,0.336,36.335c0.214,1.446,0.474-10.848,0.258-15.365
								c0.688-0.136,0.658,41.647,1.338,22.854c-0.116-22.589-1.605-29.228-1.032-48.773c0.48,7.822,0.221,20.067,1.022,30.009
								l0.151-16.054l-0.589-11.644l0.107,0.691c0.398-28.376-0.94-26.247-1.511-51.652c-0.345,14.731-1.226-3.392-1.419,7.691
								c-0.241-17.001-0.263-29.487,0.426-29.605c0.85,31.794,0.746,1.8,1.699,31.186c0.203-4.828,1.072,6.983,0.99-10.53
								c-0.671-19.728-0.521,5.91-0.927-13.769c0.051-1.164,0.103-2.372,0.21-1.686c-0.44-9.049,0.033-10.563-0.462-21.514
								l0.162,2.596c0.296-13.507-0.608-14.773-0.258-26.4c-0.222,2.326-0.386,0.373-0.436-3.06
								c-0.063-3.433-0.096-8.348-0.237-11.952c-0.113,5.891-0.41,10.429-0.585,16.404c-0.148,5.976-0.255,13.387-0.129,25.017
								c0.43,2.807,0.64,1.107,0.921,10.657l-0.186-15.116c0.123,3.261,0.218,5.745,0.331,8.734l-0.078,14.521
								c-0.456-18.406-0.813-9.961-1.305-17.783c0.025-16.85-0.236-13.903-0.2-24.5c0.487,1.06,1.149-32.472,1.605-51.86
								c-0.022,3.011-0.052,6.898-0.068,8.996c0.305,14.084,0.544-9.689,0.71-10.209l-0.245-10.265
								c0.03,1.933,0.155,4.604,0.262,0.228c-0.041-13.895-0.634-13.09-0.675-26.963c0.332-1.039,0.77,10.692,0.984,2.067
								c0.313-2.97,1.076-12.439,0.94-30.864c-0.116-1.306-0.149-6.083-0.16-11.62c0.012,0.77,0.018,1.735,0.038,2.083l0.451-12.234
								c0.477,10.43-0.427,21.084,0.053,31.568l0.522,0.895c-0.04,8.157,0.135,19.236,0.384,24.331
								c0.158-12.434,0.013-15.054-0.001-28.96c0.349-1.944,0.523,7.851,0.561,9.263l-0.292-2.078
								c-0.522,16.582,0.384,24.797,0.182,45.44c-0.037,3.116-0.066,1.214-0.164,0.52c0.43,16.714-0.356,33.108,0.24,49.353
								l-0.253-5.297c0.046,2.765,0.104,6.191,0.169,10.111c0.07,3.92,0.252,8.335,0.394,13.079
								c0.309,9.487,0.66,20.292,1.012,31.094l0.208,0.172c0.103-2.4,0.169,5.709,0.124,10.062l-0.003-0.023
								c0.337,10.828,0.661,21.234,0.927,29.747c0.103-2.725,0.178-6.21,0.172-10.208c-0.273-3.383-0.254-23.235-0.779-20.507
								c0.249-9.174-0.361-23.946-0.214-30.683c-0.242,12.273-0.597-8.543-0.919-10.693c0.157-2.063,0.103-6.61,0.085-10.44
								c0.027-3.831,0.066-6.944,0.296-6.141c0.154-2.422-0.392,6.028-0.019,11.248c0.276,6.426,0.316,0.543,0.363-4.945
								c0.121-5.489,0.236-10.583,0.403-2.575c-0.226-20.368,0.052-47.208-0.273-68.221l-0.25,11.761
								c0.115-9.339,0.122-31.444,0.356-33.095c0.006,6.941,0.014,15.051,0.022,23.931c0.524,0.433,0.104-21.334,0.435-22.32
								l-0.711-25.794l-0.117,11.295c-0.265-7.118,0.305-30.73,0.515-48.234c0.644,10.047-0.187,26.408-0.039,44.828
								c0.171,13.379,0.76-8.256,0.836,4.406c0.192-3.281,0.237-11.543,0.087-15.619l0.17-4.994
								c0.546,11.303,0.259,36.619,0.75,53.472c-0.063-1.479-0.131-2.769-0.205-3.237c-0.319,12.972-0.375,26.15-0.265,38.801
								c0.241-6.69,0.113-9.338,0.057-13.163c0.164-0.475,0.175,11.466,0.332,15.984c0.25-11.766,0.397-2.194,0.543-9.638
								c0.118,7.664,0.041,13.871-0.074,23.208c-0.272,4.842-0.321-4.005-0.65-3.018c0.073,4.809-0.09,8.312-0.233,12.373
								c-0.124,4.06-0.32,8.681-0.035,15.714c-0.014-4.679,0.04-6.71,0.127-7.024c0.081-0.314,0.149,1.089,0.271,3.278
								c0.227,4.377,0.492,11.899,0.63,15.122l-0.005-3.136c0.435,5.932,0.496,10.967,0.184,15.07
								c-0.225-7.659-0.184-15.07-0.552-12.89c0.063,5.059,0.124,10.103,0.293,15.832l-0.326-5.208l0.309,25.144
								c0.377,3.978,0.92,10.621,1.455,14.097c-0.255,6.034,0.079,14.428,0.249,20.146l-0.166-2.659
								c-0.097,5.548-0.025,14.483,0.104,22.303c0.123,7.834,0.313,14.539,0.472,15.581c-0.199,7.923-2.379-56.076-1.645,0.021
								c0.17,21.336,1.069,13.281,1.498,25.464c0,0-0.104-0.688-0.158,0.522c0.003,9.333,0.377,10.248,0.592,17.902
								c0.103-5.584,0.046-13.66-0.113-16.278c0.425,2.813,0.115,19.385,0.489,26.516c-0.694-9.247-0.098,17.991-0.473,10.813
								c-0.098,9.236-0.097,18.882,0.034,27.405c0.131,8.524,0.368,15.947,0.598,20.841c-0.768,12.554,0.073,21.956-0.229,42.347
								c-0.031-3.168-0.114-8.813-0.039-13.195c-0.495-11.592-0.262,21.087-0.713,3.241c0.077,3.818,0.263,0.267,0.186-3.648
								c-0.056-6.847-0.273-13.297-0.499-11.575l-0.438,16.597l-0.119-5.792c0,0-0.146,6.304-0.291,12.607
								c-0.089,6.33-0.178,12.661-0.178,12.661c0.105,0.688,0.206-1.688,0.256-2.906c0.013,3.67,0.024,7.406,0.037,11.185
								c0.012,1.889,0.024,3.789,0.037,5.696c-0.015,1.906-0.029,3.819-0.044,5.738c-0.042,7.673-0.084,15.421-0.126,23.056
								c-0.219,15.259-0.396,30.066-0.76,42.896c0.644,2.429,0.435,18.229,0.114,36.002c-0.117,8.883-0.24,18.263-0.351,26.717
								c-0.104,8.454,0.044,15.971,0.199,21.146c-0.365-5.549-1.054-8.592-1.366-5.159c-0.015-2.309-0.147-5.828-0.255-10.079
								c-0.071-4.254-0.089-9.24,0.058-14.478c0.253-1.67,0.73-14.605,0.843-6.272c0.398-28.964-0.701,3.909-1.053-4.649
								c-0.104,8.023-0.151,15.218-0.164,21.813c-0.008,6.595,0.128,12.586,0.208,18.208c0.051,2.811,0.1,5.529,0.147,8.184
								c0.045,2.65,0.093,5.239,0.197,7.844c0.158,5.188,0.312,10.234,0.469,15.37l-0.16,0.509c0,0,0.116,3.883,0.231,7.766
								c0.015,0.485,0.028,0.972,0.043,1.449c-0.002,0.669-0.024,1.356-0.125,1.993c-0.173,1.287-0.614,2.434-1.136,3.329
								c-0.519,0.903-1.131,1.528-1.553,1.961c-0.438,0.418-0.715,0.632-0.715,0.632c1.814-1.392,2.863-3.177,3.323-4.778
								c0.234-0.803,0.353-1.561,0.416-2.248c0.028-0.325,0.049-0.716,0.058-0.937c0.009-0.209,0.018-0.406,0.025-0.589
								c0.068-1.462,0.161-2.054,0.252-1.738c0.045,0.158,0.09,0.543,0.13,1.159c0.017,0.308,0.035,0.674,0.058,1.099
								c0.014,0.16,0.006,0.572-0.003,0.924c-0.023,0.364-0.039,0.753-0.102,1.156c-0.196,1.605-0.867,3.579-2.478,5.307
								c-0.789,0.871-1.816,1.64-3.011,2.308c-0.597,0.339-1.242,0.637-1.925,0.912c-0.357,0.153-0.65,0.248-0.96,0.353
								c-0.309,0.102-0.622,0.204-0.94,0.308c0,0,0.613-0.221,1.228-0.442c0.287-0.098,0.668-0.274,0.918-0.384
								c0.259-0.118,0.431-0.196,0.431-0.196c-0.399,0.165-0.857,0.36-1.254,0.495c-0.388,0.126-0.787,0.256-1.198,0.39
								c-0.759,0.205-1.538,0.431-2.328,0.573c-1.603,0.353-3.285,0.608-5.045,0.818c-3.517,0.414-7.333,0.616-11.262,0.745
								c-3.933,0.13-7.936,0.185-11.897,0.256c-3.959,0.052-7.849,0.104-11.44,0.15l-9.736,0.563
								c-14.392,0.104-15.021-0.742-19.706-1.202c-22.556,0.184-35.572,1.024-51.589,1.612c-7.249-0.293-41.033-0.016-23.138-0.66
								c-10.171,0.274-14.226,0.898-20.102,1.363c-5.875,0.446-13.571,0.83-31.023,0.287l9.054-0.383
								c-33.363,0.164-80.944,1.005-96.318,0.668c12.307-1.321-41.674-1.2-47.604-2.448c1.652,0.273-10.882,0.438-12.708,0.549
								c-2.747-0.163-7.319-0.332-12.172-0.098c13.009,0.323-9.148,1.267,15.725,0.883c-12.588,0.808-28.808,1.389-56.385,1.196
								l0.417-0.525l21.817,0.28c-2.202-0.401,9.027-0.311,13.631-0.465c-40.584-0.519,5.316-1.205-36.173-1.363
								c-4.008,0.319-1.412,0.193-12.196,0.27c5.071,0.01,5.986-0.349-2.186-0.399l-7.851,0.377
								c-14.483-0.958,23.984-0.44,11.627-1.126c16.022-0.326,43.768-0.396,38.601-1.097c-26.158-0.387-23.539,1.132-50.891,0.676
								l-2.911-0.303c-9.622,0.143-11.179,0.599-16.448,0.85c-0.474-0.166-2.918-0.301-9.098-0.382
								c-16.251,0.588-27.035,0.662-42.029,1.319c39.895-0.336,34.099,0.702,75.275,0.433c-6.453,0.184-35.44,0.186-37.227,0.903
								l0.389-0.525c-13.39,0.201-26.772,0.398-43.585,0.133l10.266-0.24c-5.572,0.059-10.673,0.034-15.465-0.047
								c-4.791-0.135-9.274-0.26-13.61-0.382c-8.672-0.255-16.756-0.438-25.553-0.118c6.21,0.132,11.251,0.184,15.085,0.156
								c-11.473,0.079-25.863-0.17-38.328-0.43l-25.805,0.52c0.23-0.259-16.115-0.498-8.223-0.808
								c-18.565-0.655-27.33,0.012-38.063-0.004c-19.007-0.819,16.478-0.025,18.353-0.729c-13.098-0.301-26.59-0.49-38.656-0.571
								c-1.481-0.006-2.94-0.013-4.375-0.019c-1.37,0.017-2.804,0.067-4.198,0.115c-2.823,0.098-5.528,0.19-8.086,0.278
								c-5.146,0.157-9.74,0.213-13.54,0.178c5.478,0.304,8.107,0.344,7.833,0.484c-0.404-0.086-3.29-0.115-6.856-0.247
								c-3.563-0.122-7.82-0.398-10.918-0.786c0,0-1.081-0.058-2.161-0.115c-1.086-0.07-2.194-0.186-2.194-0.186
								c-2.634-0.533-4.583-1.141-5.847-1.627c-1.176-0.448-2.091-0.924-1.895-0.898c0.072,0.001,0.35,0.095,0.83,0.247
								c0.412,0.132,0.909,0.277,1.573,0.463c1.31,0.356,3.14,0.78,5.374,1.117c-1.319-0.251-2.687-0.541-4.115-0.927
								c-0.712-0.188-1.445-0.416-2.191-0.668l-0.591-0.215c-0.241-0.091-0.482-0.183-0.72-0.285
								c-0.48-0.196-0.951-0.416-1.413-0.654c-1.863-0.925-3.562-2.226-4.748-3.945c-0.594-0.855-1.027-1.83-1.274-2.844
								c-0.272-1.006-0.226-2.078-0.256-3.145c0.064-1.452,0.129-2.904,0.193-4.351c0.065-1.214,0.13-2.422,0.194-3.62
								c0.146-2.395,0.329-4.746,0.571-7.011c-0.083,2.271-0.169,4.631-0.257,7.03c-0.124,2.614-0.25,5.273-0.376,7.924l0.018,1.756
								c0.021,0.288,0.062,0.57,0.093,0.854c0.064,0.28,0.111,0.564,0.189,0.841c0.309,1.109,0.86,2.147,1.571,3.043
								c1.421,1.805,3.435,3.057,5.529,3.959c0.262,0.116,0.526,0.22,0.792,0.322c0.233,0.088,0.427,0.168,0.637,0.238
								c0.412,0.143,0.822,0.284,1.222,0.403c0.806,0.253,1.588,0.453,2.357,0.643c1.534,0.363,3.001,0.631,4.405,0.848
								c5.606,0.837,10.24,0.988,13.302,1.02c-7.278-0.201-13.092-0.76-18.316-2.104c-0.654-0.17-1.301-0.361-1.942-0.57
								c-0.318-0.098-0.642-0.223-0.958-0.333c-0.318-0.113-0.613-0.235-1.043-0.408c-1.583-0.659-3.031-1.481-4.237-2.501
								c-1.202-1.015-2.172-2.25-2.729-3.65c-0.285-0.696-0.463-1.427-0.529-2.159c-0.083-0.729-0.007-1.491-0.018-2.229
								c0.23-2.893,0.458-5.76,0.703-8.839c0.213-2.87,0.441-5.939,0.7-9.43c0.479-6.983,0.986-15.662,1.536-27.826
								c0.191-0.512,0.116,6.662,0.567-1.482c0.676-18.888-0.496-4.966-0.626-10.88c-0.193,7.271-0.421,12.595-0.78,17.147
								c-0.333,4.554-0.703,8.341-1.153,12.543l-0.063-3.89c0.177-0.579,0.691-9.696,0.979-12.375l-0.436-2.375
								c0.583,1.115,1.679-13.462,1.932-24.948c-0.947,11.576-0.791,8.444-1.638,11.566c0-16.159,1.456-18.174,1.47-36.284
								c0.181,1.363-0.366,17.154,0.376,3.52c0.419-11.296-0.149-9.808-0.063-17.389c0.26,8.551,0.718,6.372,1.051,15.646
								c-0.787,20.07-0.351,8.094-0.956,27.72l1.146-16.587c-0.637,17.009,0.072,12.392,0.213,13.801
								c0.882-14.512,0.917-19.994,0.846-24.18c-0.099-4.188-0.322-7.083,0.037-16.429c-0.083-9.023-0.612,17.509-0.555,3.398
								c0.612-17.478-0.219-3.997,0.155-23.622l0.139,3.292c0.479-5.989,0.328-11.928,0.419-18.869
								c-0.006-7.637-1.989,8.597-1.396-22.782c0.115,1.54,0.196,2.106,0.257,2.107c0,0,0.944,7.679,1.889,15.357
								c0.975,7.683,1.816,15.369,1.816,15.369c0.283-7.952,0.377-16.214,0.583-24.701c0.193-8.489,0.391-17.208,0.593-26.084
								c0.297-17.755,0.605-36.14,0.914-54.569c0.954-8.678,0.462,26.317,0.859,24.066l-0.354,16.814
								c-0.354-0.948,0.261-35.232-0.542-20.053c-0.042,7.423-0.079,13.833-0.112,19.711c-0.048,5.879-0.105,11.227-0.221,16.525
								c-0.19,10.6-0.315,21.009-0.222,35.1c0.518-4.364,0.665-13.641,0.812-24.113c0.086-5.235,0.178-10.771,0.266-16.142
								c0.094-5.371,0.192-10.579,0.413-15.158c-0.142,7.694-0.089,14.192-0.119,20.501c0.268-8.603,0.334-17.51,0.518-26.712
								c0.158-9.203,0.321-18.702,0.488-28.492l-0.197-4.4c-0.158,13.196-0.385,22.325-0.411,23.502
								c0.31-17.496-0.17-32.258-0.796-33.422l-0.03,3.108l-0.181-6.322C20.839,579.144,20.889,575.039,20.939,570.958z
								 M621.244,10.192c-1.063,0.069-1.899,0.147-2.518,0.241C619.367,10.335,618.649,10.283,621.244,10.192z M82.524,849.227
								c-5.839-0.106-11.689-0.213-17.532-0.318c-5.916,0.027-11.686,0.233-17.473,0.179c-5.769-0.043-11.511-0.229-17.107-0.87
								c-2.79-0.331-5.558-0.766-8.162-1.495c-0.653-0.177-1.285-0.389-1.907-0.608c-0.614-0.233-1.088-0.43-1.613-0.696
								c-1.001-0.525-1.984-1.188-2.573-2.17c0.504,0.895,1.318,1.562,2.184,2.076c0.432,0.267,0.89,0.485,1.35,0.7
								c0.453,0.197,1.034,0.43,1.563,0.61c2.175,0.754,4.432,1.248,6.617,1.644c4.387,0.766,8.529,1.129,12.157,1.39
								c7.266,0.491,12.516,0.568,14.381,0.745c1.867,0.146,0.364,0.373-5.843,0.518c-3.103,0.05-7.385,0.098-13.006-0.214
								c-2.809-0.17-5.957-0.415-9.437-0.99c-1.738-0.292-3.562-0.662-5.44-1.247c-1.815-0.587-4.006-1.409-5.606-2.977
								c0,0-0.223-0.195-0.505-0.538c-0.28-0.341-0.626-0.832-0.828-1.391c-0.207-0.553-0.318-1.143-0.308-1.585
								c-0.013-0.442,0.005-0.74,0.005-0.74c-0.044,0.596-0.062,1.224,0.086,1.856c0.141,0.633,0.432,1.256,0.846,1.817
								c0.841,1.119,2.098,1.994,3.517,2.676c1.464,0.699,2.909,1.163,4.478,1.568c1.559,0.403,3.188,0.712,4.864,0.967
								c6.709,0.999,14.143,1.175,21.318,1.12c2.905-0.111,7.418-0.379,12.538-0.726c1.28-0.082,2.599-0.17,3.941-0.224
								c1.344-0.04,2.712-0.08,4.088-0.121c2.751-0.083,5.533-0.167,8.222-0.248c5.376-0.176,10.377-0.339,14.009-0.457
								c1.816-0.07,3.289-0.127,4.296-0.166c1.007-0.046,1.547-0.079,1.497-0.098c-4.098-0.404-10.086-0.105-17.545-0.313
								L82.524,849.227z M99.08,851.535c13.224,0.319,10.217,0.003,12.273-0.217c-4.656-0.032-9.304-0.064-13.898-0.096
								C99.212,851.309,100.078,851.408,99.08,851.535z M110.565,851.06c-1.486-0.026-2.753-0.056-3.417-0.098L110.565,851.06z
								 M20.628,684.437c-0.005,0.589-0.007,0.8-0.012,1.358c0.082-3.123,0.163-6.253,0.249-9.52
								C20.799,677.542,20.72,679.956,20.628,684.437z M19.336,711.256l0.358,3.15c0.106-2.911,0.214-5.882,0.325-8.92
								C19.783,706.483,19.572,707.526,19.336,711.256z M14.538,797.39c0.244,5.456-0.741,23.644-0.174,24.794
								c0.097,1.17,0.371-2.653,0.661-6.944c0.282-4.789,0.583-9.903,0.903-15.325c-0.081-0.193-0.106-1.274-0.088-3.078
								c-0.376,5.351-0.73,8.92-0.996,6.731c1.627-13.724,0.034-12.367,0.903-27.244C15.48,771.563,14.654,792.873,14.538,797.39z
								 M732.148,464.176c0.052-0.424,0.182-1.882,0.341-3.93l0.394,10.502c0.009,18.745-0.778,33.754,0.131,50.605
								c-0.134,7.892-0.514,12.123-0.822,16.166c0.011-3.864,0.021-7.479,0.028-10.49
								C730.713,479.758,733.229,502.376,732.148,464.176z M731.648,679.561c-0.006-1.932-0.097-2.627-0.097-2.627
								c0.523,41.865-0.263,76.336-0.564,98.893c0.267-2.184,0.576-8.333,0.862-15.136c0.293-6.804,0.613-14.261,0.819-19.063
								l0.328,8.526l-0.531,5.309l0.206,14.787c0.411-4.124,0.554-16.06,1.025-24.034c-0.083-0.693-0.112-26.262-0.271-33.416
								l-0.824,20.413c0.255-5.511,0.811-32.602,0.809-43.354c-0.064-0.054-0.158,1.063-0.254,2.805
								c-0.096,1.741-0.194,4.108-0.268,6.555c-0.141,4.894-0.241,10.104,0.023,11.275c-0.424,2.195,0.02-19.147-0.68-5.659
								c-0.04-8.001,0.101-18.361,0.335-28.197c0.187-9.837,0.363-19.151,0.475-25.056l0.665-2
								c0.229-12.964-0.844-8.753-0.596-24.153c0.314,18.931,0.684-3.211,0.882,11.853c0.198-4.813,0.688-0.103,0.49-15.205
								c-0.938-12.545,0.521-15.884-0.258-27.732c0.27-7.916,0.52,8.518,0.635-7.057c-0.453-17.878-0.778-16.881-1.406-17.98
								c-0.177,16.755,0.816,18.801,0.664,32.475l-1.076-27.207c-0.152,5.021-0.168,8.729-0.125,11.845
								c-0.063-5.467-0.222-10.119-0.441-14.097c-0.115-2.264-0.222-4.354-0.319-6.285c-0.006,15.425-0.021,29.132-0.288,31.555
								l-0.305-2.128c-0.28,5.468-0.061,14.378,0.162,18.479c0.082,13.814,0.707,27.602,0.322,30.622l-0.331-5.24
								c0.171,8.49,0.083,13.211,0.093,18.477C731.772,663.067,731.829,668.88,731.648,679.561z M340.262,851.594
								c5.143,0.587,10.551,1.143,20.677,1.56c5.063,0.209,11.306,0.383,19.285,0.509c7.979,0.118,17.694,0.076,29.703,0.008
								l-3.78,0.088c24.206,0.637,47.193-1.053,76.644-0.354c-14.289,0.459-13.52,0.419-29.295,1.424l15.332-0.356
								c-4.247,0.619,11.048,0.264,22.298,0.263l-9.928,0.75c-6.754-0.19-24.261-0.219-23.747-0.056
								c3.833-0.09-23.114-0.851-37.752-0.602c1.509,0.486,32.417,0.205,18.616,1.043c12.164-0.369,13.674,0.116,26.389-0.09
								c-12.193,0.368-3.017,0.676-12.095,1.057l20.851-0.222c0.544,0.162-30.366,0.443-13.279,1
								c8.354-0.279,30.663-0.016,31.061-0.545l0.514,0.161c15.63,0.072,6.872-0.765,26.064-0.516
								c0.225-0.266-3.437-0.439-10.311-0.366c-5.811,0.133-6.699,0.498-18.668,0.604c-5.367-0.397,14.437,0.014,6.125-0.662
								c-4.129-0.337-31.595,0.384-22.844-0.424l15.599,0.072c0.397-0.529,11.693-0.529,11.375-0.955
								c9.537-0.22,18.542,0.352,28.281-0.134c4.042-0.353-3.024-0.968,13.095-0.734c12.598,0.685,49.705,0.102,63.603-0.151
								l12.159-0.469c-1.037-0.313-23.238,0.295-15.434-0.21l18.967-0.332l-1.461,0.219c6.285-0.023,12.711-0.311,18.444-0.488
								c-5.903,0.443-19.577,0.438-16.854,0.96c8.904,0.012,10.265,0.201,18.457,0.007c-1.787,0.058-3.326,0.129-3.099,0.204
								c18.028,0.042,17.399-0.804,21.917-1.032c18.113-0.912-18.274-0.466-15.965-1.058l52.905-0.875
								c-4.517,0.227-9.063,0.454-7.354,0.661c12.981,0.104,0.296,0.447,18.524,0.177c-0.329-0.186,0.942-0.323,3.232-0.486
								c2.288-0.157,5.603-0.344,9.332-0.825c0.933-0.109,1.884-0.3,2.858-0.45c0.958-0.232,1.954-0.393,2.922-0.701
								c0.976-0.276,1.941-0.638,2.858-1.092c0.914-0.453,1.786-1.025,2.455-1.789c0.669-0.758,1.115-1.702,1.246-2.682
								c0.159-0.976,0.063-1.943,0.052-2.893c-0.066-1.895-0.129-3.684-0.185-5.296c0.249-5.986,0.298-7.228,0.438,5.932
								c0.473-1.462,0.11-19.168,0.094-25.451c-0.167-3.644-0.148-9.839-0.248-13.771c-0.276,5.265-0.567,3.018-0.703-8.388
								l-0.099-0.665c-0.112,9.341-0.441,21.305-0.339,32.307c0.011,5.51,0.039,10.801,0.103,15.448
								c0.005,0.29,0.009,0.578,0.013,0.863c0.004,0.253,0.008,0.499-0.003,0.745c-0.022,0.489-0.069,0.974-0.204,1.427
								c-0.249,0.915-0.793,1.682-1.427,2.253c-1.313,1.136-2.742,1.666-4.075,2.143c0,0,0.196-0.061,0.461-0.18
								c0.262-0.12,0.633-0.263,0.963-0.428c0.66-0.318,1.257-0.711,1.257-0.711c-2.02,1.026-4.785,1.594-7.444,1.969
								c-2.698,0.374-5.466,0.596-8.231,0.748c-5.533,0.289-11.063,0.387-16.216,0.53c-10.308,0.269-19.16,0.459-24.153,0.052
								c0.916-0.375-4.346-0.037-3.976-0.568l-15.92,0.585l3.309-0.275l-27.089,0.413l0.715-0.107
								c-12.872,0.632-22.955,1.127-31.009,1.521c-0.028,0.23,0.81,0.292-3.481,0.509c-4.307,0.16-7.574,0.213-10.486,0.214
								c-0.022,0.001-0.022,0.001-0.022,0.003v-0.002c-6.647,0.004-11.079-0.278-19.266-0.324l25.19-0.329
								c2.049-0.413-0.098-0.795-12.442-0.935c5.047-0.069,7.156-0.397,0.91-0.374c-0.686,0.108-16.505,0.428-10.475,0.674
								c-5.981,0.101-12.891,0.138-20.455,0.155c-7.565-0.044-15.788-0.091-24.397-0.141c-17.219-0.101-35.987-0.121-54.153,0.299
								c26.103-0.517-20.921-0.468,8.056-0.705c-20.228-0.571-17.402,0.661-38.022,0.619c-1.758-0.22,11.227-0.001,15.964-0.457
								c-17.141-0.079-31.601,0.212-45.922,0.51c-7.161,0.135-14.287,0.269-21.695,0.407c-7.408,0.077-15.1,0.057-23.391-0.029
								l-1.417-0.495C354.483,851.531,347.512,851.562,340.262,851.594z M274.652,851.842c-6.383,0.021-12.857,0.041-19.436,0.062
								c0.641,0.008,1.237,0.016,1.909,0.024l-19.182,0.288c11.783,0.255,19.543,0.833,3.047,0.991
								c1.39-0.193-3.429-0.467,2.306-0.554c-5.525-0.185-14.35-0.351-21.003-0.438c-6.653-0.106-11.135-0.054-7.978,0.357
								c10.622-0.194,11.857,0.039,12.524,0.295c0.666,0.261,0.763,0.541,9.111,0.328c-4.48,0.209-8.938,0.272-13.333,0.25
								c-4.395-0.027-8.728-0.087-12.958-0.037c8.809-0.281-2.043-0.938-15.266-1.31c-5.758,0.04-21.335-0.286-30.904-0.222
								c3.404,0.496-4.928,0.641,10.658,0.967c-5.72,0.04-14.572,0.013-24.482-0.354c3.932-0.023,10.806,0.015,10.333-0.154
								c-6.393-0.502-13.884-0.586-18.016-0.819c-3.297-0.021-6.625-0.042-9.861-0.063c0.965,0.053,1.802,0.115,2.396,0.188
								l-10.96,0.248c14.595-0.013,6.742,0.3,6.55,0.562c0.4-0.522-9.392-0.197-14.387-0.248l10.841,0.705
								c-5.248,0.208-18.509-0.655-15.779-0.065c23.017,0.535,31.869,0.561,52.688,0.679l-8.445-0.548
								c23.491,0.014,14.477,0.939,40.833,1.278c5.48-0.123,15.389,0.005,23.997,0.066c8.607,0.066,15.915-0.055,16.19-0.432
								c-3.307,0.224,16.406,0.794,25.44,0.485c9.989-0.669,40.177-0.601,31.035-0.981c-8.156-0.054-19.137,0.284-25.69-0.223
								l15.823-0.064l-10.379-0.451C277.633,852.823,277.115,852.436,274.652,851.842z M23.805,751.776
								c0.01-0.173,0.024-0.399,0.036-0.61c-0.011,0.233-0.021,0.46-0.031,0.679L23.805,751.776z"/>
							<path fill="#FFFFFF" d="M730.045,229.972c-0.145-4.551-0.028-15.799-0.433-13.6
								C730.041,216.104,729.521,236.472,730.045,229.972z"/>
							<path fill="#FFFFFF" d="M730.566,216.523c-0.097-0.793-0.264-0.244-0.239-5.291l0.001,13.898L730.566,216.523z"/>
							<path fill="#FFFFFF" d="M733.587,202.443c-0.262-7.17-0.406-11.713-0.29-22.963c1.072-4.219,0.147,18.419,1.078,23.527
								c0.257-20.621-0.602-26.958-0.559-43.919C733.317,167.491,732.802,201.819,733.587,202.443z"/>
							<polygon fill="#FFFFFF" points="734.829,211.613 734.684,200.142 734.614,201.273 734.76,212.752 							"/>
							<path fill="#FFFFFF" d="M726.088,460.044c-0.317,1.036,0.058,8.16,0.166,11.984
								C726.251,468.919,726.303,464.565,726.088,460.044z"/>
							<path fill="#FFFFFF" d="M363.379,17.317l87.442,0.109C425.661,17.395,402.432,17.366,363.379,17.317z"/>
							<path fill="#FFFFFF" d="M727.372,750.138c0.203-23.498-0.043-33.941,0.25-57.847c-1.255,31.416,0.097,41.552-1.125,67.969
								L727.372,750.138z"/>
							<path fill="#FFFFFF" d="M724.969,741.794c0.701-3.88,0.306,18.145,0.832,14.742c0.21-15.836-0.416-7.386-0.037-21.754
								L724.969,741.794z"/>
							<polygon fill="#FFFFFF" points="736.534,635.478 736.924,642.617 736.751,636.867 							"/>
							<path fill="#FFFFFF" d="M723.758,843.223c0,0,0.159-0.131,0.288-0.283c0.131-0.153,0.223-0.328,0.223-0.328
								s-0.141,0.18-0.426,0.354c-0.141,0.088-0.313,0.172-0.502,0.25c-0.098,0.034-0.198,0.069-0.301,0.105
								c-0.199,0.055-0.397,0.116-0.595,0.184c-0.525,0.137-1.07,0.286-1.646,0.381c-0.567,0.1-1.053,0.229-1.553,0.279
								c-0.959,0.132-1.6,0.219-1.6,0.219s0.501-0.057,1.252-0.144c0.782-0.063,1.678-0.253,2.62-0.401
								c0.214-0.05,0.429-0.1,0.64-0.148l0.311-0.07l0.226-0.067c0.231-0.063,0.447-0.12,0.632-0.171
								C723.587,843.301,723.758,843.223,723.758,843.223z"/>
							<path fill="#FFFFFF" d="M724.443,841.859c0,0,0.005,0.193-0.038,0.386c-0.046,0.189-0.136,0.367-0.137,0.366
								c0.001,0.001,0.091-0.177,0.137-0.366C724.448,842.053,724.443,841.859,724.443,841.859z"/>
							<polygon fill="#FFFFFF" points="737.938,644.65 737.964,634.026 737.631,628.775 							"/>
							<path fill="#FFFFFF" d="M733.198,738.123l0.02-9.47C733.213,730.533,732.667,743.476,733.198,738.123z"/>
							<polygon fill="#FFFFFF" points="655.647,845.773 644.133,846.134 645.311,846.181 656.787,845.822 							"/>
							<path fill="#FFFFFF" d="M733.784,812.189c0.268-3.253,0.224,1.417,0.316,5.358c0.063,3.911,0.11,6.951,0.252,0.126
								c-0.051-3.018-0.084-4.975-0.104-6.188c-0.029-1.199-0.071-1.661-0.12-1.697C734.03,809.718,733.902,811.35,733.784,812.189z
								"/>
							<path fill="#FFFFFF" d="M625.42,852.459c-1.555,0.017-3.191,0.052-4.768,0.121
								C622.53,852.532,624.107,852.492,625.42,852.459z"/>
							<path fill="#FFFFFF" d="M625.42,852.459c5.018-0.054,10.037,0.071,13.476-0.102
								C632.639,852.212,630.36,852.316,625.42,852.459z"/>
							<path fill="#FFFFFF" d="M567.938,853.191l4.55-0.016c-4.646,0.282-2.443,0.224,1.705-0.008
								c4.821-0.068,4.548-0.214,5.12-0.322c0.966-0.069,1.923-0.139,2.964-0.215c-1.485,0.08-2.82,0.152-3.952,0.213
								C570.855,852.921,566.298,852.993,567.938,853.191z"/>
							<path fill="#FFFFFF" d="M354.409,845.801c16.796,0.267,21.141,0.375,20.227,0.735c7.973,0.114,11.34-0.017,13.917-0.193
								c2.577-0.168,4.363-0.366,9.171-0.453C379.683,846.042,375.995,845.766,354.409,845.801z"/>
							<path fill="#FFFFFF" d="M397.724,845.89c2.021-0.015,3.952-0.028,6.298-0.046C401.396,845.84,399.451,845.86,397.724,845.89z
								"/>
							<polygon fill="#FFFFFF" points="635.17,856.455 624.731,857.127 628.564,857.008 							"/>
							<path fill="#FFFFFF" d="M329.483,845.48c3.115,0.039,8.108,0.051,10.559,0.189
								C340.941,845.309,326.376,845.44,329.483,845.48z"/>
							<path fill="#FFFFFF" d="M394.256,852.907c1.705,0.22,12.456,0.057,16.832,0.131
								C404.811,853.008,399.696,852.349,394.256,852.907z"/>
							<path fill="#FFFFFF" d="M281.288,846.722c3.115,0.04,7.903,0.313,5.827,0.604
								C291.641,847.171,297.77,846.561,281.288,846.722z"/>
							<polygon fill="#FFFFFF" points="363.549,852.76 365.948,852.897 377.446,852.726 							"/>
							<path fill="#FFFFFF" d="M404.561,858.206c12.935-0.47-20.519-0.996,1.759-1.425c-28.736-0.379,2.203,0.611-18.995,0.598
								C399.738,857.492,405.82,858.027,404.561,858.206z"/>
							<path fill="#FFFFFF" d="M387.324,857.379c-1.804-0.013-3.758-0.026-5.879-0.041
								C383.792,857.379,385.687,857.375,387.324,857.379z"/>
							<path fill="#FFFFFF" d="M205.311,853.496c1.879-0.021,3.162-0.052,4.348-0.088
								C208.179,853.424,206.768,853.449,205.311,853.496z"/>
							<path fill="#FFFFFF" d="M319.623,857.397l19.39-0.549c-12.951,0.364-45.53,0.159-43.504,0.822
								c10.55,0.189,23.245,0.086,28.46-0.167L319.623,857.397z"/>
							<path fill="#FFFFFF" d="M97.288,843.329l8.375-0.145l-10.451-0.219C98.204,843.104,92.782,843.509,97.288,843.329z"/>
							<path fill="#FFFFFF" d="M93.191,842.925l2.021,0.041C94.767,842.944,94.126,842.929,93.191,842.925z"/>
							<path fill="#FFFFFF" d="M241.975,853.539c6.262,0.079,11.272,0.09,16.985,0.005
								C256.592,853.407,240.989,853.207,241.975,853.539z"/>
							<path fill="#FFFFFF" d="M38.491,843.925c0,0,3.318,0.121,6.687,0.118c3.364,0.007,6.764-0.073,6.764-0.073
								s-3.711,0.071-7.376,0.034c-3.673-0.021-7.278-0.201-7.278-0.201L38.491,843.925z"/>
							<path fill="#FFFFFF" d="M23.62,805.11l0.255-2.379c0,0,0.101-2.87,0.202-5.74c0.115-2.869,0.166-5.74,0.167-5.74
								l-0.226,2.418L23.62,805.11z"/>
							<path fill="#FFFFFF" d="M58.186,855.674c2.344-0.037,4.575-0.125,6.41-0.181c0.945-0.021,1.83-0.039,2.641-0.057
								c0.844-0.028,1.61-0.054,2.285-0.076c2.697-0.116,3.917-0.277,2.692-0.355c0,0-1.136-0.014-2.839-0.035
								c-0.852-0.01-1.846-0.022-2.911-0.035c-0.51-0.006-1.037-0.011-1.573-0.017c-0.53,0.005-1.068,0.011-1.606,0.016
								c-4.536,0.105-9.072,0.21-9.072,0.21c2.334,0.214,3.604,0.177,5.601,0.078c0.995-0.049,2.181-0.118,3.726-0.165
								c0.377-0.008,0.777-0.016,1.206-0.023c0.427,0.002,0.88,0.005,1.365,0.008c1.029,0.02,2.188,0.043,3.504,0.068
								c0,0-0.728,0.021-1.821,0.053c-0.546,0.017-1.183,0.035-1.866,0.055c-0.319,0.011-0.649,0.022-0.984,0.034
								c-0.333,0.017-0.672,0.033-1.011,0.051C61.06,855.487,58.186,855.674,58.186,855.674z"/>
							<path fill="#FFFFFF" d="M25.371,325.959c0.425,4.052,0.634,23.93,0.33,24.978c-0.196-2.668-0.551-13.439-0.619-6.667
								l1.161,15.707c-0.123,20.928-1.412-15.877-1.936-26.198c0.331,21.309,1.015,27.612,1.417,50.282
								c-0.047-6.688,0.085-10.917,0.2-14.453c0.577-0.781,0.702,20.347,1.025,35.447c0.081-9.619,0.399-4.061,0.759,2.939
								c0.04,1.26,0.084,2.098,0.133,2.693c0.041,0.814,0.079,1.584,0.119,2.376l-0.028-1.812c0.068,0.127,0.142-0.274,0.232-1.582
								c-0.396-12.669-0.085-22.368-0.225-30.527c-0.81,8.078-0.727-27.777-1.255-38.022l-0.337-11.837l-0.092-4.429
								c0.087-0.893,0.245,0.365,0.573,7.114c-0.305-5.632-0.622-24.43-0.898-22.687l-0.932-42.886
								c0.011-1.336,0.031-2.672,0.079-3.662c-0.091-1.484-0.146-1.732-0.191-1.535c0,0-0.969-46.7-1.938-93.4
								c-0.388-23.345-0.86-46.692-1.057-64.198c-0.237-17.506-0.395-29.178-0.395-29.178c-0.017,9.214-0.032,17.186-0.049,26.687
								c-0.826-14.249,0.091,15.579-0.568,11.403c-0.304-6.406-0.359-15.787-0.286-21.376c-0.332-2.077-0.497,5.889-0.874,4.974
								c-0.086,23.563,1.446,27.146,1.62,50.178c-0.38-0.906-0.821-8.02-0.515,7.054l-0.144-3.83
								c0.815,24.131-0.498,18.824,0.798,34.001l-0.535-0.389c0.618,10.943,1.022,32.248,1.362,44.254l-0.117-0.714
								c1.318,33.674,0.523,18.904,1.586,56.73l-0.988-17.397c0.025,13.056,0.756,15.983,0.888,25.354
								c-0.116-0.669-0.456,1.512-0.74-7.335l1.903,45.886C25.461,340.85,25.181,327.669,25.371,325.959z"/>
							<path fill="#FFFFFF" d="M25.724,384.061c0.016,2.43,0.055,5.192,0.135,8.452C25.808,389.366,25.765,386.656,25.724,384.061z"
								/>
							<path fill="#FFFFFF" d="M22.16,62.884c0,0-0.038,0.164-0.103,0.45c-0.043,0.294-0.105,0.713-0.18,1.216
								c-0.19,0.995-0.274,2.373-0.383,3.745c-0.013,0.697-0.026,1.395-0.038,2.048c-0.013,0.305-0.007,0.68-0.001,1.038
								c0.005,0.352,0.009,0.686,0.014,0.993c0.017,1.23,0.028,2.05,0.028,2.05c-0.007-1.016-0.014-2.043-0.021-3.087
								c-0.012-0.555,0.006-0.98,0.018-1.431c0.009-0.452,0.019-0.907,0.028-1.368c0.027-0.919,0.145-1.833,0.201-2.788
								C21.872,64.822,21.959,63.85,22.16,62.884z"/>
							<path fill="#FFFFFF" d="M27.94,449.871c0.152-7.967,0.473,5.958,0.691,7.346l-0.433-28.527
								c-0.202,0.131-0.471-2.688-0.648-2.112L27.94,449.871z"/>
							<path fill="#FFFFFF" d="M28.457,420.425c-0.155-0.964-0.327-3.981-0.497-7.361l0.238,15.626
								C28.35,428.589,28.461,426.835,28.457,420.425z"/>
							<polygon fill="#FFFFFF" points="17.664,423.613 17.57,418.568 17.299,410.938 							"/>
							<path fill="#FFFFFF" d="M17.129,344.678c-0.186,6.033,0.288,17.463,0.427,21.286C17.3,352.787,17.517,358.495,17.129,344.678
								z"/>
							<polygon fill="#FFFFFF" points="14.161,361.028 13.729,348.331 13.692,349.516 							"/>
							<path fill="#FFFFFF" d="M94.615,21.145c2.029-0.294,4.002-0.564,6.063-0.823C97.892,20.652,96.084,20.923,94.615,21.145z"/>
							<path fill="#FFFFFF" d="M19.905,73.302c0.008-0.944,0.015-1.809,0.021-2.601c0.033-0.699,0.063-1.333,0.089-1.904
								c0.032-1.146,0.209-2.012,0.269-2.683c0.175-1.33,0.355-1.783,0.359-1.658c0.041,0.257-0.306,2.914-0.208,6.226
								c0.238,7.535,0.541,17.703,0.855,12.936c0,0-0.117-4.12-0.234-8.239c-0.029-1.03-0.059-2.06-0.086-3.025
								c-0.014-0.483-0.027-0.949-0.04-1.392c-0.012-0.439,0.001-0.757-0.001-1.103c0-0.666,0-1.221,0.001-1.609
								c0.009-0.387,0.033-0.603,0.033-0.603s0.017,0.298,0.058,0.601c0.046,0.304,0.092,0.607,0.092,0.607s0.004-0.27,0.01-0.741
								c0.038-0.463,0.091-1.126,0.156-1.921c0.038-0.802,0.236-1.694,0.356-2.675c0.068-0.488,0.207-0.97,0.306-1.474
								c0.116-0.498,0.195-1.017,0.362-1.504c0.145-0.495,0.29-0.991,0.432-1.478c0.142-0.488,0.346-0.942,0.505-1.397
								c0.303-0.917,0.716-1.716,1.026-2.42c0.292-0.714,0.663-1.249,0.858-1.653c0.214-0.396,0.336-0.623,0.336-0.623
								c-0.466,0.704-0.947,1.351-1.295,1.965c-0.35,0.617-0.654,1.154-0.896,1.578c-0.44,0.871-0.685,1.273-0.727,0.856
								c1.045-2.605,2.116-4.555,3.139-6.004c0.465-0.75,0.96-1.353,1.374-1.889c0.4-0.545,0.78-0.987,1.128-1.354
								c1.317-1.516,1.944-1.932,2.337-2.272c0.405-0.333,0.717-0.496,1.715-1.28c0.992-0.784,2.703-2.18,6.411-4.512
								c0,0,0.338-0.241,0.962-0.63c0.641-0.372,1.52-0.943,2.636-1.564c2.209-1.268,5.316-2.784,8.539-4.142
								c6.441-2.741,13.393-4.656,13.393-4.656c0,0-0.551,0.186-1.102,0.371c-0.554,0.18-1.094,0.384-1.094,0.384
								c2.306-0.696,3.329-1.016,4.11-1.304c0,0,1.47-0.383,4.042-1.052c2.588-0.634,6.303-1.503,10.828-2.377
								c9.043-1.763,21.332-3.465,33.755-4.571c12.418-1.13,24.938-1.778,34.344-2.136c9.406-0.364,15.696-0.489,15.696-0.489
								c18.303-0.654-10.143-0.457,3.354-1.266c-10.619,0.197-23.801,0.518-34.515,1.13c-10.72,0.578-18.962,1.428-19.818,1.874
								c0.696-0.164,2.068-0.489-2.197-0.192c0,0-3.013,0.46-6.026,0.921c-3.009,0.472-5.999,1.003-5.999,1.003
								s2.874-0.32,5.761-0.579c2.888-0.25,5.776-0.501,5.776-0.501c-6.057,0.883-18.899,2.363-30.798,4.701
								c-5.954,1.146-11.667,2.482-16.257,3.745c-4.587,1.265-8.078,2.396-9.701,2.928c5.042-1.908,8.318-2.911,10.722-3.688
								c2.418-0.749,3.979-1.268,5.83-1.778c1.845-0.526,3.97-1.08,7.548-1.818c3.578-0.737,8.615-1.661,16.351-2.633
								c-1.414-0.002-7.11,0.524-0.172-0.593c-9.053,1.313-17.791,2.921-26.215,5.066c-8.416,2.14-16.539,4.856-23.997,8.596
								c-3.717,1.878-7.257,4.021-10.447,6.522c-3.175,2.512-5.987,5.379-8.252,8.602c-2.246,3.235-3.865,6.853-4.859,10.731
								c-0.423,1.964-0.804,3.958-0.909,6.036c-0.029,0.518-0.084,1.032-0.096,1.555l-0.003,1.579
								C19.812,70.82,19.877,72.13,19.905,73.302z"/>
							<path fill="#FFFFFF" d="M357.598,16.718l-0.294,0.064C357.975,16.751,358.194,16.726,357.598,16.718z"/>
							<path fill="#FFFFFF" d="M345.124,16.568l-18.119,0.627l28.244,0.079l2.054-0.491c-2.497,0.115-12.401,0.321-16.239,0.106
								L345.124,16.568z"/>
							<path fill="#FFFFFF" d="M305.971,17.525c14.585-0.143,13.796-0.736,5.84-1.043c13.396-0.209,7.065,0.668,16.291,0.09
								c-0.3-0.427-16.811-0.257-20.604-0.197L305.971,17.525z"/>
							<polygon fill="#FFFFFF" points="198.334,16.912 202.43,16.659 192.341,16.626 							"/>
							<path fill="#FFFFFF" d="M202.43,16.659l10.02,0.064c-0.693-0.183-1.379-0.361-3.014-0.485L202.43,16.659z"/>
							<path fill="#FFFFFF" d="M238.77,16.962c4.251,0.036,8.956,0.075,14.68,0.124L238.77,16.962z"/>
							<path fill="#FFFFFF" d="M227.294,16.776l0.339,0.078l11.137,0.107C234.666,16.896,230.984,16.836,227.294,16.776z"/>
							<path fill="#FFFFFF" d="M212.449,16.723c1.629,0.417,3.528,0.845,18.034,0.775l-2.85-0.644L212.449,16.723z"/>
							<polygon fill="#FFFFFF" points="12.854,268.634 12.376,257.165 12.338,258.381 12.816,269.842 							"/>
							<path fill="#FFFFFF" d="M11.849,202.419c-0.148-2.834-0.261-4.983-0.364-6.937C11.589,198.469,11.705,200.844,11.849,202.419
								z"/>
							<path fill="#FFFFFF" d="M8.095,153.243c0.186-13.51,0.867,18.617,0.625-6.391c0.35-2.21,1.047,9.501,1.058,21.278
								c-0.383-0.929-0.43-11.467-0.679-4.223c0.556,7.811,0.341,10.788,0.832,8.054c0.602,13.145,1.021,14.602,1.553,23.52
								c-0.271-7.947-0.453-20.266-0.656-33.122c-0.197-12.856-0.46-26.247-0.984-36.331c-0.85-11.113-1.635-4.353-2.589-4.383
								C7.06,123.325,7.446,152.167,8.095,153.243z"/>
							<path fill="#FFFFFF" d="M7.524,174.506c0.076,6.249,0.152,8.158,0.307,11.989C8.136,185.455,7.639,179.554,7.524,174.506z"/>
							<path fill="#FFFFFF" d="M30.798,35.711c0.227-0.202,0.956-0.809,1.926-1.534c0.991-0.691,2.175-1.579,3.332-2.291
								c0.57-0.37,1.117-0.725,1.599-1.038c0.49-0.3,0.915-0.56,1.235-0.755c0.634-0.403,0.834-0.573,0.262-0.329
								c0,0-3.856,2.066-7.391,4.676c-1.772,1.293-3.469,2.694-4.686,3.808c-0.603,0.564-1.104,1.035-1.456,1.364
								c-0.35,0.33-0.531,0.54-0.531,0.54c1.494-1.429,2.558-2.337,3.451-2.959C29.423,36.559,30.066,36.117,30.798,35.711z"/>
							<path fill="#FFFFFF" d="M20.142,46.1c0,0,0.286-0.391,0.715-0.978c0.214-0.293,0.465-0.635,0.733-1.002
								c0.278-0.359,0.598-0.723,0.905-1.096c0.311-0.372,0.622-0.743,0.913-1.091c0.302-0.338,0.6-0.638,0.847-0.904
								c0.5-0.526,0.833-0.876,0.833-0.876c-0.662,0.706-1.464,1.435-2.255,2.43c-0.403,0.49-0.852,1.001-1.3,1.584
								C21.103,44.764,20.642,45.406,20.142,46.1z"/>
							<path fill="#FFFFFF" d="M31.515,35.288c-0.239,0.141-0.452,0.267-0.717,0.423C30.618,35.88,30.673,35.875,31.515,35.288z"/>
							<path fill="#FFFFFF" d="M280.368,17.319c-0.241,0.26,7.391,0.141,11.222,0.082C288.475,17.364,284.101,17.257,280.368,17.319
								z"/>
							<path fill="#FFFFFF" d="M567.863,16.893l6.748,0.13C572.226,16.926,571.003,16.879,567.863,16.893z"/>
							<path fill="#FFFFFF" d="M671.799,8.81c0.199-0.047,0.702-0.083,1.381-0.095C672.501,8.719,672.028,8.757,671.799,8.81z"/>
							<path fill="#FFFFFF" d="M673.18,8.714c2.329-0.046,7.084,0.199,11.887,0.662c4.806,0.441,9.648,1.153,12.233,1.424
								l-0.666-0.003c0,0,2.39,0.334,4.771,0.762c2.383,0.411,4.754,0.932,4.754,0.932c-4.423-1.071-11.343-2.315-17.835-2.983
								C681.833,8.823,675.791,8.617,673.18,8.714z"/>
						</g>
					</g>
				</g>
			</g>
		</g>
	</g>
</g>
</svg>
