<?xml version="1.0" encoding="utf-8"?>
<!-- Generator: Adobe Illustrator 16.0.0, SVG Export Plug-In . SVG Version: 6.00 Build 0)  -->
<!DOCTYPE svg PUBLIC "-//W3C//DTD SVG 1.1//EN" "http://www.w3.org/Graphics/SVG/1.1/DTD/svg11.dtd">
<svg version="1.1" id="Layer_1" xmlns="http://www.w3.org/2000/svg" xmlns:xlink="http://www.w3.org/1999/xlink" x="0px" y="0px"
	 width="973px" height="566px" viewBox="0 0 973 566" enable-background="new 0 0 973 566" xml:space="preserve">
<g>
	<path fill="#F2F2F2" d="M176.415,39.962c31.69,2.368,63.502,4.738,95.233,2.919c49.458-2.833,97.664-15.771,146.884-21.184
		c21.789-2.396,43.988-3.298,65.552,0.511c17.623,3.113,34.466,9.308,51.843,13.483c112.725,27.086,236.76-32.193,345.848,6.025
		c9.233,3.236,18.529,7.364,24.869,14.512c5.139,5.792,7.912,13.083,11.519,19.837c10.31,19.306,27.811,34.751,36.485,54.769
		c10.584,24.425,6.633,51.979,4.75,78.33c-7.288,102.042,18.692,208.643-18.747,304.541c-3.768,9.648-9.561,20.257-20.124,22.562
		c-6.296,1.375-12.791-0.625-18.985-2.365c-74.791-21.023-154.729-6.625-232.127,2.553c-218.323,25.888-439.747,8.678-658.05-17.379
		c7.92-73.038,15.839-146.074,23.76-219.111c0.958-8.84,1.917-17.744,1.104-26.598c-0.875-9.539-3.786-18.787-6.404-28.034
		C9.372,173.123,17.368,18.73,22.443,13.983c5.075-4.747,38.644,17.361,63.461,19.216C116.074,35.453,146.245,37.708,176.415,39.962
		z"/>
	<g>
		<g>
			<g>
				<g>
					<g>
						<path fill="#FFFFFF" d="M107.142,32.279c6.384,0.421,11.926,1.146,9.516,1.106c13.024,0.595,13.271,1.043,15.008,0.442
							c8.368,0.266,17.229,1.425,7.718,1.012l24.084,1.352l-14.372-1.188c3.962-0.312,22.966,1.898,27.575,1.533l-26.038-1.886
							l1.316-0.104c-5.944-0.227-17.451-1.178-21.459-1.562c0.641-0.052,0.249-0.244,4.842,0.081
							c-31.429-2.395-8.546,0.425-34.643-1.322C102.325,31.851,104.349,32.011,107.142,32.279z"/>
						<path fill="#FFFFFF" d="M80.981,28.552c0,0-0.646-0.074-1.616-0.185c-0.972-0.124-2.271-0.316-3.576-0.544
							c-2.607-0.455-5.223-1.069-5.223-1.069s-1.067-0.354-2.668-0.884c-1.598-0.548-3.723-1.314-5.837-2.135
							c-4.23-1.63-8.431-3.443-8.431-3.443c-0.285,0.198-12.703-4.866-4.443-1.098c1.641,0.657,4.883,1.956,7.502,3.005
							c-1.056-0.1-6.706-2.36-11.512-4.354c-4.803-1.988-8.834-3.541-6.41-2.237c13.547,5.544,15.474,6.627,23.965,9.319
							c6.183,2.307,11.61,3.953,16.239,4.957c2.314,0.5,4.426,0.857,6.327,1.066c1.977,0.204,3.735,0.386,5.278,0.545
							c3.965,0.21,4.548-0.095,9.583,0.211c-1.114-0.076-2.137-0.146-3.418-0.234l-0.479-0.891
							c-2.104-0.067-4.146-0.196-6.244-0.349c-1.048-0.08-2.111-0.161-3.203-0.244c-1.108-0.082-2.087-0.173-3.199-0.311
							c0,0,0.317,0.022,0.871,0.06c0.575,0.04,1.294,0.065,2.328,0.095c2.025,0.058,4.727,0.134,7.427,0.211
							c5.402,0.153,10.803,0.307,10.803,0.307c-3.442-0.658-10.46-1.265-17.672-1.828l-1.33-0.106
							c-0.408-0.039-0.813-0.067-1.223-0.118c-0.816-0.088-1.634-0.197-2.445-0.326c-1.622-0.254-3.216-0.576-4.725-0.93
							c-3.019-0.712-5.691-1.542-7.608-2.236c4.721,1.814,2.784,1.295,1.978,1.15c-0.4-0.082-0.514-0.079,0.646,0.324
							C73.826,26.652,76.261,27.527,80.981,28.552z"/>
						<path fill="#FFFFFF" d="M100.161,31.706c0.139,0.01,0.369,0.026,0.529,0.038C100.529,31.732,100.3,31.716,100.161,31.706z"/>
						<path fill="#FFFFFF" d="M956.265,436.779c0.461-4.54,0.405-5.896,0.367-6.561c0,0-0.333,3.19-0.834,7.978
							c-0.557,4.778-1.362,11.144-2.412,17.466c-1.031,6.325-2.253,12.615-3.319,17.297c-0.503,2.349-0.934,4.303-1.299,5.654
							c-0.342,1.357-0.537,2.133-0.537,2.133c0.743-1.46,4.102-15.856,2.138-6.176c1.271-4.231,3.615-17.469,3.486-19.46
							c0,0-0.061,0.934-0.12,1.866c-0.056,0.935-0.135,1.865-0.134,1.865c0.73-5.879,1.61-10.777,2.085-13.276
							c0.519-2.492,0.809-2.551,0.438,1.303l0.124-0.993c0,0,0.161-2.05,0.401-5.124c0.202-3.077,0.42-7.183,0.607-11.283
							c0.109-4.11,0.298-8.205,0.292-11.288c0.031-3.077,0.052-5.129,0.052-5.129c-0.417,6.003-0.403,8.326-0.482,10.952
							C957.05,426.629,957.052,429.575,956.265,436.779z"/>
						<path fill="#FFFFFF" d="M251.857,45.031c6.72-0.163,7.542-0.255,6.778-0.328C256.229,44.796,253.942,44.897,251.857,45.031z"
							/>
						<path fill="#FFFFFF" d="M957.563,405.379c0,0-0.006-0.643-0.014-1.606c-0.004-0.963-0.02-2.247-0.06-3.533
							c-0.065-2.569-0.13-5.139-0.13-5.139C957.398,399.213,957.499,402.83,957.563,405.379z"/>
						<path fill="#FFFFFF" d="M956.581,477.477c0.022,0.027,0.022,0.144,0.118-0.118l0.742-4.66
							c-0.016,0.069-0.021,0.09-0.026,0.118C957.109,474.525,956.834,476.06,956.581,477.477z"/>
						<path fill="#FFFFFF" d="M956.297,171.138c-0.004-1.078,0-2.006-0.06-3.282C956.282,169.044,956.289,170.128,956.297,171.138z"
							/>
						<path fill="#FFFFFF" d="M851.512,532.476c0,0,1.4,0.104,3.501,0.262c1.049,0.089,2.28,0.146,3.586,0.291
							c1.304,0.157,2.695,0.326,4.086,0.495c2.784,0.336,5.568,0.672,7.657,0.924c1.045,0.124,1.917,0.223,2.517,0.343
							c0.604,0.104,0.948,0.163,0.948,0.163c-2.968-0.334,7.64,1.663,2.961,1.035c1.678,0.289,9.543,1.722,7.43,1.186l-4.484-0.857
							c2.93,0.393,4.697,0.585,5.999,0.704c1.289,0.168,2.113,0.276,3.176,0.415c1.062,0.153,2.358,0.37,4.589,0.816
							c1.114,0.231,2.463,0.512,4.135,0.859c0.839,0.186,1.742,0.361,2.766,0.612c1.044,0.259,2.182,0.54,3.426,0.849
							c-1.577-0.469-2.94-0.924-4.236-1.289c-1.282-0.342-2.476-0.66-3.596-0.959c-2.245-0.581-4.204-1.055-5.994-1.462
							c-3.563-0.885-6.518-1.215-9.719-1.681c-2.157-0.384-3.964-0.705-5.791-1.031c0,0-0.289-0.04-0.795-0.112
							c-0.509-0.059-1.223-0.204-2.103-0.265c-1.749-0.158-4.081-0.369-6.413-0.581c-2.327-0.211-4.653-0.423-6.398-0.582
							c-0.869-0.096-1.607-0.088-2.117-0.123c-0.512-0.023-0.805-0.036-0.805-0.036L851.512,532.476z"/>
						<path fill="#FFFFFF" d="M568.281,38.793l0.254-0.032C568.306,38.759,568.263,38.773,568.281,38.793z"/>
						<path fill="#FFFFFF" d="M569.551,38.628l-1.016,0.133C569.768,38.761,574.446,39.076,569.551,38.628z"/>
						<path fill="#FFFFFF" d="M957.854,409.168c-0.116-0.318-0.219-1.643-0.291-3.789c0,0,0.017,1.918,0.033,3.836
							c0.03,1.919,0.004,3.836,0.004,3.836C957.685,411.966,957.776,410.532,957.854,409.168z"/>
						<path fill="#FFFFFF" d="M958.23,426.688c0,0-0.093,1.202-0.231,3.006c-0.146,1.803-0.411,4.2-0.644,6.601
							c-0.12,1.2-0.239,2.399-0.353,3.524c-0.14,1.122-0.271,2.169-0.382,3.065c-0.225,1.795-0.374,2.991-0.374,2.991
							s-0.142,1.775-0.284,3.551c-0.187,1.771-0.374,3.541-0.374,3.541C956.611,445.65,957.581,437.059,958.23,426.688z"/>
						<path fill="#FFFFFF" d="M954.191,201.214c0.792-10.01,1.1-14.291,1.251-15.52c0.154-1.219,0.146,0.665,0.102,3.221
							c-0.126,5.124-0.481,12.996,0.34,3.848c0.715-11.029,0.472-14.878,0.413-21.625c0.026,7.722-0.325,11.387-0.481,12.932
							c-0.203,1.558-0.333,1.025-0.469,0.501c-0.135-0.523-0.274-1.038-0.495,0.549c-0.22,1.592-0.502,5.249-1.103,13.233
							c-0.181-2.295,0.124-8.067,0.428-14.495c0.311-6.436,0.503-13.534,0.376-18.703c0.038-2.928,0.08-3.753,0.203-3.31
							c0.093,0.451,0.329,2.153,0.409,4.353c0.31,4.362,0.206,10.661,0.495,12.034c0.031-1.567,0.059-2.904,0.082-4.054
							c-0.011-1.143-0.021-2.1-0.028-2.915c-0.009-1.631-0.068-2.683-0.141-3.509c-0.151-1.649-0.225-2.431-0.589-5.009
							c-0.079-2.41-0.331-4.799-0.579-7.19c-0.347-2.362-0.649-4.74-1.18-7.022c-0.425-2.318-1.102-4.523-1.689-6.714
							c-0.736-2.133-1.378-4.26-2.253-6.218c-1.584-3.983-3.499-7.581-5.414-10.846c-0.455-0.821-0.924-1.615-1.404-2.381
							c-0.463-0.773-0.912-1.523-1.346-2.248c-0.922-1.441-1.707-2.808-2.474-4.059c-4.194-5.705-6.422-8.292-8.129-10.297
							c-1.718-2-3.006-3.356-5.732-6.667c-0.819-0.464,2.495,4.056,6.263,9.047c1.867,2.504,3.848,5.163,5.438,7.484
							c1.625,2.318,2.828,4.313,3.442,5.449c-0.546-0.91-1.614-2.692-1.191-2.254c0,0,0.415,0.624,1.036,1.56
							c0.628,0.934,1.373,2.196,2.163,3.448c0.751,1.26,1.447,2.529,1.996,3.474c0.494,0.957,0.822,1.595,0.822,1.595
							c-0.588-1.222-1.066-2.113-1.399-2.735c-0.324-0.625-0.488-0.983-0.524-1.126c-0.073-0.285,0.364,0.295,1.07,1.34
							c0.735,1.037,1.567,2.58,2.482,4.166c0.798,1.615,1.677,3.264,2.17,4.625c0.365,0.989,0.93,2.174,1.329,3.483
							c0.406,1.306,0.872,2.638,1.203,3.842c0.599,2.435,1.017,4.211,0.772,3.67c0,0-0.437-1.55-0.873-3.101
							c-0.196-0.783-0.476-1.531-0.673-2.097s-0.329-0.942-0.329-0.942c0.629,1.95,1.123,4.072,1.715,6.229
							c0.471,2.202,1.047,4.441,1.39,6.781c0.438,2.308,0.671,4.701,0.918,7.05c0.144,2.378,0.287,4.717,0.205,7.015
							c-0.16,0.482-0.287-2.979-0.457-3.479c0.954,10.17,0.37,20.206-0.603,36.099l-0.008-9.214
							c-0.025,3.152-0.231,7.317-0.529,12.144c-0.289,4.863-0.615,10.348-0.955,16.063c-0.606,11.45-0.957,23.797-1.145,33.89
							c0.119-2.239,0.199-6.272,0.342-3.851c0.048,2.963,0.053,5.745,0.028,8.166c-0.007,2.418-0.032,4.474-0.091,5.99
							c-0.112,3.031-0.32,3.901-0.545,1.161c0.365,5.78,0.49,16.784,0.799,28.271c0.296,11.491,0.716,23.466,1.412,31.254
							c0,0,0.402,4.475,1.005,11.186c0.578,6.705,1.359,15.645,1.997,24.574c0.673,8.935,1.172,17.865,1.488,24.568
							c0.135,3.353,0.247,6.146,0.325,8.101c0.054,1.955,0.085,3.072,0.085,3.072c-0.021-2.678-0.042-5.542-0.064-8.496
							c0.366-3.245,0.497-5.75,0.628-6.015c0.131-0.264,0.292,1.71,0.513,7.415c-0.09-5.6-0.33-7.331-0.504-9.764
							c-0.088-1.216-0.168-2.607-0.228-4.746c-0.082-2.14-0.157-5.027-0.217-9.234c0.202,3.298,0.49,5.363,0.712,4.587
							c0.218-0.776,0.4-4.395,0.243-12.469c-1.667-40.365-5.479-67.012-6.49-105.086c0.243-0.703,0.304-8.525,0.6-18.004
							c0.108-4.738,0.372-9.892,0.588-14.768c0.319-4.874,0.574-9.489,0.903-13.101c0.031,2.779-0.037,6.883-0.216,11.681
							c-0.096,2.399-0.124,4.973-0.213,7.647c-0.095,2.674-0.14,5.448-0.181,8.246c0.08-3.51,0.296-8.29,0.529-13.312
							c0.291-5.018,0.6-10.3,0.971-14.758L954.191,201.214z"/>
						<path fill="#FFFFFF" d="M954.823,295.719c-0.005-1.015-0.011-2.063-0.017-3.141
							C954.786,293.152,954.787,294.09,954.823,295.719z"/>
						<path fill="#FFFFFF" d="M953.329,236.403c0.015,0.141,0.031,0.092,0.05,0.142c0.018-1.174,0.036-2.348,0.055-3.55
							C953.397,234.196,953.355,235.552,953.329,236.403z"/>
						<path fill="#FFFFFF" d="M959.322,399.778c0.093,2.396,0.035,4.169,0.077,6.565c0.022-1.475,0.05-3.325,0.077-5.106
							C959.455,399.538,959.409,398.73,959.322,399.778z"/>
						<path fill="#FFFFFF" d="M958.156,407.799l-0.146-1.284c-0.061,1.025-0.103,1.746-0.156,2.653
							C957.949,409.45,958.053,409.156,958.156,407.799z"/>
						<path fill="#FFFFFF" d="M909.841,63.038c0,0-0.513-0.782-1.025-1.565c-0.552-0.746-1.104-1.493-1.104-1.493
							C909.02,61.788,909.519,62.631,909.841,63.038z"/>
						<path fill="#FFFFFF" d="M956.124,157.563c0.088,0.83,0.165,1.562,0.234,2.209c0.048,0.654,0.091,1.223,0.128,1.72
							c0.081,0.996,0.152,1.707,0.22,2.243c0.144,1.07,0.213,1.45,0.322,1.999c0.161,1.106,0.578,2.879,0.275,12.56
							c0,0,0.055-1.42,0.109-2.84c0.07-1.422,0.072-2.834,0.072-2.834c0.127,6.921-0.493,16.549-1.315,26.604
							c-0.854,10.063-1.471,20.603-1.77,29.054c-0.24-1.921-0.622,10.255-1.021,8.267c-0.132,11.583,0.085,23.03,0.643,28.969
							c-0.037,7.154,0.64,17.997,0.785,27.065c0.148-3.837,1.351,12.877,0.291-9.178c0.089,1.781,0.119,0.661,0.208,2.42
							c-0.05-14.229-0.79-19.925-0.873-32.208c0.13-3.672,0.242-0.669,0.336,2.383c0.098,3.052,0.226,6.152,0.229,2.691
							c-0.186-7.661-0.08-19.693,0.255-29.687c0.327-9.994,0.779-17.945,0.234-17.472c0.688-11.172,1.118-12.646,1.54-15.937
							c0.13-8.785,1.62-24.911,0.261-38.488c-0.615-6.791-1.952-12.891-3.336-17.167c-0.367-1.062-0.699-2.023-0.991-2.868
							c-0.313-0.836-0.662-1.524-0.925-2.094c-0.545-1.132-0.912-1.721-1.064-1.637c0.281,0.701,0.585,1.457,0.908,2.26
							c0.161,0.401,0.327,0.814,0.497,1.238c0.144,0.435,0.289,0.881,0.439,1.336c0.298,0.912,0.609,1.862,0.93,2.843
							c0.299,0.989,0.541,2.032,0.828,3.083c0.14,0.527,0.281,1.059,0.424,1.596c0.115,0.545,0.231,1.095,0.349,1.647
							c0.224,1.109,0.484,2.222,0.693,3.354c0.364,2.277,0.786,4.559,1.036,6.824L956.124,157.563z"/>
						<path fill="#FFFFFF" d="M959.536,376.425c0.003-0.856,0.007-1.998,0.01-2.708C959.543,374.518,959.54,375.513,959.536,376.425
							z"/>
						<path fill="#FFFFFF" d="M915.862,530.796c0,0,0.267-0.069,0.667-0.174c0.196-0.049,0.426-0.106,0.672-0.168
							c0.121-0.028,0.246-0.059,0.374-0.089l0.354-0.148c0.47-0.202,0.935-0.355,1.265-0.513c0.318-0.179,0.53-0.298,0.53-0.298
							c5.026-1.435,8.577-6.117,11.142-10.881c1.293-2.396,2.368-4.856,3.337-7.316c0.961-2.585,1.885-5.073,2.798-7.532
							c3.464-9.902,6.421-19.479,9.434-33.348c0.584-2.094-0.074,1.288-0.407,3.005c2.192-9.735,4.36-22.042,5.697-33.807
							c1.379-11.758,2.001-22.943,2.162-30.272c0.398-6.388,0.962-23.257,1.123-16.866c-0.051-3.133-0.072-6.712-0.024-10.314
							c0.357-0.95,0.009,8.061,0.277,8.272c0.054-2.855,0.129-3.969,0.034-4.626c0.112,2.404,0.402,1.16,0.629,2.118
							c0.222,0.956,0.449,4.124,0.077,15.325c-0.585,4.315-0.376,0.441-0.312-3.889c0.089-4.328,0.151-9.102-0.321-6.549
							c-0.199,7.423,0.147,6.569,0.233,7.208c-0.357,9.458-0.605,9.193-0.76,8.683c0.079,1.818-0.192,5.683-0.451,9.72
							c-0.243,4.039-0.652,8.227-0.639,10.735c-1.814,18.229-0.493-1.049-1.755,10.836l-0.049,6.937c0,0-0.043,0.308-0.117,0.847
							c-0.067,0.54-0.185,1.307-0.343,2.225c-0.305,1.837-0.71,4.286-1.115,6.734c-0.41,2.448-0.933,4.871-1.273,6.699
							c-0.355,1.825-0.593,3.041-0.593,3.041c-1.428,7.025-2.01,10.31-2.252,11.765c-0.206,1.465,0.071,1.138,0.323,0.936
							c0.252-0.203,0.478-0.281,0.166,1.695c-0.157,0.987-0.442,2.491-0.937,4.748c-0.568,2.236-1.346,5.226-2.444,9.195
							c0.209-1.067,0.071-1.094-0.296-0.299c-0.399,0.785-1.069,2.379-1.919,4.554c-0.416,1.09-0.887,2.322-1.4,3.67
							c-0.519,1.345-1.14,2.782-1.751,4.32c-0.612,1.537-1.259,3.16-1.928,4.842c-0.682,1.621-1.396,3.273-2.187,4.888
							c0.919-1.959,1.887-4.374,2.872-7.304c0.978-2.885,2.167-5.991,3.12-9.271c1.01-3.258,2.083-6.579,2.954-9.846
							c0.468-1.622,0.928-3.216,1.373-4.758c0.418-1.551,0.822-3.049,1.205-4.471c-2.35,7.966-0.974,2.418,0.636-4.088
							c0.765-3.265,1.468-6.804,1.896-8.987c0.413-2.189,0.425-3.055-0.154-0.974c-0.701,4.036-1.708,9.419-3.159,15.003
							c-0.647,2.814-1.516,5.644-2.329,8.432c-0.422,1.389-0.796,2.778-1.252,4.109c-0.457,1.33-0.905,2.631-1.338,3.888l1.01-3.334
							c-0.903,2.677-1.685,5.212-2.451,7.735c-0.838,2.499-1.669,4.98-2.543,7.59c-0.87,2.607-1.856,5.136-3.161,7.789
							c-1.313,2.609-2.959,5.314-5.198,7.626c-0.271,0.289-0.522,0.556-0.755,0.803c-0.246,0.219-0.471,0.421-0.678,0.605
							c-0.403,0.391-0.768,0.633-1.057,0.844c-0.57,0.442-0.916,0.584-1.072,0.64c-0.317,0.099,0.069-0.255,0.423-0.621
							c-1.934,1.461-3.963,2.229-5.584,2.513c-0.406,0.063-0.767,0.147-1.103,0.187c-0.349,0.01-0.65,0.019-0.898,0.025
							C916.145,530.851,915.865,530.844,915.862,530.796z M926.739,525.802c0,0,1.46-1.467,2.735-3.329
							c0.642-0.919,1.243-1.903,1.69-2.65c0.428-0.771,0.713-1.285,0.713-1.285C930.701,520.436,928.961,523.467,926.739,525.802z"
							/>
						<path fill="#FFFFFF" d="M12.701,100.577c0.03-1.057,0.064-2.275,0.091-3.234C12.748,98.049,12.717,99.274,12.701,100.577z"/>
						<path fill="#FFFFFF" d="M530.429,551.528l-6.155,0.216C526.677,551.66,528.647,551.591,530.429,551.528z"/>
						<path fill="#FFFFFF" d="M392.201,555.72l-9.007,0.056C386.748,555.819,389.533,555.784,392.201,555.72z"/>
						<path fill="#FFFFFF" d="M14.973,174.122l0.016,0.301c0.055,0.502,0.096,0.886,0.154,1.417L14.973,174.122z"/>
						<path fill="#FFFFFF" d="M115.823,535.708c-1.354-0.211-2.876-0.432-4.962-0.695
							C111.103,535.121,112.958,535.372,115.823,535.708z"/>
						<path fill="#FFFFFF" d="M393.859,555.709c-0.231-0.01-0.364-0.016-0.545-0.024c-0.35,0.012-0.735,0.023-1.113,0.035
							L393.859,555.709z"/>
						<path fill="#FFFFFF" d="M591.407,550.572c1.316-0.137,2.515-0.262,3.929-0.409
							C593.481,550.333,592.347,550.458,591.407,550.572z"/>
						<path fill="#FFFFFF" d="M582.567,548.779c1.415-0.117,2.767-0.229,3.819-0.316L582.567,548.779z"/>
						<path fill="#FFFFFF" d="M793.971,529.462c0,0,2.044-0.116,4.088-0.231c1.021-0.058,2.044-0.115,2.811-0.159
							c0.767-0.042,1.276-0.046,1.276-0.046C798.126,529.154,795.727,529.339,793.971,529.462z"/>
						<path fill="#FFFFFF" d="M604.496,547.635c0.477-0.083,0.954-0.166,1.273-0.222
							C604.628,547.534,604.089,547.629,604.496,547.635z"/>
						<path fill="#FFFFFF" d="M16.839,47.964c-0.01,0.188-0.021,0.391-0.027,0.503l0.086,0.215L16.839,47.964z"/>
						<path fill="#FFFFFF" d="M17.216,27.717c0.125-1.194,0.251-2.413,0.379-3.639l0.223-1.847c0.093-0.682,0.187-1.364,0.28-2.042
							c-0.145,0.969-0.232,1.528-0.318,2.218c-0.081,0.663-0.159,1.311-0.235,1.936C17.404,25.589,17.296,26.74,17.216,27.717z"/>
						<path fill="#FFFFFF" d="M9.307,504.181c0.358-2.165,1.058-7.261,0.938-4.859C10.521,495.134,10.065,495.364,9.307,504.181z"/>
						<path fill="#FFFFFF" d="M20.663,88.418c-0.097-1.316-0.151-2.951-0.204-4.593C20.518,86.879,20.583,89.557,20.663,88.418z"/>
						<path fill="#FFFFFF" d="M20.459,83.825c-0.03-1.51-0.063-3.124-0.09-4.474C20.387,80.924,20.412,82.434,20.459,83.825z"/>
						<path fill="#FFFFFF" d="M52.619,520.479c0.534,0.118,1.367,0.257,2.502,0.397C54.801,520.725,53.896,520.601,52.619,520.479z"
							/>
						<path fill="#FFFFFF" d="M20.167,13.113c0.029-0.098,0.133-0.32,0.309-0.645c0.295-0.591,1.285-1.331,2.585-1.573
							c1.291-0.287,2.895-0.229,4.615,0.066c0.858,0.156,1.743,0.355,2.62,0.604c0.44,0.115,0.875,0.253,1.309,0.382
							c0.389,0.123,0.773,0.244,1.152,0.364c1.3,0.422,2.488,0.84,3.448,1.181c1.919,0.684,2.944,1.046,2.048,0.619
							c-0.452-0.211-1.381-0.622-2.965-1.252c-0.801-0.319-1.729-0.676-2.937-1.102c-1.542-0.53-3.372-1.125-5.448-1.457
							c0.31-0.103,1.931,0.026,4.354,0.746c1.366,0.4,2.234,0.7,3.344,1.097c1.087,0.392,2.244,0.839,3.431,1.316
							c4.746,1.915,10.001,4.271,13.282,5.553c-4.657-2.125,2.501,0.618,1.156-0.197c-3.252-1.268-7.118-2.767-12.533-5.076
							c-1.204-0.649,0.3-0.171,2.864,0.837c2.565,1.006,6.174,2.54,9.298,3.908c-7.62-3.554,10.021,3.648-0.842-1.171
							c-5.033-2.068-9.753-4.104-14.443-5.891c-1.176-0.445-2.352-0.874-3.55-1.276l-1.23-0.399
							c-0.449-0.139-0.895-0.284-1.343-0.402c-0.894-0.256-1.784-0.471-2.661-0.632c-1.757-0.336-3.443-0.41-4.993-0.166
							c-0.775,0.124-1.523,0.33-2.233,0.666c-0.706,0.331-1.381,0.838-1.842,1.388c-0.293,0.438-0.55,0.874-0.814,1.308
							c-0.245,0.456-0.486,0.917-0.708,1.391c-0.17,0.527-0.34,1.052-0.508,1.574c-0.125,0.556-0.25,1.109-0.374,1.661
							c-0.232,1.109-0.4,2.249-0.57,3.359l-0.183,1.388l-0.125,1.091c-0.317,2.893-0.537,5.672-0.716,8.397
							c-0.347,5.446-0.52,10.663-0.581,15.87c0.28-5.41,0.634-11.058,1.137-16.656c0.253-2.801,0.541-5.585,0.917-8.348l0.165-1.138
							c0.073-0.497,0.146-0.992,0.237-1.481c0.167-0.985,0.34-1.96,0.574-2.896c0.101-0.479,0.218-0.941,0.374-1.373
							c0.158-0.425,0.249-0.916,0.465-1.279c0.377-0.793,0.776-1.506,1.242-2.214c0.362-0.451,0.878-0.863,1.432-1.143
							c0.553-0.284,1.133-0.465,1.718-0.58c1.166-0.246,2.373-0.236,3.585-0.106c1.212,0.132,2.426,0.407,3.605,0.737
							c0.588,0.178,1.171,0.347,1.741,0.545c0.561,0.182,1.191,0.411,1.517,0.533c0,0-0.386-0.096-0.964-0.241
							c-0.676-0.169-1.57-0.382-2.451-0.549c-0.881-0.159-1.748-0.295-2.384-0.336c-0.319-0.033-0.582-0.047-0.764-0.05
							c-0.183-0.006-0.287-0.01-0.287-0.01c-1.245-0.172-2.431-0.176-3.547,0.037c-0.558,0.111-1.101,0.275-1.608,0.532
							c-0.509,0.257-0.953,0.637-1.266,1.035c-0.47,0.711-0.85,1.424-1.209,2.188c-0.197,0.36-0.289,0.817-0.437,1.218
							c-0.146,0.405-0.255,0.835-0.351,1.273c-0.219,0.858-0.388,1.731-0.538,2.606c-0.08,0.435-0.16,0.868-0.222,1.303
							l-0.169,1.111c-0.357,2.46-0.615,4.819-0.849,7.205c-0.457,4.768-0.797,9.626-1.205,15.407c0,0,0.539-7.509,1.376-15.042
							c0.208-1.884,0.439-3.771,0.682-5.547c0.133-0.907,0.262-1.783,0.384-2.614c0.164-1.121,0.376-2.168,0.548-3.137
							c0.409-1.91,0.863-3.429,1.354-4.313c0.458-0.907,0.782-1.398,0.781-1.398c0.012-0.019,0.024-0.038,0.029-0.045
							c0.5-0.685,1.314-1.098,2.007-1.312c0.711-0.22,1.377-0.291,1.981-0.321c1.213-0.038,2.188,0.115,2.914,0.247
							c1.456,0.301,1.919,0.522,1.631,0.486c-0.286-0.011-1.33-0.25-2.858-0.341c-0.761-0.034-1.643-0.034-2.592,0.151
							c-0.473,0.095-0.97,0.229-1.454,0.479c-0.485,0.24-0.948,0.619-1.25,1.078c-0.556,1.019-1.105,2.1-1.435,3.489
							c-0.192,0.666-0.311,1.402-0.472,2.119c-0.121,0.737-0.244,1.486-0.367,2.24c0.295-1.768,0.6-3.464,1.008-4.703
							C19.477,14.216,19.966,13.453,20.167,13.113z"/>
						<path fill="#FFFFFF" d="M21.369,35.196l0.058-0.497c0.019-0.437,0.042-0.978,0.054-1.255L21.369,35.196z"/>
						<path fill="#FFFFFF" d="M791.976,518.526l2.588-0.313C792.399,518.396,791.734,518.487,791.976,518.526z"/>
						<path fill="#FFFFFF" d="M17.535,52.817l0.001-0.021C17.531,52.999,17.528,53.047,17.535,52.817z"/>
						<path fill="#FFFFFF" d="M727.817,524.06c0.089-0.022,0.179-0.045,0.336-0.085C727.926,524.018,727.928,524.033,727.817,524.06
							z"/>
						<path fill="#FFFFFF" d="M712.239,537.773c0.12,0.01,0.158,0.029,0.438,0.02C714.028,537.592,713.368,537.649,712.239,537.773z
							"/>
						<path fill="#FFFFFF" d="M727.774,524.116c-0.002-0.017-0.045-0.028,0.043-0.057
							C727.771,524.084,727.662,524.113,727.774,524.116z"/>
						<path fill="#FFFFFF" d="M417.933,546.039c0,0,0.981,0.109,2.527,0.223C421.06,546.222,420.461,546.152,417.933,546.039z"/>
						<path fill="#FFFFFF" d="M479.33,546.557c0.391,0.014,0.621,0.021,1.123,0.038L479.33,546.557z"/>
						<path fill="#FFFFFF" d="M4.655,524.354c-0.004,0.035-0.008,0.07-0.009,0.083c5.238,0.599,9.159,1.046,12.473,1.425
							c-3.808-0.458-7.907-0.934-12.472-1.426C4.649,524.411,4.652,524.382,4.655,524.354z"/>
						<path fill="#FFFFFF" d="M728.153,523.975c0.633-0.129,1.537-0.292,3.031-0.535
							C729.538,523.705,728.669,523.864,728.153,523.975z"/>
						<path fill="#FFFFFF" d="M324.239,546.154c0.656,0.01,1.27,0.02,1.891,0.028c-0.376-0.026-0.751-0.053-1.121-0.079
							L324.239,546.154z"/>
						<path fill="#FFFFFF" d="M292.227,544.171c1.097,0.003,1.602-0.03,2.217-0.05c-11.438-0.46-32.414-1.966-34.937-1.538
							c3.878,0.219,23.961,1.766,20.516,1.898c7.977,0.313,19.728,1.499,24.03,1.543c-13.072-0.946-1.389-0.541,7.457-0.338
							c8.027,0.543-1.535,0.396,5.38,0.824l18.598,0.801l-16.194-0.83l4.945-0.327c-0.6-0.008-1.012-0.015-1.654-0.023
							c-13.706-0.508-14.278-0.738-14.933-0.96c-0.328-0.11-0.676-0.22-2.697-0.359S299.24,544.525,292.227,544.171z"/>
						<path fill="#FFFFFF" d="M294.444,544.121c1.714,0.068,3.22,0.116,4.393,0.127
							C296.254,544.103,295.249,544.099,294.444,544.121z"/>
						<path fill="#FFFFFF" d="M182.775,535.182c-1.406-0.092-2.93-0.192-4.844-0.317
							C178.843,534.924,180.958,535.063,182.775,535.182z"/>
						<path fill="#FFFFFF" d="M953.142,466.461c-0.085,0.229-1.085,4.209-1.991,8.107c-0.429,1.955-0.922,3.869-1.26,5.289
							c-0.332,1.421-0.505,2.348-0.384,2.305c1.259-4.556,2.273-9.209,3.341-13.874c0,0,0.09-0.453,0.154-0.912
							C953.071,466.919,953.142,466.461,953.142,466.461z"/>
						<path fill="#FFFFFF" d="M25.069,386.686c-0.195,1.768-0.392,3.543-0.588,5.318c-0.017,0.384-0.033,0.754-0.046,1.04
							C24.616,391.969,24.917,388.458,25.069,386.686z"/>
						<path fill="#FFFFFF" d="M275.08,544.386c2.929,0.11,4.236,0.121,4.943,0.096C278.126,544.401,276.375,544.352,275.08,544.386z
							"/>
						<path fill="#FFFFFF" d="M26.189,385.796c0.366-2.241,0.912-5.543,1.125-5.997c0.504-4.612,0.632-7.875,1.062-12.579
							C27.863,372.525,27.155,378.652,26.189,385.796z"/>
						<path fill="#FFFFFF" d="M28.409,366.837c-0.012,0.133-0.023,0.265-0.034,0.383C28.387,367.088,28.397,366.97,28.409,366.837z"
							/>
						<path fill="#FFFFFF" d="M955.02,457.167c0.185-1.358,0.374-2.759,0.569-4.2l-0.229,2.197c0.306-1.809,0.611-3.612,0.916-5.414
							l0.786-5.424c0.15-1.314,0.313-2.739,0.514-4.489c-0.073,0.706-0.103,1.257-0.099,1.601c0.18-1.177,0.32-2.332,0.455-3.487
							c0.144-2.183,0.34-5.175,0.561-8.534c0.158-3.364,0.445-7.084,0.563-10.739c0.331-7.303,0.429-14.304,0.421-17.439
							c0.07-8.294,0.077-18.443,0.06-24.813c0.038,5.902,0.007,13.736,0.282,11.388c0.218-5.99,0.419-10.447,0.529-15.995
							c0.073-5.547,0.018-12.187-0.606-22.532c0,0,0.086,3.036,0.173,6.072c0.068,3.036,0.137,6.072,0.137,6.072
							s-0.362-6.822-0.819-13.64c-0.466-6.816-0.932-13.633-0.932-13.633c0.042-9.581,0.98,13.608,1.383,17.389
							c-1.079-21.217-0.662-38.936-1.836-48.758c0.443-1.407,1.134-3.766,0.628-17.71c-0.243,10.076-0.613-8.353-0.956-0.082
							c-0.443-4.813-0.232-15.575-0.604-16.371l0.23,1.302c0.166-11.929,0.043-19.837-0.135-26.051
							c-0.216-6.213-0.461-10.731-0.526-15.849c0.14-3.576,0.269-6.911,0.391-10.053c0.188-3.141,0.364-6.09,0.532-8.898
							c0.41-5.608,0.853-10.629,1.25-15.479c0.755-9.688,1.496-18.727,0.979-30.201c0.115-0.455,0.389-2.262,0.389-5.109
							c-0.014-0.712-0.027-1.489-0.043-2.326c-0.013-0.84-0.065-1.736-0.174-2.683c-0.095-0.948-0.205-1.952-0.335-3.006
							c-0.134-1.052-0.373-2.139-0.59-3.276c-0.561-2.081-2.193-8.175-4.598-13.648c-2.334-5.503-5.442-10.319-6.227-11.074
							c0.5,0.893,0.988,1.706,1.401,2.48c0.406,0.777,0.78,1.495,1.127,2.159c0.729,1.313,1.209,2.473,1.698,3.438
							c0.237,0.486,0.455,0.932,0.657,1.346c0.184,0.422,0.352,0.812,0.51,1.175c0.329,0.722,0.612,1.341,0.874,1.914
							c0.568,1.13,0.954,2.114,1.446,3.379c0.238,0.636,0.503,1.342,0.814,2.176c0.271,0.848,0.535,1.843,0.86,3.029
							c0.393,2.01,0.438,3.092,0.481,3.723c0.034,0.632,0.005,0.827,0.001,1.111s0.018,0.658,0.152,1.645
							c0.101,0.993,0.266,2.608,0.548,5.375c-0.092-1.12-0.315-2.576-0.546-4.301c-0.099-0.867-0.302-1.779-0.487-2.751
							c-0.197-0.97-0.379-2.002-0.619-3.064c-0.997-4.243-2.532-9.074-4.555-13.728c-2.043-4.643-4.644-9.087-7.089-12.863
							c-2.446-3.777-4.655-6.939-6.043-9.016c0,0,0.542,0.694,1.084,1.387c0.528,0.701,1.057,1.401,1.057,1.401
							c-4.522-6.591-7.223-10.525-10.673-15.552c-1.751-2.518-3.691-5.308-6.15-8.844c-2.432-3.555-5.381-7.892-8.627-13.805
							c0,0-1.494-2.813-2.988-5.627c-0.378-0.692-0.757-1.385-1.111-2.034c-0.371-0.634-0.717-1.226-1.014-1.733
							c-0.292-0.51-0.545-0.927-0.735-1.208c-0.185-0.285-0.291-0.448-0.291-0.448c0.36,0.481,0.453,0.507,0.664,0.755
							c-2.56-4.428-4.813-7.027-6.706-8.915c-0.933-0.958-1.854-1.658-2.632-2.38c-0.802-0.698-1.627-1.232-2.418-1.836
							c-0.783-0.618-1.673-1.114-2.642-1.712c-0.958-0.618-2.09-1.188-3.428-1.857c-2.688-1.311-6.298-2.868-11.76-4.591
							c1.689,0.529,0.656,0.118,2.36,0.688c-6.119-2.267-12.401-4.237-18.417-5.59c-1.5-0.355-2.965-0.741-4.418-1.043
							c-1.459-0.276-2.886-0.546-4.276-0.81c-2.783-0.501-5.389-1.097-7.837-1.424c-2.928-0.739-2.559-0.793-0.983-0.626
							c0.786,0.094,1.875,0.224,3,0.358c1.12,0.165,2.271,0.365,3.202,0.475c-11.266-2.403-23.195-3.809-34.058-4.358
							c-2.718-0.123-5.37-0.171-7.927-0.246c-1.279-0.026-2.533-0.079-3.763-0.079c-1.23,0.011-2.435,0.021-3.609,0.032
							c-2.349,0.028-4.58,0.055-6.671,0.08c-2.09,0.091-4.04,0.177-5.825,0.254c0,0-0.927-0.012-2.315-0.031
							c-1.39-0.029-3.243-0.044-5.098-0.007c-3.708,0.041-7.417,0.083-7.417,0.083c2.196-0.129,4.516-0.266,6.717-0.396
							c1.101-0.076,2.172-0.15,3.184-0.22c1.012-0.054,1.965-0.104,2.828-0.15c3.452-0.203,5.474-0.409,4.129-0.545
							c-8.174,0.124-6.586,0.336-18.14,0.605c1.957-0.365,6.795-0.818,12.232-1.312c-11.979,0.036-13.308,0.415-13.735,0.654
							c-0.431,0.238,0.039,0.376-8.351,0.342c-7.508,0.498-11.831,1.236-12.62,1.684c0,0-3.401,0.168-6.804,0.336
							c-3.403,0.15-6.804,0.38-6.804,0.38c-1.466,0.578-18.188,2.296-29.127,3.639c-1.314,0.354,8.87-0.501,13.003-1.119
							c-0.78,0.437-12.407,1.902-19.9,2.758c-1.428-0.335-13.686,1.128-24.512,2.326c-10.826,1.2-20.222,2.071-15.836,1.069
							c-16.849,1.792-37.19,3.521-56.169,3.672c-2.372,0.019-4.722,0.038-7.038,0.057c-2.318-0.042-4.604-0.083-6.848-0.123
							c-1.122-0.02-2.234-0.039-3.334-0.058c-1.1-0.05-2.188-0.1-3.263-0.148c-2.15-0.103-4.25-0.203-6.288-0.3
							c-4.076-0.223-7.9-0.61-11.415-0.861c-3.507-0.332-6.686-0.75-9.48-1.042c-1.834-0.267-4.125-0.723-6.4-1.163
							c-2.273-0.438-4.531-0.872-6.284-1.209c-3.477-0.821-4.921-1.273-0.463-0.538c-13.424-2.637-23.415-5.459-33.377-8.083
							c-4.979-1.333-9.949-2.62-15.313-3.943c-5.38-1.231-11.125-2.637-17.764-3.594c-1.092-0.206,1.917,0.179,5.065,0.709
							c3.137,0.597,6.439,1.184,6.003,0.953c-2.161-0.399-4.273-0.79-6.366-1.176c-2.099-0.348-4.19-0.623-6.286-0.956
							c-2.092-0.367-4.221-0.557-6.389-0.799c-2.168-0.244-4.38-0.511-6.683-0.625c-9.186-0.696-19.673-0.847-33.315,0.324
							c4.589-0.406,5.922-0.589,6.556-0.749c0.484,0.087-11.18,1.001-18.202,1.983c-3.97,0.314,5.265-0.646,3.03-0.547
							c-26.361,2.523-49.312,7.004-72.233,11.27c-5.726,1.095-11.471,2.116-17.255,3.171c-5.777,1.092-11.638,2.014-17.589,2.971
							c-2.98,0.457-5.968,1.009-9.015,1.39c-3.046,0.39-6.122,0.784-9.234,1.183c-1.557,0.196-3.122,0.394-4.697,0.593
							c-1.575,0.204-3.16,0.405-4.767,0.514c-3.208,0.263-6.459,0.529-9.758,0.799c3.769-0.303,6.948-0.599,9.598-0.877
							c2.655-0.235,4.753-0.669,6.401-0.942c3.288-0.595,4.715-0.999,4.779-1.139c0,0-3.667,0.444-7.334,0.888
							c-1.83,0.254-3.677,0.359-5.057,0.479c-1.382,0.111-2.303,0.186-2.303,0.186c-2.824,0.391-7.006,0.811-11.637,1.257
							c-2.315,0.234-4.754,0.294-7.187,0.457c-2.434,0.125-4.867,0.319-7.188,0.41c-1.145-0.107-5.663-0.181-1.059-0.392
							c-14.605-0.002-25.995-0.138-38.223-0.336c-12.225-0.223-25.272-0.757-43.069-2.266c0,0,10.814,0.454,21.628,0.907
							c5.41,0.173,10.82,0.347,14.878,0.477c4.059,0.077,6.765,0.129,6.765,0.129s-2.667-0.245-5.335-0.49
							c-2.667-0.23-5.33-0.529-5.33-0.529c0,0,1.188,0.036,2.971,0.09c1.783,0.033,4.161,0.077,6.539,0.121
							c2.377,0.036,4.753,0.101,6.536,0.103s2.971,0.004,2.971,0.004c-2.833-0.166-5.573-0.305-8.113-0.421
							c-2.541-0.105-4.881-0.166-6.91-0.215c-4.057-0.13-6.867-0.233-7.534-0.515c2.402,0.009,8.168,0.414,8.365,0.137
							c-10.864-0.831-11.742-0.511-19.923-0.992c10.804,0.251,26.757,1.082,42.849,1.272c16.091,0.204,32.31-0.254,43.589-1.542
							c3.551-0.367-3.026,0.486-3.651,0.639c4.615-0.392,8.314-0.622,12.313-0.895c3.993-0.345,8.271-0.896,14.056-1.668
							c7.14-1.294-5.527,0.361-11.239,1.013c0.748-0.46,3.619-0.788,9.964-1.616c0.36,0.079,2.721-0.136,6.191-0.51
							c3.462-0.451,8.025-1.134,12.804-1.824c4.781-0.66,9.764-1.479,14.069-2.155c4.306-0.667,7.936-1.19,10.001-1.389
							c33.79-6.092-5.646-0.332,27.436-5.861l9.975-1.133c4.804-0.843,9.96-1.748,15.332-2.69c2.681-0.5,5.45-0.834,8.242-1.25
							c2.796-0.394,5.63-0.793,8.483-1.196c11.419-1.563,23.291-2.566,34.421-2.686l-4.688,0.119
							c-3.111,0.312,2.05,0.338,4.33,0.416c16.757-0.199,31.992,1.116,41.871,3.795c9.478,1.612,21.763,5.085,34.261,8.403
							c12.474,3.382,25.394,5.759,36.037,7.082c1.408,0.367,0.375,0.366-2.112,0.147c-2.479-0.263-6.387-0.902-10.758-1.573
							c-2.174-0.392-4.444-0.889-6.714-1.339c-2.268-0.464-4.531-0.891-6.636-1.428c-4.225-0.971-7.911-1.95-10.107-2.427
							c0,0,1.184,0.326,2.96,0.815c0.888,0.244,1.924,0.529,3.033,0.834c1.112,0.283,2.299,0.584,3.485,0.885
							c2.366,0.637,4.758,1.145,6.552,1.524c1.793,0.387,2.988,0.646,2.988,0.646c-2.952-0.653-5.475-1.123-7.68-1.641
							c-2.208-0.508-4.119-0.948-5.883-1.354c-3.53-0.844-6.492-1.469-10.061-2.291c8.289,2.45,13.841,3.832,19.347,4.855
							c2.752,0.501,5.477,0.999,8.515,1.552c3.059,0.431,6.424,0.945,10.441,1.561c-1.285,0.037,0.852,0.435,8.307,1.402l2.17-0.217
							c0.134,0.052,0.957,0.163,3.264,0.403c0,0,1.805,0.145,4.512,0.362c2.702,0.271,6.328,0.37,9.945,0.55
							c3.615,0.215,7.244,0.203,9.961,0.254c2.718,0.037,4.529,0.062,4.529,0.062c-3.074-0.174-4.681-0.377-6.454-0.552
							c-1.772-0.197-3.716-0.275-7.441-0.521c1.325,0.217,0.405,0.25-1.78,0.177c-2.184-0.093-5.644-0.189-9.36-0.584
							c6.545,0.272-7.231-0.926-7.043-1.173c3.726,0.323,7.657,0.734,11.629,1.01c1.989,0.106,3.985,0.213,5.964,0.319
							c1.979,0.107,3.939,0.224,5.867,0.238c1.927,0.038,3.813,0.075,5.634,0.111c1.821,0.046,3.58,0.065,5.254,0.029
							c3.345-0.048,6.341-0.091,8.799-0.126l3.208,0.36c14.325-0.211,29.434-1.597,39.148-2.334l-3.04,0.494
							c17.193-1.318,34.062-3.573,49.375-4.882c15.269-2.289,34.573-4.842,47.165-6.422c1.68-0.271,5.348-0.669,10.208-0.951
							c2.429-0.147,5.146-0.332,8.056-0.467c2.914-0.114,6.015-0.235,9.199-0.359c3.189-0.068,6.463-0.138,9.716-0.208
							c3.252-0.093,6.494-0.019,9.604-0.058c3.111-0.051,6.103,0.027,8.865,0.045c2.764,0.033,5.298-0.029,7.503,0.023
							c0.591,0.059-2.437-0.019-6.357,0.058c-1.96,0.019-4.144,0.04-6.213,0.059c-2.065,0.076-4.017,0.148-5.515,0.204
							c5.835-0.054,11.084,0.029,15.331,0.002c4.247,0.097,7.493,0.275,9.305,0.671c-6.554-0.418-9.745-0.58-11.028-0.534
							c-1.282,0.009-0.658,0.097,0.416,0.206c1.073,0.1,2.596,0.248,3.11,0.376c0.516,0.139,0.025,0.109-2.924,0.102
							c12.259,0.379,25.168,1.584,31.175,2.258c-9.879-1.264-8.104-1.249-6.357-1.206c0.873,0.021,1.739,0.051,1.131-0.07
							c-0.304-0.06-0.977-0.157-2.2-0.312c-1.226-0.136-3.008-0.26-5.523-0.458c7.819,0.346,17.034,1.515,26.567,3.124
							c2.368,0.495,4.759,0.995,7.157,1.496l3.598,0.77l3.557,0.945c2.365,0.641,4.722,1.279,7.052,1.91
							c2.296,0.758,4.565,1.507,6.796,2.243c-0.13,0.097,0.347,0.352,1.682,0.863c1.337,0.499,3.523,1.298,6.807,2.657
							c0,0,0.343,0.111,0.855,0.277c0.513,0.171,1.2,0.374,1.881,0.638c1.366,0.505,2.733,1.011,2.733,1.011
							c4.076,2.095,0.083,0.121-2.92-1.008c-1.499-0.577-2.742-0.974-2.565-0.852c0.172,0.143,1.778,0.747,5.882,2.707
							c4.269,1.874,9.625,4.852,14.328,9.64c1.22,1.147,2.254,2.495,3.322,3.825c0.969,1.376,1.945,2.769,2.771,4.204
							c1.697,2.852,3.134,5.759,4.466,8.49c1.341,2.732,2.607,5.283,3.969,7.589c0.639,1.175,1.359,2.273,2.025,3.339
							c0.654,1.07,1.35,2.068,2.004,3.014c2.616,3.785,4.952,6.604,6.332,7.967c3.886,5.493-0.152,0.495-3.453-3.888
							c-1.655-2.189-3.096-4.247-3.492-4.69c-0.201-0.22-0.14-0.038,0.302,0.73c0.227,0.381,0.543,0.911,0.962,1.614
							c0.451,0.689,1.013,1.547,1.701,2.597c-0.879-1.166-1.819-2.382-2.688-3.672c-0.441-0.643-0.888-1.293-1.337-1.947
							c-0.423-0.667-0.85-1.338-1.275-2.01c-1.71-2.694-3.194-5.471-4.54-8.152c-1.329-2.677-2.594-5.249-3.729-7.3
							c-0.599-1.029-1.107-1.939-1.607-2.684c-0.505-0.744-0.932-1.332-1.265-1.732c1.676,2.595,2.457,4.191,2.947,5.173
							c0.46,0.987,0.586,1.385,0.646,1.668c0.122,0.562-0.012,0.679,1.653,4.057c0,0,0.38,0.713,0.949,1.783
							c0.587,1.044,1.328,2.46,2.168,3.802c0.408,0.679,0.816,1.357,1.199,1.993c0.408,0.624,0.788,1.206,1.114,1.705
							c0.655,0.995,1.092,1.659,1.092,1.659l-1.456-2.404c2.866,4.488,6.501,9.446,10.608,14.75
							c4.097,5.307,8.665,10.988,13.048,17.16c2.158,3.116,4.333,6.301,6.256,9.7c0.504,0.832,0.98,1.684,1.427,2.558l1.365,2.601
							c0.813,1.791,1.718,3.537,2.387,5.38c2.947,7.266,4.687,14.805,5.633,21.923c1.786,12.052,1.799,22.312,1.455,32.981
							c-0.367,10.705-1.354,21.761-2.012,35.776c-0.001-4.156-0.337,1.673-0.66,6.332c-0.245,4.664-0.515,8.157-0.58-0.721
							c-0.195,3.255-0.294,6.507-0.386,9.552c-0.067,3.046-0.055,5.892-0.045,8.335c0.037,4.887,0.242,8.177,0.361,8.304
							c0.078-11.489,0.08-4.041,0.293-13.709c0.162,6.525,0.244,21.574,0.163,27.771c-0.029-2.87-0.065-1.778-0.177-2.409
							c0.066,13.738,0.422,6.573,0.834,16.497c-0.396,3.16,0.617,21.937,0.769,31.039l1.163,13.161
							c-0.697-7.236,0.335,12.653,0,14.754c0.595,9.466,1.403,17.405,1.432,31.894c-0.258-5.981-0.238,13.222-0.754,13.475
							c-0.331,12.404-0.39,22.694-0.824,32.84c-0.438,10.139-1.12,20.148-3.103,31.829c0.019-0.369,0.106-1.748,0.063-2.18
							c-0.062-0.433-0.156,0.093-0.763,3.499c-0.684,5.403-2.354,14.805-3.617,20.508l0.027-0.182
							c-0.021,0.111-0.032,0.181-0.054,0.3c-0.587,2.799-0.919,4.567-0.834,4.66c-0.456,2.461-0.931,4.611-1.356,6.774
							c-0.22,1.081-0.439,2.161-0.667,3.279c-0.249,1.113-0.538,2.256-0.833,3.476c-0.304,1.22-0.625,2.512-0.974,3.915
							c-0.178,0.701-0.362,1.43-0.556,2.191c-0.221,0.753-0.451,1.539-0.692,2.361c-0.982,3.282-2.082,7.172-3.776,11.833
							c0.477-0.599,2.183-4.827,3.754-9.864c0.404-1.255,0.822-2.554,1.239-3.849c0.367-1.31,0.732-2.616,1.085-3.873
							c0.68-2.52,1.348-4.83,1.752-6.594l1.062-6.177c0.271-0.701,0.542-1.498,0.809-2.364c0.24-0.872,0.474-1.813,0.702-2.798
							c0.457-1.968,0.892-4.107,1.302-6.206c0.712-4.214,1.315-8.262,1.827-10.473c-0.619,5.889-2.495,17.253-5.717,29.461
							c-0.852,3.039-1.722,6.144-2.591,9.245c-0.976,3.073-1.95,6.145-2.903,9.146c-1.052,2.972-2.08,5.875-3.06,8.642
							c-1.022,2.82-2.165,5.577-3.377,8.096c1.711-2.942,3.531-6.959,5.166-11.278c0.43-1.098,0.874-2.232,1.331-3.4
							c0.464-1.167,0.921-2.373,1.333-3.626c0.848-2.501,1.735-5.119,2.651-7.82c3.451-10.875,6.43-23.351,8.466-35.065
							c0,0-0.553,2.562-1.105,5.123c-0.263,1.282-0.563,2.558-0.811,3.511c-0.236,0.955-0.394,1.592-0.394,1.592
							s0.165-0.761,0.413-1.902c0.266-1.138,0.539-2.668,0.823-4.197c0.568-3.058,1.137-6.114,1.137-6.114s-0.68,2.934-1.359,5.868
							c-0.644,2.938-1.446,5.845-1.446,5.845c2.508-11.508,3.911-21.58,5.198-32.095c-1.491,12.325-3.09,16.979-1.855,10.063
							c1.138-6.816,1.529-10.4,1.693-13.587c0.098-1.592,0.189-3.083,0.297-4.833c0.11-1.749,0.211-3.757,0.44-6.378
							c-0.461,5.84-1.354,13.42-1.098,8.503c0.367-2.573,0.601-4.917,0.826-7.081c0.219-2.165,0.439-4.15,0.591-6.012
							c0.276-3.723,0.535-6.948,0.711-10.114c0.343-6.333,0.657-12.43,1.084-21.824c-0.439,1.161-0.326-4.713-0.373-11.213
							c0.007-6.505-0.123-13.637-0.472-15.033l0.052,8.693c0,0-0.188-4.606-0.377-9.213c-0.227-4.599-0.454-9.198-0.454-9.198
							c0.163-16.989,1.125,15.01,0.817-10.831c-0.762-23.801-1.667-23.138-2.438-41.783c0.695,6.12,1.749,20.884,2.283,35.985
							l-0.11-9.146c0.483,4.812,1.185,25.712,1.297,36.188c-0.465-8.636-0.464-6.611-0.378-1.448
							c0.075,5.166,0.149,13.486-0.084,17.429c0.469,1.45,0.377-9.679,0.772,3.461c-0.017-6.155-0.018-9.686-0.074-13.624
							c-0.043-3.938-0.09-8.294-0.175-16.106c0.335,16.869,0.672,24.49,1.04,31.574c0.133,3.548,0.343,6.957,0.314,11.346
							c-0.008,2.194-0.009,4.628-0.104,7.444c-0.117,2.817-0.239,6.013-0.487,9.727c0.228-6.856-0.021-5.666-0.314-2.565
							c-0.307,3.103-0.827,8.119-0.979,8.935c-0.069,1.61-0.219,3.635-0.385,5.851c-0.174,2.216-0.314,4.623-0.533,6.995
							c-0.45,4.745-0.856,9.36-1.19,12.048c0,0,0.325-1.194,0.65-2.388c0.338-1.194,0.617-2.395,0.617-2.395
							c-0.427,4.338-0.969,7.954-1.483,11.25c-0.601,3.289-1.194,6.259-1.8,9.31c-0.69,3.04-1.361,6.165-2.093,9.77
							c-0.407,1.796-0.823,3.714-1.251,5.804c-0.209,1.046-0.425,2.135-0.651,3.271c-0.25,1.133-0.512,2.313-0.784,3.548
							c-0.151,1.32,1.069-2.971,1.927-7.204c0.451-2.112,0.896-4.194,1.18-5.525c0.256-1.335,0.354-1.92,0.208-1.023
							c-2.516,13.6-5.313,22.662-8.241,31.209c-0.776,2.124-1.544,4.226-2.325,6.364c-0.808,2.128-1.728,4.258-2.629,6.499
							c-0.456,1.118-0.922,2.261-1.4,3.434c-0.521,1.213-1.077,2.458-1.683,3.745c-1.229,2.572-2.643,5.314-4.551,8.21
							c-0.355,0.713-0.371,1.064-1.005,2.282c-0.356,0.602-0.775,1.441-1.657,2.611c-0.423,0.589-0.925,1.269-1.608,2.03
							c-0.639,0.777-1.487,1.618-2.486,2.566c1.146-1.306,0.175-0.636,0.046-0.706c-0.067-0.034,0.074-0.248,0.771-0.977
							c0.679-0.735,1.878-2.016,3.581-4.292c-1.519,1.871-3.28,3.785-5.38,5.546c-2.096,1.762-4.6,3.301-7.272,4.405
							c-1.328,0.588-2.724,0.959-4.095,1.331c-0.694,0.122-1.384,0.243-2.067,0.363c-0.343,0.056-0.685,0.11-1.024,0.165
							c-0.332,0.022-0.662,0.045-0.99,0.067c-0.658,0.036-1.309,0.07-1.95,0.105c-0.634,0.015-1.227-0.03-1.829-0.047
							c-1.22-0.021-2.31-0.158-3.362-0.289c0.62,0.093,1.194,0.179,1.723,0.257c0.534,0.074,1.063,0.095,1.525,0.136
							c0.941,0.062,1.676,0.153,2.316,0.125c1.251-0.007,1.833-0.004,1.897,0.028c0.065,0.031-0.388,0.09-1.206,0.156
							c-0.405,0.026-0.918,0.08-1.474,0.085c-0.548-0.015-1.163-0.03-1.828-0.047c-0.332-0.014-0.678-0.026-1.032-0.04
							c-0.337-0.035-0.683-0.072-1.036-0.109c-0.698-0.083-1.457-0.15-2.172-0.264c-1.417-0.235-2.873-0.492-4.128-0.784
							c-2.425-0.56-4.512-1.041-5.298-1.223c-4.084-1.096-3.416-1.005-1.136-0.553c1.162,0.231,2.716,0.652,4.457,1.058
							c0.837,0.211,1.753,0.408,2.618,0.597c0.844,0.197,1.71,0.351,2.47,0.484c-3.951-0.815-7.613-2.225-10.774-3.061
							c-3.201-0.891-6.076-1.611-8-1.783c-0.073-0.229,4.537,0.614,10.761,1.964c3.135,0.743,6.941,1.765,11.235,2.245
							c2.127,0.259,4.421,0.29,6.68,0.113c1.13-0.094,2.273-0.334,3.367-0.512c1.083-0.28,2.153-0.551,3.146-0.92
							c0,0-0.168,0.062-0.462,0.17c-0.302,0.083-0.732,0.201-1.25,0.343c-1.03,0.326-2.435,0.528-3.841,0.72
							c-0.71,0.128-1.381,0.091-2.029,0.131c-0.641,0.014-1.254,0.052-1.752,0.03c-0.989-0.063-1.649-0.104-1.649-0.104
							c1.796,0.107,3.325-0.036,4.681-0.119c0.686-0.073,1.35-0.204,2-0.305c0.651-0.111,1.301-0.196,1.962-0.399
							c0.661-0.188,1.36-0.348,2.09-0.604c0.72-0.278,1.512-0.552,2.349-0.928c1.643-0.795,3.613-1.824,5.702-3.539
							c-0.54,0.387-1.043,0.747-1.511,1.083c-0.485,0.317-0.964,0.581-1.393,0.834c-0.846,0.521-1.637,0.843-2.271,1.124
							c-0.319,0.134-0.605,0.254-0.861,0.36c-0.267,0.081-0.501,0.151-0.706,0.214c-0.411,0.116-0.704,0.184-0.899,0.213
							c-0.777,0.115,0.012-0.359,1.098-0.955c1.29-0.514-0.658,0.425,0.57-0.082c4.011-1.836,6.805-4.434,8.363-6.161
							c0.818-0.86,1.295-1.551,1.555-1.912c0.249-0.365,0.232-0.423-0.107-0.103c1.027-1.476,1.004-1.713,0.516-1.127
							c-0.521,0.572-1.638,1.927-3.2,3.467c-1.588,1.523-3.688,3.182-5.886,4.375c-2.194,1.208-4.431,1.87-5.832,2.145
							c-0.52,0.165-1.051,0.25-1.584,0.336l-1.598,0.256c-1.059,0.124-2.104,0.129-3.156,0.185c-1.015-0.052-2.047-0.077-3.04-0.169
							c-0.968-0.133-1.969-0.224-2.899-0.399c0,0-0.607-0.092-1.671-0.252c-0.543-0.072-1.148-0.207-1.868-0.341
							c-0.724-0.135-1.521-0.297-2.363-0.488c-3.407-0.81-7.667-1.6-12.015-2.461c-2.168-0.407-4.313-0.89-6.355-1.209
							c-2.047-0.289-3.958-0.559-5.596-0.79c-3.269-0.462-5.448-0.771-5.448-0.771c-0.926-0.156-1.811-0.353-2.683-0.467
							c-0.87-0.119-1.713-0.233-2.528-0.345c-1.631-0.234-3.157-0.454-4.605-0.662c-1.446-0.224-2.814-0.435-4.129-0.638
							c-1.313-0.215-2.571-0.427-3.815-0.554c-2.479-0.313-4.842-0.612-7.288-0.922c-2.449-0.295-4.971-0.705-7.808-0.883
							l-3.144,0.315c-3.281-0.182-6.511-0.429-9.391-0.56c-2.885-0.086-5.407-0.178-7.256-0.274
							c-3.696-0.194-4.696-0.408-0.465-0.638c0.473,0.173,2.215,0.167,5.078,0.246c0.38-0.06,1.043-0.095,1.877-0.117
							c0.276-0.03,0.429-0.048,0.657-0.073c-14.13-0.247-22.968,0.163-23.78,0.164c24.029-1.035,1.195-0.907,5.204-1.832
							c0,0-1.522,0.038-3.805,0.095c-2.283,0.068-5.325,0.092-8.369,0.293c-3.043,0.162-6.086,0.324-8.368,0.445
							c-1.141,0.061-2.091,0.111-2.757,0.146c-0.665,0.031-1.046,0.071-1.045,0.071c7.387-0.199,7.456-0.074,5.03,0.107
							c-1.215,0.082-3.052,0.207-4.913,0.333c-1.86,0.158-3.744,0.317-5.052,0.429c-0.737-0.175-5.639,0.076-11.42,0.608
							c-5.78,0.564-12.446,1.215-16.712,1.632l0.619-0.164c-7.919,0.596-21.758,2.167-31.593,3.523
							c0.469,0.102-12.068,2.439-18.084,3.697c16.934-1.942,6.922-0.486,8.315-0.355c-1.753,0.192-4.9,0.582-5.26,0.69
							c-2.402,0.442,3.309-0.229,3.806-0.128c17.938-2.503,36.364-4.593,43.614-5.959c-5.54,0.274-9.354,1.197-15.541,1.72
							c8.841-1.456,20.32-2.556,35.223-3.69l4.914,0.088c0,0,3.743-0.302,7.487-0.604c3.744-0.215,7.488-0.429,7.488-0.429
							c-6.246,0.517-2.459,0.612-18.168,1.749c1.017,0.127,4.909-0.15,9.753-0.523c4.842-0.316,10.634-0.599,15.444-0.748
							l4.901-0.617c-1.883,0.329,18.671,0.111,4.07,0.722c0,0-1.483,0.048-3.709,0.119c-2.226,0.075-5.19,0.136-8.161,0.352
							c-2.969,0.179-5.937,0.358-8.163,0.492c-1.112,0.067-2.04,0.123-2.689,0.162c-0.648,0.036-1.021,0.077-1.021,0.077
							s0.415-0.014,1.036,0c0.62,0.009,1.448,0.021,2.275,0.033c1.655,0.024,3.31,0.049,3.31,0.049s-1.255,0.059-3.136,0.146
							c-1.881,0.067-4.391,0.23-6.901,0.421c-5.021,0.356-10.042,0.712-10.042,0.712l4.721-0.592
							c-2.017,0.153-3.818,0.29-5.432,0.413c-1.615,0.144-3.043,0.27-4.309,0.382c-2.532,0.215-4.422,0.353-5.883,0.441
							c-2.922,0.177-4.132,0.145-5.349,0.157c-1.216,0.005-2.438,0.018-5.389,0.276c-2.949,0.264-7.625,0.733-15.753,1.846
							c-10.123,1.789-21.065,3.245-41.124,5.604c14.482-1.97,1.435-0.649,6.84-1.714c-14.82,1.597-19.761,2.75-27.43,3.937
							c-3.819,0.114-6.54,0.158,6.715-1.405c0.785-0.464-3.567,0.099-8.279,0.702c-4.714,0.59-9.809,1.115-10.454,0.819
							c-11.001,1.177-18.689,2.149-24.843,3.019c-3.074,0.453-5.768,0.851-8.3,1.225c-2.535,0.34-4.909,0.659-7.34,0.985
							c-4.864,0.646-9.966,1.283-17.081,1.966c-3.558,0.342-7.619,0.695-12.405,1.066c-1.196,0.091-2.438,0.185-3.729,0.282
							c-1.293,0.065-2.634,0.132-4.027,0.202c-2.787,0.126-5.782,0.261-9.015,0.407l1.916-0.419
							c-16.389,1.134-29.315,2.109-41.959,2.471c-6.32,0.246-12.563,0.489-19.128,0.745c-3.281,0.138-6.644,0.278-10.135,0.424
							c-3.492,0.092-7.114,0.187-10.915,0.285l-23.956-0.294c5.353-0.225,19.73-1.086,13.008-1.324
							c5.826,0.273,11.829,0.281,17.942,0.241c3.058,0.004,6.142-0.096,9.245-0.178c3.104-0.077,6.229-0.14,9.369-0.159
							c1.271-0.253-3.839-0.197-6.066-0.234c7.565-0.292,11.377-0.093,21.364-0.624c-0.489-0.141-11.398,0.098-3.187-0.322
							l13.615-0.06c18.163-1.303,8.888-1.681,30.237-2.747c-3.938,0.667-12.006,1.776-20.268,2.379
							c9.762-0.498-12.992,1.045-4.075,0.762c7.012-0.741,12.219-1.09,18.008-1.443c2.895-0.18,5.934-0.369,9.417-0.585
							c1.74-0.121,3.593-0.25,5.593-0.39c0.999-0.076,2.036-0.155,3.114-0.238c1.077-0.11,2.195-0.224,3.36-0.343
							c-2.186,0.264-2.753,0.475-7.351,0.775c0,0,1.696-0.089,4.239-0.224c2.541-0.185,5.929-0.432,9.316-0.679
							c6.776-0.494,13.552-0.987,13.552-0.987c-6.732,0.166,22.338-2.215,19.758-2.643c-14.426,1.179-19.52,1.595-25.115,2.052
							c-2.799,0.23-5.723,0.472-10.001,0.824c-2.141,0.165-4.62,0.356-7.592,0.586c-2.976,0.157-6.445,0.341-10.563,0.559
							c9.318-0.584,21.268-2.238,26.845-3.201c0.287-0.002,0.763-0.024,1.774-0.098c4.975-0.959-0.154-0.682-0.134-1.639
							c-7.465,0.939-13.711,1.545-20.303,2.004c-6.598,0.394-13.533,0.771-22.372,1.502c-3.299,0.723,10.313,0.042,19.105-0.625
							l-15.577,1.289l3.057-0.426c0,0-9.901,0.556-19.803,1.111c-1.237,0.069-2.476,0.139-3.693,0.207
							c-1.22,0.043-2.42,0.086-3.581,0.127c-2.322,0.081-4.49,0.157-6.348,0.223c-3.716,0.131-6.193,0.218-6.193,0.218
							c7.509-0.325,10.044-0.729,13.95-1.111c-5.112,0.182-10.182,0.245-15.571,0.307c1.151,0.453,0.454,0.833-4.534,1.021
							c-6.376,0.197-12.044,0.373-17.106,0.529c-5.063,0.106-9.524,0.058-13.48,0.054c-7.914-0.04-13.815-0.177-18.524-0.368
							c-0.978,0.031-2.081,0.066-2.968,0.095c2.142,0.21-2.381,0.537-8.43,0.878c-6.048,0.239-13.621,0.482-17.573,0.749
							c0.39-0.528-13.148-0.298-20.499-0.558c-3.917,0.611,1.296,1.44,10.256,1.922c17.26-0.578,9.672-0.572,17.82-1.369
							c0,0,1.729-0.035,4.323-0.089c2.594-0.058,6.053-0.097,9.51-0.259c6.915-0.269,13.83-0.537,13.83-0.537l-6.177,0.606
							c13.817-0.062,27.066-0.963,26.069-0.314c-7.287,0.563-19.345,0.55-26.582,1.114l9.144,0.048
							c-8.057,0.469-10.127,0.361-12.621,0.238c-2.494-0.143-5.411-0.188-15.17,0.003c7.186,0.523-1.769,0.041-10.131,0.411
							c3.357,0.174,11.954,0.146,18.977,0.133c7.023-0.11,12.475-0.123,9.548,0.39c-2.538,0.149-5.944,0.2-9.835,0.211
							c-3.891-0.041-8.266-0.167-12.743-0.257c-8.955-0.19-18.314-0.316-25.036,0.145l0.658-0.104
							c-4.957,0.011-9.107-0.09-12.664-0.1c-3.556-0.019-6.518-0.001-9.092,0.036c-5.149,0.074-8.75,0.229-12.463,0.333
							c-4.214-0.23-9.237-0.224-14.345-0.312c-5.108-0.092-10.306-0.145-14.875-0.273l0.232-0.257l-12.895-0.299
							c6.154-0.286,15.106,0.493,26.183,0.774l-1.365-0.534c6.373,0.536,11.701,0.459,16.668,0.36
							c4.965-0.175,9.578-0.337,14.53-0.512c-7.208,0.098-17.381-0.088-26.177-0.196c-8.791-0.242-16.207-0.374-17.913,0.052
							l-8.896-0.778l-4.269,0.043c-6.626-0.582,0.175-0.949,13.046-0.652c2.231,0.195,3.348,0.292,2.667,0.373
							c2.99-0.015,5.859-0.074,9.786-0.058c1.964,0.022,4.192,0.048,6.833,0.078c2.642,0.019,5.696,0.064,9.311,0.149l-7.722,0.139
							c18.006,0.305,34.38,0.419,40.548-0.03c-12.994-0.261-25.879-0.52-38.566-0.773c-1.586-0.029-3.169-0.06-4.748-0.089
							c-1.579-0.053-3.154-0.105-4.726-0.159c-3.144-0.103-6.274-0.206-9.389-0.308c-6.23-0.197-12.399-0.393-18.497-0.585
							c-7.236,0.928-15.794,1.127-19.506,1.984c-8.188-0.286-17.84-0.652-27.22-1.076c-9.377-0.464-18.472-1.132-25.563-1.728
							l1.317-0.124c-6.923-0.521-13.312-0.85-18.645-1.054c-7.301-0.729,5.045-0.229-0.045-0.694l-23.42-1.331
							c0.739-0.181,6.029,0.085,12.303,0.477c3.136,0.207,6.52,0.43,9.704,0.64c3.186,0.182,6.172,0.352,8.512,0.484
							c-1.768-0.066-5.338-0.203-4.198-0.072c10.875,0.846,31.195,1.271,35.917,2.23c2.655,0.096-0.045,0.066-1.165,0.14
							c-1.119,0.057-0.664,0.321,8.324,0.739c12.023,0.814,15.971,0.392,17.237,0.248c0.207-0.256-18.866-1.24-12.23-1.251
							c-4.683-0.203-7.961-0.255-11.563-0.374c-3.6-0.159-7.523-0.373-13.499-0.86c4.637,0.256,10.11,0.465,15.041,0.643
							c4.933,0.143,9.32,0.315,11.782,0.636c18.373,0.361,15.791-1,7.15-1.471c2.042,0.484-33.481-1.078-9.456,0.547
							c-2.708-0.001-5.972-0.059-9.568-0.15c-3.594-0.111-7.515-0.311-11.542-0.495c-8.053-0.381-16.521-0.811-23.594-1.079
							l0.648-0.062c0,0-4.386-0.237-8.772-0.476c-4.382-0.286-8.765-0.572-8.765-0.572c2.477,0.041,7.781,0.307,7.973,0.057
							l-24.316-1.052c13.695,0.516-8.443-0.942-14.643-1.602c-2.629,0.199-12.122-0.308-3.053,0.686
							c10.198,1.087,5.968,0.229,15.267,0.883l-13.215-0.321l-1.124-0.157l-7.959-0.142c-17.917-1.535,7.925-0.554-15.075-1.965
							l2.928,0.958c-6.643-0.588-13.757-1.234-20.979-1.948c-7.216-0.766-14.546-1.544-21.633-2.296
							c-7.088-0.736-13.932-1.447-20.176-2.096c-6.24-0.67-11.884-1.236-16.578-1.635c5.211,0.127,7.554-0.287,0.486-1.398
							c4.033,0.475,10.11,1.122,16.627,1.79c6.521,0.638,13.488,1.247,19.29,1.764c1.11,0.166-2.532,0.036-8.027-0.302
							c-2.747-0.17-5.958-0.391-9.268-0.653c-3.308-0.281-6.713-0.621-9.857-0.979c5.979,1.858,31.761,2.334,33.129,3.663
							c8.02,0.852,13.533,1.354,17.717,1.661c4.188,0.273,7.046,0.379,9.75,0.479c5.409,0.203,10.205,0.389,23.82,1.875
							c0.419-0.504,7.774,0.413,9.249,0.027c-4.008-0.725-13.122-1.51-23.449-2.286c-10.327-0.782-21.866-1.581-30.689-2.603
							c1.735,0.124,5.226,0.372,5.916,0.336c-12.627-1.337-17.859-1.709-26.709-2.341l1.107,0.166
							c-15.48-0.93-9.509-1.291-18.559-2.438c-3.522-0.282-16.121-1.726-14.132-1.133l-16.375-2.181l0.73,0.666
							c-9.268-0.937-11.248-1.58-19.678-2.137l-0.446,0.48c0,0,5.744,0.678,11.487,1.356c5.741,0.696,11.493,1.311,11.493,1.31
							c-11.682-1.027-3.305,0.176-16.126-1.109c14.368,1.002-10.089-1.404-11.444-2.045l-9.451-0.742l2.424,0.126
							c-7.36-1.097-8.827-0.744-17.439-1.823c10.134,1.473,16.764,2.53,29.769,3.6c-9.471-0.75-28.234-2.459-32.822-3.018
							c-4.965-0.468-9.165-1.002-13.28-1.563c-2.057-0.284-4.095-0.564-6.196-0.854c-1.051-0.142-2.118-0.284-3.21-0.432
							c-1.316-0.165-2.664-0.334-4.056-0.509c0.802,0.085,1.546,0.164,2.236,0.237c0.478,0.045,0.919,0.086,1.325,0.124
							c0.813,0.064,1.487,0.118,2.047,0.162c1.122,0.073,1.79,0.081,2.202,0.051c0.824-0.059,0.625-0.264,0.981-0.387
							c0.712-0.244,3.647-0.156,21.439,2.107c-0.67,0.023-3.552-0.335-4.662-0.526c4.669,1.256,21.373,2.374,29.132,2.964
							c-1.949-0.604,6.146,0.19-7.536-1.531c4.472,0.727-11.65-0.366-24.638-2.241l2.39-0.556l-18.958-2.308l1.779,0.168
							c-0.856-0.165-1.802-0.323-2.827-0.477c-0.513-0.073-1.045-0.149-1.595-0.228c-0.593-0.077-1.205-0.157-1.835-0.238
							c-3.263-0.403-6.895-0.81-10.826-1.242c0.408-3.976,0.845-8.229,1.296-12.62c0.345-3.271,0.729-6.641,1.175-10
							c0.729-9.465,4.887-45.631,2.336-30.153c1.788-11.673,2.247-22.037,3.524-34.846l-2.067,15.916
							c1.455-18.922,1.247-13.45,1.946-28.645c0.391-1.501,0.94-4.845,0.846-1.754c2.791-25.332,6.948-61.49,7.885-76.428
							c1.968-17.849,3.255-20.567,5.575-45.638c0.214-2.621-0.085-1.622-0.194-2.019c-0.13-0.39,0.07-2.242,0.705-10.235
							c0.008-0.26,0.083,0.543,0.031,1.679c-0.03,1.128-0.069,2.548-0.07,3.44s0.035,1.259,0.156,0.275
							c0.061-0.492,0.143-1.321,0.252-2.591c0.047-0.633,0.132-1.385,0.17-2.242c0.023-0.853,0.049-1.826,0.078-2.933
							c-0.04-1.576,0.008-3.233-0.161-4.882c-0.138-1.66-0.15-3.391-0.338-5.145c-0.332-3.493-1.02-7.223-1.879-11.104
							c-0.868-3.883-1.96-7.919-3.143-12.054c-0.599-2.102-1.2-4.214-1.802-6.327c-0.577-2.139-1.153-4.279-1.728-6.41
							c-0.95-4.554-2.143-10.769-2.87-15.452c-0.737-4.683-1.087-7.824-0.593-6.218c1.058,7.21,2.662,15.895,4.448,23.117
							c0.883,3.597,1.808,6.891,2.563,9.352c0.753,2.48,1.305,4.225,1.577,4.956c-0.81-1.799,2.421,9.809-0.61-0.209
							c2.742,10.394,3.321,13.585,3.901,16.612c0.161,0.753,0.287,1.488,0.393,2.308c0.093,0.824,0.297,1.721,0.332,2.834
							c0.086,2.225,0.393,5.167,0.077,9.854c0.067,0.65,0.326-1.753,0.439-4.803c-0.026-1.505-0.069-3.176-0.126-4.716
							c-0.017-0.385-0.032-0.762-0.048-1.125c-0.044-0.36-0.088-0.708-0.129-1.039c-0.085-0.661-0.168-1.251-0.248-1.736
							c0.426-0.1,1.39,8.899,0.904,16.182c-0.232,3.64-0.425,6.764-0.482,7.947c-0.049,1.179,0.239,0.335,0.795-3.898
							c0.202-2.551,0.419-4.89,0.397-7.014c0.007-2.129,0.111-4.106-0.099-5.903c-0.16-1.807-0.245-3.499-0.462-5.099
							c-0.254-1.596-0.489-3.116-0.833-4.618c-1.249-6.015-3.011-11.618-5.164-20.43c1.192,3.444,2.524,7.866,3.719,12.485
							c1.195,4.627,2.208,9.436,2.879,13.787c0,0-0.005-0.223-0.015-0.613c-0.019-0.389-0.087-0.939-0.148-1.604
							c-0.072-0.664-0.125-1.438-0.236-2.268c-0.12-0.831-0.249-1.718-0.377-2.604c-0.571-3.547-1.391-7.103-1.391-7.103
							c0,0-0.763-2.536-1.598-5.075c-0.848-2.545-1.695-5.09-1.695-5.09l0.273,0.587c-0.418-1.589-0.809-3.072-1.174-4.461
							c-0.361-1.412-0.698-2.729-1.014-3.963c-0.599-2.469-1.117-4.606-1.58-6.516c-0.913-3.813-1.608-6.716-2.284-9.537
							c-1.33-5.636-2.737-10.931-4.413-22.667c1.348,13.69-1.643-3.001-0.524,7.304c-2.3-15.758-3.07-27.372-2.424-27.533
							c0.798,7.363,1.347,11.139,1.667,13.09s0.434,2.08,0.541,2.139c0.106,0.058,0.209,0.047,0.53,1.716
							c0.326,1.667,0.842,5.018,1.991,11.775c-0.203-2.244,0.279-0.665,0.531-0.548c0.266,0.116,0.224-1.22-0.763-9.298
							c-1.325-9.074-1.264-7.704-1.239-6.319c0.056,1.38,0.083,2.771-0.968-6.319c-0.049-1.081-0.085-2.205,0.073-1.579
							c-1.125-8.343-0.774-9.779-1.871-19.896l0.297,2.396c-0.392-12.532-1.321-13.662-1.334-24.459
							c-0.345,4.332-0.719-7.22-1.185-13.9c0.044,5.468-0.051,9.688-0.033,15.242c0.028,5.553,0.161,12.44,0.912,23.231
							c0.607,2.577,0.668,0.988,1.581,9.824c0,0-0.287-3.501-0.573-7.003c-0.253-3.502-0.507-7.005-0.507-7.005
							c0.26,3.02,0.526,5.315,0.812,8.08c0,0,0.218,3.367,0.436,6.734c0.252,3.367,0.504,6.735,0.504,6.735
							c-0.945-8.512-1.258-10.811-1.551-11.879c-0.283-1.069-0.483-0.909-0.957-4.524c-0.467-7.822-0.66-11.049-0.809-13.55
							c-0.167-2.5-0.298-4.274-0.445-9.195c0.319,0.481,0.228-7.068,0.211-16.982c-0.025-9.914,0.077-22.193,0.324-31.185
							c-0.012,2.793-0.027,6.399-0.035,8.346c0.218,6.532,0.332,4.282,0.41,0.343c0.085-3.94,0.18-9.571,0.266-9.812l-0.197-9.521
							c0.012,1.792,0.123,4.271,0.26,0.214c0.123-12.882-0.485-12.148-0.147-25.022c0.353-0.951,0.465,9.938,0.921,1.948
							c0.425-2.75,1.368-11.482,2.317-28.561c-0.027-1.219,0.229-5.647,0.721-10.796c-0.063,0.717-0.133,1.614-0.145,1.938
							c0,0,0.36-2.829,0.805-5.664c0.116-0.709,0.231-1.418,0.34-2.083c0.135-0.756,0.26-1.462,0.368-2.067
							c0.13-0.656,0.238-1.203,0.314-1.585c0.087-0.375,0.137-0.589,0.137-0.589c-0.133,0.749-0.207,1.518-0.319,2.265l-0.246,2.058
							c-0.136,1.219-0.271,2.44-0.408,3.663c-0.266,2.434-0.532,4.876-0.799,7.319c-0.5,4.882-0.913,9.772-0.931,14.64l0.479,0.856
							c-0.46,7.543-0.651,17.801-0.52,22.521c0.516-11.496,0.451-13.922,1.136-26.782c0.44-1.775,0.123,7.286,0.107,8.591
							l-0.196-1.934c-0.645,7.651-0.75,13.391-0.794,19.597c-0.031,6.207-0.006,12.88-0.173,22.425
							c-0.056,2.881-0.074,1.123-0.167,0.479c0.336,15.456-0.23,30.632,0.929,45.631l-0.424-4.888
							c0.49,10.218,1.742,30.195,4.063,50.017l0.221,0.141c-0.081-2.215,0.594,5.237,0.947,9.238l-0.005-0.02
							c1.317,9.911,2.856,19.385,4.38,27.068c-0.311-2.487-0.709-5.668-1.217-9.311c-0.354-1.522-1.105-6.817-1.698-11.428
							c-0.605-4.608-1.087-8.528-1.234-7.25c-0.588-8.438-2.119-21.993-2.257-28.218c0.188,5.663-0.071,3.705-0.426,0.082
							c-0.35-3.623-0.75-8.914-0.942-9.898c0.125-3.822-0.716-16.789-0.182-15.322c0.048-2.24-0.142,5.576,0.363,10.381
							c0.487,5.919,0.321,0.487,0.218-4.579c-0.104-5.067-0.147-9.769,0.301-2.39c-1.049-18.774-1.019-43.566-0.933-62.97
							l-0.403,10.857c0.09-4.313,0.23-11.572,0.446-17.941c0.209-6.37,0.487-11.847,0.634-12.604
							c-0.236,6.403-0.503,13.888-0.593,22.087c0.26,0.204,0.364-4.719,0.503-9.804c0.134-5.085,0.302-10.333,0.489-10.782
							c0,0,0.033-5.953,0.166-11.904c0.117-5.953,0.371-11.9,0.371-11.9s-0.199,2.598-0.398,5.196
							c-0.176,2.601-0.352,5.202-0.352,5.202c0.035-2.595,0.32-7.556,0.871-13.581c0.277-3.012,0.618-6.291,1.058-9.66
							c0.223-1.676,0.477-3.458,0.736-4.88c0.293-1.494,0.525-3.019,1.127-4.403c0.157-0.378,0.487-0.655,0.871-0.79
							c0.378-0.144,0.785-0.202,1.187-0.204c0.805-0.015,1.597,0.126,2.363,0.292c0.767,0.171,1.512,0.387,2.239,0.616
							c0.733,0.232,1.396,0.463,2.228,0.766c-0.656-0.173-1.345-0.354-2.065-0.544c-0.673-0.169-1.369-0.336-2.097-0.475
							c-0.727-0.138-1.488-0.253-2.284-0.247c-0.396,0.01-0.805,0.049-1.194,0.188c-0.391,0.13-0.753,0.402-0.914,0.808
							c-0.647,1.632-0.902,3.479-1.23,5.401c-0.343,2.2-0.67,4.732-0.953,7.258c-0.566,5.104-1.018,10.609-1.297,16.343
							c-0.49,12.33,1.163-7.558,0.617,4.102c0.333-3.012,0.833-10.601,0.991-14.346l0.553-4.556
							c-0.249,5.199-0.652,13.604-1.086,22.653c-0.379,9.064-0.617,18.783-0.524,26.555c-0.04-1.365-0.076-2.555-0.142-2.988
							c-0.587,11.95-0.703,24.112-0.462,35.775c0.175-6.17,0.054-8.61-0.011-12.138c0.155-0.437,0.198,10.574,0.432,14.736
							c0.133-10.847,0.364-2.025,0.46-8.886c0.161,7.061,0.157,12.779,0.25,21.381c-0.156,4.465-0.415-3.683-0.715-2.768
							c0.376,8.855-0.336,12.936,0.584,25.883c-0.557-17.243,0.839,4.519,1.457,10.42l-0.135-2.884
							c0.672,5.434,0.989,10.051,0.916,13.838c-0.666-7.017-0.916-13.839-1.194-11.814c0.283,4.65,0.594,9.285,1.104,14.533
							l-0.625-4.762c0,0,0.416,5.773,0.938,11.532c0.509,5.761,1.14,11.503,1.14,11.503c0.723,3.604,1.925,9.604,2.85,12.693
							c0.402,5.516,1.848,13.062,2.926,18.153l-0.572-2.359c0.715,5.004,2.305,12.99,4.173,19.784
							c0.927,3.36,1.936,6.589,2.696,9.062c0.763,2.482,1.318,4.223,1.515,4.681c0.412,1.84-0.33-0.446-1.53-4.001
							c-0.596-1.758-1.302-3.845-2.009-5.93c-0.686-2.063-1.353-4.078-1.884-5.82c-1.081-3.461-1.741-5.646-1.455-3.836
							c0.144,0.904,0.54,2.802,1.346,5.997c0.799,3.167,2.185,7.684,3.944,14.017c2.575,9.702,3.073,12.969,3.67,15.008
							c0.257,1.039,0.525,1.802,0.772,3.051c0.197,1.25,0.404,2.988,0.62,5.977c0,0-0.128-0.672-0.14,0.513
							c-0.047,2.253-0.084,4-0.116,5.468c0.006,1.478-0.041,2.646-0.086,3.762c-0.086,2.229-0.066,4.326-0.385,7.87
							c0.372-2.561,0.646-5.828,0.877-8.723c0.198-2.912,0.164-5.548,0.152-6.803c0.082,0.681,0.087,2.201,0.048,4.206
							c-0.013,0.501-0.027,1.031-0.041,1.587c-0.042,0.544-0.086,1.112-0.131,1.699c-0.096,1.174-0.198,2.423-0.302,3.704
							c-0.476,5.086-1.131,10.536-1.321,13.832c0.306-8.591-2.033,16.545-1.633,9.894c-2.246,17.005-3.733,35.285-4.248,44.289
							c-2.031,11.484-2.097,20.299-4.492,39.035c0.336-2.883,0.787-8.133,1.309-12.16c0.668-10.755-2.368,19.427-1.032,2.906
							c-0.305,3.531,0.234,0.277,0.549-3.345c0.63-6.324,1.059-12.299,0.662-10.734l-2.094,15.253l0.46-5.354l-3.121,23.156
							c0.03,0.642,0.39-1.523,0.573-2.633c-3.186,26.903-6.189,57.734-8.829,81.321c0.22,1.108,0,5.079-0.478,10.738
							c-0.238,2.829-0.542,6.081-0.886,9.606c-0.213,2.214-0.444,4.601-0.682,7.068c6.985,0.77,14.458,1.592,21.213,2.336
							c8.087,0.866,15.316,1.628,20.262,1.929c-5.152-0.155-8.022,0.209-4.897,0.868c-4.252-0.437-13.01-0.889-22.625-2.128
							c-1.512-0.401-13.375-2.039-5.691-1.402c-1.665-0.182-3.107-0.339-4.351-0.474c-0.724-0.068-1.333-0.126-1.838-0.174
							c-1.002-0.089-1.625-0.128-1.958-0.13c-0.667-0.004-0.163,0.143,0.766,0.351c1.033,0.225,2.438,0.53,3.276,0.712
							c1.298,0.271,1.699,0.443-0.28,0.344c14.754,1.639,26.474,2.803,36.845,3.694c10.373,0.877,19.386,1.58,28.714,2.441
							l0.454,0.216c0,0,3.524,0.31,7.048,0.619c3.525,0.285,7.051,0.571,7.051,0.571c-5.745-0.626-8.452-1.147-7.876-1.265
							c0.575-0.102,4.435,0.163,11.83,1.059l-1.807-0.146c8.421,1.171,26.039,2.666,39.246,3.955l9.001,0.383
							c13.226,1.29,13.717,2.192,17.975,3.104c2.593,0.239,5.05,0.466,7.392,0.682c2.346,0.172,4.577,0.335,6.715,0.492
							c4.279,0.294,8.193,0.526,11.92,0.728c7.454,0.379,14.156,0.719,21.546,1.094c6.64,0.88,37.752,3.203,21.233,2.465
							c9.382,0.515,13.161,0.207,18.601,0.199c5.441-0.015,12.546,0.146,28.588,1.676l-8.366-0.143
							c7.688,0.435,16.195,0.915,24.855,1.324c8.663,0.326,17.477,0.659,25.772,0.972c4.147,0.161,8.165,0.317,11.968,0.465
							c3.804,0.154,7.397,0.209,10.691,0.318c6.589,0.194,11.989,0.392,15.531,0.599c-5.697,0.464,3.902,1.097,15.612,1.794
							c11.711,0.549,25.534,1.06,28.265,1.743c-1.522-0.313,10.053-0.227,11.74-0.354c2.535,0.22,6.757,0.31,11.239,0.057
							c-6.005-0.118-3.892-0.449-3.149-0.683c0.372-0.117,0.401-0.21-1.098-0.238c-1.499-0.03-4.525,0.031-10.265,0.042
							c5.813-0.289,12.46-0.756,20.833-1.023c4.186-0.142,8.803-0.256,13.964-0.334c5.16-0.107,10.865-0.049,17.221-0.216
							l-0.376,0.534c0,0-5.031,0.095-10.063,0.024c-5.032-0.033-10.064-0.066-10.064-0.066c2.035,0.387-8.326,0.372-12.574,0.558
							c18.725,0.121,17.502,0.432,16.382,0.696c-0.56,0.132-1.094,0.253,0.906,0.333c1,0.04,2.633,0.069,5.214,0.086
							c2.581,0.023,6.108,0.03,10.895-0.1c3.694-0.416,1.3-0.228,11.25-0.561c-4.679,0.111-5.517,0.491,2.027,0.348l7.234-0.564
							c13.395,0.612-22.125,1.012-10.703,1.402c-3.698,0.158-8.071,0.345-12.477,0.533c-4.407,0.201-8.85,0.219-12.679,0.344
							c-7.66,0.201-12.876,0.433-10.487,0.766c12.089,0.082,17.526-0.167,23.095-0.585c5.57-0.418,11.273-0.831,23.907-0.93
							l2.697,0.233c8.881-0.396,10.306-0.809,15.155-1.309c0.444,0.146,2.704,0.178,8.408-0.001
							c7.484-0.635,13.709-1.084,19.788-1.535c3.038-0.232,6.04-0.463,9.146-0.701c3.101-0.304,6.302-0.653,9.743-1.044
							c-9.174,0.757-15.739,0.996-21.005,1.191c-5.267,0.194-9.236,0.285-13.243,0.375c-4.007,0.091-8.051,0.181-13.464,0.373
							c-5.415,0.153-12.202,0.346-21.697,0.614c2.974-0.168,11.146-0.425,18.776-0.735c7.624-0.458,14.706-0.963,15.513-1.358
							l-0.335,0.542c12.327-0.807,24.653-1.37,40.132-2.259l-9.432,0.868c10.248-0.804,18.784-1.12,26.779-1.468
							c3.996-0.196,7.863-0.305,11.726-0.659c3.863-0.34,7.735-0.752,11.758-1.306c-5.712,0.426-10.343,0.825-13.86,1.197
							c10.525-1.107,23.752-2.149,35.217-3.009c0-0.001,5.911-0.662,11.795-1.563c5.888-0.846,11.775-1.69,11.775-1.69
							c-0.181,0.282,14.803-1.296,7.62-0.111c17.079-1.35,24.991-3.201,34.812-4.547c17.499-1.626-15.067,2.143-16.682,3.039
							c24.025-2.673,49.486-6.234,63.067-8.187c-4.936,0.453-7.339,0.635-7.104,0.479c0.752,0.091,10.471-1.086,15.905-1.657
							l3.702-0.721c9.084-0.69,7.823-0.359,0.147,0.681c4.334-0.397,9.055-1.071,13.843-1.543c4.784-0.485,9.596-1.013,14.103-1.017
							c-14.819,1.451-33.688,3.027-41.327,4.227c7.686-0.99,13.498-1.525,18.478-1.959c4.975-0.463,9.15-0.628,13.568-0.899
							c4.416-0.292,9.108-0.463,15.146-0.792c1.509-0.088,3.103-0.181,4.797-0.279c1.698-0.068,3.499-0.142,5.418-0.22
							c1.919-0.087,3.956-0.18,6.13-0.278c1.087-0.053,2.208-0.106,3.364-0.163c1.159-0.026,2.355-0.055,3.589-0.083
							c0.486,0.157-6.186,0.565,1.415,0.468c17.61-0.354,4.598-0.784,10.104-1.205c-6.794,0.174-11.77,0.232-16.033,0.248
							c-4.257,0.098-7.808,0.085-11.756,0.032l3.608-0.429c0.277,0.061,2.548,0.004,5.062-0.063
							c1.258-0.032,2.576-0.065,3.737-0.095c1.163-0.002,2.169,0.018,2.799,0.042l2.188-0.597c-0.501,0.32,2.668,0.555,7.297,0.662
							c2.313,0.018,4.998,0.156,7.773,0.228c2.776,0.075,5.645,0.116,8.333,0.109c-10.848-0.664-7.918-0.583-10.869-1.354
							c7.581-0.168,11.857-0.028,16.353,0.461c4.497,0.458,9.214,0.682,17.724,1.258c-0.646,0.038-4.673-0.267-6.938-0.404
							c-1.134-0.057-1.829-0.031-1.44,0.021c0.393,0.044,1.86,0.209,5.05,0.566c10.573,1.074,9.225,0.346,16.324,1.236
							c-8.036-0.653-6.046,0.101-14.744-0.164c-2.344-0.22-4.22-0.396-5.743-0.539c-1.527-0.081-2.702-0.144-3.641-0.193
							c-1.877-0.096-2.811-0.144-3.731-0.19c-0.921-0.039-1.829-0.077-3.653-0.154c-0.913-0.039-2.055-0.087-3.542-0.149
							c-1.486-0.01-3.319-0.021-5.613-0.036c0,0,0.97,0.046,2.424,0.115c1.454,0.07,3.394,0.142,5.331,0.335
							c3.872,0.327,7.744,0.655,7.744,0.655c-7.943-0.41-10.835-0.423-11.905-0.238c-1.07,0.144-0.32,0.336-0.977,0.423
							c13.523,0.803,18.623,1.008,22.529,1.184c1.954,0.066,3.61,0.091,5.866,0.215c1.127,0.066,2.406,0.136,3.942,0.288
							c1.532,0.197,3.325,0.449,5.489,0.777c4.203,0.423,0.146-0.18-3.322-0.698c-0.867-0.132-1.697-0.258-2.353-0.357
							c-0.658-0.076-1.141-0.131-1.308-0.164c-0.337-0.047,0.595-0.089,3.876,0.318c8.108,1.203,9.045,1.253,10.239,1.301
							c1.2,0.01,2.636,0.132,11.716,1.792l-3.079-0.356c2.732,0.714,5.498,1.163,8.352,1.755c2.842,0.647,5.805,1.278,8.979,2.05
							c3.505,0.799,1.651-0.135,2.505-0.373c0.406-0.105,1.587-0.094,4.276,0.516c1.342,0.289,3.041,0.691,5.134,1.117
							c2.073,0.4,4.534,0.782,7.115,0.615c-1.02,0.174-1.41,0.299-1.41,0.356c0,0-0.351,0.047-0.963,0.128
							c-0.313,0.033-0.68,0.111-1.135,0.14c-0.464,0.02-0.987,0.043-1.558,0.067c-2.328,0.058-5.699-0.26-9.282-0.716
							c-7.207-0.685-14.414-1.369-14.414-1.369c3.591,0.902,7.249,1.822,10.967,2.757c3.744,0.884,7.4,2.139,11.134,2.825
							c3.722,0.759,7.521,0.831,11.081-0.224c1.764-0.566,3.457-1.385,5.021-2.456c1.546-1.101,2.967-2.414,4.264-3.874
							c2.571-2.953,4.63-6.454,6.365-10.147c1.769-3.674,3.109-7.655,4.612-11.57c0.771-1.953,1.407-3.958,2.08-5.954
							c0.656-2.003,1.371-3.991,1.984-6.015c1.184-4.059,2.477-8.101,3.488-12.225c0.697-1.887,0.719-1.353,0.371,0.487
							c-0.174,0.92-0.44,2.165-0.76,3.596c-0.376,1.417-0.8,3.019-1.236,4.666c-0.45,1.644-0.894,3.338-1.351,4.925
							c-0.487,1.578-0.945,3.062-1.33,4.31c-0.763,2.5-1.21,4.07-0.957,3.606c0,0-0.298,0.925-0.832,2.282
							c-0.521,1.361-1.213,3.177-1.906,4.992c-1.311,3.663-2.987,7.162-2.987,7.162c0.008-0.236,0.868-2.191,1.859-4.881
							c0.965-2.704,2.175-6.096,3.229-9.048c1.892-5.981,3.166-10.189,0.683-3.638c-0.532,1.624-0.981,3.217-1.54,4.717
							c-0.544,1.504-1.071,2.961-1.583,4.375c-0.52,1.411-1.002,2.794-1.514,4.115c-0.519,1.316-1.046,2.587-1.604,3.808
							c-2.221,4.876-4.771,9.104-8.147,12.453c-3.355,3.331-7.732,5.608-12.831,5.836c-2.536,0.154-5.22-0.105-8.018-0.677
							c-2.808-0.534-5.729-1.385-8.919-2.087c1.924,0.647,4.889,1.753,8.651,2.624c0.947,0.178,1.925,0.444,2.966,0.562
							c0.519,0.072,1.046,0.146,1.582,0.22c0.54,0.032,1.088,0.064,1.645,0.098c0.277,0.015,0.558,0.029,0.84,0.043
							c0.282-0.012,0.565-0.023,0.851-0.035c0.57-0.037,1.151-0.021,1.729-0.103c0.576-0.092,1.159-0.185,1.746-0.278
							c0.592-0.075,1.156-0.299,1.741-0.443c2.311-0.702,4.533-1.892,6.492-3.436c1.966-1.539,3.677-3.406,5.16-5.387
							c2.973-3.974,5.071-8.347,6.815-12.208c-1.352,3.296-2.774,6.267-4.353,8.97c-1.587,2.694-3.317,5.147-5.409,7.233
							c1.444-1.4,2.762-2.95,3.95-4.611c1.17-1.675,2.232-3.439,3.208-5.268c0.957-1.839,1.835-3.734,2.653-5.672
							c0.826-1.938,1.517-3.931,2.284-5.921c3.077-7.953,5.699-16.367,8.096-25.115l0.795-4.003
							c-1.467,5.934-3.015,10.867-4.087,14.487c-1.153,3.596-1.959,5.842-2.132,6.358c5.201-15.362,7.452-28.893,7.071-30.05
							l-0.634,2.796l1.052-5.736C953.591,464.58,954.361,460.873,955.02,457.167z M285.09,42.52c0.977-0.14,1.743-0.272,2.306-0.406
							C286.813,42.252,287.48,42.258,285.09,42.52z M695.679,534.452c21.42-2.612,43.017-5.19,63.638-6.987
							c-9.327,0.572-17.966,1.176-24.699,1.703c-6.738,0.484-11.574,0.856-13.31,0.87c-1.734,0.016-0.366-0.307,5.312-1.102
							c5.683-0.759,15.675-2.016,31.227-3.514l4.068-0.439c-8.156,0.517-22.171,1.997-35.316,3.63
							c-5.296,0.86-16.475,2.74-26.27,4.47c-4.898,0.866-9.455,1.673-12.765,2.258c-1.653,0.304-2.995,0.55-3.912,0.718
							c-0.917,0.171-1.407,0.271-1.358,0.284c3.813-0.115,9.253-1.192,16.114-1.945L695.679,534.452z M680.197,534.286
							c-12.152,1.339-9.356,1.284-11.212,1.748c4.269-0.55,8.53-1.099,12.743-1.642
							C680.107,534.527,679.301,534.537,680.197,534.286z M669.742,536.197c1.365-0.16,2.529-0.29,3.143-0.332L669.742,536.197z
							 M905.788,535.181c-0.527-0.137-0.717-0.186-1.217-0.314c2.782,0.771,5.597,1.527,8.62,1.862
							C912.032,536.522,909.794,536.274,905.788,535.181z M881.798,528.743l-2.938-0.109c2.64,0.531,5.335,1.074,8.091,1.63
							C886.084,529.886,885.169,529.524,881.798,528.743z M802.264,521.227c-2.519,0.308-7.992,0.729-12.964,1.072
							c-2.486,0.157-4.841,0.4-6.638,0.621c-1.797,0.218-3.034,0.419-3.282,0.593c-1.063,0.231,2.481,0.061,6.455-0.147
							c4.438-0.173,9.176-0.357,14.199-0.553c0.172-0.103,1.167-0.233,2.835-0.326c-4.968,0.025-8.289,0.081-6.292-0.411
							c1.601,0.038,2.979,0.051,4.192,0.042c1.214,0.011,2.266,0.021,3.209-0.002c1.889-0.038,3.351-0.152,4.847-0.286
							c2.99-0.252,6.116-0.697,13.037-0.399c2.208-0.174-1.643-0.375-6.572-0.479C810.362,520.984,804.359,521.11,802.264,521.227z
							 M32.806,254.517c-0.055-0.39-0.267-1.732-0.622-3.599c0,0,0.729,2.323,1.458,4.646c0.346,1.17,0.691,2.341,0.95,3.219
							c0.242,0.885,0.404,1.475,0.404,1.475c0.975,4.25,1.706,8.36,1.991,12.384c0.139,2.008,0.116,3.99,0.179,5.938l0.03,1.457
							l-0.074,1.446c-0.048,0.96-0.095,1.916-0.143,2.869c-0.444,7.608-1.41,14.918-1.838,22.712
							c-0.981,7.233-1.813,11.073-2.553,14.747c0.426-3.547,0.824-6.864,1.155-9.629c0.868-10.898,1.641-17.747,1.995-22.458
							c0.112-1.177,0.211-2.221,0.3-3.16c0.06-0.94,0.113-1.776,0.162-2.538c0.112-1.524,0.231-2.749,0.351-3.911
							c0.048-1.162,0.076-2.262,0.1-3.536c0.004-0.638,0.009-1.319,0.014-2.072c-0.003-0.377-0.006-0.772-0.01-1.189
							c-0.037-0.415-0.075-0.852-0.116-1.313C36.238,268.306,35.351,262.989,32.806,254.517z M17.853,452.336
							c0.154-1.779,0.121-2.429,0.121-2.429c-1.058,13.503-2.126,26.164-3.161,37.771c-0.533,5.803-1.042,11.343-1.523,16.595
							c-0.492,5.08-0.957,9.882-1.392,14.379c7.718,0.832,15.162,1.679,21.348,2.413c-1.405-0.327-4.642-0.854-8.624-1.453
							c-3.581-0.524-7.826-1.146-11.766-1.724c0.419-3.141,0.81-6.064,1.104-8.276c0,0-0.021,0.493-0.051,1.232
							c-0.016,0.596-0.036,1.391-0.057,2.185c-0.025,1.438-0.05,2.875-0.05,2.875c-0.104,0.492-0.208,0.985-0.257,1.434l2.117,0.558
							c0,0,2.901,0.219,5.802,0.438c3.408,0.277,6.817,0.556,6.817,0.556c-1.452-0.306-3.983-0.674-6.963-1.074
							c-2.206-0.303-4.74-0.65-7.142-0.979c0.182-1.354,0.365-2.644,0.549-3.774c-0.007-0.052,0.004-0.34,0.03-0.824
							c0.014-0.245,0.03-0.537,0.049-0.87c0.036-0.477,0.076-1.012,0.12-1.596c0.187-2.403,0.437-5.616,0.702-9.015
							c0.531-6.798,1.115-14.34,1.312-17.642l-2.395,18.737c0.695-5.055,3.276-29.975,4.214-39.865
							c-0.06-0.056-0.245,0.964-0.484,2.559c-0.239,1.595-0.532,3.765-0.807,6.011c-0.55,4.492-1.028,9.287-0.862,10.39
							c-0.605,1.983,1.519-17.639-0.241-5.275c1.183-14.748,4.063-38.105,5.432-48.939l0.848-1.768
							c1.543-11.882,0.091-8.131,2-22.239c-1.76,17.409,1.03-2.863-0.422,10.979c0.724-4.392,0.695-0.016,2.15-13.886
							c0.394-11.634,2.123-14.556,2.548-25.548c1.059-7.26-0.334,7.9,1.336-6.43c1.333-16.501,0.907-15.586,0.393-16.673
							c-1.843,15.364-1.062,17.372-2.579,29.937l1.644-25.141c-0.651,4.597-1.037,8.007-1.305,10.876
							c0.483-5.035,0.788-9.324,0.966-13.004c0.111-2.093,0.214-4.025,0.309-5.812c-1.544,14.184-2.925,26.777-3.432,28.975
							l-0.091-1.988c-0.823,4.991-1.492,13.199-1.68,16.996c-1.344,12.703-2.297,25.435-2.991,28.166l0.246-4.851
							C20.13,430.948,19.979,432.693,17.853,452.336z M457.876,550.591c-4.766-0.551-9.771-1.07-19.136-1.419
							c-4.682-0.188-10.454-0.272-17.829-0.41c-7.375-0.199-16.354-0.365-27.455-0.491l3.496-0.022
							c-5.59-0.272-11.112-0.358-16.675-0.447c-5.563-0.135-11.167-0.199-16.925-0.271c-11.514-0.152-23.643-0.248-37.221-1.348
							c6.608,0.097,9.733,0.146,13.032,0.137c3.3-0.022,6.776-0.17,14.079-0.411c0,0-3.543-0.033-7.086-0.067
							c-1.772-0.017-3.543-0.033-4.872-0.046c-1.329-0.007-2.214-0.041-2.214-0.041c3.945-0.425-10.185-0.768-20.568-1.279
							l9.197-0.297c3.112,0.245,8.705,0.591,13.463,0.815c4.76,0.176,8.684,0.277,8.45,0.188c-3.544-0.053,21.311,1.634,34.84,1.764
							c-1.385-0.444-29.927-1.217-17.161-1.593c-11.24-0.021-12.617-0.554-24.36-0.754c11.269,0.021,2.811-0.579,11.201-0.67
							c0,0-4.812-0.111-9.623-0.223c-2.406-0.049-4.812-0.11-6.615-0.191c-1.803-0.068-3.006-0.113-3.006-0.113
							c-0.497-0.069,28.03,0.606,12.289-0.492c-1.929-0.004-4.662-0.04-7.68-0.153c-3.018-0.133-6.323-0.278-9.399-0.414
							c-6.152-0.269-11.389-0.461-11.585-0.206l-0.466-0.184c-7.203-0.393-8.797-0.279-10.801-0.209
							c-1.002,0.035-2.106,0.06-4.066,0.005c-1.959-0.044-4.773-0.186-9.19-0.541c-0.222,0.228,3.138,0.693,9.483,0.908
							c5.366,0.132,6.206-0.192,17.247,0.247c4.93,0.643-13.312-0.671-5.682,0.383c3.792,0.524,29.159,1.056,21.051,1.464
							l-14.385-0.783c-0.393,0.511-10.816-0.004-10.544,0.436c-4.406-0.114-8.68-0.393-12.976-0.688
							c-4.294-0.325-8.614-0.618-13.12-0.659c-3.75,0.117,2.728,1.142-12.125-0.027c-2.893-0.37-7.202-0.766-12.239-1.162
							c-5.037-0.406-10.797-0.87-16.595-1.338c-11.599-0.898-23.359-1.643-29.765-2.107l-11.229-0.602
							c0.925,0.422,21.411,1.717,14.183,1.559l-17.484-1.329l1.365-0.089c-5.786-0.529-11.726-0.808-17.019-1.134
							c5.476,0.076,18.056,1.282,15.599,0.524c-8.191-0.794-9.424-1.102-16.98-1.627c1.65,0.099,3.072,0.163,2.871,0.068
							c-8.291-0.798-12.31-1.005-14.778-1.043c-2.47-0.023-3.391,0.149-5.479,0.043c-16.746-0.859,16.751,2.266,14.577,2.558
							c0,0-0.762-0.06-2.096-0.163c-1.334-0.097-3.239-0.254-5.523-0.459c-4.57-0.399-10.663-0.932-16.755-1.465
							c-6.093-0.532-12.186-1.064-16.756-1.464c-4.568-0.416-7.614-0.693-7.614-0.693c4.174,0.265,8.383,0.444,6.834,0.083
							c-11.918-1.413-0.231-0.435-16.994-2.111c1.12,0.853-21.155-1.655-33.033-2.516c-5.494-0.915-6.625-1.101,5.463,0.219
							c-1.335-0.636-17.581-2.236-23.345-2.916c-3.353-0.289-9.065-0.781-12.688-1.094c4.814,0.768,2.711,0.867-7.788-0.111
							l-0.621,0.03c8.578,1.044,19.535,2.376,29.691,3.612c5.08,0.603,9.962,1.164,14.25,1.618c4.292,0.425,7.99,0.74,10.698,0.893
							l-3.072-0.071c9.929,1.229,20.779,2.12,30.281,2.936c9.504,0.794,17.669,1.419,22.217,2.322
							c-0.882,0.283,3.994,0.458,3.598,0.95l14.706,0.963l-3.072-0.048c0,0,1.561,0.139,3.901,0.347
							c2.339,0.219,5.462,0.466,8.586,0.709c6.246,0.492,12.492,0.984,12.492,0.984l-0.669,0.044
							c11.914,0.493,21.236,0.957,28.694,1.157c0.045-0.228-0.721-0.354,3.251-0.235c3.981,0.174,6.996,0.375,9.679,0.6
							c0.021,0.001,0.021,0.001,0.021-0.002l0,0.003c6.125,0.512,10.186,1.137,17.728,1.818l-23.24-1.627
							c-1.922,0.252,0.023,0.8,11.392,1.897c-4.658-0.322-6.629-0.16-0.868,0.303c0.641-0.056,15.25,0.854,9.708,0.141
							c11.042,0.771,25.502,1.781,41.393,2.892c7.943,0.599,16.258,0.997,24.684,1.383c8.425,0.38,16.963,0.705,25.365,0.906
							c-12.071-0.334-7.244,0.019-2.745,0.324c1.125,0.073,2.229,0.146,3.043,0.2c0.814,0.046,1.339,0.081,1.304,0.099
							c-0.018,0.009-0.175,0.013-0.506,0.011c-0.331-0.005-0.835-0.014-1.547-0.025c-1.422-0.055-3.674-0.142-7.023-0.27
							c9.334,0.784,13.371,0.667,17.447,0.601c4.078-0.091,8.202-0.245,17.734,0.106c1.619,0.275-10.38-0.359-14.778-0.056
							c15.851,0.619,29.232,0.876,42.489,0.733c13.252-0.01,26.373-0.02,41.716-0.03l1.312,0.485
							C444.717,550.75,451.167,550.672,457.876,550.591z M518.544,548.628c5.897-0.288,11.878-0.581,17.957-0.879
							c-0.593,0.019-1.145,0.036-1.765,0.056c0,0,4.427-0.273,8.854-0.547c2.214-0.119,4.424-0.303,6.082-0.445
							c1.658-0.138,2.763-0.229,2.763-0.229c-5.442,0.271-9.968,0.251-11.227,0.106c-0.629-0.07-0.441-0.174,0.854-0.313
							c1.295-0.151,3.702-0.278,7.502-0.597c-1.271,0.278,3.19,0.257-2.095,0.694c10.215-0.325,32.619-1.398,26.735-1.78
							c-19.559,1.882-4.624-0.659-19.992,0.789c8.236-0.979,16.433-1.259,24.221-1.945c-4.047,0.446-3.56,0.645-0.532,0.663
							c3.025-0.011,8.602-0.066,14.698-0.533c5.295-0.558,19.661-1.633,28.459-2.557c-3.182-0.188,4.466-1.08-9.899-0.005
							c2.629-0.276,5.979-0.607,9.814-0.935c3.837-0.313,8.156-0.665,12.723-1.038c-1.803,0.222-4.278,0.549-6.255,0.761
							c-1.977,0.207-3.444,0.384-3.218,0.446c1.482-0.022,3.027-0.061,4.566-0.146c1.537-0.117,3.072-0.234,4.542-0.347
							c2.938-0.243,5.614-0.487,7.524-0.602c3.028-0.347,6.085-0.696,9.058-1.036c-0.892,0.056-1.667,0.087-2.222,0.081
							l10.026-1.466c-13.388,1.637-6.221,0.452-6.076,0.172c-0.304,0.562,8.639-0.851,13.225-1.355l-10.029,0.507
							c4.784-0.791,17.054-1.407,14.473-1.691c-10.583,1.019-17.902,1.762-24.965,2.531c-3.53,0.395-6.997,0.782-10.775,1.204
							c-1.89,0.212-3.857,0.433-5.949,0.667c-2.096,0.191-4.317,0.396-6.711,0.614l7.818-0.224
							c-21.597,2.115-13.403,0.37-37.655,2.404c-1.257,0.146-2.768,0.33-4.456,0.471c-1.689,0.123-3.551,0.259-5.502,0.4
							c-3.906,0.262-8.172,0.547-12.138,0.813c-7.933,0.537-14.662,1.051-14.892,1.461c1.517-0.213-2.276-0.159-7.486,0.055
							c-5.215,0.121-11.85,0.346-16.01,0.693c-4.592,0.544-13.857,1.116-20.918,1.552c-1.766,0.108-3.393,0.208-4.775,0.293
							c-1.383,0.07-2.52,0.128-3.305,0.167c-1.569,0.099-1.727,0.17,0.389,0.21c3.77-0.03,8.183-0.375,12.416-0.561
							c4.231-0.207,8.28-0.349,11.318-0.233l-14.61,0.729l9.605,0.015C515.749,547.772,516.242,548.139,518.544,548.628z
							 M844.379,529.413c0.156,0.019,0.361,0.043,0.552,0.065c-0.211-0.022-0.416-0.043-0.614-0.063L844.379,529.413z"/>
						<path fill="#FFFFFF" d="M17.488,39.374c0.068-2.109,0.324-5.764,0.54-8.641c0.216-2.877,0.373-4.981,0.064-3.983
							c0.22-0.101-0.265,4.549-0.562,8.477C17.225,39.156,17.037,42.363,17.488,39.374z"/>
						<path fill="#FFFFFF" d="M19.027,26.987c-0.011-0.743-0.272-0.25,0.321-4.916c0,0-0.417,3.213-0.711,6.424
							c-0.31,3.211-0.546,6.422-0.546,6.422s0.221-1.983,0.441-3.967C18.78,28.969,19.027,26.987,19.027,26.987z"/>
						<path fill="#FFFFFF" d="M23.842,16.373c0.304-0.587,0.952-0.776,1.499-0.849c0.568-0.073,1.132-0.041,1.692,0.024
							c1.121,0.137,2.236,0.416,3.444,0.775c0.343,0.109,0.692,0.221,1.049,0.335c0.384,0.132,0.777,0.267,1.181,0.406
							c0.807,0.286,1.655,0.601,2.56,0.954c1.81,0.702,3.843,1.547,6.229,2.569c1.567,1.238-2.233-0.353-7.031-2.203
							c-1.199-0.456-2.462-0.919-3.714-1.332c-0.995-0.323-1.888-0.576-2.778-0.747c-0.875-0.168-1.696-0.239-2.37-0.11
							c-0.671,0.115-1.191,0.539-1.229,1.068c-0.029,0.103-0.038,0.161-0.044,0.217c0.029-0.063,0.058-0.126,0.08-0.174
							c0.148-0.362,0.5-0.581,0.855-0.666c0.357-0.094,0.722-0.105,1.073-0.091c0.704,0.042,1.369,0.174,1.999,0.328
							c0.631,0.155,1.232,0.329,1.813,0.509c0.371,0.122,0.736,0.241,1.094,0.358c0.408,0.14,0.808,0.277,1.203,0.413
							c3.163,1.118,5.941,2.186,8.633,3.203c5.418,2.07,10.455,3.995,17.769,6.789c-1.794-0.783-4.967-2.168-8.728-3.81
							c-3.749-1.642-8.056-3.573-12.176-5.296c-2.06-0.86-4.076-1.663-5.949-2.327c-0.454-0.155-0.898-0.306-1.332-0.454
							c-0.373-0.115-0.737-0.227-1.09-0.335c-0.708-0.204-1.377-0.369-1.994-0.484c-1.23-0.234-2.273-0.245-2.942,0.019
							c-0.332,0.13-0.564,0.315-0.683,0.498C23.841,16.147,23.824,16.306,23.842,16.373z"/>
						<path fill="#FFFFFF" d="M23.769,23.001l0.191-1.646c0.053-0.407,0.098-0.82,0.164-1.233c0.13-0.823,0.245-1.677,0.604-2.42
							c0.14-0.512,0.657-0.72,1.098-0.818c-0.003-0.024-0.673,0.062-0.668,0.088c-0.25,0.113-0.452,0.322-0.554,0.577
							c-0.354,0.925-0.466,1.909-0.611,2.851l-0.17,1.412l-0.248,2.203L23.769,23.001z"/>
						<path fill="#FFFFFF" d="M25.952,252.401c-0.035,1.024,2.036,7.172,2.835,10.445C28.217,260.163,27.258,256.353,25.952,252.401
							z"/>
						<path fill="#FFFFFF" d="M522.128,25.771c0,0-4.87-1.378-12.176-3.445c-7.35-2.043-17.372-4.764-27.775-6.314
							c-10.368-1.601-20.808-2.168-28.574-2.094c-1.948-0.045-3.724,0.012-5.299,0.054c-1.575,0.04-2.948,0.074-4.079,0.103
							c-1.132,0.018-2.016,0.072-2.619,0.107c-0.603,0.034-0.925,0.052-0.925,0.052c5.929-0.298,11.775-0.375,17.785-0.255
							c3.003,0.046,6.054,0.277,9.169,0.415c3.116,0.255,6.306,0.562,9.594,0.921c1.641,0.239,3.308,0.482,5.005,0.73
							c0.848,0.124,1.704,0.25,2.568,0.376c0.861,0.139,1.72,0.326,2.593,0.489c1.737,0.35,3.531,0.657,5.321,1.063
							c1.788,0.413,3.612,0.833,5.478,1.264C505.604,21.05,513.49,23.342,522.128,25.771z"/>
						<path fill="#FFFFFF" d="M7.729,519.746c0.355-3.686,0.685-7.114,0.997-10.353c0.208-2.377,0.403-4.614,0.591-6.759
							c0.359-4.29,0.687-8.212,1.016-12.146c0.656-7.868,1.337-15.785,2.459-26.793c-1.682,12.816-2.487,21.807-3.151,29.966
							c-0.334,4.079-0.652,7.949-0.983,11.989c-0.091,1.009-0.184,2.028-0.277,3.065c-0.124,1.25-0.25,2.521-0.379,3.818
							c-0.35,3.21-0.715,6.555-1.103,10.104c3.523,0.456,7.288,0.942,11.332,1.465c-3.633-0.604-7.266-1.207-11.096-1.653
							L7.729,519.746z"/>
						<path fill="#FFFFFF" d="M6.277,509.094c0.152-0.536,0.232-0.519,0.262-0.115c0.015,0.201,0.017,0.499,0.009,0.873
							c-0.002,0.093-0.005,0.191-0.008,0.294c-0.006,0.124-0.012,0.253-0.019,0.387c-0.026,0.375-0.055,0.776-0.085,1.202
							c-0.275,3.319-0.671,8.085-1.003,12.074c5.272,0.492,9.072,0.812,7.202,0.418c-2.756-0.296-5.018-0.538-6.811-0.73
							c0.672-7.038,0.725-8.717,0.872-10.993c0.067-0.9,0.144-1.914,0.274-3.649c0.118-1.34,0.311-3.234,0.639-6.148L6.277,509.094z
							"/>
						<polygon fill="#FFFFFF" points="26.942,412.341 26.549,418.922 27.005,413.639 						"/>
						<polygon fill="#FFFFFF" points="99.827,534.648 97.422,534.541 108.248,535.845 						"/>
						<path fill="#FFFFFF" d="M95.017,534.436l2.405,0.105L95.017,534.436z"/>
						<polygon fill="#FFFFFF" points="27.335,420.896 28.52,411.178 28.763,406.334 						"/>
						<path fill="#FFFFFF" d="M14.758,506.428l0.75-8.726C15.358,499.434,13.816,511.314,14.758,506.428z"/>
						<path fill="#FFFFFF" d="M166.069,541.411c0,0,2.661,0.189,5.321,0.38c1.33,0.095,2.66,0.189,3.658,0.261
							c0.999,0.062,1.664,0.103,1.664,0.103l-1.081-0.15l-10.607-0.752L166.069,541.411z"/>
						<path fill="#FFFFFF" d="M67.006,521.746c-5.956-1.129,17.367,1.784,5.049,0.01C61.05,520.617,65.486,521.353,67.006,521.746z"
							/>
						<path fill="#FFFFFF" d="M194.561,537.503c1.432,0.12,2.942,0.229,4.399,0.299
							C197.227,537.685,195.771,537.585,194.561,537.503z"/>
						<path fill="#FFFFFF" d="M194.561,537.503c-4.623-0.387-9.23-0.952-12.412-1.081C187.894,537.115,190,537.211,194.561,537.503z
							"/>
						<path fill="#FFFFFF" d="M247.557,541.481l-4.193-0.338c4.302,0.079,2.268-0.034-1.571-0.125
							c-4.447-0.306-4.207-0.14-4.743-0.076c-0.895-0.006-1.783-0.011-2.748-0.017c1.375,0.036,2.611,0.068,3.658,0.095
							C244.848,541.523,249.051,541.806,247.557,541.481z"/>
						<path fill="#FFFFFF" d="M444.813,556.48c-15.586-0.152-19.615-0.231-18.767-0.598c-14.787-0.237-12.498,0.347-21.42,0.377
							c8.368,0.129,13.407,0.207,18.856,0.291C428.935,556.56,434.798,556.561,444.813,556.48z"/>
						<path fill="#FFFFFF" d="M404.626,556.26c-1.875-0.02-3.667-0.039-5.842-0.063C401.218,556.246,403.024,556.26,404.626,556.26z
							"/>
						<polygon fill="#FFFFFF" points="185.974,532.67 195.631,532.917 192.097,532.699 						"/>
						<path fill="#FFFFFF" d="M467.946,556.56c-2.891,0.065-7.524,0.078-9.8-0.047c-0.415,0.185,2.756,0.219,5.67,0.204
							C466.73,556.659,469.388,556.54,467.946,556.56z"/>
						<path fill="#FFFFFF" d="M407.931,549.304c-1.574-0.249-11.517-0.271-15.561-0.422
							C398.172,549.021,402.893,549.769,407.931,549.304z"/>
						<path fill="#FFFFFF" d="M512.612,554.022c-2.889,0.092-7.336,0.021-5.422-0.356c-2.094,0.192-4.558,0.412-4.587,0.574
							c-0.016,0.076,0.578,0.127,2.13,0.124C506.285,554.355,508.795,554.231,512.612,554.022z"/>
						<polygon fill="#FFFFFF" points="436.328,549.584 434.109,549.463 423.474,549.713 						"/>
						<path fill="#FFFFFF" d="M398.493,543.828c-11.944,0.246,18.918,1.349-1.647,1.394c26.518,0.874-2.024-0.648,17.539-0.27
							C402.929,544.624,397.327,543.984,398.493,543.828z"/>
						<path fill="#FFFFFF" d="M414.384,544.952c1.664,0.037,3.468,0.078,5.425,0.123
							C417.643,545.025,415.895,544.986,414.384,544.952z"/>
						<path fill="#FFFFFF" d="M582.433,543.148c-1.729,0.15-2.91,0.271-3.999,0.39C579.795,543.419,581.094,543.296,582.433,543.148
							z"/>
						<path fill="#FFFFFF" d="M476.848,544.41c0,0-4.468,0.252-8.937,0.505c-2.234,0.129-4.469,0.259-6.146,0.307
							c-1.677,0.063-2.794,0.106-2.794,0.106c1.494-0.045,3.27-0.098,5.231-0.156c1.961-0.074,4.108-0.155,6.341-0.239
							c4.467-0.151,9.284-0.315,13.669-0.464c8.77-0.304,15.809-0.6,14.865-0.906c-9.732,0.061-21.434,0.467-26.239,0.844
							L476.848,544.41z"/>
						<path fill="#FFFFFF" d="M682.967,542.19l-7.678,1.196l9.637-1.099C682.156,542.527,687.084,541.445,682.967,542.19z"/>
						<path fill="#FFFFFF" d="M686.784,542.068l-1.858,0.22C685.336,542.253,685.926,542.185,686.784,542.068z"/>
						<path fill="#FFFFFF" d="M548.636,545.51c-5.78,0.283-10.409,0.412-15.678,0.759C535.15,546.3,549.568,545.87,548.636,545.51z"
							/>
						<polygon fill="#FFFFFF" points="736.903,534.622 724.269,536.205 738.063,534.555 						"/>
						<path fill="#FFFFFF" d="M795.906,530.96l2.177,0.032c0,0,0.652-0.042,1.631-0.104c0.979-0.075,2.283-0.136,3.586-0.173
							c2.606-0.093,5.214-0.186,5.214-0.186l-2.207-0.094c0,0-2.599,0.096-5.198,0.19
							C798.508,530.793,795.906,530.96,795.906,530.96z"/>
						<path fill="#FFFFFF" d="M717.308,525.144c-8.631,0.976-15.264,2.428-13.001,2.259l16.69-2.089
							c-4.305,0.018-4.644,0.558-14.325,1.65L717.308,525.144z"/>
						<path fill="#FFFFFF" d="M964.855,231.417c0.123,1.861-0.007,7.329-0.081,12.465c-0.136,5.13-0.19,9.933-0.374,10.409
							c-0.072-1.225-0.146-4.309-0.226-6.311c-0.06-2-0.139-2.92-0.266,0.183c0,0,0.215,3.607,0.43,7.215
							c0.245,3.607,0.489,7.213,0.489,7.213c-0.12,9.608-0.462,5.965-0.801-1.273c-0.189-3.621-0.295-8.132-0.407-12.335
							c-0.067-4.201-0.13-8.089-0.168-10.459c-0.188,9.773-0.069,16.118,0.139,22.62c0.215,6.509,0.434,13.174,0.777,23.598
							c-0.11-6.159-0.003-10.053,0.117-13.302c0.539-0.723,0.784,18.701,1.412,32.634c-0.08-8.874,0.328-3.756,0.811,2.694
							c0.064,1.163,0.13,1.935,0.19,2.483c0.059,0.751,0.114,1.461,0.171,2.191l-0.067-1.672c0.071,0.115,0.136-0.257,0.197-1.466
							c-0.627-11.684-0.469-20.623-0.656-28.116c-0.364,3.72-0.643-2.67-0.777-11.147c-0.145-8.479-0.079-19.034-0.164-23.723
							c0,0,0.007-2.707,0.015-5.414c-0.004-1.355,0.017-2.707,0.038-3.72c0.018-1.014,0.029-1.689,0.029-1.689l0.104-4.044
							c0.127-0.81,0.229,0.347,0.257,6.512c-0.013-2.571,0.045-8.154,0.241-12.874c0.128-4.729,0.332-8.604,0.129-7.825
							c0,0,0.148-2.437,0.372-6.092c0.284-3.69,0.664-8.611,1.043-13.531c0.393-4.964,0.754-9.989,0.938-13.798
							c0.213-3.797,0.258-6.369,0.258-6.369c0.084-1.277,0.168-2.554,0.23-3.501c-0.051-1.431-0.1-1.67-0.149-1.482
							c0,0,0.004-0.702,0.012-2.019c-0.032-1.326-0.079-3.271-0.139-5.747c-0.238-4.961-0.714-12.146-2.634-20.73
							c-0.272-1.067-0.55-2.158-0.833-3.269c-0.144-0.555-0.288-1.115-0.435-1.68c-0.179-0.56-0.358-1.124-0.54-1.693
							c-0.368-1.137-0.743-2.293-1.123-3.467c-0.454-1.154-0.914-2.325-1.382-3.512c-1.923-4.734-4.438-9.477-7.291-14.044
							c-5.709-9.171-12.78-17.669-19.1-26.098c-3.162-4.216-6.14-8.427-8.688-12.666c-1.267-2.122-2.432-4.223-3.544-6.426
							c-1.136-2.262-2.233-4.568-3.487-6.979c-2.396-4.733-5.582-9.82-9.668-13.77c-4.021-3.958-8.366-6.704-12.358-8.828
							c-8.071-4.177-14.749-6.123-19.391-7.631c-2.331-0.737-4.151-1.358-5.411-1.71c-1.264-0.337-1.938-0.518-1.938-0.518
							c8.451,2.612,15.566,4.862,24.27,9.064c-3.333-1.366-4.105-1.575-3.461-1.245c0.644,0.361,2.711,1.212,5.042,2.465
							c4.715,2.324,10.174,6.606,8.197,5.483c-2.808-1.906-6.304-4.104-9.793-5.75c-3.474-1.694-6.872-3.11-9.378-4.091
							c-0.996-0.194,0.287,0.405,1.696,1.109c1.412,0.725,2.941,1.507,2.456,1.509c5.28,2.275,9.422,4.537,12.862,6.857
							c1.757,1.085,3.242,2.389,4.726,3.516c0.692,0.648,1.369,1.281,2.038,1.907c0.334,0.316,0.665,0.63,0.995,0.943l0.904,1.011
							c2.441,2.686,4.448,5.612,6.361,8.999c1.949,3.375,3.714,7.291,6.047,11.629c-0.366-0.241-1.341-1.714-1.442-1.676
							c-0.048,0.016,0.087,0.45,0.677,1.556c0.59,1.104,1.563,2.93,3.352,5.732l-1.837-2.827c2.795,4.491,5.023,7.534,6.594,9.859
							c1.624,2.332,2.698,3.875,3.628,5.209c1.866,2.698,3.216,4.491,7.921,9.82l-0.646,0.022c3.23,3.962,7.978,9.95,12.086,16.825
							c2.095,3.389,3.932,7.061,5.471,10.566c0.693,1.784,1.441,3.483,1.993,5.129c0.531,1.652,1.065,3.197,1.484,4.619
							c0,0-0.068-0.164-0.137-0.328c-0.078-0.162-0.156-0.324-0.156-0.324c2.449,7.964,3.039,13.23,3.553,17.02
							c0.466,3.81,0.547,6.209,0.695,8.737c0.054,2.516,0.136,5.164,0.073,9.41c-0.072,4.238-0.262,10.098-0.868,18.901
							c0,0,0.037-1.015,0.093-2.538c0.04-1.531,0.095-3.572,0.148-5.613c0.019-2.055,0.068-4.097,0.054-5.645
							c-0.01-1.545-0.017-2.576-0.017-2.576c-0.293,6.173-0.482,9.9-0.561,13.218c-0.108,3.305-0.178,6.176-0.561,10.498
							c-0.056-0.632-0.589,1.357-0.05-6.847c0,0-0.149,2.66-0.373,6.65c-0.221,3.974-0.561,9.244-0.729,14.481
							c-0.249,5.24-0.295,10.499-0.39,14.435c-0.017,3.943-0.027,6.572-0.027,6.572
							C964.311,245.035,964.575,232.967,964.855,231.417z"/>
						<path fill="#FFFFFF" d="M964.368,284.742c0.034,2.237,0.12,4.784,0.24,7.787C964.52,289.63,964.442,287.134,964.368,284.742z"
							/>
						<path fill="#FFFFFF" d="M858.998,27.655c0,0,0.766,0.166,1.913,0.415c0.573,0.125,1.243,0.27,1.96,0.425
							c0.711,0.189,1.469,0.391,2.227,0.592c3.03,0.809,6.061,1.617,6.061,1.617c-1.875-0.51-3.79-1.031-5.792-1.576
							c-1.006-0.255-2.022-0.566-3.087-0.786C861.216,28.119,860.124,27.891,858.998,27.655z"/>
						<path fill="#FFFFFF" d="M967.776,345.512c0.047-7.397,0.55,5.521,0.783,6.807c0,0-0.209-6.616-0.418-13.232
							c-0.246-6.604-0.492-13.207-0.492-13.207c-0.198,0.126-0.527-2.476-0.692-1.938c0,0,0.216,5.388,0.433,10.775
							C967.583,340.114,967.776,345.512,967.776,345.512z"/>
						<path fill="#FFFFFF" d="M967.729,318.23c-0.177-0.888-0.414-3.673-0.659-6.787l0.58,14.436
							C967.799,325.781,967.874,324.156,967.729,318.23z"/>
						<polygon fill="#FFFFFF" points="957.008,321.451 956.804,316.79 956.365,309.74 						"/>
						<path fill="#FFFFFF" d="M955.95,248.362c-0.142,2.793-0.182,6.844-0.108,10.636c0.081,3.791,0.188,7.327,0.27,9.097
							C955.941,255.882,956.081,261.175,955.95,248.362z"/>
						<path fill="#FFFFFF" d="M952.74,263.505c0,0-0.081-2.953-0.161-5.906c-0.049-2.957-0.099-5.914-0.099-5.914l-0.059,1.103
							c0,0,0.066,2.681,0.134,5.362C952.647,260.828,952.74,263.505,952.74,263.505z"/>
						<path fill="#FFFFFF" d="M767.845,23.966c-1.942,0.104-3.825,0.217-5.78,0.379C764.713,24.172,766.44,24.059,767.845,23.966z"
							/>
						<path fill="#FFFFFF" d="M869.687,31.942c-3.452-1.017-5.758-1.695-7.169-2.111c-1.421-0.366-1.934-0.525-1.788-0.538
							c0.144-0.006,0.95,0.111,2.152,0.361c1.195,0.29,2.793,0.677,4.54,1.1c1.748,0.429,3.646,0.896,5.442,1.336
							c1.785,0.48,3.452,1.002,4.783,1.364c2.655,0.742,3.929,1.009,1.822,0.132c0,0-0.942-0.287-2.356-0.716
							c-1.42-0.404-3.281-1.063-5.201-1.497c-3.815-0.954-7.63-1.908-7.63-1.908l1.343,0.148c0,0-1.16-0.304-2.9-0.759
							c-1.757-0.375-4.099-0.875-6.441-1.375c-2.342-0.502-4.681-1.018-6.455-1.273c-1.768-0.296-2.946-0.493-2.946-0.493
							c1.908,0.476,3.573,0.891,4.663,1.163c1.084,0.293,1.571,0.525,1.121,0.606c-6.26-1.145-9.883-1.807-12.085-2.209
							c-2.208-0.339-2.983-0.503-3.548-0.65c-0.564-0.147-0.917-0.277-2.284-0.547c-1.368-0.25-3.744-0.752-8.381-1.234
							c0,0-1.771-0.154-4.425-0.385c-2.654-0.284-6.195-0.384-9.734-0.592c-3.542-0.231-7.076-0.251-9.729-0.314
							c-2.651-0.054-4.419-0.09-4.419-0.09l2.291-0.058c-2.384-0.059-3.435-0.014-4.251,0.059c0,0-1.486,0.011-4.087,0.03
							c-1.301,0.01-2.88,0.022-4.691,0.036c-1.81,0.025-3.846,0.114-6.069,0.179c-8.901,0.227-20.714,0.97-32.459,1.984
							c-11.754,0.991-23.432,2.279-32.167,3.268c-8.726,1.006-14.543,1.677-14.543,1.677c-16.877,2.22,9.427-0.415-2.985,1.544
							c9.798-1.128,22.015-2.41,32.006-3.432c5.003-0.484,9.438-0.945,12.729-1.304c3.296-0.345,5.44-0.639,5.846-0.856
							c-0.657,0.157-1.949,0.468,2.068,0.214c0,0,0.712-0.098,1.78-0.245c1.072-0.132,2.501-0.307,3.93-0.483
							c2.86-0.349,5.721-0.698,5.721-0.698s-2.74,0.143-5.482,0.285c-1.37,0.072-2.741,0.143-3.77,0.197
							c-1.025,0.066-1.71,0.11-1.71,0.11c2.868-0.391,7.364-0.781,12.59-1.214c5.242-0.328,11.213-0.715,17.065-0.833
							c1.462-0.041,2.914-0.082,4.342-0.122c1.431-0.024,2.841-0.011,4.212-0.015c2.744,0.007,5.337-0.003,7.672,0.04
							c4.677,0.162,8.309,0.324,10.009,0.456c-5.359-0.065-8.707-0.085-11.176-0.013c-2.465,0.123-4.06,0.203-5.916,0.295
							c-1.854,0.067-3.969,0.143-7.478,0.27c-1.753,0.049-3.854,0.107-6.444,0.18c-2.593,0.056-5.66,0.224-9.367,0.352
							c1.343,0.116,6.774,0.163,0.118,0.605c17.316-1.047,33.864-1.177,50.568-0.095C835.11,24.979,851.971,27.427,869.687,31.942z"
							/>
						<path fill="#FFFFFF" d="M527.076,27.756l0.277,0.008C526.753,27.635,526.553,27.607,527.076,27.756z"/>
						<path fill="#FFFFFF" d="M538.029,30.681c0,0,4.039,0.69,8.077,1.38c0.504,0.086,1.008,0.173,1.504,0.258
							c0.5,0.063,0.993,0.125,1.47,0.185c0.953,0.12,1.843,0.232,2.605,0.328c1.523,0.192,2.539,0.32,2.539,0.32
							s-1.572-0.264-3.931-0.661c-2.371-0.339-5.472-1.061-8.587-1.717c-1.557-0.335-3.112-0.67-4.572-0.984
							c-1.451-0.366-2.807-0.707-3.968-1c-2.32-0.568-3.877-1.012-3.877-1.012l-1.937-0.015c2.206,0.517,10.943,2.563,14.336,3.358
							L538.029,30.681z"/>
						<path fill="#FFFFFF" d="M573.134,35.142c-1.647-0.112-3.077-0.209-4.306-0.292c-1.224-0.105-2.245-0.193-3.08-0.265
							c-1.671-0.125-2.6-0.142-2.896-0.075c-0.593,0.133,1.343,0.598,4.906,1.194c-6.04-0.642-7.61-1.002-8.713-1.26
							c-1.107-0.239-1.732-0.449-5.899-0.837c0.05,0.117,1.011,0.346,2.479,0.632c0.734,0.14,1.593,0.309,2.532,0.458
							c0.943,0.121,1.963,0.252,3.008,0.386c2.09,0.248,4.278,0.508,6.158,0.731c1.878,0.231,3.468,0.28,4.325,0.358L573.134,35.142
							z"/>
						<polygon fill="#FFFFFF" points="671.232,32.677 667.499,33.314 676.766,32.407 						"/>
						<path fill="#FFFFFF" d="M667.499,33.314l-9.192,0.831c0.652,0.12,1.298,0.236,2.809,0.216L667.499,33.314z"/>
						<path fill="#FFFFFF" d="M634.216,35.884c-3.883,0.191-8.177,0.368-13.397,0.575c0,0,0.836-0.002,2.092-0.065
							c1.256-0.054,2.931-0.125,4.605-0.197c1.675-0.072,3.35-0.143,4.605-0.197C633.378,35.947,634.216,35.884,634.216,35.884z"/>
						<path fill="#FFFFFF" d="M644.716,35.304l-0.316-0.051l-10.184,0.631C637.972,35.676,641.34,35.49,644.716,35.304z"/>
						<path fill="#FFFFFF" d="M658.307,34.145c-1.53-0.273-3.317-0.481-16.561,0.663l2.653,0.445c0,0,3.476-0.266,6.952-0.531
							C654.827,34.475,658.307,34.145,658.307,34.145z"/>
						<path fill="#FFFFFF" d="M956.787,177.919c0,0,0.005-0.649,0.014-1.624c0.007-0.974,0.028-2.274-0.006-3.564
							c-0.022-1.291-0.045-2.582-0.062-3.549c-0.045-0.962-0.074-1.604-0.074-1.604l-0.038,1.087c-0.001,0,0.038,0.639,0.045,1.608
							c0.016,0.967,0.037,2.257,0.059,3.547c-0.018,2.594-0.034,5.188-0.034,5.188L956.787,177.919z"/>
						<path fill="#FFFFFF" d="M944.785,121.642c-0.717-1.041-1.348-1.957-1.922-2.791c-0.609-0.818-1.159-1.557-1.684-2.26
							C942.754,118.768,943.938,120.516,944.785,121.642z"/>
						<path fill="#FFFFFF" d="M915.796,86.273c-3.306-5.764-0.79-1.92,0.968,0.69c0.908,1.271,1.618,2.254,1.271,1.652
							c-0.327-0.617-1.825-2.714-4.812-8.123c-0.183-0.521,0.063-0.295,0.619,0.491c0.534,0.794,1.424,2.115,2.553,3.79
							c2.228,3.346,5.495,7.944,8.754,12.422c-0.414-0.231-2.067-2.396-3.15-3.771c-1.061-1.416-1.578-2.007,0.284,0.906
							c4.733,5.732,6.215,8.012,5.099,5.687c3.878,4.765,6.055,7.276,7.934,9.448c1.854,2.164,3.43,3.937,5.864,7.126
							c-2.083-2.901-4.812-6.583-7.998-10.725c-3.175-4.147-6.784-8.772-10.316-13.73c-3.533-4.936-6.957-10.308-9.738-15.636
							c-2.739-5.282-4.98-9.985-7.469-13.322c-2.854-3.537-3.834-3.636-3.976-3.237c-0.122,0.42,0.301,1.7-0.083,1.986
							c0.074,0.136,0.343,0.51,0.765,1.053c0.387,0.615,0.933,1.374,1.54,2.358c1.224,1.938,2.677,4.776,4.212,7.857
							c1.524,3.065,3.226,6.427,4.76,8.877c0.726,1.249,1.405,2.244,1.919,2.964C915.307,85.76,915.658,86.202,915.796,86.273z"/>
						<path fill="#FFFFFF" d="M926.851,103.357c3.508,4.634,4.592,5.964,6.742,8.689
							C933.313,111.103,929.741,107.083,926.851,103.357z"/>
						<path fill="#FFFFFF" d="M829.404,31.209c-1.111,0.037-11.491-0.724-9.279-0.291c0,0,3.929,0.309,7.858,0.617
							c1.969,0.118,3.916,0.425,5.387,0.573c1.468,0.172,2.446,0.287,2.446,0.287C832.15,31.905,830.875,31.567,829.404,31.209z"/>
						<path fill="#FFFFFF" d="M842.668,33.311c0,0-0.427-0.068-1.066-0.17c-0.641-0.095-1.49-0.258-2.351-0.343
							c-1.718-0.201-3.435-0.402-3.435-0.402C837.526,32.645,839.661,32.82,842.668,33.311z"/>
						<path fill="#FFFFFF" d="M828.665,31.058c0.246,0.051,0.466,0.095,0.739,0.151C829.629,31.2,829.591,31.167,828.665,31.058z"/>
						<path fill="#FFFFFF" d="M596.308,36.523c0.228-0.285-6.717-0.194-10.183-0.392C588.938,36.358,592.913,36.524,596.308,36.523z
							"/>
						<path fill="#FFFFFF" d="M333.096,29.852l-6.161,0.834C329.12,30.441,330.241,30.313,333.096,29.852z"/>
						<path fill="#FFFFFF" d="M238.348,45.177c-0.183,0.049-0.646,0.085-1.27,0.118C237.702,45.271,238.136,45.232,238.348,45.177z"
							/>
						<path fill="#FFFFFF" d="M237.078,45.295c-2.142,0.088-6.505-0.121-10.93-0.271c-4.424-0.161-8.896-0.435-11.274-0.37
							l0.606-0.072c0,0-2.206-0.065-4.412-0.13c-2.204-0.086-4.408-0.173-4.408-0.173c4.124,0.269,10.529,0.573,16.499,0.833
							C229.135,45.29,234.677,45.419,237.078,45.295z"/>
					</g>
				</g>
			</g>
		</g>
	</g>
</g>
</svg>
