<?xml version="1.0" encoding="utf-8"?>
<!-- Generator: Adobe Illustrator 16.0.0, SVG Export Plug-In . SVG Version: 6.00 Build 0)  -->
<!DOCTYPE svg PUBLIC "-//W3C//DTD SVG 1.1//EN" "http://www.w3.org/Graphics/SVG/1.1/DTD/svg11.dtd">
<svg version="1.1" id="Layer_1" xmlns="http://www.w3.org/2000/svg" xmlns:xlink="http://www.w3.org/1999/xlink" x="0px" y="0px"
	 width="1003px" height="333.4px" viewBox="0 0 1003 333.4" enable-background="new 0 0 1003 333.4" xml:space="preserve">
<g>
	<path fill="#F2F2F2" d="M997.926,15.989c-0.145-4.428-41.322-7.995-91.539-7.918C809.871,8.219,710.195,8.87,616.639,8.544
		c-82.396-0.287-174.926-0.388-268.022-0.356C182.823,8.243,5.401,5.856,6.394,30.985c3.872,97.983,22.102,195.452,0,292.881
		c-0.993,4.378,58.846,3.199,71.014,3.259c292.646,1.427,586.323,1.54,879.131,0.339c10.197-0.042,21.238-0.111,28.883-0.646
		c9.711-0.678,10.357-1.835,10.283-2.857c-2.043-28.407,4.85-56.531,2.807-84.938c-0.729-10.124,0.729-19.208,0-29.332
		c-0.805-11.188-0.189-23.836-0.994-35.023C993.697,121.563,999.648,69.051,997.926,15.989z"/>
	<g>
		<g>
			<g>
				<g>
					<g>
						<path fill="#FFFFFF" d="M994.915,79.747c0.138-5.865,0.548-10.958,0.641-8.753c-0.073-11.937,0.362-12.182-0.327-13.742
							c-0.233-7.653,0.307-15.799,0.528-7.099c0,0-0.058-5.513-0.115-11.026c0-2.757-0.112-5.508-0.191-7.571
							c-0.075-2.063-0.125-3.438-0.125-3.438s0.024,3.29,0.05,6.579c0.03,1.644-0.044,3.293-0.053,4.528
							c-0.023,1.235-0.038,2.059-0.038,2.059c-0.144-0.898-0.19-2.662-0.19-4.869c-0.028-2.204-0.061-4.849-0.094-7.513
							c-0.054-5.327-0.12-10.73-0.507-12.801c0,0,0.11,5.949,0.221,11.898c0.053,2.975,0.104,5.95,0.145,8.182
							c-0.017,2.235-0.027,3.725-0.027,3.725l-0.189-1.192c0.144,5.43,0.012,15.97-0.195,19.652
							c-0.097-0.582-0.229-0.219-0.193-4.424c-0.338,14.405-0.16,16.357,0.114,17.692c0.26,1.337,0.588,2.057,0.311,14.043
							C994.71,84.174,994.775,82.314,994.915,79.747z"/>
						<path fill="#FFFFFF" d="M992.718,104.252l0.499,10.111l-0.387,16.961c0.149,0.098,0.174,3.232,0.353,5.304
							c0.146,2.07,0.271,3.066,0.324-1.12c-0.053-1.636-0.076-4.868-0.031-7.478c0.297,0.949,0.217,6.58,0.42,11.363
							c0.143,4.781,0.274,8.699,0.523,6.202c-0.413-13.412-0.097-15.461-0.507-23.716c0.058-6.147,0.263-11.445,0.445-15.927
							s0.359-8.145,0.54-11.005c0.026-3.64-0.306-4.161-0.232-8.784c-0.024,1.022-0.047,1.962-0.075,3.139l-0.868,0.473
							c0.055,3.857-0.132,7.502-0.22,11.788l-0.417-19.823c-0.491,3.181-0.793,9.621-0.994,16.262
							c-0.193,6.644-0.344,13.462-0.6,17.354C992.449,105.712,991.646,123.048,992.718,104.252z"/>
						<path fill="#FFFFFF" d="M994.665,86.163c0.003-0.128,0.009-0.339,0.013-0.486C994.674,85.824,994.668,86.035,994.665,86.163z"
							/>
						<path fill="#FFFFFF" d="M6.534,75.264c-0.316-4.2-0.606-5.425-0.751-6.024c0,0,0.869,11.823,1.737,23.647
							c0.917,11.811,1.835,23.621,1.835,23.621c0.108-1.496-0.673-15.121,0.167-6.041c-0.072-4.071-1.231-16.41-1.671-18.179
							l0.604,3.399C7.165,84.833,7.521,77.323,8.28,84.409L8.21,83.49c0,0-0.96-7.515-1.921-15.03
							c-0.892-7.53-1.783-15.06-1.783-15.06c0.295,5.554,0.572,7.683,0.881,10.092C5.689,65.904,6.034,68.594,6.534,75.264z"/>
						<path fill="#FFFFFF" d="M929.867,6.751c-6.149-0.05-6.906,0.037-6.209,0.126C925.861,6.848,927.956,6.816,929.867,6.751z"/>
						<path fill="#FFFFFF" d="M3.718,46.351l-0.981-9.464C3.061,40.681,3.41,44.01,3.718,46.351z"/>
						<path fill="#FFFFFF" d="M16.295,111.262c0.029,0.017,0.062,0.117,0.08-0.135l-0.599-4.22c0.005,0.064,0.006,0.083,0.008,0.108
							C15.972,108.573,16.14,109.971,16.295,111.262z"/>
						<path fill="#FFFFFF" d="M200.707,3.004c1.018-0.021,1.895-0.039,3.111-0.063C202.685,2.964,201.661,2.984,200.707,3.004z"/>
						<path fill="#FFFFFF" d="M24.305,240.065c0,0,0.02-1.334,0.049-3.335c0.037-2.001,0.081-4.669,0.011-7.331
							c-0.08-5.324-0.16-10.649-0.16-10.649c0.215,2.839,0.232-7.435,0.473-2.948c0.017-1.626-0.263-9.218-0.334-7.146l0.087,4.336
							c-0.442-5.602-0.703-6.701-0.958-8.723c-0.127-1.011-0.254-2.251-0.401-4.397c-0.064-1.074-0.142-2.374-0.239-3.984
							c-0.111-1.607-0.245-3.524-0.406-5.837c0.049,5.75,0.063,9.894,0.209,13.355c0.14,3.462,0.361,6.247,0.571,9.298
							c0.106,2.066,0.058,3.806,0.086,5.561c0,0,0.206,4.423,0.412,8.846c0.096,2.214,0.221,4.428,0.267,6.09
							c0.028,1.664,0.046,2.772,0.046,2.772L24.305,240.065z"/>
						<path fill="#FFFFFF" d="M636.305,10.928l-0.23,0.055C636.285,10.963,636.324,10.945,636.305,10.928z"/>
						<path fill="#FFFFFF" d="M635.153,11.208l0.921-0.226C634.942,11.096,630.606,11.21,635.153,11.208z"/>
						<path fill="#FFFFFF" d="M4.341,49.811c-0.151-0.28-0.363-1.489-0.624-3.459c0,0,0.186,1.764,0.372,3.528
							c0.208,1.761,0.417,3.522,0.417,3.522C4.46,52.396,4.399,51.071,4.341,49.811z"/>
						<path fill="#FFFFFF" d="M6.862,65.785c0,0,0.332,4.427,0.664,8.854C7.868,79.064,8.21,83.49,8.21,83.49l0.85,6.499
							C8.445,83.221,7.727,75.307,6.862,65.785z"/>
						<path fill="#FFFFFF" d="M172.64,2.914c36.805-0.586-9.029,0.934,7.884,0.912c10.216-0.222,13.815-0.644,20.184-0.822
							c-29.183,0.628,3.947-1.36-25.496-0.797c4.179-0.777,21.23-1.036,31.219-0.907c11.311,0.597-9.875,0.57-12.43,1.272
							c11.811-0.22,9.729-0.319,14.739-0.738c18.546,0.028,38.362-1.003,49.431-0.068c13.416-0.161,12.532-0.482,20.247-0.842
							c1.536-0.73-19.953-0.382-24.926-0.945c1.03,0.06,3.04,0.181,2.458,0.284l-11.602-0.134c11.014,0.232-1.528,0.729-7.416,0.805
							c-4.281,0.025-12.794,0.095-11.624-0.112l6.483-0.183c-8.347-0.201-18.413,0.613-27.232,0.287
							c-0.462-0.16,2.873-0.262,3.378-0.367c-9.876,0.571-19.405,0.621-34.032,1.179l8.472-0.836
							c-11.693,0.93-38.198,1.143-56.611,1.36c2.045,0.051,5.723,0.031,3.521,0.236c-10.794,0.507-18.982,0.369-13.989-0.218
							c-5.27,0.51-15.335,0.792-25.901,1.318C78.834,4.1,67.76,4.894,60.56,5.995c-10.172,1.585-20.34,3.36-30.517,5.961
							c-5.089,1.329-10.176,2.811-15.292,5.046c-2.557,1.157-5.136,2.44-7.704,4.503c-0.694,0.514-1.415,1.272-2.076,1.977
							c-0.342,0.35-0.599,0.77-0.89,1.159c-0.281,0.397-0.564,0.789-0.76,1.234c-0.209,0.436-0.436,0.863-0.603,1.312
							c-0.135,0.462-0.261,0.928-0.376,1.392c-0.107,0.466-0.079,0.957-0.125,1.431l-0.021,0.357
							c-0.015,0.059,0.019,0.122-0.036,0.176l0.006,0.18c0.007,0.239,0.015,0.478-1.11,0.68l0.226,1.016l0.208,0.649l0.416,1.273
							l0.831,2.545c-0.067-0.821-0.136-1.66-0.206-2.518c-0.068-0.955-0.137-1.931-0.208-2.925c0.021-1.295,0.066-2.665,0.554-3.95
							c0.488-1.002,1.056-1.896,1.705-2.588c0.597-0.737,1.258-1.275,1.813-1.731c0.551-0.479,1.027-0.744,1.348-0.941
							c0.317-0.187,0.525-0.294,0.604-0.311c0.08-0.016,0.031,0.061-0.163,0.246c-0.211,0.188-0.563,0.501-1.08,0.961
							c-0.512,0.559-1.275,1.214-1.953,2.269c-0.729,0.996-1.417,2.401-1.602,4.17c0.208-1.732,0.886-3.08,1.61-4.079
							c0.683-1.047,1.47-1.751,2.107-2.41c0.678-0.565,1.172-1.002,1.695-1.399c0.519-0.362,1.013-0.708,1.546-1.08
							c2.154-1.315,5.027-2.925,12.802-4.997c-3.013,0.943-4.834,1.829-4.054,1.824c0.782,0.021,4.13-0.925,11.528-2.37
							c9.212-1.983,17.681-3.258,25.725-4.409c8.045-1.122,15.67-2.062,23.224-2.914c15.107-1.688,29.93-3.045,47.28-4.077
							c0.649,0.226,7.789,0.08,16.418-0.09c8.63-0.176,18.75-0.372,25.37-0.419c-5.044,0.606-14.864,0.925-25.059,1.286
							c6.398-0.11,17.413-0.301,25.585-0.442L172.64,2.914z"/>
						<path fill="#FFFFFF" d="M86.401,7.443c0.932-0.012,1.895-0.045,2.883-0.081C88.756,7.353,87.896,7.373,86.401,7.443z"/>
						<path fill="#FFFFFF" d="M140.633,4.499c-0.127,0.022-0.082,0.035-0.126,0.057c1.069-0.039,2.139-0.078,3.234-0.118
							C142.645,4.459,141.409,4.484,140.633,4.499z"/>
						<path fill="#FFFFFF" d="M5.023,41.055c0.222,2.196,0.386,3.82,0.608,6.016c-0.102-1.354-0.23-3.053-0.353-4.688
							C5.138,40.825,5.036,40.086,5.023,41.055z"/>
						<path fill="#FFFFFF" d="M4.52,48.523l-0.257-1.167c0.03,0.949,0.052,1.615,0.079,2.455C4.468,50.06,4.532,49.781,4.52,48.523z
							"/>
						<path fill="#FFFFFF" d="M313.184,6.795l3.523-0.104C314.585,6.698,313.67,6.741,313.184,6.795z"/>
						<path fill="#FFFFFF" d="M213.639,3.33c-12.793,0.139-1.524,0.724-19.623,0.887l5.313-0.004
							c-12.981,0.411-35.807,0.564-51.245,0.963c1.735-0.337-9.371-0.125-7.577-0.621c-10.553,0.375-21.008,0.847-26.429,1.53
							c-6.548,0.1-16.466,0.969-24.794,1.276c3.526,0.079-11.782,1.595,8.432,0.123c-1.631,0.12-0.603,0.131-2.215,0.256
							c13.049-0.293,18.244-1.126,29.471-1.531c6.719,0.035-10.959,0.817-4.623,0.702c7.003-0.382,17.999-0.632,27.122-0.85
							c9.124-0.227,16.378-0.453,15.905-0.954c10.196-0.246,11.607-0.032,14.65,0.111c16.12-1.358,59.842-0.008,59.688-1.363
							c-5.885,0.069-15.477,0.079-24.113,0.428L213.639,3.33z"/>
						<path fill="#FFFFFF" d="M12.865,21.218c0.753-0.363,1.768-0.766,2.399-1.033C14.554,20.49,13.665,20.829,12.865,21.218z"/>
						<path fill="#FFFFFF" d="M10.32,180.748c0,0-0.275-1.316-0.551-2.634c-0.296-1.316-0.592-2.633-0.592-2.633
							c-0.875-15.106-1.586-25.407-2.228-35.236c-0.695-9.835-1.335-19.198-2.399-32.463c-0.034-2.036,0.294,1.176,0.461,2.804
							c-0.761-9.323-1.688-20.97-2.474-32.016C1.686,67.54,1.048,57.1,0.404,50.288C0.107,44.306-0.347,28.589,0.2,34.521
							c-0.032-0.43-0.064-0.869-0.098-1.316c-0.039-0.601-0.08-1.214-0.121-1.838l0.006-0.727c0.02-0.12-0.039-0.249,0.045-0.362
							l0.033-0.365c0.045-0.487,0.09-0.979,0.136-1.473c0.072-0.49,0.249-0.964,0.386-1.447c0.076-0.24,0.149-0.482,0.236-0.719
							l0.335-0.683c0.852-1.859,2.278-3.439,3.845-4.824c0.288-0.165,0.027,0.115-0.536,0.687c-0.278,0.289-0.629,0.653-1.03,1.069
							c-0.367,0.441-0.753,0.962-1.152,1.515c-0.77,1.123-1.434,2.496-1.762,3.846c-0.116,0.329-0.154,0.665-0.175,0.992
							c-0.03,0.326-0.059,0.639-0.086,0.937c-0.013,0.148-0.026,0.293-0.039,0.433c-0.09,0.132-0.026,0.275-0.046,0.405
							c0.001,0.263,0.002,0.505,0.003,0.723c0.061,0.819,0.113,1.27,0.157,1.237c-0.02-0.479-0.038-0.926-0.05-1.233
							c0.037-0.45-0.032-0.877,0.089-1.254c0.042-0.385,0.082-0.74,0.118-1.068c0.032-0.664,0.221-1.188,0.36-1.637
							c0.25-0.91,0.528-1.445,0.708-1.875c-0.573,1.106-0.595,1.769-0.656,2.101c-0.033,0.343,0.028,0.41,0.083,0.503
							c0.104,0.179,0.157,0.492,0.123,3.258c0.05,0.523,0.114,1.192,0.195,2.043c0.054,0.692,0.119,1.532,0.197,2.547
							c0.139,2.033,0.293,4.773,0.466,8.447c-0.372,8.093-0.78-14.421-1.388-9.629c0.325,6.903,0.61,6.084,0.741,6.67
							c0.401,8.794,0.185,8.575-0.032,8.117c0.468,3.348,0.785,14.411,1.476,19.027c1.285,17.027-0.693-0.884,0.113,10.241
							l1.305,6.351l1.253,18.477c2.361,26.669,1.188-3.927,3.989,26.539c-0.765-3.975-0.504,8.316,0.218,22.5
							c-0.559-8.479-2.271-24.12-2.873-35.106c0.541,15.512-1.736-21.272-1.869-13.191c0.952,7.614,2.004,20.353,2.531,30.286
							l-0.32-3.247c0.343,5.28,0.908,9.903,1.4,15.022c0.482,5.12,1.081,10.751,1.276,18.033c0.419,7.227,0.107,5.884-0.16,4.625
							c0.23,3.054,0.449,5.945,0.609,8.076C10.379,179.364,10.409,180.734,10.32,180.748z M9.335,165.018c0,0-0.11-2.417-0.22-4.835
							c-0.137-2.419-0.274-4.839-0.274-4.839C8.868,157.649,9.096,161.253,9.335,165.018z"/>
						<path fill="#FFFFFF" d="M994.692,240.57c-0.009-0.979-0.018-2.105-0.025-2.993
							C994.646,238.251,994.662,239.441,994.692,240.57z"/>
						<path fill="#FFFFFF" d="M217.19,323.293l5.633,0.044C220.624,323.319,218.82,323.306,217.19,323.293z"/>
						<path fill="#FFFFFF" d="M343.632,320.826l8.23-0.177C348.614,320.654,346.068,320.726,343.632,320.826z"/>
						<path fill="#FFFFFF" d="M991.529,307.281l-0.012,0.279c0.005,0.47,0.009,0.828,0.014,1.322L991.529,307.281z"/>
						<path fill="#FFFFFF" d="M597.215,323.115c1.253,0.069,2.659,0.132,4.584,0.179
							C601.569,323.21,599.855,323.152,597.215,323.115z"/>
						<path fill="#FFFFFF" d="M342.117,320.859c0.211,0.007,0.333,0.011,0.499,0.017c0.32-0.016,0.672-0.033,1.017-0.05
							L342.117,320.859z"/>
						<path fill="#FFFFFF" d="M161.505,320.676c-1.209,0.024-2.309,0.047-3.607,0.074
							C159.599,320.737,160.641,320.709,161.505,320.676z"/>
						<path fill="#FFFFFF" d="M169.437,323.099c-1.298,0.027-2.539,0.055-3.504,0.075L169.437,323.099z"/>
						<path fill="#FFFFFF" d="M17.833,294.134c0,0,0.263-1.904,0.525-3.809c0.125-0.953,0.279-1.902,0.345-2.62
							c0.068-0.717,0.114-1.195,0.114-1.195c-0.171,1.881-0.445,3.368-0.598,4.602C18.063,292.344,17.938,293.313,17.833,294.134z"
							/>
						<path fill="#FFFFFF" d="M149.367,322.491c-0.441,0.038-0.883,0.075-1.177,0.112
							C149.239,322.58,149.738,322.531,149.367,322.491z"/>
						<path fill="#FFFFFF" d="M996.667,192.16c0.003,0.174,0.007,0.359,0.009,0.462l0.102,0.191L996.667,192.16z"/>
						<path fill="#FFFFFF" d="M994.894,173.898c-0.134-2.182-0.272-4.453-0.409-6.686
							C994.605,169.697,994.755,172.117,994.894,173.898z"/>
						<path fill="#FFFFFF" d="M707.385,324.274c2.008,0.118,6.721,0.257,4.521,0.4C715.749,324.491,715.492,324.063,707.385,324.274
							z"/>
						<path fill="#FFFFFF" d="M1002.334,229.183c-0.081-1.191-0.127-2.673-0.171-4.163
							C1002.209,227.79,1002.242,230.214,1002.334,229.183z"/>
						<path fill="#FFFFFF" d="M1002.163,225.02c-0.024-1.403-0.051-2.903-0.073-4.159
							C1002.115,222.322,1002.141,223.726,1002.163,225.02z"/>
						<path fill="#FFFFFF" d="M656.307,331.403c-0.499-0.057-1.272-0.104-2.321-0.117
							C654.292,331.401,655.13,331.425,656.307,331.403z"/>
						<path fill="#FFFFFF" d="M994.346,161.8c-0.531-1.184-1.372-30.288-1.039-5.797c-0.388-0.462-0.483-4.391-0.576-9.02
							c-0.074-4.628-0.161-9.954-0.214-13.221c-0.17,4.74-0.395-2.357-0.618-0.919c0.018,3.236,0.333,7.096,0.345,12.454
							c-0.231,2.473-0.61-5.668-0.513-12.017c-0.399,7.816-0.402-9.918-0.765,1.144c0.147,5.926,0.284,11.418,0.413,16.583
							c0.037,1.291,0.073,2.561,0.109,3.813c0.082,1.253,0.162,2.487,0.241,3.704c0.169,2.432,0.334,4.796,0.495,7.106
							c0.354,4.564,0.689,8.913,1.018,13.151c0.391,4.103,0.593,8.235,0.876,12.34c-0.041-1.665-0.082-3.354-0.123-5.057
							c-0.021-0.852-0.041-1.707-0.062-2.563l-0.137-2.535c-0.188-3.424-0.376-6.859-0.561-10.22
							c-0.176-3.425-0.348-6.773-0.511-9.958c-0.144-3.186-0.296-6.208-0.229-8.976c0,0,0.153,1.159,0.307,2.318
							c0.069,0.579,0.164,1.158,0.24,1.592c0.073,0.434,0.122,0.724,0.122,0.724c0.077,6.26,0.304,11.322,0.582,16.352
							c0.132,2.465,0.263,4.923,0.401,7.519c0.168,2.56,0.2,5.322,0.224,8.361c0,0-0.004-1.706-0.01-4.266
							c-0.021-2.552-0.181-5.893-0.277-9.266c-0.277-6.905-0.555-13.812-0.555-13.812c-0.203-12.951,0.339-4.297,0.954,5.878
							C994.363,164.708,994.282,162.439,994.346,161.8z"/>
						<path fill="#FFFFFF" d="M1000.017,180.078l-0.005-0.467c-0.038-0.406-0.073-0.91-0.107-1.168L1000.017,180.078z"/>
						<path fill="#FFFFFF" d="M6.73,293.903l0.152-2.334C6.677,293.505,6.649,294.108,6.73,293.903z"/>
						<path fill="#FFFFFF" d="M997.693,196.555v-0.02C997.702,196.721,997.702,196.766,997.693,196.555z"/>
						<path fill="#FFFFFF" d="M34.605,332.209c-0.084,0.011-0.168,0.021-0.316,0.041C34.502,332.237,34.502,332.221,34.605,332.209z
							"/>
						<path fill="#FFFFFF" d="M50.408,320.63c-0.108-0.025-0.14-0.049-0.394-0.075C48.767,320.583,49.372,320.61,50.408,320.63z"/>
						<path fill="#FFFFFF" d="M34.652,332.159c0,0.017,0.038,0.034-0.046,0.05C34.651,332.192,34.754,332.177,34.652,332.159z"/>
						<path fill="#FFFFFF" d="M320.173,330.85c0,0-0.902-0.096-2.321-0.189C317.302,330.709,317.852,330.77,320.173,330.85z"/>
						<path fill="#FFFFFF" d="M263.831,329.896c-0.358-0.021-0.569-0.034-1.03-0.063L263.831,329.896z"/>
						<path fill="#FFFFFF" d="M694.055,321.849c-2.787-0.003-4.878,0.015-6.644,0.042
							C689.445,321.9,691.645,321.895,694.055,321.849z"/>
						<path fill="#FFFFFF" d="M34.289,332.25c-0.594,0.046-1.44,0.088-2.837,0.127C32.991,332.337,33.804,332.292,34.289,332.25z"/>
						<path fill="#FFFFFF" d="M406.086,328.328c-0.601,0.019-1.164,0.037-1.733,0.055c0.345,0.01,0.69,0.021,1.029,0.03
							L406.086,328.328z"/>
						<path fill="#FFFFFF" d="M435.488,328.806c-1.004,0.059-1.465,0.122-2.027,0.176c10.494-0.198,29.773,0.098,32.057-0.475
							c-3.562,0.005-22.023-0.384-18.876-0.714c-7.315,0.125-18.128-0.309-22.067-0.225c12.008,0.349,1.297,0.492-6.812,0.666
							c-7.373-0.188,1.388-0.462-4.961-0.586l-17.061,0.02l14.861,0.115l-4.516,0.545c0.55-0.018,0.927-0.03,1.516-0.049
							C432.746,328.085,409.736,329.1,435.488,328.806z"/>
						<path fill="#FFFFFF" d="M433.461,328.981c-1.573,0.031-2.955,0.07-4.029,0.126
							C431.804,329.105,432.725,329.051,433.461,328.981z"/>
						<path fill="#FFFFFF" d="M536.186,330.083c1.292-0.027,2.692-0.059,4.451-0.097
							C539.799,330.005,537.854,330.047,536.186,330.083z"/>
						<path fill="#FFFFFF" d="M9.935,102.571c-0.132,0.454,0.669,15.084,1.075,14.79c-0.293-4.338-0.588-8.709-0.884-13.098
							L9.935,102.571z"/>
						<path fill="#FFFFFF" d="M816.015,327.076c-1.631,0-3.268-0.001-4.904-0.001c-0.352,0.024-0.69,0.049-0.953,0.067
							C811.155,327.204,814.385,327.119,816.015,327.076z"/>
						<path fill="#FFFFFF" d="M451.169,327.604c-2.686,0.059-3.882,0.123-4.528,0.189
							C448.381,327.763,449.986,327.712,451.169,327.604z"/>
						<path fill="#FFFFFF" d="M816.938,328.093c2.079,0.118,5.143,0.299,5.577,0.461c4.253-0.004,7.238-0.234,11.567-0.322
							C829.197,328.303,823.545,328.271,816.938,328.093z"/>
						<path fill="#FFFFFF" d="M834.435,328.223c-0.121,0.003-0.243,0.006-0.352,0.009
							C834.205,328.229,834.313,328.226,834.435,328.223z"/>
						<path fill="#FFFFFF" d="M9.448,93.865c-0.125-1.254-0.255-2.546-0.388-3.876l0.27,2.013c-0.208-3.365-0.415-6.71-0.622-10.062
							c-0.106-1.211-0.222-2.523-0.364-4.136c0.062,0.65,0.143,1.15,0.212,1.46c-0.061-1.092-0.121-2.159-0.181-3.226
							c-0.253-1.994-0.553-4.733-0.871-7.811c-0.277-3.082-0.585-6.5-0.886-9.848c-0.29-3.35-0.573-6.629-0.815-9.43
							c-0.208-2.804-0.389-5.13-0.523-6.567c-0.118-1.697-0.242-3.478-0.367-5.285c-0.117-1.854-0.236-3.733-0.353-5.579
							c-0.054-0.691,0.052-1.371,0.09-2.051c0.056-0.333,0.177-0.654,0.266-0.979l0.148-0.482l0.23-0.445
							c0.157-0.294,0.314-0.587,0.469-0.877c0.2-0.262,0.399-0.523,0.596-0.781c0.376-0.536,0.863-0.959,1.32-1.396
							c0.449-0.457,0.954-0.776,1.384-1.104c0.439-0.343,0.887-0.608,1.323-0.864c0.864-0.549,1.707-0.936,2.48-1.32
							c-1.292,0.63-2.688,1.356-3.949,2.31c-0.306,0.237-0.657,0.465-0.958,0.747c-0.302,0.289-0.599,0.573-0.887,0.849
							c-0.299,0.265-0.515,0.588-0.745,0.878c-0.214,0.302-0.46,0.564-0.611,0.866c-0.685,1.166-0.916,2.218-0.956,2.764
							c-0.004,0.558,0.042,0.614,0.155-0.014c0.314-1.62,1.224-2.918,2.207-3.984c0.548-0.474,1.065-1.003,1.629-1.372
							c0.56-0.367,1.065-0.762,1.625-1.039c2.178-1.23,4.39-2.089,6.856-2.891c4.935-1.605,10.889-3.089,20.258-4.983
							c0,0-0.69,0.116-1.727,0.29c-1.034,0.192-2.413,0.448-3.792,0.704c-2.755,0.535-5.494,1.179-5.494,1.179
							s0.382-0.102,1.051-0.279c0.669-0.177,1.625-0.439,2.778-0.709c2.302-0.576,5.388-1.251,8.483-1.871
							c3.095-0.62,6.202-1.167,8.533-1.565c2.334-0.379,3.89-0.632,3.89-0.632c4.407-0.301,1.294,0.145-3.335,0.844
							c-4.633,0.687-10.77,1.781-12.463,2.265c9.629-1.906,18.57-2.693,26.18-3.288c7.616-0.578,13.923-0.938,18.409-1.664
							c1.307,0.413,3.49,1.023,16.257,0.27c-9.242-0.06,7.642-0.765,0.052-0.958c4.403-0.52,14.27-0.511,14.99-0.893l-1.187,0.251
							c21.861-0.103,28.971-1.414,38.312-2.052c26.157-0.758,38.176-0.536,59.507-0.794c0.841,0.32,6.654,1.177,15.21,1.103
							c3.976-0.468,23.277-0.729,25.246-1.294c-15.299-0.203-12.516,0.506-21.673,0.672c-7.627-0.559-0.693-0.587-11.109-0.888
							c8.407,0.163,37.976-0.451,47.179,0.112l-3.249,0.081c14.691,0.33,17.497,1.731,41.971,0.901l11.677-0.338
							c-0.563,0.056-0.626,0.123-0.927,0.173c19.113,0.073,13.895,0.719,34.997,0.211c-1.631,0.039-0.607,0.102-2.264,0.14
							c12.028,0.324,24.159-0.292,33.252-0.416c5.551,0.48-1.317,0.464-4.751,0.801c21.16,0.211,43.996-0.57,57.138-1.129
							l13.64,0.295c-8.09,0.185-17.976,0.67-15.508,0.959c7.501-0.085,6.05-0.311,16.659-0.206c-1.81,0.3-6.261,0.576-11.25,0.95
							c21.94,0.535,4.906-1.066,20.259-0.118c6.894,0.015,10.897-0.421,11.652-0.786l12.488,0.495
							c1.388-0.463,16.806-0.469,26.91-0.526c1.235-0.199-8.133-0.507-11.964-0.333c0.755-0.364,11.506-0.522,18.418-0.505
							c2.53,0.979,45.263-0.081,37.088,1.058c31.054-0.278,74.68-0.29,95.175-0.778c6.758,0.259,20.532,0.25,12.275,0.721
							c24.996-0.037,37.89-1.059,62.7-0.833c2.052,0.119-11.216,0.027-10.334,0.351c16.217-0.417,29.504,0.365,54.667,0.063
							c-4.233,0.024-5.468,0.228-6.057,0.33c-0.44-0.161,10.309-0.352,16.818-0.52c3.657,0.078-4.873,0.125-2.82,0.246
							c48.605,0.395,85.637-0.992,133.979-1.027c-6.903,0.005-11.659,0.171-14.707,0.369c-3.049,0.198-4.39,0.428-4.463,0.56
							l13.524-0.01c5.208-0.335,15.374-0.362,23.88-0.454c1.042,0.135,5.174,0.342,0.953,0.419c13.362,0.562,23.8,0.657,35.011,1
							c5.604,0.185,11.4,0.428,17.845,0.995c3.223,0.288,6.606,0.652,10.214,1.228c1.805,0.292,3.663,0.631,5.601,1.12
							c0.971,0.25,1.955,0.523,2.993,0.928c0.519,0.202,1.054,0.438,1.637,0.792c0.143,0.085,0.293,0.185,0.454,0.311
							c0.148,0.105,0.322,0.262,0.488,0.431c0.32,0.353,0.774,0.896,0.824,1.832c-0.009,0.036,0.008-0.619-0.412-1.279
							c-0.408-0.629-0.99-1.035-1.603-1.363c-1.235-0.643-2.81-1.076-4.699-1.481c-3.765-0.794-8.725-1.341-13.692-1.747
							c-4.965-0.404-9.927-0.648-13.647-0.801c-3.721-0.129-6.201-0.215-6.201-0.215s2.441,0.275,4.882,0.551
							c2.438,0.3,4.875,0.6,4.875,0.6s-4.355-0.21-8.712-0.333c-4.356-0.132-8.713-0.193-8.713-0.193
							c10.365,0.848,19.438,0.809,20.644,1.42c-2.198-0.072-7.472-0.52-7.656-0.26c4.967,0.458,7.645,0.667,10.02,0.816
							c2.373,0.158,4.445,0.249,8.163,0.687c-9.835-0.824-24.434-1.603-39.19-2.008c-14.757-0.424-29.653-0.483-40.09-0.318
							c-3.287,0.083,2.814-0.246,3.395-0.347c-8.522,0.045-13.641-0.255-24.37-0.065c-6.663,0.432,5.084,0.301,10.373,0.336
							c-0.729,0.368-3.389,0.35-9.278,0.415c-1.279-0.486-32.333-0.12-39.924-0.704c-31.47,0.206,5.033,1.256-25.688,1.094
							l-9.177-0.543c-17.835,0.461-40.902,0.881-61.085,0.795l4.253-0.025c2.833-0.244-1.848-0.383-3.92-0.502
							c-15.251-0.214-28.956,0.486-38.196-0.058c-17.395,0.623-46.397,1.109-66.287,1.448c-5.363-0.728,25.946-0.667,34.223-1.141
							l-18.104,0.032c11.191-0.028,15.611-0.315,22.32-0.745c-15.865-0.111-21.085,0.542-36.127,0.753
							c1.172-0.202-0.836-0.322-7.774-0.316l-1.972,0.493c-0.128-0.04-0.895-0.076-3.037-0.104l-26.763,0.313
							c5.678,0.213,5.95,0.651,12.863,0.649c-2.468-0.281,3.397-0.347,10.316-0.351c-6.063,0.329,6.746,0.258,6.598,0.522
							c-13.871,0.027-30.913,0.079-40.006,0.191l-2.952-0.455c-13.217-0.131-27.177,0.102-36.142-0.042l2.827-0.236
							c-15.857-0.159-31.474,0.111-45.553-0.348c-14.146,0.496-31.955,0.901-43.517,1.424c-6.184,0.573-41.505-0.785-57.453,0.012
							c-1.074-0.064,10.954-0.423,16.396-0.635c-10.608-0.104-19.042,0.607-22.367-0.009c23.806,0.237-1.279-0.49,9.445-0.649
							c-11.146-0.004-22.898,0.091-28.366,0.302c18.039,0.02-6.407,0.837,11.855,0.595c-14.151,0.496-33.461,0.675-50.323,0.454
							c0.167-0.265-1.912-0.39-8.199-0.498l-5.072,0.382c-7.892-0.071,15.261-0.45-0.626-0.59
							c-16.349,0.651-49.222-0.411-56.376,0.803c-12.455-0.484,23.702-0.474,4.93-1.069c10.921-0.433,25.986,0.083,29.587-0.519
							c-10.705,0.164-3.907-0.515-10.813-0.526l-11.939,0.364l2.641,0.025c-20.034,0.555-51.771,0.271-77.343,0.517
							c-21.657,0.75-36.554,1.742-62.502,2.181c7.652-0.536-21.556,0.146-5.237-0.884c-6.008-0.024-11.973,0.15-16.463,0.371
							c-4.49,0.221-7.504,0.482-7.618,0.62c10.56-0.243,3.714-0.045,12.612-0.167c-5.997,0.469-19.825,0.917-25.509,0.959
							c2.632-0.085,1.629-0.105,2.206-0.23c-12.599,0.321-6.022,0.562-15.104,1.133c-1.453-0.155-6.471,0.076-12.156,0.422
							c-5.686,0.347-12.033,0.835-16.172,1.056c0,0-2.977,0.419-5.954,0.839c-2.967,0.45-5.935,0.899-5.935,0.899
							c3.253-0.541,0.392-0.302-3.515,0.09c-3.91,0.378-8.836,1.009-9.792,0.948c-4.213,0.736-8.058,1.534-12.381,2.518
							c-2.153,0.507-4.438,1.039-6.906,1.697c-2.477,0.638-5.143,1.413-7.949,2.426c1.139-0.478,1.065-0.501,0.301-0.269
							c-0.765,0.227-2.218,0.728-3.633,1.39c-0.747,0.312-1.387,0.701-2.041,1.048c-0.262,0.18-0.579,0.392-0.773,0.508
							c-0.218,0.13-0.323,0.24-0.482,0.351c-0.573,0.445-0.873,0.911-0.988,0.891c-0.234,0.46-0.316,0.976-0.285,1.471
							c0.049,1.195,0.098,2.368,0.146,3.52c0.063,1.252,0.125,2.482,0.187,3.693c0.149,2.42,0.293,4.764,0.434,7.056
							c0.288,4.582,0.758,8.954,1.134,13.31c0.753,8.71,1.629,17.364,2.063,27.543c-0.151-0.655-0.752-4.94-0.388,1.305
							c0.498,4.904,1.105,13.505,1.561,18.763l-0.025-0.165c0.013,0.102,0.021,0.165,0.034,0.273c0.223,2.575,0.402,4.19,0.51,4.247
							c1.117,8.971,1.915,13.579,3.552,31.317c0.417-1.343-0.896-16.32-1.545-22.792l-0.916-5.563
							c0.315-5.412-1.368-15.969-1.43-20.055c1.646,10.541,3.941,41.172,5.601,59.607c0.009-11.307-1.773-35.74-3.506-56.956
							l0.429,9.375l-0.866-11.109l0.312,10.793c-0.714-10.532-1.578-19.62-2.207-29.116c0.792,11.115,0.489,15.512,0.103,9.203
							c-0.398-12.429-1.274-12.896-1.852-22.37c0.261,5.273,0.796,12.138,0.185,7.733c-0.359-9.207-0.613-15.091-0.926-20.739
							c-0.151-2.823-0.224-5.583-0.325-8.667c-0.039-1.542-0.08-3.163-0.124-4.914c-0.017-0.875-0.034-1.782-0.051-2.728
							c-0.008-0.473-0.015-0.955-0.023-1.447c-0.003-0.246-0.007-0.495-0.01-0.746c-0.004-0.168,0.002-0.125,0.004-0.188
							l0.008-0.117c0.006-0.038,0.016-0.102,0.026-0.167c-0.107,0.05-0.183,0.015-0.234-0.11c-0.06-0.125-0.071-0.341,0.018-0.596
							s0.289-0.531,0.565-0.779c0.048-0.062,0.195-0.142,0.341-0.257c0.182-0.126,0.333-0.263,0.543-0.396
							c0.471-0.255,0.859-0.553,1.415-0.81c2.082-1.086,4.755-2.03,6.96-2.747c2.234-0.702,4.008-1.221,4.559-1.528
							c0,0-0.457,0.111-1.141,0.278c-0.692,0.157-1.586,0.403-2.479,0.651c-0.905,0.234-1.764,0.517-2.417,0.719
							c-0.658,0.198-1.076,0.348-1.076,0.348c0,0,0.211-0.095,0.614-0.233c0.398-0.143,0.967-0.346,1.65-0.591
							c1.387-0.47,3.28-1.054,5.215-1.588c3.875-1.064,7.898-1.899,7.898-1.899c15.024-1.872-13.098,2.811,9.699-0.405
							c10.64-1.396,15.823-2.077,20.441-2.683c4.639-0.622,8.709-1.213,17.195-1.819c-5.559,0.861-18.991,2.194-32.471,3.866
							c0,0,2.043-0.21,4.1-0.375c2.056-0.167,4.111-0.334,4.111-0.334c-2.154,0.37-7.926,1.024-14.228,1.964
							c-6.307,0.92-13.128,2.165-17.454,3.277c1.763-0.537,3.048-0.833,3.829-1.069c0.793-0.22,1.133-0.311,1.096-0.331
							c-0.077-0.044-1.611,0.27-3.798,0.758c-2.162,0.519-4.959,1.242-7.459,2.067c-2.509,0.819-4.629,1.766-5.76,2.344
							c-0.145,0.22,0.141,0.15,0.524-0.007c0.366-0.163,0.984-0.375,1.291-0.495c0.324-0.115,0.413-0.114-0.089,0.198
							c-0.226,0.161-0.707,0.374-1.173,0.726c-0.228,0.173-0.595,0.361-0.833,0.583c-0.278,0.246-0.535,0.419-0.557,0.495
							c0.039-0.06,0.275-0.194,0.593-0.444c0.278-0.221,0.708-0.426,1.022-0.634c0.321-0.211,0.755-0.386,1.1-0.572
							c0.348-0.188,0.723-0.356,1.105-0.511c0.373-0.16,0.734-0.314,1.086-0.465c0.378-0.139,0.747-0.274,1.112-0.409
							c0.715-0.28,1.474-0.512,2.244-0.757c3.111-0.945,6.699-1.91,13.467-3.064c-9.016,1.599-14.666,3.444-18.21,5.257
							c-0.847,0.46-1.606,0.898-2.159,1.321c-0.335,0.205-0.499,0.411-0.711,0.587c-0.155,0.137-0.142,0.167-0.152,0.22
							c-0.043,0.2,0.036,0.376,0.155,0.47l0.027,0.062c0.005,0.031,0.006-0.026,0.016,0.077l0.023,0.24
							c0.03,0.32,0.061,0.645,0.092,0.974c0.058,0.659,0.118,1.338,0.18,2.042c0.119,1.41,0.233,2.926,0.342,4.603
							c0.24,3.355,0.368,7.347,0.632,12.437c-0.251-3.07-0.381-4.334-0.46-4.481c-0.08-0.146-0.133,0.822-0.125,2.224
							c0.003,2.803,0.111,7.33,0.044,8.077c0.218,2.894,0.497,7.269,0.857,11.532c0.37,4.262,0.729,8.403,0.939,10.817l0.358-4.423
							c0.69,7.764,0.808,13.032,1.008,18.6c0.192,5.563,0.461,11.43,1.51,20.414c0.584,2.31-1.097-15.856-0.765-12.619
							c1.167,12.303,1.665,20.696,1.97,28.777c0.343,8.066,0.446,15.823,0.921,26.825c0.289,1.23,0.689,0.947,1.467,8.636
							c-0.535-2.399-0.432,3.313-1.198-5.336c0.21,7.375,1.058,16.071,1.4,22.589c-0.342-15.385,0.818,6.265,1.167,9.096
							c0.222,7.972-0.489-2.418-0.796-7.312c0.066,3.199,0.022,6.702,0.054,9.856c-0.026,3.16,0.018,5.973,0.353,7.787
							c-0.236,0.132-0.509-4.35-0.963-10.319c-0.232-2.985-0.47-6.347-0.683-9.702c-0.21-3.353-0.419-6.698-0.604-9.652
							c0,0,0.088,1.991,0.177,3.983c0.058,1.995,0.116,3.991,0.116,3.991c-0.404-5.49-0.452-6.512-0.801-14.42
							c0.09,7.754-0.315,7.006-0.716,5.221c0.007-1.017,0.132,0.559,0.14-0.412c-0.237-6.366-0.618-11.238-0.764-9.75
							c-0.881-5.683,0.122,8.839,0.071,13.159c0.226,3.251,0.34,6.515,0.513,9.709c0,0,0.193,2.063,0.481,5.159
							c0.145,1.549,0.313,3.355,0.494,5.292c0.142,1.94,0.292,4.011,0.443,6.08c0.299,4.146,0.597,8.291,0.821,11.4
							c0.129,1.555,0.149,2.855,0.204,3.765c0.042,0.909,0.066,1.43,0.066,1.43c0.023,3.553,0.008,6.618-0.031,9.382
							c-0.042,2.765-0.081,5.229-0.262,7.583c-0.325,4.703-0.619,8.967-0.987,14.299c0,0,0.094,0.739,0.188,1.479
							c0.071,0.739,0.142,1.479,0.142,1.479c-0.474,6.184-0.963,12.19-1.339,15.651c-0.167,1.731-0.41,2.82-0.521,2.983
							c-0.139,0.162-0.125-0.602-0.137-2.595c0.196-0.43,0.276-2.064,0.495-4.744c-0.041-0.36-0.042-0.982-0.024-1.766
							c-0.017-0.26-0.027-0.404-0.041-0.619c-0.215,3.309-0.353,6.31-0.575,8.955c-0.261,2.644-0.487,4.937-0.676,6.841
							c-0.372,3.811-0.592,6.063-0.629,6.443c1.785-22.478-0.762-1.214-1.209-5.064c0,0-0.139,1.411-0.348,3.528
							c-0.104,1.06-0.227,2.295-0.357,3.618c-0.065,0.662-0.133,1.346-0.202,2.041c-0.097,0.691-0.195,1.395-0.293,2.097
							c-0.796,5.624-1.592,11.248-1.592,11.248c2.374-13.572,0.46-0.186-0.172,4.676c-0.187,0.409-0.688,2.418-1.248,5.229
							c-0.276,1.405-0.591,3.008-0.924,4.704c-0.125,0.668-0.254,1.354-0.385,2.049c-0.068,0.391-0.137,0.787-0.207,1.183
							c-0.075,0.432-0.15,0.862-0.224,1.285c-0.007,0.203-0.147,0.429-0.014,0.608c0.146,0.156,0.356,0.225,0.547,0.293
							c0.789,0.234,1.533,0.313,2.142,0.407l-0.306,0.063c0.424,0.078,0.81,0.14,1.393,0.209c0.449,0.045,0.913,0.092,1.388,0.139
							c0.548,0.046,1.11,0.092,1.684,0.14c2.304,0.175,4.833,0.306,7.426,0.4c5.188,0.189,10.637,0.236,15.169,0.219
							c-0.412-0.152,11.226-0.879,16.822-1.398c-15.574-0.173-6.329-0.382-7.579-0.678c1.609,0.031,4.507,0.034,4.844-0.029
							c2.229-0.142-3.025-0.181-3.463-0.346c-8.267,0.108-16.638,0.097-23.724-0.005c-3.542-0.05-6.761-0.125-9.472-0.206
							c-0.674-0.021-1.319-0.042-1.934-0.062c-0.152-0.005-0.303-0.011-0.451-0.016c-0.141-0.004-0.332-0.012-0.346-0.006
							c-0.109,0.007-0.215,0.013-0.319,0.02c-0.323,0.049-0.607,0.093-0.847,0.129c0.148,0.062,0.307,0.105,0.468,0.138
							c0.166,0.032,0.298,0.049,0.547,0.066c0.458,0.027,0.91,0.055,1.359,0.082c0.539,0.02,1.075,0.039,1.616,0.059
							c2.172,0.063,4.446,0.078,7.245,0.29c-1.573,0.029-3.229,0.024-4.967-0.021c-0.865-0.032-1.752-0.066-2.664-0.101
							c-0.835-0.052-1.692-0.104-2.572-0.159c-0.172-0.012-0.346-0.023-0.523-0.035c-0.153-0.015-0.308-0.029-0.465-0.044
							c-0.314-0.034-0.638-0.079-0.964-0.152c-0.163-0.038-0.327-0.079-0.484-0.148c-0.158-0.054-0.323-0.205-0.232-0.389
							c0.07-0.343,0.142-0.693,0.215-1.053c0.393-1.923,0.81-3.967,1.25-6.121l1.312-4.431c0,0,0.04-0.217,0.11-0.596
							c0.072-0.379,0.176-0.921,0.257-1.577c0.181-1.31,0.423-3.056,0.665-4.802c0.482-3.49,0.965-6.981,0.965-6.981
							c-0.341,2.923-0.271,3.526-0.388,5.229c-0.058,0.852-0.163,1.978-0.39,3.808c-0.121,0.913-0.266,2.004-0.441,3.324
							c-0.22,1.314-0.531,2.85-0.881,4.67c0.938-1.759,2.366-14.502,3.847-23.444l-0.027-4.669
							c0.104,1.813,2.307-17.448,1.194-3.714c0,0-0.127,1.396-0.319,3.49c-0.096,1.048-0.208,2.27-0.327,3.579
							c-0.063,0.654-0.127,1.33-0.192,2.018c-0.092,0.685-0.185,1.381-0.278,2.076c-0.747,5.568-1.493,11.137-1.493,11.137
							l1.321-6.119c0,0-0.7,4.703-1.4,9.406c-0.301,2.359-0.846,4.683-1.165,6.438c-0.343,1.752-0.572,2.92-0.572,2.92l0.611-4.457
							c-0.523,2.716-0.966,5.012-1.342,6.961c-0.092,0.458-0.176,0.875-0.252,1.256c-0.013,0.049-0.027,0.093-0.043,0.136
							c-0.039,0.112-0.088,0.214-0.145,0.314c-0.063,0.114-0.002,0.163-0.006,0.223c0.021,0.115,0.018,0.226,0.105,0.329
							c0.044,0.051,0.114,0.1,0.227,0.142c0.056,0.021,0.123,0.04,0.203,0.058c0.071,0.011,0.147,0.021,0.228,0.033
							c0.234,0.021,0.482,0.045,0.746,0.07c2.595,0.228,6.5,0.427,12.587,0.477c9.326-0.395,19.388-0.375,37.853-0.338
							c-13.357,0.223-1.371,0.475-6.395,0.883c6.814,0.106,11.365-0.007,15.164-0.147c3.76-0.16,6.7-0.286,10.257-0.438
							c3.477,0.357,5.95,0.648-6.25,0.565c-1.532,0.726,16.05-0.084,17.159,0.67c40.418,0.084,32.397-2.341,79.64-1.278
							l-1.772,0.299c30.003-0.299,47.311,0.108,75.094-0.057l21.873,0.827c-4.892,0.105-18.047,0.646-11.91,1.034
							c-10.638-0.807-21.931-0.564-33.394-1.012c-1.171,0.198,3.497,0.357,5.529,0.487c-6.918-0.024-10.389-0.384-19.527-0.272
							c0.441,0.162,10.409,0.382,2.895,0.457l-12.429-0.513c-16.632,0.185-8.195,1.127-27.729,0.855
							c3.634-0.419,11.054-1.019,18.618-1.101c-8.926-0.116,11.901-0.228,3.755-0.505c-12.861,0.6-19.068,0.082-36.167,0.435
							c2.008-0.084,2.539-0.207,6.747-0.234l-24.808-0.333c6.137,0.387-20.495,0.354-18.189,0.91
							c26.439,0.298,18.672-0.056,48.8,0.336c-8.531,0.103-19.531,0.635-24.687,1.137c-0.262-0.022-0.697-0.041-1.624-0.054
							c-4.606,0.533,0.087,0.692-0.007,1.645c13.757-0.641,22.95-0.06,39.174-0.407c3.052-0.514-9.41-0.689-17.474-0.576
							l14.292-0.309l-2.814,0.233l36.275,0.27c-6.874,0.011-9.209,0.307-12.797,0.525c4.681,0.033,9.316,0.183,14.246,0.347
							c-1.034-0.501-0.38-0.851,4.185-0.828c23.339,0.179,36.312,0.66,44.924,1.252c0.895-0.01,1.905-0.02,2.717-0.028
							c-3.912-0.521,16.577-0.874,23.811-1.376c-0.359,0.526,12.027,0.348,18.753,0.635c3.582-0.596-1.192-1.444-9.382-1.961
							c-15.782,0.513-8.845,0.535-16.302,1.302l-25.317,0.457l5.66-0.469c-12.634-0.246-24.773,0.36-23.844-0.266
							c6.677-0.401,17.7-0.118,24.326-0.521l-8.356-0.252c14.747-0.578,7.556,0.614,25.41,0.23
							c-6.565-0.551,1.618-0.033,9.267-0.372c-6.138-0.388-31.435,0.07-26.067-0.824c9.286-0.372,31.233,1.146,43.519,0.276
							l-0.602,0.102c18.121,0.164,24.491-0.337,31.276-0.646c7.711,0.314,18.358-0.072,26.715-0.083l-0.205,0.264l11.791-0.079
							c-5.615,0.467-13.818-0.049-23.946-0.006l1.259,0.494c-11.675-0.613-19.465,0.251-28.52,0.65
							c13.179-0.39,37.214,0.218,40.311-0.732l8.152,0.517l3.901-0.169c6.074,0.388-0.13,0.955-11.908,1.035
							c-2.046-0.13-3.069-0.193-2.449-0.295c-5.467,0.205-10.488,0.573-23.717,0.426l7.06-0.241
							c-16.472-0.079-31.448,0.071-37.089,0.539c23.78,0.267,47.165,0.372,69.494,0.408c6.588-1.092,14.403-1.693,17.761-2.716
							c14.982-0.15,35.322-0.238,48.334,0.173l-1.196,0.199c6.35,0.123,12.2,0.082,17.079-0.022
							c6.708,0.288-4.591,0.533,0.083,0.692l21.459-0.29c-1.324,0.464-19.381,0.418-27.956,0.429
							c1.618-0.035,4.885-0.104,3.837-0.17c-9.975-0.218-28.558,0.528-32.918-0.158c-4.859,0.104,9.874-0.473-6.579-0.551
							c-11.017-0.283-14.605,0.313-15.756,0.513c-0.179,0.264,17.29,0.407,11.228,0.71c8.575-0.011,11.99-0.343,22.956-0.059
							c-8.498,0.01-20.041,0.516-24.567,0.093c-16.805,0.448-14.396,1.695-6.474,1.784c-1.886-0.394,30.655-0.398,8.621-0.963
							c9.899-0.474,27.982-0.43,40.931-0.708l-0.588,0.099l16.076-0.083c-2.264,0.133-7.124,0.238-7.284,0.501l22.265-0.649
							c-12.533,0.442,7.769,0.35,13.473,0.575c2.386-0.398,11.082-0.671,2.737-0.925c-9.38-0.318-5.461,0.204-13.991,0.214
							l12.079-0.606l1.036,0.065l7.271-0.504c16.452,0.039-7.188,1.235,13.895,0.693l-2.743-0.706
							c24.407,0.06,55.752,0.801,72.997,0.441c-4.758,0.413-6.854,1.067-0.313,1.44c-7.438-0.108-22.381-0.055-33.047,0.031
							c-2.052-0.121,13.326-0.865,24.912-0.733c-5.614-1.154-29.145,0.757-30.507-0.42c-29.522-0.368-22.022,1.201-47.081,0.507
							c-0.346,0.525-7.123,0.238-8.44,0.7c7.417,0.918,33.499-0.026,49.761,0.241c-1.593,0.041-4.796,0.126-5.423,0.227
							c11.625,0.133,16.427,0.007,24.548-0.204l-1.023-0.061c14.189-0.541,8.78,0.378,17.131,0.594
							c3.235-0.084,14.848,0.046,12.98-0.337l15.123,0.473l-0.729-0.587c8.53-0.051,10.397,0.335,18.129-0.038l0.357-0.527
							l-21.185-0.144c10.735-0.192,2.992-0.51,14.789-0.642c-13.178,0.601,9.323,0.274,10.622,0.761l8.677-0.313l-2.219,0.145
							c6.811,0.258,8.107-0.211,16.056-0.157c-9.374-0.276-15.513-0.635-27.457-0.238c8.696-0.313,25.941-0.672,30.174-0.697
							c9.131-0.238,15.507,0.151,24.049,0.195c-16.395,0.241,5.745,1.586-27.11,1.269c0.607-0.103,3.268-0.084,4.297-0.024
							c-4.381-0.665-19.694,0.079-26.817,0.35c1.836,0.384-5.613,0.493,7.016,0.685c-4.144-0.24,10.64-0.884,22.654-0.588
							l-2.115,0.833l17.495,0.064l-1.637,0.043c6.58,0.521,18.665-0.139,30.713,0.153c8.696-0.312,42.063-0.139,27.705-0.979
							c10.814,0.498,20.303-0.181,32.1-0.313l-14.708-0.312c17.385-0.626,12.379-0.233,26.291-1.202
							c1.407,0.224,4.509,0.404,1.684,0.647c23.358,0.001,56.719,0.174,70.419-0.53c16.466,0.005,19.053,0.977,42.153,0.551
							c4.866-0.126-3.794-0.768,11.502-0.559c1.029,0.061-14.724,0.643,2.311,0.545c12.127-0.66,28.494,0.3,44.273-0.283
							c4.155,0.091,9.821,0.066,14.084,0.102c2.112,0.009,3.875,0.016,4.925,0.02c1.044,0.027,1.38,0.104,0.645,0.258
							c-13.021,0.244-31.76,0.258-34.594,0.529c1.821-0.308-9.388-0.277,0.337-0.529c-19.952-0.345-12.947,0.336-30.846,0.108
							c-1.233,0.205,9.203,0.542,13.039,0.354c0.086,0.688-35.289,0.398-19.377,1.195c19.126,0.024,24.799-1.424,41.376-0.729
							c-6.643,0.432-17.034,0.096-25.473,0.835l13.621,0.252l9.884-0.517l-0.588,0.104c6.015,0.146,10.413,0.173,13.963,0.123
							c3.54-0.074,6.233-0.218,8.847-0.392c5.241-0.301,10.122-0.871,20.628-1.524c-12.218,0.055,2.755-1.276-6.433-1.21
							c2.028-0.098,4.01-0.151,5.834-0.263c0.755-0.064,1.489-0.128,2.201-0.189c0.258-0.031,0.507-0.062,0.747-0.09
							c0.465-0.089,0.975-0.112,1.275-0.419c0.109-0.381,0.051-0.754,0.1-1.073c0.018-0.249,0.041-0.477,0.069-0.683
							c0.009-0.052,0.016-0.103,0.023-0.15c0.006-0.139,0.011-0.271,0.017-0.398c0.015-0.284,0.028-0.544,0.04-0.776
							c0.063-0.93,0.164-1.433,0.309-1.456c0.032,0.584,0.064,1.144,0.094,1.674c0.016,0.265,0.03,0.521,0.045,0.77l0.017,0.229
							l0.014,0.133c0.04,0.354,0.074,0.652,0.099,0.874c0.049,0.455,0.09,0.852,0.127,1.195c0.096,0.387-0.212,0.599-0.401,0.704
							c-0.419,0.232-0.725,0.316-0.912,0.41c-0.386,0.161-0.334,0.243-0.34,0.337c-0.013,0.09-0.075,0.215-0.874,0.418
							c-0.193,0.082-1.522,0.274-3.108,0.448c-1.658,0.116-3.812,0.268-6.613,0.464c2.019,0.048,0.571,0.354,0.444,0.59
							c-0.063,0.118,0.205,0.218,1.407,0.259c0.601,0.021,1.435,0.026,2.578,0.013c1.143-0.014,2.604-0.027,4.395-0.192
							c0.556-0.069,0.857-0.107,1.152-0.157c0.296-0.051,0.569-0.098,0.82-0.141c0.498-0.093,0.899-0.187,1.223-0.27
							c0.644-0.18,0.977-0.319,1.119-0.417c0.282-0.19-0.149-0.1-0.565-0.059c-0.419,0.049-0.819,0.069-0.512-0.041
							c0.15-0.062,0.484-0.137,1.036-0.378c0.241-0.129,0.679-0.296,0.716-0.78c-0.027-0.452-0.059-0.981-0.096-1.6
							c0.011-0.121,0.022-0.243,0.029-0.32c0.033-0.447,0.077-0.76,0.166-0.469c-0.031-0.294-0.061-0.572-0.089-0.838
							c-0.013-0.144-0.025-0.284-0.037-0.421c-0.014-0.21-0.027-0.415-0.04-0.616c-0.043-0.803-0.082-1.532-0.118-2.218
							c-0.024-0.686-0.048-1.326-0.069-1.951c0.02-0.622,0.038-1.228,0.058-1.847c0.1-2.473,0.135-5.157,0.116-9.863
							c0,0-0.009,0.554,0.009,1.113c0.021,0.56,0.043,1.119,0.043,1.119c0.465-5.772,0.619-8.911,0.668-11.876
							c0.121-2.939,0.242-5.678,0.874-10.582c-0.85,3.883,0.161-6.623,0.269-12.681c-0.432,4.931-1.03,8.729-1.632,13.753
							c-0.31,2.523-0.638,5.353-0.986,8.784c-0.159,1.725-0.292,3.616-0.441,5.689c-0.124,2.082-0.348,4.326-0.395,6.847
							c0.348,2.445,0.604,0.988,0.612,9.233c0,0,0.063-3.262,0.125-6.523c0.039-1.629,0.047-3.267,0.105-4.481
							c0.071-1.212,0.119-2.02,0.119-2.02c-0.15,2.783-0.024,4.947-0.021,7.522c0,0-0.031,0.782-0.078,1.956
							c-0.034,1.175-0.138,2.735-0.143,4.308c0.03,1.577,0.06,3.154,0.082,4.337c0.003,0.609,0.005,1.017,0.005,1.017
							c-0.044-0.65-0.084-1.24-0.121-1.777c-0.051-0.827-0.097-1.571-0.139-2.243c-0.047-0.673-0.088-1.271-0.125-1.808
							c-0.013-0.532-0.024-1.001-0.034-1.415c-0.05-1.659-0.126-2.451-0.213-2.959c-0.173-1.015-0.39-0.883-0.521-4.282
							c0.901-14.491,0.561-11.96,1.402-20.942c0.241,0.464,1.12-6.378,2.001-15.298c0.944-8.923,1.334-19.888,1.058-27.883
							c0.081,2.486,0.187,5.695,0.243,7.428c0.05,0.727,0.091,1.332,0.125,1.827c0.015,0.498,0.025,0.886,0.034,1.177
							c0.025,0.579,0.058,0.767,0.093,0.66c0.046-0.21,0.225-1.609,0.168-3.363c-0.032-3.517-0.139-8.554-0.065-8.776
							c0,0-0.138-2.24-0.276-4.48c-0.068-1.127-0.136-2.254-0.187-3.1c-0.033-0.427-0.021-0.765-0.025-1.008
							c-0.002-0.241-0.003-0.379-0.003-0.379c-0.022,0.821,0.058,1.838,0.118,2.156c0.079,0.326,0.061-0.075,0.141-1.958
							c0.056-2.976,0.062-5.187,0.039-6.964c-0.023-1.753-0.071-3.12-0.12-4.486c-0.022-0.683-0.046-1.365-0.069-2.095
							c-0.055-0.711-0.113-1.467-0.178-2.316c-0.052-0.847-0.108-1.786-0.175-2.864c-0.057-1.112-0.12-2.366-0.194-3.813
							c0.338-0.776,1.093,8.783,1.071,1.712c0.086-1.289,0.227-3.984,0.226-8.317c0.104-4.307,0.165-10.245-0.087-18.001
							c-0.16-1.103-0.409-5.057-0.677-9.711c0.054,0.658,0.103,1.467,0.138,1.752l-0.166-10.415
							c0.994,8.907,0.718,17.757,1.271,26.636l0.54,0.751c0.035,1.731,0.074,3.618,0.113,5.542c0.028,0.961,0.057,1.932,0.085,2.897
							c0.063,0.968,0.126,1.931,0.188,2.874c0.285,3.738,0.545,7.153,0.709,9.309c-0.027-1.306-0.052-2.482-0.075-3.565
							c-0.047-1.096-0.09-2.097-0.13-3.037c-0.095-1.881-0.178-3.521-0.263-5.198c-0.087-3.347-0.178-6.85-0.331-12.745
							c0.313-1.656,0.67,6.638,0.722,7.837l-0.325-1.755c-0.233,7.02,0.34,12.347,0.625,17.969c0.081,1.411,0.164,2.85,0.251,4.348
							c-0.005,1.507-0.01,3.075-0.016,4.738c-0.023,1.666-0.048,3.429-0.074,5.32c-0.021,0.947-0.045,1.927-0.068,2.942
							c-0.014,0.508-0.027,1.025-0.041,1.553c0.012,0.528,0.024,1.065,0.038,1.614c0.051,2.647-0.032,1.034-0.149,0.444
							c0.217,3.561,0.381,7.075,0.533,10.572c0.064,1.751,0.128,3.499,0.191,5.243c-0.044,1.745-0.088,3.487-0.132,5.226
							c-0.044,1.739-0.088,3.475-0.132,5.207c-0.096,1.731-0.19,3.46-0.286,5.187c-0.149,3.456-0.299,6.901-0.448,10.344l0.09-4.496
							c-0.261,4.681-0.647,11.598-1.096,19.63c-0.188,4.017-0.332,8.313-0.449,12.741c0.011,2.214,0.021,4.462,0.032,6.728
							c0.009,1.131,0.017,2.266,0.025,3.403l0.218,3.407l0.211,0.14c0.017-0.643,0.053-0.39,0.095,0.37
							c0.033,0.865,0.089,2.308,0.149,3.89c-0.029,0.887-0.062,1.818-0.092,2.715c-0.028,0.452,0.021,0.885-0.174,1.262
							c-0.19,0.383-0.541,0.635-0.855,0.82l0.016-0.014c-1.061,0.674-2.291,1.012-3.55,1.305c-1.26,0.286-2.568,0.471-3.864,0.634
							c-2.313,0.311-4.468,0.424-6.616,0.558c-2.138,0.135-4.215,0.267-6.21,0.393c-1.996,0.127-3.916,0.259-5.719,0.296
							c2.307,0.145,5.297,0.078,8.71-0.004c0.721-0.088,2.321-0.181,4.279-0.279c0.981-0.057,2.045-0.081,3.145-0.168
							c1.133-0.098,2.12-0.178,3.54-0.361c1.321-0.155,2.567-0.386,3.646-0.65c1.067-0.286,1.95-0.63,2.589-0.998
							c0.643-0.36,1.03-0.778,1.154-1.045c0.115-0.271,0.074-0.312-0.159-0.073c0.454-0.55,0.311-1.27,0.401-1.997
							c0.042-0.732,0.086-1.494,0.131-2.281c-0.033-1.129-0.067-2.298-0.104-3.491c-0.038-0.988-0.077-1.996-0.116-3.011
							l-0.066-1.525l0.017-1.529c0.013-1.017,0.025-2.026,0.037-3.016c0.03-1.978,0.059-3.871,0.084-5.57
							c0.064-1.7,0.201-3.207,0.313-4.406c-0.981,10.323-0.114-7.23-0.209-9.076c0.633-3.45,1.24-15.363,1.595-13.971
							c0.29-2.042-0.73,5.08-0.813,9.502c-0.463,10.899,2.021-19.855,1.317-6.287c0.593-8.616,1.257-18.663,1.294-28.829
							c-0.042-2.542-0.194-5.094-0.29-7.624c-0.102-2.494-0.201-4.972-0.301-7.413c-0.047-1.205-0.095-2.4-0.142-3.584
							c0.017-1.198,0.033-2.385,0.05-3.558c0.02-2.359,0.039-4.662,0.058-6.888l-0.473,9.943c0.063-1.971,0.147-4.614,0.239-7.493
							c0.042-1.453,0.087-2.965,0.131-4.48c0.015-0.759,0.061-1.515,0.05-2.272c-0.02-0.76-0.039-1.514-0.059-2.255
							c-0.117-5.979-0.378-10.877-0.277-11.601c0.145,2.935,0.34,6.021,0.43,9.507c0.041,1.721,0.152,3.507,0.141,5.317
							c-0.033,1.805-0.067,3.657-0.103,5.55c0.129,0.096,0.226-0.993,0.304-2.695c0.03-0.852,0.065-1.855,0.104-2.94
							c0.035-1.084-0.048-2.275-0.073-3.463c-0.128-4.82-0.43-9.508-0.277-9.945c0,0-0.113-1.349-0.283-3.373
							c-0.108-2.042-0.253-4.765-0.397-7.486c-0.145-2.734-0.289-5.469-0.397-7.52c-0.055-1.026-0.1-1.881-0.131-2.479
							c-0.047-0.6-0.073-0.942-0.073-0.942s0.038,0.603,0.038,1.501c0.009,0.898,0.021,2.098,0.032,3.296
							c0.024,2.397,0.048,4.794,0.048,4.794c-0.1-1.509-0.166-3.894-0.212-6.854c-0.005-1.479-0.069-3.106-0.145-4.842
							c-0.065-1.736-0.134-3.578-0.206-5.489c-0.153-3.797-0.317-7.868-0.481-11.915c-0.141-4.046-0.4-8.062-0.373-11.767
							c0.106,1.06,0.191,2.203,0.26,3.423c0.106,1.218,0.209,2.512,0.297,3.876c0.179,2.728,0.32,5.735,0.459,8.964
							c0.134,3.24,0.276,6.702,0.427,10.33c0.079,1.826,0.161,3.693,0.244,5.596c0.047,1.894,0.094,3.821,0.142,5.777
							c0.422,11.354,0.605-7.021,0.918,3.725c0.101-2.789,0.103-9.803-0.318-13.31l-0.06-4.292c0.253,2.406,0.567,5.6,0.732,9.206
							c0.109,3.586,0.231,7.616,0.359,11.794c0.056,4.174,0.341,8.399,0.595,12.487c0.196,4.225,0.506,8.488,0.451,12.054
							c-0.034-1.271-0.077-2.38-0.143-2.782c-0.125,2.767-0.252,5.543-0.378,8.32c-0.104,2.724-0.256,5.474-0.12,8.109
							c0.038,1.331,0.075,2.659,0.112,3.984c0.057,1.392,0.114,2.78,0.171,4.164c0.063,1.39,0.127,2.774,0.19,4.153
							c0.052,1.378,0.175,2.757,0.129,4.113c0.119-1.435,0.046-2.669,0.038-3.748c-0.024-1.081-0.058-2.014-0.098-2.868
							c-0.103-1.707-0.186-3.105-0.284-4.757c0.073-0.211,0.223,2.264,0.391,5.284c0.085,1.511,0.177,3.156,0.262,4.669
							c0.015,1.505,0.028,2.878,0.038,3.853c0.258-5.064,0.17-5.562,0.298-5.565c0.086-0.009,0.179,0.453,0.117-2.785
							c0.094,1.664,0.191,3.253,0.243,4.821c-0.028,1.561-0.056,3.104-0.085,4.692c-0.043,1.588-0.087,3.222-0.134,4.963
							c-0.043,1.742-0.229,3.559-0.354,5.56c-0.507,4.128-0.126-3.446-0.503-2.616c-0.176,4.107-0.458,7.112-0.868,10.542
							c-0.406,3.424-0.832,7.357-1.133,13.289c0.719-7.878,0.811-6.843,0.691-3.12c-0.11,3.701-0.476,10.063-0.488,12.753
							l0.188-2.622c0.034,2.496-0.011,4.794-0.135,6.895c-0.057,1.051-0.154,2.055-0.234,3.004
							c-0.063,0.946-0.148,1.844-0.255,2.693c-0.063-3.178,0.211-6.346,0.282-8.468c0.092-2.126,0.091-3.227-0.159-2.328
							c-0.121,2.119-0.241,4.235-0.365,6.422c-0.141,2.189-0.078,4.423-0.1,6.813l-0.18-4.349l-0.163,8.407
							c-0.058,1.404,0.081,2.785,0.111,4.179c0.07,1.832,0.142,3.663,0.189,5.487l-0.298,2.794c-0.058,0.457-0.081,0.95-0.169,1.38
							c-0.103,0.401-0.375,0.844-0.713,1.172c-0.741,0.857-1.827,1.509-3.159,2.073c-1.333,0.555-2.926,0.969-4.569,1.279
							c-2.479,0.472-4.901,0.933-6.581,1.252c-5.221-0.123-12.498,0.481-17.336,0.563l2.266-0.163
							c-9.482-0.155-30.388,0.09-32.155,0.401c-6.723-0.258,47.5-2.013-0.007-1.645c-18.06,0.036-11.245,0.985-21.553,1.339
							c0,0,0.582-0.1-0.441-0.161c-7.904-0.056-8.696,0.313-15.193,0.48c4.739,0.138,11.607,0.131,13.82-0.012
							c-2.378,0.407-16.461-0.006-22.516,0.323c7.856-0.637-15.279-0.209-9.18-0.539c-15.72-0.371-32.524,0.152-40.779,0.626
							c-10.669-0.761-18.705,0.139-36.017-0.19c2.66,0.019,7.488-0.108,11.21-0.031c9.866-0.513-17.938-0.226-2.752-0.707
							c-3.248,0.084-0.229,0.264,3.103,0.18c5.825-0.066,11.312-0.295,9.847-0.518l-14.108-0.412l4.924-0.129l-21.412-0.566
							c-0.581,0.101,1.427,0.221,2.457,0.28c-24.832-0.22-53.225,0.171-74.98,0.13c-4.084,1.405-53.557,0.698-71.135,1.589
							c4.712-0.41,7.289-1.122,4.372-1.407c3.92-0.066,11.945-0.646,20.834-0.545c1.42,0.223,12.4,0.456,5.334,0.726
							c24.569-0.205-3.326-0.606,3.926-1.14c-27.223,0.186-43.19,1.034-60.373,1.395l-0.435-0.164l-12.976,0.337
							c10.603,0.073,10.079,0.866-3.587,0.614l1.662-0.042c-7.795-0.318-24.013,0.103-36.188,0.074l-8.256,0.473
							c-12.195-0.029-12.72-0.881-16.685-1.384c-19.114-0.04-30.152,0.732-43.729,1.086c-6.139-0.388-34.769-0.551-19.6-0.963
							c-17.241,0.282-13.764,2.284-43.333,1.103l7.674-0.339c-28.272,0.001-68.594,0.608-81.62,0.197
							c10.433-1.262-35.311-1.404-40.333-2.682c1.4,0.292-9.222,0.36-10.771,0.511c-2.327-0.154-6.202-0.308-10.314-0.059
							c11.024,0.283-7.754,1.292,13.325,0.837c-10.668,0.839-24.413,1.479-47.781,1.375l0.354-0.526l18.487,0.209
							c-1.866-0.395,7.649-0.34,11.551-0.509c-34.391-0.387,4.505-1.223-30.654-1.246c-3.397,0.333-1.197,0.197-10.335,0.309
							c4.297-0.006,5.072-0.367-1.853-0.393l-6.652,0.403c-12.275-0.911,20.325-0.519,9.852-1.164
							c13.577-0.378,37.091-0.537,32.713-1.222c-22.17-0.303-19.949,1.208-43.129,0.841l-2.468-0.293
							c-8.154,0.174-9.473,0.635-13.937,0.903c-0.402-0.164-2.474-0.292-7.711-0.353c-13.77,0.642-22.909,0.75-35.612,1.456
							c33.805-0.466,28.897,0.591,63.789,0.188c-5.468,0.204-30.032,0.3-31.543,1.024l0.328-0.527
							c-11.346,0.244-22.685,0.486-36.932,0.274l8.698-0.273c-18.886,0.317-31.39-0.884-46.293-0.045
							c5.263,0.061,9.535,0.057,12.784-0.015c-9.721,0.209-21.917,0.124-32.48,0.007l-21.862,0.813
							c0.193-0.261-13.659-0.313-6.974-0.713c-7.868-0.222-13.657-0.141-18.617,0.009c-2.479,0.088-4.751,0.168-6.972,0.247
							c-2.168,0.077-4.335,0.167-6.604,0.213c-8.061-0.228-4.565-0.313,1.13-0.434c5.636-0.125,13.563-0.168,14.355-0.542
							c-2.775-0.031-5.571-0.062-8.364-0.093c-2.751-0.029-5.534-0.015-8.296-0.002c-5.533,0.044-10.956,0.087-16.076,0.128
							c-10.283,0.072-19.349,0.136-25.653,0.18c4.571,0.246,6.782,0.361,6.548,0.489c-0.673-0.17-9.686-0.321-14.788-0.651
							l-3.544,0.104c-0.55-0.063-1.06-0.119-1.533-0.173c-0.694-0.086-1.287-0.146-1.903-0.236c-1.21-0.163-2.172-0.332-2.907-0.481
							c-1.47-0.304-2.021-0.538-1.895-0.553c0.135-0.027,0.978,0.129,2.507,0.309c0.766,0.088,1.699,0.179,2.786,0.267
							c0.506,0.035,1.048,0.072,1.626,0.111c0.409,0.02,0.842,0.039,1.3,0.061c-0.66-0.06-1.329-0.119-2.005-0.18
							c-0.848-0.077-1.805-0.18-2.733-0.295c-1.861-0.235-3.758-0.555-5.418-1.161c-0.822-0.311-1.594-0.669-2.272-1.132
							c-0.337-0.235-0.664-0.484-0.965-0.789c-0.295-0.288-0.626-0.694-0.657-1.073c-0.093-1.68-0.187-3.368-0.28-5.053
							c0.279-1.439,0.559-2.876,0.836-4.307c0.219-1.076,0.437-2.146,0.653-3.209c0.371-1.738,0.769-3.441,1.205-5.081
							c-0.295,1.665-0.601,3.387-0.913,5.139c-0.467,2.429-0.943,4.9-1.419,7.375l0.089,2.666l0.042,1.33l0.02,0.664
							c0.013,0.219-0.012,0.454,0.082,0.636c0.183,0.425,0.541,0.767,0.858,1.044c0.327,0.29,0.681,0.531,1.05,0.759
							c0.741,0.447,1.573,0.806,2.456,1.105c1.799,0.569,3.796,0.865,5.733,1.098c0.492,0.06,0.968,0.113,1.416,0.153
							c0.409,0.039,0.815,0.078,1.219,0.116c0.635,0.051,1.26,0.102,1.874,0.151c4.885,0.352,8.988,0.468,11.66,0.456
							c-3.246-0.059-6.134-0.165-8.765-0.316c-1.316-0.078-2.567-0.164-3.769-0.269c-0.663-0.063-1.31-0.125-1.942-0.186
							c-0.792-0.077-1.635-0.185-2.445-0.288c-3.243-0.437-6.066-1.163-7.911-2.594c-0.456-0.358-0.938-0.767-1.211-1.346
							c-0.119-0.25-0.044-0.581-0.065-0.87l0.003-0.892c0.01-1.178,0.02-2.345,0.03-3.516c0.611-2.706,1.227-5.433,1.893-8.38
							c0.512-2.292,1.062-4.757,1.686-7.55c0.493-2.82,0.993-5.984,1.561-9.642c0.276-1.83,0.571-3.784,0.887-5.881
							c0.146-1.051,0.335-2.131,0.456-3.261c0.113-1.13,0.23-2.3,0.352-3.51c0.211-0.417-0.14,5.623,0.624-1.202
							c1.636-15.829-0.242-4.207-0.071-9.182c-0.572,6.085-1.064,10.539-1.569,14.341c-0.665,3.777-1.311,6.91-2.064,10.374
							l0.221-3.258c0.192-0.47,1.471-8.021,1.749-10.267l-0.344-2.03c0.261,0.49,0.849-2.296,1.477-6.414
							c0.308-2.06,0.653-4.447,0.921-6.928c0.203-2.487,0.375-5.062,0.492-7.475c-1.162,9.696-0.926,7.069-1.922,9.636
							c0.127-1.686,0.169-3.197,0.237-4.57c0.07-1.372,0.154-2.607,0.247-3.757c0.187-2.297,0.411-4.248,0.637-6.251
							c0.208-2.005,0.497-4.055,0.612-6.566c0.111-2.512,0.174-5.475,0.142-9.28c0.157,1.145-0.203,14.429,0.393,2.963
							c0.197-4.748,0.161-6.811,0.087-8.479c-0.057-1.669-0.203-2.95-0.261-6.14c0.115,1.797,0.227,3.031,0.338,3.993
							c0.085,0.96,0.173,1.648,0.267,2.355c0.186,1.415,0.38,2.906,0.54,6.813c-0.147,4.226-0.236,6.766-0.295,8.455
							c-0.077,1.688-0.163,2.524-0.205,3.352c-0.096,1.654-0.189,3.262-0.666,11.51l1.457-13.926
							c-0.956,14.303-0.161,10.444-0.047,11.638c0.554-6.105,0.953-10.311,1.028-13.441c0.073-3.132,0.04-5.173-0.016-6.94
							c-0.056-1.768-0.135-3.262-0.153-5.298c-0.017-2.037,0.054-4.613,0.087-8.56c-0.146-3.807-0.197-0.111-0.246,3.046
							c-0.007,1.579-0.121,3.02-0.149,3.325c-0.061,0.305-0.027-0.525-0.081-3.499c0.102-7.374,0.024-8.216-0.089-9.282
							c-0.057-0.533-0.123-1.123-0.18-2.613c-0.084-1.491-0.039-3.878-0.201-8.018l0.287,2.771c0.226-5.065-0.24-10.067-0.39-15.921
							c-0.317-6.432-1.517,7.329-2.53-19.113c0.194,1.288,0.305,1.761,0.365,1.758c0,0,1.34,6.418,2.68,12.836
							c0.704,3.217,1.234,6.438,1.708,8.859c0.452,2.423,0.753,4.037,0.753,4.037c-0.374-26.932-2.27-57.948-4.452-89.12
							c0.309-7.405,2.394,22.184,2.622,20.25l0.797,14.231c-0.218-0.386-0.71-7.834-1.198-13.569
							c-0.49-5.736-0.888-9.764-0.731-3.324c0.551,6.268,0.909,11.686,1.253,16.655c0.168,2.485,0.328,4.857,0.484,7.169
							c0.131,2.313,0.259,4.564,0.386,6.806c0.27,4.482,0.537,8.924,0.826,13.734c0.251,4.812,0.562,9.99,0.973,15.948
							c0.27-3.717,0.003-11.578-0.487-20.44c-0.259-4.431-0.532-9.114-0.798-13.659c-0.246-4.546-0.51-8.952-0.592-12.839
							c0.38,6.512,0.852,11.999,1.237,17.333c-0.685-14.575-1.719-30.155-2.853-46.712l-0.497-3.701
							c0.784,11.157,1.248,18.883,1.302,19.879c-1.005-14.797-2.488-27.228-3.182-28.161l0.182,2.628l-0.611-5.327
							C9.899,100.791,9.673,97.318,9.448,93.865z M899.369,7.355c-0.901,0.062-1.611,0.133-2.136,0.222
							C897.777,7.484,897.17,7.426,899.369,7.355z M65.078,325.95c-9.885,0.013-19.81-0.033-29.621-0.271
							c-4.904-0.124-9.783-0.29-14.594-0.583c-1.2-0.085-2.397-0.169-3.592-0.254l-1.78-0.154l-1.486-0.156
							c-0.968-0.112-1.93-0.241-2.879-0.417c-0.931-0.204-1.923-0.347-2.708-0.91c0.663,0.545,1.518,0.721,2.321,0.941
							c0.818,0.2,1.649,0.354,2.483,0.494c0.847,0.142,1.635,0.255,2.584,0.375c0.979,0.111,1.942,0.222,2.886,0.329
							c3.79,0.393,7.309,0.661,10.393,0.886c6.171,0.442,10.61,0.709,12.188,0.923c1.578,0.206,0.297,0.363-4.96,0.386
							c-2.629,0.006-6.252-0.021-11.009-0.178c-2.378-0.083-5.041-0.196-8.004-0.408c-0.746-0.061-1.511-0.122-2.295-0.187
							c-0.817-0.075-1.673-0.16-2.537-0.27c-1.729-0.226-3.543-0.486-5.271-1.134c0,0-0.23-0.085-0.559-0.247
							c-0.165-0.082-0.349-0.193-0.523-0.346c-0.178-0.153-0.297-0.392-0.257-0.63c0.132-0.952,0.265-1.905,0.265-1.905
							c-0.083,0.485-0.171,0.993-0.262,1.521c-0.029,0.262-0.145,0.541-0.027,0.8c0.12,0.254,0.359,0.435,0.598,0.578
							c0.982,0.567,2.168,0.867,3.452,1.139c1.287,0.263,2.682,0.45,4.135,0.607c1.489,0.159,2.792,0.266,4.237,0.369
							c5.691,0.396,11.96,0.551,18.036,0.611c4.921-0.124,15.305-0.578,24.407-1.109c4.552-0.275,8.786-0.532,11.861-0.719
							c1.54-0.101,2.79-0.183,3.645-0.238c0.856-0.06,1.319-0.097,1.274-0.116c-3.503-0.359-8.565,0.074-14.889,0L65.078,325.95z
							 M79.143,327.979c11.209,0.168,8.659-0.114,10.399-0.357c-3.946,0.021-7.885,0.042-11.779,0.063
							C79.252,327.75,79.987,327.84,79.143,327.979z M88.872,327.371c-1.26-0.009-2.334-0.023-2.897-0.059L88.872,327.371z
							 M16.69,189.765c0.025,0.498,0.034,0.677,0.059,1.149c-0.081-2.646-0.162-5.3-0.246-8.067
							C16.503,183.922,16.549,185.969,16.69,189.765z M16.59,212.517c0,0,0.125,0.664,0.249,1.328
							c0.127,0.664,0.225,1.329,0.225,1.329c0.024-2.469-0.035-4.987-0.049-7.564C16.824,208.463,16.659,209.354,16.59,212.517z
							 M11.118,285.225c-0.002,0.578-0.004,1.326-0.074,2.187c-0.088,0.858-0.188,1.834-0.296,2.88
							c-0.247,2.09-0.527,4.457-0.794,6.712c-0.554,4.507-0.974,8.582-0.795,9.094c-0.029,0.494,0.174-0.043,0.391-1.165
							c0.215-1.123,0.506-2.818,0.809-4.613c0.636-4.013,1.315-8.296,2.035-12.838c-0.055-0.168-0.052-1.089,0.04-2.615
							c-0.256,2.256-0.635,4.113-0.896,5.183c-0.264,1.069-0.443,1.344-0.495,0.41c0.317-1.427,0.607-2.654,0.777-3.749
							c0.164-1.095,0.283-2.046,0.372-2.903c0.177-1.714,0.231-3.053,0.269-4.422c0.052-2.741,0.137-5.591,0.837-11.846
							c-0.077-2.019-0.391,1.471-0.972,5.91C11.798,277.894,11.241,283.317,11.118,285.225z M938.035,327.861
							c0.358,0.055,1.593,0.193,3.326,0.365l-8.9,0.328c-15.879-0.107-28.601-0.988-42.891-0.184
							c-6.689-0.184-10.271-0.59-13.693-0.923c3.273,0.034,6.337,0.066,8.889,0.094C924.83,326.329,905.661,328.703,938.035,327.861
							z M755.477,327.092c1.637-0.042,2.226-0.146,2.226-0.146c-35.476,1.221-64.687,1.609-83.813,1.601
							c3.709,0.45,20.867,0.772,29.014,0.947l-7.219,0.535l-4.509-0.401l-12.533,0.497c3.505,0.345,13.628,0.253,20.394,0.51
							c0.589-0.101,22.253-0.75,28.309-1.082l-17.312-0.328c4.675,0.137,27.639-0.026,36.744-0.177
							c0.045-0.065-0.902-0.138-2.38-0.201c-1.477-0.063-3.483-0.116-5.558-0.144c-4.147-0.055-8.564-0.005-9.552,0.28
							c-1.868-0.384,16.223-0.422,4.781-0.816c13.556-0.439,35.126-0.134,45.134,0.04l1.696,0.649
							c10.98,0.232,7.416-0.8,20.462-0.447c-16.037,0.157,2.714,0.71-10.044,0.782c4.074,0.239,0.085,0.689,12.868,0.617
							c10.639-0.883,13.475,0.516,23.532-0.265c6.722,0.257-7.231,0.533,5.993,0.624c15.168-0.481,14.291-0.805,15.229-1.436
							c-14.184-0.149-15.934,0.847-27.534,0.716l23.069-1.119c-4.253-0.145-7.398-0.154-10.04-0.106
							c4.636-0.07,8.575-0.237,11.944-0.463c1.918-0.119,3.689-0.229,5.326-0.33c-13.077,0.019-24.69,0.025-26.744-0.238
							l1.803-0.309c-4.631-0.271-12.176-0.037-15.653,0.192c-11.709,0.055-23.403,0.501-25.962,0.111l4.443-0.287
							C775.191,327.014,773.586,327.055,755.477,327.092z M283.556,326.229c8.719,1.14,18.334,2.151,59.043,2.063l-3.204,0.068
							c20.513,0.755,40-0.821,64.958,0.022c-12.112,0.389-11.46,0.353-24.833,1.28l12.995-0.281
							c-3.602,0.598,9.361,0.317,18.896,0.372l-8.417,0.7c-5.723-0.223-20.559-0.337-20.125-0.171
							c3.249-0.071-19.585-0.965-31.992-0.786c1.278,0.493,27.471,0.363,15.774,1.134c10.309-0.31,11.587,0.183,22.363,0.039
							c-10.335,0.309-2.559,0.661-10.253,0.998l17.669-0.12c0.46,0.164-25.734,0.294-11.257,0.935
							c7.08-0.238,25.983,0.134,26.322-0.393l0.435,0.163c13.244,0.149,5.827-0.73,22.089-0.388
							c0.192-0.265-2.909-0.456-8.735-0.417c-4.924,0.104-5.679,0.466-15.822,0.513c-4.546-0.424,12.233,0.084,5.193-0.633
							c-3.498-0.356-26.776,0.23-19.356-0.534l13.218,0.147c0.339-0.527,9.913-0.472,9.645-0.898
							c8.083-0.173,15.711,0.441,23.968,0.004c3.428-0.332-2.557-0.982,11.102-0.67c10.672,0.809,42.122,0.739,53.901,0.659
							l10.309-0.313c-0.876-0.322-19.696-0.007-13.077-0.409l16.076-0.101l-1.24,0.206c5.327,0.034,10.775-0.193,15.635-0.318
							c-5.007,0.389-16.594,0.258-14.292,0.804c7.546,0.095,8.696,0.296,15.642,0.178c-1.516,0.042-2.82,0.099-2.628,0.175
							c15.276,0.21,14.752-0.643,18.583-0.828c15.36-0.744-15.481-0.636-13.519-1.205l44.846-0.387
							c-3.83,0.187-7.687,0.371-6.241,0.594c10.999,0.233,0.25,0.427,15.693,0.371c-1.101-0.75,19.445-0.505,30.354-0.959
							c5.097,0.299,6.146,0.358-5,0.388c1.279,0.486,16.242,0.271,21.563,0.306c3.082-0.128,8.338-0.208,11.67-0.323
							c-4.464-0.234-2.559-0.544,7.104-0.77l0.563-0.104c-15.84-0.104-40.459-0.592-50.39-0.073l2.807-0.247
							c-18.333-0.388-39.896,0.951-48.35,0.044c0.78-0.366-3.683-0.076-3.363-0.604l-13.499,0.438l2.808-0.244l-22.963,0.161
							l0.607-0.1c-10.915,0.481-19.465,0.859-26.295,1.161c-0.025,0.229,0.684,0.303-2.955,0.462
							c-3.651,0.104-6.42,0.115-8.889,0.078c-0.019,0.001-0.019,0.001-0.019,0.003v-0.003c-5.634-0.082-9.387-0.422-16.325-0.575
							l21.352-0.001c1.74-0.386-0.076-0.796-10.538-1.097c4.278-0.003,6.069-0.304,0.774-0.362
							c-0.582,0.101-13.992,0.213-8.883,0.537c-20.284,0.09-53.118-1.022-83.916-0.361c22.125-0.388-17.731-0.569,6.831-0.665
							c-17.143-0.67-14.753,0.576-32.229,0.433c-1.49-0.229,9.515,0.055,13.531-0.378c-29.056-0.327-49.029,0.881-77.139,0.617
							l-1.201-0.49C295.61,326.12,289.701,326.173,283.556,326.229z M227.947,326.689c-5.41,0.041-10.897,0.083-16.473,0.125
							c0.543,0.006,1.049,0.013,1.618,0.019l-16.256,0.351c9.988,0.216,16.566,0.769,2.586,0.981
							c1.178-0.198-2.908-0.456,1.953-0.562c-9.367-0.316-29.918-0.654-24.563,0.097c18.003-0.648,4.191,0.948,18.338,0.469
							c-7.592,0.461-15.112,0.225-22.281,0.42c7.464-0.382-1.736-0.914-12.945-1.135c-4.879,0.105-18.084-0.042-26.193,0.131
							c2.889,0.458-4.172,0.697,9.039,0.845c-4.848,0.105-12.349,0.18-20.75-0.074c3.332-0.068,9.158-0.108,8.755-0.272
							c-5.421-0.429-11.771-0.427-15.274-0.612c-2.794,0.017-5.615,0.033-8.358,0.05c0.818,0.041,1.528,0.094,2.033,0.16
							l-9.287,0.373c12.369-0.18,5.716,0.223,5.555,0.486c0.334-0.526-7.961-0.09-12.195-0.083l9.193,0.581
							c-4.445,0.268-15.69-0.444-13.372,0.114c19.51,0.271,27.011,0.196,44.655,0.077l-7.161-0.451
							c19.908-0.254,12.275,0.774,34.612,0.813c9.287-0.371,33.592,0.061,34.055-0.73c-2.802,0.234,13.906,0.741,21.562,0.402
							c8.463-0.701,34.048-0.731,26.299-1.082c-6.913-0.027-16.218,0.346-21.773-0.14l13.41-0.115l-8.798-0.417
							C230.476,327.662,230.036,327.275,227.947,326.689z M21.685,246.933c0.008-0.147,0.02-0.341,0.03-0.521
							c-0.008,0.2-0.017,0.394-0.025,0.58L21.685,246.933z"/>
						<path fill="#FFFFFF" d="M996.635,184.3c-0.282-3.822-0.729-13.282-1.025-11.417c0.215-0.115,0.429,4.119,0.604,7.672
							C996.434,184.108,996.407,187.06,996.635,184.3z"/>
						<path fill="#FFFFFF" d="M996.568,172.939c-0.136-0.664-0.274-0.187-0.507-4.468c0,0,0.176,2.946,0.353,5.892
							c0.158,2.925,0.315,5.849,0.315,5.849L996.568,172.939z"/>
						<path fill="#FFFFFF" d="M998.871,160.855c-0.697-6.024-0.857-9.867-0.979-19.377c0.493-1.79,0.624,2.099,0.761,6.97
							c0.088,2.435,0.096,5.12,0.299,7.454c0.201,2.334,0.437,4.326,0.733,5.388c-0.112-2.169-0.215-4.15-0.311-5.984
							c-0.064-1.837-0.123-3.528-0.179-5.113c-0.12-3.169-0.268-5.915-0.421-8.564c-0.138-2.65-0.343-5.203-0.414-7.994
							c-0.066-2.792-0.107-5.816-0.091-9.403c-0.128,1.776-0.258,4.923-0.37,8.654c-0.12,3.731-0.027,8.04,0.002,12.146
							c0.071,4.104,0.097,8.006,0.308,10.903C998.438,158.832,998.667,160.734,998.871,160.855z"/>
						<polygon fill="#FFFFFF" points="1000.573,168.498 999.851,158.866 999.838,159.821 1000.561,169.459 						"/>
						<path fill="#FFFFFF" d="M941.592,321.826c-0.877-0.324-6.932,0.008-10.18,0.092
							C934.054,321.934,937.75,322.013,941.592,321.826z"/>
						<path fill="#FFFFFF" d="M680.824,14.443l74.148-0.435C733.638,14.133,713.939,14.249,680.824,14.443z"/>
						<path fill="#FFFFFF" d="M695.587,324.405c19.905-0.343,28.748-0.919,49.03-1.1c-26.672-0.604-35.225,1.087-57.619,0.459
							L695.587,324.405z"/>
						<path fill="#FFFFFF" d="M702.604,321.801c3.3,0.606-15.358,0.746-12.468,1.189c13.415-0.175,6.247-0.595,18.422-0.564
							L702.604,321.801z"/>
						<polygon fill="#FFFFFF" points="792.833,331.747 786.797,332.077 791.656,331.952 						"/>
						<polygon fill="#FFFFFF" points="611.883,322.513 614.082,322.37 604.101,322.195 						"/>
						<path fill="#FFFFFF" d="M616.281,322.226l-2.199,0.145L616.281,322.226z"/>
						<polygon fill="#FFFFFF" points="785.079,333.074 794.052,333.188 798.489,332.899 						"/>
						<path fill="#FFFFFF" d="M705.885,329.938l8.024-0.211C712.317,329.769,701.337,329.537,705.885,329.938z"/>
						<polygon fill="#FFFFFF" points="550.926,322.366 541.162,322.619 542.159,322.678 551.892,322.425 						"/>
						<path fill="#FFFFFF" d="M643.063,331.742c5.545,0.46-16.013,0.157-4.604,0.552
							C648.608,332.202,644.489,331.964,643.063,331.742z"/>
						<path fill="#FFFFFF" d="M525.238,328.771c-1.317,0.003-2.705,0.021-4.042,0.076
							C522.789,328.817,524.125,328.793,525.238,328.771z"/>
						<path fill="#FFFFFF" d="M525.238,328.771c4.252-0.008,8.505,0.164,11.421,0.022
							C531.357,328.591,529.427,328.675,525.238,328.771z"/>
						<path fill="#FFFFFF" d="M476.517,328.79l3.856,0.044c-3.939,0.222-2.072,0.192,1.445,0.015
							c4.086-0.005,3.856-0.154,4.342-0.255c0.818-0.058,1.631-0.114,2.513-0.176c-1.26,0.061-2.392,0.115-3.351,0.161
							C478.992,328.559,475.129,328.571,476.517,328.79z"/>
						<path fill="#FFFFFF" d="M295.548,320.389c14.24,0.213,17.922,0.307,17.148,0.67c13.517,0.152,11.421-0.481,19.574-0.606
							C316.975,320.482,313.849,320.306,295.548,320.389z"/>
						<path fill="#FFFFFF" d="M332.271,320.452c1.713-0.005,3.351-0.01,5.339-0.016C335.384,320.42,333.735,320.431,332.271,320.452
							z"/>
						<polygon fill="#FFFFFF" points="533.461,332.857 524.609,333.433 527.858,333.349 						"/>
						<path fill="#FFFFFF" d="M274.416,320.149c2.641,0.03,6.874,0.025,8.952,0.155C284.13,319.94,271.782,320.12,274.416,320.149z"
							/>
						<path fill="#FFFFFF" d="M329.319,327.452c1.445,0.228,10.557,0.118,14.266,0.213
							C338.265,327.604,333.931,326.92,329.319,327.452z"/>
						<path fill="#FFFFFF" d="M233.559,321.548c2.641,0.03,6.7,0.287,4.941,0.585C242.337,321.964,247.531,321.333,233.559,321.548z
							"/>
						<polygon fill="#FFFFFF" points="303.293,327.318 305.327,327.448 315.072,327.239 						"/>
						<path fill="#FFFFFF" d="M338.042,332.802c10.962-0.407-17.385-1.097,1.493-1.416c-24.351-0.521,1.866,0.622-16.097,0.504
							C333.958,332.064,339.111,332.629,338.042,332.802z"/>
						<path fill="#FFFFFF" d="M323.438,331.89c-1.528-0.016-3.185-0.032-4.981-0.051
							C320.446,331.859,322.051,331.875,323.438,331.89z"/>
						<path fill="#FFFFFF" d="M169.185,328.727c1.592-0.041,2.68-0.089,3.684-0.138
							C171.615,328.622,170.419,328.664,169.185,328.727z"/>
						<path fill="#FFFFFF" d="M266.068,332.099l16.431-0.611c-10.975,0.407-38.582,0.308-36.864,0.963
							c8.94,0.156,19.697,0.012,24.117-0.258L266.068,332.099z"/>
						<path fill="#FFFFFF" d="M77.552,319.793l7.099-0.239l-8.912-0.097C78.339,319.555,73.628,320.03,77.552,319.793z"/>
						<path fill="#FFFFFF" d="M74.002,319.449l1.736,0.008C75.354,319.441,74.802,319.437,74.002,319.449z"/>
						<path fill="#FFFFFF" d="M200.258,328.493c5.307,0.06,9.554,0.054,14.395-0.05
							C212.645,328.314,199.421,328.165,200.258,328.493z"/>
						<path fill="#FFFFFF" d="M27.752,320.508c0,0,2.89,0.05,5.78,0.101c2.901,0.021,5.802,0.042,5.802,0.042
							s-3.165-0.043-6.329-0.085c-3.15-0.079-6.301-0.157-6.301-0.157L27.752,320.508z"/>
						<path fill="#FFFFFF" d="M19.664,292.613l0.436-2.016c0-0.001,0.352-2.449,0.527-4.913c0.215-2.46,0.431-4.92,0.431-4.92
							l-0.353,2.059c0,0-0.215,2.451-0.43,4.902c-0.111,1.226-0.304,2.443-0.412,3.36C19.743,292.003,19.664,292.613,19.664,292.613
							z"/>
						<path fill="#FFFFFF" d="M44.329,332.521c7.984,0.123,14.199-0.501,12.115-0.615c0,0-3.862,0.006-7.724,0.011
							c-3.868-0.02-7.735-0.039-7.735-0.039c3.929,0.545,4.297,0.04,13.253,0.173L44.329,332.521z"/>
						<path fill="#FFFFFF" d="M145.755,15.768c-3.424,0.403-20.211,0.694-21.099,0.424c2.248-0.227,11.346-0.63,5.623-0.665
							l-13.244,1.295c-8.828,0.093-5.492-0.327,1.149-0.829c6.64-0.503,16.591-1.024,20.953-1.283
							c-9.007,0.188-14.836,0.496-20.805,0.843c-5.964,0.337-12.071,0.683-21.622,1.224c5.635-0.22,9.207-0.167,12.191-0.121
							c0.674,0.558-17.142,1.063-29.796,2.047c8.084-0.291,3.425,0.222-2.421,0.88c-1.054,0.094-1.751,0.188-2.247,0.265
							c-0.679,0.082-1.321,0.159-1.981,0.239l1.514-0.12c-0.102,0.074,0.239,0.128,1.338,0.151
							c10.588-0.968,18.765-0.91,25.622-1.247c-3.413-0.307,2.422-0.676,10.202-0.976c7.779-0.304,17.503-0.512,21.827-0.784
							l9.994-0.367l3.741-0.095c0.755,0.087-0.307,0.246-6.005,0.577c4.752-0.329,20.637-0.585,19.166-0.858
							c0,0,9.067-0.149,18.135-0.297c9.072-0.107,18.144-0.214,18.144-0.214c1.131,0.029,2.261,0.068,3.098,0.13
							c1.257-0.072,1.468-0.123,1.301-0.17c0,0,9.887-0.067,24.718-0.167c14.84-0.03,34.626-0.07,54.412-0.11
							c39.6,0.01,79.199,0.021,79.199,0.021c-7.815-0.143-14.576-0.267-22.634-0.415c12.096-0.634-13.215-0.12-9.664-0.723
							c5.437-0.215,13.393-0.144,18.133,0.001c1.766-0.305-4.989-0.574-4.209-0.938c-19.98-0.388-23.039,1.063-42.567,0.826
							c0.774-0.365,6.811-0.68-5.971-0.64l3.248-0.076c-20.466,0.396-15.946-0.836-28.827,0.168l0.338-0.527
							c-9.282,0.397-27.338,0.428-37.511,0.545l0.607-0.104c-28.531,0.758-16.022,0.166-48.047,0.75l14.733-0.775
							c-11.053-0.146-13.536,0.558-21.466,0.596c0.567-0.109-1.278-0.47,6.211-0.667c0,0-9.709,0.384-19.417,0.768
							c-9.7,0.444-19.4,0.889-19.4,0.889C133.171,15.876,144.309,15.574,145.755,15.768z"/>
						<path fill="#FFFFFF" d="M96.711,16.777c-2.046,0.086-4.374,0.191-7.114,0.381C92.246,17.017,94.526,16.895,96.711,16.777z"/>
						<path fill="#FFFFFF" d="M369.987,15.572l-11.125-0.01C362.308,15.599,365.901,15.614,369.987,15.572z"/>
						<path fill="#FFFFFF" d="M41.925,22.886c3.272-0.352,2.067-0.075-0.09,0.335c-2.155,0.414-5.233,1.019-5.765,1.23
							c0,0,1.424-0.27,3.593-0.618c2.162-0.361,5.073-0.79,7.999-1.18c5.853-0.786,11.78-1.379,11.78-1.379
							c-0.128-0.191,2.194-0.659,1.7-0.794c0,0-4.847,0.485-9.655,1.083C46.671,22.14,41.926,22.887,41.925,22.886z"/>
						<path fill="#FFFFFF" d="M66.344,20.991c0.794-0.206,3.297-0.561,6.113-0.904c0,0-3.259,0.277-6.519,0.555
							c-3.254,0.297-6.496,0.633-6.496,0.632C59.541,21.42,61.003,21.392,66.344,20.991z"/>
						<path fill="#FFFFFF" d="M62.814,10.435l4.28-0.406l6.466-0.688c0,0-2.687,0.262-5.374,0.524
							C65.5,10.15,62.814,10.435,62.814,10.435z"/>
						<path fill="#FFFFFF" d="M129.822,7.579c-5.122-0.157-14.815,0.426-18.055,0.652C122.944,7.784,118.104,8.076,129.822,7.579z"
							/>
						<polygon fill="#FFFFFF" points="115.881,4.758 126.67,4.2 125.662,4.174 						"/>
						<path fill="#FFFFFF" d="M452.223,13.606c1.765-0.009,3.478-0.018,5.262-0.027C455.075,13.574,453.502,13.586,452.223,13.606z"
							/>
						<path fill="#FFFFFF" d="M359.827,13.986c25.685,0.626-16.83,0.47-8.76,1.238l13.977-0.232l-1.189,0.202l17.046-0.044
							c-3.498-0.353-6.125-0.377-5.365-0.742c22.757,0.173,7.174,0.443,23.869,0.926l25.436-0.033l-2.059,0.107
							c2.142-0.005,3.088-0.05,3.824-0.108l85.719-0.114c15.596-0.269-8.624-0.668,2.88-1.191
							c-18.076-0.021-44.938-0.446-46.473,0.28c0.607-0.1,1.804-0.299-1.86-0.39l-10.455,0.585l9.968,0.205
							c-10.513,0.584-44.458,0.406-50.597,0.026c19.304-0.178,9.618-0.911,36.511-0.484c-1.208-0.186-6.131-0.518-0.076-0.611
							C420.712,13.776,392.469,13.407,359.827,13.986z"/>
						<path fill="#FFFFFF" d="M675.921,13.88l-0.25,0.066C676.24,13.91,676.426,13.884,675.921,13.88z"/>
						<path fill="#FFFFFF" d="M665.343,13.807l-15.363,0.74l23.951-0.097l1.74-0.504c-2.117,0.13-10.515,0.398-13.77,0.208
							L665.343,13.807z"/>
						<path fill="#FFFFFF" d="M632.142,15.008c12.369-0.233,11.699-0.822,4.953-1.08c11.359-0.292,5.99,0.625,13.813-0.011
							c-0.254-0.425-14.254-0.152-17.471-0.069L632.142,15.008z"/>
						<polygon fill="#FFFFFF" points="540.896,14.622 544.375,14.382 535.807,14.305 						"/>
						<path fill="#FFFFFF" d="M544.375,14.382l8.504,0.077c-0.588-0.183-1.17-0.36-2.557-0.486L544.375,14.382z"/>
						<path fill="#FFFFFF" d="M575.193,14.659c3.601,0.032,7.584,0.067,12.43,0.109L575.193,14.659z"/>
						<path fill="#FFFFFF" d="M565.469,14.495l0.287,0.078l9.438,0.086C571.716,14.6,568.595,14.548,565.469,14.495z"/>
						<path fill="#FFFFFF" d="M552.879,14.459c1.38,0.415,2.996,0.851,15.292,0.752l-2.415-0.639L552.879,14.459z"/>
						<polygon fill="#FFFFFF" points="194.344,3.686 204.077,3.367 203.046,3.311 193.319,3.633 						"/>
						<path fill="#FFFFFF" d="M250.502,3.779c2.405-0.076,4.228-0.156,5.885-0.235C253.854,3.591,251.838,3.664,250.502,3.779z"/>
						<path fill="#FFFFFF" d="M292.232,0.946c11.442,0.424-15.785,0.539,5.404,0.738c1.867,0.389-8.065,0.878-18.043,0.683
							c0.793-0.364,9.722-0.229,3.588-0.604c-6.626,0.418-9.147,0.133-6.837,0.681c-11.149,0.342-12.39,0.734-19.958,1.099
							c13.479-0.263,41.774,0.322,58.872-0.366c9.426-0.653,3.71-1.558,3.749-2.511C317.59,0.442,293.155,0.315,292.232,0.946z"/>
						<path fill="#FFFFFF" d="M274.227-0.012c-5.297-0.048-6.916-0.007-10.166,0.073C264.938,0.387,269.947,0.001,274.227-0.012z"/>
						<path fill="#FFFFFF" d="M395.905,7.265c1.011-0.134,10.59-0.289,8.531-0.526l-14.523,0.151
							C393.322,6.917,394.524,7.085,395.905,7.265z"/>
						<path fill="#FFFFFF" d="M383.544,6.956l6.369-0.065C388.321,6.877,386.351,6.893,383.544,6.956z"/>
						<path fill="#FFFFFF" d="M396.596,7.351c-0.23-0.028-0.436-0.054-0.691-0.085C395.7,7.294,395.739,7.323,396.596,7.351z"/>
						<path fill="#FFFFFF" d="M610.431,14.943c-0.205,0.259,6.266,0.121,9.515,0.03C617.305,14.96,613.596,14.867,610.431,14.943z"
							/>
						<path fill="#FFFFFF" d="M854.074,13.534l5.717,0.199C857.771,13.612,856.734,13.552,854.074,13.534z"/>
						<path fill="#FFFFFF" d="M942.233,6.899c0.168-0.045,0.593-0.072,1.164-0.091C942.826,6.82,942.428,6.849,942.233,6.899z"/>
						<path fill="#FFFFFF" d="M943.397,6.809c3.925-0.1,15.986,0.846,20.35,0.858l-0.559,0.063c0,0,2.025,0.098,4.05,0.196
							c2.025,0.117,4.051,0.233,4.051,0.233c-3.792-0.322-9.664-0.749-15.139-1.017C950.675,6.866,945.598,6.733,943.397,6.809z"/>
					</g>
				</g>
			</g>
		</g>
	</g>
</g>
</svg>
