<?xml version="1.0" encoding="utf-8"?>
<!-- Generator: Adobe Illustrator 16.0.0, SVG Export Plug-In . SVG Version: 6.00 Build 0)  -->
<!DOCTYPE svg PUBLIC "-//W3C//DTD SVG 1.1//EN" "http://www.w3.org/Graphics/SVG/1.1/DTD/svg11.dtd">
<svg version="1.1" id="Layer_1" xmlns="http://www.w3.org/2000/svg" xmlns:xlink="http://www.w3.org/1999/xlink" x="0px" y="0px"
	 width="1003px" height="333.4px" viewBox="0 0 1003 333.4" enable-background="new 0 0 1003 333.4" xml:space="preserve">
<g>
	<path fill="#F2F2F2" d="M5.073,317.411c0.144,4.428,41.321,7.994,91.538,7.918c96.518-0.147,196.191-0.799,289.749-0.474
		c82.396,0.288,174.927,0.388,268.021,0.356c165.795-0.055,343.217,2.332,342.225-22.797c-3.873-97.983-22.102-195.452,0-292.88
		c0.992-4.378-58.846-3.2-71.015-3.259C632.944,4.848,339.269,4.735,46.459,5.936C36.264,5.978,25.222,6.047,17.576,6.581
		C7.865,7.259,7.22,8.416,7.293,9.439c2.043,28.407-4.848,56.532-2.805,84.939c0.729,10.124-0.729,19.208,0,29.332
		c0.805,11.188,0.188,23.835,0.993,35.022C9.301,211.838,3.351,264.349,5.073,317.411z"/>
	<g>
		<g>
			<g>
				<g>
					<g>
						<path fill="#FFFFFF" d="M8.084,253.653c-0.138,5.865-0.548,10.958-0.641,8.753c0.073,11.938-0.363,12.183,0.327,13.743
							c0.233,7.652-0.306,15.799-0.528,7.098c0,0,0.058,5.514,0.115,11.026c0,2.758,0.112,5.508,0.191,7.571
							c0.075,2.063,0.125,3.438,0.125,3.438s-0.025-3.29-0.05-6.579c-0.03-1.644,0.044-3.294,0.053-4.528
							c0.022-1.235,0.038-2.059,0.038-2.059c0.143,0.897,0.19,2.662,0.191,4.869c0.027,2.204,0.061,4.849,0.094,7.513
							c0.053,5.327,0.12,10.73,0.507,12.802c0,0-0.11-5.949-0.221-11.898c-0.052-2.976-0.105-5.95-0.144-8.182
							c0.016-2.235,0.027-3.726,0.027-3.726l0.189,1.192c-0.145-5.431-0.012-15.97,0.194-19.651c0.097,0.581,0.23,0.219,0.194,4.424
							c0.337-14.405,0.16-16.357-0.114-17.692c-0.26-1.337-0.588-2.057-0.311-14.043C8.289,249.227,8.223,251.086,8.084,253.653z"/>
						<path fill="#FFFFFF" d="M10.281,229.147l-0.5-10.11l0.387-16.961c-0.149-0.098-0.173-3.231-0.352-5.304
							c-0.146-2.07-0.271-3.066-0.325,1.12c0.053,1.637,0.076,4.867,0.031,7.478c-0.297-0.948-0.216-6.58-0.419-11.363
							c-0.143-4.78-0.274-8.698-0.524-6.201c0.414,13.412,0.097,15.461,0.507,23.717c-0.057,6.147-0.263,11.445-0.446,15.927
							c-0.182,4.481-0.359,8.145-0.54,11.005c-0.026,3.639,0.306,4.161,0.233,8.784c0.024-1.023,0.047-1.963,0.075-3.14l0.868-0.473
							c-0.054-3.856,0.132-7.502,0.22-11.788l0.417,19.823c0.491-3.181,0.793-9.621,0.994-16.263
							c0.194-6.644,0.343-13.461,0.6-17.354C10.549,227.688,11.353,210.353,10.281,229.147z"/>
						<path fill="#FFFFFF" d="M8.334,247.238c-0.003,0.128-0.009,0.339-0.013,0.485C8.325,247.577,8.331,247.366,8.334,247.238z"/>
						<path fill="#FFFFFF" d="M996.465,258.137c0.316,4.199,0.606,5.425,0.751,6.024c0,0-0.868-11.823-1.736-23.647
							c-0.918-11.811-1.836-23.621-1.836-23.621c-0.108,1.496,0.674,15.121-0.167,6.041c0.072,4.071,1.23,16.41,1.671,18.18
							l-0.604-3.399c1.291,10.853,0.935,18.363,0.176,11.277l0.07,0.919c0,0,0.961,7.515,1.921,15.029
							c0.892,7.53,1.783,15.06,1.783,15.06c-0.295-5.554-0.572-7.683-0.882-10.092C997.31,267.496,996.966,264.806,996.465,258.137z
							"/>
						<path fill="#FFFFFF" d="M73.132,326.648c6.149,0.051,6.906-0.036,6.209-0.126C77.138,326.552,75.042,326.583,73.132,326.648z"
							/>
						<path fill="#FFFFFF" d="M999.281,287.049l0.981,9.465C999.938,292.719,999.59,289.39,999.281,287.049z"/>
						<path fill="#FFFFFF" d="M986.704,222.138c-0.029-0.017-0.062-0.116-0.08,0.135l0.599,4.221
							c-0.005-0.064-0.006-0.083-0.008-0.108C987.027,224.827,986.859,223.429,986.704,222.138z"/>
						<path fill="#FFFFFF" d="M802.292,330.396c-1.018,0.021-1.895,0.038-3.11,0.063
							C800.314,330.437,801.339,330.416,802.292,330.396z"/>
						<path fill="#FFFFFF" d="M978.694,93.335c0,0-0.02,1.334-0.049,3.335c-0.037,2.001-0.081,4.668-0.011,7.331
							c0.08,5.325,0.16,10.649,0.16,10.649c-0.215-2.839-0.232,7.435-0.474,2.948c-0.017,1.627,0.264,9.218,0.335,7.146
							l-0.088-4.336c0.442,5.602,0.703,6.701,0.958,8.723c0.127,1.011,0.254,2.251,0.4,4.398c0.064,1.074,0.143,2.374,0.238,3.984
							c0.112,1.607,0.245,3.525,0.406,5.837c-0.049-5.75-0.063-9.894-0.209-13.355c-0.141-3.462-0.361-6.248-0.571-9.297
							c-0.105-2.066-0.059-3.806-0.086-5.561c0,0-0.206-4.423-0.411-8.846c-0.096-2.213-0.222-4.427-0.267-6.09
							c-0.028-1.664-0.047-2.773-0.047-2.773L978.694,93.335z"/>
						<path fill="#FFFFFF" d="M366.694,322.472l0.23-0.055C366.713,322.437,366.675,322.455,366.694,322.472z"/>
						<path fill="#FFFFFF" d="M367.846,322.191l-0.921,0.226C368.057,322.304,372.393,322.189,367.846,322.191z"/>
						<path fill="#FFFFFF" d="M998.658,283.59c0.151,0.28,0.362,1.488,0.623,3.459c0,0-0.186-1.764-0.372-3.527
							c-0.208-1.762-0.416-3.522-0.416-3.522C998.539,281.004,998.6,282.329,998.658,283.59z"/>
						<path fill="#FFFFFF" d="M996.137,267.615c0,0-0.332-4.427-0.664-8.854c-0.342-4.426-0.684-8.852-0.684-8.852l-0.85-6.499
							C994.554,250.18,995.272,258.093,996.137,267.615z"/>
						<path fill="#FFFFFF" d="M830.359,330.486c-36.805,0.586,9.029-0.934-7.883-0.912c-10.216,0.223-13.816,0.644-20.185,0.822
							c29.184-0.629-3.947,1.36,25.496,0.797c-4.18,0.777-21.23,1.036-31.219,0.907c-11.312-0.598,9.875-0.57,12.43-1.272
							c-11.811,0.22-9.729,0.318-14.738,0.737c-18.546-0.028-38.361,1.003-49.431,0.068c-13.416,0.16-12.533,0.482-20.248,0.842
							c-1.535,0.73,19.953,0.382,24.927,0.944c-1.03-0.06-3.04-0.18-2.458-0.283l11.603,0.134
							c-11.014-0.232,1.527-0.729,7.415-0.805c4.281-0.025,12.795-0.095,11.624,0.112l-6.483,0.183
							c8.348,0.201,18.413-0.613,27.232-0.287c0.463,0.16-2.873,0.262-3.378,0.367c9.876-0.571,19.405-0.621,34.032-1.179
							l-8.473,0.836c11.694-0.929,38.198-1.142,56.611-1.359c-2.045-0.051-5.723-0.031-3.521-0.236
							c10.795-0.507,18.981-0.368,13.989,0.218c5.27-0.51,15.334-0.792,25.9-1.318c10.562-0.502,21.636-1.295,28.836-2.396
							c0,0,4.138-0.616,10.342-1.7c6.205-1.104,14.478-2.679,22.757-4.946c4.14-1.144,8.282-2.464,12.183-4.134
							c1.945-0.814,3.844-1.787,5.639-2.88c0.449-0.297,0.894-0.59,1.33-0.879c0.434-0.287,0.871-0.668,1.289-0.992
							c0.23-0.19,0.459-0.378,0.686-0.564c0.227-0.225,0.451-0.447,0.673-0.668c0.429-0.455,0.88-0.87,1.211-1.367
							c0.343-0.485,0.701-0.944,0.974-1.438c0.256-0.504,0.494-1.001,0.715-1.486c0.16-0.511,0.291-1.017,0.415-1.505
							c0.118-0.491,0.084-0.993,0.132-1.463c0.018-0.234,0.019-0.473,0.05-0.692c-0.011-0.227-0.021-0.448-0.032-0.667
							c-0.015-0.218-0.028-0.432-0.042-0.642c-0.017-0.185-0.031-0.365-0.047-0.543c-0.057-0.544-0.108-1.042-0.155-1.493
							c-0.187-1.803-0.294-2.832-0.294-2.832c0.1,1.235,0.201,2.514,0.306,3.824c0.029,0.517,0.149,1.666,0.084,2.612
							c-0.041,0.496-0.083,0.995-0.125,1.496c-0.09,0.493-0.261,0.974-0.404,1.459c-0.488,1.002-1.056,1.896-1.705,2.589
							c-0.597,0.736-1.258,1.275-1.813,1.73c-0.551,0.479-1.026,0.744-1.348,0.941c-0.317,0.187-0.525,0.295-0.605,0.311
							c-0.079,0.016-0.03-0.061,0.164-0.245c0.21-0.188,0.563-0.502,1.079-0.962c0.513-0.559,1.276-1.214,1.953-2.269
							c0.729-0.996,1.418-2.4,1.602-4.17c-0.208,1.731-0.886,3.08-1.609,4.078c-0.684,1.048-1.471,1.751-2.108,2.41
							c-0.678,0.565-1.172,1.002-1.694,1.398c-0.519,0.362-1.014,0.708-1.546,1.08c-2.154,1.314-5.027,2.925-12.802,4.996
							c3.013-0.943,4.834-1.828,4.054-1.823c-0.782-0.021-4.13,0.925-11.527,2.369c-9.213,1.983-17.682,3.258-25.726,4.409
							c-8.045,1.122-15.67,2.063-23.224,2.913c-15.106,1.688-29.93,3.046-47.28,4.077c-0.648-0.227-7.788-0.08-16.418,0.09
							c-8.63,0.176-18.75,0.372-25.37,0.419c5.045-0.606,14.865-0.925,25.06-1.285c-6.397,0.11-17.413,0.301-25.585,0.441
							L830.359,330.486z"/>
						<path fill="#FFFFFF" d="M916.599,325.958c-0.933,0.012-1.895,0.045-2.883,0.081
							C914.243,326.048,915.104,326.027,916.599,325.958z"/>
						<path fill="#FFFFFF" d="M862.366,328.901c0.127-0.022,0.082-0.035,0.126-0.057c-1.068,0.039-2.139,0.078-3.233,0.118
							C860.354,328.94,861.591,328.916,862.366,328.901z"/>
						<path fill="#FFFFFF" d="M997.977,292.346c-0.223-2.196-0.387-3.82-0.608-6.017c0.102,1.354,0.229,3.054,0.353,4.688
							C997.861,292.575,997.963,293.314,997.977,292.346z"/>
						<path fill="#FFFFFF" d="M998.479,284.877l0.257,1.167c-0.03-0.948-0.052-1.614-0.078-2.454
							C998.531,283.34,998.467,283.619,998.479,284.877z"/>
						<path fill="#FFFFFF" d="M689.815,326.604l-3.523,0.104C688.415,326.701,689.329,326.659,689.815,326.604z"/>
						<path fill="#FFFFFF" d="M789.36,330.07c12.793-0.139,1.524-0.725,19.623-0.888l-5.313,0.005
							c12.981-0.411,35.808-0.564,51.245-0.964c-1.735,0.338,9.371,0.126,7.576,0.621c10.554-0.376,21.009-0.847,26.43-1.53
							c6.548-0.1,16.465-0.969,24.794-1.275c-3.526-0.079,11.781-1.596-8.433-0.123c1.632-0.12,0.604-0.131,2.216-0.256
							c-13.05,0.293-18.245,1.127-29.472,1.531c-6.719-0.035,10.959-0.817,4.623-0.702c-7.003,0.382-17.999,0.632-27.122,0.85
							c-9.124,0.228-16.378,0.453-15.905,0.954c-10.195,0.246-11.606,0.031-14.649-0.111c-16.12,1.358-59.843,0.008-59.688,1.363
							c5.886-0.069,15.477-0.078,24.113-0.428L789.36,330.07z"/>
						<path fill="#FFFFFF" d="M990.135,312.183c-0.753,0.362-1.768,0.766-2.399,1.032
							C988.445,312.91,989.335,312.571,990.135,312.183z"/>
						<path fill="#FFFFFF" d="M992.679,152.652c0,0,0.275,1.317,0.551,2.634c0.297,1.316,0.593,2.633,0.593,2.633
							c0.874,15.106,1.586,25.406,2.228,35.236c0.694,9.835,1.334,19.198,2.398,32.463c0.034,2.036-0.294-1.176-0.461-2.804
							c0.761,9.322,1.688,20.97,2.474,32.016c0.853,11.03,1.49,21.47,2.135,28.282c0.296,5.982,0.751,21.699,0.204,15.767
							c0.055,0.781,0.112,1.591,0.171,2.421c0.005,0.669,0.104,1.351-0.022,2.032c-0.087,0.688-0.076,1.402-0.247,2.09
							c-0.642,2.779-2.426,5.299-4.706,7.21c-0.761,0.358,2.03-1.642,3.607-4.793c0.441-0.759,0.668-1.622,0.903-2.43
							c0.198-0.814,0.188-1.625,0.274-2.309c0.082-0.675-0.001-1.263-0.016-1.681c-0.017-0.209-0.035-0.378-0.054-0.499
							c-0.017-0.082-0.033-0.118-0.051-0.132c0.009,0.252,0.017,0.495,0.024,0.729c0.003,0.26,0.006,0.511,0.009,0.751
							c-0.003,0.239-0.005,0.47-0.008,0.69c-0.08,0.213-0.063,0.434-0.099,0.636c-0.1,0.815-0.122,1.501-0.336,2.039
							c-0.174,0.545-0.313,0.984-0.43,1.352c-0.161,0.348-0.287,0.628-0.386,0.872c0.443-0.855,0.552-1.447,0.617-1.82
							c0.064-0.373,0.054-0.538,0.022-0.635c-0.032-0.097-0.087-0.126-0.123-0.224s-0.037-0.26-0.073-0.638
							c-0.02-0.373-0.024-0.961,0.022-1.861c-0.029-0.45-0.065-0.986-0.107-1.623c-0.038-0.409-0.082-0.883-0.133-1.434
							c-0.182-2.139-0.389-5.468-0.633-10.666c0.371-8.093,0.78,14.421,1.388,9.629c-0.325-6.903-0.61-6.084-0.74-6.67
							c-0.401-8.795-0.186-8.575,0.031-8.117c-0.468-3.348-0.785-14.411-1.477-19.027c-1.284-17.026,0.693,0.884-0.113-10.241
							l-1.305-6.351l-1.254-18.477c-2.36-26.669-1.188,3.927-3.988-26.539c0.765,3.975,0.504-8.316-0.218-22.501
							c0.559,8.48,2.271,24.12,2.873,35.107c-0.541-15.512,1.735,21.272,1.868,13.19c-0.951-7.613-2.005-20.353-2.531-30.285
							l0.32,3.247c-0.344-5.28-0.908-9.903-1.4-15.022c-0.482-5.12-1.08-10.752-1.275-18.033c-0.42-7.227-0.107-5.885,0.159-4.624
							c-0.23-3.054-0.448-5.946-0.609-8.077C992.62,154.036,992.591,152.666,992.679,152.652z M993.663,168.383
							c0,0,0.11,2.417,0.221,4.835c0.137,2.419,0.273,4.839,0.273,4.839C994.132,175.751,993.903,172.146,993.663,168.383z"/>
						<path fill="#FFFFFF" d="M8.308,92.83c0.008,0.979,0.018,2.106,0.025,2.994C8.354,95.149,8.338,93.958,8.308,92.83z"/>
						<path fill="#FFFFFF" d="M785.809,10.107l-5.633-0.043C782.375,10.081,784.178,10.095,785.809,10.107z"/>
						<path fill="#FFFFFF" d="M659.366,12.575l-8.229,0.176C654.385,12.747,656.93,12.675,659.366,12.575z"/>
						<path fill="#FFFFFF" d="M11.469,26.119l0.012-0.28c-0.005-0.469-0.009-0.827-0.014-1.322L11.469,26.119z"/>
						<path fill="#FFFFFF" d="M405.784,10.285c-1.253-0.069-2.66-0.131-4.584-0.178C401.429,10.19,403.143,10.248,405.784,10.285z"
							/>
						<path fill="#FFFFFF" d="M660.882,12.542c-0.211-0.007-0.332-0.011-0.499-0.017c-0.319,0.016-0.671,0.033-1.017,0.05
							L660.882,12.542z"/>
						<path fill="#FFFFFF" d="M841.494,12.726c1.208-0.025,2.309-0.048,3.606-0.075C843.399,12.663,842.357,12.691,841.494,12.726z"
							/>
						<path fill="#FFFFFF" d="M833.562,10.302c1.298-0.028,2.538-0.055,3.505-0.075L833.562,10.302z"/>
						<path fill="#FFFFFF" d="M985.166,39.266c0,0-0.263,1.904-0.525,3.809c-0.124,0.953-0.278,1.903-0.345,2.62
							c-0.068,0.717-0.114,1.195-0.114,1.195c0.171-1.88,0.445-3.367,0.598-4.601C984.938,41.056,985.062,40.086,985.166,39.266z"/>
						<path fill="#FFFFFF" d="M853.632,10.91c0.44-0.038,0.882-0.075,1.177-0.112C853.76,10.821,853.261,10.87,853.632,10.91z"/>
						<path fill="#FFFFFF" d="M6.332,141.24c-0.003-0.173-0.007-0.359-0.009-0.461l-0.101-0.191L6.332,141.24z"/>
						<path fill="#FFFFFF" d="M8.105,159.502c0.134,2.182,0.273,4.453,0.41,6.686C8.394,163.703,8.245,161.283,8.105,159.502z"/>
						<path fill="#FFFFFF" d="M295.613,9.125c-2.008-0.119-6.721-0.257-4.521-0.4C287.249,8.909,287.506,9.337,295.613,9.125z"/>
						<path fill="#FFFFFF" d="M0.667,104.217c0.08,1.191,0.126,2.673,0.17,4.164C0.791,105.61,0.758,103.187,0.667,104.217z"/>
						<path fill="#FFFFFF" d="M0.836,108.381c0.025,1.403,0.051,2.903,0.074,4.159C0.884,111.078,0.859,109.675,0.836,108.381z"/>
						<path fill="#FFFFFF" d="M346.691,1.997c0.499,0.057,1.272,0.103,2.321,0.117C348.706,1.999,347.868,1.976,346.691,1.997z"/>
						<path fill="#FFFFFF" d="M8.653,171.601c0.531,1.184,1.372,30.287,1.039,5.798c0.388,0.462,0.483,4.39,0.576,9.019
							c0.075,4.629,0.161,9.954,0.213,13.221c0.17-4.739,0.396,2.357,0.619,0.919c-0.018-3.235-0.333-7.095-0.344-12.453
							c0.231-2.473,0.609,5.668,0.512,12.017c0.399-7.815,0.403,9.919,0.765-1.144c-0.148-5.926-0.285-11.418-0.413-16.583
							c-0.037-1.29-0.074-2.561-0.11-3.813c-0.082-1.253-0.162-2.486-0.241-3.703c-0.169-2.433-0.334-4.797-0.495-7.106
							c-0.353-4.565-0.69-8.913-1.018-13.151c-0.391-4.104-0.592-8.236-0.875-12.34c0.041,1.665,0.082,3.354,0.123,5.057
							c0.021,0.851,0.041,1.706,0.062,2.563l0.136,2.535c0.188,3.423,0.376,6.859,0.561,10.22c0.176,3.425,0.348,6.773,0.511,9.958
							c0.143,3.186,0.296,6.209,0.229,8.976c0,0-0.153-1.158-0.307-2.317c-0.069-0.579-0.164-1.158-0.241-1.593
							c-0.073-0.434-0.122-0.724-0.122-0.724c-0.077-6.26-0.304-11.322-0.583-16.352c-0.131-2.465-0.263-4.923-0.401-7.519
							c-0.168-2.559-0.201-5.322-0.224-8.361c0,0,0.004,1.707,0.01,4.266c0.021,2.552,0.182,5.893,0.278,9.266
							c0.277,6.906,0.555,13.812,0.555,13.812c0.202,12.95-0.339,4.297-0.954-5.878C8.635,168.692,8.717,170.961,8.653,171.601z"/>
						<path fill="#FFFFFF" d="M2.982,153.322l0.005,0.467c0.038,0.407,0.073,0.911,0.107,1.168L2.982,153.322z"/>
						<path fill="#FFFFFF" d="M996.27,39.497l-0.152,2.333C996.322,39.895,996.351,39.292,996.27,39.497z"/>
						<path fill="#FFFFFF" d="M5.306,136.846l0,0.019C5.298,136.679,5.297,136.634,5.306,136.846z"/>
						<path fill="#FFFFFF" d="M968.393,1.192c0.085-0.011,0.169-0.022,0.317-0.041C968.497,1.164,968.496,1.18,968.393,1.192z"/>
						<path fill="#FFFFFF" d="M952.59,12.771c0.108,0.025,0.141,0.049,0.395,0.075C954.231,12.818,953.627,12.791,952.59,12.771z"/>
						<path fill="#FFFFFF" d="M968.347,1.242c0.001-0.017-0.038-0.034,0.046-0.05C968.348,1.208,968.244,1.224,968.347,1.242z"/>
						<path fill="#FFFFFF" d="M682.825,2.55c0,0,0.901,0.096,2.321,0.19C685.696,2.691,685.146,2.631,682.825,2.55z"/>
						<path fill="#FFFFFF" d="M739.168,3.503c0.358,0.022,0.569,0.035,1.029,0.063L739.168,3.503z"/>
						<path fill="#FFFFFF" d="M308.943,11.551c2.788,0.002,4.879-0.015,6.644-0.042C313.553,11.5,311.354,11.506,308.943,11.551z"/>
						<path fill="#FFFFFF" d="M968.71,1.151c0.594-0.046,1.439-0.088,2.837-0.127C970.008,1.064,969.194,1.108,968.71,1.151z"/>
						<path fill="#FFFFFF" d="M596.912,5.072c0.602-0.019,1.164-0.037,1.733-0.055c-0.346-0.01-0.69-0.021-1.029-0.03L596.912,5.072
							z"/>
						<path fill="#FFFFFF" d="M567.51,4.595c1.005-0.059,1.465-0.122,2.027-0.176c-10.493,0.198-29.773-0.098-32.057,0.475
							c3.562-0.005,22.022,0.384,18.876,0.714c7.315-0.125,18.129,0.309,22.067,0.224c-12.008-0.348-1.297-0.492,6.812-0.666
							c7.373,0.188-1.388,0.462,4.962,0.586l17.061-0.02l-14.861-0.115l4.516-0.545c-0.55,0.018-0.927,0.03-1.516,0.049
							C570.253,5.315,593.262,4.301,567.51,4.595z"/>
						<path fill="#FFFFFF" d="M569.537,4.418c1.573-0.031,2.955-0.07,4.029-0.126C571.194,4.295,570.273,4.349,569.537,4.418z"/>
						<path fill="#FFFFFF" d="M466.813,3.317c-1.292,0.028-2.692,0.058-4.451,0.097C463.2,3.395,465.144,3.353,466.813,3.317z"/>
						<path fill="#FFFFFF" d="M993.063,230.829c0.133-0.454-0.669-15.084-1.075-14.79c0.293,4.339,0.589,8.709,0.885,13.099
							L993.063,230.829z"/>
						<path fill="#FFFFFF" d="M186.983,6.323c1.63,0,3.268,0.001,4.904,0.002c0.352-0.025,0.69-0.049,0.953-0.068
							C191.843,6.196,188.614,6.28,186.983,6.323z"/>
						<path fill="#FFFFFF" d="M551.829,5.797c2.686-0.059,3.882-0.123,4.527-0.189C554.617,5.637,553.012,5.688,551.829,5.797z"/>
						<path fill="#FFFFFF" d="M186.06,5.308c-2.079-0.118-5.142-0.299-5.578-0.461c-4.252,0.004-7.238,0.234-11.567,0.322
							C173.8,5.097,179.454,5.129,186.06,5.308z"/>
						<path fill="#FFFFFF" d="M168.563,5.177c0.121-0.003,0.243-0.006,0.352-0.008C168.793,5.171,168.685,5.174,168.563,5.177z"/>
						<path fill="#FFFFFF" d="M993.551,239.535c0.126,1.254,0.255,2.546,0.389,3.876l-0.27-2.013
							c0.208,3.365,0.414,6.71,0.621,10.063c0.107,1.211,0.223,2.523,0.365,4.136c-0.062-0.65-0.144-1.15-0.212-1.46
							c0.061,1.092,0.121,2.159,0.181,3.226c0.254,1.994,0.554,4.733,0.871,7.811c0.277,3.082,0.585,6.5,0.886,9.848
							c0.29,3.35,0.573,6.629,0.815,9.43c0.209,2.805,0.39,5.13,0.523,6.567c0.132,1.905,0.271,3.916,0.412,5.952
							c0.065,1.02,0.131,2.044,0.196,3.065c0.032,0.545,0.064,1.089,0.096,1.631l0.037,0.922c-0.041,0.306-0.051,0.614-0.078,0.92
							c-0.207,2.5-1.925,4.48-3.609,5.871c-0.417,0.308-0.827,0.609-1.228,0.904c-0.397,0.277-0.801,0.493-1.187,0.731
							c-0.771,0.49-1.53,0.81-2.226,1.168c1.293-0.63,2.688-1.356,3.949-2.311c0.306-0.237,0.656-0.465,0.958-0.746
							c0.302-0.289,0.599-0.573,0.887-0.849c0.299-0.266,0.516-0.588,0.745-0.879c0.215-0.302,0.461-0.563,0.611-0.866
							c0.685-1.165,0.915-2.218,0.955-2.764c0.005-0.559-0.042-0.614-0.155,0.014c-0.314,1.62-1.224,2.918-2.206,3.983
							c-0.549,0.475-1.065,1.003-1.63,1.372c-0.56,0.366-1.064,0.762-1.624,1.038c-2.178,1.23-4.39,2.089-6.856,2.892
							c-4.935,1.604-10.889,3.089-20.258,4.983c0,0,0.69-0.116,1.727-0.289c1.034-0.192,2.413-0.449,3.792-0.705
							c2.754-0.535,5.494-1.179,5.494-1.179s-0.383,0.102-1.052,0.279c-0.669,0.177-1.624,0.439-2.777,0.709
							c-2.302,0.576-5.388,1.251-8.483,1.871s-6.201,1.166-8.533,1.564c-2.334,0.379-3.89,0.632-3.89,0.632
							c-4.407,0.302-1.295-0.145,3.336-0.843c4.632-0.688,10.77-1.781,12.462-2.266c-9.629,1.906-18.569,2.693-26.18,3.288
							c-7.615,0.578-13.923,0.938-18.408,1.664c-1.308-0.413-3.49-1.023-16.258-0.27c9.242,0.06-7.641,0.765-0.052,0.958
							c-4.402,0.52-14.27,0.511-14.989,0.893l1.188-0.251c-21.861,0.103-28.972,1.413-38.313,2.052
							c-26.157,0.759-38.176,0.535-59.508,0.795c-0.841-0.321-6.653-1.177-15.21-1.104c-3.976,0.469-23.276,0.729-25.246,1.294
							c15.3,0.203,12.516-0.505,21.674-0.672c7.627,0.56,0.693,0.588,11.108,0.889c-8.406-0.163-37.975,0.451-47.179-0.112
							l3.249-0.081c-14.691-0.33-17.497-1.731-41.971-0.901l-11.677,0.338c0.563-0.056,0.626-0.122,0.927-0.173
							c-19.113-0.072-13.895-0.719-34.996-0.211c1.63-0.039,0.607-0.102,2.264-0.14c-12.028-0.324-24.16,0.292-33.253,0.416
							c-5.551-0.48,1.317-0.464,4.751-0.802c-21.16-0.21-43.996,0.57-57.138,1.13l-13.64-0.296c8.09-0.185,17.977-0.67,15.508-0.959
							c-7.501,0.085-6.05,0.311-16.658,0.205c1.81-0.3,6.261-0.576,11.249-0.949c-21.939-0.535-4.905,1.065-20.259,0.117
							c-6.893-0.016-10.896,0.421-11.651,0.785l-12.488-0.494c-1.389,0.463-16.807,0.469-26.91,0.526
							c-1.235,0.198,8.133,0.507,11.964,0.332c-0.755,0.364-11.505,0.521-18.418,0.505c-2.53-0.979-45.263,0.081-37.087-1.058
							c-31.054,0.279-74.68,0.291-95.175,0.778c-6.758-0.258-20.532-0.249-12.275-0.721c-24.997,0.037-37.89,1.059-62.7,0.833
							c-2.053-0.119,11.216-0.027,10.334-0.351c-16.217,0.417-29.504-0.365-54.667-0.063c4.233-0.024,5.468-0.228,6.056-0.33
							c0.441,0.161-10.309,0.353-16.818,0.52c-3.658-0.078,4.873-0.125,2.82-0.246c-48.605-0.394-85.636,0.993-133.978,1.028
							c6.903-0.005,11.658-0.172,14.707-0.369c3.048-0.198,4.39-0.429,4.463-0.561l-13.524,0.011
							c-5.208,0.335-15.374,0.362-23.879,0.453c-1.042-0.135-5.174-0.342-0.954-0.419c-13.362-0.563-23.8-0.657-35.01-1
							c-5.604-0.185-11.401-0.428-17.846-0.994c-3.223-0.288-6.606-0.652-10.213-1.228c-1.805-0.292-3.663-0.631-5.6-1.12
							c-0.971-0.25-1.956-0.523-2.994-0.928c-0.519-0.201-1.053-0.438-1.636-0.792c-0.143-0.085-0.293-0.185-0.454-0.312
							c-0.149-0.104-0.322-0.262-0.489-0.431c-0.32-0.353-0.774-0.896-0.825-1.832c0.01-0.036-0.008,0.619,0.413,1.279
							c0.408,0.629,0.99,1.035,1.602,1.362c1.236,0.644,2.811,1.076,4.7,1.481c3.765,0.794,8.725,1.341,13.692,1.747
							c4.965,0.404,9.927,0.647,13.648,0.801c3.721,0.129,6.201,0.214,6.201,0.214s-2.441-0.274-4.882-0.55
							c-2.437-0.3-4.874-0.6-4.874-0.6s4.355,0.21,8.712,0.333c4.356,0.132,8.712,0.193,8.712,0.193
							c-10.365-0.849-19.438-0.81-20.644-1.421c2.198,0.072,7.471,0.52,7.656,0.26c-4.967-0.458-7.645-0.666-10.02-0.816
							c-2.373-0.158-4.446-0.249-8.163-0.687c9.835,0.823,24.434,1.603,39.19,2.008c14.757,0.424,29.654,0.483,40.09,0.319
							c3.287-0.084-2.814,0.245-3.395,0.346c8.522-0.045,13.64,0.256,24.37,0.066c6.663-0.433-5.084-0.302-10.373-0.337
							c0.729-0.367,3.389-0.35,9.279-0.415c1.279,0.486,32.333,0.12,39.924,0.704c31.469-0.205-5.033-1.256,25.688-1.094
							l9.177,0.543c17.835-0.461,40.902-0.881,61.085-0.795l-4.253,0.025c-2.833,0.243,1.848,0.383,3.919,0.501
							c15.251,0.215,28.957-0.485,38.197,0.059c17.395-0.623,46.397-1.11,66.287-1.448c5.363,0.728-25.946,0.667-34.223,1.141
							l18.104-0.032c-11.191,0.027-15.611,0.315-22.32,0.745c15.865,0.11,21.085-0.542,36.126-0.753
							c-1.171,0.201,0.837,0.321,7.775,0.316l1.971-0.493c0.128,0.04,0.895,0.076,3.037,0.104l26.763-0.313
							c-5.678-0.213-5.951-0.65-12.864-0.649c2.468,0.281-3.397,0.348-10.316,0.351c6.063-0.329-6.746-0.258-6.598-0.522
							c13.872-0.026,30.913-0.079,40.006-0.191l2.953,0.455c13.217,0.131,27.177-0.102,36.141,0.041l-2.827,0.235
							c15.858,0.159,31.474-0.11,45.553,0.348c14.146-0.495,31.955-0.9,43.516-1.423c6.185-0.573,41.505,0.784,57.453-0.013
							c1.074,0.063-10.953,0.423-16.396,0.636c10.608,0.104,19.043-0.607,22.367,0.009c-23.806-0.237,1.279,0.489-9.444,0.649
							c11.146,0.003,22.898-0.092,28.365-0.303c-18.038-0.02,6.407-0.837-11.854-0.595c14.15-0.496,33.461-0.676,50.323-0.454
							c-0.167,0.265,1.912,0.391,8.199,0.497l5.072-0.382c7.893,0.071-15.261,0.45,0.626,0.591
							c16.349-0.651,49.222,0.411,56.376-0.803c12.455,0.484-23.702,0.474-4.93,1.068c-10.921,0.433-25.986-0.083-29.588,0.519
							c10.705-0.163,3.907,0.515,10.813,0.526l11.938-0.363l-2.641-0.025c20.034-0.555,51.771-0.271,77.343-0.516
							c21.657-0.751,36.554-1.742,62.503-2.181c-7.652,0.535,21.556-0.146,5.236,0.885c6.009,0.024,11.974-0.151,16.463-0.371
							c4.489-0.221,7.504-0.482,7.618-0.62c-10.56,0.243-3.715,0.045-12.612,0.168c5.997-0.469,19.825-0.918,25.51-0.96
							c-2.633,0.086-1.63,0.105-2.206,0.23c12.599-0.32,6.022-0.563,15.104-1.134c1.453,0.155,6.471-0.075,12.156-0.422
							s12.033-0.835,16.172-1.057c0,0,2.978-0.419,5.954-0.839c2.968-0.449,5.935-0.898,5.935-0.898
							c-3.253,0.54-0.392,0.302,3.515-0.09c3.911-0.378,8.836-1.009,9.793-0.948c4.214-0.736,8.058-1.534,12.381-2.519
							c2.153-0.507,4.438-1.038,6.906-1.696c2.477-0.638,5.143-1.413,7.948-2.426c-1.139,0.478-1.064,0.501-0.301,0.269
							c0.764-0.227,2.218-0.728,3.633-1.39c0.747-0.312,1.387-0.7,2.041-1.048c0.262-0.18,0.579-0.392,0.773-0.508
							c0.218-0.13,0.323-0.239,0.481-0.351c0.573-0.444,0.872-0.911,0.988-0.891c0.144-0.306,0.261-0.632,0.271-0.968
							c0.024-0.163,0.021-0.338,0.014-0.514l-0.023-0.693c-0.061-1.35-0.119-2.673-0.177-3.973
							c-0.128-2.599-0.273-5.104-0.431-7.542c-0.286-4.877-0.738-9.491-1.151-14.066c-0.797-9.15-1.718-18.153-2.182-28.837
							c0.151,0.655,0.753,4.94,0.389-1.305c-0.498-4.904-1.105-13.505-1.562-18.763l0.025,0.164
							c-0.013-0.102-0.021-0.165-0.033-0.272c-0.224-2.575-0.402-4.19-0.511-4.247c-1.117-8.971-1.915-13.579-3.552-31.317
							c-0.417,1.344,0.896,16.32,1.546,22.792l0.915,5.563c-0.314,5.412,1.368,15.97,1.431,20.056
							c-1.646-10.541-3.941-41.172-5.601-59.607c-0.009,11.307,1.772,35.74,3.506,56.955l-0.429-9.374l0.866,11.108l-0.312-10.793
							c0.714,10.532,1.578,19.62,2.207,29.116c-0.793-11.115-0.489-15.512-0.104-9.202c0.398,12.429,1.274,12.896,1.853,22.369
							c-0.261-5.272-0.797-12.138-0.186-7.732c0.363,9.362,0.624,15.288,0.939,21.009c0.146,2.859,0.225,5.663,0.322,8.816
							c0.038,1.576,0.078,3.239,0.122,5.039c0.016,0.899,0.032,1.834,0.049,2.809c0.008,0.487,0.015,0.984,0.021,1.493l0.002,0.18
							l-0.004,0.053l-0.009,0.106c-0.008,0.068-0.008,0.146-0.022,0.207c0.106-0.05,0.183-0.016,0.233,0.11
							c0.061,0.125,0.071,0.341-0.018,0.596c-0.088,0.255-0.288,0.531-0.564,0.779c-0.049,0.062-0.195,0.142-0.342,0.257
							c-0.182,0.127-0.333,0.264-0.543,0.396c-0.471,0.255-0.859,0.554-1.415,0.811c-2.081,1.085-4.756,2.029-6.961,2.746
							c-2.233,0.702-4.007,1.222-4.559,1.528c0,0,0.456-0.111,1.142-0.277c0.692-0.157,1.586-0.404,2.478-0.651
							c0.905-0.233,1.764-0.518,2.417-0.719c0.658-0.198,1.076-0.349,1.076-0.348c0,0-0.211,0.095-0.614,0.232
							c-0.398,0.143-0.968,0.347-1.65,0.591c-1.387,0.47-3.279,1.054-5.215,1.588c-3.876,1.064-7.898,1.899-7.898,1.899
							c-15.024,1.872,13.098-2.811-9.699,0.405c-10.64,1.396-15.822,2.077-20.44,2.683c-4.639,0.622-8.709,1.214-17.195,1.819
							c5.559-0.86,18.991-2.194,32.472-3.865c0,0-2.044,0.21-4.101,0.374c-2.056,0.167-4.111,0.335-4.111,0.335
							c2.154-0.37,7.926-1.024,14.229-1.964c6.308-0.92,13.128-2.165,17.454-3.277c-1.763,0.537-3.049,0.833-3.829,1.069
							c-0.793,0.221-1.133,0.311-1.095,0.331c0.076,0.045,1.61-0.27,3.798-0.758c2.161-0.519,4.959-1.242,7.459-2.067
							c2.508-0.818,4.629-1.765,5.76-2.344c0.145-0.221-0.142-0.15-0.524,0.007c-0.366,0.162-0.983,0.374-1.291,0.494
							c-0.324,0.115-0.412,0.114,0.089-0.197c0.227-0.161,0.707-0.374,1.174-0.727c0.228-0.173,0.594-0.36,0.833-0.583
							c0.278-0.246,0.535-0.419,0.557-0.495c-0.039,0.06-0.275,0.194-0.594,0.443c-0.277,0.222-0.707,0.427-1.021,0.635
							c-0.321,0.211-0.755,0.386-1.1,0.572c-0.349,0.188-0.723,0.355-1.105,0.511c-0.372,0.159-0.733,0.314-1.086,0.465
							c-0.378,0.139-0.747,0.274-1.112,0.409c-0.715,0.279-1.475,0.512-2.244,0.757c-3.111,0.945-6.699,1.91-13.467,3.064
							c7.297-1.288,12.37-2.738,15.926-4.216c0.923-0.35,1.649-0.749,2.395-1.094c0.636-0.382,1.333-0.721,1.774-1.077
							c0.225-0.173,0.53-0.337,0.678-0.498c0.141-0.131,0.278-0.259,0.415-0.385c0.06-0.104,0.052-0.17,0.054-0.251
							c-0.005-0.167-0.085-0.237-0.181-0.384c-0.015,0.134-0.065-0.5-0.104-0.883c-0.039-0.428-0.079-0.862-0.119-1.307
							c-0.074-0.89-0.151-1.817-0.232-2.799c-0.323-3.932-0.525-8.725-0.842-15.396c0.251,3.07,0.381,4.334,0.46,4.48
							s0.133-0.822,0.124-2.224c-0.003-2.804-0.111-7.33-0.044-8.077c-0.218-2.894-0.497-7.269-0.857-11.532
							c-0.37-4.262-0.73-8.403-0.939-10.817l-0.358,4.423c-0.691-7.765-0.808-13.032-1.008-18.601
							c-0.192-5.563-0.461-11.43-1.511-20.413c-0.584-2.311,1.097,15.856,0.766,12.618c-1.167-12.303-1.665-20.695-1.971-28.776
							c-0.343-8.066-0.445-15.823-0.921-26.825c-0.289-1.23-0.689-0.947-1.467-8.636c0.535,2.398,0.432-3.314,1.198,5.336
							c-0.211-7.375-1.058-16.071-1.4-22.589c0.343,15.385-0.817-6.265-1.166-9.096c-0.222-7.972,0.488,2.418,0.796,7.312
							c-0.066-3.199-0.021-6.703-0.054-9.857c0.026-3.16-0.018-5.972-0.353-7.787c0.236-0.132,0.509,4.349,0.963,10.319
							c0.233,2.985,0.47,6.347,0.684,9.701c0.21,3.353,0.42,6.699,0.604,9.653c0,0-0.089-1.992-0.177-3.983
							c-0.059-1.996-0.117-3.992-0.117-3.992c0.405,5.491,0.453,6.512,0.802,14.42c-0.09-7.754,0.315-7.006,0.716-5.221
							c-0.007,1.016-0.132-0.559-0.14,0.412c0.237,6.365,0.618,11.238,0.765,9.75c0.881,5.683-0.122-8.839-0.071-13.158
							c-0.226-3.251-0.34-6.516-0.514-9.709c0,0-0.192-2.063-0.481-5.159c-0.145-1.549-0.313-3.356-0.493-5.292
							c-0.142-1.94-0.292-4.011-0.443-6.081c-0.298-4.146-0.597-8.291-0.82-11.4c-0.129-1.555-0.149-2.856-0.204-3.765
							c-0.042-0.91-0.066-1.429-0.066-1.429c-0.022-3.553-0.008-6.618,0.031-9.382c0.043-2.765,0.082-5.228,0.262-7.583
							c0.325-4.703,0.619-8.967,0.987-14.299c0,0-0.094-0.739-0.188-1.478c-0.07-0.74-0.142-1.479-0.142-1.479
							c0.474-6.184,0.963-12.19,1.339-15.651c0.167-1.732,0.409-2.821,0.521-2.984c0.139-0.162,0.125,0.602,0.138,2.595
							c-0.195,0.43-0.275,2.064-0.494,4.745c0.04,0.36,0.042,0.982,0.023,1.765c0.018,0.26,0.027,0.404,0.041,0.619
							c0.215-3.308,0.354-6.31,0.575-8.955c0.262-2.643,0.488-4.937,0.676-6.841c0.373-3.811,0.593-6.063,0.63-6.444
							c-1.785,22.478,0.762,1.214,1.209,5.065c0,0,0.14-1.411,0.349-3.528c0.104-1.059,0.227-2.294,0.357-3.618
							c0.065-0.662,0.133-1.346,0.202-2.041c0.097-0.692,0.194-1.395,0.293-2.097c0.796-5.624,1.592-11.248,1.592-11.248
							c-2.374,13.572-0.46,0.185,0.172-4.676c0.187-0.41,0.688-2.418,1.247-5.228c0.276-1.406,0.591-3.008,0.925-4.704
							c0.125-0.667,0.254-1.354,0.385-2.049c0.068-0.391,0.138-0.787,0.206-1.182c0.075-0.432,0.15-0.863,0.224-1.286
							c0.008-0.203,0.148-0.429,0.014-0.608c-0.146-0.156-0.355-0.225-0.547-0.293c-0.789-0.234-1.532-0.313-2.142-0.408
							l0.306-0.063c-0.425-0.078-0.81-0.14-1.394-0.208c-0.449-0.045-0.913-0.091-1.389-0.139c-0.548-0.045-1.109-0.091-1.684-0.139
							c-2.304-0.176-4.832-0.307-7.426-0.401c-5.188-0.19-10.638-0.237-15.17-0.219c0.413,0.152-11.225,0.878-16.822,1.398
							c15.574,0.173,6.329,0.381,7.579,0.678c-1.609-0.031-4.506-0.035-4.844,0.029c-2.229,0.142,3.025,0.181,3.463,0.346
							c8.267-0.108,16.638-0.097,23.725,0.005c3.542,0.05,6.761,0.125,9.471,0.206c0.674,0.021,1.319,0.042,1.934,0.062
							c0.152,0.005,0.303,0.01,0.451,0.015c0.142,0.004,0.333,0.013,0.347,0.006c0.109-0.006,0.216-0.013,0.319-0.019
							c0.323-0.049,0.607-0.093,0.847-0.129c-0.148-0.061-0.307-0.105-0.468-0.138c-0.166-0.032-0.298-0.049-0.547-0.067
							c-0.459-0.027-0.91-0.054-1.36-0.081c-0.538-0.02-1.074-0.04-1.615-0.059c-2.172-0.062-4.446-0.078-7.244-0.291
							c1.572-0.029,3.229-0.024,4.967,0.021c0.864,0.033,1.752,0.066,2.663,0.101c0.836,0.052,1.693,0.104,2.573,0.159
							c0.172,0.012,0.346,0.023,0.522,0.035c0.153,0.015,0.309,0.029,0.466,0.043c0.314,0.035,0.638,0.08,0.964,0.152
							c0.162,0.039,0.327,0.08,0.484,0.149c0.157,0.054,0.322,0.205,0.231,0.389c-0.069,0.343-0.141,0.694-0.215,1.053
							c-0.392,1.922-0.81,3.965-1.249,6.12l-1.312,4.43c0,0-0.04,0.217-0.11,0.596c-0.071,0.379-0.176,0.921-0.257,1.577
							c-0.182,1.31-0.423,3.056-0.665,4.802c-0.482,3.491-0.965,6.981-0.965,6.981c0.341-2.922,0.271-3.526,0.388-5.229
							c0.059-0.852,0.163-1.978,0.391-3.807c0.121-0.914,0.266-2.004,0.441-3.325c0.22-1.314,0.53-2.85,0.881-4.669
							c-0.938,1.758-2.366,14.501-3.847,23.443l0.026,4.669c-0.104-1.813-2.307,17.449-1.194,3.713c0,0,0.128-1.396,0.318-3.49
							c0.097-1.047,0.208-2.27,0.328-3.579c0.063-0.655,0.126-1.331,0.191-2.018c0.092-0.685,0.185-1.38,0.278-2.076
							c0.746-5.568,1.492-11.137,1.492-11.137l-1.32,6.119c0,0,0.699-4.703,1.399-9.406c0.301-2.359,0.846-4.682,1.165-6.438
							c0.343-1.752,0.571-2.92,0.571-2.92l-0.61,4.457c0.522-2.715,0.966-5.011,1.341-6.96c0.093-0.458,0.177-0.875,0.253-1.256
							c0.013-0.048,0.027-0.093,0.043-0.136c0.04-0.112,0.089-0.214,0.146-0.315c0.063-0.114,0.002-0.162,0.007-0.223
							c-0.021-0.114-0.019-0.225-0.105-0.328c-0.045-0.051-0.114-0.1-0.227-0.142c-0.056-0.021-0.123-0.04-0.202-0.058
							c-0.072-0.01-0.148-0.021-0.229-0.033c-0.234-0.022-0.483-0.045-0.747-0.07c-2.595-0.228-6.5-0.427-12.587-0.477
							c-9.326,0.395-19.389,0.375-37.854,0.338c13.357-0.222,1.371-0.474,6.395-0.882c-6.814-0.107-11.364,0.007-15.163,0.147
							c-3.761,0.161-6.7,0.286-10.257,0.438c-3.478-0.357-5.95-0.648,6.25-0.566c1.531-0.725-16.051,0.084-17.159-0.67
							c-40.419-0.084-32.397,2.34-79.641,1.278l1.772-0.298c-30.003,0.298-47.311-0.109-75.094,0.056l-21.872-0.828
							c4.892-0.105,18.046-0.646,11.909-1.034c10.638,0.808,21.931,0.565,33.395,1.013c1.17-0.199-3.497-0.358-5.53-0.488
							c6.919,0.025,10.39,0.384,19.527,0.273c-0.44-0.162-10.408-0.381-2.895-0.457l12.429,0.512
							c16.632-0.185,8.195-1.126,27.729-0.855c-3.633,0.418-11.053,1.018-18.618,1.101c8.927,0.116-11.9,0.228-3.755,0.505
							c12.861-0.6,19.068-0.082,36.168-0.434c-2.009,0.083-2.54,0.206-6.747,0.234l24.809,0.333
							c-6.137-0.387,20.495-0.354,18.189-0.91c-26.439-0.298-18.672,0.055-48.801-0.336c8.53-0.103,19.531-0.634,24.688-1.136
							c0.262,0.022,0.696,0.041,1.624,0.053c4.605-0.533-0.087-0.692,0.006-1.645c-13.757,0.642-22.949,0.06-39.174,0.407
							c-3.052,0.514,9.41,0.69,17.474,0.577l-14.293,0.308l2.814-0.233l-36.274-0.27c6.874-0.01,9.209-0.307,12.797-0.525
							c-4.681-0.033-9.315-0.183-14.245-0.347c1.034,0.5,0.381,0.851-4.185,0.829c-23.34-0.179-36.313-0.661-44.924-1.252
							c-0.896,0.009-1.906,0.02-2.718,0.028c3.911,0.521-16.577,0.874-23.811,1.376c0.359-0.526-12.027-0.348-18.753-0.635
							c-3.583,0.596,1.191,1.444,9.382,1.961c15.782-0.512,8.845-0.535,16.303-1.301l25.316-0.458l-5.66,0.469
							c12.635,0.246,24.772-0.36,23.844,0.266c-6.677,0.401-17.7,0.118-24.326,0.521l8.357,0.251
							c-14.747,0.579-7.557-0.615-25.411-0.231c6.565,0.552-1.617,0.034-9.267,0.372c6.138,0.388,31.436-0.069,26.067,0.825
							c-9.285,0.372-31.232-1.146-43.519-0.276l0.602-0.101c-18.121-0.165-24.491,0.337-31.276,0.645
							c-7.711-0.314-18.357,0.072-26.715,0.083l0.205-0.264l-11.791,0.08c5.615-0.467,13.817,0.049,23.946,0.006l-1.259-0.494
							c11.675,0.613,19.465-0.251,28.521-0.65c-13.18,0.39-37.215-0.218-40.312,0.733l-8.152-0.517l-3.9,0.169
							c-6.074-0.388,0.13-0.955,11.908-1.035c2.046,0.129,3.068,0.193,2.448,0.294c5.468-0.205,10.488-0.572,23.718-0.425
							l-7.06,0.241c16.472,0.078,31.447-0.072,37.088-0.539c-23.78-0.268-47.164-0.373-69.493-0.409
							c-6.588,1.092-14.403,1.694-17.762,2.716c-14.981,0.15-35.322,0.238-48.334-0.173l1.196-0.2
							c-6.35-0.122-12.2-0.082-17.079,0.022c-6.707-0.288,4.592-0.533-0.082-0.692l-21.46,0.29
							c1.324-0.463,19.382-0.418,27.956-0.429c-1.617,0.036-4.885,0.104-3.836,0.17c9.975,0.218,28.557-0.528,32.917,0.159
							c4.859-0.104-9.873,0.472,6.579,0.55c11.017,0.284,14.604-0.313,15.756-0.512c0.18-0.264-17.289-0.408-11.228-0.71
							c-8.574,0.011-11.989,0.342-22.955,0.059c8.498-0.01,20.04-0.516,24.567-0.093c16.805-0.448,14.396-1.695,6.474-1.784
							c1.886,0.394-30.655,0.398-8.621,0.963c-9.899,0.474-27.982,0.43-40.932,0.708l0.589-0.098l-16.076,0.083
							c2.265-0.133,7.124-0.238,7.284-0.5l-22.266,0.649c12.533-0.442-7.769-0.351-13.473-0.575
							c-2.385,0.398-11.082,0.671-2.737,0.924c9.381,0.318,5.461-0.205,13.991-0.213l-12.079,0.606l-1.036-0.065l-7.271,0.503
							c-16.452-0.039,7.188-1.235-13.895-0.693l2.743,0.706c-24.407-0.06-55.751-0.801-72.997-0.441
							c4.757-0.413,6.854-1.067,0.313-1.441c7.437,0.108,22.38,0.055,33.046-0.031c2.052,0.121-13.326,0.865-24.912,0.733
							c5.614,1.153,29.145-0.757,30.507,0.42c29.522,0.368,22.022-1.202,47.082-0.507c0.345-0.526,7.123-0.239,8.44-0.7
							c-7.417-0.918-33.5,0.025-49.761-0.241c1.592-0.041,4.796-0.126,5.422-0.227c-11.625-0.132-16.427-0.006-24.548,0.204
							l1.023,0.061c-14.189,0.541-8.78-0.377-17.131-0.593c-3.235,0.084-14.848-0.047-12.98,0.336L386.85,9.267l0.729,0.587
							c-8.53,0.05-10.398-0.335-18.128,0.038l-0.357,0.527l21.185,0.145c-10.736,0.191-2.992,0.509-14.79,0.642
							c13.178-0.601-9.323-0.275-10.622-0.761l-8.677,0.313l2.219-0.145c-6.81-0.258-8.107,0.211-16.056,0.157
							c9.374,0.276,15.513,0.635,27.457,0.238c-8.696,0.313-25.941,0.672-30.174,0.698c-9.131,0.238-15.506-0.152-24.049-0.195
							c16.395-0.242-5.744-1.586,27.111-1.269c-0.607,0.102-3.268,0.084-4.297,0.024c4.381,0.665,19.695-0.079,26.818-0.349
							c-1.835-0.384,5.614-0.494-7.015-0.685c4.144,0.24-10.64,0.883-22.655,0.588l2.115-0.833l-17.495-0.065l1.637-0.042
							c-6.581-0.522-18.665,0.138-30.713-0.154c-8.696,0.312-42.063,0.139-27.705,0.979c-10.814-0.499-20.302,0.18-32.1,0.313
							l14.708,0.311c-17.385,0.625-12.379,0.233-26.291,1.203c-1.407-0.224-4.509-0.405-1.683-0.648
							c-23.359,0-56.719-0.173-70.42,0.531c-16.465-0.005-19.052-0.978-42.153-0.551c-4.866,0.126,3.794,0.768-11.501,0.558
							c-1.03-0.06,14.724-0.642-2.31-0.544c-12.128,0.66-28.495-0.3-44.274,0.283c-4.155-0.09-9.821-0.066-14.084-0.101
							c-2.112-0.008-3.875-0.016-4.925-0.02c-1.043-0.027-1.379-0.104-0.645-0.258c13.021-0.243,31.76-0.257,34.594-0.529
							c-1.821,0.308,9.388,0.278-0.336,0.53c19.952,0.345,12.947-0.337,30.846-0.109c1.233-0.204-9.204-0.542-13.04-0.354
							c-0.086-0.689,35.29-0.398,19.377-1.196c-19.126-0.024-24.799,1.423-41.376,0.729c6.642-0.432,17.035-0.096,25.473-0.835
							L69.625,8.764L59.741,9.28l0.588-0.103c-6.014-0.146-10.413-0.174-13.962-0.123c-3.541,0.074-6.234,0.217-8.848,0.391
							c-5.241,0.302-10.122,0.871-20.627,1.524c12.217-0.055-2.756,1.276,6.432,1.21c-2.028,0.097-4.008,0.151-5.833,0.262
							c-0.755,0.065-1.49,0.129-2.202,0.19c-0.257,0.031-0.506,0.061-0.747,0.09c-0.464,0.088-0.974,0.111-1.275,0.417
							c-0.11,0.38-0.051,0.754-0.101,1.073c-0.018,0.249-0.041,0.477-0.069,0.683c-0.008,0.052-0.016,0.102-0.023,0.15
							c-0.008,0.056-0.011,0.277-0.017,0.397c-0.015,0.285-0.028,0.544-0.041,0.777c-0.063,0.931-0.164,1.434-0.308,1.457
							c-0.033-0.584-0.064-1.144-0.095-1.674c-0.015-0.265-0.03-0.522-0.044-0.771l-0.017-0.229l-0.014-0.132
							c-0.04-0.355-0.074-0.653-0.099-0.875c-0.048-0.455-0.09-0.851-0.126-1.195c-0.095-0.387,0.212-0.598,0.402-0.704
							c0.419-0.231,0.724-0.316,0.911-0.41c0.386-0.161,0.334-0.243,0.34-0.336c0.013-0.09,0.075-0.216,0.875-0.418
							c0.193-0.082,1.523-0.274,3.108-0.448c1.658-0.116,3.812-0.268,6.612-0.464c-2.019-0.048-0.571-0.354-0.444-0.59
							c0.063-0.118-0.205-0.218-1.407-0.259c-0.601-0.021-1.435-0.026-2.578-0.012c-1.143,0.013-2.604,0.027-4.394,0.192
							c-0.557,0.07-0.858,0.107-1.153,0.158c-0.296,0.051-0.569,0.097-0.821,0.14c-0.498,0.093-0.898,0.187-1.222,0.27
							c-0.644,0.179-0.977,0.319-1.119,0.417c-0.283,0.19,0.149,0.1,0.565,0.059c0.418-0.049,0.819-0.069,0.512,0.041
							c-0.15,0.062-0.485,0.137-1.037,0.378c-0.242,0.129-0.678,0.296-0.715,0.781c0.027,0.451,0.059,0.98,0.095,1.599
							c-0.011,0.12-0.022,0.241-0.029,0.317c-0.033,0.448-0.077,0.763-0.167,0.471c0.031,0.294,0.061,0.573,0.089,0.838
							c0.013,0.144,0.025,0.285,0.038,0.421c0.014,0.21,0.027,0.416,0.041,0.616c0.043,0.803,0.082,1.532,0.118,2.217
							c0.024,0.686,0.047,1.327,0.069,1.952c-0.02,0.622-0.039,1.228-0.058,1.847c-0.1,2.473-0.135,5.157-0.116,9.864
							c0,0,0.009-0.554-0.009-1.113c-0.021-0.56-0.043-1.12-0.043-1.12c-0.465,5.772-0.619,8.911-0.668,11.876
							c-0.121,2.939-0.242,5.678-0.874,10.582c0.85-3.882-0.161,6.624-0.267,12.682c0.431-4.931,1.029-8.73,1.63-13.753
							c0.31-2.524,0.638-5.353,0.987-8.784c0.158-1.725,0.291-3.617,0.441-5.69c0.124-2.082,0.347-4.326,0.394-6.846
							c-0.348-2.445-0.605-0.988-0.612-9.233c0,0-0.063,3.262-0.125,6.523c-0.039,1.629-0.046,3.266-0.105,4.481
							c-0.071,1.212-0.118,2.02-0.118,2.02c0.149-2.783,0.024-4.948,0.02-7.523c0,0,0.031-0.782,0.078-1.956
							c0.034-1.175,0.137-2.735,0.142-4.307c-0.03-1.577-0.06-3.154-0.082-4.337c-0.003-0.61-0.005-1.017-0.005-1.017
							c0.044,0.65,0.084,1.24,0.121,1.778c0.051,0.827,0.097,1.571,0.139,2.243c0.047,0.672,0.088,1.271,0.125,1.807
							c0.013,0.532,0.023,1,0.033,1.416c0.05,1.659,0.126,2.451,0.213,2.958c0.174,1.015,0.391,0.883,0.521,4.283
							c-0.901,14.491-0.561,11.96-1.402,20.943c-0.241-0.464-1.12,6.377-2,15.297C8.42,73.87,8.031,84.834,8.308,92.83
							c-0.082-2.486-0.187-5.695-0.243-7.427c-0.05-0.727-0.091-1.332-0.125-1.827c-0.015-0.499-0.026-0.886-0.034-1.177
							c-0.026-0.58-0.058-0.767-0.093-0.661c-0.046,0.21-0.224,1.609-0.167,3.363c0.031,3.517,0.139,8.554,0.064,8.776
							c0,0,0.139,2.24,0.277,4.481c0.067,1.127,0.135,2.254,0.186,3.099c0.034,0.427,0.021,0.765,0.026,1.008
							c0.001,0.241,0.002,0.379,0.002,0.379c0.023-0.821-0.057-1.837-0.118-2.156c-0.079-0.326-0.06,0.076-0.14,1.958
							c-0.056,2.975-0.061,5.186-0.039,6.963c0.023,1.753,0.072,3.121,0.12,4.486c0.023,0.683,0.045,1.365,0.07,2.095
							c0.054,0.71,0.112,1.467,0.177,2.316c0.052,0.847,0.109,1.786,0.174,2.864c0.057,1.112,0.121,2.366,0.195,3.812
							c-0.337,0.777-1.093-8.783-1.072-1.711c-0.086,1.289-0.226,3.984-0.225,8.318c-0.104,4.306-0.166,10.244,0.085,18
							c0.16,1.102,0.41,5.056,0.677,9.711c-0.053-0.659-0.103-1.467-0.137-1.752l0.167,10.416
							c-0.994-8.907-0.719-17.757-1.271-26.636l-0.54-0.75c-0.035-1.731-0.074-3.618-0.113-5.542
							c-0.028-0.961-0.056-1.932-0.084-2.897c-0.063-0.968-0.126-1.931-0.188-2.874c-0.285-3.739-0.545-7.154-0.709-9.309
							c0.028,1.306,0.053,2.482,0.076,3.565c0.046,1.097,0.089,2.097,0.129,3.038c0.095,1.88,0.178,3.52,0.263,5.198
							c0.086,3.347,0.177,6.85,0.33,12.745c-0.313,1.656-0.67-6.638-0.721-7.837l0.325,1.756c0.234-7.02-0.339-12.348-0.624-17.969
							c-0.082-1.411-0.164-2.849-0.25-4.348c0.005-1.507,0.01-3.075,0.015-4.738c0.023-1.667,0.047-3.429,0.074-5.321
							c0.022-0.947,0.045-1.926,0.069-2.942c0.013-0.508,0.027-1.025,0.041-1.552c-0.013-0.528-0.025-1.066-0.038-1.614
							c-0.052-2.648,0.032-1.034,0.149-0.444c-0.217-3.561-0.381-7.076-0.533-10.573c-0.064-1.751-0.128-3.499-0.192-5.242
							c0.044-1.746,0.088-3.487,0.132-5.227c0.044-1.738,0.088-3.474,0.132-5.207c0.096-1.731,0.191-3.46,0.286-5.186
							c0.15-3.456,0.299-6.902,0.449-10.344l-0.09,4.496c0.261-4.681,0.647-11.597,1.095-19.629
							c0.189-4.017,0.332-8.313,0.449-12.741c-0.01-2.214-0.021-4.462-0.032-6.728c-0.009-1.131-0.018-2.266-0.026-3.404L6.518,16.5
							l-0.211-0.14c-0.017,0.643-0.052,0.39-0.094-0.372c-0.034-0.866-0.089-2.31-0.15-3.893c0.03-0.886,0.062-1.817,0.092-2.712
							C6.182,8.931,6.134,8.5,6.329,8.123C6.52,7.74,6.87,7.489,7.184,7.304L7.168,7.317c1.06-0.674,2.292-1.012,3.549-1.305
							c1.26-0.286,2.569-0.471,3.865-0.634c2.312-0.311,4.468-0.423,6.616-0.557c2.138-0.135,4.215-0.267,6.21-0.393
							c1.997-0.126,3.916-0.258,5.719-0.295c-2.307-0.144-5.297-0.079-8.711,0.003c-0.721,0.087-2.321,0.181-4.279,0.279
							c-0.98,0.057-2.044,0.082-3.144,0.168c-1.133,0.099-2.12,0.178-3.541,0.362c-1.321,0.155-2.566,0.386-3.645,0.65
							C8.74,5.881,7.857,6.225,7.219,6.593c-0.643,0.36-1.031,0.778-1.154,1.045C5.949,7.908,5.991,7.95,6.224,7.711
							C5.77,8.261,5.913,8.98,5.823,9.707c-0.042,0.732-0.086,1.492-0.132,2.278c0.033,1.129,0.068,2.298,0.104,3.492
							c0.039,0.989,0.078,1.997,0.117,3.012l0.066,1.525l-0.017,1.53c-0.013,1.017-0.025,2.027-0.037,3.016
							c-0.03,1.979-0.059,3.873-0.084,5.572c-0.064,1.7-0.201,3.208-0.312,4.407c0.981-10.323,0.114,7.23,0.209,9.076
							c-0.633,3.45-1.24,15.363-1.594,13.971c-0.291,2.042,0.73-5.08,0.813-9.502c0.462-10.899-2.021,19.856-1.318,6.287
							C3.046,62.987,2.383,73.035,2.346,83.2c0.042,2.542,0.195,5.093,0.29,7.625c0.101,2.494,0.202,4.971,0.3,7.413
							c0.048,1.205,0.095,2.4,0.142,3.584c-0.017,1.198-0.033,2.385-0.049,3.558c-0.02,2.359-0.04,4.662-0.059,6.888l0.474-9.943
							c-0.063,1.971-0.147,4.614-0.24,7.494c-0.042,1.452-0.086,2.964-0.131,4.48c-0.015,0.759-0.061,1.514-0.049,2.272
							c0.02,0.76,0.039,1.514,0.058,2.255c0.117,5.979,0.378,10.877,0.277,11.6c-0.144-2.934-0.339-6.021-0.43-9.506
							c-0.04-1.721-0.152-3.507-0.141-5.317c0.034-1.805,0.068-3.657,0.103-5.55c-0.129-0.096-0.226,0.993-0.304,2.695
							c-0.03,0.852-0.065,1.855-0.104,2.94c-0.035,1.084,0.048,2.276,0.073,3.463c0.128,4.82,0.43,9.508,0.278,9.945
							c0,0,0.113,1.349,0.283,3.373c0.108,2.042,0.253,4.765,0.397,7.487c0.145,2.734,0.289,5.469,0.397,7.52
							c0.054,1.026,0.099,1.88,0.131,2.479c0.047,0.6,0.073,0.942,0.073,0.942s-0.039-0.603-0.038-1.5
							c-0.009-0.899-0.021-2.098-0.033-3.296c-0.024-2.397-0.047-4.794-0.047-4.794c0.1,1.509,0.166,3.894,0.212,6.854
							c0.004,1.479,0.068,3.106,0.145,4.842c0.065,1.736,0.134,3.578,0.205,5.49c0.154,3.796,0.318,7.868,0.482,11.915
							c0.14,4.046,0.4,8.062,0.373,11.767c-0.106-1.06-0.191-2.202-0.26-3.423c-0.106-1.218-0.209-2.512-0.297-3.876
							c-0.179-2.729-0.32-5.734-0.459-8.964c-0.133-3.24-0.276-6.703-0.426-10.33c-0.08-1.826-0.161-3.694-0.245-5.596
							c-0.046-1.894-0.093-3.822-0.141-5.777c-0.421-11.354-0.606,7.021-0.918-3.725c-0.101,2.789-0.103,9.803,0.318,13.31
							l0.06,4.292c-0.253-2.406-0.568-5.6-0.733-9.207c-0.109-3.585-0.231-7.616-0.359-11.794c-0.056-4.174-0.34-8.399-0.594-12.486
							c-0.197-4.225-0.506-8.488-0.451-12.055c0.034,1.271,0.078,2.38,0.143,2.783c0.125-2.766,0.251-5.543,0.378-8.32
							c0.104-2.724,0.256-5.474,0.12-8.11c-0.037-1.331-0.074-2.659-0.111-3.984c-0.058-1.392-0.115-2.78-0.172-4.164
							c-0.063-1.389-0.126-2.774-0.189-4.153c-0.052-1.378-0.175-2.757-0.129-4.114c-0.119,1.435-0.046,2.669-0.038,3.749
							c0.023,1.081,0.058,2.013,0.098,2.868c0.102,1.707,0.185,3.105,0.284,4.757c-0.073,0.211-0.223-2.264-0.391-5.284
							c-0.084-1.511-0.177-3.156-0.261-4.669c-0.015-1.505-0.028-2.878-0.038-3.853c-0.257,5.064-0.17,5.562-0.298,5.565
							c-0.085,0.009-0.179-0.454-0.117,2.785c-0.094-1.664-0.191-3.253-0.243-4.821c0.028-1.56,0.056-3.104,0.084-4.692
							c0.043-1.588,0.087-3.222,0.134-4.962c0.043-1.743,0.229-3.559,0.354-5.561c0.507-4.127,0.127,3.447,0.504,2.617
							c0.175-4.107,0.458-7.113,0.868-10.542c0.406-3.423,0.831-7.357,1.132-13.289c-0.718,7.878-0.81,6.843-0.69,3.121
							c0.11-3.701,0.475-10.064,0.487-12.753l-0.187,2.623c-0.035-2.496,0.01-4.794,0.134-6.895c0.057-1.05,0.154-2.054,0.235-3.003
							c0.063-0.946,0.148-1.844,0.255-2.693c0.062,3.178-0.211,6.345-0.282,8.468c-0.092,2.126-0.091,3.227,0.159,2.328
							c0.121-2.119,0.241-4.235,0.365-6.421c0.141-2.19,0.078-4.423,0.1-6.813l0.18,4.348l0.163-8.409
							c0.058-1.405-0.082-2.786-0.112-4.18c-0.07-1.832-0.141-3.665-0.189-5.49l0.298-2.79c0.059-0.457,0.082-0.95,0.169-1.379
							c0.103-0.401,0.375-0.843,0.712-1.17c0.742-0.857,1.827-1.509,3.159-2.074C9.308,3.404,10.9,2.99,12.543,2.68
							c2.48-0.472,4.902-0.933,6.582-1.252c5.221,0.124,12.498-0.481,17.336-0.563l-2.266,0.163
							c9.482,0.155,30.388-0.09,32.156-0.402c6.722,0.257-47.5,2.013,0.006,1.645C84.417,2.234,77.603,1.285,87.91,0.932
							c0,0-0.582,0.1,0.442,0.161c7.904,0.055,8.696-0.313,15.193-0.48c-4.739-0.138-11.607-0.131-13.82,0.012
							c2.378-0.408,16.461,0.005,22.516-0.324c-7.857,0.637,15.278,0.209,9.179,0.54c15.72,0.371,32.524-0.152,40.779-0.626
							c10.669,0.761,18.705-0.139,36.018,0.191c-2.661-0.019-7.488,0.107-11.21,0.03c-9.866,0.514,17.938,0.227,2.752,0.708
							c3.248-0.084,0.229-0.264-3.103-0.18c-5.826,0.066-11.312,0.294-9.847,0.517l14.108,0.412l-4.924,0.129l21.412,0.567
							c0.582-0.101-1.426-0.221-2.456-0.281c24.832,0.221,53.225-0.17,74.98-0.129c4.084-1.405,53.557-0.698,71.135-1.589
							c-4.712,0.41-7.289,1.122-4.373,1.407c-3.92,0.066-11.945,0.646-20.834,0.545c-1.42-0.222-12.4-0.456-5.334-0.726
							c-24.569,0.205,3.326,0.606-3.925,1.14c27.223-0.187,43.19-1.034,60.373-1.396l0.435,0.165l12.975-0.337
							c-10.603-0.073-10.079-0.866,3.587-0.614l-1.663,0.042c7.795,0.318,24.013-0.103,36.189-0.075l8.256-0.473
							c12.195,0.029,12.72,0.881,16.685,1.384c19.114,0.04,30.152-0.733,43.729-1.086c6.139,0.388,34.769,0.551,19.6,0.963
							c17.241-0.282,13.764-2.284,43.333-1.103l-7.674,0.339c28.271,0,68.594-0.608,81.619-0.197
							c-10.433,1.262,35.311,1.404,40.334,2.682c-1.399-0.292,9.223-0.361,10.771-0.511c2.327,0.154,6.202,0.308,10.314,0.058
							c-11.024-0.283,7.754-1.291-13.325-0.837c10.669-0.838,24.414-1.479,47.781-1.374l-0.354,0.526l-18.487-0.209
							c1.866,0.394-7.649,0.339-11.551,0.509c34.391,0.386-4.506,1.222,30.654,1.246c3.396-0.333,1.196-0.197,10.335-0.309
							c-4.298,0.006-5.072,0.367,1.854,0.393l6.651-0.403c12.275,0.911-20.324,0.519-9.852,1.164
							c-13.577,0.378-37.092,0.538-32.713,1.222c22.17,0.303,19.949-1.208,43.129-0.841l2.468,0.293
							c8.153-0.174,9.473-0.634,13.938-0.903c0.402,0.164,2.474,0.292,7.711,0.352c13.771-0.641,22.909-0.75,35.611-1.456
							c-33.805,0.466-28.896-0.59-63.789-0.188c5.469-0.205,30.032-0.3,31.544-1.024l-0.328,0.527
							C788.084,1.241,799.423,1,813.671,1.211l-8.698,0.274c18.886-0.317,31.39,0.883,46.293,0.044
							c-5.263-0.061-9.535-0.056-12.783,0.015c9.721-0.209,21.916-0.125,32.479-0.007l21.862-0.813
							c-0.193,0.261,13.658,0.313,6.974,0.714c7.868,0.221,13.657,0.14,18.617-0.009c2.479-0.088,4.752-0.168,6.972-0.247
							c2.168-0.077,4.336-0.167,6.604-0.213c8.061,0.228,4.566,0.313-1.129,0.434c-5.637,0.125-13.563,0.168-14.355,0.543
							c2.775,0.03,5.571,0.061,8.364,0.092c2.751,0.03,5.533,0.016,8.296,0.002c5.532-0.044,10.955-0.087,16.075-0.127
							c10.283-0.072,19.35-0.136,25.653-0.18c-4.57-0.246-6.781-0.362-6.548-0.489c0.673,0.169,9.687,0.321,14.787,0.651
							l3.545-0.103c0.55,0.062,1.06,0.119,1.532,0.172c0.694,0.086,1.287,0.146,1.903,0.237c1.21,0.163,2.172,0.332,2.906,0.481
							c1.47,0.304,2.022,0.538,1.896,0.553c-0.136,0.027-0.979-0.129-2.508-0.309c-0.766-0.087-1.698-0.179-2.786-0.267
							c-0.506-0.035-1.048-0.072-1.625-0.111c-0.409-0.019-0.843-0.039-1.3-0.061c0.659,0.06,1.328,0.12,2.005,0.18
							c0.848,0.077,1.805,0.18,2.732,0.295c1.861,0.235,3.759,0.555,5.419,1.161c0.821,0.311,1.594,0.669,2.271,1.132
							c0.338,0.235,0.664,0.484,0.966,0.789c0.295,0.288,0.626,0.694,0.656,1.073c0.094,1.68,0.188,3.368,0.281,5.052
							c-0.28,1.439-0.56,2.876-0.837,4.307c-0.219,1.076-0.438,2.147-0.653,3.208c-0.371,1.739-0.769,3.441-1.205,5.082
							c0.296-1.665,0.602-3.387,0.912-5.139c0.468-2.429,0.943-4.899,1.42-7.375l-0.089-2.666l-0.042-1.33l-0.021-0.664
							c-0.013-0.219,0.012-0.454-0.082-0.635c-0.183-0.425-0.54-0.767-0.858-1.045c-0.327-0.29-0.681-0.531-1.05-0.758
							c-0.741-0.448-1.572-0.806-2.455-1.105c-1.8-0.57-3.797-0.865-5.733-1.098c-0.492-0.06-0.968-0.113-1.416-0.154
							c-0.409-0.039-0.815-0.077-1.218-0.116c-0.635-0.051-1.26-0.102-1.874-0.152c-4.886-0.351-8.988-0.467-11.66-0.456
							c3.245,0.059,6.135,0.165,8.766,0.317c1.316,0.078,2.566,0.163,3.77,0.268c0.662,0.063,1.309,0.125,1.941,0.186
							c0.791,0.077,1.635,0.185,2.445,0.288c3.242,0.437,6.066,1.164,7.911,2.594c0.455,0.358,0.938,0.766,1.211,1.346
							c0.12,0.25,0.044,0.582,0.065,0.87l-0.003,0.891c-0.01,1.178-0.021,2.346-0.03,3.516c-0.611,2.707-1.228,5.432-1.893,8.38
							c-0.512,2.292-1.063,4.756-1.687,7.55c-0.492,2.82-0.992,5.984-1.56,9.642c-0.276,1.83-0.571,3.784-0.888,5.88
							c-0.146,1.05-0.334,2.13-0.455,3.26c-0.113,1.13-0.23,2.3-0.352,3.51c-0.212,0.416,0.14-5.624-0.624,1.202
							c-1.636,15.829,0.241,4.207,0.071,9.181c0.571-6.085,1.063-10.539,1.569-14.341c0.664-3.778,1.311-6.91,2.063-10.375
							l-0.221,3.259c-0.192,0.469-1.472,8.021-1.749,10.266l0.345,2.03c-0.262-0.491-0.85,2.296-1.478,6.414
							c-0.308,2.059-0.653,4.447-0.922,6.928c-0.202,2.488-0.375,5.062-0.491,7.475c1.161-9.696,0.926-7.069,1.922-9.636
							c-0.128,1.687-0.169,3.198-0.238,4.571s-0.153,2.608-0.247,3.757c-0.187,2.297-0.41,4.248-0.637,6.251
							c-0.209,2.005-0.497,4.055-0.612,6.566c-0.111,2.512-0.174,5.475-0.142,9.28c-0.157-1.144,0.203-14.428-0.393-2.963
							c-0.196,4.749-0.161,6.811-0.087,8.48c0.057,1.669,0.202,2.95,0.261,6.14c-0.115-1.797-0.227-3.032-0.338-3.994
							c-0.085-0.96-0.174-1.648-0.267-2.355c-0.186-1.415-0.38-2.906-0.54-6.812c0.147-4.226,0.236-6.766,0.296-8.456
							c0.076-1.688,0.162-2.524,0.204-3.352c0.096-1.654,0.188-3.261,0.666-11.509l-1.457,13.926
							c0.956-14.303,0.16-10.445,0.047-11.638c-0.554,6.106-0.953,10.311-1.028,13.442c-0.073,3.131-0.04,5.173,0.016,6.94
							s0.135,3.262,0.152,5.298c0.017,2.036-0.054,4.613-0.087,8.56c0.146,3.806,0.197,0.111,0.245-3.046
							c0.008-1.58,0.121-3.02,0.15-3.326c0.06-0.304,0.026,0.525,0.08,3.5c-0.103,7.374-0.024,8.215,0.089,9.282
							c0.058,0.534,0.123,1.124,0.18,2.614c0.084,1.491,0.039,3.878,0.201,8.018l-0.287-2.771c-0.226,5.065,0.24,10.067,0.391,15.92
							c0.316,6.432,1.517-7.329,2.529,19.114c-0.194-1.289-0.305-1.761-0.365-1.758c0,0-1.34-6.418-2.681-12.836
							c-0.703-3.216-1.233-6.438-1.708-8.859c-0.452-2.423-0.753-4.038-0.753-4.038c0.374,26.932,2.27,57.948,4.451,89.12
							c-0.309,7.405-2.394-22.184-2.622-20.25l-0.797-14.231c0.218,0.386,0.709,7.834,1.197,13.569
							c0.49,5.735,0.888,9.764,0.731,3.323c-0.551-6.268-0.909-11.686-1.254-16.654c-0.168-2.485-0.328-4.857-0.484-7.169
							c-0.131-2.313-0.258-4.564-0.385-6.806c-0.27-4.482-0.537-8.924-0.826-13.734c-0.252-4.812-0.562-9.991-0.973-15.948
							c-0.271,3.716-0.004,11.578,0.486,20.44c0.259,4.431,0.532,9.114,0.798,13.66c0.246,4.546,0.51,8.952,0.592,12.839
							c-0.38-6.513-0.852-11.999-1.237-17.333c0.685,14.575,1.719,30.155,2.853,46.712l0.497,3.701
							c-0.784-11.157-1.248-18.884-1.302-19.88c1.004,14.798,2.487,27.228,3.181,28.161l-0.182-2.628l0.611,5.327
							C993.1,232.609,993.326,236.082,993.551,239.535z M103.63,326.045c0.901-0.062,1.611-0.133,2.135-0.222
							C105.222,325.916,105.83,325.975,103.63,326.045z M937.921,7.45c9.886-0.013,19.81,0.033,29.621,0.271
							c4.904,0.124,9.782,0.29,14.595,0.583c1.199,0.084,2.396,0.169,3.591,0.253l1.78,0.155l1.487,0.156
							c0.968,0.112,1.93,0.241,2.878,0.417c0.932,0.205,1.924,0.347,2.709,0.91c-0.662-0.545-1.518-0.72-2.32-0.94
							c-0.818-0.201-1.649-0.355-2.483-0.495c-0.847-0.141-1.636-0.254-2.585-0.375c-0.979-0.111-1.941-0.221-2.886-0.329
							c-3.79-0.393-7.309-0.661-10.393-0.886c-6.171-0.442-10.61-0.708-12.188-0.923c-1.578-0.206-0.297-0.362,4.961-0.385
							c2.629-0.006,6.252,0.021,11.01,0.178c2.378,0.083,5.04,0.196,8.004,0.408c0.745,0.061,1.51,0.123,2.294,0.187
							c0.817,0.076,1.673,0.16,2.538,0.27c1.729,0.226,3.543,0.486,5.271,1.134c0,0,0.229,0.084,0.559,0.247
							c0.164,0.081,0.349,0.193,0.523,0.345c0.177,0.153,0.298,0.392,0.258,0.63c-0.133,0.953-0.266,1.905-0.266,1.905
							c0.084-0.485,0.171-0.993,0.262-1.521c0.029-0.262,0.146-0.541,0.027-0.799c-0.121-0.254-0.359-0.435-0.599-0.578
							c-0.982-0.566-2.169-0.867-3.452-1.139c-1.287-0.263-2.682-0.45-4.136-0.607c-1.488-0.159-2.791-0.266-4.236-0.369
							c-5.691-0.396-11.961-0.55-18.036-0.612c-4.921,0.124-15.305,0.579-24.407,1.109c-4.552,0.276-8.786,0.532-11.861,0.719
							c-1.54,0.101-2.79,0.183-3.645,0.239c-0.855,0.06-1.319,0.097-1.274,0.116c3.504,0.36,8.565-0.074,14.889,0L937.921,7.45z
							 M923.856,5.422c-11.21-0.168-8.659,0.114-10.4,0.357c3.946-0.021,7.886-0.042,11.78-0.063
							C923.746,5.651,923.012,5.561,923.856,5.422z M914.127,6.03c1.26,0.009,2.334,0.023,2.896,0.058L914.127,6.03z
							 M986.31,143.636c-0.025-0.499-0.035-0.677-0.059-1.15c0.081,2.646,0.161,5.299,0.246,8.068
							C986.496,149.478,986.449,147.432,986.31,143.636z M986.409,120.883c0,0-0.125-0.664-0.249-1.328
							c-0.127-0.664-0.226-1.329-0.226-1.329c-0.023,2.468,0.035,4.987,0.05,7.564C986.176,124.938,986.34,124.047,986.409,120.883z
							 M991.882,48.175c0.002-0.578,0.005-1.326,0.073-2.186c0.089-0.858,0.189-1.834,0.297-2.88
							c0.247-2.09,0.527-4.458,0.794-6.712c0.555-4.508,0.974-8.582,0.795-9.094c0.029-0.494-0.174,0.043-0.391,1.166
							c-0.216,1.122-0.506,2.818-0.81,4.613c-0.636,4.012-1.314,8.295-2.034,12.837c0.055,0.168,0.052,1.089-0.04,2.615
							c0.256-2.255,0.635-4.113,0.896-5.183c0.264-1.069,0.443-1.344,0.495-0.41c-0.318,1.426-0.607,2.654-0.778,3.749
							c-0.163,1.095-0.283,2.046-0.372,2.903c-0.177,1.714-0.23,3.053-0.269,4.422c-0.052,2.741-0.137,5.591-0.837,11.846
							c0.077,2.018,0.391-1.471,0.972-5.911C991.201,55.506,991.759,50.082,991.882,48.175z M64.963,5.538
							c-0.358-0.054-1.593-0.193-3.327-0.365l8.9-0.328c15.879,0.107,28.601,0.988,42.891,0.184
							c6.689,0.183,10.272,0.589,13.694,0.923c-3.274-0.035-6.337-0.067-8.889-0.094C78.167,7.071,97.337,4.696,64.963,5.538z
							 M247.521,6.308c-1.637,0.042-2.225,0.146-2.225,0.146c35.475-1.22,64.686-1.609,83.813-1.6
							c-3.709-0.451-20.867-0.773-29.014-0.948l7.219-0.535l4.509,0.402l12.533-0.498c-3.505-0.344-13.627-0.252-20.394-0.509
							c-0.588,0.101-22.253,0.749-28.309,1.082l17.312,0.329c-4.675-0.137-27.638,0.026-36.744,0.176
							c-0.045,0.066,0.903,0.138,2.38,0.201s3.483,0.117,5.558,0.144c4.148,0.055,8.565,0.005,9.552-0.28
							c1.868,0.384-16.223,0.421-4.782,0.816c-13.556,0.439-35.126,0.133-45.134-0.041l-1.696-0.648
							c-10.98-0.233-7.416,0.799-20.462,0.447c16.038-0.157-2.713-0.71,10.044-0.783c-4.074-0.238-0.085-0.689-12.868-0.617
							c-10.639,0.883-13.475-0.516-23.532,0.265c-6.722-0.257,7.231-0.533-5.994-0.624c-15.167,0.481-14.29,0.805-15.228,1.435
							c14.184,0.15,15.933-0.847,27.534-0.715l-23.069,1.119c4.253,0.144,7.399,0.154,10.04,0.106
							c-4.636,0.071-8.575,0.238-11.944,0.464c-1.918,0.119-3.689,0.228-5.326,0.329c13.077-0.019,24.69-0.025,26.743,0.239
							l-1.802,0.308c4.63,0.271,12.175,0.038,15.653-0.191c11.708-0.055,23.403-0.501,25.962-0.111l-4.444,0.287
							C227.807,6.386,229.412,6.345,247.521,6.308z M719.442,7.172c-8.719-1.14-18.334-2.151-59.043-2.063l3.204-0.068
							c-20.514-0.755-40.001,0.821-64.958-0.022c12.112-0.389,11.46-0.353,24.833-1.281l-12.995,0.282
							c3.602-0.598-9.361-0.318-18.896-0.372l8.416-0.701c5.724,0.223,20.56,0.337,20.125,0.171
							c-3.249,0.072,19.585,0.965,31.991,0.787c-1.277-0.493-27.471-0.364-15.773-1.134c-10.31,0.309-11.587-0.183-22.362-0.04
							c10.334-0.309,2.559-0.661,10.252-0.998l-17.669,0.12c-0.46-0.164,25.733-0.294,11.257-0.935
							c-7.08,0.238-25.982-0.134-26.322,0.393l-0.435-0.163c-13.244-0.149-5.827,0.731-22.089,0.388
							c-0.192,0.265,2.909,0.457,8.734,0.417c4.925-0.104,5.68-0.465,15.822-0.513c4.546,0.425-12.233-0.083-5.193,0.633
							c3.497,0.356,26.775-0.23,19.356,0.535L594.48,2.458c-0.34,0.527-9.913,0.472-9.646,0.898
							c-8.083,0.173-15.711-0.441-23.968-0.004c-3.428,0.333,2.557,0.983-11.102,0.67c-10.672-0.809-42.122-0.739-53.901-0.659
							l-10.309,0.313c0.876,0.321,19.696,0.006,13.077,0.409l-16.076,0.101l1.24-0.206c-5.327-0.035-10.775,0.193-15.635,0.318
							c5.007-0.389,16.594-0.258,14.292-0.804c-7.546-0.094-8.697-0.296-15.642-0.178c1.515-0.042,2.82-0.098,2.628-0.175
							c-15.277-0.21-14.752,0.643-18.583,0.828c-15.36,0.745,15.481,0.636,13.518,1.206L419.53,5.562
							c3.831-0.186,7.687-0.371,6.241-0.593c-10.999-0.233-0.25-0.426-15.693-0.372c1.1,0.75-19.446,0.505-30.355,0.96
							c-5.097-0.299-6.146-0.359,5-0.388c-1.279-0.486-16.243-0.271-21.563-0.305c-3.082,0.127-8.338,0.208-11.67,0.323
							c4.464,0.235,2.558,0.544-7.104,0.77l-0.563,0.104c15.84,0.104,40.459,0.592,50.39,0.074l-2.807,0.247
							c18.333,0.388,39.896-0.951,48.35-0.044c-0.78,0.366,3.683,0.077,3.363,0.604l13.499-0.437l-2.807,0.244l22.963-0.162
							l-0.607,0.1c10.915-0.482,19.465-0.859,26.295-1.161c0.025-0.23-0.685-0.303,2.954-0.462c3.651-0.104,6.421-0.115,8.889-0.078
							c0.02,0,0.02,0,0.02-0.002v0.003c5.634,0.082,9.387,0.422,16.325,0.575l-21.352,0c-1.74,0.386,0.076,0.796,10.537,1.097
							c-4.278,0.003-6.068,0.304-0.773,0.362c0.581-0.1,13.991-0.213,8.882-0.537c20.284-0.089,53.119,1.022,83.916,0.361
							c-22.126,0.388,17.731,0.57-6.83,0.666c17.143,0.67,14.753-0.576,32.229-0.433c1.489,0.229-9.516-0.055-13.532,0.378
							c29.057,0.326,49.029-0.881,77.14-0.618l1.201,0.491C707.389,7.281,713.297,7.228,719.442,7.172z M775.052,6.711
							c5.41-0.041,10.896-0.083,16.473-0.125c-0.543-0.006-1.048-0.012-1.617-0.019l16.257-0.35
							c-9.988-0.216-16.566-0.769-2.587-0.982c-1.177,0.199,2.908,0.457-1.952,0.562c9.367,0.317,29.918,0.654,24.563-0.096
							c-18.004,0.648-4.191-0.948-18.339-0.469c7.593-0.46,15.112-0.224,22.281-0.42c-7.464,0.382,1.736,0.915,12.945,1.135
							c4.88-0.106,18.084,0.042,26.193-0.131c-2.889-0.458,4.172-0.697-9.039-0.845c4.848-0.105,12.35-0.179,20.751,0.074
							c-3.332,0.068-9.157,0.109-8.756,0.272c5.421,0.429,11.771,0.427,15.274,0.613c2.795-0.017,5.615-0.033,8.358-0.05
							c-0.818-0.042-1.527-0.094-2.032-0.16l9.286-0.373c-12.368,0.18-5.716-0.223-5.555-0.486
							c-0.335,0.526,7.961,0.089,12.194,0.083l-9.192-0.581c4.445-0.268,15.69,0.443,13.372-0.114
							c-19.51-0.272-27.011-0.197-44.655-0.078l7.16,0.452c-19.908,0.254-12.274-0.774-34.611-0.813
							c-9.287,0.371-33.593-0.061-34.056,0.73c2.802-0.234-13.906-0.741-21.563-0.402c-8.462,0.701-34.048,0.731-26.299,1.082
							c6.913,0.027,16.219-0.346,21.774,0.139l-13.41,0.116l8.797,0.417C772.522,5.738,772.963,6.125,775.052,6.711z
							 M981.314,86.467c-0.009,0.148-0.02,0.341-0.03,0.521c0.009-0.2,0.017-0.393,0.024-0.58L981.314,86.467z"/>
						<path fill="#FFFFFF" d="M6.365,149.101c0.281,3.822,0.729,13.282,1.025,11.417c-0.215,0.116-0.429-4.119-0.604-7.672
							C6.565,149.292,6.592,146.34,6.365,149.101z"/>
						<path fill="#FFFFFF" d="M6.431,160.46c0.135,0.665,0.274,0.187,0.507,4.468c0,0-0.177-2.946-0.354-5.892
							c-0.158-2.924-0.315-5.848-0.315-5.848L6.431,160.46z"/>
						<path fill="#FFFFFF" d="M4.128,172.545c0.697,6.024,0.857,9.867,0.978,19.377c-0.493,1.79-0.624-2.1-0.761-6.971
							c-0.087-2.435-0.095-5.12-0.298-7.454c-0.201-2.333-0.437-4.325-0.734-5.388c0.113,2.17,0.216,4.15,0.311,5.984
							c0.064,1.838,0.123,3.528,0.178,5.113c0.12,3.169,0.268,5.914,0.42,8.564c0.138,2.65,0.343,5.202,0.415,7.993
							c0.066,2.792,0.107,5.816,0.091,9.403c0.127-1.776,0.257-4.924,0.369-8.654c0.121-3.731,0.028-8.04-0.001-12.146
							c-0.072-4.104-0.097-8.006-0.308-10.903C4.561,174.568,4.332,172.667,4.128,172.545z"/>
						<polygon fill="#FFFFFF" points="2.426,164.903 3.148,174.534 3.161,173.579 2.438,163.941 						"/>
						<path fill="#FFFFFF" d="M61.406,11.574c0.877,0.323,6.931-0.008,10.179-0.092C68.945,11.466,65.249,11.387,61.406,11.574z"/>
						<path fill="#FFFFFF" d="M322.175,318.957l-74.148,0.435C269.362,319.267,289.059,319.15,322.175,318.957z"/>
						<path fill="#FFFFFF" d="M307.411,8.995c-19.905,0.343-28.748,0.919-49.031,1.1c26.672,0.605,35.225-1.087,57.619-0.458
							L307.411,8.995z"/>
						<path fill="#FFFFFF" d="M300.394,11.599c-3.3-0.605,15.358-0.745,12.467-1.188c-13.416,0.174-6.247,0.595-18.421,0.564
							L300.394,11.599z"/>
						<polygon fill="#FFFFFF" points="210.165,1.652 216.201,1.323 211.341,1.448 						"/>
						<polygon fill="#FFFFFF" points="391.116,10.887 388.916,11.03 398.897,11.205 						"/>
						<path fill="#FFFFFF" d="M386.716,11.174l2.2-0.145L386.716,11.174z"/>
						<polygon fill="#FFFFFF" points="217.919,0.326 208.947,0.211 204.509,0.501 						"/>
						<path fill="#FFFFFF" d="M297.114,3.461l-8.025,0.21C290.681,3.631,301.661,3.862,297.114,3.461z"/>
						<polygon fill="#FFFFFF" points="452.072,11.034 461.836,10.781 460.839,10.722 451.107,10.975 						"/>
						<path fill="#FFFFFF" d="M359.935,1.658c-5.545-0.46,16.013-0.157,4.604-0.552C354.39,1.198,358.509,1.436,359.935,1.658z"/>
						<path fill="#FFFFFF" d="M477.76,4.628c1.317-0.002,2.705-0.021,4.042-0.076C480.209,4.582,478.873,4.607,477.76,4.628z"/>
						<path fill="#FFFFFF" d="M477.76,4.628c-4.252,0.008-8.505-0.164-11.421-0.022C471.641,4.809,473.572,4.725,477.76,4.628z"/>
						<path fill="#FFFFFF" d="M526.481,4.61l-3.855-0.044c3.938-0.221,2.071-0.192-1.445-0.015
							c-4.087,0.005-3.856,0.155-4.343,0.255c-0.818,0.057-1.631,0.114-2.513,0.176c1.26-0.061,2.392-0.115,3.351-0.161
							C524.007,4.842,527.869,4.829,526.481,4.61z"/>
						<path fill="#FFFFFF" d="M707.45,13.012c-14.239-0.213-17.923-0.307-17.147-0.67c-13.518-0.151-11.422,0.482-19.574,0.607
							C686.023,12.918,689.149,13.094,707.45,13.012z"/>
						<path fill="#FFFFFF" d="M670.729,12.948c-1.714,0.005-3.351,0.01-5.34,0.015C667.614,12.98,669.264,12.97,670.729,12.948z"/>
						<polygon fill="#FFFFFF" points="469.538,0.542 478.389,-0.032 475.14,0.051 						"/>
						<path fill="#FFFFFF" d="M728.582,13.251c-2.641-0.03-6.873-0.025-8.951-0.156C718.869,13.459,731.217,13.28,728.582,13.251z"
							/>
						<path fill="#FFFFFF" d="M673.679,5.948c-1.444-0.228-10.557-0.118-14.266-0.213C664.733,5.796,669.067,6.48,673.679,5.948z"/>
						<path fill="#FFFFFF" d="M769.439,11.853c-2.641-0.031-6.7-0.287-4.94-0.584C760.661,11.437,755.467,12.067,769.439,11.853z"/>
						<polygon fill="#FFFFFF" points="699.705,6.082 697.672,5.953 687.926,6.162 						"/>
						<path fill="#FFFFFF" d="M664.956,0.599c-10.962,0.407,17.386,1.096-1.493,1.416c24.351,0.52-1.866-0.622,16.097-0.504
							C669.041,1.336,663.888,0.771,664.956,0.599z"/>
						<path fill="#FFFFFF" d="M679.56,1.511c1.528,0.016,3.185,0.033,4.981,0.051C682.553,1.542,680.947,1.525,679.56,1.511z"/>
						<path fill="#FFFFFF" d="M833.814,4.674c-1.593,0.042-2.68,0.089-3.685,0.138C831.384,4.779,832.58,4.737,833.814,4.674z"/>
						<path fill="#FFFFFF" d="M736.93,1.302l-16.431,0.611c10.976-0.407,38.582-0.308,36.864-0.963
							c-8.94-0.156-19.697-0.011-24.116,0.259L736.93,1.302z"/>
						<path fill="#FFFFFF" d="M925.447,13.608l-7.1,0.239l8.913,0.096C924.66,13.847,929.371,13.371,925.447,13.608z"/>
						<path fill="#FFFFFF" d="M928.996,13.952l-1.735-0.008C927.646,13.959,928.197,13.964,928.996,13.952z"/>
						<path fill="#FFFFFF" d="M802.741,4.908c-5.308-0.06-9.554-0.054-14.396,0.05C790.354,5.086,803.577,5.235,802.741,4.908z"/>
						<path fill="#FFFFFF" d="M975.246,12.893c0,0-2.89-0.05-5.78-0.101c-2.9-0.021-5.802-0.042-5.802-0.042
							s3.165,0.043,6.329,0.085c3.15,0.079,6.301,0.157,6.301,0.157L975.246,12.893z"/>
						<path fill="#FFFFFF" d="M983.336,40.787l-0.436,2.016c0.001,0-0.352,2.449-0.526,4.913c-0.216,2.46-0.432,4.92-0.432,4.92
							l0.354-2.059c0,0,0.214-2.451,0.429-4.902c0.111-1.226,0.305-2.444,0.413-3.361C983.257,41.397,983.336,40.787,983.336,40.787
							z"/>
						<path fill="#FFFFFF" d="M958.67,0.879c-7.984-0.123-14.198,0.501-12.115,0.615c0,0,3.862-0.005,7.725-0.011
							c3.867,0.02,7.735,0.039,7.735,0.039c-3.929-0.544-4.298-0.039-13.254-0.172L958.67,0.879z"/>
						<path fill="#FFFFFF" d="M857.244,317.632c3.425-0.403,20.212-0.694,21.1-0.424c-2.249,0.228-11.346,0.63-5.623,0.665
							l13.244-1.296c8.828-0.093,5.491,0.327-1.149,0.829c-6.64,0.503-16.591,1.024-20.953,1.283
							c9.007-0.188,14.837-0.496,20.805-0.843c5.964-0.338,12.07-0.684,21.621-1.224c-5.634,0.22-9.207,0.167-12.19,0.12
							c-0.675-0.558,17.142-1.063,29.796-2.047c-8.085,0.291-3.426-0.222,2.421-0.88c1.055-0.094,1.751-0.188,2.247-0.265
							c0.679-0.082,1.32-0.159,1.98-0.239l-1.514,0.12c0.102-0.074-0.239-0.128-1.338-0.151c-10.589,0.968-18.766,0.91-25.622,1.247
							c3.412,0.307-2.422,0.676-10.202,0.976c-7.779,0.305-17.503,0.512-21.827,0.783l-9.993,0.367l-3.741,0.095
							c-0.755-0.087,0.307-0.246,6.005-0.577c-4.752,0.329-20.637,0.585-19.165,0.858c0,0-9.067,0.149-18.135,0.298
							c-9.072,0.106-18.145,0.214-18.145,0.214c-1.131-0.029-2.262-0.068-3.099-0.131c-1.257,0.071-1.468,0.123-1.301,0.171
							c0,0-9.888,0.066-24.718,0.166c-14.84,0.03-34.626,0.07-54.412,0.11c-39.599-0.011-79.198-0.021-79.198-0.021
							c7.814,0.144,14.576,0.268,22.634,0.416c-12.096,0.634,13.215,0.119,9.664,0.723c-5.437,0.216-13.393,0.144-18.133-0.002
							c-1.766,0.306,4.989,0.574,4.209,0.938c19.98,0.389,23.039-1.062,42.567-0.825c-0.774,0.365-6.811,0.68,5.972,0.64
							l-3.249,0.077c20.467-0.396,15.946,0.835,28.828-0.169l-0.339,0.528c9.282-0.397,27.338-0.429,37.511-0.546l-0.606,0.104
							c28.53-0.759,16.021-0.166,48.046-0.75l-14.732,0.774c11.053,0.146,13.535-0.558,21.466-0.596
							c-0.566,0.109,1.278,0.47-6.211,0.667c0,0,9.708-0.384,19.417-0.768c9.7-0.444,19.4-0.889,19.4-0.889
							C869.829,317.524,858.69,317.826,857.244,317.632z"/>
						<path fill="#FFFFFF" d="M906.288,316.623c2.047-0.087,4.375-0.191,7.114-0.382
							C910.754,316.384,908.474,316.506,906.288,316.623z"/>
						<path fill="#FFFFFF" d="M633.012,317.827l11.126,0.01C640.691,317.801,637.098,317.786,633.012,317.827z"/>
						<path fill="#FFFFFF" d="M961.074,310.514c-3.272,0.353-2.066,0.075,0.09-0.335c2.155-0.414,5.232-1.019,5.765-1.23
							c0,0-1.424,0.271-3.593,0.618c-2.162,0.36-5.072,0.789-7.999,1.18c-5.853,0.787-11.78,1.38-11.78,1.379
							c0.128,0.191-2.194,0.659-1.699,0.795c0,0,4.847-0.485,9.654-1.083C956.328,311.261,961.074,310.514,961.074,310.514z"/>
						<path fill="#FFFFFF" d="M936.656,312.409c-0.794,0.205-3.297,0.561-6.114,0.903c0,0,3.26-0.277,6.519-0.555
							c3.255-0.297,6.496-0.633,6.496-0.633C943.459,311.979,941.997,312.008,936.656,312.409z"/>
						<path fill="#FFFFFF" d="M940.186,322.966l-4.28,0.406l-6.467,0.688c0,0,2.688-0.263,5.374-0.525
							C937.499,323.251,940.186,322.966,940.186,322.966z"/>
						<path fill="#FFFFFF" d="M873.178,325.822c5.122,0.156,14.815-0.427,18.055-0.652
							C880.056,325.616,884.896,325.324,873.178,325.822z"/>
						<polygon fill="#FFFFFF" points="887.118,328.642 876.33,329.2 877.338,329.227 						"/>
						<path fill="#FFFFFF" d="M550.776,319.793c-1.765,0.01-3.479,0.019-5.263,0.027
							C547.925,319.825,549.497,319.813,550.776,319.793z"/>
						<path fill="#FFFFFF" d="M643.173,319.413c-25.686-0.626,16.829-0.47,8.759-1.238l-13.977,0.232l1.189-0.202l-17.047,0.044
							c3.497,0.354,6.125,0.378,5.364,0.743c-22.757-0.173-7.174-0.443-23.869-0.927l-25.436,0.032l2.06-0.106
							c-2.143,0.005-3.089,0.05-3.824,0.108l-85.719,0.113c-15.596,0.27,8.625,0.669-2.88,1.191
							c18.076,0.021,44.938,0.447,46.474-0.279c-0.607,0.1-1.804,0.299,1.86,0.39l10.455-0.586l-9.969-0.204
							c10.513-0.584,44.459-0.406,50.597-0.026c-19.304,0.178-9.617,0.911-36.511,0.484c1.208,0.186,6.132,0.518,0.076,0.61
							C582.287,319.623,610.53,319.993,643.173,319.413z"/>
						<path fill="#FFFFFF" d="M327.079,319.52l0.25-0.066C326.759,319.489,326.573,319.516,327.079,319.52z"/>
						<path fill="#FFFFFF" d="M337.656,319.593l15.363-0.74l-23.951,0.097l-1.741,0.504c2.117-0.13,10.515-0.398,13.77-0.207
							L337.656,319.593z"/>
						<path fill="#FFFFFF" d="M370.858,318.392c-12.37,0.233-11.7,0.822-4.954,1.08c-11.359,0.293-5.99-0.624-13.814,0.012
							c0.255,0.425,14.255,0.152,17.472,0.068L370.858,318.392z"/>
						<polygon fill="#FFFFFF" points="462.104,318.777 458.625,319.018 467.193,319.094 						"/>
						<path fill="#FFFFFF" d="M458.625,319.018l-8.504-0.077c0.588,0.183,1.169,0.36,2.557,0.486L458.625,319.018z"/>
						<path fill="#FFFFFF" d="M427.806,318.741c-3.6-0.032-7.583-0.067-12.43-0.11L427.806,318.741z"/>
						<path fill="#FFFFFF" d="M437.531,318.904l-0.288-0.077l-9.438-0.086C431.284,318.799,434.404,318.852,437.531,318.904z"/>
						<path fill="#FFFFFF" d="M450.121,318.94c-1.38-0.415-2.997-0.851-15.292-0.753l2.415,0.64L450.121,318.94z"/>
						<polygon fill="#FFFFFF" points="808.655,329.714 798.922,330.033 799.953,330.089 809.681,329.768 						"/>
						<path fill="#FFFFFF" d="M752.498,329.621c-2.405,0.076-4.229,0.156-5.886,0.235
							C749.146,329.809,751.161,329.736,752.498,329.621z"/>
						<path fill="#FFFFFF" d="M710.767,332.454c-11.441-0.424,15.785-0.539-5.403-0.738c-1.867-0.389,8.064-0.879,18.043-0.684
							c-0.793,0.364-9.723,0.229-3.589,0.604c6.627-0.418,9.147-0.133,6.838-0.681c11.149-0.342,12.391-0.734,19.957-1.099
							c-13.479,0.263-41.773-0.322-58.872,0.365c-9.426,0.653-3.71,1.559-3.749,2.511
							C685.41,332.957,709.845,333.085,710.767,332.454z"/>
						<path fill="#FFFFFF" d="M728.772,333.412c5.297,0.048,6.916,0.007,10.166-0.072
							C738.062,333.013,733.052,333.398,728.772,333.412z"/>
						<path fill="#FFFFFF" d="M607.095,326.134c-1.011,0.134-10.59,0.289-8.531,0.526l14.522-0.151
							C609.678,326.481,608.476,326.314,607.095,326.134z"/>
						<path fill="#FFFFFF" d="M619.455,326.444l-6.369,0.064C614.679,326.522,616.648,326.507,619.455,326.444z"/>
						<path fill="#FFFFFF" d="M606.403,326.049c0.23,0.028,0.436,0.054,0.691,0.085
							C607.299,326.105,607.261,326.076,606.403,326.049z"/>
						<path fill="#FFFFFF" d="M392.568,318.457c0.206-0.259-6.265-0.121-9.515-0.031
							C385.695,318.439,389.403,318.532,392.568,318.457z"/>
						<path fill="#FFFFFF" d="M148.925,319.866l-5.717-0.199C145.229,319.788,146.265,319.848,148.925,319.866z"/>
						<path fill="#FFFFFF" d="M60.766,326.501c-0.168,0.045-0.593,0.071-1.164,0.09C60.173,326.58,60.571,326.551,60.766,326.501z"
							/>
						<path fill="#FFFFFF" d="M59.602,326.591c-3.925,0.101-15.986-0.846-20.349-0.857l0.558-0.063c0,0-2.024-0.098-4.049-0.196
							c-2.025-0.116-4.051-0.232-4.051-0.232c3.792,0.322,9.664,0.749,15.139,1.017C52.324,326.534,57.401,326.667,59.602,326.591z"
							/>
					</g>
				</g>
			</g>
		</g>
	</g>
</g>
</svg>
