<?xml version="1.0" encoding="utf-8"?>
<!-- Generator: Adobe Illustrator 16.0.0, SVG Export Plug-In . SVG Version: 6.00 Build 0)  -->
<!DOCTYPE svg PUBLIC "-//W3C//DTD SVG 1.1//EN" "http://www.w3.org/Graphics/SVG/1.1/DTD/svg11.dtd">
<svg version="1.1" id="Layer_1" xmlns="http://www.w3.org/2000/svg" xmlns:xlink="http://www.w3.org/1999/xlink" x="0px" y="0px"
	 width="696px" height="774px" viewBox="0 0 696 774" enable-background="new 0 0 696 774" xml:space="preserve">
<g>
	<image overflow="visible" opacity="0.75" width="706" height="760" xlink:href="C899F66A.png"  transform="matrix(1 0 0 1 -8 12)">
	</image>
	<g>
		<path fill="#F2F2F2" d="M122.427,59.671c22.01,3.175,44.106,6.352,66.145,3.914c34.352-3.799,67.834-21.145,102.02-28.402
			c15.134-3.211,30.552-4.422,45.53,0.686c12.24,4.175,23.938,12.479,36.007,18.078c78.295,36.314,164.444-43.163,240.212,8.077
			c6.413,4.341,12.868,9.875,17.273,19.458c3.569,7.767,5.494,17.542,8,26.598c7.162,25.885,19.317,46.592,25.341,73.431
			c7.352,32.748,4.606,69.691,3.299,105.021c-5.062,136.812,12.984,279.736-13.021,408.313
			c-2.616,12.936-6.641,27.159-13.979,30.248c-4.371,1.843-8.883-0.835-13.187-3.17c-51.945-28.19-107.468-8.883-161.224,3.422
			c-151.639,34.71-305.43,11.634-457.054-23.302c5.501-97.925,11.001-195.848,16.502-293.772
			c0.666-11.854,1.332-23.791,0.767-35.661c-0.607-12.789-2.629-25.188-4.448-37.586C6.406,238.206,11.959,31.206,15.484,24.839
			c3.526-6.364,26.84,23.277,44.077,25.765C80.516,53.625,101.472,56.649,122.427,59.671z"/>
		<g>
			<g>
				<g>
					<g>
						<g>
							<path fill="#FFFFFF" d="M58.982,47.963c0.319,0.072,0.63,0.104,0.941,0.162c0.36,0.053,0.715,0.104,1.063,0.155
								c0.697,0.109,1.369,0.214,2.004,0.313c1.269,0.207,2.385,0.406,3.249,0.575c1.727,0.338,2.439,0.555,1.324,0.464
								c12.019,1.353,12.214,1.814,13.869,1.316c7.731,0.753,15.853,2.425,7.074,1.458l22.207,2.752l-13.224-2.022
								c3.693-0.08,21.131,3.231,25.428,3.136l-23.978-3.398l1.227-0.026c-5.488-0.573-16.077-2.191-19.76-2.809
								c0.597-0.015,0.249-0.229,4.479,0.363c-14.467-2.11-16.454-2.128-17.829-2.028c-0.688,0.051-1.223,0.131-3.088-0.005
								c-0.933-0.068-2.198-0.19-3.982-0.397c-1.523-0.172-3.539-0.656-6.128-1.802C55.153,46.725,56.765,47.427,58.982,47.963z"/>
							<path fill="#FFFFFF" d="M39.552,35.082c0,0-2.078-1.433-4.155-2.866c-2.088-1.472-4.177-2.945-4.177-2.945
								s-0.882-0.733-2.205-1.834c-1.729-1.395-4.105-3.351-6.53-4.748c-2.439-1.384-4.699-2.127-6.571-1.948
								c-0.955,0.073-1.736,0.584-2.082,0.968c-0.346,0.387-0.47,0.628-0.47,0.628c0.007,0.104-0.384,0.863-0.753,2.022
								c-0.09,0.296-0.186,0.608-0.284,0.929c-0.099,0.318-0.157,0.716-0.237,1.073c-0.073,0.369-0.153,0.725-0.214,1.089
								c-0.04,0.388-0.078,0.764-0.114,1.117c-0.068,0.706-0.135,1.309-0.14,1.766c-0.016,0.449-0.013,0.717,0.015,0.721
								c0.028,0.004,0.082-0.255,0.168-0.856c0.103-0.585,0.236-1.531,0.49-2.802c0.109-0.479,0.215-1.125,0.392-1.767
								c0.188-0.625,0.398-1.322,0.673-1.962c0.29-0.641,0.53-1.324,1.227-1.836c0.694-0.502,1.569-0.606,2.28-0.552
								c-0.232,0.068-0.825,0.046-1.638,0.401c-0.4,0.183-0.815,0.514-1.096,0.936c-0.271,0.426-0.46,0.897-0.657,1.435
								c-0.406,1.031-0.726,2.376-1.001,3.83c-0.094,0.771-0.188,1.552-0.283,2.33c-0.067,0.795-0.133,1.588-0.198,2.362
								c-0.053,0.776-0.104,1.535-0.153,2.262c-0.037,0.654-0.073,1.28-0.106,1.865c-0.048,1.015-0.083,1.888-0.089,2.529
								c-0.016,1.285,0.051,1.65,0.272,0.399c0.046-0.849,0.09-1.652,0.131-2.415c0.054-0.842,0.104-1.64,0.153-2.398
								c0.112-1.699,0.244-3.217,0.378-4.588c0.256-2.783,0.774-4.686,1.346-6.232c0.153-0.384,0.301-0.761,0.552-1.099
								c0.257-0.337,0.623-0.621,1.035-0.779c0.835-0.315,1.675-0.226,2.481-0.075c1.622,0.34,3.309,1.013,5.506,2.299
								c1.621,1.072,3.16,2.275,4.615,3.449c0.627,0.514,1.242,1.018,1.847,1.512c0.537,0.448,1.064,0.888,1.582,1.319
								c2.049,1.715,3.938,3.296,5.67,4.746c3.459,2.868,6.333,5.1,8.621,6.765c1.515,0.968,2.439,1.411,3.463,1.901
								c1.014,0.475,2.132,1,4.145,1.943c-0.879-0.407-1.685-0.803-2.677-1.353l0.004-0.979c-3.277-1.671-6.167-3.801-9.539-6.353
								c0,0,1.008,0.705,2.536,1.703c1.527,0.997,3.578,2.284,5.656,3.406c2.077,1.132,4.175,2.082,5.733,2.636
								c1.559,0.56,2.566,0.78,2.566,0.78c-1.217-0.574-3.123-1.443-5.382-2.76c-2.259-1.304-4.855-3.011-7.449-4.911
								c-5.189-3.79-10.4-8.219-13.398-10.856c3.573,3.398,1.993,2.22,1.346,1.779c-0.329-0.223-0.427-0.263,0.449,0.536
								C34.164,30.396,35.997,32.063,39.552,35.082z"/>
							<path fill="#FFFFFF" d="M53.44,45.977c0.11,0.05,0.291,0.134,0.417,0.192C53.731,46.111,53.55,46.027,53.44,45.977z"/>
							<path fill="#FFFFFF" d="M662.959,598.019c0.301-4.236,0.081-5.505,0.033-6.121c0,0-0.036,0.746-0.099,2.053
								c-0.046,1.308-0.179,3.17-0.352,5.404c-0.331,4.469-0.772,10.429-1.214,16.388c-0.11,1.489-0.221,2.979-0.33,4.445
								c-0.109,1.467-0.291,2.902-0.427,4.295c-0.292,2.785-0.563,5.384-0.796,7.611c-0.466,4.455-0.776,7.425-0.776,7.425
								c0.379-1.46,2.091-15.128,1.265-5.962c0.337-2.028,0.779-6.158,1.123-10.008c0.083-0.963,0.172-1.907,0.229-2.799
								c0.038-0.894,0.074-1.731,0.105-2.478c0.053-1.493,0.066-2.617,0.024-3.075l0.083,3.485
								c0.382-11.023,1.799-18.472,1.522-11.283l0.064-0.929c0,0,0.037-1.911,0.092-4.778c0.028-1.433,0.06-3.104,0.095-4.895
								c0.033-1.79-0.012-3.706-0.015-5.617c-0.051-7.643-0.101-15.285-0.101-15.285
								C662.821,587.078,663.702,584.546,662.959,598.019z"/>
							<path fill="#FFFFFF" d="M192.373,64.644c3.115-0.42,4.83-0.827,5.698-1.014c0.866-0.196,0.873-0.239,0.516-0.217
								c-1.099,0.233-2.171,0.46-3.206,0.68C194.338,64.284,193.333,64.468,192.373,64.644z"/>
							<path fill="#FFFFFF" d="M663.398,568.756l-0.269-9.571C663.169,563.014,663.268,566.381,663.398,568.756z"/>
							<path fill="#FFFFFF" d="M666.776,635.593c0.026,0.022,0.04,0.129,0.104-0.12l0.184-4.333
								c-0.007,0.064-0.009,0.084-0.012,0.109C666.951,632.842,666.86,634.272,666.776,635.593z"/>
							<path fill="#FFFFFF" d="M659.965,351.358c-0.016-1.031-0.029-1.92-0.049-3.152
								C659.934,349.354,659.95,350.392,659.965,351.358z"/>
							<path fill="#FFFFFF" d="M604.343,720.815c0,0,1.186,0.382,2.964,0.956c0.445,0.143,0.928,0.298,1.438,0.462
								c0.502,0.188,1.03,0.386,1.578,0.591c1.092,0.417,2.271,0.826,3.428,1.297c2.295,0.984,4.611,1.932,6.283,2.791
								c0.847,0.408,1.553,0.748,2.047,0.985c0.491,0.232,0.783,0.383,0.783,0.383c-1.24-0.524,0.224,0.302,1.8,1.211
								c0.825,0.463,1.599,0.897,1.889,1.06c0.31,0.186,0.027,0.121-1.153-0.404c0.42,0.201,1.216,0.605,2.301,1.066
								c1.074,0.457,2.426,0.965,3.811,1.315c2.789,0.715,5.618,0.554,3.641,0.442c-0.001,0-0.507-0.015-1.188-0.112
								c-0.337-0.05-0.741-0.107-1.151-0.186c-0.394-0.091-0.813-0.188-1.233-0.284c-1.62-0.432-2.934-0.995-2.934-0.995
								c3.165,1.148,6.046,1.446,8.29,1.195c2.188-0.25,3.518-0.8,4.88-1.434c0.825-0.488,1.742-0.97,2.615-1.659
								c0.432-0.35,0.901-0.738,1.42-1.185c0.48-0.45,0.936-0.965,1.481-1.547c0.551-0.585,0.979-1.238,1.554-1.98
								c0.523-0.739,1.019-1.56,1.568-2.479c1.022-1.83,2.054-4.035,3.056-6.715c-1.477,3.381-3.03,6.255-4.895,8.756
								c-1.877,2.48-4.09,4.656-7.127,6.025c-2.178,0.967-4.484,1.293-6.621,1.171c-2.067-0.118-3.829-0.585-5.41-1.132
								c-2.5-0.953-4.16-1.894-5.734-2.704c0,0-0.247-0.116-0.68-0.32c-0.421-0.187-1.022-0.451-1.744-0.77
								c-0.721-0.318-1.561-0.69-2.46-1.088c-0.896-0.403-1.89-0.746-2.86-1.136c-0.98-0.368-1.939-0.779-2.87-1.088
								c-0.928-0.312-1.794-0.602-2.536-0.851c-0.74-0.248-1.357-0.454-1.79-0.599c-0.438-0.125-0.689-0.196-0.689-0.196
								L604.343,720.815z"/>
							<path fill="#FFFFFF" d="M477.721,53.323l0.216-0.103C477.731,53.284,477.698,53.31,477.721,53.323z"/>
							<path fill="#FFFFFF" d="M478.798,52.8l-0.861,0.419C479.03,52.864,483.287,51.816,478.798,52.8z"/>
							<path fill="#FFFFFF" d="M663.721,572.281c-0.119-0.295-0.199-1.525-0.322-3.525c0,0,0.068,1.787,0.064,3.57
								c0.012,1.784,0.024,3.569,0.024,3.569C663.553,574.884,663.639,573.551,663.721,572.281z"/>
							<path fill="#FFFFFF" d="M664.459,588.569c0,0-0.049,1.12-0.121,2.8c-0.09,1.679-0.128,3.923-0.306,6.157
								c-0.308,4.473-0.616,8.944-0.616,8.944l-0.129,6.622c0.195-3.428,0.407-7.146,0.639-11.212
								c0.11-2.032,0.226-4.152,0.346-6.367C664.332,593.296,664.394,590.983,664.459,588.569z"/>
							<path fill="#FFFFFF" d="M659.805,379.783c-0.595-37.257,0.943,9.142,0.918-7.979c-0.258-10.339-0.593-13.993-0.758-20.446
								c0.213,14.787-0.094,13.785-0.445,12.819c-0.343-0.968-0.721-1.902-0.417,13.002c-0.38-2.116-0.649-7.488-0.801-13.599
								c-0.103-6.117-0.095-12.969-0.018-18.033c0.641-11.463,0.535,10.016,1.213,12.606c-0.154-11.971-0.271-9.861-0.669-14.943
								c0.007-4.704,0.014-9.488,0.02-14.195c-0.02-4.709-0.039-9.341-0.058-13.736c0.018-8.792,0.295-16.645,0.896-22.252
								c0.089-6.821,0.114-10.001,0.065-12.462c-0.048-2.459-0.144-4.193-0.163-8.103c-0.329-0.791-0.643,4.242-0.949,10.128
								c-0.322,5.883-0.498,12.621-0.873,15.138c0.09-1.046,0.269-3.086,0.354-2.491l-0.473,11.795
								c0.576-11.195,0.645,1.575,0.625,7.554c-0.026,4.348-0.079,12.992-0.269,11.801l-0.093-6.586
								c-0.302,8.475,0.299,18.708-0.007,27.642c-0.162,0.468-0.252-2.915-0.354-3.428c0.542,10.018,0.491,19.685,1.082,34.486
								l-0.835-8.578c0.492,5.917,0.714,15.593,0.908,26.091c0.188,10.5,0.233,21.849,0.223,31.123
								c0.08-2.06,0.089-5.77,0.274-3.546c0.398,10.893,0.073,19.133-0.412,14.094c0.416,5.319,0.469,15.443,0.569,26.058
								c0.084,10.61,0.114,21.684,0.61,28.92c0,0,0.249,4.155,0.624,10.387c0.184,3.117,0.398,6.754,0.629,10.65
								c0.113,1.949,0.231,3.964,0.352,6.01c0.094,2.046,0.188,4.123,0.283,6.201c0.189,4.157,0.379,8.315,0.557,12.214
								c0.178,3.899,0.36,7.541,0.423,10.658c0.176,6.24,0.293,10.4,0.293,10.4c-0.024-2.492-0.027-5.157,0.016-7.905
								c0.798-6.029,0.81-9.295,1.121,1.316c-0.046-10.411-0.671-6.444-0.53-22.082c0.261,6.137,0.974,7.699,1.193-7.29
								c-0.096-9.37-0.431-17.954-0.712-26.098c-0.317-8.145-0.778-15.857-1.188-23.488c-0.874-15.268-1.863-30.219-2.687-47.738
								c0.463-1.3-0.247-28.829-0.308-42.23c0.57,5.11,0.924,15.037,1.221,25.344c-0.073-6.472-0.319-17.603-0.376-25.875
								L659.805,379.783z"/>
							<path fill="#FFFFFF" d="M663.078,466.92c0.012-0.938,0.024-1.909,0.037-2.905
								C663.084,464.546,663.069,465.413,663.078,466.92z"/>
							<path fill="#FFFFFF" d="M661.299,412.154c0.021,0.129,0.035,0.083,0.056,0.128c-0.032-1.081-0.065-2.162-0.099-3.269
								C661.271,410.121,661.288,411.371,661.299,412.154z"/>
							<path fill="#FFFFFF" d="M665.098,563.546c0.056,2.229,0.098,3.876,0.154,6.104c0-1.372,0.001-3.092,0.001-4.748
								C665.229,563.324,665.184,562.572,665.098,563.546z"/>
							<path fill="#FFFFFF" d="M664.027,571.008l-0.161-1.195c-0.04,0.955-0.093,1.625-0.146,2.469
								C663.816,572.543,663.921,572.27,664.027,571.008z"/>
							<path fill="#FFFFFF" d="M666.458,237.585l-0.095-3.556C666.364,236.172,666.404,237.095,666.458,237.585z"/>
							<path fill="#FFFFFF" d="M660.337,338.256c0.094,12.964,0.735,1.551,0.805,19.887l0.025-5.382
								c0.216,13.148,0.594,36.247,0.85,51.866c-0.324-1.756-0.177,9.473-0.662,7.655c0.313,10.667,0.642,21.221,1.218,26.706
								c-0.017,6.608,0.574,16.628,0.543,25.026c0.206-3.549,1.148,11.936,0.43-8.488c0.068,1.648,0.111,0.612,0.181,2.241
								c0.137-13.168-0.613-18.434-0.861-29.777c0.129-6.786,0.664,11.082,0.64,4.681c-0.563-14.154-0.542-44.465-1.533-43.509
								c-0.207-10.319-0.002-11.748,0.144-14.827c-0.701-8.152-0.604-23.314-0.573-36.409c0.205-13.102,0.354-24.14-0.338-24.078
								c-0.002,5.97-0.131,15.696,0.086,24.454L660.337,338.256z"/>
							<path fill="#FFFFFF" d="M665.555,541.856c0.012-0.796,0.028-1.855,0.038-2.515
								C665.582,540.085,665.567,541.01,665.555,541.856z"/>
							<path fill="#FFFFFF" d="M645.392,702.515c0,0,0.115-1.297,0.191-2.611c0.087-1.308,0.146-2.627,0.146-2.627
								c0.801-3.587,1.343-7.098,1.921-10.304c0.57-3.217,1.1-6.202,1.601-9.022c0.509-2.819,0.988-5.475,1.45-8.033
								c0.373-2.575,0.731-5.054,1.086-7.503c0.704-4.899,1.391-9.681,2.139-14.887c0.417-2.596,0.638-5.332,0.963-8.229
								c0.304-2.9,0.626-5.977,0.974-9.295c0.336-2.017,0.075,1.213-0.056,2.851c0.236-2.334,0.487-4.814,0.748-7.393
								c0.266-2.578,0.566-5.251,0.734-7.995c0.404-5.479,0.824-11.169,1.231-16.699c0.468-5.523,0.612-10.921,0.83-15.775
								c0.193-4.856,0.338-9.183,0.4-12.606c0.251-5.981,0.904-21.71,1.027-15.748c-0.001-2.918,0.012-6.254,0.131-9.607
								c0.35-0.882-0.11,7.509,0.15,7.708c0.094-2.659,0.185-3.694,0.1-4.309c0.158,4.483,1.227-4.622,0.642,16.264
								c-0.977,8.061,0.303-14.487-0.662-9.736c-0.193,6.923,0.152,6.128,0.238,6.724c-0.237,8.827-0.513,8.58-0.667,8.105
								c0.096,3.386-0.804,14.444-0.637,19.127c-0.108,2.141-0.189,3.731-0.249,4.898c-0.1,1.163-0.176,1.903-0.237,2.346
								c-0.122,0.885-0.18,0.578-0.225,0.086c-0.092-0.983-0.135-2.706-0.546,2.869l0.367,6.491c0,0-0.385,4.636-0.771,9.271
								c-0.096,1.159-0.192,2.318-0.282,3.404c-0.101,1.085-0.231,2.094-0.325,2.96c-0.197,1.731-0.328,2.886-0.328,2.886
								c-1.255,13.394-0.791,12.481-0.354,12.045c0.219-0.218,0.43-0.315,0.416,1.561c-0.007,0.938-0.07,2.369-0.218,4.526
								c-0.134,2.159-0.528,5.02-0.983,8.844c0.062-2.033-0.521-0.014-1.388,4.278c-0.434,2.146-0.938,4.86-1.469,7.921
								c-0.262,1.531-0.538,3.148-0.824,4.822c-0.33,1.666-0.672,3.39-1.021,5.144c0.18-1.054,0.379-2.22,0.593-3.474
								c0.104-0.628,0.211-1.277,0.32-1.947c0.084-0.674,0.169-1.367,0.257-2.077c0.344-2.84,0.72-5.944,1.104-9.125
								c0.739-6.366,1.749-13.001,2.348-18.503c-2.284,15.426,2.157-21.345,0.559-13.375c-0.223,3.845-0.657,8.962-1.189,14.36
								c-0.138,1.349-0.276,2.716-0.416,4.085c-0.194,1.361-0.39,2.725-0.582,4.075c-0.413,2.698-0.817,5.344-1.195,7.815
								l0.377-3.256c-0.782,5.259-1.232,9.911-1.783,15.066c-0.693,5.126-1.61,10.733-3.064,17.923
								c-1.266,7.179-1.258,5.787-1.226,4.487c-0.448,3.08-1.024,5.833-1.458,7.889
								C645.842,701.255,645.477,702.524,645.392,702.515z M648.408,687.196l1.812-9.573
								C649.672,679.875,649.032,683.449,648.408,687.196z"/>
							<path fill="#FFFFFF" d="M7.554,135.655c0.027-0.979,0.059-2.106,0.083-2.994C7.593,133.315,7.569,134.449,7.554,135.655z"/>
							<path fill="#FFFFFF" d="M310.619,746.587l-5.73-0.012C307.126,746.58,308.96,746.584,310.619,746.587z"/>
							<path fill="#FFFFFF" d="M182.107,741.318c0,0-2.086-0.194-4.173-0.39c-2.08-0.24-4.16-0.481-4.16-0.481
								c1.638,0.222,3.101,0.406,4.463,0.558C179.604,741.116,180.87,741.219,182.107,741.318z"/>
							<path fill="#FFFFFF" d="M8.037,203.737v0.279c0.026,0.466,0.046,0.823,0.074,1.315L8.037,203.737z"/>
							<path fill="#FFFFFF" d="M7.181,623.45c0.143-1.263,0.288-2.681,0.447-4.623C7.531,619.056,7.374,620.783,7.181,623.45z"/>
							<path fill="#FFFFFF" d="M183.645,741.46c-0.212-0.031-0.335-0.05-0.502-0.074c-0.325-0.021-0.683-0.044-1.035-0.067
								L183.645,741.46z"/>
							<path fill="#FFFFFF" d="M367.419,746.678c1.229-0.122,2.346-0.233,3.666-0.364
								C369.354,746.462,368.295,746.574,367.419,746.678z"/>
							<path fill="#FFFFFF" d="M359.169,744.898c1.314-0.132,2.571-0.258,3.55-0.355L359.169,744.898z"/>
							<path fill="#FFFFFF" d="M553.427,713.754c0,0,1.854-0.148,3.709-0.297c1.854-0.105,3.707-0.211,3.707-0.211
								c-1.824,0.084-3.279,0.148-4.479,0.23C555.166,713.59,554.224,713.679,553.427,713.754z"/>
							<path fill="#FFFFFF" d="M379.595,743.894c0.444-0.074,0.887-0.176,1.181-0.245
								C379.718,743.808,379.214,743.882,379.595,743.894z"/>
							<path fill="#FFFFFF" d="M10.736,86.869c-0.003,0.175-0.006,0.363-0.008,0.466l0.094,0.196L10.736,86.869z"/>
							<path fill="#FFFFFF" d="M10.019,68.158c0.053-2.204,0.109-4.498,0.164-6.753C10.086,63.912,10.026,66.356,10.019,68.158z"/>
							<path fill="#FFFFFF" d="M14.796,512.2c0.236-2.021,0.65-6.775,0.665-4.545C15.503,503.762,15.06,503.996,14.796,512.2z"/>
							<path fill="#FFFFFF" d="M15.459,124.348c-0.106-1.222-0.179-2.742-0.249-4.268C15.302,122.919,15.389,125.408,15.459,124.348
								z"/>
							<path fill="#FFFFFF" d="M15.21,120.081c-0.05-1.403-0.103-2.903-0.147-4.158C15.1,117.384,15.152,118.787,15.21,120.081z"/>
							<path fill="#FFFFFF" d="M18.92,564.216c-0.086,0.501-0.178,1.28-0.253,2.339C18.8,566.251,18.872,565.406,18.92,564.216z"/>
							<path fill="#FFFFFF" d="M10.532,55.954c-0.242-1.204,0.935-30.646-0.486-5.913c-0.288-0.492-0.187-4.46,0.079-9.143
								c0.074-1.172,0.15-2.388,0.227-3.604c0.116-1.537,0.232-3.074,0.345-4.558c0.275-3.357,0.669-6.438,1.347-8.243
								c-0.284,0.588-0.39,1.158-0.508,1.444c-0.106,0.309-0.165,0.437-0.19,0.432c-0.05-0.01,0.039-0.551,0.167-1.231
								c0.054-0.358,0.155-0.685,0.255-0.991c0.095-0.315,0.186-0.613,0.257-0.848c0.146-0.458,0.212-0.658-0.021-0.37
								c-0.194,0.429-0.373,0.909-0.565,1.38c-0.172,0.508-0.3,1.113-0.458,1.688c-0.183,0.547-0.21,1.303-0.322,1.98
								c-0.101,0.692-0.188,1.418-0.24,2.199c-0.144,1.533-0.255,3.175-0.376,4.934c-0.084,1.257-0.175,2.6-0.272,4.044
								c-0.217,1.237-0.261-0.2-0.154-2.765c0.007-0.16,0.014-0.325,0.021-0.493c0.015-0.244,0.03-0.494,0.045-0.749
								c0.036-0.538,0.074-1.098,0.113-1.676c0.07-1.162,0.189-2.374,0.313-3.619c0.052-0.631,0.129-1.249,0.233-1.846
								c0.098-0.603,0.184-1.224,0.293-1.813c0.158-0.53,0.316-1.06,0.472-1.584c0.143-0.549,0.384-0.911,0.568-1.363
								c-0.533,0.979-0.747,1.766-0.892,2.097c-0.14,0.339-0.168,0.301-0.12,0.018c0.05-0.277,0.164-0.822,0.335-1.433
								c0.22-0.52,0.449-1.211,0.734-1.724c0.141-0.261,0.279-0.516,0.407-0.751c0.141-0.218,0.271-0.417,0.38-0.586
								c0.24-0.334,0.415-0.546,0.396-0.566c-0.015-0.01-0.069,0.03-0.183,0.131c-0.118,0.099-0.286,0.26-0.479,0.505
								c-0.41,0.479-1.011,1.286-1.719,2.941c-0.152,0.499-0.303,0.995-0.454,1.488c-0.087,0.232-0.133,0.514-0.172,0.803
								L9.777,27.02c-0.083,0.569-0.186,1.116-0.25,1.694c-0.057,0.585-0.114,1.167-0.17,1.746
								c-0.123,1.152-0.204,2.314-0.286,3.463c-0.042,0.572-0.083,1.142-0.125,1.709l-0.065,1.112
								c-0.165,2.806-0.287,5.5-0.392,8.111c-0.208,5.22-0.337,10.098-0.417,14.753c-0.156,9.309-0.105,17.725,0.153,26.12
								C8.391,72.133,8.71,56.917,9.549,45.754l0.313,4.721C8.824,63.066,8.944,70.857,8.573,83.246c0,0,0.269-6.957,0.537-13.914
								c0.326-6.958,0.652-13.916,0.652-13.916c1.051-13.029,0.708-4.29,0.42,5.989C10.283,58.878,10.409,56.592,10.532,55.954z"/>
							<path fill="#FFFFFF" d="M14.654,74.841l0.029-0.465c-0.007-0.408-0.004-0.912-0.02-1.171L14.654,74.841z"/>
							<path fill="#FFFFFF" d="M551.192,702.872l2.432-0.371C551.587,702.732,550.963,702.839,551.192,702.872z"/>
							<path fill="#FFFFFF" d="M11.607,91.343l0-0.02C11.609,91.512,11.608,91.557,11.607,91.343z"/>
							<path fill="#FFFFFF" d="M491.999,713.541c0.079-0.031,0.159-0.063,0.298-0.12
								C492.093,713.487,492.097,713.503,491.999,713.541z"/>
							<path fill="#FFFFFF" d="M479.321,728.693c0.113-0.002,0.15,0.014,0.408-0.022
								C480.96,728.342,480.354,728.462,479.321,728.693z"/>
							<path fill="#FFFFFF" d="M491.967,713.602c-0.004-0.017-0.046-0.023,0.032-0.061
								C491.959,713.569,491.862,713.61,491.967,713.602z"/>
							<path fill="#FFFFFF" d="M206.856,734.036c0,0,0.892,0.216,2.312,0.422C209.727,734.443,209.176,734.378,206.856,734.036z"/>
							<path fill="#FFFFFF" d="M263.494,739.189c0.36,0.043,0.572,0.068,1.035,0.124L263.494,739.189z"/>
							<path fill="#FFFFFF" d="M11.594,525.529c-0.167,2.816-0.271,4.93-0.349,6.715C11.375,530.19,11.498,527.967,11.594,525.529z"
								/>
							<path fill="#FFFFFF" d="M492.297,713.421c0.568-0.194,1.378-0.456,2.729-0.851
								C493.536,713.003,492.759,713.258,492.297,713.421z"/>
							<path fill="#FFFFFF" d="M120.507,724.716c0.603,0.085,1.167,0.166,1.737,0.247c-0.343-0.069-0.686-0.139-1.021-0.206
								L120.507,724.716z"/>
							<path fill="#FFFFFF" d="M91.312,718.997c1.008,0.136,1.477,0.164,2.046,0.22c-10.453-1.858-29.551-5.813-31.915-5.791
								c3.518,0.78,21.792,4.669,18.6,4.405c3.646,0.647,8.133,1.601,12.202,2.479c4.075,0.842,7.739,1.559,9.708,1.874
								c-11.905-2.474-1.203-0.714,6.906,0.553c7.313,1.494-1.464,0.209,4.842,1.457c0,0,4.252,0.749,8.504,1.497
								c4.265,0.672,8.53,1.345,8.53,1.345s-3.709-0.618-7.419-1.236c-1.857-0.293-3.701-0.669-5.088-0.918
								c-1.387-0.258-2.311-0.43-2.311-0.43l4.591,0.265c-0.551-0.08-0.929-0.135-1.518-0.221
								C93.91,720.21,117,723.344,91.312,718.997z"/>
							<path fill="#FFFFFF" d="M93.358,719.217c1.572,0.251,2.955,0.455,4.035,0.591C95.03,719.39,94.103,719.281,93.358,719.217z"
								/>
							<path fill="#FFFFFF" d="M10.561,685.503c0.048-1.306,0.1-2.723,0.165-4.502C10.695,681.849,10.623,683.814,10.561,685.503z"
								/>
							<path fill="#FFFFFF" d="M662.106,625.783c-0.21,0.431-2.09,15.112-1.637,14.897c0.503-4.366,1.009-8.764,1.518-13.182
								L662.106,625.783z"/>
							<path fill="#FFFFFF" d="M23.948,402.608c-0.092,1.647-0.185,3.301-0.278,4.954c0.005,0.356,0.01,0.7,0.014,0.966
								C23.803,407.524,23.899,404.258,23.948,402.608z"/>
							<path fill="#FFFFFF" d="M75.508,717.14c2.68,0.463,3.88,0.632,4.535,0.691C78.309,717.522,76.705,717.262,75.508,717.14z"/>
							<path fill="#FFFFFF" d="M25.014,401.73c0.25-2.093,0.549-5.187,0.733-5.62c0.088-2.154,0.115-3.989,0.114-5.835
								c-0.038-1.848-0.086-3.704-0.093-5.898C25.802,389.333,25.545,395.062,25.014,401.73z"/>
							<path fill="#FFFFFF" d="M25.766,384.02c0.001,0.124,0.001,0.247,0.002,0.357C25.768,384.254,25.767,384.144,25.766,384.02z"
								/>
							<path fill="#FFFFFF" d="M663.084,617.026c0.066-1.272,0.134-2.584,0.203-3.934l-0.038,2.053
								c0.296-3.395,0.591-6.771,0.886-10.152c0.072-1.227,0.149-2.557,0.244-4.189c-0.034,0.658-0.027,1.171-0.004,1.49
								c0.1-1.102,0.196-2.178,0.293-3.254c0.025-1.015,0.057-2.219,0.091-3.559c0.019-1.342,0.04-2.82,0.063-4.384
								c0.066-3.126,0.141-6.594,0.214-9.989c0.08-3.394,0.159-6.716,0.227-9.554c0.041-2.838,0.008-5.195-0.009-6.652
								c-0.008-7.709,0.224-17.132,0.302-23.046c-0.041,5.481-0.232,12.755,0.098,10.577c0.136-2.779,0.304-5.202,0.451-7.573
								c0.107-2.372,0.213-4.692,0.329-7.265c0.169-5.146,0.311-11.306,0.01-20.917c0,0,0.029,2.818-0.011,5.636
								c-0.025,2.818-0.05,5.637-0.05,5.637s-0.044-1.585-0.11-3.961c-0.058-2.376-0.154-5.544-0.3-8.712
								c-0.262-6.335-0.522-12.67-0.522-12.67c0.361-8.88,0.521,12.646,0.877,16.166c-0.278-9.857-0.094-18.884-0.002-26.592
								c0.05-7.708,0.073-14.096-0.399-18.659c0.467-1.294,1.281-3.469,0.978-16.409c-0.381,9.341-0.504-7.751-0.956-0.086
								c-0.363-4.465-0.096-14.437-0.476-15.174l0.226,1.206c0.317-22.112-1.046-29.32-1.614-38.77
								c-0.372-13.229-0.453-22.891-0.526-31.94c-0.112-9.048-0.024-17.491-0.119-28.291c0.317-0.85,1.18-6.728,1.263-15.389
								c-0.202-2.015-0.307-7.909-0.429-13.551c-0.125-5.642-0.101-11.031-0.38-12.036c-0.163,3.873-0.237,6.603-0.257,8.663
								c-0.001,2.061,0.068,3.453,0.136,4.65c0.142,2.395,0.337,4.012,0.358,8.649c-0.67,7.716-0.595,0.693-1.053,11.24
								c0.156-4.257,0.173-13.875,0.231-23.595c0.209-9.72,0.49-19.542,0.892-24.194l-0.012,3.294
								c0.735-14.867,2.527-17.644,2.427-42.409c0,0-0.024-2.95-0.049-5.901c-0.021-1.474-0.043-2.949-0.059-4.054
								c-0.029-1.105-0.048-1.842-0.048-1.842c0.055,0.568,0.12,0.633,0.17,0.937c0.06-9.646,0.082-13.154,0.104-16.912
								c0.016-1.881-0.077-3.82-0.223-6.619c-0.061-1.4-0.205-3.011-0.381-4.934c-0.09-0.961-0.187-2-0.292-3.131
								c-0.139-1.126-0.29-2.343-0.453-3.662c0.206,1.63,0.163,0.599,0.371,2.256c-0.375-6.059-1.346-12.084-2.456-17.685
								c-0.322-1.391-0.639-2.759-0.949-4.099c-0.156-0.668-0.312-1.331-0.464-1.984c-0.187-0.646-0.37-1.284-0.552-1.913
								c-0.711-2.518-1.385-4.899-2.006-7.097c-0.544-2.745-0.386-2.452,0.169-1.088c0.494,1.379,1.198,3.875,1.804,5.509
								c-1.176-5.209-2.936-10.375-4.658-15.461c-0.954-2.512-1.902-5.008-2.836-7.465c-0.969-2.444-1.989-4.827-2.96-7.159
								c-3.932-9.313-7.718-17.618-10.159-23.861c0,0-0.273-0.824-0.685-2.06c-0.395-1.242-0.998-2.868-1.44-4.555
								c-0.95-3.346-1.9-6.693-1.9-6.693c2.44,7.901,6.446,17.12,5.842,14.672c-1.314-3.568-1.902-4.988-2.6-6.788
								c-0.619-1.827-1.33-4.043-2.86-9.208c0.414,0.838,1.019,2.317,1.749,4.174c0.361,0.928,0.759,1.95,1.182,3.035
								c0.209,0.542,0.425,1.099,0.646,1.668c0.245,0.561,0.496,1.132,0.75,1.712c-3.151-10.627-3.659-11.766-3.983-12.103
								c-0.3-0.339-0.396,0.121-1.868-7.522c-1.687-6.779-3.38-10.507-3.955-11.107c0,0-0.202-0.759-0.569-1.875
								c-0.179-0.561-0.388-1.215-0.61-1.916c-0.26-0.687-0.536-1.42-0.813-2.152c-0.256-0.745-0.597-1.449-0.908-2.115
								c-0.311-0.668-0.6-1.292-0.848-1.826c-0.233-0.544-0.521-0.945-0.678-1.251c-0.171-0.298-0.269-0.469-0.269-0.469
								c-0.555-0.471-2.847-4.044-6.684-7.691c-1.877-1.858-4.183-3.659-6.535-5.339c-0.596-0.412-1.19-0.822-1.779-1.229
								c-0.611-0.375-1.218-0.746-1.814-1.111c-1.192-0.73-2.346-1.436-3.429-2.099c-1.173-0.444,6.78,4.575,9.74,6.95
								c-0.428-0.07-2.69-1.795-5.813-3.664c-1.561-0.934-3.286-1.965-4.991-2.985c-0.427-0.253-0.842-0.525-1.271-0.76
								c-0.438-0.221-0.87-0.44-1.295-0.656c-0.849-0.435-1.667-0.855-2.434-1.248c-0.802-1.161-11.133-5.995-20.873-8.288
								c-1.212-0.299-2.402-0.592-3.552-0.876c-1.16-0.237-2.29-0.406-3.348-0.601c-1.06-0.19-2.054-0.369-2.962-0.532
								c-0.454-0.083-0.887-0.163-1.295-0.238c-0.412-0.052-0.799-0.1-1.159-0.146c-2.877-0.375-4.006-0.64-1.931-0.71
								c-7.772-0.801-16.415-0.884-25.228-0.134c-8.817,0.703-17.805,2.076-26.407,3.7c-8.607,1.614-16.831,3.495-24.185,5.182
								c-7.357,1.706-13.84,3.208-18.896,4.379c-6.759,1.18-20.521,3.625-12.361,1.671c-12.463,2.27-21.997,3.679-31.606,4.339
								c-2.397,0.237-4.81,0.229-7.265,0.309c-2.457,0.119-4.962-0.014-7.563-0.103c-5.2-0.187-10.771-0.87-17.004-2.117
								c-1.024-0.241,1.807,0.253,4.787,0.746c0.746,0.115,1.497,0.265,2.207,0.339c0.713,0.061,1.375,0.117,1.93,0.164
								c1.11,0.083,1.791,0.102,1.575-0.003c-8.241-0.72-15.715-2.284-23.867-5.284c-1.017-0.378-2.088-0.66-3.111-1.133
								c-1.032-0.446-2.084-0.9-3.159-1.365c-1.075-0.462-2.174-0.935-3.299-1.418c-1.107-0.519-2.216-1.101-3.368-1.667
								c-4.579-2.316-9.475-5.105-15.06-8.135c3.749,2.065,4.935,2.501,5.508,2.7c0.29,0.4-9.217-4.935-15.199-7.523
								c-1.649-0.794-0.527-0.317,0.782,0.238c1.291,0.603,2.758,1.313,1.866,0.788c-1.347-0.729-2.72-1.361-4.086-1.986
								c-0.682-0.315-1.361-0.629-2.039-0.942c-0.693-0.27-1.384-0.539-2.072-0.807c-0.689-0.268-1.375-0.534-2.06-0.8
								c-0.681-0.275-1.398-0.43-2.092-0.65c-1.401-0.396-2.781-0.843-4.177-1.188c-5.624-1.277-11.264-1.73-16.806-1.713
								c-5.547,0.149-10.984,0.767-16.323,1.712c-5.326,1.019-10.579,2.212-15.76,3.683c-10.386,2.855-20.565,6.418-31.088,10.124
								c-10.525,3.694-21.405,7.58-33.274,10.854c1.691-0.477,3.253-0.911,4.677-1.347c1.417-0.458,2.71-0.876,3.887-1.257
								c2.354-0.765,4.203-1.479,5.648-2.038c2.889-1.123,4.102-1.779,4.131-1.928c0,0-0.813,0.269-2.033,0.67
								c-1.224,0.393-2.855,0.916-4.487,1.438c-1.628,0.535-3.276,1.01-4.505,1.389c-1.23,0.373-2.051,0.621-2.051,0.621
								c-4.972,1.824-14.929,4.57-23.427,6.291c-1.07,0.068-5.23,0.68-1.032-0.227c-0.839,0.131-1.667,0.26-2.485,0.387
								c-0.822,0.097-1.634,0.193-2.436,0.287c-1.604,0.176-3.161,0.427-4.698,0.549c-1.538,0.124-3.043,0.245-4.524,0.364
								c-1.481,0.11-2.935,0.3-4.378,0.317c-1.443,0.059-2.868,0.117-4.284,0.175c-1.416,0.06-2.823,0.152-4.226,0.125
								c-1.405,0.004-2.807,0.009-4.213,0.014c-1.407,0.008-2.821,0.028-4.241-0.042c-11.386-0.249-23.518-1.411-39.892-3.956
								c0,0,2.496,0.274,6.24,0.686c1.875,0.196,4.062,0.425,6.405,0.669c2.343,0.247,4.845,0.495,7.354,0.696
								c5.006,0.476,10.037,0.747,13.8,0.961c3.771,0.115,6.285,0.192,6.285,0.192s-2.474-0.27-4.947-0.54
								c-1.237-0.123-2.47-0.277-3.392-0.42c-0.923-0.13-1.538-0.217-1.538-0.217s1.101,0.067,2.751,0.168
								c1.653,0.052,3.857,0.121,6.061,0.19c2.201,0.1,4.404,0.062,6.055,0.041c1.65-0.017,2.75-0.028,2.75-0.028
								c-5.25-0.224-10.153-0.432-13.906-0.592c-3.753-0.22-6.354-0.408-6.96-0.704c2.226,0.068,7.549,0.64,7.738,0.333
								c-10.024-1.035-10.844-0.844-18.395-1.655c2.494,0.2,5.287,0.423,8.306,0.665c3.018,0.205,6.259,0.45,9.652,0.653
								c3.396,0.111,6.939,0.391,10.564,0.356c1.812,0.006,3.644,0.057,5.484,0.035c1.838-0.065,3.688-0.131,5.54-0.196
								c14.825-0.489,29.439-4.094,39.493-7.074c3.16-0.968-2.657,0.996-3.196,1.252c2.067-0.57,3.927-1.083,5.718-1.577
								c1.788-0.515,3.505-1.01,5.29-1.524c3.564-1.055,7.381-2.247,12.493-4.055c6.245-2.554-4.959,1.382-10.059,2.921
								c0.586-0.59,3.153-1.335,8.772-3.286c0.694,0.046,8.433-2.553,16.967-5.388c8.53-2.842,17.933-5.714,21.747-6.431
								c3.834-1.139,6.678-1.843,8.705-2.438c2.05-0.518,3.307-0.863,4.031-1.093c1.449-0.459,0.77-0.453,0.066-0.43
								c-0.703,0.023-1.429,0.063-0.059-0.331c0.688-0.191,1.887-0.529,3.915-0.911c1.011-0.197,2.221-0.432,3.662-0.712
								c1.452-0.239,3.149-0.472,5.109-0.76c0,0,0.147-0.013,0.406-0.037c0.258-0.024,0.625-0.063,1.073-0.074
								c0.891-0.037,2.079-0.087,3.268-0.136c1.186-0.052,2.368-0.109,3.264-0.068c0.892,0.015,1.487,0.025,1.487,0.025
								c1.151-0.065,2.322-0.169,3.517-0.204c1.198,0.006,2.416,0.013,3.651,0.019c0.618,0.004,1.241,0.009,1.867,0.013
								c0.626,0.051,1.256,0.103,1.89,0.154c1.269,0.109,2.553,0.219,3.851,0.331c1.29,0.188,2.587,0.436,3.899,0.658
								c0.656,0.115,1.314,0.231,1.976,0.347c0.657,0.138,1.302,0.341,1.958,0.51c1.308,0.358,2.624,0.718,3.947,1.08
								c1.293,0.439,2.574,0.933,3.87,1.404c10.255,4.039,19.575,9.991,28.48,14.604c0,0-0.941-0.485-1.881-0.98
								c-0.939-0.495-1.88-0.989-1.88-0.989c-2.614-1.12,1.447,1.207,3.225,2.292c6.688,3.625,13.502,5.95,19.675,7.718
								c6.234,1.58,11.822,2.603,16.36,3.362c4.31,0.382,9.359,0.579,14.809,0.449c1.361-0.041,2.748-0.081,4.155-0.123
								c1.405-0.029,2.833-0.195,4.272-0.286c1.44-0.115,2.896-0.202,4.358-0.339c1.462-0.169,2.935-0.338,4.411-0.509
								c11.812-1.383,23.832-3.89,33.601-6.104c2.72-0.215-3.638,1.355-11.71,2.972c-4.034,0.841-8.506,1.592-12.478,2.257
								c-3.977,0.595-7.451,1.143-9.503,1.408c0,0,1.127-0.108,2.817-0.27c1.688-0.222,3.937-0.517,6.186-0.812
								c2.251-0.277,4.49-0.7,6.174-0.952c1.684-0.271,2.806-0.452,2.806-0.452c-2.774,0.448-5.126,0.846-7.196,1.214
								c-2.073,0.331-3.867,0.617-5.523,0.882c-0.827,0.144-1.619,0.281-2.396,0.416c-0.776,0.115-1.536,0.228-2.297,0.34
								c-1.522,0.239-3.046,0.479-4.712,0.74c3.967-0.357,7.271-0.632,10.206-1.114c1.469-0.223,2.852-0.433,4.188-0.637
								c1.332-0.232,2.615-0.491,3.893-0.735c1.275-0.249,2.545-0.497,3.848-0.751c1.298-0.282,2.63-0.571,4.034-0.876
								c2.809-0.611,5.906-1.284,9.608-2.089c-1.116,0.427,0.895,0.174,7.747-1.303l1.841-0.896c0.135,0.011,0.9-0.12,3.022-0.555
								c0,0,6.6-1.528,13.199-3.056c6.608-1.529,13.271-2.928,13.271-2.928c-5.696,0.949-6.069,0.566-12.929,2.046
								c2.508-0.254-3.301,1.057-10.137,2.568c5.919-1.631-6.72,1.205-6.629,0.914c6.861-1.514,14.506-3.2,21.561-4.756
								c7.09-1.524,13.628-2.837,18.209-3.666l3.057-0.043c3.329-0.561,6.754-0.933,10.108-1.411
								c1.686-0.201,3.37-0.351,5.026-0.529c1.658-0.171,3.29-0.36,4.905-0.434c3.222-0.204,6.305-0.433,9.182-0.405
								c1.436-0.012,2.813-0.023,4.122-0.034c1.311,0.04,2.553,0.122,3.712,0.184l-2.933,0.111
								c8.196,0.223,16.341,1.189,24.104,2.908c1.93,0.482,3.846,0.961,5.745,1.436c1.857,0.624,3.699,1.242,5.521,1.854
								c1.842,0.561,3.566,1.375,5.289,2.125c0.858,0.381,1.712,0.759,2.56,1.136c0.851,0.371,1.689,0.75,2.479,1.217
								c1.662,0.788,3.378,1.601,5.129,2.431c0.438,0.209,0.878,0.419,1.32,0.63c0.424,0.244,0.85,0.489,1.276,0.735
								c0.854,0.494,1.715,0.992,2.579,1.492c3.482,1.94,6.958,4.163,10.163,6.8c3.208,2.616,6.064,5.633,8.387,8.746
								c1.063,1.612,2.202,3.126,3.014,4.713c0.435,0.781,0.858,1.543,1.271,2.285c0.357,0.758,0.704,1.494,1.04,2.206
								c0.801,1.495,2.066,4.903,3.297,9.348c1.251,4.441,2.451,9.913,3.888,15.472c2.901,11.092,7.54,23.084,10.885,30.426
								c0.347,1.016-4.529-10.092-6.489-15.144c3.516,9.998,7.483,17.629,8.136,20.989c-8.71-22.436,0.018,1.38-4.153-8.628
								c2.106,5.243,4.271,10.627,6.167,15.345c0.978,2.351,1.796,4.596,2.553,6.545c0.767,1.948,1.427,3.624,1.938,4.926
								c-6.323-17.346,3.087,5.854-3.646-11.581c1.454,3.293,2.839,7.029,4.366,10.907c0.704,1.972,1.373,4.021,2.074,6.095
								c0.345,1.04,0.693,2.088,1.045,3.143c0.358,1.052,0.604,2.156,0.912,3.242c2.564,8.679,4.219,17.985,5.118,26.635
								c-0.297-0.14-0.135,2.006,0.315,8.453l0.761,5.171c0.15,4.047-0.094,0.143-0.466-2.734c-0.348-2.877-0.58-4.722-0.091,3.412
								c0.859,8.351,0.93,20.952,0.649,32.301c-0.28,11.353-0.695,21.485-0.231,25.129c-0.499,6.291-0.373,0.292-0.293-4.913
								c0.066-5.212,0.088-9.622-0.571-0.121c-0.006-5.541,0.269-12.125,0.388-17.801c0.135-5.672,0.148-10.427-0.159-12.261
								c0.08,10.896-0.541,3.97-0.658,10.987c0,0,0.013,3.032,0.026,6.063c-0.009,3.03-0.017,6.06-0.017,6.06l0.113-2.678
								c-0.021,5.086-0.177,10.901-0.378,17.167c-0.205,6.265-0.471,12.971-0.616,19.854c-0.16,6.884-0.419,13.938-0.525,20.893
								c-0.06,6.957-0.119,13.807-0.175,20.268c0.267,10.949,0.717,20.192,1.041,29.977c0.438,9.792,0.707,20.118,0.941,33.263
								c-0.503-7.754,0.065,21.838-0.899,5.302c-0.042,6.086,0.079,12.128,0.265,16.683c0.182,4.553,0.404,7.613,0.539,7.73
								c-0.131-10.71,0.005-3.768-0.049-12.789c0.443,6.081,0.722,20.116,0.631,25.885c-0.032-2.673-0.072-1.655-0.185-2.242
								c0.037,12.794,0.437,6.124,0.747,15.366c-0.196,1.471-0.131,6.575-0.024,12.367c0.088,5.795,0.188,12.282,0.131,16.507
								l0.785,12.248c-0.445-6.734-0.109,11.752-0.488,13.686c0.149,4.396,0.416,8.436,0.521,13.057
								c0.108,4.62,0.16,9.818,0.039,16.519c-0.083-2.77-0.191,0.287-0.333,4.063c-0.114,3.775-0.434,8.274-0.629,8.386
								c-0.257,5.735-0.377,10.979-0.432,15.96c-0.01,1.246-0.02,2.475-0.029,3.69c-0.029,1.216-0.057,2.419-0.085,3.613
								c-0.05,2.388-0.1,4.738-0.148,7.079c-0.095,4.682-0.193,9.328-0.374,14.161c-0.262,4.83-0.682,9.845-1.229,15.267
								c-0.05-0.684-0.003-5.088-0.582,1.253c-0.127,2.504-0.366,5.944-0.617,9.428c-0.354,3.478-0.711,6.998-0.981,9.67l0.006-0.17
								c-0.007,0.104-0.011,0.169-0.018,0.279c-0.251,2.618-0.371,4.268-0.275,4.344c-0.298,4.591-0.369,8.089-0.762,12.677
								c-0.437,4.585-1.035,10.275-2.12,19.284c0.334-0.622,0.985-4.734,1.649-9.515c0.315-2.392,0.652-4.948,0.965-7.318
								c0.306-2.37,0.573-4.555,0.679-6.21l0.119-5.748c0.65-2.679,1.045-6.746,1.361-10.655c0.154-1.954,0.306-3.869,0.438-5.554
								c0.146-1.684,0.207-3.141,0.358-4.172c0.062,2.728-0.241,6.712-0.625,11.455c-0.387,4.743-0.893,10.243-1.435,15.988
								c-0.676,5.734-1.508,11.704-2.225,17.417c-0.359,2.856-0.71,5.647-1.044,8.308c-0.417,2.651-0.813,5.173-1.179,7.501
								c2.861-11.177,6.211-35.974,8.173-57.652l-1.279,9.512c0,0,0.295-2.833,0.59-5.665c0.141-1.417,0.307-2.832,0.392-3.896
								c0.078-1.064,0.131-1.773,0.131-1.773s-0.084,0.684-0.209,1.709c-0.127,1.025-0.356,2.389-0.558,3.753
								c-0.417,2.728-0.833,5.455-0.833,5.455c0.292-2.68,0.574-5.27,0.85-7.797c0.247-2.529,0.383-5.003,0.568-7.441
								c0.354-4.878,0.697-9.627,1.049-14.48c-0.836,11.367-1.837,15.737-1.252,9.319c0.71-6.311,0.877-9.616,0.961-12.549
								c0.066-2.934-0.042-5.498,0.222-10.335c-0.303,5.386-0.663,12.39-0.715,7.857c0.756-9.521,1.102-15.579,1.441-21.42
								c0.33-5.841,0.46-11.463,1.033-20.133c-0.453,1.065-0.272-4.356-0.188-10.367c0.057-6.009,0.137-12.612-0.185-13.913
								l-0.146,8.044l-0.327-17.064c0.623-15.732,0.73,13.933,1.116-10.011c0.027-22.101-0.926-21.51-1.193-38.86
								c0.278,2.854,0.566,7.72,0.807,13.624c0.116,2.952,0.234,6.162,0.309,9.512c0.058,3.352,0.094,6.841,0.104,10.345l0.2-8.489
								c0.264,4.491,0.399,23.877,0.18,33.571c-0.399-16.012-0.242,7.49-0.745,14.764c0.434,1.348,0.523-8.936,0.692,3.212
								c0.188-11.375,0.103-13.035,0.437-27.5c-0.503,31.26,1.365,28.15,0.057,55.487c0.401-12.615-0.885,4.369-1.185,5.872
								c-0.114,2.966-0.287,7.457-0.456,11.825c-0.061,2.185-0.185,4.339-0.311,6.256c-0.108,1.917-0.204,3.599-0.274,4.836
								l1.006-4.434c-0.448,7.979-1.131,13.327-1.786,18.979c-0.287,2.828-0.758,5.724-1.125,9.069
								c-0.382,3.345-0.738,7.135-1.047,11.743c0.15,2.432,1.83-16.138,1.561-12.825c-0.553,6.292-1.096,11.572-1.642,16.297
								c-0.141,1.181-0.277,2.327-0.411,3.447c-0.18,1.115-0.354,2.204-0.526,3.273c-0.363,2.135-0.713,4.19-1.059,6.226
								c-0.727,4.059-1.438,8.032-2.215,12.372c-0.202,1.083-0.374,2.193-0.609,3.326c-0.243,1.132-0.492,2.293-0.75,3.491
								c-0.499,2.398-1.03,4.944-1.603,7.694c-0.026,1.287,0.44,1.102-0.606,8.911c0.041-2.508-1.194,3.175,0.085-5.579
								c-0.376,1.84-0.737,3.77-1.085,5.732c-0.352,1.965-0.66,3.948-1.066,5.963c-0.77,4.007-1.64,7.953-2.587,11.356
								c1.237-3.967,1.624-5.512,1.735-5.588c0.081-0.071-0.177,1.337-0.663,3.352c-0.459,2.009-1.22,4.641-1.984,6.978
								c-0.789,2.344-1.621,4.4-1.959,5.203c-0.536,1.082-0.93,1.847-1.26,2.362c-0.309,0.511-0.47,0.753-0.51,0.779
								c-0.094,0.058,0.352-0.755,0.931-1.987c1.211-2.476,2.667-6.565,3.418-9.139c-1.142,3.325-2.731,6.966-4.752,10.333
								c-0.972,1.676-2.166,3.305-3.367,4.756c-0.608,0.727-1.321,1.414-1.906,2.04c-0.688,0.625-1.368,1.188-1.945,1.695
								c-0.072-0.015,0.251-0.308,0.878-0.853c0.3-0.273,0.731-0.608,1.116-1.01c0.372-0.404,0.8-0.868,1.276-1.386
								c1.781-2.078,3.537-4.999,4.916-8.206c2.797-6.426,4.518-14.118,5.769-20.145c0,0-0.449,2.022-0.965,4.054
								c-0.507,2.03-1.09,4.069-1.09,4.069c0.638-2.821,1.016-4.495,1.465-6.479c0.438-1.965,0.976-4.243,1.692-8.186
								c-0.835,3.836-1.409,5.584-1.689,6.104c-0.29,0.523-0.307-0.164-0.269-1.105c0.274-1.012-0.021,0.592,0.243-0.375
								c1.322-6.375,2.042-11.27,1.567-9.839c0.235-2.915-0.251-0.723-0.928,2.729c-0.334,1.727-0.729,3.767-1.093,5.643
								c-0.402,1.887-0.824,3.613-1.14,4.685c-0.71,3.296-1.517,6.6-2.502,9.845c-0.9,3.393-1.933,6.807-3.616,10.265
								c-0.439,0.864-0.856,1.729-1.415,2.597c-0.489,0.866-1.137,1.731-1.791,2.59c-1.425,1.7-3.138,3.4-5.868,4.303
								c-1.633,0.787-3.447,1.23-5.296,1.289c-1.855,0.059-3.473-0.219-4.944-0.593c-2.92-0.772-5.22-1.879-7.281-2.775
								c-6.048-3.145-10.494-5.062-14.629-6.805c-1.045-0.4-2.064-0.792-3.081-1.183l-1.525-0.589
								c-0.518-0.175-1.037-0.351-1.561-0.528c-1.049-0.351-2.11-0.728-3.223-1.082c-1.124-0.321-2.287-0.654-3.512-1.005
								c0-0.001-0.702-0.071-1.414-0.09c-0.71-0.022-1.42-0.046-1.42-0.046c-5.745-1.281-11.446-2.049-14.758-2.43
								c-1.653-0.207-2.7-0.393-2.861-0.489c-0.158-0.119,0.576-0.199,2.491-0.175c0.409,0.227,1.992,0.242,4.543,0.626
								c0.347-0.023,0.943,0.005,1.694,0.062c0.25-0.005,0.39-0.007,0.597-0.011c-6.317-0.831-11.522-0.987-15.21-1.054
								c-3.691-0.061-5.882,0.041-6.251,0.048c2.726-0.149,4.781-0.157,6.31-0.204c1.529-0.062,2.519-0.046,3.111-0.086
								c1.184-0.067,0.762-0.207-0.23-0.382c-1.978-0.386-6.274-0.66-4.429-1.082c0,0-5.558-0.061-11.121,0.326
								c-5.563,0.355-11.114,1.021-11.114,1.021c6.754-0.516,6.818-0.371,4.608-0.105c-1.106,0.134-2.78,0.336-4.476,0.541
								c-1.694,0.232-3.409,0.468-4.599,0.631c-0.688-0.146-5.158,0.422-10.415,1.348c-5.257,0.924-11.292,2.238-15.173,3.011
								l0.55-0.22c-7.21,1.304-19.75,4.313-28.673,6.646c0.451,0.055-10.85,3.654-16.313,5.431
								c15.496-3.524,6.368-1.141,7.683-1.138c-1.601,0.362-4.479,1.046-4.803,1.184c-2.185,0.664,3.053-0.534,3.521-0.485
								c8.137-2.081,16.39-4.191,23.439-5.994c7.014-1.795,12.802-3.227,16.048-4.253c-5.058,0.748-8.44,2.105-14.073,3.207
								c7.957-2.293,18.366-4.635,31.897-6.722c0,0,1.124-0.087,2.248-0.13c1.122-0.051,2.244-0.101,2.244-0.101
								s0.849-0.13,2.121-0.324c1.273-0.169,2.971-0.394,4.668-0.619c1.698-0.187,3.396-0.374,4.671-0.514
								c1.273-0.112,2.123-0.188,2.123-0.188c-2.831,0.283-3.383,0.563-5.006,0.838c-0.812,0.143-1.891,0.313-3.657,0.584
								c-1.769,0.256-4.222,0.611-7.775,1.126c0.938,0.08,4.461-0.485,8.846-1.014c4.382-0.518,9.632-1.06,13.978-1.107
								c0,0,1.106-0.197,2.215-0.348c1.109-0.148,2.219-0.296,2.219-0.296c-0.428,0.08,0.416,0.132,1.712,0.171
								c1.292,0.068,3.037,0.16,4.424,0.233c1.387,0.07,2.402,0.223,2.261,0.271c-0.144,0.056-1.448,0.049-4.734,0.108
								c0,0-1.333-0.026-3.343,0.059c-1.004,0.037-2.173,0.057-3.428,0.12c-1.257,0.077-2.596,0.159-3.936,0.241
								c-5.361,0.395-10.724,1.078-10.724,1.078s1.503-0.057,3.003-0.102c0.75-0.023,1.499-0.047,2.062-0.063
								c0.562-0.008,0.936-0.013,0.936-0.013s-0.283,0.022-0.778,0.061c-0.495,0.049-1.203,0.119-2.053,0.203
								c-0.85,0.085-1.84,0.185-2.901,0.291c-1.063,0.13-2.196,0.268-3.329,0.406c-2.267,0.266-4.535,0.634-6.235,0.863
								c-1.701,0.276-2.835,0.46-2.835,0.46s1.061-0.237,2.121-0.476c1.062-0.241,2.124-0.446,2.124-0.445
								c-7.286,1.151-11.478,1.929-14.129,2.358c-2.65,0.418-3.76,0.529-4.873,0.631c-1.114,0.107-2.233,0.208-4.908,0.748
								c-2.676,0.523-6.904,1.484-14.25,3.381c-4.545,1.409-9.305,2.765-15.223,4.287c-2.959,0.763-6.21,1.57-9.879,2.441
								c-1.839,0.426-3.778,0.876-5.832,1.353c-1.031,0.23-2.091,0.467-3.181,0.711c-1.099,0.217-2.229,0.439-3.391,0.669
								c3.356-0.707,5.095-1.166,5.91-1.421c0.818-0.248,0.715-0.291,0.351-0.281c-0.729,0.021-2.503,0.253-0.041-0.515
								c-3.399,0.758-6.278,1.255-8.737,1.798c-2.464,0.523-4.535,1-6.398,1.45c-3.72,0.937-6.627,1.669-10.145,2.555
								c-3.554,0.373-6.083,0.602,6.148-1.856c1.388-1.04-16.042,3.495-17.338,2.702c-10.19,1.636-17.304,2.928-22.996,4.053
								c-5.713,0.973-10.013,1.705-14.526,2.473c-4.519,0.759-9.257,1.574-15.884,2.376c-6.644,0.603-15.174,1.229-27.232,1.913
								l1.787-0.439c-0.955,0.081-1.897,0.161-2.828,0.241c-0.932,0.046-1.852,0.091-2.761,0.136
								c-1.818,0.086-3.592,0.17-5.326,0.252c-3.47,0.152-6.783,0.298-9.987,0.438c-3.204,0.129-6.298,0.254-9.328,0.375
								c-3.03,0.1-5.997,0.042-8.946,0.066c-5.898,0.012-11.725,0.024-17.851,0.037c-3.064,0.055-6.198-0.072-9.453-0.153
								c-3.256-0.079-6.632-0.16-10.176-0.246c0,0-5.57-0.362-11.141-0.725c-2.784-0.181-5.558-0.509-7.642-0.689
								c-2.083-0.2-3.471-0.334-3.471-0.334c2.492,0.086,7.089,0.218,10.285,0.175c3.201-0.107,4.996-0.29,1.878-0.57
								c5.4,0.554,10.983,0.851,16.672,1.105c2.845,0.125,5.717,0.251,8.606,0.377c2.893,0.075,5.804,0.149,8.728,0.226
								c1.194-0.206-3.566-0.34-5.638-0.459c7.054-0.012,10.596,0.328,19.915,0.166c-0.453-0.159-10.617-0.324-2.958-0.44
								c0,0,3.169,0.111,6.339,0.222c1.585,0.043,3.171,0.139,4.36,0.124c1.189,0,1.982,0,1.982,0
								c8.478-0.439,10.554-0.807,13.001-1.131c1.224-0.163,2.54-0.315,4.793-0.461c1.127-0.072,2.489-0.144,4.19-0.214
								c1.702-0.085,3.747-0.091,6.229-0.29c-1.831,0.396-4.633,0.733-7.939,1.086c-3.306,0.349-7.119,0.676-10.975,0.875
								c9.111-0.257-12.132,0.725-3.813,0.661c6.552-0.568,11.412-0.788,16.816-0.999c1.351-0.06,2.737-0.09,4.189-0.178
								c1.451-0.115,2.971-0.235,4.594-0.364c3.245-0.267,6.903-0.589,11.248-1.021c-2.038,0.244-2.568,0.41-6.853,0.776
								c0,0,6.324-0.417,12.648-0.833c1.582-0.104,3.163-0.208,4.646-0.307c0.741-0.049,1.458-0.096,2.138-0.141
								c0.678-0.071,1.317-0.139,1.909-0.201c2.364-0.251,3.941-0.418,3.941-0.418c-6.27,0.36,20.763-2.836,18.345-3.108
								c-13.423,1.455-18.151,2.033-23.353,2.655c-5.211,0.487-10.906,0.877-26.244,1.906c8.674-0.786,19.814-2.2,24.998-3.114
								c0.27,0.008,0.71-0.039,1.649-0.135c4.605-1.086-0.16-0.678-0.16-1.637c-6.928,0.984-12.755,1.377-18.883,1.865
								c-3.065,0.233-6.21,0.473-9.615,0.732c-3.405,0.265-7.082,0.357-11.197,0.64c-1.539,0.32,0.86,0.395,4.67,0.332
								c1.904-0.056,4.165-0.04,6.453-0.237c2.288-0.172,4.613-0.366,6.657-0.556c0,0-3.622,0.363-7.243,0.727
								c-1.812,0.18-3.629,0.244-4.989,0.344c-1.361,0.085-2.269,0.142-2.269,0.142l2.85-0.35c0,0-9.225,0.311-18.449,0.62
								c-2.306,0.078-4.612,0.155-6.773,0.228c-2.163-0.004-4.181-0.007-5.911-0.01c-3.459-0.007-5.766-0.012-5.766-0.012
								c6.992-0.068,9.362-0.309,13.002-0.644c-4.757,0.09-9.473-0.104-14.483-0.22c1.055,0.495,0.395,0.849-4.25,0.852
								c-11.874,0.116-21.092-0.501-28.439-0.886c-3.673-0.211-6.877-0.422-9.707-0.632c-2.832-0.177-5.279-0.549-7.456-0.798
								c-0.908-0.044-1.933-0.094-2.756-0.134c1.969,0.377-2.242,0.349-7.872,0.234c-2.816-0.062-5.985-0.131-8.911-0.194
								c-1.464-0.029-2.866-0.057-4.133-0.082c-1.265-0.04-2.395-0.076-3.314-0.105c0.404-0.494-12.148-1.408-18.929-2.288
								c-3.683,0.277,1.066,1.543,9.327,2.781c8.022,0.442,10.271,0.504,11.47,0.442c1.198-0.061,1.343-0.223,5.157-0.395
								l25.717,1.043l-5.766,0.139c1.602,0.113,3.196,0.226,4.758,0.336c1.563,0.095,3.097,0.105,4.571,0.15
								c2.95,0.058,5.668,0.11,7.955,0.154c4.574,0.086,7.423,0.17,6.944,0.47c-3.4,0.106-7.903,0.011-12.399-0.085
								c-2.249-0.043-4.495-0.085-6.602-0.125c-2.104-0.087-4.067-0.145-5.755-0.143c0,0,2.12,0.188,4.239,0.375
								c1.06,0.101,2.12,0.186,2.917,0.221c0.797,0.046,1.328,0.076,1.328,0.076c-0.939,0.006-1.792,0.012-2.568,0.017
								c-0.775-0.026-1.475-0.05-2.11-0.072c-1.271-0.051-2.286-0.107-3.138-0.17c-1.705-0.125-2.759-0.27-3.912-0.427
								c-2.305-0.313-5-0.674-14.081-1.015c3.317,0.471,2.906,0.455,0.69,0.307c-2.214-0.16-6.238-0.381-10.123-0.599
								c3.088,0.55,11.086,0.918,17.608,1.367c6.523,0.429,11.584,0.835,8.833,1.121c-4.732-0.091-12.661-0.843-20.965-1.556
								c-8.292-0.855-16.946-1.839-23.219-1.929l0.619-0.048c-9.191-0.802-15.37-1.575-20.149-1.934
								c-4.774-0.396-8.124-0.572-11.575-0.809c-1.938-0.313-4.077-0.544-6.305-0.869c-2.23-0.313-4.566-0.614-6.924-0.908
								c-4.715-0.588-9.519-1.147-13.733-1.72l0.244-0.233c0,0-2.974-0.388-5.949-0.775c-1.49-0.181-2.966-0.438-4.079-0.597
								c-1.111-0.169-1.853-0.282-1.853-0.282c1.428,0.108,3.008,0.304,4.735,0.56c1.732,0.227,3.613,0.499,5.633,0.811
								c4.041,0.621,8.645,1.372,13.753,2.051l-1.203-0.664c11.672,2.315,19.685,2.205,28.872,2.875
								c-3.34-0.28-7.36-0.7-11.562-1.164c-2.1-0.235-4.246-0.477-6.375-0.716c-2.122-0.289-4.227-0.576-6.252-0.852
								c-8.104-1.096-14.948-1.949-16.576-1.692c0,0-2.035-0.409-4.07-0.819c-2.038-0.392-4.061-0.863-4.061-0.863l-3.941-0.455
								c-3.02-0.676-2.949-0.906-0.647-0.743c2.303,0.157,6.829,0.76,12.771,1.492c2.042,0.41,3.063,0.615,2.423,0.629
								c2.767,0.276,5.427,0.497,9.056,0.896c1.814,0.198,3.872,0.442,6.306,0.759c2.435,0.316,5.243,0.73,8.583,1.117
								c0,0-1.79-0.142-3.58-0.284c-1.785-0.184-3.569-0.367-3.569-0.367c4.136,0.633,8.213,1.018,12.058,1.466
								c3.85,0.408,7.481,0.793,10.771,1.141c3.292,0.33,6.242,0.604,8.729,0.807c2.49,0.179,4.521,0.229,5.96,0.246
								c-1.503-0.146-3.005-0.294-4.505-0.441c-1.5-0.152-2.991-0.359-4.483-0.536c-2.984-0.364-5.961-0.728-8.929-1.091
								c-5.933-0.739-11.842-1.389-17.686-2.166c-5.836-0.827-11.627-1.647-17.362-2.459c-2.868-0.402-5.722-0.802-8.561-1.2
								c-2.836-0.412-5.645-0.896-8.444-1.335c-6.772,0.03-14.713-0.621-18.255-0.149c-15.042-2.394-35.419-5.949-48.292-8.98
								l1.231,0.037c-6.301-1.376-12.158-2.406-17.021-3.346c-6.605-1.68,4.669,0.435,0.058-0.694l-21.377-4.188
								c1.418-0.196,19.329,3.673,27.869,5.362c-1.622-0.27-4.886-0.862-3.855-0.59c4.944,1.097,12.09,2.341,18.518,3.524
								c6.43,1.18,12.144,2.293,14.27,2.985c4.881,0.763-9.965-1.296,6.482,1.713c10.974,2.241,14.667,2.293,15.852,2.302
								c0.223-0.229-17.221-3.48-11.105-2.698c-8.568-1.546-12.07-1.713-22.934-4.166c8.454,1.719,20.106,3.172,24.551,4.419
								c16.88,2.55,14.672,0.891,6.778-0.606c1.819,0.725-30.694-5.06-8.78-0.584c-2.494-0.324-5.494-0.771-8.794-1.29
								c-1.649-0.266-3.375-0.543-5.149-0.828c-1.768-0.321-3.585-0.652-5.427-0.987c-7.363-1.352-15.103-2.801-21.582-3.923
								l0.606,0.018c0,0-1.002-0.19-2.504-0.477c-1.498-0.307-3.496-0.715-5.493-1.124c-3.995-0.816-7.99-1.633-7.99-1.633
								c2.275,0.342,7.122,1.251,7.334,1.026l-22.244-4.002c6.271,1.089,4.36,0.599,0.181-0.34
								c-4.168-0.982-10.596-2.448-13.395-3.185c-2.447-0.136-11.12-1.783-2.912,0.3c9.22,2.375,5.452,1.003,13.9,2.87
								l-12.093-2.066l-1.012-0.291c0,0-1.828-0.277-3.656-0.555c-0.914-0.139-1.828-0.277-2.514-0.382
								c-0.504-0.063-1.646-0.286-1.583-0.272c-15.091-3.413-11.37-2.887-9.033-2.603c1.183,0.146,2.058,0.24,0.351-0.184
								c-0.432-0.102-1.021-0.239-1.803-0.423l-0.15-0.034c-0.045-0.016-0.126-0.005-0.099-0.077
								c0.006-0.107,0.012-0.218,0.018-0.331c0.013-0.228,0.025-0.468,0.039-0.722c0.026-0.508,0.055-1.069,0.086-1.689
								c0.105-2.368,0.25-5.636,0.448-10.084c-0.003,0.06-0.203,0.439-0.464,1.926c-0.25,1.292-0.501,2.585-0.501,2.585
								c0.228-3.657,0.463-7.443,0.704-11.311c0.22-3.259,0.444-6.585,0.671-9.938c0.467-6.705,0.941-13.517,1.399-20.102
								c0.912-13.17,1.72-25.438,2.045-34.161c0.134,4.83,0.664,6.985,1.42,0.397c-0.544,7.508-1.367,22.609-1.906,33.392
								c-0.241,2.066-0.083-13.514,0.728-25.213c-1.481,5.607-0.953,29.491-2.208,30.801c-1.043,14.905-1.072,20.484-1.104,25.498
								c-0.013,1.254-0.026,2.472-0.041,3.791c-0.016,0.66-0.033,1.345-0.051,2.072c-0.043,1.011-0.088,2.081-0.138,3.234
								c-0.073,1.393-0.152,2.887-0.237,4.511c-0.047,0.813-0.096,1.657-0.147,2.539c-0.027,0.441-0.054,0.893-0.082,1.353
								c-0.014,0.23-0.028,0.463-0.043,0.698c0,0.112-0.031,0.248-0.006,0.343l0.346,0.08c1.858,0.436,3.87,0.908,6.063,1.424
								c1.103,0.263,2.251,0.537,3.449,0.822c0.905,0.224,1.847,0.455,2.83,0.697c0.458-0.438,7.105,1.334,8.51,1.174
								c-1.788-0.623-4.752-1.397-8.445-2.271c-2.69-0.612-5.639-1.283-8.768-1.994c-0.844-0.188-1.699-0.379-2.565-0.572
								l-0.326-0.072c-0.04-0.022-0.141,0.001-0.131-0.061l0.009-0.166l0.036-0.669c0.023-0.448,0.047-0.897,0.071-1.351
								c0.094-1.813,0.189-3.663,0.286-5.542c0.25-5.161,0.515-10.624,0.771-15.903c0.248-4.9,0.514-9.628,0.82-13.732
								c-0.052,1.611-0.155,4.854-0.091,5.492c0.814-11.738,0.97-16.598,1.235-24.814l-0.12,1.03
								c0.292-14.367,0.891-8.85,1.597-17.275c0.105-3.274,0.917-15,0.424-13.135l1.358-15.254l-0.629,0.704
								c0.45-8.622,0.944-10.486,1.025-18.319l-0.505-0.391l-1.385,21.396c0.438-10.858-0.334-3.052,0.226-14.979
								c-0.173,13.349,0.821-9.405,1.382-10.689l0.196-8.785l0.015,2.25c0.657-6.866,0.264-8.204,0.784-16.231
								c-0.825,9.456-1.543,15.639-1.848,27.729c0.198-8.805,0.85-26.25,1.072-30.528c0.298-9.239,1.061-15.659,1.604-24.288
								c-0.72,16.579,1.921-5.713-0.322,27.465c-0.066-0.619,0.107-3.306,0.228-4.343c-0.921,4.389-1.076,19.904-1.224,27.116
								c0.491-1.832,0.165,5.701,1.095-7.049c-0.483,4.173-0.258-10.801,0.741-22.924l0.708,2.186l1.09-17.674l-0.054,1.656
								c0.907-6.619,0.957-18.867,1.954-31.022c0.198-8.805,2.327-42.508,0.646-28.05c1.132-10.897,1.01-20.523,1.569-32.451
								l-1.173,14.842c0.394-17.602,0.493-12.521,0.34-26.634c0.306-1.409,0.668-4.532,0.746-1.663
								c0.347-5.9,0.732-12.432,1.125-19.127c0.192-3.343,0.386-6.728,0.58-10.094c0.196-3.364,0.363-6.698,0.475-9.933
								c0.057-1.62,0.14-3.229,0.17-4.797c0.016-1.565,0.031-3.105,0.046-4.612c0-1.503,0.057-2.986,0.001-4.406
								c-0.05-1.421-0.099-2.802-0.146-4.136c-0.055-1.333-0.107-2.618-0.158-3.85c-0.118-1.227-0.23-2.401-0.337-3.513
								c-0.227-2.224-0.424-4.198-0.653-5.872c-0.828-8.172-1.308-12.901-1.871-18.456c-0.314-2.815-0.675-5.827-1.188-9.596
								c-0.513-3.798-1.127-8.35-1.917-14.203c-0.335-2.46-0.419-1.478-0.608-1.822c-0.181-0.343-0.512-2.018-1.169-9.791
								c-0.057-1.047,2.132,14.874,0.32-2.395c-1.821-12.251-2.039-28.923-3.422-44.892c-0.24-8.463-0.915-23.122-0.283-20.087
								c0.378,13.387,1.592,32.322,2.043,35.189c-0.427-1.829,0.339,9.537-0.55-0.31c0.467,10.128,0.834,13.408,1.154,16.422
								c0.343,3.015,0.644,5.767,1.375,14.852c0.307,1.23-0.323-9.377-0.796-13.25c0.342-0.069,1.141,8.863,1.952,15.783
								c0.808,6.921,1.504,11.826,1.023,3.736c-0.981-9.675-1.837-15.921-2.575-21.86c-0.729-5.938-1.307-11.567-1.459-19.987
								c0.818,6.705,1.19,17.26,2.644,25.744c0,0-0.21-3.452-0.42-6.903c-0.187-3.452-0.373-6.903-0.373-6.903l-1.161-9.977
								l0.138,0.59c-0.435-12.201-0.856-17.824-1.414-23.126c-0.538-5.302-1.188-10.281-1.74-21.186
								c-0.025,12.661-1.311-2.883-1.251,6.642c-0.638-14.601-0.779-25.327-0.098-25.441c0.313,6.823,0.538,10.33,0.7,12.146
								c0.162,1.816,0.261,1.942,0.362,2.004c0.101,0.062,0.204,0.059,0.374,1.616c0.179,1.557,0.408,4.675,0.823,10.976
								c0.098-4.149,1.22,5.965,0.76-9.064c-1.024-16.917-0.431,5.086-1.164-11.798c0.034-1,0.067-2.038,0.185-1.451
								c-0.559-7.76-0.108-9.067-0.689-18.461l0.182,2.227c0.204-11.598-0.702-12.674-0.364-22.659
								c-0.467,3.997-0.497-6.696-0.847-12.884c-0.113,10.118-0.842,15.604-0.433,35.575c0.452,2.404,0.642,0.941,1.023,9.136
								l-0.322-12.976c0.15,2.797,0.264,4.929,0.401,7.494l0.092,12.469c-0.688-15.796-0.929-8.54-1.502-15.248
								C6.535,186.767,6.303,189.3,6.314,180.2c0.304,0.454,0.463-6.523,0.638-15.691c0.171-9.169,0.37-20.531,0.602-28.854
								c-0.016,2.586-0.036,5.923-0.047,7.725c0.357,12.093,0.506-8.319,0.687-8.765l-0.239-8.814
								c0.027,1.659,0.147,3.954,0.262,0.196c0-11.929-0.599-11.242-0.529-23.157c0.337-0.888,0.681,9.188,0.965,1.785
								c0.335-2.549,1.188-10.663,1.319-26.484c-0.095-1.124-0.055-5.226,0.048-9.983c-0.004,0.662-0.018,1.491-0.004,1.79
								l0.723-10.494c0.214,8.97-0.872,18.095-0.521,27.105l0.512,0.776c-0.163,6.999-0.098,16.507,0.119,20.88
								C11.104,97.549,11,95.301,11.169,83.369c0.374-1.661,0.421,6.745,0.438,7.955l-0.264-1.786
								c-0.729,14.219,0.097,21.277-0.146,38.981c-0.038,2.673-0.067,1.042-0.165,0.446c0.414,14.337-0.274,28.403,0.516,42.333
								l-0.313-4.541c0.282,9.487,1.001,28.029,1.987,46.536l0.21,0.144c0.069-2.059,0.242,4.891,0.271,8.624l-0.003-0.02
								c0.528,9.276,1.095,18.184,1.586,25.468c0.026-2.337,0.008-5.325-0.094-8.749c-0.382-2.89-0.72-19.904-1.188-17.556
								c0.091-7.868-0.662-20.523-0.548-26.302c-0.161,10.528-0.659-7.317-0.966-9.158c0.286-3.543-0.202-15.597,0.281-14.223
								c0.105-2.078-0.27,5.171,0.07,9.645c0.549,11.015,0.17-20.183,0.727-6.457c-0.513-17.458-0.35-40.47-0.56-58.487
								l-0.287,10.083c0.107-8.008,0.29-26.961,0.56-28.373c-0.056,5.951-0.168,12.903-0.155,20.517
								c0.504,0.375,0.235-18.289,0.594-19.131c0,0-0.106-5.529-0.213-11.059c-0.08-5.53-0.159-11.061-0.159-11.061l-0.275,9.68
								c-0.188-6.105,0.717-26.344,1.59-41.311c0.263,8.62-0.982,22.604-1.072,38.398c0.004,11.469,0.861-7.062,0.781,3.79
								c0.225-2.809,0.391-9.884,0.313-13.378l0.261-4.272c0.322,9.687-0.303,31.371,0.12,45.818
								c-0.055-1.267-0.116-2.374-0.187-2.775c-0.396,11.114-0.455,22.41-0.291,33.25c0.214-5.733,0.083-8.002,0.021-11.28
								c0.161-0.407,0.192,9.827,0.382,13.698c0.198-10.083,0.387-1.88,0.505-8.259c0.14,6.566,0.095,11.884,0.058,19.884
								c-0.229,4.15-0.358-3.43-0.677-2.583c0.231,8.239-0.531,12.014-0.017,24.071c-0.042-16.042,0.74,4.22,1.065,9.737
								l-0.021-2.688c0.459,5.078,0.557,9.391,0.279,12.912c-0.291-6.559-0.277-12.912-0.636-11.039
								c0.087,4.335,0.181,8.657,0.405,13.563l-0.372-4.458c0,0,0.139,5.385,0.278,10.771c0.165,5.384,0.329,10.768,0.329,10.768
								c0.442,3.399,1.11,9.076,1.721,12.038c-0.122,5.171,0.417,12.346,0.767,17.231l-0.244-2.269
								c0.074,9.501,1.568,30.558,2.041,32.303c0.064,6.809-4.772-47.725-1.641,0.111c0.629,9.087,1.121,11.892,1.545,13.721
								c0.445,1.826,0.813,2.682,1.45,7.83c0,0-0.151-0.574-0.121,0.457c0.673,7.922,1.12,8.681,1.991,15.144
								c-0.407-4.737-1.06-11.606-1.404-13.809c0.315,1.171,0.688,5.291,1.156,9.858c0.469,4.567,1.03,9.585,1.587,12.567
								c-0.813-3.861-0.391-0.06,0.13,3.949c0.529,3.984,1.199,8.276,0.583,5.238c0.481,3.952,1.043,7.943,1.579,11.917
								c0.279,1.98,0.556,3.939,0.826,5.858c0.247,1.937,0.489,3.833,0.724,5.67c0.548,3.655,0.79,7.161,1.146,10.235
								c0.389,3.08,0.475,5.78,0.663,7.923c-0.575,11.062-0.121,19.36-1.472,36.833c0.176-2.683,0.331-7.572,0.615-11.35
								c0.05-10.024-1.249,18.163-0.862,2.751c-0.1,3.299,0.25,0.248,0.354-3.135c0.264-5.912,0.22-11.554-0.049-10.056
								c0,0-0.258,3.593-0.515,7.186c-0.302,3.568-0.604,7.138-0.604,7.138l0.149-4.996l-1.807,21.618
								c0.066,0.593,0.304-1.429,0.424-2.466c-1.676,25.075-2.95,53.783-4.266,75.761c1.164,4.208-2.442,54.149-2.583,71.96
								c-0.133-4.784-0.693-7.428-1.148-4.498c0.164-3.964,0.055-12.104,0.677-21.08c0.305-1.422,1.182-12.502,1.037-5.348
								c1.235-24.834-0.8,3.326-0.908-4.03c-1.409,27.514-1.499,43.694-2.146,61.075l-0.189,0.43l-0.425,13.128
								c0.694-10.708,1.455-10.134,0.403,3.659l0.055-1.682c-0.775,7.857-1.305,24.266-2.047,36.566l-0.011,8.367
								c-0.745,12.319-1.625,12.801-2.36,16.778c-0.286,4.828-0.497,9.148-0.656,13.128c-0.071,1.989-0.139,3.895-0.205,5.734
								c-0.027,0.92-0.054,1.824-0.081,2.714c-0.012,0.445-0.024,0.888-0.036,1.326l-0.008,0.508l0.001,0.344
								c0.01,0.871,0.021,1.721,0.03,2.559l0.006,0.298c0.011,0.042-0.02,0.114,0.025,0.131l0.164,0.025l0.646,0.098l1.246,0.187
								l1.191,0.174c0.102,0.007,0.604,0.104,0.994,0.177l1.218,0.229c1.627,0.31,3.273,0.623,4.958,0.944
								c2.988,0.847,11.522,2.936,17.452,4.327c5.93,1.387,9.228,2.226,1.685,0.854c8.555,1.65,12.074,1.805,17.077,2.458
								c2.504,0.312,5.368,0.811,9.438,1.568c4.068,0.767,9.325,1.891,16.592,3.608l-7.669-1.15
								c3.503,0.675,7.193,1.386,10.994,2.118c1.901,0.361,3.83,0.729,5.776,1.099c1.952,0.337,3.922,0.678,5.901,1.02
								c7.917,1.35,15.973,2.723,23.554,4.015c7.597,1.174,14.718,2.273,20.752,3.206c6.029,0.954,10.97,1.735,14.214,2.249
								c-5.301-0.091,3.467,1.466,14.179,3.292c2.679,0.444,5.474,0.957,8.21,1.37c2.737,0.415,5.406,0.819,7.818,1.185
								c4.821,0.761,8.606,1.439,9.832,1.899c-1.371-0.463,9.289,0.722,10.862,0.687c2.324,0.357,6.208,0.85,10.366,0.962
								c-11.054-1.269,7.904-0.56-13.309-2.048c5.394,0.146,11.563,0.242,19.301,0.685c3.867,0.238,8.132,0.501,12.898,0.794
								c4.769,0.221,10.036,0.509,15.905,0.88l-0.384,0.505c0,0-4.644-0.325-9.287-0.649c-2.322-0.162-4.643-0.325-6.384-0.446
								c-1.742-0.106-2.899-0.24-2.899-0.24c1.844,0.557-7.704-0.331-11.636-0.504c17.247,1.744,16.109,1.768,15.05,2.011
								c-1.055,0.199-2.012,0.357,15.691,1.408c3.438-0.131,1.216-0.126,10.421,0.303c-4.325-0.271-5.126,0.118,1.852,0.45
								l6.72-0.217c6.171,0.627,1.047,0.614-4.309,0.563c-1.339-0.013-2.692-0.026-3.886-0.038c-1.193-0.032-2.228-0.061-2.93-0.079
								c-1.405-0.015-1.485,0.077,1.147,0.394c-6.854-0.256-16.212-0.605-23.308-0.87c-3.553-0.086-6.531-0.281-8.353-0.321
								c-1.822-0.041-2.487,0.04-1.397,0.307c2.79,0.264,5.192,0.539,7.32,0.635c2.127,0.113,3.969,0.188,5.623,0.238
								c3.308,0.101,5.865,0.102,8.452,0.106c2.588,0.004,5.206,0.013,8.636,0.129c3.43,0.126,7.674,0.282,13.523,0.497l2.482,0.362
								c8.239,0.056,9.579-0.368,14.086-0.511c0.403,0.165,2.491,0.419,7.777,0.412c13.896-0.764,23.116-0.686,35.871-2.08
								c-4.251,0.216-7.894,0.401-11.082,0.563c-3.19,0.106-5.93,0.066-8.368,0.082c-4.876-0.001-8.55-0.057-12.257-0.114
								c-1.854-0.026-3.715-0.053-5.74-0.082c-1.012-0.01-2.065-0.02-3.179-0.03c-1.113-0.042-2.286-0.086-3.539-0.133
								c-5.01-0.175-11.289-0.341-20.079-0.483c2.758-0.026,10.323,0.109,17.387,0.166c7.064,0.154,13.627-0.252,14.387-0.576
								l-0.331,0.529c5.711-0.153,11.417-0.306,17.486-0.402c3.037,0,6.158-0.197,9.417-0.32c3.26-0.13,6.657-0.245,10.239-0.339
								l-8.732,0.632c4.744-0.273,9.089-0.437,13.174-0.549c4.085-0.116,7.913-0.127,11.6-0.402
								c7.381-0.428,14.268-0.882,21.699-1.889c-5.282,0.356-9.563,0.699-12.815,1.027c4.864-0.499,10.356-0.933,15.951-1.407
								c5.578-0.627,11.263-1.265,16.539-1.857c0,0,5.428-0.854,10.854-1.706c5.388-1.074,10.775-2.148,10.775-2.148
								c-0.152,0.289,13.588-1.891,7.028-0.419c3.92-0.525,7.313-1.04,10.338-1.543c3.009-0.584,5.634-1.229,8.06-1.797
								c4.849-1.162,8.861-2.22,13.318-3.201c15.97-2.706-13.675,3.061-15.096,4.098c5.474-1.09,11.028-2.196,16.476-3.281
								c5.452-1.059,10.751-2.324,15.756-3.576c10.01-2.498,18.841-4.866,24.989-6.551c-4.504,0.957-6.692,1.397-6.495,1.218
								c0.694-0.006,9.526-2.164,14.497-3.264l3.34-1.096c4.175-0.784,5.984-1.046,5.871-0.903
								c-0.117,0.131-2.154,0.678-5.652,1.564c7.921-1.665,17.335-4.18,25.758-4.891c-13.775,2.345-31.018,5.976-37.937,7.892
								c13.983-3.466,21.209-4.654,29.394-5.853c4.092-0.609,8.448-1.151,14.07-1.814c5.626-0.628,12.539-1.36,21.829-1.615
								c0.455,0.158-5.814,0.548,1.327,0.472c8.276-0.056,9.376,0.003,9.043-0.261c-0.331-0.227-2.101-0.563,0.514-0.612
								c-6.427-0.216-11.121-0.145-15.135-0.056c-1.004,0.016-1.967,0.03-2.903,0.045c-0.935,0.028-1.845,0.056-2.744,0.083
								c-1.805,0.028-3.565,0.09-5.42,0.162c0,0,0.843-0.148,1.686-0.296c0.842-0.152,1.688-0.287,1.688-0.287
								c0.264,0.055,2.403-0.053,4.771-0.175c2.377-0.05,4.98-0.153,6.173-0.08l2.072-0.59c-0.239,0.16,0.392,0.301,1.626,0.416
								c1.235,0.118,3.079,0.292,5.265,0.414c4.375,0.343,10.131,0.782,15.197,1.414c-5.079-0.92-6.955-1.103-7.882-1.346
								c-0.931-0.212-0.92-0.423-2.301-0.851c3.606,0.097,6.431,0.318,8.87,0.68c2.446,0.294,4.501,0.769,6.611,1.195
								c4.198,0.994,8.612,1.931,16.483,4.07c-0.622-0.058-4.322-1.165-6.448-1.599c-1.061-0.228-1.711-0.353-1.357-0.223
								c0.177,0.065,0.604,0.194,1.356,0.405c0.757,0.196,1.827,0.52,3.284,0.991c1.215,0.361,2.257,0.672,3.164,0.942
								c0.9,0.294,1.666,0.545,2.335,0.764c1.339,0.429,2.308,0.68,3.163,0.938c1.693,0.559,3.057,0.841,6.211,2.156
								c-7.293-2.477-5.596-1.458-13.616-3.468c-8.574-2.529-10.396-2.657-12.1-3.04c-0.858-0.168-1.701-0.354-3.415-0.596
								c-0.855-0.13-1.926-0.293-3.32-0.505c-1.399-0.161-3.124-0.36-5.282-0.608c0,0,0.908,0.143,2.271,0.357
								c1.362,0.209,3.178,0.492,4.978,0.876c0.901,0.18,1.803,0.358,2.647,0.526c0.843,0.181,1.622,0.384,2.293,0.541
								c1.34,0.323,2.233,0.539,2.233,0.539c-1.845-0.369-3.392-0.699-4.702-0.917c-1.315-0.187-2.382-0.338-3.247-0.461
								c-1.73-0.244-2.67-0.249-3.179-0.239c-1.018,0.036-0.334,0.303-0.957,0.324c1.577,0.224,3.028,0.444,4.362,0.708
								c1.336,0.251,2.568,0.445,3.694,0.678c2.245,0.505,4.13,0.827,5.709,1.226c1.583,0.378,2.896,0.671,4.041,0.912
								c1.132,0.285,2.097,0.517,2.996,0.722c0.897,0.214,1.737,0.374,2.595,0.604c0.855,0.234,1.745,0.484,2.767,0.791
								c1.022,0.306,2.182,0.657,3.536,1.202c0.679,0.267,1.416,0.556,2.225,0.873c0.811,0.313,1.681,0.679,2.611,1.13
								c1.85,0.745,1.897,0.713,1.104,0.318c-0.794-0.392-2.414-1.174-3.962-1.773c-3.066-1.256-5.62-2.307,0.254-0.147
								c7.121,3.081,7.872,3.561,8.938,3.941c0.527,0.201,1.112,0.422,2.544,1.079c0.712,0.326,1.604,0.796,2.714,1.341
								c1.096,0.528,2.464,1.202,3.883,1.587c0,0-0.123-0.021-0.307-0.052c-0.195-0.044-0.454-0.104-0.714-0.164
								c-0.274-0.081-0.55-0.162-0.756-0.223c-0.213-0.072-0.355-0.12-0.355-0.12c1.118,0.612,2.202,1.022,3.11,1.146
								c0.473,0.077,0.819,0.068,1.198,0.016c0.38-0.029,0.733-0.191,1.085-0.331c0.933-0.468,2.142-1.645,3.251-3.311
								c0.721-1.104,0.727-1.492,0.592-1.592c-0.141-0.112-0.451-0.018-0.5-0.377c-0.024-0.179,0.016-0.47,0.174-0.946
								c0.133-0.524,0.407-1.205,0.78-2.274c0.751-2.119,2.025-5.667,3.569-11.912c-0.172,1.25-0.197,1.723-0.139,1.738
								c-0.326,3.986-0.861,7.897-1.785,11.631c-0.486,1.843-1.081,3.628-1.869,5.262c-0.783,1.631-1.808,3.073-3.671,2.749
								c-0.072,0.598-0.228,1.251-0.498,1.853c0.364-0.068,0.712-0.198,1.123-0.352c1.239-0.544,2.397-1.529,3.419-2.681
								c1.029-1.163,1.876-2.571,2.685-4.012c1.557-2.941,2.753-6.206,3.795-9.568c1.036-3.37,1.9-6.863,2.68-10.423
								c0.395-1.778,0.737-3.587,1.063-5.411c0.336-1.821,0.674-3.651,1.013-5.489c0.682-3.676,1.369-7.383,2.062-11.115
								c0.329-1.869,0.736-3.732,1.007-5.623c0.277-1.891,0.555-3.785,0.834-5.686c0.561-3.799,1.124-7.616,1.688-11.442
								c0.284-1.913,0.569-3.829,0.854-5.747c0.261-1.92,0.45-3.852,0.68-5.779c0.407-1.825,0.508-1.332,0.438,0.407
								c-0.083,1.737-0.258,4.729-0.684,7.865c-0.761,6.282-1.676,13.242-1.351,12.313c0,0-0.543,3.564-1.087,7.129
								c-0.244,1.787-0.593,3.556-0.854,4.883c-0.257,1.328-0.428,2.213-0.428,2.213c-0.054-0.214,0.248-2.18,0.684-4.81
								c0.345-2.645,0.776-5.96,1.153-8.847c0.745-5.776,1.215-9.84-0.006-3.441c-1.462,12.643-3.38,21.697-4.926,30.645
								c-0.41,2.231-0.761,4.47-1.21,6.722c-0.444,2.253-0.938,4.536-1.496,6.896c-0.551,2.364-1.203,4.795-1.99,7.334
								c-0.798,2.531-1.73,5.182-3.083,7.847c1.083-1.52,2.41-4.149,3.588-7.531c1.196-3.376,2.272-7.481,3.204-11.873
								c0.486-2.192,0.903-4.465,1.289-6.758c0.408-2.287,0.819-4.59,1.224-6.857c0.83-4.532,1.683-8.917,2.544-12.759
								c-1.227,6.488-2.122,11.988-2.962,17.339c0.683-3.629,1.377-7.321,2.083-11.077c0.687-3.76,1.496-7.565,2.006-11.482
								c0.578-3.908,1.165-7.878,1.762-11.911c0.298-2.017,0.599-4.049,0.902-6.097c0.146-1.024,0.314-2.05,0.444-3.085
								c0.117-1.036,0.234-2.075,0.353-3.119l0.188-3.779c-0.328,2.813-0.596,5.412-0.898,7.735
								c-0.347,2.317-0.653,4.367-0.912,6.099c-0.528,3.461-0.861,5.646-0.938,6.146c0.539-3.715,1.023-7.289,1.439-10.576
								c0.101-0.822,0.198-1.627,0.293-2.41c0.066-0.787,0.131-1.554,0.192-2.298c0.112-1.489,0.217-2.887,0.313-4.176
								c0.352-5.159,0.433-8.58,0.172-9.106l-0.301,2.646l0.37-5.407C662.396,624.007,662.826,620.516,663.084,617.026z
								 M222.404,56.979c0.858-0.323,1.526-0.6,2.009-0.838C223.912,56.389,224.519,56.267,222.404,56.979z M463.566,726.865
								c19.589-4.291,39.109-9.458,57.937-13.032c-8.544,1.352-16.429,2.88-22.582,4.061c-6.152,1.188-10.572,2.037-12.173,2.225
								c-1.6,0.191-0.378-0.27,4.766-1.624c2.572-0.675,6.124-1.578,10.806-2.691c4.682-1.115,10.492-2.451,17.606-3.861
								l3.714-0.804c-7.493,1.211-20.277,4.021-32.188,7.039c-4.774,1.401-14.866,4.364-23.723,6.964
								c-2.214,0.66-4.369,1.221-6.345,1.731c-1.974,0.521-3.767,0.993-5.275,1.391c-1.508,0.407-2.731,0.737-3.567,0.963
								c-0.836,0.231-1.282,0.364-1.235,0.373c3.525-0.379,8.495-1.752,14.79-2.985c0,0-0.632,0.069-1.263,0.138
								C464.2,726.809,463.566,726.865,463.566,726.865z M449.185,727.691c-11.124,2.143-8.546,1.895-10.224,2.492
								c3.902-0.833,7.798-1.665,11.65-2.487C449.122,727.938,448.377,728.001,449.185,727.691z M439.672,730.291
								c1.249-0.25,2.316-0.458,2.88-0.54L439.672,730.291z M648.367,713.011c-0.176,0.474-0.228,0.648-0.419,1.089
								c1.042-2.476,1.906-5.027,2.704-7.719C650.304,707.413,649.739,709.413,648.367,713.011z M632.083,724.334
								c0,0-0.653-0.129-1.308-0.299c-0.656-0.163-1.308-0.367-1.308-0.367c2.208,1.106,4.647,2.143,7.282,2.014
								C635.889,725.472,634.978,725.492,632.083,724.334z M560.911,705.441c-1.175,0.189-3.041,0.35-5.188,0.551
								c-2.144,0.242-4.576,0.444-6.878,0.762c-2.306,0.271-4.484,0.605-6.142,0.904c-1.66,0.282-2.794,0.564-3.011,0.755
								c-0.484,0.148,0.092,0.125,1.248,0.009c1.159-0.094,2.898-0.266,4.738-0.454c4.105-0.396,8.497-0.774,13.168-0.916
								c0.159-0.096,1.083-0.225,2.633-0.36c-2.31,0.046-4.238,0.067-5.358,0.02c-1.119-0.022-1.432-0.137-0.507-0.393
								c5.97,0.113,8.621-0.016,11.418-0.247c1.397-0.083,2.828-0.199,4.719-0.236c1.889,0.034,4.244,0.022,7.462,0.407
								c1.036-0.019,0.661-0.136-0.551-0.304c-0.605-0.078-1.419-0.192-2.371-0.271c-0.953-0.063-2.042-0.136-3.193-0.212
								c-1.152-0.084-2.368-0.119-3.574-0.135c-1.206-0.019-2.402-0.055-3.516-0.043
								C563.783,705.324,561.89,705.363,560.911,705.441z M15.478,279.711c0.032-0.365,0.086-1.62,0.149-3.38l0.92,8.959
								c1.032,16.009,1.319,28.932,3.947,43.167c0.7,6.722,0.866,10.368,1.026,13.842c-0.456-3.283-0.893-6.351-1.197-8.917
								c-1.698-10.001-2.413-16.364-2.826-20.74c-0.404-4.379-0.466-6.785-0.489-8.948
								C16.986,299.365,16.993,296.021,15.478,279.711z M20.428,463.772c0.054-1.656-0.015-2.257-0.015-2.257
								c-0.861,35.914-2.185,65.449-3.315,84.772c0.668-3.722,1.995-21.038,2.646-29.26l0.111,7.324l-0.666,4.533l-0.238,12.69
								c0.549-3.521,1.051-13.754,1.704-20.575c-0.065-0.6,0.556-22.525,0.58-28.662l-1.343,17.471
								c0.411-4.715,1.594-27.925,1.978-37.134c-0.063-0.049-0.191,0.904-0.34,2.393s-0.32,3.513-0.469,5.606
								c-0.298,4.188-0.507,8.653-0.28,9.668c-0.494,1.864,0.529-16.415-0.535-4.879c0.356-13.722,1.926-35.497,2.686-45.599
								l0.747-1.676c0.876-11.08-0.364-7.539,0.753-20.7c-0.784,16.213,0.868-2.699,0.192,10.194
								c0.477-4.103,0.693-0.045,1.37-12.965c-0.267-10.798,1.335-13.592,0.967-23.845c0.392-6.844,0.413,7.398,0.736-6.096
								c-0.5-15.517-1.213-14.576-1.81-15.496c0.285,3.598,0.274,6.417,0.421,8.795c0.072,1.19,0.138,2.271,0.2,3.288
								c0.04,1.016,0.076,1.967,0.113,2.898c0.076,1.862,0.153,3.645,0.191,5.7c0.012,2.053-0.069,4.371-0.221,7.313
								c0,0-0.007-1.466-0.019-3.665c0.016-2.196-0.067-5.133-0.168-8.067c-0.049-1.465-0.098-2.931-0.144-4.305
								c-0.096-1.373-0.185-2.655-0.261-3.753c-0.153-2.194-0.255-3.656-0.255-3.656c-0.072,4.322,0.074,7.511,0.021,10.188
								c0.041-2.35-0.101-4.525-0.22-6.536c-0.138-2.01-0.229-3.86-0.445-5.557c-0.256-1.929-0.493-3.709-0.711-5.354
								c0.24,3.296,0.514,6.498,0.514,9.492c0.062,2.991,0.152,5.761,0.052,8.185c-0.07,2.422-0.13,4.497-0.177,6.095
								c-0.1,1.597-0.2,2.717-0.287,3.233l-0.23-1.832c-0.24,2.332-0.366,5.401-0.458,8.332c-0.11,2.931-0.15,5.72-0.133,7.483
								c-0.629,11.832-0.871,23.675-1.409,26.237l-0.026-4.507C21.505,443.85,21.453,445.474,20.428,463.772z M243.371,741.684
								c-2.187-0.415-4.429-0.82-7.205-1.242c-2.769-0.497-6.071-1.016-10.381-1.585c-4.311-0.568-9.629-1.187-16.435-1.88
								c-6.796-0.786-15.061-1.832-25.295-2.95l3.229,0.297c-2.566-0.386-5.12-0.733-7.673-1.055
								c-2.55-0.353-5.096-0.705-7.652-1.059c-5.116-0.673-10.279-1.281-15.583-1.91c-5.311-0.582-10.733-1.386-16.389-2.265
								c-5.656-0.88-11.542-1.875-17.741-3.072c12.165,1.537,11.512,1.471,25.006,2.674l-13.018-1.782
								c1.845-0.01-0.479-0.459-4.453-1.102c-1.988-0.312-4.387-0.687-6.883-1.078c-2.494-0.405-5.078-0.879-7.449-1.308
								c0,0,2.124,0.199,4.248,0.399c2.121,0.215,4.251,0.368,4.251,0.369c5.673,1.126,20.462,3.589,20.054,3.356
								c-0.813-0.111-0.007,0.087,1.853,0.475c1.861,0.38,4.771,0.994,8.19,1.541c6.831,1.148,15.63,2.536,21.854,3.301
								c-1.218-0.665-27.453-4.133-15.637-3.289c-5.177-0.57-8.077-0.964-11.014-1.503c-2.938-0.534-5.931-1.098-11.317-1.88
								c10.357,1.332,2.656-0.248,10.377,0.638l-17.634-2.679c-0.43-0.234,25.698,3.781,11.367,0.858
								c-3.545-0.442-10.013-1.503-15.646-2.395c-2.82-0.429-5.423-0.868-7.347-1.18c-1.925-0.299-3.176-0.445-3.283-0.33
								l-0.404-0.238c-13.134-2.494-5.922-0.3-22.022-3.537c-0.243,0.24,2.806,0.974,8.606,1.967
								c4.915,0.769,5.73,0.547,15.819,2.295c4.447,1.223-12.146-2.247-5.272-0.296c0.854,0.243,2.948,0.646,5.491,1.106
								c2.541,0.472,5.535,0.975,8.195,1.374c5.316,0.837,9.263,1.509,5.502,1.299c0,0-3.291-0.561-6.581-1.12
								c-1.646-0.275-3.291-0.559-4.519-0.803c-1.23-0.233-2.05-0.389-2.05-0.389c-0.427,0.46-9.942-1.29-9.75-0.822
								c-8.076-1.268-15.562-3.172-23.826-4.395c-3.465-0.337,2.351,1.46-11.148-1.49c-2.606-0.73-6.523-1.594-11.087-2.662
								c-4.564-1.065-9.796-2.229-15.068-3.372c-10.544-2.288-21.224-4.605-27.045-5.868l-9.453-1.781
								c-0.361,0.251,18.746,4.172,12.029,3.092c0,0-3.974-0.861-7.947-1.723c-1.775-0.383-3.55-0.766-4.881-1.053
								c-0.647-0.153-1.248-0.237-1.571-0.37c0.019-0.391,0.029-0.613,0.029-0.613s0.038,0.237,0.075,0.476
								c0.009,0.026,0,0.065,0.023,0.08l0.115,0.007c0.074,0.005,0.144,0.009,0.203,0.013c0.118,0.007,0.197,0.012,0.197,0.012
								l-0.421-0.099c-0.018-0.125,0.011-0.285,0.013-0.426l0.049-0.87l0.082-1.737c0.042-1.192,0.084-2.383,0.126-3.561
								c0.079-2.666,0.156-5.274,0.229-7.733c0.024,1.271-0.009,2.954-0.061,4.729c-0.055,1.695-0.112,3.479-0.163,5.042
								c-0.079,2.802-0.083,4.649,0.257,3.5c0.437-5.845,0.745-7.704,1.026-14.58c-0.047,1.534-0.067,2.855,0.021,2.666
								c1.104-15.424,0.223-14.941,0.261-18.822c0.158-15.561-1.542,15.606-1.996,13.591l2.244-45.332
								c-0.04,3.881-0.081,7.787,0.227,6.339c0.878-11.1,0.44-0.228,1.291-15.834c-0.813,1.069,0.636-19.676,0.821-30.724
								c0.597-5.133,0.718-6.188,0.094,5.074c0.56-1.265,1.222-16.396,1.569-21.769c0.053-3.121,0.281-8.437,0.362-11.81
								c-0.497,4.497-0.693,2.554-0.353-7.221l-0.07-0.574c-1.032,15.997-2.962,40.844-3.027,50.907l-0.082-2.851
								c-1.462,18.502-1.389,40.363-2.79,48.854c-0.32-0.809-0.293,3.717-0.801,3.364l-0.354,13.664l-0.079-2.851L6.709,695.45
								l-0.061-0.684c-0.03,1.599-0.059,3.153-0.087,4.667c-0.013,0.743-0.026,1.477-0.039,2.2
								c-0.006,0.356-0.012,0.711-0.018,1.063L6.5,702.958c-0.018,0.057,0.02,0.071,0.075,0.072l0.136,0.025l0.542,0.102
								c2.754,0.507,5.354,0.985,7.809,1.438c4.346,0.772,8.182,1.455,11.588,2.061c0.075-0.219-0.61-0.445,3.019,0.197
								c3.631,0.692,6.363,1.316,8.804,1.85c0.019,0.003,0.019,0.003,0.02,0.001l-0.001,0.003c5.563,1.25,9.209,2.362,16.051,3.954
								c0,0-5.288-1.109-10.576-2.219c-2.644-0.554-5.288-1.108-7.271-1.524c-1.979-0.436-3.298-0.727-3.298-0.727
								c-1.798-0.022-0.109,0.848,10.202,3.295c-4.241-0.886-6.08-0.965-0.843,0.194c0.598,0.022,13.913,2.7,8.916,1.32
								c2.512,0.532,5.218,1.106,8.09,1.715c2.867,0.633,5.902,1.292,9.084,1.938c6.357,1.33,13.266,2.774,20.5,4.287
								c3.613,0.78,7.333,1.45,11.101,2.159c3.771,0.69,7.596,1.392,11.445,2.096c3.855,0.675,7.726,1.406,11.619,1.991
								c3.893,0.585,7.786,1.147,11.65,1.677c-22.204-3.132,17.656,3.381-6.942-0.428c8.526,1.693,12.243,2.137,16.008,2.522
								c1.883,0.189,3.777,0.377,6.295,0.676c2.524,0.259,5.671,0.64,10.052,1.276c0.732,0.216-1.654-0.125-4.735-0.536
								c-3.083-0.401-6.857-0.89-8.895-1.021c3.624,0.652,7.136,1.09,10.529,1.571c3.398,0.448,6.688,0.882,9.903,1.306
								c3.217,0.398,6.36,0.787,9.461,1.172c3.099,0.396,6.179,0.619,9.239,0.93c6.122,0.594,12.214,1.185,18.548,1.799
								c3.16,0.361,6.398,0.56,9.722,0.857c3.323,0.301,6.74,0.611,10.285,0.933l1.172,0.594c2.688,0.21,5.524,0.432,8.465,0.661
								C237.205,741.43,240.262,741.504,243.371,741.684z M299.688,743.25c5.479-0.071,11.037-0.143,16.686-0.215
								c-0.551-0.003-1.063-0.006-1.639-0.01c0,0,1.029-0.027,2.572-0.068c1.542-0.054,3.6-0.068,5.656-0.178
								c4.109-0.256,8.218-0.512,8.218-0.512c-5.056,0.076-9.248,0.127-10.412-0.117c-1.164-0.19,0.707-0.319,7.764-0.758
								c-1.184,0.247,2.955,0.336-1.956,0.642c9.479-0.063,30.29-0.594,24.824-1.138c-18.162,1.442-4.283-0.761-18.552,0.314
								c3.826-0.387,7.638-0.599,11.398-0.775c1.88-0.087,3.747-0.172,5.596-0.257c1.849-0.093,3.672-0.307,5.475-0.483
								c-7.496,0.976,1.806,0.774,13.135,0.101c2.454-0.267,7.021-0.553,11.98-1.031c4.948-0.589,10.301-1.235,14.363-1.808
								c-2.955-0.108,4.1-1.192-9.172,0.245c4.854-0.687,12.364-1.658,20.828-2.415c-3.333,0.468-9.174,1.206-8.75,1.32
								c2.747-0.112,5.717-0.359,8.441-0.608c1.366-0.103,2.659-0.283,3.834-0.447c1.176-0.158,2.233-0.295,3.115-0.392
								c2.787-0.47,5.601-0.943,8.338-1.405c-0.824,0.092-1.541,0.155-2.056,0.172l9.206-1.874
								c-12.31,2.183-5.737,0.707-5.621,0.421c-0.247,0.573,7.954-1.202,12.172-1.894l-9.264,0.917
								c2.191-0.492,6.117-1.018,9.196-1.441c3.07-0.473,5.271-0.957,4.077-0.973c-1.209,0.227-2.366,0.476-3.491,0.661
								c-1.129,0.17-2.217,0.333-3.268,0.491c-2.102,0.32-4.059,0.619-5.915,0.902c-3.71,0.588-7.016,1.111-10.264,1.626
								c-3.25,0.503-6.425,1.112-9.912,1.586c-3.493,0.441-7.274,0.918-11.69,1.475l7.234-0.41
								c-9.965,1.318-13.067,1.494-16.472,1.67c-1.703,0.087-3.481,0.176-6.233,0.404c-2.763,0.121-6.502,0.345-12.119,0.778
								c-2.327,0.277-5.604,0.579-9.216,0.889c-3.612,0.306-7.556,0.673-11.238,0.78c-7.355,0.338-13.598,0.684-13.817,1.089
								c1.41-0.175-2.106-0.217-6.936-0.132c-1.207,0.025-2.497,0.053-3.812,0.081c-1.316-0.003-2.659-0.006-3.971-0.009
								c-2.625,0.011-5.128,0.057-7.06,0.151c-2.135,0.187-5.352,0.337-8.856,0.463c-1.752,0.056-3.576,0.114-5.371,0.171
								c-1.795,0.058-3.563,0.108-5.201,0.075c-6.555-0.044-11.066-0.074-7.153,0.21c1.747,0.038,3.646,0.079,5.598,0.121
								c1.953,0.034,3.959,0.072,5.924,0.021c3.928-0.051,7.684-0.043,10.494,0.186c0,0-3.391,0.047-6.782,0.094
								c-1.696,0.023-3.391,0.047-4.663,0.064c-1.272,0.03-2.12,0.005-2.12,0.005s0.556,0.058,1.39,0.083
								c0.834,0.034,1.947,0.081,3.059,0.127c2.226,0.092,4.451,0.185,4.451,0.185C297.133,742.291,297.574,742.676,299.688,743.25z
								 M598.684,716.706c0.137,0.038,0.315,0.087,0.482,0.133c-0.186-0.048-0.365-0.094-0.539-0.139L598.684,716.706z"/>
							<path fill="#FFFFFF" d="M11.004,78.895c-0.086-3.909,0.258-13.561-0.188-11.683C11.229,66.993,10.37,84.463,11.004,78.895z"
								/>
							<path fill="#FFFFFF" d="M11.767,67.367c-0.08-0.683-0.261-0.216-0.123-4.546l-0.278,11.926L11.767,67.367z"/>
							<path fill="#FFFFFF" d="M15.127,55.394c-0.03-3.073-0.041-5.583,0.027-8.525c0.034-1.471,0.088-3.051,0.176-4.862
								c0.049-0.905,0.102-1.868,0.159-2.906c0.068-1.006,0.142-2.084,0.221-3.249c0.156-0.347,0.262-0.391,0.331-0.23
								c0.035,0.081,0.06,0.214,0.077,0.391c0.006,0.09,0.013,0.192,0.021,0.305c0.001,0.145,0.003,0.304,0.005,0.476
								c-0.004,1.375-0.116,3.585-0.221,6.049c-0.219,4.926-0.421,10.861-0.025,13.062c0.208-4.406,0.344-8.048,0.442-11.258
								c0.087-3.169,0.163-5.915,0.235-8.565c0.029-1.89,0.051-3.832,0.234-6.015c0.049-0.544,0.101-1.106,0.212-1.675
								c0.048-0.283,0.126-0.576,0.298-0.815c0.169-0.242,0.432-0.412,0.72-0.472c0.584-0.111,1.188,0.074,1.764,0.312
								c0.58,0.247,1.154,0.57,1.737,0.938c-0.588-0.431-1.412-1.053-2.553-1.484c-0.547-0.187-1.31-0.337-1.828,0.145
								c-0.25,0.225-0.39,0.552-0.463,0.89c-0.099,0.335-0.154,0.689-0.229,1.049c-0.253,1.448-0.432,3.057-0.593,4.726
								c-0.074,0.84-0.148,1.689-0.223,2.539c-0.074,1.044-0.148,2.088-0.222,3.119C14.896,47.625,14.749,55.115,15.127,55.394z"/>
							<polygon fill="#FFFFFF" points="16.135,63.279 16.289,53.466 16.186,54.43 16.04,64.252 							"/>
							<path fill="#FFFFFF" d="M9.224,276.478c-0.271,0.91,0.451,7.035,0.777,10.325C9.824,284.122,9.653,280.366,9.224,276.478z"/>
							<path fill="#FFFFFF" d="M433.32,57.169c0,0-0.283,0.028-0.813,0.082c-0.531,0.064-1.308,0.125-2.296,0.173
								c-0.988,0.058-2.188,0.128-3.564,0.209c-0.688,0.041-1.421,0.084-2.193,0.13c-0.771,0.027-1.578,0.021-2.423,0.035
								c-6.763,0.234-15.743-0.209-24.47-1.859c-2.21-0.297-4.331-0.941-6.458-1.428c-1.054-0.277-2.124-0.47-3.137-0.806
								c-1.016-0.331-2.018-0.657-3.004-0.978c-0.986-0.319-1.957-0.633-2.907-0.94c-0.955-0.294-1.833-0.732-2.719-1.075
								c-1.758-0.728-3.42-1.415-4.954-2.05c-1.509-0.732-2.892-1.403-4.117-1.998c-1.229-0.647-2.3-1.21-3.183-1.675
								c-0.88-0.458-1.576-0.833-2.055-1.101c-0.477-0.261-0.73-0.401-0.73-0.401c1.173,0.654,2.329,1.268,3.48,1.869
								c1.151,0.596,2.303,1.245,3.45,1.778c1.148,0.556,2.297,1.111,3.45,1.668c1.173,0.483,2.351,0.968,3.535,1.456
								c1.188,0.479,2.364,1.007,3.583,1.458c1.236,0.401,2.484,0.806,3.746,1.215c0.631,0.206,1.265,0.413,1.902,0.621
								c0.635,0.219,1.279,0.419,1.947,0.562c1.322,0.323,2.664,0.65,4.026,0.983C404.333,57.688,417.165,58.595,433.32,57.169z"/>
							<path fill="#FFFFFF" d="M14.236,524.128c0.824-20.132,0.767-29.1,1.776-49.604c-2.167,26.914-0.979,35.654-2.919,58.245
								L14.236,524.128z"/>
							<path fill="#FFFFFF" d="M12.047,516.888c0.798-3.3-0.156,15.562,0.456,12.666c0.612-13.565-0.227-6.346,0.516-18.646
								L12.047,516.888z"/>
							<polygon fill="#FFFFFF" points="27.265,426.302 27.24,432.42 27.4,427.502 							"/>
							<polygon fill="#FFFFFF" points="7.439,608.595 7.426,606.364 6.667,616.439 							"/>
							<path fill="#FFFFFF" d="M7.411,604.134l0.016,2.23L7.411,604.134z"/>
							<polygon fill="#FFFFFF" points="28.136,434.214 28.775,425.155 28.747,420.655 							"/>
							<path fill="#FFFFFF" d="M20.363,514.043l0.26-8.12C20.571,507.533,19.696,518.614,20.363,514.043z"/>
							<polygon fill="#FFFFFF" points="3.72,670.178 3.4,680.059 3.517,679.054 3.835,669.206 							"/>
							<path fill="#FFFFFF" d="M18.481,577.615c0.785-5.575-0.782,16.188,0.281,4.684C19.266,572.04,18.787,576.188,18.481,577.615z
								"/>
							<path fill="#FFFFFF" d="M8.614,696.407c-0.07,1.248-0.127,2.564-0.144,3.789C8.527,698.703,8.575,697.45,8.614,696.407z"/>
							<path fill="#FFFFFF" d="M8.614,696.407c0.144-2.118,0.288-4.237,0.421-6.188c0.139-1.979,0.252-3.789,0.267-5.266
								c-0.257,2.672-0.393,4.497-0.483,6.184c-0.037,0.844-0.072,1.652-0.11,2.516C8.68,694.489,8.649,695.379,8.614,696.407z"/>
							<path fill="#FFFFFF" d="M50.609,710.864l-3.809-0.844c3.947,0.602,2.092,0.242-1.428-0.314
								c-4.047-0.844-3.851-0.65-4.354-0.653c-0.823-0.113-1.639-0.227-2.526-0.35c1.26,0.202,2.393,0.385,3.353,0.538
								C48.11,710.577,51.938,711.366,50.609,710.864z"/>
							<path fill="#FFFFFF" d="M230.794,746.652c-14.439-1.472-18.167-1.892-17.347-2.185c-6.855-0.633-9.748-0.896-11.975-0.987
								c-2.227-0.097-3.779-0.081-7.912-0.486C209.031,744.8,212.21,745.088,230.794,746.652z"/>
							<path fill="#FFFFFF" d="M193.561,742.994c-1.735-0.192-3.392-0.375-5.405-0.598
								C190.405,742.668,192.076,742.847,193.561,742.994z"/>
							<path fill="#FFFFFF" d="M13.171,688.411c0,0,0.014,2.243,0.028,4.487c0.003,0.561,0.007,1.122,0.01,1.647
								c0.001,0.263,0.003,0.517,0.005,0.758c0.004,0.198,0.017,0.21,0.025,0.313c0.035,0.31,0.058,0.516,0.058,0.516
								s-0.002-0.304-0.004-0.607c0.021-0.713,0.041-1.426,0.041-1.426L13.171,688.411z"/>
							<path fill="#FFFFFF" d="M252.279,748.296c-2.687-0.188-6.998-0.437-9.104-0.691
								C242.375,747.924,254.96,748.482,252.279,748.296z"/>
							<path fill="#FFFFFF" d="M197.312,736.374c-1.428-0.392-10.605-1.321-14.325-1.839
								C188.329,735.202,192.613,736.377,197.312,736.374z"/>
							<path fill="#FFFFFF" d="M293.949,748.421c-2.69-0.074-6.819-0.468-5.023-0.709
								C285.019,747.766,279.713,748.271,293.949,748.421z"/>
							<polygon fill="#FFFFFF" points="223.521,739.063 221.481,738.756 211.632,738.106 							"/>
							<path fill="#FFFFFF" d="M189.162,730.066c-11.031-0.841,17.294,3.063-1.663,1.237c24.353,3.283-1.799-0.83,16.189,1.327
								C193.166,731.262,188.072,730.117,189.162,730.066z"/>
							<path fill="#FFFFFF" d="M203.689,732.631c1.529,0.194,3.185,0.421,4.988,0.602
								C206.686,732.992,205.079,732.799,203.689,732.631z"/>
							<path fill="#FFFFFF" d="M359.018,739.265c-1.601,0.169-2.692,0.302-3.7,0.431
								C356.578,739.563,357.779,739.426,359.018,739.265z"/>
							<path fill="#FFFFFF" d="M261.342,736.857l-16.563-0.359c2.768,0.061,6.578,0.214,10.711,0.398
								c2.065,0.095,4.212,0.193,6.35,0.292c1.068,0.05,2.134,0.1,3.187,0.148c1.053,0.018,2.093,0.034,3.108,0.051
								c8.118,0.117,14.635,0.159,13.778-0.192c-4.495-0.203-9.448-0.344-13.836-0.415c-1.097-0.017-2.158-0.033-3.168-0.049
								c-1.009-0.036-1.967-0.07-2.858-0.102c-1.781-0.056-3.293-0.085-4.408-0.083L261.342,736.857z"/>
							<path fill="#FFFFFF" d="M452.45,735.373l-7.067,1.715l8.905-1.75C451.722,735.765,456.229,734.351,452.45,735.373z"/>
							<path fill="#FFFFFF" d="M456.01,734.998l-1.722,0.34C454.67,735.275,455.216,735.17,456.01,734.998z"/>
							<path fill="#FFFFFF" d="M327.677,741.1c-5.36,0.23-9.652,0.188-14.544,0.324c1.015,0.06,4.866,0.107,8.356,0.102
								C324.979,741.443,328.105,741.235,327.677,741.1z"/>
							<polygon fill="#FFFFFF" points="501.721,723.063 490.267,725.93 502.78,722.883 							"/>
							<path fill="#FFFFFF" d="M555.228,715.214c0,0,0.492-0.003,0.984-0.006c0.492-0.009,0.982,0.009,0.982,0.009
								s2.35-0.148,4.699-0.297c1.174-0.042,2.347-0.084,3.227-0.115c0.88-0.027,1.467-0.047,1.467-0.047
								c0,0.001-0.495-0.034-0.991-0.057c-0.497-0.025-0.994-0.05-0.994-0.05s-0.585,0.021-1.463,0.053
								c-0.878,0.022-2.049,0.074-3.222,0.163c-1.172,0.077-2.344,0.153-3.223,0.21
								C555.814,715.159,555.228,715.214,555.228,715.214z"/>
							<path fill="#FFFFFF" d="M482.439,715.67c-7.819,1.843-13.755,3.845-11.691,3.481l15.113-3.684
								c-3.97,0.437-4.201,1.051-12.989,3.033L482.439,715.67z"/>
							<path fill="#FFFFFF" d="M672.598,407.035c0.397,3.467,0.548,20.512,0.245,21.412c-0.188-2.287-0.515-11.524-0.602-5.716
								l1.118,13.467c-0.149,17.947-1.39-13.612-1.86-22.461c0.255,18.274,0.947,23.67,1.301,43.127
								c-0.033-5.738,0.107-9.369,0.23-12.403c0.562-0.67,0.698,17.453,0.909,30.427c0.147-8.264,0.428-3.489,0.739,2.525
								c0.032,1.083,0.076,1.803,0.122,2.314c0.037,0.7,0.073,1.361,0.11,2.042l-0.021-1.557c0.067,0.109,0.143-0.235,0.237-1.359
								c-0.294-10.891,0.021-19.212-0.102-26.216c-0.819,6.93-0.681-23.835-1.173-32.612l-0.293-10.145l-0.074-3.794
								c0.093-0.765,0.244,0.313,0.543,6.094c-0.28-4.824-0.516-20.926-0.796-19.435c0,0-0.133-9.178-0.265-18.357
								c-0.156-9.181-0.171-18.346-0.172-18.346c0.035-1.142,0.08-2.284,0.146-3.129c-0.064-1.271-0.115-1.483-0.163-1.315
								c0,0-0.01-2.497-0.027-6.865c-0.004-2.184-0.009-4.836-0.015-7.878c0.028-3.039,0.061-6.468,0.096-10.208
								c0.034-3.741,0.072-7.792,0.112-12.079c0.038-4.286,0.214-8.794,0.32-13.464c0.125-4.668,0.254-9.493,0.385-14.395
								c0.196-4.917,0.396-9.911,0.595-14.906c0.412-10.019,0.798-20.103,0.927-29.616c0.138-9.512-0.003-18.455-0.409-26.147
								c-0.164-3.843-0.481-7.381-0.729-10.512c-0.335-3.135-0.558-5.867-0.892-8.119c-0.558-4.504-1.025-7.074-1.024-7.074
								c1.22,8.132,1.715,15.188,2.122,23.535c-0.343-3.12-0.519-3.825-0.51-3.183c0.004,0.642,0.139,2.628,0.224,4.886
								c0.253,4.523,0.32,10.122-0.014,8.303c-0.324-5.615-0.797-13.822-1.078-18.715c-0.253-0.899-0.237,0.405-0.283,1.832
								c-0.045,1.427-0.088,2.978-0.299,2.589c0.164,2.577,0.271,4.875,0.369,6.966c0.121,2.093,0.224,3.978,0.303,5.722
								c0.204,3.487,0.376,6.427,0.548,9.354c0.311,5.841,0.611,11.646,0.2,21.591c-0.364-0.807-0.459-6.946-0.838,6.054
								l0.032-3.305c-0.346,20.798-1.477,16.142-0.969,29.193l-0.514-0.362c0.026,4.689-0.026,11.58-0.167,18.583
								c-0.054,3.502-0.164,7.029-0.189,10.328c-0.014,3.299-0.027,6.364-0.038,8.931l-0.096-0.614
								c0.12,14.41,0.153,18.452,0.19,22.938c0.002,2.244,0.004,4.6,0.008,8.417c0.029,3.818,0.011,9.094,0.206,17.194
								c0,0-0.198-3.726-0.397-7.452c-0.167-3.724-0.334-7.448-0.334-7.448c-0.238,11.171,0.533,13.689,0.552,21.712
								c-0.109-0.574-0.472,1.292-0.666-6.286c0,0,0.365,9.826,0.731,19.652c0.419,9.831,0.838,19.662,0.838,19.662
								C672.622,419.794,672.4,408.5,672.598,407.035z"/>
							<path fill="#FFFFFF" d="M672.8,456.864c0.011,2.086,0.044,4.457,0.116,7.254C672.873,461.417,672.835,459.093,672.8,456.864z
								"/>
							<path fill="#FFFFFF" d="M669.854,178.813c0,0,0.046,0.178,0.126,0.49c0.085,0.31,0.194,0.756,0.297,1.298
								c0.222,1.081,0.517,2.521,0.811,3.962c0.314,1.439,0.555,2.884,0.729,3.968c0.181,1.083,0.301,1.806,0.301,1.806
								C671.588,186.753,670.87,183.01,669.854,178.813z"/>
							<path fill="#FFFFFF" d="M674.572,513.408c0.246-6.849,0.403,5.129,0.605,6.325l-0.099-24.538
								c-0.201,0.111-0.441-2.313-0.627-1.818L674.572,513.408z"/>
							<path fill="#FFFFFF" d="M675.382,488.095c-0.152-0.829-0.313-3.422-0.471-6.325l0.168,13.426
								C675.235,495.109,675.371,493.602,675.382,488.095z"/>
							<polygon fill="#FFFFFF" points="664.576,490.797 664.501,486.472 664.258,479.931 							"/>
							<path fill="#FFFFFF" d="M664.288,423.106c-0.201,5.177,0.236,14.98,0.382,18.26
								C664.426,430.063,664.645,434.958,664.288,423.106z"/>
							<polygon fill="#FFFFFF" points="661.277,437.144 660.878,426.251 660.839,427.269 							"/>
							<path fill="#FFFFFF" d="M641.063,100.429c-0.46-1.739-0.907-3.428-1.373-5.186C640.319,97.619,640.73,99.168,641.063,100.429
								z"/>
							<path fill="#FFFFFF" d="M670.396,189.595c-0.438-3.323-0.893-5.533-1.099-6.894c-0.221-1.359-0.275-1.861-0.207-1.743
								c0.125,0.237,0.783,2.951,1.478,6.243c0.312,1.65,0.65,3.442,0.97,5.137c0.313,1.695,0.538,3.297,0.769,4.559
								c0.44,2.524,0.731,3.698,0.645,1.582c0,0-0.136-0.905-0.339-2.262c-0.212-1.357-0.444-3.167-0.803-4.972
								c-0.334-1.805-0.668-3.609-0.919-4.963c-0.299-1.349-0.498-2.248-0.498-2.248l0.45,1.189c0,0-0.229-1.101-0.572-2.751
								c-0.179-0.824-0.356-1.792-0.604-2.815c-0.266-1.02-0.55-2.107-0.833-3.194c-0.569-2.174-1.139-4.348-1.565-5.979
								c-0.197-0.822-0.44-1.472-0.582-1.94c-0.148-0.465-0.233-0.73-0.233-0.73c0.418,1.78,0.716,3.374,0.884,4.418
								c0.171,1.043,0.2,1.542-0.076,1.203c-0.375-1.444-0.667-2.754-1.004-3.896c-0.348-1.137-0.654-2.142-0.927-3.032
								c-0.532-1.784-0.927-3.107-1.226-4.108c-0.567-2.015-0.759-2.722-0.878-3.246c-0.237-1.046-0.119-1.412-2.905-9.574
								c0,0-0.597-1.515-1.491-3.787c-0.447-1.136-0.97-2.461-1.529-3.881c-0.562-1.398-1.16-2.889-1.76-4.38
								c-0.599-1.491-1.198-2.981-1.76-4.379c-0.54-1.386-1.044-2.679-1.476-3.788c-0.863-2.217-1.438-3.694-1.438-3.694
								l0.843,1.876c-0.774-1.989-1.168-2.854-1.474-3.517c0,0-0.444-1.243-1.221-3.419c-0.767-2.176-1.954-5.276-3.041-9.03
								c-0.567-1.879-1.229-3.891-1.846-6.061c-0.597-2.17-1.201-4.506-1.839-6.977c-1.288-4.937-2.672-10.395-4.781-15.997
								c-0.534-1.397-1.15-2.817-1.776-4.209c-0.722-1.38-1.381-2.782-2.166-4.112c-1.594-2.651-3.347-5.179-5.305-7.386
								c-3.874-4.474-8.186-7.792-11.795-10.244c-1.829-1.183-3.522-2.196-5.018-3.128c-1.508-0.903-2.771-1.775-3.923-2.311
								c-2.252-1.156-3.539-1.816-3.539-1.816c-3.745-1.926-5.25-2.297-5.37-2.295c-0.14,0.042,1.037,0.601,2.3,1.285
								c2.473,1.489,5.38,3.24-0.202,0.672c2.143,1.11,4.415,2.287,6.755,3.499c2.274,1.319,4.535,2.805,6.836,4.23
								c4.553,2.892,9.045,6.588,12.497,10.522c3.463,3.93,5.907,7.955,7.417,11.014c1.538,3.048,2.351,5.057,2.659,5.38
								c-0.323-0.592-0.948-1.743,0.321,2.042c0,0,0.256,0.655,0.624,1.636c0.374,0.983,0.866,2.295,1.298,3.591
								c0.458,1.306,0.885,2.598,1.192,3.561c0.313,0.966,0.523,1.61,0.523,1.61s-0.153-0.626-0.384-1.566
								c-0.227-0.938-0.535-2.191-0.882-3.467c-0.324-1.265-0.681-2.542-0.979-3.511c-0.285-0.964-0.477-1.606-0.477-1.606
								c1.039,2.655,2.341,6.826,3.598,11.515c0.62,2.301,1.283,4.763,1.963,7.289c0.657,2.485,1.505,4.947,2.234,7.427
								c0.384,1.233,0.729,2.464,1.13,3.668c0.42,1.203,0.833,2.386,1.235,3.538c0.822,2.306,1.502,4.488,2.265,6.458
								c1.471,3.943,2.552,7.008,3.051,8.489c-1.817-4.494-2.956-7.261-3.85-9.308c-0.845-2.038-1.393-3.356-2.028-4.891
								c-0.306-0.772-0.633-1.599-1.027-2.599c-0.189-0.503-0.396-1.049-0.623-1.654c-0.207-0.608-0.409-1.278-0.644-2.022
								c-0.905-3.007-2.264-7.066-3.782-13.641c0.122,1.219,1.036,6.088-0.573,0.226c0.501,1.922,1.006,3.806,1.517,5.652
								c0.531,1.846,1.124,3.653,1.675,5.468c0.583,1.808,1.063,3.622,1.718,5.403c0.636,1.784,1.269,3.562,1.899,5.334
								c2.559,7.085,5.412,14.081,8.242,21.199c1.384,3.603,2.87,7.128,4.186,10.84c0.677,1.839,1.355,3.685,2.037,5.538
								c0.668,1.861,1.246,3.785,1.88,5.688c0.312,0.955,0.623,1.913,0.937,2.873c0.315,0.959,0.639,1.918,0.884,2.914
								c0.532,1.974,1.066,3.959,1.605,5.958c0.271,1,0.541,2.003,0.813,3.01c0.224,1.019,0.448,2.042,0.674,3.068
								c0.226,1.027,0.453,2.058,0.682,3.092C670.005,187.505,670.2,188.548,670.396,189.595z"/>
							<path fill="#FFFFFF" d="M438.176,57.277l0.237-0.089C437.859,57.277,437.681,57.32,438.176,57.277z"/>
							<path fill="#FFFFFF" d="M448.563,55.972c0,0,0.935-0.195,2.337-0.489c1.402-0.293,3.27-0.67,5.137-1.125
								c1.866-0.435,3.732-0.87,5.132-1.196c1.399-0.349,2.333-0.581,2.333-0.581s-5.868,1.193-11.729,2.18
								c-2.93,0.479-5.859,0.978-8.055,1.237c-2.196,0.294-3.66,0.49-3.66,0.49s-0.411,0.18-0.822,0.361
								c-0.411,0.183-0.823,0.339-0.823,0.339c1.03-0.156,3.595-0.622,6.301-1.022c2.707-0.388,5.559-0.937,7.169-1.074
								L448.563,55.972z"/>
							<path fill="#FFFFFF" d="M480.943,48.441c-12.135,2.871-11.338,3.265-4.65,2.12c-11.117,2.661-6.021,0.641-13.58,2.821
								c0.167,0.177,3.676-0.469,7.54-1.295c3.865-0.843,8.084-1.836,9.665-2.233L480.943,48.441z"/>
							<path fill="#FFFFFF" d="M574.748,40.13l-3.703-0.391c0,0,2.25,0.405,4.5,0.81c0.562,0.102,1.124,0.204,1.651,0.299
								c0.523,0.113,1.008,0.25,1.425,0.351c0.834,0.211,1.389,0.352,1.389,0.352s-1.306-0.401-2.612-0.802
								C576.073,40.44,574.748,40.13,574.748,40.13z"/>
							<path fill="#FFFFFF" d="M571.045,39.739c0,0-0.559-0.1-1.396-0.25c-0.843-0.097-1.965-0.227-3.088-0.356
								c-2.248-0.251-4.495-0.503-4.495-0.503c0.608,0.246,1.209,0.486,2.659,0.762c0,0,1.579,0.062,3.158,0.124
								C569.468,39.539,571.045,39.74,571.045,39.739z"/>
							<path fill="#FFFFFF" d="M538.565,38.596c-3.741,0.321-7.902,0.628-12.876,1.342c0,0,0.801-0.102,2.001-0.254
								c1.202-0.145,2.794-0.38,4.415-0.505c1.614-0.148,3.229-0.296,4.44-0.408C537.756,38.66,538.565,38.596,538.565,38.596z"/>
							<path fill="#FFFFFF" d="M548.771,38.282l-0.305-0.074c0,0-2.493-0.03-4.957,0.138c-2.472,0.125-4.943,0.249-4.943,0.249
								c1.822-0.08,3.551-0.156,5.233-0.23c0.841-0.033,1.671-0.065,2.495-0.097C547.123,38.273,547.946,38.278,548.771,38.282z"/>
							<path fill="#FFFFFF" d="M562.065,38.631c-0.715-0.275-1.494-0.497-3.732-0.751c-1.118-0.117-2.604-0.258-4.624-0.349
								c-2.012-0.009-4.563-0.005-7.813,0.08c0,0,0.644,0.139,1.286,0.293c0.642,0.152,1.283,0.304,1.283,0.304
								s0.849-0.002,2.121-0.006c1.274,0.024,2.963-0.071,4.669,0.059c1.703,0.087,3.405,0.175,4.683,0.24
								c0.638,0.034,1.17,0.062,1.542,0.081C561.853,38.595,562.065,38.631,562.065,38.631z"/>
							<polygon fill="#FFFFFF" points="660.612,357.809 660.344,347.945 660.283,348.99 660.553,358.847 							"/>
							<path fill="#FFFFFF" d="M661.477,300.874c-0.007-2.442-0.033-4.294-0.066-5.978
								C661.387,297.468,661.4,299.515,661.477,300.874z"/>
							<path fill="#FFFFFF" d="M660.152,258.539c0.813-11.489-0.003,15.892,0.915-5.406c0.447-1.864,0.638,8.125,0.011,18.202
								c-0.328-0.818,0.167-9.822-0.455-3.648c0.146,6.704-0.248,9.251,0.397,6.936c-0.065,5.644,0.001,8.798,0.08,11.49
								c0.106,2.697,0.236,4.939,0.31,8.784c0.013-6.846,0.536-17.443,1.021-28.437c0.475-10.994,0.772-22.409,0.415-30.969
								c-0.699-9.424-1.585-3.689-2.521-3.731c-0.09,0.704-0.162,7.131-0.267,13.531
								C659.953,251.689,659.852,258.064,660.152,258.539z"/>
							<path fill="#FFFFFF" d="M658.478,276.663c-0.266,5.358-0.296,7.015-0.33,10.316
								C658.492,286.103,658.313,280.992,658.478,276.663z"/>
							<path fill="#FFFFFF" d="M654.024,155.771c-0.402-0.933-4.143-9.865-3.585-7.847c0,0,0.344,0.849,0.858,2.124
								c0.505,1.277,1.226,2.968,1.866,4.679c1.288,3.423,2.575,6.846,2.575,6.846C654.59,158.338,654.332,157.143,654.024,155.771z
								"/>
							<path fill="#FFFFFF" d="M657.797,167.64c0,0-0.502-1.521-1.004-3.041c-0.256-0.759-0.489-1.523-0.701-2.087
								c-0.211-0.563-0.353-0.938-0.353-0.938C656.313,163.074,656.857,164.975,657.797,167.64z"/>
							<path fill="#FFFFFF" d="M653.866,155.087c0.053,0.228,0.1,0.431,0.158,0.685
								C654.122,155.955,654.136,155.909,653.866,155.087z"/>
							<path fill="#FFFFFF" d="M502.527,43.859c0.078-0.147-1.504,0.141-3.499,0.574c-1.982,0.465-4.393,1.03-6.005,1.407
								C495.663,45.302,499.358,44.569,502.527,43.859z"/>
							<path fill="#FFFFFF" d="M264.112,36.812l-5.624,1.604C260.493,37.897,261.509,37.616,264.112,36.812z"/>
							<path fill="#FFFFFF" d="M179.814,66.026c-0.168,0.055-0.598,0.108-1.179,0.163C179.217,66.142,179.621,66.089,179.814,66.026
								z"/>
							<path fill="#FFFFFF" d="M178.636,66.189c-0.998,0.079-2.52,0.136-4.31,0.183c-0.895,0.012-1.858,0.071-2.854,0.039
								c-0.995-0.027-2.026-0.055-3.06-0.083c-2.065-0.078-4.153-0.061-5.986-0.184c-1.836-0.097-3.434-0.157-4.545-0.145
								l0.567-0.065c0,0-0.515-0.021-1.287-0.051c-0.771-0.035-1.804-0.055-2.828-0.142c-2.052-0.146-4.104-0.291-4.104-0.291
								c3.833,0.385,9.802,0.853,15.388,1.01c1.397,0.021,2.77,0.043,4.077,0.063c1.307,0.019,2.548,0.042,3.688-0.029
								C175.661,66.398,177.518,66.295,178.636,66.189z"/>
						</g>
					</g>
				</g>
			</g>
		</g>
	</g>
</g>
</svg>
