<?xml version="1.0" encoding="utf-8"?>
<!-- Generator: Adobe Illustrator 16.0.0, SVG Export Plug-In . SVG Version: 6.00 Build 0)  -->
<!DOCTYPE svg PUBLIC "-//W3C//DTD SVG 1.1//EN" "http://www.w3.org/Graphics/SVG/1.1/DTD/svg11.dtd">
<svg version="1.1" id="Layer_1" xmlns="http://www.w3.org/2000/svg" xmlns:xlink="http://www.w3.org/1999/xlink" x="0px" y="0px"
	 width="1022px" height="550px" viewBox="0 0 1022 550" enable-background="new 0 0 1022 550" xml:space="preserve">
<g>
	<image overflow="visible" opacity="0.75" width="973" height="566" xlink:href="BE91E6E1.png"  transform="matrix(1 0 0 1 25 -8)">
	</image>
	<g>
		<path fill="#F2F2F2" d="M201.123,31.012c30.936,2.312,61.992,4.624,92.967,2.85c48.282-2.767,95.341-15.396,143.39-20.68
			c21.271-2.339,42.941-3.22,63.993,0.499c17.204,3.039,33.646,9.086,50.61,13.162C662.124,53.284,783.208-4.584,889.7,32.725
			c9.015,3.159,18.089,7.188,24.278,14.167c5.016,5.654,7.723,12.772,11.244,19.365c10.065,18.847,27.15,33.924,35.617,53.466
			c10.332,23.844,6.475,50.742,4.637,76.467c-7.115,99.613,18.249,203.678-18.301,297.295c-3.678,9.419-9.334,19.773-19.646,22.023
			c-6.146,1.342-12.487-0.608-18.534-2.309c-73.01-20.524-151.048-6.467-226.604,2.492C469.263,540.964,253.108,524.162,40,498.726
			c7.731-71.3,15.462-142.599,23.194-213.898c0.936-8.63,1.872-17.321,1.079-25.964c-0.854-9.313-3.696-18.34-6.252-27.367
			C38.054,161.004,45.859,10.285,50.814,5.65c4.955-4.634,37.725,16.948,61.951,18.759C142.217,26.609,171.67,28.811,201.123,31.012
			z"/>
		<g>
			<g>
				<g>
					<g>
						<g>
							<path fill="#FFFFFF" d="M133.502,23.453c6.232,0.409,11.642,1.125,9.289,1.089c12.715,0.572,12.955,1.02,14.652,0.416
								c8.17,0.251,16.819,1.395,7.533,0.998l23.512,1.309l-14.03-1.162c3.869-0.319,22.419,1.857,26.92,1.484l-25.418-1.84
								l1.285-0.106c-5.803-0.216-17.036-1.146-20.948-1.524c0.625-0.054,0.244-0.245,4.728,0.072
								c-30.681-2.339-8.345,0.44-33.821-1.261C128.8,23.032,130.776,23.188,133.502,23.453z"/>
							<path fill="#FFFFFF" d="M107.976,19.78c0,0-2.517-0.251-5.063-0.701c-2.544-0.439-5.097-1.034-5.097-1.034
								s-1.042-0.346-2.603-0.864c-1.56-0.535-3.632-1.283-5.695-2.084c-4.128-1.592-8.227-3.363-8.227-3.363
								c-0.28,0.199-12.404-4.739-4.343-1.056c1.602,0.641,4.767,1.908,7.323,2.931c-1.033-0.092-6.548-2.296-11.241-4.241
								c-4.689-1.939-8.626-3.454-6.262-2.175c13.228,5.41,15.106,6.469,23.398,9.085c6.034,2.252,11.328,3.858,15.844,4.84
								c2.257,0.488,4.317,0.837,6.17,1.042c1.929,0.2,3.646,0.378,5.152,0.535c3.871,0.203,4.44-0.104,9.355,0.194
								c-1.087-0.074-2.086-0.142-3.336-0.228l-0.466-0.89c-2.054-0.063-4.047-0.188-6.096-0.338
								c-1.023-0.078-2.061-0.157-3.127-0.238c-1.082-0.08-2.035-0.169-3.119-0.303c0,0,0.309,0.021,0.849,0.057
								c0.561,0.038,1.26,0.062,2.27,0.089c1.978,0.054,4.614,0.126,7.251,0.198c5.273,0.144,10.547,0.288,10.547,0.288
								c-3.359-0.651-10.211-1.246-17.251-1.796l-1.298-0.104c-0.397-0.038-0.792-0.065-1.191-0.115
								c-0.795-0.085-1.591-0.192-2.381-0.318c-1.58-0.248-3.134-0.561-4.604-0.907c-2.942-0.694-5.548-1.505-7.418-2.183
								c4.601,1.777,2.712,1.273,1.925,1.134c-0.391-0.08-0.502-0.075,0.629,0.318C101.001,17.922,103.376,18.777,107.976,19.78z"/>
							<path fill="#FFFFFF" d="M126.687,22.891c0.136,0.01,0.36,0.026,0.516,0.037C127.047,22.917,126.823,22.901,126.687,22.891z"
								/>
							<path fill="#FFFFFF" d="M962.361,418.379c0.449-4.431,0.39-5.755,0.351-6.404c0,0-0.326,3.115-0.814,7.787
								c-0.543,4.664-1.329,10.876-2.354,17.047c-1.007,6.174-2.199,12.313-3.239,16.883c-0.491,2.291-0.911,4.198-1.268,5.518
								c-0.334,1.325-0.524,2.082-0.524,2.082c0.729-1.423,4.015-15.474,2.101-6.023c1.247-4.13,3.529-17.051,3.396-18.995
								c0,0-0.057,0.91-0.113,1.821c-0.052,0.912-0.127,1.821-0.127,1.821c0.709-5.738,1.569-10.52,2.038-12.959
								c0.511-2.431,0.8-2.488,0.44,1.274l0.121-0.97c0,0,0.154-2.001,0.387-5.002c0.192-3.004,0.399-7.013,0.578-11.016
								c0.102-4.012,0.281-8.009,0.271-11.019c0.027-3.004,0.045-5.007,0.045-5.007c-0.408,5.859-0.392,8.127-0.465,10.69
								C963.123,408.472,963.129,411.348,962.361,418.379z"/>
							<path fill="#FFFFFF" d="M274.77,35.997c6.561-0.161,7.363-0.252,6.617-0.326C279.038,35.763,276.806,35.864,274.77,35.997z"
								/>
							<path fill="#FFFFFF" d="M963.604,387.729c0,0-0.006-0.627-0.016-1.567c-0.005-0.939-0.021-2.193-0.063-3.448
								c-0.066-2.508-0.133-5.017-0.133-5.017C963.434,381.71,963.537,385.242,963.604,387.729z"/>
							<path fill="#FFFFFF" d="M962.834,458.14c0.022,0.026,0.023,0.14,0.117-0.115l0.718-4.552
								c-0.015,0.067-0.019,0.088-0.024,0.115C963.347,455.257,963.08,456.756,962.834,458.14z"/>
							<path fill="#FFFFFF" d="M962.32,159.065c-0.004-1.051,0-1.957-0.059-3.201C962.305,157.022,962.313,158.08,962.32,159.065z"
								/>
							<path fill="#FFFFFF" d="M860.141,511.986c0,0,1.366,0.102,3.416,0.253c1.022,0.087,2.225,0.142,3.498,0.282
								c1.272,0.153,2.63,0.317,3.986,0.48c2.717,0.327,5.434,0.653,7.472,0.897c1.02,0.121,1.871,0.217,2.456,0.334
								c0.589,0.101,0.925,0.158,0.925,0.158c-2.896-0.32,7.452,1.626,2.887,1.021c1.637,0.281,9.31,1.677,7.249,1.15l-4.375-0.836
								c2.859,0.379,4.584,0.563,5.854,0.676c1.259,0.161,2.063,0.264,3.101,0.396c1.036,0.146,2.302,0.356,4.479,0.789
								c1.088,0.225,2.404,0.497,4.035,0.835c0.818,0.181,1.7,0.351,2.699,0.595c1.02,0.252,2.131,0.526,3.347,0.827
								c-1.542-0.46-2.872-0.904-4.137-1.262c-1.251-0.334-2.415-0.646-3.508-0.937c-2.19-0.568-4.102-1.029-5.849-1.426
								c-3.476-0.861-6.359-1.18-9.484-1.63c-2.104-0.374-3.867-0.688-5.65-1.004c0,0-0.282-0.039-0.775-0.108
								c-0.497-0.057-1.193-0.198-2.052-0.256c-1.707-0.152-3.982-0.355-6.259-0.559c-2.271-0.204-4.541-0.407-6.244-0.561
								c-0.848-0.093-1.568-0.083-2.065-0.117c-0.499-0.022-0.785-0.034-0.785-0.034L860.141,511.986z"/>
							<path fill="#FFFFFF" d="M583.671,29.813l0.248-0.032C583.695,29.779,583.653,29.794,583.671,29.813z"/>
							<path fill="#FFFFFF" d="M584.911,29.646l-0.992,0.135C585.122,29.777,589.688,30.083,584.911,29.646z"/>
							<path fill="#FFFFFF" d="M963.898,391.428c-0.117-0.311-0.221-1.604-0.295-3.699c0,0,0.019,1.873,0.037,3.745
								c0.032,1.874,0.009,3.744,0.009,3.744C963.732,394.159,963.823,392.76,963.898,391.428z"/>
							<path fill="#FFFFFF" d="M964.303,408.531c0,0-0.09,1.174-0.226,2.935c-0.142,1.76-0.4,4.1-0.627,6.442
								c-0.117,1.172-0.233,2.343-0.344,3.441c-0.136,1.095-0.264,2.116-0.372,2.992c-0.219,1.751-0.365,2.919-0.365,2.919
								s-0.137,1.733-0.273,3.467c-0.18,1.729-0.359,3.457-0.359,3.457C962.73,427.043,963.674,418.654,964.303,408.531z"/>
							<path fill="#FFFFFF" d="M960.256,188.415c0.772-9.772,1.073-13.949,1.223-15.148c0.152-1.19,0.146,0.649,0.106,3.144
								c-0.117,5-0.457,12.687,0.348,3.757c0.695-10.766,0.448-14.521,0.388-21.102c0.028,7.533-0.316,11.109-0.471,12.617
								c-0.2,1.52-0.332,1-0.468,0.489c-0.137-0.511-0.277-1.013-0.495,0.535c-0.217,1.553-0.494,5.121-1.079,12.915
								c-0.185-2.241,0.108-7.875,0.402-14.147c0.301-6.28,0.49-13.203,0.368-18.242c0.042-2.855,0.085-3.659,0.208-3.227
								c0.092,0.439,0.324,2.098,0.404,4.244c0.305,4.253,0.206,10.397,0.496,11.738c0.031-1.529,0.057-2.833,0.079-3.955
								c-0.011-1.115-0.021-2.048-0.028-2.843c-0.01-1.592-0.068-2.617-0.141-3.422c-0.149-1.608-0.224-2.371-0.583-4.884
								c-0.077-2.35-0.323-4.679-0.564-7.009c-0.339-2.302-0.634-4.62-1.152-6.843c-0.414-2.258-1.074-4.407-1.647-6.541
								c-0.719-2.077-1.345-4.148-2.196-6.055c-1.545-3.878-3.409-7.382-5.275-10.564c-0.876-1.603-1.864-3.087-2.678-4.514
								c-0.896-1.406-1.66-2.74-2.405-3.962c-4.093-5.563-6.27-8.087-7.939-10.042c-1.68-1.95-2.939-3.271-5.606-6.502
								c-0.807-0.448,2.429,3.969,6.104,8.841c1.821,2.444,3.754,5.039,5.303,7.303c1.585,2.262,2.755,4.208,3.352,5.316
								c-0.531-0.888-1.57-2.627-1.155-2.202c0,0,0.403,0.608,1.009,1.521c0.611,0.911,1.338,2.141,2.106,3.361
								c0.731,1.228,1.409,2.464,1.943,3.385c0.48,0.932,0.801,1.554,0.801,1.554c-0.572-1.19-1.038-2.059-1.361-2.665
								c-0.314-0.608-0.474-0.958-0.508-1.098c-0.069-0.279,0.358,0.285,1.048,1.302c0.719,1.01,1.53,2.511,2.423,4.055
								c0.778,1.572,1.635,3.177,2.115,4.502c0.355,0.963,0.905,2.116,1.295,3.391c0.396,1.271,0.849,2.568,1.171,3.742
								c0.583,2.372,0.989,4.102,0.748,3.575c0,0-0.426-1.51-0.852-3.019c-0.191-0.763-0.464-1.491-0.657-2.042
								c-0.192-0.55-0.32-0.917-0.32-0.917c0.61,1.899,1.092,3.965,1.67,6.066c0.459,2.145,1.021,4.326,1.356,6.605
								c0.429,2.248,0.656,4.581,0.897,6.87c0.141,2.318,0.28,4.598,0.197,6.839c-0.16,0.471-0.285-2.904-0.454-3.391
								c0.942,9.914,0.373,19.702-0.568,35.217l-0.024-8.995c-0.021,3.076-0.219,7.142-0.508,11.854
								c-0.281,4.749-0.599,10.105-0.93,15.685c-0.592,11.181-0.938,23.237-1.127,33.092c0.12-2.187,0.2-6.125,0.343-3.76
								c0.048,2.894,0.053,5.609,0.028,7.973c-0.008,2.361-0.034,4.368-0.093,5.848c-0.113,2.96-0.321,3.809-0.545,1.133
								c0.363,5.644,0.482,16.387,0.78,27.603c0.287,11.219,0.695,22.908,1.385,30.511c0,0,0.397,4.367,0.994,10.919
								c0.573,6.544,1.347,15.27,1.979,23.986c0.668,8.72,1.166,17.437,1.483,23.98c0.136,3.271,0.249,5.997,0.328,7.906
								c0.055,1.908,0.086,2.998,0.086,2.998c-0.021-2.613-0.044-5.409-0.067-8.293c0.365-3.167,0.495-5.611,0.627-5.87
								c0.131-0.258,0.292,1.669,0.514,7.238c-0.092-5.466-0.331-7.156-0.505-9.53c-0.089-1.188-0.168-2.546-0.228-4.633
								c-0.081-2.089-0.155-4.907-0.214-9.014c0.2,3.219,0.488,5.234,0.71,4.477c0.219-0.758,0.401-4.29,0.249-12.171
								c-1.643-39.403-5.407-65.413-6.416-102.588c0.242-0.686,0.304-8.324,0.594-17.579c0.107-4.626,0.364-9.658,0.575-14.42
								c0.313-4.759,0.562-9.266,0.884-12.792c0.036,2.713-0.026,6.721-0.198,11.406c-0.064,2.341-0.133,4.855-0.205,7.467
								c-0.092,2.612-0.134,5.319-0.173,8.052c0.077-3.427,0.288-8.094,0.518-12.998c0.284-4.899,0.586-10.058,0.948-14.409
								L960.256,188.415z"/>
							<path fill="#FFFFFF" d="M960.911,280.685c-0.005-0.99-0.009-2.014-0.014-3.065
								C960.876,278.18,960.876,279.095,960.911,280.685z"/>
							<path fill="#FFFFFF" d="M959.437,222.774c0.015,0.138,0.03,0.09,0.049,0.139c0.018-1.146,0.035-2.293,0.054-3.467
								C959.502,220.62,959.462,221.944,959.437,222.774z"/>
							<path fill="#FFFFFF" d="M965.358,382.264c0.094,2.34,0.038,4.069,0.083,6.409c0.021-1.439,0.047-3.246,0.072-4.984
								C965.491,382.03,965.445,381.241,965.358,382.264z"/>
							<path fill="#FFFFFF" d="M964.2,390.093l-0.147-1.255c-0.06,1.001-0.102,1.704-0.154,2.59
								C963.995,391.704,964.098,391.417,964.2,390.093z"/>
							<path fill="#FFFFFF" d="M917.069,53.555c0,0-0.501-0.763-1.002-1.526c-0.538-0.728-1.077-1.456-1.077-1.456
								C916.266,52.336,916.754,53.158,917.069,53.555z"/>
							<path fill="#FFFFFF" d="M962.162,145.825c0.086,0.809,0.161,1.522,0.229,2.154c0.048,0.638,0.09,1.192,0.126,1.678
								c0.079,0.971,0.15,1.665,0.216,2.188c0.142,1.044,0.213,1.415,0.321,1.949c0.162,1.079,0.572,2.808,0.277,12.254
								c0,0,0.054-1.385,0.107-2.771c0.068-1.388,0.07-2.765,0.07-2.765c0.128,6.753-0.476,16.148-1.279,25.964
								c-0.833,9.824-1.436,20.116-1.727,28.367c-0.242-1.876-0.617,10.013-1.018,8.071c-0.126,11.31,0.088,22.485,0.644,28.283
								c-0.04,6.985,0.631,17.57,0.769,26.423c0.151-3.746,1.34,12.57,0.298-8.961c0.088,1.739,0.118,0.645,0.207,2.363
								c-0.041-13.891-0.778-19.452-0.859-31.444c0.129-3.585,0.242-0.653,0.335,2.327c0.098,2.98,0.224,6.006,0.229,2.627
								c-0.184-7.479-0.079-19.227,0.247-28.984c0.319-9.757,0.759-17.521,0.215-17.059c0.67-10.908,1.096-12.346,1.511-15.559
								c0.115-8.577,1.571-24.314,0.246-37.557c-0.599-6.624-1.901-12.572-3.252-16.741c-0.358-1.035-0.684-1.972-0.969-2.796
								c-0.306-0.815-0.646-1.486-0.904-2.041c-0.533-1.103-0.895-1.676-1.047-1.592c0.275,0.683,0.571,1.42,0.886,2.203
								c0.157,0.391,0.319,0.794,0.485,1.207c0.14,0.424,0.282,0.859,0.428,1.303c0.291,0.889,0.595,1.815,0.907,2.771
								c0.291,0.964,0.527,1.98,0.808,3.005c0.137,0.514,0.275,1.033,0.414,1.556c0.112,0.532,0.226,1.068,0.34,1.607
								c0.219,1.081,0.474,2.166,0.678,3.269c0.356,2.22,0.769,4.446,1.015,6.654L962.162,145.825z"/>
							<path fill="#FFFFFF" d="M965.565,359.467c0.003-0.835,0.007-1.949,0.01-2.643
								C965.572,357.605,965.568,358.577,965.565,359.467z"/>
							<path fill="#FFFFFF" d="M922.979,510.025c0,0,0.258-0.069,0.646-0.173c0.189-0.049,0.412-0.106,0.649-0.167
								c0.117-0.029,0.238-0.059,0.361-0.09l0.342-0.146c0.452-0.199,0.9-0.351,1.218-0.505c0.305-0.176,0.509-0.293,0.509-0.293
								c4.833-1.378,8.28-5.906,10.775-10.544c1.258-2.331,2.306-4.727,3.249-7.123c0.938-2.522,1.839-4.95,2.729-7.348
								c3.38-9.661,6.267-19.004,9.206-32.534c0.572-2.042-0.068,1.258-0.393,2.933c2.138-9.499,4.253-21.506,5.558-32.986
								c1.346-11.473,1.951-22.389,2.104-29.541c0.388-6.234,0.945-22.697,1.108-16.46c-0.051-3.059-0.073-6.551-0.027-10.066
								c0.357-0.928,0.011,7.866,0.28,8.073c0.053-2.787,0.128-3.873,0.033-4.515c0.113,2.346,0.402,1.133,0.629,2.067
								c0.222,0.934,0.449,4.025,0.086,14.958c-0.58,4.211-0.377,0.43-0.314-3.796c0.086-4.225,0.146-8.883-0.325-6.392
								c-0.194,7.244,0.151,6.412,0.237,7.035c-0.35,9.229-0.596,8.972-0.751,8.473c0.08,1.775-0.186,5.547-0.438,9.485
								c-0.237,3.942-0.636,8.029-0.617,10.478c-1.771,17.789-0.498-1.025-1.729,10.573l-0.027,6.771c0,0-0.041,0.3-0.114,0.826
								c-0.066,0.526-0.181,1.275-0.335,2.17c-0.298,1.793-0.693,4.183-1.09,6.572c-0.4,2.389-0.91,4.753-1.243,6.536
								c-0.348,1.78-0.579,2.968-0.579,2.968c-1.392,6.854-1.957,10.06-2.188,11.48c-0.197,1.431,0.077,1.113,0.327,0.916
								c0.25-0.196,0.476-0.271,0.176,1.658c-0.15,0.965-0.428,2.433-0.908,4.636c-0.552,2.182-1.31,5.1-2.38,8.975
								c0.201-1.043,0.063-1.069-0.298-0.294c-0.393,0.765-1.049,2.319-1.882,4.44c-0.407,1.063-0.868,2.265-1.371,3.579
								c-0.507,1.312-1.114,2.714-1.712,4.214c-0.599,1.5-1.23,3.083-1.885,4.724c-0.665,1.581-1.362,3.19-2.132,4.763
								c0.895-1.908,1.837-4.262,2.798-7.122c0.952-2.815,2.111-5.847,3.039-9.046c0.984-3.18,2.031-6.421,2.88-9.607
								c0.457-1.583,0.905-3.139,1.34-4.643c0.408-1.514,0.803-2.976,1.178-4.362c-2.3,7.771-0.958,2.357,0.611-3.99
								c0.745-3.186,1.431-6.64,1.848-8.771c0.401-2.137,0.41-2.98-0.159-0.952c-0.68,3.939-1.66,9.191-3.075,14.641
								c-0.631,2.746-1.478,5.507-2.272,8.227c-0.411,1.354-0.777,2.711-1.222,4.01c-0.447,1.297-0.885,2.566-1.307,3.792
								l0.983-3.254c-0.882,2.612-1.644,5.086-2.391,7.549c-0.814,2.438-1.624,4.86-2.475,7.406
								c-0.847,2.545-1.807,5.008-3.076,7.593c-1.276,2.541-2.88,5.173-5.056,7.414c-0.263,0.28-0.507,0.539-0.732,0.778
								c-0.237,0.213-0.456,0.408-0.656,0.587c-0.391,0.379-0.743,0.613-1.023,0.817c-0.553,0.428-0.888,0.563-1.04,0.617
								c-0.309,0.092,0.063-0.252,0.404-0.609c-1.869,1.415-3.826,2.158-5.392,2.433c-0.393,0.061-0.74,0.144-1.065,0.182
								c-0.337,0.009-0.629,0.017-0.869,0.023C923.252,510.08,922.981,510.072,922.979,510.025z M933.49,505.189
								c0,0,1.416-1.421,2.656-3.23c0.624-0.894,1.21-1.851,1.645-2.577c0.417-0.75,0.694-1.25,0.694-1.25
								C937.338,499.978,935.644,502.925,933.49,505.189z"/>
							<path fill="#FFFFFF" d="M41.211,90.183c0.029-1.032,0.063-2.221,0.09-3.158C41.258,87.715,41.228,88.911,41.211,90.183z"/>
							<path fill="#FFFFFF" d="M546.719,530.506l-6.009,0.21C543.057,530.634,544.979,530.566,546.719,530.506z"/>
							<path fill="#FFFFFF" d="M411.773,534.664l-8.794,0.06C406.449,534.766,409.169,534.729,411.773,534.664z"/>
							<path fill="#FFFFFF" d="M43.428,161.984l0.015,0.294c0.054,0.491,0.095,0.865,0.151,1.383L43.428,161.984z"/>
							<path fill="#FFFFFF" d="M141.962,515.081c-1.322-0.208-2.808-0.425-4.844-0.684
								C137.354,514.506,139.166,514.751,141.962,515.081z"/>
							<path fill="#FFFFFF" d="M413.392,534.653c-0.226-0.011-0.355-0.017-0.533-0.024c-0.342,0.011-0.718,0.023-1.086,0.035
								L413.392,534.653z"/>
							<path fill="#FFFFFF" d="M606.254,529.631c1.285-0.135,2.455-0.257,3.836-0.401
								C608.279,529.396,607.171,529.519,606.254,529.631z"/>
							<path fill="#FFFFFF" d="M597.62,527.823c1.381-0.115,2.7-0.225,3.729-0.311L597.62,527.823z"/>
							<path fill="#FFFFFF" d="M803.992,509.004c0,0,1.994-0.113,3.989-0.227c0.997-0.057,1.995-0.114,2.743-0.156
								c0.748-0.041,1.246-0.046,1.246-0.046C808.048,508.702,805.705,508.884,803.992,509.004z"/>
							<path fill="#FFFFFF" d="M619.029,526.719c0.467-0.077,0.933-0.154,1.243-0.219
								C619.158,526.619,618.631,526.713,619.029,526.719z"/>
							<path fill="#FFFFFF" d="M45.312,38.82c-0.01,0.184-0.021,0.381-0.027,0.49l0.087,0.21L45.312,38.82z"/>
							<path fill="#FFFFFF" d="M45.651,19.05c0.121-1.166,0.245-2.356,0.37-3.553l0.217-1.804c0.095-0.691,0.19-1.381,0.285-2.069
								c-0.063,0.421-0.125,0.841-0.188,1.257c-0.045,0.33-0.09,0.658-0.134,0.982c-0.079,0.647-0.155,1.281-0.229,1.891
								C45.833,16.973,45.728,18.096,45.651,19.05z"/>
							<path fill="#FFFFFF" d="M37.904,484.177c0.352-2.112,1.039-7.087,0.926-4.742C39.095,475.346,38.64,475.57,37.904,484.177z"
								/>
							<path fill="#FFFFFF" d="M49.17,78.315c-0.097-1.284-0.152-2.88-0.206-4.483C49.025,76.813,49.091,79.426,49.17,78.315z"/>
							<path fill="#FFFFFF" d="M48.965,73.832c-0.031-1.474-0.064-3.049-0.092-4.367C48.892,71,48.917,72.473,48.965,73.832z"/>
							<path fill="#FFFFFF" d="M80.283,500.014c0.521,0.117,1.334,0.254,2.442,0.392C82.413,500.255,81.53,500.134,80.283,500.014z"
								/>
							<path fill="#FFFFFF" d="M48.561,4.744c0.027-0.097,0.129-0.308,0.304-0.608c0.147-0.314,0.484-0.667,0.967-0.966
								c0.979-0.601,2.435-0.838,4.082-0.761c1.654,0.071,3.54,0.496,5.351,1.037c0.452,0.134,0.906,0.27,1.354,0.418
								c0.348,0.114,0.69,0.226,1.025,0.335c0.647,0.222,1.263,0.433,1.827,0.625c2.236,0.789,3.623,1.298,2.957,0.957
								c-0.337-0.167-1.185-0.548-2.743-1.177c-0.793-0.316-1.715-0.679-2.95-1.119c-1.592-0.547-3.462-1.175-5.625-1.51
								c0.299-0.104,1.874,0.005,4.239,0.701c0.295,0.087,0.603,0.179,0.92,0.273c0.293,0.095,0.596,0.193,0.908,0.294
								c0.485,0.168,1,0.347,1.536,0.532c1.062,0.383,2.192,0.819,3.352,1.285c4.635,1.87,9.764,4.171,12.967,5.421
								c-4.544-2.077,2.445,0.594,1.134-0.206c-3.175-1.236-6.95-2.694-12.237-4.951c-1.174-0.637,0.295-0.173,2.799,0.81
								c2.505,0.981,6.028,2.478,9.077,3.814c-7.434-3.477,9.785,3.549-0.815-1.16C73.23,6.428,67.922,4.098,62.491,2.16
								L61.46,1.806c-0.495-0.174-1.047-0.348-1.555-0.501c-1.033-0.328-2.065-0.592-3.083-0.814
								c-2.039-0.42-4.002-0.557-5.771-0.203c-0.884,0.178-1.748,0.456-2.532,0.954c-0.39,0.251-0.749,0.544-1.039,0.864
								c-0.257,0.346-0.506,0.695-0.715,1.067c-0.934,1.411-1.475,3.231-1.848,5.113c-0.176,0.944-0.333,1.893-0.477,2.835
								l-0.191,1.395l-0.11,0.927c-0.138,1.228-0.254,2.434-0.362,3.625c-0.206,2.38-0.365,4.705-0.494,6.995
								c-0.251,4.58-0.382,9.024-0.43,13.462c0.377-7.179,0.856-14.771,1.71-22.124c0.114-0.923,0.223-1.837,0.356-2.757
								c0.173-1.262,0.413-2.619,0.648-3.89c0.147-0.627,0.294-1.252,0.44-1.874c0.203-0.573,0.362-1.187,0.599-1.718
								c0.259-0.508,0.508-1.024,0.796-1.489c0.132-0.242,0.283-0.472,0.447-0.693c0.141-0.235,0.349-0.429,0.552-0.624
								c0.914-0.742,2.026-1.077,3.097-1.23c1.084-0.151,2.194-0.13,3.313,0.018c2.216,0.287,4.502,1.04,6.428,1.741
								c0,0-0.419-0.107-1.047-0.268c-0.661-0.161-1.531-0.365-2.389-0.522c-0.858-0.15-1.702-0.275-2.319-0.311
								c-0.311-0.03-0.565-0.042-0.742-0.043c-0.177-0.005-0.278-0.008-0.278-0.008c-1.11-0.141-2.175-0.167-3.182-0.001
								c-0.99,0.16-2.018,0.508-2.738,1.208c-0.648,0.718-1.049,1.547-1.471,2.389c-0.389,0.862-0.676,1.816-0.896,2.794
								c-0.255,0.959-0.401,1.966-0.59,2.938c-0.13,0.855-0.258,1.702-0.385,2.542c-0.188,1.378-0.35,2.729-0.495,4.075
								c-0.573,5.382-0.933,10.706-1.398,17.242c0,0,0.527-7.331,1.347-14.687c0.204-1.839,0.43-3.683,0.667-5.417
								c0.062-0.434,0.122-0.861,0.181-1.279c0.071-0.465,0.142-0.921,0.21-1.364c0.16-1.104,0.371-2.118,0.541-3.063
								c0.406-1.859,0.855-3.332,1.34-4.185c0.224-0.446,0.418-0.776,0.546-1.009c0.147-0.22,0.226-0.337,0.226-0.337
								c0.278-0.443,0.719-0.773,1.167-1c0.447-0.223,0.889-0.38,1.315-0.466c0.848-0.191,1.616-0.202,2.288-0.179
								c1.345,0.055,2.308,0.3,2.896,0.436c1.183,0.34,0.911,0.322-0.323,0.127C55.088,2.4,54.23,2.3,53.211,2.3
								c-1.01,0.021-2.22,0.084-3.416,0.739c-0.29,0.17-0.582,0.378-0.799,0.645c-0.223,0.262-0.386,0.57-0.553,0.88
								c-0.313,0.632-0.628,1.291-0.869,2.042c-0.496,1.501-0.763,3.267-1.052,5.018c0.29-1.726,0.593-3.377,0.996-4.58
								C47.885,5.812,48.367,5.076,48.561,4.744z"/>
							<path fill="#FFFFFF" d="M49.819,26.363l0.057-0.485c0.018-0.426,0.04-0.954,0.051-1.226L49.819,26.363z"/>
							<path fill="#FFFFFF" d="M802.033,498.067l2.526-0.311C802.447,497.938,801.798,498.028,802.033,498.067z"/>
							<path fill="#FFFFFF" d="M46.013,43.559l0.001-0.02C46.01,43.736,46.007,43.784,46.013,43.559z"/>
							<path fill="#FFFFFF" d="M739.393,503.47c0.088-0.022,0.175-0.045,0.328-0.084C739.498,503.428,739.5,503.443,739.393,503.47z
								"/>
							<path fill="#FFFFFF" d="M724.219,517.134c0.118,0.01,0.154,0.029,0.428,0.021
								C725.966,516.958,725.321,517.013,724.219,517.134z"/>
							<path fill="#FFFFFF" d="M739.352,503.525c-0.002-0.017-0.045-0.028,0.041-0.056
								C739.348,503.493,739.241,503.522,739.352,503.525z"/>
							<path fill="#FFFFFF" d="M436.896,524.974c0,0,0.958,0.109,2.467,0.223C439.949,525.154,439.364,525.086,436.896,524.974z"/>
							<path fill="#FFFFFF" d="M496.831,525.499c0.381,0.013,0.606,0.021,1.096,0.038L496.831,525.499z"/>
							<path fill="#FFFFFF" d="M33.29,504.008c-0.004,0.033-0.007,0.065-0.009,0.078c5.115,0.584,8.944,1.021,12.18,1.391
								c-3.717-0.447-7.721-0.912-12.179-1.392C33.284,504.062,33.287,504.035,33.29,504.008z"/>
							<path fill="#FFFFFF" d="M739.721,503.386c0.617-0.128,1.5-0.289,2.959-0.528
								C741.072,503.119,740.224,503.275,739.721,503.386z"/>
							<path fill="#FFFFFF" d="M345.432,525.152c0.64,0.009,1.24,0.018,1.846,0.025c-0.367-0.025-0.734-0.052-1.094-0.078
								L345.432,525.152z"/>
							<path fill="#FFFFFF" d="M314.182,523.205c1.07,0.003,1.563-0.032,2.165-0.052c-11.166-0.444-31.642-1.92-34.106-1.489
								c3.787,0.214,23.391,1.731,20.027,1.869c7.787,0.303,19.257,1.47,23.458,1.511c-12.76-0.931-1.355-0.54,7.28-0.346
								c7.836,0.533-1.499,0.396,5.252,0.817l18.156,0.78l-15.809-0.812l4.828-0.332c-0.586-0.009-0.988-0.014-1.615-0.022
								c-13.38-0.492-13.938-0.723-14.577-0.943c-0.32-0.11-0.66-0.219-2.632-0.356C324.635,523.692,321.028,523.55,314.182,523.205
								z"/>
							<path fill="#FFFFFF" d="M316.347,523.153c1.674,0.065,3.144,0.111,4.289,0.12
								C318.114,523.131,317.132,523.129,316.347,523.153z"/>
							<path fill="#FFFFFF" d="M207.337,514.403c-1.373-0.089-2.86-0.186-4.729-0.307
								C203.499,514.154,205.564,514.289,207.337,514.403z"/>
							<path fill="#FFFFFF" d="M959.344,447.356c-0.084,0.223-1.063,4.107-1.949,7.912c-0.418,1.909-0.9,3.777-1.229,5.162
								c-0.323,1.388-0.49,2.293-0.37,2.252c1.23-4.447,2.222-8.989,3.265-13.542c0,0,0.087-0.443,0.149-0.891
								C959.276,447.803,959.344,447.356,959.344,447.356z"/>
							<path fill="#FFFFFF" d="M53.362,369.485c-0.191,1.726-0.382,3.459-0.574,5.191c-0.016,0.375-0.032,0.736-0.043,1.017
								C52.922,374.644,53.215,371.216,53.362,369.485z"/>
							<path fill="#FFFFFF" d="M297.441,523.445c2.86,0.106,4.135,0.115,4.826,0.088
								C300.416,523.456,298.706,523.409,297.441,523.445z"/>
							<path fill="#FFFFFF" d="M54.479,368.62c0.36-2.188,0.897-5.411,1.109-5.854c0.492-4.503,0.611-7.688,1.029-12.281
								C56.119,355.665,55.427,361.646,54.479,368.62z"/>
							<path fill="#FFFFFF" d="M56.65,350.112c-0.011,0.129-0.022,0.258-0.033,0.373C56.629,350.356,56.639,350.241,56.65,350.112z"
								/>
							<path fill="#FFFFFF" d="M961.182,438.285c0.18-1.326,0.364-2.693,0.555-4.101l-0.223,2.145
								c0.3-1.765,0.598-3.525,0.896-5.283l0.77-5.295c0.146-1.283,0.305-2.674,0.5-4.383c-0.071,0.689-0.099,1.228-0.094,1.563
								c0.176-1.149,0.313-2.276,0.445-3.404c0.138-2.131,0.327-5.053,0.54-8.332c0.151-3.284,0.43-6.915,0.543-10.483
								c0.319-7.128,0.411-13.963,0.4-17.023c0.063-8.097,0.067-18.003,0.052-24.222c0.037,5.763,0.009,13.409,0.283,11.116
								c0.333-11.692,1.114-17.407-0.067-37.608l0.303,11.854c0.001,0-0.358-6.659-0.811-13.313
								c-0.461-6.654-0.921-13.309-0.921-13.309c0.05-9.353,0.968,13.284,1.369,16.975c-1.065-20.712-0.628-38.01-1.794-47.598
								c0.445-1.374,1.138-3.677,0.644-17.289c-0.251,9.836-0.607-8.154-0.957-0.08c-0.438-4.699-0.222-15.206-0.594-15.982
								l0.229,1.271c0.172-11.646,0.049-19.365-0.131-25.432c-0.217-6.066-0.466-10.477-0.534-15.473
								c0.136-3.491,0.262-6.747,0.381-9.814c0.183-3.067,0.354-5.946,0.519-8.688c0.4-5.476,0.832-10.376,1.221-15.111
								c0.738-9.456,1.464-18.279,0.957-29.476c0.117-0.444,0.391-2.208,0.396-4.988c-0.031-1.385,0.014-3.043-0.203-4.89
								c-0.091-0.926-0.198-1.906-0.324-2.934c-0.131-1.027-0.364-2.087-0.575-3.198c-0.552-2.03-2.15-7.977-4.5-13.315
								c-2.281-5.369-5.318-10.065-6.089-10.798c0.486,0.871,0.963,1.665,1.366,2.42c0.396,0.758,0.761,1.458,1.099,2.106
								c0.711,1.281,1.18,2.412,1.657,3.354c0.232,0.474,0.444,0.91,0.643,1.313c0.179,0.412,0.344,0.792,0.497,1.146
								c0.323,0.704,0.6,1.308,0.855,1.866c0.557,1.102,0.936,2.062,1.418,3.295c0.233,0.621,0.492,1.309,0.797,2.122
								c0.267,0.827,0.523,1.798,0.841,2.955c0.38,1.963,0.422,3.019,0.462,3.635c0.031,0.617,0.001,0.807-0.004,1.085
								c-0.005,0.277,0.015,0.643,0.145,1.605c0.098,0.969,0.257,2.545,0.529,5.246c-0.089-1.092-0.307-2.513-0.531-4.197
								c-0.238-1.681-0.658-3.589-1.08-5.674c-0.972-4.139-2.471-8.852-4.443-13.391c-1.993-4.529-4.53-8.865-6.915-12.549
								c-2.387-3.686-4.541-6.773-5.894-8.802c0,0,0.529,0.677,1.059,1.354c0.516,0.683,1.032,1.367,1.032,1.367
								c-4.407-6.438-7.039-10.283-10.4-15.194c-1.709-2.459-3.602-5.185-6.001-8.638c-2.374-3.471-5.254-7.705-8.429-13.475
								c0,0-1.461-2.746-2.921-5.492c-0.37-0.675-0.739-1.351-1.086-1.984c-0.362-0.619-0.7-1.196-0.99-1.69
								c-0.286-0.497-0.532-0.904-0.719-1.178c-0.181-0.278-0.284-0.437-0.284-0.437c0.353,0.469,0.444,0.493,0.651,0.734
								c-2.497-4.321-4.692-6.856-6.539-8.698c-0.909-0.935-1.807-1.619-2.565-2.323c-0.782-0.682-1.587-1.203-2.358-1.793
								c-0.764-0.603-1.632-1.088-2.577-1.672c-0.935-0.603-2.038-1.16-3.345-1.813c-2.624-1.279-6.146-2.797-11.479-4.476
								c1.648,0.515,0.641,0.113,2.305,0.668c-5.972-2.216-12.105-4.137-17.978-5.455c-1.464-0.346-2.895-0.722-4.313-1.016
								c-1.424-0.269-2.817-0.531-4.174-0.788c-2.718-0.487-5.261-1.067-7.651-1.386c-2.855-0.727-2.495-0.783-0.957-0.623
								c0.768,0.091,1.831,0.217,2.929,0.347c1.094,0.16,2.217,0.354,3.127,0.458c-10.997-2.349-22.643-3.717-33.247-4.247
								c-2.652-0.118-5.242-0.164-7.737-0.235c-1.248-0.025-2.473-0.076-3.673-0.075c-1.201,0.012-2.377,0.023-3.523,0.034
								c-2.292,0.03-4.471,0.058-6.512,0.084c-2.04,0.091-3.943,0.176-5.686,0.254c0,0-0.904-0.013-2.261-0.032
								c-1.356-0.029-3.166-0.045-4.976-0.009c-3.62,0.039-7.24,0.077-7.24,0.077c2.145-0.128,4.407-0.263,6.557-0.391
								c1.074-0.076,2.12-0.149,3.107-0.218c0.988-0.054,1.918-0.104,2.761-0.15c3.369-0.202,5.343-0.408,4.03-0.544
								c-7.979,0.124-6.429,0.336-17.708,0.596c1.911-0.364,6.634-0.813,11.941-1.304c-11.694,0.029-12.992,0.406-13.409,0.644
								c-0.42,0.237,0.04,0.376-8.152,0.332c-7.328,0.486-11.548,1.218-12.317,1.663c0,0-3.321,0.161-6.642,0.322
								c-3.323,0.144-6.643,0.365-6.643,0.365c-1.431,0.575-17.754,2.253-28.434,3.565c-1.282,0.35,8.661-0.478,12.695-1.084
								c-0.761,0.435-12.111,1.869-19.426,2.705c-1.396-0.339-13.361,1.09-23.93,2.26c-10.568,1.171-19.741,2.022-15.461,1.03
								c-16.447,1.753-36.306,3.444-54.834,3.595c-2.315,0.019-4.608,0.037-6.871,0.056c-2.263-0.04-4.494-0.08-6.685-0.118
								c-1.096-0.019-2.181-0.038-3.255-0.057c-1.073-0.048-2.136-0.097-3.186-0.144c-2.1-0.1-4.149-0.197-6.14-0.292
								c-3.979-0.216-7.713-0.594-11.144-0.838c-3.424-0.323-6.528-0.731-9.257-1.015c-1.79-0.262-4.027-0.708-6.248-1.139
								c-2.22-0.429-4.424-0.854-6.135-1.184c-3.395-0.804-4.804-1.248-0.45-0.535c-13.105-2.574-22.861-5.324-32.588-7.88
								c-4.861-1.299-9.713-2.553-14.948-3.843c-5.251-1.2-10.859-2.571-17.338-3.507c-1.065-0.202,1.872,0.173,4.944,0.69
								c3.062,0.582,6.286,1.153,5.86,0.924c-2.109-0.389-4.17-0.769-6.214-1.146c-2.049-0.339-4.09-0.607-6.136-0.932
								c-2.041-0.359-4.12-0.544-6.236-0.781c-2.116-0.238-4.275-0.5-6.522-0.612c-8.965-0.682-19.203-0.832-32.519,0.313
								c4.479-0.396,5.78-0.581,6.398-0.738c0.473,0.089-10.912,0.985-17.767,1.947c-3.875,0.305,5.139-0.634,2.957-0.539
								c-25.734,2.457-48.137,6.836-70.512,11.007c-5.589,1.07-11.197,2.068-16.844,3.1c-5.639,1.068-11.361,1.97-17.171,2.905
								c-2.909,0.446-5.826,0.986-8.801,1.358c-2.974,0.382-5.977,0.767-9.015,1.157c-1.52,0.192-3.048,0.385-4.585,0.579
								c-1.537,0.2-3.084,0.396-4.653,0.502c-3.132,0.257-6.306,0.517-9.526,0.781c7.36-0.59,12.419-1.119,15.619-1.785
								c3.209-0.585,4.602-0.984,4.664-1.125c0,0-3.58,0.433-7.16,0.866c-1.787,0.249-3.589,0.351-4.937,0.468
								c-1.349,0.108-2.248,0.181-2.248,0.181c-2.757,0.386-6.839,0.798-11.36,1.235c-2.26,0.229-4.641,0.288-7.016,0.448
								c-2.376,0.123-4.752,0.313-7.018,0.403c-1.117-0.107-5.528-0.183-1.033-0.392c-14.259-0.01-25.378-0.136-37.315-0.321
								c-11.935-0.209-24.672-0.722-42.046-2.198c0,0,10.557,0.435,21.114,0.87c5.282,0.165,10.564,0.331,14.525,0.455
								c3.962,0.072,6.604,0.121,6.604,0.121s-2.604-0.242-5.208-0.483c-2.604-0.227-5.203-0.521-5.203-0.522
								c0,0,1.16,0.035,2.9,0.086c1.741,0.031,4.062,0.072,6.383,0.113c2.321,0.033,4.64,0.094,6.38,0.095
								c1.74,0.001,2.9,0.002,2.9,0.002c-2.765-0.164-5.44-0.3-7.92-0.413c-2.479-0.103-4.765-0.16-6.746-0.208
								c-3.96-0.125-6.704-0.222-7.354-0.504c2.345,0.006,7.974,0.402,8.166,0.125c-10.605-0.815-11.462-0.495-19.449-0.961
								c10.547,0.233,26.121,1.038,41.829,1.22c15.707,0.195,31.539-0.252,42.547-1.513c3.466-0.36-2.953,0.481-3.563,0.632
								c4.504-0.382,8.115-0.606,12.019-0.871c3.897-0.335,8.074-0.873,13.721-1.629c6.967-1.272-5.396,0.346-10.972,0.98
								c0.729-0.458,3.532-0.777,9.725-1.587c0.352,0.08,2.657-0.128,6.044-0.492c3.38-0.439,7.834-1.105,12.499-1.778
								c4.667-0.644,9.531-1.442,13.734-2.101c4.204-0.65,7.748-1.158,9.764-1.349c32.985-5.95-5.517-0.353,26.779-5.746l9.74-1.093
								c4.689-0.825,9.723-1.711,14.966-2.634c2.617-0.489,5.321-0.817,8.046-1.224c2.73-0.386,5.497-0.776,8.282-1.17
								c11.148-1.529,22.739-2.511,33.607-2.625l-4.577,0.116c-3.038,0.311,2.001,0.339,4.228,0.418
								c16.361-0.189,31.241,1.079,40.885,3.709c9.256,1.567,21.253,4.953,33.454,8.186c12.177,3.296,24.784,5.611,35.172,6.898
								c1.374,0.362,0.365,0.365-2.063,0.154c-2.421-0.255-6.233-0.877-10.5-1.53c-2.122-0.381-4.338-0.866-6.553-1.305
								c-2.213-0.452-4.423-0.868-6.477-1.392c-4.124-0.946-7.723-1.899-9.867-2.363c0,0,1.155,0.318,2.889,0.796
								c0.867,0.238,1.878,0.516,2.962,0.814c1.085,0.275,2.243,0.57,3.401,0.864c2.309,0.622,4.644,1.117,6.395,1.488
								c1.75,0.378,2.916,0.63,2.916,0.63c-2.881-0.638-5.344-1.096-7.495-1.601c-2.155-0.495-4.021-0.923-5.743-1.318
								c-3.446-0.821-6.338-1.427-9.823-2.224c8.091,2.394,13.511,3.739,18.886,4.734c2.687,0.488,5.346,0.971,8.312,1.509
								c2.986,0.418,6.27,0.919,10.192,1.519c-1.256,0.041,0.829,0.433,8.106,1.376l2.118-0.224
								c0.131,0.052,0.934,0.161,3.185,0.396c0,0,1.762,0.141,4.404,0.352c2.638,0.264,6.177,0.36,9.707,0.535
								c3.529,0.208,7.07,0.196,9.723,0.246c2.652,0.036,4.421,0.059,4.421,0.059c-3-0.172-4.569-0.375-6.3-0.549
								c-1.729-0.195-3.627-0.274-7.262-0.515c1.292,0.215,0.396,0.25-1.738,0.18c-2.131-0.09-5.508-0.183-9.136-0.569
								c6.389,0.259-7.058-0.91-6.872-1.158c3.636,0.315,7.473,0.716,11.349,0.986c1.941,0.104,3.89,0.208,5.82,0.312
								c1.932,0.104,3.845,0.218,5.727,0.231c1.88,0.037,3.721,0.073,5.499,0.108c1.777,0.045,3.493,0.063,5.127,0.027
								c3.265-0.047,6.188-0.09,8.588-0.125l3.132,0.362c13.981-0.203,28.728-1.562,38.212-2.278l-2.968,0.488
								c16.783-1.284,33.249-3.492,48.199-4.759c14.903-2.246,33.749-4.749,46.042-6.304c1.64-0.268,5.221-0.658,9.966-0.932
								c2.371-0.144,5.023-0.323,7.866-0.455c2.844-0.11,5.872-0.228,8.981-0.349c3.114-0.065,6.311-0.133,9.487-0.2
								c3.174-0.091,6.34-0.018,9.378-0.056c3.037-0.051,5.958,0.026,8.656,0.043c2.698,0.031,5.173-0.032,7.326,0.018
								c0.577,0.058-2.379-0.015-6.208,0.063c-1.913,0.02-4.046,0.042-6.066,0.062c-2.017,0.076-3.922,0.148-5.385,0.204
								c5.697-0.052,10.823,0.025,14.97-0.003c4.147,0.092,7.316,0.266,9.085,0.66c-6.398-0.41-9.515-0.567-10.768-0.521
								c-1.253,0.01-0.643,0.097,0.405,0.206c1.048,0.1,2.534,0.246,3.037,0.374c0.503,0.138,0.024,0.111-2.855,0.104
								c11.97,0.37,24.575,1.545,30.441,2.197c-9.646-1.234-7.913-1.224-6.207-1.186c0.854,0.019,1.699,0.045,1.105-0.073
								c-0.297-0.06-0.953-0.155-2.148-0.305c-1.197-0.133-2.938-0.253-5.395-0.446c7.637,0.331,16.637,1.469,25.947,3.039
								c2.313,0.482,4.648,0.97,6.99,1.459l3.514,0.752l3.474,0.923c2.311,0.625,4.611,1.249,6.888,1.865
								c2.241,0.74,4.459,1.473,6.637,2.192c-0.128,0.098,0.337,0.349,1.64,0.85c1.306,0.489,3.44,1.271,6.648,2.6
								c0,0,0.334,0.108,0.836,0.269c0.501,0.167,1.173,0.364,1.839,0.621c1.337,0.492,2.674,0.984,2.674,0.984
								c3.984,2.048,0.079,0.12-2.856-0.979c-1.466-0.562-2.681-0.949-2.509-0.829c0.168,0.141,1.737,0.732,5.747,2.647
								c4.174,1.828,9.412,4.738,14.016,9.424c1.193,1.123,2.206,2.441,3.251,3.743c0.948,1.346,1.903,2.708,2.71,4.112
								c1.659,2.788,3.063,5.629,4.362,8.295c1.31,2.667,2.544,5.154,3.872,7.404c0.623,1.146,1.327,2.217,1.977,3.256
								c0.638,1.043,1.316,2.017,1.956,2.939c2.553,3.691,4.836,6.44,6.188,7.765c3.787,5.365-0.156,0.487-3.379-3.787
								c-1.617-2.135-3.022-4.141-3.412-4.572c-0.197-0.214-0.138-0.035,0.291,0.714c0.222,0.372,0.529,0.89,0.938,1.576
								c0.439,0.672,0.987,1.51,1.657,2.535c-0.858-1.136-1.777-2.323-2.625-3.581c-0.877-1.246-1.743-2.537-2.551-3.859
								c-1.668-2.628-3.116-5.336-4.429-7.952c-1.298-2.611-2.533-5.123-3.643-7.127c-0.585-1.005-1.083-1.895-1.572-2.622
								c-0.494-0.726-0.913-1.3-1.24-1.691c1.64,2.536,2.402,4.096,2.88,5.056c0.449,0.964,0.57,1.354,0.628,1.631
								c0.115,0.55-0.02,0.667,1.606,3.964c0,0,0.371,0.696,0.928,1.74c0.573,1.018,1.299,2.399,2.118,3.708
								c0.398,0.662,0.798,1.323,1.172,1.943c0.398,0.608,0.77,1.176,1.088,1.663c0.64,0.971,1.066,1.618,1.066,1.618l-1.42-2.346
								c2.799,4.376,6.348,9.213,10.358,14.389c3.999,5.179,8.46,10.725,12.74,16.752c2.108,3.043,4.232,6.154,6.11,9.475
								c0.492,0.813,0.958,1.645,1.395,2.499l1.334,2.542c0.793,1.75,1.678,3.456,2.331,5.257c2.88,7.1,4.579,14.466,5.505,21.419
								c1.752,11.773,1.772,21.793,1.443,32.212c-0.353,10.454-1.31,21.246-1.953,34.924c-0.005-4.056-0.335,1.633-0.653,6.18
								c-0.243,4.551-0.509,7.961-0.581-0.705c-0.192,3.177-0.289,6.351-0.379,9.323c-0.066,2.974-0.054,5.751-0.043,8.136
								c0.038,4.771,0.242,7.982,0.362,8.106c0.078-11.214,0.079-3.944,0.29-13.381c0.167,6.369,0.246,21.058,0.162,27.106
								c-0.028-2.802-0.064-1.735-0.176-2.351c0.06,13.411,0.42,6.416,0.825,16.103c-0.397,3.084,0.6,21.414,0.741,30.299
								l1.15,12.848c-0.689-7.064,0.324,12.353-0.012,14.403c0.587,9.241,1.389,16.991,1.414,31.138
								c-0.257-5.841-0.239,12.909-0.754,13.155c-0.327,12.11-0.377,22.158-0.796,32.065c-0.421,9.899-1.081,19.675-3.024,31.081
								c0.017-0.361,0.101-1.708,0.055-2.13c-0.063-0.423-0.156,0.09-0.75,3.416c-0.665,5.276-2.297,14.457-3.53,20.027l0.027-0.178
								c-0.02,0.108-0.031,0.177-0.052,0.293c-0.573,2.732-0.896,4.46-0.811,4.552c-0.442,2.403-0.904,4.505-1.317,6.617
								c-0.214,1.056-0.428,2.111-0.648,3.203c-0.241,1.088-0.523,2.204-0.81,3.396c-0.295,1.19-0.608,2.453-0.947,3.824
								c-0.174,0.686-0.354,1.397-0.541,2.141c-0.216,0.736-0.44,1.504-0.675,2.307c-0.958,3.207-2.029,7.007-3.683,11.56
								c0.471-0.583,2.139-4.713,3.673-9.633c0.395-1.226,0.804-2.494,1.211-3.759c0.357-1.279,0.715-2.556,1.058-3.783
								c0.664-2.461,1.315-4.718,1.71-6.441l1.025-6.035c0.268-0.684,0.532-1.462,0.794-2.308c0.236-0.852,0.465-1.771,0.688-2.731
								c0.447-1.923,0.871-4.013,1.271-6.062c0.693-4.116,1.279-8.069,1.781-10.229c-0.595,5.753-2.423,16.852-5.566,28.776
								c-0.831,2.969-1.68,6.001-2.528,9.031c-0.952,3.002-1.904,6.002-2.834,8.934c-1.027,2.903-2.03,5.739-2.986,8.441
								c-0.998,2.757-2.114,5.455-3.3,7.92c1.678-2.878,3.462-6.807,5.06-11.023c0.421-1.072,0.855-2.181,1.303-3.321
								c0.454-1.14,0.899-2.317,1.304-3.542c0.828-2.442,1.696-4.999,2.592-7.638c3.373-10.623,6.282-22.809,8.271-34.252
								c0,0-0.542,2.502-1.083,5.003c-0.258,1.253-0.552,2.499-0.794,3.43c-0.231,0.933-0.386,1.554-0.386,1.554
								s0.161-0.743,0.403-1.857c0.26-1.112,0.527-2.606,0.805-4.1c0.555-2.986,1.109-5.973,1.109-5.973s-0.666,2.865-1.333,5.731
								c-0.632,2.868-1.419,5.707-1.418,5.707c2.45-11.239,3.818-21.077,5.075-31.347c-1.456,12.038-3.032,16.582-1.825,9.826
								c1.117-6.655,1.498-10.157,1.655-13.269c0.094-1.555,0.182-3.011,0.284-4.721c0.106-1.708,0.204-3.668,0.429-6.229
								c-0.452,5.703-1.324,13.105-1.08,8.303c0.36-2.512,0.589-4.801,0.811-6.914c0.215-2.114,0.432-4.053,0.58-5.87
								c0.271-3.636,0.523-6.785,0.697-9.876c0.336-6.184,0.644-12.138,1.067-21.311c-0.438,1.134-0.328-4.602-0.374-10.948
								c0.006-6.352-0.12-13.313-0.468-14.678l0.049,8.487c0,0-0.187-4.497-0.374-8.994c-0.225-4.49-0.449-8.979-0.449-8.979
								c0.175-16.587,1.114,14.652,0.825-10.575c-0.742-23.237-1.646-22.588-2.4-40.789c0.691,5.973,1.729,20.385,2.25,35.128
								l-0.102-8.929c0.479,4.697,1.162,25.102,1.271,35.331c-0.461-8.432-0.46-6.455-0.377-1.414
								c0.072,5.043,0.146,13.168-0.089,17.018c0.47,1.415,0.378-9.451,0.773,3.379c-0.017-6.01-0.018-9.457-0.072-13.303
								c-0.041-3.845-0.087-8.098-0.168-15.726c0.324,16.47,0.663,23.912,1.032,30.829c0.134,3.464,0.343,6.792,0.318,11.078
								c-0.007,2.143-0.007,4.52-0.099,7.27c-0.114,2.752-0.234,5.873-0.478,9.499c0.22-6.695-0.026-5.533-0.317-2.506
								c-0.303,3.029-0.815,7.929-0.966,8.725c-0.068,1.572-0.213,3.55-0.375,5.714c-0.169,2.164-0.306,4.515-0.52,6.832
								c-0.438,4.634-0.833,9.142-1.158,11.767c0,0,0.322-1.166,0.644-2.332c0.334-1.166,0.61-2.337,0.61-2.337
								c-0.415,4.236-0.946,7.769-1.45,10.987c-0.589,3.213-1.171,6.113-1.765,9.092c-0.678,2.97-1.336,6.021-2.051,9.542
								c-0.398,1.755-0.805,3.627-1.222,5.669c-0.203,1.022-0.414,2.085-0.635,3.195c-0.243,1.107-0.498,2.261-0.764,3.467
								c-0.144,1.29,1.05-2.9,1.888-7.036c0.44-2.063,0.874-4.097,1.151-5.397c0.25-1.304,0.345-1.875,0.204-0.999
								c-2.453,13.285-5.188,22.137-8.057,30.484c-0.76,2.074-1.511,4.127-2.276,6.216c-0.79,2.077-1.69,4.158-2.573,6.347
								c-0.446,1.092-0.902,2.207-1.37,3.353c-0.511,1.186-1.055,2.403-1.647,3.662c-1.204,2.516-2.589,5.198-4.459,8.033
								c-0.347,0.7-0.358,1.046-0.978,2.241c-0.348,0.591-0.757,1.415-1.62,2.563c-0.414,0.578-0.905,1.245-1.576,1.993
								c-0.626,0.764-1.458,1.59-2.439,2.521c1.124-1.283,0.168-0.628,0.039-0.699c-0.066-0.034,0.072-0.245,0.756-0.962
								c0.665-0.722,1.84-1.979,3.509-4.211c-1.489,1.833-3.217,3.711-5.277,5.438c-2.058,1.729-4.517,3.242-7.143,4.328
								c-1.305,0.578-2.676,0.943-4.022,1.309c-0.682,0.12-1.359,0.24-2.031,0.358l-1.006,0.161
								c-0.326,0.023-0.65,0.046-0.973,0.068c-0.646,0.034-1.284,0.069-1.914,0.104c-0.622,0.015-1.204-0.028-1.795-0.045
								c-1.197-0.02-2.266-0.154-3.297-0.282c0.608,0.091,1.17,0.175,1.689,0.253c0.522,0.071,1.042,0.092,1.495,0.133
								c0.924,0.061,1.645,0.15,2.273,0.123c1.229-0.006,1.8-0.003,1.863,0.03c0.063,0.031-0.381,0.089-1.185,0.154
								c-0.397,0.027-0.901,0.08-1.447,0.085c-0.537-0.014-1.141-0.028-1.793-0.045c-0.326-0.013-0.665-0.025-1.014-0.038
								c-0.33-0.035-0.669-0.07-1.016-0.107c-0.686-0.08-1.429-0.146-2.129-0.257c-1.39-0.229-2.815-0.48-4.043-0.765
								c-1.289-0.265-2.337-0.543-3.265-0.752c-0.883-0.211-1.54-0.365-1.916-0.439c-3.984-1.07-3.331-0.983-1.106-0.545
								c1.134,0.225,2.65,0.634,4.354,1.03c0.817,0.205,1.715,0.397,2.562,0.581c0.825,0.193,1.674,0.343,2.418,0.473
								c-3.87-0.799-7.448-2.181-10.53-2.997c-3.121-0.872-5.926-1.574-7.805-1.734c-0.07-0.229,4.428,0.587,10.503,1.898
								c3.061,0.723,6.785,1.72,10.993,2.188c2.084,0.252,4.334,0.282,6.551,0.108c1.108-0.093,2.231-0.329,3.305-0.504
								c1.064-0.275,2.115-0.541,3.091-0.904c0,0-0.165,0.061-0.453,0.167c-0.297,0.081-0.721,0.197-1.229,0.337
								c-1.012,0.32-2.391,0.519-3.771,0.706c-0.697,0.126-1.354,0.09-1.991,0.129c-0.629,0.014-1.229,0.05-1.719,0.029
								c-0.97-0.062-1.617-0.102-1.617-0.102c1.761,0.104,3.262-0.037,4.591-0.119c0.673-0.073,1.324-0.201,1.963-0.3
								c0.641-0.109,1.277-0.193,1.927-0.394c0.649-0.185,1.336-0.341,2.052-0.592c0.707-0.273,1.484-0.542,2.306-0.911
								c1.612-0.78,3.548-1.791,5.597-3.473c-0.53,0.379-1.023,0.732-1.483,1.062c-0.476,0.311-0.945,0.57-1.366,0.818
								c-0.831,0.51-1.607,0.825-2.23,1.101c-0.314,0.131-0.595,0.248-0.846,0.353c-0.263,0.079-0.493,0.148-0.694,0.209
								c-0.403,0.113-0.691,0.179-0.883,0.207c-0.765,0.109,0.009-0.358,1.072-0.946c1.267-0.503-0.644,0.419,0.562-0.078
								c3.936-1.8,6.675-4.347,8.201-6.04c0.802-0.844,1.268-1.521,1.521-1.875c0.243-0.358,0.227-0.416-0.107-0.102
								c1.004-1.448,0.979-1.681,0.5-1.108c-0.511,0.56-1.605,1.886-3.137,3.394c-1.555,1.492-3.614,3.116-5.769,4.286
								c-2.152,1.185-4.345,1.833-5.72,2.101c-1.021,0.305-2.078,0.395-3.119,0.582c-1.038,0.122-2.063,0.127-3.093,0.181
								c-0.994-0.049-2.005-0.074-2.978-0.164c-0.948-0.129-1.928-0.218-2.838-0.39c0,0-0.595-0.089-1.635-0.244
								c-0.531-0.07-1.123-0.201-1.828-0.332c-0.708-0.13-1.487-0.288-2.311-0.474c-3.331-0.788-7.486-1.553-11.729-2.388
								c-2.116-0.396-4.21-0.863-6.203-1.172c-1.998-0.279-3.863-0.54-5.462-0.764c-3.189-0.447-5.316-0.745-5.316-0.745
								c-0.903-0.152-1.767-0.343-2.617-0.455c-0.85-0.116-1.671-0.228-2.467-0.336c-1.591-0.229-3.081-0.442-4.494-0.646
								c-1.411-0.219-2.746-0.426-4.028-0.624c-1.28-0.21-2.509-0.417-3.722-0.542c-2.419-0.308-4.725-0.601-7.111-0.904
								c-2.39-0.29-4.851-0.692-7.619-0.867l-3.067,0.32c-3.202-0.179-6.354-0.42-9.164-0.548c-2.814-0.085-5.276-0.176-7.08-0.272
								c-3.607-0.192-4.583-0.405-0.453-0.637c0.461,0.173,2.161,0.166,4.955,0.243c0.371-0.06,1.018-0.094,1.832-0.117
								c0.27-0.031,0.419-0.048,0.642-0.073c-13.79-0.238-22.415,0.165-23.208,0.166c23.452-1.026,1.167-0.907,5.079-1.83
								c0,0-1.486,0.037-3.714,0.094c-2.228,0.067-5.197,0.091-8.168,0.288c-2.97,0.159-5.94,0.317-8.167,0.438
								c-1.114,0.06-2.042,0.108-2.691,0.144c-0.649,0.031-1.021,0.069-1.021,0.069c7.21-0.19,7.278-0.065,4.91,0.112
								c-1.185,0.082-2.979,0.204-4.794,0.329c-1.816,0.154-3.655,0.312-4.931,0.42c-0.721-0.177-5.505,0.069-11.147,0.59
								c-5.642,0.552-12.148,1.188-16.313,1.595l0.604-0.162c-7.729,0.578-21.238,2.113-30.839,3.44
								c0.459,0.104-11.777,2.404-17.648,3.644c16.531-1.893,6.758-0.467,8.119-0.331c-1.711,0.187-4.784,0.567-5.134,0.674
								c-2.346,0.436,3.229-0.219,3.716-0.116c17.509-2.448,35.495-4.489,42.569-5.84c-5.408,0.261-9.129,1.176-15.169,1.681
								c8.629-1.432,19.834-2.503,34.379-3.61l4.796,0.096c0,0,3.654-0.296,7.309-0.592c3.653-0.211,7.308-0.422,7.308-0.422
								c-6.096,0.51-2.398,0.613-17.73,1.725c0.992,0.129,4.791-0.143,9.519-0.508c4.726-0.31,10.378-0.587,15.072-0.731
								l4.783-0.615c-1.837,0.328,18.221,0.117,3.973,0.723c0,0-1.448,0.048-3.62,0.118c-2.171,0.074-5.064,0.135-7.964,0.347
								c-2.896,0.176-5.793,0.352-7.966,0.484c-1.086,0.065-1.991,0.121-2.624,0.159c-0.634,0.035-0.996,0.075-0.996,0.075
								s0.404-0.013,1.011,0.001c0.605,0.01,1.413,0.023,2.221,0.036c1.615,0.026,3.229,0.052,3.229,0.052s-1.224,0.058-3.06,0.144
								c-1.835,0.065-4.285,0.226-6.735,0.412c-4.899,0.348-9.8,0.696-9.8,0.696l4.607-0.585c-1.969,0.15-3.727,0.284-5.302,0.404
								c-1.576,0.14-2.97,0.264-4.205,0.374c-2.472,0.209-4.315,0.343-5.741,0.428c-2.853,0.172-4.033,0.137-5.221,0.146
								c-1.188,0.002-2.382,0.012-5.261,0.264c-2.879,0.256-7.442,0.715-15.376,1.806c-9.879,1.762-20.56,3.185-40.142,5.482
								c14.138-1.927,1.398-0.645,6.675-1.692c-14.469,1.552-19.291,2.69-26.776,3.854c-3.73,0.104-6.387,0.141,6.554-1.386
								c0.766-0.46-3.484,0.09-8.084,0.679c-4.603,0.577-9.576,1.091-10.207,0.793c-10.74,1.148-18.246,2.102-24.253,2.955
								c-3.001,0.446-5.631,0.837-8.103,1.204c-2.475,0.336-4.792,0.649-7.165,0.971c-4.748,0.638-9.728,1.264-16.675,1.933
								c-3.474,0.335-7.438,0.68-12.111,1.043c-1.168,0.088-2.381,0.18-3.641,0.274c-1.262,0.063-2.571,0.128-3.932,0.196
								c-2.721,0.122-5.646,0.253-8.802,0.395l1.871-0.417c-16.001,1.112-28.62,2.065-40.965,2.417
								c-6.17,0.24-12.266,0.478-18.674,0.728c-3.204,0.134-6.486,0.271-9.895,0.414c-3.409,0.09-6.945,0.183-10.656,0.28
								l-23.389-0.306c5.226-0.223,19.262-1.077,12.699-1.318c5.688,0.276,11.548,0.287,17.517,0.25
								c2.985,0.005,5.995-0.092,9.026-0.171c3.03-0.074,6.082-0.134,9.146-0.15c1.241-0.252-3.748-0.201-5.923-0.239
								c7.387-0.285,11.107-0.083,20.858-0.604c-0.479-0.142-11.129,0.086-3.112-0.326l13.293-0.046
								c17.732-1.277,8.676-1.668,29.519-2.704c-3.844,0.661-11.719,1.759-19.785,2.35c9.53-0.483-12.684,1.026-3.978,0.756
								c6.845-0.731,11.929-1.072,17.58-1.418c2.826-0.176,5.793-0.36,9.194-0.571c1.699-0.118,3.507-0.245,5.46-0.381
								c1.953-0.128,4.048-0.319,6.32-0.57c-2.133,0.259-2.688,0.468-7.176,0.764c0,0,1.656-0.087,4.14-0.218
								c2.48-0.18,5.788-0.42,9.095-0.66c6.616-0.481,13.231-0.962,13.231-0.962c-6.573,0.153,21.808-2.171,19.287-2.602
								c-14.084,1.149-19.057,1.555-24.521,2.001c-2.731,0.226-5.586,0.461-9.764,0.805c-2.089,0.161-4.51,0.348-7.411,0.57
								c-2.905,0.153-6.293,0.332-10.313,0.543c9.098-0.572,20.762-2.201,26.206-3.153c0.28-0.001,0.745-0.022,1.732-0.094
								c4.855-0.949-0.152-0.682-0.134-1.639c-7.287,0.925-13.385,1.518-19.82,1.965c-6.44,0.384-13.211,0.752-21.84,1.47
								c-3.22,0.718,10.069,0.057,18.652-0.598l-15.207,1.268l2.983-0.422c0,0-9.666,0.542-19.332,1.083
								c-1.208,0.067-2.417,0.135-3.605,0.201c-1.191,0.042-2.362,0.084-3.496,0.123c-2.268,0.08-4.384,0.154-6.197,0.218
								c-3.628,0.127-6.047,0.212-6.047,0.212c7.33-0.318,9.806-0.719,13.619-1.098c-4.991,0.177-9.94,0.234-15.202,0.292
								c1.125,0.454,0.444,0.832-4.426,1.016c-6.225,0.191-11.758,0.361-16.7,0.514c-4.943,0.103-9.299,0.053-13.161,0.046
								c-7.726-0.044-13.486-0.184-18.083-0.377c-0.955,0.031-2.032,0.065-2.897,0.093c2.09,0.212-2.325,0.536-8.229,0.874
								c-5.904,0.239-13.297,0.482-17.156,0.749c0.38-0.528-12.836-0.299-20.012-0.558c-3.825,0.611,1.265,1.439,10.012,1.922
								c16.851-0.577,9.443-0.571,17.397-1.369c0,0,1.688-0.035,4.221-0.088c2.532-0.058,5.908-0.098,9.284-0.257
								c6.75-0.266,13.501-0.53,13.501-0.53l-6.03,0.603c13.489-0.055,26.423-0.95,25.451-0.302
								c-7.114,0.561-18.886,0.54-25.951,1.101l8.926,0.053c-7.866,0.465-9.887,0.356-12.321,0.232
								c-2.435-0.143-5.283-0.192-14.811-0.001c7.015,0.523-1.727,0.041-9.891,0.411c3.278,0.175,11.67,0.146,18.526,0.135
								c6.856-0.107,12.18-0.118,9.322,0.394c-2.478,0.148-5.803,0.197-9.602,0.206c-3.798-0.041-8.07-0.167-12.441-0.258
								c-8.742-0.19-17.879-0.316-24.441,0.145l0.643-0.104c-4.839,0.01-8.891-0.088-12.363-0.097
								c-3.472-0.017-6.363,0.001-8.876,0.04c-5.026,0.076-8.542,0.231-12.168,0.338c-4.114-0.229-9.018-0.221-14.005-0.306
								c-4.986-0.087-10.061-0.137-14.521-0.262l0.226-0.258l-12.589-0.288c6.009-0.291,14.748,0.48,25.562,0.754l-1.332-0.533
								c6.221,0.53,11.423,0.453,16.272,0.352c4.847-0.176,9.351-0.34,14.186-0.516c-7.037,0.1-16.969-0.083-25.556-0.188
								c-8.583-0.235-15.822-0.361-17.488,0.065l-8.684-0.771l-4.168,0.047c-6.468-0.578,0.172-0.95,12.737-0.662
								c2.179,0.192,3.269,0.289,2.604,0.37c2.919-0.017,5.72-0.078,9.554-0.065c1.917,0.021,4.093,0.046,6.671,0.074
								c2.579,0.018,5.561,0.063,9.09,0.146l-7.539,0.142c17.579,0.299,33.564,0.406,39.585-0.045
								c-12.686-0.256-25.265-0.51-37.65-0.76c-1.548-0.028-3.093-0.058-4.635-0.087c-1.541-0.052-3.079-0.104-4.614-0.155
								c-3.069-0.101-6.125-0.201-9.166-0.301c-6.082-0.192-12.104-0.383-18.057-0.57c-7.065,0.932-15.421,1.141-19.046,2.002
								c-7.994-0.277-17.417-0.632-26.574-1.046c-9.155-0.452-18.033-1.106-24.956-1.692l1.287-0.126
								c-6.759-0.512-12.996-0.83-18.203-1.026c-7.127-0.719,4.926-0.237-0.043-0.695l-22.864-1.291
								c0.721-0.182,5.886,0.075,12.011,0.456c3.062,0.201,6.365,0.418,9.473,0.623c3.111,0.177,6.026,0.343,8.31,0.473
								c-1.726-0.064-5.211-0.196-4.098-0.067c10.616,0.831,30.455,1.227,35.063,2.18c2.592,0.092-0.045,0.066-1.138,0.142
								c-1.092,0.059-0.648,0.32,8.125,0.729c11.738,0.801,15.593,0.373,16.829,0.229c0.202-0.256-18.417-1.22-11.939-1.237
								c-4.571-0.197-7.771-0.246-11.288-0.361c-3.514-0.154-7.345-0.362-13.178-0.841c4.527,0.249,9.87,0.45,14.684,0.621
								c4.816,0.138,9.1,0.306,11.502,0.623c17.938,0.341,15.417-1.018,6.982-1.479c1.994,0.481-32.687-1.041-9.232,0.558
								c-2.643,0.002-5.831-0.053-9.341-0.141c-3.509-0.106-7.337-0.3-11.268-0.479c-7.862-0.369-16.128-0.787-23.034-1.046
								l0.633-0.062c0,0-4.282-0.231-8.564-0.463c-4.278-0.279-8.556-0.558-8.556-0.558c2.418,0.036,7.596,0.293,7.784,0.043
								l-23.739-1.01c13.37,0.491-8.243-0.928-14.294-1.577c-2.567,0.204-11.835-0.283-2.982,0.692
								c9.955,1.067,5.827,0.218,14.905,0.855l-12.903-0.299l-1.096-0.154l-7.772-0.126c-17.49-1.5,7.74-0.569-14.715-1.936
								l2.857,0.952c-6.485-0.574-13.431-1.207-20.481-1.906c-7.044-0.75-14.2-1.512-21.118-2.248
								c-6.919-0.72-13.601-1.416-19.696-2.05c-6.092-0.655-11.602-1.208-16.185-1.595c5.088,0.114,7.377-0.305,0.479-1.398
								c3.938,0.465,9.869,1.097,16.231,1.749c6.366,0.622,13.167,1.217,18.832,1.72c1.083,0.164-2.473,0.042-7.837-0.284
								c-2.682-0.163-5.816-0.377-9.047-0.632c-3.229-0.273-6.555-0.604-9.624-0.955c5.833,1.841,31.008,2.261,32.341,3.586
								c7.829,0.835,13.211,1.325,17.296,1.622c4.089,0.266,6.879,0.365,9.52,0.461c5.281,0.191,9.963,0.369,23.254,1.828
								c0.41-0.505,7.59,0.396,9.03,0.009c-3.912-0.717-12.809-1.483-22.891-2.239c-10.082-0.762-21.346-1.539-29.96-2.539
								c1.694,0.12,5.102,0.359,5.776,0.323c-12.326-1.31-17.434-1.67-26.074-2.282l1.081,0.163
								c-15.114-0.895-9.282-1.27-18.116-2.394c-3.439-0.273-15.737-1.687-13.797-1.1l-15.984-2.141l0.711,0.665
								c-9.047-0.913-10.979-1.552-19.21-2.086l-0.437,0.481c0,0,5.607,0.663,11.214,1.326c5.605,0.681,11.22,1.281,11.22,1.281
								c-11.405-0.999-3.228,0.183-15.744-1.069c14.027,0.965-9.849-1.378-11.17-2.015l-9.228-0.717l2.367,0.118
								c-7.184-1.076-8.618-0.721-17.024-1.775c9.892,1.444,16.363,2.485,29.06,3.52c-9.247-0.725-27.564-2.386-32.043-2.93
								c-4.847-0.454-8.947-0.978-12.964-1.526c-2.008-0.277-3.998-0.553-6.048-0.837c-1.026-0.139-2.067-0.278-3.134-0.423
								c-1.331-0.167-2.693-0.338-4.1-0.514c0.834,0.088,1.607,0.171,2.323,0.247c0.467,0.044,0.897,0.084,1.293,0.121
								c0.793,0.062,1.452,0.113,1.999,0.156c1.095,0.07,1.748,0.075,2.15,0.045c0.805-0.061,0.611-0.266,0.959-0.39
								c0.696-0.246,3.562-0.166,20.931,2.049c-0.655,0.025-3.468-0.325-4.551-0.515c4.556,1.243,20.865,2.317,28.44,2.887
								c-1.902-0.599,6,0.174-7.355-1.511c4.365,0.714-11.375-0.338-24.053-2.176l2.335-0.563l-18.506-2.255l1.737,0.163
								c-0.836-0.162-1.759-0.317-2.759-0.469c-0.501-0.071-1.02-0.146-1.557-0.223c-0.604-0.078-1.227-0.159-1.868-0.242
								c-3.186-0.394-6.731-0.79-10.571-1.213c0.401-3.904,0.83-8.082,1.272-12.395c0.337-3.192,0.711-6.481,1.148-9.761
								c0.704-9.24,4.769-44.546,2.259-29.438c1.757-11.394,2.189-21.513,3.434-34.017l-2.025,15.536
								c1.406-18.474,1.213-13.131,1.872-27.966c0.387-1.465,0.928-4.729,0.841-1.711c2.725-24.729,6.789-60.026,7.688-74.609
								c1.922-17.425,3.202-20.076,5.457-44.551c0.208-2.559-0.089-1.583-0.199-1.972c-0.13-0.38,0.063-2.19,0.685-9.984
								c0.008-0.253,0.082,0.528,0.033,1.637c-0.028,1.1-0.064,2.485-0.064,3.356s0.038,1.229,0.157,0.269
								c0.06-0.479,0.14-1.289,0.247-2.527c0.047-0.617,0.129-1.351,0.167-2.187c0.022-0.832,0.047-1.781,0.076-2.86
								c-0.041-1.537,0.005-3.153-0.161-4.759c-0.05-0.81-0.101-1.634-0.152-2.472c-0.069-0.835-0.03-1.691-0.196-2.543
								c-0.233-1.713-0.474-3.473-0.718-5.27c-0.303-1.808-0.749-3.672-1.12-5.559c-0.097-0.472-0.195-0.946-0.293-1.422
								l-0.368-1.448c-0.249-0.969-0.5-1.943-0.752-2.923c-0.489-1.945-1.054-3.961-1.631-5.983
								c-0.583-2.047-1.169-4.104-1.755-6.162c-0.564-2.089-1.128-4.179-1.69-6.26c-0.925-4.449-2.09-10.519-2.798-15.092
								c-0.718-4.573-1.057-7.641-0.569-6.074c1.031,7.041,2.598,15.521,4.343,22.575c0.862,3.51,1.769,6.737,2.503,9.126
								c0.73,2.402,1.277,4.129,1.544,4.841c-0.774-1.743,2.281,9.554-0.608-0.203c0.645,2.525,1.181,4.625,1.634,6.399
								c0.479,1.773,0.704,3.182,1,4.395c0.28,1.205,0.51,2.194,0.712,3.066c0.168,0.867,0.272,1.611,0.405,2.344
								c0.126,0.732,0.25,1.449,0.387,2.25c0.067,0.401,0.137,0.823,0.212,1.279c0.084,0.455,0.154,0.945,0.165,1.487
								c0.085,2.169,0.383,5.036,0.074,9.606c0.067,0.635,0.323-1.709,0.437-4.683c-0.025-1.467-0.066-3.096-0.121-4.597
								c-0.016-0.375-0.032-0.743-0.047-1.097c-0.052-0.352-0.103-0.691-0.151-1.014c-0.1-0.645-0.196-1.222-0.286-1.695
								c0.084-0.022,0.229,0.509,0.419,1.427c0.079,0.46,0.236,1.012,0.279,1.649c0.048,0.637,0.101,1.35,0.158,2.116
								c0.322,3.046,0.225,7.063,0.107,10.589c-0.225,3.552-0.413,6.6-0.466,7.755c-0.046,1.151,0.239,0.327,0.787-3.803
								c0.197-2.489,0.409-4.772,0.387-6.843c0.006-2.077,0.107-4.006-0.1-5.758c-0.163-1.762-0.229-3.41-0.468-4.972
								c-0.291-1.553-0.569-3.038-0.844-4.504c-0.217-1.459-0.652-2.906-1.019-4.379c-0.393-1.476-0.697-2.969-1.146-4.563
								c-0.445-1.593-0.891-3.266-1.345-5.071c-0.458-1.808-0.983-3.786-1.495-5.927c0.582,1.668,1.208,3.604,1.815,5.668
								c0.58,2.053,1.227,4.264,1.815,6.521c0.497,2.251,1.125,4.558,1.591,6.826c0.196,1.133,0.401,2.257,0.619,3.363
								c0.113,0.553,0.225,1.101,0.335,1.644c0.125,0.542,0.234,1.079,0.284,1.614c0,0-0.005-0.217-0.015-0.597
								c-0.021-0.379-0.105-0.917-0.179-1.564c-0.156-1.296-0.365-3.025-0.573-4.753c-0.268-1.73-0.672-3.462-0.914-4.763
								c-0.26-1.301-0.433-2.168-0.433-2.168s-0.034-0.154-0.124-0.426c-0.087-0.271-0.211-0.658-0.361-1.123
								c-0.298-0.929-0.696-2.167-1.093-3.405c-0.391-1.234-0.796-2.475-1.121-3.415c-0.316-0.936-0.527-1.56-0.527-1.56l0.27,0.575
								c-0.811-3.126-1.512-5.832-2.13-8.218c-0.584-2.411-1.091-4.498-1.543-6.363c-0.895-3.723-1.575-6.557-2.237-9.312
								c-1.306-5.502-2.689-10.671-4.33-22.129c1.305,13.37-1.631-2.927-0.546,7.137c-2.248-15.388-2.998-26.728-2.351-26.886
								c0.783,7.189,1.321,10.875,1.636,12.78c0.314,1.906,0.428,2.03,0.535,2.087c0.106,0.057,0.209,0.046,0.525,1.674
								c0.321,1.628,0.829,4.899,1.954,11.496c-0.195-2.191,0.282-0.65,0.533-0.537c0.265,0.112,0.229-1.193-0.734-9.08
								c-1.299-8.858-1.243-7.521-1.221-6.168c0.052,1.348,0.077,2.706-0.952-6.169c-0.047-1.056-0.081-2.153,0.076-1.542
								c-1.107-8.145-0.752-9.548-1.832-19.424l0.293,2.339c-0.373-12.236-1.301-13.337-1.303-23.879
								c-0.349,4.229-0.711-7.048-1.174-13.57c0.041,5.339-0.058,9.459-0.045,14.881c0.023,5.421,0.148,12.146,0.881,22.682
								c0.603,2.516,0.667,0.964,1.563,9.59c0,0-0.28-3.418-0.56-6.837c-0.248-3.42-0.495-6.839-0.495-6.839
								c0.256,2.948,0.518,5.189,0.799,7.888c0,0,0.211,3.288,0.423,6.576c0.245,3.288,0.489,6.575,0.489,6.575
								c-0.926-8.311-1.236-10.555-1.527-11.597c-0.281-1.043-0.481-0.886-0.949-4.417c-0.456-7.638-0.643-10.788-0.789-13.23
								c-0.165-2.44-0.293-4.173-0.435-8.978c0.319,0.47,0.236-6.902,0.224-16.581c-0.019-9.679,0.086-21.667,0.331-30.445
								c-0.012,2.727-0.026,6.247-0.034,8.147c0.422,12.751,0.46-8.776,0.675-9.244l-0.199-9.294c0.013,1.75,0.124,4.169,0.26,0.208
								c0.117-12.577-0.49-11.86-0.163-24.429c0.352-0.928,0.474,9.704,0.923,1.903c0.421-2.684,1.359-11.208,2.279-27.882
								c-0.029-1.191,0.219-5.514,0.698-10.542c-0.062,0.701-0.129,1.576-0.14,1.893c0,0,0.353-2.762,0.79-5.529
								c0.114-0.693,0.227-1.385,0.333-2.035c0.136-0.762,0.263-1.472,0.371-2.081c0.128-0.64,0.235-1.172,0.31-1.545
								c0.086-0.365,0.135-0.574,0.135-0.574c-0.131,0.73-0.203,1.482-0.313,2.211l-0.249,2.069
								c-0.132,1.19-0.264,2.382-0.396,3.577c-0.26,2.376-0.521,4.76-0.781,7.146c-0.49,4.766-0.894,9.541-0.905,14.293l0.48,0.836
								c-0.45,7.365-0.63,17.379-0.495,21.986c0.506-11.223,0.438-13.591,1.105-26.146c0.438-1.732,0.134,7.113,0.12,8.388
								l-0.199-1.888c-0.634,7.469-0.735,13.073-0.774,19.131c-0.026,6.06,0.003,12.574-0.161,21.892
								c-0.055,2.813-0.074,1.096-0.167,0.468c0.34,15.088-0.23,29.903,0.918,44.545l-0.42-4.771
								c0.484,9.975,1.718,29.476,3.996,48.824l0.221,0.137c-0.076-2.163,0.583,5.112,0.925,9.018l-0.005-0.02
								c1.292,9.674,2.8,18.922,4.292,26.42c-0.301-2.428-0.687-5.534-1.182-9.088c-0.348-1.485-1.082-6.654-1.662-11.154
								c-0.592-4.498-1.064-8.324-1.214-7.076c-0.566-8.238-2.071-21.468-2.201-27.545c0.179,5.528-0.077,3.617-0.426,0.081
								c-0.344-3.537-0.737-8.701-0.929-9.663c0.13-3.731-0.699-16.389-0.167-14.957c0.05-2.187-0.146,5.444,0.354,10.134
								c0.48,5.777,0.321,0.475,0.223-4.471c-0.099-4.947-0.14-9.536,0.303-2.333c-1.032-18.327-0.999-42.528-0.925-61.469
								l-0.397,10.598c0.088-4.21,0.225-11.296,0.436-17.514c0.204-6.218,0.477-11.564,0.623-12.303
								c-0.229,6.251-0.491,13.557-0.576,21.562c0.26,0.199,0.361-4.606,0.496-9.57c0.131-4.964,0.293-10.087,0.48-10.524
								c0,0,0.027-5.811,0.151-11.622c0.109-5.811,0.353-11.617,0.353-11.617s-0.195,2.536-0.39,5.073
								c-0.171,2.539-0.343,5.078-0.343,5.078c0.041-3.208,0.472-10.127,1.34-18.164c0.22-2.008,0.468-4.086,0.771-6.183
								c0.077-0.512,0.154-1.026,0.231-1.542l0.233-1.397c0.159-0.932,0.349-1.856,0.571-2.769c0.116-0.455,0.248-0.904,0.408-1.343
								c0.167-0.432,0.418-0.862,0.872-1.039c0.873-0.377,1.85-0.256,2.745-0.13c0.906,0.153,1.782,0.387,2.632,0.645
								c0.422,0.136,0.84,0.272,1.255,0.406c0.434,0.153,0.863,0.305,1.288,0.456c-0.493-0.129-1.004-0.263-1.534-0.402
								c-0.495-0.12-1.006-0.244-1.534-0.373c-1.05-0.222-2.166-0.477-3.362-0.434c-0.582,0.033-1.248,0.143-1.678,0.622
								c-0.358,0.521-0.509,1.167-0.675,1.797c-0.314,1.275-0.542,2.624-0.763,4.025c-0.504,3.261-0.937,6.988-1.301,10.794
								c-0.364,3.832-0.659,7.852-0.858,11.994c-0.472,12.037,1.151-7.376,0.623,4.005c0.329-2.939,0.816-10.347,0.967-14.003
								l0.542-4.446c-0.24,5.074-0.628,13.279-1.046,22.112c-0.367,8.847-0.597,18.334-0.499,25.92
								c-0.041-1.332-0.078-2.494-0.144-2.917c-0.579,11.665-0.691,23.536-0.453,34.921c0.175-6.023,0.054-8.405-0.011-11.848
								c0.155-0.427,0.198,10.321,0.431,14.384c0.134-10.588,0.365-1.977,0.461-8.674c0.161,6.893,0.155,12.474,0.245,20.871
								c-0.158,4.359-0.413-3.594-0.714-2.701c0.372,8.644-0.342,12.627,0.565,25.265c-0.541-16.831,0.836,4.41,1.443,10.17
								l-0.131-2.815c0.665,5.304,0.974,9.81,0.895,13.507c-0.653-6.849-0.895-13.508-1.176-11.531
								c0.276,4.539,0.58,9.063,1.082,14.185l-0.617-4.647c0,0,0.406,5.635,0.916,11.256c0.497,5.623,1.114,11.228,1.113,11.228
								c0.714,3.517,1.898,9.372,2.813,12.385c0.385,5.384,1.802,12.748,2.857,17.714l-0.562-2.301
								c0.694,4.884,2.246,12.677,4.069,19.304c0.902,3.265,1.9,6.465,2.635,8.847c0.741,2.418,1.263,4.154,1.464,4.59
								c0.409,1.788-0.339-0.424-1.485-3.928c-0.583-1.715-1.275-3.75-1.967-5.785c-0.673-2.02-1.325-3.979-1.847-5.68
								c-1.06-3.376-1.708-5.507-1.432-3.741c0.139,0.883,0.524,2.735,1.311,5.852c0.411,1.549,0.909,3.412,1.574,5.692
								c0.655,2.26,1.417,4.892,2.256,8.009c0.319,1.18,0.611,2.257,0.877,3.245c0.235,1.011,0.449,1.929,0.643,2.765
								c0.396,1.671,0.73,3.012,1.021,4.111c0.426,2.262,0.733,3.537,1.019,4.544c0.274,1.008,0.563,1.746,0.823,2.961
								c0.196,1.223,0.401,2.92,0.613,5.843c0,0-0.128-0.657-0.14,0.502c-0.047,2.202-0.083,3.908-0.113,5.343
								c0.006,1.444-0.039,2.585-0.082,3.675c-0.082,2.177-0.059,4.227-0.369,7.688c0.365-2.5,0.634-5.691,0.86-8.52
								c0.193-2.845,0.159-5.422,0.146-6.648c0.082,0.666,0.089,2.151,0.051,4.11c-0.013,0.489-0.026,1.008-0.04,1.551
								c-0.041,0.531-0.083,1.086-0.128,1.66c-0.093,1.146-0.193,2.367-0.295,3.619c-0.465,4.968-1.106,10.288-1.288,13.506
								c0.284-8.389-1.99,16.149-1.607,9.656c-2.202,16.6-3.642,34.446-4.134,43.236c-2,11.21-2.044,19.816-4.391,38.105
								c0.328-2.813,0.766-7.938,1.277-11.87c0.64-10.501-2.318,18.964-1.024,2.835c-0.296,3.447,0.235,0.271,0.54-3.264
								c0.614-6.175,1.027-12.008,0.635-10.481l-2.055,14.89l0.446-5.227l-3.061,22.604c0.032,0.627,0.386-1.486,0.565-2.569
								c-3.116,26.262-6.04,56.361-8.618,79.387c0.222,1.082,0.013,4.959-0.45,10.483c-0.231,2.762-0.526,5.936-0.861,9.378
								c-0.205,2.13-0.425,4.426-0.652,6.8c6.786,0.746,14.047,1.544,20.61,2.266c7.895,0.844,14.953,1.585,19.781,1.873
								c-5.03-0.143-7.834,0.23-4.784,0.88c-4.151-0.424-12.702-0.852-22.087-2.064c-1.476-0.397-13.055-2.002-5.554-1.387
								c-1.607-0.175-3-0.325-4.201-0.456c-0.692-0.064-1.274-0.119-1.758-0.165c-0.979-0.085-1.589-0.123-1.915-0.124
								c-0.653-0.003-0.163,0.143,0.74,0.348c0.985,0.22,2.325,0.517,3.124,0.694c1.269,0.267,1.654,0.438-0.27,0.345
								c14.395,1.598,25.842,2.729,35.965,3.592c10.126,0.851,18.925,1.53,28.032,2.367l0.442,0.215c0,0,3.44,0.3,6.88,0.601
								c3.442,0.276,6.884,0.554,6.884,0.554c-5.608-0.612-8.25-1.126-7.687-1.245c0.562-0.104,4.33,0.151,11.548,1.029
								l-1.764-0.142c8.219,1.151,25.419,2.602,38.311,3.861l8.788,0.362c12.911,1.262,13.389,2.163,17.543,3.064
								c2.532,0.233,4.93,0.454,7.216,0.664c2.29,0.168,4.468,0.326,6.556,0.479c4.178,0.285,7.999,0.51,11.637,0.704
								c7.276,0.363,13.819,0.69,21.034,1.051c6.48,0.867,36.852,3.138,20.725,2.428c9.159,0.499,12.849,0.185,18.16,0.167
								c5.312-0.023,12.248,0.128,27.907,1.635l-8.167-0.131c7.504,0.423,15.809,0.892,24.263,1.289
								c8.457,0.317,17.061,0.64,25.158,0.943c4.048,0.156,7.97,0.309,11.683,0.452c3.713,0.149,7.221,0.202,10.436,0.309
								c6.432,0.189,11.703,0.383,15.16,0.588c-5.561,0.468,3.809,1.093,15.239,1.781c11.432,0.543,24.926,1.05,27.591,1.732
								c-1.486-0.313,9.814-0.23,11.461-0.358c2.474,0.218,6.596,0.309,10.971,0.056c-5.862-0.119-3.799-0.45-3.074-0.684
								c0.363-0.116,0.391-0.209-1.072-0.238c-1.463-0.03-4.417,0.031-10.021,0.045c5.675-0.293,12.164-0.758,20.336-1.025
								c4.086-0.142,8.593-0.256,13.631-0.334c5.037-0.106,10.606-0.05,16.81-0.213l-0.367,0.535c0-0.001-4.91,0.091-9.823,0.021
								c-4.912-0.032-9.824-0.065-9.824-0.065c1.986,0.386-8.128,0.371-12.274,0.557c18.278,0.122,17.085,0.432,15.992,0.696
								c-0.546,0.132-1.068,0.253,0.884,0.333c0.976,0.04,2.571,0.07,5.09,0.086c2.52,0.024,5.963,0.031,10.635-0.097
								c3.605-0.413,1.269-0.226,10.981-0.555c-4.567,0.108-5.385,0.488,1.979,0.349l7.062-0.562
								c13.076,0.619-21.598,1.002-10.448,1.398c-3.609,0.155-7.878,0.341-12.18,0.526c-4.302,0.198-8.639,0.218-12.377,0.342
								c-7.478,0.202-12.569,0.433-10.237,0.766c11.801,0.083,17.109-0.168,22.545-0.583c5.437-0.415,11.004-0.825,23.337-0.918
								l2.633,0.234c8.669-0.391,10.06-0.805,14.794-1.3c0.433,0.146,2.639,0.181,8.208,0.008
								c7.305-0.629,13.382-1.072,19.315-1.518c2.966-0.229,5.896-0.457,8.928-0.692c3.026-0.299,6.151-0.644,9.51-1.029
								c-8.955,0.742-15.363,0.976-20.504,1.167c-5.141,0.188-9.017,0.275-12.928,0.362s-7.858,0.173-13.143,0.36
								c-5.286,0.15-11.911,0.339-21.18,0.603c2.903-0.167,10.88-0.421,18.328-0.727c7.442-0.451,14.354-0.949,15.142-1.344
								l-0.326,0.542c12.033-0.795,24.065-1.352,39.175-2.215l-9.206,0.855c10.003-0.79,18.336-1.094,26.141-1.43
								c3.9-0.189,7.676-0.295,11.446-0.642c3.771-0.332,7.55-0.736,11.477-1.282c-5.575,0.415-10.097,0.806-13.529,1.17
								c10.272-1.087,23.184-2.103,34.376-2.939c0,0,5.77-0.651,11.513-1.535c5.746-0.83,11.493-1.661,11.493-1.661
								c-0.176,0.282,14.45-1.258,7.44-0.092c16.673-1.308,24.394-3.134,33.979-4.45c17.084-1.574-14.708,2.097-16.281,2.989
								c23.453-2.603,48.308-6.085,61.566-8.002c-4.818,0.439-7.165,0.615-6.936,0.46c0.734,0.093,10.222-1.058,15.527-1.615
								l3.614-0.712c8.869-0.668,7.64-0.34,0.146,0.682c4.231-0.388,8.84-1.049,13.515-1.512c4.671-0.477,9.368-0.991,13.77-0.99
								c-14.469,1.427-32.891,2.958-40.349,4.134c15.02-1.874,22.653-2.309,31.288-2.782c4.312-0.282,8.894-0.446,14.787-0.766
								c1.474-0.086,3.029-0.176,4.684-0.271c1.658-0.067,3.416-0.139,5.29-0.215c1.873-0.085,3.862-0.176,5.984-0.272
								c1.062-0.052,2.156-0.104,3.285-0.159c1.133-0.027,2.3-0.055,3.504-0.083c0.476,0.157-6.039,0.563,1.382,0.469
								c17.194-0.348,4.489-0.782,9.866-1.202c-6.634,0.172-11.492,0.229-15.655,0.243c-4.157,0.093-7.624,0.076-11.479,0.021
								l3.522-0.426c0.271,0.061,2.487,0.007,4.942-0.058c1.228-0.03,2.515-0.063,3.649-0.091c1.135-0.002,2.118,0.018,2.732,0.043
								l2.137-0.596c-0.49,0.32,2.604,0.555,7.124,0.664c2.259,0.02,4.881,0.156,7.592,0.227c2.71,0.073,5.511,0.113,8.136,0.105
								c-10.592-0.659-7.73-0.58-10.612-1.35c7.402-0.173,11.579-0.032,15.969,0.449c4.392,0.452,8.997,0.674,17.308,1.228
								c-0.631,0.04-4.563-0.255-6.776-0.388c-1.107-0.055-1.786-0.029-1.406,0.023c0.383,0.043,1.816,0.205,4.932,0.556
								c10.324,1.05,9.009,0.327,15.943,1.193c-7.85-0.626-5.907,0.119-14.403-0.125c-2.288-0.215-4.12-0.387-5.608-0.525
								c-1.491-0.079-2.638-0.141-3.555-0.189c-1.833-0.093-2.745-0.14-3.644-0.185c-0.899-0.038-1.785-0.075-3.567-0.15
								c-0.892-0.037-2.006-0.084-3.458-0.145c-1.452-0.009-3.242-0.02-5.482-0.034c0,0,0.947,0.046,2.367,0.115
								c1.421,0.069,3.313,0.14,5.205,0.33c3.781,0.322,7.563,0.646,7.563,0.646c-7.757-0.399-10.58-0.409-11.625-0.225
								c-1.045,0.144-0.313,0.336-0.954,0.424c13.203,0.79,18.183,0.985,21.998,1.151c1.908,0.062,3.525,0.082,5.728,0.2
								c1.102,0.064,2.351,0.131,3.851,0.279c1.496,0.192,3.247,0.438,5.359,0.759c4.105,0.409,0.145-0.18-3.243-0.688
								c-0.847-0.128-1.657-0.251-2.297-0.349c-0.643-0.075-1.113-0.129-1.276-0.161c-0.329-0.046,0.581-0.088,3.785,0.307
								c7.917,1.176,8.833,1.223,9.999,1.267c1.173,0.007,2.575,0.122,11.443,1.741l-3.008-0.343c2.668,0.7,5.368,1.139,8.155,1.716
								c2.775,0.631,5.669,1.245,8.77,1.997c3.424,0.779,1.616-0.144,2.452-0.386c0.397-0.108,1.554-0.102,4.179,0.49
								c1.246,0.27,2.875,0.622,5.005,1.083c2.018,0.389,4.408,0.757,6.903,0.595c-0.985,0.173-1.364,0.297-1.364,0.355
								c0,0-0.34,0.047-0.934,0.129c-0.304,0.035-0.659,0.112-1.102,0.143c-0.451,0.021-0.96,0.047-1.515,0.074
								c-2.267,0.067-5.555-0.228-9.056-0.661c-7.044-0.644-14.088-1.287-14.088-1.287c3.505,0.881,7.077,1.779,10.708,2.691
								c3.655,0.864,7.223,2.089,10.864,2.758c3.631,0.74,7.334,0.81,10.801-0.218c1.718-0.552,3.368-1.35,4.893-2.393
								c1.506-1.073,2.891-2.353,4.156-3.775c2.507-2.88,4.516-6.294,6.209-9.897c1.727-3.584,3.035-7.471,4.504-11.292
								c0.752-1.906,1.374-3.863,2.031-5.812c0.641-1.955,1.339-3.896,1.938-5.87c1.155-3.962,2.419-7.907,3.407-11.933
								c0.686-1.84,0.71-1.317,0.373,0.479c-0.169,0.898-0.427,2.114-0.738,3.512c-0.366,1.383-0.779,2.947-1.205,4.555
								c-0.438,1.604-0.87,3.26-1.315,4.809c-0.476,1.541-0.922,2.988-1.298,4.207c-0.742,2.44-1.178,3.975-0.929,3.522
								c0,0-0.291,0.903-0.813,2.228c-0.508,1.329-1.186,3.101-1.862,4.873c-1.28,3.576-2.918,6.99-2.918,6.99
								c0.006-0.231,0.845-2.14,1.812-4.766c0.94-2.641,2.121-5.95,3.148-8.833c1.846-5.839,3.088-9.947,0.656-3.555
								c-0.52,1.586-0.958,3.141-1.503,4.604c-0.531,1.469-1.045,2.891-1.545,4.271c-0.99,2.771-1.944,5.355-3.042,7.733
								c-2.167,4.758-4.655,8.883-7.949,12.15c-3.272,3.249-7.54,5.471-12.512,5.694c-2.474,0.151-5.092-0.101-7.823-0.656
								c-2.74-0.519-5.593-1.348-8.707-2.031c1.876,0.636,4.771,1.719,8.442,2.569c0.925,0.174,1.88,0.435,2.896,0.549
								c0.506,0.069,1.021,0.141,1.544,0.213c0.527,0.032,1.063,0.063,1.605,0.096c0.271,0.015,0.545,0.028,0.82,0.042
								c0.275-0.012,0.553-0.023,0.831-0.035c0.556-0.035,1.124-0.021,1.688-0.1c0.563-0.09,1.132-0.181,1.705-0.272
								c0.577-0.074,1.128-0.292,1.699-0.434c2.256-0.686,4.424-1.848,6.336-3.354c1.919-1.503,3.589-3.325,5.037-5.258
								c2.902-3.879,4.952-8.147,6.658-11.915c-1.32,3.218-2.709,6.117-4.249,8.757c-1.548,2.631-3.236,5.026-5.278,7.064
								c1.41-1.367,2.697-2.88,3.858-4.502c1.142-1.635,2.18-3.357,3.133-5.143c0.935-1.795,1.792-3.646,2.591-5.537
								c0.807-1.892,1.481-3.837,2.231-5.78c3.005-7.764,5.566-15.978,7.907-24.518l0.771-3.909
								c-1.434,5.792-2.944,10.608-3.993,14.143c-1.126,3.51-1.914,5.702-2.082,6.206c5.079-14.996,7.265-28.208,6.879-29.34
								l-0.619,2.729l1.022-5.6C959.785,445.521,960.539,441.902,961.182,438.285z M307.214,33.525
								c0.953-0.138,1.702-0.269,2.25-0.402C308.895,33.262,309.547,33.268,307.214,33.525z M708.036,513.765
								c20.911-2.548,41.994-5.061,62.123-6.813c-9.104,0.551-17.538,1.133-24.112,1.642c-6.579,0.467-11.301,0.824-12.994,0.833
								c-1.694,0.011-0.359-0.307,5.184-1.086c5.547-0.743,15.302-1.971,30.483-3.434l3.971-0.431
								c-7.962,0.5-21.644,1.945-34.477,3.541c-5.169,0.845-16.08,2.693-25.641,4.393c-4.781,0.852-9.229,1.644-12.459,2.22
								c-1.614,0.298-2.924,0.54-3.818,0.705c-0.895,0.168-1.374,0.268-1.326,0.28c3.723-0.104,9.033-1.165,15.731-1.896
								L708.036,513.765z M692.918,513.553c-11.864,1.305-9.134,1.258-10.944,1.716c4.167-0.537,8.326-1.074,12.439-1.604
								C692.83,513.794,692.043,513.802,692.918,513.553z M682.713,515.435c1.332-0.156,2.47-0.283,3.068-0.323L682.713,515.435z
								 M913.143,514.45c-0.515-0.133-0.699-0.181-1.188-0.307c2.716,0.753,5.464,1.492,8.416,1.819
								C919.238,515.76,917.053,515.518,913.143,514.45z M889.726,508.15l-2.87-0.096c2.577,0.52,5.207,1.05,7.898,1.592
								C893.908,509.272,893.017,508.916,889.726,508.15z M812.081,500.777c-2.459,0.306-7.803,0.721-12.655,1.061
								c-2.429,0.155-4.727,0.394-6.48,0.612c-1.754,0.215-2.962,0.414-3.204,0.587c-1.037,0.23,2.423,0.064,6.303-0.138
								c4.332-0.168,8.957-0.348,13.861-0.538c0.167-0.103,1.139-0.232,2.768-0.324c-4.85,0.022-8.092,0.073-6.144-0.417
								c1.563,0.041,2.908,0.055,4.093,0.047c1.186,0.011,2.212,0.021,3.134-0.001c1.844-0.038,3.271-0.151,4.731-0.285
								c2.919-0.251,5.971-0.692,12.728-0.399c2.156-0.176-1.604-0.374-6.417-0.476
								C819.987,500.537,814.127,500.661,812.081,500.777z M60.921,240.463c-0.054-0.379-0.235-1.7-0.581-3.52
								c0,0,0.18,0.565,0.449,1.414c0.26,0.854,0.606,1.992,0.953,3.13c0.346,1.14,0.693,2.279,0.953,3.133
								c0.227,0.867,0.378,1.445,0.378,1.445c0.428,2.09,0.894,4.116,1.23,6.126c0.243,2.028,0.48,4.014,0.714,5.966
								c0.211,3.924,0.272,7.719,0,11.431c-0.437,7.428-1.381,14.564-1.79,22.173c-0.962,7.061-1.784,10.808-2.515,14.394
								c0.416-3.462,0.806-6.701,1.13-9.399c1.861-21.246,2.346-26.774,2.743-31.304c0.049-1.134,0.078-2.208,0.103-3.452
								c0.005-0.623,0.01-1.288,0.017-2.023c-0.003-0.368-0.006-0.754-0.009-1.161c-0.044-0.404-0.091-0.829-0.141-1.278
								c-0.112-0.899-0.236-1.897-0.375-3.023c-0.077-0.563-0.158-1.157-0.243-1.787c-0.07-0.633-0.201-1.291-0.369-1.98
								c-0.319-1.382-0.674-2.918-1.071-4.636C62.122,244.388,61.506,242.542,60.921,240.463z M46.315,433.574
								c0.149-1.738,0.115-2.372,0.115-2.372c-1.023,13.183-2.058,25.542-3.063,36.873c-0.518,5.664-1.012,11.073-1.48,16.2
								c-0.478,4.955-0.93,9.639-1.354,14.025c3.92,0.433,7.569,0.835,10.967,1.21c3.543,0.41,6.823,0.79,9.863,1.142
								c-1.372-0.322-4.531-0.841-8.417-1.429c-3.486-0.514-7.62-1.122-11.455-1.688c0.41-3.052,0.791-5.895,1.08-8.044
								c0,0-0.02,0.481-0.049,1.203c-0.013,0.57-0.029,1.33-0.046,2.09c-0.021,1.4-0.042,2.801-0.042,2.801
								c-0.103,0.481-0.206,0.963-0.253,1.399l2.06,0.552c0,0,2.813,0.209,5.626,0.417c3.328,0.269,6.655,0.537,6.655,0.537
								c-1.417-0.302-3.889-0.663-6.797-1.056c-2.135-0.294-4.588-0.633-6.913-0.953c0.178-1.322,0.358-2.581,0.54-3.686
								c-0.007-0.05,0.003-0.331,0.027-0.804c0.013-0.238,0.029-0.522,0.047-0.848c0.033-0.446,0.069-0.948,0.109-1.497
								c0.181-2.346,0.423-5.482,0.679-8.801c0.514-6.637,1.079-13.999,1.267-17.223l-2.346,18.29
								c0.682-4.934,3.199-29.261,4.111-38.917c-0.06-0.055-0.242,0.94-0.478,2.497c-0.235,1.557-0.522,3.675-0.791,5.867
								c-0.539,4.386-1.004,9.066-0.836,10.144c-0.6,1.936,1.473-17.22-0.254-5.151c1.146-14.399,3.965-37.2,5.305-47.775
								l0.843-1.724c1.513-11.599,0.071-7.939,1.943-21.711c-1.715,16.995,1.022-2.794-0.394,10.719
								c0.712-4.286,0.695-0.014,2.114-13.554c0.364-11.359,2.085-14.207,2.482-24.94c1.04-7.087-0.314,7.714,1.319-6.275
								c1.291-16.109,0.867-15.217,0.35-16.28c-1.804,14.999-1.018,16.961-2.501,29.228l1.58-24.546
								c-0.64,4.486-1.017,7.816-1.277,10.617c0.47-4.916,0.764-9.104,0.933-12.695c0.106-2.044,0.204-3.932,0.294-5.675
								c-1.507,13.846-2.855,26.14-3.357,28.284l-0.096-1.941c-0.81,4.871-1.458,12.885-1.635,16.592
								c-1.312,12.401-2.232,24.831-2.918,27.497l0.233-4.736C48.537,412.695,48.391,414.398,46.315,433.574z M475.889,529.525
								c-4.652-0.552-9.539-1.07-18.681-1.42c-4.57-0.188-10.205-0.273-17.404-0.41c-7.2-0.196-15.965-0.359-26.802-0.481
								l3.412-0.023c-5.457-0.271-10.847-0.354-16.278-0.44c-5.43-0.131-10.902-0.19-16.522-0.258
								c-11.24-0.143-23.08-0.231-36.335-1.314c6.451,0.09,9.501,0.136,12.723,0.122c3.221-0.025,6.615-0.175,13.744-0.422
								c0,0-3.458-0.03-6.917-0.062c-1.729-0.016-3.459-0.031-4.756-0.043c-1.297-0.023-2.161-0.039-2.161-0.039
								c3.852-0.429-9.942-0.756-20.078-1.256l8.979-0.307c3.037,0.241,8.498,0.58,13.143,0.801
								c4.647,0.172,8.477,0.271,8.249,0.181c-3.46-0.049,20.803,1.617,34.01,1.739c-1.352-0.445-29.214-1.195-16.751-1.581
								c-10.973-0.012-12.317-0.544-23.78-0.735c11,0.014,2.745-0.581,10.936-0.679c0,0-4.697-0.107-9.394-0.215
								c-2.349-0.048-4.697-0.106-6.458-0.186c-1.761-0.066-2.935-0.11-2.935-0.11c-0.484-0.071,27.362,0.584,11.997-0.503
								c-1.883-0.003-4.55-0.037-7.497-0.147c-2.946-0.129-6.172-0.271-9.175-0.403c-6.005-0.262-11.118-0.448-11.31-0.193
								l-0.454-0.183c-7.032-0.385-8.588-0.271-10.544-0.197c-0.978,0.036-2.056,0.062-3.969,0.01
								c-1.913-0.043-4.66-0.181-8.972-0.53c-0.217,0.229,3.063,0.688,9.257,0.896c5.238,0.126,6.058-0.199,16.836,0.229
								c4.812,0.636-12.995-0.656-5.548,0.389c3.702,0.52,28.465,1.023,20.55,1.44l-14.043-0.767
								c-0.384,0.511-10.559,0.008-10.294,0.446c-4.301-0.109-8.473-0.383-12.667-0.674c-4.192-0.318-8.409-0.606-12.808-0.641
								c-3.662,0.123,2.661,1.138-11.838-0.01c-2.823-0.365-7.029-0.755-11.946-1.145c-4.917-0.397-10.54-0.853-16.2-1.31
								c-11.323-0.879-22.804-1.604-29.057-2.057l-10.962-0.578c0.902,0.419,20.901,1.675,13.845,1.53l-17.068-1.294l1.333-0.093
								c-5.648-0.518-11.447-0.783-16.614-1.1c5.346,0.065,17.626,1.246,15.229,0.493c-7.996-0.777-9.2-1.082-16.576-1.594
								c1.611,0.096,3,0.158,2.803,0.063c-8.094-0.781-12.017-0.98-14.427-1.012c-2.411-0.019-3.311,0.156-5.349,0.056
								c-16.349-0.823,16.351,2.226,14.227,2.524c0,0-0.744-0.058-2.046-0.158c-1.303-0.095-3.162-0.248-5.392-0.448
								c-4.461-0.389-10.409-0.907-16.356-1.427c-5.948-0.519-11.896-1.037-16.357-1.427c-4.46-0.405-7.433-0.676-7.433-0.676
								c4.074,0.254,8.184,0.426,6.672,0.067c-11.633-1.385-0.224-0.435-16.588-2.07c1.092,0.85-20.653-1.604-32.249-2.436
								c-5.363-0.9-6.466-1.082,5.334,0.206c-1.303-0.633-17.162-2.191-22.789-2.855c-3.273-0.28-8.85-0.757-12.387-1.061
								c4.699,0.755,2.645,0.86-7.604-0.091l-0.607,0.032c8.374,1.021,19.07,2.324,28.984,3.533
								c4.959,0.59,9.725,1.139,13.912,1.581c4.189,0.415,7.8,0.721,10.444,0.867l-3-0.064c9.692,1.205,20.285,2.07,29.561,2.862
								c9.278,0.771,17.25,1.379,21.688,2.271c-0.862,0.286,3.899,0.449,3.511,0.942l14.357,0.931l-3-0.041
								c0,0,1.523,0.135,3.808,0.338c2.284,0.214,5.333,0.454,8.382,0.69c6.098,0.48,12.196,0.96,12.196,0.96l-0.653,0.045
								c11.631,0.471,20.732,0.914,28.014,1.103c0.044-0.228-0.704-0.353,3.174-0.241c3.887,0.167,6.83,0.362,9.449,0.583
								c0.021,0,0.021,0,0.021-0.002v0.003c5.979,0.501,9.942,1.119,17.304,1.787l-22.687-1.587
								c-1.877,0.256,0.021,0.8,11.119,1.878c-4.547-0.314-6.472-0.148-0.848,0.304c0.626-0.057,14.887,0.828,9.479,0.124
								c10.78,0.756,24.896,1.744,40.408,2.831c7.754,0.585,15.872,0.976,24.097,1.352c8.225,0.371,16.56,0.687,24.762,0.879
								c-11.785-0.321-7.072,0.026-2.68,0.327c1.098,0.072,2.175,0.144,2.97,0.196c0.795,0.046,1.307,0.081,1.273,0.098
								c-0.017,0.009-0.171,0.014-0.494,0.012c-0.323-0.005-0.815-0.013-1.51-0.024c-1.389-0.053-3.587-0.137-6.856-0.262
								c9.112,0.773,13.052,0.655,17.032,0.585c3.981-0.094,8.007-0.251,17.313,0.093c1.58,0.274-10.134-0.351-14.427-0.044
								c15.474,0.607,28.538,0.853,41.479,0.706c12.94-0.084,25.747-0.01,40.724-0.039l1.281,0.485
								C463.042,529.684,469.34,529.606,475.889,529.525z M535.113,527.595c5.758-0.283,11.596-0.57,17.53-0.862
								c-0.579,0.019-1.117,0.035-1.723,0.054c0,0,4.321-0.269,8.643-0.538c2.161-0.117,4.319-0.299,5.938-0.438
								c1.618-0.135,2.697-0.225,2.697-0.225c-5.313,0.264-9.731,0.239-10.96,0.093c-0.614-0.07-0.432-0.174,0.833-0.313
								c1.265-0.149,3.613-0.275,7.323-0.588c-1.24,0.277,3.115,0.261-2.045,0.691c9.973-0.311,31.845-1.351,26.1-1.741
								c-19.092,1.854-4.515-0.666-19.517,0.76c8.039-0.968,16.041-1.235,23.644-1.91c-3.951,0.44-3.475,0.639-0.519,0.661
								c2.953-0.005,8.397-0.056,14.349-0.509c5.169-0.547,19.193-1.594,27.781-2.5c-3.106-0.195,4.358-1.071-9.665-0.024
								c2.565-0.271,5.836-0.596,9.58-0.915c3.746-0.305,7.963-0.647,12.421-1.01c-1.76,0.217-4.177,0.537-6.105,0.745
								c-1.93,0.203-3.363,0.377-3.142,0.44c1.447-0.021,2.955-0.055,4.458-0.139c1.501-0.113,2.999-0.227,4.435-0.335
								c2.869-0.235,5.481-0.473,7.346-0.582c2.956-0.339,5.939-0.681,8.842-1.014c-0.87,0.054-1.628,0.083-2.169,0.076l9.786-1.441
								c-13.068,1.604-6.073,0.438-5.933,0.157c-0.295,0.562,8.434-0.828,12.91-1.322l-9.792,0.481
								c4.67-0.778,16.648-1.363,14.128-1.654c-10.332,0.991-17.478,1.717-24.371,2.468c-3.446,0.386-6.83,0.765-10.519,1.177
								c-1.845,0.207-3.765,0.423-5.807,0.652c-2.047,0.188-4.215,0.387-6.551,0.602l7.633-0.209
								c-21.082,2.073-13.086,0.345-36.76,2.33c-1.228,0.145-2.702,0.325-4.35,0.463c-1.649,0.12-3.467,0.253-5.372,0.393
								c-3.813,0.256-7.977,0.535-11.848,0.795c-7.743,0.525-14.313,1.029-14.537,1.439c1.481-0.211-2.222-0.163-7.308,0.044
								c-5.091,0.115-11.567,0.335-15.629,0.679c-4.481,0.539-13.526,1.103-20.419,1.531c-1.724,0.106-3.313,0.205-4.661,0.289
								c-1.35,0.069-2.46,0.126-3.227,0.165c-1.532,0.098-1.686,0.169,0.379,0.21c3.681-0.029,7.989-0.368,12.121-0.551
								c4.131-0.203,8.083-0.341,11.049-0.223l-14.262,0.716l9.377,0.023C532.384,526.736,532.866,527.103,535.113,527.595z
								 M853.186,508.941c0.152,0.019,0.353,0.042,0.539,0.063c-0.207-0.021-0.407-0.041-0.601-0.062L853.186,508.941z"/>
							<path fill="#FFFFFF" d="M45.947,30.435c0.064-2.06,0.313-5.627,0.522-8.437c0.209-2.809,0.36-4.864,0.055-3.89
								c0.22-0.098-0.253,4.442-0.542,8.277C45.684,30.221,45.501,33.352,45.947,30.435z"/>
							<path fill="#FFFFFF" d="M47.459,18.342c-0.013-0.725-0.272-0.246,0.307-4.801c0,0-0.407,3.138-0.694,6.272
								c-0.302,3.135-0.531,6.271-0.531,6.271s0.216-1.937,0.433-3.873C47.217,20.277,47.459,18.342,47.459,18.342z"/>
							<path fill="#FFFFFF" d="M52.22,8.048c0.296-0.574,0.928-0.76,1.46-0.832c0.554-0.072,1.104-0.042,1.649,0.021
								c1.093,0.132,2.181,0.403,3.359,0.752c0.518,0.154,1.372,0.435,2.131,0.706c0.788,0.279,1.616,0.586,2.499,0.93
								c1.766,0.685,3.751,1.509,6.08,2.507c1.548,1.24-2.3-0.382-7.091-2.219c-0.599-0.22-1.212-0.446-1.832-0.675l-0.932-0.326
								l-0.827-0.274c-0.926-0.294-1.854-0.544-2.713-0.692c-0.858-0.14-1.659-0.19-2.293,0c-0.315,0.093-0.584,0.254-0.76,0.474
								c-0.18,0.221-0.217,0.507-0.241,0.736c0.072-0.176,0.156-0.343,0.278-0.485c0.139-0.121,0.297-0.223,0.47-0.28
								c0.342-0.126,0.704-0.15,1.051-0.146c0.697,0.012,1.353,0.151,1.977,0.292c1.313,0.324,2.138,0.584,3.922,1.202
								c3.113,1.093,5.846,2.142,8.489,3.137c5.323,2.029,10.256,3.91,17.438,6.648c-1.751-0.766-4.848-2.121-8.519-3.726
								c-3.659-1.604-7.863-3.491-11.885-5.173c-2.011-0.84-3.979-1.623-5.806-2.271c-0.983-0.349-1.605-0.545-2.322-0.754
								c-0.69-0.199-1.343-0.359-1.945-0.471c-1.2-0.227-2.217-0.236-2.869,0.023c-0.324,0.128-0.55,0.31-0.665,0.489
								C52.217,7.825,52.201,7.981,52.22,8.048z"/>
							<path fill="#FFFFFF" d="M52.188,14.463c0,0,0.059-0.511,0.146-1.278c0.064-0.572,0.159-1.35,0.294-2.134
								c0.151-0.768,0.266-1.614,0.654-2.085c0.467-0.391,0.909-0.363,0.895-0.384c-0.003-0.023-0.658,0.058-0.653,0.084
								c0.021,0.001-0.441,0.146-0.613,0.773c-0.199,0.586-0.34,1.395-0.46,2.188c-0.053,0.395-0.106,0.789-0.155,1.159
								c-0.046,0.401-0.088,0.776-0.125,1.097c-0.104,0.942-0.174,1.57-0.174,1.57L52.188,14.463z"/>
							<path fill="#FFFFFF" d="M54.107,238.423c-0.017,0.503,0.469,2.26,1.052,4.271c0.305,1.01,0.631,2.093,0.942,3.126
								c0.327,1.036,0.526,1.992,0.737,2.795c-0.136-0.655-0.287-1.375-0.448-2.147c-0.205-0.782-0.422-1.616-0.65-2.487
								C55.259,242.228,54.773,240.381,54.107,238.423z"/>
							<path fill="#FFFFFF" d="M538.649,17.021c0,0-4.755-1.345-11.887-3.362c-7.177-1.995-16.967-4.651-27.131-6.165
								c-10.13-1.563-20.33-2.116-27.915-2.043c-1.903-0.043-3.638,0.012-5.176,0.053c-1.539,0.039-2.88,0.073-3.984,0.101
								c-1.106,0.017-1.969,0.07-2.558,0.105c-0.589,0.033-0.903,0.05-0.903,0.05c5.791-0.292,11.501-0.367,17.372-0.251
								c2.934,0.045,5.914,0.271,8.958,0.404c3.044,0.25,6.161,0.548,9.373,0.899c1.603,0.234,3.232,0.471,4.89,0.713
								c0.829,0.122,1.665,0.244,2.509,0.368c0.841,0.136,1.68,0.317,2.533,0.477c1.698,0.341,3.451,0.641,5.2,1.038
								c1.746,0.402,3.528,0.813,5.351,1.234C522.517,12.414,530.218,14.65,538.649,17.021z"/>
							<path fill="#FFFFFF" d="M36.357,499.456c0.349-3.627,0.673-7.003,0.979-10.19c0.202-2.32,0.391-4.504,0.573-6.598
								c0.348-4.188,0.666-8.017,0.985-11.857c0.636-7.682,1.297-15.411,2.391-26.157c-1.649,12.511-2.431,21.287-3.074,29.252
								c-0.324,3.982-0.632,7.761-0.953,11.705c-0.089,0.985-0.179,1.98-0.27,2.992c-0.125,1.252-0.25,2.524-0.379,3.823
								c-0.342,3.133-0.698,6.397-1.077,9.863c3.424,0.422,7.074,0.893,11.062,1.434c-3.542-0.594-7.085-1.187-10.825-1.622
								L36.357,499.456z"/>
							<path fill="#FFFFFF" d="M34.888,488.967c0.151-0.522,0.231-0.506,0.262-0.112c0.015,0.197,0.018,0.488,0.011,0.853
								c-0.002,0.091-0.004,0.187-0.007,0.287c-0.01,0.164-0.021,0.335-0.032,0.513c-0.025,0.366-0.053,0.758-0.082,1.173
								c-0.267,3.238-0.65,7.886-0.971,11.777c5.151,0.479,8.866,0.789,7.044,0.4c-2.692-0.288-4.901-0.524-6.653-0.712
								c0.653-6.866,0.702-8.502,0.842-10.722c0.069-0.91,0.146-1.936,0.279-3.689c0.114-1.309,0.303-3.157,0.623-6.002
								L34.888,488.967z"/>
							<polygon fill="#FFFFFF" points="55.3,394.542 54.923,400.968 55.366,395.81 							"/>
							<polygon fill="#FFFFFF" points="126.345,514.06 123.997,513.958 134.565,515.235 							"/>
							<path fill="#FFFFFF" d="M121.648,513.859l2.348,0.099L121.648,513.859z"/>
							<polygon fill="#FFFFFF" points="55.715,402.896 56.875,393.411 57.105,388.682 							"/>
							<path fill="#FFFFFF" d="M43.359,486.385l0.727-8.518C43.941,479.557,42.431,491.155,43.359,486.385z"/>
							<path fill="#FFFFFF" d="M191.013,520.668c0,0,2.597,0.184,5.194,0.368c2.597,0.192,5.196,0.352,5.196,0.353l-1.055-0.148
								l-10.355-0.729L191.013,520.668z"/>
							<path fill="#FFFFFF" d="M94.329,501.245c-5.813-1.113,16.954,1.737,4.931-0.004
								C88.516,500.132,92.845,500.855,94.329,501.245z"/>
							<path fill="#FFFFFF" d="M218.839,516.702c1.398,0.117,2.872,0.224,4.294,0.29
								C221.442,516.878,220.022,516.782,218.839,516.702z"/>
							<path fill="#FFFFFF" d="M218.839,516.702c-4.513-0.377-9.01-0.934-12.116-1.057
								C212.331,516.328,214.387,516.419,218.839,516.702z"/>
							<path fill="#FFFFFF" d="M270.574,520.583l-4.093-0.33c4.2,0.071,2.214-0.038-1.534-0.122
								c-4.341-0.299-4.107-0.133-4.63-0.068c-0.874-0.004-1.741-0.008-2.683-0.012c1.342,0.033,2.549,0.063,3.571,0.088
								C267.93,520.631,272.033,520.904,270.574,520.583z"/>
							<path fill="#FFFFFF" d="M463.137,535.414c-15.216-0.153-19.15-0.232-18.321-0.599c-14.436-0.233-12.201,0.351-20.913,0.385
								c8.169,0.126,13.089,0.201,18.41,0.283C447.635,535.493,453.36,535.494,463.137,535.414z"/>
							<path fill="#FFFFFF" d="M423.903,535.2c-1.831-0.02-3.579-0.038-5.704-0.062C420.576,535.188,422.339,535.2,423.903,535.2z"
								/>
							<polygon fill="#FFFFFF" points="210.465,511.887 219.894,512.114 216.444,511.904 							"/>
							<path fill="#FFFFFF" d="M485.721,535.496c-2.823,0.063-7.346,0.076-9.568-0.049c-0.405,0.184,2.691,0.218,5.536,0.204
								C484.535,535.595,487.129,535.478,485.721,535.496z"/>
							<path fill="#FFFFFF" d="M427.132,528.242c-1.536-0.248-11.242-0.268-15.191-0.416
								C417.605,527.963,422.213,528.709,427.132,528.242z"/>
							<path fill="#FFFFFF" d="M529.327,532.983c-2.82,0.089-7.161,0.015-5.294-0.362c-2.044,0.19-4.449,0.41-4.478,0.572
								c-0.015,0.076,0.564,0.127,2.08,0.125C523.15,533.31,525.601,533.188,529.327,532.983z"/>
							<polygon fill="#FFFFFF" points="454.853,528.518 452.687,528.396 442.305,528.646 							"/>
							<path fill="#FFFFFF" d="M417.92,522.77c-11.659,0.252,18.467,1.343-1.609,1.395c25.886,0.864-1.976-0.647,17.121-0.276
								C422.25,523.564,416.782,522.928,417.92,522.77z"/>
							<path fill="#FFFFFF" d="M433.432,523.888c1.625,0.037,3.385,0.078,5.295,0.121
								C436.613,523.961,434.907,523.922,433.432,523.888z"/>
							<path fill="#FFFFFF" d="M597.479,522.193c-1.688,0.147-2.84,0.267-3.902,0.384
								C594.905,522.46,596.173,522.339,597.479,522.193z"/>
							<path fill="#FFFFFF" d="M494.408,523.351c0,0-4.362,0.25-8.724,0.501c-2.181,0.128-4.363,0.256-6,0.305
								c-1.637,0.063-2.728,0.105-2.728,0.105c1.458-0.044,3.192-0.097,5.107-0.155c1.915-0.073,4.01-0.153,6.19-0.236
								c4.361-0.149,9.063-0.311,13.343-0.457c8.561-0.3,15.432-0.593,14.509-0.899c-9.5,0.056-20.921,0.456-25.613,0.831
								L494.408,523.351z"/>
							<path fill="#FFFFFF" d="M695.646,521.463l-7.496,1.174l9.409-1.07C694.854,521.798,699.664,520.729,695.646,521.463z"/>
							<path fill="#FFFFFF" d="M699.373,521.352l-1.814,0.215C697.959,521.532,698.535,521.466,699.373,521.352z"/>
							<path fill="#FFFFFF" d="M564.487,524.506c-5.643,0.274-10.161,0.401-15.304,0.742
								C551.324,525.282,565.398,524.865,564.487,524.506z"/>
							<polygon fill="#FFFFFF" points="748.294,514.053 735.961,515.601 749.427,513.988 							"/>
							<path fill="#FFFFFF" d="M805.883,510.505l2.125,0.033c0,0,0.636-0.041,1.591-0.103c0.956-0.074,2.228-0.134,3.499-0.17
								c2.544-0.092,5.088-0.185,5.088-0.185l-2.154-0.094c0,0-2.535,0.094-5.071,0.188
								C808.421,510.34,805.883,510.505,805.883,510.505z"/>
							<path fill="#FFFFFF" d="M729.132,504.523c-8.426,0.951-14.899,2.381-12.69,2.22l16.294-2.04
								c-4.203,0.005-4.533,0.545-13.985,1.608L729.132,504.523z"/>
							<path fill="#FFFFFF" d="M970.959,217.915c0.124,1.816-0.002,7.152-0.075,12.166c-0.134,5.006-0.19,9.694-0.373,10.159
								c-0.072-1.195-0.146-4.206-0.226-6.16c-0.061-1.952-0.139-2.85-0.266,0.179c0,0,0.215,3.521,0.43,7.042
								c0.244,3.521,0.487,7.041,0.487,7.041c-0.124,9.378-0.464,5.823-0.801-1.242c-0.188-3.534-0.293-7.938-0.405-12.04
								c-0.069-4.1-0.133-7.895-0.171-10.208c-0.185,9.539-0.066,15.731,0.14,22.078c0.211,6.354,0.428,12.859,0.766,23.034
								c-0.106-6.012,0.004-9.813,0.125-12.984c0.541-0.707,0.772,18.252,1.388,31.854c-0.072-8.662,0.331-3.666,0.809,2.63
								c0.063,1.135,0.127,1.889,0.188,2.424c0.058,0.733,0.112,1.426,0.169,2.139l-0.066-1.632c0.071,0.113,0.137-0.25,0.199-1.431
								c-0.616-11.405-0.45-20.131-0.633-27.445c-0.367,3.631-0.641-2.606-0.771-10.88c-0.142-8.276-0.074-18.578-0.161-23.154
								c0,0,0.007-2.642,0.014-5.284c-0.004-1.322,0.016-2.641,0.036-3.63c0.018-0.989,0.028-1.648,0.028-1.648l0.102-3.947
								c0.127-0.791,0.229,0.338,0.262,6.355c-0.016-2.509,0.041-7.958,0.231-12.564c0.123-4.615,0.32-8.397,0.118-7.636
								c0,0,0.146-2.378,0.363-5.945c0.278-3.603,0.648-8.405,1.019-13.208c0.383-4.847,0.736-9.754,0.917-13.475
								c0.207-3.709,0.251-6.222,0.251-6.222c0.084-1.248,0.167-2.495,0.229-3.421c-0.051-1.398-0.1-1.632-0.149-1.448
								c0,0,0.004-0.686,0.012-1.973c-0.031-1.296-0.077-3.197-0.136-5.616c-0.233-4.849-0.697-11.872-2.575-20.269
								c-0.267-1.044-0.538-2.11-0.815-3.197c-0.14-0.543-0.282-1.091-0.425-1.644c-0.175-0.547-0.352-1.1-0.529-1.656
								c-0.359-1.112-0.726-2.243-1.098-3.392c-0.444-1.128-0.895-2.274-1.352-3.436c-1.882-4.632-4.343-9.272-7.131-13.737
								c-5.582-8.966-12.489-17.266-18.654-25.489c-3.085-4.114-5.988-8.219-8.472-12.35c-1.234-2.068-2.369-4.115-3.453-6.261
								c-1.108-2.207-2.18-4.457-3.405-6.815c-2.341-4.626-5.464-9.614-9.471-13.487c-3.942-3.879-8.198-6.568-12.105-8.648
								c-7.9-4.088-14.424-5.987-18.958-7.461c-2.277-0.72-4.057-1.326-5.287-1.67c-1.234-0.33-1.894-0.506-1.894-0.506
								c8.257,2.553,15.202,4.754,23.716,8.868c-3.262-1.333-4.017-1.535-3.387-1.212c0.629,0.354,2.65,1.187,4.931,2.413
								c4.612,2.274,9.96,6.468,8.02,5.374c-2.75-1.864-6.173-4.015-9.586-5.625c-3.397-1.657-6.719-3.042-9.167-4.002
								c-0.974-0.186,0.278,0.402,1.654,1.093c1.379,0.711,2.873,1.479,2.396,1.485c5.16,2.227,9.212,4.438,12.58,6.708
								c1.72,1.061,3.176,2.337,4.629,3.439c0.679,0.634,1.343,1.254,1.998,1.866c0.327,0.31,0.651,0.617,0.976,0.923l0.887,0.99
								c2.395,2.629,4.361,5.493,6.232,8.803c1.907,3.298,3.633,7.122,5.905,11.349c-0.361-0.232-1.315-1.667-1.417-1.628
								c-0.048,0.016,0.082,0.44,0.656,1.518c0.575,1.077,1.523,2.857,3.268,5.589l-1.793-2.755
								c2.727,4.377,4.901,7.345,6.432,9.614c1.583,2.276,2.631,3.783,3.537,5.085c1.818,2.636,3.134,4.386,7.738,9.582
								l-0.641,0.029c3.158,3.866,7.797,9.713,11.813,16.433c2.049,3.312,3.845,6.902,5.351,10.33
								c0.678,1.744,1.41,3.406,1.949,5.016c0.52,1.615,1.041,3.125,1.452,4.516c0,0-0.067-0.16-0.135-0.32
								c-0.077-0.158-0.154-0.316-0.154-0.316c2.397,7.786,2.977,12.932,3.479,16.637c0.456,3.724,0.535,6.067,0.681,8.539
								c0.052,2.458,0.132,5.045,0.07,9.194c-0.069,4.14-0.255,9.864-0.846,18.459c0,0,0.035-0.991,0.089-2.478
								c0.038-1.495,0.089-3.488,0.14-5.482c0.017-2.007,0.063-4.001,0.048-5.513c-0.012-1.51-0.019-2.516-0.019-2.516
								c-0.289,6.03-0.472,9.669-0.545,12.909c-0.104,3.227-0.168,6.03-0.542,10.25c-0.057-0.618-0.586,1.324-0.062-6.686
								c0,0-0.145,2.597-0.361,6.493c-0.213,3.879-0.542,9.024-0.704,14.135c-0.239,5.114-0.282,10.247-0.372,14.088
								c-0.014,3.848-0.023,6.414-0.023,6.414C970.422,231.205,970.68,219.427,970.959,217.915z"/>
							<path fill="#FFFFFF" d="M970.465,269.962c0.032,2.184,0.116,4.67,0.234,7.602
								C970.611,274.733,970.536,272.296,970.465,269.962z"/>
							<path fill="#FFFFFF" d="M867.503,18.826c0,0,0.747,0.162,1.868,0.405c0.561,0.122,1.215,0.264,1.915,0.416
								c0.694,0.185,1.435,0.382,2.175,0.579c2.961,0.79,5.922,1.579,5.922,1.579c-1.832-0.499-3.703-1.008-5.659-1.54
								c-0.981-0.249-1.975-0.553-3.015-0.767C869.669,19.279,868.603,19.056,867.503,18.826z"/>
							<path fill="#FFFFFF" d="M973.819,329.284c0.052-7.222,0.546,5.39,0.778,6.646c0,0-0.204-6.459-0.408-12.919
								c-0.24-6.447-0.48-12.894-0.48-12.894c-0.198,0.123-0.525-2.416-0.691-1.891L973.819,329.284z"/>
							<path fill="#FFFFFF" d="M973.795,302.65c-0.176-0.866-0.411-3.586-0.652-6.626l0.566,14.093
								C973.858,310.021,973.936,308.436,973.795,302.65z"/>
							<polygon fill="#FFFFFF" points="963.072,305.805 962.872,301.254 962.44,294.372 							"/>
							<path fill="#FFFFFF" d="M962.061,234.452c-0.143,2.727-0.182,6.682-0.109,10.383c0.08,3.701,0.187,7.153,0.267,8.881
								C962.052,241.793,962.191,246.961,962.061,234.452z"/>
							<path fill="#FFFFFF" d="M958.848,249.237c0,0-0.079-2.883-0.158-5.767c-0.05-2.887-0.099-5.774-0.099-5.774l-0.06,1.077
								c0,0,0.067,2.617,0.134,5.235C958.757,246.623,958.848,249.237,958.848,249.237z"/>
							<path fill="#FFFFFF" d="M778.473,15.271c-1.896,0.102-3.734,0.213-5.643,0.372C775.415,15.473,777.102,15.361,778.473,15.271
								z"/>
							<path fill="#FFFFFF" d="M877.936,23.049c-3.371-0.995-5.624-1.66-7.002-2.066c-1.388-0.358-1.889-0.516-1.746-0.529
								c0.141-0.008,0.929,0.106,2.104,0.35c1.167,0.282,2.729,0.66,4.436,1.073c1.708,0.418,3.563,0.873,5.316,1.303
								c1.745,0.468,3.373,0.978,4.674,1.329c2.596,0.723,3.84,0.981,1.784,0.12c0,0-0.921-0.279-2.303-0.699
								c-1.388-0.395-3.206-1.037-5.082-1.461c-3.728-0.93-7.454-1.861-7.454-1.861l1.313,0.14c0,0-1.133-0.297-2.833-0.742
								c-1.717-0.366-4.005-0.854-6.293-1.342c-2.287-0.49-4.573-0.994-6.306-1.244c-1.728-0.289-2.879-0.481-2.879-0.481
								c1.863,0.468,3.49,0.877,4.554,1.145c1.059,0.288,1.534,0.517,1.094,0.601c-6.114-1.12-9.653-1.768-11.804-2.161
								c-2.156-0.332-2.914-0.494-3.465-0.639s-0.896-0.274-2.23-0.541c-1.336-0.247-3.657-0.739-8.187-1.212
								c0,0-1.729-0.15-4.321-0.376c-2.593-0.278-6.051-0.375-9.508-0.578c-3.46-0.226-6.911-0.245-9.501-0.307
								c-2.59-0.053-4.316-0.088-4.316-0.088l2.237-0.059c-2.328-0.058-3.354-0.012-4.151,0.061c0,0-1.451,0.011-3.991,0.03
								c-1.271,0.01-2.813,0.021-4.582,0.035c-1.768,0.024-3.755,0.111-5.928,0.174c-8.692,0.222-20.227,0.949-31.695,1.939
								c-11.477,0.968-22.877,2.227-31.405,3.192c-8.519,0.983-14.197,1.638-14.197,1.638c-16.475,2.174,9.205-0.389-2.911,1.536
								c9.564-1.102,21.491-2.351,31.247-3.348c4.884-0.473,9.213-0.923,12.428-1.275c3.218-0.339,5.311-0.629,5.706-0.845
								c-0.642,0.156-1.902,0.464,2.021,0.219c0,0,0.695-0.097,1.738-0.241c1.046-0.13,2.441-0.303,3.837-0.476
								c2.792-0.345,5.585-0.689,5.585-0.689s-2.677,0.138-5.353,0.276c-1.339,0.069-2.678,0.139-3.682,0.19
								c-1.002,0.064-1.67,0.107-1.67,0.107c2.8-0.385,7.19-0.769,12.292-1.192c5.12-0.322,10.95-0.701,16.666-0.816
								c1.427-0.04,2.845-0.08,4.239-0.119c1.398-0.005,2.774-0.009,4.113-0.014c2.68,0.007,5.212-0.002,7.492,0.041
								c4.567,0.159,8.114,0.319,9.774,0.45c-5.233-0.062-8.504-0.08-10.914-0.007c-2.407,0.123-3.965,0.202-5.777,0.294
								c-1.811,0.066-3.875,0.141-7.302,0.266c-1.712,0.048-3.764,0.105-6.293,0.175c-2.531,0.054-5.527,0.218-9.147,0.342
								c1.312,0.118,6.616,0.171,0.116,0.605c16.908-1.025,33.068-1.151,49.381-0.094C844.16,16.258,860.629,18.646,877.936,23.049z
								"/>
							<path fill="#FFFFFF" d="M543.475,18.972l0.271,0.006C543.159,18.853,542.964,18.826,543.475,18.972z"/>
							<path fill="#FFFFFF" d="M554.162,21.828c0,0,3.941,0.669,7.882,1.338c0.492,0.084,0.983,0.167,1.468,0.25
								c0.488,0.061,0.969,0.121,1.435,0.179c0.93,0.116,1.798,0.224,2.542,0.317c1.486,0.186,2.478,0.31,2.478,0.31
								s-1.533-0.258-3.834-0.645c-2.314-0.331-5.338-1.035-8.378-1.675c-1.519-0.327-3.037-0.653-4.46-0.959
								c-1.417-0.357-2.739-0.689-3.872-0.975c-2.264-0.554-3.783-0.987-3.783-0.987l-1.894-0.002
								c2.153,0.504,10.679,2.498,13.99,3.272L554.162,21.828z"/>
							<path fill="#FFFFFF" d="M588.416,26.152c-1.607-0.108-3.003-0.202-4.2-0.283c-1.194-0.102-2.191-0.186-3.006-0.255
								c-1.631-0.12-2.537-0.134-2.826-0.066c-0.58,0.135,1.308,0.594,4.784,1.179c-5.894-0.623-7.426-0.979-8.501-1.233
								c-1.08-0.235-1.688-0.442-5.756-0.814c0.048,0.116,0.985,0.341,2.417,0.622c0.717,0.136,1.555,0.302,2.471,0.447
								c0.921,0.118,1.916,0.246,2.935,0.376c2.039,0.241,4.175,0.494,6.01,0.711c1.832,0.225,3.384,0.271,4.22,0.347
								L588.416,26.152z"/>
							<polygon fill="#FFFFFF" points="684.151,23.754 680.507,24.381 689.553,23.498 							"/>
							<path fill="#FFFFFF" d="M680.507,24.381l-8.972,0.81c0.637,0.122,1.268,0.239,2.742,0.223L680.507,24.381z"/>
							<path fill="#FFFFFF" d="M648.021,26.884c-3.79,0.185-7.98,0.356-13.074,0.559c0,0,0.814-0.002,2.041-0.063
								c1.226-0.052,2.86-0.122,4.494-0.191c1.635-0.069,3.27-0.139,4.495-0.191C647.204,26.929,648.021,26.884,648.021,26.884z"/>
							<path fill="#FFFFFF" d="M658.27,26.321l-0.309-0.051l-9.939,0.614C651.687,26.683,654.975,26.502,658.27,26.321z"/>
							<path fill="#FFFFFF" d="M671.535,25.191c-1.494-0.276-3.24-0.49-16.166,0.629l2.592,0.45c0,0,3.393-0.259,6.785-0.517
								C668.139,25.512,671.535,25.191,671.535,25.191z"/>
							<path fill="#FFFFFF" d="M962.813,165.681c0,0,0.005-0.634,0.013-1.584c0.007-0.95,0.026-2.219-0.008-3.477
								c-0.022-1.259-0.045-2.519-0.062-3.463c-0.044-0.938-0.073-1.564-0.073-1.564l-0.039,1.061c0,0,0.038,0.624,0.045,1.568
								c0.017,0.944,0.037,2.202,0.059,3.461c-0.015,2.531-0.03,5.062-0.03,5.062L962.813,165.681z"/>
							<path fill="#FFFFFF" d="M951.123,110.802c-0.7-1.015-1.316-1.907-1.877-2.721c-0.596-0.797-1.133-1.517-1.645-2.203
								C949.138,108.001,950.294,109.706,951.123,110.802z"/>
							<path fill="#FFFFFF" d="M922.767,76.312c-3.229-5.637-0.766-1.882,0.954,0.669c0.89,1.242,1.584,2.202,1.246,1.613
								c-0.318-0.603-1.782-2.653-4.701-7.941c-0.176-0.511,0.066-0.291,0.611,0.477c0.523,0.775,1.395,2.065,2.5,3.701
								c2.18,3.269,5.375,7.76,8.556,12.135c-0.407-0.223-2.023-2.336-3.083-3.68c-1.037-1.382-1.544-1.958,0.271,0.889
								c4.632,5.594,6.073,7.822,4.993,5.545c3.79,4.65,5.918,7.098,7.755,9.214c1.813,2.109,3.354,3.836,5.732,6.945
								c-2.033-2.829-4.696-6.421-7.807-10.464c-3.098-4.048-6.621-8.564-10.071-13.407c-3.451-4.821-6.797-10.071-9.518-15.277
								c-2.677-5.16-4.865-9.745-7.29-12.99c-2.784-3.437-3.743-3.521-3.891-3.126c-0.127,0.417,0.272,1.667-0.11,1.953
								c0.071,0.132,0.331,0.496,0.739,1.022c0.375,0.598,0.904,1.335,1.494,2.292c1.188,1.883,2.604,4.648,4.102,7.655
								c1.488,2.99,3.153,6.278,4.654,8.673c0.711,1.221,1.376,2.193,1.879,2.896C922.285,75.812,922.631,76.242,922.767,76.312z"/>
							<path fill="#FFFFFF" d="M933.549,93.016c3.425,4.525,4.482,5.822,6.583,8.479C939.864,100.57,936.372,96.654,933.549,93.016z
								"/>
							<path fill="#FFFFFF" d="M838.572,22.49c-1.086,0.039-11.217-0.699-9.059-0.271c0,0,3.835,0.3,7.67,0.601
								c1.923,0.115,3.823,0.414,5.259,0.558c1.433,0.167,2.388,0.279,2.388,0.279C841.252,23.178,840.008,22.844,838.572,22.49z"/>
							<path fill="#FFFFFF" d="M851.519,24.548c0,0-0.417-0.066-1.041-0.166c-0.626-0.093-1.454-0.251-2.295-0.334
								c-1.677-0.196-3.353-0.392-3.353-0.392C846.499,23.901,848.583,24.071,851.519,24.548z"/>
							<path fill="#FFFFFF" d="M837.851,22.34c0.24,0.05,0.455,0.094,0.722,0.15C838.791,22.48,838.754,22.448,837.851,22.34z"/>
							<path fill="#FFFFFF" d="M611.028,27.501c0.222-0.284-6.555-0.191-9.937-0.383C603.837,27.341,607.716,27.505,611.028,27.501z
								"/>
							<path fill="#FFFFFF" d="M354.054,21.016l-6.015,0.809C350.173,21.588,351.268,21.466,354.054,21.016z"/>
							<path fill="#FFFFFF" d="M261.581,36.145c-0.179,0.049-0.63,0.086-1.24,0.119C260.95,36.238,261.375,36.2,261.581,36.145z"/>
							<path fill="#FFFFFF" d="M260.341,36.263c-2.091,0.088-6.351-0.116-10.67-0.262c-4.319-0.158-8.685-0.425-11.007-0.358
								l0.591-0.072c0,0-2.153-0.062-4.307-0.125c-2.151-0.083-4.303-0.167-4.303-0.167c4.026,0.263,10.279,0.56,16.107,0.812
								C252.586,36.263,257.997,36.388,260.341,36.263z"/>
						</g>
					</g>
				</g>
			</g>
		</g>
	</g>
</g>
</svg>
