<?xml version="1.0" encoding="utf-8"?>
<!-- Generator: Adobe Illustrator 16.0.0, SVG Export Plug-In . SVG Version: 6.00 Build 0)  -->
<!DOCTYPE svg PUBLIC "-//W3C//DTD SVG 1.1//EN" "http://www.w3.org/Graphics/SVG/1.1/DTD/svg11.dtd">
<svg version="1.1" id="Layer_1" xmlns="http://www.w3.org/2000/svg" xmlns:xlink="http://www.w3.org/1999/xlink" x="0px" y="0px"
	 width="516px" height="824px" viewBox="0 0 516 824" enable-background="new 0 0 516 824" xml:space="preserve">
<g>
	<image overflow="visible" opacity="0.75" width="526" height="827" xlink:href="656D33B7.png"  transform="matrix(1 0 0 1 -4 0)">
	</image>
	<g>
		<path fill="#F2F2F2" d="M95.424,51.837c16.006,3.463,32.075,6.929,48.102,4.27c24.981-4.144,49.33-23.065,74.19-30.982
			c11.006-3.503,22.219-4.824,33.111,0.749c8.901,4.554,17.409,13.612,26.184,19.719c56.938,39.615,119.589-47.083,174.688,8.811
			c4.665,4.735,9.359,10.772,12.563,21.225c2.596,8.473,3.996,19.136,5.818,29.014c5.208,28.235,14.048,50.823,18.427,80.1
			c5.347,35.723,3.352,76.021,2.399,114.562c-3.681,149.239,9.442,305.147-9.468,445.402c-1.904,14.11-4.831,29.627-10.166,32.995
			c-3.18,2.012-6.46-0.909-9.589-3.457c-37.775-30.75-78.154-9.69-117.247,3.733c-110.275,37.861-222.115,12.689-332.379-25.418
			c4-106.819,8-213.639,12-320.459c0.484-12.93,0.968-25.951,0.558-38.9c-0.44-13.95-1.912-27.475-3.234-41.001
			C11.05,246.59,15.089,20.786,17.652,13.842c2.564-6.942,19.519,25.392,32.054,28.106C64.945,45.242,80.185,48.541,95.424,51.837z"
			/>
		<g>
			<g>
				<g>
					<g>
						<g>
							<path fill="#FFFFFF" d="M40.959,33.095c1.877,1.85,3.676,3.44,4.833,4.35c1.153,0.909,1.631,1.268,0.804,0.866
								c1.088,0.622,2.056,1.05,2.874,1.278c0.705,0.201,1.793,0.375,2.54,0.537c1.581,0.321,2.679,0.545,3.48,0.708
								c1.604,0.315,2.032,0.331,2.815,0.127c7.072,1.164,14.431,3.263,6.409,1.83l20.268,3.927l-12.038-2.72
								c3.414,0.118,19.236,4.347,23.208,4.483l-21.849-4.666l1.134,0.04c-5.018-0.864-14.656-3.042-18.005-3.853
								c0.552,0.017,0.248-0.215,4.104,0.601c-3.299-0.699-5.883-1.248-7.924-1.681c-1.024-0.202-1.911-0.377-2.683-0.53
								c-0.294-0.058-0.567-0.111-0.82-0.161c-0.21-0.057-0.407-0.102-0.599-0.169c-0.766-0.243-1.34-0.508-1.761-0.672
								c-0.425-0.175-0.711-0.279-0.975-0.364c-0.524-0.188-0.967-0.265-2.278-1.162c-1.301-0.907-3.5-2.661-7.162-6.739
								C38.251,30.141,39.373,31.415,40.959,33.095z"/>
							<path fill="#FFFFFF" d="M24.181,11.965c0,0-0.544-0.38-1.31-0.803c-0.772-0.433-1.736-0.892-2.718-1.221
								c-0.494-0.165-0.998-0.299-1.527-0.351c-0.51-0.06-1.144,0.012-1.581,0.313c-0.851,0.604-0.855,1.19-0.9,1.169
								c0,0-0.101,0.188-0.276,0.519c-0.163,0.343-0.355,0.874-0.608,1.489c-0.273,0.54-0.489,1.513-0.741,2.496
								c-0.126,0.492-0.257,1.001-0.389,1.518c-0.056,0.279-0.159,0.474-0.176,0.826l-0.092,0.991
								c-0.233,2.637-0.533,5.349-0.594,7.242c-0.107,1.937-0.178,3.229-0.178,3.229c0.063,0.071,0.079,1.075,0.083,2.34
								c0.02,0.986,0.043,2.202,0.062,3.168c0.045,1.933,0.122,2.866,0.378-1.03c0.004-0.381,0.009-0.856,0.015-1.392
								c0.015-0.614,0.031-1.297,0.048-2.013c0.049-1.568,0.113-3.288,0.194-4.811c0.113,0.625,0.114,2.564,0.067,5.005
								c-0.037,2.043-0.082,4.547-0.123,6.844c-0.076,4.456-0.107,8.108,0.249,5.796c0.072-3.125,0.128-5.589,0.175-7.646
								c0.063-2.158,0.113-3.89,0.158-5.464c0.058-1.79,0.098-3.41,0.122-5.188c0.067-1.871,0.14-3.878,0.229-6.35
								c0.155-0.752,0.307-1.492,0.456-2.219c0.075-0.363,0.149-0.723,0.222-1.079l0.109-0.532l0.136-0.446
								c0.182-0.587,0.361-1.164,0.537-1.729c0.102-0.272,0.221-0.528,0.329-0.789c0.097-0.26,0.227-0.519,0.462-0.741
								c0.216-0.224,0.525-0.413,0.861-0.475c0.333-0.065,0.657-0.031,0.947,0.037c0.582,0.141,1.08,0.392,1.558,0.658
								c0.948,0.541,1.8,1.191,2.637,1.884c1.665,1.387,3.23,3.094,4.596,4.768c1.369,1.666,2.551,3.224,3.569,4.557
								c0.68,0.805,1.248,1.443,1.694,1.917c0.414,0.417,0.774,0.78,1.155,1.163c0.768,0.755,1.602,1.605,3.019,3.177
								c-0.623-0.699-1.19-1.349-1.892-2.175l0.359-0.899c-0.602-0.651-1.182-1.307-1.751-1.977
								c-0.763-0.926-1.526-1.851-2.299-2.789c-1.583-1.938-3.219-4.013-5.011-5.89c0,0,1.039,0.981,2.635,2.739
								c0.804,0.907,1.742,1.966,2.747,3.1c0.985,1.125,2.234,2.564,2.872,3.238c1.542,1.682,3.099,3.311,4.279,4.492
								c1.18,1.184,1.981,1.927,1.981,1.927c-0.827-1.161-2.181-2.831-3.791-4.852c-0.842-1.055-1.747-2.189-2.688-3.367
								c-1.39-1.729-2.96-3.719-4.497-5.564c-1.548-1.867-3.146-3.658-4.668-4.983c-1.521-1.313-2.914-2.157-4.157-2.72
								c-1.271-0.542-2.342-0.96-3.734-0.85c-0.348,0.041-0.725,0.16-1.022,0.319c-0.297,0.161-0.512,0.337-0.701,0.507
								c-0.286,0.351-0.554,0.644-0.78,0.957c0.292-0.361,0.561-0.61,0.764-0.838c0.254-0.22,0.532-0.38,0.771-0.485
								c0.509-0.202,0.762-0.168,0.78-0.143c0.059,0.042-0.713,0.32-0.975,0.629c-0.146,0.136-0.218,0.231-0.162,0.205
								c0.072-0.014,0.213-0.204,0.836-0.446c0.665-0.25,1.632-0.177,2.728,0.246C20.785,9.62,22.165,10.298,24.181,11.965z"/>
							<path fill="#FFFFFF" d="M37.035,28.791c0.077,0.087,0.205,0.232,0.294,0.333C37.24,29.023,37.112,28.878,37.035,28.791z"/>
							<path fill="#FFFFFF" d="M487.833,639.529c0.195-3.918-0.021-5.084-0.09-5.653c0,0-0.063,2.761-0.288,6.894
								c-0.204,4.134-0.476,9.646-0.747,15.159c-0.136,2.756-0.271,5.513-0.399,8.097c-0.178,2.58-0.345,4.988-0.487,7.052
								c-0.287,4.128-0.479,6.881-0.479,6.881c0.319-1.362,1.483-14.032,1.024-5.545c0.246-1.884,0.554-5.706,0.7-9.274
								c0.117-3.569,0.152-6.878,0.043-7.723l0.183,3.216c0.067-10.186,1.271-17.09,1.2-10.448l0.038-0.857
								c0,0-0.018-1.766-0.045-4.413c-0.031-2.647-0.038-6.175-0.16-9.707c-0.193-7.058-0.386-14.114-0.386-14.114
								C487.486,629.428,488.308,627.078,487.833,639.529z"/>
							<path fill="#FFFFFF" d="M159.51,53.298c1.348-0.537,2.401-0.956,3.212-1.278c0.791-0.363,1.347-0.618,1.72-0.79
								c0.739-0.355,0.735-0.398,0.417-0.309C162.986,51.81,161.16,52.563,159.51,53.298z"/>
							<path fill="#FFFFFF" d="M487.758,612.498c0.001,0-0.044-2.208-0.137-4.417c-0.092-2.21-0.184-4.419-0.184-4.419
								C487.523,607.199,487.649,610.308,487.758,612.498z"/>
							<path fill="#FFFFFF" d="M492.957,674.084c0.026,0.021,0.044,0.117,0.099-0.113l0.009-3.992
								c-0.005,0.06-0.006,0.077-0.008,0.102C493.021,671.548,492.987,672.867,492.957,674.084z"/>
							<path fill="#FFFFFF" d="M485.142,411.947c-0.021-0.95-0.038-1.769-0.063-2.904
								C485.102,410.101,485.122,411.057,485.142,411.947z"/>
							<path fill="#FFFFFF" d="M455.1,778.796c0.893,0.657,1.71,1.212,2.696,1.996l1.245,0.959c0.448,0.355,0.921,0.665,1.383,0.993
								c0.465,0.319,0.945,0.603,1.419,0.899c0.487,0.251,0.964,0.544,1.458,0.76c1.969,0.913,4.019,1.379,6.094,1.29
								c2.074-0.084,4.135-0.784,5.888-1.811c1.219-1.044,2.438-1.991,3.37-3.362c0.243-0.324,0.513-0.619,0.732-0.966l0.617-1.077
								c0.395-0.733,0.858-1.39,1.176-2.195c-0.117,0.29-0.202,0.497-0.257,0.632c-0.058,0.131-0.083,0.188-0.073,0.194
								c0.023,0.017,0.168-0.198,0.364-0.592c0.198-0.391,0.474-0.932,0.782-1.539c0.193-0.401,0.413-0.854,0.573-1.267
								c0.695-1.676,1.269-3.138,0.558-0.792c0.075-0.211,0.185-0.518,0.317-0.891c0.113-0.362,0.246-0.789,0.39-1.248
								c0.301-0.925,0.572-1.951,0.809-2.864c0.467-1.825,0.718-3.166,0.413-2.179c0,0-0.066,0.264-0.165,0.659
								c-0.096,0.394-0.232,0.922-0.39,1.459c-0.151,0.534-0.304,1.068-0.417,1.469c-0.109,0.398-0.208,0.676-0.208,0.676
								c0.688-2.834,0.916-4.478,1.086-5.698c0.136-1.209,0.21-1.988,0.299-2.974c0.165-1.969,0.638-4.827,1.63-13.543
								c-0.976,5.407-1.676,9.289-2.263,12.541c-0.603,3.299-1.067,5.995-1.818,9.017c-0.324,1.03-0.563,1.951-0.918,2.879
								c-0.168,0.459-0.331,0.907-0.493,1.353c-0.074,0.219-0.188,0.453-0.28,0.678l-0.159,0.365l-0.229,0.492l-0.52,1.19
								c-0.181,0.391-0.402,0.741-0.603,1.115l-0.619,1.108l-0.312,0.557l-0.376,0.493l-0.756,0.991
								c-0.252,0.331-0.492,0.681-0.81,0.929c-0.605,0.541-1.175,1.101-1.874,1.526c-1.189,0.812-2.522,1.484-3.97,1.794
								c-1.442,0.316-2.93,0.326-4.379,0.055c-2.912-0.489-5.715-2.239-8.326-4.212c-0.042-0.024-0.86-0.58-1.594-0.994
								C455.845,779.229,455.1,778.796,455.1,778.796z"/>
							<path fill="#FFFFFF" d="M414.837,32.976l0.229-0.026C414.859,32.94,414.82,32.956,414.837,32.976z"/>
							<path fill="#FFFFFF" d="M415.981,32.846l-0.916,0.104C416.167,32.975,420.378,33.454,415.981,32.846z"/>
							<path fill="#FFFFFF" d="M488.106,615.751c-0.121-0.271-0.244-1.408-0.349-3.253l0.183,6.594
								C487.986,618.156,488.048,616.924,488.106,615.751z"/>
							<path fill="#FFFFFF" d="M489.147,630.784c0,0-0.027,1.034-0.068,2.586c-0.043,1.552-0.082,3.621-0.188,5.688
								c-0.181,4.134-0.36,8.269-0.36,8.269l0.06,6.113c0.098-3.167,0.203-6.603,0.318-10.36c0.056-1.878,0.114-3.837,0.176-5.883
								C489.105,635.148,489.126,633.014,489.147,630.784z"/>
							<path fill="#FFFFFF" d="M485.057,438.132c-0.537-34.332,0.929,8.423,0.93-7.354c-0.216-9.531-0.649-12.89-0.845-18.831
								c0.673,27.227-1.334-3.677-0.783,23.786c-0.747-3.898-1.04-19.796-0.923-29.124c0.591-10.563,0.571,9.22,1.291,11.597
								c-0.253-11.019-0.327-9.08-0.758-13.754c0.018-8.66-0.316-17.61-0.434-25.702c-0.13-8.09-0.16-15.309,0.3-20.482
								c-0.118-12.546-0.414-11.724-0.737-18.944c-0.707-1.443-0.54,18.672-1.044,23.317c0.059-0.963,0.178-2.842,0.281-2.298
								l-0.128,10.848c0.23-10.297,0.732,1.429,0.803,6.931c0.009,4.004,0.113,11.954-0.095,10.861l-0.204-6.056
								c-0.174,7.799,0.679,17.195,0.353,25.431c-0.16,0.432-0.264-2.682-0.369-3.153c0.561,9.223,0.68,18.105,1.191,31.747
								l-0.822-7.899c0.918,10.906,1.07,35.61,0.848,52.718c0.099-1.898,0.142-5.318,0.307-3.268
								c0.299,10.045-0.102,17.64-0.541,12.991c0.722,9.809-0.122,37.378,0.637,50.727c0,0,0.239,3.839,0.599,9.598
								c0.312,5.758,0.727,13.436,1.143,21.112c0.447,7.683,0.739,15.361,0.981,21.124c0.24,5.765,0.401,9.607,0.401,9.607
								c-0.051-2.302-0.081-4.765-0.067-7.303c0.735-5.571,0.713-8.586,1.135,1.214c-0.185-9.616-0.689-5.949-0.555-20.387
								c0.283,5.667,1.003,7.109,1.167-6.729c-0.39-34.601-2.465-57.511-3.779-89.821c0.482-1.195,0.005-26.581-0.056-38.924
								c0.59,4.703,0.866,13.859,1.104,23.361c-0.064-5.964-0.176-16.232-0.259-23.851L485.057,438.132z"/>
							<path fill="#FFFFFF" d="M487.665,518.489c0.036-0.865,0.053-1.76,0.068-2.679C487.696,516.3,487.672,517.1,487.665,518.489z"
								/>
							<path fill="#FFFFFF" d="M486.41,467.97c0.021,0.119,0.034,0.077,0.055,0.119c-0.026-0.997-0.053-1.994-0.079-3.015
								C486.395,466.096,486.404,467.248,486.41,467.97z"/>
							<path fill="#FFFFFF" d="M489.449,607.681c0.115,2.056,0.078,3.575,0.16,5.631c0.003-1.266,0.006-2.853,0.01-4.38
								C489.579,607.475,489.525,606.781,489.449,607.681z"/>
							<path fill="#FFFFFF" d="M488.389,614.572l-0.166-1.102c-0.045,0.881-0.076,1.5-0.116,2.28
								C488.207,615.992,488.306,615.739,488.389,614.572z"/>
							<path fill="#FFFFFF" d="M489.392,306.89l-0.048-3.293C489.316,305.58,489.345,306.435,489.392,306.89z"/>
							<path fill="#FFFFFF" d="M485.456,399.872c0.161,11.943,0.719,1.424,0.916,18.316l-0.018-4.958
								c0.46,12.115,0.585,33.413,0.818,47.804c-0.313-1.62-0.233,8.733-0.708,7.056c0.231,9.834,0.453,19.571,0.983,24.633
								c-0.065,6.095,0.401,15.342,0.285,23.089c0.244-3.272,1.021,11.019,0.521-7.827c0.051,1.521,0.104,0.566,0.156,2.069
								c0.283-12.146-0.428-17.01-0.57-27.472c0.19-6.258,0.563,10.225,0.597,4.32c-0.403-13.059-0.219-41.007-1.221-40.128
								c-0.205-9.508,0.011-10.827,0.158-13.666c-1.303-15.033-0.138-55.862-1.442-55.722c0.046,5.5,0.114,14.456,0.477,22.52
								L485.456,399.872z"/>
							<path fill="#FFFFFF" d="M489.739,587.657c0.018-0.733,0.041-1.712,0.056-2.32
								C489.778,586.023,489.758,586.876,489.739,587.657z"/>
							<path fill="#FFFFFF" d="M476.375,737.171l-0.306-5.034c0.399-3.504,0.767-6.728,1.11-9.735
								c0.175-1.504,0.344-2.953,0.507-4.355c0.156-1.404,0.26-2.769,0.388-4.091c0.501-5.29,0.943-9.964,1.375-14.528
								c0.981-9.114,1.499-17.84,2.379-30.163c0.255-1.876,0.124,1.12,0.058,2.64c0.144-2.167,0.295-4.47,0.453-6.862
								c0.158-2.394,0.246-4.887,0.381-7.424c0.248-5.077,0.506-10.35,0.757-15.474c0.282-5.122,0.391-10.109,0.497-14.604
								c0.104-4.493,0.167-8.496,0.166-11.664c0.258-5.527,0.735-20.07,0.919-14.559c-0.031-2.698-0.053-5.782,0.031-8.883
								c0.341-0.815-0.031,6.941,0.231,7.125c0.065-2.458,0.146-3.415,0.054-3.982c0.196,4.143,1.199-4.272,0.79,15.026
								c-0.513,3.723-0.386,0.381-0.353-3.349c0.035-3.729,0.068-7.842-0.39-5.645c-0.121,6.399,0.216,5.663,0.309,6.213
								c-0.244,8.151-0.476,7.93-0.645,7.49c0.159,3.131-0.534,13.365-0.279,17.692c-0.095,3.963-0.247,5.884-0.341,6.704
								c-0.096,0.82-0.162,0.538-0.222,0.083c-0.119-0.908-0.212-2.502-0.464,2.664l0.552,5.997c0,0-0.253,4.294-0.507,8.589
								c-0.126,2.147-0.253,4.294-0.348,5.904c-0.042,0.806-0.093,1.476-0.133,1.944c-0.037,0.469-0.059,0.736-0.059,0.736
								c-1.439,24.859,1.71-3.468,0.202,24.988c-0.104-3.761-1.869,7.553-3.291,20.713c0.353-3.945,0.731-9.575,1.173-15.487
								c0.113-1.478,0.229-2.973,0.343-4.465c0.093-1.494,0.185-2.984,0.275-4.449c0.188-2.931,0.398-5.756,0.639-8.303
								c-1.667,14.337,1.306-19.804,0.025-12.387c-0.069,3.563-0.299,8.31-0.616,13.318c-0.176,2.503-0.355,5.072-0.532,7.594
								c-0.101,1.26-0.201,2.508-0.299,3.729c-0.134,1.217-0.266,2.408-0.393,3.559l0.205-3.027
								c-0.503,4.896-0.706,9.219-0.984,14.006c-0.14,2.395-0.297,4.904-0.521,7.66c-0.123,1.376-0.252,2.814-0.389,4.333
								c-0.178,1.512-0.4,3.099-0.643,4.779c-0.778,6.703-0.865,5.42-0.921,4.219c-0.276,2.842-0.538,5.532-0.73,7.514
								C476.627,735.903,476.469,737.174,476.375,737.171z M477.952,722.561c0,0,0.29-2.237,0.58-4.475
								c0.237-2.245,0.475-4.489,0.475-4.489c-0.169,1.06-0.33,2.428-0.484,3.97C478.329,719.103,478.137,720.812,477.952,722.561z"
								/>
							<path fill="#FFFFFF" d="M10.838,131.853c0.027-0.902,0.058-1.942,0.082-2.76C10.878,129.696,10.855,130.742,10.838,131.853z"
								/>
							<path fill="#FFFFFF" d="M191.039,799.234c0,0-1.322-0.113-2.644-0.228c-1.319-0.142-2.638-0.283-2.638-0.283
								C187.813,798.979,189.506,799.121,191.039,799.234z"/>
							<path fill="#FFFFFF" d="M73.758,779.434c0,0-1.875-0.483-3.75-0.968c-1.873-0.493-3.745-0.985-3.745-0.985
								C69.205,778.314,71.518,778.931,73.758,779.434z"/>
							<path fill="#FFFFFF" d="M10.992,194.628l-0.003,0.257c0.021,0.43,0.036,0.759,0.058,1.213L10.992,194.628z"/>
							<path fill="#FFFFFF" d="M13.409,582.438c0.115-1.167,0.229-2.477,0.347-4.271C13.664,578.379,13.544,579.976,13.409,582.438z
								"/>
							<path fill="#FFFFFF" d="M75.142,779.78c-0.189-0.06-0.298-0.094-0.448-0.141c-0.294-0.064-0.618-0.136-0.936-0.206
								L75.142,779.78z"/>
							<path fill="#FFFFFF" d="M243.597,803.084c1.146-0.078,2.188-0.149,3.418-0.233
								C245.403,802.938,244.415,803.013,243.597,803.084z"/>
							<path fill="#FFFFFF" d="M236.015,800.883c1.224-0.052,2.394-0.102,3.305-0.141L236.015,800.883z"/>
							<path fill="#FFFFFF" d="M413.176,764.447c0,0,1.648-0.163,3.287-0.188c1.645-0.09,3.276-0.045,3.276-0.046
								C416.524,764.144,414.588,764.295,413.176,764.447z"/>
							<path fill="#FFFFFF" d="M254.981,800.637c0.414-0.068,0.827-0.136,1.102-0.194
								C255.096,800.539,254.629,800.623,254.981,800.637z"/>
							<path fill="#FFFFFF" d="M13.755,86.851c-0.001,0.161-0.002,0.334-0.003,0.43l0.096,0.181L13.755,86.851z"/>
							<path fill="#FFFFFF" d="M12.804,69.604c0.017-2.032,0.034-4.147,0.051-6.227C12.802,65.689,12.788,67.942,12.804,69.604z"/>
							<path fill="#FFFFFF" d="M18.621,479.695c0.193-1.868,0.504-6.26,0.567-4.202C19.145,471.9,18.708,472.123,18.621,479.695z"/>
							<path fill="#FFFFFF" d="M18.72,121.412c-0.111-1.128-0.186-2.53-0.262-3.939C18.559,120.093,18.652,122.39,18.72,121.412z"/>
							<path fill="#FFFFFF" d="M18.458,117.473c-0.055-1.294-0.114-2.679-0.163-3.837C18.353,114.984,18.407,116.279,18.458,117.473
								z"/>
							<path fill="#FFFFFF" d="M23.865,527.624c-0.075,0.463-0.15,1.184-0.202,2.161C23.789,529.503,23.843,528.723,23.865,527.624z
								"/>
							<path fill="#FFFFFF" d="M13.104,58.349c-0.213-1.118,0.113-28.217-0.616-5.438c-0.611-0.895,0.09-14.624,0.192-20.716
								c-0.153,2.206-0.234,1.653-0.312,0.715c-0.039-0.489-0.085-1.078-0.116-1.46c-0.035-0.503-0.083-0.737-0.16-0.273
								c-0.012,1.552-0.025,3.25-0.041,5.202c-0.024,1.9-0.051,4.042-0.15,6.534c-0.357,2.284-0.332-5.285,0.004-11.198
								c-0.148,1.818-0.233,2.148-0.286,1.782c-0.027-0.183-0.045-0.541-0.06-0.974c-0.006-0.216-0.013-0.452-0.02-0.693
								l-0.003-0.444l0.003-0.53c0.007-1.402,0.012-2.687-0.045-2.682c-0.028,0.003-0.072,0.33-0.139,1.131
								c-0.049,0.7-0.126,1.807-0.24,3.448c-0.559,22.056-0.558,37.585,0.119,53.064c0.026-12.533,0.115-26.561,0.65-36.84
								l0.431,4.337c-0.756,11.609-0.534,18.789-0.761,30.213l0.77-25.662c0.749-12.015,0.64-3.965,0.532,5.512
								C12.915,61.047,12.995,58.938,13.104,58.349z"/>
							<path fill="#FFFFFF" d="M17.532,75.721l0.022-0.43c-0.013-0.376-0.018-0.842-0.038-1.081L17.532,75.721z"/>
							<path fill="#FFFFFF" d="M411.139,753.542l2.317-0.347C411.514,753.405,410.921,753.507,411.139,753.542z"/>
							<path fill="#FFFFFF" d="M14.671,90.972l0-0.018C14.675,91.127,14.674,91.169,14.671,90.972z"/>
							<path fill="#FFFFFF" d="M357.014,768.015c0.068-0.038,0.138-0.077,0.258-0.145
								C357.093,767.954,357.099,767.969,357.014,768.015z"/>
							<path fill="#FFFFFF" d="M347.138,784.02c0.105-0.01,0.142,0.002,0.379-0.054C348.629,783.546,348.076,783.711,347.138,784.02
								z"/>
							<path fill="#FFFFFF" d="M356.992,768.076c-0.006-0.015-0.045-0.018,0.021-0.062
								C356.98,768.046,356.896,768.095,356.992,768.076z"/>
							<path fill="#FFFFFF" d="M97.554,775.388c0,0,0.79,0.294,2.049,0.701C100.112,776.163,99.63,775.982,97.554,775.388z"/>
							<path fill="#FFFFFF" d="M148.595,787.188c0.325,0.074,0.517,0.118,0.935,0.215L148.595,787.188z"/>
							<path fill="#FFFFFF" d="M15.707,492.038c-0.105,2.601-0.165,4.553-0.204,6.2C15.588,496.341,15.664,494.289,15.707,492.038z"
								/>
							<path fill="#FFFFFF" d="M357.271,767.87c0.497-0.242,1.213-0.567,2.401-1.079
								C358.362,767.353,357.675,767.668,357.271,767.87z"/>
							<path fill="#FFFFFF" d="M20.115,754.954c0.538,0.161,1.041,0.313,1.55,0.466c-0.302-0.112-0.604-0.226-0.9-0.336
								L20.115,754.954z"/>
							<path fill="#FFFFFF" d="M13.509,733.548c0.027,0.939,0.075,1.371,0.111,1.898c0.14-9.8,1.06-27.778,0.561-29.931
								c-0.11,3.324-1.095,20.536-1.324,17.588c-0.111,6.831-0.894,16.905-0.937,20.584c0.368-5.597,0.501-5.895,0.532-3.848
								c0.031,2.021-0.045,6.509-0.083,10.133c-0.088,1.405-0.158,2.199-0.213,2.52c0.66,0.306,0.104,0.205-0.244,0.167
								c-0.037-0.151-0.075-0.225-0.122,0.084c0.13,0.087,0.704,0.318,2.004,0.788c0,0,3.856,1.3,7.712,2.601
								c3.783,1.247,7.566,2.494,7.566,2.494s-3.286-1.115-6.571-2.229c-3.301-1.147-6.602-2.295-6.602-2.295l4.216,0.853
								c-0.492-0.147-0.83-0.249-1.356-0.407c-2.779-0.932-4.875-1.634-6.449-2.161C12.772,740.912,13.04,754.492,13.509,733.548z"
								/>
							<path fill="#FFFFFF" d="M13.62,735.446c-0.021,1.469-0.026,2.759-0.004,3.764C13.69,736.996,13.666,736.135,13.62,735.446z"
								/>
							<path fill="#FFFFFF" d="M18.126,639.638c0.02-1.206,0.041-2.514,0.067-4.156C18.181,636.264,18.151,638.079,18.126,639.638z"
								/>
							<path fill="#FFFFFF" d="M487.896,665.185c-0.192,0.402-1.481,14.009-1.038,13.795c0.328-4.044,0.657-8.117,0.989-12.208
								L487.896,665.185z"/>
							<path fill="#FFFFFF" d="M23.135,378.527c0.109,1.517,0.219,3.039,0.329,4.561c0.041,0.325,0.08,0.64,0.109,0.883
								C23.622,383.037,23.279,380.04,23.135,378.527z"/>
							<path fill="#FFFFFF" d="M12.814,718.872c-0.028,2.508-0.002,3.627,0.043,4.231C12.884,721.479,12.885,719.98,12.814,718.872z
								"/>
							<path fill="#FFFFFF" d="M24.083,377.595c-0.026-1.945-0.055-4.816,0.073-5.236c-0.365-3.958-0.841-6.717-1.303-10.734
								C23.322,366.164,23.847,371.42,24.083,377.595z"/>
							<path fill="#FFFFFF" d="M22.814,361.298c0.014,0.113,0.028,0.226,0.04,0.326C22.84,361.512,22.828,361.411,22.814,361.298z"
								/>
							<path fill="#FFFFFF" d="M488.5,657.073c0.029-1.176,0.06-2.387,0.091-3.634l0.021,1.896c0.199-3.139,0.397-6.26,0.596-9.387
								c0.036-1.134,0.076-2.362,0.124-3.871c-0.015,0.608,0.007,1.081,0.039,1.376c0.067-1.019,0.134-2.014,0.199-3.009
								c0.004-3.751,0.01-10.283,0.016-16.553c0.031-6.269,0.087-12.271,0.034-14.96c-0.063-7.115-0.013-15.818,0.12-21.274
								c-0.1,5.058-0.132,11.774,0.149,9.764c0.22-5.134,0.536-8.946,0.759-13.694c0.219-4.747,0.243-10.433-0.003-19.302
								l-0.058,10.401l-0.819-23.389c0.183-4.096,0.323-1.178,0.427,3.17c0.084,4.348,0.152,10.126,0.313,11.75
								c-0.089-4.548-0.068-8.903-0.007-13.011c0.028-4.108,0.106-7.969,0.173-11.524c0.132-7.11,0.231-13.003-0.201-17.217
								c0.478-1.19,1.275-3.19,1.121-15.13c-0.48,8.613-0.42-7.154-0.954-0.087c-0.318-4.122,0.065-13.319-0.319-14.002l0.216,1.114
								c0.516-20.396-0.772-27.054-1.296-35.771c-0.533-24.407-0.377-35.626-0.66-55.541c0.32-0.786,1.173-6.216,1.069-14.205
								c-0.512-3.709-0.743-21.734-1.316-23.573c-0.192,14.29,0.479,11.689,0.681,20.24c-0.532,7.123-0.582,0.648-0.853,10.375
								c0.112-7.847-0.503-35.464,0.066-44.061l0.071,3.035c0.188-6.861,0.668-10.946,0.983-16.171
								c0.341-5.226,0.438-11.591,0.26-23.025l-0.15-10.913c0.047,0.527,0.112,0.588,0.158,0.87
								c0.173-8.927,0.457-12.164,0.654-15.636c0.198-3.472,0.333-7.179,0.34-17.031c-0.001,1.522,0.087,0.569,0.084,2.116
								c0.625-11.217,0.203-22.549,0.083-31.023c0.505-5.174,0.457,1.229,0.778,4.437c0.071-4.936,0.131-9.971-0.042-14.934
								c-0.127-4.963-0.264-9.858-0.64-14.504c-0.333-4.648-0.595-9.065-1.13-13.055c-0.485-3.993-0.86-7.593-1.33-10.61
								l-1.275-12.601c1.13,7.419,2.718,16.508,2.706,14.204c-0.409-3.472-0.708-4.856-0.967-6.608
								c-0.296-1.747-0.515-3.869-1.178-8.763c0.609,1.611,1.321,5.699,2.293,10.279c-0.506-5.102-0.847-7.936-1.124-9.526
								c-0.335-1.583-0.519-1.939-0.656-2.107c-0.277-0.34-0.369,0.082-1.126-7.065c-1.228-6.323-2.505-9.871-2.983-10.481
								c0,0-0.107-0.721-0.33-1.79c-0.213-1.071-0.497-2.5-0.781-3.929c-0.284-1.43-0.569-2.86-0.782-3.932
								c-0.22-1.071-0.366-1.786-0.366-1.786c-0.39-0.569-1.496-4.333-2.813-9.09c-1.342-4.755-2.904-10.503-4.099-15.074
								c-0.484-1.068,1.409,7.493,2.522,10.895c-0.538-0.582-3.29-10.246-4.814-16.544c0.101-0.636-0.467-3.53-1.328-7.399
								c-0.431-1.936-0.826-4.143-1.302-6.421c-0.447-2.283-0.987-4.644-1.361-6.946c-0.813-4.604-1.557-8.875-1.946-11.546
								c-0.383-2.674-0.5-3.723,0.171-1.917c-0.372-1.768-0.754-3.58-1.143-5.428c-0.098-0.462-0.194-0.926-0.293-1.393
								c-0.122-0.459-0.246-0.92-0.37-1.383c-0.249-0.925-0.501-1.858-0.755-2.799c-0.921-3.79-2.385-7.527-4.196-11.124
								c-1.827-3.593-4.165-6.958-6.894-9.978c-2.727-3.023-5.779-5.785-8.896-8.268c-6.254-4.977-13.175-8.525-19.727-10.407
								c-6.551-1.938-12.626-2.269-17.297-2.164c-3.093-0.154-7.813,0.155-10.799,0.514c-2.984,0.35-4.272,0.459-0.528-0.374
								c-5.733,0.854-10.696,2.096-15.257,3.428c-4.562,1.334-8.73,2.751-12.885,4.211c-8.316,2.889-16.539,6.084-27.813,9.105
								c-0.947,0.195,1.6-0.493,4.245-1.31c2.649-0.808,5.396-1.741,4.953-1.77c-7.185,2.45-13.897,4.286-21.791,5.626
								c-3.949,0.644-8.195,1.189-12.954,1.323c-2.378,0.086-4.882,0.035-7.529-0.118c-2.645-0.201-5.433-0.524-8.363-1.091
								c0.987,0.179,1.803,0.314,2.478,0.416c0.677,0.089,1.217,0.12,1.647,0.151c0.863,0.049,1.296,0.046,1.579,0.014
								c0.098,0.057-0.458,0.036-1.443-0.064c-0.492-0.051-1.096-0.1-1.772-0.191c-0.677-0.106-1.432-0.225-2.237-0.352
								c-3.22-0.554-7.178-1.672-10.07-2.782c-1.599-0.688-0.511-0.282,0.751,0.188c1.263,0.474,2.745,0.888,1.84,0.528
								c-1.367-0.453-2.669-1.05-3.98-1.584c-1.277-0.614-2.569-1.174-3.788-1.859c-2.486-1.276-4.798-2.782-7.046-4.307
								c-4.45-3.129-8.415-6.606-12.402-9.869c-3.98-3.26-7.96-6.404-12.279-8.784c-4.263-2.475-9.037-3.789-13.855-4.151
								c-4.835-0.365-9.71,0.338-14.48,1.542c-2.386,0.62-4.769,1.321-7.116,2.21c-2.371,0.806-4.705,1.777-7.062,2.739
								c-4.683,2.016-9.365,4.266-14.127,6.665c-4.765,2.436-9.64,4.928-14.662,7.495c5.77-2.908,9.631-5.097,12.084-6.535
								c2.446-1.458,3.47-2.205,3.474-2.353c0,0-2.819,1.41-5.639,2.819c-2.812,1.434-5.624,2.867-5.624,2.867
								c-4.184,2.503-12.635,6.849-19.926,10.147c-0.95,0.277-4.585,1.641-0.987-0.024c-5.864,2.238-11.188,3.98-16.396,5.241
								c-1.311,0.286-2.605,0.569-3.891,0.85c-1.304,0.188-2.599,0.376-3.891,0.563l-1.941,0.287
								c-0.649,0.069-1.301,0.093-1.953,0.143c-1.308,0.088-2.619,0.177-3.942,0.266c-10.603,0.337-21.924-1.236-36.806-4.697
								c0,0,2.283,0.406,5.707,1.014c1.719,0.287,3.725,0.621,5.874,0.979c2.16,0.31,4.464,0.641,6.769,0.972
								c2.323,0.231,4.631,0.535,6.812,0.688c2.186,0.111,4.215,0.294,5.963,0.311c1.747,0,3.203,0,4.223,0
								c0.509-0.003,0.908,0.006,1.181-0.006c0.272-0.02,0.418-0.03,0.418-0.03c0,0-0.576,0.004-1.437-0.086
								c-0.86-0.072-2.006-0.169-3.152-0.267c-1.145-0.088-2.286-0.19-3.137-0.338c-0.852-0.124-1.419-0.206-1.419-0.206
								s1.015,0.059,2.538,0.147c1.524,0,3.555-0.001,5.587-0.002c2.026-0.074,4.045-0.275,5.557-0.369
								c0.757-0.035,1.382-0.129,1.818-0.208c0.437-0.069,0.686-0.108,0.686-0.108c-9.6,0.675-18.06,0.139-19.168-0.36
								c2.048,0.06,6.94,0.576,7.11,0.228c-1.153-0.041-2.17-0.15-3.083-0.254c-0.915-0.088-1.725-0.167-2.46-0.238
								c-0.736-0.063-1.397-0.118-2.012-0.17c-0.614-0.069-1.182-0.133-1.731-0.195c-2.201-0.234-4.13-0.358-7.577-0.958
								c4.569,0.626,10.243,1.224,16.458,1.493c6.222,0.302,12.977-0.241,19.568-1.646c6.595-1.458,13.017-3.869,18.833-6.429
								c5.819-2.568,11.066-5.255,15.38-7.497c2.695-1.456-2.228,1.402-2.67,1.723c7.086-3.574,11.419-5.588,20.39-10.149
								c2.745-1.519,1.62-1.101-0.731,0.004c-2.355,1.1-5.916,2.902-8.132,4.005c0.456-0.619,2.651-1.771,7.614-4.236
								c0.645-0.036,7.473-3.399,15.365-6.328c1.997-0.676,4.02-1.406,6.044-2.002c2.021-0.605,4.029-1.102,5.911-1.479
								c3.767-0.764,7.036-0.968,8.872-0.884c3.8-0.178,6.599,0.146,8.594,0.457c0.5,0.082,0.952,0.155,1.36,0.221
								c0.404,0.087,0.765,0.165,1.086,0.234c0.643,0.137,1.133,0.22,1.485,0.314c1.422,0.329,0.863-0.005,0.262-0.34
								c-0.599-0.333-1.242-0.648,0.112-0.316c0.337,0.088,0.798,0.219,1.415,0.405c0.614,0.194,1.361,0.502,2.3,0.861
								c0.464,0.192,0.957,0.438,1.505,0.692c0.273,0.129,0.558,0.264,0.855,0.405c0.282,0.162,0.577,0.331,0.883,0.506
								c1.219,0.71,2.681,1.492,4.177,2.59c0,0,0.44,0.342,1.101,0.855c0.679,0.497,1.488,1.236,2.323,1.951
								c0.829,0.719,1.665,1.431,2.251,1.992c0.598,0.553,0.995,0.921,0.995,0.921c6.695,5.118,13.697,11.512,22.204,15.55
								c4.235,2.044,8.768,3.552,13.371,4.502c4.617,0.897,9.291,1.296,13.833,1.192c0,0-0.957,0.043-1.911,0.024
								c-0.478-0.002-0.955-0.004-1.313-0.005c-0.358,0.004-0.596-0.016-0.596-0.016c-1.272,0.056-0.866,0.173,0.099,0.303
								c0.966,0.098,2.492,0.198,3.433,0.229c6.927,0.003,13.489-1.241,19.276-2.627c5.799-1.393,10.869-2.958,15.047-3.955
								c7.63-2.647,17.714-6.554,28.438-9.961c5.365-1.689,10.909-3.204,16.362-4.276c5.453-1.057,10.813-1.684,15.683-1.724
								c2.629,0.44-3.763,0.224-11.537,1.468c-7.802,1.139-16.825,3.745-20.489,5.071c0,0,4.086-1.222,8.253-2.241
								c4.157-1.048,8.41-1.792,8.41-1.793c-5.244,0.963-8.81,1.958-11.829,2.882c-3.018,0.932-5.475,1.852-8.423,2.974
								c7.134-2.128,11.912-3.489,16.665-4.664c2.377-0.587,4.751-1.115,7.435-1.571c2.679-0.469,5.675-0.847,9.29-1.003
								c-0.56,0.119-0.354,0.193,0.819,0.21c1.175,0.056,3.323,0.038,6.651,0.301l1.942-0.319c0.119,0.056,0.854,0.185,2.908,0.5
								c0,0,0.4,0.068,1.102,0.187c0.701,0.119,1.705,0.273,2.894,0.556c2.391,0.488,5.535,1.39,8.572,2.579
								c3.047,1.166,5.975,2.625,8.079,3.859c1.063,0.604,1.938,1.12,2.526,1.52c0.598,0.386,0.938,0.607,0.938,0.607
								c-1.118-0.81-1.959-1.449-2.718-1.957c-0.752-0.516-1.359-0.995-2.042-1.427c-0.681-0.434-1.401-0.882-2.329-1.417
								c-0.962-0.47-2.099-1.103-3.688-1.728c2.12,1.264-3.126-1.281-9.788-2.713c2.936,0.526,1.348,0.063-0.981-0.506
								c-2.333-0.543-5.427-0.951-5.341-1.082c3.4,0.384,6.98,1.07,10.492,2.106c3.514,1.029,6.947,2.408,10.103,3.989
								c6.334,3.161,11.42,7.162,14.769,10.063c0,0,0.462,0.563,0.925,1.125c0.453,0.569,0.881,1.156,0.881,1.156
								c4.623,4.365,8.979,9.833,11.672,15.447c1.418,2.776,2.445,5.557,3.299,8.142c0.791,2.588,1.327,4.987,1.862,7.09
								l-0.918-2.584l0.699,2.777c0.231,0.924,0.373,1.841,0.565,2.76c0.36,1.833,0.72,3.662,1.077,5.481
								c0.631,3.604,1.256,7.175,1.872,10.695c0.572,3.511,1.287,6.916,1.932,10.268c0.603,3.358,1.331,6.632,1.979,9.834
								c3.521,12.636,8.521,28.499,11.504,39.02c0.242,0.691,0.556,1.807,0.929,3.259c0.35,1.46,0.72,3.271,1.144,5.324
								c0.396,2.062,0.933,4.344,1.308,6.835c0.391,2.486,0.807,5.132,1.234,7.85c0.24,1.355,0.375,2.741,0.529,4.131
								c0.156,1.39,0.313,2.787,0.469,4.179c0.294,2.784,0.691,5.545,0.916,8.205c0.4,5.319,0.904,10.207,1.328,13.951
								c-0.12-1.008-1.227-10.277-1.835-15.381c0.373,4.991,0.858,9.455,1.239,13.073c0.34,3.617,0.415,6.383,0.196,7.96
								c-0.101-2.8-0.176-4.88-0.23-6.398c-0.102-1.518-0.198-2.472-0.257-3.018c-0.124-1.092-0.154-0.551-0.168,0.373
								c-0.026,1.85,0.006,5.231-0.458,0.204c0.251,2.615,0.291,5.267,0.437,7.853c0.131,2.586,0.258,5.106,0.377,7.46
								c0.192,4.706,0.28,8.743,0.441,11.309c-0.255-16.938,0.96,6.008,0.394-11.146c0.234,3.324,0.352,6.947,0.507,10.768
								c0.173,3.823,0.214,7.827,0.224,11.911c0.084,8.176-0.141,16.639-0.407,24.524c-0.26-0.162-0.435,1.777-0.7,7.646
								l0.257,4.748c-0.267,7.365-0.073-14.262-0.605,0.568c0.062,3.815-0.008,8.591-0.13,13.713
								c-0.102,5.118-0.209,10.583-0.313,15.781c-0.096,5.198-0.208,10.127-0.156,14.178c0.059,4.051,0.201,7.219,0.493,8.888
								c-0.554,11.61-0.342-22.104-1.041-4.606c-0.213-5.095-0.073-11.151,0.017-16.354c0.089-5.203,0.142-9.553-0.131-11.238
								c-0.008,9.983-0.577,3.632-0.698,10.072l0.172,11.137l0.067-2.462c0.174,9.345,0.175,21.417,0.15,34.137
								c0.05,12.723,0.004,26.092,0.192,38.03c0.386,10.108,0.841,18.639,1.253,27.677c0.399,9.037,0.723,18.58,0.861,30.716
								c-0.456-7.159-0.065,20.159-0.931,4.891c-0.079,5.616,0.01,11.196,0.147,15.399c0.14,4.203,0.335,7.029,0.468,7.138
								c-0.033-9.885,0.042-3.477,0.066-11.804c0.391,5.615,0.539,18.57,0.397,23.894c-0.008-2.467-0.058-1.528-0.165-2.07
								c-0.077,11.805,0.378,5.653,0.594,14.184c-0.438,2.712,0.083,18.838-0.168,26.636l0.667,11.303
								c-0.448-6.21-0.098,10.831-0.543,12.614c0.228,8.109,0.756,14.913,0.492,27.266c-0.127-5.105-0.52,11.268-0.949,11.475
								c-0.206,5.285-0.243,10.118-0.285,14.709c-0.068,4.59-0.07,8.938-0.077,13.252c-0.007,4.314-0.02,8.595-0.108,13.047
								c-0.165,4.452-0.411,9.077-0.813,14.078c-0.068-0.627-0.147-4.684-0.546,1.166c-0.125,4.617-0.507,12.691-0.868,17.623
								l-0.002-0.156c-0.002,0.096-0.003,0.155-0.006,0.258c-0.146,2.416-0.199,3.938-0.1,4.004
								c-0.07,4.237-0.123,7.45-0.193,11.686c-0.06,2.118-0.083,4.495-0.248,7.378c-0.191,2.882-0.418,6.275-0.695,10.437
								c0.301-0.587,0.73-4.392,1.137-8.811c0.224-2.208,0.367-4.573,0.481-6.767c0.11-2.193,0.212-4.214,0.288-5.736l-0.113-5.287
								c0.543-2.484,0.773-6.236,0.932-9.841c0.187-3.604,0.132-7.065,0.373-8.97c0.258,5.015-0.308,14.701-0.92,25.298
								c-0.157,2.648-0.317,5.354-0.477,8.058c-0.218,2.701-0.436,5.4-0.648,8.038c-0.424,5.275-0.807,10.308-1.077,14.628
								c0.819-5.218,1.824-13.542,2.772-23.059c0.36-4.765,0.744-9.824,1.131-14.94c0.18-2.56,0.359-5.133,0.539-7.69
								c0.086-1.278,0.172-2.554,0.257-3.821c0.059-1.268,0.117-2.527,0.175-3.776c0,0-0.188,2.195-0.376,4.39
								c-0.227,2.194-0.453,4.389-0.453,4.389s0.177-2.612,0.354-5.224c0.127-2.613,0.255-5.226,0.255-5.226
								s-0.255,2.521-0.51,5.042c-0.302,2.52-0.604,5.038-0.604,5.038c0.434-4.941,0.587-9.557,0.808-14.051
								c0.213-4.494,0.421-8.868,0.633-13.341c-0.51,10.473-1.385,14.515-0.984,8.599c1.051-11.644,0.336-12.17,0.63-21.082
								c-0.186,4.962-0.455,11.415-0.567,7.243c0.578-8.776,0.81-14.357,1.04-19.738c0.122-2.689,0.242-5.33,0.376-8.297
								c0.115-2.966,0.269-6.258,0.497-10.251c-0.867,1.967,0.322-19.975-0.409-22.372c0,0-0.029,1.853-0.059,3.706
								c-0.04,1.853-0.079,3.706-0.079,3.706s-0.016-0.983-0.04-2.458c-0.036-1.475-0.085-3.44-0.134-5.406
								c-0.098-3.931-0.195-7.861-0.195-7.861c0.756-14.503,0.593,12.851,1.204-9.226c0.104-10.187-0.166-15.143-0.368-19.558
								c-0.23-4.413-0.444-8.284-0.53-16.284c0.529,5.267,0.95,17.964,0.976,30.882l0.213-7.823
								c0.343,4.136,0.147,22.021,0.063,30.943c-0.478-14.751-0.156,6.896-0.79,13.604c0.444,1.241,0.541-8.233,0.714,2.958
								c0.176-10.477,0.202-12.008,0.426-25.335c-0.158,14.398,0.076,20.883,0.354,26.912c0.137,3.015,0.27,5.915,0.316,9.635
								c0.07,3.719-0.032,8.26-0.343,14.552c0.165-11.611-0.803,4.027-1.074,5.414c-0.059,2.73-0.147,6.865-0.233,10.887
								c-0.121,4.023-0.239,7.934-0.309,10.213l0.878-4.095c-0.219,7.344-0.748,12.273-1.24,17.484
								c-0.444,5.212-1.048,10.701-1.291,19.186c0.249,2.229,1.177-14.879,1.041-11.828c-0.609,11.593-1.286,19.463-2.149,26.986
								c-0.984,7.521-2.055,14.7-3.266,24.936c0.102,1.183,0.528,0.984,0.029,8.197c-0.132-2.298-0.975,2.981-0.3-5.113
								c-0.992,6.83-1.673,14.978-2.244,21.043c0.976-7.116,0.944-5.641,0.659-2.05c-0.148,1.799-0.335,4.11-0.536,6.169
								c-0.21,2.064-0.415,3.856-0.453,4.533c-1.276,7.539,0.041-2.396,0.43-6.946c-0.815,5.942-2.617,13.037-2.764,16.631
								c-0.228,0.073,0.393-4.26,1.001-9.915c0.318-2.835,0.621-5.996,0.893-9.113c0.288-3.128,0.599-6.245,0.901-8.994
								l-0.958,7.396c0.397-5.128,0.573-6.073,1.522-13.415c-1.192,7.155-1.469,6.399-1.568,4.689
								c0.175-0.935,0.037,0.536,0.206-0.356c0.817-5.9,1.247-10.449,0.857-9.103c0.069-5.376-1.341,8.157-2.104,12.125
								c-0.326,3.029-0.651,6.06-0.971,9.029c0,0-0.09,1.925-0.341,4.852c-0.245,2.924-0.611,6.833-1.142,10.785
								c-0.518,3.949-1.251,7.953-2.053,11.045c-0.214,0.778-0.387,1.483-0.587,2.126c-0.208,0.645-0.39,1.207-0.538,1.671
								c-0.144,0.461-0.315,0.844-0.41,1.103c-0.16,0.369-0.246,0.565-0.246,0.565c-0.2,0.43-0.398,0.854-0.594,1.274
								c-0.228,0.389-0.453,0.772-0.676,1.151c-0.454,0.751-0.855,1.528-1.406,2.128c-0.967,1.364-2.145,2.277-3.271,3.196
								c-1.57,1.053-3.369,1.632-5.101,1.724c-1.735,0.105-3.363-0.288-4.872-0.873c-1.511-0.606-2.895-1.502-4.182-2.465
								c-0.638-0.466-1.288-1.018-1.844-1.477c-0.342-0.296-0.682-0.589-1.021-0.882c-2.547-2.114-4.998-4.189-8.233-6.202
								c0,0-0.594-0.216-1.188-0.433c-0.293-0.115-0.601-0.195-0.827-0.264c-0.228-0.067-0.379-0.111-0.379-0.111
								c-9.097-5.135-18.961-6.727-12.243-5.89c0.32,0.254,1.65,0.626,3.8,1.358c0.302,0.045,0.809,0.188,1.441,0.388
								c0.217,0.044,0.338,0.069,0.518,0.105c-5.272-1.979-9.779-2.821-12.987-3.271c-3.217-0.439-5.158-0.446-5.478-0.495
								c4.806,0.138,7.229,0.568,8.277,0.615c1.047,0.066,0.7-0.117-0.146-0.402c-1.668-0.646-5.445-1.314-3.766-1.557
								c0,0-1.227-0.185-3.091-0.276c-0.93-0.07-2.014-0.141-3.185-0.138c-1.167-0.029-2.412-0.043-3.663,0.019
								c-0.624,0.02-1.248,0.038-1.862,0.058c-0.615,0.046-1.221,0.092-1.807,0.136s-1.152,0.086-1.689,0.126
								c-0.536,0.063-1.044,0.121-1.513,0.176c-1.874,0.196-3.121,0.404-3.121,0.403c1.519-0.201,2.663-0.228,3.491-0.298
								c0.829-0.057,1.343-0.078,1.605-0.059c0.524,0.033,0.044,0.078-0.948,0.226c-1.983,0.263-6.009,0.812-8.135,1.292
								c-0.63-0.146-4.646,0.551-9.344,1.787c-4.699,1.222-10.066,2.97-13.524,4.08l0.478-0.259
								c-6.448,1.857-17.577,6.03-25.572,9.084c0.213,0.012-2.188,1.141-5.271,2.528c-3.076,1.407-6.896,2.947-9.354,4.009
								c7.102-2.19,8.534-2.635,8.385-2.463c-0.15,0.168-1.904,0.912-1.294,0.86c-1.461,0.473-4.104,1.309-4.39,1.473
								c-1.982,0.792,2.809-0.719,3.262-0.695c7.452-2.651,14.818-5.51,21.051-7.896c6.231-2.406,11.339-4.338,14.182-5.601
								c-4.535,1.146-7.459,2.796-12.5,4.386c3.51-1.503,7.579-3.04,12.275-4.594c4.697-1.545,10.023-3.109,16.055-4.472
								c0,0.001,1.012-0.114,2.021-0.216c1.006-0.101,2.013-0.202,2.013-0.202s0.755-0.146,1.886-0.363
								c1.132-0.239,2.641-0.474,4.15-0.709c1.51-0.244,3.018-0.377,4.15-0.529c1.131-0.092,1.884-0.153,1.884-0.153
								c-2.511,0.235-3.001,0.526-4.437,0.794c-1.437,0.329-3.82,0.654-10.136,1.99c0.848,0.022,3.974-0.691,7.856-1.265
								c3.881-0.606,8.523-1.02,12.33-0.892c0,0,0.977-0.105,1.953-0.212c0.49-0.056,0.983-0.112,1.349-0.123
								c0.367-0.021,0.611-0.035,0.611-0.035c-0.379,0.045,0.353,0.166,1.477,0.311c1.129,0.12,2.619,0.437,3.813,0.626
								c1.18,0.252,2.04,0.494,1.908,0.532c-0.136,0.062-1.248-0.153-4.092-0.391c0,0-0.288-0.032-0.791-0.089
								c-0.508-0.029-1.233-0.072-2.104-0.124c-0.436-0.024-0.907-0.051-1.406-0.078c-0.502-0.003-1.032-0.006-1.58-0.009
								c-0.548-0.004-1.113-0.009-1.688-0.013c-0.578,0.023-1.166,0.048-1.753,0.072c-1.172,0.026-2.351,0.116-3.456,0.221
								c-1.104,0.077-2.137,0.194-3.023,0.317c-1.771,0.201-2.954,0.41-2.954,0.41s1.333-0.103,2.653-0.123
								c0.66-0.021,1.319-0.042,1.814-0.058c0.492,0.006,0.82,0.009,0.82,0.009s-0.248,0.017-0.682,0.045
								c-0.436,0.046-1.057,0.112-1.803,0.192c-1.491,0.134-3.488,0.437-5.485,0.75c-3.997,0.651-8.008,1.649-8.009,1.65
								c0,0,0.932-0.305,1.864-0.572c0.934-0.264,1.867-0.528,1.867-0.528c-6.438,1.425-10.151,2.54-12.508,3.12
								c-2.357,0.627-3.355,0.802-4.357,0.989c-2.014,0.436-4.006,0.687-17.039,5.742c-4.012,1.807-8.239,3.571-13.582,5.568
								c-2.667,0.998-5.627,2.06-9,3.129c-3.369,1.075-7.083,2.336-11.354,3.477c3.062-0.921,4.658-1.441,5.395-1.761
								c0.741-0.3,0.641-0.336,0.301-0.302c-0.679,0.067-2.311,0.415-0.084-0.51c-3.11,0.953-5.745,1.613-7.986,2.308
								c-2.252,0.657-4.127,1.304-5.846,1.784c-3.423,1.01-6.07,1.913-9.319,2.853c-1.66,0.192-3.079,0.348-2.665,0.144
								s2.671-0.72,8.296-2.175c0.608-0.556-3.064,0.495-7.085,1.447c-4.025,0.93-8.361,1.923-8.953,1.67
								c-18.834,3.752-26.437,5.04-34.851,6.5c-2.107,0.333-4.269,0.663-6.677,0.999c-2.409,0.304-5.069,0.545-8.167,0.821
								c-6.195,0.52-14.164,0.847-25.404,0.688c0,0,0.421-0.072,0.842-0.144c0.42-0.08,0.841-0.159,0.841-0.159
								c-14.264,0.245-25.499-0.362-36.425-1.2c-10.929-0.848-21.552-2.056-34.58-3.859c0,0-1.274-0.233-3.185-0.583
								c-1.903-0.385-4.44-0.896-6.978-1.408c-2.539-0.503-5.069-1.036-6.958-1.472c-1.892-0.42-3.154-0.7-3.154-0.7
								c4.556,0.789,16.912,2.189,11.252,0.89c9.775,2.438,20.397,3.616,31.14,5.153c1.124-0.095-3.258-0.672-5.151-1.022
								c6.504,0.683,9.73,1.451,18.37,1.972c-0.406-0.194-9.788-1.146-2.696-0.669c0,0,2.921,0.356,5.843,0.713
								c2.93,0.292,5.86,0.584,5.86,0.584c1.968,0.085,3.565,0.138,4.891,0.167c1.327,0.002,2.381-0.019,3.26-0.046
								c1.758-0.056,2.817-0.149,3.961-0.227c1.144-0.089,2.371-0.112,4.469-0.152c2.098-0.042,5.063-0.025,9.685,0.06
								c-3.431,0.386-10.476,1.042-17.65,0.829c4.229,0.188,1.408,0.159-1.51,0.146c-2.918,0.015-5.922-0.116-2.071,0.249
								c6.115-0.119,10.629,0.054,15.661,0.044c5.025,0.071,10.566,0.044,18.674-0.428c-1.902,0.174-2.402,0.341-6.398,0.434
								c0,0,1.473-0.009,3.684-0.021c2.21-0.071,5.157-0.166,8.104-0.262c2.949-0.059,5.892-0.303,8.102-0.417
								c2.209-0.133,3.683-0.222,3.683-0.222c-1.464,0.013-0.981-0.094,0.528-0.267c1.51-0.187,4.041-0.501,6.687-0.829
								c5.297-0.584,11-1.591,9.879-1.691c-6.229,0.812-10.468,1.092-13.734,1.442c-3.269,0.348-5.592,0.438-8.018,0.646
								c-2.427,0.184-4.963,0.39-8.683,0.505c-1.859,0.069-4.012,0.148-6.593,0.244c-2.581,0.019-5.59,0.041-9.161,0.067
								c8.087-0.198,18.483-1.158,23.304-2.076c0.249,0.004,0.66-0.008,1.536-0.061c4.302-0.854-0.137-0.684-0.116-1.64
								c-1.609,0.199-3.154,0.375-4.654,0.532c-1.501,0.142-2.96,0.223-4.394,0.316c-2.869,0.151-5.642,0.353-8.49,0.371
								c-2.848,0.045-5.768,0.092-8.932,0.142c-3.163-0.018-6.569,0.001-10.392,0.051c-0.721,0.106-0.529,0.221,0.285,0.331
								c0.814,0.092,2.25,0.168,4.015,0.226s3.857,0.097,5.985,0.118c2.127-0.009,4.29-0.08,6.191-0.141
								c0,0-0.842,0.036-2.106,0.091c-1.264,0.042-2.95,0.151-4.636,0.171c-3.373,0.057-6.747,0.114-6.747,0.114l2.659-0.217
								c0,0-2.139-0.03-5.348-0.075c-3.205-0.134-7.481-0.26-11.75-0.482c-4.264-0.292-8.537-0.481-11.727-0.792
								c-3.192-0.274-5.321-0.458-5.321-0.458c3.229,0.247,5.397,0.34,7.18,0.375c1.784,0.021,3.186-0.049,4.878-0.06
								c-4.401-0.229-8.735-0.779-13.344-1.29c0.93,0.551,0.28,0.931-3.996,0.464c-21.863-2.337-33.802-5.026-41.667-6.933
								c-0.829-0.141-1.763-0.299-2.515-0.426c1.764,0.57-2.111,0.134-7.261-0.632c-5.144-0.815-11.577-1.836-14.942-2.369
								c0.223-0.233-2.529-0.878-6.079-1.752c-3.545-0.894-7.922-1.889-10.948-2.802c-3.402-0.238,0.728,1.717,8.133,3.929
								c3.643,0.729,5.99,1.129,7.561,1.375c1.569,0.25,2.363,0.345,2.919,0.38c1.112,0.066,1.271-0.09,4.78,0.258
								c0,0,1.465,0.262,3.663,0.653c2.2,0.38,5.121,0.943,8.061,1.409c2.938,0.472,5.877,0.944,8.081,1.298
								c2.209,0.323,3.681,0.538,3.681,0.538s-1.333-0.098-2.667-0.194c-1.33-0.118-2.66-0.237-2.66-0.237
								c11.671,2.312,23.093,3.195,22.138,3.711c-3.137-0.261-7.28-0.763-11.394-1.396c-4.11-0.649-8.229-1.23-11.328-1.619
								c0,0,0.481,0.103,1.204,0.257s1.685,0.365,2.653,0.547c1.934,0.376,3.868,0.753,3.868,0.753
								c-6.917-0.797-8.628-1.35-10.712-1.883c-2.082-0.553-4.519-1.173-12.794-2.645c5.961,1.72-1.516-0.199-8.614-1.434
								c1.394,0.395,3.896,0.996,6.797,1.622c2.909,0.596,6.205,1.27,9.169,1.876c5.944,1.141,10.554,2.067,7.984,2.063
								c-2.171-0.304-5.064-0.829-8.346-1.529c-3.273-0.735-6.954-1.568-10.706-2.465c-3.743-0.934-7.588-1.818-11.189-2.668
								c-3.6-0.855-6.993-1.546-9.854-2.02l0.574,0.037c-4.129-1.065-7.602-1.908-10.575-2.633
								c-2.967-0.745-5.446-1.334-7.606-1.824c-4.324-0.962-7.351-1.636-10.47-2.329c-3.461-1.099-7.6-2.313-11.842-3.46
								c-4.228-1.186-8.535-2.375-12.295-3.509l0.262-0.195l-10.6-3.216c5.17,1.138,12.374,3.919,21.518,6.582l-0.993-0.813
								c10.362,3.667,17.661,4.81,25.994,6.586c-6.047-1.371-14.46-3.762-21.72-5.855c-7.258-2.098-13.377-3.866-14.905-3.845
								l-7.156-2.764l-3.542-0.941c-5.305-2.121,0.394-0.831,10.976,2.344c1.793,0.697,2.697,1.024,2.109,0.956
								c4.979,1.271,9.578,2.32,21.486,5.84c0,0-1.61-0.394-3.221-0.787c-1.609-0.399-3.218-0.8-3.218-0.8
								c14.837,4.364,28.53,7.664,33.792,8.444c-21.641-5.543-42.673-11.791-62.597-18.178c-6.219-0.824-13.367-2.556-16.683-2.578
								c-1.909-0.621-3.916-1.273-5.989-1.948c-3.713-1.247-7.544-2.533-11.437-3.841c0.265-7.443,0.54-15.163,0.799-22.447
								c0.231-5.539,0.495-10.745,0.792-15.077l0.16,1.123c0.328-5.92,0.477-11.382,0.53-15.938
								c0.504-6.248,0.384,4.305,0.694-0.052l0.404-20.035c0.42,1.252-0.209,18.102-0.476,26.104
								c0.017-1.512,0.054-4.563-0.045-3.587c-0.541,9.3-0.396,26.668-1.223,30.712c-0.052,4.539-0.152-9.23-0.763,6.119
								c-0.053,1.006-0.104,1.958-0.151,2.858c-0.056,1.334-0.108,2.591-0.158,3.772c-0.074,2.354-0.139,4.413-0.195,6.194
								c3.924,1.282,6.695,2.113,8.621,2.651c0.48,0.131,0.911,0.248,1.296,0.354c0.191,0.05,0.372,0.097,0.542,0.141
								c0.176,0.046,0.337,0.087,0.396,0.094c0.343,0.056,0.596,0.096,0.782,0.126c0.029-0.023-0.171-0.123-0.538-0.278
								c-0.1-0.04-0.211-0.086-0.332-0.135c-0.196-0.073-0.408-0.153-0.634-0.237c-0.452-0.167-0.96-0.354-1.511-0.558
								c-2.185-0.789-5.051-1.824-7.709-2.784c0.33-6.133,0.619-11.042,0.6-6.15c0.052-1.636,0.101-3.148,0.146-4.576
								c0.018-0.873,0.034-1.694,0.05-2.487c0.025-1.584,0.048-3.054,0.073-4.593c0.058-3.078,0.162-6.434,0.481-11.545
								c-0.132,3.966-0.166,8.646-0.237,12.86c-0.035,2.107-0.08,4.099-0.152,5.825c-0.067,1.402-0.129,2.698-0.185,3.858
								c-0.069,1.195-0.146,2.261-0.231,3.172c-0.019,1.182-0.036,2.303-0.052,3.297c2.733,0.863,5.044,1.573,6.971,2.145
								c0.958,0.277,1.826,0.53,2.61,0.758c0.228,0.065,0.295,0.077,0.422,0.109c0.115,0.026,0.227,0.053,0.335,0.079
								c0.218,0.049,0.422,0.095,0.615,0.139c1.542,0.334,2.313,0.394,2.47,0.258s-0.3-0.466-1.214-0.908
								c-0.457-0.222-1.027-0.471-1.692-0.739c-0.259-0.108-0.879-0.337-1.409-0.53c-0.552-0.197-1.133-0.404-1.739-0.62
								c0.608,0.319-2.07-0.507-5.865-1.723c0.052-2.59,0.114-5.652,0.17-8.441c0.011-1.016,0.022-1.981,0.032-2.83
								c-0.002-0.781-0.004-1.454-0.005-1.955c-0.017-1.004-0.064-1.322-0.166-0.456c-0.051,0.434-0.115,1.163-0.195,2.252
								c-0.038,0.545-0.083,1.179-0.134,1.91c-0.06,1.089-0.128,2.321-0.206,3.712c0.016-2.658,0.036-5.862,0.057-9.392
								c0.058-3.072,0.121-6.427,0.186-9.87c0.156-6.887,0.348-14.129,0.418-20.176l0.08,0.553l0.437-15.004
								c0.059,2.117,0.007,6.656,0.265,6.815l0.07-20.802c0.038,11.712,0.602-7.236,1.011-12.551
								c-0.32-2.24-0.313-10.365-0.835-2.588c-0.621,8.741,0.028,5.104-0.239,13.063l-0.215-11.294l0.099-0.965l-0.268-6.803
								c0.612-15.351,0.96,6.751,1.188-12.938l-0.807,2.532c0.958-22.77,2.852-51.986,3.127-68.09
								c0.238,4.454,0.814,6.436,1.428,0.347c-0.382,6.935-0.878,20.879-1.185,30.833c-0.196,1.91-0.374-12.466,0.184-23.271
								c-1.359,5.194-0.316,27.221-1.542,28.447c-1.443,27.531,0.366,20.591-1.202,43.946c0.515,0.342,0.008,6.656,0.427,7.902
								c1.119-6.889,1.141-31.258,2.01-46.419c-0.017,1.487-0.05,4.479,0.027,5.067c0.561-10.841,0.612-15.326,0.699-22.911
								l-0.098,0.953c-0.019-13.259,0.7-8.178,1.224-15.961c0.035-3.021,0.593-13.851,0.141-12.123l1.029-14.092l-0.614,0.658
								c0.264-7.96,0.717-9.688,0.629-16.915l-0.513-0.354l-0.923,19.76c0.203-10.024-0.4-2.812-0.098-13.823
								c0.115,12.318,0.618-8.688,1.151-9.881l0.007-8.107l0.063,2.075c0.509-6.344,0.087-7.572,0.434-14.985
								c-0.621,8.735-1.205,14.449-1.249,25.608c0.008-8.125,0.283-24.229,0.413-28.18c0.099-8.527,0.723-14.461,1.08-22.43
								c-0.362,15.306,1.797-5.298,0.271,25.343c-0.08-0.571,0.036-3.052,0.134-4.011c-0.826,4.063-0.646,18.378-0.638,25.034
								c0.451-1.697,0.287,5.257,0.942-6.519c-0.393,3.856-0.491-9.96,0.246-21.159l0.755,2.006l0.708-16.32l-0.018,1.529
								c0.764-6.12,0.55-17.42,1.284-28.648c0.008-8.126,1.409-39.249,0.041-25.887c0.898-10.07,0.582-18.96,0.795-29.915
								l-0.779,13.664c-0.008-8.09-0.01-10.968-0.013-13.444c-0.009-1.237-0.032-2.374-0.086-4.01
								c-0.03-0.818-0.065-1.761-0.107-2.904c-0.053-1.14-0.177-2.463-0.293-4.065c0.223-1.29,0.4-4.144,0.647-1.542
								c0-2.688-0.001-5.521-0.001-8.443c0.001-2.923,0.045-5.94-0.152-8.976c-0.216-6.074-0.699-12.323-1.208-18.305
								c-0.29-2.997-0.574-5.924-0.845-8.728c-0.307-2.816-0.599-5.509-0.873-8.024c-0.563-5.033-1.049-9.408-1.513-12.596
								c-0.589-7.712-0.681-12.19-0.811-17.436c-0.158-5.247-0.376-11.261-1.121-22.055c-0.333-4.546-0.621,3.586-1.048-10.736
								c0.012-0.965,1.231,13.746,0.456-2.183c-1.148-11.321-0.682-26.658-1.613-41.396c0.004-7.797-0.336-21.312,0.217-18.506
								c0.123,12.34,0.718,29.8,1.061,32.452c-0.357-1.695-0.021,8.786-0.539-0.3c0.087,9.333,0.309,12.358,0.496,15.142
								c0.192,2.784,0.389,5.326,0.626,13.7c0.26,1.145,0.168-8.627-0.122-12.207c0.329-0.052,0.747,8.192,1.13,14.585
								c0.391,6.393,0.755,10.934,0.792,3.481c-0.371-8.937-0.964-14.717-1.416-20.205c-0.474-5.488-0.818-10.684-0.691-18.44
								c0.307,3.099,0.446,7.078,0.632,11.266c0.208,4.188,0.461,8.585,0.968,12.514l-0.189-12.736l-0.786-9.221l0.119,0.546
								c0-22.495-1.289-20.774-2.015-40.888c-0.273,11.665-1.243-2.675-1.381,6.101c-0.343-13.458-0.353-23.343,0.327-23.441
								c0.922,25.164,0.724,1.42,1.806,24.674c0.18-3.822,1.107,5.519,0.938-8.342c-0.74-15.609-0.518,4.682-0.969-10.892
								c0.049-0.921,0.098-1.878,0.207-1.335c-0.462-7.16,0.025-8.36-0.463-17.026l0.159,2.054
								c0.316-10.692-0.572-11.689-0.173-20.894c-0.496,3.683-0.445-6.176-0.783-11.883c-0.158,9.329-0.898,14.382-0.688,32.793
								c0.428,2.22,0.639,0.873,0.912,8.431l-0.172-11.964c0.121,2.58,0.212,4.547,0.323,6.912l-0.07,11.495
								c-0.48-14.567-0.815-7.88-1.309-14.069c0.047-13.338-0.199-11.004-0.133-19.392c0.592,0.839,0.894-25.717,1.362-41.065
								c-0.014,2.384-0.031,5.461-0.04,7.123c0.355,11.15,0.504-7.671,0.68-8.082l-0.258-8.127c0.033,1.53,0.162,3.646,0.262,0.181
								c-0.035-11-0.643-10.365-0.64-21.35c0.335-0.821,0.737,8.469,0.978,1.642c0.311-2.352,1.128-9.839,1.073-24.43
								c-0.108-1.036-0.124-4.818-0.089-9.204c0.006,0.609,0.005,1.375,0.022,1.65l0.549-9.683
								c0.377,8.267-0.587,16.692-0.144,24.998l0.521,0.712c-0.091,6.456,0.047,15.226,0.283,19.259
								c0.188-9.84,0.071-11.913,0.115-22.92c0.354-1.535,0.498,6.218,0.521,7.335l-0.281-1.646
								c-0.609,13.12,0.275,19.626,0.083,35.961c-0.033,2.466-0.065,0.961-0.164,0.411c0.443,13.227-0.265,26.201,0.46,39.055
								l-0.296-4.19c0.251,8.752,0.853,25.862,1.58,42.948l0.208,0.135c0.098-1.899,0.18,4.516,0.143,7.961l-0.003-0.018
								c0.396,8.564,0.778,16.794,1.09,23.527c0.083-2.156,0.122-4.914,0.093-8.077c-0.295-2.674-0.362-18.38-0.866-16.219
								c0.218-7.26-0.38-18.945-0.222-24.277c-0.265,9.713-0.579-6.757-0.882-8.458c0.313-3.267-0.098-14.392,0.374-13.122
								c0.116-1.917-0.294,4.771,0.007,8.899c0.486,10.167,0.299-18.623,0.771-5.954c-0.406-16.112-0.229-37.347-0.527-53.971
								l-0.252,9.304c0.094-7.389,0.162-24.878,0.409-26.182c-0.003,5.491-0.078,11.907-0.03,18.933
								c0.513,0.344,0.137-16.878,0.481-17.656l-0.592-20.41l-0.167,8.934c-0.246-5.633,0.437-24.309,0.898-38.145
								c0.499,7.956-0.49,20.88-0.412,35.454c0.129,10.583,0.784-6.524,0.822,3.491c0.195-2.594,0.289-9.125,0.156-12.351
								l0.203-3.946c0.479,8.94,0.06,28.958,0.538,42.292c-0.062-1.17-0.128-2.191-0.202-2.561
								c-0.338,10.259-0.379,20.684-0.217,30.689c0.22-5.292,0.077-7.386,0.016-10.411c0.155-0.375,0.21,9.069,0.382,12.643
								c0.209-9.306,0.391-1.735,0.511-7.623c0.142,6.061,0.086,10.97,0.03,18.355c-0.245,3.83-0.344-3.167-0.668-2.386
								c0.198,7.606-0.563,11.087-0.137,22.218c0.063-14.808,0.721,3.898,0.988,8.995l0.005-2.481
								c0.409,4.691,0.466,8.674,0.153,11.922c-0.226-6.058-0.152-11.922-0.528-10.195c0.039,4.002,0.104,7.993,0.266,12.524
								l-0.322-4.119l0.324,19.89c0.377,3.145,0.962,8.395,1.512,11.14c-0.236,4.775,0.171,11.41,0.388,15.93l-0.188-2.101
								c-0.133,8.776,0.696,28.268,1.063,29.899c-0.11,6.279-3.209-44.212-1.644,0.054c0.597,16.824,1.315,10.446,2.041,20.026
								c0,0-0.122-0.538-0.144,0.417c0.245,7.358,0.633,8.081,1.096,14.112c-0.089-4.411-0.351-10.8-0.576-12.853
								c0.476,2.197,0.652,15.312,1.284,20.919c-1.042-7.265,0.582,14.201-0.064,8.554c0.247,7.308,0.788,14.851,1.458,21.501
								c0.305,3.331,0.712,6.425,1.056,9.17c0.346,2.739,0.691,5.135,1.001,7.046c0.108,4.984,0.549,9.343,1.099,14.492
								c0.298,2.563,0.541,5.355,0.804,8.511c0.125,1.58,0.272,3.248,0.37,5.042c0.062,1.799,0.128,3.715,0.198,5.768
								c-0.095-2.524-0.417-7.097-0.645-10.595c-0.6-4.625-0.344-0.398-0.13,3.197c0.121,1.795,0.128,3.458,0.107,3.757
								c-0.056,0.307-0.109-0.755-0.491-4.317c0.309,3.049,0.279,0.199-0.038-2.929c-0.439-5.488-1.165-10.581-1.259-9.194
								c0,0,0.224,3.295,0.344,6.623c0.142,3.318,0.285,6.637,0.285,6.637l-0.471-4.612c0,0,0.058,1.258,0.144,3.145
								c0.114,1.882,0.138,4.414,0.188,6.938c0.022,2.525,0.148,5.049,0.073,6.94c-0.051,1.891-0.085,3.151-0.085,3.151
								c0.101,0.546,0.219-1.347,0.278-2.319c-0.021,5.846-0.043,11.901-0.065,18.016c-0.183,6.077-0.367,12.214-0.549,18.261
								c-0.401,12.063-0.782,23.758-1.2,33.906c1.253,3.865-1.273,49.99-1.03,66.424c-0.236-4.412-0.853-6.843-1.245-4.133
								c0.078-3.66-0.206-11.169,0.223-19.457c0.273-1.316,0.911-11.551,0.921-4.948c0.699-22.929-0.729,3.079-0.995-3.706
								c-0.815,25.403-0.555,40.332-0.827,56.376l-0.18,0.399l-0.142,12.117c0.463-9.889,1.236-9.37,0.482,3.37l0.019-1.553
								c-0.605,7.261-0.781,22.405-1.257,33.764l0.169,7.72c-0.478,11.376-1.349,11.833-1.997,15.513
								c-0.728,17.831-0.415,28.155-0.474,40.838c-0.586,5.713-1.675,32.421-1.596,18.252c-0.274,16.098,1.838,12.927-0.298,40.474
								l-0.091-7.173c-0.157,5.043-0.327,10.497-0.502,16.104c-0.079,2.804-0.158,5.646-0.238,8.494l-0.077,3.207
								c-0.007,0.588-0.014,1.175-0.021,1.758c7.473,2.412,14.727,4.753,20.878,6.738c7.146,2.3,13.029,4.118,16.561,5.355
								c-4.819-0.828,2.912,1.95,12.421,5.095c9.503,3.159,20.815,6.555,22.922,7.741c-1.187-0.606,8.394,1.825,9.837,1.986
								c2.067,0.651,5.521,1.72,9.31,2.314c-4.961-1.293-3.125-1.218-2.458-1.283c0.669-0.077,0.182-0.326-9.379-2.457
								c2.458,0.391,5.083,0.835,7.967,1.365c2.885,0.529,6.043,1.07,9.543,1.761c7,1.35,15.438,2.976,26.065,5.024l-0.417,0.459
								c0,0-1.051-0.202-2.627-0.507c-1.572-0.331-3.667-0.772-5.763-1.214c-4.195-0.857-8.369-1.83-8.369-1.829
								c1.613,0.732-7.014-1.118-10.57-1.817c15.529,3.665,14.467,3.659,13.472,3.739c-0.984,0.025-1.903,0.193,14.14,3.25
								c3.167,0.213,1.123,0.047,9.504,1.355c-1.97-0.31-3.145-0.42-3.037-0.311c0.106,0.124,1.499,0.447,4.671,0.972l6.158,0.588
								c5.573,1.236,0.878,0.771-4,0.043c-4.884-0.674-9.965-1.479-5.218-0.354c-3.129-0.424-6.814-1.039-10.535-1.62
								c-3.711-0.644-7.45-1.292-10.674-1.851c-6.438-1.182-10.839-1.934-8.919-1.164c5.035,1.164,8.704,1.925,11.718,2.402
								c3.011,0.494,5.343,0.831,7.712,1.114c2.37,0.278,4.768,0.563,7.895,1.041c3.127,0.474,7,1.043,12.309,1.992l2.23,0.612
								c3.77,0.448,5.973,0.601,7.751,0.682c1.782,0.046,3.139,0.026,5.213,0.144c0.353,0.19,2.243,0.606,7.077,1.175
								c3.197,0.174,6.124,0.332,8.9,0.482c2.776,0.11,5.402,0.215,7.998,0.318c2.592,0.133,5.16,0.112,7.81,0.156
								c1.325,0.009,2.671,0.018,4.056,0.026c1.383-0.005,2.805-0.059,4.276-0.096c-3.911-0.024-7.259-0.225-10.19-0.358
								c-1.465-0.078-2.826-0.15-4.101-0.218c-1.272-0.103-2.458-0.199-3.575-0.289c-2.232-0.201-4.189-0.377-6.013-0.54
								c-1.821-0.191-3.504-0.416-5.197-0.619c-1.692-0.206-3.392-0.413-5.241-0.638c-1.847-0.246-3.841-0.513-6.125-0.817
								c-2.286-0.295-4.864-0.598-7.864-1.036c-3-0.433-6.444-0.83-10.44-1.459c2.514,0.335,9.414,1.258,15.872,1.956
								c3.232,0.316,6.35,0.626,8.753,0.78c2.407,0.126,4.094,0.152,4.459,0.007l-0.354,0.495c5.231,0.45,10.47,0.693,16.032,1.065
								c2.783,0.137,5.65,0.278,8.642,0.426c2.991,0.174,6.11,0.237,9.395,0.409l-8.038,0.021c4.363,0.049,8.352,0.235,12.101,0.331
								c3.748,0.055,7.258,0.241,10.652,0.24c3.393-0.009,6.677,0.049,9.963-0.111c3.285-0.181,6.584-0.363,9.999-0.806
								c-4.849,0.236-8.787,0.379-11.778,0.597c8.956-0.548,20.179-1.18,29.868-2.191c0,0,1.249-0.168,3.109-0.507
								c1.86-0.322,4.342-0.753,6.823-1.184c2.479-0.422,4.936-0.986,6.786-1.346c1.847-0.377,3.078-0.629,3.078-0.629
								c-0.114,0.394,12.392-2.056,6.435-0.469c14.315-2.363,20.742-4.94,28.747-7.293c7.19-1.797,4.131-0.844-0.887,0.7
								c-1.25,0.401-2.634,0.796-4.018,1.166c-1.378,0.39-2.75,0.776-3.986,1.126c-2.469,0.715-4.38,1.339-4.699,1.573
								c2.497-0.559,4.991-1.211,7.492-1.823c1.248-0.315,2.496-0.631,3.74-0.945c1.232-0.355,2.462-0.709,3.686-1.062
								c2.442-0.721,4.877-1.384,7.231-2.142c2.348-0.78,4.65-1.546,6.887-2.289c8.917-3.034,16.706-6.23,22.16-8.425
								c-4.026,1.349-5.981,1.973-5.824,1.776c0.642-0.055,8.482-2.985,12.943-4.525l2.951-1.382
								c3.764-1.156,5.428-1.549,5.334-1.407c-0.09,0.147-1.927,0.843-5.048,2.042c7.109-2.355,15.602-5.651,23.486-6.759
								c-12.793,3.013-28.223,8.34-34.345,10.823c12.438-4.688,19.015-6.53,26.521-8.291c3.758-0.879,7.778-1.709,13.026-2.539
								c5.245-0.798,11.768-1.644,20.587-1.312c0.21,0.081-1.177,0.146-1.766,0.234c-0.295,0.042-0.391,0.084,0.007,0.13
								c0.398,0.052,1.291,0.063,2.976,0.222c0.976,0.078,1.848,0.116,2.621,0.2c0.773,0.089,1.452,0.167,2.046,0.234
								c0.595,0.063,1.105,0.117,1.541,0.163c0.436,0.061,0.796,0.111,1.094,0.152c1.194,0.147,1.388,0.087,1.247-0.046
								c-0.276-0.265-1.906-0.821,0.577-0.54c-6.053-1.094-10.532-1.31-14.348-1.459c-1.903,0-3.661-0.093-5.365-0.034
								c-0.855,0.01-1.701,0.02-2.555,0.028c-0.85,0.036-1.706,0.072-2.584,0.109c0,0,0.797-0.15,1.595-0.302
								c0.796-0.161,1.604-0.276,1.604-0.277c0.255,0.08,2.279-0.081,4.545-0.072c2.262-0.044,4.756,0.092,5.886,0.2
								c0,0,0.501-0.142,1.007-0.236c0.508-0.102,1.015-0.203,1.015-0.203c-0.48,0.292,2.367,0.701,6.484,1.502
								c4.117,0.829,9.462,2.27,14.023,3.967c-2.241-1.022-3.833-1.579-4.939-2c-1.104-0.427-1.737-0.672-2.164-0.837
								c-0.844-0.357-0.802-0.525-2.038-1.202c1.705,0.346,3.235,0.636,4.585,1.066c1.355,0.402,2.588,0.747,3.684,1.207
								c1.103,0.438,2.131,0.83,3.092,1.274c0.947,0.47,1.862,0.924,2.788,1.383c0.937,0.438,1.815,1.004,2.785,1.532
								c0.965,0.539,1.991,1.095,3.066,1.781c2.192,1.308,4.748,2.881,7.907,5.062c-0.271-0.12-1.092-0.771-2.155-1.42
								c-1.047-0.664-2.249-1.427-3.115-1.976c-0.895-0.508-1.457-0.792-1.172-0.577c0.139,0.111,0.498,0.337,1.112,0.751
								c0.602,0.428,1.462,1.039,2.641,1.876c8.129,5.987,5.797,4.245,7.888,4.885c-0.482,0.089-0.833-0.002-1.125-0.039
								c-0.323-0.058-0.557-0.099-0.796-0.141l-0.204-0.047l-0.111-0.031l-0.06-0.019l-0.118-0.066
								c-0.329-0.193-0.691-0.407-1.117-0.658c-0.897-0.527-2.044-1.233-3.665-2.283c-1.722-1.199-3.112-2.146-4.259-2.891
								c-1.176-0.704-2.08-1.245-2.803-1.678c-1.446-0.864-2.229-1.193-2.954-1.589c-0.741-0.37-1.451-0.773-2.972-1.405
								c-0.759-0.315-1.687-0.759-2.938-1.24c-0.629-0.229-1.332-0.486-2.12-0.774c-0.395-0.144-0.81-0.294-1.248-0.454
								c-0.446-0.135-0.916-0.277-1.411-0.427c0,0,0.207,0.072,0.568,0.199c0.361,0.123,0.878,0.302,1.479,0.565
								c1.201,0.527,2.847,1.121,4.393,1.931c0.781,0.384,1.563,0.768,2.295,1.127c0.719,0.384,1.373,0.771,1.941,1.088
								c1.131,0.642,1.885,1.07,1.885,1.07c-1.578-0.813-2.896-1.512-4.032-2.043c-1.158-0.486-2.097-0.882-2.858-1.202
								c-1.533-0.613-2.411-0.797-2.877-0.907c-0.944-0.184-0.377,0.223-0.953,0.11c5.589,2.207,9.195,4.229,11.827,5.756
								c2.668,1.486,4.301,2.606,5.809,3.456c1.451,0.92,2.683,1.716,4.308,2.853c0.337,0.248,0.695,0.513,1.086,0.801
								c0.262,0.185,0.544,0.383,0.854,0.6c0.62,0.401,1.364,0.947,2.438,1.093c0.511-0.021,0.749-0.162,0.813-0.201
								c0.062-0.055-0.044-0.037-0.266-0.021c-0.44,0.085-1.351-0.1-2.047-0.54c-0.708-0.415-1.275-0.906-1.384-1.023
								c-0.095-0.151,0.23,0.167,1.509,0.815c0.747,0.433,1.466,0.541,1.988,0.402c0.535-0.115,0.834-0.42,1.057-0.613
								c0.705-0.751,0.62-0.94,0.863-1.464c0.08-0.274,0.274-0.663,0.462-1.258c0.18-0.416,0.457-1.231,0.753-2.085
								c0.286-0.905,0.635-1.98,0.983-3.33c0,0-0.11,0.603-0.221,1.204c-0.129,0.586-0.258,1.172-0.258,1.172
								c0.843-2.014,1.397-4.209,1.857-6.524c0.47-2.313,0.834-4.767,1.264-7.419c0.42-2.928-0.315-1.354-0.643-2.04
								c-0.174-0.348-0.228-1.247-0.052-3.579c0.089-1.168,0.246-2.68,0.446-4.691c0.193-2.019,0.462-4.506,0.826-7.572
								c0,1.22,0.039,1.673,0.1,1.681c0,0,0.092,1.532,0.23,3.829c0.152,2.311,0.305,5.349,0.393,8.384
								c0.093,3.036,0.112,6.069,0.086,8.349c-0.034,2.274-0.111,3.792-0.111,3.792c2.768-12.124,3.897-25.706,5.745-39.601
								c0.475-3.478,0.791-7.004,1.146-10.551c0.354-3.546,0.712-7.117,1.071-10.704c0.346-3.588,0.761-7.188,1.062-10.807
								c0.287-3.62,0.575-7.251,0.863-10.883c0.668-3.396,0.481,1.807,0.191,7.643c-0.074,1.459-0.151,2.957-0.225,4.37
								c-0.1,1.411-0.194,2.737-0.273,3.853c-0.154,2.233-0.222,3.629-0.084,3.192l-1.411,13.233
								c-0.293-0.78,2.479-27.762,0.722-15.856c-1.843,23.412-3.46,33.954-5.722,56.116c0.489-1.672,0.991-4.329,1.449-7.601
								c0.431-3.275,0.871-7.158,1.335-11.276c0.477-4.116,0.979-8.467,1.468-12.689c0.5-4.221,0.877-8.325,1.4-11.917
								c-0.565,6.064-1.042,11.183-1.506,16.155c0.218-1.689,0.437-3.394,0.656-5.112c0.219-1.719,0.364-3.461,0.552-5.213
								c0.356-3.507,0.719-7.073,1.087-10.697c0.369-3.624,0.744-7.308,1.124-11.048c0.3-3.748,0.604-7.554,0.911-11.416
								l0.035-3.489c-0.414,5.207-0.766,9.61-1.021,12.829c-0.271,3.218-0.532,5.242-0.577,5.706
								c0.163-1.724,0.346-3.412,0.458-5.055c0.1-1.644,0.196-3.236,0.289-4.763c0.169-3.053,0.292-5.838,0.364-8.221
								c0.145-4.768,0.088-7.926-0.193-8.403l-0.194,2.45l0.153-4.999C488.146,663.538,488.278,660.294,488.5,657.073z
								 M185.115,40.58c0.724-0.436,1.28-0.801,1.677-1.102C186.381,39.791,186.914,39.585,185.115,40.58z M332.284,783.154
								c17.848-5.108,35.069-12.438,51.969-17.426c-7.702,1.995-14.763,4.253-20.283,5.968c-5.517,1.731-9.492,2.941-10.946,3.257
								c-1.454,0.319-0.38-0.227,4.19-2.007c2.285-0.89,5.444-2.095,9.612-3.623c4.172-1.521,9.352-3.382,15.756-5.345
								c0,0,0.833-0.276,1.665-0.554c0.831-0.284,1.673-0.534,1.673-0.534c-3.389,0.897-7.96,2.283-12.985,4.009
								c-5.027,1.717-10.514,3.751-15.818,5.738c-2.115,0.89-5.408,2.273-9.153,3.848c-3.744,1.579-8.011,3.162-11.982,4.724
								c-3.982,1.528-7.751,2.773-10.463,3.774c-2.718,0.982-4.444,1.484-4.352,1.52c3.269-0.411,7.711-2.199,13.44-3.728
								L332.284,783.154z M319.07,784.671c-2.537,0.614-4.291,1.056-5.52,1.381c-1.232,0.31-1.944,0.48-2.38,0.626
								c-0.872,0.279-0.658,0.365-1.422,0.663c3.595-0.782,7.129-1.792,10.641-2.708
								C319.028,784.918,318.344,785.003,319.07,784.671z M310.415,787.446c1.149-0.25,2.13-0.458,2.65-0.54L310.415,787.446z
								 M481.284,746.537c-0.059,0.463-0.08,0.629-0.136,1.067c0.383-2.444,0.686-4.903,1.013-7.468
								C481.986,741.125,481.776,743.024,481.284,746.537z M476.55,767.189c0,0-0.081,0.617-0.164,1.241
								c-0.082,0.622-0.18,1.246-0.18,1.246c0.78-2.166,1.432-4.428,2.022-6.761C477.817,763.632,477.496,764.411,476.55,767.189z
								 M420.237,756.429c-2.219,0.134-6.998,0.387-11.276,0.986c-2.145,0.261-4.151,0.677-5.683,0.981
								c-1.521,0.365-2.56,0.668-2.75,0.86c-0.441,0.159,0.094,0.122,1.159-0.021c1.063-0.16,2.666-0.376,4.365-0.572
								c3.786-0.475,7.858-0.801,12.185-0.767c0.15-0.093,1.011-0.147,2.454-0.188c-2.141-0.139-3.928-0.149-4.967-0.226
								c-1.039-0.079-1.33-0.21-0.462-0.418c5.551,0.268,8.004,0.444,10.625,0.425c1.301,0.077,2.649,0.063,4.402,0.29
								c0.875,0.12,1.856,0.271,2.988,0.471c1.119,0.263,2.39,0.575,3.849,0.981c1.907,0.369-1.275-0.822-5.532-1.663
								C427.348,756.687,422.071,756.316,420.237,756.429z M16.726,264.813c0.044-0.336,0.149-1.492,0.274-3.114l0.574,8.293
								c0.376,14.811,0.002,26.718,1.496,39.998c0.169,6.242-0.069,9.605-0.181,12.813c-0.19-3.051-0.311-5.91-0.397-8.291
								c-1.627-18.646-1.454-23.543-1.292-27.53C17.375,282.993,17.622,279.903,16.726,264.813z M23.206,434.938
								c0.018-1.528-0.063-2.081-0.063-2.081c-0.086,33.145-0.772,60.411-1.485,78.255c0.587-3.443,1.54-19.438,2.014-27.032
								l0.269,6.756l-0.567,4.19l0.036,11.712c0.473-3.257,0.753-12.704,1.259-19.006c-0.079-0.553,0.07-20.79-0.039-26.452
								l-0.965,16.138c0.309-4.355,0.991-25.785,1.176-34.286c-0.127-0.089-0.429,3.523-0.637,7.392
								c-0.207,3.867-0.32,7.99-0.071,8.922c-0.453,1.729,0.175-15.15-0.64-4.492c0.03-6.332,0.32-14.526,0.67-22.304
								c0.311-7.778,0.673-15.144,0.918-19.813l0.653-1.573c0.202-10.283-0.757-6.942-0.513-19.145
								c0.268,15.001,0.734-2.56,0.84,9.388c0.118-1.91,0.29-1.933,0.422-2.976c0.066-0.522,0.123-1.299,0.157-2.696
								c0.009-0.699,0.02-1.552,0.033-2.605c-0.049-1.054-0.107-2.307-0.177-3.807c-0.337-2.487-0.51-4.519-0.599-6.318
								c-0.116-1.796-0.18-3.356-0.218-4.902c-0.085-3.091-0.138-6.125-0.975-10.771c-0.314-6.288,1.145,6.692,0.112-5.643
								c-1.855-14.053-2.04-13.194-2.761-14.014c1.052,13.189,2.276,14.719,3.072,25.548c0,0-0.168-1.342-0.464-3.346
								c-0.288-2.005-0.671-4.678-1.054-7.35c-0.794-5.334-1.589-10.667-1.589-10.667c0.235,3.966,0.51,6.891,0.794,9.34
								c-0.48-4.302-1.022-7.945-1.519-11.057c-0.276-1.774-0.531-3.412-0.766-4.924c0.562,6.08,1.091,11.819,1.503,16.277
								c0.385,4.459,0.603,7.641,0.561,8.606l-0.459-1.648c0.166,4.324,0.854,11.314,1.33,14.536c0.16,2.723,0.319,5.445,0.47,8.034
								c0.042,0.647,0.083,1.287,0.123,1.915c0.028,0.629,0.028,1.249,0.043,1.855c0.022,1.213,0.043,2.377,0.063,3.474
								c0.074,4.388,0.091,7.713-0.103,8.904l-0.291-4.142c0.033,3.354,0.059,5.963,0.081,8.253c0.03,2.29-0.082,4.267-0.118,6.348
								C23.605,421.896,23.465,426.492,23.206,434.938z M129.835,787.437c-3.894-1.332-7.97-2.767-15.709-4.87
								c-7.743-2.082-19.079-5.132-37.422-10.065l2.901,0.726c-18.236-5.793-36.092-9.636-57.94-17.807
								c10.852,3.188,10.264,3.046,22.425,5.955l-11.624-3.435c1.688,0.242-0.36-0.518-3.882-1.691
								c-1.764-0.579-3.892-1.277-6.107-2.004c-2.029-0.686-4.137-1.397-6.072-2.051c0,0,0.387,0.085,0.969,0.212
								c0.281,0.061,0.608,0.131,0.96,0.206c0.435,0.104,0.899,0.214,1.363,0.325c1.915,0.462,3.829,0.923,3.829,0.923
								c2.498,0.938,7.017,2.531,10.879,3.825c3.867,1.277,7.066,2.29,6.898,2.149c-2.922-0.815,17.114,6.435,28.301,9.4
								c-1.034-0.716-24.428-7.661-13.772-5.244c-9.269-2.527-10.263-3.336-19.862-6.272c9.263,2.641,2.47,0.108,9.398,1.954
								c0,0-3.926-1.222-7.852-2.443c-3.92-1.245-7.84-2.49-7.84-2.49c-0.369-0.233,22.888,7.064,10.254,2.346
								c-3.176-0.877-8.912-2.784-13.905-4.442c-2.501-0.814-4.807-1.6-6.524-2.132c-0.1-0.03-0.198-0.061-0.293-0.091l-0.144-0.038
								c-0.095-0.023-0.185-0.047-0.269-0.067c-0.17-0.041-0.323-0.074-0.454-0.097c-0.262-0.045-0.44-0.05-0.502-0.002
								l-0.081-0.198c-0.539-0.188-0.997-0.347-1.33-0.463c0.025-0.986-0.004-1.587-0.052-2.06
								c-0.032-0.241-0.058-0.444-0.083-0.639c-0.014-0.123-0.032-0.146-0.042-0.353c-0.01-0.195-0.021-0.394-0.032-0.603
								c-0.079-1.673-0.092-4.021,0.301-10.872c-0.259-0.189-0.55,2.697-0.699,8.135c-0.011,0.884-0.006,1.623,0.005,2.312
								c0.007,0.344,0.014,0.675,0.021,1.004c0.01,0.29,0.027,0.398,0.042,0.607c0.059,0.744,0.123,1.532,0.146,2.739
								c0.705,0.196,1.576,0.46,2.655,0.811c1.265,0.712-1.452-0.318-2.818-0.698c-0.016-0.688-0.092-0.985-0.341,0.234
								c-0.028,0.012,0.057,0.063,0.155,0.121c0.372,0.219,1.495,0.628,2.872,1.1c2.2,0.734,4.784,1.598,7.075,2.362
								c4.716,1.55,8.209,2.75,4.808,2.029c0,0-2.912-1-5.824-2c-2.906-1.018-5.813-2.034-5.813-2.034
								c-0.214,0.266-2.439-0.373-4.309-0.867c-0.046-1.115-0.108-2.047-0.28-1.919c0.002-0.701,0.017-1.41,0.04-2.116
								c0.038-0.898,0.076-1.792,0.113-2.684c0.102-1.847,0.203-3.683,0.304-5.524c0.205-3.683,0.377-7.386,0.292-11.246
								c-0.222-3.211-1.065,2.351-0.312-10.384c1.153-9.929,2.101-39.276,2.4-50.271l0.023-9.63
								c-0.354,0.805-0.645,18.378-0.833,12.187l0.435-15.004l0.16,1.165c0.231-4.968,0.204-10.06,0.258-14.599
								c0.205,4.686-0.353,15.491,0.277,13.364c0.372-7.036,0.616-8.103,0.753-14.586c-0.014,1.415-0.006,2.635,0.078,2.458
								c0.771-14.244-0.1-13.787-0.145-17.367c-0.179-14.358-1.205,14.419-1.702,12.566l1.265-41.854
								c0.044,3.581,0.087,7.186,0.364,5.846c0.638-10.253,0.435-0.217,0.948-14.627c-0.79,0.998,0.211-18.161,0.158-28.355
								c0.486-4.744,0.584-5.72,0.204,4.68c0.532-1.175,0.868-15.144,1.099-20.105c-0.014-2.881,0.099-7.787,0.107-10.9
								c-0.4,4.156-0.638,2.366-0.509-6.656l-0.083-0.529c-0.687,14.773-2.081,37.725-1.928,47.009l-0.144-2.629
								c-1.063,17.09-0.518,37.257-1.735,45.11c-0.337-0.742-0.212,3.434-0.728,3.115l-0.06,12.61l-0.141-2.628l-0.683,21.429
								l-0.078-0.57c0.111,10.202,0.197,18.194,0.267,24.578c0.229,0.032,0.324-0.627,0.366,2.774
								c-0.014,3.41-0.093,5.995-0.209,8.297c0,0.018,0,0.018,0.002,0.018h-0.003c-0.264,5.254-0.725,8.744-1.102,15.212
								l0.689-19.924c-0.33-1.637-0.798,0.042-1.437,9.793c0.134-3.992-0.107-5.674-0.337-0.735
								c0.081,0.547-0.239,13.063,0.25,8.308c-0.21,7.027-0.642,15.663-1.119,25.216c-0.232,4.776-0.476,9.783-0.727,14.932
								c-0.114,2.574-0.23,5.185-0.348,7.82c-0.12,3.045-0.24,6.118-0.361,9.207c2.115,0.717,4.237,1.436,6.363,2.155
								c1.805,0.599,3.613,1.198,5.421,1.799c3.563,1.14,7.13,2.264,10.679,3.337c-19.773-6.085,15.577,5.705-6.273-1.365
								c15.034,5.611,13.288,3.754,28.859,8.696c1.259,0.644-8.49-2.656-12.205-3.368c12.91,4.244,23.987,7.248,34.99,10.057
								c11.006,2.804,21.944,5.394,34.732,8.431l0.986,0.731c2.428,0.547,5.01,1.041,7.676,1.6S127.005,786.92,129.835,787.437z
								 M181.303,794.907c2.519,0.229,5.056,0.46,7.613,0.693c2.561,0.179,5.141,0.359,7.742,0.541
								c-0.506-0.046-0.977-0.089-1.507-0.137c0,0,3.792,0.246,7.593,0.331c1.898,0.061,3.796,0.121,5.22,0.166
								c1.423,0.055,2.373,0.054,2.373,0.055c-9.314-0.687-15.391-1.604-2.369-1.093c-1.106,0.138,2.689,0.604-1.845,0.461
								c1.089,0.096,2.341,0.216,3.69,0.312c1.35,0.076,2.796,0.156,4.269,0.238c2.948,0.15,6.008,0.325,8.642,0.324
								c5.268,0.061,8.813-0.021,6.312-0.412c-8.4,0.272-9.38,0.042-9.9-0.248c-0.523-0.274-0.592-0.557-7.188-0.52
								c7.084-0.197,14.081,0.12,20.754-0.161c-3.471,0.258-3.069,0.479-0.485,0.638c1.291,0.078,3.127,0.141,5.296,0.185
								c1.084,0.019,2.251,0.047,3.474,0.043c1.222-0.025,2.5-0.053,3.808-0.08c4.546-0.241,16.858-0.919,24.355-1.984
								c-2.727-0.189,3.788-1.069-8.463,0c4.483-0.535,11.418-1.266,19.195-2.117c-3.065,0.474-8.438,1.226-8.048,1.339
								c5.057-0.25,10.94-0.963,14.186-1.372c2.567-0.451,5.171-0.839,7.682-1.334c-0.756,0.109-1.416,0.177-1.894,0.181
								c0,0,0.532-0.095,1.321-0.292c0.791-0.188,1.845-0.44,2.898-0.692c2.104-0.503,4.21-1.007,4.21-1.007
								c-11.275,2.369-5.266,0.794-5.168,0.507c-0.105,0.288,1.718-0.042,4.05-0.539c1.164-0.257,2.457-0.542,3.7-0.815
								c1.234-0.313,2.419-0.61,3.379-0.829c0,0-0.529,0.082-1.323,0.206c-0.795,0.113-1.846,0.311-2.911,0.43
								c-2.125,0.265-4.25,0.528-4.25,0.528c4.018-0.938,14.336-2.655,12.116-2.698c-2.214,0.469-4.258,0.901-6.171,1.307
								c-1.91,0.415-3.712,0.695-5.407,1.024c-3.396,0.63-6.417,1.228-9.409,1.674c-5.965,1.01-11.734,1.893-19.868,2.866
								c0,0,1.668-0.04,3.332-0.135c1.663-0.105,3.327-0.212,3.327-0.212c-4.574,0.715-7.599,0.922-9.853,1.113
								c-2.258,0.159-3.754,0.243-5.326,0.238c-1.573,0.002-3.215-0.001-5.755,0.09c-2.54,0.101-5.982,0.237-11.162,0.444
								c-2.147,0.223-5.173,0.322-8.509,0.406c-1.667,0.038-3.412,0.078-5.164,0.118c-1.752-0.003-3.51-0.006-5.205-0.009
								c-1.695,0.004-3.326,0.008-4.822,0.011c-1.496-0.014-2.858-0.027-4.015-0.038c-2.314,0.005-3.812,0.08-3.927,0.274
								c2.606-0.1-12.885-1.247-19.997-1.611c-1.978,0.044-4.941-0.104-8.164-0.332c-1.612-0.114-3.289-0.233-4.939-0.352
								c-1.647-0.157-3.269-0.313-4.772-0.456c-6.019-0.557-10.146-1.081-6.592-0.398c3.195,0.422,6.961,0.778,10.559,1.19
								c3.605,0.347,7.048,0.709,9.604,1.213c0,0-3.114-0.283-6.229-0.566c-3.117-0.256-6.223-0.633-6.223-0.633
								s0.506,0.088,1.266,0.22c0.76,0.128,1.771,0.319,2.788,0.464c2.032,0.309,4.064,0.617,4.064,0.617
								C179.055,793.705,179.42,794.13,181.303,794.907z M451.64,773.455c0.108,0.065,0.241,0.169,0.368,0.259
								c-0.142-0.098-0.275-0.199-0.415-0.277L451.64,773.455z"/>
							<path fill="#FFFFFF" d="M13.937,79.494c-0.131-3.604,0.071-12.508-0.349-10.772C14.005,68.516,13.376,84.634,13.937,79.494z"
								/>
							<path fill="#FFFFFF" d="M14.54,68.854c-0.09-0.629-0.261-0.196-0.2-4.191l-0.097,11.001L14.54,68.854z"/>
							<path fill="#FFFFFF" d="M17.686,57.762c-0.184-5.673-0.281-9.27,0.026-18.157c1.13-3.306-0.154,14.56,0.755,18.617
								c0.234-8.146,0.19-13.472,0.12-18.438c-0.021-2.482-0.042-4.875-0.064-7.483c0.007-1.085,0.014-2.215,0.021-3.423
								c0.012-0.595,0.025-1.208,0.039-1.846c0.023-0.597,0.048-1.216,0.073-1.861c-0.084,0.602-0.187,1.395-0.281,2.527
								c-0.086,1.147-0.187,2.484-0.295,3.935c-0.198,3.382-0.396,7.477-0.514,11.292C17.314,50.597,17.295,57.508,17.686,57.762z"
								/>
							<polygon fill="#FFFFFF" points="18.839,65.029 18.805,55.962 18.724,56.855 18.761,65.929 							"/>
							<path fill="#FFFFFF" d="M10.596,261.658c-0.295,0.83,0.187,6.483,0.379,9.519C10.899,268.706,10.892,265.247,10.596,261.658z
								"/>
							<path fill="#FFFFFF" d="M371.944,35.4c0,0-4.237,1.3-10.418,3.384c-6.191,2.061-14.309,4.907-22.393,7.226
								c-8.083,2.365-16.167,3.935-22.186,4.389c-3.012,0.271-5.494,0.231-7.231,0.227c-0.864-0.039-1.543-0.069-2.006-0.09
								c-0.464-0.015-0.708-0.041-0.708-0.04c9.071,0.581,18.066-0.732,28.284-3.406c5.116-1.339,10.551-3.035,16.553-5.031
								C357.851,40.069,364.416,37.755,371.944,35.4z"/>
							<path fill="#FFFFFF" d="M18.318,490.708c0.39-18.585,0.139-26.857,0.705-45.788c-1.586,24.861-0.209,32.907-1.662,53.776
								L18.318,490.708z"/>
							<path fill="#FFFFFF" d="M15.974,484.06c0.727-3.056,0.18,14.358,0.729,11.678c0.319-12.522-0.364-5.851,0.114-17.208
								L15.974,484.06z"/>
							<polygon fill="#FFFFFF" points="28.615,400.057 28.95,405.753 28.82,401.165 							"/>
							<polygon fill="#FFFFFF" points="13.347,568.73 13.285,566.673 12.743,575.979 							"/>
							<path fill="#FFFFFF" d="M13.221,564.615l0.064,2.058L13.221,564.615z"/>
							<polygon fill="#FFFFFF" points="29.949,407.383 30.055,398.887 29.76,394.691 							"/>
							<path fill="#FFFFFF" d="M24.226,481.315l0.085-7.495C24.293,475.308,23.658,485.542,24.226,481.315z"/>
							<polygon fill="#FFFFFF" points="10.957,625.598 10.851,634.717 10.945,633.788 11.051,624.699 							"/>
							<path fill="#FFFFFF" d="M23.716,539.992c0.664-5.155-0.432,14.944,0.382,4.315C24.38,534.837,23.991,538.67,23.716,539.992z"
								/>
							<path fill="#FFFFFF" d="M16.413,649.802c-0.046,1.229-0.078,2.524-0.072,3.773C16.369,652.089,16.393,650.841,16.413,649.802
								z"/>
							<path fill="#FFFFFF" d="M16.413,649.802c0.148-3.968,0.477-7.929,0.443-10.654C16.458,644.086,16.47,645.891,16.413,649.802z
								"/>
							<path fill="#FFFFFF" d="M14.82,695.264l0.168-3.597c0.095,3.684,0.125,1.94,0.062-1.348c0.127-3.813-0.03-3.604-0.115-4.062
								c-0.031-0.766-0.062-1.525-0.095-2.352c0.02,1.178,0.038,2.236,0.053,3.133C14.668,692.945,14.556,696.55,14.82,695.264z"/>
							<path fill="#FFFFFF" d="M117.604,790.843c-13.072-3.116-16.399-4.104-15.607-4.274c-12.328-3.182-10.549-2.155-18.02-3.955
								c3.484,0.914,6.276,1.646,8.763,2.299c2.494,0.634,4.684,1.189,6.959,1.768c2.274,0.583,4.637,1.178,7.494,1.83
								C110.051,789.16,113.372,789.979,117.604,790.843z"/>
							<path fill="#FFFFFF" d="M83.978,782.613c-1.566-0.396-3.047-0.819-4.856-1.302C81.138,781.88,82.634,782.293,83.978,782.613z
								"/>
							<polygon fill="#FFFFFF" points="20.798,642.283 21.047,650.561 21.083,647.527 							"/>
							<path fill="#FFFFFF" d="M137.117,795.043c-2.457-0.449-6.37-1.27-8.273-1.765c-0.389,0.108,2.287,0.687,4.755,1.173
								C136.065,794.949,138.343,795.268,137.117,795.043z"/>
							<path fill="#FFFFFF" d="M88.451,776.547c-1.256-0.529-9.493-2.668-12.804-3.687C80.421,774.227,84.14,775.996,88.451,776.547
								z"/>
							<path fill="#FFFFFF" d="M175.499,799.448c-2.474-0.331-6.248-1.049-4.562-1.144
								C167.323,798.034,162.367,798.066,175.499,799.448z"/>
							<path fill="#FFFFFF" d="M112.023,782.493l-1.821-0.555c0,0-2.229-0.462-4.458-0.925c-2.223-0.491-4.446-0.982-4.446-0.982
								s0.669,0.159,1.672,0.399c1.003,0.238,2.339,0.568,3.684,0.86C109.339,781.892,112.023,782.493,112.023,782.493z"/>
							<path fill="#FFFFFF" d="M81.995,769.278c-9.932-2.295,15.295,5.32-1.713,0.998c5.42,1.643,8.052,2.335,9.182,2.599
								c1.13,0.262,0.764,0.072,0.221-0.176c-1.085-0.496-2.873-1.228,5.184,0.938C85.449,771.026,80.993,769.182,81.995,769.278z"
								/>
							<path fill="#FFFFFF" d="M94.868,773.637c1.365,0.396,2.858,0.763,4.476,1.174C97.557,774.342,96.114,773.964,94.868,773.637z
								"/>
							<path fill="#FFFFFF" d="M236.126,795.252c-1.48,0.071-2.491,0.138-3.425,0.206
								C233.867,795.401,234.979,795.338,236.126,795.252z"/>
							<path fill="#FFFFFF" d="M146.918,784.67c0,0-3.774-0.525-7.547-1.051c-1.891-0.25-3.771-0.559-5.185-0.779
								c-1.413-0.222-2.355-0.369-2.355-0.369c2.512,0.418,5.974,0.995,9.73,1.62c1.877,0.313,3.828,0.637,5.77,0.959
								c1.946,0.291,3.884,0.58,5.73,0.855c1.848,0.266,3.604,0.518,5.188,0.745c1.589,0.181,3.004,0.342,4.164,0.475
								c2.32,0.239,3.622,0.306,3.25,0.088c-4.089-0.623-8.592-1.31-12.58-1.917c-1.998-0.283-3.867-0.548-5.49-0.777
								c-1.621-0.243-3-0.432-4.019-0.547L146.918,784.67z"/>
							<path fill="#FFFFFF" d="M322.625,792.206l-6.497,1.932l8.215-2.027C321.971,792.618,326.091,791.067,322.625,792.206z"/>
							<path fill="#FFFFFF" d="M325.93,791.711l-1.587,0.399C324.695,792.034,325.202,791.918,325.93,791.711z"/>
							<path fill="#FFFFFF" d="M207.206,795.094c-4.936-0.298-8.882-0.536-13.385-0.807c0.929,0.112,4.457,0.536,7.67,0.689
								C204.703,795.165,207.587,795.278,207.206,795.094z"/>
							<polygon fill="#FFFFFF" points="367.238,776.55 357.013,780.398 368.191,776.272 							"/>
							<path fill="#FFFFFF" d="M414.752,765.931c0,0,0.431,0.016,0.858,0.041c0.428,0.024,0.856,0.048,0.856,0.048
								s0.513-0.023,1.283-0.059c0.771-0.047,1.786-0.007,2.81-0.018c1.026-0.023,2.034,0.064,2.797,0.097
								c0.762,0.038,1.27,0.063,1.27,0.063l-1.703-0.259c0,0-0.507-0.026-1.267-0.067c-0.766-0.003-1.786-0.006-2.807-0.009
								C416.804,765.809,414.752,765.931,414.752,765.931z"/>
							<path fill="#FFFFFF" d="M348.505,770.902c-3.473,1.216-6.505,2.388-8.459,3.166c-1.949,0.795-2.798,1.258-1.869,1.021
								c0,0,0.843-0.276,2.105-0.689c1.264-0.411,2.949-0.957,4.624-1.561c3.357-1.203,6.715-2.406,6.715-2.406
								c-1.798,0.384-2.726,0.713-4.188,1.291c-1.465,0.56-3.442,1.419-7.375,2.605c0,0,0.53-0.205,1.324-0.513
								c0.796-0.302,1.854-0.719,2.906-1.161C346.397,771.779,348.505,770.902,348.505,770.902z"/>
							<path fill="#FFFFFF" d="M497.739,463.296c0.393,3.204,0.388,18.943,0.074,19.771c-0.168-2.113-0.41-10.641-0.55-5.28
								l0.996,12.438c-0.315,16.564-1.262-12.572-1.66-20.744c0.086,16.87,0.757,21.854,0.894,39.811
								c0.029-5.296,0.209-8.645,0.364-11.443c0.584-0.616,0.476,16.116,0.62,28.077c0.188-7.616,0.465-3.216,0.711,2.335
								c0.021,0.999,0.057,1.663,0.097,2.135c0.03,0.646,0.059,1.257,0.088,1.885l-0.005-1.436c0.067,0.101,0.146-0.217,0.253-1.252
								c-0.206-10.043,0.181-17.719,0.144-24.184c-0.454,3.197-0.552-2.305-0.598-9.618c-0.064-7.311-0.068-16.435-0.268-20.491
								l-0.216-9.37l-0.051-3.505c0.097-0.706,0.242,0.289,0.506,5.63c-0.251-4.457-0.39-19.329-0.679-17.951l-0.451-33.924
								c0.026-1.056,0.062-2.112,0.121-2.895c-0.075-1.175-0.127-1.371-0.174-1.216c0,0-0.085-9.23-0.211-23.075
								c-0.086-6.925-0.061-14.991-0.101-23.641c-0.058-8.65,0.022-17.866,0.078-27.084c0.013-9.221,0.194-18.43,0.351-27.063
								c0.078-4.318,0.154-8.491,0.226-12.449c0.104-3.964,0.203-7.711,0.295-11.17c0.182-6.938,0.334-12.72,0.439-16.768
								c0.081-4.063,0.128-6.384,0.128-6.384c-0.2,7.34-0.631,13.634-0.925,21.167c-0.337-11.303-0.445,12.319-0.96,8.986
								c-0.083-5.068,0.185-12.486,0.448-16.918c-0.261-1.657-0.698,4.647-1.043,3.908c-0.432,9.322-0.335,14.69-0.15,20.011
								c0.193,5.317,0.407,10.578,0.133,19.666c-0.353-0.726-0.57-6.352-0.735,5.552l-0.024-3.026
								c0.201,19.071-0.945,14.854-0.04,26.865l-0.525-0.317c0.329,8.653,0.426,25.497,0.521,34.988l-0.106-0.566
								c0.856,26.635,0.205,14.945,0.839,44.868l-0.788-13.765c-0.125,10.326,0.572,12.646,0.597,20.057
								c-0.108-0.529-0.473,1.194-0.656-5.805l1.426,36.311C497.685,475.079,497.535,464.647,497.739,463.296z"/>
							<path fill="#FFFFFF" d="M497.493,509.291c-0.011,1.925-0.003,4.112,0.04,6.694
								C497.519,513.492,497.506,511.347,497.493,509.291z"/>
							<path fill="#FFFFFF" d="M499.342,253.989c0,0-0.004,0.655-0.01,1.637c-0.02,0.979-0.045,2.284-0.069,3.588
								c-0.051,2.61-0.102,5.22-0.102,5.22C499.248,261.198,499.355,257.835,499.342,253.989z"/>
							<path fill="#FFFFFF" d="M498.806,561.447c0.313-6.314,0.351,4.73,0.546,5.833c0,0,0.034-5.655,0.068-11.312
								c-0.006-5.653-0.011-11.306-0.011-11.306c-0.203,0.102-0.437-2.136-0.621-1.681c0,0,0.022,4.615,0.044,9.229
								C498.818,556.83,498.806,561.447,498.806,561.447z"/>
							<path fill="#FFFFFF" d="M499.775,538.117c-0.144-0.766-0.275-3.158-0.402-5.838l0.036,12.384
								C499.562,544.585,499.696,543.197,499.775,538.117z"/>
							<polygon fill="#FFFFFF" points="488.94,540.531 488.912,536.541 488.741,530.504 							"/>
							<path fill="#FFFFFF" d="M489.308,478.086c-0.248,4.772,0.1,13.818,0.216,16.844
								C489.383,484.503,489.557,489.02,489.308,478.086z"/>
							<polygon fill="#FFFFFF" points="486.17,491.011 485.869,480.965 485.82,481.902 							"/>
							<path fill="#FFFFFF" d="M492.44,176.446c-0.307-1.653-0.55-3.272-0.941-4.919
								C492.001,173.758,492.188,175.255,492.44,176.446z"/>
							<path fill="#FFFFFF" d="M497.603,263.497c1.065-24.071,0.188,15.792,1.077,8.238l0.019-13.112l0.181,1.119
								c0,0,0.087-3.992,0.073-8.009c0.01-4.011,0.019-8.022,0.019-8.022c-0.369,3.292-0.406,5.763-0.768,5.044
								c0.179-10.694,0.131-12.408,0.3-13.382c0.134-0.98,0.322-1.242,0.436-9.134c0,0-0.269-6.025-0.537-12.05
								c-0.033-0.753-0.067-1.506-0.101-2.248c-0.059-0.743-0.117-1.474-0.173-2.182c-0.114-1.416-0.221-2.736-0.312-3.869
								c-0.183-2.264-0.305-3.774-0.305-3.774l0.262,1.947c-0.167-2.034-0.283-2.929-0.396-3.623c0,0-0.025-0.318-0.074-0.914
								c-0.063-0.597-0.088-1.47-0.241-2.583c-0.28-2.227-0.681-5.408-1.162-9.225c-0.395-3.826-1.264-8.245-2.074-12.991
								c-0.373-2.386-0.971-4.784-1.476-7.252c-0.54-2.456-1.028-4.979-1.663-7.433c-0.604-2.468-1.209-4.936-1.804-7.366
								c-0.631-2.401-1.251-4.764-1.852-7.051c-1.214-4.536-2.347-8.77-3.318-12.398c-0.938-3.597-1.72-6.594-2.268-8.692
								c-0.28-1.05-0.476-1.872-0.607-2.432c-0.134-0.561-0.205-0.859-0.205-0.859c-3.575-13.874,1.183,7.87-1.771-2.295
								c1.862,8.094,4.548,18.189,6.712,26.513c2.215,8.303,3.785,14.867,4.334,15.477c-0.235-0.536-0.691-1.59,0.031,1.8
								l2.646,9.608l-1.777-9.331c0.65,2.421,1.606,6.204,2.544,10.651c0.407,2.242,0.844,4.64,1.292,7.1
								c0.203,1.233,0.473,2.475,0.62,3.734c0.156,1.258,0.314,2.52,0.471,3.774c1.421,10.038,1.756,19.555,1.859,22.476
								c-0.406-4.573-0.712-7.423-0.967-9.525c-0.262-2.102-0.427-3.456-0.729-5.035c-0.273-1.579-0.556-3.383-0.941-6.385
								c-0.183-1.503-0.401-3.304-0.671-5.525c-0.347-2.214-0.76-4.846-1.257-8.017c0.014,1.173,0.487,5.851-0.589,0.18
								c1.464,7.372,2.231,14.64,3.113,21.806c0.559,7.172,1.208,14.271,1.407,21.385c0.396,7.125,0.396,14.25,0.578,21.535
								C497.545,248.433,497.642,255.854,497.603,263.497z"/>
							<path fill="#FFFFFF" d="M376.601,34.624l0.211-0.129C376.298,34.678,376.135,34.753,376.601,34.624z"/>
							<path fill="#FFFFFF" d="M386.5,32.191c0,0,3.592-1.004,7.313-1.752c1.856-0.379,3.734-0.719,5.161-0.919
								c1.419-0.227,2.381-0.327,2.381-0.328c0,0-0.374,0.029-1.03,0.079c-0.65,0.069-1.58,0.167-2.695,0.285
								c-2.213,0.288-5.16,0.701-8.033,1.293c-5.776,1.126-11.311,2.716-11.311,2.716l-1.475,0.93
								c0.956-0.34,3.363-1.105,5.95-1.807c2.592-0.694,5.365-1.315,6.953-1.511c0,0-0.815,0.233-1.614,0.498
								C387.3,31.933,386.5,32.191,386.5,32.191z"/>
							<path fill="#FFFFFF" d="M419.539,29.551c-6.36-0.995-9.365-0.607-9.91-0.492c-0.274,0.092,0.059,0.212,0.885,0.345
								c0.83,0.111,2.146,0.288,3.844,0.515c-1.439-0.104-2.61-0.175-3.575-0.199c-0.965-0.045-1.724-0.086-2.335-0.097
								c-1.223-0.038-1.869-0.124-2.399-0.161c-1.055-0.061-1.703-0.188-5.566,0.421c0.148,0.217,3.671-0.087,7.624-0.062
								c3.95-0.028,8.309,0.427,9.934,0.639c0,0,0.372-0.229,0.744-0.458C419.161,29.777,419.539,29.551,419.539,29.551z"/>
							<polygon fill="#FFFFFF" points="474.786,95.682 473.984,92.494 475.292,100.373 							"/>
							<path fill="#FFFFFF" d="M473.984,92.494c0,0-0.326-1.977-0.653-3.954c-0.385-2.013-0.771-4.026-0.771-4.026
								c-0.066,0.592-0.13,1.177,0.009,2.509c0,0,0.096,0.346,0.239,0.864c0.15,0.523,0.322,1.204,0.491,1.883
								C473.643,91.132,473.984,92.494,473.984,92.494z"/>
							<path fill="#FFFFFF" d="M465.756,63.07c-1.748-3.355-4.081-6.991-7.443-10.771c0,0,0.527,0.618,1.318,1.544
								c0.404,0.451,0.827,1.04,1.298,1.647c0.462,0.617,0.979,1.252,1.425,1.95c0.457,0.686,0.915,1.371,1.345,2.014
								c0.389,0.666,0.752,1.288,1.063,1.82c0.307,0.535,0.563,0.981,0.741,1.293C465.664,62.888,465.756,63.07,465.756,63.07z"/>
							<path fill="#FFFFFF" d="M469.531,72.431l-0.022-0.304c0,0-0.191-0.575-0.479-1.437c-0.259-0.867-0.748-1.999-1.206-3.135
								c-0.235-0.567-0.456-1.138-0.691-1.665c-0.254-0.522-0.491-1.01-0.694-1.428c-0.41-0.835-0.683-1.392-0.683-1.392
								c0.803,1.644,1.57,3.202,2.146,4.763c0.298,0.777,0.635,1.536,0.886,2.304C469.037,70.905,469.284,71.667,469.531,72.431z"/>
							<path fill="#FFFFFF" d="M472.561,84.514c0.072-0.694,0.138-1.447-0.122-3.483c-0.179-1.036-0.484-2.411-0.934-4.265
								c-0.235-0.926-0.503-1.974-0.806-3.165c-0.415-1.199-0.879-2.541-1.399-4.046l0.209,2.572c0,0,0.279,0.786,0.63,1.958
								c0.296,1.167,0.689,2.722,1.084,4.278c0.194,0.778,0.39,1.556,0.573,2.285c0.185,0.73,0.278,1.386,0.398,1.961
								C472.414,83.752,472.561,84.514,472.561,84.514z"/>
							<polygon fill="#FFFFFF" points="485.84,417.883 485.505,408.8 485.449,409.762 485.788,418.839 							"/>
							<path fill="#FFFFFF" d="M485.854,365.437c-0.078-2.248-0.158-3.951-0.24-5.5
								C485.665,362.305,485.738,364.188,485.854,365.437z"/>
							<path fill="#FFFFFF" d="M483.207,326.394c0.305-5.354,0.376-1.657,0.438,0.898c0.115,2.553,0.105,3.969,0.387-5.948
								c0.209-0.871,0.396,1.02,0.487,4.294c0.09,3.275,0.163,7.93,0.028,12.596c-0.359-0.745-0.175-9.097-0.583-3.362
								c0.381,6.203,0.078,8.558,0.642,6.402c0.292,10.429,0.618,11.593,1.008,18.664c-0.158-6.297,0.042-16.064,0.113-26.251
								c0.053-5.095,0.107-10.296,0.159-15.224c0.038-4.928,0.025-9.583-0.079-13.587c-0.501-8.835-1.498-3.509-2.449-3.565
								C483.109,302.633,482.592,325.524,483.207,326.394z"/>
							<path fill="#FFFFFF" d="M482.137,343.239c-0.079,4.958-0.051,6.473,0.009,9.515
								C482.477,351.935,482.125,347.245,482.137,343.239z"/>
							<path fill="#FFFFFF" d="M490.926,229.722c-0.076-0.944-0.619-9.85-0.781-7.924c0,0,0.047,0.843,0.115,2.108
								c0.071,1.265,0.172,2.952,0.197,4.643c0.09,3.381,0.18,6.762,0.18,6.762C490.616,232.136,490.766,231.013,490.926,229.722z"
								/>
							<path fill="#FFFFFF" d="M490.788,241.244l-0.151-5.933C490.644,236.794,490.696,238.628,490.788,241.244z"/>
							<path fill="#FFFFFF" d="M491.002,229.076c-0.025,0.215-0.048,0.407-0.076,0.646
								C490.958,229.912,490.986,229.876,491.002,229.076z"/>
							<path fill="#FFFFFF" d="M440.554,37.465c0.152-0.05-1.2-0.942-3.064-1.866c-0.913-0.493-1.965-0.965-2.979-1.401
								c-1.003-0.46-1.993-0.83-2.788-1.122c1.286,0.494,2.768,1.222,4.318,1.959C437.555,35.836,439.146,36.639,440.554,37.465z"/>
							<path fill="#FFFFFF" d="M222.421,18.248c0,0-0.353,0.073-0.882,0.182c-0.531,0.107-1.237,0.254-1.929,0.426
								c-1.4,0.317-2.766,0.696-2.766,0.696C218.818,19.09,219.828,18.854,222.421,18.248z"/>
							<path fill="#FFFFFF" d="M148.363,56.933c-0.145,0.081-0.531,0.203-1.058,0.35C147.834,57.143,148.196,57.025,148.363,56.933z
								"/>
							<path fill="#FFFFFF" d="M147.306,57.283c-0.909,0.222-2.295,0.579-3.953,0.836c-1.667,0.195-3.584,0.42-5.514,0.646
								c-1.935,0.078-3.882,0.156-5.605,0.226c-1.723,0.063-3.212-0.023-4.251,0.046l0.528-0.083c0,0-0.481-0.005-1.204-0.012
								c-0.72-0.025-1.691,0.022-2.645-0.066c-1.916-0.132-3.831-0.264-3.831-0.264c0.896,0.082,1.916,0.176,3.021,0.277
								c0.554,0.045,1.125,0.118,1.721,0.145c0.596,0.02,1.21,0.041,1.836,0.062c1.252,0.04,2.554,0.082,3.869,0.124
								c1.319-0.021,2.654-0.097,3.962-0.146C140.483,58.853,145.301,57.896,147.306,57.283z"/>
						</g>
					</g>
				</g>
			</g>
		</g>
	</g>
</g>
</svg>
