<?xml version="1.0" encoding="utf-8"?>
<!-- Generator: Adobe Illustrator 16.0.0, SVG Export Plug-In . SVG Version: 6.00 Build 0)  -->
<!DOCTYPE svg PUBLIC "-//W3C//DTD SVG 1.1//EN" "http://www.w3.org/Graphics/SVG/1.1/DTD/svg11.dtd">
<svg version="1.1" id="Layer_1" xmlns="http://www.w3.org/2000/svg" xmlns:xlink="http://www.w3.org/1999/xlink" x="0px" y="0px"
	 width="1022px" height="550px" viewBox="0 0 1022 550" enable-background="new 0 0 1022 550" xml:space="preserve">
<g>
	<image overflow="visible" opacity="0.75" width="972" height="437" xlink:href="6C09577E.png"  transform="matrix(1 0 0 1 26 -4)">
	</image>
	<g>
		<path fill="#F2F2F2" d="M201.123,29.045c30.936,1.74,61.992,3.48,92.967,2.145c48.282-2.082,95.341-11.585,143.39-15.563
			c21.271-1.76,42.941-2.423,63.993,0.376c17.204,2.286,33.646,6.837,50.61,9.905C662.124,45.806,783.208,2.257,889.7,30.333
			c9.015,2.378,18.089,5.41,24.278,10.662c5.016,4.255,7.723,9.612,11.244,14.573c10.065,14.183,27.15,25.53,35.617,40.236
			c10.332,17.943,6.475,38.187,4.637,57.545c-7.115,74.965,18.249,153.279-18.301,223.732c-3.678,7.088-9.334,14.88-19.646,16.573
			c-6.146,1.009-12.487-0.458-18.534-1.737c-73.01-15.446-151.048-4.866-226.604,1.876C469.263,412.813,253.108,400.169,40,381.027
			c7.731-53.658,15.462-107.314,23.194-160.972c0.936-6.494,1.872-13.035,1.079-19.539c-0.854-7.009-3.696-13.803-6.252-20.596
			C38.054,126.872,45.859,13.447,50.814,9.959c4.955-3.487,37.725,12.754,61.951,14.117
			C142.217,25.732,171.67,27.389,201.123,29.045z"/>
		<g>
			<g>
				<g>
					<g>
						<g>
							<path fill="#FFFFFF" d="M139.239,23.062c5.7,0.264,10.652,0.854,8.501,0.873c11.626,0.276,11.851,0.718,13.395,0.075
								c7.469,0.061,15.387,1.003,6.896,0.822l21.501,0.762l-12.834-0.835c3.532-0.409,20.509,1.335,24.618,0.858l-23.25-1.249
								l1.173-0.135c-5.305-0.081-15.582-0.75-19.161-1.036c0.571-0.068,0.22-0.25,4.321-0.038
								c-28.065-1.625-7.62,0.634-30.921-0.475C134.938,22.751,136.745,22.861,139.239,23.062z"/>
							<path fill="#FFFFFF" d="M115.479,20.239c0,0-0.615,0.013-1.537,0.033c-0.952,0.025-2.073,0.03-3.247,0.035
								c-2.335-0.034-4.708-0.205-4.708-0.206s-3.922-0.646-7.83-1.612c-3.909-0.93-7.799-2.073-7.799-2.073
								c-0.246,0.262-11.686-2.934-4.047-0.419c1.516,0.399,4.512,1.187,6.932,1.823c-0.949,0.073-6.184-1.285-10.607-2.58
								c-4.424-1.282-8.06-2.393-5.85-1.379c6.205,1.899,9.778,2.939,12.776,3.727c2.997,0.782,5.416,1.333,9.307,1.969
								c5.731,1.28,10.659,2.016,14.908,2.271c4.348,0.31,7.901,0.594,10.676,0.854c3.54,0.113,4.056-0.207,8.552-0.023
								c-0.995-0.049-1.908-0.094-3.052-0.15l-0.437-0.879c-3.756-0.031-7.292-0.315-11.45-0.531l19.284,0.086
								c-3.078-0.573-9.346-1.008-15.786-1.394c-1.61-0.094-3.231-0.189-4.815-0.282c-0.792-0.046-1.575-0.092-2.343-0.137
								c-0.771-0.044-1.533-0.088-2.188-0.147c-2.709-0.206-5.146-0.58-6.905-0.962c4.34,1.02,2.586,0.825,1.863,0.813
								c-0.36-0.013-0.459,0.006,0.603,0.212c0.533,0.112,1.352,0.243,2.574,0.418c0.613,0.102,1.318,0.157,2.143,0.256
								C113.306,20.056,114.356,20.135,115.479,20.239z"/>
							<path fill="#FFFFFF" d="M133.004,22.659c0.124,0.006,0.329,0.017,0.472,0.024C133.333,22.676,133.128,22.666,133.004,22.659z
								"/>
							<path fill="#FFFFFF" d="M962.843,317.043c0.505-4.02,0.377-5.238,0.357-5.826c-0.001,0-1.099,11.363-3.526,22.472
								c-0.531,2.794-1.301,5.527-1.916,8.116c-0.661,2.577-1.41,4.945-1.983,6.994c-0.617,2.035-1.222,3.701-1.603,4.882
								c-0.394,1.177-0.618,1.849-0.618,1.849c0.324-0.638,1.613-4.027,2.446-6.238c0.756-2.234,1.192-3.242-0.012,0.973
								c0.378-0.904,0.787-2.326,1.28-3.947c0.479-1.626,1.026-3.456,1.41-5.262c0.413-1.796,0.799-3.528,1.078-4.922
								c0.233-1.404,0.384-2.465,0.398-2.903c0,0-0.086,0.826-0.171,1.652c-0.083,0.827-0.183,1.652-0.183,1.652
								c0.452-2.592,0.903-4.967,1.35-6.961c0.38-2.008,0.731-3.642,1.021-4.736c0.574-2.189,0.865-2.231,0.406,1.181l0.147-0.878
								c0,0,0.052-0.454,0.143-1.249c0.104-0.793,0.201-1.933,0.308-3.301c0.111-1.366,0.241-2.96,0.38-4.667
								c0.089-1.71,0.185-3.534,0.279-5.358c0.116-1.819,0.126-3.65,0.175-5.359c0.036-1.71,0.097-3.302,0.078-4.673
								c-0.003-2.736-0.004-4.56-0.004-4.56c-0.178,2.667-0.256,4.517-0.293,5.992c-0.071,1.472-0.084,2.57-0.1,3.738
								C963.673,308.04,963.62,310.654,962.843,317.043z"/>
							<path fill="#FFFFFF" d="M268.428,33.178c2.992,0.046,4.674-0.103,5.521-0.141c0.847-0.058,0.861-0.099,0.521-0.133
								C272.325,33.019,270.285,33.131,268.428,33.178z"/>
							<path fill="#FFFFFF" d="M963.946,289.154c0,0-0.015-0.571-0.038-1.427c-0.037-0.857-0.086-1.999-0.135-3.142
								c-0.049-1.141-0.098-2.282-0.134-3.138c-0.047-0.856-0.078-1.428-0.078-1.428
								C963.673,283.675,963.823,286.889,963.946,289.154z"/>
							<path fill="#FFFFFF" d="M961.949,353.528c0.021,0.026,0.012,0.132,0.127-0.094c0,0,0.285-1.025,0.534-2.06
								c0.23-1.038,0.462-2.076,0.462-2.076c-0.018,0.061-0.022,0.079-0.03,0.104c-0.188,0.76-0.366,1.48-0.536,2.169
								C962.312,352.254,962.127,352.904,961.949,353.528z"/>
							<path fill="#FFFFFF" d="M948.23,87.943c-0.65-0.687-1.175-1.293-1.988-2.102C946.992,86.603,947.617,87.303,948.23,87.943z"
								/>
							<path fill="#FFFFFF" d="M856.657,392.63c0,0,5.03,0.242,10.062,0.483c5.012,0.415,10.024,0.829,10.024,0.829
								c-2.692-0.05,6.96,0.92,2.714,0.743c1.529,0.109,8.626,1.111,6.713,0.688l-4.054-0.58c5.283,0.423,6.356,0.335,8.287,0.395
								c0.966,0.037,2.151,0.082,4.182,0.297c2.019,0.27,4.885,0.693,9.233,1.38c-10.64-2.554-15.506-2.675-21.266-3.237
								c-1.943-0.266-3.589-0.386-5.247-0.545c0,0-4.191-0.207-8.383-0.415c-2.089-0.136-4.195-0.128-5.769-0.159
								c-1.574-0.023-2.624-0.039-2.624-0.039L856.657,392.63z"/>
							<path fill="#FFFFFF" d="M552.49,23.527l0.229-0.018C552.515,23.496,552.476,23.506,552.49,23.527z"/>
							<path fill="#FFFFFF" d="M553.636,23.431l-0.916,0.078C553.818,23.575,557.963,24.14,553.636,23.431z"/>
							<path fill="#FFFFFF" d="M964.283,292.52c-0.12-0.282-0.238-1.459-0.337-3.365c0,0,0.04,1.704,0.08,3.408
								c0.02,0.853,0.04,1.705,0.055,2.346c0.002,0.639,0.003,1.064,0.003,1.064C964.158,295.009,964.216,293.732,964.283,292.52z"
								/>
							<path fill="#FFFFFF" d="M964.828,308.11c0-0.001-0.076,1.07-0.254,2.67c-0.176,1.6-0.363,3.738-0.632,5.867
								c-0.284,2.126-0.569,4.252-0.783,5.847c-0.26,1.588-0.434,2.646-0.434,2.646s-0.181,1.574-0.36,3.148
								c-0.088,0.789-0.179,1.577-0.277,2.163c-0.088,0.587-0.146,0.979-0.146,0.979C963.077,324.955,964.213,317.34,964.828,308.11
								z"/>
							<path fill="#FFFFFF" d="M960.074,109.214c-0.126-0.481-0.248-0.945-0.365-1.394c-0.148-0.435-0.292-0.854-0.43-1.257
								c-0.29-0.8-0.495-1.566-0.786-2.227c-0.282-0.665-0.54-1.272-0.776-1.827c-0.115-0.278-0.226-0.543-0.331-0.796
								c-0.125-0.242-0.243-0.473-0.355-0.691c-0.443-0.877-0.789-1.563-1.052-2.083c-0.256-0.524-0.486-0.86-0.591-1.083
								c-0.485-0.863,0.517,0.312,1.52,2.09c0.265,0.44,0.547,0.908,0.83,1.379c0.267,0.48,0.492,0.986,0.732,1.454
								c0.466,0.943,0.919,1.777,1.13,2.327c0.241,0.537,0.364,0.736,0.283,0.359c-0.041-0.188-0.132-0.521-0.283-1.029
								c-0.178-0.496-0.454-1.149-0.802-2.006c-1.874-4.058-3.653-6.522-5.324-8.603c-1.694-2.067-3.218-3.74-5.243-5.885
								c4.599,4.953,6.044,7.541,6.688,8.646c0.579,1.131,0.215,0.854-0.145,0.596c-0.359-0.261-0.713-0.505-0.147,0.635
								c0.143,0.284,0.342,0.655,0.615,1.132c0.24,0.489,0.538,1.093,0.903,1.835c0.188,0.368,0.395,0.769,0.62,1.208
								c0.19,0.456,0.397,0.95,0.622,1.485c0.217,0.539,0.498,1.098,0.725,1.735c0.221,0.64,0.458,1.327,0.712,2.062
								c-0.852-1.608-2.544-5.669-5.339-9.871c-2.811-4.233-6.907-8.804-10.106-12.211c-3.515-4.021-1.765-2.465,1.079,0.275
								c2.858,2.729,6.427,6.729,7.314,7.455c-0.413-0.515-0.795-0.992-1.15-1.435c-0.379-0.435-0.729-0.835-1.052-1.206
								c-0.639-0.744-1.196-1.357-1.697-1.87c-0.978-1.033-1.627-1.692-2.181-2.192c-1.087-1.005-1.639-1.415-3.45-2.96
								c-6.135-6.281-13.356-12.53-19.218-19.517c-0.365-0.437-0.729-0.87-1.089-1.3c-0.348-0.452-0.692-0.9-1.035-1.345
								c-0.684-0.893-1.356-1.774-1.948-2.656c-1.233-1.772-2.235-3.358-3.183-4.823c-1.849-2.874-3.378-4.985-4.725-6.64
								c-0.482-0.415-0.903-0.828-1.338-1.178c-0.455-0.33-0.879-0.637-1.275-0.923c-0.197-0.145-0.387-0.285-0.57-0.419
								c-0.207-0.12-0.406-0.235-0.6-0.346c-0.385-0.223-0.742-0.43-1.076-0.624c-0.642-0.407-1.315-0.665-1.865-0.929
								c-0.568-0.25-1.037-0.491-1.531-0.666c-0.99-0.348-1.811-0.653-2.817-0.975c-1.048-0.284-2.157-0.698-3.854-1.141
								c-0.799,0.142,3.57,1.554,7.707,3.803c1.077,0.531,2.01,1.188,2.966,1.797c0.495,0.296,0.846,0.662,1.268,0.974
								c0.395,0.329,0.825,0.61,1.139,0.966c1.384,1.25,2.39,2.713,2.894,3.546c-0.228-0.327-0.561-0.813-0.792-1.186
								c-0.238-0.344-0.378-0.564-0.192-0.445c0,0,0.09,0.099,0.246,0.272c0.152,0.195,0.369,0.473,0.629,0.807
								c0.527,0.639,1.211,1.631,1.918,2.668c0.355,0.544,0.712,1.088,1.046,1.598c0.346,0.543,0.669,1.051,0.945,1.486
								c0.589,0.919,0.98,1.532,0.98,1.532c-0.363-0.587-0.679-1.097-0.949-1.534c-0.248-0.417-0.455-0.765-0.625-1.051
								c-0.334-0.579-0.502-0.903-0.536-1.021c-0.075-0.258,0.354,0.22,1.076,1.184c0.362,0.494,0.802,1.092,1.284,1.749
								c0.506,0.696,1.058,1.454,1.616,2.223c0.556,0.788,1.207,1.571,1.784,2.325c0.583,0.758,1.141,1.467,1.646,2.052
								c1.429,1.768,3.632,4.295,5.394,6.152c1.747,1.905,3.022,3.205,2.534,2.87c0,0-0.293-0.286-0.732-0.715
								c-0.439-0.428-1.026-0.997-1.607-1.599c-0.582-0.594-1.164-1.188-1.602-1.634c-0.437-0.446-0.721-0.766-0.721-0.766
								c5.632,6.627,13.529,12.699,18.866,18.882c0.184,0.42-2.013-1.755-2.439-2.02c3.425,3.12,6.544,6.279,9.473,9.988
								c1.396,1.88,2.851,3.825,4.023,6.092c1.302,2.213,2.328,4.788,3.33,7.687c0,0-0.039-0.105-0.106-0.289
								c-0.073-0.181-0.196-0.432-0.335-0.735c-0.275-0.604-0.643-1.408-1.01-2.213c-0.426-0.765-0.852-1.53-1.171-2.104
								c-0.157-0.285-0.289-0.522-0.381-0.688c-0.107-0.158-0.168-0.249-0.168-0.249c1.155,2.086,2.572,4.937,3.453,8.562
								c0.938,3.599,1.496,7.887,1.58,12.525c0.211,9.284-1.451,19.857-2.524,28.932c0.318-2.008,0.778-5.576,0.692-3.412
								c-0.922,10.648-1.709,18.77-1.837,13.765c-0.073,5.263-0.525,15.224-0.536,25.608c-0.029,10.386,0.354,21.167,1.08,28.149
								c0,0,1.737,15.968,3.475,31.936c0.845,7.952,1.575,15.888,2.009,21.843c0.236,2.979,0.396,5.46,0.49,7.197
								c0.104,1.737,0.165,2.73,0.165,2.73c-0.108-2.382-0.156-4.924-0.239-7.554c0.537-5.792,0.407-8.925,1.178,1.222
								c-0.257-4.984-0.477-6.517-0.724-8.68c-0.235-2.162-0.433-4.947-0.755-12.443c0.527,5.863,1.388,7.337,0.799-7.056
								c-1.216-17.977-2.768-32.935-3.788-47.719c-1.009-14.772-1.651-29.426-0.457-46.624c0.264-0.613,1.2-7.604,1.949-15.711
								c0.351-4.059,0.574-8.409,0.488-12.439c-0.021-2.021-0.18-3.943-0.319-5.741c-0.227-1.77-0.4-3.428-0.701-4.841
								c0.733,2.104,1.29,5.396,1.584,9.361c0.283,3.97,0.184,8.633-0.157,13.457c0.247-3.02,0.53-7.11,0.495-11.325
								c-0.02-4.218-0.441-8.543-1.172-12.103c0,0-0.098-0.168-0.244-0.422c-0.151-0.251-0.326-0.593-0.557-0.912
								C960.508,109.853,960.074,109.214,960.074,109.214z"/>
							<path fill="#FFFFFF" d="M960.045,191.276c0.016-0.91,0.032-1.851,0.049-2.816
								C960.054,188.975,960.042,189.815,960.045,191.276z"/>
							<path fill="#FFFFFF" d="M962.15,138.194c0.009,0.123,0.026,0.082,0.042,0.126c0.075-1.015,0.15-2.029,0.227-3.068
								C962.324,136.289,962.218,137.46,962.15,138.194z"/>
							<path fill="#FFFFFF" d="M965.601,284.152c0.104,2.132,0.144,3.714,0.194,5.846c0.009-1.313,0.004-2.961-0.021-4.548
								C965.73,283.938,965.675,283.219,965.601,284.152z"/>
							<path fill="#FFFFFF" d="M964.569,291.302l-0.161-1.142c-0.049,0.912-0.082,1.553-0.125,2.359
								C964.383,292.771,964.482,292.509,964.569,291.302z"/>
							<path fill="#FFFFFF" d="M865.323,26.579l-3.384-0.444C863.969,26.458,864.85,26.558,865.323,26.579z"/>
							<path fill="#FFFFFF" d="M939.994,78.887c2.211,2.149,3.384,3.256,4.115,3.901c0.736,0.644,1.045,0.821,1.445,1.117
								c0.404,0.295,0.915,0.705,2.065,1.814c1.103,1.129,2.913,2.929,5.453,6.199c0,0-0.185-0.242-0.462-0.604
								c-0.277-0.362-0.638-0.849-1.042-1.317c-0.787-0.946-1.575-1.892-1.575-1.892c2.034,2.229,4.331,4.963,6.372,8.138
								c2.014,3.178,3.827,6.818,5.003,10.807c2.454,7.954,2.56,16.917,2.175,24.177c-0.092-0.831-0.324,1.376-0.583,3.57
								c-0.297,2.206-0.621,4.402-0.769,3.522c-0.421,5.024-0.971,10.107-1.302,14.647c-0.138,2.275-0.251,4.393-0.328,6.277
								c-0.071,1.884-0.042,3.536-0.011,4.879c-0.539,6.426-0.364,16.197-0.458,24.336c0.128-1.721,0.371,1.177,0.552,2.022
								c0.185,0.845,0.166-0.341,0.045-10.25c0.019,1.601,0.079,0.598,0.12,2.178c0.118-3.19,0.2-5.903,0.238-8.351
								c0.078-2.449,0.108-4.632,0.125-6.762c0.061-2.131,0.12-4.208,0.184-6.44c0.091-2.233,0.27-4.622,0.484-7.376
								c0.834-6.543-0.463,10.792,0.169,4.597c0.296-6.916,1.873-17.551,2.362-26.201c0.252-4.335,0.21-8.19-0.005-10.886
								c-0.267-2.686-0.554-4.233-0.799-3.99c-0.155-1.156-0.295-2.188-0.419-3.113c-0.17-0.912-0.319-1.718-0.453-2.439
								c-0.115-0.726-0.255-1.353-0.399-1.906c-0.128-0.559-0.24-1.05-0.342-1.493c-0.171-0.896-0.384-1.564-0.545-2.194
								c-0.163-0.631-0.313-1.21-0.485-1.877c-1.562-3.32-3.913-7.849-7.614-12.424c-3.593-4.625-8.269-9.345-12.703-13.75
								c-4.458-4.395-8.645-8.534-11.613-11.707c-2.977-3.165-4.791-5.278-5.054-5.019c1.903,2.352,4.503,5.302,7.451,8.292
								c2.942,2.997,6.211,6.052,9.299,8.865L939.994,78.887z"/>
							<path fill="#FFFFFF" d="M965.337,263.35c-0.018-0.763-0.042-1.78-0.057-2.413C965.297,261.65,965.317,262.537,965.337,263.35
								z"/>
							<path fill="#FFFFFF" d="M915.365,387.174c0,0,0.309-0.001,0.771-0.002c0.468,0.006,1.074-0.006,1.66-0.04
								c1.203-0.026,2.31-0.159,2.31-0.158c3.143,0.297,5.646,0.137,7.786-0.438c2.13-0.603,3.93-1.495,5.505-2.723
								c3.164-2.431,5.495-5.849,7.501-9.616c1.02-2.053,2.028-4.081,3.052-6.142c0.974-2.094,1.885-4.258,2.88-6.493
								c0.908-2.272,1.826-4.65,2.776-7.19c0.432-1.287,0.876-2.613,1.337-3.986c0.23-0.686,0.464-1.384,0.702-2.094
								c0.208-0.722,0.42-1.455,0.636-2.202c0.642-1.795-0.104,1.137-0.521,2.612c0.607-2.104,1.251-4.34,1.921-6.664
								c0.586-2.35,1.201-4.789,1.788-7.288c1.08-5.022,2.098-10.271,2.794-15.438c1.474-10.319,2.012-20.211,2.055-26.698
								c0.108-2.84,0.306-7.987,0.449-11.72c0.097-3.748,0.229-6.079,0.369-3.242c-0.068-2.776-0.201-5.958-0.231-9.161
								c0.309-0.855,0.227,7.167,0.457,7.343c0.026-2.533,0.043-3.528-0.061-4.11c0.176,2.135,0.433,1.023,0.685,1.87
								c0.133,0.424,0.235,1.335,0.321,3.388c0.042,1.026,0.076,2.339,0.102,4.017c-0.018,1.675-0.038,3.716-0.063,6.202
								c-0.48,3.837-0.39,0.395-0.382-3.448c0.054-3.837-0.066-8.087-0.458-5.808c0.001,6.597,0.261,5.825,0.378,6.395
								c-0.049,4.202-0.221,6.234-0.322,7.168c-0.111,0.934-0.206,0.763-0.294,0.536c0.101,1.612-0.11,5.036-0.331,8.608
								c-0.099,1.788-0.286,3.6-0.383,5.251c-0.103,1.651-0.179,3.133-0.215,4.235c-0.416,4.027-0.672,5.979-0.865,6.798
								c-0.172,0.824-0.212,0.531-0.229,0.065c-0.034-0.933,0.019-2.553-0.705,2.657c0,0,0,0.384,0,0.958
								c-0.005,0.574,0.013,1.347-0.023,2.107c-0.05,1.53-0.1,3.061-0.1,3.061s-0.196,1.078-0.49,2.694
								c-0.348,1.603-0.811,3.74-1.273,5.877c-0.464,2.137-1.069,4.233-1.458,5.823c-0.205,0.792-0.375,1.452-0.494,1.914
								c-0.137,0.456-0.216,0.717-0.216,0.717c-0.862,3.031-1.394,5.286-1.889,6.893c-0.478,1.612-0.744,2.637-0.875,3.277
								c-0.262,1.28,0.024,1.022,0.279,0.871c0.256-0.15,0.481-0.194,0.095,1.534c-0.206,0.86-0.626,2.142-1.276,4.074
								c-0.339,0.962-0.697,2.102-1.208,3.396c-0.529,1.288-1.135,2.76-1.827,4.442c0.28-0.923,0.157-0.962-0.271-0.314
								c-0.215,0.324-0.505,0.82-0.859,1.464c-0.37,0.636-0.822,1.411-1.342,2.303c-1.036,1.755-2.243,4.172-3.69,6.437
								c-1.459,2.299-3.222,4.635-5.281,6.576c1.216-1.171,2.553-2.824,3.845-4.887c0.653-1.022,1.284-2.16,1.907-3.37
								c0.31-0.592,0.619-1.244,0.93-1.925c0.313-0.67,0.628-1.347,0.945-2.027c2.626-5.402,4.85-11.293,6.796-16.094
								c-1.465,3.352-1.747,3.847-1.409,2.821c0.17-0.513,0.496-1.406,0.91-2.516c0.421-1.107,0.823-2.471,1.297-3.866
								c0.443-1.405,0.976-2.838,1.335-4.199c0.367-1.357,0.701-2.595,0.957-3.541c0.486-1.897,0.592-2.64-0.118-0.876
								c-0.43,1.747-0.901,3.801-1.55,5.991c-0.7,2.172-1.38,4.551-2.268,6.924c-1.737,4.76-3.824,9.679-5.966,13.83
								c0,0,0.319-0.695,0.639-1.391c0.333-0.689,0.608-1.404,0.608-1.404c-1.053,2.247-2.089,4.335-3.034,6.451
								c-0.954,2.062-1.905,3.909-3.074,5.715c-2.326,3.53-5.399,6.993-10.608,8.284c-1.279,0.364-2.238,0.477-2.899,0.514
								c-0.329,0.027-0.58,0.047-0.771,0.053c-0.199-0.013-0.332-0.028-0.413-0.047c-0.329-0.086,0.202-0.168,0.659-0.33
								c-2.29,0.259-4.736,0.095-6.586-0.118C916.616,387.533,915.348,387.257,915.365,387.174z M928.038,387.313
								c0,0,0.415-0.117,1.038-0.292c0.609-0.207,1.419-0.489,2.187-0.874c1.55-0.733,2.956-1.844,2.956-1.844
								c-0.694,0.5-1.609,1.033-2.635,1.611C930.53,386.433,929.34,386.948,928.038,387.313z"/>
							<path fill="#FFFFFF" d="M41.203,75.318c0.028-0.946,0.061-2.035,0.086-2.893C41.241,73.057,41.222,74.153,41.203,75.318z"/>
							<path fill="#FFFFFF" d="M569.69,405.183l-5.486,0.222C566.346,405.317,568.103,405.246,569.69,405.183z"/>
							<path fill="#FFFFFF" d="M446.492,410.153c0,0-2.007,0.052-4.014,0.104c-2.006,0.031-4.013,0.063-4.013,0.063
								C441.632,410.358,444.115,410.26,446.492,410.153z"/>
							<path fill="#FFFFFF" d="M45.001,141.069l0.03,0.269c0.079,0.447,0.139,0.789,0.222,1.261L45.001,141.069z"/>
							<path fill="#FFFFFF" d="M199.645,398.753c-1.213-0.157-2.575-0.317-4.441-0.499
								C195.421,398.353,197.082,398.53,199.645,398.753z"/>
							<path fill="#FFFFFF" d="M447.97,410.115c-0.206-0.007-0.324-0.011-0.486-0.016c-0.312,0.017-0.655,0.035-0.992,0.054
								L447.97,410.115z"/>
							<path fill="#FFFFFF" d="M624.06,404.822c1.175-0.102,2.244-0.193,3.507-0.303
								C625.911,404.639,624.897,404.733,624.06,404.822z"/>
							<path fill="#FFFFFF" d="M616.182,402.906c1.261-0.11,2.465-0.215,3.403-0.297L616.182,402.906z"/>
							<path fill="#FFFFFF" d="M805.089,390.19c0,0,1.828-0.088,3.656-0.176c1.829-0.102,3.656-0.146,3.656-0.146
								C808.807,389.937,806.659,390.094,805.089,390.19z"/>
							<path fill="#FFFFFF" d="M635.748,402.242c0.427-0.065,0.854-0.13,1.137-0.187
								C635.866,402.146,635.385,402.226,635.748,402.242z"/>
							<path fill="#FFFFFF" d="M45.898,28.368c-0.015,0.168-0.032,0.349-0.041,0.448l0.08,0.196L45.898,28.368z"/>
							<path fill="#FFFFFF" d="M48.506,8.878c0.326-0.523,0.724-1.11,1.386-1.334c0.303-0.136,0.618-0.23,0.928-0.345l0.966-0.202
								c1.321-0.16,2.715-0.077,4.112,0.113c-1.557-0.237-3.074-0.299-4.401-0.075c-0.661,0.121-1.279,0.313-1.832,0.607
								c-0.134,0.08-0.286,0.13-0.398,0.23c-0.101,0.112-0.217,0.214-0.3,0.329C48.797,8.433,48.634,8.655,48.506,8.878z"/>
							<path fill="#FFFFFF" d="M92.783,389.258c-1.938-0.283-6.498-0.809-4.352-0.771C84.688,388.354,84.9,388.803,92.783,389.258z"
								/>
							<path fill="#FFFFFF" d="M49.174,64.5c-0.094-1.17-0.137-2.625-0.186-4.086C49.035,63.131,49.089,65.513,49.174,64.5z"/>
							<path fill="#FFFFFF" d="M48.988,60.414c-0.021-1.343-0.042-2.779-0.061-3.98C48.928,57.833,48.957,59.176,48.988,60.414z"/>
							<path fill="#FFFFFF" d="M142.896,386.221c0.479,0.095,1.226,0.2,2.242,0.294C144.849,386.377,144.038,386.29,142.896,386.221
								z"/>
							<path fill="#FFFFFF" d="M61.884,8.625c1.347,0.008,28.288,8.279,5.704,0.926C68.704,9.2,82.178,14,88.195,15.508
								c-4.307-1.396,2.273,0.237,1.014-0.364c-2.985-0.764-6.558-1.649-11.456-3.254c-2.167-1.002,5.338,1.243,11.101,2.984
								c-3.526-1.189-1.223-0.65,0.7-0.222c1.924,0.407,3.47,0.749-1.537-0.8c-5.407-1.511-10.42-3.077-15.2-4.541
								c-2.392-0.731-4.722-1.438-7.033-2.098c-1.159-0.327-2.311-0.644-3.467-0.942c-0.585-0.145-1.167-0.289-1.745-0.431
								c-0.772-0.17-1.54-0.338-2.302-0.506c-1.729-0.311-3.446-0.59-5.055-0.535c-1.626,0.006-3.108,0.293-4.444,1.028
								c-0.754,0.275-1.197,0.961-1.63,1.508c-0.437,0.571-0.809,1.197-1.089,1.913c-0.582,1.407-0.961,2.977-1.243,4.546
								c-0.153,0.78-0.28,1.568-0.396,2.355l-0.203,1.616c-0.122,1.057-0.228,2.101-0.316,3.137
								c-0.181,2.074-0.315,4.122-0.41,6.164c0.307-3.298,0.672-6.693,1.201-10.156l0.269-1.593
								c0.106-0.623,0.243-1.229,0.363-1.845c0.261-1.222,0.582-2.417,1-3.527c0.421-1.119,1.018-2.023,1.739-2.872
								c0.341-0.472,0.92-0.701,1.428-0.923c0.514-0.239,1.056-0.37,1.596-0.505c2.202-0.418,4.639-0.083,6.984,0.396
								c0.58,0.134,1.158,0.268,1.732,0.4c0.406,0.105,0.811,0.21,1.212,0.314c0.804,0.208,1.573,0.435,2.337,0.655
								c3.04,0.894,5.824,1.829,8.365,2.705l-4.482-0.849c-1.444-0.509-2.829-0.98-4.188-1.406c-0.682-0.211-1.346-0.42-2.02-0.607
								c-0.335-0.095-0.667-0.188-0.997-0.281c-0.411-0.102-0.818-0.203-1.223-0.304c-0.92-0.243-1.814-0.375-2.707-0.559
								c-0.882-0.094-1.771-0.25-2.614-0.231c-1.715-0.054-3.273,0.243-4.72,1.054c-1.198,1.114-1.89,2.479-2.416,4.143
								c-0.514,1.643-0.866,3.414-1.173,5.242c-0.439,2.649-0.783,5.363-1.141,8.37c0,0,0.198-1.682,0.57-4.217
								c0.098-0.635,0.204-1.323,0.316-2.051c0.062-0.365,0.125-0.741,0.19-1.125c0.075-0.416,0.152-0.84,0.23-1.272
								c0.422-2.189,0.905-4.556,1.831-6.549c0.254-0.474,0.516-0.937,0.835-1.348c0.323-0.388,0.606-0.91,1.136-1.113
								c0.982-0.481,1.974-0.772,3.012-0.817c2.059-0.15,4.104,0.229,5.819,0.583c1.916,0.441,2.673,0.67,3.471,0.89
								c0.722,0.21,1.135,0.331,1.135,0.331c6.069,2.017,6.949,2.519,5.248,2.061c-0.861-0.238-2.402-0.666-4.331-1.2
								c-0.973-0.265-2.044-0.558-3.198-0.843c-0.29-0.07-0.583-0.141-0.88-0.213c-0.379-0.085-0.763-0.172-1.15-0.26
								c-0.78-0.162-1.57-0.311-2.366-0.431c0.783,0.125,1.548,0.284,2.268,0.438c0.36,0.088,0.709,0.173,1.042,0.255
								c0.271,0.071,0.53,0.14,0.774,0.204C60.904,8.274,61.598,8.489,61.884,8.625z"/>
							<path fill="#FFFFFF" d="M50.957,17.329l0.07-0.314c0.034-0.285,0.075-0.637,0.097-0.818L50.957,17.329z"/>
							<path fill="#FFFFFF" d="M803.393,379.229l2.306-0.278C803.771,379.104,803.179,379.188,803.393,379.229z"/>
							<path fill="#FFFFFF" d="M46.464,32.732l0.002-0.019C46.457,32.894,46.453,32.938,46.464,32.732z"/>
							<path fill="#FFFFFF" d="M746.121,382.757c0.08-0.019,0.16-0.038,0.301-0.072C746.219,382.719,746.22,382.734,746.121,382.757
								z"/>
							<path fill="#FFFFFF" d="M731.95,395.79c0.107,0.016,0.14,0.036,0.39,0.038C733.549,395.688,732.959,395.716,731.95,395.79z"
								/>
							<path fill="#FFFFFF" d="M746.082,382.812c-0.001-0.017-0.04-0.029,0.039-0.055
								C746.08,382.779,745.981,382.805,746.082,382.812z"/>
							<path fill="#FFFFFF" d="M469.312,400.043c0,0,0.876,0.093,2.257,0.181C472.104,400.173,471.568,400.114,469.312,400.043z"/>
							<path fill="#FFFFFF" d="M524.089,400.172c0.349,0.011,0.555,0.017,1.002,0.03L524.089,400.172z"/>
							<path fill="#FFFFFF" d="M105.512,392.771c2.705,0.232,4.735,0.387,6.45,0.506
								C109.99,393.099,107.855,392.924,105.512,392.771z"/>
							<path fill="#FFFFFF" d="M746.422,382.685c0.567-0.106,1.377-0.235,2.713-0.423
								C747.662,382.466,746.884,382.593,746.422,382.685z"/>
							<path fill="#FFFFFF" d="M385.75,401.969c0.585-0.007,1.133-0.013,1.687-0.02c-0.336-0.017-0.671-0.034-1.001-0.051
								L385.75,401.969z"/>
							<path fill="#FFFFFF" d="M357.165,400.841c0.978-0.028,1.427-0.076,1.976-0.113c-10.209-0.131-28.945-1.032-31.187-0.532
								c3.463,0.107,21.403,1.075,18.333,1.307c7.119,0.111,17.623,0.888,21.459,0.845c-11.674-0.596-1.249-0.519,6.643-0.525
								c7.168,0.341-1.362,0.434,4.813,0.688l16.599,0.332l-14.456-0.422l4.404-0.451c-0.536,0.007-0.903,0.011-1.476,0.018
								C359.812,401.641,382.216,401.167,357.165,400.841z"/>
							<path fill="#FFFFFF" d="M359.141,400.728c1.53,0.024,2.875,0.019,3.921-0.021
								C360.754,400.668,359.858,400.678,359.141,400.728z"/>
							<path fill="#FFFFFF" d="M259.356,395.487c-1.256-0.043-2.617-0.089-4.327-0.147
								C255.844,395.368,257.734,395.432,259.356,395.487z"/>
							<path fill="#FFFFFF" d="M959.099,343.297c-0.146,0.182-1.259,3.658-2.333,7.049c-1.186,3.355-2.249,6.66-2.031,6.605
								c0.692-1.984,1.387-3.977,2.084-5.975c0.691-2,1.246-4.052,1.881-6.083L959.099,343.297z"/>
							<path fill="#FFFFFF" d="M46.833,329.061c-0.229,1.57-0.46,3.146-0.691,4.722c-0.024,0.343-0.048,0.672-0.066,0.928
								C46.276,333.758,46.646,330.637,46.833,329.061z"/>
							<path fill="#FFFFFF" d="M341.877,401.549c2.614,0.026,3.779,0,4.41-0.047C344.594,401.477,343.031,401.478,341.877,401.549z"
								/>
							<path fill="#FFFFFF" d="M47.968,328.318c0.409-1.983,1.019-4.907,1.241-5.303c0.594-4.095,0.786-7.003,1.308-11.184
								C49.9,316.546,49.073,321.984,47.968,328.318z"/>
							<path fill="#FFFFFF" d="M50.557,311.492c-0.014,0.117-0.028,0.234-0.041,0.34C50.53,311.715,50.543,311.609,50.557,311.492z"
								/>
							<path fill="#FFFFFF" d="M961.258,335.141c0.221-1.2,0.449-2.438,0.684-3.71l-0.29,1.944c0.755-3.178,1.325-6.376,1.922-9.577
								c0.194-1.161,0.309-2.437,0.521-3.99c-0.072,0.628-0.096,1.12-0.092,1.428c0.164-1.048,0.324-2.072,0.483-3.096
								c0.342-3.883,0.844-10.654,1.114-17.156c0.101-3.255,0.22-6.437,0.212-9.159c0.034-2.721,0.02-4.977-0.039-6.374
								c-0.032-7.386-0.285-16.425-0.437-22.101c0.167,5.259,0.312,12.236,0.54,10.139c0.089-10.679,0.672-15.916-0.889-34.343
								l0.537,10.823c0,0-0.536-6.072-1.073-12.144c-0.56-6.075-1.12-12.15-1.12-12.15c-0.06-8.554,1.123,12.133,1.634,15.489
								c-0.721-9.452-1.011-18.138-1.208-25.557c-0.209-7.419-0.302-13.567-0.831-17.959c0.229-0.627,0.517-1.465,0.745-3.702
								c0.214-2.237,0.339-5.87,0.326-12.094c-0.271,4.487-0.363,2.623-0.462,0.553c-0.089-2.069-0.138-4.345-0.492-0.658
								c-0.101-2.157-0.039-5.638,0.094-8.668c0.142-3.03,0.245-5.61,0.087-5.978l0.155,1.176
								c0.844-10.629,1.557-17.67,1.877-23.194c0.327-5.524,0.317-9.535,0.369-14.022c0.568-12.518-0.802-21.571-4.029-29.271
								c-3.173-7.724-8.294-13.918-15.521-21.2c-0.302-0.826-3.714-5.379-9.679-11.221c-1.52-1.222-5.677-5.114-9.285-9.278
								c-1.819-2.062-3.466-4.232-4.724-5.933c-1.253-1.707-2.179-2.905-2.561-3.226c1.97,3.097,3.435,5.394,4.722,6.972
								c1.227,1.63,2.183,2.608,2.982,3.469c1.644,1.675,2.827,2.733,5.981,5.929c2.392,2.887,2.431,3.083,2.703,3.533
								c0.277,0.442,0.821,1.119,4.325,4.783c-1.417-1.47-3.814-3.794-6.647-6.659c-2.826-2.867-6.09-6.297-9.028-10.116
								c-1.482-1.904-2.839-3.911-4.079-5.815c-1.237-1.893-2.416-3.682-3.573-5.247c-2.299-3.149-4.656-5.287-6.301-6.608
								c0,0,2.41,1.719,2.354,1.783c-0.571-0.611-1.234-1.062-1.811-1.56c-0.294-0.244-0.58-0.483-0.861-0.716
								c-0.29-0.225-0.598-0.417-0.887-0.624c-0.582-0.409-1.143-0.803-1.686-1.184c-0.574-0.346-1.132-0.682-1.678-1.011
								c-2.188-1.328-4.34-2.376-6.804-3.455c-2.493-1.016-5.312-2.058-8.995-3.048c-1.833-0.519-3.901-0.958-6.215-1.489
								c-2.318-0.509-4.888-1.112-7.826-1.548c0,0-2.79-0.472-5.581-0.945c-1.39-0.257-2.796-0.428-3.848-0.566
								s-1.753-0.231-1.753-0.231c0.547,0.032,0.619-0.023,0.915-0.026c-4.566-0.765-7.672-1.34-10.103-1.669
								c-2.423-0.387-4.147-0.662-5.932-0.946c-1.783-0.3-3.645-0.459-6.326-0.725c-1.343-0.115-2.893-0.247-4.743-0.405
								c-1.855-0.117-4.017-0.2-6.574-0.314c1.581,0.067,0.595-0.062,2.202,0.008c-5.812-0.611-11.684-0.73-17.19-0.805
								c-5.513,0.045-10.662,0.113-15.075,0.242c-5.391-0.452,1.275-0.47,4.616-0.825c-10.285-0.122-20.979,0.302-30.673,0.979
								c-9.695,0.713-18.396,1.606-24.744,2.353l-13.241,0.721c7.823-0.836,17.378-1.979,14.965-2.106
								c-7.271,0.637-5.848,0.71-16.141,1.445c1.731-0.436,6.023-1.081,10.838-1.799c-21.329,1.136-4.675,1.411-19.642,1.695
								c-6.685,0.55-10.527,1.331-11.228,1.756L705.1,26.721c-1.305,0.585-16.253,1.882-26.055,2.698
								c-1.184,0.296,7.933-0.124,11.636-0.602c-0.702,0.417-11.12,1.448-17.842,1.897c-1.265-0.401-12.253,0.438-21.965,0.898
								c-9.711,0.492-18.13,0.697-14.166,0.013c-15.105,0.644-33.323,0.646-50.213-0.49c-1.056-0.064-2.106-0.129-3.151-0.193
								c-1.043-0.092-2.08-0.184-3.109-0.275c-2.06-0.184-4.091-0.366-6.085-0.544c-3.985-0.391-7.808-0.913-11.427-1.322
								c-3.603-0.539-6.99-1.045-10.098-1.509c-3.096-0.518-5.895-1.069-8.36-1.496c-1.607-0.371-3.632-0.838-5.641-1.302
								c-1.999-0.483-3.984-0.963-5.525-1.336c-3.077-0.764-4.364-1.163-0.391-0.536c-23.78-5.16-36.235-6.529-60.229-7.078
								c-0.993-0.072,1.722-0.045,4.58-0.042c2.855,0.059,5.852,0.149,5.433-0.037c-7.853-0.193-15-0.222-23.241-0.094
								c-8.238,0.168-17.58,0.563-29.732,1.946c4.093-0.41,5.27-0.726,5.831-0.881c0.44,0.125-9.946,1.281-16.222,2.062
								c-1.77,0.167-0.598-0.008,0.77-0.19c1.369-0.166,2.931-0.355,1.932-0.321c-23.522,2.26-44.109,5.495-64.721,8.356
								c-20.607,2.846-41.269,5.609-64.862,6.545c1.685-0.007,3.235-0.125,4.66-0.231c1.425-0.114,2.726-0.218,3.91-0.313
								c2.367-0.208,4.261-0.411,5.739-0.598c2.956-0.374,4.243-0.681,4.304-0.817l-13.155,0.792
								c-1.264,0.14-2.827,0.356-4.597,0.43c-1.771,0.073-3.741,0.155-5.811,0.24c-4.143,0.155-8.686,0.308-12.826,0.513
								c-1.018-0.101-5.044-0.15-0.938-0.386c-3.255,0.041-6.328-0.162-9.28-0.194c-2.952-0.063-5.783-0.094-8.547-0.104
								c-2.766,0.009-5.465,0.019-8.155,0.027c-2.688-0.034-5.366-0.068-8.09-0.103c-5.448-0.071-11.087-0.09-17.346-0.29
								c-6.255-0.224-13.138-0.544-21.09-1.059c0,0,9.652,0.196,19.303,0.392c4.822,0.126,9.656,0.11,13.275,0.154
								c3.62,0.029,6.033,0.048,6.033,0.048l-9.52-0.851l16.966,0.114c-10.101-0.779-18.936-0.32-20.132-0.86
								c2.144-0.049,7.293,0.209,7.465-0.048c-4.851-0.298-7.47-0.364-9.791-0.381c-2.321-0.041-4.343-0.039-7.995-0.188
								c2.411,0.004,5.108,0.046,8.024,0.102c2.915,0.044,6.048,0.091,9.329,0.14c6.561,0.113,13.712,0.407,20.893,0.374
								c3.59,0.027,7.188,0.055,10.724,0.083c1.768,0.016,3.521,0.032,5.249,0.048c1.727-0.048,3.429-0.095,5.098-0.142
								c6.674-0.193,12.822-0.371,17.885-0.518c1.588-0.13,0.911-0.014-0.235,0.108c-1.147,0.106-2.763,0.244-3.044,0.3
								c4.136-0.032,7.436-0.295,11.009-0.426c1.786-0.093,3.639-0.189,5.695-0.296c2.054-0.14,4.315-0.224,6.904-0.539
								c3.204-0.505,1.968-0.47-0.706-0.255c-2.674,0.222-6.798,0.426-9.357,0.58c0.682-0.423,3.258-0.511,8.947-0.979
								c0.636,0.185,8.45-0.483,17.028-1.22c8.565-0.94,17.901-1.863,21.595-2.085c30.33-4.05-5.017-0.58,24.638-4.26l8.926-0.615
								c4.295-0.651,8.904-1.351,13.706-2.079c4.804-0.715,9.826-1.344,14.91-2.019c5.079-0.708,10.265-1.209,15.394-1.734
								c2.565-0.252,5.118-0.504,7.642-0.753c2.532-0.187,5.036-0.371,7.496-0.552l-4.145,0.331
								c-2.743,0.447,1.832,0.249,3.857,0.219c14.865-0.839,28.318-1.609,37.367-0.656c2.134,0.015,4.448,0.009,6.898,0.155
								c2.45,0.136,5.046,0.18,7.729,0.463c5.393,0.355,11.095,1.284,16.904,2.1c1.459,0.186,2.895,0.456,4.33,0.728
								c1.438,0.267,2.874,0.534,4.307,0.8c2.859,0.538,5.723,1.049,8.47,1.613c5.52,1.102,10.81,2.185,15.523,3.008
								c1.233,0.434,0.309,0.383-1.9,0.045c-1.104-0.173-2.528-0.401-4.167-0.706c-1.64-0.324-3.491-0.691-5.445-1.078
								c-3.897-0.793-8.214-1.666-12.087-2.371c-3.868-0.697-7.218-1.391-9.261-1.548c0,0,0.273,0.044,0.754,0.123
								c0.479,0.08,1.169,0.178,1.978,0.356c1.626,0.332,3.793,0.774,5.96,1.217c2.168,0.443,4.335,0.886,5.96,1.218
								c1.613,0.35,2.688,0.583,2.688,0.583c-10.686-2.21-14.968-2.902-21.539-3.465c15.278,2.718,20.318,3.54,34.654,6.265
								c-1.151-0.025,0.73,0.475,7.32,1.795l1.957-0.108c0.115,0.06,0.84,0.214,2.876,0.578c0,0,1.597,0.241,3.992,0.602
								c1.199,0.171,2.591,0.415,4.095,0.595c1.504,0.176,3.109,0.363,4.714,0.55c1.604,0.187,3.208,0.375,4.712,0.55
								c1.509,0.132,2.918,0.254,4.125,0.359c2.415,0.206,4.024,0.343,4.024,0.343c-2.72-0.369-4.134-0.666-5.697-0.951
								c-1.566-0.264-3.271-0.586-6.572-1.022c1.162,0.293,0.341,0.273-1.6,0.073c-0.97-0.111-2.219-0.255-3.641-0.418
								c-1.421-0.176-2.998-0.464-4.645-0.724c5.812,0.622-6.371-1.31-6.182-1.546c3.292,0.534,6.772,1.098,10.276,1.666
								c3.525,0.439,7.074,0.881,10.479,1.305c3.421,0.31,6.698,0.607,9.666,0.876c2.975,0.205,5.643,0.338,7.83,0.46l2.816,0.643
								c12.74,0.833,26.251,0.574,34.924,0.551l-2.731,0.298c15.358-0.07,30.466-1.178,44.131-1.68
								c13.665-1.448,30.869-3.368,42.033-4.871c5.936-1.108,40.331-2.777,55.869-4.312c1.047-0.021-10.663,1.05-15.941,1.657
								c5.166-0.318,9.797-0.756,13.545-1.08c3.753-0.29,6.622-0.468,8.259-0.247c-23.237,1.035,1.272,0.41-9.177,1.146
								c10.861-0.63,22.333-1.181,27.68-1.464c-17.641,0.464,6.24-1.089-11.61-0.229c13.804-1.064,32.786-1.523,49.349-0.303
								c-0.179,0.253,1.855,0.513,8.012,1.037c0,0,1.251-0.019,2.501,0.019c1.252,0.024,2.503,0.049,2.503,0.049
								c3.865,0.408,0.113,0.16-2.655,0.016c-1.384-0.086-2.524-0.081-2.346-0.016c0.18,0.055,1.676,0.228,5.56,0.647
								c8.039,0.331,20.069,2.055,30.858,4.228c1.349,0.273,2.681,0.542,3.984,0.806c0.652,0.131,1.298,0.26,1.936,0.388
								c0.634,0.15,1.259,0.298,1.874,0.444c2.468,0.569,4.786,1.104,6.877,1.587c4.189,0.942,7.502,1.798,9.326,2.073
								c2.972,1.124,3.01,1.233,1.688,0.87c-0.656-0.191-1.657-0.484-2.809-0.82c-1.145-0.307-2.438-0.654-3.684-0.989
								c-2.484-0.638-4.777-1.119-5.333-1.152c-0.277-0.021-0.12,0.069,0.664,0.318c0.784,0.234,2.195,0.663,4.421,1.363
								c-2.642-0.648-5.518-1.261-8.401-1.937c-1.44-0.341-2.884-0.684-4.303-1.02c-1.422-0.315-2.829-0.576-4.175-0.852
								c-2.696-0.527-5.165-1.055-7.198-1.362c-2.036-0.287-3.618-0.462-4.516-0.456c2.603,0.381,4.136,0.642,5.075,0.836
								c0.936,0.219,1.278,0.365,1.506,0.486c0.456,0.245,0.451,0.419,3.772,1.09c0,0,0.723,0.122,1.808,0.304
								c1.081,0.196,2.537,0.396,3.972,0.7c2.873,0.6,5.747,1.199,5.747,1.199l-2.52-0.633c2.409,0.531,4.998,1.029,7.717,1.734
								c2.719,0.671,5.58,1.521,8.535,2.506c1.47,0.546,2.978,1.052,4.479,1.717c0.752,0.329,1.509,0.66,2.271,0.993
								c0.75,0.385,1.504,0.772,2.264,1.162c2.985,1.641,6.053,3.641,8.625,6.297c2.578,2.612,4.627,5.592,6.492,8.432
								c0.944,1.43,1.833,2.819,2.757,4.142c0.446,0.679,0.944,1.302,1.42,1.949c0.478,0.643,0.95,1.287,1.475,1.903
								c4.037,5.015,8.717,9.555,13.166,13.881c3.878,3.569,7.522,6.885,10.928,10.365c3.397,3.482,6.592,7.12,9.378,11.401
								c2.759,4.293,5.009,9.177,6.467,14.676c1.475,5.495,2.173,11.574,2.096,18.18c-0.074-1.951-0.144-1.551-0.214-0.123
								c-0.031,0.713-0.073,1.685-0.119,2.75c-0.071,1.057-0.149,2.207-0.222,3.288c-0.198,2.146-0.391,4.017-0.521,4.324
								c-0.126,0.311-0.123-0.92-0.063-5.002c-0.439,5.999-1.104,11.819-1.469,16.185c-0.38,4.362-0.502,7.262-0.368,7.39
								c0.525-5.06,0.672-5.971,0.765-6.661c0.098-0.694,0.187-1.178,0.701-5.514c-0.13,2.956-0.613,7.78-1.027,12.481
								c-0.386,4.71-0.768,9.382-0.99,12.105c0.168-2.528,0.051-1.57-0.017-2.133c-0.246,3.022-0.299,4.906-0.321,6.158
								c-0.021,1.252,0.008,1.876,0.051,2.395c0.081,1.036,0.229,1.653,0.236,6.045c-0.26,1.388-0.317,6.243-0.243,11.762
								c0.064,5.519,0.29,11.704,0.337,15.744l1.158,11.679c-0.75-6.423,0.416,11.241,0.141,13.12
								c0.733,8.413,1.676,15.46,2.036,28.389c-0.206-2.665-0.172,0.284-0.18,3.936c0.023,3.646-0.077,8.005-0.275,8.118
								c-0.051,11.092,0.032,20.31-0.294,29.418c-0.348,9.097-1.059,18.114-3.282,28.557c0.009-0.674,0.486-4.949-0.709,1.154
								c-0.837,4.83-2.774,13.213-4.343,18.244l0.035-0.163c-0.024,0.1-0.039,0.161-0.065,0.267c-0.665,2.49-1.181,4.03-1.093,4.126
								c-0.632,2.166-1.116,4.099-1.717,5.995c-0.621,1.893-1.241,3.786-1.947,5.939c-0.784,2.127-1.722,4.493-2.87,7.371
								c-0.643,1.41-1.342,2.944-2.113,4.636c-0.399,0.852-0.771,1.714-1.251,2.67c-0.48,0.96-1.013,1.967-1.62,3.015
								c0.29-0.239,1.029-1.311,1.909-2.883c0.845-1.541,1.804-3.507,2.861-5.658c2.043-4.313,4.072-9.352,5.12-12.454
								c0,0,0.393-1.362,0.785-2.725c0.373-1.367,0.689-2.749,0.689-2.749c0.603-1.218,1.217-2.787,1.822-4.514
								c0.546-1.742,1.059-3.649,1.554-5.517c0.525-1.86,0.865-3.722,1.246-5.339c0.356-1.623,0.727-3.012,0.988-4.001
								c-0.773,5.289-3.141,15.461-7.208,26.152c-1.971,5.363-4.443,10.801-6.938,15.929c-2.552,5.301-6.069,10.61-10.373,14.354
								c2.769-2.089,5.806-5.332,8.363-9.308c1.296-1.979,2.487-4.161,3.523-6.247c1.067-2.143,2.278-4.346,3.288-6.729
								c4.337-9.404,8.067-20.475,10.523-30.974c0,0-0.643,2.287-1.286,4.574c-0.725,2.266-1.45,4.53-1.45,4.53
								s0.196-0.678,0.49-1.695c0.283-1.019,0.715-2.366,1.029-3.74c0.676-2.735,1.353-5.472,1.353-5.472s-0.782,2.615-1.564,5.229
								c-0.37,1.311-0.832,2.599-1.161,3.568c-0.331,0.968-0.552,1.613-0.552,1.613c3.059-10.225,4.707-19.298,6.078-28.756
								c-1.622,11.097-3.341,15.223-2.006,9.021c1.356-6.101,1.633-9.343,1.916-12.206c0.091-1.434,0.176-2.777,0.276-4.354
								c0.126-1.571,0.27-3.375,0.458-5.736c-0.203,2.625-0.594,5.642-0.823,7.448c-0.241,1.808-0.379,2.403-0.276,0.189
								c1.365-9.252,1.677-15.169,2-20.854c0.274-5.688,0.459-11.16,0.716-19.581c-0.395,1.046-0.464-4.208-0.624-10.017
								c-0.148-5.812-0.417-12.171-0.805-13.404l0.243,7.753c0,0-0.289-4.104-0.578-8.208c-0.319-4.092-0.638-8.185-0.638-8.185
								c-0.113-15.137,1.368,13.333,0.643-9.663c-0.524-10.58-0.976-15.695-1.388-20.252c-0.414-4.556-0.813-8.546-1.063-16.801
								c0.589,5.43,1.486,18.491,2.224,31.902l-0.187-8.121c0.471,4.254,1.46,22.819,1.827,32.165
								c-1.272-15.372,0.221,7.2-0.103,14.278c0.493,1.287,0.167-8.661,0.832,3.078c-0.122-5.507-0.232-8.658-0.362-12.173
								c-0.125-3.509-0.263-7.391-0.511-14.353c0.655,15.014,1.219,21.824,1.71,28.157c0.452,6.337,0.983,12.219,0.232,25.601
								c0.134-6.172-0.09-5.098-0.352-2.308c-0.253,2.791-0.736,7.312-0.875,8.043c-0.063,1.45-0.224,3.276-0.358,5.272
								c-0.122,1.997-0.327,4.166-0.547,6.306c-0.363,4.282-0.99,8.438-1.249,10.866l1.284-4.289
								c-0.896,7.842-2.299,13.038-3.693,18.498c-0.39,1.359-0.784,2.736-1.196,4.176c-0.407,1.438-0.789,2.948-1.294,4.544
								c-0.48,1.602-0.974,3.312-1.487,5.179c-0.564,1.855-1.173,3.86-1.841,6.058c-0.202,1.197,1.158-2.615,2.343-6.361
								c1.09-3.77,2.101-7.441,1.68-5.845c-3.173,12.161-6.576,20.12-10.198,27.48c-0.971,1.811-1.931,3.601-2.908,5.423
								c-0.246,0.454-0.492,0.91-0.74,1.368c-0.279,0.481-0.561,0.966-0.844,1.454c-0.589,0.979-1.217,1.971-1.896,2.979
								c-1.373,2.011-2.967,4.09-4.983,6.15c-2.016,2.05-4.477,4.09-7.521,5.778c-0.629,0.484-0.815,0.787-1.969,1.522
								c-0.566,0.392-1.401,0.83-2.685,1.406c-0.64,0.289-1.41,0.537-2.312,0.852c-0.902,0.279-1.954,0.55-3.163,0.789
								c1.493-0.449,0.43-0.433,0.361-0.55c-0.036-0.064,0.173-0.17,1.052-0.419c0.438-0.14,1.049-0.25,1.865-0.543
								c0.818-0.269,1.855-0.598,3.119-1.158c-4.367,1.728-9.512,2.296-13.986,2.088c-4.516-0.182-8.434-0.943-11.574-1.506
								c1.899,0.423,3.228,0.719,4.091,0.911c0.892,0.195,1.301,0.306,1.341,0.347c0.09,0.082-1.359-0.088-3.297-0.399
								c-1.96-0.316-4.286-0.766-6.329-1.054c-2.044-0.313-3.803-0.578-4.471-0.643c-7.366-1.464,2.32,0.028,6.897,0.772
								c-2.957-0.614-6.168-1.398-9.082-2.038c-1.456-0.32-2.837-0.603-4.07-0.809c-1.239-0.177-2.338-0.243-3.211-0.224
								c-0.042-0.113,0.994-0.086,2.748,0.042c1.742,0.184,4.19,0.527,6.996,0.932c1.402,0.209,2.894,0.433,4.428,0.661
								c0.767,0.119,1.545,0.24,2.327,0.361c0.798,0.145,1.602,0.291,2.404,0.437c3.264,0.601,6.764,1.188,10.063,1.412
								c0,0-0.545-0.06-1.363-0.149c-0.407-0.048-0.883-0.103-1.392-0.162c-0.492-0.077-1.018-0.159-1.542-0.242
								c-2.095-0.338-4.058-0.762-4.058-0.763c2.755,0.431,4.467,0.681,6.558,0.911c0.527,0.056,1.074,0.112,1.666,0.175
								c0.604,0.047,1.27,0.072,1.999,0.112c0.721,0.057,1.554,0.034,2.482,0.014c0.919,0.009,1.972-0.099,3.153-0.238
								c-4.649,0.376-6.512-0.166-7.128-0.308c-0.604-0.199,0.128-0.329,1.129-0.438c1.119,0.11-0.63,0.074,0.441,0.181
								c3.553,0.182,6.909-0.338,8.985-0.942c2.096-0.616,2.984-1.138,2.133-0.915c1.534-0.739,1.663-0.898,0.957-0.69
								c-0.356,0.098-0.919,0.305-1.641,0.531c-0.732,0.179-1.606,0.481-2.589,0.658c-0.49,0.094-1.003,0.192-1.529,0.294
								c-0.526,0.076-1.068,0.123-1.614,0.184c-1.101,0.149-2.19,0.146-3.24,0.16c-2.088-0.009-3.923-0.217-5.042-0.42
								c-3.428-0.351-6.662-1.012-9.695-1.61c0,0-0.503-0.088-1.36-0.192c-0.859-0.111-2.088-0.271-3.562-0.461
								c-2.95-0.356-6.856-0.943-10.79-1.342c-3.937-0.346-7.874-0.69-10.826-0.95c-1.471-0.149-2.708-0.195-3.572-0.238
								s-1.357-0.067-1.357-0.067c-3.357-0.309-6.247-0.609-8.853-0.907c-2.604-0.316-4.945-0.452-7.169-0.699
								c-4.453-0.442-8.481-0.97-13.562-1.266l-2.809,0.373c-5.872-0.344-11.604-0.387-14.912-0.576
								c-3.308-0.171-4.202-0.378-0.418-0.634c0.424,0.17,1.982,0.153,4.543,0.214c0.341-0.062,0.933-0.101,1.679-0.129
								c0.246-0.032,0.384-0.05,0.587-0.077c-12.641-0.118-20.545,0.227-21.271,0.219c21.488-0.93,1.069-0.902,4.655-1.81
								c0,0-1.359,0.031-3.399,0.078c-2.04,0.065-4.758,0.068-7.479,0.217c-5.438,0.242-10.878,0.483-10.878,0.483
								c13.198-0.11,0.256,0.358-4.416,0.74c-0.657-0.212-5.038,0.006-10.209,0.314c-5.171,0.364-11.13,0.872-14.95,1.078
								l0.556-0.137c-3.54,0.171-8.406,0.523-13.488,0.916c-5.082,0.416-10.38,0.933-14.78,1.37
								c0.416,0.117-10.821,1.953-16.207,2.935c15.141-1.208,6.183-0.187,7.424,0.004c-1.567,0.115-4.382,0.367-4.703,0.46
								c-2.151,0.337,2.954-0.085,3.396,0.038c8.021-0.816,16.157-1.644,23.107-2.352c6.941-0.663,12.691-1.306,15.94-1.87
								c-4.951,0.039-8.378,0.93-13.909,1.139c3.959-0.527,8.508-0.986,13.732-1.395c2.612-0.173,5.393-0.357,8.354-0.554
								c2.962-0.2,6.104-0.38,9.436-0.524l4.39,0.194c0,0,0.837-0.056,2.094-0.139c1.256-0.077,2.932-0.211,4.605-0.277
								c3.349-0.16,6.697-0.32,6.697-0.32c-2.794,0.196-3.345,0.375-4.954,0.569c-0.805,0.101-1.873,0.192-3.62,0.316
								c-1.747,0.142-4.171,0.304-7.685,0.498c0.906,0.154,4.391-0.057,8.725-0.303c4.331-0.187,9.516-0.444,13.817-0.501
								l4.387-0.589c-1.686,0.321,16.706,0.194,3.641,0.74c0,0-1.327,0.041-3.319,0.103c-1.992,0.075-4.645,0.109-7.304,0.274
								c-5.313,0.278-10.626,0.556-10.626,0.556l5.922,0.187c0,0-1.123,0.042-2.807,0.104c-1.685,0.073-3.928,0.12-6.177,0.264
								c-4.494,0.248-8.988,0.497-8.988,0.497l4.229-0.491c-7.219,0.422-11.367,0.689-13.982,0.787
								c-2.615,0.095-3.695,0.037-4.781-0.012c-2.172-0.106-4.369-0.163-18.919,1.305c-9.076,1.429-18.867,2.344-36.8,3.896
								c12.946-1.373,1.287-0.588,6.129-1.43c-13.243,0.976-17.673,1.941-24.515,2.848c-3.415-0.044-5.828-0.083,6.002-1.153
								c1.42-0.855-15.558,1.581-16.711,0.924c-19.641,1.672-27.478,2.844-36.149,4.045c-2.169,0.296-4.39,0.588-6.862,0.881
								c-2.473,0.278-5.2,0.505-8.374,0.756c-6.35,0.489-14.496,0.972-26.02,1.454l1.709-0.409
								c-7.3,0.595-13.839,0.917-19.957,1.214c-6.119,0.283-11.817,0.548-17.448,0.809c-11.261,0.578-22.26,0.773-35.807,1.317
								c0,0-5.339-0.034-10.678-0.067c-2.669-0.018-5.338-0.024-7.34-0.082c-2.002-0.043-3.337-0.071-3.337-0.071
								c4.771-0.125,17.58-1.149,11.586-1.325c10.393,0.47,21.396-0.13,32.589-0.046c1.134-0.236-3.423-0.247-5.409-0.313
								c6.746-0.165,10.143,0.014,19.043-0.532c-0.438-0.141-10.159,0.108-2.842-0.32l12.135-0.072
								c8.1-0.483,10.08-0.861,12.418-1.199c2.336-0.353,5.032-0.576,14.545-1.091c-1.756,0.323-4.431,0.753-7.587,1.171
								c-3.159,0.375-6.801,0.715-10.484,0.936c8.706-0.304-11.587,0.787-3.634,0.681c6.252-0.618,10.898-0.811,16.059-1.122
								c5.159-0.325,10.837-0.652,19.151-1.369c-1.95,0.21-2.46,0.366-6.556,0.661l24.186-1.24
								c-5.997,0.126,19.913-1.974,17.623-2.35c-12.868,0.919-17.404,1.326-22.4,1.615c-4.993,0.327-10.438,0.671-25.115,1.429
								c8.299-0.642,18.972-1.868,23.951-2.695c0.257,0.006,0.681-0.003,1.584-0.049c4.442-0.823-0.135-0.686-0.112-1.642
								c-13.334,1.485-22.31,1.567-38.072,2.827c-1.472,0.32,0.829,0.407,4.477,0.29c3.646-0.143,8.639-0.451,12.558-0.763
								l-13.887,1.206l2.725-0.405c0,0-2.206,0.147-5.52,0.265c-3.312,0.135-7.729,0.314-12.145,0.493
								c-8.833,0.358-17.665,0.718-17.665,0.718c6.692-0.333,8.951-0.739,12.433-1.126c-4.557,0.188-9.076,0.255-13.881,0.322
								c1.028,0.452,0.407,0.832-4.038,1.025c-22.741,0.605-35.392,0.529-43.791,0.172c-0.872,0.025-1.855,0.053-2.646,0.075
								c3.823,0.453-16.128,1.159-23.17,1.786c0.171-0.267-2.76-0.302-6.553-0.292c-1.896,0.008-4.009,0.017-6.057,0.025
								c-2.048-0.022-4.032-0.059-5.671-0.124c-3.485,0.587,1.173,1.489,9.164,1.877c15.38-0.783,8.616-0.687,15.872-1.581
								c0,0,6.166-0.224,12.331-0.446c3.082-0.112,6.164-0.224,8.476-0.308c2.311-0.117,3.852-0.196,3.852-0.196
								s-1.376,0.162-2.751,0.323c-1.375,0.172-2.752,0.3-2.752,0.299c12.317-0.104,24.123-1.129,23.238-0.463
								c-6.492,0.599-17.241,0.71-23.688,1.259c0,0,2.038,0.041,4.075,0.025c2.038-0.003,4.076-0.006,4.076-0.006
								c-7.179,0.543-9.025,0.374-11.25,0.245c-2.224-0.139-4.826-0.296-13.524,0.05c6.41,0.438-1.576,0.063-9.027,0.532
								c5.99,0.282,30.645-0.611,25.433,0.375c-4.523,0.266-12.145,0.114-20.128,0.03c-3.992-0.041-8.074-0.065-11.907-0.013
								c-3.832,0.066-7.415,0.181-10.408,0.393l0.585-0.104c-17.67-0.098-23.88,0.427-30.499,0.761
								c-1.88-0.073-3.939-0.096-6.098-0.102c-2.158-0.027-4.415-0.029-6.692-0.021c-4.555,0.017-9.188,0.073-13.264,0.042
								l0.203-0.263l-11.499-0.025c5.481-0.417,13.474,0.173,23.351,0.22l-1.224-0.505c11.379,0.771,18.982-0.23,27.808-0.635
								c-3.212,0.109-7.086,0.159-11.137,0.188c-4.051,0.033-8.28,0.043-12.2-0.007c-7.841-0.056-14.454-0.031-15.968,0.431
								l-7.941-0.59l-3.805,0.134c-5.916-0.442,0.141-0.953,11.62-0.928c1.993,0.147,2.989,0.221,2.383,0.315
								c5.332-0.182,10.225-0.421,23.118-0.271c0,0-1.721,0.066-3.441,0.133c-1.721,0.052-3.441,0.104-3.441,0.104
								c16.055,0.079,30.654-0.171,36.147-0.646c-11.587-0.057-23.078-0.113-34.392-0.169c-11.312-0.144-22.446-0.285-33.324-0.423
								c-6.436,1.07-14.062,1.46-17.356,2.424c-7.304-0.079-15.915-0.201-24.283-0.39c-8.37-0.168-16.489-0.593-22.822-0.979
								l1.172-0.161c-6.182-0.322-11.884-0.466-16.642-0.516c-6.524-0.499,4.493-0.388-0.055-0.693c0,0-1.307-0.024-3.268-0.061
								c-1.961-0.031-4.576-0.083-7.188-0.168c-5.227-0.149-10.454-0.3-10.454-0.3c0.655-0.204,5.377-0.107,10.979,0.083
								c5.603,0.176,12.089,0.38,16.266,0.511c-1.577-0.016-4.763-0.05-3.744,0.048c9.711,0.526,27.835,0.387,32.063,1.181
								c4.74-0.005-9.638,0.267,6.398,0.686c10.732,0.511,14.244-0.011,15.37-0.187c0.18-0.261-16.84-0.765-10.925-0.941
								c-8.355-0.167-11.695,0.124-22.367-0.529c8.277,0.305,19.538,0.015,23.938,0.528c16.386-0.102,14.061-1.397,6.348-1.65
								c1.829,0.433-29.869-0.234-8.42,0.785c-9.659,0.344-27.267-0.333-39.889-0.451l0.577-0.08c0,0-3.915-0.105-7.83-0.212
								c-3.916-0.091-7.829-0.242-7.829-0.242c2.208-0.021,6.946,0.018,7.112-0.24c0,0-1.357-0.003-3.392-0.008
								c-2.035-0.023-4.747-0.055-7.46-0.086c-5.426-0.068-10.852-0.137-10.852-0.137c12.221,0.076-7.548-0.672-13.089-1.132
								c-2.34,0.299-10.821,0.212-2.708,0.81c9.118,0.706,5.327,0.022,13.631,0.366l-11.789,0.105l-1.005-0.108l-7.104,0.202
								c-16.009-0.897,7.054-0.826-13.485-1.433l2.632,0.855c-5.934-0.381-12.291-0.788-18.75-1.202
								c-6.457-0.431-13.015-0.887-19.35-1.394c-12.673-0.972-24.477-1.826-32.872-2.199c4.652-0.104,6.733-0.628,0.4-1.416
								c7.221,0.582,21.75,1.468,32.123,2.055c1.988,0.25-13.007,0.023-24.263-0.838c5.385,1.505,28.38,1.081,29.632,2.342
								c28.7,2.018,21.485,0.071,45.83,2.056c0.362-0.512,6.946,0.057,8.25-0.35c-7.182-1.102-32.591-1.662-48.393-2.811
								c1.551,0.046,4.671,0.138,5.287,0.071c-11.3-0.742-15.968-1-23.876-1.277l0.991,0.125c-13.825-0.354-8.51-0.93-16.611-1.672
								c-1.575-0.061-5.182-0.306-8.171-0.474c-2.988-0.185-5.358-0.297-4.464-0.039l-14.655-1.534l0.667,0.637
								c-8.289-0.549-10.075-1.064-17.611-1.236l-0.386,0.501l20.569,1.632c-10.443-0.563-2.943,0.299-14.414-0.398
								c12.846,0.327-9.038-0.93-10.263-1.506l-8.447-0.354l2.165,0.026c-6.592-0.78-7.888-0.411-15.6-1.075
								c9.081,0.979,15.01,1.855,26.643,2.312c-8.472-0.291-25.24-1.302-29.354-1.587c-8.884-0.47-15.047-1.319-23.331-2.082
								c15.93,1.085-5.45-1.99,26.418,0.857c-0.598,0.056-3.179-0.167-4.173-0.306c4.201,0.998,19.125,1.436,26.06,1.706
								c-1.752-0.527,5.486-0.062-6.758-1.218c4.004,0.558-10.395,0.064-22.036-1.151l2.119-0.668l-16.973-1.424l1.591,0.092
								c-6.34-1.061-18.117-1.397-29.779-2.678c-8.466-0.361-40.796-3.493-26.952-1.39c-3.738-0.515-7.324-0.863-10.915-1.141
								c-5.057-0.361-10.112-0.724-15.396-1.101c0.282-2.216,0.569-4.472,0.864-6.783c0.298-2.24,0.603-4.532,0.917-6.891
								c-0.749,4.681-1.498,9.361-2.162,13.977l7.655,0.863c-3.708-0.236-6.769-0.432-8.094-0.516
								c0.547-4.329,0.932-7.372,1.238-9.792c0.155-1.23,0.29-2.303,0.416-3.3c0.047-0.402,0.093-0.79,0.138-1.17
								c0.031-0.292,0.061-0.579,0.09-0.867c0.233-2.306,0.419-4.717,0.85-10.567c0.419-1.323,1.034-4.283,0.878-1.527
								c3.284-22.491,8.146-54.587,9.376-67.881c2.32-15.854,3.646-18.203,6.472-40.508c0.56-4.704-1.293,3.542,1.065-11.156
								c0.204-0.982-1.435,14.271,0.864-2.145c0.521-5.874,1.612-12.764,2.74-19.992c0.542-3.57,1.001-7.135,1.034-10.599
								c0.063-3.483-0.428-6.713-1.458-10.079c-0.785-3.592-2.624-8.596-4.072-12.549c-0.709-1.941-1.298-3.726-1.585-4.75
								c-0.279-1.042-0.303-1.394,0.059-0.712c1.05,3.214,2.375,6.552,3.568,9.799c1.202,3.255,2.268,6.445,2.951,9.319
								c0.149,0.716,0.348,1.419,0.452,2.09c0.113,0.671,0.223,1.321,0.328,1.945c0.129,1.254,0.264,2.402,0.29,3.443
								c0.102,2.066,0.06,3.611,0.079,4.261c-0.144-1.681-0.982,8.527-0.51-0.335c-0.363,4.477-0.909,7.596-1.213,9.919
								c-0.324,2.324-0.501,3.839-0.661,5.277c-0.321,2.884-0.592,5.523-1.962,14.123c0.029,1.218,1.83-8.782,2.183-12.503
								c0.694,0.019-4.567,34.037-1.542,18.832c1.356-9.206,1.876-15.227,2.434-20.93c0.273-2.849,0.584-5.637,0.935-8.604
								c0.336-2.971,0.729-6.147,0.828-9.839c0.298,2.955,0.019,6.873-0.519,11.125c-0.527,4.258-1.117,8.849-1.336,12.952
								l2.142-13.047c0,0,0.207-2.369,0.28-4.682c0.063-1.164,0.036-2.302,0.05-3.161c-0.027-0.848-0.046-1.414-0.046-1.414
								l0.092,0.539c0.167-2.759,0.05-5.084-0.252-7.121c-0.076-0.51-0.149-1.003-0.22-1.48c-0.104-0.478-0.204-0.94-0.3-1.387
								c-0.176-0.895-0.423-1.731-0.648-2.519c-0.934-3.152-1.918-5.52-2.936-7.825c-1.983-4.551-4.502-9.1-7.347-19.464
								c0.664,3.043,0.929,4.409,0.926,4.892c-0.005,0.484-0.271,0.083-0.557-0.416c-0.57-0.995-1.239-2.385-0.06,2.217
								c-2.126-6.981-3.426-13.098-4.188-17.477c-0.751-4.381-0.964-7.028-0.641-7.13c1.251,6.563,2.118,9.908,2.593,11.632
								c0.484,1.724,0.62,1.824,0.726,1.865c0.111,0.04,0.211,0.018,0.673,1.482c0.504,1.457,1.265,4.422,3.262,10.322
								c-0.487-1.988,0.193-0.645,0.455-0.583c0.301,0.056-0.015-1.122-1.783-8.233c-1.11-3.978-1.542-5.678-1.743-6.215
								c-0.197-0.539-0.13,0.08-0.055,0.698c0.177,1.232,0.28,2.483-1.442-5.571c-0.116-0.967-0.237-1.971-0.034-1.425
								c-0.86-3.686-1.162-5.871-1.502-8.246c-0.319-2.378-0.688-4.947-1.431-9.449l0.405,2.128
								c-0.487-5.603-0.911-8.641-1.296-11.493c-0.385-2.85-0.734-5.513-0.852-10.344c-0.238,3.89-0.904-6.438-1.46-12.406
								c0.129,4.894,0.119,8.676,0.275,13.652c0.176,4.975,0.475,11.15,1.701,20.798c0.344,1.14,0.538,1.349,0.792,2.259
								c0.256,0.91,0.566,2.523,1.276,6.454c0,0-0.507-3.12-0.936-6.246c-0.441-3.125-0.811-6.254-0.811-6.254
								c0.38,2.694,0.749,4.737,1.168,7.197c0,0,0.357,3.008,0.791,6.014c0.419,3.006,0.922,6.008,0.922,6.008
								c-1.51-7.566-1.882-9.613-2.244-10.55c-0.339-0.94-0.525-0.781-1.174-4.001c-0.769-7.001-1.086-9.889-1.332-12.127
								c-0.249-2.236-0.436-3.823-0.717-8.232c0.334,0.419,0.032-6.349-0.137-15.225c-0.189-8.877-0.173-19.865,0.063-27.907
								c-0.037,2.499-0.006,5.724-0.007,7.465c0.254,5.841,0.356,3.827,0.411,0.304c0.061-3.524,0.149-8.558,0.236-8.773
								c0,0-0.056-2.128-0.112-4.255c-0.04-2.129-0.08-4.257-0.08-4.257c0.009,1.603,0.114,3.819,0.259,0.193
								c0.064-5.759-0.011-8.476-0.084-11.193c-0.064-2.717-0.142-5.435,0.139-11.194c0.363-0.84,0.339,8.904,0.893,1.766
								c0.217-1.224,0.612-3.785,1.107-7.942c0.463-4.174,1.104-9.938,1.95-17.558c0.021-0.576,0.131-1.764,0.413-3.595
								c0.172-1.093,0.389-2.324,0.707-3.618c0.331-1.282,0.732-2.645,1.47-3.78c-0.418,0.629-0.778,1.545-0.878,1.901
								c0,0,0.076-0.177,0.208-0.488c0.126-0.316,0.359-0.719,0.654-1.19c0.152-0.23,0.323-0.477,0.532-0.726
								c0.091-0.131,0.232-0.24,0.353-0.364c0.142-0.1,0.318-0.159,0.479-0.242c0.326-0.175,0.693-0.234,1.048-0.36
								c0.371-0.059,0.743-0.132,1.123-0.169c1.529-0.134,3.128,0.166,4.298,0.367c0.586,0.131,1.075,0.239,1.417,0.315
								c0.341,0.076,0.536,0.135,0.536,0.135c-0.671-0.125-1.333-0.201-1.992-0.312c-0.657-0.066-1.315-0.156-1.962-0.184
								c-1.3-0.081-2.57-0.016-3.768,0.394c-0.307,0.075-0.582,0.269-0.874,0.399c-0.243,0.219-0.428,0.475-0.606,0.732
								c-0.328,0.524-0.625,1.066-0.854,1.667c-0.479,1.185-0.808,2.489-1.095,3.807c-0.147,0.658-0.281,1.324-0.403,1.996
								l-0.291,1.651c-0.182,1.094-0.342,2.186-0.479,3.277c-0.276,2.184-0.469,4.366-0.55,6.544l0.456,0.788
								c-0.684,6.726-1.014,15.884-0.932,20.098c0.311-5.127,0.5-8.229,0.697-11.485c0.213-3.255,0.404-6.664,0.985-12.393
								c0.489-1.561-0.112,6.514-0.141,7.677l-0.147-1.734c-0.835,6.807-1.016,11.932-1.135,17.469
								c-0.086,5.536-0.179,11.488-0.312,20.005c-0.062,2.57-0.076,1.001-0.168,0.427c0.317,13.784-0.131,27.336,1.317,40.685
								l-0.512-4.348c0.667,9.094,2.309,26.907,5.816,44.329l0.228,0.105c-0.215-1.96,0.89,4.602,1.567,8.105l-0.007-0.017
								c2.048,8.659,4.624,16.745,7.328,23.141c-0.699-2.152-1.543-4.799-2.485-7.915c-0.554-1.264-1.878-5.802-2.874-9.798
								c-1.005-3.992-1.753-7.417-1.809-6.269c-0.628-3.708-1.447-8.542-2.225-13.134c-0.74-4.602-1.344-8.979-1.543-11.739
								c0.403,5.025,0.074,3.301-0.422,0.097c-0.487-3.204-1.058-7.896-1.274-8.765c-0.004-3.407-1.136-14.929-0.559-13.64
								c0.003-1.997-0.031,4.972,0.602,9.232c0.647,5.25,0.325,0.42,0.104-4.085c-0.211-4.508-0.355-8.689,0.249-2.137
								c-0.711-8.335-1.14-18.033-1.315-27.802c-0.181-9.77-0.121-19.611-0.025-28.255c0,0-0.123,2.417-0.245,4.833
								c-0.104,2.418-0.208,4.836-0.208,4.836c0.103-3.842,0.273-10.31,0.557-15.981c0.272-5.671,0.64-10.542,0.805-11.211
								c-0.347,5.694-0.703,12.357-0.838,19.661c0.258,0.185,0.389-4.198,0.58-8.724c0.182-4.527,0.441-9.194,0.63-9.587
								c0,0,0.124-5.299,0.417-10.587c0.142-2.644,0.326-5.284,0.497-7.26c0.189-1.972,0.315-3.287,0.315-3.287
								c0,0-0.351,2.284-0.627,4.585c-0.261,2.304-0.521,4.608-0.521,4.608c0.072-1.461,0.268-3.765,0.633-6.604
								c0.179-1.42,0.409-2.972,0.69-4.613c0.27-1.521,0.566-3.056,1.045-4.633c0.125-0.39,0.263-0.779,0.442-1.154
								c0.1-0.179,0.188-0.376,0.341-0.521c0.126-0.178,0.359-0.212,0.538-0.32c0.809-0.28,1.694-0.207,2.547-0.136
								c0.858,0.098,1.714,0.252,2.559,0.449c0.425,0.089,0.844,0.195,1.261,0.303c0.417,0.102,0.926,0.237,1.384,0.368
								c3.76,1.044,7.476,2.293,10.904,3.405c-2.025-0.458-4.331-1.104-6.877-1.831c-1.27-0.354-2.604-0.726-3.997-1.114
								c-0.695-0.191-1.436-0.373-1.99-0.508c-0.607-0.137-1.23-0.287-1.873-0.392c-0.64-0.119-1.301-0.21-1.977-0.231
								c-0.664-0.009-1.396-0.017-1.999,0.362c-0.515,0.477-0.688,1.206-0.913,1.87c-0.209,0.682-0.367,1.39-0.525,2.107
								c-0.071,0.361-0.143,0.723-0.215,1.088c-0.068,0.388-0.137,0.777-0.205,1.168c-0.143,0.878-0.281,1.768-0.402,2.67
								c-0.245,1.805-0.459,3.651-0.628,5.531c-0.864,10.929,1.384-6.652,0.491,3.673c0.211-1.329,0.491-3.671,0.783-6.084
								c0.289-2.354,0.588-4.786,0.785-6.396c0,0,0.16-0.725,0.343-1.429c0.178-0.707,0.4-1.384,0.4-1.384
								c-0.147,0.852-0.273,1.801-0.396,2.811c-0.083,0.665-0.17,1.362-0.261,2.086c-0.091,0.792-0.185,1.614-0.282,2.462
								c-0.374,3.405-0.717,7.269-1.012,11.283c-0.583,8.033-0.934,16.677-0.894,23.59c-0.025-1.213-0.062-2.273-0.12-2.66
								c-0.686,10.621-0.809,21.451-0.494,31.825c0.141-5.491,0.008-7.661-0.056-10.799c0.141-0.389,0.222,9.407,0.495,13.106
								c0.063-9.647,0.352-1.804,0.409-7.905c0.143,6.276,0.258,11.356,0.432,19.002c-0.103,3.972-0.462-3.265-0.754-2.446
								c0.499,7.862-0.17,11.516,1.076,22.986c-0.98-15.297,0.917,3.991,1.771,9.179l-0.232-2.55
								c0.846,4.785,1.349,8.848,1.439,12.205c-0.981-6.164-1.437-12.207-1.651-10.396c0.433,4.11,0.93,8.2,1.69,12.808
								l-0.835-4.174c0,0,0.656,5.089,1.496,10.137c0.813,5.055,1.876,10.04,1.876,10.04c0.973,3.1,2.677,8.209,3.925,10.742
								c0.498,2.356,1.286,5.128,2.252,7.774c0.943,2.61,2.089,5.272,2.992,7.501l-0.919-2.023c0.746,2.175,1.804,5.029,2.854,8.265
								c1.048,3.228,2.046,6.878,2.531,10.498c0.506,3.616,0.495,6.928,0.432,9.397c-0.032,1.241-0.079,2.279-0.126,3.056
								c-0.039,0.783-0.047,1.326-0.04,1.548c-0.278,1.683-0.116-0.45-0.072-3.997c0.013-0.885,0.014-1.858-0.032-2.889
								c-0.014-1.019-0.099-2.099-0.192-3.176c-0.06-1.07-0.271-2.164-0.401-3.195c-0.173-1.031-0.405-2.005-0.59-2.897
								c-0.891-3.51-1.747-5.5-1.379-3.786c0.095,0.426,0.237,1.102,0.418,2.075c0.095,0.484,0.205,1.04,0.329,1.672
								c0.096,0.645,0.203,1.368,0.322,2.175c0.217,1.618,0.359,3.591,0.397,5.905c-0.006,2.306-0.127,4.959-0.434,7.937
								c-0.518,4.51-0.921,7.341-1.099,9.345c-0.191,2-0.223,3.139-0.211,4.047c0.024,1.815,0.223,2.704-0.327,7.691
								c0,0-0.017-0.574-0.221,0.402c-1.167,7.602-0.914,8.418-1.661,14.697c0.802-4.542,1.762-11.156,1.931-13.307
								c0.069,2.349-2.319,15.847-2.845,21.725c0.475-7.658-2.355,14.679-1.825,8.758c-2.577,15.081-4.422,31.336-5.114,39.352
								c-2.253,10.161-2.493,18.029-5.252,34.648c0.392-2.559,0.946-7.225,1.545-10.797c0.879-9.574-2.746,17.237-1.086,2.546
								c-0.374,3.14,0.229,0.26,0.613-2.96c0.753-5.619,1.299-10.934,0.873-9.556l-2.391,13.523l0.564-4.759l-3.571,20.532
								c0.018,0.574,0.419-1.342,0.624-2.324c-0.833,5.552-1.694,11.288-2.564,17.086c-0.667,4.672-1.341,9.393-2.008,14.063
								c5.57,0.465,11.071,0.925,16.345,1.365c6.375,0.557,12.478,1.09,18.12,1.583c4.078-1.04,51.955,3.742,69.069,4.115
								c-4.599,0.048-7.152,0.561-4.347,1.068c-3.805-0.234-11.631-0.271-20.242-1.053c-1.36-0.312-11.981-1.465-5.112-1.147
								c-23.826-1.813,3.174,0.878-3.897,0.813c13.2,1.025,23.693,1.54,32.965,2.008c9.274,0.428,17.329,0.8,25.677,1.185
								l0.41,0.194l12.607,0.575c-10.277-0.816-9.712-1.571,3.521-0.361l-1.615-0.074c3.77,0.424,9.591,0.847,15.95,1.206
								c6.359,0.351,13.251,0.699,19.156,1.097l8.038,0.047c11.827,0.809,12.287,1.664,16.106,2.384
								c9.276,0.535,16.604,0.774,23.26,0.918c6.656,0.15,12.643,0.2,19.245,0.269c5.942,0.641,33.74,1.985,18.991,1.771
								c16.758,0.446,13.455-1.729,42.13,0.392l-7.465,0.098c6.866,0.204,14.462,0.468,22.196,0.589
								c7.733,0.109,15.601,0.22,23.006,0.323c14.808,0.284,27.764,0.245,34.089,0.533c-5.074,0.585,3.498,1.014,13.953,1.463
								c5.227,0.255,10.925,0.386,15.621,0.583c4.696,0.194,8.392,0.429,9.614,0.743c-1.361-0.287,8.964-0.395,10.467-0.551
								c2.263,0.146,6.032,0.286,10.027,0.021c-10.717-0.243,7.523-1.32-12.957-0.788c2.591-0.22,5.368-0.428,8.431-0.615
								c3.064-0.173,6.412-0.36,10.144-0.57c7.466-0.385,16.473-0.678,27.818-0.825l-0.331,0.532l-17.958,0.107
								c1.819,0.362-7.424,0.472-11.212,0.707c33.415-0.203-4.361,1.3,29.803,0.72c3.293-0.413,1.16-0.168,10.034-0.536
								c-4.174,0.143-4.918,0.527,1.811,0.334l6.449-0.612c11.952,0.522-19.729,1.159-9.538,1.474
								c-13.186,0.673-36.048,1.191-31.781,1.814c10.783-0.039,15.628-0.427,20.593-0.809c2.483-0.19,4.996-0.38,8.298-0.523
								c3.301-0.168,7.388-0.345,13.021-0.431l2.407,0.215c7.92-0.431,9.185-0.933,13.513-1.342
								c0.396,0.151,2.414,0.213,7.505,0.108c3.34-0.251,6.396-0.514,9.296-0.776c2.899-0.246,5.643-0.479,8.354-0.709
								c5.42-0.457,10.71-0.917,16.854-1.566c-16.39,1.021-23.409,1.223-30.558,1.396c-7.153,0.077-14.437,0.149-31.371,0.901
								c5.305-0.377,29.151-1.247,30.589-2.019l-0.298,0.537c11-0.727,21.983-1.534,35.814-1.979l-8.423,0.681
								c4.576-0.301,8.77-0.487,12.712-0.623c3.94-0.167,7.628-0.324,11.193-0.476c7.133-0.308,13.781-0.649,20.973-1.537
								c-5.104,0.271-9.243,0.545-12.387,0.821c9.404-0.854,21.235-1.406,31.46-2.227l21.082-2.562
								c-0.164,0.275,13.241-0.781,6.812,0.152c15.262-0.935,22.371-2.438,31.164-3.394c15.666-0.92-13.499,1.529-14.954,2.397
								c21.51-1.799,44.318-4.181,56.467-5.629c-4.409,0.271-6.556,0.363-6.343,0.216c0.666,0.104,9.357-0.684,14.22-1.024
								l3.313-0.597c4.052-0.204,5.801-0.2,5.675-0.078c-0.127,0.114-2.128,0.361-5.556,0.763c3.864-0.284,8.102-0.681,12.368-1.056
								c2.135-0.182,4.275-0.363,6.386-0.478c2.113-0.096,4.192-0.147,6.197-0.123c-6.619,0.485-14.126,1.046-20.854,1.46
								c-6.714,0.511-12.644,0.92-16.066,1.339c6.883-0.638,12.069-1,16.516-1.258c4.454-0.212,8.168-0.324,12.112-0.453
								c7.897-0.169,16.701-0.503,34.268-1.041c0.434,0.16-5.51,0.538,1.259,0.475c15.682-0.283,4.095-0.747,8.996-1.177
								c-6.047,0.168-10.475,0.208-14.271,0.175c-3.791,0.038-6.952-0.023-10.466-0.129l3.215-0.38
								c0.495,0.145,8.08-0.142,10.325,0.03l1.948-0.586c-0.447,0.318,2.371,0.565,6.491,0.693c2.062,0.057,4.448,0.122,6.918,0.19
								c2.47,0.057,5.022,0.08,7.413,0.056c-9.654-0.595-7.047-0.533-9.674-1.285c13.49-0.495,15.179,0.844,30.312,0.982
								c-1.146,0.008-14.333-0.362-2.953,0.291c9.418,0.729,8.199,0.113,14.538,0.475c-7.166-0.055-5.372,0.503-13.112,0.545
								c-8.356-0.44-10.043-0.427-11.682-0.504c-1.639-0.036-3.233-0.152-11.399-0.118c0,0,3.452,0.161,6.904,0.321
								c3.449,0.256,6.899,0.512,6.899,0.512c-3.537-0.119-5.949-0.2-7.596-0.169c-1.646,0.039-2.527,0.105-3.003,0.181
								c-0.952,0.149-0.283,0.338-0.866,0.43c24.085,1.273,18.213-0.109,33.728,1.138c1.875,0.112,1.906,0.066,1.081-0.053
								c-0.413-0.053-1.04-0.132-1.756-0.223c-0.72-0.06-1.528-0.127-2.305-0.192c-3.106-0.249-5.688-0.462,0.186-0.218
								c1.817,0.122,3.227,0.288,4.34,0.406c1.114,0.106,1.932,0.185,2.554,0.244c1.247,0.104,1.722,0.103,2.253,0.098
								c0.53-0.005,1.118-0.013,2.593,0.077c1.474,0.11,3.844,0.207,7.906,0.793l-2.749-0.16c2.459,0.517,4.925,0.86,7.497,1.174
								c2.567,0.344,5.26,0.521,8.11,1.088c3.152,0.515,1.456-0.269,2.199-0.574c0.373-0.153,1.356-0.187,3.872,0.123
								c1.257,0.154,2.897,0.396,5.034,0.75c2.128,0.351,4.693,0.939,7.607,1.424c-1.182-0.063-1.632-0.056-1.642,0.006
								c0,0-1.495,0-3.885-0.086c-2.387-0.096-5.694-0.118-8.922-0.184c-1.617-0.026-3.234-0.053-4.751-0.077
								c-0.755-0.012-1.485-0.022-2.179-0.032c-0.695,0.017-1.353,0.033-1.959,0.048c-2.421,0.061-4.035,0.102-4.035,0.102
								c1.631,0.238,3.277,0.48,4.938,0.724c1.662,0.236,3.317,0.606,4.998,0.908c3.354,0.643,6.762,1.296,10.216,1.958
								c3.427,0.73,6.849,1.477,10.3,1.806c3.447,0.352,6.918,0.185,10.196-0.836c1.628-0.521,3.221-1.195,4.691-2.112
								c1.473-0.911,2.851-1.997,4.119-3.225c2.541-2.463,4.597-5.486,6.378-8.695c3.455-6.577,6.624-13.45,9.264-20.521
								c0.778-1.61,0.797-1.121,0.329,0.479c-0.509,1.583-1.407,4.314-2.523,7.138c-2.204,5.665-5.243,11.689-4.641,10.953
								c0,0-0.378,0.781-0.991,1.926c-0.611,1.146-1.494,2.638-2.456,4.074c-0.953,1.442-2.027,2.799-2.889,3.762
								c-0.432,0.481-0.788,0.885-1.063,1.143c-0.267,0.266-0.419,0.417-0.419,0.417c0.064-0.206,1.401-1.556,2.87-3.63
								c1.484-2.06,3.098-4.813,4.278-7.344c2.402-5.047,4.035-8.6,1.004-3.145c-2.497,5.572-5.116,10.094-8.432,13.464
								c-3.271,3.381-7.136,5.492-11.249,6.385c-4.121,0.928-8.419,0.615-12.995-0.098c-2.296-0.352-4.676-0.861-7.219-1.296
								c-2.548-0.407-5.233-0.838-8.107-1.298c1.736,0.547,4.483,1.166,7.859,1.841c3.369,0.692,7.343,1.655,11.646,2.034
								c1.071,0.132,2.169,0.116,3.269,0.161c1.101-0.049,2.215-0.036,3.317-0.213c2.211-0.242,4.403-0.803,6.432-1.67
								c4.085-1.725,7.376-4.643,9.849-7.502c-1.986,2.492-4.204,4.474-6.529,6.03c-2.349,1.529-4.851,2.56-7.412,3.165
								c0.89-0.142,1.746-0.439,2.622-0.676c0.847-0.326,1.716-0.61,2.533-1.03c1.657-0.778,3.244-1.759,4.685-2.942
								c2.908-2.343,5.316-5.336,7.31-8.602c3.793-6.642,7.143-13.753,10.004-21.345c0,0,0.277-0.867,0.555-1.735
								c0.243-0.879,0.486-1.757,0.486-1.757c-1.85,5.133-3.631,9.392-5.048,12.45c-1.331,3.098-2.389,4.952-2.591,5.395
								c1.674-3.206,2.936-6.447,4.195-9.375c1.104-2.993,2.125-5.716,2.841-8.096c0.699-2.386,1.246-4.375,1.593-5.835
								c0.292-1.479,0.411-2.421,0.327-2.694l-0.733,2.444l1.258-5.037c0.516-1.604,0.905-3.242,1.336-4.867
								C960.443,338.396,960.924,336.783,961.258,335.141z M298.1,31.673c0.874-0.114,1.561-0.226,2.065-0.345
								C299.642,31.452,300.236,31.475,298.1,31.673z M717.233,391.778c19.166-1.721,38.498-3.308,56.93-4.431
								c-16.671,0.46-30.873,1.225-33.971,1.088c-1.549-0.062-0.321-0.321,4.764-0.861c5.085-0.541,14.027-1.385,27.929-2.31
								l3.636-0.324c-3.64,0.163-8.598,0.41-14.108,0.846c-2.757,0.212-5.654,0.435-8.599,0.661c-2.94,0.267-5.929,0.537-8.87,0.804
								c-4.747,0.608-14.758,2.05-23.535,3.351c-4.387,0.665-8.469,1.283-11.433,1.732c-1.48,0.235-2.683,0.427-3.504,0.558
								c-0.82,0.137-1.26,0.22-1.217,0.233c3.404,0.027,8.28-0.815,14.415-1.289L717.233,391.778z M703.416,390.993
								c-10.871,0.893-8.374,0.921-10.036,1.327c3.819-0.39,7.632-0.779,11.401-1.164
								C703.332,391.231,702.612,391.211,703.416,390.993z M694.054,392.508c1.221-0.105,2.263-0.188,2.812-0.207L694.054,392.508z
								 M905.392,391.338c-0.479-0.084-0.65-0.113-1.104-0.193c2.527,0.494,5.06,0.986,7.691,1.576
								C910.961,392.477,909.026,392.003,905.392,391.338z M883.645,387.104c0,0-0.656,0.019-1.312,0.037
								c-0.655,0.012-1.313,0.053-1.313,0.052c2.375,0.36,4.8,0.729,7.278,1.105C887.51,387.975,886.68,387.672,883.645,387.104z
								 M812.54,382.07c-4.489,0.614-19.534,1.143-20.421,1.886c-0.949,0.218,2.211,0.091,5.76,0.013
								c3.959-0.107,8.185-0.223,12.666-0.344c0.153-0.104,1.042-0.195,2.529-0.292c-4.43-0.033-7.391-0.029-5.607-0.492
								c2.853,0.104,4.915,0.147,6.599,0.126c1.684-0.03,2.987-0.139,4.32-0.266c2.666-0.229,5.451-0.664,11.618-0.425
								c1.967-0.183-1.465-0.377-5.856-0.425C819.757,381.863,814.408,381.963,812.54,382.07z M64.621,211.656
								c0.091-0.343,0.348-1.529,0.607-3.225c0,0-0.033,2.192-0.185,4.375c-0.163,2.179-0.384,4.345-0.384,4.345
								c-2.321,15.291-4.994,27.398-6.204,41.277c-1.122,6.414-2.027,9.804-2.839,13.05c0.495-3.147,0.958-6.091,1.343-8.544
								c2.217-19.376,3.239-24.363,4.171-28.418c0.466-2.027,0.91-3.822,1.47-7.065c0.28-1.622,0.589-3.605,0.944-6.162
								C63.888,218.733,64.339,215.603,64.621,211.656z M46.208,382.319c-1.742-0.113-2.44-0.072-2.44-0.072
								c8.784,0.519,17.179,1.014,25.125,1.481c7.796,0.504,15.153,0.979,22.013,1.423c13.72,0.899,25.439,1.843,34.715,2.57
								c-3.564-0.7-20.168-2.462-28.051-3.297l7.042,0.061l4.337,0.771l12.189,0.528c-3.37-0.62-13.188-1.368-19.725-2.178
								c-0.577,0.038-21.633-1.051-27.528-1.278l16.75,1.78c-4.522-0.487-26.788-2.318-35.625-2.964
								c-0.098,0.122,3.646,0.617,7.661,1.032s8.3,0.749,9.282,0.55c1.776,0.546-15.758-0.988-4.706,0.398
								c-3.856-0.217-8.372-0.556-13.07-0.954c-4.717-0.399-9.554-0.853-13.994-1.289c1.028-6.431,1.961-12.268,2.592-16.215
								l0.88-1.539c1.774-10.538,0.251-7.256,2.435-19.766c-2.1,15.464,1.083-2.51-0.638,9.784c0.809-3.888,0.694,0.018,2.419-12.3
								c0.623-10.371,2.405-12.899,3.047-22.695c1.2-6.435-0.49,7.039,1.46-5.68c1.656-14.673,1.212-13.876,0.721-14.871
								c-2.143,13.635-1.403,15.464-3.164,26.614l2.137-22.374c-0.741,4.074-1.193,7.102-1.517,9.651
								c0.582-4.474,0.971-8.29,1.221-11.567c0.152-1.864,0.293-3.585,0.423-5.176c-1.82,12.594-3.447,23.775-3.996,25.714
								l-0.052-1.779c-0.919,4.419-1.749,11.717-2.011,15.099c-1.592,11.281-2.794,22.606-3.54,25.013l0.34-4.319
								c-1.632,11.705-2.077,14.892-3.797,27.229C39.846,381.767,42.741,382.018,46.208,382.319z M504.984,404.209
								c-4.254-0.494-8.723-0.954-17.078-1.19c-2.089-0.044-4.42-0.093-7.052-0.147c-2.632-0.046-5.564-0.098-8.854-0.155
								c-6.58-0.075-14.59-0.092-24.491-0.032l3.117-0.08c-9.978-0.281-19.704-0.263-29.975-0.137
								c-5.136,0.05-10.407,0.096-15.911,0.063c-5.504-0.02-11.239-0.258-17.304-0.58c11.788-0.152,11.154-0.063,24.173-0.89
								c0,0-3.16,0.041-6.32,0.082c-3.161,0.056-6.321,0.053-6.321,0.054c3.512-0.524-9.096-0.512-18.366-0.762l8.198-0.527
								c2.779,0.17,7.774,0.36,12.022,0.486c4.248,0.09,7.749,0.098,7.539,0.017c-3.162,0.042,19.033,1.138,31.1,1.071
								c-1.241-0.504-26.709-0.608-15.329-1.273c-10.025,0.217-11.262-0.287-21.739-0.239c10.051-0.216,2.498-0.639,9.98-0.906
								c0,0-4.293-0.01-8.586-0.019c-2.147,0.006-4.293-0.035-5.903-0.057c-1.61-0.022-2.683-0.038-2.683-0.038
								c-0.444-0.092,25.011,0.021,10.953-0.759c-6.883,0.203-25.239-0.638-25.582-0.094l-0.418-0.172
								c-12.863-0.435-5.68,0.64-21.472-0.097c-0.194,0.262,2.813,0.561,8.477,0.626c4.788-0.003,5.531-0.349,15.387-0.187
								c4.408,0.518-11.886-0.336-5.062,0.525c3.392,0.429,26.026,0.322,18.802,0.934l-12.844-0.421
								c-0.342,0.521-9.646,0.269-9.396,0.7c-3.932,0.004-7.748-0.188-11.585-0.347c-3.837-0.174-7.695-0.362-11.714-0.268
								c-3.342,0.225,2.455,1.063-10.814,0.321c-2.587-0.286-6.438-0.558-10.938-0.809c-4.501-0.229-9.649-0.492-14.83-0.757
								c-10.364-0.515-20.867-0.923-26.592-1.126l-10.031-0.146c0.832,0.422,19.14,0.838,12.688,0.98c0,0-3.907-0.145-7.814-0.289
								c-3.906-0.174-7.812-0.347-7.812-0.347l1.215-0.138c-5.171-0.327-10.475-0.397-15.203-0.539
								c4.885-0.115,16.131,0.651,13.923-0.02c-7.323-0.508-8.43-0.772-15.18-1.035c1.474,0.042,2.744,0.057,2.562-0.03
								c-14.823-1.047-14.362-0.167-18.093-0.191c-14.962-0.112,15,1.491,13.063,1.944c0,0-2.724-0.129-6.811-0.323
								c-4.086-0.2-9.536-0.434-14.981-0.759c-10.893-0.609-21.785-1.219-21.785-1.219c3.731,0.056,7.487,0.114,6.098-0.199
								c-10.664-0.926-0.215-0.441-15.212-1.358c1.016,0.863-18.906-0.835-29.526-1.146c-4.925-0.655-5.938-0.789,4.881-0.035
								c-1.207-0.579-15.744-1.4-20.903-1.829c-2.999-0.109-8.104-0.432-11.344-0.573c4.312,0.577,2.44,0.739-6.95,0.225
								l-0.554,0.06c7.68,0.641,17.477,1.623,26.575,2.329c9.096,0.729,17.481,1.328,22.319,1.418l-2.742,0.049
								c4.442,0.419,9.088,0.744,13.685,1.02c4.599,0.251,9.149,0.437,13.398,0.627c8.498,0.378,15.792,0.742,19.87,1.461
								c-0.78,0.317,3.573,0.31,3.23,0.816l13.142,0.339l-2.742,0.091l22.325,1.097l-0.596,0.067
								c5.317,0.04,10.058,0.076,14.301,0.108c4.244-0.009,7.99-0.016,11.317-0.022c0.036-0.229-0.651-0.33,2.894-0.34
								c3.554,0.047,6.246,0.151,8.644,0.29c0.019,0,0.019,0,0.019-0.002v0.003c5.473,0.313,9.107,0.813,15.847,1.245l-20.759-0.878
								c-1.708,0.313,0.038,0.798,10.199,1.531c-4.161-0.174-5.915,0.053-0.768,0.33c0.57-0.076,13.616,0.365,8.661-0.17
								c9.866,0.32,22.777,0.96,36.97,1.613c7.095,0.361,14.518,0.511,22.037,0.704c7.52,0.17,15.138,0.276,22.634,0.27
								c-21.542-0.063,17.249,0.928-6.66,0.525c8.337,0.536,11.932,0.39,15.566,0.217c3.635-0.176,7.31-0.418,15.815-0.269
								c1.448,0.242-9.262-0.14-13.178,0.257c7.071,0.146,13.591,0.192,19.82,0.187c3.114-0.014,6.156-0.028,9.158-0.042
								c3.002-0.063,5.964-0.124,8.918-0.186c5.909-0.122,11.789-0.243,17.901-0.369c3.056-0.033,6.17-0.067,9.376-0.103
								c1.603-0.005,3.228-0.01,4.88-0.016c1.652-0.018,3.332-0.036,5.042-0.056l1.175,0.47
								C493.252,404.525,499.003,404.37,504.984,404.209z M559.081,402.244c5.262-0.194,10.592-0.567,16.012-0.848
								c-0.528,0.02-1.02,0.037-1.573,0.058l15.785-1.112c-9.72,0.252-16.136,0.009-2.563-0.859
								c-1.134,0.253,2.849,0.319-1.869,0.651c4.56-0.061,11.838-0.248,17.321-0.482c5.478-0.321,9.16-0.668,6.537-0.872
								c-8.72,0.916-9.757,0.644-10.319,0.434c-0.564-0.231-0.66-0.507-7.52,0.064c3.676-0.407,7.343-0.641,10.96-0.838
								c3.614-0.244,7.179-0.476,10.651-0.797c-7.221,0.853,1.74,0.804,12.64,0.316c4.728-0.441,17.566-1.017,25.41-1.929
								c-2.837-0.229,3.989-1.019-8.828-0.128c4.692-0.474,11.955-1.163,20.119-1.58c-3.224,0.336-8.867,0.844-8.465,0.975
								c5.29-0.008,11.446-0.52,14.859-0.615c2.708-0.241,5.441-0.484,8.1-0.721c-0.797,0.024-1.49,0.029-1.985,0.004l8.968-1.128
								c-11.971,1.194-5.561,0.243-5.428-0.027c-0.139,0.275,1.792,0.139,4.271-0.111c2.477-0.275,5.499-0.674,7.549-0.87
								c0,0-2.239,0.065-4.479,0.131c-2.238,0.074-4.479,0.114-4.479,0.114c4.28-0.639,15.234-0.983,12.936-1.319
								c-9.454,0.761-15.998,1.287-22.316,1.795c-6.313,0.555-12.401,1.091-20.944,1.842l6.975-0.125
								c-9.637,0.919-12.625,0.992-15.911,1.006c-3.289-0.017-6.874-0.051-17.709,0.635c-4.491,0.478-12.64,0.992-19.715,1.489
								c-7.078,0.44-13.089,0.776-13.293,1.195c2.708-0.365-13.542-0.088-20.961,0.609c-2.048,0.269-5.136,0.57-8.501,0.813
								c-3.368,0.194-7.009,0.405-10.157,0.587c-6.3,0.344-10.632,0.58-6.859,0.633c6.723-0.214,15.757-0.807,21.174-0.6
								c0,0-3.256,0.207-6.515,0.321c-3.259,0.134-6.518,0.269-6.518,0.269l8.571,0.14
								C556.584,401.353,557.026,401.725,559.081,402.244z M850.195,389.886c0.142,0.009,0.326,0.021,0.498,0.032
								c-0.19-0.01-0.375-0.018-0.554-0.026L850.195,389.886z"/>
							<path fill="#FFFFFF" d="M46.862,20.715c0.084-0.943,0.239-2.23,0.438-3.605c0.218-1.467,0.533-3.242,0.898-4.666
								c0.36-1.459,0.847-2.605,1.251-3.262c0.41-0.667,0.687-0.814,0.196-0.582c0.073,0.026-0.666,0.927-1.185,2.531
								c-0.549,1.578-1.006,3.902-1.323,5.86C46.582,20.506,46.286,23.363,46.862,20.715z"/>
							<path fill="#FFFFFF" d="M50.12,9.46c0.202-0.315,0.249-0.342,0.69-0.641c0.476-0.196,1.434-0.581,3.756-0.362
								c0,0-0.199-0.014-0.546-0.038c-0.349-0.041-0.841-0.031-1.43-0.015c-0.583,0.042-1.266,0.129-1.946,0.418
								c-0.162,0.089-0.341,0.159-0.495,0.268c-0.136,0.136-0.27,0.276-0.364,0.444c-0.217,0.319-0.384,0.665-0.538,1.022
								c-0.606,1.434-0.932,3.037-1.173,4.218c-0.234,1.188-0.356,1.988-0.356,1.988c0,0,0.355-1.979,0.888-3.85
								c0.258-0.94,0.592-1.83,0.893-2.462c0.167-0.308,0.298-0.568,0.425-0.733c0.058-0.085,0.104-0.152,0.135-0.197
								C50.098,9.481,50.12,9.46,50.12,9.46z"/>
							<path fill="#FFFFFF" d="M61.34,13.218c5.694,1.316,9.295,2.396,18.158,5.203c1.519,1.015-2.157-0.037-6.708-1.439
								c-4.554-1.409-9.995-3.062-12.1-3.125c4.033,1.21,7.367,2.211,10.308,3.093c2.971,0.878,5.57,1.599,8.088,2.266
								c5.044,1.318,9.738,2.504,16.629,4.118c-1.681-0.498-4.651-1.378-8.171-2.422c-3.504-1.064-7.528-2.349-11.348-3.575
								c-3.82-1.226-7.443-2.374-10.16-3.136C63.319,13.437,61.514,13.059,61.34,13.218z"/>
							<path fill="#FFFFFF" d="M55.472,13.186c0,0,0.342,0.019,0.858,0.091c0.259,0.029,0.559,0.089,0.885,0.141
								c0.16,0.03,0.325,0.062,0.493,0.094c0.221,0.045,0.445,0.092,0.669,0.139c2.205,0.5,4.456,1.129,4.456,1.129l-0.861-0.319
								c0,0-0.559-0.145-1.398-0.362c-0.417-0.103-0.904-0.222-1.425-0.35c-0.26-0.062-0.528-0.125-0.801-0.189
								c-0.216-0.044-0.436-0.09-0.656-0.135c-0.692-0.141-1.406-0.244-1.925-0.303c-0.525-0.045-0.871-0.049-0.871-0.049
								C54.9,13.059,55.472,13.186,55.472,13.186z"/>
							<path fill="#FFFFFF" d="M58.849,207.895c-0.192,0.385-0.253,1.9-0.397,3.751c-0.132,1.844-0.323,4.025-0.502,5.573
								C58.316,214.722,58.871,211.295,58.849,207.895z"/>
							<path fill="#FFFFFF" d="M510.593,11.405c0,0-1.141-0.181-3.138-0.497c-2.003-0.291-4.831-0.848-8.307-1.159
								c-6.918-0.87-16.166-1.38-25.368-1.447c-9.205-0.073-18.365,0.314-25.193,0.788c-3.422,0.196-6.257,0.444-8.244,0.601
								c-1.987,0.159-3.123,0.25-3.123,0.25c10.438-0.894,20.543-1.526,32.174-1.639c2.911,0.021,5.914,0.016,9.04,0.076
								c1.565,0.057,3.161,0.115,4.79,0.174c1.629,0.047,3.293,0.12,4.996,0.259c1.703,0.119,3.443,0.241,5.224,0.366
								c1.781,0.142,3.603,0.372,5.47,0.562c0.933,0.101,1.878,0.202,2.834,0.305c0.957,0.1,1.906,0.285,2.878,0.426
								C506.567,10.773,508.554,11.085,510.593,11.405z"/>
							<path fill="#FFFFFF" d="M104.238,390.097c-9.668-0.646-16.66-1.009-23.696-1.395c-7.033-0.411-14.109-0.861-23.952-1.651
								c25.808,2.949,34.256,1.916,55.927,4.392L104.238,390.097z"/>
							<path fill="#FFFFFF" d="M97.212,392.115c-3.151-0.875,14.965,0.521,12.196-0.159c-13.03-0.93-6.11,0.079-17.921-0.952
								L97.212,392.115z"/>
							<polygon fill="#FFFFFF" points="48.195,352.058 47.672,357.917 48.232,353.22 							"/>
							<polygon fill="#FFFFFF" points="185.354,398.323 183.208,398.311 192.893,399.188 							"/>
							<path fill="#FFFFFF" d="M181.06,398.301l2.147,0.01L181.06,398.301z"/>
							<polygon fill="#FFFFFF" points="48.418,359.715 49.792,351.094 50.13,346.779 							"/>
							<path fill="#FFFFFF" d="M94.718,383.737l-7.796-0.449C88.469,383.378,99.092,384.511,94.718,383.737z"/>
							<polygon fill="#FFFFFF" points="244.597,402.384 254.109,402.667 253.143,402.555 243.661,402.272 							"/>
							<path fill="#FFFFFF" d="M155.761,386.897c-2.67-0.442,1.213-0.175,4.386,0.045c3.173,0.202,5.635,0.356,0.118-0.242
								C150.42,386.014,154.395,386.566,155.761,386.897z"/>
							<path fill="#FFFFFF" d="M269.919,397.397c1.279,0.069,2.628,0.126,3.93,0.146
								C272.301,397.485,271.001,397.438,269.919,397.397z"/>
							<path fill="#FFFFFF" d="M269.919,397.397c-4.131-0.226-8.253-0.63-11.093-0.648
								C263.965,397.242,265.846,397.265,269.919,397.397z"/>
							<path fill="#FFFFFF" d="M317.271,399.529l-3.746-0.203c3.838-0.059,2.022-0.106-1.404-0.074
								c-3.972-0.164-3.754-0.005-4.231,0.075c-0.798,0.023-1.59,0.047-2.451,0.072c1.227-0.009,2.33-0.017,3.265-0.022
								C314.856,399.659,318.611,399.806,317.271,399.529z"/>
							<path fill="#FFFFFF" d="M493.396,410.254c-13.894,0.069-17.485-0.1-16.733-0.447c-13.183-0.103-11.136,0.524-19.088,0.679
								c7.46-0.005,11.952-0.009,16.811-0.012c2.43-0.001,4.951-0.003,7.98-0.004C485.395,410.41,488.933,410.341,493.396,410.254z"
								/>
							<path fill="#FFFFFF" d="M457.574,410.485c-1.672,0.012-3.269,0.022-5.208,0.035
								C454.536,410.529,456.146,410.512,457.574,410.485z"/>
							<polygon fill="#FFFFFF" points="262.152,392.867 270.771,392.777 267.614,392.683 							"/>
							<path fill="#FFFFFF" d="M514.015,410.13c-2.576,0.015-6.706,0.093-8.735-0.002
								C504.543,410.506,516.586,410.113,514.015,410.13z"/>
							<path fill="#FFFFFF" d="M460.432,403.475c-1.407-0.223-10.274-0.079-13.883-0.161
								C451.726,403.355,455.945,404.023,460.432,403.475z"/>
							<path fill="#FFFFFF" d="M553.813,407.56c-2.575,0.053-6.541-0.074-4.837-0.428
								C545.243,407.422,540.201,408.217,553.813,407.56z"/>
							<path fill="#FFFFFF" d="M485.759,403.458l-1.98-0.094c0,0-2.37,0.1-4.74,0.148c-2.371,0.062-4.742,0.123-4.742,0.123
								s2.866-0.031,5.731-0.062c1.433-0.009,2.865-0.042,3.94-0.071C485.043,403.476,485.759,403.458,485.759,403.458z"/>
							<path fill="#FFFFFF" d="M451.943,398.157c-10.651,0.447,16.893,1.033-1.451,1.422c23.666,0.431-1.814-0.615,15.641-0.563
								C455.911,398.879,450.905,398.334,451.943,398.157z"/>
							<path fill="#FFFFFF" d="M466.133,399.016c1.485,0.01,3.095,0.021,4.841,0.032
								C469.041,399.035,467.481,399.024,466.133,399.016z"/>
							<path fill="#FFFFFF" d="M616.069,397.273c-1.542,0.142-2.595,0.257-3.566,0.369
								C613.718,397.531,614.876,397.414,616.069,397.273z"/>
							<path fill="#FFFFFF" d="M521.859,398.04l-15.947,0.893c2.664-0.148,6.337-0.283,10.323-0.412
								c1.993-0.063,4.064-0.129,6.126-0.194c2.061-0.094,4.112-0.187,6.068-0.274c7.821-0.362,14.1-0.706,13.255-1.007
								c-8.684,0.102-19.117,0.665-23.405,0.965L521.859,398.04z"/>
							<path fill="#FFFFFF" d="M705.766,398.989l-6.856,0.908l8.599-0.737C705.038,399.296,709.443,398.398,705.766,398.989z"/>
							<path fill="#FFFFFF" d="M709.171,399.017l-1.663,0.144C707.876,399.142,708.403,399.098,709.171,399.017z"/>
							<path fill="#FFFFFF" d="M585.912,399.194c-5.159,0.188-9.284,0.395-13.982,0.725
								C573.886,399.953,586.741,399.482,585.912,399.194z"/>
							<polygon fill="#FFFFFF" points="754.027,393.644 742.717,394.724 755.063,393.626 							"/>
							<path fill="#FFFFFF" d="M806.81,391.715l1.948,0.062c0,0,2.336-0.151,4.668-0.213c2.334-0.082,4.668-0.163,4.668-0.163
								l-1.976-0.104c0,0-2.326,0.082-4.652,0.163C809.138,391.588,806.81,391.715,806.81,391.715z"/>
							<path fill="#FFFFFF" d="M736.716,383.386c-7.716,0.637-13.681,1.77-11.652,1.709l14.941-1.388
								c-3.846-0.174-4.145,0.391-12.82,1.053L736.716,383.386z"/>
							<path fill="#FFFFFF" d="M973.889,134.411c0.07,1.754-0.352,6.831-0.904,11.427c-0.54,4.607-1.099,8.782-1.269,9.186
								c0.017-2.131,0.84-10.942,0.044-5.444c0,0-0.029,0.803-0.073,2.007c-0.046,1.2-0.099,2.798-0.111,4.382
								c-0.024,1.586-0.049,3.171-0.066,4.361c-0.015,1.188,0.005,1.985,0.006,1.985c-0.741,8.404-0.835,5.202-0.72-1.177
								c0.13-3.182,0.302-7.134,0.599-10.858c0.288-3.74,0.58-7.242,0.711-9.408c-0.463,4.432-0.865,8.022-1.14,11.214
								c-0.288,3.198-0.417,6.006-0.595,8.864c-0.213,5.727-0.402,11.585-0.472,20.8c0.075-2.716,0.183-4.929,0.294-6.822
								c0.14-1.889,0.3-3.454,0.437-4.879c0.324-0.296,0.191,3.808,0.157,9.543c-0.063,5.732-0.042,13.097,0.174,19.259
								c0.052-7.846,0.376-3.314,0.774,2.385c0.046,1.026,0.102,1.708,0.162,2.194c0.054,0.665,0.104,1.292,0.157,1.938
								l-0.058-1.479c0.071,0.102,0.137-0.228,0.207-1.297c-0.522-10.328-0.067-18.187,0.059-24.765
								c-0.513,3.251-0.563-2.375-0.229-9.807c0.342-7.444,1.317-16.553,1.655-20.809c0,0,0.232-2.45,0.465-4.9
								c0.232-2.467,0.419-4.986,0.419-4.986c0,0,0.079-0.941,0.157-1.881c0.063-0.952,0.126-1.905,0.126-1.905
								c0.137-0.775,0.271,0.374-0.058,6.108c0.122-2.387,0.548-7.595,0.595-12.182c-0.004-1.149-0.008-2.248-0.012-3.237
								c-0.024-0.995-0.082-1.891-0.12-2.609c-0.072-1.437-0.183-2.203-0.237-1.808c0,0-0.046-0.607-0.127-1.669
								c-0.042-0.531-0.092-1.176-0.15-1.916c-0.076-0.742-0.198-1.585-0.314-2.502c-0.496-3.656-1.452-8.615-3.286-13.39
								c-1.784-4.777-4.36-9.283-6.492-12.342c-0.537-0.759-1.03-1.456-1.468-2.073c-0.456-0.585-0.854-1.096-1.182-1.517
								c-0.658-0.838-1.034-1.316-1.034-1.316c-0.739-0.935-1.475-1.876-1.995-2.595c-0.916-0.945-1.104-1.062-1.023-0.905
								c0,0-1.712-1.95-4.778-5.066c-3.04-3.129-7.514-7.325-12.409-12.275c-2.448-2.481-4.977-5.172-7.313-8.096
								c-1.168-1.466-2.271-2.955-3.389-4.618c-1.141-1.716-2.357-3.618-3.77-5.663c-1.456-2.054-3.112-4.211-5.131-6.279
								c-0.502-0.514-1.059-1.003-1.593-1.503l-0.815-0.743l-0.864-0.669c-1.157-0.893-2.326-1.802-3.538-2.506
								c-4.823-3.038-9.846-5.02-14.753-6.637c-2.459-0.806-4.897-1.501-7.305-2.149c-2.407-0.627-4.791-1.172-7.163-1.754
								c-1.186-0.286-2.366-0.571-3.541-0.854c-1.179-0.263-2.358-0.481-3.527-0.722c-2.341-0.469-4.651-0.933-6.926-1.388
								c-9.128-1.572-17.681-2.78-25.027-3.461c-7.345-0.782-13.471-1.079-17.757-1.371c-4.285-0.174-6.733-0.273-6.733-0.273
								c3.864,0.2,7.464,0.384,11.095,0.747c3.629,0.316,7.286,0.625,11.262,1.104c-6.002-0.257-2.74,0.085,1.571,0.525
								c4.315,0.376,9.666,1.165,7.882,1.223c-2.684-0.251-5.985-0.561-9.202-0.862c-1.606-0.17-3.19-0.337-4.665-0.493
								c-1.475-0.136-2.839-0.262-4.006-0.37c-1.762,0.191,4.876,0.894,4.074,1.227c2.452,0.284,4.646,0.515,6.646,0.705
								c2,0.187,3.807,0.329,5.479,0.526c3.347,0.357,6.181,0.553,8.999,0.808c2.812,0.312,5.616,0.617,8.912,1.055
								c3.288,0.493,7.057,1.225,11.803,2.259c-0.411,0.066-2.111-0.075-2.143,0.033c-0.017,0.058,0.383,0.185,1.563,0.453
								c1.172,0.313,3.121,0.794,6.211,1.53l-3.156-0.683c9.922,2.092,13.768,3.59,16.687,4.736
								c1.458,0.552,2.689,1.119,4.362,1.724c0.835,0.351,1.78,0.73,2.923,1.17c1.137,0.483,2.472,1.062,4.079,1.826l-0.584,0.258
								c0.557,0.321,1.146,0.66,1.765,1.016c0.614,0.371,1.271,0.71,1.911,1.205c0.646,0.472,1.316,0.961,2.007,1.466
								c0.683,0.517,1.322,1.144,2.006,1.742c2.657,2.478,4.978,5.564,6.923,8.468c0.932,1.387,1.867,2.779,2.789,4.151
								c0.874,1.305,1.812,2.478,2.687,3.651c1.874,2.292,3.699,4.393,5.367,6.104l-0.461-0.345
								c4.672,4.758,7.991,7.728,10.339,9.995c2.369,2.25,3.866,3.733,5.42,5.32c1.551,1.602,3.181,3.293,5.744,6.221
								c1.274,1.478,2.783,3.27,4.527,5.656c1.765,2.355,3.69,5.438,5.622,9.366c0,0-0.027-0.057-0.078-0.163
								c-0.048-0.108-0.125-0.263-0.238-0.453c-0.219-0.383-0.53-0.93-0.905-1.586c-0.385-0.648-0.794-1.432-1.307-2.216
								c-0.522-0.774-1.079-1.601-1.637-2.428c-1.175-1.578-2.355-3.147-3.309-4.224c-0.467-0.551-0.856-1.011-1.129-1.332
								c-0.273-0.319-0.438-0.488-0.438-0.488c3.542,4.487,5.55,7.578,7.184,10.37c0.404,0.705,0.796,1.387,1.189,2.072
								c0.377,0.694,0.69,1.422,1.045,2.169c0.33,0.756,0.737,1.523,1.031,2.394c0.308,0.866,0.627,1.796,0.961,2.816
								c-0.147-0.276-0.154,0.085-0.458-0.438c-0.347-0.508-0.776-1.966-2.469-5.629c0,0,0.271,0.595,0.742,1.637
								c0.515,1.029,1.048,2.566,1.716,4.408c1.254,3.701,2.426,8.783,2.928,13.85c0.539,5.068,0.534,10.068,0.431,13.762
								c-0.132,3.686-0.3,6.1-0.3,6.1C972.547,146.908,973.607,135.893,973.889,134.411z"/>
							<path fill="#FFFFFF" d="M969.898,181.75c-0.024,1.978-0.032,4.226-0.007,6.879
								C969.895,186.068,969.896,183.863,969.898,181.75z"/>
							<path fill="#FFFFFF" d="M810.619,13.292c0,0,2.749,0.046,5.498,0.093c1.373,0.014,2.749,0.052,3.781,0.104
								c1.032,0.042,1.72,0.069,1.72,0.069C818.208,13.35,814.658,13.325,810.619,13.292z"/>
							<path fill="#FFFFFF" d="M972.953,235.58c-0.076-6.577,0.645,4.891,0.897,6.038l-1.232-23.472
								c-0.199,0.115-0.541-2.188-0.702-1.709L972.953,235.58z"/>
							<path fill="#FFFFFF" d="M972.685,211.37c-0.184-0.786-0.407-3.246-0.631-6.001c0,0,0.132,3.191,0.263,6.382
								c0.151,3.198,0.302,6.396,0.302,6.396C972.764,218.057,972.829,216.613,972.685,211.37z"/>
							<polygon fill="#FFFFFF" points="961.969,214.337 961.76,210.169 961.36,203.86 							"/>
							<path fill="#FFFFFF" d="M963.822,148.956c-0.9,4.922-1.295,14.456-1.359,17.621c0.297-5.464,0.421-7.01,0.583-8.621
								C963.212,156.349,963.276,154.652,963.822,148.956z"/>
							<path fill="#FFFFFF" d="M959.4,162.227c0.001,0,0.096-2.665,0.294-5.332c0.087-1.333,0.175-2.667,0.239-3.667
								c0.079-0.994,0.132-1.657,0.132-1.657l-0.159,0.979c0,0-0.142,2.42-0.283,4.839
								C959.462,159.81,959.401,162.227,959.4,162.227z"/>
							<path fill="#FFFFFF" d="M730.185,19.087c-1.714,0.155-3.377,0.306-5.108,0.463C727.417,19.355,728.944,19.212,730.185,19.087
								z"/>
							<path fill="#FFFFFF" d="M820.608,15.096c-6.323-0.373-8.448-0.431-8.203-0.539c0.245-0.079,2.863-0.109,6.025-0.114
								c3.165,0.057,6.876,0.132,9.301,0.125c2.425,0.001,3.565-0.019,1.581-0.354c0,0-0.865-0.04-2.161-0.063
								c-1.297-0.029-3.025-0.069-4.753-0.108c-1.729-0.034-3.457-0.091-4.751-0.095c-1.294,0.001-2.157,0.002-2.157,0.002
								l1.18-0.183c0,0-4.209-0.056-8.417-0.112c-4.202,0.025-8.403,0.05-8.403,0.05c3.45,0.335,6.036,0.347,5.287,0.715
								c-11.205-0.065-12.96-0.011-13.984-0.167c-0.511-0.063-0.836-0.14-2.061-0.207c-1.226-0.073-3.351-0.132-7.451-0.074
								c0,0-6.25,0.224-12.474,0.601c-3.117,0.16-6.228,0.353-8.557,0.517c-2.331,0.155-3.885,0.258-3.885,0.258l2.006-0.238
								c-2.094,0.142-3.016,0.246-3.73,0.352c0,0-5.226,0.394-13.063,0.984c-7.825,0.631-18.247,1.522-28.631,2.455
								c-10.388,0.921-20.756,1.846-28.52,2.47c-3.882,0.308-7.117,0.563-9.381,0.743c-2.264,0.169-3.557,0.266-3.557,0.266
								c-15.042,1.346,8.378,0.074-2.697,1.393c17.459-1.188,43.516-3.129,44.95-3.968c-0.581,0.151-1.724,0.451,1.838,0.231
								l10.097-1.461l-9.692,0.632c5.068-0.739,15.856-1.775,26.149-2.571c10.298-0.784,20.105-1.267,23.117-1.253
								c-9.428,0.684-11.76,1.066-15.016,1.467c-3.257,0.394-7.45,0.755-20.537,1.636c1.188,0.085,5.999,0.012,0.125,0.603
								c15.299-1.373,29.864-2.424,44.621-3.139C789.563,15.239,804.513,14.848,820.608,15.096z"/>
							<path fill="#FFFFFF" d="M515.314,12.756l0.253-0.016C515.012,12.663,514.818,12.672,515.314,12.756z"/>
							<path fill="#FFFFFF" d="M525.49,14.928c0,0,0.935,0.146,2.336,0.364c1.383,0.23,3.227,0.538,5.07,0.846
								c3.685,0.616,7.369,1.232,7.369,1.232s-5.689-1.219-11.379-2.438c-5.774-1.17-11.549-2.341-11.549-2.341l-1.771,0.149
								c2.057,0.294,10.225,1.69,13.298,2.539L525.49,14.928z"/>
							<path fill="#FFFFFF" d="M557.116,20.152c-1.46-0.2-2.727-0.373-3.814-0.522c-1.091-0.167-2.002-0.306-2.747-0.419
								c-1.492-0.207-2.325-0.269-2.597-0.217c-0.542,0.104,1.161,0.662,4.314,1.429c-10.757-1.876-5.505-1.721-13.019-2.629
								c0.086,0.254,3.438,0.975,7.146,1.689c1.857,0.349,3.802,0.714,5.472,1.028c1.671,0.328,3.073,0.464,3.834,0.586
								L557.116,20.152z"/>
							<path fill="#FFFFFF" d="M644.319,24.563l-3.344,0.37c0,0,2.065-0.061,4.132-0.122c2.066-0.048,4.136-0.157,4.136-0.157
								s-1.231-0.015-2.464-0.029C645.55,24.593,644.319,24.563,644.319,24.563z"/>
							<path fill="#FFFFFF" d="M640.976,24.932c0,0-2.051,0.061-4.102,0.121c-2.05,0.033-4.099,0.066-4.099,0.066
								c0.571,0.169,1.137,0.335,2.478,0.431c0,0,1.431-0.137,2.861-0.302C639.545,25.09,640.976,24.932,640.976,24.932z"/>
							<path fill="#FFFFFF" d="M611.303,25.061c-3.456-0.105-7.282-0.186-11.921-0.436c0,0,2.977,0.14,5.954,0.279
								C608.319,24.982,611.303,25.061,611.303,25.061z"/>
							<path fill="#FFFFFF" d="M620.652,25.265l-0.277-0.076c0,0-2.27-0.012-4.539-0.025c-2.269-0.026-4.533-0.103-4.533-0.103
								C614.641,25.196,617.644,25.22,620.652,25.265z"/>
							<path fill="#FFFFFF" d="M632.775,25.119c-0.67-0.192-1.396-0.389-3.435-0.492c-1.019-0.054-2.365-0.072-4.195-0.078
								c-1.828-0.026-4.141-0.026-7.095,0.01l2.324,0.629c0,0,3.097,0.036,6.197,0.014
								C629.674,25.161,632.775,25.119,632.775,25.119z"/>
							<path fill="#FFFFFF" d="M952.47,92.002c0,0-0.351-0.427-0.877-1.067c-0.56-0.626-1.305-1.461-2.05-2.296
								c-0.781-0.82-1.562-1.64-2.147-2.254c-0.604-0.607-1.008-1.012-1.008-1.012l0.622,0.745c0,0,0.393,0.408,0.981,1.02
								c0.581,0.615,1.387,1.424,2.114,2.264c0.744,0.833,1.502,1.662,2.009,2.308c0.527,0.639,0.878,1.064,0.878,1.064
								L952.47,92.002z"/>
							<path fill="#FFFFFF" d="M916.664,50.678c-1.324-1.728-2.349-2.937-3.354-3.887c0.753,0.727,1.353,1.541,1.93,2.161
								C915.787,49.646,916.268,50.211,916.664,50.678z"/>
							<path fill="#FFFFFF" d="M883.796,36.323c-10.435-2.954,14.669,2.984-4.806-1.919c-0.818-0.398,1.087-0.163,4.353,0.474
								c1.626,0.329,3.621,0.713,5.727,1.25c2.104,0.541,4.342,1.186,6.495,1.947c-0.382,0.038-2.557-0.549-3.96-0.908
								c-1.435-0.331-2.056-0.466,0.625,0.507c5.987,1.353,7.865,2.579,6.155,1.293c4.748,1.608,7.182,2.706,9.133,3.745
								c0.482,0.265,1.006,0.473,1.429,0.763c0.44,0.279,0.883,0.561,1.351,0.857c0.489,0.278,0.931,0.648,1.426,1.046
								c0.246,0.202,0.513,0.398,0.777,0.631c0.257,0.248,0.526,0.507,0.811,0.781c-1.917-2.051-4.631-4.186-8.419-6.128
								c-3.755-1.937-8.385-3.611-13.323-5.014c-9.987-2.696-20.651-5.002-28.798-5.819c-4.496-0.422-5.431-0.115-5.259,0.338
								c0.176,0.444,1.446,1.091,1.355,1.571c0.324,0.109,1.994,0.432,4.331,0.846s5.35,0.884,8.308,1.515
								c1.486,0.285,2.969,0.569,4.364,0.836c0.698,0.127,1.375,0.25,2.02,0.367c0.64,0.135,1.247,0.263,1.811,0.382
								C881.958,36.156,883.546,36.425,883.796,36.323z"/>
							<path fill="#FFFFFF" d="M899.246,41.926c2.072,0.882,3.376,1.478,4.399,2.03c1.093,0.508,1.857,0.999,2.933,1.614
								c-0.097-0.155-0.388-0.377-0.81-0.654c-0.418-0.279-0.963-0.616-1.679-0.927C902.747,43.311,900.941,42.605,899.246,41.926z"
								/>
							<path fill="#FFFFFF" d="M785.343,21.899c-0.978,0.173-10.269,0.7-8.259,0.857c0,0,3.521-0.179,7.042-0.357
								c1.761-0.1,3.521-0.163,4.843-0.204c1.321-0.046,2.201-0.076,2.201-0.076C787.861,22.177,786.689,22.015,785.343,21.899z"/>
							<path fill="#FFFFFF" d="M797.352,21.913l-6.182,0.206C792.716,22.099,794.627,22.026,797.352,21.913z"/>
							<path fill="#FFFFFF" d="M784.67,21.841c0.224,0.02,0.424,0.037,0.673,0.059C785.541,21.863,785.502,21.835,784.67,21.841z"/>
							<path fill="#FFFFFF" d="M577.621,22.955c0.11-0.121-1.376-0.292-3.277-0.459c-1.896-0.198-4.2-0.438-5.741-0.6
								c1.247,0.176,2.747,0.387,4.308,0.607C574.475,22.709,576.113,22.84,577.621,22.955z"/>
							<path fill="#FFFFFF" d="M341.342,21.746l-5.521,0.419C337.778,22.067,338.781,22.016,341.342,21.746z"/>
							<path fill="#FFFFFF" d="M256.392,33.186c-0.164,0.048-0.576,0.084-1.132,0.115C255.815,33.277,256.203,33.241,256.392,33.186
								z"/>
							<path fill="#FFFFFF" d="M255.26,33.301c-1.906,0.054-5.805,0.03-9.743-0.152c-3.938-0.18-7.929-0.348-10.047-0.271
								l0.54-0.079l-7.868-0.131c3.685,0.143,9.393,0.363,14.713,0.568C248.172,33.481,253.123,33.398,255.26,33.301z"/>
						</g>
					</g>
				</g>
			</g>
		</g>
	</g>
</g>
</svg>
