<?xml version="1.0" encoding="utf-8"?>
<!-- Generator: Adobe Illustrator 16.0.0, SVG Export Plug-In . SVG Version: 6.00 Build 0)  -->
<!DOCTYPE svg PUBLIC "-//W3C//DTD SVG 1.1//EN" "http://www.w3.org/Graphics/SVG/1.1/DTD/svg11.dtd">
<svg version="1.1" id="Layer_1" xmlns="http://www.w3.org/2000/svg" xmlns:xlink="http://www.w3.org/1999/xlink" x="0px" y="0px"
	 width="516px" height="324px" viewBox="0 0 516 324" enable-background="new 0 0 516 324" xml:space="preserve">
<g>
	<image overflow="visible" opacity="0.75" width="540" height="345" xlink:href="A6FE2514.png"  transform="matrix(1 0 0 1 -7 -6)">
	</image>
	<g>
		<path fill="#F2F2F2" d="M504.68,17.095c-0.072-4.168-20.668-7.526-45.782-7.455c-48.273,0.139-98.125,0.752-144.919,0.445
			c-41.209-0.27-87.487-0.365-134.05-0.335C97.008,9.802,8.271,7.555,8.767,31.215c1.937,92.254,11.054,184.024,0,275.755
			c-0.497,4.123,29.431,3.013,35.518,3.069c146.366,1.343,293.248,1.449,439.695,0.318c5.101-0.038,10.624-0.104,14.445-0.608
			c4.857-0.638,5.181-1.727,5.144-2.689c-1.022-26.745,2.426-53.226,1.403-79.972c-0.364-9.532,0.365-18.086,0-27.617
			c-0.402-10.534-0.095-22.443-0.497-32.977C502.564,116.497,505.54,67.055,504.68,17.095z"/>
		<g>
			<g>
				<g>
					<g>
						<g>
							<path fill="#FFFFFF" d="M502.224,55.693c-0.021-3.544,0.255-6.629,0.406-5.297c-0.389-7.217,0.04-7.37-0.691-8.306
								c-0.366-4.628,0.122-9.568,0.427-4.302l-0.469-13.346l-0.101,7.981c-0.609-2.168,0.161-12.753-0.551-15.271l0.083,14.44
								l-0.202-0.72c0.222,3.286,0.142,9.673,0.061,11.899c-0.101-0.351-0.262-0.128-0.284-2.674
								c-0.009,8.714,0.259,9.89,0.557,10.696c0.273,0.807,0.685,1.235,0.657,8.486C502.115,58.373,502.141,57.247,502.224,55.693z"
								/>
							<path fill="#FFFFFF" d="M500.518,70.515l0.669,6.103l-0.349,10.22c0.261,0.12,0.361,7.57,0.668,2.532
								c-0.026-0.986-0.076-2.937-0.028-4.51c0.534,1.145,0.101,13.606,0.718,10.609c-0.068-8.098,0.104-9.331-0.291-14.316
								c0.163-7.412,0.375-12.809,0.634-16.267c-0.053-2.201-0.396-2.515-0.424-5.311c-0.002,0.619-0.004,1.187-0.007,1.899
								l-0.857,0.292c0.145,2.333,0.026,4.537,0.006,7.123l-0.817-11.977c-0.856,3.849-0.563,15.609-0.966,20.301
								C500.278,71.398,499.76,81.857,500.518,70.515z"/>
							<path fill="#FFFFFF" d="M502.114,59.575c0-0.078,0.001-0.205,0.002-0.294C502.115,59.37,502.114,59.498,502.114,59.575z"/>
							<path fill="#FFFFFF" d="M10.872,157.069c-0.088-2.542-0.312-3.285-0.423-3.648c0,0,0.21,7.154,0.42,14.308
								c0.154,7.153,0.309,14.307,0.309,14.307c0.206-0.899,0.318-9.148,0.563-3.643c0.193-2.462-0.148-9.941-0.504-11.02l0.4,2.066
								c-0.625-6.583,0.103-11.112,0.485-6.819l-0.021-0.557c0,0-0.553-4.555-1.105-9.109c-0.58-4.552-1.159-9.104-1.159-9.104
								C9.964,150.559,10.625,148.996,10.872,157.069z"/>
							<path fill="#FFFFFF" d="M464.477,8.127c-3.736,0.022-4.193,0.123-3.771,0.202C462.044,8.274,463.315,8.21,464.477,8.127z"/>
							<path fill="#FFFFFF" d="M9.29,139.597l-0.733-5.7C8.789,136.182,9.042,138.186,9.29,139.597z"/>
							<path fill="#FFFFFF" d="M18.445,179.061c0.028,0.011,0.054,0.073,0.089-0.079l-0.321-2.573
								c0.001,0.038,0.001,0.05,0.001,0.065C18.299,177.422,18.375,178.274,18.445,179.061z"/>
							<path fill="#FFFFFF" d="M22.321,12.653c0.63-0.206,1.173-0.383,1.926-0.628C23.544,12.23,22.909,12.455,22.321,12.653z"/>
							<path fill="#FFFFFF" d="M20.568,257.159c0,0,0.027-0.805,0.027-2.011c-0.001-1.206-0.002-2.813-0.003-4.422
								c-0.002-3.214-0.005-6.429-0.005-6.429c0.174,1.72,0.341-4.476,0.516-1.762c0.002-0.98,0.079-5.571-0.093-4.323l-0.083,2.62
								c-0.471-6.788-0.888-2.7-1.171-13.917c-0.576,6.947-0.199,10.002-0.039,13.699c-0.012,1.251-0.022,2.299-0.033,3.358
								l0.564,10.708c0,0,0.085,0.619,0.17,1.238C20.494,256.539,20.568,257.159,20.568,257.159z"/>
							<path fill="#FFFFFF" d="M286.861,12.434l-0.14,0.054C286.85,12.469,286.873,12.451,286.861,12.434z"/>
							<path fill="#FFFFFF" d="M286.163,12.71l0.559-0.223C286.036,12.598,283.413,12.698,286.163,12.71z"/>
							<path fill="#FFFFFF" d="M9.817,141.682c-0.136-0.169-0.321-0.897-0.527-2.085l0.546,4.254
								C9.831,143.244,9.824,142.443,9.817,141.682z"/>
							<path fill="#FFFFFF" d="M11.687,151.342l0.413,10.722l0.477,3.944C12.32,161.907,12.094,157.109,11.687,151.342z"/>
							<path fill="#FFFFFF" d="M4.89,23.797c1.101-1.928,2.314-3.249,3.347-4.187c1.04-0.968,1.936-1.62,2.667-2.111
								c1.469-0.982,2.31-1.395,2.688-1.558c0.761-0.313-0.302,0.333-1.725,1.376c-1.432,1.031-3.174,2.689-3.859,3.583
								c-0.342,0.46-0.446,0.658-0.169,0.415c0.139-0.12,0.371-0.363,0.736-0.671c0.363-0.316,0.845-0.775,1.489-1.253
								c1.519-1.251,2.825-2.074,3.959-2.754c1.137-0.687,2.111-1.202,3.013-1.67c1.805-0.935,3.317-1.597,5.285-2.313
								c-4.522,1.556-6.674,2.665-7.637,3.008c-0.965,0.399-0.74,0.093-0.511-0.221c0.227-0.312,0.456-0.631-0.561-0.221
								c-0.506,0.195-1.331,0.597-2.623,1.403c-0.647,0.427-1.411,0.937-2.302,1.684c-0.887,0.732-1.909,1.703-2.979,3.061
								c0.231-0.459,0.617-0.984,1.12-1.647c0.508-0.585,1.146-1.316,1.881-1.943c1.474-1.329,3.334-2.589,5.296-3.623
								c3.932-2.072,8.271-3.39,11.449-4.154c3.648-0.58,2.116-0.083-0.488,0.749c-1.304,0.425-2.884,0.961-4.229,1.527
								c-1.342,0.536-2.45,1.124-2.79,1.427c3.711-1.512,5.212-1.929,6.181-2.332c0.965-0.365,1.393-0.634,2.916-1.212
								c5.826-1.385,11.722-2.569,17.054-3.39c5.33-0.829,10.078-1.281,13.511-1.11C65.818,4.835,65.25,4.6,69.952,3.938
								c0.449-0.391-2.609-0.318-6.176-0.138c-3.566,0.174-7.64,0.466-9.202,0.335c0.641,0.001,1.891,0.008,1.541,0.144
								c0,0-1.792,0.133-3.583,0.267C50.736,4.7,48.94,4.854,48.94,4.854c6.828-0.473-0.86,0.777-4.492,1.339
								c-2.641,0.331-7.928,1.233-7.234,0.921c0,0,1.002-0.202,2.004-0.403c1.001-0.191,2.002-0.382,2.002-0.382
								C35.989,6.85,29.861,8.745,24.166,9.96c-0.339-0.076,1.768-0.75,2.061-0.915c-3.079,1.067-6.138,2.085-9.654,3.686
								c-1.757,0.81-3.627,1.737-5.667,3.113c-2.009,1.371-4.308,3.193-6.336,6.263c0,0,0.273-0.452,0.683-1.129
								c0.209-0.346,0.472-0.674,0.753-1.063c0.282-0.389,0.592-0.783,0.908-1.131c1.267-1.496,2.612-2.622,2.612-2.621
								c-0.93,0.768-2.033,1.774-3.209,3.05c-1.166,1.326-2.433,3.019-3.39,5.232c-0.479,1.096-0.856,2.33-1.079,3.602
								c-0.094,0.637-0.217,1.295-0.222,1.937c-0.009,0.324-0.018,0.649-0.027,0.976l-0.002,0.454l0.01,0.277
								c0.045,1.482,0.092,3.023,0.14,4.596C1.9,42.579,1.893,49.382,1.885,54.943c0.082-1.237,0.095-3.461,0.278-2.132
								c0.388,6.522,0.054,11.471-0.426,8.46c0.795,6.359,0.394,24.303,1.534,32.94l5.286,39.685
								c-0.151-1.488-0.289-3.08-0.385-4.725c0.491-3.644,0.337-5.593,1.186,0.728c-0.583-6.215-0.996-3.815-1.395-13.171
								c0.464,3.657,1.238,4.557,0.942-4.414C7.354,89.925,4.889,75.14,3.302,54.173c0.239-0.396,0.157-4.709,0.08-9.935
								c-0.054-2.612-0.112-5.45-0.167-8.136c-0.027-1.343-0.054-2.648-0.079-3.868C3.13,31.929,3.125,31.63,3.12,31.336
								c0.01-0.471,0.028-0.938,0.054-1.391c0.01-0.45,0.108-0.901,0.174-1.332c0.074-0.433,0.147-0.852,0.274-1.247
								c-0.131,0.619-0.142,1.33-0.21,2.085c-0.018,0.377,0.004,0.764,0.01,1.167c0.007,0.2,0.013,0.404,0.02,0.612
								c0.009,0.202,0.028,0.284,0.042,0.435c0.117,1.083,0.219,2.304,0.311,3.623c0.184,2.638,0.325,5.667,0.457,8.75
								c-0.039-1.937-0.092-4.572-0.148-7.342c-0.03-1.385-0.061-2.803-0.091-4.185c-0.007-0.345-0.015-0.688-0.022-1.028
								C3.981,31.354,3.992,31.048,4,30.802l0.032-0.762c0.082-1.008,0.252-2.01,0.547-2.92c0,0-0.044-0.832,0.059-1.66
								C4.697,24.606,4.89,23.797,4.89,23.797z"/>
							<path fill="#FFFFFF" d="M6.106,78.685c0.022-0.563,0.025-1.144,0.025-1.741C6.103,77.263,6.092,77.782,6.106,78.685z"/>
							<path fill="#FFFFFF" d="M4.284,45.92c0.021,0.077,0.034,0.049,0.055,0.076c-0.029-0.647-0.058-1.294-0.088-1.957
								C4.263,44.702,4.275,45.451,4.284,45.92z"/>
							<path fill="#FFFFFF" d="M10.735,136.391c0.164,1.327,0.284,2.305,0.448,3.632c-0.066-0.818-0.148-1.844-0.228-2.832
								C10.856,136.251,10.774,135.805,10.735,136.391z"/>
							<path fill="#FFFFFF" d="M10.034,140.904l-0.226-0.703c0.003,0.572,0.006,0.974,0.009,1.481
								C9.931,141.832,10.016,141.663,10.034,140.904z"/>
							<path fill="#FFFFFF" d="M91.35,8.885l2.131-0.166C92.195,8.76,91.643,8.823,91.35,8.885z"/>
							<path fill="#FFFFFF" d="M30.437,10.918c-3.939,0.936-4.131,1.231-4.728,1.567c-0.298,0.179-0.698,0.372-1.716,0.741
								c-1.019,0.398-2.655,0.887-5.426,2c0,0,0.817-0.304,1.635-0.604c0.817-0.274,1.635-0.548,1.635-0.548
								c-1.963,0.741-4.31,1.664-6.844,3.024c-2.501,1.374-5.336,3.122-7.631,6.211c-1.128,1.528-2.028,3.452-2.375,5.478
								C4.9,29.293,4.814,29.799,4.81,30.299c-0.021,0.486-0.042,1.069-0.025,1.349c0.017,0.695,0.033,1.386,0.049,2.069
								c0.069,2.732,0.134,5.348,0.193,7.683c-0.318-1.046-0.209,5.676-0.688,4.596c0.276,6.385,0.613,12.699,1.179,15.972
								c-0.035,3.961,0.62,9.945,0.614,14.976c0.192-2.131,1.195,7.114,0.397-5.095c0.074,0.985,0.113,0.364,0.188,1.337
								c0.071-7.886-0.664-11.023-0.897-17.81c0.135-4.066,0.653,6.621,0.635,2.789C5.876,49.703,6.044,31.557,5.03,32.142
								c-0.007-0.193-0.014-0.38-0.02-0.563l-0.009-0.271c0.002-0.123,0.004-0.245,0.007-0.365c0.02-0.488,0.015-0.948,0.075-1.385
								c0.072-0.437,0.14-0.849,0.205-1.238c0.091-0.383,0.205-0.738,0.306-1.073c0.434-1.336,0.976-2.232,1.435-2.922
								c0.961-1.337,1.63-1.913,2.502-2.652c1.973-2.367,5.437-4.531,9.283-6.104c3.859-1.573,8.135-2.685,12.083-3.519
								c7.901-1.635,14.534-2.309,14.405-3.022c-3.585,0.516-9.465,1.357-14.686,2.827L30.437,10.918z"/>
							<path fill="#FFFFFF" d="M10.158,123.421c-0.014-0.476-0.034-1.109-0.045-1.504C10.125,122.362,10.143,122.915,10.158,123.421
								z"/>
							<path fill="#FFFFFF" d="M8.129,220.833l-0.889-3.227c-0.029-9.157-0.049-15.39-0.068-21.336
								c-0.009-2.975-0.018-5.878-0.027-9.038c-0.057-3.163-0.118-6.584-0.19-10.593c0.1-1.228,0.217,0.717,0.276,1.702
								c-0.069-2.818-0.146-5.986-0.226-9.281c-0.099-3.297-0.202-6.722-0.301-10.05c-0.192-6.655-0.491-12.933-0.84-17.034
								c-0.109-3.59-0.186-13.036,0.215-9.476c-0.149-1.746-0.305-3.743-0.356-5.756c0.303-0.545,0.271,4.499,0.541,4.604
								c-0.042-1.596-0.003-2.22-0.12-2.583c0.378,2.672,1.005-2.826,1.45,9.689c-0.581,4.873-0.403-8.675-1.14-5.783
								c0.16,4.152,0.454,3.655,0.572,4.007c0.167,5.289-0.047,5.157-0.249,4.882c0.329,2.017,0.21,8.679,0.693,11.463
								c0.361,10.273-0.645-0.54-0.441,6.17l0.958,3.844c0,0,0.041,2.791,0.081,5.582c0.019,2.79,0.039,5.579,0.039,5.579
								c0.602,16.144,1.46-2.342,2.225,16.121c-0.464-2.421-1.139,4.994-1.244,13.58c-0.092-5.141-0.668-14.626-0.562-21.266
								c-0.477,9.364-0.338-12.872-1-8.002c0.444,4.612,0.686,12.321,0.51,18.327l-0.096-1.968
								c-0.053,6.384,0.955,11.22,0.537,20.028c0.007,4.378-0.229,3.557-0.423,2.785C8.166,217.511,8.316,220.824,8.129,220.833z
								 M7.995,211.298l0.112-5.854C7.96,206.834,7.955,209.016,7.995,211.298z"/>
							<path fill="#FFFFFF" d="M500.364,152.952c0.012-0.587,0.026-1.263,0.037-1.796
								C500.369,151.549,500.363,152.229,500.364,152.952z"/>
							<path fill="#FFFFFF" d="M136.774,306.298l3.408,0.046C138.852,306.308,137.761,306.298,136.774,306.298z"/>
							<path fill="#FFFFFF" d="M213.264,303.877l4.979-0.174C216.278,303.706,214.738,303.777,213.264,303.877z"/>
							<path fill="#FFFFFF" d="M500.95,193.595l-0.003,0.168c0.021,0.28,0.035,0.494,0.057,0.79L500.95,193.595z"/>
							<path fill="#FFFFFF" d="M366.653,305.753c0.759,0.068,1.609,0.131,2.774,0.177
								C369.288,305.847,368.251,305.789,366.653,305.753z"/>
							<path fill="#FFFFFF" d="M212.348,303.909c0.128,0.007,0.201,0.012,0.302,0.018c0.193-0.016,0.406-0.033,0.615-0.05
								L212.348,303.909z"/>
							<path fill="#FFFFFF" d="M103.101,303.66c-0.731,0.024-1.396,0.047-2.182,0.073
								C101.948,303.722,102.579,303.693,103.101,303.66z"/>
							<path fill="#FFFFFF" d="M107.889,306.086c-0.786,0.018-1.536,0.04-2.121,0.074L107.889,306.086z"/>
							<path fill="#FFFFFF" d="M16.547,289.743l0.257-4.62C16.632,287.39,16.568,288.747,16.547,289.743z"/>
							<path fill="#FFFFFF" d="M95.751,305.472c-0.268,0.037-0.535,0.074-0.713,0.111C95.673,305.56,95.975,305.512,95.751,305.472z
								"/>
							<path fill="#FFFFFF" d="M502.526,123.7c0,0.104,0,0.217,0,0.279l0.098,0.116L502.526,123.7z"/>
							<path fill="#FFFFFF" d="M501.4,112.528c-0.01-1.317-0.021-2.688-0.031-4.036C501.35,109.991,501.362,111.451,501.4,112.528z"
								/>
							<path fill="#FFFFFF" d="M433.302,306.884c1.216,0.118,4.067,0.255,2.737,0.399
								C438.363,307.098,438.206,306.67,433.302,306.884z"/>
							<path fill="#FFFFFF" d="M508.075,146c-0.127-0.726-0.231-1.63-0.333-2.539C507.896,145.151,508.023,146.632,508.075,146z"/>
							<path fill="#FFFFFF" d="M507.742,143.461c-0.079-0.835-0.164-1.728-0.234-2.476
								C507.578,141.856,507.656,142.691,507.742,143.461z"/>
							<path fill="#FFFFFF" d="M402.431,314.025c-0.302-0.057-0.77-0.103-1.404-0.116
								C401.212,314.023,401.72,314.047,402.431,314.025z"/>
							<path fill="#FFFFFF" d="M501.536,105.232c-0.194-0.725-0.463-18.283-0.71-3.521c-0.615-0.574-0.217-9.484-0.298-13.408
								c-0.19,2.851-0.383-1.425-0.62-0.563c0.046,1.949,0.188,4.266,0.118,7.496c-0.299,1.482-0.46-3.427-0.285-7.236
								c-0.402,4.695-0.409-5.972-0.764,0.676c0.052,14.249,0.205,24.347,1.021,34.371c-0.073-8.126-0.173-17.221,0.146-23.883
								l0.517,2.808c-0.552,7.527-0.24,12.181-0.362,19.588l0.45-16.638c0.528-7.789,0.582-2.573,0.621,3.57
								C501.391,106.981,501.438,105.615,501.536,105.232z"/>
							<path fill="#FFFFFF" d="M506.201,116.465l0.019-0.278c-0.018-0.243-0.027-0.545-0.049-0.7L506.201,116.465z"/>
							<path fill="#FFFFFF" d="M5.511,289.558c0,0-0.083-1.431-0.083-1.431C5.429,289.315,5.449,289.684,5.511,289.558z"/>
							<path fill="#FFFFFF" d="M503.471,126.364v-0.012C503.476,126.464,503.475,126.492,503.471,126.364z"/>
							<path fill="#FFFFFF" d="M26.262,315.22c-0.052,0.014-0.104,0.028-0.195,0.043C26.198,315.249,26.198,315.233,26.262,315.22z"
								/>
							<path fill="#FFFFFF" d="M35.798,303.524c-0.065-0.025-0.085-0.049-0.238-0.072C34.812,303.488,35.174,303.512,35.798,303.524
								z"/>
							<path fill="#FFFFFF" d="M26.29,315.17c0,0.017,0.023,0.033-0.028,0.05C26.29,315.203,26.353,315.187,26.29,315.17z"/>
							<path fill="#FFFFFF" d="M199.057,313.893c0,0-0.545-0.097-1.404-0.19C197.32,313.751,197.653,313.812,199.057,313.893z"/>
							<path fill="#FFFFFF" d="M164.97,312.919c-0.216-0.022-0.345-0.035-0.623-0.063L164.97,312.919z"/>
							<path fill="#FFFFFF" d="M425.228,304.461c-1.687-0.002-2.951,0.017-4.019,0.044
								C422.439,304.514,423.77,304.508,425.228,304.461z"/>
							<path fill="#FFFFFF" d="M26.067,315.263c-0.365,0.051-0.884,0.1-1.745,0.149C25.27,315.36,25.769,315.31,26.067,315.263z"/>
							<path fill="#FFFFFF" d="M251.038,311.401c-0.364,0.019-0.704,0.036-1.048,0.055c0.208,0.01,0.417,0.021,0.623,0.03
								L251.038,311.401z"/>
							<path fill="#FFFFFF" d="M268.826,311.85c-0.607,0.063-0.886,0.129-1.227,0.187c6.349-0.249,18.014-0.044,19.395-0.627
								c-2.155,0.021-13.324-0.279-11.421-0.625c-4.426,0.153-10.967-0.207-13.351-0.135c7.266,0.325,0.785,0.502-4.12,0.663
								c-4.46-0.191,0.84-0.462-3.001-0.588l-10.322,0.013l8.991,0.121l-2.732,0.543c0.333-0.018,0.561-0.029,0.917-0.048
								C267.167,311.15,253.246,312.214,268.826,311.85z"/>
							<path fill="#FFFFFF" d="M267.6,312.036c-0.952,0.038-1.787,0.083-2.438,0.145C266.598,312.167,267.154,312.108,267.6,312.036
								z"/>
							<path fill="#FFFFFF" d="M329.75,312.736c0.781-0.028,1.628-0.059,2.692-0.098C331.936,312.657,330.76,312.7,329.75,312.736z"
								/>
							<path fill="#FFFFFF" d="M12.667,173.634c-0.159,0.271-0.32,9.131,0.105,8.965c-0.008-2.629-0.017-5.278-0.024-7.938
								L12.667,173.634z"/>
							<path fill="#FFFFFF" d="M498.717,309.036c-0.898,0.144-1.837,0.178-2.751,0.288c-0.195,0.043-0.384,0.085-0.529,0.117
								C496.005,309.435,497.848,309.229,498.717,309.036z"/>
							<path fill="#FFFFFF" d="M278.313,310.573c-1.625,0.071-2.348,0.142-2.739,0.211
								C276.626,310.746,277.597,310.688,278.313,310.573z"/>
							<path fill="#FFFFFF" d="M499.747,309.901c0.34-0.018,0.718-0.063,1.096-0.133s0.778-0.103,1.119-0.212
								c0.711-0.15,1.245-0.41,1.429-0.425c0.189-0.127,0.341-0.301,0.504-0.446c0.103-0.193,0.258-0.36,0.29-0.573
								c0.132-0.399,0.078-0.813,0.078-1.224c-0.029-0.809-0.058-1.591-0.088-2.41c-0.061-0.819-0.12-1.67-0.165-2.607
								c0.024,0.824,0.049,1.683,0.076,2.581c-0.008,0.62-0.016,1.258-0.023,1.914c-0.048,0.646,0.101,1.354-0.304,1.944
								c-0.08,0.158-0.217,0.271-0.354,0.383c-0.126,0.126-0.273,0.224-0.438,0.3c-0.307,0.188-0.646,0.317-0.999,0.427
								c-0.343,0.135-0.714,0.205-1.085,0.284C500.515,309.789,500.138,309.864,499.747,309.901z"/>
							<path fill="#FFFFFF" d="M503.997,301.645c0.005,0.078,0.009,0.156,0.013,0.227
								C504.006,301.793,504.002,301.723,503.997,301.645z"/>
							<path fill="#FFFFFF" d="M12.735,168.36c-0.051-0.761-0.104-1.545-0.158-2.353l0.15,1.223
								c-0.016-2.038-0.031-4.065-0.046-6.096c-0.041-0.734-0.086-1.53-0.141-2.507c0.026,0.394,0.081,0.698,0.133,0.886
								c-0.002-0.662-0.004-1.308-0.006-1.954c-0.554-4.839-1.338-16.897-1.712-20.369c-0.352-4.599-0.696-10.233-0.797-13.771
								c0.121,3.277,0.381,7.625,0.575,6.31c-0.011-6.665,0.607-9.93-0.503-21.391l0.288,6.736L8.942,99.967
								c0.175-5.324,0.785,7.541,1.215,9.629C9.2,97.835,10.054,87.982,9.01,82.554c0.458-0.789,1.223-2.113,0.881-9.843
								c-0.345,5.596-0.534-4.623-0.956-0.026c-0.382-2.662-0.152-8.633-0.523-9.066l0.226,0.716
								c0.33-13.234-1.017-17.519-1.545-23.167c-0.069-1.978-0.134-3.823-0.194-5.561c-0.026-0.869-0.051-1.712-0.076-2.532
								c-0.011-0.41-0.022-0.814-0.034-1.213l-0.016-0.594l0.023-0.712c0.069-1.897,0.679-3.699,1.573-5.148
								c0.893-1.462,2.014-2.608,3.169-3.576c2.343-1.911,4.847-3.152,7.486-4.251c2.646-1.092,5.468-1.983,8.65-2.829
								c0.595,0.187,4.24,0.143,9.342-0.783c1.148-0.445,4.619-1.171,7.954-1.79c3.334-0.62,6.531-1.159,7.098-1.497
								c-4.645,0.376-6.525,0.762-7.929,1.116c-1.404,0.358-2.337,0.696-5.081,1.207c-2.342,0.085-2.473-0.021-2.808-0.087
								c-0.335-0.055-0.875-0.07-4.049,0.406c2.554-0.449,8.271-1.563,14.081-2.312c5.806-0.778,11.689-1.271,14.499-1.212
								l-1.962,0.239c4.465-0.201,7.144,0.062,10.548,0.136c3.405,0.088,7.531-0.011,14.921-0.711l7.059-0.579
								c-0.339,0.067-0.376,0.134-0.557,0.19c11.577-0.237,8.427,0.473,21.192-0.223c-0.986,0.05-0.366,0.105-1.368,0.155
								c7.283,0.228,14.619-0.453,20.124-0.602c3.36,0.464-0.796,0.465-2.873,0.818c12.803,0.13,26.621-0.641,34.572-1.208
								l8.25,0.288c-4.893,0.191-10.875,0.679-9.382,0.967c4.538-0.088,3.66-0.312,10.078-0.214
								c-1.095,0.302-3.788,0.581-6.806,0.957c13.273,0.521,2.968-1.066,12.256-0.134c4.17,0.001,6.592-0.425,7.048-0.792
								l7.556,0.497c0.84-0.463,10.167-0.466,16.28-0.521c0.747-0.198-4.921-0.508-7.238-0.334c0.457-0.364,6.96-0.52,11.143-0.502
								c1.531,0.979,27.385-0.073,22.438,1.064c18.788-0.27,45.182-0.303,57.584-0.68c4.088,0.28,12.421,0.314,7.424,0.76
								C314.195,9.437,322,8.385,337.007,8.607c1.241,0.118-6.785,0.029-6.253,0.353c9.813-0.421,17.848,0.358,33.07,0.051
								c-2.561,0.025-3.308,0.229-3.664,0.332c-0.267-0.161,6.237-0.354,10.176-0.523c2.212,0.077-2.948,0.126-1.707,0.247
								c29.404,0.383,51.808-1.012,81.051-1.058c-8.352,0.013-11.508,0.669-11.596,0.934l8.182-0.013
								c3.156-0.329,9.286-0.358,14.44-0.599c0.634,0.118,3.141,0.28,0.581,0.405c8.104,0.394,14.424,0.415,21.241,0.723
								c3.407,0.172,6.935,0.413,10.855,1.009c1.96,0.305,4.018,0.699,6.211,1.326c1.1,0.332,2.229,0.707,3.418,1.281
								c0.591,0.275,1.21,0.645,1.843,1.133l0.483,0.445c0.16,0.151,0.328,0.386,0.479,0.585c0.313,0.439,0.583,1.086,0.614,1.828
								c-0.002,0.056-0.021-1.062-0.783-1.935c-0.721-0.865-1.745-1.434-2.899-1.914c-2.317-0.943-5.326-1.533-8.345-1.977
								c-3.015-0.425-6.024-0.684-8.282-0.83c-2.257-0.146-3.761-0.203-3.761-0.202c0,0,1.467,0.27,2.933,0.54
								c1.464,0.279,2.919,0.593,2.919,0.593s-2.633-0.209-5.267-0.321c-2.634-0.119-5.267-0.157-5.267-0.157
								c6.227,0.785,11.729,0.759,12.407,1.371c-1.326-0.075-4.484-0.523-4.617-0.259c2.972,0.447,4.57,0.663,5.994,0.815
								c1.422,0.159,2.67,0.264,4.87,0.719c-5.864-0.889-14.635-1.648-23.521-1.94c-4.441-0.15-8.908-0.198-13.048-0.149
								c-4.164,0.069-8,0.132-11.158,0.185c-1.989,0.084,1.701-0.245,2.054-0.348c-5.158,0.049-8.254-0.252-14.745-0.059
								c-4.031,0.434,3.076,0.3,6.275,0.334c-0.44,0.367-2.05,0.351-5.613,0.417c-0.774-0.486-19.563-0.113-24.155-0.695
								c-19.04,0.212,3.045,1.255-15.543,1.1l-5.552-0.542c-10.792,0.465-24.75,0.89-36.961,0.809l2.573-0.026
								c1.715-0.244-1.117-0.383-2.37-0.501c-9.228-0.211-17.522,0.493-23.11-0.049c-5.264,0.308-12.284,0.604-19.491,0.827
								c-7.206,0.179-14.6,0.362-20.615,0.511c-3.241-0.745,15.696-0.586,20.705-1.033l-10.951-0.024
								c6.77,0.005,9.444-0.263,13.505-0.679c-9.597-0.153-12.757,0.478-21.856,0.644c0.709-0.198-0.505-0.325-4.702-0.341
								l-1.193,0.486c-0.077-0.041-0.541-0.079-1.837-0.113l-16.189,0.258c3.434,0.218,3.599,0.644,7.779,0.66
								c-1.491-0.289,2.056-0.336,6.241-0.318c-3.669,0.31,4.079,0.279,3.989,0.543c-8.39-0.034-18.698,0.006-24.199,0.126
								l-1.785-0.455c-7.995-0.134-16.439,0.097-21.862-0.048l1.71-0.235c-9.593-0.162-19.039,0.104-27.556-0.356
								c-8.557,0.493-19.329,0.895-26.322,1.416c-3.734,0.561-25.126-0.75-34.767,0.042c-0.65-0.064,6.626-0.428,9.919-0.642
								c-6.418-0.101-11.52,0.615-13.53,0.001c14.399,0.224-0.773-0.49,5.713-0.655c-6.743,0-13.849,0.109-17.154,0.333
								c10.905-0.011-3.873,0.845,7.167,0.576c-8.557,0.51-20.222,0.734-30.398,0.647c0.098-0.263-1.158-0.378-4.953-0.435
								l-3.053,0.429c-4.762,0.003,9.197-0.593-0.388-0.584c-4.925,0.404-12.343,0.47-19.058,0.681
								c-6.715,0.205-12.723,0.566-14.83,1.297c-3.745-0.02-0.205-0.359,2.872-0.652c3.075-0.291,5.683-0.561,0.028-0.578
								c6.54-0.792,15.637-0.578,17.79-1.234c-6.448,0.363-2.371-0.44-6.536-0.312l-7.177,0.662l1.591-0.046
								c-12.005,1.097-31.184,1.891-46.002,5.027c-3.097,0.794-5.894,1.665-8.497,2.651c-2.597,0.984-5.024,2.087-7.168,3.42
								c-2.142,1.298-3.99,2.961-4.677,4.518c-0.067,0.197-0.148,0.385-0.211,0.577c-0.02,0.2-0.126,0.377-0.122,0.585
								c-0.024,0.199-0.063,0.398-0.045,0.622c0.002,0.13-0.014,0.167-0.007,0.375l0.024,0.661c0.051,1.772,0.104,3.629,0.16,5.589
								c-0.475-4.623-0.012,13.038-0.918,3.178c-0.151,7.27,0.477,14.431,0.744,14.565c-0.117-6.393,0.005-2.25-0.03-7.636
								c0.428,3.623,0.697,11.997,0.599,15.443c-0.029-1.595-0.071-0.987-0.183-1.334c0.036,7.637,0.445,3.646,0.78,9.154
								c-0.377,1.767,0.333,12.18,0.318,17.229l0.937,7.28c-0.583-3.997,0.132,7.007-0.205,8.177
								c0.509,5.231,1.221,9.602,1.424,17.596c-0.349-3.291-0.028,7.302-0.448,7.458c0.118,13.694,2.01,22.625,1.756,35.626
								c-0.111-0.4-0.467-3.012-0.464,0.784c0.221,2.982,0.272,8.219,0.38,11.418l-0.014-0.101c0.006,0.062,0.01,0.101,0.016,0.166
								c0.054,1.566,0.127,2.55,0.231,2.587c0.28,2.733,0.492,4.809,0.771,7.542c0.228,2.737,0.453,6.141,0.677,11.537
								c0.471-0.795,0.235-9.913-0.005-13.854l-0.55-3.398c0.669-3.271-0.318-9.723-0.127-12.206
								c0.504,3.223,0.787,9.497,1.047,16.36c0.205,6.869,0.353,14.331,0.641,19.93c0.343-3.415,0.468-8.836,0.521-15.025
								c0.057-6.19-0.133-13.133-0.286-19.607l-0.179,5.709l-0.146-6.773l-0.387,6.567c-0.016-6.42-0.33-11.952-0.465-17.744
								c0.205,6.78-0.392,9.438-0.396,5.6c0.255-7.567-0.528-7.864-0.688-13.634c0.071,3.212,0.167,7.394-0.185,4.708
								c0.213-11.394-0.276-14.455-0.046-24.813c-0.764,1.313-0.587-12.908-1.321-14.426l0.125,4.795l-0.906-10.143
								c0.274-9.403,1.018,8.273,0.896-6.013c-0.458-13.164-1.302-12.786-1.778-23.125c0.611,3.387,1.366,11.572,1.691,19.918
								l0.025-5.063c0.386,2.658,0.807,14.217,1.016,19.982c-0.946-9.505,0.017,4.464-0.252,8.823
								c0.498,0.779,0.183-5.341,0.842,1.874c-0.277-6.772-0.349-7.765-0.532-16.377c0.533,18.622,2.321,16.668,2.506,32.961
								c-0.476-7.496-0.58,2.64-0.774,3.55c0.197,3.525,0.51,10.692,0.71,13.638l0.596-2.689c0.282,4.745,0.091,7.952-0.045,11.339
								c-0.164,3.392-0.277,6.962,0.18,12.441c0.432,1.419-0.056-9.654,0.062-7.682c0.354,7.504,0.324,12.61,0.06,17.518
								c-0.261,4.905-0.544,9.592-0.841,16.268c0.199,0.755,0.626,0.599,0.961,5.273c-0.397-1.47-0.621,1.985-0.892-3.27
								c-0.207,4.463,0.115,9.75,0.185,13.695c0.204-4.648,0.314-3.695,0.438-1.366c0.099,2.331,0.169,6.042,0.272,6.902
								c-0.167,4.82-0.373-1.479-0.43-4.444c-0.188,3.868-0.877,8.449-0.317,10.661c-0.214,0.07-0.439-2.64-0.605-6.262
								c-0.169-3.621-0.253-8.154-0.32-11.733c0,0-0.022,1.206-0.045,2.413c-0.016,1.206-0.059,2.413-0.058,2.413
								c-0.177-3.329-0.131-3.949-0.036-8.739c-0.352,4.688-0.714,4.22-1.012,3.126c0.065-0.613,0.099,0.343,0.163-0.243
								c0.126-3.854,0.024-6.812-0.207-5.919c-0.556-3.466-0.382,5.344-0.679,7.95c0.038,1.973,0.053,3.945,0.041,5.881
								c0,0,0.356,5.017,0.713,10.033c0.182,2.511,0.362,5.023,0.444,6.909c0.1,1.887,0.166,3.145,0.166,3.145
								c-0.059,4.289-0.235,7.395-0.463,10.229c-0.226,2.834-0.6,5.396-0.915,8.604l0.386,1.796
								c-0.256,3.727-0.488,7.348-0.782,9.431s-0.534,2.63-0.648,0.223c0.184-0.256,0.239-1.241,0.348-2.858
								c-0.054-0.218-0.079-0.595-0.089-1.067c-0.027-0.156-0.042-0.245-0.064-0.375c-0.119,3.995-0.406,7.233-0.52,9.536
								c-0.137,2.303-0.218,3.663-0.231,3.894c0.398-13.589-0.833-0.746-1.516-3.083c0,0-0.208,3.416-0.417,6.833
								c-0.102,1.708-0.203,3.417-0.329,4.695c-0.11,1.279-0.184,2.132-0.184,2.132c1.159-8.229,0.44-0.11,0.244,2.836
								c-0.159,0.21-0.32,1.145-0.481,2.488c-0.063,0.594-0.136,1.276-0.215,2.015c-0.027,0.377-0.057,0.782-0.087,1.198
								c-0.021,0.328-0.042,0.663-0.062,0.996c-0.008,0.164-0.024,0.327-0.026,0.488c0.001,0.168,0.142,0.296,0.272,0.383
								c0.572,0.327,1.185,0.395,1.634,0.506l-0.215,0.064c0.47,0.136,1.066,0.245,1.731,0.327c0.269,0.027,0.543,0.056,0.823,0.084
								c0.354,0.029,0.712,0.059,1.076,0.088c0.736,0.045,1.491,0.09,2.254,0.136c3.075,0.144,6.338,0.148,9.056,0.097
								c-0.245-0.149,6.724-0.967,10.122-1.511c-9.408-0.081-3.82-0.342-4.584-0.633c0.966,0.02,2.715,0.005,2.919-0.06
								c1.345-0.155-1.83-0.164-2.092-0.325c-4.97,0.164-9.969,0.22-14.143,0.177c-1.033-0.016-2.021-0.03-2.955-0.044
								c-0.458-0.011-0.902-0.021-1.331-0.03c-0.211-0.006-0.419-0.012-0.624-0.018l-0.136-0.002l-0.036,0.006l-0.073,0.013
								c-0.387,0.068-0.783,0.146-1.165,0.247c0.315,0.228,0.757,0.205,1.124,0.154c0.07-0.005,0.042-0.018,0.191-0.016l0.481,0.011
								c0.327,0.009,0.66,0.018,1.003,0.027c0.691,0.026,1.429,0.073,2.25,0.165c-1.021,0.048-2.098,0.055-3.218,0.019l-0.42-0.018
								l-0.196-0.008l-0.067,0.002l-0.28,0.003c-0.191-0.003-0.39-0.014-0.595-0.033c-0.407-0.048-0.854-0.103-1.265-0.311
								c-0.099-0.056-0.197-0.13-0.24-0.241c-0.029-0.115,0.01-0.235,0.016-0.355c0.028-0.24,0.056-0.486,0.085-0.739
								c0.046-0.398,0.093-0.813,0.143-1.243l0.703-2.704c0,0,0.17-2.114,0.341-4.229c0.085-1.058,0.17-2.114,0.234-2.907
								c0.07-0.792,0.092-1.322,0.092-1.322c-0.132,3.543,0.501,1.462-0.36,10.33c0.253-0.545,0.466-2.744,0.705-5.482
								c0.119-1.369,0.25-2.873,0.381-4.374c0.103-1.502,0.221-3,0.365-4.355l-0.315-2.824c0.214,1.098,1.226-10.525,0.961-2.231
								c0,0-0.165,3.371-0.33,6.743c-0.078,1.686-0.161,3.372-0.27,4.635c-0.093,1.264-0.155,2.105-0.155,2.105l0.77-3.698
								l-1.06,10.88c0,0-0.017-0.008-0.042-0.02c-0.003-0.003-0.007,0.001-0.009-0.009v-0.106c0-0.072,0-0.149,0.001-0.229
								c0-0.159,0.001-0.329,0.001-0.498c0.002-0.678,0.003-1.355,0.003-1.355c-0.049,0.552-0.095,1.075-0.139,1.571
								c-0.019,0.209-0.037,0.411-0.054,0.608l0.004,0.044c0.004,0.057,0.003,0.103-0.002,0.146
								c-0.119,0.369-0.136,0.561-0.161,0.784c0.008,0.106,0.08,0.208,0.327,0.261c0.061,0.013,0.132,0.022,0.214,0.027
								c0.328,0.021,0.695,0.045,1.107,0.071c1.23,0.07,2.769,0.115,4.692,0.114c2.749-0.231,5.629-0.372,9.208-0.455
								c1.801-0.027,3.77-0.058,5.979-0.091c1.123-0.007,2.307-0.013,3.561-0.021c1.248-0.007,2.786,0.021,4.122,0.048
								c-8.408,0.15-0.873,0.453-4.02,0.847c1.081,0.022,2.072,0.043,2.987,0.063c0.875,0.005,1.679,0.01,2.424,0.015
								c1.49-0.009,2.748-0.053,3.881-0.114c2.265-0.158,4.039-0.282,6.181-0.432c2.101,0.358,3.595,0.65-3.784,0.563
								c-0.931,0.725,9.709-0.078,10.375,0.677c24.449,0.098,19.608-2.329,48.179-1.25l-1.073,0.298
								c18.149-0.287,28.616,0.126,45.422-0.029l13.227,0.836c-2.959,0.104-10.917,0.64-7.207,1.029
								c-6.432-0.811-13.264-0.572-20.196-1.024c-0.709,0.199,2.114,0.359,3.343,0.49c-4.185-0.027-6.283-0.388-11.811-0.279
								c0.266,0.162,6.294,0.385,1.75,0.457l-7.516-0.517c-10.061,0.179-4.961,1.124-16.776,0.845
								c2.2-0.417,6.69-1.014,11.267-1.094c-5.399-0.119,7.199-0.223,2.273-0.503c-7.782,0.595-11.534,0.074-21.879,0.421
								c1.215-0.083,1.537-0.205,4.082-0.231l-15.004-0.342c3.71,0.389-12.398,0.346-11.007,0.903
								c15.991,0.308,11.294-0.049,29.517,0.354c-5.16,0.1-11.817,0.628-14.938,1.128c-0.159-0.022-0.421-0.041-0.982-0.054
								c-2.789,0.531,0.049,0.691-0.012,1.645c8.325-0.637,13.883-0.052,23.7-0.394c1.848-0.513-5.689-0.693-10.568-0.583
								l8.647-0.303l-1.704,0.231l21.942,0.283c-4.158,0.008-5.572,0.304-7.743,0.521c2.831,0.035,5.635,0.187,8.616,0.353
								c-0.624-0.501-0.227-0.851,2.535-0.827c14.118,0.188,21.963,0.674,27.171,1.269c0.542-0.009,1.153-0.02,1.645-0.027
								c-2.365-0.521,10.03-0.868,14.407-1.367c-0.219,0.525,7.274,0.352,11.343,0.642c2.168-0.595-0.719-1.445-5.671-1.965
								c-9.548,0.507-5.351,0.532-9.864,1.296l-15.316,0.448l3.425-0.467c-7.642-0.251-14.986,0.351-14.422-0.274
								c4.04-0.399,10.707-0.112,14.716-0.513l-5.054-0.255c8.922-0.573,4.569,0.617,15.37,0.24
								c-3.97-0.554,0.979-0.033,5.606-0.369c-3.712-0.391-19.015,0.059-15.766-0.834c5.617-0.368,18.89,1.158,26.323,0.292
								l-0.364,0.102c10.96,0.171,14.814-0.328,18.919-0.634c4.664,0.316,11.104-0.065,16.159-0.073l-0.125,0.264l7.132-0.075
								c-3.397,0.465-8.358-0.054-14.484-0.015l0.761,0.494c-7.061-0.617-11.774,0.245-17.252,0.641
								c7.973-0.386,22.51,0.231,24.384-0.719l4.93,0.521l2.36-0.168c3.673,0.391-0.079,0.955-7.204,1.031
								c-1.237-0.13-1.856-0.194-1.481-0.296c-3.307,0.203-6.344,0.569-14.347,0.417l4.271-0.239
								c-9.963-0.084-19.022,0.061-22.436,0.526c14.384,0.275,28.529,0.389,42.037,0.434c3.986-1.09,8.713-1.688,10.745-2.709
								c4.531-0.073,9.872-0.13,15.064-0.116c5.192-0.014,10.236,0.016,14.171,0.194l-0.723,0.205
								c3.84,0.093,7.379,0.024,10.33-0.104c4.058,0.257-2.776,0.555,0.051,0.691l12.979-0.391c-0.8,0.47-11.723,0.51-16.909,0.561
								c0.979-0.043,2.955-0.127,2.32-0.188c-6.033-0.171-17.273,0.663-19.911-0.003c-2.939,0.118,5.972-0.497-3.979-0.541
								c-6.664-0.287-8.834,0.308-9.53,0.507c-0.109,0.264,10.458,0.414,6.791,0.714c5.187,0.003,7.252-0.353,13.886-0.122
								c-2.57,0.024-5.601,0.178-8.331,0.273c-2.73,0.077-5.16,0.094-6.529-0.117c-10.165,0.442-8.709,1.689-3.917,1.781
								c-1.141-0.394,18.543-0.387,5.215-0.959c5.988-0.437,16.927-0.54,24.759-0.86l-0.355,0.102l9.724-0.159
								c-1.369,0.144-4.309,0.271-4.405,0.535l13.468-0.755c-7.581,0.502,4.699,0.313,8.149,0.511
								c1.442-0.409,6.702-0.724,1.654-0.938c-5.674-0.273-3.303,0.23-8.462,0.28l7.306-0.663l0.626,0.06l4.397-0.537
								c9.951,0.002-4.346,1.228,8.405,0.673l-1.66-0.705c14.763,0.054,33.725,0.787,44.155,0.422
								c-2.877,0.415-4.144,1.069-0.186,1.441c-4.499-0.106-13.538-0.049-19.989,0.039c-1.242-0.12,8.059-0.868,15.067-0.739
								c-3.399-1.152-17.628,0.765-18.455-0.412c-17.857-0.35-13.318,1.183-28.478,0.543c-0.208,0.527-4.309,0.272-5.104,0.74
								c4.487,0.844,20.264-0.101,30.101,0.166c-0.963,0.042-2.9,0.128-3.279,0.229c7.032,0.13,9.937,0.002,14.849-0.21
								l-0.619-0.061c8.582-0.545,5.312,0.375,10.364,0.589c1.957-0.085,8.981,0.043,7.852-0.34l9.149,0.469l-0.443-0.587
								c5.16-0.053,6.291,0.332,10.966-0.043l0.215-0.526l-12.815-0.139c6.494-0.195,1.809-0.511,8.944-0.646
								c-7.97,0.604,5.641,0.272,6.428,0.759l5.247-0.314l-1.342,0.146c4.121,0.256,4.904-0.214,9.712-0.162
								c-5.672-0.273-9.386-0.631-16.609-0.231c5.259-0.314,15.688-0.679,18.249-0.705c5.522-0.24,9.38,0.147,14.548,0.189
								c-9.916,0.245,3.481,1.584-16.394,1.275c0.367-0.103,1.976-0.085,2.599-0.025c-2.652-0.663-11.912,0.084-16.221,0.356
								c1.112,0.384-3.395,0.495,4.246,0.683c-2.507-0.239,6.433-0.886,13.702-0.594l-1.276,0.834l10.584,0.061l-0.99,0.042
								c3.983,0.521,11.291-0.143,18.58,0.146c5.259-0.314,25.444-0.149,16.755-0.986c6.545,0.495,12.28-0.186,19.416-0.322
								l-8.898-0.307c10.513-0.63,7.486-0.237,15.896-1.21c0.853,0.224,2.729,0.404,1.021,0.648
								c4.125-0.003,8.753,0.026,13.208-0.176l1.577-0.075l0.84-0.075c0.617-0.053,0.979-0.101,1.406-0.203
								c0.39-0.104,0.884-0.216,1.026-0.633c0.04-0.413-0.011-0.829-0.015-1.229c-0.037-1.021-0.073-2.011-0.107-2.954
								c-0.051-1.491-0.118-2.913-0.12-4.23c-0.04-2.643-0.113-4.922-0.233-6.679c0.281-10.069,1.354-11.62,1.585-25.594
								c0.009-2.937-0.869,2.249-0.239-6.953c0.092-0.62,0.249,8.892,0.595-1.362c-0.207-3.648,0.074-7.926,0.188-12.439
								c0.055-2.257,0.207-4.6,0.143-6.937c-0.04-2.341-0.127-4.706-0.31-7.042c0.072-2.475,0.047-6.132,0.097-8.76
								c0.109-2.617,0.24-4.365,0.479-3.441c-0.064,2.013-0.119,4.235-0.063,6.523c0.03,2.265,0.072,4.586,0.134,6.527
								c0.113,3.97,0.275,7.169,0.396,8.019c-0.292-1.088-0.365,5.608-0.527-0.202c-0.265,5.957-0.21,7.888-0.139,9.671
								c0.039,1.789,0.089,3.429-0.219,8.794c0.177,0.75,0.742-5.504,0.639-7.813c0.344-0.017,0.255,5.285,0.212,9.404
								c-0.081,4.133-0.092,7.074,0.531,2.292c0.271-5.767,0.027-9.5-0.125-13.041c-0.109-1.764-0.198-3.478-0.206-5.37
								c-0.016-1.892,0.095-3.968,0.198-6.436c0.28,1.975,0.248,4.529,0.268,7.216c0.021,2.687,0.095,5.507,0.348,8.061
								c0,0,0.034-0.512,0.086-1.279s0.126-1.792,0.165-2.812c0.094-2.043,0.188-4.086,0.188-4.086s-0.106-1.484-0.213-2.969
								c-0.088-1.485-0.252-2.96-0.252-2.96l0.108,0.351c0.089-3.596,0.073-6.229-0.009-8.35c-0.08-2.146-0.221-3.84-0.396-5.45
								c-0.09-0.81-0.179-1.607-0.273-2.453c-0.065-0.836-0.135-1.718-0.212-2.704c-0.135-1.977-0.247-4.388-0.285-7.594
								c-0.591,7.461-1.169-1.75-1.547,3.871c0.044-4.269,0.082-7.968,0.109-10.61c0.03-1.3,0.089-2.341,0.183-3.063
								c0.094-0.739,0.222-1.171,0.394-1.188c0.401,7.959,0.581,8.143,0.77,8.241c0.196,0.088,0.412-0.021,0.643,7.492
								c0.284-2.462,0.955,3.576,1.165-5.352c-0.069-2.521-0.191-3.573-0.281-3.913c-0.085-0.341-0.144,0.031-0.192,0.403
								c-0.1,0.746-0.167,1.489-0.353-3.444c0.053-0.585,0.106-1.193,0.212-0.852c-0.425-4.567,0.048-5.425-0.433-11.047
								l0.158,1.337c0.313-6.967-0.589-7.645-0.223-13.551c-0.476,2.373-0.479-3.965-0.854-7.618
								c-0.052,2.996-0.249,5.309-0.406,8.343c-0.078,1.526-0.146,3.196-0.182,5.291c-0.034,2.098-0.036,4.562,0.02,7.57
								c0.427,1.444,0.639,0.562,0.909,5.491l-0.168-7.81c0.092,1.685,0.216,2.966,0.32,4.508l-0.099,7.452
								c-0.429-9.392-0.798-5.097-1.279-9.11c0.045-8.706-0.22-7.25-0.17-12.608c0.302,0.267,0.492-3.853,0.639-9.28
								c0.151-5.406,0.218-12.293,0.326-17.264c0.019,1.55,0.044,3.55,0.058,4.629c0.501,7.233,0.407-5,0.565-5.27l-0.389-5.272
								c0.059,0.993,0.221,2.364,0.266,0.111c-0.235-7.143-0.816-6.721-1.052-13.859c0.317-0.536,0.919,5.492,1.013,1.055
								c0.13-0.765,0.362-2.366,0.507-4.958c0.198-2.589,0.362-6.167,0.26-10.896c-0.119-0.67-0.165-3.122-0.191-5.965
								c0.014,0.395,0.021,0.891,0.043,1.069l0.418-6.278c0.506,5.355-0.368,10.821,0.14,16.202l0.525,0.458
								c-0.096,4.183,0.263,9.87,0.585,12.48c-0.01-3.19-0.057-5.121-0.129-7.146c-0.022-2.024-0.046-4.144-0.086-7.71
								c0.345-0.997,0.545,4.026,0.574,4.749l-0.292-1.064c-0.304,4.252-0.049,7.434,0.164,10.873
								c0.229,3.439,0.506,7.135,0.549,12.428c0.007,1.598-0.05,0.624-0.156,0.27c0.659,8.559,0.117,16.985,0.91,25.292
								l-0.319-2.708c0.34,5.66,1.006,16.729,1.67,27.791l0.208,0.081c0.105-1.245,0.161,2.946,0.109,5.198l-0.003-0.012
								c0.201,2.805,0.196,5.523,0.295,8.114c0.068,2.568,0.134,4.988,0.191,7.166c0.148-1.391,0.282-3.168,0.343-5.207
								c-0.108-0.856-0.074-3.859-0.085-6.457c0.01-2.595-0.181-4.834-0.423-4.119c0.262-4.801-0.329-12.28-0.172-15.745
								c-0.259,6.281-0.585-4.36-0.905-5.464c0.315-2.122-0.167-9.343,0.313-8.526c0.103-1.247-0.264,3.104,0.058,5.783
								c0.534,6.609,0.2-12.115,0.738-3.882c-0.474-10.514-0.591-24.194-1.203-34.96l-0.087,6.025
								c-0.015-4.784-0.316-16.103-0.105-16.949c0.104,3.553,0.225,7.704,0.356,12.25c0.531,0.213-0.193-10.92,0.123-11.428
								c0,0-0.068-0.825-0.171-2.062c-0.07-1.239-0.163-2.891-0.257-4.542c-0.186-3.304-0.372-6.609-0.372-6.609l-0.086,5.789
								c-0.284-3.647,0.22-15.75,0.381-24.719c0.672,5.155-0.112,13.533,0.085,22.973c0.208,6.854,0.738-4.23,0.848,2.255
								c0.185-1.681,0.206-5.912,0.045-8l0.155-2.557c0.301,2.895,0.383,7.583,0.449,12.626c0.004,2.524,0.127,5.128,0.246,7.642
								c0.12,2.514,0.259,4.937,0.438,7.088c-0.084-0.754-0.169-1.413-0.25-1.651c-0.139,6.634-0.011,13.374,0.276,19.834
								c0.146-3.426-0.018-4.775-0.127-6.728c0.157-0.247,0.334,5.854,0.554,8.157c0.087-6.018,0.367-1.133,0.409-4.939
								c0.224,3.916,0.236,7.065,0.246,11.866c-0.21,2.515-0.373-2.063-0.69-1.53c0.272,4.955-0.471,7.25,0.014,14.506
								c-0.005-4.833,0.182-4.201,0.402-1.94c0.111,1.13,0.23,2.668,0.338,4.132c0.108,1.44,0.211,2.809,0.272,3.629l-0.001-1.595
								c0.427,3.015,0.48,5.569,0.163,7.664c-0.214-3.893-0.163-7.665-0.534-6.553c0.056,2.575,0.111,5.143,0.271,8.056
								l-0.319-2.645l0.274,12.945c0.411,2.108,0.799,5.537,1.285,7.357c-0.179,1.578-0.219,3.397-0.206,5.21
								c0.015,1.811,0.066,3.613,0.169,5.019l-0.162-1.322c-0.053,1.379-0.065,3.181-0.051,5.125
								c0.017,0.998,0.033,2.033,0.051,3.068c0.031,1.057,0.062,2.113,0.092,3.133c0.069,2.04,0.158,3.935,0.242,5.386
								c0.043,1.445,0.103,2.45,0.175,2.722c-0.08,1.03-0.218-0.277-0.381-2.358c-0.201-2.087-0.499-4.955-0.739-7.03
								c-0.246-2.077-0.46-3.365-0.56-2.318c-0.05,0.524-0.071,1.632-0.054,3.518c-0.012,1.883,0.143,4.559,0.089,8.18
								c-0.126,11.029,0.863,6.889,1.015,13.184c0,0-0.087-0.357-0.171,0.264c-0.223,4.816,0.103,5.301,0.089,9.247
								c0.28-2.86,0.455-7.032,0.349-8.394c0.384,1.481-0.443,9.995-0.284,13.675c-0.414-4.767-0.641,9.198-0.799,5.507
								c-0.431,4.739-0.526,9.601-0.549,13.928c0.089,4.3,0.245,8.047,0.492,10.498c-0.114,1.101-0.18,2.155-0.21,3.201
								l-0.014,0.921l0.005,1.302c0.013,0.867,0.026,1.739,0.039,2.623c-0.109,0.745-0.221,1.499-0.333,2.269
								c-0.056,0.386-0.11,0.776-0.167,1.17l-0.084,0.597c-0.04,0.19-0.123,0.346-0.183,0.522c-0.089,0.175-0.172,0.353-0.271,0.528
								l-0.353,0.523c-0.286,0.31-0.568,0.639-0.907,0.891c-0.165,0.133-0.323,0.278-0.498,0.404l-0.557,0.338l-0.566,0.344
								c-0.201,0.103-0.423,0.182-0.636,0.274c-0.438,0.173-0.86,0.379-1.333,0.531c-0.492,0.125-0.994,0.252-1.505,0.382
								c-0.257,0.063-0.516,0.129-0.777,0.194c-0.26,0.058-0.518,0.068-0.78,0.104c-0.525,0.06-1.061,0.121-1.607,0.184
								c-0.548,0.06-1.105,0.12-1.676,0.183c-0.283,0.029-0.57,0.06-0.859,0.09c-0.201,0.007-0.405,0.014-0.61,0.021
								c-0.822,0.021-1.681,0.041-2.577,0.063c0.866-0.035,1.983-0.099,3.352-0.204c0.913-0.107,1.856-0.22,2.783-0.329
								c0.93-0.117,1.834-0.147,2.714-0.393c1.115-0.341,1.692-0.511,1.829-0.646c0.15-0.116-0.034-0.046-0.484,0.056
								c-0.463,0.084-1.169,0.232-1.976,0.408c-0.806,0.167-1.691,0.184-2.548,0.287c-0.853,0.078-1.667,0.154-2.305,0.213
								c-0.568,0.037-0.812,0.011-0.939-0.002c-0.102-0.02,0.022-0.056,0.47-0.115c0.602-0.091,1.635-0.247,3.234-0.488
								c-1.403,0.196-1.449,0.268-0.766,0.237c0.342-0.016,0.865-0.056,1.485-0.118c0.312-0.035,0.645-0.06,0.994-0.118
								c0.352-0.09,0.718-0.183,1.089-0.277c2.62-0.613,4.735-1.81,5.624-3.291c0.426-0.727,0.479-1.285,0.464-1.681
								c-0.001-0.364-0.046-0.447-0.136-0.171c0,0-0.03,0.181-0.083,0.496c-0.082,0.284-0.222,0.675-0.557,1.135
								c-0.667,0.938-1.95,1.693-3.355,2.171c-0.354,0.116-0.709,0.233-1.059,0.349c-0.366,0.086-0.74,0.147-1.094,0.219
								c-0.71,0.135-1.372,0.284-1.924,0.293c-1.106,0.081-1.844,0.135-1.844,0.135s1.006-0.141,2.013-0.281
								c0.498-0.041,1.009-0.228,1.385-0.308c0.378-0.097,0.629-0.161,0.629-0.161s-0.281,0.054-0.773,0.147
								c-0.245,0.047-0.543,0.103-0.884,0.168c-0.336,0.025-0.716,0.054-1.129,0.085c-0.819,0.061-1.774,0.133-2.798,0.209
								l-0.375,0.025l-0.301,0.001c-0.202,0.001-0.406,0.002-0.612,0.003c-0.412,0.002-0.831,0.003-1.249,0.005
								c-3.344,0.009-6.596-0.125-6.595-0.126c-0.352,0.102,0.867,0.219,1.501,0.266c-15.084-0.147-32.219,0.202-45.395,0.183
								c-2.464,1.405-32.401,0.712-43.034,1.607c2.85-0.412,4.406-1.124,2.64-1.409c2.372-0.066,7.226-0.648,12.604-0.55
								c0.86,0.222,7.505,0.452,3.23,0.724c14.865-0.211-2.015-0.605,2.37-1.141c-16.47,0.193-26.127,1.045-36.522,1.411
								l-0.264-0.164l-7.85,0.34c6.415,0.07,6.101,0.863-2.169,0.614l1.006-0.042c-4.718-0.316-14.529,0.109-21.896,0.084
								l-4.994,0.475c-7.379-0.026-7.698-0.877-10.098-1.38c-11.565-0.02-18.242,0.703-26.457,1.147
								c-3.715-0.359-21.038-0.387-11.86-0.87c-10.431,0.364-8.326,2.35-26.218,1.309l4.644-0.375
								c-8.553,0.106-18.929,0.236-28.152,0.353c-9.223,0.095-17.292,0.139-21.233-0.069c6.313-1.258-21.363-1.417-24.4-2.695
								c0.846,0.293-5.581,0.357-6.518,0.507c-1.408-0.155-3.752-0.311-6.241-0.063c6.67,0.287-4.694,1.288,8.061,0.842
								c-6.457,0.834-14.774,1.47-28.913,1.357l0.215-0.526l11.186,0.215c-1.128-0.394,4.629-0.336,6.99-0.504
								c-20.808-0.399,2.729-1.221-18.544-1.257c-2.056,0.331-0.725,0.197-6.254,0.305c2.6-0.005,3.07-0.365-1.12-0.394
								l-4.026,0.401c-7.424-0.915,12.299-0.512,5.964-1.16c8.216-0.374,22.442-0.524,19.795-1.211
								c-13.412-0.31-12.072,1.201-26.096,0.826l-1.492-0.294c-4.934,0.171-5.733,0.631-8.435,0.897
								c-0.243-0.164-1.496-0.292-4.665-0.354c-8.333,0.636-13.863,0.741-21.552,1.442c20.456-0.453,17.482,0.602,38.595,0.212
								c-3.309,0.202-18.172,0.289-19.089,1.013l0.2-0.527c-6.866,0.24-13.728,0.479-22.348,0.262l5.264-0.271
								c-11.429,0.311-18.989-0.895-28.011-0.062c3.184,0.063,5.769,0.06,7.735-0.011c-5.883,0.206-13.262,0.116-19.653-0.004
								l-13.232,0.806c0.118-0.262-8.263-0.318-4.216-0.717c-9.519-0.448-14.014,0.315-19.518,0.419
								c-9.746-0.608,8.449-0.208,9.412-0.932c-3.358-0.078-6.767-0.127-10.109-0.149c-1.681-0.007-3.329-0.026-4.875-0.003
								c-1.619,0.034-3.207,0.067-4.749,0.101c-6.276,0.147-11.809,0.277-15.661,0.368c2.812,0.211,4.162,0.31,4.019,0.439
								c-0.411-0.165-5.935-0.246-9.135-0.54c0,0-0.139,0.01-0.348,0.023c-0.105,0.008-0.227,0.016-0.357,0.024
								c-0.19,0.002-0.393,0.003-0.595,0.005c-0.849,0.005-1.716-0.021-1.716-0.021c-4.078-0.651-5.416-1.49-5.24-1.507
								c0.175-0.056,1.994,0.535,5.352,0.822c-2.563-0.361-5.351-0.836-7.511-2.159c-0.536-0.336-1.053-0.71-1.492-1.21
								c-0.218-0.244-0.427-0.528-0.555-0.811c-0.141-0.249-0.122-0.603-0.179-0.908c-0.154-1.274-0.309-2.549-0.462-3.813
								c0.252-2.439,0.618-5.448,0.88-6.491c-0.041,1.089-0.306,4.028-0.527,6.396c0.128,1.21,0.257,2.429,0.385,3.646
								c-0.12,1.261,1.01,2.271,1.95,2.911c1.983,1.344,4.596,1.914,7.056,2.265c0.617,0.088,1.228,0.159,1.827,0.224
								c0.5,0.046,0.988,0.092,1.465,0.137c0.781,0.063,1.518,0.111,2.203,0.147c1.369,0.069,2.535,0.092,3.434,0.072
								c-2.271-0.04-4.269-0.142-6.092-0.31c-0.304-0.03-0.603-0.061-0.898-0.09c-0.321-0.037-0.638-0.074-0.95-0.11
								c-0.623-0.078-1.226-0.165-1.805-0.268c-1.16-0.201-2.23-0.455-3.191-0.779c-0.963-0.322-1.81-0.717-2.546-1.193
								c-0.728-0.479-1.405-1.018-1.863-1.789c-0.115-0.189-0.188-0.39-0.234-0.572c-0.028-0.203-0.026-0.423-0.04-0.633
								l-0.059-1.267c-0.035-0.837-0.069-1.677-0.104-2.534c0.232-1.664,0.472-3.391,0.734-5.272
								c0.192-1.322,0.389-2.757,0.591-4.37c0.202-1.614,0.409-3.407,0.622-5.448c0.178-2.045,0.329-4.342,0.494-6.951
								c0.185-0.252,0.204,3.426,0.548-0.727c0.663-9.632-0.498-2.569-0.631-5.602c-0.419,7.41-0.829,10.848-1.723,15.082
								l-0.066-1.993c0.182-0.283,0.56-4.925,0.814-6.28l-0.467-1.242c0.29,0.302,0.706-1.393,1.081-3.897
								c0.364-2.506,0.741-5.816,0.765-8.754c-0.388,2.943-0.599,4.01-0.784,4.539c-0.184,0.529-0.356,0.52-0.778,1.295
								c0.03-4.12,0.254-6.433,0.583-8.862c0.305-2.432,0.613-4.992,0.527-9.616c0.161,0.699-0.165,8.753,0.4,1.81
								c0.383-5.753-0.225-5.015-0.204-8.883c0.331,4.373,0.837,3.278,1.17,8.024c-0.54,10.241-0.251,4.128-0.615,14.151
								l0.942-8.446c-0.428,8.686,0.224,6.354,0.381,7.082c0.704-7.403,0.671-10.214,0.55-12.359
								c-0.108-2.146-0.334-3.633-0.092-8.407c-0.181-4.619-0.421,8.943-0.518,1.725c0.421-8.926-0.263-2.052-0.102-12.076
								l0.175,1.686c0.454-3.052,0.1-6.098,0.127-9.645c-0.086-3.901-1.889,4.369-1.631-11.645c0.142,0.787,0.233,1.076,0.294,1.077
								l4.069,15.745c0.435-16.295,0.594-35.084,0.575-53.979c0.379-2.232,0.64,1.136,0.812,4.918
								c0.151,3.783,0.248,7.979,0.436,7.399l-0.1,8.623c-0.368-0.482-0.272-18.06-0.846-10.27
								c0.099,3.804,0.151,7.088,0.187,10.101c-0.007,3.013-0.013,5.754-0.019,8.47c-0.001,2.717,0.012,5.408,0.069,8.324
								c0.035,2.916,0.068,6.055,0.187,9.668c0.451-2.233,0.59-6.99,0.528-12.361c-0.052-5.371-0.066-11.353,0.226-16.053
								c-0.012,3.946,0.022,7.277,0.144,10.513c0.078-4.413,0.168-8.981,0.162-13.702c0.004-4.72,0.07-9.594,0.028-14.615
								l-0.253-2.253c0.065,6.769-0.03,11.452-0.037,12.056c0.037-8.976-0.681-16.532-1.296-17.113l0.009,1.593l-0.261-3.235
								C12.744,172.557,12.739,170.452,12.735,168.36z M446.018,8.952c-0.545,0.062-0.974,0.134-1.291,0.223
								C445.055,9.082,444.688,9.023,446.018,8.952z M44.75,308.809c-6.041-0.033-12.001,0.056-17.927-0.124
								c-2.956-0.085-5.893-0.213-8.769-0.462l-1.071-0.1l-0.889-0.1c-0.59-0.07-1.175-0.151-1.756-0.249
								c-1.148-0.214-2.328-0.409-3.33-1.002c0.832,0.596,1.829,0.853,2.798,1.116c0.979,0.248,1.972,0.438,2.959,0.604
								c2.203,0.351,4.361,0.594,6.207,0.793c3.719,0.393,6.406,0.625,7.36,0.828c0.955,0.193,0.182,0.359-3.003,0.423
								c-1.592,0.025-3.788,0.028-6.672-0.091c-0.721-0.039-1.486-0.08-2.294-0.124c-0.808-0.055-1.647-0.119-2.623-0.222
								c-1.893-0.228-4.038-0.443-6.114-1.335c0,0-0.142-0.053-0.34-0.158c-0.202-0.099-0.463-0.254-0.686-0.458
								c-0.226-0.199-0.38-0.477-0.399-0.692c-0.024-0.212,0.004-0.362-0.003-0.36c-0.052,0.299-0.032,0.625,0.173,0.896
								c0.188,0.271,0.46,0.48,0.753,0.663c0.593,0.359,1.291,0.616,2.045,0.84c1.515,0.44,3.29,0.701,5.165,0.895
								c3.53,0.353,7.283,0.455,10.982,0.47c2.987-0.157,9.263-0.708,14.766-1.268c2.76-0.242,5.328-0.468,7.193-0.631
								c1.862-0.17,3.022-0.292,2.971-0.328c-2.111-0.356-5.151,0.002-9.019-0.114L44.75,308.809z M53.238,310.934
								c6.781,0.172,5.239-0.111,6.294-0.354c-2.387,0.021-4.771,0.04-7.127,0.059C53.306,310.705,53.75,310.795,53.238,310.934z
								 M59.128,310.329c-0.762-0.009-1.412-0.024-1.752-0.059L59.128,310.329z M14.04,226.523c0,0.302,0,0.41,0.001,0.696
								c0.051-1.602,0.104-3.206,0.157-4.881C14.146,222.988,14.089,224.226,14.04,226.523z M13.112,240.266l0.392,1.623
								c0.067-1.492,0.167-3.014,0.214-4.572C13.505,237.825,13.311,238.357,13.112,240.266z M9.051,284.271
								c0.138,1.407,0.099,4.443-0.065,7.189c-0.141,2.749-0.242,5.227,0.041,5.544c0.097,0.609,0.368-1.337,0.654-3.522
								c0.139-1.222,0.282-2.484,0.43-3.787c0.116-1.307,0.236-2.653,0.359-4.04c-0.083-0.104-0.123-0.663-0.129-1.59
								c-0.303,2.731-0.609,4.546-0.903,3.402c1.417-6.965-0.081-6.355,0.758-13.937C9.951,271.081,9.063,281.952,9.051,284.271z
								 M505.503,239.012c0.056-0.217,0.212-0.964,0.393-2.015l0.249,5.399c-0.243,9.635-1.558,17.278-1.147,25.953
								c-0.372,4.032-0.88,6.179-1.31,8.232c0.111-1.978,0.226-3.828,0.346-5.368c-0.034-12.135,0.402-15.273,0.818-17.839
								C505.265,250.812,505.811,248.822,505.503,239.012z M462.41,309.688c0.99-0.042,1.346-0.146,1.346-0.146
								c-21.455,1.229-39.127,1.626-50.698,1.621c2.246,0.45,12.628,0.768,17.558,0.94l-4.365,0.537l-2.729-0.4l-7.581,0.5
								c2.122,0.344,8.247,0.249,12.342,0.505c0.355-0.102,13.46-0.756,17.122-1.09l-10.476-0.323
								c2.829,0.136,16.722-0.033,22.23-0.186c0.106-0.263-9.391-0.633-10.582-0.061c-1.133-0.384,9.813-0.426,2.889-0.817
								c8.199-0.443,21.25-0.143,27.307,0.028l1.029,0.648c6.647,0.215,4.476-0.757,12.389-0.525
								c-9.724,0.288,1.653,0.715-6.083,0.857c1.236,0.11,1.251,0.282,1.926,0.411c0.674,0.13,2.007,0.226,5.919,0.09
								c0.815-0.147,1.556-0.257,2.238-0.336c0.724-0.075,1.385-0.144,2.005-0.208c0.679-0.071,1.315-0.12,1.936-0.158
								c0.312-0.017,0.617-0.033,0.92-0.05c0.305-0.027,0.608-0.08,0.913-0.119c0.606-0.086,1.23-0.149,1.817-0.332
								c0.298-0.082,0.607-0.154,0.908-0.257c0.289-0.126,0.583-0.255,0.887-0.388c0.556-0.326,1.202-0.702,1.531-1.428
								c0.3-0.691,0.166-1.564,0.162-2.492c0.237-2.042,0.316-1.283,0.361-0.539c0.051,0.734,0.073,1.44,0.328-0.961
								c-0.001-0.659-0.004-1.593-0.007-2.831c-0.041-0.616-0.08-1.191-0.116-1.729c-0.039-0.495-0.074-0.956-0.107-1.385
								c-0.076-0.856-0.141-1.585-0.195-2.205c-0.089-1.242-0.182-2.05-0.283-2.591c-0.203-1.082-0.441-1.094-0.752-1.38
								c-0.048,1.465-0.06,2.711-0.046,3.805c0.026,1.093,0.109,2.031,0.182,2.887c0.089,0.874,0.17,1.663,0.249,2.436
								c0.083,0.908,0.165,1.797,0.252,2.746c0.013,0.834,0.006,1.73-0.027,2.736c-0.008,0.512-0.032,1.013-0.339,1.503
								c-0.13,0.258-0.365,0.438-0.582,0.648c-0.241,0.175-0.508,0.333-0.781,0.495l0.6-0.439c0.193-0.153,0.354-0.359,0.521-0.543
								c0.294-0.434,0.397-0.928,0.388-1.432c-0.021-1.018-0.041-2.035,0.073-3.013l-0.25-2.569l-0.244-2.232
								c-0.157-1.443-0.344-2.888-0.439-4.336c-0.195,2.568-0.108,4.468-0.056,6.062c-0.122-2.797-0.331-5.176-0.497-7.215
								c-0.101-1.163-0.193-2.235-0.279-3.227c-0.013,2.618-0.116,5.138-0.061,7.38c0.012,1.121,0.022,2.172,0.032,3.13
								c0,0.92-0.001,1.751-0.001,2.472c-0.021,1.523-0.041,2.517-0.155,2.848c0,0-0.062-0.308-0.149-0.604
								c-0.081-0.292-0.163-0.584-0.163-0.584c-0.025,0.299-0.052,0.619-0.08,0.956c-0.069,0.339-0.286,0.66-0.6,0.879
								c-0.631,0.427-1.402,0.66-2.143,0.848c-1.473,0.386-2.97,0.588-3.936,0.798c-3.408,0.278-7.003,0.457-9.828,0.545
								c-2.844,0.098-5.002,0.096-5.776-0.094l2.687-0.288C474.337,309.605,473.366,309.646,462.41,309.688z M176.913,309.258
								c5.272,1.143,11.087,2.158,35.716,2.085l-1.938,0.067c12.409,0.763,24.201-0.808,39.299,0.046
								c-7.328,0.385-6.934,0.349-15.025,1.271l7.862-0.277c-2.179,0.597,5.664,0.321,11.432,0.379l-5.093,0.698
								c-3.462-0.226-12.438-0.345-12.175-0.179c1.965-0.07-11.849-0.972-19.355-0.799c0.772,0.494,16.62,0.374,9.542,1.14
								c6.238-0.305,7.011,0.188,13.53,0.048c-6.253,0.305-1.549,0.66-6.204,0.994l10.691-0.114
								c0.278,0.165-15.57,0.286-6.812,0.932c4.284-0.235,15.721,0.144,15.927-0.383l0.263,0.163
								c8.013,0.14,3.525-0.697,13.365-0.412c0.116-0.271-1.761-0.431-5.285-0.388c-2.979,0.103-3.437,0.463-9.573,0.507
								c-2.75-0.427,7.402,0.088,3.142-0.631c-2.116-0.357-16.2,0.22-11.711-0.542l7.997,0.152c0.206-0.527,5.998-0.468,5.835-0.895
								c4.89-0.154,9.506,0.418,14.501-0.062c2.073-0.349-1.548-0.971,6.716-0.723c6.457,0.759,25.485,0.54,32.611,0.403
								l6.236-0.358c-0.53-0.322-11.916,0.085-7.912-0.35l9.727-0.161l-0.751,0.206c3.223,0.033,6.52-0.196,9.459-0.322
								c-3.028,0.391-10.039,0.263-8.646,0.808c4.565,0.093,5.263,0.294,9.464,0.174c-0.917,0.042-1.706,0.099-1.59,0.176
								c9.243,0.206,8.925-0.646,11.241-0.833c9.291-0.749-9.367-0.632-8.181-1.202l27.13-0.397
								c-2.316,0.187-4.649,0.372-3.774,0.595c6.655,0.231,0.152,0.427,9.495,0.367c-0.667-0.749,11.764-0.51,18.362-0.967
								c3.084,0.297,3.719,0.356-3.024,0.389c0.775,0.486,9.828,0.267,13.047,0.3c1.864-0.128,5.044-0.21,7.06-0.325
								c-2.702-0.234-1.551-0.544,4.294-0.772l0.34-0.104c-9.583-0.101-24.479-0.581-30.484-0.061l1.697-0.248
								c-11.092-0.383-24.134,0.961-29.25,0.057c0.471-0.366-2.229-0.075-2.036-0.604l-8.166,0.44l1.698-0.245l-13.892,0.168
								l0.367-0.101c-6.602,0.516-11.773,0.919-15.905,1.241c-0.016,0.23,0.414,0.3-1.787,0.477
								c-2.209,0.122-3.884,0.146-5.378,0.12c-0.011,0.001-0.011,0.001-0.011,0.003v-0.003c-3.409-0.056-5.68-0.378-9.878-0.498
								l12.918-0.102c1.052-0.395-0.047-0.796-6.376-1.047c2.588-0.023,3.671-0.332,0.468-0.366
								c-0.353,0.104-8.464,0.279-5.373,0.58c-6.136,0.093-14.17-0.101-22.998-0.215c-8.829-0.095-18.452-0.281-27.768,0.064
								c13.385-0.38-10.726-0.576,4.133-0.663c-10.37-0.676-8.925,0.571-19.498,0.421c-0.901-0.229,5.756,0.059,8.187-0.373
								c-17.577-0.337-29.662,0.863-46.667,0.59l-0.726-0.491C184.206,309.153,180.631,309.204,176.913,309.258z M143.27,309.698
								c-3.273,0.039-6.593,0.079-9.966,0.119c0.329,0.007,0.634,0.013,0.979,0.02l-9.836,0.344c6.042,0.22,10.02,0.775,1.561,0.983
								c0.713-0.198-1.757-0.458,1.184-0.562c-5.666-0.32-18.098-0.665-14.861,0.088c10.895-0.643,2.532,0.95,11.093,0.476
								c-4.595,0.458-9.144,0.219-13.482,0.412c4.518-0.379-1.046-0.915-7.827-1.14c-2.953,0.104-10.94-0.049-15.848,0.121
								c1.745,0.459-2.528,0.695,5.464,0.848c-2.934,0.104-7.472,0.176-12.554-0.081c2.016-0.067,5.541-0.105,5.299-0.27
								c-3.278-0.431-7.12-0.431-9.238-0.618c-1.69,0.016-3.397,0.031-5.057,0.047c0.495,0.042,0.924,0.095,1.229,0.161
								l-5.621,0.369c7.484-0.175,3.457,0.226,3.358,0.488c0.206-0.526-4.816-0.092-7.377-0.087l5.559,0.584
								c-2.691,0.266-9.491-0.449-8.091,0.109c11.802,0.279,16.342,0.207,27.018,0.094l-4.33-0.454
								c12.046-0.247,7.423,0.778,20.937,0.825c5.621-0.368,20.324,0.072,20.607-0.718c-1.696,0.233,8.411,0.746,13.044,0.41
								c5.123-0.698,20.602-0.719,15.915-1.072c-4.182-0.029-9.813,0.34-13.173-0.147l8.114-0.11l-5.321-0.421
								C144.797,310.672,144.532,310.285,143.27,309.698z M17.97,261.231c0.008-0.089,0.019-0.206,0.029-0.314
								c-0.008,0.12-0.016,0.237-0.023,0.35L17.97,261.231z"/>
							<path fill="#FFFFFF" d="M502.643,118.931c-0.157-2.334-0.072-8.106-0.471-6.979
								C502.6,111.816,502.137,122.266,502.643,118.931z"/>
							<path fill="#FFFFFF" d="M503.126,112.033c-0.098-0.407-0.264-0.125-0.254-2.715l0.04,7.13L503.126,112.033z"/>
							<path fill="#FFFFFF" d="M506.108,104.83c-0.282-3.675-0.439-6.005-0.354-11.769c1.061-2.149,0.199,9.44,1.144,12.063
								c0.196-10.556-0.685-13.813-0.632-22.515C505.739,86.917,505.314,104.506,506.108,104.83z"/>
							<polygon fill="#FFFFFF" points="507.376,109.533 507.198,103.659 507.132,104.238 507.31,110.116 							"/>
							<path fill="#FFFFFF" d="M499.492,236.858c-0.315,0.52-0.052,4.129,0.006,6.066
								C499.535,241.353,499.66,239.146,499.492,236.858z"/>
							<path fill="#FFFFFF" d="M313.771,16.088l44.872-0.45C345.732,15.768,333.813,15.888,313.771,16.088z"/>
							<path fill="#FFFFFF" d="M426.166,307.018c12.04-0.348,17.386-0.927,29.654-1.112c-16.138-0.598-21.303,1.097-34.853,0.474
								L426.166,307.018z"/>
							<path fill="#FFFFFF" d="M430.398,304.411c1.999,0.605-9.286,0.75-7.536,1.192c8.114-0.178,3.776-0.597,11.141-0.569
								L430.398,304.411z"/>
							<polygon fill="#FFFFFF" points="485.046,314.327 481.389,314.666 484.331,314.537 							"/>
							<polygon fill="#FFFFFF" points="375.524,305.146 376.854,305.004 370.816,304.831 							"/>
							<path fill="#FFFFFF" d="M378.185,304.858l-1.33,0.146L378.185,304.858z"/>
							<path fill="#FFFFFF" d="M480.355,315.663l5.447,0.1l2.717-0.317c0,0-2.052,0.063-4.104,0.126
								C482.385,315.617,480.355,315.663,480.355,315.663z"/>
							<path fill="#FFFFFF" d="M432.421,312.548l4.854-0.213C436.313,312.377,429.668,312.148,432.421,312.548z"/>
							<polygon fill="#FFFFFF" points="338.651,305.016 332.746,305.271 333.35,305.329 339.235,305.074 							"/>
							<path fill="#FFFFFF" d="M394.419,314.368c3.357,0.458-9.688,0.16-2.783,0.553
								C397.776,314.826,395.283,314.59,394.419,314.368z"/>
							<path fill="#FFFFFF" d="M323.124,311.428c-0.797,0.003-1.637,0.022-2.444,0.077
								C321.643,311.475,322.451,311.449,323.124,311.428z"/>
							<path fill="#FFFFFF" d="M323.124,311.428c2.573-0.009,5.146,0.162,6.91,0.02C326.826,311.246,325.658,311.33,323.124,311.428
								z"/>
							<path fill="#FFFFFF" d="M293.648,311.64l2.333,0.026c-2.384,0.24-1.254,0.202,0.874,0.008
								c2.472-0.024,2.333-0.173,2.627-0.275c0.494-0.062,0.986-0.122,1.521-0.188c-0.763,0.066-1.447,0.126-2.027,0.177
								C295.146,311.396,292.809,311.428,293.648,311.64z"/>
							<path fill="#FFFFFF" d="M184.181,303.422c8.612,0.219,10.84,0.313,10.371,0.677c8.176,0.156,6.909-0.479,11.841-0.6
								C197.141,303.523,195.25,303.346,184.181,303.422z"/>
							<path fill="#FFFFFF" d="M206.393,303.499c1.037-0.005,2.027-0.009,3.229-0.014
								C208.276,303.468,207.278,303.478,206.393,303.499z"/>
							<polygon fill="#FFFFFF" points="328.106,315.512 322.752,316.089 324.718,316.004 							"/>
							<path fill="#FFFFFF" d="M171.4,303.176c1.597,0.03,4.157,0.027,5.414,0.158C177.275,302.97,169.806,303.146,171.4,303.176z"
								/>
							<path fill="#FFFFFF" d="M204.596,310.498c0.874,0.228,6.387,0.121,8.63,0.219
								C210.008,310.653,207.387,309.967,204.596,310.498z"/>
							<path fill="#FFFFFF" d="M146.682,304.56c1.597,0.031,4.052,0.289,2.987,0.586
								C151.991,304.978,155.134,304.349,146.682,304.56z"/>
							<polygon fill="#FFFFFF" points="188.851,310.354 190.081,310.484 195.978,310.279 							"/>
							<path fill="#FFFFFF" d="M209.866,315.851c6.633-0.403-10.518-1.104,0.906-1.416c-14.733-0.528,1.128,0.623-9.741,0.498
								C207.395,315.111,210.512,315.678,209.866,315.851z"/>
							<path fill="#FFFFFF" d="M201.031,314.933c-0.925-0.016-1.927-0.033-3.014-0.052
								C199.22,314.901,200.191,314.918,201.031,314.933z"/>
							<path fill="#FFFFFF" d="M107.711,311.714c0.964-0.041,1.622-0.087,2.229-0.136
								C109.182,311.61,108.458,311.651,107.711,311.714z"/>
							<path fill="#FFFFFF" d="M166.318,315.121l9.943-0.605c-6.641,0.403-23.345,0.294-22.308,0.95
								c5.409,0.159,11.918,0.019,14.593-0.25L166.318,315.121z"/>
							<path fill="#FFFFFF" d="M52.325,302.747l4.295-0.236l-5.36-0.103C52.795,302.513,50.014,302.978,52.325,302.747z"/>
							<path fill="#FFFFFF" d="M50.224,302.389l1.036,0.02C51.032,302.391,50.704,302.383,50.224,302.389z"/>
							<path fill="#FFFFFF" d="M126.512,311.492c3.211,0.062,5.78,0.057,8.709-0.045
								C134.007,311.318,126.007,311.164,126.512,311.492z"/>
							<path fill="#FFFFFF" d="M22.292,303.577c0,0,1.709,0.026,3.418,0.053c1.728-0.002,3.455-0.004,3.455-0.004
								s-1.883-0.018-3.767-0.035c-1.876-0.03-3.721-0.104-3.721-0.104L22.292,303.577z"/>
							<polygon fill="#FFFFFF" points="18.205,288.831 18.428,287.61 18.681,281.673 18.456,282.913 							"/>
							<path fill="#FFFFFF" d="M32.207,315.459c4.875,0.062,8.615-0.594,7.355-0.695c0,0-2.342,0.029-4.685,0.06
								c-2.356,0.009-4.712,0.018-4.712,0.018c2.396,0.516,2.629,0.004,8.064,0.078L32.207,315.459z"/>
							<path fill="#FFFFFF" d="M15.597,42.68c0.373,2.063,0.495,12.226,0.197,12.771c-0.186-1.361-0.502-6.866-0.595-3.399
								l1.104,8.013c-0.166,10.712-1.383-8.091-1.829-13.366c0.241,10.902,0.866,14.109,1.31,25.708
								C15.73,68.982,15.853,66.812,15.97,65c0.57-0.416,0.723,10.398,1.063,18.121c0.07-4.928,0.389-2.093,0.767,1.482
								c0.045,0.645,0.096,1.072,0.148,1.375c0.045,0.416,0.088,0.809,0.132,1.213l-0.039-0.927
								c0.069,0.063,0.141-0.145,0.223-0.818c-0.434-6.478-0.117-11.448-0.271-15.621c-0.827,4.153-0.728-14.191-1.18-19.419
								l-0.265-6.044l-0.06-2.262c0.094-0.458,0.243,0.183,0.521,3.625c-0.263-2.873-0.441-12.471-0.727-11.578
								c0,0-0.009-0.342-0.024-0.941c-0.008-0.299-0.017-0.663-0.028-1.08c-0.005-0.208-0.011-0.431-0.017-0.665
								c-0.003-0.117-0.006-0.237-0.009-0.36c0-0.093,0.01-0.065,0.012-0.104c-0.02-0.22,0.031-0.31,0.111-0.521
								c0.088-0.201,0.304-0.556,0.759-1.016c0.905-0.938,2.733-2.018,4.206-2.696c1.485-0.7,2.618-1.1,2.617-1.1
								c0.548-0.179,1.144-0.316,1.58-0.396c0.604-0.276,0.708-0.351,0.605-0.372c0,0,1.247-0.421,3.561-1.041
								c2.313-0.618,5.732-1.385,9.958-2.109c8.455-1.458,20.143-2.599,31.94-3.262c11.798-0.683,23.692-0.98,32.623-1.141
								c8.941-0.115,14.903-0.192,14.903-0.192c-4.71-0.038-8.784-0.211-13.635-0.24c7.267-0.762-7.953,0.02-5.828-0.612
								c3.266-0.288,8.059-0.297,10.916-0.185c1.06-0.319-3.013-0.533-2.548-0.904c-12.045-0.176-13.854,1.31-25.573,1.509
								c0.45-0.375,4.057-0.856-3.607-0.483l1.945-0.162c-6.128,0.467-8.518,0.414-10.345,0.384
								c-1.823-0.022-3.083-0.009-6.886,0.765l0.164-0.54c-2.753,0.403-6.812,0.832-10.911,1.322
								c-4.1,0.483-8.233,1.043-11.177,1.542l0.337-0.154c-4.12,0.79-6.701,1.391-8.568,1.845c-1.85,0.462-3.02,0.754-4.25,1.061
								c-1.207,0.324-2.488,0.648-4.441,1.319c-0.983,0.326-2.113,0.763-3.434,1.348c-1.293,0.595-2.794,1.374-4.161,2.406
								c0,0,0.311-0.261,0.776-0.653c0.262-0.192,0.567-0.417,0.894-0.657c0.36-0.231,0.744-0.479,1.128-0.725
								c1.588-0.979,3.452-1.807,3.451-1.808c-2.856,0.941-4.352,1.859-5.482,2.71c-0.56,0.429-1.032,0.848-1.476,1.282
								c-0.447,0.432-0.865,0.883-1.238,1.354c0.008-0.101-0.145-0.093-0.144-0.309c0.055-0.21,0.16-0.676,1.41-1.736
								c0,0-0.195,0.175-0.537,0.481c-0.146,0.155-0.322,0.342-0.525,0.557c-0.151,0.219-0.379,0.452-0.525,0.706
								c-0.362,0.506-0.552,1.04-0.636,1.56c-0.04,0.265-0.051,0.535-0.023,0.84v0.111l0.015,0.251l0.036,0.546l0.072,1.098
								c0.384,5.861,0.768,11.722,0.768,11.722C15.577,50.293,15.395,43.557,15.597,42.68z"/>
							<path fill="#FFFFFF" d="M15.784,72.405c0.019,1.244,0.061,2.658,0.145,4.325C15.875,75.12,15.829,73.733,15.784,72.405z"/>
							<path fill="#FFFFFF" d="M125.786,17.105l-6.709,0.048C121.155,17.169,123.322,17.166,125.786,17.105z"/>
							<path fill="#FFFFFF" d="M18.284,106.052c0.104-4.09,0.507,3.039,0.739,3.742l-0.611-14.606c-0.2,0.074-0.486-1.361-0.66-1.06
								L18.284,106.052z"/>
							<path fill="#FFFFFF" d="M18.622,90.946c-0.162-0.489-0.351-2.029-0.542-3.754l0.332,7.996
								C18.563,95.131,18.665,94.229,18.622,90.946z"/>
							<polygon fill="#FFFFFF" points="7.854,92.932 7.73,90.346 7.413,86.439 							"/>
							<path fill="#FFFFFF" d="M7.249,52.425c-0.207,3.102,0.221,8.961,0.363,10.919C7.379,56.585,7.593,59.511,7.249,52.425z"/>
							<polygon fill="#FFFFFF" points="4.225,60.892 3.836,54.373 3.795,54.983 							"/>
							<path fill="#FFFFFF" d="M175.504,15.032c1.069-0.012,2.106-0.023,3.187-0.035C177.231,14.996,176.278,15.011,175.504,15.032z
								"/>
							<path fill="#FFFFFF" d="M119.647,15.572c15.5,0.484-10.149,0.566-5.271,1.297l8.425-0.319l-0.716,0.207l10.287-0.111
								c-2.112-0.343-3.699-0.359-3.241-0.726c13.743,0.11,4.333,0.419,14.418,0.873l15.379-0.049l-1.246,0.107
								c1.296-0.006,1.869-0.051,2.313-0.11l51.868-0.13c9.433-0.267-5.216-0.67,1.742-1.191
								c-10.933-0.025-27.181-0.455-28.109,0.271c0.367-0.1,1.09-0.299-1.125-0.391l-6.326,0.589l6.032,0.202
								c-6.36,0.587-26.921,0.439-30.625,0.056c11.679-0.188,5.815-0.909,22.098-0.504c-0.731-0.185-3.713-0.512-0.046-0.611
								C156.425,15.242,139.341,14.808,119.647,15.572z"/>
							<path fill="#FFFFFF" d="M310.81,15.51l-0.151,0.065C311.002,15.542,311.114,15.516,310.81,15.51z"/>
							<path fill="#FFFFFF" d="M304.413,15.404l-9.294,0.691l14.483-0.021l1.056-0.499c-1.281,0.124-6.361,0.365-8.328,0.165
								L304.413,15.404z"/>
							<path fill="#FFFFFF" d="M284.33,16.5c7.48-0.194,7.078-0.785,2.999-1.064c6.87-0.257,3.621,0.644,8.354,0.032
								c-0.152-0.426-8.62-0.197-10.566-0.124L284.33,16.5z"/>
							<polygon fill="#FFFFFF" points="229.144,16.052 231.249,15.813 226.066,15.735 							"/>
							<path fill="#FFFFFF" d="M231.249,15.813l5.144,0.079c-0.355-0.182-0.707-0.36-1.546-0.486L231.249,15.813z"/>
							<path fill="#FFFFFF" d="M249.889,16.095c2.177,0.049,4.587,0.088,7.518,0.112L249.889,16.095z"/>
							<path fill="#FFFFFF" d="M244.007,15.93l0.174,0.078l5.708,0.088C247.785,16.036,245.898,15.983,244.007,15.93z"/>
							<path fill="#FFFFFF" d="M236.392,15.891c0.834,0.416,1.812,0.852,9.249,0.756l-1.46-0.64L236.392,15.891z"/>
							<path fill="#FFFFFF" d="M18.574,14.655c0,0,0.371-0.158,0.928-0.394c0.558-0.246,1.301-0.533,2.045-0.817
								c1.488-0.563,2.979-1.053,2.979-1.053l-0.656,0.123c0,0-0.373,0.131-0.932,0.328c-0.558,0.188-1.303,0.469-2.048,0.761
								c-1.489,0.574-2.975,1.258-2.975,1.258L18.574,14.655z"/>
							<path fill="#FFFFFF" d="M53.105,8.089c1.461-0.222,2.565-0.394,3.57-0.568C55.133,7.713,53.91,7.889,53.105,8.089z"/>
							<path fill="#FFFFFF" d="M78.398,3.517c7.001,0.111-9.607,0.975,3.329,0.594c1.151,0.346-4.875,1.06-10.973,1.225
								c0.464-0.401,5.92-0.548,2.157-0.726c-4.023,0.641-5.579,0.462-4.136,0.919c-6.785,0.783-7.514,1.242-12.101,1.992
								c4.103-0.49,10.479-0.887,17.112-1.199c6.635-0.33,13.531-0.594,18.718-1.091c5.712-0.807,2.217-1.618,2.214-2.571
								c-0.435-0.1-4.375-0.087-8.281,0.073C82.534,2.888,78.665,3.189,78.398,3.517z"/>
							<path fill="#FFFFFF" d="M67.328,3.16c-3.253,0.163-4.246,0.274-6.238,0.508C61.653,3.949,64.703,3.335,67.328,3.16z"/>
							<path fill="#FFFFFF" d="M141.43,8.729c0.611-0.136,6.408-0.302,5.162-0.536l-8.788,0.171
								C139.866,8.386,140.594,8.551,141.43,8.729z"/>
							<path fill="#FFFFFF" d="M133.949,8.443l3.854-0.079C136.84,8.353,135.648,8.375,133.949,8.443z"/>
							<path fill="#FFFFFF" d="M141.848,8.813c-0.139-0.028-0.264-0.053-0.418-0.084C141.306,8.758,141.329,8.787,141.848,8.813z"/>
							<path fill="#FFFFFF" d="M271.201,16.386c-0.125,0.261,3.789,0.115,5.755,0.042C275.358,16.402,273.116,16.31,271.201,16.386z
								"/>
							<path fill="#FFFFFF" d="M418.615,15.142l3.46,0.197C420.852,15.219,420.225,15.159,418.615,15.142z"/>
							<path fill="#FFFFFF" d="M471.995,8.156c0.104-0.046,0.362-0.079,0.711-0.101C472.358,8.069,472.114,8.104,471.995,8.156z"/>
							<path fill="#FFFFFF" d="M472.706,8.055c1.195-0.046,3.627,0.114,6.089,0.322c2.463,0.204,4.957,0.461,6.296,0.446
								l-0.347,0.062c0,0,1.235,0.098,2.47,0.195c1.236,0.118,2.473,0.236,2.473,0.236c-2.309-0.326-5.881-0.755-9.214-1
								C477.14,8.063,474.048,7.965,472.706,8.055z"/>
						</g>
					</g>
				</g>
			</g>
		</g>
	</g>
</g>
</svg>
