<?xml version="1.0" encoding="utf-8"?>
<!-- Generator: Adobe Illustrator 16.0.0, SVG Export Plug-In . SVG Version: 6.00 Build 0)  -->
<!DOCTYPE svg PUBLIC "-//W3C//DTD SVG 1.1//EN" "http://www.w3.org/Graphics/SVG/1.1/DTD/svg11.dtd">
<svg version="1.1" id="Layer_1" xmlns="http://www.w3.org/2000/svg" xmlns:xlink="http://www.w3.org/1999/xlink" x="0px" y="0px"
	 width="516px" height="435px" viewBox="0 0 516 435" enable-background="new 0 0 516 435" xml:space="preserve">
<g>
	<image overflow="visible" opacity="0.75" width="537" height="449" xlink:href="34E6CFF.png"  transform="matrix(1 0 0 1 -4 -2)">
	</image>
	<g>
		<path fill="#F2F2F2" d="M10.774,412.77c0.071,5.687,20.49,10.268,45.39,10.17c47.858-0.189,97.283-1.026,143.674-0.608
			c40.857,0.37,86.74,0.498,132.901,0.458c82.211-0.07,170.188,2.995,169.694-29.281c-1.921-125.854-10.96-251.047,0-376.188
			c0.493-5.624-29.179-4.11-35.213-4.186C322.109,11.3,176.488,11.155,31.295,12.697c-5.055,0.054-10.531,0.143-14.322,0.829
			c-4.815,0.871-5.136,2.357-5.1,3.671c1.014,36.487-2.403,72.612-1.39,109.099c0.361,13.004-0.362,24.671,0,37.676
			c0.398,14.369,0.093,30.614,0.492,44.984C12.87,277.167,9.919,344.613,10.774,412.77z"/>
		<g>
			<g>
				<g>
					<g>
						<g>
							<path fill="#FFFFFF" d="M13.22,369.131c0.061,4.006-0.245,7.499-0.387,5.992c0.387,8.16-0.042,8.335,0.689,9.391
								c0.365,5.235-0.124,10.823-0.428,4.866l0.465,15.097l0.103-9.028c0.61,2.454-0.164,14.426,0.547,17.278l-0.079-16.338
								l0.203,0.815c-0.222-3.719-0.14-10.945-0.058-13.464c0.101,0.396,0.262,0.144,0.284,3.024
								c0.022-19.724-1.067-5.313-1.289-21.687C13.285,366.104,13.278,367.376,13.22,369.131z"/>
							<path fill="#FFFFFF" d="M14.798,352.373l-0.686-6.894l0.322-11.554c-0.262-0.134-0.382-8.554-0.675-2.857
								c0.029,1.115,0.083,3.319,0.04,5.098c-0.553-1.295-0.116-15.371-0.728-11.98c0.051,9.142-0.089,10.543,0.311,16.173
								c-0.145,8.379-0.341,14.479-0.591,18.39c0.058,2.487,0.396,2.841,0.474,5.998c-0.008-0.698-0.015-1.341-0.024-2.145
								l0.853-0.334c-0.163-2.636-0.042-5.127-0.031-8.051c0,0,0.212,3.383,0.425,6.767c0.249,3.38,0.497,6.759,0.497,6.759
								c0.736-4.344,0.461-17.642,0.839-22.947C15.035,351.375,15.525,339.548,14.798,352.373z"/>
							<path fill="#FFFFFF" d="M13.266,364.746c0.001,0.088,0.002,0.231,0.002,0.332C13.268,364.978,13.267,364.834,13.266,364.746z
								"/>
							<path fill="#FFFFFF" d="M499.748,186.703c0.058,2.874,0.271,3.719,0.379,4.132c0,0-0.03-2.022-0.076-5.057
								c-0.058-3.034-0.086-7.079-0.11-11.123c-0.056-8.089-0.112-16.179-0.112-16.179c-0.218,1.013-0.435,10.336-0.608,4.108
								c-0.23,2.779,0.036,11.241,0.347,12.465l-0.357-2.343c0.479,7.453-0.329,12.556-0.631,7.696l0.009,0.629l1.979,20.631
								C500.555,194.08,499.902,195.833,499.748,186.703z"/>
							<path fill="#FFFFFF" d="M55.342,424.494c4.209-0.094,4.716-0.19,4.242-0.266C58.078,424.299,56.657,424.393,55.342,424.494z"
								/>
							<path fill="#FFFFFF" d="M501.041,206.481l0.663,6.458C501.508,210.353,501.271,208.081,501.041,206.481z"/>
							<path fill="#FFFFFF" d="M492.523,161.706c-0.028-0.013-0.054-0.083-0.09,0.088l0.288,2.911c0-0.043,0-0.057,0-0.074
								C492.648,163.558,492.584,162.595,492.523,161.706z"/>
							<path fill="#FFFFFF" d="M506.991,353.334c0.029,0.695,0.054,1.294,0.088,2.125
								C507.047,354.686,507.019,353.985,506.991,353.334z"/>
							<path fill="#FFFFFF" d="M491.175,73.627l-0.105,14.479c-0.186-1.935-0.31,5.042-0.504,1.986
								c0.007,1.104-0.043,6.273,0.12,4.868l0.067-2.95c0.484,7.645,0.883,3.038,1.061,15.683c0.636-7.831,0.353-11.277,0.15-15.441
								c0.004-1.41,0.007-2.59,0.01-3.785l-0.475-12.055L491.175,73.627z"/>
							<path fill="#FFFFFF" d="M256.03,420.109l0.158-0.054C256.043,420.074,256.017,420.092,256.03,420.109z"/>
							<path fill="#FFFFFF" d="M256.818,419.834l-0.63,0.222C256.961,419.946,259.926,419.849,256.818,419.834z"/>
							<path fill="#FFFFFF" d="M500.545,204.114c0.133,0.194,0.302,1.021,0.496,2.368l-0.475-4.819
								C500.561,202.349,500.553,203.253,500.545,204.114z"/>
							<path fill="#FFFFFF" d="M498.857,193.156l-0.271-12.125l-0.392-4.467C498.344,181.204,498.534,186.631,498.857,193.156z"/>
							<path fill="#FFFFFF" d="M506.898,334.151c0.803,25.135-0.993-6.152-0.872,5.402c0.295,6.976,0.737,9.43,0.965,13.78
								c-0.832-19.936,1.376,2.668,0.625-17.438c0.794,2.84,1.169,14.484,1.128,21.319c-0.496,7.744-0.661-6.741-1.37-8.475
								c0.304,8.07,0.395,6.646,0.855,10.063c0.179,12.677,1.366,26.228,0.579,33.817c0.009,0.292,0.019,0.574,0.027,0.848
								c-0.003,0.368-0.006,0.725-0.009,1.069c0.007,0.686-0.042,1.335-0.111,1.946c-0.091,1.217-0.336,2.273-0.526,3.19
								c-0.465,1.829-0.945,3.124-1.421,4.206c-0.971,2.143-1.731,3.722-4.063,6.417c-0.122,0.38,0.656-0.211,1.883-1.521
								c1.204-1.333,2.816-3.548,3.963-6.34c1.175-2.773,1.739-6.021,1.768-8.674c0.028-0.964,0.055-1.854,0.078-2.616
								c0.033-0.727,0.079-1.33,0.144-1.757c-0.049,0.706-0.146,2.084-0.256,1.687l0.006-7.944c-0.114,7.543-0.748-1.034-0.88-5.062
								c-0.069-2.93-0.209-8.754,0.007-7.957l0.239,4.434c0.141-5.719-0.816-12.583-0.557-18.62c0.155-0.318,0.287,1.96,0.397,2.304
								c-0.657-6.743-0.78-13.257-1.419-23.236l0.883,5.772c-1.012-7.974-1.299-26.07-1.26-38.613
								c-0.081,1.394-0.093,3.901-0.277,2.401c-0.391-7.358-0.063-12.928,0.42-9.532c-0.82-7.172-0.315-27.4-1.367-37.165
								c0,0-1.216-11.228-2.433-22.455c-1.171-11.231-2.341-22.463-2.341-22.463c0.127,1.684,0.239,3.486,0.311,5.346
								c-0.549,4.104-0.426,6.31-1.175-0.85c0.492,7.034,0.919,4.331,1.203,14.909c-0.426-4.142-1.182-5.174-0.996,4.964
								c1.269,25.321,3.619,42.059,5.239,65.705c-0.469,0.891,0.24,19.473,0.361,28.519c-0.619-3.436-0.952-10.14-1.271-17.095
								c0.107,4.368,0.292,11.889,0.429,17.469L506.898,334.151z"/>
							<path fill="#FFFFFF" d="M503.523,275.332c-0.025,0.635-0.029,1.291-0.032,1.965
								C503.521,276.937,503.534,276.351,503.523,275.332z"/>
							<path fill="#FFFFFF" d="M505.329,312.317c-0.021-0.087-0.035-0.056-0.056-0.086c0.034,0.729,0.068,1.459,0.104,2.206
								C505.36,313.69,505.341,312.847,505.329,312.317z"/>
							<path fill="#FFFFFF" d="M499.559,210.071c-0.147-1.503-0.257-2.612-0.405-4.114c0.056,0.926,0.127,2.087,0.194,3.205
								C499.437,210.227,499.514,210.732,499.559,210.071z"/>
							<path fill="#FFFFFF" d="M500.313,204.987l0.217,0.8c0.006-0.647,0.01-1.101,0.015-1.674
								C500.435,203.941,500.346,204.13,500.313,204.987z"/>
							<path fill="#FFFFFF" d="M476.798,416.883c0,0-0.583,0.182-1.167,0.363c-0.586,0.17-1.172,0.34-1.172,0.34
								C475.887,417.237,476.486,417.021,476.798,416.883z"/>
							<path fill="#FFFFFF" d="M506.783,362.182c-0.257-8.744-0.755-1.028-1.054-13.399l0.042,3.632
								c-0.517-8.868-0.821-24.463-1.149-35.001c0.326,1.18,0.163-6.401,0.651-5.182c-0.319-7.2-0.632-14.332-1.21-18.026
								c0.019-4.466-0.595-11.231-0.572-16.908c-0.201,2.402-1.167-8.048-0.418,5.746c-0.07-1.113-0.112-0.412-0.184-1.513
								c-0.113,8.904,0.641,12.449,0.878,20.11c-0.133,4.589-0.658-7.478-0.638-3.152c0.537,9.561,0.567,30.032,1.552,29.371
								c0.265,6.963,0.067,7.931-0.061,10.013c1.414,10.988,0.531,40.911,1.877,40.784c-0.125-4.025-0.218-10.586-0.668-16.483
								L506.783,362.182z"/>
							<path fill="#FFFFFF" d="M499.938,224.736c0.007,0.538,0.016,1.254,0.021,1.7
								C499.952,225.934,499.944,225.309,499.938,224.736z"/>
							<path fill="#FFFFFF" d="M503.416,114.618l0.85,3.659c-0.088,10.369-0.147,17.428-0.205,24.161
								c-0.028,6.736-0.191,13.143-0.079,22.218c-0.115,1.387-0.208-0.814-0.255-1.931c0.063,6.38,0.14,14.343,0.214,21.873
								c0.127,7.532,0.286,14.629,0.562,19.271c0.063,4.062,0.011,14.734-0.343,10.703c0.121,1.975,0.246,4.234,0.265,6.508
								c-0.313,0.609-0.2-5.086-0.469-5.212c0.017,1.803-0.032,2.507,0.079,2.92c-0.343-3.028-1.035,3.171-1.312-10.979
								c0.645-5.493,0.294,9.812,1.063,6.561c-0.092-4.692-0.405-4.141-0.516-4.54c-0.109-5.981,0.116-5.827,0.31-5.512
								c-0.293-2.286-0.041-9.81-0.48-12.968c-0.234-11.624,0.638,0.625,0.518-6.967l-0.898-4.367l0.079-12.622
								c-0.208-9.134-0.57-8.481-0.957-8.153s-0.821,0.329-1.017-10.118c0.438,2.746,1.193-5.632,1.425-15.346
								c-0.01,5.815,0.522,16.563,0.24,24.068c0.359-5.29,0.335-1.651,0.397,2.627c0.06,4.277,0.135,9.191,0.497,6.443
								c-0.191-2.614-0.331-6.102-0.367-9.784c-0.021-3.682,0.029-7.561,0.138-10.959l0.07,2.229
								c0.126-7.227-0.799-12.709-0.277-22.677c0.047-4.956,0.271-4.024,0.457-3.149
								C503.339,118.378,503.229,114.627,503.416,114.618z M503.434,125.415l-0.184,6.627
								C503.414,130.47,503.445,127.999,503.434,125.415z"/>
							<path fill="#FFFFFF" d="M15.489,259.338c-0.008,0.661-0.044,1.422-0.07,2.021C15.458,260.918,15.495,260.152,15.489,259.338z
								"/>
							<path fill="#FFFFFF" d="M358.017,16.589l-3.851-0.054C355.669,16.574,356.901,16.586,358.017,16.589z"/>
							<path fill="#FFFFFF" d="M271.585,18.8l-5.625,0.159C268.18,18.962,269.919,18.896,271.585,18.8z"/>
							<path fill="#FFFFFF" d="M14.964,213.316l0.003-0.188c-0.02-0.315-0.035-0.556-0.056-0.888L14.964,213.316z"/>
							<path fill="#FFFFFF" d="M98.254,17.391c-0.857-0.068-1.819-0.128-3.135-0.171C95.277,17.303,96.449,17.357,98.254,17.391z"/>
							<path fill="#FFFFFF" d="M272.62,18.771c-0.144-0.008-0.227-0.012-0.341-0.018c-0.219,0.015-0.459,0.032-0.694,0.048
								L272.62,18.771z"/>
							<path fill="#FFFFFF" d="M396.065,19.32c0.826-0.022,1.577-0.043,2.465-0.067C397.368,19.261,396.655,19.288,396.065,19.32z"
								/>
							<path fill="#FFFFFF" d="M390.657,16.881c0.888-0.016,1.736-0.036,2.396-0.068L390.657,16.881z"/>
							<path fill="#FFFFFF" d="M494.978,36.877c0,0-0.071,1.301-0.142,2.601c-0.08,1.3-0.111,2.603-0.111,2.603
								C494.849,39.524,494.965,37.999,494.978,36.877z"/>
							<path fill="#FFFFFF" d="M404.373,17.529c0.302-0.037,0.604-0.073,0.805-0.11C404.461,17.44,404.119,17.488,404.373,17.529z"
								/>
							<path fill="#FFFFFF" d="M12.744,292.3c0-0.118,0-0.245-0.001-0.314l-0.098-0.132L12.744,292.3z"/>
							<path fill="#FFFFFF" d="M13.889,304.925c0.012,1.488,0.025,3.037,0.038,4.56C13.944,307.791,13.929,306.142,13.889,304.925z"
								/>
							<path fill="#FFFFFF" d="M23.104,16.572c-0.657-0.008-1.754-0.021-2.51-0.03c-0.734,0.005-1.119,0.001-0.451-0.164
								c-0.289,0.061-0.562,0.124-0.745,0.176c-0.133,0.046-0.234,0.09-0.304,0.13c-0.139,0.081-0.149,0.146-0.027,0.183
								c0.142,0.034,0.277,0.06,1.032-0.026C20.775,16.765,21.801,16.721,23.104,16.572z"/>
							<path fill="#FFFFFF" d="M7.617,267.006c0.108,0.826,0.189,1.853,0.268,2.884C7.774,267.972,7.685,266.29,7.617,267.006z"/>
							<path fill="#FFFFFF" d="M7.885,269.89c0.058,0.948,0.12,1.961,0.171,2.81C8.008,271.712,7.951,270.764,7.885,269.89z"/>
							<path fill="#FFFFFF" d="M57.791,9.188c0.342,0.056,0.871,0.101,1.588,0.113C59.168,9.187,58.595,9.165,57.791,9.188z"/>
							<path fill="#FFFFFF" d="M13.756,313.164c0.193,0.82,0.417,20.628,0.702,3.973c0.621,0.649,0.174,10.688,0.282,15.131
								c0.183-3.224,0.386,1.607,0.622,0.631c-0.053-2.203-0.205-4.822-0.121-8.463c0.306-1.671,0.44,3.855,0.287,8.168
								c0.39-5.312,0.425,6.747,0.761-0.771c-0.024-8.04-0.061-14.9-0.194-21.167c-0.156-6.275-0.402-11.953-0.822-17.616
								c0.086,9.177,0.211,19.448-0.139,26.957l-0.51-3.166c0.583-8.486,0.232-13.751,0.351-22.113l-0.431,18.786
								c-0.551,8.788-0.583,2.906-0.617-4.029C13.911,311.19,13.856,312.732,13.756,313.164z"/>
							<path fill="#FFFFFF" d="M9.081,300.462l-0.018,0.314c0.018,0.275,0.027,0.617,0.049,0.792L9.081,300.462z"/>
							<path fill="#FFFFFF" d="M506.032,36.709l0.081,1.616C506.124,36.982,506.092,36.565,506.032,36.709z"/>
							<path fill="#FFFFFF" d="M11.795,289.285v0.013C11.79,289.171,11.79,289.141,11.795,289.285z"/>
							<path fill="#FFFFFF" d="M482.869,7.892c0.059-0.013,0.117-0.028,0.221-0.043C482.941,7.863,482.941,7.879,482.869,7.892z"/>
							<path fill="#FFFFFF" d="M472.179,19.672c0.074,0.023,0.097,0.047,0.271,0.069C473.302,19.696,472.888,19.677,472.179,19.672z
								"/>
							<path fill="#FFFFFF" d="M482.838,7.942c0-0.017-0.027-0.034,0.031-0.05C482.838,7.909,482.766,7.926,482.838,7.942z"/>
							<path fill="#FFFFFF" d="M287.632,8.823c0,0,0.616,0.098,1.587,0.195C289.595,8.97,289.22,8.909,287.632,8.823z"/>
							<path fill="#FFFFFF" d="M326.155,9.891c0.244,0.022,0.389,0.036,0.703,0.065L326.155,9.891z"/>
							<path fill="#FFFFFF" d="M32.07,18.795c1.906-0.001,3.335-0.021,4.541-0.05C35.221,18.738,33.718,18.747,32.07,18.795z"/>
							<path fill="#FFFFFF" d="M483.09,7.849c0.415-0.048,1.001-0.104,1.979-0.149C483.991,7.747,483.429,7.805,483.09,7.849z"/>
							<path fill="#FFFFFF" d="M228.891,11.409c0.411-0.023,0.796-0.044,1.185-0.065c-0.236-0.008-0.472-0.016-0.704-0.024
								L228.891,11.409z"/>
							<path fill="#FFFFFF" d="M208.788,11.105c0.686-0.065,1.001-0.131,1.386-0.188c-7.174,0.26-20.357,0.079-21.917,0.664
								c2.436-0.026,15.058,0.253,12.907,0.603c5.001-0.169,12.395,0.201,15.087,0.093c-8.21-0.277-0.888-0.484,4.656-0.706
								c5.041,0.145-0.949,0.47,3.393,0.557l11.664-0.12l-10.16-0.027l3.086-0.571c-0.376,0.021-0.634,0.035-1.036,0.058
								C210.664,11.808,226.394,10.659,208.788,11.105z"/>
							<path fill="#FFFFFF" d="M210.174,10.917c1.075-0.04,2.02-0.087,2.754-0.15C211.306,10.783,210.676,10.843,210.174,10.917z"/>
							<path fill="#FFFFFF" d="M139.935,10.336c-0.883,0.03-1.84,0.062-3.042,0.103C137.465,10.419,138.794,10.375,139.935,10.336z"
								/>
							<path fill="#FFFFFF" d="M498.231,167.946c0.164-0.303,0.432-10.314,0.012-10.135c-0.026,2.972-0.053,5.966-0.08,8.973
								L498.231,167.946z"/>
							<path fill="#FFFFFF" d="M11.636,78.579c0.035-1.114,0.07-2.232,0.104-3.351c-0.018-0.241-0.035-0.473-0.048-0.653
								C11.611,75.255,11.627,77.464,11.636,78.579z"/>
							<path fill="#FFFFFF" d="M198.07,12.399c1.836-0.074,2.653-0.146,3.095-0.216C199.976,12.223,198.878,12.284,198.07,12.399z"
								/>
							<path fill="#FFFFFF" d="M10.602,79.179c-0.162,1.417-0.407,3.506-0.578,3.799c-0.085,2.908,0.082,4.955,0.079,7.917
								C10.134,87.553,10.285,83.688,10.602,79.179z"/>
							<path fill="#FFFFFF" d="M10.104,91.135c0-0.083,0-0.167-0.001-0.241C10.103,90.977,10.103,91.051,10.104,91.135z"/>
							<path fill="#FFFFFF" d="M498.088,173.903c0.035,0.861,0.07,1.748,0.107,2.661l-0.123-1.385
								c-0.027,2.304-0.055,4.594-0.082,6.89c0.031,0.83,0.066,1.73,0.109,2.835c-0.021-0.445-0.072-0.791-0.122-1.004
								c-0.006,0.748-0.012,1.478-0.018,2.208c0.534,5.48,1.019,19.122,1.388,23.053c0.299,5.205,0.54,11.577,0.59,15.575
								c-0.068-3.705-0.262-8.623-0.475-7.141c-0.102,7.528-0.766,11.205,0.209,24.176l-0.204-7.615l1.39,17.099
								c-0.238,6.01-0.695-8.533-1.098-10.902c0.795,13.306-0.111,24.418,0.882,30.569c-0.461,0.883-1.24,2.367-0.927,11.105
								c0.367-6.318,0.515,5.229,0.955,0.042c0.37,3.011,0.116,9.754,0.497,10.246l-0.227-0.812
								c-0.324,14.946,1.027,19.797,1.616,26.17c0.705,17.868,0.639,26.085,1.056,40.665c-0.313,0.581-1.117,4.571-0.943,10.419
								c0.505,2.709,0.945,15.902,1.54,17.24c0.043-10.466-0.634-8.55-0.883-14.81c0.483-5.225,0.581-0.484,0.769-7.61
								c-0.036,2.875,0.18,9.363,0.327,15.924c0.079,3.279,0.148,6.576,0.171,9.447c0.011,1.436,0.01,2.765-0.008,3.932
								c0.002,0.554-0.047,1.199-0.089,1.748c-0.024,0.554-0.141,1.054-0.221,1.488c0,0,0.014-0.155,0.033-0.389
								c0.014-0.233,0.061-0.545,0.049-0.854c-0.002-0.619-0.005-1.237-0.005-1.237c-0.086,2.793-0.791,5.001-1.73,6.809
								c-0.953,1.812-2.128,3.264-3.564,4.677c-1.446,1.409-3.175,2.78-5.491,4.266c-2.313,1.493-5.244,3.054-9.147,4.747
								c0,0-1.87,0.787-3.779,1.465c-0.952,0.348-1.915,0.657-2.635,0.905c-0.724,0.227-1.207,0.378-1.207,0.378
								c0.362-0.155,0.388-0.23,0.575-0.333c-3.194,0.852-5.405,1.266-7.122,1.565c-1.718,0.296-2.947,0.449-4.215,0.63
								c-2.541,0.323-5.222,0.804-12.378,1.935c1.106-0.172,0.402-0.144,1.524-0.326c-8.218,0.716-16.449,1.963-22.669,2.475
								c-3.825-0.255,0.875-0.51,3.196-1.012c-14.456,0.79-30.054,1.899-39.045,2.595l-9.338-0.183
								c5.534-0.231,12.291-0.828,10.598-1.091c-5.128,0.158-4.134,0.379-11.391,0.345c1.235-0.312,4.277-0.615,7.683-1.034
								c-15.001-0.373-3.346,1.112-13.848,0.245c-4.713,0.011-7.449,0.451-7.965,0.817l-8.539-0.48
								c-0.949,0.466-11.491,0.469-18.398,0.524c-0.844,0.199,5.56,0.508,8.179,0.334c-0.517,0.364-7.866,0.519-12.591,0.506
								c-1.727-0.952-30.943,0.063-25.355-1.069c-21.231,0.244-51.06,0.24-65.075,0.599c-4.621-0.285-14.038-0.331-8.391-0.77
								c-17.09-0.062-25.913,0.905-42.875,0.585c-1.403-0.132,7.669,0.017,7.068-0.313c-11.092,0.344-20.166-0.407-37.369-0.142
								c2.894-0.021,3.738-0.223,4.14-0.324c0.301,0.161-7.047,0.343-11.497,0.504c-2.5-0.081,3.331-0.12,1.928-0.243
								c-8.306-0.109-16.119-0.107-23.68-0.042c-3.78,0.047-7.499,0.093-11.185,0.139c-3.687,0.088-7.341,0.176-10.995,0.264
								c-14.613,0.374-29.205,0.802-45.732,0.901c9.44-0.057,13.004-0.729,13.103-0.994l-9.247,0.056
								c-3.562,0.349-10.505,0.399-16.31,0.684c-0.713-0.116-3.538-0.227-0.657-0.4c-9.149-0.224-16.317-0.261-24.017-0.806
								c-3.849-0.292-7.835-0.703-12.24-1.632c-2.201-0.471-4.506-1.075-6.933-2.031c-1.211-0.498-2.456-1.072-3.711-1.932
								c-0.625-0.435-1.261-0.94-1.847-1.667c-0.57-0.693-1.153-1.713-1.158-2.97c0,0,0.024,0.181,0.068,0.52
								c0.035,0.345,0.194,0.804,0.446,1.323c0.535,1.031,1.567,1.968,2.795,2.705c2.472,1.488,5.837,2.461,9.214,3.182
								c3.377,0.718,6.771,1.138,9.315,1.401c2.545,0.254,4.243,0.355,4.243,0.355s-1.658-0.304-3.305-0.657
								c-1.648-0.344-3.28-0.745-3.28-0.745s2.962,0.361,5.931,0.57c2.969,0.224,5.941,0.304,5.941,0.305
								c-7.025-0.899-13.215-1.216-13.963-1.885c1.487,0.174,5.036,0.781,5.188,0.518c-3.334-0.582-5.128-0.895-6.721-1.173
								c-1.586-0.276-2.99-0.462-5.422-1.165c6.498,1.551,16.384,2.728,26.403,3.057c5.016,0.194,10.025,0.128,14.751,0.027
								c4.707-0.093,9.043-0.178,12.613-0.247c2.247-0.095-1.922,0.254-2.319,0.358c5.827-0.075,9.326,0.209,16.66-0.018
								c4.553-0.454-3.477-0.284-7.092-0.302c0.497-0.37,2.315-0.361,6.341-0.445c0.877,0.481,22.103,0.01,27.295,0.568
								c21.512-0.304-3.451-1.259,17.555-1.162l6.28,0.552c12.196-0.444,27.977-0.845,41.783-0.74l-2.909,0.021
								c-1.939,0.241,1.263,0.385,2.679,0.506c10.429,0.236,19.813-0.481,26.122,0.118c11.895-0.553,31.72-0.925,45.315-1.185
								c3.663,0.75-17.737,0.564-23.396,1.005l12.375,0.04c-7.649-0.018-10.672,0.253-15.26,0.656
								c10.845,0.174,14.416-0.459,24.698-0.609c-0.801,0.197,0.571,0.325,5.314,0.348l1.349-0.484
								c0.087,0.04,0.612,0.078,2.076,0.115l18.295-0.235c-3.881-0.224-4.067-0.649-8.792-0.672c1.686,0.291-2.323,0.334-7.052,0.31
								c4.145-0.305-4.61-0.284-4.509-0.548c9.48,0.046,21.129,0.02,27.345-0.093l2.018,0.458
								c9.035,0.145,18.577-0.074,24.705,0.078l-1.933,0.233c10.843,0.165,21.508-0.057,31.146,0.372
								c9.677-0.507,21.854-0.894,29.75-1.433c4.223-0.556,28.344,0.688,39.176-0.452c0.734,0.05-7.445,0.605-11.154,0.865
								c7.235-0.008,12.957-0.885,15.235-0.337c-16.215,0.191,0.885,0.477-6.416,0.822c7.598-0.165,15.591-0.582,19.293-0.981
								c-12.258,0.52,4.318-1.002-8.079-0.252c9.603-0.841,22.67-1.722,33.969-2.801c-0.085,0.263,1.328,0.264,5.535-0.18
								l3.314-0.858c2.612-0.378,0.116,0.15-1.742,0.524c-1.856,0.379-3.046,0.694,2.245-0.006
								c5.371-1.128,13.493-2.545,20.373-4.845c3.421-1.156,6.532-2.504,8.776-3.923c2.271-1.396,3.674-2.794,4.181-3.678
								c0.669-0.534,0.983-0.817,1.101-0.883c0.121-0.063,0.038,0.089-0.176,0.386c-0.463,0.57-1.523,1.698-2.754,2.612
								c-1.195,0.936-2.439,1.708-2.688,1.961c-0.125,0.125-0.008,0.115,0.463-0.095c0.235-0.104,0.561-0.259,0.987-0.471
								c0.402-0.235,0.928-0.512,1.525-0.893c-2.565,2.105-6.389,3.886-9.809,5.105c-3.424,1.237-6.418,2.035-7.497,2.635
								c3.416-0.991,4.047-1.103,4.414-1.048c0.355,0.032,0.439,0.222,2.603-0.517c0,0,0.457-0.186,1.143-0.464
								c0.668-0.309,1.584-0.675,2.452-1.113c1.771-0.826,3.409-1.81,3.409-1.81s-0.376,0.191-0.752,0.383
								c-0.387,0.177-0.773,0.354-0.773,0.354c2.846-1.496,5.971-3.459,8.379-6.136c1.191-1.339,2.158-2.855,2.766-4.527
								c0.264-0.85,0.512-1.715,0.599-2.635l0.079-0.688l0.015-0.706c0.025-0.425,0.002-1.056-0.009-1.63
								c-0.2-9.315-0.295-19.104-0.563-27.842c-0.948-14.789-2.102-24.954-2.539-42.712c0.513,5.232-0.094-14.76,0.893-3.599
								c0.035-4.114-0.101-8.196-0.278-11.27c-0.179-3.074-0.399-5.138-0.533-5.215c0.124,7.233-0.01,2.546,0.042,8.64
								c-0.442-4.102-0.71-13.578-0.618-17.479c0.03,1.806,0.071,1.118,0.184,1.513c-0.044-8.643-0.442-4.13-0.764-10.366
								c0.385-1.992-0.291-13.784-0.219-19.493l-0.876-8.25c0.547,4.532-0.072-7.927,0.291-9.241
								c-0.445-5.923-1.104-10.883-1.207-19.92c0.297,3.728,0.144-8.251,0.565-8.418c0.061-15.475-1.633-25.609-1.198-40.283
								c0.103,0.455,0.401,3.412,0.481-0.876c-0.141-3.375-0.129-9.288-0.198-12.9l0.013,0.114c-0.005-0.07-0.008-0.114-0.013-0.188
								c-0.034-1.769-0.095-2.881-0.198-2.925c-0.465-6.183-0.831-9.374-1.159-21.557c-0.491,0.891-0.337,11.178-0.194,15.632
								l0.482,3.847c-0.712,3.678,0.198,10.979-0.032,13.779c-0.44-3.649-0.694-10.732-0.802-18.486
								c-0.084-7.755-0.171-16.173-0.365-22.493c-0.402,3.849-0.584,9.961-0.72,16.941c-0.154,6.981-0.104,14.822-0.011,22.127
								l0.252-6.438l0.059,7.646l0.472-7.402c-0.032,7.24,0.1,13.501,0.17,20.041c-0.117-7.658,0.579-10.65,0.487-6.315
								c-0.398,8.54,0.43,8.888,0.485,15.41c-0.008-3.631-0.068-8.352,0.255-5.312c-0.402,12.866,0.02,16.333-0.347,28.032
								c0.785-1.466,0.378,14.603,1.112,16.334l-0.067-5.423l0.783,11.484c-0.391,10.625-0.917-9.375-0.971,6.779
								c0.31,14.897,1.179,14.484,1.569,26.188c-0.589-3.843-1.278-13.112-1.521-22.561l-0.076,5.728
								c-0.377-3.016-0.64-16.094-0.782-22.617c0.839,10.766,0.02-5.047,0.374-9.966c-0.486-0.892-0.268,6.032-0.813-2.138
								c0.163,7.662,0.233,8.781,0.311,18.525c-0.176-10.529-0.67-15.257-1.144-19.65c-0.465-4.395-0.938-8.452-0.896-17.657
								c0.334,8.48,0.63-2.97,0.841-3.993c-0.114-3.991-0.343-12.086-0.508-15.415l-0.629,3.022
								c-0.427-10.725,1.023-14.465,0.235-26.842c-0.414-1.609-0.067,10.893-0.159,8.666c-0.291-8.47-0.097-14.238,0.21-19.765
								c0.326-5.527,0.657-10.811,1.054-18.335c-0.19-0.854-0.619-0.683-0.897-5.955c0.38,1.66,0.645-2.233,0.853,3.694
								c0.246-5.029,0.038-10.996-0.054-15.44c-0.399,10.475-0.524-4.299-0.658-6.239c0.222-5.43,0.357,1.666,0.38,5.008
								c0.23-4.357,0.972-9.52,0.437-12.012c0.454-0.158,0.71,12.212,0.764,20.285l0.15-5.441c0.161,3.753,0.089,4.454-0.058,9.855
								c0.409-5.283,0.765-4.754,1.05-3.518c-0.072,0.691-0.095-0.388-0.166,0.273c-0.172,4.347-0.105,7.684,0.136,6.679
								c0.514,3.916,0.447-6.025,0.776-8.964c-0.006-2.227-0.011-4.453-0.016-6.636l-1.202-22.647
								c0.173-9.667,0.819-13.992,1.402-21.23l-0.405-2.015c0.508-8.399,1.166-16.313,1.457-10.896
								c-0.182,0.293-0.208,1.404-0.341,3.226c0.053,0.245,0.074,0.668,0.081,1.2c0.025,0.176,0.04,0.275,0.061,0.421
								c0.37-9.001,0.601-14.62,0.622-15.138c-0.198,15.31,0.844,0.818,1.562,3.429c0,0,0.165-3.854,0.331-7.709
								c0.229-3.852,0.457-7.704,0.457-7.704c-1.001,9.308-0.438,0.14-0.298-3.182c0.166-0.26,0.317-1.452,0.462-3.144
								c0.063-0.847,0.135-1.817,0.212-2.858c0.021-0.359,0.043-0.73,0.064-1.109c0.011-0.244,0.021-0.492,0.03-0.742
								c0.014-0.344,0.026-0.691,0.039-1.034c0.051-0.345-0.137-0.675-0.422-0.849c-0.554-0.371-1.166-0.482-1.626-0.619
								l0.227-0.049c-0.266-0.088-0.566-0.171-0.896-0.239c-0.165-0.037-0.335-0.071-0.51-0.099
								c-0.142-0.022-0.285-0.045-0.43-0.068c-0.182-0.024-0.364-0.049-0.549-0.074c-1.483-0.194-3.15-0.333-4.877-0.422
								c-3.455-0.176-7.134-0.169-10.201-0.092c0.14,0.081-1.756,0.328-4.17,0.643c-2.429,0.31-5.313,0.713-7.465,0.93
								c1.405,0.02,2.531,0.036,3.427,0.048c0.854,0.017,1.488,0.03,1.951,0.04c0.92,0.033,1.151,0.082,1.082,0.137
								c-0.138,0.112-1.502,0.26-1.072,0.405c-1.095-0.008-3.116,0.018-3.367,0.081c-0.813,0.076-0.247,0.121,0.521,0.159
								c0.772,0.039,1.752,0.074,1.904,0.153c5.664-0.223,11.271-0.335,15.961-0.261c2.337,0.036,4.433,0.114,6.138,0.212
								c0.212,0.013,0.418,0.025,0.62,0.038l0.148,0.01c0.029,0,0.029-0.003,0.046-0.005l0.076-0.012
								c0.109-0.016,0.214-0.031,0.313-0.045c0.236-0.038,0.443-0.071,0.618-0.099c-0.181-0.131-0.402-0.198-0.62-0.223
								c-0.11-0.015-0.219-0.019-0.32-0.015l-0.909-0.057c-1.376-0.076-2.851-0.102-4.688-0.305
								c1.095-0.029,2.259-0.031,3.447,0.036c0.603,0.025,1.198,0.078,1.812,0.133c0.27,0.026,0.547,0.052,0.832,0.08
								c0.433,0.061,0.906,0.143,1.341,0.378c0.206,0.115,0.43,0.313,0.404,0.586c-0.021,0.258-0.043,0.523-0.066,0.794
								c-0.076,0.938-0.157,1.93-0.241,2.965l-0.651,3.068l-0.519,9.535c0.093-3.988-0.521-1.627,0.175-11.625
								c-0.478,1.245-0.701,9.915-1.272,16.023l0.356,3.167c-0.23-1.227-1.07,11.875-0.928,2.538c0,0,0.123-3.795,0.245-7.59
								c0.185-3.794,0.368-7.588,0.368-7.588l-0.699,4.183l0.893-12.816l0.046,3.045c0.096-1.495,0.18-2.804,0.253-3.948
								c0.009-0.126,0.018-0.25,0.025-0.371l-0.001-0.022l0.001-0.042c0.003-0.027,0.006-0.052,0.009-0.075
								c0.013-0.092,0.049-0.172,0.077-0.254c0.021-0.083,0.013-0.142,0.021-0.204c0.006-0.118,0.037-0.233,0.009-0.344
								c-0.029-0.109-0.131-0.218-0.413-0.279c-0.033-0.005-0.067-0.011-0.104-0.018c-0.195-0.026-0.448-0.066-0.709-0.09
								c-0.521-0.057-1.107-0.116-1.786-0.161c-1.35-0.095-3.03-0.162-5.129-0.17c-3.082,0.214-6.323,0.375-10.364,0.494
								c-2.03,0.059-4.229,0.119-6.832,0.151c-0.696,0-1.412,0-2.147,0c-0.668-0.009-1.354-0.019-2.061-0.029
								c-1.413-0.025-2.904-0.051-4.485-0.079c9.153-0.085,0.945-0.458,4.394-0.816c-9.331-0.339-12.489,0.183-17.334,0.407
								c-2.373-0.364-4.062-0.661,4.276-0.553c1.053-0.722-10.971,0.052-11.723-0.705c-27.627-0.166-22.16,2.275-54.441,1.117
								l1.213-0.294c-20.508,0.237-32.335-0.205-51.325-0.096l-14.946-0.873c3.344-0.096,12.337-0.61,8.144-1.01
								c7.269,0.829,14.987,0.609,22.821,1.081c0.801-0.197-2.389-0.366-3.777-0.5c4.729,0.04,7.1,0.405,13.346,0.313
								c-0.301-0.163-7.113-0.403-1.977-0.462l8.492,0.537c11.369-0.151,5.607-1.109,18.958-0.799
								c-2.486,0.411-7.561,0.996-12.731,1.063c6.1,0.134-8.136,0.203-2.569,0.497c8.793-0.574,13.033-0.043,24.723-0.361
								c-1.373,0.079-1.737,0.201-4.613,0.22l16.954,0.383c-4.192-0.399,14.011-0.312,12.438-0.874
								c-18.069-0.351-12.763,0.018-33.354-0.435c5.831-0.085,13.354-0.594,16.882-1.086c0.179,0.023,0.476,0.042,1.109,0.057
								c3.152-0.523-0.055-0.692,0.016-1.645c-9.408,0.614-15.689,0.013-26.782,0.328c-2.089,0.508,6.429,0.709,11.941,0.612
								l-9.771,0.279l1.926-0.227l-24.795-0.344c4.698,0.004,6.296-0.288,8.75-0.499c-3.199-0.043-6.367-0.202-9.736-0.376
								c0.704,0.503,0.256,0.851-2.864,0.82c-15.953-0.227-24.819-0.734-30.704-1.344c-0.612,0.008-1.303,0.016-1.858,0.023
								c2.673,0.528-11.334,0.84-16.279,1.328c0.247-0.526-8.221-0.373-12.817-0.674c-2.45,0.589,0.813,1.447,6.409,1.98
								c10.788-0.48,6.047-0.517,11.146-1.268l17.308-0.406l-3.871,0.457c8.636,0.272,16.936-0.31,16.298,0.314
								c-4.565,0.388-12.1,0.083-16.63,0.472l5.712,0.269c-10.082,0.549-5.163-0.63-17.368-0.282
								c4.486,0.564-1.106,0.031-6.335,0.354c4.194,0.401,21.486-0.006,17.815,0.877c-6.348,0.354-21.346-1.209-29.744-0.364
								l0.411-0.1c-12.386-0.202-16.74,0.287-21.378,0.582c-5.27-0.33-12.547,0.034-18.259,0.028l0.14-0.264
								c0,0-2.015,0.014-4.029,0.028c-2.015,0.032-4.03,0.065-4.03,0.065c3.838-0.53,9.444,0.056,16.367,0.017l-0.86-0.497
								c7.979,0.637,13.304-0.212,19.494-0.593c-9.009,0.363-25.437-0.294-27.553,0.651l-5.572-0.519l-2.666,0.191
								c-4.152-0.33,0.088-1.004,8.139-1.057c1.398,0.133,2.098,0.2,1.674,0.299c3.737-0.194,7.169-0.551,16.212-0.377l-4.826,0.228
								c11.259,0.112,21.495-0.008,25.352-0.464c-16.254-0.29-32.238-0.525-47.501-0.492c-4.503,1.131-9.844,1.779-12.138,2.821
								c-10.24,0.239-24.141,0.448-33.035,0.113l0.817-0.207c-4.34-0.084-8.339-0.009-11.673,0.123
								c-4.585-0.248,3.137-0.56-0.058-0.691l-14.667,0.417c0.903-0.471,13.246-0.533,19.106-0.594
								c-1.105,0.045-3.339,0.133-2.622,0.192c6.818,0.159,19.518-0.696,22.5-0.035c3.321-0.134-6.748,0.53,4.498,0.511
								c7.53,0.218,9.981-0.4,10.768-0.605c0.123-0.266-11.818-0.306-7.675-0.644c-5.861,0.062-8.194,0.414-15.69,0.195
								c5.809-0.06,13.697-0.634,16.792-0.239c11.486-0.548,9.838-1.78,4.422-1.823c1.29,0.383-20.954,0.58-5.892,1.014
								c-6.766,0.533-19.126,0.596-27.976,0.95l0.402-0.102l-10.988,0.178c1.547-0.146,4.869-0.28,4.977-0.543l-15.217,0.781
								c8.565-0.517-5.311-0.304-9.21-0.496c-1.629,0.412-7.572,0.737-1.867,0.94c6.413,0.263,3.731-0.236,9.562-0.295l-8.253,0.677
								l-0.708-0.059l-4.967,0.546c-11.245,0.017,4.907-1.236-9.5-0.657l1.878,0.702c-16.682-0.024-38.11-0.721-49.895-0.337
								c3.249-0.42,4.678-1.077,0.204-1.441c5.084,0.098,15.298,0.023,22.588-0.078c1.403,0.118-9.104,0.884-17.024,0.769
								c3.845,1.146,19.917-0.798,20.855,0.377c20.18,0.315,15.046-1.209,32.178-0.599c0.234-0.528,4.868-0.281,5.767-0.75
								c-5.073-0.835-22.898,0.14-34.015-0.108c1.088-0.043,3.278-0.133,3.706-0.234c-7.947-0.117-11.229,0.016-16.779,0.239
								l0.7,0.059c-9.696,0.562-6.003-0.364-11.714-0.569c-2.211,0.089-10.15-0.025-8.871,0.355L85.304,16.4l0.502,0.586
								c-5.83,0.063-7.11-0.32-12.391,0.063l-0.24,0.528l14.481,0.113c-7.337,0.208-2.042,0.514-10.104,0.663
								c9.003-0.619-6.375-0.261-7.266-0.746l-5.928,0.325l1.515-0.148c-4.657-0.249-5.54,0.223-10.974,0.18
								c6.411,0.263,10.609,0.613,18.771,0.199c-5.942,0.325-17.726,0.709-20.619,0.741c-6.239,0.251-10.6-0.13-16.439-0.161
								c11.204-0.265-3.941-1.579,18.52-1.308c-0.415,0.103-2.233,0.089-2.937,0.03c3,0.659,13.461-0.106,18.328-0.388
								c-1.258-0.381,3.834-0.501-4.801-0.674c2.834,0.234-7.266,0.898-15.481,0.621l1.439-0.836l-11.96-0.04l1.119-0.044
								c-2.251-0.256-5.441-0.215-9.098-0.145c-3.636,0.1-7.722,0.218-11.595,0.417c-0.41,0.074-0.937,0.168-1.544,0.277
								c-0.25,0.034-0.518,0.095-0.799,0.172c-0.281,0.067-0.574,0.14-0.865,0.255c-0.565,0.202-1.257,0.479-1.527,1.128
								c-0.141,0.313-0.109,0.67-0.103,1.008c0.007,0.34,0.014,0.679,0.021,1.014c0.03,1.417,0.059,2.782,0.084,3.956
								c0.034,1.445,0.077,2.656,0.131,3.462c0.11,1.614,0.271,1.613,0.524-1.362c-0.25,3.725-0.206,7.215-0.083,10.795
								c0.105,3.576,0.384,7.257,0.275,11.291c0,0,0.039-0.629,0.097-1.573c0.054-0.945,0.153-2.2,0.175-3.469
								c0.079-2.533,0.157-5.065,0.157-5.065c0.141,2.998,0.236,5.03,0.307,6.542c0.023,1.504,0.039,2.491,0.052,3.404
								c0.045,1.826,0.143,3.354,0.481,8.136c-0.254,0.959-0.499,3.08-0.684,1.137c-0.245,7.984-0.542,17.676-0.814,26.544
								c-0.113,4.42-0.199,8.636-0.229,12.33c-0.004,0.923-0.008,1.814-0.012,2.668c0.029,0.849,0.057,1.66,0.083,2.43
								c0.063,1.538,0.137,2.907,0.225,4.068c-0.003,5.575-0.249,8.801-0.44,12.595c-0.192,3.792-0.326,8.112-0.137,16.137
								c0.117,3.365,0.775-2.631,0.537,7.958c-0.062,0.708-0.614-10.188-0.55,1.592c0.661,8.293-0.417,19.182,0.311,30.125
								c-0.167,5.737,0.028,15.666-0.5,13.59c0.018-9.046-0.231-21.901-0.491-23.838c0.304,1.224,0.295-6.359,0.53,0.216
								c0.383-13.517-0.312-8.708-0.052-20.909c-0.101-0.436-0.241,1.181-0.333,3.166c-0.092,1.985-0.135,4.401-0.045,5.699
								c-0.344,0.006-0.429-5.891-0.528-10.659c-0.1-4.723-0.218-8.072-0.631-2.59c-0.046,13.203,1.346,16.833,0.683,28.194
								c-0.484-4.569-0.081-11.56-0.82-17.306l-0.277,9.251l0.515,6.717l-0.106-0.401c-0.225,8.26-0.006,12.07,0.333,15.668
								c0.339,3.607,0.797,6.986,1.05,14.293c0.385-8.486,1.217,1.947,1.44-4.432c0.195,9.776,0.181,16.957-0.508,17.042
								c-0.762-18.3-0.74-1.017-1.613-17.953c-0.216,2.786-1.053-4.034-1.019,6.079c0.617,11.384,0.537-3.415,0.889,7.938
								c-0.054,0.672-0.109,1.371-0.214,0.977c0.413,5.208-0.058,6.11,0.417,12.452l-0.157-1.503
								c-0.319,7.844,0.583,8.562,0.212,15.315c0.478-2.707,0.477,4.521,0.85,8.702c0.107-6.841,0.794-10.556,0.582-24.057
								c-0.425-1.621-0.638-0.629-0.904-6.167l0.161,8.771c-0.09-1.892-0.213-3.33-0.316-5.063l0.11-8.403
								c0.409,10.618,0.791,5.749,1.266,10.267c-0.052,9.784,0.214,8.069,0.16,14.223c-0.601-0.606-0.775,18.87-1.015,30.124
								c-0.014-1.749-0.033-4.005-0.043-5.223c-0.479-8.172-0.423,5.626-0.584,5.928l0.255,5.95
								c-0.033-1.12-0.161-2.669-0.263-0.132c0.054,8.056,0.646,7.589,0.7,15.633c-0.331,0.602-0.78-6.199-0.986-1.199
								c-0.298,1.723-1.095,7.208-0.882,17.892c0.12,0.758,0.171,3.527,0.202,6.738c-0.015-0.446-0.024-1.006-0.045-1.208
								l-0.406,7.092c-0.516-6.051,0.349-12.224-0.168-18.304l-0.526-0.52c0.032-4.728-0.152-11.149-0.406-14.102
								c-0.141,7.206-0.013,8.724,0.041,16.784c-0.343,1.125-0.552-4.553-0.583-5.37l0.293,1.204
								c0.507-9.608-0.407-14.37-0.224-26.331c0.034-1.806,0.065-0.704,0.164-0.302c-0.176-4.843-0.282-9.639-0.288-14.401
								c-0.034-4.763-0.087-9.492-0.486-14.193l0.319,3.065c-0.335-6.401-0.991-18.92-1.647-31.429l-0.208-0.096
								c-0.109,1.396-0.153-3.312-0.097-5.839l0.003,0.013c-0.308-6.283-0.604-12.32-0.847-17.259
								c-0.11,1.573-0.195,3.591-0.199,5.917c0.264,1.965,0.192,13.5,0.724,11.908c-0.278,5.341,0.307,13.886,0.149,17.79
								c0.264-7.116,0.582,4.938,0.901,6.178c-0.317,2.396,0.16,10.534-0.319,9.61c-0.104,1.404,0.266-3.495-0.053-6.515
								c-0.529-7.435-0.21,13.634-0.741,4.368c0.442,11.787,0.654,27.323,0.87,39.499l0.239-6.813
								c-0.107,5.41-0.093,18.217-0.326,19.173c-0.013-4.021-0.028-8.719-0.044-13.863c-0.525-0.251-0.084,12.358-0.414,12.93
								l0.768,14.944l0.076-6.543c0.282,4.125-0.167,17.801-0.373,27.944c-0.646-5.829,0.131-15.302-0.089-25.972
								c-0.219-7.751-0.731,4.779-0.852-2.555c-0.182,1.899-0.195,6.684-0.03,9.045l-0.151,2.892
								c-0.61-6.547-0.36-21.208-0.856-30.969c0.064,0.856,0.133,1.604,0.208,1.874c0.3-7.513,0.404-15.148,0.073-22.464
								c-0.158,3.872,0.002,5.403,0.106,7.616c-0.159,0.274-0.317-6.633-0.53-9.246c-0.105,6.808-0.371,1.271-0.424,5.577
								c-0.212-4.431-0.212-8.021-0.212-13.421c0.213-2.803,0.371,2.313,0.688,1.739c-0.266-5.561,0.479-8.115,0.001-16.253
								c0,10.832-0.743-2.843-1.009-6.566v1.815c-0.424-3.425-0.477-6.337-0.158-8.718c0.212,4.428,0.158,8.718,0.53,7.45
								c-0.053-2.927-0.107-5.846-0.266-9.158l0.318,3.007l-0.253-14.595c-0.367-2.311-0.892-6.178-1.418-8.204
								c0.271-3.528-0.04-8.413-0.195-11.694l0.16,1.534c0.111-3.199,0.066-8.357-0.045-12.863
								c-0.056-2.253-0.128-4.343-0.207-5.944c-0.063-1.626-0.134-2.76-0.21-3.063c0.067-1.164,0.221,0.307,0.411,2.649
								c0.208,2.308,0.492,5.475,0.7,7.779c0.477,4.589,0.787,5.782,0.534-10.462c-0.004-12.447-0.966-7.748-1.3-14.874
								c0,0,0.099,0.403,0.162-0.303c0.07-5.381-0.297-5.895-0.452-10.291c-0.147,3.203-0.153,7.839-0.014,9.336
								c-0.404-1.61,0.035-11.12-0.281-15.207c0.31,2.648,0.37,0.068,0.393-2.663c0.018-2.759-0.009-5.714,0.157-3.609
								c0.186-5.422,0.149-11.022,0.006-15.984c-0.141-4.961-0.421-9.292-0.52-12.117c0.986-7.292,0.255-12.83,0.949-24.675
								c-0.074,1.813-0.05,5.133-0.205,7.679c0.306,6.776,0.604-12.284,0.765-1.863c-0.016-2.228-0.259-0.166-0.245,2.12
								c-0.056,3.994,0.056,7.758,0.31,6.761l0.708-9.65l0.025,3.375l1.016-14.615c-0.088-0.4-0.25,0.966-0.332,1.667
								c0.168-3.843,0.309-7.813,0.431-11.824c0.057-2.005,0.114-4.021,0.172-6.038c0.051-2.016,0.125-4.034,0.085-6.03
								c-0.051-8.304-0.102-16.432-0.146-23.688c0.097-1.077,0.166-2.102,0.273-3.059c0.157-0.89,0.564-1.763,1.207-2.432
								c0.102-0.213,0.333-0.537,0.705-0.932c0.417-0.329,0.921-0.811,1.686-1.154c0.708-0.437,1.669-0.723,2.743-1.068
								c0.526-0.195,1.156-0.248,1.779-0.384c0.603-0.109,1.231-0.222,1.884-0.34c4.048-0.585,9.015-0.718,14.172-0.794
								C43.3,8.302,54.762,8.232,60.769,7.774c-3.219,0.417-4.975,1.132-2.978,1.414c-2.68,0.071-8.162,0.663-14.241,0.574
								c-0.973-0.22-8.483-0.438-3.654-0.717c-16.798,0.24,2.28,0.602-2.673,1.146c18.612-0.226,29.523-1.096,41.27-1.481
								l0.299,0.164l8.87-0.355c-7.251-0.058-6.899-0.852,2.448-0.619l-1.137,0.044c5.333,0.307,16.42-0.138,24.747-0.126
								l5.643-0.484c8.34,0.011,8.703,0.862,11.417,1.36c13.07-0.002,20.614-0.738,29.897-1.198
								c4.199,0.352,23.777,0.346,13.406,0.847c11.788-0.384,9.405-2.366,29.628-1.359l-5.247,0.384
								c19.332-0.142,46.905-1.072,55.813-0.622c-7.133,1.241,24.145,1.476,27.579,2.763c-0.957-0.295,6.306-0.342,7.364-0.489
								c1.592,0.159,4.24,0.321,7.053,0.079c-7.537-0.305,5.305-1.275-9.109-0.864c7.296-0.816,16.696-1.429,32.676-1.277
								l-0.243,0.525l-12.642-0.246c1.275,0.397-5.231,0.324-7.899,0.485c23.516,0.456-3.083,1.213,20.958,1.308
								c2.323-0.326,0.818-0.195,7.067-0.288c-2.938-0.002-3.47,0.357,1.267,0.396l4.55-0.39c8.39,0.936-13.899,0.478-6.74,1.144
								c-9.285,0.351-25.362,0.462-22.37,1.155c15.157,0.348,13.643-1.167,29.49-0.753l1.687,0.298
								c5.575-0.157,6.479-0.615,9.533-0.874c0.274,0.165,1.69,0.296,5.271,0.368c9.418-0.614,15.668-0.704,24.357-1.384
								c-23.118,0.397-19.757-0.649-43.618-0.318c3.74-0.193,20.537-0.239,21.574-0.96l-0.227,0.527
								c7.759-0.222,15.515-0.44,25.256-0.2l-5.949,0.256c12.916-0.279,21.46,0.947,31.656,0.139
								c-3.599-0.071-6.52-0.076-8.742-0.011c6.649-0.189,14.988-0.08,22.211,0.059l14.956-0.77
								c-0.134,0.261,9.338,0.341,4.764,0.728c10.758,0.475,15.839-0.277,22.06-0.365c11.013,0.635-9.55,0.185-10.638,0.906
								c3.795,0.087,7.646,0.145,11.424,0.177c1.889,0.01,3.759,0.019,5.594,0.028c0.918,0,1.826,0,2.725,0
								c0.806,0.001,1.678-0.021,2.539-0.044c6.965-0.226,13.266-0.421,17.691-0.463c-3.191-0.226-4.722-0.314-4.561-0.447
								c0.465,0.16,6.729,0.235,10.381,0.635c0,0,0.631-0.027,1.276-0.035c0.656-0.018,1.26-0.009,1.345-0.001
								c4.66,0.762,6.203,1.833,6.033,1.801c-0.104,0.028-0.676-0.129-1.677-0.389c-1.023-0.227-2.493-0.514-4.384-0.717
								c2.697,0.442,5.656,0.953,8.038,2.409c0.594,0.361,1.157,0.772,1.648,1.279c0.254,0.241,0.468,0.536,0.689,0.813
								c0.171,0.309,0.377,0.617,0.469,0.93c0.151,0.297,0.16,0.658,0.204,1.004l0.119,1.046l0.231,2.099
								c-0.062,0.84-0.124,1.677-0.186,2.51c-0.063,0.721-0.126,1.438-0.188,2.15c-0.105,1.017-0.234,2.015-0.396,2.983
								c0.041-0.976,0.084-1.98,0.127-3.002c0.095-1.499,0.192-3.024,0.29-4.56l-0.201-2.074l-0.097-1.038
								c-0.029-0.347-0.046-0.699-0.184-0.999c-0.079-0.314-0.292-0.621-0.447-0.931c-0.228-0.267-0.418-0.576-0.675-0.807
								c-0.478-0.506-1.028-0.917-1.61-1.278c-2.321-1.468-5.247-2.019-7.901-2.435c-3.861-0.525-6.866-0.618-8.858-0.603
								c2.449,0.05,4.622,0.173,6.614,0.379c0.501,0.059,0.987,0.116,1.462,0.172c0.253,0.037,0.502,0.072,0.748,0.108
								c0.331,0.052,0.657,0.104,0.979,0.154c0.634,0.127,1.252,0.25,1.855,0.371c0.585,0.163,1.164,0.306,1.713,0.477
								c1.079,0.371,2.091,0.763,2.937,1.306c0.88,0.498,1.608,1.139,2.209,1.892c0.304,0.371,0.538,0.816,0.679,1.245
								c0.168,0.415,0.151,0.901,0.178,1.368c0.041,0.932,0.082,1.861,0.124,2.801c-0.198,1.802-0.402,3.649-0.623,5.658
								c-0.177,1.547-0.354,3.22-0.535,5.109c-0.181,1.889-0.363,3.993-0.547,6.404c-0.184,2.41-0.386,5.125-0.495,8.243
								c-0.182,0.29-0.253-3.872-0.538,0.838c-0.524,10.922,0.535,2.896,0.712,6.327c0.144-4.205,0.326-7.281,0.563-9.911
								c0.263-2.627,0.609-4.806,1.01-7.222l0.104,2.256c-0.173,0.328-0.598,5.588-0.799,7.134l0.485,1.394
								c-0.589-0.669-1.568,7.736-1.729,14.38c0.854-6.672,0.722-4.864,1.544-6.644c0.123,9.35-1.335,10.472-1.041,20.962
								c-0.168-0.792,0.074-9.926-0.419-2.046c-0.308,6.528,0.218,5.678,0.186,10.062c-0.311-4.951-0.753-3.7-1.143-9.076
								c0.431-11.609,0.174-4.682,0.595-16.032c0,0-0.254,2.393-0.507,4.785c-0.269,2.392-0.474,4.789-0.474,4.789
								c0.435-9.836-0.189-7.181-0.355-8.003c-0.804,8.381-0.633,11.566-0.521,13.993c0.144,2.429,0.368,4.109,0.067,9.512
								c0.135,5.226,0.512-10.123,0.535-1.956c-0.255,5.052-0.194,5.631-0.103,6.367c0.086,0.735,0.208,1.626,0.17,7.305
								l-0.187-1.908c-0.408,3.46-0.122,6.903-0.182,10.918c0.061,4.419,1.896-4.949,1.541,13.193
								c-0.133-0.892-0.221-1.221-0.281-1.222c0,0-0.258-1.112-0.645-2.781c-0.366-1.67-0.855-3.896-1.345-6.122
								c-0.973-4.462-1.945-8.924-1.945-8.924c-0.135,4.606-0.275,9.388-0.419,14.303c-0.098,4.917-0.196,9.967-0.298,15.108
								c-0.058,2.571-0.114,5.164-0.173,7.775c-0.035,2.611-0.07,5.24-0.106,7.882c-0.08,5.283-0.161,10.614-0.242,15.953
								c-0.876,5.033-0.657-15.245-1.048-13.94l0.215-9.743c0.35,0.55,0.04,20.414,0.71,11.618
								c-0.049-4.301-0.065-8.014-0.055-11.419c0.045-3.405,0.086-6.503,0.127-9.573c0.091-6.14,0.017-12.172-0.088-20.338
								c-1.072,5.048-0.258,21.496-1.059,32.105c0.08-4.459,0.072-8.224-0.006-11.88c-0.313,9.971-0.4,20.645-0.585,31.993
								l0.209,2.549c0.103-7.648,0.209-12.938,0.237-13.621c-0.052,5.07,0.023,9.743,0.213,13.232
								c0.21,3.489,0.502,5.794,0.818,6.129l0.012-1.801l0.219,3.662C498.139,169.161,498.113,171.539,498.088,173.903z
								 M76.173,423.52c0.616-0.064,1.101-0.138,1.459-0.229C77.262,423.385,77.677,423.441,76.173,423.52z M462.011,14.333
								l5.073,0.072c1.739,0.026,3.421-0.004,5.114-0.014c3.379-0.027,6.744-0.034,10.084,0.039
								c3.337,0.075,6.655,0.212,9.891,0.536c0.81,0.078,1.61,0.175,2.403,0.286c0.727,0.104,1.341,0.208,2.007,0.347
								c1.281,0.301,2.626,0.586,3.653,1.424c-0.858-0.806-1.992-1.17-3.084-1.508c-1.135-0.33-2.152-0.549-3.497-0.777
								c-2.537-0.437-4.932-0.693-7.028-0.906c-4.201-0.41-7.241-0.613-8.321-0.808c-1.081-0.183-0.208-0.365,3.391-0.443
								c1.8-0.031,4.282-0.044,7.543,0.111c1.631,0.082,3.457,0.201,5.487,0.459c2.086,0.312,4.564,0.604,6.813,1.862
								c-0.006,0.009,0.163,0.061,0.361,0.223c0.209,0.148,0.484,0.35,0.695,0.623c0.13,0.117,0.189,0.279,0.264,0.419
								c0.087,0.138,0.124,0.278,0.132,0.403c0.047,0.245,0.057,0.41,0.049,0.411c0.07-0.692-0.341-1.416-0.977-1.886
								c-0.626-0.484-1.39-0.872-2.241-1.16c-0.845-0.31-1.776-0.535-2.751-0.74c-0.974-0.187-2.041-0.355-2.985-0.464
								c-3.909-0.466-8.214-0.588-12.377-0.586c-1.686,0.093-4.305,0.277-7.274,0.537c-2.966,0.255-6.297,0.597-9.418,0.781
								c-3.115,0.228-6.014,0.439-8.12,0.592c-2.104,0.165-3.416,0.284-3.357,0.32c2.374,0.364,5.845,0.008,10.167,0.144
								L462.011,14.333z M452.422,12.184c-7.663-0.191-5.921,0.096-7.113,0.336c2.698-0.013,5.392-0.026,8.055-0.039
								C452.345,12.412,451.843,12.321,452.422,12.184z M445.765,12.771c0.861,0.012,1.596,0.028,1.979,0.064L445.765,12.771z
								 M497.526,108.153c0.003-0.341,0.004-0.463,0.007-0.787c-0.066,1.809-0.153,3.622-0.19,5.515
								C497.389,112.147,497.443,110.75,497.526,108.153z M498.571,92.623l-0.403-1.833c-0.064,1.687-0.131,3.408-0.197,5.168
								C498.192,95.383,498.389,94.782,498.571,92.623z M502.492,42.804c-0.368-3.179,0.476-13.692-0.117-14.387
								c-0.108-0.684-0.342,1.524-0.588,4.004c-0.229,2.77-0.474,5.728-0.733,8.863c0.085,0.116,0.133,0.745,0.152,1.793
								c0.244-3.098,0.61-5.151,0.884-3.872c-1.376,7.91,0.156,7.18-0.586,15.777C501.784,57.749,502.514,45.427,502.492,42.804z
								 M10.121,161.982c-0.054,0.246-0.199,1.095-0.368,2.285l-0.315-6.09c0.137-10.892,1.041-19.572,0.264-29.321
								c0.197-4.57,0.594-7.04,0.931-9.38c-0.02,2.238-0.047,4.333-0.095,6.079C11.679,152.958,9.337,139.826,10.121,161.982z
								 M12.668,37.188c0.042,1.121,0.146,1.524,0.146,1.524c-0.342-6.831-0.618-13.358-0.838-19.288
								c-0.013-0.973-0.118-1.954-0.052-2.921c0.033-0.493,0.299-0.916,0.601-1.275c0.342-0.324,0.719-0.614,1.146-0.807
								c1.679-0.838,3.536-1.121,5.34-1.396c3.548-0.497,6.944-0.633,10.128-0.736c6.373-0.175,11.956-0.204,16.655-0.22
								c-1.27-0.223-4.839-0.409-8.786-0.56c-3.947-0.153-8.27-0.277-11.091-0.268c0,0,1.248-0.185,2.482-0.323
								c1.238-0.148,2.476-0.297,2.476-0.297l3.089,0.392l8.565-0.516c-2.408-0.328-9.302-0.259-13.968-0.454
								c-0.101,0.028-1.103,0.088-2.641,0.222c-0.767,0.064-1.662,0.14-2.638,0.221c-0.984,0.112-2.049,0.234-3.144,0.359
								c-0.27,0.023-0.557,0.085-0.837,0.132l-0.906,0.163c-0.672,0.125-1.346,0.25-2.013,0.375
								c-0.651,0.152-1.265,0.369-1.876,0.543c-0.599,0.202-1.14,0.482-1.675,0.717c-1.002,0.572-1.874,1.295-2.249,2.188
								c-0.375,0.878-0.281,1.7-0.287,2.329c0,0,0.015-0.214,0.042-0.59c0.02-0.381,0.084-0.88,0.321-1.473
								c0.232-0.609,0.816-1.136,1.46-1.601c0.358-0.183,0.717-0.39,1.099-0.564c0.399-0.14,0.805-0.282,1.21-0.424
								c0.411-0.125,0.845-0.197,1.258-0.295c0.416-0.093,0.821-0.191,1.233-0.222c0.797-0.091,1.541-0.176,2.179-0.249
								c0.573-0.063,1.048-0.105,1.376-0.107c0.329-0.012,0.518-0.02,0.518-0.02c-0.456,0.005-1.16,0.034-2.067,0.16
								c-0.987,0.159-2.27,0.221-3.579,0.604c-1.31,0.341-2.806,0.792-3.896,1.94c-0.571,0.562-0.811,1.382-0.831,2.161
								c-0.027,0.814-0.055,1.639-0.083,2.464c0.028,2.381,0.056,4.773,0.081,6.929c0.038,2.045,0.071,3.867,0.096,5.232
								c0.129,0.06,0.285-2.497,0.343-5.268c0.029-1.386,0.034-2.825-0.002-4.016c-0.036-1.2-0.113-2.351-0.245-2.813
								c-0.007-0.086-0.015-0.118-0.024-0.146c0.056-0.17,0.096-0.088,0.128,0.171c0.067,0.422,0.122,1.337,0.171,2.311
								c0.048,0.894,0.102,1.877,0.142,2.604c0.094,1.453,0.198,1.876,0.371-1.532c0.417,9.26,0.23,24.01-0.318,30.839l-0.684,1.143
								c-0.463,7.492,0.644,5.087,0.017,13.989c0.18-10.959-0.766,1.83-0.571-6.884c-0.324,2.775-0.691,0.038-0.886,8.765
								c0.659,7.301-0.799,9.202-0.23,16.104c-0.399,4.592-0.381-4.962-0.75,4.084c0.135,10.388,0.563,9.799,1.178,10.451
								c0.009-2.429,0.086-4.32,0.052-5.922c-0.021-1.602-0.087-2.911-0.156-4.165c-0.137-2.509-0.283-4.798-0.096-8.763
								l0.634,15.803c0.233-2.904,0.31-5.055,0.317-6.861c-0.022,3.171,0.048,5.866,0.223,8.174
								c0.119,1.314,0.228,2.526,0.329,3.646c-0.068-4.469,0.157-8.686,0.26-11.961c0.129-3.275,0.266-5.608,0.419-6.306l0.27,1.24
								c0.368-3.155,0.293-8.315,0.137-10.699c0.191-8.002-0.01-16.012,0.434-17.749l0.194,3.045
								c0.093-4.924,0.146-7.661,0.203-10.714c0.036-1.526,0.073-3.132,0.12-5.13C12.686,42.68,12.678,40.287,12.668,37.188z
								 M312.658,13.52c-5.957-1.157-12.529-2.189-40.362-2.183l2.19-0.063c-7.012-0.398-13.849-0.213-21.066-0.04
								c-7.217,0.161-14.813,0.479-23.345,0.109c8.281-0.461,7.834-0.42,16.978-1.427l-8.885,0.358
								c2.462-0.62-6.401-0.263-12.92-0.26l5.754-0.751c3.914,0.189,14.058,0.216,13.76,0.053c-1.111,0.058,2.237,0.229,6.923,0.455
								c4.686,0.224,10.709,0.42,14.951,0.344c-0.873-0.496-18.783-0.419-10.785-1.166c-7.049,0.275-7.923-0.191-15.291,0.016
								c7.066-0.37,1.75-0.676,7.01-1.058l-12.082,0.225c-0.315-0.162,17.596-0.447,7.696-1.002
								c-4.841,0.28-17.767,0.02-17.999,0.548l-0.297-0.161c-9.056-0.071-3.983,0.766-15.104,0.519
								c-0.131,0.266,1.99,0.439,5.974,0.365c3.367-0.133,3.883-0.499,10.818-0.606c3.109,0.398-8.365-0.011-3.55,0.664
								c2.392,0.336,18.309-0.388,13.236,0.42l-9.038-0.07c-0.231,0.529-6.777,0.531-6.593,0.956
								c-5.527,0.221-10.744-0.349-16.388,0.138c-2.343,0.353,1.75,0.968-7.589,0.736c-7.299-0.746-28.802-0.49-36.855-0.34
								l-7.047,0.371c0.601,0.321,13.467-0.108,8.943,0.334l-10.991,0.18l0.848-0.208c-3.643-0.027-7.367,0.208-10.689,0.34
								c3.422-0.396,11.345-0.282,9.769-0.825c-5.16-0.083-5.948-0.283-10.696-0.155c1.036-0.044,1.928-0.103,1.796-0.179
								c-10.447-0.188-10.084,0.664-12.702,0.855c-10.498,0.767,10.589,0.614,9.249,1.187l-30.658,0.45
								c2.618-0.191,5.253-0.381,4.263-0.603c-7.521-0.218-0.173-0.426-10.731-0.349c0.757,0.748-13.292,0.533-20.747,1.003
								c-3.487-0.292-4.205-0.35,3.416-0.396c-0.878-0.483-11.107-0.247-14.746-0.274c-2.106,0.131-5.699,0.22-7.976,0.339
								c3.054,0.229,1.753,0.54-4.85,0.78l-0.384,0.104c10.83,0.082,27.666,0.534,34.451,0.001l-1.917,0.251
								c12.537,0.362,27.27-1.008,33.055-0.113c-0.531,0.367,2.519,0.072,2.303,0.6l9.227-0.457l-1.918,0.248l15.698-0.195
								l-0.415,0.102c7.459-0.528,13.303-0.942,17.972-1.272c0.017-0.23-0.469-0.298,2.018-0.48c2.496-0.125,4.389-0.152,6.077-0.13
								c0.013,0,0.013,0,0.013-0.003v0.003c3.852,0.049,6.419,0.367,11.163,0.479l-14.598,0.127
								c-1.188,0.396,0.055,0.796,7.208,1.035c-2.924,0.029-4.147,0.339-0.528,0.367c0.397-0.104,9.564-0.295,6.071-0.59
								c13.867-0.209,36.315,0.709,57.369-0.135c-15.125,0.519,12.122,0.465-4.669,0.706c5.86,0.284,8.381,0.119,10.931-0.113
								c2.55-0.243,5.128-0.526,11.102-0.426c1.018,0.242-6.505-0.098-9.25,0.375c19.863,0.338,33.518-0.795,52.735-0.485
								l0.82,0.493C304.418,13.604,308.457,13.563,312.658,13.52z M350.678,13.171c3.698-0.03,7.45-0.061,11.263-0.091
								c-0.372-0.007-0.717-0.014-1.106-0.022l11.116-0.317c-6.827-0.237-11.322-0.803-1.764-0.987
								c-0.806,0.196,1.986,0.462-1.338,0.557c6.403,0.336,20.452,0.715,16.794-0.046c-12.313,0.612-2.86-0.957-12.535-0.506
								c5.193-0.445,10.333-0.193,15.236-0.375c-5.105,0.367,1.182,0.918,8.844,1.162c3.337-0.096,12.363,0.079,17.909-0.078
								c-1.972-0.464,2.857-0.688-6.174-0.864c3.314-0.096,8.444-0.154,14.188,0.116c-2.279,0.062-6.263,0.09-5.989,0.255
								c3.704,0.439,8.045,0.451,10.439,0.644c1.91-0.011,3.839-0.022,5.715-0.033c-0.56-0.043-1.044-0.098-1.389-0.164l6.353-0.354
								c-8.458,0.154-3.906-0.235-3.794-0.498c-0.233,0.526,5.442,0.106,8.337,0.108l-6.281-0.6
								c3.042-0.258,10.726,0.476,9.145-0.087c-13.338-0.312-18.468-0.252-30.532-0.168l4.893,0.465
								c-13.614,0.214-8.388-0.799-23.661-0.882c-6.352,0.352-22.968-0.129-23.289,0.661c1.917-0.229-9.505-0.769-14.74-0.446
								c-5.79,0.684-23.283,0.662-17.986,1.029c4.727,0.041,11.09-0.313,14.887,0.184l-9.169,0.088l6.013,0.436
								C348.952,12.193,349.252,12.581,350.678,13.171z M493.729,69.006c-0.007,0.101-0.017,0.232-0.025,0.354
								c0.007-0.136,0.013-0.267,0.02-0.394L493.729,69.006z"/>
							<path fill="#FFFFFF" d="M12.636,297.688c0.161,2.639,0.085,9.159,0.482,7.886C12.69,305.727,13.135,293.922,12.636,297.688z"
								/>
							<path fill="#FFFFFF" d="M12.164,305.48c0.099,0.46,0.264,0.143,0.258,3.068l-0.052-8.057L12.164,305.48z"/>
							<path fill="#FFFFFF" d="M9.184,313.619c0.273,4.157,0.424,6.791,0.324,13.31c-1.066,2.438-0.174-10.676-1.111-13.643
								c-0.228,11.95,0.64,15.628,0.622,25.458C9.504,333.877,9.97,313.986,9.184,313.619z"/>
							<polygon fill="#FFFFFF" points="7.918,308.298 8.09,314.944 8.159,314.289 7.984,307.639 							"/>
							<path fill="#FFFFFF" d="M16.153,164.267c0.315-0.617,0.004-4.682-0.077-6.879C16.057,159.175,15.964,161.661,16.153,164.267z
								"/>
							<path fill="#FFFFFF" d="M225.619,416.416c0,0-12.667,0.035-25.334,0.069c-12.689,0.092-25.378,0.183-25.378,0.183
								C189.498,416.596,202.97,416.528,225.619,416.416z"/>
							<path fill="#FFFFFF" d="M31.002,16.245c-1.198,0.048-2.337,0.093-3.428,0.137c-1.073,0.068-2.098,0.133-3.086,0.195
								c-0.996,0.054-1.895,0.185-2.799,0.269c-0.446,0.05-0.897,0.089-1.32,0.147l-0.609,0.109l-0.454,0.086
								c-0.884,0.168-1.753,0.401-2.481,0.842c-0.355,0.224-0.674,0.585-0.685,1.054c0.006,0.455,0.058,0.91,0.082,1.365
								c0.012,0.163,0.024,0.329,0.036,0.497l0.018,0.25l0.017,0.442c0.021,0.805,0.042,1.637,0.065,2.5
								c0.031,1.728,0.064,3.58,0.1,5.596c0.066-2.003,0.105-3.858,0.123-5.591c0.003-0.866,0.007-1.702,0.011-2.51
								c-0.005-0.378-0.009-0.744-0.014-1.098c-0.011-0.295-0.021-0.583-0.031-0.863c-0.021-0.282-0.012-0.575,0.127-0.812
								c0.3-0.46,0.8-0.661,1.258-0.857c0.244-0.08,0.484-0.158,0.722-0.236c0.243-0.056,0.483-0.111,0.722-0.167l0.195-0.043
								l0.359-0.067c0.244-0.04,0.467-0.099,0.728-0.124l1.546-0.172c4.141-0.45,8.679-0.56,14.674-0.322L31.002,16.245z"/>
							<path fill="#FFFFFF" d="M26.342,18.926c-1.092-0.271,1.404-0.545,4.049-0.725c2.63-0.19,5.343-0.328,4.347-0.552
								c-4.597,0.087-5.61,0.276-6.566,0.403c-0.477,0.064-0.914,0.132-1.734,0.195c-0.803,0.078-2.074,0.078-3.973,0.219
								c0,0,0.238,0.023,0.594,0.059c0.36,0.039,0.819,0.073,1.32,0.145C25.36,18.798,26.342,18.926,26.342,18.926z"/>
							<polygon fill="#FFFFFF" points="7.454,62.598 7.251,58.473 7.274,61.79 							"/>
							<polygon fill="#FFFFFF" points="88.232,18.015 86.729,18.16 93.553,18.321 							"/>
							<path fill="#FFFFFF" d="M85.227,18.308l1.502-0.148L85.227,18.308z"/>
							<polygon fill="#FFFFFF" points="6.29,57.275 5.988,63.385 6.185,66.417 							"/>
							<path fill="#FFFFFF" d="M23.839,10.859c0,0-0.346,0.021-0.873,0.08c-0.525,0.054-1.226,0.125-1.926,0.197
								c-0.697,0.062-1.4,0.146-1.938,0.25c-0.59,0.101-0.983,0.169-0.983,0.169c0.161-0.023,0.439-0.064,0.797-0.116
								c0.315-0.036,0.704-0.091,1.121-0.126c0.826-0.046,1.791-0.1,2.621-0.146C24.318,11.056,25.417,11.027,23.839,10.859z"/>
							<polygon fill="#FFFFFF" points="129.898,18.074 136.571,17.807 135.889,17.75 129.238,18.017 							"/>
							<path fill="#FFFFFF" d="M66.844,8.83c-3.795-0.452,10.948-0.18,3.144-0.558C63.048,8.378,65.867,8.61,66.844,8.83z"/>
							<path fill="#FFFFFF" d="M147.427,11.632c0.9-0.004,1.849-0.025,2.763-0.082C149.101,11.582,148.188,11.609,147.427,11.632z"
								/>
							<path fill="#FFFFFF" d="M147.427,11.632c-2.908,0.014-5.816-0.151-7.809-0.006C143.243,11.821,144.563,11.735,147.427,11.632
								z"/>
							<path fill="#FFFFFF" d="M180.737,11.363l-2.636-0.021c2.692-0.245,1.416-0.205-0.988-0.006
								c-2.794,0.029-2.636,0.177-2.968,0.28c-0.559,0.063-1.115,0.124-1.718,0.191c0.861-0.068,1.635-0.129,2.291-0.181
								C179.045,11.609,181.686,11.573,180.737,11.363z"/>
							<path fill="#FFFFFF" d="M304.447,19.334c-9.731-0.241-12.248-0.343-11.719-0.705c-9.238-0.179-7.807,0.459-13.379,0.567
								C289.804,19.198,291.939,19.38,304.447,19.334z"/>
							<path fill="#FFFFFF" d="M279.35,19.197c-1.171,0.001-2.29,0.002-3.649,0.004C277.222,19.223,278.349,19.215,279.35,19.197z"
								/>
							<polygon fill="#FFFFFF" points="141.785,7.558 147.834,6.97 145.613,7.059 							"/>
							<path fill="#FFFFFF" d="M318.89,19.617c-1.805-0.035-4.697-0.039-6.117-0.174C312.251,19.806,320.69,19.652,318.89,19.617z"
								/>
							<path fill="#FFFFFF" d="M281.375,12.203c-0.988-0.23-7.218-0.139-9.754-0.242C275.259,12.032,278.221,12.726,281.375,12.203z
								"/>
							<path fill="#FFFFFF" d="M346.82,18.301c-1.805-0.036-4.579-0.3-3.375-0.594C340.822,17.868,337.27,18.488,346.82,18.301z"/>
							<polygon fill="#FFFFFF" points="299.168,12.389 297.777,12.256 291.114,12.445 							"/>
							<path fill="#FFFFFF" d="M275.415,6.836c-7.496,0.385,11.888,1.132-1.021,1.413c16.649,0.569-1.275-0.626,11.007-0.472
								C278.208,7.582,274.685,7.006,275.415,6.836z"/>
							<path fill="#FFFFFF" d="M285.4,7.777c1.046,0.019,2.178,0.039,3.407,0.061C287.447,7.814,286.35,7.794,285.4,7.777z"/>
							<path fill="#FFFFFF" d="M390.863,11.253c-1.089,0.039-1.833,0.083-2.52,0.13C389.201,11.353,390.019,11.314,390.863,11.253z"
								/>
							<path fill="#FFFFFF" d="M324.632,7.685l-11.237,0.578c7.506-0.385,26.383-0.229,25.211-0.889
								c-6.113-0.174-13.47-0.051-16.492,0.209L324.632,7.685z"/>
							<path fill="#FFFFFF" d="M453.439,20.373l-4.854,0.225l6.056,0.117C452.908,20.606,456.052,20.148,453.439,20.373z"/>
							<path fill="#FFFFFF" d="M455.813,20.737l-1.171-0.022C454.899,20.733,455.271,20.742,455.813,20.737z"/>
							<path fill="#FFFFFF" d="M369.616,11.424c-3.628-0.07-6.531-0.073-9.842,0.021C361.146,11.577,370.187,11.753,369.616,11.424z
								"/>
							<path fill="#FFFFFF" d="M487.41,19.545c0,0-1.905-0.055-3.841-0.063c-1.944,0.009-3.89,0.018-3.89,0.018
								s2.121,0.01,4.242,0.02c2.112,0.025,4.178,0.121,4.178,0.121L487.41,19.545z"/>
							<path fill="#FFFFFF" d="M493.312,37.958l-0.23,1.377c0,0-0.018,0.417-0.043,1.043c-0.016,0.626-0.036,1.461-0.057,2.297
								c-0.041,1.67-0.082,3.34-0.082,3.34l0.207-1.4c0,0,0.04-1.665,0.081-3.33C493.222,39.621,493.311,37.958,493.312,37.958z"/>
							<path fill="#FFFFFF" d="M476.138,7.697c-2.753-0.008-5.181,0.173-6.715,0.348c-1.539,0.176-2.135,0.343-1.496,0.407
								l10.526-0.157c-2.705-0.498-3,0.03-9.077,0.002L476.138,7.697z"/>
							<path fill="#FFFFFF" d="M494.04,315.96c-0.412-2.341-0.556-13.853-0.248-14.466c0.187,1.543,0.507,7.777,0.597,3.853
								l-1.11-9.081c0.159-12.13,1.38,9.176,1.852,15.146c-0.257-12.34-0.92-15.982-1.311-29.112
								c0.041,3.875-0.095,6.329-0.214,8.38c-0.574,0.462-0.691-11.775-0.984-20.525c-0.097,5.579-0.406,2.362-0.755-1.689
								c-0.039-0.729-0.087-1.214-0.136-1.559c-0.042-0.471-0.082-0.916-0.123-1.375l0.031,1.05
								c-0.068-0.072-0.142,0.161-0.229,0.921c0.379,7.34,0.056,12.966,0.19,17.69c0.819-4.697,0.708,16.085,1.177,22.009
								l0.299,6.851l0.077,2.564c-0.09,0.519-0.244-0.207-0.55-4.111c0.288,3.259,0.542,14.141,0.816,13.127l0.686,24.82
								c-0.021,0.773-0.051,1.547-0.106,2.12c0.081,0.858,0.134,1.002,0.18,0.887c0,0,0.165,6.757,0.412,16.891
								c0.097,5.065,0.21,10.975,0.331,17.307c0.03,1.583,0.061,3.192,0.092,4.821l0.02,1.19c-0.014,0.232-0.02,0.465-0.021,0.698
								c-0.047,0.448-0.079,0.894-0.188,1.304c-0.376,1.641-1.232,3.182-2.936,4.754c-1.653,1.56-3.973,3.003-6.527,4.197
								c-2.548,1.212-5.328,2.208-8.114,3.04c-5.582,1.671-11.159,2.73-15.971,3.509c-4.825,0.767-8.916,1.245-11.785,1.557
								c-2.877,0.291-4.521,0.457-4.521,0.457c5.206-0.421,9.712-0.701,14.99-1.394c-3.915,0.886-1.738,0.629,1.119,0.203
								c2.86-0.418,6.361-1.076,5.274-0.563c-3.461,0.896-8.704,1.613-11.859,1.848c-1.131,0.455,3.373,0.145,2.906,0.563
								c6.633-0.733,10.325-1.763,13.896-2.852c1.782-0.557,3.533-1.143,5.557-1.836c2.022-0.691,4.344-1.464,7.113-2.561
								c-0.136,0.27-1.06,0.807-1.022,0.92c0.018,0.054,0.284,0.011,0.995-0.247c0.699-0.269,1.873-0.726,3.559-1.614
								c0,0-0.405,0.254-0.85,0.474c-0.438,0.229-0.874,0.456-0.874,0.456c2.784-1.403,4.486-2.51,5.684-3.343
								c0.623-0.404,1.05-0.782,1.484-1.075c0.372-0.323,0.727-0.579,1.012-0.837c0.569-0.516,1.023-0.974,1.454-1.66
								c0.433-0.68,0.829-1.604,1-2.993l0.459,0.295c0.061-0.256,0.123-0.525,0.146-0.82c0.037-0.29,0.099-0.587,0.099-0.915
								c0.017-0.322,0.056-0.65,0.029-1.011c-0.002-0.177-0.004-0.356-0.007-0.538c0.001-0.18-0.021-0.507-0.03-0.757
								c-0.079-2.156-0.166-4.508-0.254-6.879c-0.13-4.743-0.262-9.562-0.356-13.035l0.109,0.412
								c-1.043-19.484-0.357-10.94-1.17-32.832l0.878,10.063c0.076-7.561-0.661-9.248-0.736-14.673
								c0.113,0.386,0.464-0.883,0.701,4.237l-1.691-26.552C493.998,307.334,494.234,314.966,494.04,315.96z"/>
							<path fill="#FFFFFF" d="M493.819,282.299c-0.015-1.408-0.051-3.008-0.128-4.896
								C493.739,279.227,493.78,280.796,493.819,282.299z"/>
							<path fill="#FFFFFF" d="M437.534,413.795c0,0,1.861-0.145,3.723-0.288c1.856-0.162,3.712-0.324,3.712-0.324
								C442.666,413.372,440.265,413.57,437.534,413.795z"/>
							<path fill="#FFFFFF" d="M491.59,244.191c-0.154,4.623-0.471-3.447-0.693-4.247l0.446,16.534
								c0.201-0.08,0.476,1.549,0.651,1.211L491.59,244.191z"/>
							<path fill="#FFFFFF" d="M491.098,261.273c0.157,0.556,0.334,2.301,0.51,4.257l-0.265-9.052
								C491.191,256.539,491.083,257.558,491.098,261.273z"/>
							<polygon fill="#FFFFFF" points="501.884,259.219 501.986,262.142 502.27,266.559 							"/>
							<path fill="#FFFFFF" d="M502.34,304.965c0.205-3.502-0.228-10.12-0.372-12.333
								C502.207,300.266,501.991,296.961,502.34,304.965z"/>
							<polygon fill="#FFFFFF" points="505.357,295.43 505.752,302.784 505.792,302.097 							"/>
							<path fill="#FFFFFF" d="M381.851,417.534c-1.204,0.016-2.373,0.031-3.59,0.047
								C379.905,417.579,380.979,417.559,381.851,417.534z"/>
							<path fill="#FFFFFF" d="M444.468,414.811c-8.639,0.427-5.822,0.062-1.54-0.43c4.283-0.503,9.975-1.315,7.254-1.397
								c0,0-2.316,0.299-4.634,0.598c-2.33,0.267-4.659,0.532-4.659,0.532l0.779-0.266c0,0-2.854,0.232-5.709,0.464
								c-2.866,0.195-5.731,0.39-5.731,0.39c2.377,0.218,4.146,0.117,3.657,0.517c-7.671,0.401-8.899,0.298-9.603,0.194
								c-0.708-0.12-0.901-0.28-6.557-0.3c0,0-4.308,0.147-8.615,0.294c-4.317,0.106-8.634,0.213-8.634,0.213l1.396-0.134
								c-1.454,0.034-2.098,0.088-2.596,0.156c0,0-3.645,0.059-9.11,0.147c-5.478,0.042-12.781,0.099-20.085,0.155
								c-14.648,0.032-29.298,0.065-29.298,0.065c-10.678,0.282,5.905,0.662-1.971,1.193c12.379,0.014,30.726,0.45,31.771-0.292
								c-0.415,0.101-1.23,0.302,1.271,0.388l7.132-0.612l-6.801-0.179c3.588-0.301,11.167-0.43,18.361-0.491
								c7.194-0.059,14.004-0.063,16.092,0.069c-6.554,0.241-8.188,0.485-10.468,0.674c-2.28,0.185-5.207,0.313-14.375,0.164
								c0.824,0.183,4.184,0.488,0.055,0.61c10.744-0.153,20.918-0.242,31.156-0.566
								C423.241,416.635,433.56,416.101,444.468,414.811z"/>
							<path fill="#FFFFFF" d="M228.967,416.999l0.171-0.065C228.749,416.967,228.622,416.993,228.967,416.999z"/>
							<path fill="#FFFFFF" d="M236.194,417.113l10.501-0.678l-16.366,0.001l-1.192,0.497c1.447-0.123,7.187-0.356,9.41-0.153
								L236.194,417.113z"/>
							<path fill="#FFFFFF" d="M258.886,416.045c-8.453,0.185-7.997,0.776-3.388,1.061c-7.763,0.247-4.091-0.648-9.439-0.044
								c0.172,0.427,9.74,0.21,11.939,0.139L258.886,416.045z"/>
							<polygon fill="#FFFFFF" points="321.243,416.57 318.866,416.808 324.722,416.893 							"/>
							<path fill="#FFFFFF" d="M318.866,416.808l-5.813-0.086c0.402,0.183,0.8,0.361,1.748,0.488L318.866,416.808z"/>
							<path fill="#FFFFFF" d="M297.803,416.499c-2.46-0.035-5.183-0.075-8.495-0.123L297.803,416.499z"/>
							<path fill="#FFFFFF" d="M304.449,416.672l-0.196-0.077l-6.45-0.096C300.18,416.561,302.313,416.616,304.449,416.672z"/>
							<path fill="#FFFFFF" d="M313.054,416.722c-0.943-0.417-2.049-0.854-10.452-0.769l1.651,0.642L313.054,416.722z"/>
							<polygon fill="#FFFFFF" points="506.263,348.996 506.655,355.645 506.702,354.938 506.309,348.295 							"/>
							<path fill="#FFFFFF" d="M506.709,387.403c0.103,1.645,0.202,2.891,0.302,4.022
								C506.933,389.693,506.839,388.316,506.709,387.403z"/>
							<path fill="#FFFFFF" d="M493.163,417.048c-2.076,0.923-2.424,0.951-2.021,0.692c0.402-0.269,1.553-0.876,2.483-1.447
								c0.934-0.533,1.645-1.051,1.2-0.829c-0.217,0.108-0.728,0.364-1.657,0.829c-0.461,0.234-1.025,0.514-1.709,0.814
								c-0.684,0.321-1.484,0.672-2.42,1.047c-0.731,0.081,0.606-0.652,2.962-1.966c2.345-1.342,5.746-3.325,8.945-6.201
								c-0.111,0.385-1.639,1.817-2.66,2.6c-1.012,0.811-1.456,1.217,0.723-0.154c2.095-1.871,3.445-3.43,4.101-4.246
								c0.643-0.844,0.61-0.919-0.255-0.298c1.548-1.942,2.477-3.755,3.111-5.29c0.597-1.566,0.922-2.87,1.093-4.073
								c0.189-1.204,0.229-2.306,0.221-3.507c-0.014-0.298-0.027-0.604-0.042-0.921c-0.017-0.305-0.026-0.68-0.059-0.913
								c-0.052-0.533-0.106-1.112-0.168-1.759c0.021,0.576,0.045,1.192,0.07,1.844c0.012,0.322-0.004,0.813-0.01,1.229
								c-0.01,0.436-0.013,0.881-0.076,1.343c-0.138,1.838-0.634,3.865-1.471,5.845c-1.673,4.013-4.896,7.519-8.408,9.962
								c-3.52,2.512-7.316,4.275-10.902,5.698c-3.593,1.431-7.004,2.485-9.922,3.408c-6.387,2.185-2.24,2.122-2.036,3.072
								c0.524-0.006,5.116-0.946,9.678-2.482c2.28-0.774,4.545-1.658,6.263-2.512C491.913,417.996,493.073,417.281,493.163,417.048z
								"/>
							<path fill="#FFFFFF" d="M506.02,407.842c1.563-2.166,2.367-3.825,2.922-5.271c0.556-1.446,0.894-2.702,1.176-4.374
								c-0.126,0.21-0.262,0.689-0.421,1.356c-0.171,0.664-0.424,1.513-0.718,2.46C508.345,403.9,507.28,406.096,506.02,407.842z"/>
							<path fill="#FFFFFF" d="M420.412,423.081c-0.686,0.174-7.236,0.557-5.819,0.742c0,0,2.483-0.128,4.968-0.256
								c2.483-0.146,4.967-0.294,4.967-0.294C422.193,423.36,421.364,423.219,420.412,423.081z"/>
							<path fill="#FFFFFF" d="M428.883,422.986l-4.355,0.287C425.618,423.238,426.966,423.152,428.883,422.986z"/>
							<path fill="#FFFFFF" d="M419.937,423.016c0.158,0.021,0.3,0.041,0.476,0.065
								C420.551,423.046,420.523,423.019,419.937,423.016z"/>
							<path fill="#FFFFFF" d="M273.721,416.179c0.141-0.261-4.282-0.12-6.502-0.05
								C269.023,416.156,271.558,416.251,273.721,416.179z"/>
							<path fill="#FFFFFF" d="M107.105,417.188l-3.909-0.18C104.579,417.121,105.287,417.178,107.105,417.188z"/>
							<path fill="#FFFFFF" d="M46.83,424.521c-0.117,0.045-0.41,0.073-0.805,0.094C46.419,424.602,46.695,424.572,46.83,424.521z"
								/>
							<path fill="#FFFFFF" d="M46.025,424.615c-1.354,0.053-4.108-0.144-6.896-0.406c-2.789-0.257-5.607-0.606-7.123-0.651
								l0.392-0.047c0,0-1.395-0.135-2.79-0.314c-1.396-0.167-2.792-0.379-2.792-0.379c2.603,0.477,6.64,1.081,10.413,1.411
								C41.002,424.58,44.506,424.707,46.025,424.615z"/>
						</g>
					</g>
				</g>
			</g>
		</g>
	</g>
</g>
</svg>
