<?xml version="1.0" encoding="utf-8"?>
<!-- Generator: Adobe Illustrator 16.0.0, SVG Export Plug-In . SVG Version: 6.00 Build 0)  -->
<!DOCTYPE svg PUBLIC "-//W3C//DTD SVG 1.1//EN" "http://www.w3.org/Graphics/SVG/1.1/DTD/svg11.dtd">
<svg version="1.1" id="Layer_1" xmlns="http://www.w3.org/2000/svg" xmlns:xlink="http://www.w3.org/1999/xlink" x="0px" y="0px"
	 width="516px" height="324px" viewBox="0 0 516 324" enable-background="new 0 0 516 324" xml:space="preserve">
<g>
	<image overflow="visible" opacity="0.75" width="535" height="340" xlink:href="B50F871E.png"  transform="matrix(1 0 0 1 -6 -4)">
	</image>
	<g>
		<path fill="#F2F2F2" d="M500.333,19.201c-0.071-4.106-20.433-7.414-45.263-7.343c-47.726,0.137-97.01,0.741-143.272,0.438
			c-40.743-0.266-86.495-0.359-132.528-0.33C97.29,12.018,9.56,9.804,10.051,33.109c1.915,90.874,10.929,181.27,0,271.628
			c-0.491,4.062,29.097,2.968,35.114,3.023c144.706,1.322,289.919,1.429,434.704,0.313c5.041-0.038,10.502-0.104,14.28-0.598
			c4.804-0.63,5.123-1.704,5.086-2.651c-1.011-26.346,2.397-52.429,1.388-78.773c-0.361-9.391,0.36-17.815,0-27.205
			c-0.398-10.376-0.095-22.105-0.491-32.481C498.242,117.114,501.185,68.413,500.333,19.201z"/>
		<g>
			<g>
				<g>
					<g>
						<g>
							<path fill="#FFFFFF" d="M497.876,57.31c-0.019-3.5,0.256-6.545,0.407-5.229c-0.389-7.125,0.039-7.276-0.691-8.2
								c-0.366-4.569,0.122-9.446,0.427-4.247l-0.469-13.176l-0.101,7.879c-0.609-2.14,0.161-12.591-0.551-15.076l0.083,14.255
								l-0.202-0.711c0.222,3.244,0.142,9.55,0.061,11.748c-0.101-0.347-0.262-0.126-0.284-2.64
								c-0.009,8.603,0.259,9.764,0.557,10.559c0.275,0.797,0.683,1.22,0.656,8.379C497.768,59.954,497.793,58.843,497.876,57.31z"
								/>
							<path fill="#FFFFFF" d="M496.172,71.943l0.67,6.025l-0.348,10.09c0.261,0.119,0.362,7.474,0.668,2.5
								c-0.026-0.974-0.076-2.899-0.028-4.453c0.534,1.13,0.104,13.434,0.721,10.475c-0.071-7.996,0.102-9.212-0.295-14.135
								c0.163-7.318,0.374-12.646,0.632-16.06c-0.054-2.173-0.397-2.483-0.425-5.244c-0.002,0.611-0.004,1.172-0.006,1.875
								l-0.857,0.288c0.145,2.304,0.027,4.479,0.006,7.032l-0.818-11.825c-0.856,3.8-0.562,15.411-0.963,20.043
								C495.933,72.814,495.416,83.141,496.172,71.943z"/>
							<path fill="#FFFFFF" d="M497.767,61.142c0.001-0.076,0.002-0.202,0.002-0.29C497.769,60.939,497.768,61.065,497.767,61.142z"
								/>
							<path fill="#FFFFFF" d="M12.095,156.738c-0.088-2.509-0.311-3.243-0.423-3.602c0,0,0.208,7.063,0.417,14.126
								c0.154,7.062,0.309,14.124,0.309,14.124c0.206-0.888,0.32-9.032,0.563-3.597c0.196-2.431-0.149-9.815-0.505-10.879
								l0.401,2.04c-0.626-6.499,0.105-10.972,0.486-6.732l-0.021-0.55c0,0-0.551-4.497-1.103-8.993
								c-0.579-4.494-1.158-8.988-1.158-8.988C11.184,150.312,11.85,148.768,12.095,156.738z"/>
							<path fill="#FFFFFF" d="M460.634,10.346c-3.689,0.021-4.142,0.122-3.724,0.202C458.23,10.492,459.487,10.429,460.634,10.346z
								"/>
							<path fill="#FFFFFF" d="M10.516,139.488l-0.733-5.627C10.017,136.117,10.268,138.096,10.516,139.488z"/>
							<path fill="#FFFFFF" d="M19.666,178.446c0.028,0.011,0.054,0.072,0.089-0.078l-0.321-2.541
								c0.001,0.038,0.001,0.05,0.001,0.065C19.52,176.829,19.596,177.67,19.666,178.446z"/>
							<path fill="#FFFFFF" d="M24.091,14.544c0.623-0.211,1.161-0.379,1.902-0.6C25.299,14.137,24.673,14.34,24.091,14.544z"/>
							<path fill="#FFFFFF" d="M21.812,255.561c0,0,0.03-0.794,0.024-1.985c-0.001-1.19-0.003-2.778-0.005-4.366
								c-0.004-3.174-0.008-6.348-0.008-6.348c0.174,1.698,0.339-4.42,0.516-1.74c0.004-0.968,0.073-5.501-0.098-4.269l-0.079,2.587
								c-0.479-6.703-0.891-2.666-1.177-13.742c-0.573,6.859-0.201,9.876-0.033,13.526c-0.012,1.235-0.021,2.271-0.032,3.316
								l0.568,10.574c0,0,0.086,0.611,0.173,1.223C21.737,254.949,21.812,255.561,21.812,255.561z"/>
							<path fill="#FFFFFF" d="M285.271,14.646l-0.138,0.054C285.261,14.681,285.283,14.663,285.271,14.646z"/>
							<path fill="#FFFFFF" d="M284.583,14.922l0.551-0.223C284.458,14.81,281.868,14.911,284.583,14.922z"/>
							<path fill="#FFFFFF" d="M11.042,141.546c-0.136-0.167-0.32-0.886-0.526-2.058l0.545,4.2
								C11.055,143.089,11.048,142.298,11.042,141.546z"/>
							<path fill="#FFFFFF" d="M12.909,151.083l0.413,10.585l0.476,3.894C13.54,161.514,13.319,156.776,12.909,151.083z"/>
							<path fill="#FFFFFF" d="M6.688,24.874c1.194-1.811,2.426-2.941,3.46-3.862c1.047-0.877,1.934-1.473,2.663-1.952
								c1.457-0.894,2.286-1.276,2.661-1.434c0.752-0.292-0.301,0.323-1.714,1.315c-1.417,0.966-3.171,2.469-3.868,3.348
								C9.536,22.7,9.425,22.88,9.708,22.671c0.284-0.208,0.957-0.833,2.239-1.779c3.051-2.231,5.144-3.231,6.921-4.14
								c1.784-0.875,3.282-1.546,5.223-2.208c-4.464,1.473-6.592,2.512-7.543,2.843c-0.951,0.343-0.726,0.053-0.499-0.245
								c0.225-0.292,0.453-0.601-0.547-0.242c-0.504,0.215-1.311,0.537-2.594,1.312c-1.265,0.797-3.071,1.868-5.296,4.375
								c0.491-0.857,1.571-2.112,3.045-3.358c1.469-1.217,3.304-2.384,5.241-3.358c3.885-1.969,8.16-3.213,11.295-3.933
								c3.601-0.552,2.085-0.053-0.483,0.733c-2.572,0.784-6.253,2.183-6.934,2.846c3.665-1.432,5.148-1.849,6.103-2.227
								c0.957-0.37,1.375-0.603,2.881-1.182C40.229,9.501,52.138,7.445,58.935,7.79c8.103-0.801,7.542-1.041,12.184-1.691
								c0.443-0.39-2.576-0.322-6.097-0.152c-3.52,0.163-7.542,0.446-9.084,0.309c0.634,0,1.867,0.015,1.521,0.149
								c0,0-1.768,0.126-3.537,0.253c-1.773,0.148-3.546,0.295-3.546,0.295c6.74-0.447-0.851,0.783-4.435,1.317
								c-2.608,0.326-7.826,1.191-7.142,0.886c0,0,0.99-0.198,1.979-0.396c0.988-0.186,1.977-0.371,1.977-0.371
								c-5.165,0.504-11.213,2.343-16.832,3.487c-0.332-0.09,1.743-0.718,2.035-0.888c-3.039,1.031-6.059,2.018-9.524,3.517
								c-1.731,0.76-3.583,1.666-5.598,2.936c-0.502,0.31-1.015,0.654-1.541,1.048c-0.521,0.364-1.056,0.793-1.596,1.258
								c-1.076,0.91-2.193,2.042-3.241,3.47c0,0,0.27-0.461,0.716-1.045c0.442-0.63,1.058-1.354,1.698-2.054
								c1.276-1.359,2.61-2.438,2.61-2.438c-0.928,0.752-2.017,1.616-3.208,2.845c-0.594,0.573-1.206,1.317-1.82,2.071
								c-0.295,0.423-0.595,0.854-0.901,1.293c-0.299,0.441-0.569,0.969-0.846,1.47c-1.084,2.064-1.821,4.726-1.816,7.344
								l-0.007,0.494l0.008,0.303l0.02,0.557c0.012,0.373,0.024,0.749,0.037,1.127c0.021,0.758,0.042,1.526,0.063,2.303
								C3.169,43.7,3.151,50.419,3.143,55.91c0.082-1.221,0.096-3.417,0.279-2.104c0.385,6.439,0.051,11.326-0.429,8.353
								c0.789,6.279,0.382,23.997,1.518,32.524l5.271,39.178c-0.15-1.469-0.288-3.041-0.384-4.664
								c0.493-3.599,0.339-5.522,1.186,0.718c-0.581-6.136-0.993-3.766-1.391-13.003c0.465,3.611,1.236,4.498,0.943-4.358
								c-1.541-22.106-4-36.703-5.578-57.405c0.235-0.391,0.164-4.65,0.087-9.81c-0.053-2.579-0.11-5.381-0.165-8.033
								c-0.027-1.326-0.053-2.615-0.078-3.819l-0.004-0.225l0.006-0.341c0.009-0.241,0.018-0.479,0.027-0.715
								c0.013-0.471,0.056-0.933,0.142-1.389c0.122-0.915,0.373-1.756,0.629-2.538c-0.255,1.224-0.541,2.778-0.436,4.472
								c0.004,0.494,0.041,0.712,0.067,1c0.026,0.284,0.052,0.576,0.08,0.875c0.046,0.598,0.095,1.226,0.146,1.876
								c0.183,2.604,0.323,5.595,0.455,8.64c-0.039-1.912-0.091-4.514-0.147-7.249c-0.03-1.367-0.061-2.768-0.09-4.131l-0.011-0.51
								l0.02-0.751c0.019-0.514,0.039-1.02,0.136-1.527c0.135-1.011,0.42-1.978,0.751-2.86c0,0,0.039-0.811,0.167-1.628
								c0.082-0.402,0.164-0.804,0.225-1.105C6.635,25.074,6.688,24.874,6.688,24.874z"/>
							<path fill="#FFFFFF" d="M7.354,79.35c0.023-0.556,0.025-1.13,0.026-1.719C7.351,77.946,7.339,78.459,7.354,79.35z"/>
							<path fill="#FFFFFF" d="M5.548,47c0.021,0.076,0.034,0.049,0.055,0.075c-0.029-0.639-0.058-1.278-0.087-1.932
								C5.527,45.797,5.54,46.537,5.548,47z"/>
							<path fill="#FFFFFF" d="M11.962,136.322c0.164,1.311,0.284,2.275,0.447,3.586c-0.065-0.808-0.148-1.821-0.227-2.796
								C12.083,136.184,12.001,135.744,11.962,136.322z"/>
							<path fill="#FFFFFF" d="M11.259,140.779l-0.226-0.694c0.003,0.565,0.006,0.962,0.009,1.462
								C11.156,141.695,11.241,141.528,11.259,140.779z"/>
							<path fill="#FFFFFF" d="M92.243,11.077l2.104-0.163C93.078,10.955,92.532,11.014,92.243,11.077z"/>
							<path fill="#FFFFFF" d="M32.103,12.907c-3.89,0.888-4.081,1.195-4.67,1.509c-0.294,0.167-0.691,0.374-1.697,0.723
								c-1.006,0.369-2.623,0.861-5.364,1.91c0,0,0.809-0.31,1.617-0.576c0.808-0.264,1.616-0.524,1.616-0.524
								c-1.941,0.719-4.26,1.601-6.773,2.868c-1.254,0.657-2.56,1.371-3.867,2.313c-1.301,0.934-2.629,2.014-3.81,3.458
								c-1.177,1.423-2.196,3.221-2.696,5.208c-0.25,0.987-0.381,2.001-0.389,2.987l-0.01,0.371l0.004,0.269l0.012,0.512
								c0.008,0.34,0.016,0.679,0.024,1.017c0.068,2.698,0.133,5.28,0.191,7.586c-0.318-1.034-0.21,5.604-0.689,4.537
								c0.267,6.305,0.607,12.539,1.17,15.77c-0.036,3.911,0.612,9.82,0.606,14.786c0.193-2.104,1.193,7.024,0.398-5.03
								c0.075,0.973,0.114,0.359,0.188,1.32c0.073-7.786-0.655-10.884-0.889-17.584c0.136-4.014,0.651,6.537,0.634,2.753
								c-0.577-8.355-0.396-26.271-1.414-25.694c-0.011-0.157-0.005-0.447,0.002-0.702c0.009-0.256,0.018-0.505,0.026-0.747
								C6.341,31.463,6.447,31,6.51,30.568c0.058-0.437,0.195-0.831,0.302-1.208c0.11-0.377,0.221-0.729,0.369-1.038
								c0.266-0.638,0.533-1.176,0.82-1.613c0.267-0.46,0.529-0.831,0.787-1.135c1.004-1.264,1.697-1.752,2.574-2.447
								c1.01-1.074,2.37-2.173,3.955-3.15c1.586-0.965,3.391-1.827,5.297-2.58c3.817-1.51,8.041-2.563,11.94-3.355
								c7.804-1.572,14.353-2.219,14.226-2.929c-3.54,0.498-9.345,1.299-14.503,2.731L32.103,12.907z"/>
							<path fill="#FFFFFF" d="M11.388,123.517c-0.014-0.469-0.033-1.095-0.045-1.485C11.356,122.471,11.373,123.017,11.388,123.517
								z"/>
							<path fill="#FFFFFF" d="M9.354,219.69l-0.888-3.185c-0.031-9.04-0.052-15.193-0.071-21.063
								c-0.009-2.937-0.017-5.803-0.026-8.923c-0.057-3.123-0.119-6.5-0.191-10.457c0.1-1.212,0.216,0.707,0.276,1.68
								c-0.069-2.782-0.146-5.91-0.227-9.163c-0.098-3.255-0.2-6.636-0.299-9.921c-0.189-6.569-0.491-12.768-0.836-16.816
								c-0.108-3.544-0.185-12.871,0.216-9.356c-0.148-1.724-0.304-3.695-0.354-5.683c0.304-0.539,0.27,4.441,0.54,4.545
								c-0.041-1.575-0.002-2.191-0.119-2.55c0.378,2.638,1.004-2.791,1.448,9.565c-0.581,4.812-0.402-8.565-1.139-5.709
								c0.158,4.099,0.456,3.609,0.572,3.956c0.167,5.221-0.048,5.091-0.25,4.82c0.329,1.991,0.205,8.568,0.691,11.317
								c0.358,10.143-0.644-0.532-0.443,6.092l0.958,3.794c0,0,0.04,2.756,0.079,5.512c0.021,2.754,0.041,5.508,0.041,5.508
								c0.601,15.938,1.457-2.313,2.226,15.914c-0.463-2.389-1.142,4.931-1.243,13.408c-0.097-5.075-0.666-14.439-0.565-20.995
								c-0.479,9.245-0.335-12.707-0.999-7.899c0.44,4.554,0.687,12.165,0.51,18.094l-0.095-1.942
								c-0.057,6.302,0.957,11.076,0.54,19.772c0.007,4.322-0.229,3.511-0.423,2.749C9.391,216.411,9.542,219.682,9.354,219.69z
								 M9.22,210.277l0.112-5.778C9.185,205.871,9.18,208.024,9.22,210.277z"/>
							<path fill="#FFFFFF" d="M496.029,153.336c0.012-0.58,0.026-1.247,0.037-1.773
								C496.034,151.951,496.028,152.623,496.029,153.336z"/>
							<path fill="#FFFFFF" d="M136.434,304.012l3.364,0.045C138.484,304.021,137.407,304.012,136.434,304.012z"/>
							<path fill="#FFFFFF" d="M211.953,301.584l4.915-0.174C214.928,301.413,213.408,301.484,211.953,301.584z"/>
							<path fill="#FFFFFF" d="M496.608,193.465l-0.003,0.166c0.021,0.276,0.035,0.488,0.057,0.78L496.608,193.465z"/>
							<path fill="#FFFFFF" d="M363.394,303.465c0.749,0.068,1.59,0.131,2.739,0.177
								C365.995,303.558,364.972,303.501,363.394,303.465z"/>
							<path fill="#FFFFFF" d="M211.047,301.616c0.126,0.008,0.199,0.012,0.298,0.018c0.191-0.016,0.401-0.033,0.607-0.05
								L211.047,301.616z"/>
							<path fill="#FFFFFF" d="M103.188,301.376c-0.722,0.024-1.379,0.047-2.154,0.073
								C102.049,301.438,102.672,301.409,103.188,301.376z"/>
							<path fill="#FFFFFF" d="M107.915,303.802c-0.775,0.018-1.517,0.04-2.094,0.074L107.915,303.802z"/>
							<path fill="#FFFFFF" d="M17.813,287.734l0.253-4.563C17.896,285.41,17.833,286.75,17.813,287.734z"/>
							<path fill="#FFFFFF" d="M95.931,303.188c-0.264,0.038-0.527,0.075-0.704,0.112C95.854,303.276,96.152,303.228,95.931,303.188
								z"/>
							<path fill="#FFFFFF" d="M498.188,124.453c0,0.103,0,0.214,0,0.275l0.098,0.115L498.188,124.453z"/>
							<path fill="#FFFFFF" d="M497.061,113.423c-0.011-1.3-0.021-2.654-0.031-3.985
								C497.01,110.917,497.021,112.359,497.061,113.423z"/>
							<path fill="#FFFFFF" d="M429.196,304.599c1.2,0.118,4.016,0.256,2.702,0.399
								C434.193,304.813,434.038,304.385,429.196,304.599z"/>
							<path fill="#FFFFFF" d="M503.741,146.467c-0.127-0.717-0.23-1.609-0.332-2.506
								C503.562,145.63,503.689,147.092,503.741,146.467z"/>
							<path fill="#FFFFFF" d="M503.409,143.961c-0.079-0.825-0.164-1.706-0.234-2.444
								C503.244,142.377,503.323,143.202,503.409,143.961z"/>
							<path fill="#FFFFFF" d="M398.718,311.739c-0.298-0.057-0.761-0.103-1.388-0.116
								C397.515,311.737,398.015,311.761,398.718,311.739z"/>
							<path fill="#FFFFFF" d="M497.196,106.219c-0.195-0.715-0.466-18.051-0.711-3.477c-0.616-0.566-0.217-9.364-0.301-13.238
								c-0.189,2.814-0.383-1.407-0.62-0.556c0.046,1.924,0.19,4.212,0.12,7.401c-0.298,1.464-0.461-3.385-0.287-7.145
								c-0.401,4.635-0.41-5.896-0.763,0.667c0.055,14.069,0.208,24.04,1.023,33.936c-0.073-8.023-0.173-17.002,0.144-23.581
								l0.518,2.772c-0.551,7.432-0.239,12.026-0.36,19.34l0.449-16.428c0.527-7.69,0.581-2.541,0.621,3.525
								C497.05,107.946,497.097,106.597,497.196,106.219z"/>
							<path fill="#FFFFFF" d="M501.861,117.31l0.019-0.274c-0.018-0.241-0.027-0.538-0.049-0.691L501.861,117.31z"/>
							<path fill="#FFFFFF" d="M6.779,287.535l-0.085-1.413C6.695,287.295,6.718,287.659,6.779,287.535z"/>
							<path fill="#FFFFFF" d="M499.132,127.083v-0.011C499.137,127.183,499.137,127.209,499.132,127.083z"/>
							<path fill="#FFFFFF" d="M27.322,312.939c-0.051,0.014-0.103,0.028-0.192,0.043C27.259,312.969,27.259,312.953,27.322,312.939
								z"/>
							<path fill="#FFFFFF" d="M36.739,301.244c-0.064-0.025-0.083-0.048-0.235-0.072C35.765,301.208,36.123,301.231,36.739,301.244
								z"/>
							<path fill="#FFFFFF" d="M27.351,312.89c0,0.017,0.022,0.033-0.028,0.05C27.35,312.923,27.413,312.906,27.351,312.89z"/>
							<path fill="#FFFFFF" d="M197.925,311.601c0,0-0.538-0.097-1.386-0.19C196.21,311.459,196.539,311.52,197.925,311.601z"/>
							<path fill="#FFFFFF" d="M164.271,310.63c-0.213-0.022-0.34-0.035-0.615-0.063L164.271,310.63z"/>
							<path fill="#FFFFFF" d="M421.225,302.176c-1.665-0.002-2.914,0.017-3.968,0.044
								C418.471,302.229,419.785,302.223,421.225,302.176z"/>
							<path fill="#FFFFFF" d="M27.13,312.982c-0.361,0.051-0.874,0.101-1.723,0.149C26.343,313.08,26.835,313.029,27.13,312.982z"
								/>
							<path fill="#FFFFFF" d="M249.247,309.105c-0.359,0.019-0.695,0.036-1.036,0.055c0.207,0.01,0.413,0.021,0.615,0.03
								L249.247,309.105z"/>
							<path fill="#FFFFFF" d="M266.809,309.556c-0.6,0.063-0.875,0.129-1.211,0.187c6.269-0.248,17.784-0.043,19.148-0.626
								c-2.128,0.021-13.155-0.28-11.275-0.625c-4.37,0.151-10.828-0.205-13.182-0.139c7.173,0.334,0.775,0.5-4.068,0.663
								c-4.404-0.19,0.829-0.462-2.963-0.588l-10.19,0.015l8.876,0.12l-2.697,0.543c0.328-0.018,0.554-0.029,0.905-0.049
								C265.171,308.855,251.427,309.914,266.809,309.556z"/>
							<path fill="#FFFFFF" d="M265.598,309.742c-0.939,0.038-1.765,0.083-2.406,0.145
								C264.608,309.873,265.158,309.814,265.598,309.742z"/>
							<path fill="#FFFFFF" d="M326.959,310.446c0.771-0.028,1.607-0.06,2.658-0.098
								C329.117,310.367,327.956,310.409,326.959,310.446z"/>
							<path fill="#FFFFFF" d="M13.889,173.091c-0.159,0.268-0.321,9.016,0.104,8.852c-0.007-2.596-0.015-5.211-0.023-7.838
								L13.889,173.091z"/>
							<path fill="#FFFFFF" d="M493.831,306.855c-0.904,0.083-1.813,0.165-2.721,0.248c-0.203,0.036-0.399,0.072-0.552,0.1
								C491.172,307.248,492.938,306.972,493.831,306.855z"/>
							<path fill="#FFFFFF" d="M276.175,308.28c-1.604,0.071-2.318,0.141-2.704,0.211
								C274.51,308.453,275.468,308.395,276.175,308.28z"/>
							<path fill="#FFFFFF" d="M494.785,307.744c0.666-0.041,1.5-0.115,2.204-0.243c0.714-0.095,1.271-0.293,1.465-0.268
								c0.229-0.126,0.444-0.263,0.656-0.391c0.177-0.171,0.385-0.316,0.507-0.522c0.307-0.397,0.303-0.879,0.289-1.333
								c-0.035-0.917-0.069-1.81-0.107-2.775c-0.033-0.563-0.069-1.158-0.107-1.8c0.019,0.572,0.037,1.16,0.058,1.784
								c-0.006,0.658-0.011,1.339-0.017,2.042c-0.041,0.681,0.114,1.475-0.45,2.046c-0.526,0.559-1.303,0.788-2.053,1.035
								c-0.392,0.086-0.79,0.173-1.193,0.261C495.625,307.634,495.208,307.688,494.785,307.744z"/>
							<path fill="#FFFFFF" d="M499.679,300.188c0.005,0.077,0.009,0.155,0.013,0.225
								C499.687,300.334,499.684,300.265,499.679,300.188z"/>
							<path fill="#FFFFFF" d="M13.955,167.885c-0.051-0.751-0.104-1.525-0.157-2.322l0.149,1.207
								c-0.015-2.013-0.03-4.014-0.044-6.019c-0.041-0.725-0.085-1.51-0.14-2.475c0.026,0.389,0.081,0.689,0.133,0.875
								c-0.002-0.653-0.004-1.292-0.006-1.929c-0.552-4.777-1.337-16.682-1.708-20.109c-0.354-4.541-0.693-10.103-0.794-13.595
								c0.12,3.236,0.378,7.528,0.572,6.229c-0.007-6.58,0.61-9.804-0.496-21.12l0.286,6.651l-1.57-14.917
								c0.177-5.256,0.782,7.445,1.211,9.507c-0.952-11.612-0.097-21.34-1.136-26.7c0.459-0.779,1.224-2.086,0.884-9.718
								c-0.347,5.525-0.533-4.564-0.956-0.025c-0.384-2.628-0.146-8.524-0.517-8.951l0.226,0.708
								c0.33-13.066-1.006-17.297-1.534-22.873c-0.068-1.953-0.132-3.774-0.193-5.491c-0.026-0.858-0.051-1.69-0.075-2.5
								c-0.011-0.407-0.021-0.809-0.031-1.205c0.02-0.481,0.017-0.956,0.071-1.424c0.214-1.886,0.963-3.599,1.924-4.959
								c0.964-1.37,2.104-2.452,3.283-3.334c2.363-1.782,4.849-2.951,7.464-4c2.627-1.02,5.416-1.876,8.562-2.69
								c0.585,0.184,4.188,0.195,9.229-0.703c1.137-0.426,4.563-1.15,7.858-1.745c3.293-0.605,6.45-1.124,7.011-1.464
								c-4.586,0.361-6.443,0.73-7.83,1.081c-1.387,0.353-2.308,0.685-5.019,1.179c-2.313,0.066-2.442-0.037-2.772-0.104
								c-0.331-0.056-0.863-0.077-4,0.372c2.523-0.422,8.171-1.499,13.908-2.22c5.734-0.756,11.542-1.225,14.316-1.162l-1.938,0.232
								c4.409-0.188,7.054,0.082,10.414,0.164c3.362,0.09,7.436,0.005,14.733-0.688l6.969-0.57c-0.335,0.066-0.371,0.134-0.549,0.19
								c11.429-0.226,8.319,0.481,20.923-0.207c-0.974,0.05-0.362,0.105-1.351,0.155c7.19,0.23,14.434-0.447,19.868-0.595
								c3.318,0.464-0.786,0.466-2.836,0.817c12.641,0.134,26.283-0.639,34.133-1.206l8.146,0.288
								c-4.831,0.191-10.737,0.679-9.263,0.967c4.48-0.088,3.614-0.312,9.95-0.215c-1.081,0.302-3.74,0.581-6.719,0.957
								c13.105,0.52,2.93-1.067,12.101-0.135c4.118,0.002,6.508-0.423,6.959-0.791l7.46,0.497
								c0.829-0.463,10.038-0.467,16.073-0.522c0.738-0.199-4.858-0.508-7.146-0.334c0.451-0.364,6.873-0.52,11.002-0.502
								c1.511,0.979,27.037-0.074,22.153,1.063c18.549-0.271,44.608-0.305,56.854-0.682c4.036,0.28,12.264,0.314,7.329,0.76
								c14.933,0.064,22.638-0.989,37.454-0.765c1.226,0.118-6.698,0.029-6.173,0.353c9.688-0.42,17.62,0.359,32.65,0.053
								c-2.528,0.025-3.267,0.229-3.618,0.332c-0.263-0.161,6.158-0.354,10.047-0.523c2.184,0.077-2.911,0.126-1.686,0.247
								c29.031,0.385,51.149-1.009,80.021-1.053c-8.245,0.013-11.361,0.668-11.448,0.933l8.078-0.013
								c3.116-0.329,9.168-0.358,14.257-0.598c0.626,0.119,3.101,0.28,0.573,0.406c8.001,0.394,14.242,0.411,20.974,0.708
								c3.363,0.167,6.848,0.401,10.72,0.986c1.936,0.3,3.968,0.687,6.136,1.304c1.085,0.326,2.202,0.696,3.378,1.261
								c0.584,0.271,1.197,0.636,1.824,1.118l0.48,0.44c0.158,0.148,0.326,0.382,0.478,0.58c0.312,0.435,0.582,1.08,0.613,1.82
								c0,0-0.014-0.217-0.103-0.615c-0.037-0.212-0.122-0.415-0.24-0.639c-0.062-0.112-0.127-0.232-0.197-0.361
								c-0.073-0.111-0.155-0.202-0.243-0.311c-0.717-0.857-1.731-1.417-2.873-1.889c-2.292-0.927-5.264-1.505-8.245-1.939
								c-2.978-0.416-5.95-0.668-8.179-0.81c-2.229-0.141-3.714-0.196-3.714-0.196c0,0,1.448,0.268,2.896,0.535
								c1.445,0.277,2.881,0.588,2.881,0.588c0,0-2.6-0.204-5.199-0.312c-2.601-0.115-5.2-0.15-5.2-0.15
								c6.146,0.778,11.581,0.74,12.25,1.351c-1.311-0.071-4.429-0.514-4.56-0.25c2.934,0.442,4.512,0.653,5.918,0.802
								c1.404,0.155,2.636,0.257,4.809,0.704c-5.791-0.867-14.45-1.611-23.222-1.896c-4.386-0.148-8.796-0.195-12.882-0.146
								c-4.111,0.069-7.898,0.132-11.017,0.184c-1.963,0.084,1.681-0.246,2.027-0.348c-5.092,0.049-8.148-0.252-14.558-0.06
								c-3.98,0.433,3.037,0.3,6.196,0.334c-0.435,0.368-2.023,0.351-5.542,0.417c-0.765-0.486-19.314-0.114-23.85-0.696
								c-18.798,0.211,3.007,1.255-15.346,1.099l-5.48-0.542c-10.655,0.464-24.437,0.889-36.492,0.807l2.54-0.025
								c1.693-0.244-1.103-0.383-2.34-0.501c-9.109-0.211-17.3,0.492-22.816-0.05c-5.196,0.309-12.128,0.602-19.243,0.827
								c-7.115,0.179-14.415,0.362-20.354,0.512c-3.2-0.745,15.496-0.586,20.441-1.034l-10.812-0.024
								c6.684,0.005,9.323-0.262,13.333-0.681c-9.475-0.15-12.595,0.479-21.579,0.646c0.7-0.199-0.498-0.325-4.642-0.341
								l-1.18,0.486c-0.076-0.04-0.534-0.079-1.813-0.113l-15.983,0.259c3.39,0.218,3.553,0.644,7.681,0.66
								c-1.473-0.289,2.029-0.337,6.161-0.319c-3.621,0.311,4.028,0.279,3.938,0.543c-8.282-0.034-18.46,0.007-23.892,0.127
								l-1.762-0.455c-7.894-0.133-16.231,0.097-21.585-0.047l1.688-0.235c-9.471-0.162-18.797,0.105-27.206-0.355
								c-8.448,0.494-19.084,0.896-25.988,1.417c-3.687,0.561-24.807-0.75-34.326,0.043c-0.642-0.063,6.542-0.428,9.793-0.642
								c-6.337-0.101-11.375,0.615-13.359,0.001c14.216,0.225-0.764-0.489,5.641-0.655c-6.657,0-13.673,0.109-16.936,0.332
								c10.767-0.01-3.824,0.845,7.077,0.577c-8.448,0.511-19.965,0.732-30.013,0.64c0.097-0.263-1.144-0.377-4.89-0.437
								l-3.015,0.426c-4.701,0.001,9.081-0.587-0.382-0.583c-4.862,0.403-12.187,0.459-18.816,0.664
								c-6.63,0.193-12.562,0.549-14.644,1.273c-3.696-0.021-0.202-0.362,2.836-0.646c3.037-0.284,5.612-0.551,0.028-0.578
								c6.458-0.78,15.44-0.554,17.565-1.21c-6.366,0.358-2.341-0.443-6.453-0.318l-7.086,0.65l1.571-0.042
								c-11.854,1.082-30.788,1.834-45.44,4.86c-3.066,0.765-5.837,1.606-8.42,2.561c-2.572,0.959-4.995,2.012-7.165,3.291
								c-2.141,1.255-4.104,2.844-4.911,4.398c-0.103,0.19-0.206,0.378-0.258,0.567c-0.09,0.184-0.126,0.375-0.172,0.562
								c-0.078,0.181-0.043,0.39-0.096,0.58c-0.003,0.229-0.007,0.461-0.011,0.696c0.05,1.75,0.103,3.583,0.158,5.518
								c-0.474-4.564-0.015,12.872-0.918,3.138c-0.152,7.177,0.465,14.247,0.735,14.379c-0.113-6.312,0.001-2.222-0.024-7.539
								C15,52.21,15.273,60.478,15.172,63.88c-0.029-1.575-0.07-0.974-0.182-1.318c0.034,7.54,0.439,3.599,0.774,9.038
								c-0.376,1.745,0.327,12.024,0.311,17.01l0.934,7.188c-0.582-3.946,0.129,6.917-0.208,8.073
								c0.507,5.165,1.216,9.48,1.418,17.372c-0.348-3.25-0.031,7.209-0.451,7.363c0.114,13.521,2.006,22.337,1.749,35.174
								c-0.111-0.396-0.466-2.974-0.464,0.774c0.22,2.944,0.276,8.114,0.381,11.272l-0.014-0.1c0.006,0.062,0.009,0.1,0.016,0.165
								c0.054,1.546,0.126,2.518,0.23,2.554c0.28,2.699,0.492,4.748,0.772,7.446c0.229,2.703,0.453,6.063,0.677,11.391
								c0.47-0.784,0.239-9.788-0.006-13.678l-0.549-3.355c0.668-3.229-0.314-9.6-0.128-12.052
								c0.509,3.182,0.786,9.377,1.046,16.153c0.212,6.781,0.35,14.15,0.646,19.678c0.337-3.372,0.467-8.725,0.52-14.836
								c0.051-6.112-0.133-12.967-0.286-19.359l-0.18,5.637l-0.146-6.688l-0.387,6.484c-0.014-6.339-0.332-11.801-0.464-17.52
								c0.204,6.694-0.394,9.319-0.396,5.53c0.256-7.472-0.523-7.766-0.687-13.461c0.075,3.171,0.167,7.3-0.184,4.648
								c0.21-11.249-0.272-14.272-0.042-24.498c-0.765,1.297-0.583-12.745-1.317-14.242l0.124,4.734l-0.903-10.013
								c0.278-9.284,1.015,8.167,0.899-5.937c-0.451-12.996-1.298-12.623-1.768-22.831c0.607,3.343,1.361,11.425,1.683,19.664
								l0.027-4.999c0.385,2.625,0.801,14.035,1.008,19.728c-0.943-9.383,0.016,4.407-0.255,8.711
								c0.498,0.769,0.185-5.273,0.842,1.849c-0.274-6.686-0.348-7.666-0.527-16.169c0.529,18.385,2.313,16.457,2.497,32.542
								c-0.473-7.401-0.581,2.607-0.775,3.506c0.195,3.48,0.511,10.556,0.708,13.464l0.597-2.656
								c0.282,4.684,0.089,7.851-0.047,11.196c-0.159,3.348-0.277,6.874,0.181,12.284c0.432,1.401-0.055-9.532,0.063-7.585
								c0.741,14.815-0.309,20.188-0.778,33.359c0.199,0.746,0.626,0.591,0.961,5.207c-0.397-1.451-0.621,1.96-0.892-3.229
								c-0.206,4.407,0.112,9.628,0.188,13.522c0.198-4.59,0.308-3.648,0.438-1.349c0.099,2.302,0.17,5.966,0.273,6.815
								c-0.166,4.76-0.373-1.46-0.43-4.389c-0.187,3.82-0.876,8.344-0.315,10.527c-0.214,0.07-0.439-2.606-0.606-6.183
								s-0.259-8.052-0.325-11.586c0,0-0.022,1.191-0.045,2.382c-0.028,1.191-0.055,2.383-0.055,2.383
								c-0.183-3.286-0.133-3.898-0.04-8.628c-0.352,4.628-0.713,4.166-1.012,3.086c0.065-0.605,0.1,0.339,0.163-0.24
								c0.126-3.806,0.024-6.726-0.207-5.844c-0.556-3.422-0.382,5.276-0.679,7.85c0.035,1.947,0.057,3.896,0.045,5.807
								c0,0,0.357,4.954,0.715,9.907c0.18,2.479,0.367,4.96,0.449,6.822c0.1,1.862,0.167,3.104,0.167,3.104
								c-0.057,4.236-0.232,7.302-0.459,10.101c-0.22,2.798-0.596,5.328-0.909,8.496l0.387,1.772
								c-0.253,3.681-0.486,7.256-0.775,9.313c-0.292,2.057-0.532,2.597-0.648,0.22c0.186-0.253,0.236-1.227,0.344-2.822
								c-0.054-0.216-0.079-0.587-0.09-1.055c-0.026-0.154-0.042-0.242-0.064-0.37c-0.118,3.945-0.397,7.143-0.512,9.417
								c-0.135,2.272-0.215,3.617-0.229,3.844c0.389-13.418-0.834-0.737-1.518-3.046c0,0-0.207,3.373-0.413,6.746
								c-0.101,1.688-0.2,3.375-0.325,4.637c-0.109,1.264-0.182,2.105-0.182,2.105c1.151-8.125,0.44-0.108,0.246,2.801
								c-0.158,0.206-0.317,1.12-0.477,2.437c-0.061,0.568-0.131,1.223-0.207,1.931c-0.027,0.369-0.057,0.768-0.086,1.176
								c-0.02,0.325-0.041,0.658-0.062,0.989l-0.027,0.484c-0.004,0.167,0.127,0.301,0.259,0.387
								c0.567,0.329,1.178,0.394,1.624,0.505l-0.214,0.065c0.463,0.134,1.051,0.242,1.708,0.323
								c0.247,0.025,0.498,0.052,0.754,0.078c0.349,0.028,0.703,0.058,1.062,0.087c0.722,0.053,1.467,0.098,2.225,0.133
								c3.035,0.142,6.256,0.146,8.939,0.094c-0.242-0.149,6.638-0.966,9.992-1.509c-9.288-0.083-3.771-0.343-4.526-0.634
								c0.955,0.021,2.68,0.006,2.882-0.059c1.328-0.155-1.807-0.164-2.065-0.326c-4.906,0.163-9.841,0.219-13.959,0.179
								c-1.02-0.015-1.995-0.029-2.916-0.042c-0.452-0.011-0.89-0.02-1.313-0.029c-0.208-0.006-0.412-0.011-0.612-0.016
								c-0.077,0.006-0.104,0.016-0.159,0.023c-0.383,0.069-0.776,0.147-1.156,0.249c0.309,0.226,0.746,0.203,1.11,0.151l0.146-0.02
								l0.437,0.007c0.323,0.009,0.651,0.018,0.99,0.027c0.682,0.025,1.411,0.071,2.221,0.162c-1.011,0.049-2.076,0.058-3.185,0.021
								l-0.416-0.017c-0.11-0.004-0.122,0.002-0.175,0.002l-0.277,0.002c-0.189-0.002-0.387-0.013-0.59-0.032
								c-0.402-0.048-0.846-0.101-1.252-0.311c-0.095-0.057-0.197-0.131-0.23-0.244c-0.023-0.115,0.014-0.233,0.021-0.353
								c0.028-0.238,0.056-0.482,0.085-0.733c0.042-0.363,0.085-0.741,0.131-1.132l0.7-2.669c0,0,0.169-2.088,0.337-4.177
								c0.084-1.043,0.168-2.087,0.231-2.87c0.069-0.782,0.09-1.306,0.09-1.306c-0.127,3.499,0.503,1.445-0.349,10.201
								c0.252-0.537,0.464-2.709,0.7-5.413c0.117-1.353,0.247-2.837,0.375-4.319c0.102-1.483,0.219-2.962,0.361-4.301l-0.317-2.789
								c0.215,1.084,1.218-10.394,0.96-2.202c0,0-0.162,3.329-0.325,6.658c-0.078,1.665-0.158,3.33-0.265,4.577
								c-0.092,1.248-0.153,2.079-0.153,2.079l0.766-3.651l-1.038,10.634c0,0-0.017-0.007-0.042-0.019l-0.02-0.011
								c0-0.069,0-0.144,0-0.22c0-0.157,0.001-0.324,0.001-0.492c0.001-0.669,0.003-1.339,0.003-1.339
								c-0.268,2.907-0.144,1.926-0.177,2.231c-0.116,0.366-0.141,0.559-0.166,0.782c0.006,0.107,0.076,0.208,0.319,0.261
								c0.06,0.013,0.131,0.021,0.211,0.027c0.294,0.018,0.624,0.038,0.995,0.061c1.215,0.069,2.734,0.113,4.636,0.111
								c2.713-0.233,5.556-0.374,9.089-0.456c1.777-0.027,3.721-0.057,5.902-0.091c1.108-0.006,2.277-0.012,3.515-0.019
								c1.225-0.007,2.753,0.019,4.072,0.047c-4.15,0.047-4.37,0.206-3.931,0.336c0.429,0.141,1.502,0.307-0.041,0.512
								c1.068,0.021,2.047,0.042,2.952,0.061c0.864,0.006,1.657,0.011,2.393,0.016c1.471-0.01,2.713-0.054,3.832-0.115
								c2.236-0.158,3.988-0.282,6.103-0.432c2.074,0.358,3.549,0.65-3.736,0.563c-0.919,0.725,9.585-0.079,10.244,0.676
								c24.138,0.096,19.36-2.331,47.567-1.253l-1.06,0.297c17.918-0.288,28.253,0.124,44.845-0.032l13.059,0.834
								c-2.921,0.104-10.779,0.642-7.115,1.031c-6.351-0.811-13.096-0.572-19.94-1.023c-0.7,0.198,2.087,0.358,3.3,0.49
								c-4.132-0.027-6.203-0.388-11.661-0.279c0.263,0.162,6.215,0.385,1.727,0.457l-7.42-0.516
								c-9.934,0.18-4.899,1.124-16.563,0.846c2.172-0.417,6.605-1.014,11.124-1.094c-5.33-0.119,7.107-0.225,2.245-0.504
								c-7.683,0.596-11.388,0.075-21.601,0.423c1.2-0.083,1.517-0.205,4.03-0.232l-14.814-0.34
								c3.663,0.388-12.241,0.347-10.867,0.904c15.788,0.306,11.151-0.05,29.142,0.352c-5.095,0.1-11.667,0.628-14.749,1.128
								c-0.156-0.021-0.416-0.041-0.97-0.054c-2.753,0.532,0.049,0.692-0.012,1.645c8.22-0.637,13.708-0.052,23.399-0.395
								c1.825-0.513-5.617-0.693-10.434-0.582l8.537-0.304l-1.682,0.231l21.664,0.282c-4.105,0.008-5.501,0.303-7.645,0.521
								c2.795,0.034,5.563,0.186,8.507,0.352c-0.616-0.501-0.224-0.851,2.502-0.827c13.938,0.187,21.685,0.672,26.827,1.267
								c0.535-0.01,1.138-0.02,1.623-0.027c-2.334-0.522,9.903-0.869,14.224-1.369c-0.216,0.526,7.182,0.352,11.199,0.642
								c2.141-0.596-0.709-1.445-5.599-1.965c-9.427,0.508-5.283,0.533-9.739,1.297l-15.121,0.449l3.382-0.467
								c-7.545-0.25-14.796,0.352-14.24-0.273c3.989-0.399,10.571-0.113,14.53-0.515l-4.99-0.254
								c8.809-0.573,4.511,0.617,15.175,0.239c-3.919-0.554,0.966-0.033,5.535-0.369c-3.665-0.391-18.773,0.06-15.565-0.833
								c5.546-0.369,18.649,1.156,25.989,0.29l-0.359,0.101c10.822,0.171,14.626-0.329,18.679-0.635
								c4.604,0.316,10.963-0.066,15.954-0.074l-0.123,0.264l7.042-0.076c-3.354,0.465-8.252-0.054-14.301-0.014l0.751,0.495
								c-6.972-0.617-11.625,0.245-17.033,0.642c7.872-0.387,22.225,0.229,24.075-0.721l4.868,0.52l2.33-0.167
								c3.627,0.39-0.078,0.954-7.112,1.031c-1.222-0.131-1.833-0.195-1.462-0.296c-3.266,0.203-6.264,0.569-14.165,0.418
								l4.217-0.239c-9.837-0.084-18.781,0.062-22.151,0.527c14.202,0.275,28.167,0.387,41.503,0.431
								c3.935-1.09,8.603-1.689,10.608-2.71c4.474-0.073,9.747-0.13,14.873-0.117c5.127-0.008,10.105,0.018,13.991,0.197
								l-0.714,0.206c3.792,0.092,7.285,0.024,10.199-0.103c4.006,0.256-2.742,0.554,0.05,0.69l12.815-0.39
								c-0.791,0.469-11.574,0.509-16.695,0.56c0.966-0.043,2.917-0.127,2.291-0.188c-5.957-0.171-17.055,0.662-19.658-0.004
								c-2.902,0.116,5.896-0.494-3.929-0.544c-6.579-0.287-8.722,0.309-9.41,0.508c-0.107,0.264,10.325,0.413,6.705,0.713
								c5.121,0.002,7.16-0.347,13.709-0.119c-2.537,0.024-5.529,0.179-8.225,0.272c-2.695,0.073-5.095,0.093-6.447-0.119
								c-10.036,0.443-8.598,1.69-3.866,1.782c-1.126-0.395,18.308-0.389,5.149-0.96c5.912-0.433,16.711-0.536,24.444-0.856
								l-0.352,0.102l9.601-0.159c-1.352,0.144-4.254,0.272-4.35,0.535l13.297-0.754c-7.484,0.501,4.64,0.313,8.047,0.512
								c1.424-0.409,6.616-0.724,1.633-0.938c-5.602-0.274-3.261,0.23-8.354,0.279l7.213-0.663l0.618,0.061l4.341-0.538
								c9.826,0.003-4.29,1.229,8.299,0.674l-1.639-0.705c14.575,0.055,33.296,0.789,43.594,0.425
								c-2.84,0.414-4.09,1.069-0.183,1.441c-4.441-0.107-13.366-0.051-19.735,0.038c-1.227-0.12,7.956-0.868,14.876-0.739
								c-3.356-1.152-17.404,0.764-18.22-0.413c-17.632-0.351-13.15,1.183-28.116,0.542c-0.206,0.527-4.254,0.272-5.04,0.739
								c4.431,0.845,20.007-0.099,29.719,0.168c-0.951,0.042-2.864,0.128-3.238,0.229c6.943,0.13,9.811,0.003,14.66-0.209
								l-0.611-0.061c8.473-0.544,5.244,0.375,10.232,0.589c1.933-0.085,8.868,0.044,7.752-0.339l9.033,0.469l-0.438-0.587
								c5.095-0.052,6.211,0.333,10.827-0.042l0.211-0.526l-12.652-0.14c6.411-0.194,1.786-0.511,8.831-0.646
								c-7.868,0.604,5.568,0.272,6.346,0.759l5.181-0.314l-1.324,0.146c4.068,0.256,4.842-0.213,9.589-0.161
								c-5.6-0.273-9.268-0.632-16.399-0.232c5.192-0.313,15.49-0.678,18.018-0.704c5.452-0.24,9.261,0.148,14.363,0.19
								c-9.79,0.245,3.438,1.584-16.186,1.274c0.362-0.103,1.951-0.085,2.566-0.025c-2.619-0.664-11.762,0.083-16.016,0.355
								c1.098,0.384-3.351,0.495,4.192,0.683c-2.476-0.239,6.352-0.886,13.528-0.593l-1.26,0.834l10.449,0.061l-0.978,0.043
								c3.933,0.521,11.147-0.143,18.344,0.146c5.192-0.313,25.122-0.147,16.542-0.985c6.462,0.496,12.125-0.185,19.17-0.32
								l-8.786-0.308c10.38-0.63,7.393-0.236,15.694-1.209c0.842,0.224,2.695,0.404,1.01,0.648c4.18-0.004,8.899,0.033,13.433-0.161
								l1.699-0.076l0.83-0.073c0.591-0.049,0.998-0.099,1.415-0.198c0.396-0.103,0.895-0.211,1.045-0.628
								c0.041-0.418-0.013-0.836-0.018-1.238c-0.036-0.92-0.07-1.811-0.104-2.66c-0.042-1.398-0.125-2.736-0.127-3.975
								c-0.041-2.483-0.114-4.629-0.229-6.299c0.259-9.949,1.337-11.478,1.557-25.281c0.011-2.9-0.873,2.223-0.235-6.867
								c0.082-0.608,0.243,8.782,0.595-1.345c-0.219-3.6,0.085-7.828,0.195-12.281c0.063-2.229,0.191-4.538,0.159-6.85
								c-0.04-2.311-0.127-4.645-0.309-6.95c0.012-0.616,0.024-1.288,0.037-1.989c0.006-0.732,0.013-1.495,0.02-2.26
								c0.011-1.528,0.021-3.065,0.029-4.385c0.1-2.592,0.237-4.313,0.474-3.402c-0.025,0.996-0.053,2.043-0.08,3.117
								c0.011,1.093,0.021,2.213,0.031,3.334c0.02,1.122,0.038,2.246,0.056,3.345c0.027,1.059,0.055,2.093,0.08,3.08
								c0.105,3.918,0.289,7.072,0.378,7.916c-0.292-1.074-0.364,5.535-0.527-0.2c-0.522,11.752,0.245,7.635-0.364,18.229
								c0.177,0.741,0.74-5.433,0.636-7.713c0.341-0.015,0.263,5.216,0.209,9.287c-0.079,4.079-0.089,6.983,0.532,2.263
								c0.285-5.697,0.017-9.378-0.112-12.878c-0.109-1.742-0.198-3.434-0.207-5.302c-0.029-1.865,0.114-3.919,0.215-6.354
								c0.282,1.949,0.218,4.476,0.252,7.126c0.031,2.65,0.081,5.438,0.338,7.959c0,0,0.13-2.02,0.261-4.04
								c0.094-2.017,0.188-4.033,0.188-4.033s-0.106-1.465-0.213-2.931c-0.054-0.731-0.106-1.464-0.146-2.013
								c-0.054-0.547-0.09-0.911-0.09-0.911l0.108,0.347c0.089-3.549,0.074-6.148-0.008-8.242c-0.083-2.089-0.222-3.783-0.396-5.366
								c-0.18-1.602-0.384-3.158-0.5-5.1c-0.136-1.944-0.248-4.343-0.286-7.505c-0.59,7.369-1.169-1.741-1.547,3.83
								c0.127-8.607-0.024-14.491,0.7-14.67c0.197,3.934,0.343,5.904,0.464,6.954c0.106,1.05,0.188,1.134,0.291,1.17
								c0.196,0.091,0.411-0.027,0.643,7.405c0.284-2.434,0.956,3.535,1.165-5.29c-0.077-2.485-0.172-3.534-0.269-3.868
								c-0.085-0.337-0.144,0.031-0.192,0.398c-0.1,0.735-0.167,1.469-0.353-3.401c0.053-0.576,0.107-1.177,0.213-0.839
								c-0.424-4.486,0.048-5.351-0.432-10.896l0.158,1.32c0.314-6.874-0.589-7.556-0.221-13.385
								c-0.477,2.343-0.479-3.914-0.853-7.521c-0.052,2.958-0.25,5.24-0.407,8.236c-0.157,2.965-0.274,6.758-0.163,12.706
								c0.427,1.426,0.638,0.554,0.908,5.421l-0.167-7.711c0.092,1.663,0.215,2.928,0.319,4.45l-0.1,7.344
								c-0.104-2.238-0.209-3.775-0.312-4.741c-0.103-0.977-0.204-1.441-0.308-1.737c-0.206-0.591-0.418-0.505-0.659-2.5
								c0.046-8.591-0.22-7.171-0.168-12.458c0.301,0.264,0.493-3.804,0.641-9.161c0.153-5.327,0.22-12.136,0.329-17.041
								c0.019,1.53,0.043,3.505,0.057,4.571c0.501,7.142,0.408-4.937,0.567-5.204l-0.389-5.206c0.059,0.98,0.221,2.334,0.266,0.11
								c-0.234-7.052-0.815-6.635-1.05-13.684c0.317-0.529,0.918,5.422,1.013,1.042c0.13-0.756,0.363-2.336,0.508-4.895
								c0.184-2.557,0.357-6.089,0.251-10.758c-0.118-0.662-0.165-3.083-0.191-5.89c0.014,0.39,0.021,0.879,0.043,1.056l0.417-6.199
								c0.506,5.287-0.367,10.684,0.142,15.997l0.525,0.452c-0.097,4.13,0.275,9.745,0.592,12.322
								c-0.011-3.15-0.056-5.056-0.128-7.055c-0.045-2-0.067-4.091-0.094-7.612c0.345-0.985,0.545,3.975,0.574,4.689l-0.292-1.051
								c-0.305,4.198-0.035,7.34,0.17,10.734c0.229,3.395,0.506,7.044,0.548,12.27c0.006,1.578-0.05,0.617-0.156,0.267
								c0.658,8.45,0.113,16.769,0.905,24.97l-0.319-2.674c0.34,5.589,1.003,16.518,1.667,27.438l0.207,0.081
								c0.106-1.229,0.16,2.912,0.108,5.134l-0.003-0.011c0.261,5.525,0.342,10.799,0.479,15.08c0.14-1.37,0.279-3.127,0.337-5.14
								c-0.108-0.846-0.074-3.802-0.085-6.371c0.02-2.56-0.163-4.77-0.41-4.064c0.263-4.741-0.327-12.136-0.169-15.552
								c-0.26,6.202-0.585-4.305-0.905-5.393c0.316-2.094-0.165-9.224,0.314-8.418c0.103-1.23-0.265,3.064,0.056,5.71
								c0.533,6.526,0.203-11.961,0.739-3.831c-0.472-10.382-0.585-23.891-1.197-34.519l-0.087,5.948
								c-0.014-4.723-0.313-15.897-0.103-16.733c0.103,3.508,0.223,7.606,0.354,12.094c0.531,0.21-0.192-10.782,0.124-11.283
								c0,0-0.068-0.814-0.172-2.035c-0.071-1.223-0.167-2.854-0.263-4.484c-0.187-3.263-0.373-6.525-0.373-6.525l-0.085,5.715
								c-0.285-3.602,0.218-15.55,0.378-24.405c0.673,5.089-0.111,13.361,0.088,22.681c0.208,6.767,0.737-4.177,0.848,2.227
								c0.185-1.66,0.205-5.837,0.044-7.898l0.155-2.525c0.301,2.858,0.383,7.486,0.45,12.465c0.003,2.492,0.14,5.062,0.253,7.544
								c0.119,2.482,0.258,4.874,0.437,6.998c-0.084-0.745-0.169-1.395-0.25-1.63c-0.139,6.55-0.013,13.204,0.273,19.582
								c0.147-3.383-0.017-4.714-0.126-6.642c0.157-0.244,0.333,5.779,0.553,8.052c0.088-5.941,0.367-1.119,0.41-4.876
								c0.222,3.868,0.235,6.97,0.243,11.719c-0.21,2.481-0.373-2.033-0.689-1.515c0.271,4.9-0.473,7.16,0.01,14.327
								c-0.003-4.772,0.183-4.148,0.403-1.916c0.11,1.115,0.229,2.636,0.338,4.078c0.107,1.421,0.21,2.769,0.271,3.578l-0.001-1.575
								c0.426,2.976,0.479,5.498,0.162,7.566c-0.214-3.843-0.162-7.566-0.533-6.468c0.056,2.542,0.11,5.076,0.271,7.952
								l-0.319-2.611l0.272,12.796c0.414,2.085,0.774,5.455,1.272,7.261c-0.179,1.561-0.218,3.335-0.205,5.133
								c0.018,0.894,0.034,1.782,0.051,2.627c0.047,0.829,0.092,1.614,0.132,2.316l-0.162-1.305c-0.052,1.36-0.065,3.14-0.052,5.058
								c0.016,1.93,0.078,4.151,0.146,6.147c0.085,2.014,0.164,3.883,0.225,5.316c0.043,1.427,0.104,2.42,0.176,2.688
								c-0.08,1.018-0.219-0.274-0.382-2.329c-0.17-2.057-0.489-4.894-0.722-6.941c-0.245-2.052-0.459-3.324-0.56-2.29
								c-0.05,0.517-0.071,1.61-0.055,3.474c0.003,1.86,0.122,4.499,0.073,8.076c-0.064,5.444,0.16,7.147,0.39,8.26
								c0.246,1.115,0.552,1.65,0.615,4.757c0,0-0.087-0.354-0.171,0.26c-0.22,4.757,0.094,5.229,0.087,9.128
								c0.274-2.827,0.46-6.938,0.352-8.283c0.385,1.462-0.45,9.865-0.285,13.495c-0.415-4.705-0.637,9.08-0.796,5.436
								c-0.418,4.676-0.528,9.478-0.525,13.744c0.099,4.242,0.227,7.946,0.514,10.357c-0.102,0.964-0.165,1.893-0.199,2.812
								c-0.006,0.728-0.011,1.451-0.017,2.175c0.007,0.759,0.015,1.519,0.021,2.285c-0.118,0.77-0.236,1.546-0.357,2.336
								c-0.058,0.396-0.116,0.797-0.175,1.202c-0.032,0.2-0.053,0.411-0.094,0.606c-0.073,0.175-0.12,0.346-0.215,0.526
								c-0.336,0.726-0.941,1.445-1.629,1.947c-0.691,0.527-1.453,0.992-2.363,1.335c-0.846,0.427-1.907,0.614-2.95,0.9
								c-1.054,0.234-2.148,0.286-3.297,0.439c-0.574,0.063-1.16,0.128-1.76,0.193c-0.505,0.041-0.854,0.039-1.304,0.059
								c-0.856,0.019-1.75,0.039-2.688,0.061c0.829-0.023,2.006-0.107,3.259-0.185l0.475-0.029c0.141-0.005,0.438-0.049,0.651-0.071
								c0.465-0.055,0.933-0.108,1.396-0.162c0.93-0.095,1.844-0.188,2.695-0.275c2.204-0.637,2.244-0.75,1.339-0.577
								c-0.454,0.056-1.15,0.297-1.941,0.323c-0.789,0.074-1.681,0.157-2.536,0.237c-0.426,0.04-0.842,0.08-1.231,0.116
								c-0.097,0.01-0.192,0.019-0.286,0.027l-0.196,0.004c-0.126,0.002-0.245,0.004-0.357,0.006
								c-0.446,0.005-0.769,0.001-0.869-0.019s0.022-0.056,0.464-0.115c0.222-0.026,0.522-0.063,0.915-0.108
								c0.547-0.082,1.222-0.184,2.042-0.306c-2.822,0.385-0.157,0.304,2.77-0.148c2.647-0.528,4.825-1.553,5.906-2.768
								c0.595-0.578,0.786-1.22,0.871-1.518c0.057-0.316,0.023-0.396-0.114-0.167c0,0-0.055,0.153-0.209,0.426
								c-0.145,0.27-0.428,0.657-0.846,1.018c-0.823,0.733-2.139,1.342-3.571,1.759c-0.719,0.201-1.493,0.309-2.185,0.456
								c-0.698,0.133-1.346,0.121-1.898,0.18c-1.101,0.08-1.834,0.134-1.834,0.134s1.005-0.141,2.01-0.281
								c0.501-0.073,0.999-0.13,1.372-0.2c0.372-0.097,0.621-0.161,0.621-0.161s-0.277,0.052-0.762,0.142
								c-0.48,0.036-1.167,0.087-1.992,0.149c-0.408,0.03-0.851,0.063-1.319,0.098c-0.462,0.033-0.997,0.084-1.336,0.07
								c-0.774,0.002-1.602,0.005-2.428,0.007c-3.286-0.021-6.495-0.154-6.495-0.154c-0.349,0.104,0.859,0.215,1.479,0.27
								c-14.879-0.165-31.806,0.196-44.813,0.172c-2.433,1.405-31.99,0.71-42.487,1.604c2.813-0.411,4.35-1.123,2.606-1.408
								c2.342-0.067,7.133-0.648,12.443-0.55c0.849,0.222,7.409,0.453,3.189,0.725c14.676-0.21-1.989-0.605,2.34-1.141
								c-16.261,0.192-25.796,1.044-36.06,1.408l-0.26-0.164l-7.75,0.34c6.334,0.07,6.023,0.863-2.142,0.615l0.993-0.043
								c-4.657-0.316-14.345,0.108-21.618,0.083l-4.931,0.475c-7.285-0.026-7.601-0.878-9.971-1.381
								c-11.418-0.021-18.01,0.702-26.12,1.146c-3.668-0.359-20.771-0.387-11.71-0.87c-10.298,0.363-8.22,2.35-25.885,1.307
								l4.584-0.375c-8.444,0.106-18.688,0.235-27.794,0.351c-9.106,0.096-17.073,0.141-20.964-0.067
								c6.233-1.259-21.092-1.415-24.09-2.694c0.835,0.293-5.51,0.358-6.435,0.508c-1.39-0.155-3.705-0.311-6.162-0.062
								c6.585,0.286-4.634,1.289,7.958,0.841c-6.375,0.835-14.587,1.472-28.546,1.359l0.212-0.526l11.043,0.215
								c-1.114-0.395,4.57-0.337,6.901-0.505c-20.543-0.397,2.694-1.221-18.309-1.256c-2.03,0.332-0.715,0.197-6.174,0.306
								c2.567-0.005,3.031-0.366-1.106-0.393l-3.975,0.401c-7.33-0.915,12.143-0.513,5.888-1.161
								c8.112-0.374,22.158-0.526,19.544-1.212c-13.242-0.31-11.919,1.201-25.765,0.827l-1.473-0.294
								c-4.871,0.172-5.66,0.632-8.328,0.898c-0.24-0.164-1.477-0.292-4.605-0.354c-8.228,0.638-13.688,0.743-21.279,1.445
								c20.196-0.455,17.26,0.6,38.105,0.208c-3.267,0.203-17.941,0.291-18.847,1.015l0.198-0.527
								c-6.779,0.241-13.554,0.479-22.064,0.264l5.197-0.271c-11.284,0.312-18.748-0.894-27.655-0.06
								c3.144,0.063,5.696,0.06,7.637-0.011c-5.809,0.206-13.093,0.117-19.404-0.003l-13.064,0.807
								c0.117-0.261-8.158-0.317-4.162-0.716c-9.398-0.447-13.836,0.316-19.271,0.421c-9.622-0.608,8.342-0.209,9.292-0.933
								c-3.315-0.078-6.681-0.126-9.98-0.148c-0.825-0.004-1.646-0.009-2.461-0.013c-0.79,0.004-1.574,0.007-2.351,0.01
								c-1.599,0.034-3.167,0.067-4.69,0.1c-6.197,0.148-11.66,0.278-15.464,0.369c2.777,0.21,4.11,0.309,3.969,0.438
								c-0.406-0.165-5.861-0.245-9.022-0.535c0,0-0.137,0.01-0.344,0.024c-0.157,0.02-0.582,0.024-1.009,0.023
								c-0.839,0.006-1.695-0.021-1.695-0.021c-4.021-0.65-5.331-1.484-5.157-1.501c0.174-0.055,1.963,0.53,5.277,0.817
								c-2.542-0.361-5.3-0.841-7.432-2.161c-0.531-0.333-1.039-0.712-1.472-1.211c-0.214-0.246-0.414-0.531-0.533-0.807
								c-0.128-0.252-0.105-0.607-0.165-0.907c-0.154-1.264-0.308-2.527-0.46-3.779c0.129-1.237,0.271-2.47,0.429-3.675l0.122-0.899
								l0.063-0.444L6,297.53c0.07-0.364,0.14-0.726,0.209-1.083c-0.022,0.361-0.044,0.728-0.066,1.097
								c-0.043,0.531-0.086,1.068-0.13,1.61c-0.106,1.178-0.214,2.375-0.323,3.585c0.127,1.194,0.256,2.4,0.384,3.604
								c-0.136,1.257,0.948,2.259,1.883,2.905c1.947,1.344,4.522,1.919,6.958,2.271c0.61,0.089,1.214,0.161,1.808,0.225
								c0.519,0.049,1.026,0.097,1.521,0.144c0.775,0.063,1.505,0.11,2.184,0.146c1.357,0.068,2.512,0.09,3.402,0.07
								c-2.251-0.039-4.23-0.14-6.036-0.306c-2.599-0.242-4.939-0.608-6.828-1.258c-0.949-0.323-1.779-0.719-2.504-1.194
								c-0.716-0.474-1.383-1.021-1.825-1.79c-0.109-0.19-0.174-0.381-0.213-0.567l-0.032-0.631l-0.058-1.253
								c-0.034-0.83-0.068-1.662-0.103-2.512c0.23-1.647,0.469-3.357,0.73-5.223c0.19-1.302,0.385-2.715,0.584-4.305
								c0.199-1.589,0.404-3.355,0.614-5.364c0.172-2.014,0.323-4.272,0.484-6.84c0.185-0.247,0.206,3.383,0.548-0.716
								c0.656-9.509-0.5-2.537-0.635-5.531c-0.413,7.315-0.822,10.708-1.71,14.888l-0.068-1.968
								c0.179-0.279,0.556-4.861,0.808-6.199l-0.468-1.227c0.29,0.298,0.705-1.375,1.078-3.848c0.364-2.473,0.735-5.741,0.757-8.641
								c-0.387,2.905-0.593,3.958-0.779,4.48c-0.184,0.522-0.356,0.513-0.777,1.277c0.027-4.067,0.247-6.351,0.575-8.749
								c0.304-2.4,0.61-4.928,0.522-9.492c0.161,0.69-0.161,8.641,0.401,1.787c0.193-2.84,0.132-4.078,0.024-5.083
								c-0.099-1.006-0.23-1.776-0.234-3.688c0.333,4.318,0.835,3.236,1.175,7.924c-0.534,10.109-0.249,4.074-0.607,13.97
								l0.938-8.338c-0.423,8.575,0.227,6.272,0.385,6.992c0.7-7.309,0.666-10.083,0.543-12.202c-0.109-2.118-0.341-3.587-0.098-8.3
								c-0.183-4.561-0.418,8.829-0.517,1.702c0.418-8.812-0.263-2.025-0.106-11.922l0.176,1.664
								c0.454-3.013,0.093-6.02,0.122-9.521c-0.088-3.852-1.885,4.313-1.636-11.496c0.142,0.777,0.233,1.063,0.293,1.063
								l4.076,15.545c0.434-16.087,0.583-34.638,0.564-53.293c0.382-2.204,0.637,1.121,0.814,4.855
								c0.151,3.734,0.247,7.878,0.436,7.305l-0.1,8.514c-0.368-0.477-0.271-17.83-0.846-10.139c0.099,3.755,0.15,6.998,0.186,9.973
								c-0.005,2.975-0.01,5.68-0.015,8.361c-0.001,2.683,0.012,5.34,0.069,8.219c0.042,2.879,0.07,5.978,0.191,9.545
								c0.45-2.205,0.592-6.901,0.523-12.204c-0.053-5.303-0.063-11.208,0.223-15.849c-0.006,3.896,0.024,7.185,0.147,10.38
								c0.081-4.357,0.164-8.868,0.158-13.528c0.003-4.661,0.074-9.474,0.026-14.431l-0.252-2.224
								c0.063,6.682-0.025,11.306-0.036,11.902c0.011-4.431-0.146-8.512-0.41-11.556c-0.25-3.045-0.566-5.053-0.887-5.34
								l0.009,1.572l-0.261-3.194C13.965,172.027,13.96,169.95,13.955,167.885z M442.408,11.169
								c-0.538,0.062-0.962,0.134-1.274,0.223C441.458,11.299,441.095,11.241,442.408,11.169z M45.577,306.528
								c-5.964-0.03-11.849,0.054-17.699-0.124c-2.918-0.084-5.818-0.211-8.657-0.457l-1.037-0.097l-0.877-0.098
								c-0.582-0.07-1.161-0.149-1.733-0.246c-1.134-0.211-2.298-0.403-3.289-0.987c0.821,0.588,1.805,0.842,2.76,1.103
								c0.965,0.246,1.945,0.434,2.918,0.599c2.145,0.346,4.297,0.588,6.112,0.786c3.671,0.392,6.325,0.624,7.267,0.826
								c0.943,0.193,0.179,0.36-2.965,0.424c-1.572,0.025-3.74,0.029-6.588-0.089c-0.712-0.038-1.467-0.079-2.266-0.122
								c-0.791-0.053-1.635-0.118-2.597-0.219c-1.869-0.225-3.985-0.438-6.035-1.317c0,0-0.139-0.052-0.336-0.155
								c-0.2-0.098-0.458-0.25-0.677-0.451c-0.224-0.196-0.376-0.471-0.394-0.684c-0.022-0.209-0.002-0.355-0.002-0.355
								c-0.051,0.295-0.034,0.617,0.169,0.886c0.186,0.267,0.455,0.474,0.744,0.653c0.585,0.354,1.273,0.608,2.019,0.829
								c1.494,0.435,3.245,0.693,5.096,0.884c3.507,0.35,7.197,0.449,10.854,0.464c2.949-0.158,9.146-0.708,14.579-1.266
								c2.725-0.243,5.26-0.469,7.102-0.633c1.839-0.17,2.984-0.292,2.933-0.328c-2.084-0.356-5.084,0.002-8.905-0.113
								L45.577,306.528z M53.958,308.653c6.695,0.171,5.173-0.111,6.214-0.354c-2.357,0.02-4.71,0.039-7.036,0.059
								C54.024,308.425,54.463,308.515,53.958,308.653z M59.772,308.049c-0.752-0.01-1.394-0.024-1.729-0.06L59.772,308.049z
								 M15.269,225.309c0,0.298,0,0.405,0.001,0.688c0.051-1.581,0.103-3.165,0.157-4.819
								C15.374,221.818,15.318,223.04,15.269,225.309z M14.347,238.877l0.392,1.602c0.066-1.473,0.168-2.975,0.209-4.514
								C14.735,236.467,14.547,236.993,14.347,238.877z M10.314,282.32c0.139,1.39,0.1,4.387-0.059,7.099
								c-0.138,2.714-0.237,5.16,0.046,5.475c0.098,0.601,0.366-1.32,0.65-3.478c0.137-1.206,0.279-2.453,0.425-3.739
								c0.115-1.29,0.234-2.62,0.357-3.988c-0.084-0.104-0.124-0.654-0.13-1.57c-0.301,2.697-0.605,4.488-0.901,3.358
								c1.412-6.875-0.085-6.275,0.747-13.759C11.203,269.299,10.324,280.03,10.314,282.32z M501.146,238.301
								c0.058-0.214,0.209-0.951,0.396-1.988l0.245,5.331c-0.259,9.513-1.566,17.059-1.155,25.622c-0.37,3.98-0.879,6.1-1.306,8.128
								c0.108-1.953,0.224-3.779,0.343-5.3c-0.044-11.981,0.403-15.08,0.817-17.612C500.889,249.95,501.456,247.988,501.146,238.301
								z M457.936,307.406c0.978-0.043,1.328-0.146,1.328-0.146c-21.183,1.228-38.63,1.624-50.055,1.618
								c2.218,0.45,12.468,0.769,17.335,0.942l-4.31,0.536l-2.695-0.401l-7.484,0.501c2.096,0.344,8.142,0.249,12.185,0.505
								c0.352-0.102,13.29-0.755,16.905-1.089l-10.343-0.324c2.793,0.136,16.51-0.032,21.948-0.185
								c0.104-0.262-9.271-0.632-10.448-0.061c-1.117-0.384,9.688-0.425,2.853-0.817c8.095-0.442,20.98-0.142,26.959,0.03
								l1.018,0.648c6.563,0.215,4.418-0.761,12.229-0.511c-9.598,0.268,1.631,0.713-6.005,0.844
								c2.448,0.209,0.034,0.734,7.738,0.521c1.605-0.271,2.917-0.425,4.088-0.481c1.345-0.142,2.527-0.189,3.729-0.246
								c0.603-0.086,1.202-0.173,1.819-0.261c0.597-0.14,1.214-0.291,1.822-0.533c0.596-0.259,1.225-0.557,1.738-1.114l0.195-0.208
								l0.146-0.255c0.114-0.167,0.158-0.362,0.215-0.557c0.085-0.38,0.054-0.828,0.039-1.29c0.243-2.099,0.314-1.175,0.357-0.429
								c0.05,0.735,0.081,1.274,0.398-1.878c-0.001-0.368-0.003-1.051-0.006-1.868c-0.043-0.692-0.083-1.339-0.12-1.942
								c-0.038-0.489-0.074-0.944-0.107-1.367c-0.078-0.846-0.144-1.563-0.2-2.176c-0.117-1.224-0.189-2.023-0.298-2.557
								c-0.203-1.067-0.441-1.079-0.752-1.361c-0.044,1.337-0.059,2.488-0.047,3.507c0.041,1.018,0.1,1.901,0.168,2.705
								c0.174,1.795,0.313,3.237,0.464,4.789c0.025,0.939,0.03,1.932,0,3.055c-0.001,0.544-0.153,1.129-0.615,1.595
								c-0.439,0.473-1.058,0.773-1.734,1.051c0.243-0.134,0.493-0.253,0.729-0.395c0.22-0.172,0.455-0.318,0.66-0.508
								c0.419-0.375,0.706-0.921,0.737-1.472c0.021-1.14-0.03-2.295,0.097-3.364c-0.158-1.563-0.317-3.165-0.469-4.382
								c-0.142-1.306-0.331-2.612-0.434-3.923c-0.154,2.558-0.099,4.361-0.035,6.035c-0.105-2.862-0.355-5.137-0.518-7.173
								c-0.101-1.147-0.194-2.207-0.28-3.185c-0.01,2.382-0.11,4.683-0.047,6.763c0.017,2.043,0.03,3.869,0.042,5.342
								c-0.004,0.933-0.016,1.711-0.039,2.3c-0.002,0.587-0.119,1.002-0.34,1.131c-0.001,0,0.076-0.265,0.033-0.568
								c-0.037-0.297-0.128-0.589-0.128-0.589c-0.04,0.28-0.053,0.626-0.302,0.89c-0.214,0.276-0.545,0.467-0.884,0.624
								c-0.689,0.304-1.45,0.488-2.189,0.658c-1.468,0.33-2.969,0.497-3.917,0.724c-6.911,0.435-13.931,0.747-15.452,0.39
								l2.652-0.288C469.71,307.322,468.752,307.364,457.936,307.406z M176.063,306.968c5.205,1.142,10.946,2.157,35.263,2.082
								l-1.914,0.067c12.252,0.762,23.894-0.809,38.8,0.043c-7.235,0.385-6.845,0.349-14.834,1.272l7.763-0.277
								c-2.152,0.597,5.592,0.32,11.287,0.378l-5.028,0.698c-3.419-0.226-12.281-0.344-12.021-0.178
								c1.941-0.07-11.698-0.971-19.109-0.797c0.763,0.493,16.409,0.372,9.421,1.139c6.159-0.306,6.921,0.187,13.358,0.046
								c-6.173,0.306-1.529,0.661-6.125,0.995l10.555-0.114c0.275,0.164-15.373,0.286-6.725,0.932
								c4.229-0.236,15.521,0.142,15.725-0.385l0.259,0.164c7.912,0.14,3.481-0.701,13.195-0.41
								c0.115-0.272-1.737-0.428-5.218-0.391c-2.941,0.103-3.393,0.464-9.451,0.508c-2.716-0.427,7.308,0.087,3.103-0.632
								c-2.089-0.357-15.995,0.222-11.563-0.541l7.896,0.152c0.203-0.527,5.921-0.469,5.761-0.896
								c4.828-0.155,9.385,0.424,14.316-0.058c2.048-0.349-1.527-0.971,6.632-0.723c6.375,0.759,25.161,0.541,32.197,0.405
								l6.157-0.358c-0.523-0.322-11.765,0.085-7.812-0.35l9.603-0.161l-0.741,0.206c3.182,0.034,6.437-0.196,9.339-0.321
								c-2.99,0.39-9.912,0.262-8.536,0.807c4.508,0.093,5.195,0.295,9.344,0.175c-0.905,0.042-1.685,0.099-1.569,0.175
								c9.126,0.207,8.811-0.646,11.099-0.832c9.173-0.748-9.249-0.632-8.077-1.202l26.785-0.396
								c-2.287,0.187-4.59,0.372-3.726,0.595c6.57,0.231,0.15,0.427,9.374,0.368c-0.659-0.75,11.614-0.51,18.129-0.967
								c3.045,0.298,3.672,0.357-2.985,0.39c0.766,0.485,9.703,0.267,12.881,0.3c1.841-0.128,4.98-0.209,6.97-0.325
								c-2.667-0.233-1.53-0.544,4.24-0.771l0.335-0.104c-9.461-0.102-24.168-0.583-30.098-0.063l1.676-0.248
								c-10.951-0.384-23.827,0.96-28.879,0.056c0.466-0.367-2.2-0.076-2.01-0.604l-8.062,0.44l1.676-0.245l-13.715,0.167l0.362-0.1
								c-6.518,0.515-11.624,0.918-15.704,1.24c-0.015,0.229,0.409,0.299-1.764,0.477c-2.182,0.121-3.835,0.145-5.31,0.119
								c-0.012,0.001-0.012,0.001-0.012,0.003v-0.003c-3.365-0.056-5.607-0.378-9.751-0.498l12.753-0.102
								c1.039-0.394-0.046-0.796-6.295-1.047c2.555-0.023,3.624-0.332,0.462-0.366c-0.348,0.103-8.356,0.278-5.305,0.579
								c-6.058,0.093-13.989-0.101-22.706-0.216c-8.717-0.101-18.218-0.282-27.416,0.063c13.215-0.381-10.59-0.576,4.08-0.664
								c-10.238-0.675-8.812,0.572-19.25,0.423c-0.89-0.229,5.683,0.058,8.083-0.374c-17.354-0.335-29.285,0.865-46.075,0.594
								l-0.716-0.491C183.263,306.862,179.733,306.914,176.063,306.968z M142.847,307.411c-3.232,0.039-6.509,0.079-9.84,0.119
								c0.325,0.007,0.626,0.013,0.966,0.02l-9.711,0.345c5.965,0.22,9.893,0.774,1.541,0.983c0.704-0.198-1.735-0.458,1.168-0.562
								c-5.594-0.319-17.868-0.663-14.672,0.089c10.756-0.643,2.5,0.95,10.952,0.475c-4.537,0.458-9.028,0.22-13.311,0.413
								c4.46-0.379-1.033-0.915-7.727-1.139c-2.916,0.104-10.802-0.048-15.646,0.122c1.723,0.459-2.496,0.696,5.395,0.848
								c-2.896,0.104-7.377,0.176-12.395-0.08c1.991-0.067,5.471-0.106,5.231-0.27c-3.236-0.431-7.029-0.431-9.121-0.618
								c-1.669,0.016-3.354,0.032-4.993,0.047c0.488,0.042,0.912,0.096,1.213,0.161l-5.55,0.37c7.389-0.176,3.413,0.225,3.315,0.488
								c0.203-0.526-4.755-0.092-7.284-0.087l5.488,0.584c-2.657,0.266-9.371-0.448-7.989,0.11
								c11.653,0.277,16.134,0.205,26.674,0.091l-4.275-0.453c11.894-0.248,7.329,0.778,20.671,0.823
								c5.549-0.368,20.066,0.071,20.346-0.72c-1.675,0.233,8.304,0.745,12.878,0.409c5.058-0.698,20.341-0.721,15.713-1.073
								c-4.129-0.029-9.688,0.341-13.005-0.146l8.011-0.111l-5.254-0.42C144.354,308.385,144.092,307.997,142.847,307.411z
								 M19.216,259.58c0.008-0.088,0.019-0.202,0.028-0.31c-0.008,0.118-0.015,0.233-0.023,0.345L19.216,259.58z"/>
							<path fill="#FFFFFF" d="M498.303,119.745c-0.157-2.305-0.072-8.003-0.471-6.891
								C498.26,112.72,497.798,123.038,498.303,119.745z"/>
							<path fill="#FFFFFF" d="M498.786,112.934c-0.098-0.402-0.264-0.124-0.254-2.681l0.04,7.04L498.786,112.934z"/>
							<path fill="#FFFFFF" d="M501.768,105.823c-0.283-3.628-0.439-5.929-0.355-11.619c1.061-2.121,0.2,9.32,1.145,11.91
								c0.196-10.422-0.687-13.637-0.635-22.229C501.396,88.138,500.975,105.503,501.768,105.823z"/>
							<polygon fill="#FFFFFF" points="503.036,110.466 502.857,104.667 502.791,105.238 502.969,111.042 							"/>
							<path fill="#FFFFFF" d="M495.144,236.166c-0.332,0.516-0.057,4.076-0.002,5.989
								C495.182,240.603,495.294,238.427,495.144,236.166z"/>
							<path fill="#FFFFFF" d="M311.841,18.299l44.303-0.449C343.396,17.979,331.627,18.099,311.841,18.299z"/>
							<path fill="#FFFFFF" d="M422.15,304.732c11.888-0.348,17.166-0.926,29.278-1.11c-15.933-0.599-21.032,1.095-34.41,0.471
								L422.15,304.732z"/>
							<path fill="#FFFFFF" d="M426.33,302.127c1.974,0.604-9.169,0.748-7.44,1.191c8.011-0.178,3.728-0.597,10.999-0.568
								L426.33,302.127z"/>
							<polygon fill="#FFFFFF" points="480.279,312.05 476.673,312.384 479.575,312.257 							"/>
							<polygon fill="#FFFFFF" points="372.152,302.859 373.466,302.716 367.504,302.543 							"/>
							<path fill="#FFFFFF" d="M374.778,302.57l-1.313,0.146L374.778,302.57z"/>
							<polygon fill="#FFFFFF" points="475.652,313.381 481.025,313.485 483.699,313.176 							"/>
							<path fill="#FFFFFF" d="M428.327,310.264l4.793-0.213C432.169,310.092,425.608,309.863,428.327,310.264z"/>
							<polygon fill="#FFFFFF" points="335.748,302.726 329.917,302.98 330.513,303.039 336.324,302.784 							"/>
							<path fill="#FFFFFF" d="M390.808,312.081c3.314,0.459-9.565,0.16-2.748,0.553C394.122,312.54,391.66,312.303,390.808,312.081
								z"/>
							<path fill="#FFFFFF" d="M320.417,309.137c-0.786,0.003-1.615,0.022-2.413,0.077
								C318.954,309.184,319.753,309.158,320.417,309.137z"/>
							<path fill="#FFFFFF" d="M320.417,309.137c2.54-0.009,5.081,0.162,6.822,0.021
								C324.072,308.955,322.919,309.039,320.417,309.137z"/>
							<path fill="#FFFFFF" d="M291.315,309.348l2.304,0.025c-2.354,0.24-1.237,0.202,0.863,0.009
								c2.44-0.025,2.303-0.174,2.593-0.276c0.489-0.061,0.975-0.121,1.501-0.188c-0.752,0.066-1.428,0.126-2.001,0.177
								C292.794,309.104,290.486,309.135,291.315,309.348z"/>
							<path fill="#FFFFFF" d="M183.239,301.132c8.503,0.217,10.702,0.313,10.239,0.675c8.072,0.156,6.822-0.479,11.69-0.601
								C196.034,301.231,194.167,301.055,183.239,301.132z"/>
							<path fill="#FFFFFF" d="M205.168,301.206c1.023-0.004,2.001-0.008,3.188-0.013
								C207.028,301.176,206.042,301.186,205.168,301.206z"/>
							<polygon fill="#FFFFFF" points="325.336,313.221 320.05,313.798 321.99,313.713 							"/>
							<path fill="#FFFFFF" d="M170.619,300.886c1.577,0.031,4.105,0.027,5.346,0.158
								C176.42,300.68,169.046,300.855,170.619,300.886z"/>
							<path fill="#FFFFFF" d="M203.394,308.206c0.863,0.228,6.306,0.12,8.521,0.218
								C208.737,308.361,206.149,307.675,203.394,308.206z"/>
							<path fill="#FFFFFF" d="M146.215,302.271c1.577,0.031,4.001,0.289,2.949,0.586
								C151.457,302.689,154.561,302.061,146.215,302.271z"/>
							<polygon fill="#FFFFFF" points="187.849,308.063 189.063,308.193 194.885,307.988 							"/>
							<path fill="#FFFFFF" d="M208.597,313.558c6.549-0.403-10.384-1.103,0.894-1.416c-14.545-0.527,1.114,0.623-9.617,0.499
								C206.157,312.819,209.235,313.386,208.597,313.558z"/>
							<path fill="#FFFFFF" d="M199.874,312.641c-0.913-0.027-1.902-0.045-2.976-0.052
								C198.086,312.609,199.045,312.626,199.874,312.641z"/>
							<path fill="#FFFFFF" d="M107.739,309.43c0.952-0.041,1.601-0.088,2.201-0.137
								C109.191,309.325,108.477,309.367,107.739,309.43z"/>
							<path fill="#FFFFFF" d="M165.602,312.832l9.817-0.605c-6.557,0.402-23.049,0.295-22.024,0.951
								c5.34,0.158,11.767,0.018,14.408-0.251L165.602,312.832z"/>
							<path fill="#FFFFFF" d="M53.056,300.467l4.241-0.237l-5.292-0.102C53.521,300.232,50.774,300.698,53.056,300.467z"/>
							<path fill="#FFFFFF" d="M50.982,300.109l1.023,0.019C51.78,300.11,51.456,300.103,50.982,300.109z"/>
							<path fill="#FFFFFF" d="M126.301,309.206c3.17,0.062,5.707,0.056,8.599-0.046
								C133.701,309.031,125.802,308.878,126.301,309.206z"/>
							<path fill="#FFFFFF" d="M23.408,301.299c0,0,1.687,0.025,3.374,0.051c1.705-0.002,3.41-0.004,3.41-0.004
								s-1.859-0.018-3.718-0.035c-1.852-0.029-3.672-0.103-3.672-0.103L23.408,301.299z"/>
							<polygon fill="#FFFFFF" points="19.47,286.836 19.692,285.631 19.94,279.768 19.717,280.992 							"/>
							<path fill="#FFFFFF" d="M33.193,313.178c4.814,0.063,8.507-0.591,7.263-0.693c0,0-2.313,0.029-4.626,0.059
								c-2.327,0.009-4.653,0.018-4.653,0.018c2.366,0.516,2.596,0.003,7.963,0.079L33.193,313.178z"/>
							<path fill="#FFFFFF" d="M16.862,43.799c0.374,2.037,0.483,12.069,0.189,12.607c-0.186-1.344-0.5-6.779-0.594-3.356
								l1.102,7.91c-0.167,10.576-1.384-7.988-1.82-13.195c0.228,10.763,0.863,13.93,1.294,25.38
								c-0.051-3.38,0.068-5.523,0.191-7.312c0.564-0.411,0.719,10.266,1.054,17.89c0.073-4.865,0.391-2.066,0.765,1.463
								c0.045,0.636,0.096,1.058,0.147,1.357c0.045,0.411,0.088,0.799,0.132,1.198l-0.039-0.916
								c0.069,0.063,0.141-0.143,0.223-0.807c-0.428-6.395-0.112-11.302-0.265-15.421c-0.829,4.1-0.718-14.01-1.171-19.171
								l-0.259-5.967l-0.059-2.233c0.094-0.452,0.242,0.181,0.519,3.579c-0.262-2.836-0.438-12.312-0.724-11.43
								c0,0-0.009-0.338-0.024-0.929c-0.021-0.491-0.037-1.81-0.029-1.655c0.033-0.145,0.037-0.236,0.146-0.459
								c0.099-0.217,0.38-0.61,0.912-1.076c1.023-0.947,2.87-1.988,4.36-2.643c0.77-0.325,1.408-0.603,1.892-0.774
								c0.471-0.18,0.74-0.283,0.74-0.283c0.571-0.153,1.144-0.298,1.577-0.373c0.62-0.254,0.713-0.335,0.614-0.356
								c0,0,1.235-0.412,3.538-1c2.299-0.589,5.675-1.343,9.862-2.028c8.358-1.413,19.904-2.511,31.554-3.151
								c11.65-0.659,23.394-0.947,32.211-1.101c8.828-0.11,14.714-0.184,14.714-0.184c-4.651-0.04-8.673-0.215-13.462-0.247
								c7.176-0.756-7.852,0.015-5.754-0.616c3.224-0.286,7.957-0.29,10.777-0.178c1.046-0.319-2.975-0.535-2.516-0.905
								c-11.893-0.185-13.679,1.301-25.25,1.485c0.445-0.375,4.007-0.848-3.562-0.489l1.92-0.159
								c-6.051,0.461-8.412,0.396-10.214,0.367c-1.801-0.027-3.045-0.019-6.8,0.75l0.162-0.54
								c-2.719,0.395-6.728,0.812-10.776,1.289c-4.049,0.47-8.134,1.01-11.044,1.492l0.333-0.151
								c-4.076,0.76-6.624,1.353-8.476,1.785c-1.852,0.433-3.005,0.719-4.209,1.022c-1.207,0.299-2.461,0.629-4.418,1.257
								c-0.963,0.328-2.116,0.723-3.425,1.298c-1.305,0.566-2.828,1.31-4.229,2.319c0,0,0.076-0.064,0.208-0.177
								c0.124-0.117,0.338-0.271,0.597-0.459c0.252-0.191,0.554-0.413,0.917-0.636c0.345-0.232,0.729-0.474,1.142-0.702
								c1.612-0.938,3.456-1.75,3.456-1.75c-2.852,0.893-4.351,1.784-5.516,2.604c-1.14,0.825-2.011,1.641-2.893,2.586
								c0.025-0.103-0.14-0.102-0.105-0.32c0.03-0.108,0.054-0.283,0.291-0.551c0.204-0.273,0.562-0.653,1.226-1.162
								c0,0-0.229,0.166-0.552,0.472c-0.173,0.149-0.379,0.33-0.563,0.544c-0.099,0.104-0.204,0.214-0.315,0.331
								c-0.089,0.116-0.182,0.238-0.28,0.366c-0.371,0.505-0.665,1.051-0.775,1.553c-0.006,0.132-0.055,0.251-0.063,0.383
								c0.011,0.137-0.024,0.257-0.014,0.399c0.009,0.072,0.015,0.144,0.018,0.215c0.007,0.101-0.007,0.071,0.011,0.303l0.072,1.084
								c0.383,5.786,0.765,11.572,0.765,11.572C16.84,51.315,16.66,44.666,16.862,43.799z"/>
							<path fill="#FFFFFF" d="M17.033,73.146c0.019,1.228,0.06,2.624,0.144,4.27C17.123,75.825,17.077,74.457,17.033,73.146z"/>
							<path fill="#FFFFFF" d="M126.241,19.319l-6.624,0.045C121.668,19.381,123.808,19.378,126.241,19.319z"/>
							<path fill="#FFFFFF" d="M19.52,106.362c0.105-4.039,0.506,3,0.738,3.694l-0.605-14.42c-0.2,0.073-0.486-1.344-0.66-1.046
								L19.52,106.362z"/>
							<path fill="#FFFFFF" d="M19.863,91.448c-0.162-0.482-0.35-2.002-0.54-3.706l0.329,7.894
								C19.802,95.58,19.904,94.69,19.863,91.448z"/>
							<polygon fill="#FFFFFF" points="9.094,93.417 8.971,90.863 8.656,87.006 							"/>
							<path fill="#FFFFFF" d="M8.506,53.422c-0.207,3.062,0.218,8.847,0.36,10.781C8.636,57.529,8.849,60.418,8.506,53.422z"/>
							<polygon fill="#FFFFFF" points="5.48,61.783 5.094,55.347 5.053,55.949 							"/>
							<path fill="#FFFFFF" d="M175.329,17.248c1.056-0.012,2.08-0.023,3.147-0.035C177.035,17.211,176.094,17.226,175.329,17.248z"
								/>
							<path fill="#FFFFFF" d="M120.18,17.783c15.303,0.488-10.021,0.563-5.204,1.295l8.318-0.316l-0.707,0.207l10.156-0.109
								c-2.085-0.342-3.652-0.359-3.2-0.726c13.569,0.113,4.277,0.421,14.235,0.875l15.185-0.049l-1.23,0.107
								c1.279-0.006,1.845-0.051,2.284-0.109l51.209-0.132c9.313-0.267-5.15-0.67,1.72-1.191
								c-10.794-0.024-26.836-0.454-27.752,0.273c0.362-0.1,1.077-0.299-1.111-0.391l-6.245,0.588l5.955,0.203
								c-6.277,0.585-26.58,0.441-30.236,0.056c11.531-0.188,5.741-0.909,21.818-0.506c-0.723-0.185-3.666-0.511-0.046-0.611
								C156.491,17.458,139.624,17.026,120.18,17.783z"/>
							<path fill="#FFFFFF" d="M308.916,17.722l-0.149,0.065C309.106,17.753,309.218,17.727,308.916,17.722z"/>
							<path fill="#FFFFFF" d="M302.601,17.616l-9.176,0.692l14.3-0.022l1.042-0.499c-1.265,0.124-6.28,0.365-8.223,0.165
								L302.601,17.616z"/>
							<path fill="#FFFFFF" d="M282.773,18.712c7.385-0.194,6.987-0.785,2.961-1.064c6.782-0.257,3.574,0.643,8.247,0.032
								c-0.15-0.426-8.51-0.197-10.432-0.124L282.773,18.712z"/>
							<polygon fill="#FFFFFF" points="228.288,18.267 230.365,18.027 225.249,17.949 							"/>
							<path fill="#FFFFFF" d="M230.365,18.027l5.078,0.079c-0.351-0.183-0.698-0.36-1.526-0.487L230.365,18.027z"/>
							<path fill="#FFFFFF" d="M248.769,18.309c2.149,0.049,4.528,0.088,7.422,0.112L248.769,18.309z"/>
							<path fill="#FFFFFF" d="M242.962,18.144l0.171,0.078l5.636,0.087C246.692,18.25,244.829,18.197,242.962,18.144z"/>
							<path fill="#FFFFFF" d="M235.443,18.105c0.824,0.415,1.789,0.852,9.131,0.755l-1.441-0.64L235.443,18.105z"/>
							<path fill="#FFFFFF" d="M20.385,16.479c0,0,0.367-0.155,0.918-0.387c0.551-0.212,1.286-0.495,2.021-0.778
								c0.736-0.256,1.471-0.513,2.023-0.705c0.551-0.178,0.919-0.296,0.919-0.296l-0.647,0.116c0,0-1.472,0.482-2.943,1.038
								c-0.736,0.281-1.47,0.562-2.022,0.805c-0.551,0.233-0.918,0.389-0.918,0.389L20.385,16.479z"/>
							<path fill="#FFFFFF" d="M54.485,10.203c1.441-0.207,2.534-0.392,3.525-0.553C56.487,9.829,55.279,10.017,54.485,10.203z"/>
							<path fill="#FFFFFF" d="M79.458,5.693c6.912,0.121-9.485,0.96,3.286,0.599c1.137,0.346-4.813,1.057-10.833,1.206
								c0.458-0.397,5.845-0.539,2.129-0.721c-3.972,0.634-5.507,0.448-4.083,0.911C63.259,8.452,62.538,8.913,58.01,9.65
								c4.05-0.479,10.346-0.857,16.895-1.16c6.55-0.313,13.359-0.577,18.48-1.064c5.64-0.803,2.189-1.616,2.187-2.57
								C94.721,4.615,79.991,5,79.458,5.693z"/>
							<path fill="#FFFFFF" d="M68.529,5.315c-3.211,0.154-4.192,0.269-6.158,0.493C62.928,6.089,65.937,5.488,68.529,5.315z"/>
							<path fill="#FFFFFF" d="M141.687,10.945c0.604-0.136,6.327-0.301,5.097-0.536l-8.677,0.171
								C140.144,10.601,140.862,10.767,141.687,10.945z"/>
							<path fill="#FFFFFF" d="M134.302,10.659l3.805-0.079C137.156,10.569,135.979,10.589,134.302,10.659z"/>
							<path fill="#FFFFFF" d="M142.1,11.03c-0.137-0.028-0.26-0.054-0.413-0.084C141.565,10.974,141.588,11.003,142.1,11.03z"/>
							<path fill="#FFFFFF" d="M269.811,18.598c-0.123,0.262,3.741,0.115,5.682,0.042C273.915,18.614,271.701,18.523,269.811,18.598
								z"/>
							<path fill="#FFFFFF" d="M415.354,17.357l3.416,0.198C417.563,17.435,416.943,17.375,415.354,17.357z"/>
							<path fill="#FFFFFF" d="M468.057,10.371c0.103-0.046,0.358-0.08,0.702-0.101C468.415,10.284,468.175,10.319,468.057,10.371z"
								/>
							<path fill="#FFFFFF" d="M468.759,10.271c1.181-0.048,3.581,0.111,6.013,0.316c2.432,0.201,4.894,0.455,6.216,0.438
								l-0.342,0.063c0,0,1.22,0.095,2.438,0.191c1.221,0.115,2.441,0.23,2.441,0.23c-2.279-0.321-5.807-0.743-9.098-0.984
								C473.137,10.275,470.084,10.179,468.759,10.271z"/>
						</g>
					</g>
				</g>
			</g>
		</g>
	</g>
</g>
</svg>
