<?xml version="1.0" encoding="utf-8"?>
<!-- Generator: Adobe Illustrator 16.0.0, SVG Export Plug-In . SVG Version: 6.00 Build 0)  -->
<!DOCTYPE svg PUBLIC "-//W3C//DTD SVG 1.1//EN" "http://www.w3.org/Graphics/SVG/1.1/DTD/svg11.dtd">
<svg version="1.1" id="Layer_1" xmlns="http://www.w3.org/2000/svg" xmlns:xlink="http://www.w3.org/1999/xlink" x="0px" y="0px"
	 width="1034px" height="365px" viewBox="0 0 1034 365" enable-background="new 0 0 1034 365" xml:space="preserve">
<g>
	<image overflow="visible" opacity="0.75" width="1034" height="365" xlink:href="28ED4280.png" >
	</image>
	<g>
		<path fill="#F2F2F2" d="M1006.031,24.702c-0.144-4.428-41.321-7.995-91.538-7.918c-96.517,0.147-196.191,0.799-289.749,0.473
			c-82.396-0.287-174.926-0.388-268.021-0.356C190.929,16.956,13.507,14.569,14.5,39.698c3.872,97.983,22.102,195.452,0,292.881
			c-0.993,4.378,58.846,3.199,71.014,3.259c292.646,1.427,586.322,1.54,879.132,0.339c10.196-0.042,21.237-0.111,28.882-0.646
			c9.712-0.678,10.357-1.835,10.284-2.857c-2.044-28.407,4.849-56.531,2.806-84.938c-0.729-10.124,0.729-19.208,0-29.332
			c-0.805-11.188-0.189-23.836-0.994-35.023C1001.804,130.275,1007.754,77.764,1006.031,24.702z"/>
		<g>
			<g>
				<g>
					<g>
						<g>
							<path fill="#FFFFFF" d="M1003.021,88.46c0.138-5.865,0.548-10.958,0.641-8.753c-0.072-11.937,0.362-12.182-0.327-13.742
								c-0.232-7.652,0.307-15.799,0.528-7.099c0,0-0.058-5.513-0.115-11.026c0-2.757-0.111-5.508-0.191-7.571
								c-0.075-2.063-0.125-3.438-0.125-3.438s0.024,3.29,0.05,6.579c0.03,1.644-0.044,3.293-0.053,4.528
								c-0.023,1.235-0.038,2.059-0.038,2.059c-0.143-0.898-0.19-2.662-0.19-4.869c-0.028-2.204-0.061-4.849-0.094-7.513
								c-0.054-5.327-0.12-10.73-0.507-12.801c0,0,0.11,5.949,0.221,11.898c0.053,2.975,0.104,5.95,0.145,8.182
								c-0.017,2.235-0.027,3.725-0.027,3.725l-0.189-1.191c0.144,5.43,0.012,15.969-0.195,19.651
								c-0.097-0.582-0.229-0.219-0.193-4.424c-0.337,14.405-0.16,16.357,0.114,17.692c0.261,1.337,0.588,2.057,0.311,14.043
								C1002.815,92.887,1002.882,91.027,1003.021,88.46z"/>
							<path fill="#FFFFFF" d="M1000.824,112.965l0.499,10.111l-0.387,16.961c0.149,0.098,0.173,3.232,0.352,5.304
								c0.146,2.07,0.271,3.066,0.324-1.12c-0.053-1.636-0.076-4.868-0.03-7.478c0.297,0.949,0.216,6.58,0.419,11.363
								c0.144,4.781,0.274,8.699,0.524,6.202c-0.413-13.412-0.097-15.461-0.508-23.716c0.058-6.147,0.263-11.445,0.446-15.927
								c0.182-4.481,0.359-8.145,0.54-11.005c0.025-3.64-0.307-4.161-0.233-8.784c-0.024,1.022-0.047,1.962-0.075,3.139
								l-0.867,0.473c0.054,3.857-0.132,7.501-0.221,11.788l-0.416-19.823c-0.492,3.181-0.793,9.621-0.994,16.262
								c-0.194,6.645-0.344,13.462-0.601,17.354C1000.556,114.425,999.752,131.761,1000.824,112.965z"/>
							<path fill="#FFFFFF" d="M1002.771,94.875c0.004-0.128,0.009-0.339,0.013-0.486
								C1002.779,94.537,1002.774,94.748,1002.771,94.875z"/>
							<path fill="#FFFFFF" d="M14.64,83.977c-0.316-4.2-0.606-5.425-0.751-6.025c0,0,0.869,11.824,1.737,23.647
								c0.917,11.811,1.835,23.621,1.835,23.621c0.108-1.496-0.673-15.121,0.167-6.041c-0.072-4.071-1.231-16.41-1.671-18.18
								l0.604,3.399c-1.291-10.852-0.934-18.363-0.175-11.277l-0.07-0.919c0,0-0.96-7.515-1.921-15.029
								c-0.892-7.53-1.783-15.06-1.783-15.06c0.295,5.554,0.572,7.682,0.881,10.092C13.795,74.617,14.14,77.307,14.64,83.977z"/>
							<path fill="#FFFFFF" d="M937.973,15.464c-6.149-0.05-6.906,0.037-6.209,0.126C933.967,15.561,936.063,15.529,937.973,15.464z
								"/>
							<path fill="#FFFFFF" d="M11.824,55.064L10.842,45.6C11.167,49.394,11.516,52.724,11.824,55.064z"/>
							<path fill="#FFFFFF" d="M24.401,119.975c0.029,0.017,0.062,0.117,0.08-0.134l-0.599-4.22
								c0.005,0.064,0.006,0.083,0.008,0.108C24.078,117.286,24.246,118.685,24.401,119.975z"/>
							<path fill="#FFFFFF" d="M208.813,11.717c1.018-0.021,1.895-0.039,3.11-0.063C210.791,11.677,209.767,11.697,208.813,11.717z"
								/>
							<path fill="#FFFFFF" d="M32.411,248.778c0,0,0.02-1.334,0.049-3.335c0.037-2.001,0.081-4.668,0.011-7.33
								c-0.08-5.325-0.16-10.649-0.16-10.649c0.215,2.839,0.232-7.435,0.473-2.948c0.017-1.627-0.263-9.219-0.334-7.146l0.087,4.337
								c-0.442-5.603-0.703-6.701-0.958-8.724c-0.127-1.01-0.254-2.251-0.401-4.397c-0.064-1.074-0.142-2.373-0.239-3.983
								c-0.111-1.608-0.245-3.525-0.406-5.838c0.049,5.75,0.063,9.894,0.209,13.355c0.14,3.463,0.361,6.248,0.571,9.298
								c0.106,2.066,0.058,3.806,0.086,5.561c0,0,0.206,4.423,0.412,8.847c0.096,2.213,0.221,4.427,0.267,6.09
								c0.028,1.663,0.046,2.772,0.046,2.772L32.411,248.778z"/>
							<path fill="#FFFFFF" d="M644.41,19.641l-0.23,0.055C644.392,19.676,644.43,19.658,644.41,19.641z"/>
							<path fill="#FFFFFF" d="M643.259,19.921l0.921-0.226C643.048,19.809,638.712,19.923,643.259,19.921z"/>
							<path fill="#FFFFFF" d="M12.447,58.523c-0.151-0.28-0.363-1.488-0.624-3.459c0,0,0.186,1.764,0.372,3.528
								c0.208,1.761,0.417,3.522,0.417,3.522C12.566,61.109,12.505,59.785,12.447,58.523z"/>
							<path fill="#FFFFFF" d="M14.968,74.499c0,0,0.332,4.427,0.664,8.854c0.342,4.426,0.684,8.851,0.684,8.851l0.85,6.499
								C16.551,91.934,15.833,84.02,14.968,74.499z"/>
							<path fill="#FFFFFF" d="M180.746,11.627c36.805-0.586-9.029,0.934,7.883,0.912c10.216-0.222,13.816-0.644,20.184-0.822
								c-29.184,0.628,3.947-1.36-25.496-0.797c4.18-0.777,21.23-1.036,31.219-0.907c11.312,0.597-9.875,0.57-12.43,1.272
								c11.811-0.22,9.729-0.319,14.739-0.738c18.545,0.028,38.361-1.003,49.431-0.068c13.416-0.161,12.532-0.482,20.247-0.842
								c1.536-0.73-19.953-0.382-24.926-0.945c1.03,0.06,3.04,0.181,2.458,0.284l-11.602-0.134
								c11.014,0.232-1.528,0.729-7.416,0.805c-4.281,0.025-12.794,0.095-11.624-0.112l6.483-0.183
								c-8.348-0.201-18.413,0.613-27.233,0.287c-0.462-0.16,2.874-0.262,3.378-0.367c-9.876,0.571-19.405,0.621-34.032,1.179
								l8.472-0.836c-11.693,0.93-38.197,1.143-56.61,1.36c2.045,0.051,5.723,0.031,3.521,0.236
								c-10.795,0.507-18.982,0.369-13.989-0.218c-5.27,0.51-15.334,0.792-25.9,1.318c-10.562,0.502-21.636,1.295-28.836,2.397
								c-10.172,1.585-20.341,3.36-30.517,5.961c-5.089,1.329-10.176,2.811-15.292,5.045c-2.557,1.157-5.136,2.44-7.704,4.503
								c-0.694,0.514-1.415,1.272-2.076,1.977c-0.342,0.35-0.599,0.77-0.89,1.159c-0.281,0.397-0.564,0.789-0.76,1.234
								c-0.209,0.436-0.436,0.863-0.603,1.312c-0.135,0.462-0.261,0.928-0.376,1.392c-0.107,0.466-0.079,0.957-0.125,1.431
								l-0.021,0.357c-0.015,0.059,0.019,0.122-0.036,0.176l0.006,0.18c0.007,0.239,0.015,0.478-1.11,0.68l0.226,1.016l0.208,0.649
								l0.416,1.274l0.831,2.545c-0.067-0.82-0.136-1.66-0.206-2.517c-0.068-0.956-0.137-1.931-0.208-2.925
								c0.021-1.295,0.066-2.665,0.554-3.949c0.488-1.002,1.056-1.896,1.705-2.588c0.597-0.737,1.257-1.276,1.812-1.731
								c0.551-0.479,1.027-0.744,1.348-0.941c0.317-0.186,0.525-0.294,0.605-0.311c0.08-0.016,0.031,0.061-0.164,0.246
								c-0.21,0.188-0.563,0.502-1.08,0.961c-0.513,0.56-1.276,1.214-1.953,2.269c-0.729,0.996-1.417,2.4-1.602,4.17
								c0.208-1.732,0.886-3.08,1.61-4.079c0.683-1.047,1.47-1.75,2.108-2.41c0.678-0.565,1.172-1.002,1.695-1.399
								c0.519-0.362,1.014-0.708,1.546-1.079c2.153-1.315,5.027-2.925,12.801-4.997c-3.013,0.943-4.834,1.829-4.054,1.824
								c0.782,0.021,4.13-0.925,11.527-2.37c9.212-1.983,17.681-3.258,25.725-4.409c8.045-1.122,15.67-2.062,23.224-2.914
								c15.107-1.688,29.93-3.045,47.28-4.077c0.649,0.226,7.788,0.08,16.418-0.09c8.63-0.176,18.75-0.372,25.37-0.419
								c-5.045,0.606-14.865,0.925-25.06,1.286c6.398-0.11,17.414-0.301,25.585-0.442L180.746,11.627z"/>
							<path fill="#FFFFFF" d="M94.507,16.156c0.932-0.012,1.895-0.045,2.883-0.081C96.862,16.065,96.001,16.085,94.507,16.156z"/>
							<path fill="#FFFFFF" d="M148.739,13.212c-0.127,0.022-0.083,0.035-0.127,0.057c1.069-0.039,2.139-0.078,3.234-0.118
								C150.751,13.172,149.514,13.197,148.739,13.212z"/>
							<path fill="#FFFFFF" d="M13.129,49.768c0.222,2.196,0.386,3.82,0.608,6.016c-0.102-1.354-0.23-3.053-0.353-4.688
								C13.244,49.538,13.142,48.799,13.129,49.768z"/>
							<path fill="#FFFFFF" d="M12.626,57.236l-0.257-1.167c0.03,0.949,0.052,1.615,0.079,2.455
								C12.574,58.773,12.638,58.494,12.626,57.236z"/>
							<path fill="#FFFFFF" d="M321.29,15.508l3.523-0.104C322.69,15.411,321.776,15.454,321.29,15.508z"/>
							<path fill="#FFFFFF" d="M221.745,12.043c-12.793,0.139-1.524,0.724-19.623,0.887l5.312-0.004
								c-12.981,0.411-35.807,0.564-51.245,0.963c1.736-0.337-9.371-0.125-7.577-0.621c-10.553,0.375-21.008,0.847-26.429,1.53
								c-6.548,0.1-16.465,0.969-24.794,1.276c3.526,0.079-11.781,1.595,8.432,0.123c-1.631,0.12-0.604,0.131-2.215,0.256
								c13.049-0.293,18.244-1.126,29.472-1.531c6.719,0.035-10.959,0.817-4.623,0.702c7.002-0.382,17.999-0.632,27.122-0.85
								c9.124-0.227,16.377-0.453,15.905-0.954c10.196-0.246,11.607-0.032,14.649,0.111c16.12-1.358,59.843-0.008,59.688-1.363
								c-5.886,0.069-15.477,0.079-24.114,0.428L221.745,12.043z"/>
							<path fill="#FFFFFF" d="M20.971,29.931c0.752-0.363,1.767-0.766,2.399-1.032C22.66,29.203,21.771,29.542,20.971,29.931z"/>
							<path fill="#FFFFFF" d="M18.426,189.462c0,0-0.275-1.317-0.551-2.634c-0.296-1.317-0.592-2.634-0.592-2.634
								c-0.875-15.106-1.586-25.406-2.228-35.236c-0.695-9.835-1.335-19.199-2.399-32.464c-0.034-2.036,0.294,1.176,0.461,2.804
								c-0.761-9.322-1.688-20.97-2.474-32.016c-0.853-11.03-1.49-21.469-2.135-28.282c-0.296-5.982-0.751-21.699-0.204-15.767
								c-0.032-0.43-0.064-0.868-0.098-1.316c-0.039-0.601-0.08-1.214-0.121-1.838l0.006-0.727c0.02-0.12-0.039-0.249,0.045-0.362
								l0.033-0.365c0.045-0.487,0.09-0.979,0.136-1.473c0.072-0.49,0.249-0.964,0.386-1.447c0.076-0.24,0.149-0.482,0.236-0.719
								l0.335-0.682c0.851-1.859,2.277-3.44,3.844-4.824c0.288-0.165,0.027,0.114-0.536,0.686c-0.278,0.289-0.629,0.653-1.029,1.069
								c-0.367,0.441-0.753,0.962-1.153,1.514c-0.769,1.123-1.434,2.496-1.762,3.846c-0.116,0.329-0.154,0.665-0.175,0.992
								c-0.03,0.325-0.059,0.639-0.086,0.937c-0.013,0.148-0.026,0.293-0.039,0.433c-0.09,0.132-0.026,0.275-0.046,0.405
								c0.001,0.263,0.002,0.506,0.003,0.724c0.061,0.819,0.113,1.27,0.157,1.237c-0.02-0.48-0.038-0.926-0.05-1.233
								c0.037-0.45-0.032-0.877,0.089-1.254c0.042-0.385,0.082-0.74,0.118-1.068c0.032-0.664,0.221-1.188,0.359-1.637
								c0.25-0.91,0.529-1.445,0.708-1.875c-0.573,1.106-0.595,1.769-0.657,2.101c-0.032,0.343,0.029,0.41,0.083,0.503
								c0.104,0.179,0.157,0.492,0.123,3.257c0.05,0.523,0.114,1.192,0.195,2.043c0.054,0.692,0.119,1.532,0.197,2.547
								c0.139,2.033,0.293,4.773,0.466,8.448c-0.372,8.092-0.78-14.421-1.388-9.629c0.325,6.903,0.61,6.084,0.741,6.67
								c0.401,8.794,0.185,8.575-0.032,8.117c0.468,3.348,0.786,14.411,1.476,19.027c1.285,17.027-0.693-0.884,0.113,10.241
								l1.305,6.351l1.253,18.477c2.361,26.668,1.188-3.927,3.989,26.539c-0.765-3.975-0.504,8.316,0.218,22.5
								c-0.559-8.48-2.271-24.12-2.873-35.106c0.541,15.511-1.736-21.272-1.869-13.191c0.952,7.614,2.004,20.353,2.531,30.286
								l-0.32-3.247c0.343,5.28,0.908,9.903,1.4,15.022c0.482,5.12,1.081,10.751,1.276,18.032c0.419,7.227,0.107,5.885-0.16,4.625
								c0.23,3.054,0.449,5.946,0.609,8.076C18.485,188.078,18.515,189.448,18.426,189.462z M17.441,173.731
								c0,0-0.11-2.418-0.22-4.835c-0.137-2.419-0.274-4.839-0.274-4.839C16.974,166.362,17.202,169.966,17.441,173.731z"/>
							<path fill="#FFFFFF" d="M1002.798,249.283c-0.009-0.979-0.018-2.105-0.025-2.993
								C1002.752,246.964,1002.768,248.154,1002.798,249.283z"/>
							<path fill="#FFFFFF" d="M225.296,332.006l5.633,0.044C228.729,332.032,226.927,332.019,225.296,332.006z"/>
							<path fill="#FFFFFF" d="M351.738,329.539l8.229-0.177C356.72,329.367,354.175,329.438,351.738,329.539z"/>
							<path fill="#FFFFFF" d="M999.636,315.994l-0.013,0.28c0.005,0.469,0.009,0.827,0.015,1.322L999.636,315.994z"/>
							<path fill="#FFFFFF" d="M605.32,331.828c1.254,0.069,2.66,0.132,4.585,0.179C609.675,331.923,607.961,331.865,605.32,331.828
								z"/>
							<path fill="#FFFFFF" d="M350.223,329.572c0.211,0.007,0.333,0.011,0.499,0.017c0.32-0.016,0.672-0.033,1.017-0.05
								L350.223,329.572z"/>
							<path fill="#FFFFFF" d="M169.611,329.389c-1.208,0.024-2.308,0.047-3.606,0.074
								C167.705,329.45,168.748,329.422,169.611,329.389z"/>
							<path fill="#FFFFFF" d="M177.543,331.812c-1.298,0.027-2.539,0.055-3.504,0.075L177.543,331.812z"/>
							<path fill="#FFFFFF" d="M25.939,302.848c0,0,0.263-1.905,0.525-3.81c0.125-0.953,0.279-1.902,0.345-2.62
								c0.068-0.717,0.114-1.194,0.114-1.194c-0.171,1.88-0.445,3.367-0.598,4.601C26.168,301.057,26.044,302.026,25.939,302.848z"
								/>
							<path fill="#FFFFFF" d="M157.473,331.204c-0.441,0.038-0.882,0.075-1.177,0.112
								C157.345,331.293,157.844,331.244,157.473,331.204z"/>
							<path fill="#FFFFFF" d="M1004.772,200.873c0.003,0.174,0.007,0.359,0.009,0.462l0.102,0.191L1004.772,200.873z"/>
							<path fill="#FFFFFF" d="M1002.999,182.611c-0.134-2.181-0.272-4.453-0.409-6.686
								C1002.711,178.411,1002.86,180.83,1002.999,182.611z"/>
							<path fill="#FFFFFF" d="M715.49,332.987c2.009,0.118,6.722,0.257,4.522,0.4C723.855,333.204,723.599,332.775,715.49,332.987z
								"/>
							<path fill="#FFFFFF" d="M1010.439,237.896c-0.081-1.191-0.127-2.673-0.171-4.163
								C1010.314,236.503,1010.348,238.927,1010.439,237.896z"/>
							<path fill="#FFFFFF" d="M1010.269,233.732c-0.024-1.403-0.051-2.903-0.073-4.159
								C1010.221,231.035,1010.246,232.438,1010.269,233.732z"/>
							<path fill="#FFFFFF" d="M664.413,340.116c-0.499-0.057-1.272-0.104-2.321-0.117
								C662.398,340.114,663.236,340.138,664.413,340.116z"/>
							<path fill="#FFFFFF" d="M1002.451,170.513c-0.531-1.184-1.372-30.288-1.039-5.798c-0.388-0.462-0.482-4.39-0.576-9.019
								c-0.074-4.628-0.16-9.954-0.213-13.221c-0.171,4.74-0.396-2.357-0.619-0.919c0.019,3.236,0.333,7.095,0.345,12.454
								c-0.231,2.473-0.609-5.668-0.512-12.017c-0.4,7.816-0.403-9.918-0.766,1.144c0.147,5.926,0.284,11.418,0.413,16.583
								c0.037,1.291,0.074,2.561,0.11,3.813c0.081,1.253,0.161,2.487,0.24,3.704c0.17,2.433,0.334,4.797,0.495,7.106
								c0.354,4.565,0.689,8.913,1.018,13.151c0.391,4.103,0.593,8.235,0.876,12.34c-0.041-1.665-0.082-3.354-0.123-5.057
								c-0.021-0.852-0.041-1.707-0.062-2.563l-0.137-2.535c-0.188-3.424-0.376-6.859-0.561-10.22
								c-0.176-3.425-0.348-6.773-0.511-9.958c-0.143-3.186-0.296-6.208-0.229-8.976c0,0,0.153,1.159,0.307,2.318
								c0.069,0.579,0.164,1.158,0.241,1.592c0.072,0.434,0.121,0.724,0.121,0.724c0.077,6.26,0.304,11.322,0.582,16.352
								c0.132,2.465,0.263,4.923,0.401,7.519c0.168,2.56,0.2,5.322,0.224,8.361c0,0-0.004-1.706-0.01-4.266
								c-0.021-2.552-0.181-5.893-0.277-9.266c-0.277-6.906-0.555-13.812-0.555-13.812c-0.202-12.951,0.339-4.297,0.954,5.878
								C1002.47,173.42,1002.388,171.152,1002.451,170.513z"/>
							<path fill="#FFFFFF" d="M1008.122,188.791l-0.005-0.467c-0.038-0.406-0.073-0.91-0.107-1.168L1008.122,188.791z"/>
							<path fill="#FFFFFF" d="M14.836,302.616l0.152-2.333C14.783,302.218,14.755,302.821,14.836,302.616z"/>
							<path fill="#FFFFFF" d="M1005.799,205.268v-0.02C1005.808,205.434,1005.808,205.479,1005.799,205.268z"/>
							<path fill="#FFFFFF" d="M42.712,340.922c-0.084,0.011-0.169,0.021-0.317,0.041C42.608,340.95,42.608,340.934,42.712,340.922z
								"/>
							<path fill="#FFFFFF" d="M58.515,329.343c-0.108-0.025-0.14-0.049-0.395-0.075C56.874,329.296,57.478,329.323,58.515,329.343z
								"/>
							<path fill="#FFFFFF" d="M42.758,340.872c0,0.017,0.038,0.034-0.046,0.05C42.757,340.905,42.861,340.89,42.758,340.872z"/>
							<path fill="#FFFFFF" d="M328.279,339.563c0,0-0.901-0.096-2.321-0.189C325.408,339.422,325.958,339.482,328.279,339.563z"/>
							<path fill="#FFFFFF" d="M271.937,338.609c-0.358-0.021-0.569-0.034-1.029-0.063L271.937,338.609z"/>
							<path fill="#FFFFFF" d="M702.161,330.562c-2.788-0.003-4.879,0.015-6.644,0.042
								C697.551,330.613,699.751,330.607,702.161,330.562z"/>
							<path fill="#FFFFFF" d="M42.395,340.963c-0.594,0.046-1.44,0.088-2.837,0.127C41.097,341.05,41.911,341.005,42.395,340.963z"
								/>
							<path fill="#FFFFFF" d="M414.192,337.041c-0.601,0.019-1.164,0.037-1.733,0.055c0.345,0.01,0.69,0.021,1.029,0.03
								L414.192,337.041z"/>
							<path fill="#FFFFFF" d="M443.594,337.519c-1.004,0.059-1.464,0.122-2.027,0.176c10.494-0.198,29.774,0.098,32.057-0.475
								c-3.562,0.005-22.023-0.384-18.876-0.714c-7.316,0.125-18.129-0.309-22.068-0.225c12.009,0.349,1.297,0.492-6.812,0.666
								c-7.373-0.188,1.389-0.462-4.961-0.586l-17.061,0.02l14.861,0.115l-4.516,0.545c0.55-0.018,0.927-0.03,1.516-0.049
								C440.852,336.798,417.842,337.813,443.594,337.519z"/>
							<path fill="#FFFFFF" d="M441.567,337.694c-1.573,0.031-2.955,0.07-4.029,0.126
								C439.911,337.818,440.832,337.764,441.567,337.694z"/>
							<path fill="#FFFFFF" d="M544.292,338.796c1.291-0.027,2.691-0.059,4.45-0.097
								C547.904,338.718,545.961,338.76,544.292,338.796z"/>
							<path fill="#FFFFFF" d="M18.041,111.284c-0.132,0.454,0.669,15.083,1.075,14.79c-0.293-4.338-0.588-8.708-0.884-13.098
								L18.041,111.284z"/>
							<path fill="#FFFFFF" d="M824.121,335.789c-1.631,0-3.268-0.001-4.905-0.001c-0.351,0.024-0.689,0.049-0.952,0.067
								C819.262,335.917,822.49,335.832,824.121,335.789z"/>
							<path fill="#FFFFFF" d="M459.275,336.316c-2.686,0.059-3.882,0.123-4.527,0.189
								C456.487,336.476,458.092,336.425,459.275,336.316z"/>
							<path fill="#FFFFFF" d="M825.045,336.806c2.078,0.118,5.142,0.299,5.577,0.461c4.253-0.004,7.238-0.234,11.567-0.322
								C837.304,337.016,831.65,336.983,825.045,336.806z"/>
							<path fill="#FFFFFF" d="M842.541,336.936c-0.122,0.003-0.243,0.006-0.352,0.009
								C842.311,336.941,842.419,336.938,842.541,336.936z"/>
							<path fill="#FFFFFF" d="M17.554,102.579c-0.126-1.254-0.255-2.546-0.389-3.877l0.27,2.013
								c-0.208-3.364-0.415-6.71-0.622-10.062c-0.106-1.211-0.222-2.524-0.364-4.136c0.062,0.649,0.143,1.15,0.212,1.459
								c-0.061-1.092-0.121-2.159-0.181-3.226c-0.253-1.994-0.553-4.733-0.871-7.811c-0.277-3.082-0.585-6.5-0.886-9.847
								c-0.29-3.35-0.573-6.629-0.815-9.43c-0.208-2.804-0.389-5.129-0.523-6.567c-0.118-1.697-0.242-3.479-0.367-5.286
								c-0.117-1.854-0.236-3.733-0.353-5.579c-0.054-0.691,0.052-1.371,0.09-2.051c0.056-0.333,0.177-0.654,0.266-0.979
								l0.148-0.482l0.23-0.446c0.158-0.294,0.314-0.587,0.47-0.877c0.2-0.262,0.399-0.523,0.596-0.781
								c0.376-0.535,0.863-0.959,1.32-1.395c0.448-0.458,0.954-0.776,1.384-1.105c0.44-0.343,0.887-0.608,1.323-0.864
								c0.864-0.549,1.707-0.936,2.481-1.321c-1.293,0.63-2.688,1.356-3.949,2.311c-0.306,0.237-0.657,0.465-0.958,0.746
								c-0.302,0.29-0.599,0.573-0.887,0.849c-0.299,0.265-0.516,0.588-0.745,0.878c-0.215,0.301-0.461,0.563-0.611,0.866
								c-0.685,1.166-0.916,2.218-0.956,2.764c-0.004,0.559,0.042,0.614,0.155-0.013c0.314-1.62,1.224-2.918,2.207-3.984
								c0.548-0.474,1.065-1.002,1.629-1.372c0.56-0.367,1.065-0.762,1.624-1.039c2.178-1.23,4.39-2.088,6.857-2.891
								c4.935-1.605,10.888-3.089,20.258-4.983c0,0-0.691,0.116-1.727,0.29c-1.034,0.192-2.413,0.448-3.791,0.704
								c-2.755,0.535-5.495,1.179-5.495,1.179s0.382-0.102,1.051-0.279c0.669-0.177,1.625-0.439,2.778-0.709
								c2.302-0.576,5.387-1.251,8.483-1.871c3.096-0.62,6.202-1.167,8.534-1.565c2.333-0.379,3.89-0.632,3.89-0.632
								c4.407-0.301,1.294,0.145-3.336,0.844c-4.632,0.687-10.77,1.781-12.462,2.265c9.629-1.906,18.569-2.693,26.18-3.288
								c7.616-0.578,13.923-0.938,18.409-1.664c1.307,0.414,3.491,1.023,16.257,0.27c-9.242-0.06,7.641-0.765,0.052-0.958
								c4.403-0.52,14.27-0.511,14.99-0.893l-1.188,0.251c21.861-0.103,28.972-1.414,38.312-2.052
								c26.157-0.758,38.176-0.536,59.508-0.794c0.84,0.32,6.654,1.177,15.21,1.103c3.976-0.468,23.277-0.729,25.246-1.294
								c-15.3-0.203-12.516,0.506-21.674,0.672c-7.626-0.559-0.693-0.587-11.108-0.888c8.407,0.163,37.975-0.451,47.179,0.112
								l-3.249,0.081c14.691,0.33,17.498,1.731,41.971,0.901l11.677-0.338c-0.563,0.056-0.627,0.123-0.928,0.173
								c19.113,0.073,13.896,0.719,34.997,0.211c-1.63,0.039-0.607,0.102-2.264,0.14c12.028,0.324,24.159-0.292,33.252-0.416
								c5.551,0.48-1.317,0.464-4.751,0.801c21.16,0.211,43.996-0.57,57.138-1.129l13.64,0.295
								c-8.089,0.185-17.976,0.67-15.508,0.959c7.501-0.085,6.049-0.311,16.658-0.206c-1.81,0.3-6.261,0.576-11.249,0.95
								c21.939,0.535,4.906-1.066,20.258-0.118c6.894,0.015,10.897-0.421,11.652-0.786l12.488,0.495
								c1.388-0.463,16.806-0.469,26.91-0.526c1.235-0.199-8.133-0.507-11.964-0.333c0.755-0.364,11.505-0.522,18.417-0.505
								c2.53,0.979,45.263-0.081,37.088,1.058c31.054-0.278,74.68-0.29,95.175-0.778c6.758,0.259,20.532,0.25,12.275,0.721
								c24.996-0.037,37.89-1.059,62.7-0.833c2.053,0.119-11.216,0.027-10.334,0.351c16.217-0.417,29.504,0.365,54.667,0.063
								c-4.233,0.024-5.468,0.228-6.057,0.33c-0.44-0.161,10.309-0.352,16.818-0.52c3.658,0.078-4.873,0.125-2.82,0.246
								c48.605,0.395,85.637-0.992,133.979-1.027c-6.903,0.005-11.659,0.171-14.707,0.369c-3.049,0.198-4.39,0.428-4.463,0.56
								l13.524-0.01c5.208-0.335,15.374-0.363,23.88-0.454c1.042,0.135,5.174,0.342,0.953,0.419c13.362,0.562,23.8,0.657,35.011,1
								c5.604,0.185,11.4,0.428,17.845,0.995c3.223,0.288,6.606,0.652,10.214,1.228c1.805,0.292,3.663,0.631,5.601,1.12
								c0.971,0.25,1.955,0.523,2.993,0.928c0.519,0.202,1.054,0.438,1.637,0.792c0.144,0.085,0.294,0.185,0.454,0.311
								c0.148,0.105,0.322,0.262,0.488,0.431c0.32,0.352,0.774,0.896,0.824,1.832c-0.009,0.036,0.009-0.619-0.412-1.279
								c-0.408-0.629-0.99-1.035-1.603-1.363c-1.235-0.643-2.81-1.076-4.699-1.481c-3.765-0.794-8.725-1.341-13.692-1.747
								c-4.965-0.404-9.927-0.648-13.647-0.801c-3.721-0.129-6.201-0.215-6.201-0.215s2.441,0.275,4.882,0.551
								c2.438,0.3,4.875,0.6,4.875,0.6s-4.355-0.21-8.712-0.333c-4.356-0.132-8.713-0.194-8.713-0.194
								c10.365,0.848,19.438,0.81,20.644,1.421c-2.197-0.072-7.471-0.52-7.656-0.26c4.967,0.458,7.645,0.666,10.02,0.816
								c2.373,0.158,4.445,0.249,8.163,0.687c-9.835-0.824-24.434-1.603-39.189-2.009c-14.758-0.423-29.654-0.482-40.091-0.318
								c-3.287,0.083,2.814-0.246,3.395-0.347c-8.522,0.045-13.64-0.255-24.37-0.065c-6.663,0.432,5.085,0.301,10.373,0.336
								c-0.729,0.368-3.389,0.35-9.278,0.415c-1.279-0.486-32.333-0.12-39.924-0.704c-31.469,0.206,5.033,1.256-25.688,1.094
								l-9.177-0.543c-17.835,0.461-40.902,0.881-61.084,0.795l4.252-0.025c2.833-0.244-1.848-0.383-3.919-0.502
								c-15.252-0.214-28.957,0.486-38.197-0.058c-17.395,0.623-46.397,1.109-66.287,1.448c-5.363-0.728,25.946-0.667,34.223-1.141
								l-18.104,0.032c11.19-0.028,15.61-0.315,22.319-0.745c-15.865-0.111-21.085,0.542-36.126,0.753
								c1.171-0.202-0.837-0.322-7.775-0.316l-1.972,0.493c-0.127-0.04-0.895-0.076-3.037-0.104L614.61,19.85
								c5.678,0.213,5.95,0.651,12.863,0.649c-2.467-0.281,3.397-0.347,10.316-0.351c-6.063,0.329,6.746,0.258,6.598,0.522
								c-13.871,0.027-30.912,0.079-40.006,0.191l-2.952-0.455c-13.217-0.131-27.177,0.102-36.142-0.042l2.827-0.236
								c-15.857-0.159-31.474,0.111-45.553-0.348c-14.146,0.496-31.955,0.901-43.517,1.424c-6.184,0.573-41.504-0.785-57.453,0.012
								c-1.074-0.064,10.954-0.423,16.396-0.635c-10.608-0.104-19.043,0.607-22.368-0.009c23.806,0.237-1.278-0.49,9.445-0.649
								c-11.145-0.004-22.898,0.091-28.366,0.302c18.039,0.02-6.407,0.837,11.855,0.595c-14.151,0.496-33.461,0.675-50.323,0.454
								c0.166-0.265-1.912-0.39-8.2-0.498l-5.072,0.382c-7.893-0.071,15.26-0.45-0.627-0.59
								c-16.349,0.651-49.222-0.411-56.375,0.803c-12.455-0.484,23.702-0.474,4.93-1.069c10.921-0.433,25.987,0.083,29.587-0.519
								c-10.705,0.164-3.907-0.515-10.813-0.526l-11.938,0.364l2.641,0.025c-20.034,0.555-51.771,0.271-77.343,0.517
								c-21.657,0.75-36.553,1.742-62.502,2.181c7.652-0.536-21.556,0.146-5.237-0.884c-6.008-0.024-11.973,0.15-16.462,0.371
								c-4.49,0.221-7.505,0.482-7.618,0.62c10.56-0.243,3.714-0.045,12.612-0.167c-5.997,0.469-19.825,0.917-25.509,0.959
								c2.633-0.085,1.63-0.105,2.206-0.23c-12.599,0.321-6.022,0.562-15.104,1.133c-1.453-0.155-6.471,0.076-12.156,0.422
								c-5.686,0.347-12.033,0.835-16.172,1.056c0,0-2.977,0.419-5.954,0.839c-2.967,0.45-5.934,0.899-5.934,0.899
								c3.253-0.541,0.391-0.302-3.515,0.09c-3.911,0.378-8.836,1.009-9.792,0.948c-4.214,0.736-8.058,1.534-12.381,2.518
								c-2.154,0.507-4.438,1.039-6.906,1.697c-2.477,0.638-5.143,1.413-7.949,2.426c1.139-0.479,1.065-0.502,0.301-0.269
								c-0.764,0.226-2.218,0.728-3.633,1.389c-0.747,0.312-1.387,0.701-2.041,1.048c-0.262,0.181-0.58,0.392-0.773,0.508
								c-0.218,0.13-0.323,0.24-0.481,0.351c-0.573,0.445-0.873,0.911-0.988,0.892c-0.234,0.46-0.316,0.975-0.285,1.47
								c0.049,1.195,0.098,2.368,0.146,3.52c0.063,1.252,0.125,2.482,0.187,3.693c0.149,2.42,0.293,4.764,0.434,7.056
								c0.288,4.582,0.758,8.954,1.134,13.31c0.753,8.71,1.629,17.364,2.063,27.543c-0.151-0.655-0.752-4.94-0.388,1.304
								c0.498,4.905,1.105,13.505,1.561,18.764l-0.025-0.165c0.013,0.102,0.021,0.166,0.034,0.273
								c0.224,2.575,0.402,4.19,0.51,4.246c1.118,8.971,1.915,13.579,3.552,31.318c0.417-1.343-0.896-16.32-1.545-22.792
								l-0.916-5.563c0.315-5.412-1.368-15.969-1.43-20.056c1.646,10.541,3.941,41.172,5.601,59.607
								c0.009-11.307-1.773-35.74-3.506-56.956l0.429,9.375L25.719,103.8l0.312,10.793c-0.714-10.532-1.578-19.62-2.207-29.116
								c0.792,11.115,0.489,15.511,0.103,9.202c-0.398-12.428-1.274-12.896-1.852-22.369c0.261,5.272,0.796,12.137,0.185,7.732
								c-0.359-9.207-0.613-15.09-0.926-20.738c-0.151-2.824-0.224-5.583-0.325-8.667c-0.039-1.542-0.08-3.164-0.124-4.914
								c-0.017-0.875-0.034-1.782-0.051-2.728c-0.008-0.472-0.015-0.955-0.023-1.447c-0.003-0.246-0.007-0.495-0.01-0.746
								c-0.004-0.168,0.002-0.125,0.004-0.188l0.008-0.117c0.006-0.038,0.016-0.102,0.026-0.167
								c-0.107,0.049-0.183,0.015-0.234-0.111c-0.06-0.125-0.071-0.341,0.018-0.596s0.288-0.531,0.565-0.779
								c0.048-0.062,0.195-0.142,0.341-0.257c0.182-0.126,0.333-0.263,0.543-0.396c0.471-0.254,0.859-0.553,1.416-0.81
								c2.081-1.086,4.755-2.03,6.96-2.746c2.233-0.702,4.007-1.222,4.559-1.529c0,0-0.457,0.111-1.142,0.278
								c-0.692,0.157-1.585,0.403-2.478,0.651c-0.905,0.233-1.764,0.517-2.417,0.718c-0.658,0.198-1.076,0.348-1.076,0.348
								s0.211-0.095,0.614-0.233c0.398-0.143,0.967-0.346,1.65-0.591c1.387-0.47,3.28-1.054,5.215-1.588
								c3.875-1.064,7.898-1.899,7.898-1.899c15.024-1.872-13.097,2.811,9.699-0.405c10.64-1.396,15.822-2.077,20.441-2.683
								c4.638-0.622,8.708-1.213,17.195-1.819c-5.558,0.861-18.991,2.194-32.471,3.866c0,0,2.043-0.21,4.101-0.375
								c2.055-0.167,4.111-0.334,4.111-0.334c-2.154,0.37-7.926,1.024-14.228,1.964c-6.308,0.92-13.128,2.165-17.455,3.277
								c1.763-0.537,3.049-0.833,3.829-1.07c0.793-0.22,1.133-0.31,1.096-0.331c-0.077-0.044-1.611,0.271-3.798,0.758
								c-2.162,0.519-4.959,1.242-7.459,2.067c-2.508,0.818-4.629,1.765-5.76,2.344c-0.145,0.221,0.141,0.151,0.524-0.006
								c0.366-0.163,0.984-0.375,1.291-0.495c0.324-0.116,0.412-0.114-0.089,0.198c-0.227,0.161-0.707,0.374-1.173,0.726
								c-0.228,0.173-0.595,0.361-0.834,0.583c-0.278,0.246-0.535,0.419-0.556,0.495c0.039-0.06,0.275-0.194,0.593-0.444
								c0.277-0.221,0.708-0.426,1.022-0.634c0.321-0.211,0.755-0.385,1.1-0.572c0.348-0.188,0.723-0.356,1.105-0.511
								c0.373-0.16,0.733-0.314,1.086-0.465c0.377-0.139,0.747-0.274,1.112-0.408c0.715-0.28,1.474-0.512,2.244-0.758
								c3.111-0.945,6.699-1.91,13.466-3.064c-9.016,1.599-14.666,3.443-18.209,5.256c-0.847,0.46-1.606,0.898-2.159,1.321
								c-0.335,0.205-0.499,0.411-0.711,0.587c-0.155,0.137-0.142,0.167-0.152,0.22c-0.043,0.2,0.036,0.376,0.155,0.47l0.027,0.062
								c0.005,0.031,0.006-0.026,0.016,0.077l0.023,0.24c0.03,0.32,0.061,0.645,0.092,0.975c0.058,0.659,0.118,1.337,0.18,2.042
								c0.119,1.41,0.233,2.926,0.342,4.603c0.24,3.355,0.368,7.347,0.632,12.437c-0.251-3.071-0.381-4.334-0.46-4.481
								c-0.08-0.146-0.133,0.822-0.125,2.224c0.003,2.803,0.111,7.33,0.044,8.077c0.218,2.893,0.497,7.269,0.857,11.532
								c0.37,4.261,0.729,8.403,0.939,10.817l0.358-4.423c0.69,7.764,0.808,13.032,1.008,18.6c0.192,5.563,0.461,11.429,1.51,20.413
								c0.584,2.31-1.097-15.856-0.765-12.619c1.167,12.303,1.665,20.696,1.97,28.777c0.343,8.067,0.446,15.823,0.921,26.826
								c0.289,1.229,0.689,0.947,1.467,8.635c-0.535-2.398-0.432,3.314-1.198-5.336c0.21,7.375,1.058,16.072,1.4,22.589
								c-0.342-15.385,0.818,6.265,1.167,9.096c0.222,7.972-0.489-2.418-0.796-7.312c0.066,3.199,0.022,6.703,0.054,9.856
								c-0.026,3.161,0.018,5.973,0.353,7.787c-0.236,0.132-0.509-4.35-0.963-10.319c-0.232-2.984-0.47-6.347-0.683-9.701
								c-0.21-3.354-0.419-6.698-0.604-9.653c0,0,0.088,1.992,0.177,3.983c0.058,1.996,0.116,3.991,0.116,3.991
								c-0.404-5.49-0.452-6.511-0.801-14.42c0.09,7.754-0.315,7.007-0.716,5.221c0.007-1.016,0.132,0.559,0.14-0.412
								c-0.237-6.366-0.618-11.238-0.764-9.75c-0.881-5.683,0.122,8.839,0.071,13.158c0.226,3.251,0.34,6.516,0.513,9.709
								c0,0,0.193,2.063,0.481,5.159c0.145,1.549,0.313,3.355,0.494,5.292c0.142,1.94,0.292,4.011,0.443,6.081
								c0.299,4.145,0.597,8.29,0.821,11.399c0.129,1.555,0.149,2.856,0.204,3.765c0.042,0.91,0.066,1.43,0.066,1.43
								c0.023,3.553,0.008,6.618-0.031,9.383c-0.042,2.764-0.081,5.228-0.262,7.582c-0.325,4.703-0.619,8.967-0.987,14.299
								c0,0,0.094,0.739,0.188,1.479c0.071,0.739,0.142,1.479,0.142,1.479c-0.474,6.183-0.963,12.189-1.339,15.65
								c-0.167,1.731-0.41,2.82-0.521,2.983c-0.139,0.162-0.125-0.602-0.137-2.595c0.196-0.43,0.276-2.064,0.495-4.744
								c-0.041-0.36-0.042-0.982-0.024-1.766c-0.017-0.26-0.027-0.404-0.041-0.618c-0.215,3.308-0.353,6.31-0.575,8.954
								c-0.261,2.644-0.487,4.937-0.676,6.841c-0.372,3.811-0.592,6.063-0.629,6.444c1.785-22.478-0.762-1.215-1.209-5.065
								c0,0-0.139,1.411-0.348,3.529c-0.104,1.059-0.227,2.294-0.357,3.617c-0.065,0.662-0.133,1.346-0.202,2.041
								c-0.097,0.691-0.195,1.395-0.293,2.098C23.796,304.192,23,309.816,23,309.816c2.374-13.572,0.46-0.186-0.172,4.676
								c-0.187,0.409-0.688,2.419-1.248,5.229c-0.276,1.405-0.591,3.008-0.924,4.704c-0.125,0.668-0.254,1.354-0.385,2.049
								c-0.068,0.391-0.137,0.787-0.207,1.183c-0.075,0.432-0.15,0.862-0.224,1.285c-0.007,0.203-0.147,0.429-0.014,0.608
								c0.146,0.156,0.356,0.225,0.547,0.293c0.79,0.234,1.533,0.313,2.142,0.407l-0.306,0.063c0.424,0.078,0.81,0.14,1.393,0.209
								c0.449,0.045,0.913,0.092,1.389,0.139c0.547,0.046,1.109,0.092,1.684,0.14c2.304,0.175,4.832,0.306,7.426,0.4
								c5.188,0.189,10.637,0.236,15.169,0.219c-0.413-0.152,11.225-0.879,16.822-1.398c-15.574-0.173-6.329-0.382-7.579-0.678
								c1.609,0.031,4.506,0.034,4.844-0.029c2.229-0.142-3.025-0.181-3.463-0.346c-8.267,0.108-16.638,0.097-23.724-0.005
								c-3.542-0.05-6.761-0.125-9.471-0.206c-0.674-0.021-1.319-0.042-1.934-0.062c-0.152-0.005-0.303-0.011-0.451-0.016
								c-0.141-0.004-0.333-0.012-0.346-0.006c-0.109,0.007-0.215,0.013-0.319,0.02c-0.323,0.049-0.607,0.093-0.847,0.129
								c0.148,0.062,0.307,0.105,0.468,0.138c0.166,0.032,0.298,0.049,0.547,0.066c0.458,0.027,0.91,0.055,1.359,0.082
								c0.538,0.02,1.075,0.039,1.615,0.059c2.172,0.063,4.446,0.078,7.245,0.29c-1.572,0.029-3.229,0.024-4.967-0.021
								c-0.864-0.032-1.752-0.066-2.664-0.101c-0.835-0.052-1.692-0.104-2.572-0.159c-0.172-0.012-0.346-0.023-0.522-0.035
								c-0.153-0.015-0.309-0.029-0.466-0.044c-0.314-0.034-0.638-0.079-0.964-0.152c-0.163-0.038-0.327-0.079-0.484-0.148
								c-0.158-0.054-0.323-0.205-0.232-0.389c0.07-0.343,0.142-0.693,0.215-1.053c0.393-1.923,0.81-3.966,1.25-6.121l1.312-4.43
								c0,0,0.04-0.217,0.11-0.597c0.072-0.379,0.176-0.92,0.257-1.577c0.181-1.31,0.423-3.056,0.665-4.802
								c0.482-3.49,0.965-6.98,0.965-6.98c-0.341,2.922-0.271,3.525-0.388,5.229c-0.058,0.851-0.163,1.978-0.39,3.807
								c-0.121,0.914-0.266,2.004-0.441,3.325c-0.22,1.313-0.531,2.85-0.881,4.669c0.938-1.759,2.366-14.501,3.847-23.443
								l-0.027-4.67c0.104,1.813,2.307-17.448,1.194-3.713c0,0-0.127,1.396-0.319,3.49c-0.096,1.047-0.208,2.269-0.327,3.578
								c-0.063,0.654-0.127,1.331-0.192,2.018c-0.092,0.686-0.185,1.381-0.278,2.076c-0.747,5.568-1.493,11.137-1.493,11.137
								l1.321-6.118c0,0-0.7,4.703-1.4,9.405c-0.301,2.359-0.846,4.683-1.165,6.438c-0.343,1.752-0.572,2.92-0.572,2.92l0.611-4.456
								c-0.523,2.715-0.966,5.011-1.342,6.96c-0.092,0.458-0.176,0.875-0.252,1.256c-0.013,0.049-0.027,0.093-0.043,0.136
								c-0.039,0.112-0.088,0.214-0.145,0.314c-0.063,0.114-0.002,0.163-0.006,0.223c0.021,0.115,0.018,0.226,0.105,0.329
								c0.044,0.051,0.114,0.1,0.227,0.142c0.056,0.021,0.123,0.04,0.203,0.058c0.071,0.011,0.147,0.021,0.228,0.033
								c0.234,0.021,0.482,0.045,0.746,0.07c2.595,0.228,6.5,0.427,12.587,0.477c9.326-0.395,19.388-0.375,37.853-0.338
								c-13.357,0.223-1.371,0.475-6.395,0.883c6.815,0.106,11.365-0.007,15.164-0.147c3.761-0.16,6.7-0.286,10.257-0.438
								c3.477,0.357,5.95,0.648-6.25,0.565c-1.532,0.726,16.05-0.084,17.159,0.67c40.418,0.084,32.397-2.341,79.64-1.278
								l-1.772,0.299c30.003-0.299,47.311,0.108,75.094-0.057l21.872,0.827c-4.892,0.105-18.046,0.646-11.909,1.034
								c-10.638-0.807-21.931-0.564-33.395-1.012c-1.17,0.198,3.497,0.357,5.53,0.487c-6.919-0.024-10.39-0.384-19.527-0.272
								c0.44,0.162,10.409,0.382,2.895,0.457l-12.429-0.513c-16.632,0.185-8.195,1.127-27.729,0.855
								c3.633-0.419,11.053-1.019,18.618-1.101c-8.926-0.116,11.9-0.228,3.755-0.505c-12.861,0.6-19.068,0.082-36.167,0.435
								c2.008-0.084,2.54-0.207,6.747-0.234l-24.809-0.333c6.137,0.387-20.495,0.354-18.189,0.91
								c26.439,0.298,18.672-0.056,48.8,0.336c-8.53,0.103-19.531,0.635-24.687,1.137c-0.262-0.022-0.697-0.041-1.624-0.054
								c-4.606,0.533,0.086,0.692-0.007,1.645c13.757-0.641,22.95-0.06,39.174-0.407c3.052-0.514-9.41-0.689-17.474-0.576
								l14.293-0.309l-2.814,0.233l36.274,0.27c-6.874,0.011-9.209,0.307-12.797,0.525c4.681,0.033,9.316,0.183,14.246,0.347
								c-1.034-0.501-0.381-0.851,4.185-0.828c23.339,0.179,36.312,0.66,44.924,1.252c0.895-0.01,1.906-0.02,2.718-0.028
								c-3.912-0.521,16.577-0.874,23.811-1.376c-0.36,0.526,12.027,0.348,18.753,0.635c3.583-0.596-1.192-1.444-9.382-1.961
								c-15.783,0.513-8.845,0.535-16.303,1.302l-25.317,0.457l5.661-0.469c-12.635-0.246-24.773,0.36-23.844-0.266
								c6.677-0.401,17.7-0.118,24.326-0.521l-8.357-0.252c14.747-0.578,7.556,0.614,25.411,0.23
								c-6.565-0.551,1.618-0.033,9.266-0.372c-6.137-0.388-31.435,0.07-26.067-0.824c9.285-0.372,31.233,1.146,43.519,0.276
								l-0.602,0.102c18.121,0.164,24.491-0.337,31.276-0.646c7.711,0.314,18.358-0.072,26.715-0.083l-0.205,0.264l11.791-0.079
								c-5.615,0.467-13.817-0.049-23.946-0.006l1.259,0.494c-11.675-0.613-19.465,0.251-28.52,0.65
								c13.18-0.39,37.214,0.218,40.311-0.732l8.152,0.517l3.901-0.169c6.074,0.388-0.129,0.955-11.908,1.035
								c-2.046-0.13-3.069-0.193-2.448-0.295c-5.468,0.205-10.488,0.573-23.718,0.426l7.06-0.241
								c-16.472-0.079-31.448,0.071-37.089,0.539c23.78,0.267,47.165,0.372,69.494,0.408c6.588-1.092,14.403-1.693,17.762-2.716
								c14.982-0.15,35.322-0.238,48.333,0.173l-1.196,0.199c6.349,0.123,12.2,0.082,17.079-0.022
								c6.707,0.288-4.592,0.533,0.083,0.692l21.459-0.29c-1.324,0.464-19.381,0.418-27.956,0.429
								c1.618-0.035,4.885-0.104,3.837-0.17c-9.975-0.218-28.558,0.528-32.917-0.158c-4.86,0.104,9.873-0.473-6.579-0.551
								c-11.017-0.283-14.605,0.313-15.756,0.513c-0.18,0.264,17.289,0.407,11.227,0.71c8.575-0.011,11.99-0.343,22.956-0.059
								c-8.498,0.01-20.041,0.516-24.567,0.093c-16.805,0.448-14.396,1.695-6.474,1.784c-1.886-0.394,30.655-0.398,8.621-0.963
								c9.899-0.474,27.982-0.43,40.931-0.708l-0.588,0.099l16.076-0.083c-2.264,0.133-7.124,0.238-7.284,0.501l22.266-0.649
								c-12.533,0.442,7.769,0.35,13.473,0.575c2.385-0.398,11.081-0.671,2.737-0.925c-9.38-0.318-5.46,0.204-13.991,0.214
								l12.079-0.606l1.036,0.065l7.271-0.504c16.452,0.039-7.188,1.235,13.895,0.693l-2.743-0.706
								c24.406,0.06,55.751,0.801,72.996,0.441c-4.757,0.413-6.854,1.067-0.313,1.44c-7.437-0.108-22.38-0.055-33.046,0.031
								c-2.053-0.121,13.326-0.865,24.912-0.733c-5.614-1.154-29.145,0.757-30.507-0.42c-29.522-0.368-22.022,1.201-47.081,0.507
								c-0.346,0.525-7.124,0.238-8.441,0.7c7.417,0.918,33.5-0.026,49.761,0.241c-1.592,0.041-4.796,0.126-5.422,0.227
								c11.625,0.133,16.427,0.007,24.548-0.204l-1.023-0.061c14.189-0.541,8.779,0.378,17.131,0.594
								c3.235-0.084,14.848,0.046,12.98-0.337l15.123,0.473l-0.729-0.587c8.53-0.051,10.397,0.335,18.128-0.038l0.357-0.527
								l-21.185-0.144c10.736-0.192,2.992-0.51,14.79-0.642c-13.179,0.601,9.323,0.274,10.622,0.761l8.677-0.313l-2.219,0.145
								c6.81,0.258,8.107-0.211,16.056-0.157c-9.374-0.276-15.514-0.635-27.457-0.238c8.695-0.313,25.94-0.672,30.174-0.697
								c9.131-0.238,15.506,0.151,24.049,0.195c-16.395,0.241,5.744,1.586-27.11,1.269c0.607-0.103,3.268-0.084,4.297-0.024
								c-4.381-0.665-19.694,0.079-26.817,0.35c1.835,0.384-5.614,0.493,7.016,0.685c-4.145-0.24,10.639-0.884,22.654-0.588
								l-2.115,0.833l17.495,0.064l-1.637,0.043c6.58,0.521,18.665-0.139,30.713,0.153c8.695-0.312,42.063-0.139,27.705-0.979
								c10.813,0.498,20.302-0.181,32.1-0.313l-14.708-0.312c17.385-0.626,12.379-0.233,26.291-1.202
								c1.407,0.224,4.509,0.404,1.683,0.647c23.358,0.001,56.719,0.174,70.42-0.53c16.466,0.005,19.052,0.977,42.153,0.551
								c4.865-0.126-3.795-0.768,11.502-0.559c1.029,0.061-14.725,0.643,2.31,0.545c12.128-0.66,28.495,0.3,44.274-0.283
								c4.154,0.091,9.82,0.066,14.084,0.102c2.112,0.009,3.874,0.016,4.925,0.02c1.044,0.027,1.38,0.104,0.645,0.258
								c-13.021,0.244-31.76,0.258-34.594,0.529c1.821-0.308-9.388-0.277,0.337-0.529c-19.952-0.345-12.947,0.336-30.847,0.108
								c-1.233,0.205,9.204,0.542,13.04,0.354c0.086,0.688-35.29,0.398-19.377,1.195c19.126,0.024,24.798-1.424,41.375-0.729
								c-6.642,0.432-17.034,0.096-25.472,0.835l13.621,0.252l9.884-0.517l-0.588,0.104c6.015,0.146,10.413,0.173,13.962,0.123
								c3.54-0.074,6.234-0.218,8.848-0.392c5.241-0.301,10.122-0.871,20.627-1.524c-12.217,0.055,2.756-1.276-6.432-1.21
								c2.027-0.098,4.008-0.151,5.832-0.262c0.755-0.065,1.49-0.129,2.202-0.19c0.258-0.031,0.507-0.062,0.747-0.09
								c0.465-0.089,0.975-0.111,1.275-0.418c0.11-0.38,0.052-0.754,0.101-1.073c0.018-0.249,0.04-0.477,0.069-0.683
								c0.008-0.053,0.016-0.103,0.023-0.15c0.008-0.056,0.01-0.277,0.017-0.397c0.015-0.285,0.027-0.544,0.04-0.777
								c0.063-0.931,0.164-1.433,0.308-1.456c0.033,0.584,0.065,1.144,0.095,1.674c0.016,0.265,0.03,0.521,0.045,0.771l0.017,0.229
								l0.014,0.133c0.04,0.354,0.074,0.653,0.099,0.875c0.049,0.455,0.091,0.851,0.127,1.194c0.096,0.388-0.213,0.599-0.402,0.704
								c-0.419,0.231-0.725,0.315-0.911,0.409c-0.387,0.161-0.335,0.243-0.34,0.337c-0.013,0.09-0.075,0.215-0.875,0.418
								c-0.193,0.082-1.522,0.274-3.108,0.448c-1.658,0.116-3.812,0.268-6.612,0.464c2.019,0.048,0.571,0.354,0.444,0.59
								c-0.063,0.118,0.205,0.218,1.406,0.259c0.602,0.021,1.436,0.026,2.579,0.013c1.143-0.014,2.604-0.027,4.394-0.192
								c0.557-0.069,0.858-0.107,1.153-0.157c0.296-0.051,0.569-0.098,0.82-0.141c0.498-0.093,0.898-0.187,1.223-0.27
								c0.644-0.18,0.977-0.319,1.119-0.417c0.282-0.19-0.149-0.1-0.566-0.059c-0.418,0.049-0.818,0.069-0.512-0.041
								c0.15-0.062,0.485-0.137,1.037-0.378c0.241-0.129,0.678-0.296,0.716-0.78c-0.027-0.452-0.059-0.981-0.096-1.6
								c0.011-0.12,0.022-0.241,0.029-0.318c0.033-0.447,0.077-0.763,0.166-0.471c-0.031-0.294-0.061-0.572-0.089-0.838
								c-0.013-0.144-0.025-0.284-0.037-0.421c-0.014-0.21-0.027-0.415-0.041-0.616c-0.042-0.803-0.081-1.532-0.118-2.217
								c-0.024-0.686-0.047-1.327-0.069-1.952c0.02-0.622,0.039-1.228,0.059-1.847c0.1-2.473,0.135-5.156,0.115-9.863
								c0,0-0.009,0.554,0.009,1.113c0.021,0.56,0.043,1.119,0.043,1.119c0.465-5.772,0.619-8.91,0.668-11.876
								c0.121-2.939,0.243-5.678,0.874-10.582c-0.85,3.883,0.161-6.623,0.269-12.681c-0.432,4.931-1.03,8.729-1.632,13.753
								c-0.31,2.523-0.637,5.353-0.986,8.784c-0.158,1.725-0.291,3.616-0.441,5.689c-0.124,2.082-0.348,4.326-0.395,6.847
								c0.349,2.445,0.605,0.988,0.612,9.233c0,0,0.063-3.262,0.126-6.523c0.039-1.629,0.046-3.266,0.105-4.481
								c0.07-1.212,0.118-2.02,0.118-2.02c-0.149,2.783-0.024,4.947-0.021,7.523c0,0-0.031,0.782-0.078,1.955
								c-0.034,1.175-0.137,2.735-0.142,4.308c0.029,1.577,0.06,3.154,0.082,4.337c0.003,0.609,0.005,1.017,0.005,1.017
								c-0.044-0.649-0.085-1.24-0.121-1.777c-0.051-0.827-0.098-1.571-0.139-2.243c-0.047-0.672-0.089-1.271-0.126-1.808
								c-0.013-0.531-0.023-1-0.033-1.415c-0.05-1.659-0.126-2.451-0.213-2.958c-0.174-1.016-0.391-0.884-0.521-4.283
								c0.901-14.49,0.561-11.96,1.402-20.942c0.241,0.464,1.12-6.378,2.001-15.298c0.944-8.923,1.334-19.888,1.058-27.883
								c0.081,2.486,0.187,5.695,0.243,7.428c0.05,0.727,0.091,1.332,0.125,1.827c0.015,0.498,0.025,0.886,0.034,1.177
								c0.025,0.579,0.058,0.767,0.093,0.66c0.046-0.21,0.225-1.609,0.168-3.363c-0.032-3.517-0.139-8.554-0.065-8.776
								c0,0-0.138-2.24-0.276-4.48c-0.068-1.127-0.136-2.254-0.187-3.1c-0.033-0.427-0.021-0.765-0.025-1.008
								c-0.002-0.241-0.003-0.379-0.003-0.379c-0.022,0.821,0.058,1.838,0.118,2.156c0.079,0.326,0.061-0.075,0.141-1.958
								c0.056-2.976,0.062-5.187,0.039-6.964c-0.023-1.753-0.071-3.12-0.12-4.486c-0.022-0.683-0.046-1.365-0.069-2.095
								c-0.055-0.711-0.113-1.467-0.178-2.316c-0.052-0.847-0.108-1.786-0.175-2.864c-0.057-1.112-0.12-2.366-0.194-3.813
								c0.338-0.776,1.093,8.783,1.071,1.712c0.086-1.289,0.227-3.984,0.226-8.317c0.104-4.307,0.165-10.245-0.087-18.001
								c-0.16-1.103-0.409-5.057-0.677-9.711c0.054,0.659,0.103,1.467,0.138,1.752l-0.166-10.415
								c0.994,8.907,0.718,17.757,1.271,26.637l0.54,0.75c0.035,1.731,0.074,3.618,0.113,5.542c0.028,0.961,0.057,1.932,0.085,2.897
								c0.063,0.968,0.126,1.931,0.188,2.874c0.285,3.738,0.545,7.153,0.709,9.309c-0.027-1.306-0.052-2.482-0.075-3.565
								c-0.047-1.096-0.09-2.097-0.13-3.037c-0.095-1.881-0.178-3.521-0.263-5.198c-0.087-3.347-0.178-6.85-0.331-12.745
								c0.313-1.656,0.67,6.638,0.722,7.837l-0.325-1.755c-0.233,7.02,0.34,12.347,0.625,17.969c0.081,1.411,0.164,2.85,0.251,4.348
								c-0.005,1.507-0.01,3.075-0.016,4.738c-0.023,1.666-0.048,3.429-0.074,5.32c-0.021,0.947-0.045,1.927-0.068,2.942
								c-0.014,0.508-0.027,1.025-0.041,1.553c0.012,0.528,0.024,1.065,0.038,1.614c0.051,2.647-0.032,1.034-0.149,0.444
								c0.217,3.561,0.381,7.075,0.533,10.572c0.064,1.751,0.128,3.499,0.191,5.243c-0.044,1.745-0.088,3.487-0.132,5.226
								c-0.044,1.739-0.088,3.475-0.132,5.207c-0.096,1.731-0.19,3.46-0.286,5.187c-0.149,3.456-0.299,6.901-0.448,10.344
								l0.09-4.496c-0.261,4.681-0.647,11.598-1.096,19.63c-0.188,4.017-0.331,8.313-0.448,12.741
								c0.011,2.214,0.021,4.462,0.031,6.728c0.009,1.131,0.018,2.266,0.026,3.403l0.218,3.407l0.211,0.14
								c0.017-0.643,0.052-0.39,0.095,0.372c0.033,0.865,0.089,2.31,0.149,3.892c-0.029,0.887-0.062,1.817-0.092,2.713
								c-0.028,0.452,0.021,0.884-0.174,1.26c-0.191,0.383-0.542,0.635-0.855,0.82l0.016-0.014c-1.061,0.674-2.292,1.012-3.55,1.305
								c-1.261,0.286-2.569,0.471-3.865,0.634c-2.312,0.311-4.467,0.424-6.615,0.558c-2.139,0.135-4.215,0.267-6.21,0.393
								c-1.997,0.126-3.916,0.259-5.72,0.296c2.307,0.145,5.297,0.078,8.711-0.004c0.721-0.088,2.321-0.181,4.279-0.279
								c0.98-0.057,2.044-0.081,3.145-0.168c1.132-0.098,2.119-0.178,3.54-0.361c1.321-0.155,2.566-0.386,3.645-0.65
								c1.068-0.286,1.951-0.63,2.59-0.998c0.643-0.36,1.03-0.778,1.153-1.045c0.116-0.271,0.074-0.312-0.158-0.073
								c0.454-0.549,0.311-1.269,0.4-1.995c0.043-0.731,0.087-1.492,0.133-2.278c-0.034-1.129-0.068-2.299-0.104-3.492
								c-0.038-0.988-0.077-1.997-0.116-3.012l-0.066-1.525l0.017-1.529c0.013-1.018,0.024-2.027,0.037-3.017
								c0.03-1.979,0.059-3.872,0.084-5.571c0.064-1.7,0.201-3.208,0.312-4.407c-0.981,10.323-0.114-7.23-0.209-9.076
								c0.633-3.45,1.24-15.363,1.595-13.971c0.29-2.042-0.73,5.08-0.813,9.502c-0.463,10.899,2.021-19.855,1.317-6.287
								c0.593-8.616,1.257-18.663,1.294-28.829c-0.042-2.542-0.194-5.094-0.29-7.624c-0.102-2.494-0.201-4.972-0.301-7.413
								c-0.047-1.205-0.095-2.4-0.142-3.584c0.017-1.198,0.033-2.385,0.05-3.558c0.02-2.359,0.039-4.662,0.058-6.888l-0.473,9.943
								c0.063-1.971,0.147-4.614,0.239-7.493c0.042-1.453,0.087-2.965,0.131-4.48c0.015-0.759,0.061-1.515,0.05-2.272
								c-0.02-0.76-0.039-1.514-0.059-2.255c-0.117-5.979-0.378-10.877-0.277-11.601c0.145,2.935,0.34,6.021,0.43,9.507
								c0.041,1.721,0.152,3.507,0.141,5.317c-0.033,1.805-0.067,3.657-0.103,5.55c0.129,0.096,0.226-0.993,0.304-2.695
								c0.03-0.852,0.065-1.855,0.104-2.94c0.035-1.084-0.048-2.275-0.073-3.463c-0.128-4.82-0.43-9.508-0.277-9.945
								c0,0-0.113-1.349-0.283-3.373c-0.108-2.042-0.253-4.765-0.397-7.486c-0.145-2.734-0.289-5.469-0.397-7.52
								c-0.055-1.026-0.1-1.881-0.131-2.479c-0.047-0.6-0.073-0.942-0.073-0.942s0.038,0.603,0.038,1.501
								c0.009,0.898,0.021,2.098,0.032,3.296c0.024,2.397,0.048,4.794,0.048,4.794c-0.1-1.509-0.166-3.894-0.212-6.854
								c-0.005-1.479-0.069-3.106-0.145-4.842c-0.065-1.736-0.134-3.578-0.206-5.489c-0.153-3.797-0.317-7.868-0.481-11.915
								c-0.14-4.046-0.4-8.062-0.373-11.767c0.106,1.06,0.191,2.203,0.26,3.423c0.106,1.218,0.209,2.512,0.298,3.876
								c0.178,2.728,0.319,5.735,0.458,8.964c0.134,3.24,0.277,6.703,0.427,10.33c0.079,1.826,0.161,3.693,0.244,5.596
								c0.047,1.894,0.094,3.821,0.142,5.777c0.422,11.354,0.605-7.021,0.918,3.725c0.101-2.789,0.103-9.803-0.318-13.31
								l-0.06-4.292c0.253,2.406,0.567,5.6,0.732,9.206c0.109,3.586,0.231,7.616,0.359,11.794c0.056,4.174,0.341,8.399,0.595,12.487
								c0.196,4.225,0.506,8.488,0.451,12.054c-0.034-1.271-0.077-2.38-0.143-2.782c-0.125,2.767-0.252,5.543-0.378,8.32
								c-0.104,2.724-0.256,5.474-0.12,8.109c0.038,1.331,0.075,2.659,0.112,3.984c0.057,1.392,0.114,2.78,0.171,4.164
								c0.063,1.39,0.127,2.774,0.19,4.153c0.052,1.378,0.175,2.757,0.129,4.113c0.119-1.435,0.046-2.669,0.038-3.748
								c-0.024-1.081-0.058-2.014-0.098-2.868c-0.103-1.707-0.186-3.105-0.284-4.757c0.073-0.211,0.223,2.264,0.391,5.284
								c0.085,1.511,0.177,3.156,0.262,4.669c0.015,1.505,0.028,2.878,0.038,3.853c0.258-5.064,0.17-5.562,0.298-5.565
								c0.086-0.009,0.179,0.453,0.117-2.785c0.094,1.664,0.191,3.253,0.243,4.821c-0.028,1.561-0.056,3.104-0.085,4.692
								c-0.043,1.588-0.087,3.222-0.134,4.963c-0.043,1.742-0.229,3.559-0.354,5.56c-0.507,4.128-0.126-3.446-0.503-2.616
								c-0.176,4.107-0.458,7.112-0.868,10.542c-0.406,3.424-0.831,7.357-1.133,13.289c0.719-7.878,0.811-6.843,0.691-3.12
								c-0.11,3.701-0.476,10.063-0.488,12.753l0.188-2.622c0.034,2.496-0.01,4.794-0.134,6.895
								c-0.058,1.051-0.154,2.055-0.235,3.004c-0.063,0.946-0.147,1.844-0.255,2.693c-0.062-3.178,0.211-6.346,0.282-8.468
								c0.093-2.127,0.092-3.227-0.159-2.328c-0.12,2.119-0.241,4.235-0.365,6.422c-0.141,2.189-0.077,4.423-0.1,6.812l-0.18-4.348
								l-0.162,8.409c-0.058,1.405,0.081,2.786,0.111,4.18c0.07,1.832,0.142,3.665,0.19,5.49l-0.299,2.79
								c-0.059,0.458-0.081,0.95-0.169,1.379c-0.103,0.401-0.376,0.844-0.713,1.171c-0.742,0.857-1.827,1.509-3.159,2.073
								c-1.333,0.555-2.927,0.969-4.569,1.279c-2.48,0.472-4.902,0.933-6.581,1.252c-5.221-0.123-12.498,0.481-17.336,0.563
								l2.266-0.163c-9.483-0.155-30.388,0.09-32.156,0.401c-6.722-0.258,47.501-2.013-0.006-1.645
								c-18.06,0.036-11.245,0.985-21.553,1.339c0,0,0.582-0.1-0.441-0.161c-7.905-0.056-8.696,0.313-15.193,0.48
								c4.739,0.138,11.607,0.131,13.819-0.012c-2.377,0.407-16.461-0.006-22.516,0.323c7.857-0.637-15.278-0.209-9.179-0.539
								c-15.72-0.371-32.524,0.152-40.779,0.626c-10.669-0.761-18.705,0.139-36.018-0.19c2.66,0.019,7.488-0.108,11.211-0.031
								c9.866-0.513-17.938-0.226-2.752-0.707c-3.249,0.084-0.229,0.264,3.102,0.18c5.826-0.066,11.313-0.295,9.848-0.518
								l-14.108-0.412l4.924-0.129l-21.412-0.566c-0.582,0.101,1.427,0.221,2.456,0.28c-24.832-0.22-53.225,0.171-74.979,0.13
								c-4.084,1.405-53.557,0.698-71.136,1.589c4.713-0.41,7.289-1.122,4.373-1.407c3.92-0.066,11.944-0.646,20.834-0.545
								c1.42,0.223,12.4,0.456,5.334,0.726c24.569-0.205-3.326-0.606,3.925-1.14c-27.223,0.186-43.189,1.034-60.372,1.395
								l-0.436-0.164l-12.975,0.337c10.603,0.073,10.079,0.866-3.588,0.614l1.663-0.042c-7.796-0.318-24.013,0.103-36.189,0.074
								l-8.256,0.473c-12.195-0.029-12.72-0.881-16.685-1.384c-19.114-0.04-30.151,0.732-43.729,1.086
								c-6.139-0.388-34.769-0.551-19.6-0.963c-17.241,0.282-13.764,2.284-43.333,1.103l7.674-0.339
								c-28.272,0.001-68.594,0.608-81.62,0.197c10.433-1.262-35.31-1.404-40.333-2.682c1.4,0.292-9.222,0.36-10.77,0.511
								c-2.328-0.154-6.203-0.308-10.315-0.059c11.024,0.283-7.754,1.292,13.325,0.837c-10.669,0.839-24.414,1.479-47.781,1.375
								l0.353-0.526l18.487,0.209c-1.866-0.395,7.649-0.34,11.551-0.509c-34.391-0.387,4.505-1.223-30.654-1.246
								c-3.396,0.333-1.196,0.197-10.335,0.309c4.297-0.006,5.072-0.367-1.854-0.393l-6.652,0.403
								c-12.275-0.911,20.324-0.519,9.852-1.164c13.578-0.378,37.092-0.537,32.713-1.222c-22.17-0.303-19.949,1.208-43.129,0.841
								l-2.468-0.293c-8.154,0.174-9.473,0.635-13.937,0.903c-0.402-0.164-2.474-0.292-7.711-0.353
								c-13.771,0.642-22.909,0.75-35.612,1.456c33.806-0.466,28.897,0.591,63.79,0.188c-5.469,0.204-30.032,0.3-31.543,1.024
								l0.328-0.527c-11.346,0.244-22.685,0.486-36.932,0.274l8.698-0.273c-18.886,0.317-31.39-0.884-46.293-0.045
								c5.263,0.061,9.535,0.057,12.784-0.015c-9.721,0.209-21.916,0.124-32.48,0.007l-21.862,0.813
								c0.193-0.261-13.658-0.313-6.974-0.713c-7.868-0.222-13.658-0.141-18.617,0.009c-2.479,0.088-4.752,0.168-6.973,0.247
								c-2.167,0.077-4.335,0.167-6.603,0.213c-8.061-0.228-4.566-0.313,1.129-0.434c5.636-0.125,13.563-0.168,14.355-0.542
								c-2.775-0.031-5.571-0.062-8.364-0.093c-2.752-0.029-5.534-0.015-8.296-0.002c-5.533,0.044-10.956,0.087-16.076,0.128
								c-10.283,0.072-19.35,0.136-25.653,0.18c4.571,0.246,6.781,0.361,6.548,0.489c-0.673-0.17-9.686-0.321-14.787-0.651
								l-3.545,0.104c-0.549-0.063-1.06-0.119-1.532-0.173c-0.694-0.086-1.288-0.146-1.903-0.236
								c-1.21-0.163-2.172-0.332-2.907-0.481c-1.47-0.304-2.022-0.538-1.895-0.553c0.136-0.027,0.979,0.129,2.507,0.309
								c0.766,0.088,1.698,0.179,2.786,0.267c0.506,0.035,1.048,0.072,1.625,0.111c0.409,0.02,0.843,0.039,1.3,0.061
								c-0.66-0.06-1.328-0.119-2.005-0.18c-0.848-0.077-1.805-0.18-2.733-0.295c-1.861-0.235-3.758-0.555-5.418-1.16
								c-0.821-0.312-1.594-0.67-2.271-1.133c-0.338-0.235-0.664-0.484-0.965-0.789c-0.295-0.288-0.626-0.694-0.657-1.073
								c-0.093-1.68-0.187-3.368-0.28-5.053c0.279-1.439,0.559-2.876,0.836-4.307c0.219-1.076,0.437-2.146,0.653-3.209
								c0.371-1.738,0.768-3.441,1.205-5.081c-0.296,1.665-0.602,3.387-0.913,5.139c-0.467,2.429-0.943,4.9-1.419,7.375l0.089,2.666
								l0.042,1.33l0.02,0.664c0.013,0.219-0.012,0.454,0.082,0.636c0.183,0.425,0.541,0.767,0.858,1.044
								c0.327,0.29,0.681,0.531,1.05,0.759c0.742,0.447,1.573,0.806,2.456,1.105c1.799,0.569,3.797,0.865,5.733,1.098
								c0.492,0.06,0.968,0.113,1.416,0.153c0.409,0.039,0.815,0.078,1.219,0.116c0.635,0.051,1.26,0.102,1.874,0.151
								c4.886,0.352,8.988,0.468,11.66,0.456c-3.246-0.059-6.134-0.165-8.766-0.316c-1.316-0.078-2.567-0.164-3.769-0.269
								c-0.663-0.063-1.309-0.125-1.942-0.186c-0.792-0.077-1.635-0.185-2.445-0.288c-3.243-0.437-6.066-1.163-7.912-2.594
								c-0.455-0.358-0.938-0.767-1.211-1.346c-0.119-0.25-0.044-0.581-0.065-0.87l0.003-0.891c0.01-1.179,0.02-2.346,0.03-3.517
								c0.611-2.706,1.227-5.433,1.893-8.38c0.512-2.292,1.062-4.757,1.686-7.55c0.493-2.82,0.993-5.984,1.561-9.642
								c0.276-1.83,0.571-3.784,0.887-5.881c0.146-1.05,0.335-2.131,0.456-3.26c0.113-1.131,0.23-2.3,0.352-3.511
								c0.211-0.416-0.14,5.624,0.624-1.202c1.636-15.829-0.242-4.207-0.071-9.181c-0.572,6.084-1.064,10.538-1.57,14.34
								c-0.664,3.778-1.31,6.91-2.063,10.375l0.221-3.259c0.192-0.47,1.471-8.021,1.749-10.267l-0.344-2.029
								c0.261,0.49,0.849-2.297,1.477-6.415c0.308-2.059,0.653-4.447,0.921-6.927c0.203-2.488,0.375-5.063,0.492-7.476
								c-1.161,9.696-0.926,7.069-1.921,9.637c0.127-1.687,0.169-3.198,0.237-4.571c0.07-1.372,0.154-2.607,0.247-3.757
								c0.187-2.297,0.411-4.248,0.637-6.251c0.208-2.004,0.497-4.054,0.612-6.565c0.111-2.513,0.174-5.475,0.142-9.28
								c0.157,1.144-0.203,14.428,0.393,2.963c0.197-4.749,0.161-6.811,0.087-8.48c-0.057-1.669-0.203-2.95-0.261-6.14
								c0.115,1.798,0.227,3.031,0.338,3.993c0.085,0.961,0.173,1.648,0.267,2.355c0.186,1.416,0.38,2.906,0.54,6.813
								c-0.147,4.227-0.236,6.766-0.295,8.455c-0.077,1.688-0.163,2.524-0.205,3.353c-0.096,1.653-0.189,3.261-0.666,11.509
								l1.457-13.926c-0.956,14.303-0.161,10.444-0.047,11.638c0.554-6.105,0.953-10.311,1.028-13.441
								c0.073-3.131,0.04-5.173-0.016-6.94c-0.056-1.768-0.135-3.262-0.153-5.298c-0.017-2.036,0.054-4.613,0.087-8.56
								c-0.146-3.807-0.197-0.111-0.246,3.046c-0.007,1.58-0.121,3.02-0.149,3.325c-0.061,0.305-0.027-0.524-0.081-3.499
								c0.102-7.373,0.024-8.215-0.089-9.282c-0.057-0.533-0.123-1.123-0.18-2.613c-0.084-1.491-0.039-3.878-0.201-8.018
								l0.287,2.771c0.226-5.064-0.24-10.067-0.39-15.921c-0.317-6.432-1.517,7.329-2.53-19.113
								c0.194,1.289,0.305,1.761,0.365,1.759c0,0,1.34,6.418,2.68,12.836c0.704,3.216,1.234,6.438,1.708,8.858
								c0.452,2.423,0.753,4.038,0.753,4.038c-0.374-26.933-2.27-57.949-4.452-89.121c0.309-7.405,2.394,22.184,2.622,20.25
								l0.797,14.232c-0.218-0.387-0.71-7.834-1.198-13.57c-0.49-5.736-0.888-9.764-0.731-3.323
								c0.551,6.268,0.909,11.686,1.253,16.655c0.168,2.485,0.328,4.857,0.484,7.169c0.131,2.313,0.259,4.564,0.386,6.806
								c0.27,4.482,0.537,8.923,0.826,13.734c0.251,4.812,0.562,9.99,0.973,15.948c0.27-3.717,0.003-11.577-0.487-20.439
								c-0.259-4.431-0.532-9.115-0.798-13.66c-0.246-4.546-0.51-8.953-0.592-12.839c0.38,6.512,0.852,11.999,1.237,17.333
								c-0.685-14.574-1.719-30.155-2.853-46.712l-0.497-3.701c0.784,11.157,1.248,18.883,1.302,19.879
								c-1.005-14.797-2.488-27.228-3.182-28.161l0.182,2.628l-0.611-5.327C18.005,109.503,17.779,106.031,17.554,102.579z
								 M907.475,16.068c-0.901,0.062-1.611,0.133-2.136,0.222C905.883,16.197,905.275,16.139,907.475,16.068z M73.184,334.663
								c-9.885,0.013-19.809-0.033-29.621-0.271c-4.904-0.124-9.783-0.29-14.594-0.583c-1.2-0.085-2.397-0.169-3.592-0.254
								l-1.78-0.154l-1.487-0.156c-0.968-0.112-1.93-0.241-2.878-0.417c-0.932-0.204-1.924-0.347-2.709-0.91
								c0.663,0.545,1.518,0.721,2.321,0.941c0.817,0.2,1.648,0.354,2.483,0.494c0.847,0.142,1.636,0.255,2.584,0.375
								c0.979,0.111,1.941,0.222,2.886,0.329c3.79,0.393,7.309,0.661,10.393,0.886c6.17,0.442,10.61,0.709,12.188,0.923
								c1.578,0.206,0.297,0.363-4.961,0.386c-2.629,0.006-6.252-0.021-11.009-0.178c-2.378-0.083-5.041-0.196-8.003-0.408
								c-0.746-0.061-1.511-0.122-2.295-0.187c-0.817-0.075-1.673-0.16-2.538-0.27c-1.729-0.226-3.543-0.486-5.271-1.134
								c0,0-0.23-0.085-0.559-0.247c-0.165-0.082-0.349-0.193-0.523-0.346c-0.177-0.153-0.297-0.392-0.257-0.63
								c0.132-0.952,0.265-1.905,0.265-1.905c-0.083,0.486-0.171,0.993-0.262,1.521c-0.028,0.262-0.145,0.541-0.027,0.8
								c0.12,0.254,0.359,0.435,0.599,0.578c0.982,0.567,2.168,0.867,3.452,1.14c1.286,0.262,2.682,0.449,4.135,0.606
								c1.488,0.159,2.791,0.266,4.237,0.369c5.691,0.396,11.96,0.551,18.036,0.611c4.921-0.124,15.305-0.578,24.407-1.109
								c4.552-0.275,8.786-0.532,11.862-0.719c1.54-0.101,2.79-0.183,3.644-0.238c0.856-0.06,1.32-0.097,1.275-0.116
								c-3.504-0.359-8.565,0.074-14.889,0L73.184,334.663z M87.249,336.691c11.209,0.168,8.659-0.114,10.4-0.357
								c-3.946,0.021-7.885,0.042-11.78,0.063C87.358,336.463,88.093,336.553,87.249,336.691z M96.978,336.084
								c-1.26-0.009-2.334-0.023-2.896-0.059L96.978,336.084z M24.796,198.478c0.025,0.498,0.035,0.677,0.059,1.149
								c-0.081-2.646-0.162-5.299-0.246-8.067C24.609,192.635,24.655,194.682,24.796,198.478z M24.696,221.23
								c0,0,0.125,0.663,0.249,1.327c0.126,0.664,0.225,1.329,0.225,1.329c0.024-2.468-0.035-4.987-0.049-7.564
								C24.93,217.176,24.765,218.066,24.696,221.23z M19.224,293.938c-0.002,0.578-0.005,1.326-0.074,2.187
								c-0.088,0.858-0.188,1.834-0.296,2.88c-0.247,2.09-0.527,4.457-0.794,6.712c-0.554,4.508-0.974,8.582-0.795,9.094
								c-0.029,0.494,0.174-0.043,0.391-1.165c0.216-1.122,0.506-2.818,0.81-4.613c0.636-4.012,1.314-8.296,2.035-12.838
								c-0.055-0.168-0.052-1.089,0.04-2.615c-0.256,2.256-0.635,4.113-0.896,5.183c-0.264,1.069-0.443,1.344-0.495,0.41
								c0.318-1.426,0.607-2.654,0.778-3.749c0.164-1.095,0.283-2.046,0.372-2.903c0.177-1.714,0.231-3.053,0.269-4.422
								c0.052-2.741,0.137-5.591,0.837-11.846c-0.077-2.018-0.391,1.471-0.972,5.91C19.904,286.606,19.347,292.031,19.224,293.938z
								 M946.141,336.574c0.358,0.055,1.594,0.193,3.327,0.365l-8.9,0.328c-15.879-0.107-28.601-0.988-42.891-0.184
								c-6.689-0.184-10.271-0.59-13.694-0.923c3.274,0.034,6.337,0.066,8.89,0.094
								C932.937,335.042,913.768,337.416,946.141,336.574z M763.583,335.805c1.637-0.042,2.225-0.146,2.225-0.146
								c-35.475,1.221-64.686,1.609-83.813,1.601c3.71,0.45,20.867,0.772,29.015,0.947l-7.219,0.535l-4.509-0.401l-12.533,0.497
								c3.505,0.345,13.628,0.253,20.394,0.51c0.588-0.101,22.253-0.75,28.309-1.082l-17.312-0.328
								c4.675,0.137,27.638-0.026,36.744-0.177c0.044-0.065-0.903-0.138-2.38-0.201c-1.478-0.063-3.483-0.116-5.558-0.144
								c-4.147-0.055-8.565-0.005-9.553,0.28c-1.868-0.384,16.223-0.422,4.782-0.816c13.556-0.439,35.126-0.134,45.134,0.04
								l1.696,0.649c10.98,0.232,7.416-0.8,20.462-0.447c-16.038,0.157,2.713,0.71-10.044,0.782
								c4.074,0.239,0.085,0.689,12.867,0.617c10.639-0.883,13.476,0.516,23.533-0.265c6.721,0.257-7.231,0.533,5.993,0.624
								c15.167-0.481,14.29-0.805,15.229-1.436c-14.185-0.149-15.934,0.847-27.534,0.716l23.069-1.119
								c-4.253-0.145-7.399-0.154-10.04-0.106c4.636-0.07,8.574-0.237,11.943-0.463c1.919-0.119,3.69-0.229,5.326-0.33
								c-13.077,0.019-24.689,0.025-26.743-0.238l1.803-0.309c-4.631-0.271-12.176-0.037-15.654,0.192
								c-11.708,0.055-23.402,0.501-25.962,0.111l4.444-0.287C783.297,335.727,781.692,335.768,763.583,335.805z M291.662,334.941
								c8.719,1.14,18.334,2.151,59.043,2.063l-3.204,0.068c20.513,0.755,40-0.821,64.958,0.022
								c-12.112,0.389-11.46,0.353-24.833,1.28l12.995-0.281c-3.601,0.598,9.361,0.317,18.896,0.372l-8.417,0.7
								c-5.723-0.223-20.559-0.337-20.125-0.171c3.249-0.071-19.585-0.965-31.992-0.786c1.278,0.493,27.472,0.363,15.774,1.134
								c10.309-0.31,11.587,0.183,22.363,0.039c-10.334,0.309-2.559,0.661-10.253,0.998l17.669-0.12
								c0.46,0.164-25.734,0.294-11.257,0.935c7.08-0.238,25.983,0.134,26.323-0.393l0.435,0.163
								c13.244,0.149,5.827-0.73,22.088-0.388c0.192-0.265-2.909-0.456-8.735-0.417c-4.924,0.104-5.679,0.466-15.822,0.513
								c-4.546-0.424,12.233,0.084,5.194-0.633c-3.498-0.356-26.776,0.23-19.356-0.534l13.218,0.147
								c0.34-0.527,9.913-0.472,9.645-0.898c8.083-0.173,15.712,0.441,23.968,0.004c3.428-0.332-2.557-0.982,11.102-0.67
								c10.672,0.809,42.122,0.739,53.901,0.659l10.309-0.313c-0.876-0.322-19.696-0.007-13.077-0.409l16.076-0.101l-1.24,0.206
								c5.326,0.034,10.774-0.193,15.635-0.318c-5.007,0.389-16.595,0.258-14.292,0.804c7.545,0.095,8.696,0.296,15.642,0.178
								c-1.516,0.042-2.82,0.099-2.629,0.175c15.277,0.21,14.753-0.643,18.583-0.828c15.36-0.744-15.481-0.636-13.518-1.205
								l44.846-0.387c-3.83,0.187-7.687,0.371-6.241,0.594c10.999,0.233,0.249,0.427,15.692,0.371
								c-1.1-0.75,19.446-0.505,30.355-0.959c5.097,0.299,6.146,0.358-5,0.388c1.279,0.486,16.242,0.271,21.563,0.306
								c3.082-0.128,8.339-0.208,11.67-0.323c-4.464-0.234-2.558-0.544,7.104-0.77l0.563-0.104
								c-15.84-0.104-40.46-0.592-50.39-0.073l2.807-0.247c-18.333-0.388-39.896,0.951-48.35,0.044
								c0.78-0.366-3.684-0.076-3.363-0.604l-13.499,0.438l2.807-0.244l-22.963,0.161l0.607-0.1
								c-10.915,0.481-19.465,0.859-26.295,1.161c-0.025,0.229,0.685,0.303-2.954,0.462c-3.652,0.104-6.42,0.115-8.889,0.078
								c-0.02,0.001-0.02,0.001-0.02,0.003v-0.003c-5.634-0.082-9.387-0.422-16.325-0.575l21.352-0.001
								c1.739-0.386-0.077-0.796-10.538-1.097c4.278-0.003,6.068-0.304,0.774-0.362c-0.582,0.101-13.992,0.213-8.882,0.537
								c-20.284,0.09-53.119-1.022-83.916-0.361c22.126-0.388-17.731-0.569,6.831-0.665c-17.143-0.67-14.753,0.576-32.229,0.433
								c-1.489-0.229,9.515,0.055,13.532-0.378c-29.056-0.327-49.029,0.881-77.14,0.617l-1.201-0.49
								C303.716,334.833,297.808,334.886,291.662,334.941z M236.053,335.402c-5.41,0.041-10.896,0.083-16.473,0.125
								c0.544,0.006,1.049,0.013,1.618,0.019l-16.257,0.351c9.988,0.216,16.566,0.769,2.586,0.981
								c1.177-0.198-2.908-0.456,1.952-0.562c-9.367-0.316-29.918-0.654-24.563,0.097c18.004-0.648,4.191,0.948,18.338,0.469
								c-7.592,0.461-15.111,0.225-22.281,0.42c7.464-0.382-1.736-0.914-12.945-1.135c-4.88,0.105-18.084-0.042-26.193,0.131
								c2.888,0.458-4.173,0.697,9.039,0.845c-4.848,0.105-12.349,0.18-20.751-0.074c3.332-0.068,9.158-0.108,8.756-0.272
								c-5.421-0.429-11.771-0.427-15.274-0.612c-2.795,0.017-5.615,0.033-8.358,0.05c0.818,0.041,1.528,0.094,2.033,0.16
								l-9.287,0.373c12.368-0.18,5.716,0.223,5.555,0.486c0.335-0.526-7.961-0.09-12.194-0.083l9.193,0.581
								c-4.446,0.268-15.691-0.444-13.372,0.114c19.509,0.271,27.011,0.196,44.655,0.077l-7.16-0.451
								c19.908-0.254,12.275,0.774,34.612,0.813c9.287-0.371,33.592,0.061,34.055-0.73c-2.802,0.234,13.906,0.741,21.562,0.402
								c8.463-0.701,34.048-0.731,26.299-1.082c-6.913-0.027-16.218,0.346-21.774-0.14l13.41-0.115l-8.798-0.417
								C238.582,336.375,238.142,335.988,236.053,335.402z M29.791,255.646c0.008-0.148,0.02-0.342,0.03-0.522
								c-0.008,0.2-0.017,0.394-0.025,0.58L29.791,255.646z"/>
							<path fill="#FFFFFF" d="M1004.74,193.013c-0.282-3.822-0.729-13.282-1.025-11.417c0.215-0.116,0.429,4.119,0.604,7.671
								C1004.539,192.821,1004.513,195.772,1004.74,193.013z"/>
							<path fill="#FFFFFF" d="M1004.674,181.653c-0.136-0.665-0.274-0.187-0.507-4.468c0,0,0.176,2.946,0.353,5.892
								c0.158,2.925,0.315,5.849,0.315,5.849L1004.674,181.653z"/>
							<path fill="#FFFFFF" d="M1006.977,169.568c-0.696-6.024-0.857-9.867-0.978-19.377c0.492-1.79,0.624,2.099,0.761,6.97
								c0.087,2.435,0.095,5.12,0.298,7.454c0.201,2.334,0.438,4.326,0.733,5.388c-0.112-2.169-0.215-4.15-0.311-5.984
								c-0.063-1.837-0.123-3.528-0.178-5.113c-0.12-3.169-0.269-5.915-0.421-8.564c-0.138-2.65-0.343-5.203-0.414-7.994
								c-0.066-2.792-0.107-5.816-0.092-9.403c-0.127,1.776-0.258,4.923-0.369,8.654c-0.121,3.731-0.028,8.04,0.001,12.146
								c0.072,4.104,0.097,8.006,0.308,10.903C1006.543,167.545,1006.772,169.447,1006.977,169.568z"/>
							<polygon fill="#FFFFFF" points="1008.679,177.21 1007.956,167.579 1007.943,168.534 1008.666,178.172 							"/>
							<path fill="#FFFFFF" d="M949.698,330.539c-0.878-0.324-6.932,0.008-10.18,0.092
								C942.159,330.646,945.855,330.726,949.698,330.539z"/>
							<path fill="#FFFFFF" d="M688.93,23.156l74.148-0.435C741.743,22.846,722.046,22.962,688.93,23.156z"/>
							<path fill="#FFFFFF" d="M703.693,333.118c19.905-0.343,28.748-0.919,49.03-1.1c-26.672-0.604-35.225,1.087-57.619,0.459
								L703.693,333.118z"/>
							<path fill="#FFFFFF" d="M710.71,330.514c3.301,0.606-15.357,0.746-12.467,1.189c13.415-0.175,6.246-0.595,18.421-0.564
								L710.71,330.514z"/>
							<polygon fill="#FFFFFF" points="800.939,340.46 794.903,340.79 799.763,340.665 							"/>
							<polygon fill="#FFFFFF" points="619.988,331.226 622.188,331.083 612.207,330.908 							"/>
							<path fill="#FFFFFF" d="M624.388,330.938l-2.199,0.145L624.388,330.938z"/>
							<polygon fill="#FFFFFF" points="793.185,341.787 802.157,341.901 806.595,341.612 							"/>
							<path fill="#FFFFFF" d="M713.99,338.651l8.025-0.211C720.424,338.481,709.443,338.25,713.99,338.651z"/>
							<polygon fill="#FFFFFF" points="559.032,331.079 549.268,331.332 550.266,331.391 559.997,331.138 							"/>
							<path fill="#FFFFFF" d="M651.169,340.455c5.545,0.46-16.013,0.157-4.604,0.552
								C656.714,340.915,652.596,340.677,651.169,340.455z"/>
							<path fill="#FFFFFF" d="M533.344,337.484c-1.317,0.003-2.705,0.021-4.041,0.076
								C530.895,337.53,532.231,337.506,533.344,337.484z"/>
							<path fill="#FFFFFF" d="M533.344,337.484c4.253-0.008,8.505,0.164,11.421,0.022
								C539.464,337.304,537.532,337.388,533.344,337.484z"/>
							<path fill="#FFFFFF" d="M484.623,337.503l3.856,0.044c-3.939,0.222-2.072,0.192,1.445,0.015
								c4.086-0.005,3.856-0.154,4.342-0.255c0.818-0.058,1.631-0.114,2.513-0.176c-1.26,0.061-2.392,0.115-3.351,0.161
								C487.098,337.271,483.235,337.284,484.623,337.503z"/>
							<path fill="#FFFFFF" d="M303.655,329.102c14.239,0.213,17.922,0.307,17.147,0.67c13.517,0.152,11.421-0.481,19.574-0.606
								C325.082,329.195,321.955,329.019,303.655,329.102z"/>
							<path fill="#FFFFFF" d="M340.376,329.165c1.714-0.005,3.351-0.01,5.339-0.016
								C343.491,329.133,341.841,329.144,340.376,329.165z"/>
							<polygon fill="#FFFFFF" points="541.566,341.57 532.716,342.146 535.965,342.062 							"/>
							<path fill="#FFFFFF" d="M282.522,328.862c2.641,0.03,6.874,0.025,8.951,0.155
								C292.236,328.653,279.888,328.833,282.522,328.862z"/>
							<path fill="#FFFFFF" d="M337.425,336.165c1.445,0.228,10.558,0.118,14.266,0.213
								C346.371,336.317,342.037,335.633,337.425,336.165z"/>
							<path fill="#FFFFFF" d="M241.665,330.261c2.641,0.03,6.7,0.287,4.941,0.585C250.443,330.677,255.637,330.046,241.665,330.261
								z"/>
							<polygon fill="#FFFFFF" points="311.399,336.031 313.433,336.161 323.179,335.952 							"/>
							<path fill="#FFFFFF" d="M346.148,341.515c10.962-0.407-17.385-1.097,1.493-1.416c-24.351-0.521,1.866,0.622-16.097,0.504
								C342.064,340.777,347.217,341.342,346.148,341.515z"/>
							<path fill="#FFFFFF" d="M331.544,340.603c-1.528-0.016-3.185-0.032-4.981-0.051
								C328.552,340.572,330.157,340.588,331.544,340.603z"/>
							<path fill="#FFFFFF" d="M177.291,337.439c1.592-0.041,2.68-0.089,3.684-0.138
								C179.721,337.335,178.525,337.377,177.291,337.439z"/>
							<path fill="#FFFFFF" d="M274.175,340.812l16.43-0.611c-10.975,0.407-38.582,0.308-36.864,0.963
								c8.94,0.156,19.697,0.012,24.117-0.258L274.175,340.812z"/>
							<path fill="#FFFFFF" d="M85.658,328.506l7.099-0.239l-8.913-0.097C86.445,328.268,81.734,328.743,85.658,328.506z"/>
							<path fill="#FFFFFF" d="M82.109,328.162l1.735,0.008C83.459,328.154,82.908,328.149,82.109,328.162z"/>
							<path fill="#FFFFFF" d="M208.364,337.206c5.308,0.06,9.554,0.054,14.395-0.05
								C220.751,337.027,207.527,336.878,208.364,337.206z"/>
							<path fill="#FFFFFF" d="M35.858,329.221c0,0,2.89,0.05,5.78,0.101c2.901,0.021,5.802,0.042,5.802,0.042
								s-3.165-0.043-6.329-0.085c-3.15-0.079-6.3-0.157-6.3-0.157L35.858,329.221z"/>
							<path fill="#FFFFFF" d="M27.77,301.326l0.436-2.016c0,0,0.352-2.449,0.527-4.913c0.215-2.46,0.431-4.919,0.431-4.919
								l-0.353,2.058c0,0-0.215,2.451-0.43,4.903c-0.111,1.226-0.304,2.443-0.412,3.36C27.849,300.716,27.77,301.326,27.77,301.326z
								"/>
							<path fill="#FFFFFF" d="M52.435,341.234c7.984,0.123,14.199-0.501,12.115-0.615c0,0-3.862,0.006-7.725,0.011
								c-3.867-0.02-7.735-0.039-7.735-0.039c3.929,0.545,4.297,0.04,13.253,0.173L52.435,341.234z"/>
							<path fill="#FFFFFF" d="M153.861,24.481c-3.425,0.403-20.212,0.694-21.1,0.424c2.249-0.227,11.346-0.63,5.623-0.665
								l-13.244,1.295c-8.828,0.093-5.492-0.327,1.149-0.829c6.64-0.503,16.591-1.024,20.953-1.283
								c-9.006,0.188-14.836,0.496-20.805,0.843c-5.964,0.337-12.07,0.683-21.621,1.224c5.634-0.22,9.207-0.167,12.191-0.121
								c0.675,0.558-17.142,1.063-29.796,2.047c8.084-0.291,3.425,0.222-2.421,0.88c-1.054,0.094-1.751,0.188-2.247,0.265
								c-0.679,0.082-1.321,0.159-1.981,0.239l1.514-0.12c-0.102,0.074,0.239,0.128,1.338,0.151
								c10.588-0.968,18.765-0.91,25.622-1.247c-3.413-0.307,2.422-0.676,10.202-0.976c7.779-0.304,17.503-0.512,21.827-0.784
								l9.994-0.367l3.741-0.095c0.754,0.087-0.307,0.246-6.005,0.577c4.752-0.329,20.637-0.585,19.166-0.858
								c0,0,9.067-0.149,18.135-0.297c9.072-0.107,18.145-0.214,18.145-0.214c1.13,0.029,2.261,0.068,3.098,0.13
								c1.257-0.072,1.468-0.123,1.301-0.17c0,0,9.887-0.067,24.718-0.167c14.839-0.03,34.625-0.07,54.412-0.11
								c39.599,0.01,79.198,0.021,79.198,0.021c-7.814-0.143-14.576-0.267-22.634-0.415c12.095-0.634-13.215-0.12-9.665-0.723
								c5.437-0.215,13.394-0.144,18.134,0.001c1.765-0.305-4.99-0.574-4.209-0.938c-19.981-0.388-23.039,1.063-42.567,0.826
								c0.774-0.365,6.81-0.68-5.972-0.64l3.248-0.076c-20.466,0.396-15.946-0.836-28.827,0.168l0.339-0.527
								c-9.283,0.397-27.338,0.428-37.511,0.545l0.606-0.104c-28.531,0.758-16.021,0.166-48.047,0.75l14.733-0.775
								c-11.053-0.146-13.536,0.558-21.466,0.596c0.567-0.109-1.278-0.47,6.211-0.667c0,0-9.708,0.384-19.417,0.768
								c-9.7,0.444-19.4,0.889-19.4,0.889C141.276,24.589,152.415,24.287,153.861,24.481z"/>
							<path fill="#FFFFFF" d="M104.817,25.49c-2.047,0.086-4.375,0.191-7.114,0.381C100.352,25.729,102.632,25.607,104.817,25.49z"
								/>
							<path fill="#FFFFFF" d="M378.093,24.285l-11.125-0.01C370.414,24.312,374.007,24.327,378.093,24.285z"/>
							<path fill="#FFFFFF" d="M50.031,31.599c3.272-0.352,2.066-0.075-0.09,0.335c-2.155,0.414-5.233,1.019-5.765,1.23
								c0,0,1.424-0.27,3.593-0.618c2.162-0.361,5.072-0.79,7.999-1.18c5.853-0.786,11.78-1.379,11.78-1.379
								c-0.128-0.191,2.194-0.659,1.7-0.794c0,0-4.847,0.485-9.654,1.083C54.777,30.853,50.031,31.6,50.031,31.599z"/>
							<path fill="#FFFFFF" d="M74.449,29.705c0.794-0.206,3.297-0.562,6.114-0.904c0,0-3.259,0.277-6.519,0.555
								c-3.254,0.297-6.496,0.633-6.496,0.632C67.646,30.134,69.108,30.105,74.449,29.705z"/>
							<path fill="#FFFFFF" d="M70.92,19.147l4.28-0.406l6.466-0.688c0,0-2.687,0.262-5.374,0.524
								C73.606,18.863,70.92,19.147,70.92,19.147z"/>
							<path fill="#FFFFFF" d="M137.928,16.292c-5.122-0.157-14.815,0.426-18.056,0.652
								C131.049,16.497,126.21,16.789,137.928,16.292z"/>
							<polygon fill="#FFFFFF" points="123.987,13.471 134.775,12.913 133.767,12.887 							"/>
							<path fill="#FFFFFF" d="M460.329,22.319c1.765-0.009,3.479-0.018,5.262-0.027C463.181,22.287,461.607,22.299,460.329,22.319z
								"/>
							<path fill="#FFFFFF" d="M367.933,22.699c25.685,0.626-16.829,0.47-8.76,1.238l13.978-0.232l-1.189,0.202l17.046-0.044
								c-3.497-0.353-6.125-0.377-5.364-0.742c22.756,0.173,7.174,0.443,23.869,0.926l25.436-0.033l-2.059,0.107
								c2.142-0.005,3.088-0.05,3.824-0.108l85.719-0.114c15.596-0.269-8.624-0.668,2.88-1.191
								c-18.076-0.021-44.938-0.446-46.473,0.28c0.608-0.1,1.804-0.299-1.86-0.39l-10.456,0.585l9.968,0.205
								c-10.513,0.584-44.458,0.406-50.597,0.026c19.304-0.178,9.618-0.911,36.511-0.484c-1.208-0.186-6.131-0.518-0.076-0.611
								C428.818,22.489,400.575,22.12,367.933,22.699z"/>
							<path fill="#FFFFFF" d="M684.026,22.593l-0.25,0.066C684.346,22.623,684.531,22.597,684.026,22.593z"/>
							<path fill="#FFFFFF" d="M673.448,22.52l-15.363,0.74l23.951-0.097l1.74-0.504c-2.117,0.13-10.515,0.398-13.77,0.208
								L673.448,22.52z"/>
							<path fill="#FFFFFF" d="M640.247,23.721c12.369-0.233,11.699-0.822,4.953-1.08c11.359-0.292,5.991,0.625,13.814-0.011
								c-0.255-0.425-14.255-0.152-17.472-0.069L640.247,23.721z"/>
							<polygon fill="#FFFFFF" points="549.001,23.334 552.48,23.095 543.912,23.018 							"/>
							<path fill="#FFFFFF" d="M552.48,23.095l8.504,0.077c-0.588-0.183-1.17-0.36-2.557-0.486L552.48,23.095z"/>
							<path fill="#FFFFFF" d="M583.299,23.372c3.601,0.032,7.584,0.067,12.431,0.109L583.299,23.372z"/>
							<path fill="#FFFFFF" d="M573.574,23.208l0.287,0.078l9.438,0.086C579.821,23.313,576.701,23.261,573.574,23.208z"/>
							<path fill="#FFFFFF" d="M560.984,23.172c1.38,0.415,2.996,0.851,15.293,0.752l-2.416-0.639L560.984,23.172z"/>
							<polygon fill="#FFFFFF" points="202.45,12.399 212.183,12.08 211.152,12.024 201.425,12.346 							"/>
							<path fill="#FFFFFF" d="M258.607,12.492c2.405-0.076,4.229-0.156,5.885-0.235C261.959,12.304,259.944,12.377,258.607,12.492z
								"/>
							<path fill="#FFFFFF" d="M300.338,9.659c11.441,0.424-15.785,0.539,5.403,0.738c1.867,0.389-8.064,0.878-18.042,0.683
								c0.793-0.364,9.722-0.229,3.588-0.604c-6.626,0.418-9.147,0.133-6.838,0.681c-11.149,0.342-12.39,0.734-19.957,1.099
								c13.479-0.263,41.774,0.322,58.872-0.366c9.425-0.653,3.709-1.558,3.749-2.511C325.695,9.155,301.261,9.028,300.338,9.659z"
								/>
							<path fill="#FFFFFF" d="M282.333,8.701c-5.297-0.048-6.916-0.007-10.166,0.073C273.043,9.1,278.053,8.714,282.333,8.701z"/>
							<path fill="#FFFFFF" d="M404.011,15.978c1.01-0.134,10.59-0.289,8.531-0.526l-14.522,0.151
								C401.427,15.63,402.629,15.798,404.011,15.978z"/>
							<path fill="#FFFFFF" d="M391.649,15.668l6.37-0.065C396.427,15.59,394.457,15.605,391.649,15.668z"/>
							<path fill="#FFFFFF" d="M404.701,16.063c-0.23-0.028-0.435-0.054-0.69-0.085C403.806,16.007,403.844,16.036,404.701,16.063z"
								/>
							<path fill="#FFFFFF" d="M618.536,23.656c-0.205,0.259,6.266,0.121,9.516,0.03C625.41,23.673,621.701,23.58,618.536,23.656z"
								/>
							<path fill="#FFFFFF" d="M862.18,22.247l5.717,0.199C865.876,22.325,864.84,22.265,862.18,22.247z"/>
							<path fill="#FFFFFF" d="M950.339,15.612c0.169-0.045,0.593-0.072,1.164-0.091C950.932,15.533,950.533,15.562,950.339,15.612z
								"/>
							<path fill="#FFFFFF" d="M951.503,15.521c3.925-0.1,15.986,0.846,20.35,0.858l-0.558,0.063c0,0,2.024,0.098,4.049,0.196
								c2.025,0.116,4.051,0.232,4.051,0.232c-3.792-0.321-9.664-0.749-15.139-1.017C958.78,15.579,953.703,15.446,951.503,15.521z"
								/>
						</g>
					</g>
				</g>
			</g>
		</g>
	</g>
</g>
</svg>
