<?xml version="1.0" encoding="utf-8"?>
<!-- Generator: Adobe Illustrator 16.0.0, SVG Export Plug-In . SVG Version: 6.00 Build 0)  -->
<!DOCTYPE svg PUBLIC "-//W3C//DTD SVG 1.1//EN" "http://www.w3.org/Graphics/SVG/1.1/DTD/svg11.dtd">
<svg version="1.1" id="Layer_1" xmlns="http://www.w3.org/2000/svg" xmlns:xlink="http://www.w3.org/1999/xlink" x="0px" y="0px"
	 width="516px" height="435px" viewBox="0 0 516 435" enable-background="new 0 0 516 435" xml:space="preserve">
<g>
	<image overflow="visible" opacity="0.75" width="541" height="450" xlink:href="34E6CFC.png"  transform="matrix(1 0 0 1 -7 -1)">
	</image>
	<g>
		<path fill="#F2F2F2" d="M505.68,19.399c-0.072-5.693-20.668-10.281-45.782-10.183c-48.273,0.19-98.125,1.028-144.919,0.608
			c-41.209-0.369-87.487-0.499-134.051-0.458C98.008,9.438,9.271,6.368,9.768,38.689c1.936,126.023,11.053,251.384,0,376.693
			c-0.497,5.633,29.431,4.115,35.518,4.192c146.365,1.835,293.247,1.979,439.694,0.436c5.101-0.053,10.624-0.144,14.445-0.831
			c4.857-0.871,5.181-2.358,5.144-3.674c-1.022-36.535,2.426-72.709,1.403-109.245c-0.364-13.021,0.365-24.706,0-37.726
			c-0.402-14.39-0.095-30.659-0.497-45.048C503.564,155.186,506.54,87.647,505.68,19.399z"/>
		<g>
			<g>
				<g>
					<g>
						<g>
							<path fill="#FFFFFF" d="M503.233,63.271c-0.061-4.026,0.246-7.539,0.388-6.023c-0.387-8.204,0.041-8.379-0.689-9.441
								c-0.364-5.263,0.124-10.881,0.428-4.893l-0.465-15.177l-0.103,9.076c-0.609-2.467,0.164-14.503-0.547-17.37l0.079,16.425
								l-0.202-0.819c0.222,3.738,0.14,11.003,0.058,13.536c-0.101-0.399-0.263-0.145-0.284-3.041
								c-0.021,19.829,1.067,5.341,1.289,21.803C503.169,66.314,503.176,65.037,503.233,63.271z"/>
							<path fill="#FFFFFF" d="M501.652,80.119l0.685,6.931l-0.324,11.616c0.262,0.134,0.381,8.6,0.675,2.872
								c-0.029-1.121-0.083-3.336-0.039-5.125c0.553,1.302,0.113,15.453,0.726,12.045c-0.05-9.19,0.09-10.6-0.309-16.26
								c0.146-8.423,0.343-14.557,0.593-18.488c-0.06-2.501-0.392-2.856-0.471-6.031c0.008,0.703,0.016,1.349,0.024,2.156
								l-0.853,0.336c0.157,2.65,0.04,5.155,0.027,8.094c0,0-0.212-3.402-0.424-6.804c-0.248-3.397-0.495-6.795-0.495-6.795
								c-0.734,4.368-0.467,17.737-0.844,23.071C501.415,81.124,500.923,93.014,501.652,80.119z"/>
							<path fill="#FFFFFF" d="M503.188,67.68c-0.001-0.087-0.002-0.232-0.003-0.333C503.186,67.447,503.187,67.592,503.188,67.68z"
								/>
							<path fill="#FFFFFF" d="M12.485,245.095c-0.058-2.889-0.272-3.738-0.379-4.154c0,0,0.031,2.034,0.077,5.084
								c0.057,3.05,0.097,7.116,0.117,11.183c0.057,8.133,0.113,16.266,0.113,16.266c0.218-1.019,0.435-10.392,0.609-4.13
								c0.23-2.794-0.038-11.301-0.348-12.532l0.357,2.356c-0.473-7.492,0.315-12.624,0.63-7.737l-0.009-0.633l-1.989-20.741
								C11.678,237.68,12.33,235.917,12.485,245.095z"/>
							<path fill="#FFFFFF" d="M460.85,7.662c-4.234,0.091-4.742,0.189-4.266,0.264C458.099,7.857,459.525,7.762,460.85,7.662z"/>
							<path fill="#FFFFFF" d="M11.184,225.211l-0.664-6.492C10.717,221.319,10.955,223.603,11.184,225.211z"/>
							<path fill="#FFFFFF" d="M19.718,270.225c0.028,0.014,0.054,0.084,0.09-0.088l-0.288-2.927c0,0.044,0,0.057,0,0.074
								C19.593,268.362,19.658,269.331,19.718,270.225z"/>
							<path fill="#FFFFFF" d="M5.184,77.569c-0.029-0.699-0.054-1.301-0.088-2.137C5.128,76.21,5.157,76.914,5.184,77.569z"/>
							<path fill="#FFFFFF" d="M21.067,358.776l0.109-14.557c0.185,1.945,0.312-5.069,0.505-1.997
								c-0.007-1.109,0.045-6.307-0.119-4.894l-0.069,2.966c-0.482-7.686-0.882-3.055-1.055-15.768
								c-0.638,7.873-0.356,11.338-0.156,15.524c-0.004,1.418-0.008,2.604-0.011,3.805c0,0,0.036,0.758,0.09,1.894
								c0.042,1.136,0.1,2.65,0.156,4.165c0.114,3.03,0.227,6.062,0.227,6.062L21.067,358.776z"/>
							<path fill="#FFFFFF" d="M259.084,12.049l-0.158,0.054C259.071,12.085,259.098,12.067,259.084,12.049z"/>
							<path fill="#FFFFFF" d="M258.292,12.325l0.634-0.222C258.147,12.212,255.167,12.31,258.292,12.325z"/>
							<path fill="#FFFFFF" d="M11.686,227.591c-0.131-0.195-0.31-1.026-0.502-2.38l0.48,4.845
								C11.67,229.366,11.678,228.456,11.686,227.591z"/>
							<path fill="#FFFFFF" d="M13.375,238.607l0.278,12.189l0.393,4.491C13.898,250.623,13.695,245.167,13.375,238.607z"/>
							<path fill="#FFFFFF" d="M5.278,96.855c-0.811-25.27,0.996,6.186,0.871-5.432c-0.299-7.013-0.731-9.481-0.964-13.854
								c0.83,20.044-1.38-2.682-0.624,17.532c-0.799-2.854-1.167-14.563-1.129-21.434c0.494-7.786,0.662,6.777,1.373,8.52
								c-0.307-8.114-0.396-6.681-0.859-10.117c-0.086-6.373-0.436-12.963-0.646-18.917c-0.111-2.977-0.195-5.793-0.2-8.342
								c-0.003-1.275,0.014-2.482,0.057-3.61c0.029-0.563,0.057-1.107,0.083-1.629c0.02-0.261,0.039-0.517,0.058-0.767
								c0.036-0.341,0.07-0.675,0.104-1c0.048-3.185,0.699-5.596,1.309-7.377c0.332-0.888,0.622-1.655,0.949-2.297
								c0.305-0.659,0.586-1.229,0.884-1.729c1.161-2.01,2.039-3.478,4.501-5.931c0.141-0.366-0.656,0.16-1.953,1.33
								c-1.273,1.209-3.039,3.199-4.458,5.841c-1.444,2.617-2.377,5.844-2.651,8.576c-0.257,3.045-0.185,4.152-0.348,5.103
								c0.048-0.71,0.146-2.095,0.255-1.696l-0.004,7.987c0.113-7.583,0.748,1.04,0.881,5.089c0.07,2.945,0.211,8.801-0.005,8
								l-0.24-4.458c-0.138,5.75,0.806,12.652,0.554,18.721c-0.156,0.321-0.288-1.97-0.398-2.315
								c0.663,6.778,0.777,13.329,1.421,23.361l-0.885-5.803c1.017,8.016,1.305,26.211,1.271,38.821
								c0.081-1.401,0.091-3.922,0.276-2.415c0.393,7.397,0.067,12.998-0.417,9.583c0.822,7.21,0.328,27.548,1.382,37.365
								c0,0,1.222,11.288,2.443,22.575c0.592,5.646,1.184,11.291,1.628,15.524c0.434,4.235,0.724,7.059,0.724,7.059
								c-0.128-1.693-0.241-3.505-0.313-5.374c0.548-4.127,0.424-6.344,1.175,0.853c-0.495-7.072-0.916-4.354-1.211-14.988
								c0.427,4.164,1.183,5.201,0.995-4.991c-1.281-25.458-3.638-42.284-5.267-66.058c0.466-0.895-0.245-19.578-0.37-28.672
								c0.623,3.454,0.953,10.195,1.274,17.187c-0.108-4.392-0.294-11.953-0.433-17.563L5.278,96.855z"/>
							<path fill="#FFFFFF" d="M8.672,155.991c0.024-0.638,0.029-1.298,0.032-1.975C8.674,154.377,8.66,154.967,8.672,155.991z"/>
							<path fill="#FFFFFF" d="M6.853,118.807c0.021,0.087,0.035,0.056,0.056,0.086c-0.034-0.733-0.068-1.467-0.104-2.218
								C6.821,117.427,6.84,118.275,6.853,118.807z"/>
							<path fill="#FFFFFF" d="M12.666,221.602c0.148,1.511,0.258,2.625,0.407,4.137c-0.057-0.932-0.127-2.099-0.196-3.223
								C12.788,221.445,12.711,220.938,12.666,221.602z"/>
							<path fill="#FFFFFF" d="M11.913,226.713l-0.218-0.805c-0.003,0.65-0.006,1.107-0.009,1.683
								C11.796,227.765,11.887,227.574,11.913,226.713z"/>
							<path fill="#FFFFFF" d="M37.101,14.903c0,0,0.589-0.17,1.178-0.339c0.591-0.166,1.181-0.332,1.181-0.332
								C38.023,14.571,37.417,14.774,37.101,14.903z"/>
							<path fill="#FFFFFF" d="M5.389,68.674c0.259,8.791,0.755,1.034,1.058,13.471l-0.043-3.651
								c0.508,8.917,0.83,24.594,1.154,35.19c-0.327-1.187-0.161,6.435-0.65,5.209c0.323,7.239,0.637,14.409,1.216,18.124
								c-0.017,4.49,0.6,11.291,0.58,16.999c0.2-2.416,1.169,8.091,0.416-5.777c0.071,1.119,0.112,0.414,0.184,1.52
								c0.11-8.952-0.646-12.516-0.885-20.218c0.131-4.613,0.66,7.518,0.638,3.169c-0.542-9.611-0.575-30.193-1.56-29.528
								c-0.266-7-0.069-7.974,0.058-10.067C6.139,82.067,7.023,51.984,5.678,52.111c0.133,4.046,0.211,10.644,0.665,16.572
								L5.389,68.674z"/>
							<path fill="#FFFFFF" d="M12.283,206.857c-0.007-0.54-0.016-1.261-0.022-1.709C12.268,205.654,12.276,206.282,12.283,206.857z
								"/>
							<path fill="#FFFFFF" d="M8.832,317.567l-0.848-3.679c0.087-10.425,0.146-17.521,0.203-24.29
								c0.033-6.772,0.186-13.213,0.074-22.338c0.115-1.395,0.208,0.819,0.255,1.941c-0.065-6.415-0.145-14.42-0.221-21.99
								c-0.128-7.572-0.29-14.707-0.565-19.374c-0.074-4.084-0.017-14.813,0.335-10.76c-0.122-1.986-0.247-4.257-0.267-6.544
								c0.312-0.613,0.201,5.114,0.469,5.24c-0.017-1.813,0.032-2.521-0.08-2.935c0.344,3.044,1.035-3.188,1.314,11.038
								c-0.643,5.521-0.296-9.865-1.064-6.596c0.093,4.717,0.406,4.162,0.517,4.564c0.109,6.013-0.106,5.858-0.304,5.541
								c0.294,2.299,0.043,9.863,0.484,13.038c0.236,11.687-0.638-0.628-0.516,7.005l0.904,4.391L9.445,264.51
								c0.208,9.184,0.571,8.526,0.958,8.197c0.381-0.33,0.829-0.331,1.022,10.172c-0.436-2.761-1.199,5.661-1.42,15.429
								c-0.001-5.847-0.522-16.652-0.247-24.197c-0.358,5.318-0.328,1.659-0.401-2.642c-0.06-4.301-0.136-9.24-0.498-6.478
								c0.194,2.628,0.326,6.134,0.374,9.837c0.021,3.702-0.029,7.602-0.138,11.018l-0.07-2.24
								c-0.131,7.265,0.806,12.777,0.281,22.799c-0.047,4.982-0.272,4.045-0.458,3.166C8.91,313.787,9.02,317.559,8.832,317.567z
								 M8.817,306.713l0.185-6.662C8.838,301.631,8.805,304.114,8.817,306.713z"/>
							<path fill="#FFFFFF" d="M500.964,173.656c0.014-0.665,0.024-1.432,0.059-2.034
								C500.975,172.066,500.963,172.836,500.964,173.656z"/>
							<path fill="#FFFFFF" d="M154.966,416.116l3.871,0.054C157.326,416.131,156.087,416.119,154.966,416.116z"/>
							<path fill="#FFFFFF" d="M241.862,413.903l5.655-0.159C245.285,413.741,243.536,413.809,241.862,413.903z"/>
							<path fill="#FFFFFF" d="M501.497,219.925l-0.004,0.189c0.02,0.316,0.035,0.559,0.057,0.893L501.497,219.925z"/>
							<path fill="#FFFFFF" d="M416.124,415.322c0.861,0.068,1.829,0.128,3.151,0.172
								C419.117,415.411,417.939,415.356,416.124,415.322z"/>
							<path fill="#FFFFFF" d="M240.821,413.933c0.145,0.008,0.229,0.013,0.343,0.019c0.22-0.015,0.461-0.031,0.699-0.048
								L240.821,413.933z"/>
							<path fill="#FFFFFF" d="M116.713,413.386c-0.831,0.022-1.586,0.043-2.479,0.067
								C115.403,413.444,116.12,413.418,116.713,413.386z"/>
							<path fill="#FFFFFF" d="M122.15,415.825c-0.892,0.016-1.745,0.036-2.409,0.068L122.15,415.825z"/>
							<path fill="#FFFFFF" d="M17.243,395.724c0,0,0.072-1.308,0.144-2.615c0.078-1.308,0.112-2.616,0.111-2.616
								C17.374,393.063,17.257,394.596,17.243,395.724z"/>
							<path fill="#FFFFFF" d="M108.361,415.178c-0.304,0.036-0.607,0.072-0.81,0.109
								C108.272,415.266,108.616,415.218,108.361,415.178z"/>
							<path fill="#FFFFFF" d="M503.7,140.515c0,0.119,0.001,0.247,0.001,0.317l0.098,0.132L503.7,140.515z"/>
							<path fill="#FFFFFF" d="M502.556,127.823c-0.012-1.496-0.024-3.053-0.037-4.583
								C502.501,124.941,502.516,126.6,502.556,127.823z"/>
							<path fill="#FFFFFF" d="M491.735,416.209c1.353,0.086,4.426-0.013,3.004,0.235c1.271-0.156,1.793-0.398,1.413-0.454
								C495.768,415.928,494.412,415.978,491.735,416.209z"/>
							<path fill="#FFFFFF" d="M508.825,165.944c-0.108-0.83-0.189-1.862-0.268-2.898
								C508.667,164.973,508.757,166.664,508.825,165.944z"/>
							<path fill="#FFFFFF" d="M508.558,163.045c-0.059-0.953-0.12-1.972-0.172-2.825
								C508.434,161.214,508.491,162.167,508.558,163.045z"/>
							<path fill="#FFFFFF" d="M456.802,423.526c-0.343-0.056-0.876-0.102-1.597-0.113
								C455.417,423.527,455.993,423.549,456.802,423.526z"/>
							<path fill="#FFFFFF" d="M502.688,119.539c-0.192-0.824-0.413-20.738-0.7-3.994c-0.622-0.653-0.173-10.747-0.28-15.212
								c-0.183,3.241-0.386-1.616-0.622-0.634c0.053,2.215,0.204,4.849,0.119,8.508c-0.306,1.68-0.439-3.876-0.285-8.211
								c-0.391,5.339-0.424-6.784-0.761,0.774c0.023,8.083,0.057,14.979,0.192,21.281c0.154,6.309,0.401,12.018,0.819,17.711
								c-0.084-9.226-0.211-19.554,0.141-27.103l0.51,3.183c-0.582,8.533-0.232,13.826-0.352,22.233l0.432-18.888
								c0.553-8.835,0.582-2.922,0.618,4.052C502.535,121.523,502.587,119.973,502.688,119.539z"/>
							<path fill="#FFFFFF" d="M507.363,132.309l0.018-0.316c-0.018-0.277-0.027-0.62-0.049-0.795L507.363,132.309z"/>
							<path fill="#FFFFFF" d="M6.188,395.892l-0.079-1.625C6.095,395.617,6.127,396.036,6.188,395.892z"/>
							<path fill="#FFFFFF" d="M504.648,143.546v-0.013C504.653,143.661,504.653,143.692,504.648,143.546z"/>
							<path fill="#FFFFFF" d="M29.443,424.815c-0.059,0.013-0.118,0.028-0.222,0.043C29.371,424.844,29.371,424.828,29.443,424.815
								z"/>
							<path fill="#FFFFFF" d="M40.193,413.038c-0.075-0.024-0.097-0.048-0.272-0.069C39.065,413.013,39.48,413.032,40.193,413.038z
								"/>
							<path fill="#FFFFFF" d="M29.476,424.765c0,0.017,0.026,0.034-0.032,0.051C29.475,424.798,29.547,424.781,29.476,424.765z"/>
							<path fill="#FFFFFF" d="M225.728,423.88c0,0-0.619-0.098-1.595-0.194C223.755,423.733,224.133,423.795,225.728,423.88z"/>
							<path fill="#FFFFFF" d="M186.999,422.813c-0.246-0.022-0.392-0.036-0.708-0.064L186.999,422.813z"/>
							<path fill="#FFFFFF" d="M482.663,413.919c-1.916,0.001-3.353,0.021-4.564,0.051
								C479.496,413.977,481.007,413.968,482.663,413.919z"/>
							<path fill="#FFFFFF" d="M29.222,424.858c-0.416,0.052-1.007,0.101-1.987,0.15C28.314,424.957,28.883,424.905,29.222,424.858z
								"/>
							<path fill="#FFFFFF" d="M284.785,421.304c-0.413,0.023-0.801,0.044-1.191,0.065c0.237,0.009,0.475,0.017,0.708,0.024
								L284.785,421.304z"/>
							<path fill="#FFFFFF" d="M304.995,421.608c-0.689,0.064-1.006,0.13-1.393,0.188c7.213-0.261,20.466-0.079,22.034-0.665
								c-2.449,0.026-15.139-0.253-12.977-0.603c-5.028,0.169-12.461-0.201-15.169-0.094c8.255,0.277,0.893,0.484-4.681,0.706
								c-5.067-0.145,0.954-0.47-3.411-0.557l-11.727,0.12l10.215,0.027l-3.103,0.571c0.378-0.021,0.637-0.035,1.041-0.058
								C303.109,420.904,287.295,422.054,304.995,421.608z"/>
							<path fill="#FFFFFF" d="M303.603,421.797c-1.081,0.04-2.031,0.087-2.77,0.149C302.464,421.93,303.097,421.87,303.603,421.797
								z"/>
							<path fill="#FFFFFF" d="M374.218,422.377c0.888-0.029,1.85-0.062,3.059-0.103C376.7,422.294,375.365,422.339,374.218,422.377
								z"/>
							<path fill="#FFFFFF" d="M14.01,263.953c-0.162,0.305-0.435,10.369-0.008,10.188c0.025-2.988,0.051-5.998,0.076-9.021
								L14.01,263.953z"/>
							<path fill="#FFFFFF" d="M504.777,355.382c-0.035,1.12-0.071,2.244-0.106,3.368c0.018,0.242,0.035,0.476,0.048,0.656
								C504.801,358.724,504.785,356.503,504.777,355.382z"/>
							<path fill="#FFFFFF" d="M315.771,420.313c-1.846,0.074-2.668,0.146-3.111,0.216
								C313.855,420.49,314.958,420.43,315.771,420.313z"/>
							<path fill="#FFFFFF" d="M505.812,354.779c0.163-1.425,0.408-3.524,0.58-3.818c0.086-2.924-0.08-4.982-0.076-7.959
								C506.283,346.36,506.13,350.245,505.812,354.779z"/>
							<path fill="#FFFFFF" d="M506.314,342.76c0,0.084,0,0.167,0.001,0.242C506.314,342.918,506.314,342.843,506.314,342.76z"/>
							<path fill="#FFFFFF" d="M14.152,257.963c-0.035-0.865-0.07-1.757-0.107-2.675l0.123,1.392
								c0.026-2.316,0.051-4.619,0.077-6.927c-0.032-0.834-0.067-1.739-0.11-2.851c0.021,0.448,0.072,0.795,0.122,1.01
								c0.006-0.752,0.012-1.485,0.018-2.22c-0.535-5.51-1.021-19.224-1.398-23.177c-0.3-5.232-0.543-11.638-0.593-15.658
								c0.069,3.725,0.263,8.669,0.477,7.179c0.103-7.569,0.758-11.265-0.221-24.306l0.208,7.657l-1.396-17.19
								c0.23-6.042,0.702,8.579,1.101,10.959c-0.798-13.376,0.098-24.548-0.895-30.732c0.462-0.889,1.238-2.38,0.922-11.166
								c-0.365,6.352-0.517-5.257-0.956-0.042c-0.371-3.027-0.121-9.807-0.501-10.301l0.227,0.815
								c0.319-15.027-1.035-19.903-1.626-26.311c-0.709-17.963-0.64-26.225-1.061-40.883c0.314-0.584,1.115-4.595,0.942-10.475
								C9.01,59.339,8.559,46.076,7.966,44.731c-0.041,10.521,0.636,8.596,0.886,14.888c-0.494,5.253-0.587,0.487-0.774,7.652
								c0.034-2.891-0.168-9.415-0.324-16.01c-0.08-3.297-0.15-6.612-0.172-9.499c-0.002-0.721-0.005-1.416-0.007-2.077
								c0.001-0.331,0.003-0.653,0.004-0.966c0.019-0.353,0.036-0.694,0.054-1.025c0.079-1.32,0.324-2.453,0.595-3.307
								c0,0-0.13,0.621-0.207,1.244c-0.054,0.625-0.108,1.249-0.108,1.249c0.343-2.815,1.293-4.951,2.412-6.654
								c1.136-1.708,2.439-3.036,3.98-4.334c1.551-1.292,3.363-2.55,5.755-3.926c2.393-1.374,5.375-2.86,9.339-4.444
								c0,0,1.894-0.751,3.825-1.392c1.926-0.658,3.878-1.227,3.878-1.227c-0.367,0.146-0.394,0.221-0.583,0.324
								c6.456-1.549,8.872-1.703,11.418-2.06c2.555-0.315,5.255-0.759,12.455-1.853c-1.113,0.169-0.405,0.149-1.535,0.32
								c8.266-0.662,16.544-1.899,22.799-2.382c3.844,0.259-0.881,0.506-3.217,1.003c14.536-0.752,30.218-1.836,39.258-2.526
								l9.387,0.19c-5.564,0.224-12.357,0.82-10.655,1.083c5.156-0.157,4.156-0.375,11.452-0.336
								c-1.242,0.309-4.301,0.611-7.724,1.029c15.081,0.383,3.364-1.109,13.922-0.237c4.738-0.007,7.489-0.448,8.008-0.814
								l8.585,0.484c0.955-0.466,11.553-0.468,18.497-0.525c0.849-0.199-5.589-0.506-8.223-0.333
								c0.52-0.365,7.908-0.519,12.658-0.508c1.736,0.949,31.111-0.057,25.492,1.072c21.345-0.244,51.333-0.241,65.424-0.6
								c4.646,0.286,14.113,0.332,8.436,0.77c17.182,0.061,26.052-0.903,43.105-0.588c1.41,0.132-7.71-0.012-7.106,0.315
								c11.151-0.349,20.274,0.407,37.569,0.14c-2.909,0.021-3.758,0.223-4.163,0.324c-0.303-0.161,7.086-0.343,11.559-0.504
								c2.514,0.082-3.349,0.121-1.938,0.243c33.403,0.513,58.852-1.068,92.083-1.262c-9.49,0.056-13.073,0.729-13.174,0.994
								l9.297-0.056c3.581-0.349,10.561-0.398,16.397-0.683c0.717,0.117,3.557,0.227,0.661,0.4
								c9.198,0.227,16.403,0.269,24.144,0.814c3.869,0.293,7.877,0.704,12.305,1.632c2.213,0.47,4.53,1.074,6.97,2.029
								c1.218,0.497,2.47,1.07,3.733,1.928c0.629,0.434,1.27,0.94,1.861,1.665c0.575,0.692,1.17,1.715,1.175,2.982
								c0,0-0.024-0.182-0.069-0.523c-0.035-0.348-0.196-0.81-0.453-1.33c-0.542-1.034-1.582-1.968-2.817-2.704
								c-2.487-1.485-5.87-2.457-9.266-3.176c-3.396-0.718-6.808-1.136-9.365-1.401c-2.559-0.253-4.266-0.357-4.266-0.356
								c0,0,1.667,0.304,3.322,0.658c1.657,0.344,3.299,0.745,3.299,0.745s-2.979-0.361-5.963-0.57
								c-2.984-0.224-5.973-0.306-5.973-0.306c7.063,0.9,13.287,1.217,14.04,1.886c-1.495-0.174-5.064-0.781-5.218-0.518
								c3.353,0.582,5.157,0.896,6.759,1.173c1.596,0.276,3.008,0.462,5.454,1.165c-6.536-1.55-16.477-2.727-26.551-3.06
								c-5.045-0.196-10.08-0.134-14.831-0.033c-4.732,0.092-9.092,0.177-12.681,0.247c-2.259,0.095,1.933-0.254,2.332-0.358
								c-5.858,0.075-9.376-0.209-16.75,0.017c-4.577,0.455,3.495,0.284,7.131,0.302c-0.5,0.37-2.328,0.361-6.375,0.445
								c-0.882-0.481-22.222-0.011-27.442-0.569c-21.628,0.304,3.47,1.256-17.648,1.164l-6.314-0.552
								c-12.262,0.445-28.127,0.844-42.007,0.74l2.925-0.021c1.949-0.241-1.27-0.384-2.694-0.505
								c-10.484-0.239-19.919,0.483-26.262-0.116c-11.959,0.553-31.891,0.925-45.559,1.185c-3.684-0.75,17.831-0.564,23.521-1.005
								l-12.441-0.04c7.69,0.017,10.729-0.253,15.343-0.656c-10.903-0.174-14.494,0.458-24.831,0.61
								c0.806-0.197-0.573-0.325-5.342-0.347l-1.356,0.484c-0.087-0.04-0.615-0.079-2.087-0.115l-18.393,0.235
								c3.902,0.223,4.089,0.649,8.839,0.671c-1.695-0.291,2.335-0.333,7.09-0.31c-4.167,0.305,4.634,0.285,4.533,0.549
								c-9.532-0.046-21.243-0.02-27.492,0.092l-2.029-0.458c-9.083-0.145-18.676,0.074-24.837-0.078l1.942-0.233
								c-10.9-0.166-21.625,0.06-31.312-0.375c-9.729,0.509-21.972,0.896-29.911,1.432c-4.247,0.558-28.498-0.701-39.393,0.424
								c-0.738-0.052,7.488-0.596,11.218-0.853c-7.276,0-13.031,0.866-15.321,0.318c16.305-0.171-0.888-0.477,6.453-0.815
								c-7.639,0.158-15.678,0.556-19.402,0.95c12.327-0.502-4.345,1,8.124,0.266c-9.659,0.825-22.803,1.674-34.178,2.702
								c0.085-0.27-1.334-0.271-5.57,0.149c0,0-0.838,0.204-1.676,0.408c-0.834,0.214-1.667,0.428-1.667,0.428
								c-2.639,0.338-0.111-0.136,1.756-0.519c1.875-0.351,3.071-0.674-2.259-0.006c-5.409,1.111-13.609,2.426-20.596,4.623
								c-3.495,1.076-6.666,2.369-9.019,3.709c-2.375,1.322-3.901,2.663-4.494,3.533c-0.728,0.506-1.074,0.775-1.199,0.834
								c-0.128,0.057-0.03-0.093,0.215-0.381c0.52-0.554,1.699-1.632,3.004-2.502c1.269-0.896,2.567-1.63,2.838-1.869
								c0.133-0.121,0.014-0.115-0.477,0.077c-0.495,0.186-1.354,0.567-2.621,1.274c1.368-0.991,3.025-1.927,4.779-2.744
								c1.766-0.803,3.613-1.501,5.351-2.092c3.488-1.166,6.51-1.94,7.615-2.508c-3.461,0.939-4.1,1.039-4.467,0.982
								c-0.358-0.04-0.442-0.239-2.636,0.465c0,0-1.874,0.69-3.668,1.501c-0.91,0.382-1.773,0.837-2.438,1.147
								c-0.643,0.341-1.071,0.568-1.071,0.568s0.39-0.177,0.78-0.354c0.385-0.183,0.79-0.339,0.79-0.339
								c-2.923,1.429-6.181,3.263-8.85,5.814c-1.323,1.275-2.457,2.733-3.242,4.354c-0.776,1.625-1.162,3.426-1.179,5.341
								c0.081,4.66,0.164,9.439,0.245,14.146c0.09,4.729,0.159,9.385,0.301,13.777c0.533,7.43,0.982,13.708,1.458,20.351
								c0.473,6.646,0.872,13.664,1.087,22.589c-0.514-5.26,0.099,14.839-0.891,3.618c-0.034,4.136,0.103,8.24,0.282,11.33
								s0.401,5.165,0.535,5.242c-0.127-7.272,0.009-2.559-0.045-8.686c0.444,4.124,0.713,13.651,0.624,17.573
								c-0.032-1.815-0.072-1.124-0.185-1.521c0.048,8.688,0.444,4.151,0.768,10.422c-0.385,2.003,0.298,13.857,0.227,19.597
								l0.879,8.293c-0.551-4.555,0.079,7.969-0.285,9.291c0.449,5.955,1.103,10.941,1.218,20.026
								c-0.298-3.748-0.142,8.296-0.564,8.463c-0.055,15.558,1.643,25.747,1.217,40.499c-0.103-0.457-0.402-3.431-0.481,0.881
								c0.141,3.394,0.129,9.338,0.199,12.97l-0.013-0.114c0.005,0.07,0.008,0.114,0.013,0.188c0.034,1.779,0.094,2.897,0.198,2.94
								c0.477,6.216,0.834,9.425,1.165,21.673c0.491-0.896,0.337-11.238,0.195-15.716l-0.489-3.867
								c0.712-3.698-0.199-11.038,0.031-13.854c0.443,3.669,0.69,10.79,0.809,18.585c0.086,7.797,0.166,16.261,0.369,22.613
								c0.721-7.734,0.959-24.591,0.72-39.278l-0.251,6.473l-0.059-7.687l-0.471,7.442c0.028-7.279-0.095-13.574-0.178-20.148
								c0.129,7.697-0.575,10.707-0.48,6.349c0.386-8.586-0.435-8.937-0.494-15.492c0.009,3.65,0.07,8.396-0.254,5.341
								c0.405-12.936-0.028-16.421,0.335-28.183c-0.781,1.474-0.387-14.68-1.121-16.42l0.073,5.451l-0.791-11.545
								c0.387-10.682,0.919,9.426,0.969-6.816c-0.32-14.977-1.186-14.562-1.582-26.328c0.592,3.863,1.281,13.183,1.533,22.681
								l0.07-5.758c0.381,3.032,0.648,16.18,0.793,22.738c-0.844-10.823-0.016,5.074-0.367,10.02
								c0.486,0.896,0.266-6.065,0.813,2.148c-0.165-7.703-0.243-8.827-0.32-18.624c0.179,10.585,0.683,15.337,1.153,19.755
								c0.469,4.418,0.937,8.498,0.905,17.751c-0.346-8.524-0.622,2.985-0.84,4.016c0.115,4.012,0.345,12.15,0.511,15.497
								l0.629-3.039c0.438,10.782-1.019,14.543-0.227,26.986c0.414,1.617,0.066-10.952,0.158-8.712
								c0.129,4.258,0.178,7.835,0.129,11.044c-0.061,3.209-0.183,6.048-0.333,8.826c-0.325,5.558-0.664,10.87-1.05,18.434
								c0.189,0.858,0.619,0.687,0.896,5.987c-0.38-1.67-0.645,2.244-0.852-3.715c-0.247,5.058-0.04,11.056,0.051,15.523
								c0.397-10.53,0.53,4.322,0.662,6.272c-0.223,5.459-0.356-1.674-0.378-5.035c-0.232,4.382-0.975,9.571-0.44,12.077
								c-0.451,0.158-0.712-12.278-0.763-20.395l-0.151,5.471c-0.161-3.774-0.089-4.478,0.059-9.908
								c-0.41,5.312-0.766,4.779-1.05,3.537c0.072-0.695,0.095,0.389,0.166-0.275c0.173-4.37,0.107-7.726-0.134-6.715
								c-0.513-3.937-0.448,6.058-0.778,9.013c0.005,2.238,0.01,4.478,0.015,6.672l1.198,22.768
								c-0.169,9.719-0.824,14.068-1.409,21.345l0.404,2.026c-0.508,8.444-1.176,16.401-1.462,10.954
								c0.182-0.295,0.21-1.411,0.344-3.243c-0.052-0.246-0.074-0.671-0.081-1.206c-0.025-0.177-0.039-0.276-0.06-0.424
								c-0.376,9.05-0.611,14.699-0.632,15.22c0.209-15.392-0.844-0.822-1.559-3.447c0,0-0.167,3.876-0.335,7.751
								c-0.232,3.873-0.465,7.745-0.465,7.745c1.01-9.357,0.438-0.141,0.294,3.199c-0.166,0.261-0.319,1.462-0.465,3.164
								c-0.063,0.852-0.137,1.828-0.215,2.876c-0.021,0.363-0.043,0.739-0.066,1.123c-0.01,0.245-0.02,0.495-0.03,0.747
								c-0.014,0.346-0.027,0.694-0.041,1.038c-0.072,0.348,0.145,0.68,0.425,0.854c0.563,0.36,1.172,0.481,1.637,0.613
								l-0.227,0.051c0.267,0.088,0.57,0.169,0.901,0.239c0.167,0.032,0.339,0.065,0.517,0.1c0.326,0.047,0.659,0.095,1,0.144
								c1.495,0.193,3.172,0.332,4.908,0.421c3.475,0.18,7.175,0.171,10.259,0.094c-0.14-0.081,1.765-0.325,4.192-0.643
								c2.449-0.309,5.328-0.712,7.503-0.932c-1.413-0.019-2.545-0.034-3.445-0.046c-0.857-0.018-1.495-0.03-1.96-0.039
								c-0.923-0.034-1.158-0.082-1.088-0.138c0.14-0.112,1.509-0.26,1.078-0.404c1.101,0.008,3.127-0.02,3.38-0.082
								c1.587-0.159-2.16-0.158-2.434-0.312c-5.69,0.222-11.333,0.334-16.05,0.258c-2.353-0.034-4.461-0.113-6.178-0.212
								c-1.114-0.086-0.942-0.01-1.238,0.011c-0.236,0.038-0.445,0.072-0.621,0.101c0.183,0.131,0.406,0.196,0.625,0.223
								c0.11,0.014,0.22,0.018,0.327,0.016l0.936,0.06c1.388,0.074,2.872,0.1,4.721,0.305c-1.105,0.033-2.27,0.027-3.469-0.035
								c-0.602-0.029-1.209-0.075-1.822-0.135c-0.28-0.026-0.568-0.054-0.864-0.082c-0.435-0.061-0.91-0.144-1.349-0.376
								c-0.209-0.111-0.437-0.312-0.409-0.587c0.021-0.259,0.044-0.524,0.067-0.798c0.078-0.948,0.16-1.951,0.246-2.998l0.654-3.085
								l0.528-9.585c-0.097,4.01,0.52,1.636-0.186,11.688c0.478-1.252,0.713-9.968,1.286-16.109l-0.354-3.185
								c0.229,1.233,1.079-11.938,0.93-2.551c0,0-0.125,3.815-0.25,7.631c-0.188,3.814-0.375,7.629-0.375,7.629l0.703-4.205
								l-0.905,12.884l-0.042-3.061c-0.097,1.505-0.183,2.824-0.257,3.975c-0.009,0.132-0.018,0.261-0.027,0.388l0,0.022l0,0.042
								c-0.003,0.026-0.006,0.052-0.009,0.074c-0.013,0.092-0.048,0.173-0.078,0.255c-0.02,0.082-0.013,0.145-0.019,0.204
								c-0.006,0.118-0.036,0.233-0.007,0.344c0.03,0.109,0.133,0.218,0.417,0.278c0.042,0.007,0.085,0.015,0.132,0.022
								c0.226,0.028,0.465,0.058,0.719,0.089c0.521,0.061,1.12,0.114,1.798,0.162c1.357,0.097,3.052,0.161,5.161,0.171
								c3.102-0.217,6.359-0.372,10.423-0.492c2.042-0.06,4.254-0.119,6.863-0.152c0.698,0,1.414-0.001,2.151-0.002
								c0.675,0.01,1.37,0.02,2.084,0.029c1.42,0.025,2.92,0.052,4.509,0.079c-9.202,0.085-0.95,0.458-4.417,0.816
								c9.381,0.339,12.556-0.183,17.427-0.407c2.386,0.364,4.083,0.66-4.3,0.553c-1.059,0.723,11.03-0.052,11.786,0.705
								c27.774,0.165,22.279-2.275,54.734-1.118l-1.22,0.295c20.618-0.238,32.509,0.204,51.6,0.095l15.027,0.872
								c-3.362,0.096-12.403,0.609-8.187,1.01c-7.307-0.828-15.068-0.608-22.943-1.08c-0.806,0.197,2.401,0.365,3.797,0.5
								c-4.754-0.039-7.138-0.404-13.417-0.313c0.302,0.163,7.151,0.402,1.987,0.463l-8.538-0.537
								c-11.43,0.151-5.637,1.109-19.06,0.799c2.5-0.411,7.602-0.996,12.8-1.063c-6.133-0.134,8.179-0.203,2.583-0.497
								c-8.84,0.574-13.103,0.044-24.855,0.361c1.38-0.079,1.746-0.201,4.638-0.221l-17.045-0.382
								c4.215,0.398-14.085,0.312-12.505,0.873c18.167,0.351,12.831-0.018,33.532,0.435c-5.862,0.085-13.425,0.595-16.972,1.087
								c-0.18-0.023-0.479-0.043-1.116-0.057c-3.169,0.523,0.055,0.691-0.015,1.644c9.458-0.613,15.773-0.013,26.925-0.328
								c2.101-0.507-6.463-0.709-12.005-0.611l9.824-0.279l-1.936,0.227l24.928,0.344c-4.724-0.004-6.33,0.288-8.797,0.499
								c3.216,0.043,6.401,0.202,9.789,0.376c-0.708-0.503-0.258-0.852,2.879-0.821c16.039,0.227,24.953,0.734,30.869,1.344
								c0.616-0.008,1.31-0.016,1.868-0.022c-2.687-0.529,11.395-0.841,16.367-1.329c-0.248,0.526,8.265,0.373,12.887,0.674
								c2.463-0.59-0.817-1.447-6.444-1.98c-10.847,0.48-6.079,0.518-11.206,1.269l-17.4,0.406l3.892-0.457
								c-8.682-0.271-17.026,0.31-16.385-0.314c4.59-0.388,12.165-0.083,16.719-0.473l-5.742-0.269
								c10.136-0.549,5.191,0.63,17.461,0.282c-4.51-0.564,1.112-0.03,6.369-0.354c-4.216-0.4-21.602,0.007-17.911-0.876
								c6.381-0.354,21.46,1.209,29.904,0.363l-0.413,0.1c12.452,0.202,16.83-0.287,21.492-0.582
								c5.298,0.33,12.614-0.034,18.357-0.028l-0.141,0.263l8.102-0.083c-3.857,0.51-9.495-0.062-16.454-0.026l0.865,0.496
								c-8.022-0.637-13.375,0.213-19.599,0.594c9.057-0.364,25.573,0.293,27.701-0.652l5.602,0.528l2.681-0.192
								c4.174,0.326-0.089,1.014-8.183,1.048c-1.406-0.134-2.109-0.2-1.683-0.299c-3.757,0.193-7.208,0.551-16.299,0.377
								l4.852-0.228c-11.319-0.111-21.61,0.009-25.488,0.465c16.342,0.294,32.412,0.515,47.756,0.501
								c4.527-1.131,9.897-1.779,12.204-2.821c10.295-0.238,24.271-0.447,33.213-0.112l-0.821,0.206
								c4.363,0.085,8.383,0.01,11.735-0.123c4.609,0.249-3.153,0.561,0.059,0.691l14.745-0.416
								c-0.908,0.471-13.316,0.532-19.209,0.594c1.111-0.045,3.356-0.134,2.636-0.192c-6.854-0.159-19.622,0.696-22.62,0.035
								c-3.339,0.134,6.784-0.529-4.521-0.512c-7.57-0.218-10.035,0.4-10.826,0.605c-0.123,0.266,11.881,0.306,7.716,0.645
								c5.893-0.062,8.238-0.414,15.774-0.194c-5.839,0.06-13.771,0.634-16.882,0.238c-11.547,0.548-9.892,1.779-4.446,1.822
								c-1.296-0.383,21.066-0.58,5.923-1.014c6.803-0.533,19.229-0.596,28.127-0.95l-0.404,0.102l11.047-0.178
								c-1.556,0.146-4.895,0.28-5.004,0.544l15.298-0.781c-8.61,0.517,5.34,0.305,9.261,0.496c1.638-0.412,7.612-0.737,1.877-0.94
								c-6.446-0.263-3.751,0.236-9.613,0.295l8.299-0.677l0.712,0.059l4.993-0.545c11.306-0.018-4.934,1.235,9.551,0.656
								l-1.888-0.702c16.771,0.025,38.314,0.722,50.163,0.338c-3.266,0.42-4.703,1.077-0.205,1.44
								c-5.111-0.098-15.381-0.022-22.71,0.078c-1.411-0.118,9.152-0.884,17.115-0.769c-3.865-1.146-20.023,0.799-20.967-0.377
								c-20.288-0.315-15.127,1.209-32.351,0.599c-0.235,0.528-4.894,0.28-5.798,0.75c5.101,0.835,23.021-0.14,34.197,0.108
								c-1.094,0.043-3.295,0.133-3.725,0.234c7.989,0.116,11.289-0.017,16.868-0.239l-0.703-0.059
								c9.748-0.562,6.036,0.364,11.776,0.569c2.223-0.089,10.204,0.024,8.919-0.355l10.396,0.451l-0.506-0.586
								c5.861-0.063,7.148,0.319,12.458-0.064l0.242-0.527l-14.56-0.113c7.376-0.207,2.053-0.515,10.158-0.663
								c-9.052,0.619,6.409,0.262,7.306,0.746l5.96-0.325l-1.523,0.147c4.683,0.249,5.57-0.223,11.032-0.18
								c-6.444-0.263-10.665-0.613-18.87-0.199c5.974-0.324,17.821-0.709,20.729-0.74c6.272-0.251,10.657,0.13,16.528,0.161
								c-11.265,0.265,3.962,1.578-18.62,1.307c0.417-0.103,2.245-0.089,2.953-0.03c-3.017-0.658-13.534,0.106-18.427,0.388
								c1.264,0.382-3.854,0.502,4.826,0.675c-2.85-0.234,7.305-0.898,15.564-0.62l-1.446,0.836l12.024,0.04l-1.125,0.045
								c2.264,0.256,5.471,0.215,9.146,0.144c3.675-0.08,7.803-0.168,11.744-0.309c0.625-0.064,1.503-0.157,2.333-0.311
								c0.586-0.091,1.245-0.189,1.942-0.382c0.669-0.215,1.448-0.446,1.904-1.077c0.214-0.326,0.217-0.729,0.202-1.104
								c-0.009-0.377-0.018-0.749-0.025-1.112c-0.031-1.229-0.062-2.381-0.086-3.349c-0.035-1.232-0.078-2.231-0.133-2.861
								c-0.109-1.261-0.265-1.048-0.498,1.715c0.25-3.746,0.205-7.256,0.082-10.854c-0.07-1.799-0.143-3.62-0.217-5.502
								c-0.076-1.883-0.156-3.828-0.102-5.856c0,0-0.181,2.526-0.229,5.077c-0.079,2.547-0.157,5.094-0.157,5.094
								c-0.31-6.025-0.39-8.18-0.403-10.008c-0.045-1.836-0.142-3.373-0.479-8.18c0.255-0.965,0.501-3.098,0.685-1.144
								c0.248-8.029,0.549-17.776,0.824-26.694c0.205-8.884,0.431-16.969-0.022-21.618c0.003-5.604,0.248-8.848,0.439-12.661
								c0.194-3.832,0.323-8.127,0.135-16.2c-0.117-3.383-0.775,2.647-0.537-8.001c0.062-0.712,0.614,10.242,0.55-1.602
								c-0.318-4.239-0.231-8.991-0.132-14.167c0.044-2.583,0.112-5.214,0.097-7.925c-0.025-2.726-0.098-5.477-0.266-8.201
								c0.166-5.764-0.031-15.757,0.497-13.673c-0.021,9.107,0.246,22.038,0.483,23.961c-0.304-1.231-0.296,6.391-0.528-0.218
								c-0.192,6.785-0.114,8.981-0.021,11.009c0.047,1.013,0.098,1.982,0.12,3.46c0.022,1.475,0.018,3.445-0.048,6.573
								c0.101,0.43,0.24-1.168,0.333-3.203c0.091-1.999,0.135-4.425,0.045-5.731c0.689-0.178,0.333,24.368,1.159,13.339
								c0.015-3.306-0.063-6.052-0.179-8.441c-0.115-2.376-0.267-4.436-0.397-6.439c-0.271-4.021-0.416-7.761-0.097-13.469
								c0.463,4.569,0.075,11.615,0.81,17.387l0.277-9.299l-0.504-6.743l0.105,0.402c0.224-8.305,0.004-12.135-0.336-15.752
								c-0.339-3.619-0.798-7.033-1.052-14.377c-0.385,8.53-1.218-1.958-1.44,4.454c-0.196-9.829-0.184-17.048,0.506-17.132
								c0.764,18.397,0.74,1.023,1.615,18.05c0.217-2.801,1.054,4.057,1.018-6.111c-0.618-11.444-0.536,3.433-0.89-7.98
								c0.054-0.676,0.108-1.378,0.214-0.981c-0.414-5.237,0.061-6.135-0.418-12.515l0.158,1.511
								c0.317-7.885-0.585-8.607-0.216-15.397c-0.477,2.721-0.478-4.546-0.851-8.749c-0.105,6.877-0.792,10.613-0.578,24.187
								c0.426,1.628,0.639,0.634,0.904,6.197l-0.161-8.815c0.091,1.901,0.213,3.348,0.316,5.09l-0.11,8.442
								c-0.408-10.664-0.791-5.776-1.266-10.315c0.051-9.837-0.215-8.112-0.163-14.299c0.602,0.609,0.772-18.973,1.01-30.287
								c0.015,1.758,0.034,4.026,0.044,5.25c0.48,8.216,0.423-5.656,0.582-5.959c0,0-0.068-1.496-0.138-2.991
								c-0.063-1.496-0.128-2.992-0.128-2.992c0.033,1.126,0.16,2.684,0.263,0.132c-0.053-8.098-0.646-7.629-0.699-15.716
								c0.331-0.605,0.779,6.232,0.986,1.206c0.298-1.732,1.096-7.247,0.884-17.988c-0.12-0.762-0.171-3.546-0.202-6.775
								c0.015,0.449,0.023,1.012,0.045,1.214l0.407-7.129c0.515,6.083-0.35,12.289,0.167,18.401l0.526,0.523
								c-0.032,4.753,0.151,11.208,0.405,14.177c0.142-7.245,0.013-8.771-0.04-16.874c0.344-1.132,0.552,4.576,0.582,5.398
								l-0.293-1.211c-0.508,9.661,0.405,14.448,0.222,26.473c-0.034,1.815-0.065,0.708-0.164,0.303
								c0.094,2.435,0.168,4.857,0.226,7.27c0.025,2.413,0.051,4.815,0.076,7.209c0.034,4.788,0.089,9.543,0.488,14.27l-0.319-3.082
								c0.337,6.437,0.994,19.022,1.65,31.599l0.208,0.097c0.108-1.403,0.154,3.329,0.098,5.87l-0.003-0.013
								c0.31,6.315,0.606,12.384,0.85,17.348c0.109-1.585,0.194-3.605,0.198-5.945c-0.265-1.977-0.193-13.572-0.726-11.973
								c0.277-5.369-0.307-13.964-0.15-17.887c-0.263,7.153-0.583-4.963-0.902-6.21c0.317-2.409-0.161-10.591,0.317-9.662
								c0.104-1.412-0.265,3.514,0.054,6.549c0.531,7.475,0.208-13.707,0.741-4.391c-0.434-11.851-0.675-27.469-0.886-39.71
								l-0.24,6.85c0.107-5.44,0.095-18.315,0.327-19.276c0.013,4.042,0.027,8.766,0.044,13.938
								c0.525,0.252,0.085-12.425,0.414-12.999l-0.766-15.024l-0.077,6.578c-0.279-4.147,0.167-17.896,0.375-28.094
								c0.645,5.86-0.13,15.383,0.088,26.111c0.219,7.792,0.731-4.805,0.853,2.568c0.181-1.91,0.195-6.72,0.03-9.094l0.151-2.907
								c0.61,6.582,0.359,21.322,0.854,31.135c-0.064-0.861-0.133-1.612-0.207-1.884c-0.154,3.776-0.242,7.583-0.276,11.367
								c-0.065,3.785,0.105,7.537,0.216,11.217c0.157-3.893-0.004-5.432-0.108-7.656c0.159-0.276,0.318,6.668,0.531,9.295
								c0.104-6.844,0.37-1.278,0.424-5.607c0.213,4.455,0.214,8.063,0.214,13.493c-0.212,2.818-0.371-2.325-0.688-1.748
								c0.268,5.59-0.478,8.159,0.002,16.34c-0.002-10.891,0.744,2.857,1.01,6.6v-1.825c0.425,3.443,0.478,6.371,0.159,8.765
								c-0.213-4.452-0.159-8.765-0.531-7.489c0.055,2.942,0.108,5.876,0.268,9.206l-0.318-3.023l0.254,14.678
								c0.367,2.324,0.893,6.212,1.419,8.25c-0.135,1.769-0.125,3.885-0.061,5.973c0.063,2.069,0.18,4.115,0.258,5.773l-0.159-1.542
								c-0.227,6.443,0.2,20.704,0.453,22.004c-0.067,1.17-0.222-0.309-0.41-2.664c-0.187-2.36-0.465-5.512-0.69-7.836
								c-0.231-2.314-0.437-3.759-0.544-2.592c-0.053,0.584-0.082,1.82-0.078,3.927c0.019,2.117,0.044,5.11,0.079,9.196
								c0.004,12.515,0.966,7.792,1.299,14.958c0,0-0.099-0.4-0.162,0.3c-0.069,5.373,0.298,5.915,0.452,10.326
								c0.147-3.22,0.153-7.882,0.014-9.386c0.404,1.617-0.035,11.179,0.281,15.286c-0.31-2.657-0.372-0.077-0.392,2.688
								c-0.014,2.801,0.011,5.753-0.154,3.642c-0.187,5.451-0.148,11.082-0.007,16.071c0.071,2.494,0.169,4.828,0.278,6.897
								c0.075,2.063,0.121,3.852,0.202,5.277c-0.988,7.327-0.261,12.907-0.958,24.8c0.074-1.814,0.052-5.15,0.208-7.712
								c-0.303-6.813-0.608,12.351-0.766,1.873c0.015,2.24,0.259,0.167,0.245-2.131c0.058-4.016-0.053-7.801-0.307-6.798
								l-0.713,9.702l-0.023-3.395l-1.021,14.688c0.089,0.401,0.251-0.972,0.333-1.677c-0.164,3.724-0.302,7.564-0.422,11.446
								c-0.057,1.941-0.113,3.894-0.17,5.846l-0.077,2.928c0.004,0.973,0.008,1.944,0.012,2.913
								c0.053,8.061,0.104,15.977,0.149,23.118c-0.062,0.731-0.122,1.444-0.181,2.14c-0.047,0.718-0.125,1.339-0.379,1.938
								c-0.114,0.299-0.29,0.586-0.461,0.857c-0.213,0.244-0.386,0.53-0.636,0.729c-0.244,0.204-0.469,0.431-0.724,0.611
								l-0.796,0.49c-0.126,0.209-0.45,0.422-0.918,0.7c-0.235,0.137-0.502,0.298-0.813,0.457c-0.338,0.121-0.709,0.253-1.11,0.397
								c-0.413,0.127-0.836,0.323-1.343,0.418c-0.508,0.101-1.047,0.207-1.616,0.319c-0.512,0.094-1.05,0.193-1.613,0.297
								c-0.482,0.092-0.963,0.149-1.451,0.193c-4.003,0.482-8.958,0.563-14.127,0.632c-10.363,0.132-21.887,0.202-27.926,0.66
								c3.236-0.417,5.002-1.133,2.994-1.414c2.694-0.071,8.206-0.662,14.318-0.574c0.978,0.22,8.528,0.438,3.673,0.718
								c16.889-0.24-2.292-0.602,2.688-1.146c-18.712,0.226-29.682,1.096-41.492,1.481l-0.301-0.164l-8.917,0.355
								c7.289,0.058,6.936,0.852-2.462,0.619l1.143-0.045c-5.361-0.307-16.508,0.138-24.879,0.126l-5.673,0.485
								c-8.385-0.013-8.75-0.863-11.479-1.36c-13.141,0.002-20.725,0.737-30.057,1.197c-4.223-0.352-23.905-0.346-13.479-0.847
								c-11.851,0.385-9.455,2.366-29.787,1.358l5.275-0.384c-9.718,0.084-21.507,0.337-31.986,0.527
								c-10.479,0.187-19.647,0.344-24.125,0.084c7.172-1.24-24.275-1.475-27.726-2.763c0.962,0.296-6.34,0.343-7.404,0.489
								c-1.6-0.159-4.263-0.32-7.091-0.079c7.578,0.306-5.333,1.276,9.159,0.864c-7.335,0.816-16.786,1.43-32.851,1.278l0.245-0.526
								l12.709,0.246c-1.282-0.397,5.26-0.324,7.942-0.485c-23.642-0.455,3.1-1.213-21.07-1.308
								c-2.336,0.326-0.823,0.195-7.105,0.288c2.954,0.003,3.488-0.357-1.273-0.396l-4.574,0.391
								c-8.436-0.936,13.974-0.479,6.776-1.145c9.334-0.351,25.498-0.463,22.49-1.156c-15.238-0.347-13.715,1.168-29.649,0.755
								l-1.695-0.298c-5.605,0.157-6.514,0.614-9.584,0.874c-0.276-0.165-1.699-0.297-5.299-0.368
								c-9.469,0.614-15.751,0.704-24.488,1.385c23.242-0.397,19.863,0.648,43.852,0.316c-3.76,0.193-20.647,0.24-21.689,0.961
								l0.228-0.526c-7.801,0.222-15.598,0.44-25.392,0.2l5.981-0.256c-12.986,0.279-21.575-0.947-31.826-0.139
								c3.618,0.071,6.555,0.076,8.789,0.011c-6.685,0.19-15.068,0.081-22.33-0.058l-15.037,0.77
								c0.135-0.261-9.388-0.341-4.789-0.728c-10.815-0.475-15.924,0.277-22.177,0.365c-11.072-0.635,9.601-0.185,10.695-0.906
								c-3.815-0.087-7.688-0.145-11.486-0.177c-1.899-0.01-3.779-0.019-5.624-0.028c-0.922,0-1.836,0-2.738,0
								c-0.793,0-1.691,0.023-2.553,0.046c-7.007,0.226-13.336,0.421-17.786,0.461c3.208,0.229,4.746,0.315,4.584,0.447
								c-0.468-0.159-6.764-0.234-10.431-0.635c0,0-0.641,0.018-1.281,0.036c-0.658,0.012-1.277,0.011-1.334,0.005
								c-4.671-0.769-6.255-1.813-6.069-1.798c0.189-0.052,2.286,0.72,6.093,1.102c-2.708-0.42-5.682-0.956-8.088-2.396
								c-0.598-0.36-1.159-0.777-1.659-1.28c-0.501-0.492-0.935-1.116-1.181-1.751c-0.134-0.292-0.15-0.654-0.191-1.004
								l-0.117-1.052l-0.227-2.11c0.063-0.847,0.126-1.689,0.188-2.527c0.063-0.724,0.127-1.442,0.189-2.155
								c0.106-1.024,0.236-2.029,0.4-3.004c-0.042,0.983-0.085,1.994-0.13,3.023c-0.097,1.506-0.195,3.038-0.294,4.581l0.196,2.087
								l0.095,1.044c0.029,0.351,0.045,0.701,0.173,0.998c0.229,0.639,0.657,1.255,1.144,1.746c0.487,0.5,1.035,0.917,1.621,1.279
								c2.351,1.446,5.287,2.029,7.956,2.42c3.844,0.518,6.884,0.613,8.879,0.6c-2.46-0.052-4.643-0.175-6.643-0.382
								c-0.503-0.059-0.992-0.115-1.469-0.172c-0.248-0.034-0.493-0.068-0.734-0.102c-0.331-0.053-0.657-0.104-0.98-0.154
								c-1.287-0.219-2.491-0.492-3.592-0.842c-2.199-0.712-3.978-1.677-5.189-3.191c-0.298-0.381-0.542-0.816-0.691-1.253
								c-0.17-0.413-0.142-0.898-0.172-1.37c-0.039-0.937-0.078-1.871-0.118-2.817c0.2-1.81,0.406-3.665,0.629-5.683
								c0.178-1.556,0.358-3.238,0.54-5.138c0.183-1.899,0.367-4.016,0.553-6.439c0.188-2.425,0.39-5.155,0.501-8.291
								c0.182-0.292,0.25,3.892,0.539-0.844c0.533-10.979-0.533-2.91-0.707-6.359c-0.147,4.227-0.332,7.319-0.57,9.963
								c-0.262,2.642-0.613,4.831-1.015,7.26l-0.101-2.268c0.175-0.329,0.601-5.618,0.803-7.173l-0.484-1.4
								c0.588,0.672,1.574-7.778,1.74-14.457c-0.858,6.708-0.726,4.891-1.548,6.679c-0.114-9.398,1.339-10.527,1.051-21.073
								c0.167,0.796-0.08,9.979,0.417,2.058c0.312-6.563-0.214-5.709-0.18-10.115c0.308,4.978,0.75,3.72,1.137,9.124
								c-0.436,11.671-0.176,4.707-0.601,16.117c0,0,0.255-2.405,0.51-4.811c0.271-2.405,0.474-4.815,0.474-4.815
								c-0.435,9.89,0.186,7.22,0.353,8.046c0.398-4.213,0.572-7.119,0.602-9.279c0.046-2.158-0.004-3.567-0.076-4.788
								c-0.142-2.442-0.366-4.132-0.063-9.563c-0.132-5.253-0.517,10.177-0.536,1.967c0.486-10.16-0.168-2.327-0.065-13.745
								l0.186,1.918c0.409-3.479,0.124-6.939,0.186-10.977c-0.017-2.222-0.506-0.977-0.931-1.458
								c-0.213-0.24-0.409-0.912-0.523-2.663c-0.11-1.75-0.131-4.58-0.088-9.142c0.132,0.896,0.22,1.227,0.28,1.228
								c0,0,1.043,4.472,1.992,8.95c0.971,4.486,1.942,8.972,1.942,8.972c0.136-4.631,0.276-9.438,0.421-14.38
								c0.097-4.943,0.197-10.02,0.299-15.188c0.057-2.585,0.115-5.192,0.174-7.816c0.033-2.626,0.067-5.269,0.101-7.925
								c0.08-5.311,0.161-10.671,0.242-16.038c0.88-5.06,0.657,15.326,1.049,14.015l-0.21,9.796
								c-0.36-0.554-0.042-20.523-0.715-11.681c0.051,4.323,0.061,8.057,0.059,11.48c-0.045,3.424-0.086,6.538-0.127,9.625
								c-0.097,6.173-0.013,12.237,0.087,20.446c0.251-1.269,0.405-3.253,0.51-5.684c0.093-2.432,0.097-5.309,0.115-8.359
								c0.017-6.102,0.071-12.898,0.429-18.234c-0.069,4.483-0.07,8.268,0.01,11.944c0.316-10.024,0.392-20.756,0.583-32.165
								l-0.215-2.563c-0.091,7.689-0.206,13.008-0.232,13.693c0.05-5.097-0.018-9.795-0.218-13.303
								c-0.211-3.508-0.502-5.825-0.819-6.161l-0.011,1.81l-0.22-3.681C14.103,262.73,14.128,260.34,14.152,257.963z M439.905,8.635
								c-0.619,0.064-1.106,0.138-1.467,0.229C438.812,8.77,438.394,8.713,439.905,8.635z M50.415,418.375l-5.101-0.072
								c-1.752-0.024-3.437,0.006-5.142,0.016c-3.397,0.027-6.78,0.032-10.138-0.041c-3.355-0.074-6.691-0.215-9.946-0.535
								c-0.813-0.081-1.62-0.176-2.417-0.287c-0.742-0.105-1.354-0.209-2.025-0.347c-1.291-0.295-2.64-0.59-3.677-1.424
								c0.864,0.809,2.009,1.165,3.105,1.507c1.137,0.327,2.172,0.549,3.522,0.78c2.554,0.43,4.959,0.692,7.068,0.904
								c4.224,0.41,7.281,0.613,8.366,0.81c1.086,0.183,0.209,0.363-3.409,0.443c-1.809,0.031-4.304,0.042-7.583-0.113
								c-1.639-0.083-3.475-0.203-5.516-0.46c-1.037-0.132-2.203-0.311-3.36-0.579c-1.161-0.278-2.379-0.613-3.494-1.277
								c0,0-0.626-0.312-1.068-0.846c-0.22-0.263-0.373-0.581-0.409-0.829c-0.042-0.245-0.033-0.413-0.033-0.413
								c-0.09,0.693,0.345,1.423,0.979,1.896c0.628,0.495,1.41,0.854,2.26,1.159c0.854,0.299,1.786,0.541,2.771,0.734
								c0.979,0.193,2.048,0.351,2.998,0.464c3.93,0.468,8.258,0.589,12.443,0.588c1.695-0.093,4.328-0.277,7.313-0.536
								c2.983-0.252,6.328-0.602,9.468-0.783c3.132-0.228,6.047-0.438,8.164-0.593c2.117-0.164,3.435-0.283,3.376-0.319
								c-2.387-0.364-5.876-0.008-10.222-0.144L50.415,418.375z M60.055,420.523c7.704,0.19,5.953-0.097,7.151-0.337
								c-2.712,0.013-5.42,0.026-8.098,0.039C60.132,420.295,60.636,420.386,60.055,420.523z M66.748,419.936
								c-0.866-0.013-1.604-0.028-1.991-0.064L66.748,419.936z M14.726,324.065c-0.003,0.343-0.004,0.466-0.007,0.791
								c0.071-1.818,0.149-3.642,0.188-5.544C14.855,320.05,14.811,321.456,14.726,324.065z M13.676,339.68l0.402,1.842
								c0.065-1.695,0.131-3.426,0.199-5.195C14.055,336.904,13.859,337.509,13.676,339.68z M9.731,389.765
								c0.369,3.196-0.488,13.765,0.105,14.464c0.108,0.688,0.344-1.532,0.592-4.025c0.231-2.785,0.479-5.758,0.741-8.91
								c-0.085-0.116-0.132-0.749-0.151-1.803c-0.247,3.114-0.612,5.179-0.886,3.893c1.379-7.953-0.151-7.219,0.596-15.861
								C10.451,374.741,9.711,387.128,9.731,389.765z M506.335,271.533c0.055-0.248,0.196-1.1,0.371-2.298l0.312,6.125
								c-0.137,10.949-1.04,19.671-0.264,29.474c-0.19,4.602-0.593,7.079-0.928,9.433c0.02-2.25,0.047-4.355,0.095-6.11
								C504.773,280.605,507.119,293.808,506.335,271.533z M503.777,396.997c-0.042-1.127-0.146-1.532-0.146-1.532
								c0.312,6.24,0.568,12.264,0.777,17.793c0.02,0.511,0.038,1.019,0.057,1.522c-0.001,0.506,0.083,1.021-0.02,1.519
								c-0.013,0.258-0.161,0.474-0.243,0.708c-0.159,0.188-0.28,0.416-0.471,0.57c-0.195,0.148-0.379,0.317-0.585,0.447l-0.65,0.34
								c-1.772,0.835-3.739,1.046-5.604,1.35c-3.721,0.455-7.28,0.617-10.616,0.705c-6.677,0.168-12.522,0.214-17.413,0.226
								c2.561,0.43,14.336,0.78,19.968,0.87l-4.972,0.581l-3.104-0.395l-8.611,0.515c2.416,0.335,9.362,0.244,14.032,0.47
								c0.203-0.065,4.032-0.22,8.435-0.717c0.549-0.063,1.105-0.126,1.663-0.19c0.275-0.024,0.567-0.093,0.85-0.137l0.903-0.163
								c0.665-0.124,1.324-0.246,1.97-0.366c0.629-0.149,1.219-0.354,1.796-0.517c0.575-0.17,1.07-0.45,1.569-0.65
								c0.466-0.259,0.9-0.52,1.267-0.811c0.756-0.57,1.162-1.335,1.299-1.919c-0.001,0-0.044,0.208-0.241,0.534
								c-0.073,0.176-0.221,0.354-0.398,0.551c-0.156,0.219-0.399,0.393-0.658,0.59c-1.046,0.773-2.724,1.318-4.447,1.634
								c-0.865,0.146-1.748,0.216-2.559,0.318c-0.727,0.078-1.394,0.146-1.959,0.151c-1.135,0.042-1.892,0.07-1.892,0.07
								c0.5-0.011,1.298-0.049,2.313-0.106c0.518-0.023,1.058-0.114,1.718-0.193c0.69-0.099,1.437-0.189,2.213-0.316
								c1.51-0.358,3.222-0.749,4.59-1.854c0.691-0.541,1.136-1.402,1.184-2.274c0.057-0.889,0.067-1.807,0.101-2.703
								c-0.025-2.125-0.052-4.212-0.075-6.089c-0.033-1.769-0.063-3.341-0.085-4.554c-0.106-0.05-0.231,1.692-0.305,3.864
								c-0.073,2.188-0.095,4.685,0.008,6.668c0.022,0.946,0.073,1.626,0.165,1.958c-0.124,0.381-0.171-0.626-0.209-1.969
								c-0.036-0.739-0.078-1.593-0.116-2.365c-0.037-0.7-0.073-1.326-0.114-1.696c-0.08-0.734-0.174-0.48-0.313,2.292
								c-0.218-4.685-0.25-10.699-0.206-16.436c0.036-2.865,0.032-5.653,0.142-8.153c0.133-2.5,0.25-4.714,0.341-6.432l0.685-1.149
								c0.466-7.532-0.642-5.114-0.012-14.064c-0.185,11.019,0.767-1.84,0.568,6.921c0.325-2.79,0.691-0.038,0.89-8.813
								c-0.656-7.334,0.803-9.249,0.236-16.188c0.4-4.616,0.379,4.989,0.751-4.105c-0.154-10.446-0.502-9.848-1.137-10.507
								c-0.4,9.749,0.521,10.976,0.155,18.95l-0.628-15.888c-0.234,2.92-0.312,5.081-0.319,6.897
								c0.027-3.188-0.056-5.898-0.21-8.218c-0.069-1.32-0.22-2.54-0.3-3.666c0.031,2.246-0.039,4.43-0.108,6.463
								c-0.07,2.032-0.136,3.916-0.193,5.563c-0.131,3.293-0.268,5.638-0.421,6.339l-0.271-1.246
								c-0.369,3.172-0.296,8.359-0.141,10.756c-0.194,8.047,0.004,16.098-0.44,17.845l-0.192-3.062
								c-0.096,4.95-0.148,7.701-0.208,10.771C503.722,387.373,503.753,390.766,503.777,396.997z M200.567,419.185
								c5.99,1.157,12.597,2.189,40.579,2.183l-2.202,0.063c7.05,0.398,13.924,0.213,21.179,0.04
								c7.256-0.143,14.893-0.474,23.471-0.101c-8.325,0.461-7.877,0.421-17.069,1.428l8.933-0.358
								c-2.475,0.619,6.436,0.263,12.989,0.26l-5.784,0.751c-3.935-0.189-14.133-0.216-13.834-0.053
								c1.116-0.062-2.25-0.22-6.961-0.464c-4.711-0.224-10.767-0.42-15.031-0.344c0.878,0.496,18.884,0.419,10.843,1.165
								c7.086-0.277,7.965,0.21,15.373-0.007c-7.104,0.37-1.759,0.676-7.048,1.059l12.147-0.225
								c0.316,0.161-17.691,0.446-7.738,1.002c4.867-0.28,17.862-0.021,18.096-0.549l0.299,0.161
								c9.104,0.07,4.005-0.766,15.185-0.519c0.132-0.266-2.001-0.438-6.006-0.365c-3.385,0.134-3.903,0.499-10.876,0.606
								c-3.126-0.398,8.41,0.011,3.569-0.664c-2.404-0.336-18.406,0.389-13.307-0.42l9.087,0.069
								c0.232-0.528,6.813-0.53,6.629-0.955c5.556-0.221,10.801,0.349,16.476-0.138c2.355-0.353-1.76-0.968,7.63-0.736
								c7.338,0.746,28.956,0.491,37.053,0.341l7.085-0.371c-0.604-0.321-13.539,0.108-8.991-0.334l11.051-0.18l-0.853,0.207
								c3.662,0.027,7.406-0.208,10.746-0.34c-3.439,0.396-11.405,0.282-9.82,0.824c5.188,0.084,5.979,0.284,10.753,0.155
								c-1.042,0.044-1.938,0.103-1.807,0.18c10.503,0.188,10.139-0.664,12.771-0.855c10.555-0.767-10.646-0.613-9.298-1.187
								l30.822-0.449c-2.632,0.19-5.281,0.381-4.286,0.603c7.562,0.218,0.174,0.426,10.789,0.349
								c-0.761-0.748,13.363-0.532,20.858-1.003c3.506,0.291,4.228,0.35-3.434,0.396c0.883,0.483,11.166,0.247,14.824,0.274
								c2.117-0.132,5.729-0.22,8.019-0.34c-3.07-0.229-1.763-0.54,4.877-0.78l0.386-0.104c-10.889-0.081-27.813-0.534-34.636-0.002
								l1.928-0.25c-12.604-0.362-27.416,1.008-33.232,0.112c0.534-0.367-2.531-0.071-2.314-0.6l-9.276,0.456l1.929-0.248
								l-15.782,0.194l0.417-0.101c-7.5,0.527-13.375,0.941-18.068,1.271c-0.017,0.23,0.472,0.299-2.029,0.48
								c-2.509,0.125-4.412,0.152-6.109,0.13c-0.013,0.001-0.013,0.001-0.013,0.003v-0.003c-3.873-0.049-6.453-0.367-11.223-0.479
								l14.676-0.127c1.194-0.396-0.056-0.795-7.247-1.034c2.94-0.029,4.17-0.34,0.531-0.367c-0.399,0.104-9.615,0.296-6.104,0.59
								c-13.941,0.209-36.51-0.709-57.677,0.135c15.207-0.52-12.187-0.466,4.694-0.706c-11.782-0.592-10.14,0.726-22.151,0.53
								c-1.024-0.238,6.54,0.088,9.3-0.365c-19.97-0.356-33.698,0.79-53.019,0.476l-0.824-0.492
								C208.853,419.101,204.792,419.142,200.567,419.185z M162.345,419.534c-3.719,0.03-7.49,0.061-11.323,0.092
								c0.374,0.007,0.721,0.014,1.112,0.021l-11.176,0.317c6.864,0.236,11.383,0.803,1.773,0.987
								c0.81-0.196-1.997-0.462,1.345-0.558c-6.437-0.336-20.561-0.715-16.884,0.047c12.378-0.612,2.876,0.957,12.603,0.506
								c-5.221,0.445-10.389,0.194-15.318,0.375c5.133-0.367-1.188-0.918-8.891-1.161c-3.355,0.096-12.43-0.079-18.005,0.078
								c1.982,0.464-2.873,0.688,6.207,0.863c-3.333,0.096-8.49,0.154-14.263-0.116c2.291-0.062,6.296-0.09,6.021-0.255
								c-3.723-0.439-8.088-0.45-10.495-0.644c-1.921,0.011-3.859,0.022-5.746,0.033c0.563,0.043,1.05,0.098,1.396,0.164
								l-6.387,0.354c8.503-0.154,3.927,0.234,3.814,0.497c0.234-0.525-5.472-0.105-8.382-0.107l6.315,0.6
								c-3.058,0.259-10.783-0.476-9.193,0.087c13.409,0.313,18.566,0.252,30.696,0.168l-4.919-0.466
								c13.687-0.214,8.433,0.799,23.788,0.882c6.386-0.352,23.091,0.129,23.414-0.661c-1.927,0.229,9.556,0.77,14.82,0.446
								c5.82-0.685,23.407-0.663,18.082-1.029c-4.751-0.041-11.149,0.313-14.966-0.184l9.218-0.088l-6.045-0.436
								C164.079,420.512,163.778,420.124,162.345,419.534z M18.51,363.422c0.007-0.101,0.017-0.233,0.026-0.356
								c-0.007,0.137-0.013,0.269-0.02,0.396L18.51,363.422z"/>
							<path fill="#FFFFFF" d="M503.809,135.099c-0.161-2.653-0.085-9.208-0.481-7.928
								C503.755,127.017,503.309,138.885,503.809,135.099z"/>
							<path fill="#FFFFFF" d="M504.281,127.264c-0.099-0.462-0.265-0.143-0.258-3.084l0.051,8.099L504.281,127.264z"/>
							<path fill="#FFFFFF" d="M507.261,119.082c-0.272-4.18-0.423-6.828-0.322-13.382c1.066-2.451,0.173,10.733,1.11,13.716
								c0.229-12.014-0.639-15.712-0.618-25.594C506.943,98.715,506.475,118.712,507.261,119.082z"/>
							<polygon fill="#FFFFFF" points="508.526,124.431 508.354,117.749 508.286,118.408 508.461,125.094 							"/>
							<path fill="#FFFFFF" d="M500.309,269.23c-0.326,0.604-0.007,4.702,0.071,6.907C500.4,274.346,500.487,271.834,500.309,269.23
								z"/>
							<path fill="#FFFFFF" d="M289.658,15.742c0,0,12.735-0.036,25.471-0.071c12.758-0.092,25.515-0.184,25.515-0.184
								C325.974,15.561,312.43,15.628,289.658,15.742z"/>
							<path fill="#FFFFFF" d="M483.74,416.474c5.182-0.156,9.226-0.396,12.748-0.909c0.507-0.087,0.655-0.124,0.899-0.175
								c0.231-0.055,0.455-0.08,0.681-0.159c0.451-0.128,0.887-0.274,1.291-0.488c0.393-0.204,0.811-0.523,0.875-1.023
								c0.038-0.488-0.044-0.984-0.06-1.481c-0.018-0.279-0.035-0.566-0.055-0.861c-0.016-0.694-0.033-1.41-0.051-2.147
								c-0.024-1.477-0.052-3.045-0.08-4.727c-0.055,1.669-0.091,3.236-0.111,4.716c-0.008,1.039-0.016,2.016-0.022,2.942
								c0.007,0.32,0.013,0.632,0.02,0.935c0.027,0.303-0.031,0.624-0.231,0.839c-0.378,0.45-0.932,0.609-1.429,0.788
								c-0.257,0.081-0.514,0.168-0.767,0.215l-0.383,0.087l-0.2,0.045l-0.382,0.07c-0.494,0.107-1.042,0.166-1.587,0.225
								l-1.628,0.185c-4.396,0.428-9.13,0.539-15.438,0.296L483.74,416.474z"/>
							<path fill="#FFFFFF" d="M488.48,413.825c1.119,0.288-1.464,0.511-4.114,0.697c-2.673,0.172-5.38,0.323-4.385,0.542
								c4.614-0.092,5.677-0.25,6.622-0.388c0.952-0.134,1.821-0.226,5.835-0.338L488.48,413.825z"/>
							<polygon fill="#FFFFFF" points="508.953,371.446 509.154,375.593 509.133,372.259 							"/>
							<polygon fill="#FFFFFF" points="426.2,414.699 427.711,414.554 420.85,414.393 							"/>
							<path fill="#FFFFFF" d="M429.221,414.406l-1.51,0.147L429.221,414.406z"/>
							<polygon fill="#FFFFFF" points="510.115,376.796 510.42,370.653 510.225,367.605 							"/>
							<path fill="#FFFFFF" d="M490.916,421.899c0,0,0.349-0.023,0.871-0.059c0.521-0.03,1.221-0.081,1.927-0.162
								c1.408-0.146,2.813-0.292,2.813-0.292c-0.559,0.057-2.775,0.179-4.431,0.237C490.445,421.67,489.327,421.745,490.916,421.899
								z"/>
							<polygon fill="#FFFFFF" points="384.31,414.64 377.602,414.906 378.287,414.963 384.974,414.697 							"/>
							<path fill="#FFFFFF" d="M447.7,423.884c3.815,0.452-11.007,0.18-3.161,0.559C451.516,424.336,448.683,424.104,447.7,423.884z
								"/>
							<path fill="#FFFFFF" d="M366.687,421.081c-0.906,0.005-1.859,0.025-2.778,0.082
								C365.003,421.131,365.921,421.104,366.687,421.081z"/>
							<path fill="#FFFFFF" d="M366.687,421.081c2.923-0.014,5.847,0.152,7.851,0.007
								C370.892,420.893,369.564,420.979,366.687,421.081z"/>
							<path fill="#FFFFFF" d="M333.197,421.351l2.65,0.021c-2.707,0.244-1.424,0.204,0.993,0.006
								c2.809-0.029,2.65-0.178,2.984-0.28c0.562-0.063,1.12-0.124,1.727-0.191c-0.865,0.068-1.644,0.129-2.303,0.181
								C334.897,421.104,332.243,421.14,333.197,421.351z"/>
							<path fill="#FFFFFF" d="M208.823,413.37c9.784,0.241,12.314,0.343,11.782,0.704c9.288,0.179,7.849-0.459,13.451-0.567
								C223.545,413.506,221.398,413.323,208.823,413.37z"/>
							<path fill="#FFFFFF" d="M234.056,413.507c1.177-0.002,2.302-0.003,3.668-0.005
								C236.195,413.48,235.062,413.488,234.056,413.507z"/>
							<polygon fill="#FFFFFF" points="372.357,425.155 366.275,425.743 368.509,425.654 							"/>
							<path fill="#FFFFFF" d="M194.303,413.088c1.814,0.035,4.723,0.039,6.15,0.174
								C200.978,412.898,192.493,413.053,194.303,413.088z"/>
							<path fill="#FFFFFF" d="M232.02,420.501c0.993,0.23,7.256,0.139,9.806,0.242C238.168,420.671,235.19,419.978,232.02,420.501z
								"/>
							<path fill="#FFFFFF" d="M166.223,414.404c1.814,0.035,4.603,0.3,3.393,0.594
								C172.253,414.837,175.825,414.217,166.223,414.404z"/>
							<polygon fill="#FFFFFF" points="214.131,420.314 215.528,420.448 222.228,420.259 							"/>
							<path fill="#FFFFFF" d="M238.011,425.867c7.536-0.384-11.951-1.131,1.027-1.412c-16.739-0.569,1.282,0.625-11.066,0.471
								C235.203,425.122,238.745,425.697,238.011,425.867z"/>
							<path fill="#FFFFFF" d="M227.972,424.926c-1.051-0.019-2.189-0.038-3.425-0.061
								C225.914,424.89,227.018,424.909,227.972,424.926z"/>
							<path fill="#FFFFFF" d="M121.943,421.452c1.095-0.038,1.843-0.082,2.533-0.13
								C123.615,421.353,122.792,421.392,121.943,421.452z"/>
							<path fill="#FFFFFF" d="M188.531,425.02l11.297-0.578c-7.546,0.385-26.525,0.23-25.346,0.89
								c6.146,0.174,13.542,0.051,16.581-0.21L188.531,425.02z"/>
							<path fill="#FFFFFF" d="M59.031,412.334l4.88-0.225l-6.088-0.117C59.565,412.102,56.405,412.559,59.031,412.334z"/>
							<path fill="#FFFFFF" d="M56.645,411.971l1.177,0.021C57.563,411.975,57.19,411.966,56.645,411.971z"/>
							<path fill="#FFFFFF" d="M143.304,421.281c3.648,0.07,6.567,0.072,9.895-0.021
								C151.82,421.128,142.731,420.952,143.304,421.281z"/>
							<path fill="#FFFFFF" d="M24.875,413.162c0,0,1.916,0.058,3.864,0.063c1.956-0.01,3.912-0.019,3.912-0.019
								s-2.133-0.01-4.266-0.021c-2.123-0.027-4.203-0.121-4.203-0.121L24.875,413.162z"/>
							<path fill="#FFFFFF" d="M18.91,394.638l0.232-1.385c0,0,0.017-0.42,0.042-1.05c0.016-0.63,0.037-1.469,0.059-2.309
								c0.042-1.68,0.084-3.358,0.084-3.358l-0.208,1.408c0,0-0.042,1.673-0.084,3.347c-0.016,0.837-0.05,1.674-0.08,2.301
								C18.928,394.219,18.91,394.638,18.91,394.638z"/>
							<path fill="#FFFFFF" d="M36.21,425.012c2.767,0.008,5.209-0.172,6.752-0.347c1.547-0.177,2.167-0.347,1.51-0.408
								l-10.59,0.156c2.719,0.498,3.014-0.028,9.127-0.001L36.21,425.012z"/>
							<path fill="#FFFFFF" d="M18.141,115.145c0.413,2.353,0.561,13.927,0.253,14.543c-0.187-1.55-0.51-7.818-0.599-3.872
								l1.114,9.128c-0.155,12.195-1.383-9.224-1.856-15.226c0.261,12.406,0.924,16.067,1.321,29.268
								c-0.042-3.896,0.092-6.362,0.21-8.424c0.575-0.465,0.694,11.838,0.994,20.634c0.095-5.608,0.405-2.375,0.755,1.698
								c0.04,0.734,0.087,1.221,0.137,1.567c0.042,0.474,0.082,0.922,0.123,1.383l-0.031-1.055c0.068,0.073,0.142-0.163,0.229-0.926
								c-0.382-7.379-0.063-13.034-0.198-17.784c-0.818,4.722-0.713-16.17-1.185-22.126l-0.301-6.888l-0.079-2.578
								c0.09-0.521,0.244,0.208,0.551,4.133c-0.292-3.276-0.544-14.215-0.818-13.196l-0.689-24.953
								c0.021-0.778,0.051-1.556,0.106-2.132c-0.081-0.863-0.134-1.006-0.18-0.891c0,0-0.164-6.792-0.41-16.98
								c-0.098-5.092-0.212-11.033-0.334-17.399c-0.016-0.795-0.031-1.598-0.046-2.406l-0.023-1.217l-0.012-0.611l-0.003-0.286
								l0.009-0.173c-0.014-0.951,0.138-1.785,0.406-2.585c0.537-1.571,1.638-3.179,3.563-4.714c0.94-0.761,2.003-1.505,3.204-2.173
								c1.176-0.683,2.456-1.309,3.787-1.881c2.661-1.148,5.501-2.1,8.336-2.896c5.688-1.586,11.32-2.601,16.178-3.344
								c4.865-0.743,8.992-1.19,11.881-1.492c2.899-0.275,4.556-0.432,4.556-0.432c-5.247,0.386-9.778,0.662-15.105,1.311
								c3.946-0.874,1.762-0.605-1.126-0.211c-2.889,0.39-6.42,1.032-5.321,0.522c3.497-0.874,8.787-1.542,11.964-1.765
								c1.14-0.452-3.394-0.158-2.921-0.58c-6.679,0.705-10.421,1.673-14.033,2.737c-1.802,0.543-3.583,1.1-5.642,1.766
								c-2.055,0.668-4.416,1.407-7.269,2.441c0.155-0.258,1.091-0.798,1.063-0.904c-0.017-0.056-0.291-0.021-1.011,0.232
								c-0.723,0.248-1.926,0.683-3.68,1.527c0,0,0.44-0.229,0.881-0.457c0.456-0.214,0.912-0.429,0.912-0.429
								c-2.887,1.332-4.689,2.387-5.971,3.183c-0.665,0.385-1.136,0.747-1.6,1.027c-0.412,0.309-0.797,0.553-1.113,0.8
								c-0.634,0.494-1.14,0.936-1.658,1.607c-0.503,0.669-1.028,1.585-1.342,2.964l-0.428-0.343
								c-0.332,1.012-0.593,2.254-0.582,3.743c0,0.186,0,0.375,0,0.564c0.011,0.275,0.022,0.553,0.034,0.833
								c0.021,0.563,0.044,1.137,0.066,1.717c0.039,1.16,0.079,2.347,0.119,3.539c0.131,4.768,0.263,9.613,0.359,13.105
								l-0.109-0.415c1.031,19.588,0.361,11,1.167,33.008l-0.876-10.116c-0.078,7.601,0.658,9.296,0.736,14.751
								c-0.113-0.388-0.463,0.887-0.703-4.261l1.699,26.694C18.186,123.817,17.946,116.145,18.141,115.145z"/>
							<path fill="#FFFFFF" d="M18.374,148.986c0.015,1.416,0.051,3.024,0.129,4.922C18.455,152.075,18.413,150.498,18.374,148.986z
								"/>
							<path fill="#FFFFFF" d="M76.573,18.269c0,0-1.874,0.139-3.748,0.277c-1.869,0.156-3.737,0.312-3.737,0.312
								C71.407,18.675,73.824,18.485,76.573,18.269z"/>
							<path fill="#FFFFFF" d="M20.621,187.297c0.153-4.648,0.471,3.465,0.695,4.27l-0.455-16.622
								c-0.202,0.08-0.476-1.558-0.652-1.218L20.621,187.297z"/>
							<path fill="#FFFFFF" d="M21.104,170.124c-0.158-0.559-0.334-2.313-0.512-4.28l0.269,9.101
								C21.012,174.883,21.12,173.859,21.104,170.124z"/>
							<polygon fill="#FFFFFF" points="10.318,172.19 10.215,169.252 9.93,164.812 							"/>
							<path fill="#FFFFFF" d="M9.844,126.199c-0.204,3.521,0.23,10.174,0.376,12.399C9.979,130.923,10.196,134.246,9.844,126.199z"
								/>
							<polygon fill="#FFFFFF" points="6.83,135.786 6.434,128.391 6.394,129.083 							"/>
							<path fill="#FFFFFF" d="M132.585,14.618c1.21-0.015,2.386-0.03,3.609-0.045C134.541,14.573,133.462,14.592,132.585,14.618z"
								/>
							<path fill="#FFFFFF" d="M69.601,17.23c4.343-0.219,5.813-0.2,5.651-0.105c-0.162,0.094-1.951,0.291-4.104,0.538
								c-4.315,0.477-10.044,1.281-7.309,1.369c0,0,2.334-0.289,4.668-0.578c2.346-0.258,4.691-0.516,4.691-0.516l-0.785,0.266
								c0,0,2.874-0.223,5.747-0.446c2.883-0.188,5.767-0.376,5.767-0.376c-2.388-0.215-4.171-0.132-3.678-0.527
								c7.72-0.373,8.953-0.275,9.661-0.169c0.711,0.12,0.906,0.286,6.594,0.314c0,0,4.333-0.141,8.666-0.281
								c4.341-0.101,8.683-0.201,8.683-0.201l-1.405,0.131c1.464-0.031,2.109-0.087,2.611-0.154c0,0,3.665-0.055,9.162-0.137
								c5.508-0.04,12.853-0.093,20.197-0.146c14.729-0.032,29.458-0.065,29.458-0.065c10.736-0.285-5.937-0.661,1.981-1.194
								c-12.446-0.01-30.893-0.449-31.944,0.292c0.417-0.101,1.238-0.301-1.277-0.388l-7.172,0.61l6.838,0.181
								c-3.607,0.3-11.229,0.424-18.463,0.481c-7.236,0.05-14.083,0.053-16.183-0.087c6.591-0.235,8.236-0.471,10.528-0.661
								c2.293-0.18,5.235-0.312,14.455-0.153c-0.829-0.181-4.207-0.494-0.055-0.61c-10.804,0.148-21.034,0.229-31.332,0.534
								C90.961,15.469,80.582,15.982,69.601,17.23z"/>
							<path fill="#FFFFFF" d="M286.293,15.16l-0.172,0.065C286.512,15.191,286.64,15.165,286.293,15.16z"/>
							<path fill="#FFFFFF" d="M279.026,15.045l-10.558,0.678l16.453-0.001l1.199-0.497c-1.455,0.122-7.226,0.356-9.461,0.153
								L279.026,15.045z"/>
							<path fill="#FFFFFF" d="M256.213,16.113c8.498-0.184,8.04-0.776,3.406-1.06c7.805-0.247,4.113,0.648,9.49,0.043
								c-0.174-0.426-9.793-0.209-12.003-0.139L256.213,16.113z"/>
							<polygon fill="#FFFFFF" points="193.521,15.589 195.911,15.352 190.023,15.268 							"/>
							<path fill="#FFFFFF" d="M195.911,15.352l5.843,0.086c-0.404-0.183-0.804-0.362-1.757-0.489L195.911,15.352z"/>
							<path fill="#FFFFFF" d="M217.087,15.66c2.474,0.036,5.21,0.075,8.541,0.123L217.087,15.66z"/>
							<path fill="#FFFFFF" d="M210.405,15.487l0.197,0.078l6.485,0.095C214.697,15.599,212.553,15.543,210.405,15.487z"/>
							<path fill="#FFFFFF" d="M201.754,15.438c0.949,0.417,2.06,0.854,10.508,0.768l-1.66-0.641L201.754,15.438z"/>
							<polygon fill="#FFFFFF" points="5.914,81.93 5.52,75.246 5.473,75.956 5.868,82.636 							"/>
							<path fill="#FFFFFF" d="M5.466,43.316c-0.104-1.653-0.203-2.906-0.303-4.044C5.241,41.014,5.336,42.399,5.466,43.316z"/>
							<path fill="#FFFFFF" d="M20.758,14.34c2.086-0.856,2.432-0.85,2.026-0.615c-0.407,0.239-1.567,0.829-2.508,1.343
								c-0.942,0.514-1.665,0.969-1.217,0.779c0.447-0.168,2.065-1.039,5.826-2.47c0.729-0.064-0.62,0.639-3,1.869
								c-2.374,1.258-5.806,3.064-9.126,5.672c0.135-0.373,1.719-1.672,2.762-2.395c1.037-0.741,1.493-1.113-0.721,0.106
								c-2.154,1.723-3.587,3.139-4.289,3.888c-0.695,0.771-0.669,0.848,0.232,0.317c-3.313,3.614-4.411,6.524-5.036,8.856
								c-0.31,1.19-0.472,2.299-0.581,3.521c-0.021,0.61-0.081,1.254-0.065,1.943c0.012,0.343,0.024,0.701,0.037,1.077
								c0.007,0.184,0.015,0.373,0.023,0.565c0.014,0.155,0.028,0.313,0.042,0.475c-0.174-2.589,0.256-6.857,2.401-10.576
								c2.078-3.792,5.479-6.926,9.069-9.168c3.604-2.295,7.431-3.939,11.047-5.265c3.622-1.327,7.052-2.347,9.989-3.22
								c3.208-1.08,3.785-1.567,3.525-1.953c-0.257-0.388-1.355-0.628-1.443-1.093c-0.525,0.003-5.132,0.885-9.709,2.32
								c-2.287,0.709-4.563,1.576-6.288,2.34C22.026,13.443,20.855,14.109,20.758,14.34z"/>
							<path fill="#FFFFFF" d="M7.615,22.583c-0.848,0.988-1.533,1.839-2.056,2.667c-0.266,0.407-0.511,0.78-0.729,1.143
								c-0.202,0.379-0.391,0.734-0.572,1.074c-0.369,0.673-0.633,1.338-0.901,2.019c-0.285,0.673-0.49,1.401-0.725,2.229
								c0.146-0.199,0.33-0.669,0.557-1.325c0.262-0.638,0.569-1.476,0.979-2.375C4.977,26.197,6.247,24.175,7.615,22.583z"/>
							<path fill="#FFFFFF" d="M93.821,9.025c0.689-0.167,7.275-0.545,5.852-0.73c0,0-2.498,0.124-4.995,0.248
								c-2.497,0.141-4.994,0.281-4.994,0.281C92.031,8.749,92.865,8.884,93.821,9.025z"/>
							<path fill="#FFFFFF" d="M85.305,9.103l4.379-0.279C88.588,8.865,87.233,8.934,85.305,9.103z"/>
							<path fill="#FFFFFF" d="M94.3,9.093c-0.16-0.023-0.302-0.043-0.479-0.068C93.682,9.059,93.709,9.087,94.3,9.093z"/>
							<path fill="#FFFFFF" d="M241.298,15.98c-0.142,0.261,4.305,0.121,6.537,0.05C246.021,16.002,243.473,15.908,241.298,15.98z"
								/>
							<path fill="#FFFFFF" d="M408.807,14.967l3.93,0.179C411.348,15.033,410.635,14.976,408.807,14.967z"/>
							<path fill="#FFFFFF" d="M469.407,7.639c0.117-0.045,0.411-0.073,0.809-0.094C469.819,7.559,469.542,7.588,469.407,7.639z"/>
							<path fill="#FFFFFF" d="M470.216,7.545c1.36-0.051,4.129,0.144,6.932,0.408c2.803,0.258,5.636,0.608,7.159,0.654
								l-0.395,0.046c0,0,1.402,0.133,2.805,0.314c1.403,0.168,2.807,0.379,2.807,0.379c-2.616-0.478-6.675-1.081-10.468-1.413
								C475.264,7.583,471.742,7.455,470.216,7.545z"/>
						</g>
					</g>
				</g>
			</g>
		</g>
	</g>
</g>
</svg>
